<svg width="600" height="150" viewBox="0 0 600 150" xmlns="http://www.w3.org/2000/svg">
  <defs>
    <filter id="shadow2" x="-2%" y="-2%" width="104%" height="108%">
      <feDropShadow dx="0" dy="2" stdDeviation="3" flood-opacity="0.1" />
    </filter>
    <linearGradient id="fillGrad" x1="0" y1="0" x2="0" y2="1">
      <stop offset="0%" stop-color="#0366d6" stop-opacity="0.3"/>
      <stop offset="100%" stop-color="#0366d6" stop-opacity="0.02"/>
    </linearGradient>
  </defs>
  <rect width="600" height="150" rx="12" fill="#ffffff" filter="url(#shadow2)" stroke="#e1e4e8" stroke-width="1"/>
  <text x="20" y="24" fill="#2b3137" font-family="-apple-system,BlinkMacSystemFont,'Segoe UI',Helvetica,Arial,sans-serif" font-size="14" font-weight="600">📈 Download Growth (Actual: 88.1k)</text>
  
  <!-- Area sotto la linea -->
  <polygon fill="url(#fillGrad)" points="30.0,120.0,120 30.0,120.0 31.3,119.5 32.5,119.0 33.8,118.6 35.0,118.4 36.3,118.2 37.6,117.7 38.8,117.3 40.1,117.0 41.3,116.5 42.6,116.2 43.8,115.9 45.1,115.7 46.4,115.5 47.6,115.1 48.9,114.7 50.1,114.4 51.4,114.2 52.7,114.0 53.9,113.8 55.2,113.5 56.4,113.2 57.7,113.1 59.0,112.8 60.2,111.9 61.5,111.7 62.7,111.3 64.0,111.0 65.2,110.7 66.5,110.4 67.8,110.2 69.0,110.0 70.3,109.8 71.5,109.3 72.8,109.0 74.1,108.7 75.3,108.4 76.6,108.3 77.8,108.3 79.1,108.1 80.3,107.8 81.6,107.6 82.9,107.5 84.1,107.2 85.4,106.7 86.6,106.6 87.9,106.5 89.2,106.3 90.4,105.9 91.7,105.7 92.9,105.3 94.2,105.0 95.5,104.7 96.7,104.6 98.0,104.4 99.2,104.0 100.5,103.7 101.7,103.4 103.0,103.3 104.3,103.1 105.5,102.9 106.8,102.5 108.0,102.1 109.3,101.8 110.6,101.5 111.8,101.3 113.1,101.2 114.3,101.1 115.6,100.8 116.9,100.6 118.1,100.5 119.4,100.3 120.6,100.2 121.9,100.0 123.1,99.9 124.4,99.8 125.7,99.7 126.9,99.3 128.2,99.1 129.4,99.1 130.7,98.9 132.0,98.9 133.2,98.9 134.5,104.9 135.7,104.3 137.0,103.8 138.3,103.2 139.5,101.6 140.8,100.4 142.0,99.2 143.3,98.7 144.5,98.2 145.8,97.4 147.1,96.4 148.3,95.8 149.6,95.5 150.8,95.3 152.1,94.6 153.4,94.1 154.6,93.8 155.9,93.4 157.1,93.3 158.4,93.2 159.7,92.9 160.9,92.3 162.2,91.9 163.4,91.5 164.7,91.0 165.9,90.8 167.2,90.6 168.5,90.3 169.7,89.9 171.0,89.6 172.2,89.3 173.5,89.2 174.8,89.1 176.0,88.9 177.3,88.6 178.5,88.4 179.8,88.2 181.0,88.0 182.3,87.8 183.6,87.6 184.8,87.5 186.1,87.3 187.3,87.2 188.6,86.9 189.9,86.6 191.1,86.4 192.4,86.2 193.6,86.0 194.9,85.9 196.2,85.8 197.4,85.6 198.7,85.2 199.9,84.9 201.2,84.5 202.4,84.4 203.7,84.4 205.0,84.2 206.2,84.0 207.5,83.8 208.7,83.6 210.0,83.3 211.3,83.1 212.5,83.0 213.8,82.9 215.0,82.8 216.3,82.6 217.6,82.5 218.8,82.3 220.1,82.1 221.3,81.9 222.6,81.9 223.8,81.7 225.1,81.6 226.4,81.4 227.6,81.2 228.9,81.0 230.1,80.8 231.4,80.6 232.7,80.5 233.9,80.4 235.2,80.3 236.4,80.0 237.7,79.8 239.0,79.6 240.2,79.4 241.5,79.1 242.7,79.0 244.0,78.9 245.2,78.8 246.5,78.6 247.8,78.5 249.0,78.3 250.3,78.2 251.5,78.0 252.8,77.9 254.1,77.7 255.3,77.6 256.6,77.6 257.8,77.4 259.1,77.1 260.3,77.0 261.6,76.8 262.9,76.8 264.1,76.6 265.4,76.5 266.6,76.4 267.9,76.3 269.2,76.1 270.4,75.9 271.7,75.6 272.9,75.4 274.2,75.3 275.5,75.2 276.7,75.1 278.0,75.0 279.2,74.7 280.5,74.6 281.7,74.5 283.0,74.3 284.3,74.2 285.5,74.0 286.8,73.9 288.0,73.8 289.3,73.6 290.6,73.5 291.8,73.3 293.1,73.1 294.3,73.0 295.6,72.9 296.9,72.9 298.1,72.7 299.4,72.6 300.6,72.4 301.9,72.3 303.1,72.1 304.4,72.0 305.7,71.9 306.9,71.8 308.2,71.7 309.4,71.5 310.7,71.3 312.0,71.1 313.2,71.0 314.5,70.9 315.7,70.8 317.0,70.7 318.3,70.6 319.5,70.5 320.8,70.4 322.0,70.2 323.3,70.1 324.5,69.9 325.8,69.8 327.1,69.7 328.3,69.6 329.6,69.4 330.8,69.3 332.1,69.2 333.4,69.1 334.6,68.9 335.9,68.8 337.1,68.6 338.4,68.6 339.7,68.5 340.9,68.4 342.2,68.3 343.4,68.1 344.7,68.0 345.9,68.0 347.2,67.9 348.5,67.6 349.7,67.4 351.0,71.3 352.2,70.6 353.5,69.1 354.8,68.5 356.0,67.8 357.3,67.0 358.5,66.5 359.8,66.2 361.0,65.6 362.3,64.8 363.6,64.1 364.8,63.9 366.1,63.6 367.3,63.3 368.6,62.9 369.9,62.5 371.1,62.0 372.4,61.8 373.6,61.3 374.9,61.1 376.2,60.8 377.4,60.6 378.7,60.4 379.9,60.2 381.2,59.7 382.4,59.5 383.7,59.1 385.0,58.5 386.2,58.2 387.5,58.0 388.7,57.9 390.0,57.6 391.3,57.3 392.5,57.0 393.8,56.7 395.0,55.9 396.3,55.3 397.6,55.0 398.8,54.8 400.1,54.6 401.3,54.2 402.6,53.8 403.8,53.5 405.1,53.2 406.4,53.0 407.6,52.7 408.9,52.4 410.1,52.1 411.4,51.8 412.7,51.7 413.9,51.5 415.2,51.2 416.4,50.9 417.7,50.7 419.0,50.6 420.2,50.4 421.5,50.2 422.7,50.0 424.0,49.9 425.2,49.7 426.5,49.5 427.8,49.4 429.0,49.1 430.3,49.0 431.5,48.6 432.8,48.3 434.1,48.1 435.3,47.9 436.6,47.7 437.8,47.6 439.1,47.4 440.3,47.3 441.6,47.1 442.9,47.0 444.1,46.9 445.4,46.7 446.6,46.6 447.9,46.3 449.2,46.2 450.4,46.0 451.7,45.8 452.9,45.5 454.2,45.2 455.5,45.0 456.7,44.8 458.0,44.6 459.2,44.4 460.5,44.2 461.7,44.0 463.0,43.8 464.3,43.7 465.5,43.6 466.8,43.4 468.0,43.2 469.3,43.0 470.6,42.9 471.8,42.7 473.1,42.5 474.3,42.3 475.6,42.0 476.9,41.9 478.1,41.6 479.4,41.4 480.6,41.2 481.9,41.1 483.1,41.0 484.4,40.8 485.7,40.6 486.9,40.5 488.2,40.3 489.4,40.1 490.7,40.0 492.0,39.9 493.2,39.7 494.5,39.6 495.7,39.4 497.0,39.3 498.3,39.2 499.5,39.0 500.8,38.9 502.0,38.7 503.3,38.6 504.5,38.5 505.8,38.3 507.1,38.1 508.3,37.9 509.6,37.8 510.8,37.7 512.1,37.6 513.4,37.3 514.6,37.1 515.9,36.9 517.1,36.8 518.4,36.7 519.7,36.6 520.9,36.5 522.2,36.3 523.4,36.1 524.7,35.8 525.9,35.7 527.2,35.5 528.5,35.4 529.7,35.3 531.0,35.1 532.2,35.0 533.5,34.8 534.8,34.6 536.0,34.5 537.3,34.2 538.5,34.0 539.8,33.9 541.0,33.6 542.3,33.5 543.6,33.3 544.8,33.1 546.1,32.9 547.3,32.7 548.6,32.6 549.9,32.4 551.1,32.3 552.4,32.1 553.6,31.9 554.9,31.8 556.2,31.6 557.4,31.4 558.7,31.2 559.9,31.1 561.2,30.9 562.4,30.7 563.7,30.7 565.0,30.5 566.2,30.3 567.5,30.2 568.7,30.1 570.0,30.0 570.0,30.0,120" />
  
  <!-- Linea principale -->
  <polyline fill="none" stroke="#0366d6" stroke-width="2.5" stroke-linecap="round" stroke-linejoin="round" points="30.0,120.0 31.3,119.5 32.5,119.0 33.8,118.6 35.0,118.4 36.3,118.2 37.6,117.7 38.8,117.3 40.1,117.0 41.3,116.5 42.6,116.2 43.8,115.9 45.1,115.7 46.4,115.5 47.6,115.1 48.9,114.7 50.1,114.4 51.4,114.2 52.7,114.0 53.9,113.8 55.2,113.5 56.4,113.2 57.7,113.1 59.0,112.8 60.2,111.9 61.5,111.7 62.7,111.3 64.0,111.0 65.2,110.7 66.5,110.4 67.8,110.2 69.0,110.0 70.3,109.8 71.5,109.3 72.8,109.0 74.1,108.7 75.3,108.4 76.6,108.3 77.8,108.3 79.1,108.1 80.3,107.8 81.6,107.6 82.9,107.5 84.1,107.2 85.4,106.7 86.6,106.6 87.9,106.5 89.2,106.3 90.4,105.9 91.7,105.7 92.9,105.3 94.2,105.0 95.5,104.7 96.7,104.6 98.0,104.4 99.2,104.0 100.5,103.7 101.7,103.4 103.0,103.3 104.3,103.1 105.5,102.9 106.8,102.5 108.0,102.1 109.3,101.8 110.6,101.5 111.8,101.3 113.1,101.2 114.3,101.1 115.6,100.8 116.9,100.6 118.1,100.5 119.4,100.3 120.6,100.2 121.9,100.0 123.1,99.9 124.4,99.8 125.7,99.7 126.9,99.3 128.2,99.1 129.4,99.1 130.7,98.9 132.0,98.9 133.2,98.9 134.5,104.9 135.7,104.3 137.0,103.8 138.3,103.2 139.5,101.6 140.8,100.4 142.0,99.2 143.3,98.7 144.5,98.2 145.8,97.4 147.1,96.4 148.3,95.8 149.6,95.5 150.8,95.3 152.1,94.6 153.4,94.1 154.6,93.8 155.9,93.4 157.1,93.3 158.4,93.2 159.7,92.9 160.9,92.3 162.2,91.9 163.4,91.5 164.7,91.0 165.9,90.8 167.2,90.6 168.5,90.3 169.7,89.9 171.0,89.6 172.2,89.3 173.5,89.2 174.8,89.1 176.0,88.9 177.3,88.6 178.5,88.4 179.8,88.2 181.0,88.0 182.3,87.8 183.6,87.6 184.8,87.5 186.1,87.3 187.3,87.2 188.6,86.9 189.9,86.6 191.1,86.4 192.4,86.2 193.6,86.0 194.9,85.9 196.2,85.8 197.4,85.6 198.7,85.2 199.9,84.9 201.2,84.5 202.4,84.4 203.7,84.4 205.0,84.2 206.2,84.0 207.5,83.8 208.7,83.6 210.0,83.3 211.3,83.1 212.5,83.0 213.8,82.9 215.0,82.8 216.3,82.6 217.6,82.5 218.8,82.3 220.1,82.1 221.3,81.9 222.6,81.9 223.8,81.7 225.1,81.6 226.4,81.4 227.6,81.2 228.9,81.0 230.1,80.8 231.4,80.6 232.7,80.5 233.9,80.4 235.2,80.3 236.4,80.0 237.7,79.8 239.0,79.6 240.2,79.4 241.5,79.1 242.7,79.0 244.0,78.9 245.2,78.8 246.5,78.6 247.8,78.5 249.0,78.3 250.3,78.2 251.5,78.0 252.8,77.9 254.1,77.7 255.3,77.6 256.6,77.6 257.8,77.4 259.1,77.1 260.3,77.0 261.6,76.8 262.9,76.8 264.1,76.6 265.4,76.5 266.6,76.4 267.9,76.3 269.2,76.1 270.4,75.9 271.7,75.6 272.9,75.4 274.2,75.3 275.5,75.2 276.7,75.1 278.0,75.0 279.2,74.7 280.5,74.6 281.7,74.5 283.0,74.3 284.3,74.2 285.5,74.0 286.8,73.9 288.0,73.8 289.3,73.6 290.6,73.5 291.8,73.3 293.1,73.1 294.3,73.0 295.6,72.9 296.9,72.9 298.1,72.7 299.4,72.6 300.6,72.4 301.9,72.3 303.1,72.1 304.4,72.0 305.7,71.9 306.9,71.8 308.2,71.7 309.4,71.5 310.7,71.3 312.0,71.1 313.2,71.0 314.5,70.9 315.7,70.8 317.0,70.7 318.3,70.6 319.5,70.5 320.8,70.4 322.0,70.2 323.3,70.1 324.5,69.9 325.8,69.8 327.1,69.7 328.3,69.6 329.6,69.4 330.8,69.3 332.1,69.2 333.4,69.1 334.6,68.9 335.9,68.8 337.1,68.6 338.4,68.6 339.7,68.5 340.9,68.4 342.2,68.3 343.4,68.1 344.7,68.0 345.9,68.0 347.2,67.9 348.5,67.6 349.7,67.4 351.0,71.3 352.2,70.6 353.5,69.1 354.8,68.5 356.0,67.8 357.3,67.0 358.5,66.5 359.8,66.2 361.0,65.6 362.3,64.8 363.6,64.1 364.8,63.9 366.1,63.6 367.3,63.3 368.6,62.9 369.9,62.5 371.1,62.0 372.4,61.8 373.6,61.3 374.9,61.1 376.2,60.8 377.4,60.6 378.7,60.4 379.9,60.2 381.2,59.7 382.4,59.5 383.7,59.1 385.0,58.5 386.2,58.2 387.5,58.0 388.7,57.9 390.0,57.6 391.3,57.3 392.5,57.0 393.8,56.7 395.0,55.9 396.3,55.3 397.6,55.0 398.8,54.8 400.1,54.6 401.3,54.2 402.6,53.8 403.8,53.5 405.1,53.2 406.4,53.0 407.6,52.7 408.9,52.4 410.1,52.1 411.4,51.8 412.7,51.7 413.9,51.5 415.2,51.2 416.4,50.9 417.7,50.7 419.0,50.6 420.2,50.4 421.5,50.2 422.7,50.0 424.0,49.9 425.2,49.7 426.5,49.5 427.8,49.4 429.0,49.1 430.3,49.0 431.5,48.6 432.8,48.3 434.1,48.1 435.3,47.9 436.6,47.7 437.8,47.6 439.1,47.4 440.3,47.3 441.6,47.1 442.9,47.0 444.1,46.9 445.4,46.7 446.6,46.6 447.9,46.3 449.2,46.2 450.4,46.0 451.7,45.8 452.9,45.5 454.2,45.2 455.5,45.0 456.7,44.8 458.0,44.6 459.2,44.4 460.5,44.2 461.7,44.0 463.0,43.8 464.3,43.7 465.5,43.6 466.8,43.4 468.0,43.2 469.3,43.0 470.6,42.9 471.8,42.7 473.1,42.5 474.3,42.3 475.6,42.0 476.9,41.9 478.1,41.6 479.4,41.4 480.6,41.2 481.9,41.1 483.1,41.0 484.4,40.8 485.7,40.6 486.9,40.5 488.2,40.3 489.4,40.1 490.7,40.0 492.0,39.9 493.2,39.7 494.5,39.6 495.7,39.4 497.0,39.3 498.3,39.2 499.5,39.0 500.8,38.9 502.0,38.7 503.3,38.6 504.5,38.5 505.8,38.3 507.1,38.1 508.3,37.9 509.6,37.8 510.8,37.7 512.1,37.6 513.4,37.3 514.6,37.1 515.9,36.9 517.1,36.8 518.4,36.7 519.7,36.6 520.9,36.5 522.2,36.3 523.4,36.1 524.7,35.8 525.9,35.7 527.2,35.5 528.5,35.4 529.7,35.3 531.0,35.1 532.2,35.0 533.5,34.8 534.8,34.6 536.0,34.5 537.3,34.2 538.5,34.0 539.8,33.9 541.0,33.6 542.3,33.5 543.6,33.3 544.8,33.1 546.1,32.9 547.3,32.7 548.6,32.6 549.9,32.4 551.1,32.3 552.4,32.1 553.6,31.9 554.9,31.8 556.2,31.6 557.4,31.4 558.7,31.2 559.9,31.1 561.2,30.9 562.4,30.7 563.7,30.7 565.0,30.5 566.2,30.3 567.5,30.2 568.7,30.1 570.0,30.0" />
  
  <!-- Punto finale luminoso -->
  <circle cx="570.0" cy="30.0" r="4" fill="#ffffff" stroke="#0366d6" stroke-width="2.5" />
</svg>