<svg width="600" height="150" viewBox="0 0 600 150" xmlns="http://www.w3.org/2000/svg">
  <defs>
    <filter id="shadow2" x="-2%" y="-2%" width="104%" height="108%">
      <feDropShadow dx="0" dy="2" stdDeviation="3" flood-opacity="0.1" />
    </filter>
    <linearGradient id="fillGrad" x1="0" y1="0" x2="0" y2="1">
      <stop offset="0%" stop-color="#0366d6" stop-opacity="0.3"/>
      <stop offset="100%" stop-color="#0366d6" stop-opacity="0.02"/>
    </linearGradient>
  </defs>
  <rect width="600" height="150" rx="12" fill="#ffffff" filter="url(#shadow2)" stroke="#e1e4e8" stroke-width="1"/>
  <text x="20" y="24" fill="#2b3137" font-family="-apple-system,BlinkMacSystemFont,'Segoe UI',Helvetica,Arial,sans-serif" font-size="14" font-weight="600">📈 Download Growth (Actual: 84.8k)</text>
  
  <!-- Area sotto la linea -->
  <polygon fill="url(#fillGrad)" points="30.0,120.0,120 30.0,120.0 31.6,119.4 33.1,118.8 34.7,118.3 36.3,118.2 37.9,117.9 39.4,117.2 41.0,116.8 42.6,116.5 44.2,115.8 45.7,115.5 47.3,115.2 48.9,115.0 50.5,114.7 52.0,114.2 53.6,113.7 55.2,113.4 56.8,113.1 58.3,112.9 59.9,112.6 61.5,112.3 63.1,112.0 64.6,111.8 66.2,111.5 67.8,110.5 69.4,110.1 70.9,109.7 72.5,109.3 74.1,108.9 75.7,108.6 77.2,108.4 78.8,108.2 80.4,107.9 82.0,107.4 83.5,106.9 85.1,106.6 86.7,106.3 88.3,106.2 89.8,106.1 91.4,105.9 93.0,105.6 94.5,105.4 96.1,105.2 97.7,104.8 99.3,104.3 100.8,104.1 102.4,104.0 104.0,103.8 105.6,103.4 107.1,103.1 108.7,102.6 110.3,102.3 111.9,101.8 113.4,101.7 115.0,101.5 116.6,101.1 118.2,100.6 119.7,100.3 121.3,100.2 122.9,100.0 124.5,99.8 126.0,99.3 127.6,98.9 129.2,98.5 130.8,98.1 132.3,97.9 133.9,97.8 135.5,97.6 137.1,97.3 138.6,97.0 140.2,96.9 141.8,96.7 143.4,96.6 144.9,96.3 146.5,96.2 148.1,96.1 149.7,96.0 151.2,95.5 152.8,95.3 154.4,95.2 155.9,95.1 157.5,95.0 159.1,95.0 160.7,102.1 162.2,101.4 163.8,100.8 165.4,100.1 167.0,98.2 168.5,96.8 170.1,95.4 171.7,94.8 173.3,94.2 174.8,93.2 176.4,92.1 178.0,91.3 179.6,91.0 181.1,90.7 182.7,89.9 184.3,89.4 185.9,89.0 187.4,88.5 189.0,88.4 190.6,88.3 192.2,87.9 193.7,87.2 195.3,86.7 196.9,86.2 198.5,85.7 200.0,85.4 201.6,85.3 203.2,84.8 204.8,84.4 206.3,84.0 207.9,83.7 209.5,83.5 211.0,83.4 212.6,83.2 214.2,82.8 215.8,82.6 217.3,82.3 218.9,82.1 220.5,81.9 222.1,81.7 223.6,81.5 225.2,81.3 226.8,81.2 228.4,80.8 229.9,80.5 231.5,80.2 233.1,80.0 234.7,79.8 236.2,79.7 237.8,79.5 239.4,79.3 241.0,78.8 242.5,78.5 244.1,78.0 245.7,77.9 247.3,77.8 248.8,77.6 250.4,77.4 252.0,77.1 253.6,76.9 255.1,76.5 256.7,76.3 258.3,76.2 259.9,76.1 261.4,75.9 263.0,75.8 264.6,75.6 266.2,75.4 267.7,75.1 269.3,74.9 270.9,74.8 272.4,74.7 274.0,74.6 275.6,74.3 277.2,74.1 278.7,73.9 280.3,73.6 281.9,73.4 283.5,73.3 285.0,73.2 286.6,73.0 288.2,72.7 289.8,72.4 291.3,72.2 292.9,71.9 294.5,71.5 296.1,71.5 297.6,71.3 299.2,71.2 300.8,71.0 302.4,70.8 303.9,70.6 305.5,70.5 307.1,70.3 308.7,70.1 310.2,70.0 311.8,69.8 313.4,69.8 315.0,69.6 316.5,69.3 318.1,69.1 319.7,68.9 321.3,68.8 322.8,68.7 324.4,68.5 326.0,68.4 327.6,68.2 329.1,68.1 330.7,67.8 332.3,67.4 333.8,67.2 335.4,67.0 337.0,67.0 338.6,66.9 340.1,66.7 341.7,66.4 343.3,66.3 344.9,66.2 346.4,65.9 348.0,65.8 349.6,65.6 351.2,65.5 352.7,65.3 354.3,65.1 355.9,64.9 357.5,64.7 359.0,64.4 360.6,64.3 362.2,64.3 363.8,64.2 365.3,64.0 366.9,63.9 368.5,63.7 370.1,63.5 371.6,63.3 373.2,63.2 374.8,63.1 376.4,62.9 377.9,62.8 379.5,62.6 381.1,62.3 382.7,62.1 384.2,62.0 385.8,61.8 387.4,61.7 389.0,61.6 390.5,61.5 392.1,61.4 393.7,61.3 395.2,61.0 396.8,60.9 398.4,60.7 400.0,60.6 401.5,60.5 403.1,60.3 404.7,60.1 406.3,60.0 407.8,59.9 409.4,59.7 411.0,59.5 412.6,59.4 414.1,59.2 415.7,59.1 417.3,59.0 418.9,58.9 420.4,58.8 422.0,58.6 423.6,58.5 425.2,58.4 426.7,58.3 428.3,57.9 429.9,57.7 431.5,62.4 433.0,61.5 434.6,59.7 436.2,59.0 437.8,58.2 439.3,57.2 440.9,56.7 442.5,56.3 444.1,55.6 445.6,54.6 447.2,53.8 448.8,53.6 450.3,53.2 451.9,52.9 453.5,52.4 455.1,51.9 456.6,51.3 458.2,51.1 459.8,50.5 461.4,50.3 462.9,49.9 464.5,49.7 466.1,49.4 467.7,49.2 469.2,48.7 470.8,48.3 472.4,47.9 474.0,47.2 475.5,46.8 477.1,46.6 478.7,46.4 480.3,46.2 481.8,45.8 483.4,45.4 485.0,45.1 486.6,44.1 488.1,43.4 489.7,43.0 491.3,42.9 492.9,42.5 494.4,42.0 496.0,41.6 497.6,41.3 499.2,41.0 500.7,40.6 502.3,40.3 503.9,40.0 505.5,39.6 507.0,39.3 508.6,39.1 510.2,38.9 511.7,38.5 513.3,38.2 514.9,38.0 516.5,37.8 518.0,37.6 519.6,37.3 521.2,37.2 522.8,37.0 524.3,36.8 525.9,36.6 527.5,36.4 529.1,36.1 530.6,35.9 532.2,35.5 533.8,35.1 535.4,34.8 536.9,34.7 538.5,34.5 540.1,34.3 541.7,34.1 543.2,33.9 544.8,33.7 546.4,33.6 548.0,33.4 549.5,33.2 551.1,33.1 552.7,32.8 554.3,32.6 555.8,32.4 557.4,32.2 559.0,31.8 560.6,31.4 562.1,31.2 563.7,31.0 565.3,30.8 566.9,30.5 568.4,30.3 570.0,30.0 570.0,30.0,120" />
  
  <!-- Linea principale -->
  <polyline fill="none" stroke="#0366d6" stroke-width="2.5" stroke-linecap="round" stroke-linejoin="round" points="30.0,120.0 31.6,119.4 33.1,118.8 34.7,118.3 36.3,118.2 37.9,117.9 39.4,117.2 41.0,116.8 42.6,116.5 44.2,115.8 45.7,115.5 47.3,115.2 48.9,115.0 50.5,114.7 52.0,114.2 53.6,113.7 55.2,113.4 56.8,113.1 58.3,112.9 59.9,112.6 61.5,112.3 63.1,112.0 64.6,111.8 66.2,111.5 67.8,110.5 69.4,110.1 70.9,109.7 72.5,109.3 74.1,108.9 75.7,108.6 77.2,108.4 78.8,108.2 80.4,107.9 82.0,107.4 83.5,106.9 85.1,106.6 86.7,106.3 88.3,106.2 89.8,106.1 91.4,105.9 93.0,105.6 94.5,105.4 96.1,105.2 97.7,104.8 99.3,104.3 100.8,104.1 102.4,104.0 104.0,103.8 105.6,103.4 107.1,103.1 108.7,102.6 110.3,102.3 111.9,101.8 113.4,101.7 115.0,101.5 116.6,101.1 118.2,100.6 119.7,100.3 121.3,100.2 122.9,100.0 124.5,99.8 126.0,99.3 127.6,98.9 129.2,98.5 130.8,98.1 132.3,97.9 133.9,97.8 135.5,97.6 137.1,97.3 138.6,97.0 140.2,96.9 141.8,96.7 143.4,96.6 144.9,96.3 146.5,96.2 148.1,96.1 149.7,96.0 151.2,95.5 152.8,95.3 154.4,95.2 155.9,95.1 157.5,95.0 159.1,95.0 160.7,102.1 162.2,101.4 163.8,100.8 165.4,100.1 167.0,98.2 168.5,96.8 170.1,95.4 171.7,94.8 173.3,94.2 174.8,93.2 176.4,92.1 178.0,91.3 179.6,91.0 181.1,90.7 182.7,89.9 184.3,89.4 185.9,89.0 187.4,88.5 189.0,88.4 190.6,88.3 192.2,87.9 193.7,87.2 195.3,86.7 196.9,86.2 198.5,85.7 200.0,85.4 201.6,85.3 203.2,84.8 204.8,84.4 206.3,84.0 207.9,83.7 209.5,83.5 211.0,83.4 212.6,83.2 214.2,82.8 215.8,82.6 217.3,82.3 218.9,82.1 220.5,81.9 222.1,81.7 223.6,81.5 225.2,81.3 226.8,81.2 228.4,80.8 229.9,80.5 231.5,80.2 233.1,80.0 234.7,79.8 236.2,79.7 237.8,79.5 239.4,79.3 241.0,78.8 242.5,78.5 244.1,78.0 245.7,77.9 247.3,77.8 248.8,77.6 250.4,77.4 252.0,77.1 253.6,76.9 255.1,76.5 256.7,76.3 258.3,76.2 259.9,76.1 261.4,75.9 263.0,75.8 264.6,75.6 266.2,75.4 267.7,75.1 269.3,74.9 270.9,74.8 272.4,74.7 274.0,74.6 275.6,74.3 277.2,74.1 278.7,73.9 280.3,73.6 281.9,73.4 283.5,73.3 285.0,73.2 286.6,73.0 288.2,72.7 289.8,72.4 291.3,72.2 292.9,71.9 294.5,71.5 296.1,71.5 297.6,71.3 299.2,71.2 300.8,71.0 302.4,70.8 303.9,70.6 305.5,70.5 307.1,70.3 308.7,70.1 310.2,70.0 311.8,69.8 313.4,69.8 315.0,69.6 316.5,69.3 318.1,69.1 319.7,68.9 321.3,68.8 322.8,68.7 324.4,68.5 326.0,68.4 327.6,68.2 329.1,68.1 330.7,67.8 332.3,67.4 333.8,67.2 335.4,67.0 337.0,67.0 338.6,66.9 340.1,66.7 341.7,66.4 343.3,66.3 344.9,66.2 346.4,65.9 348.0,65.8 349.6,65.6 351.2,65.5 352.7,65.3 354.3,65.1 355.9,64.9 357.5,64.7 359.0,64.4 360.6,64.3 362.2,64.3 363.8,64.2 365.3,64.0 366.9,63.9 368.5,63.7 370.1,63.5 371.6,63.3 373.2,63.2 374.8,63.1 376.4,62.9 377.9,62.8 379.5,62.6 381.1,62.3 382.7,62.1 384.2,62.0 385.8,61.8 387.4,61.7 389.0,61.6 390.5,61.5 392.1,61.4 393.7,61.3 395.2,61.0 396.8,60.9 398.4,60.7 400.0,60.6 401.5,60.5 403.1,60.3 404.7,60.1 406.3,60.0 407.8,59.9 409.4,59.7 411.0,59.5 412.6,59.4 414.1,59.2 415.7,59.1 417.3,59.0 418.9,58.9 420.4,58.8 422.0,58.6 423.6,58.5 425.2,58.4 426.7,58.3 428.3,57.9 429.9,57.7 431.5,62.4 433.0,61.5 434.6,59.7 436.2,59.0 437.8,58.2 439.3,57.2 440.9,56.7 442.5,56.3 444.1,55.6 445.6,54.6 447.2,53.8 448.8,53.6 450.3,53.2 451.9,52.9 453.5,52.4 455.1,51.9 456.6,51.3 458.2,51.1 459.8,50.5 461.4,50.3 462.9,49.9 464.5,49.7 466.1,49.4 467.7,49.2 469.2,48.7 470.8,48.3 472.4,47.9 474.0,47.2 475.5,46.8 477.1,46.6 478.7,46.4 480.3,46.2 481.8,45.8 483.4,45.4 485.0,45.1 486.6,44.1 488.1,43.4 489.7,43.0 491.3,42.9 492.9,42.5 494.4,42.0 496.0,41.6 497.6,41.3 499.2,41.0 500.7,40.6 502.3,40.3 503.9,40.0 505.5,39.6 507.0,39.3 508.6,39.1 510.2,38.9 511.7,38.5 513.3,38.2 514.9,38.0 516.5,37.8 518.0,37.6 519.6,37.3 521.2,37.2 522.8,37.0 524.3,36.8 525.9,36.6 527.5,36.4 529.1,36.1 530.6,35.9 532.2,35.5 533.8,35.1 535.4,34.8 536.9,34.7 538.5,34.5 540.1,34.3 541.7,34.1 543.2,33.9 544.8,33.7 546.4,33.6 548.0,33.4 549.5,33.2 551.1,33.1 552.7,32.8 554.3,32.6 555.8,32.4 557.4,32.2 559.0,31.8 560.6,31.4 562.1,31.2 563.7,31.0 565.3,30.8 566.9,30.5 568.4,30.3 570.0,30.0" />
  
  <!-- Punto finale luminoso -->
  <circle cx="570.0" cy="30.0" r="4" fill="#ffffff" stroke="#0366d6" stroke-width="2.5" />
</svg>