<svg width="600" height="150" viewBox="0 0 600 150" xmlns="http://www.w3.org/2000/svg">
  <defs>
    <filter id="shadow2" x="-2%" y="-2%" width="104%" height="108%">
      <feDropShadow dx="0" dy="2" stdDeviation="3" flood-opacity="0.1" />
    </filter>
    <linearGradient id="fillGrad" x1="0" y1="0" x2="0" y2="1">
      <stop offset="0%" stop-color="#0366d6" stop-opacity="0.3"/>
      <stop offset="100%" stop-color="#0366d6" stop-opacity="0.02"/>
    </linearGradient>
  </defs>
  <rect width="600" height="150" rx="12" fill="#ffffff" filter="url(#shadow2)" stroke="#e1e4e8" stroke-width="1"/>
  <text x="20" y="24" fill="#2b3137" font-family="-apple-system,BlinkMacSystemFont,'Segoe UI',Helvetica,Arial,sans-serif" font-size="14" font-weight="600">📈 Download Growth (Actual: 84.0k)</text>
  
  <!-- Area sotto la linea -->
  <polygon fill="url(#fillGrad)" points="30.0,120.0,120 30.0,120.0 31.7,119.4 33.3,118.8 35.0,118.2 36.7,118.1 38.4,117.8 40.0,117.1 41.7,116.6 43.4,116.3 45.0,115.6 46.7,115.3 48.4,114.9 50.1,114.7 51.7,114.4 53.4,113.9 55.1,113.4 56.7,113.0 58.4,112.7 60.1,112.6 61.8,112.2 63.4,111.9 65.1,111.5 66.8,111.4 68.5,111.1 70.1,110.0 71.8,109.6 73.5,109.2 75.1,108.8 76.8,108.4 78.5,108.0 80.2,107.8 81.8,107.6 83.5,107.3 85.2,106.7 86.8,106.3 88.5,105.9 90.2,105.6 91.9,105.5 93.5,105.4 95.2,105.2 96.9,104.8 98.5,104.6 100.2,104.5 101.9,104.0 103.6,103.4 105.2,103.3 106.9,103.2 108.6,103.0 110.2,102.5 111.9,102.2 113.6,101.7 115.3,101.3 116.9,100.9 118.6,100.8 120.3,100.5 122.0,100.1 123.6,99.6 125.3,99.3 127.0,99.1 128.6,98.9 130.3,98.7 132.0,98.2 133.7,97.8 135.3,97.3 137.0,96.9 138.7,96.7 140.3,96.6 142.0,96.4 143.7,96.1 145.4,95.8 147.0,95.7 148.7,95.5 150.4,95.3 152.0,95.1 153.7,94.9 155.4,94.8 157.1,94.7 158.7,94.3 160.4,94.0 162.1,93.9 163.7,93.8 165.4,93.7 167.1,93.7 168.8,101.2 170.4,100.5 172.1,99.8 173.8,99.1 175.4,97.1 177.1,95.6 178.8,94.1 180.5,93.5 182.1,92.9 183.8,91.8 185.5,90.7 187.2,89.8 188.8,89.5 190.5,89.2 192.2,88.4 193.8,87.8 195.5,87.4 197.2,86.9 198.9,86.7 200.5,86.6 202.2,86.2 203.9,85.5 205.5,85.0 207.2,84.5 208.9,83.9 210.6,83.6 212.2,83.4 213.9,83.0 215.6,82.5 217.2,82.1 218.9,81.8 220.6,81.6 222.3,81.5 223.9,81.3 225.6,80.9 227.3,80.6 228.9,80.3 230.6,80.1 232.3,79.9 234.0,79.7 235.6,79.5 237.3,79.3 239.0,79.1 240.7,78.7 242.3,78.4 244.0,78.1 245.7,77.9 247.3,77.7 249.0,77.5 250.7,77.4 252.4,77.2 254.0,76.6 255.7,76.3 257.4,75.8 259.0,75.7 260.7,75.6 262.4,75.4 264.1,75.2 265.7,74.9 267.4,74.6 269.1,74.3 270.7,74.1 272.4,73.9 274.1,73.8 275.8,73.6 277.4,73.5 279.1,73.3 280.8,73.1 282.4,72.7 284.1,72.6 285.8,72.5 287.5,72.3 289.1,72.2 290.8,71.9 292.5,71.7 294.1,71.5 295.8,71.2 297.5,71.0 299.2,70.8 300.8,70.7 302.5,70.5 304.2,70.2 305.9,69.9 307.5,69.7 309.2,69.4 310.9,69.0 312.5,68.9 314.2,68.8 315.9,68.7 317.6,68.5 319.2,68.3 320.9,68.1 322.6,67.9 324.2,67.7 325.9,67.5 327.6,67.4 329.3,67.2 330.9,67.1 332.6,66.9 334.3,66.6 335.9,66.5 337.6,66.2 339.3,66.1 341.0,66.0 342.6,65.8 344.3,65.7 346.0,65.5 347.6,65.4 349.3,65.0 351.0,64.7 352.7,64.5 354.3,64.3 356.0,64.2 357.7,64.1 359.3,63.9 361.0,63.6 362.7,63.5 364.4,63.3 366.0,63.1 367.7,63.0 369.4,62.7 371.1,62.6 372.7,62.5 374.4,62.2 376.1,62.0 377.7,61.8 379.4,61.5 381.1,61.4 382.8,61.4 384.4,61.3 386.1,61.1 387.8,60.9 389.4,60.8 391.1,60.6 392.8,60.4 394.5,60.2 396.1,60.1 397.8,60.0 399.5,59.8 401.1,59.6 402.8,59.3 404.5,59.1 406.2,58.9 407.8,58.8 409.5,58.7 411.2,58.6 412.8,58.5 414.5,58.4 416.2,58.2 417.9,57.9 419.5,57.8 421.2,57.6 422.9,57.5 424.6,57.3 426.2,57.2 427.9,57.0 429.6,56.8 431.2,56.7 432.9,56.6 434.6,56.4 436.3,56.2 437.9,56.0 439.6,55.9 441.3,55.8 442.9,55.7 444.6,55.6 446.3,55.4 448.0,55.3 449.6,55.2 451.3,55.1 453.0,54.7 454.6,54.5 456.3,59.4 458.0,58.4 459.7,56.6 461.3,55.9 463.0,55.0 464.7,53.9 466.3,53.4 468.0,53.0 469.7,52.3 471.4,51.2 473.0,50.4 474.7,50.1 476.4,49.7 478.0,49.4 479.7,48.9 481.4,48.3 483.1,47.7 484.7,47.5 486.4,46.9 488.1,46.6 489.8,46.3 491.4,46.0 493.1,45.7 494.8,45.5 496.4,44.9 498.1,44.6 499.8,44.1 501.5,43.4 503.1,43.0 504.8,42.8 506.5,42.6 508.1,42.3 509.8,41.9 511.5,41.5 513.2,41.2 514.8,40.2 516.5,39.4 518.2,39.0 519.8,38.8 521.5,38.5 523.2,38.0 524.9,37.5 526.5,37.2 528.2,36.9 529.9,36.5 531.5,36.2 533.2,35.8 534.9,35.4 536.6,35.1 538.2,34.9 539.9,34.7 541.6,34.2 543.3,33.9 544.9,33.7 546.6,33.5 548.3,33.3 549.9,33.0 551.6,32.9 553.3,32.6 555.0,32.4 556.6,32.2 558.3,32.0 560.0,31.7 561.6,31.5 563.3,31.1 565.0,30.7 566.7,30.4 568.3,30.2 570.0,30.0 570.0,30.0,120" />
  
  <!-- Linea principale -->
  <polyline fill="none" stroke="#0366d6" stroke-width="2.5" stroke-linecap="round" stroke-linejoin="round" points="30.0,120.0 31.7,119.4 33.3,118.8 35.0,118.2 36.7,118.1 38.4,117.8 40.0,117.1 41.7,116.6 43.4,116.3 45.0,115.6 46.7,115.3 48.4,114.9 50.1,114.7 51.7,114.4 53.4,113.9 55.1,113.4 56.7,113.0 58.4,112.7 60.1,112.6 61.8,112.2 63.4,111.9 65.1,111.5 66.8,111.4 68.5,111.1 70.1,110.0 71.8,109.6 73.5,109.2 75.1,108.8 76.8,108.4 78.5,108.0 80.2,107.8 81.8,107.6 83.5,107.3 85.2,106.7 86.8,106.3 88.5,105.9 90.2,105.6 91.9,105.5 93.5,105.4 95.2,105.2 96.9,104.8 98.5,104.6 100.2,104.5 101.9,104.0 103.6,103.4 105.2,103.3 106.9,103.2 108.6,103.0 110.2,102.5 111.9,102.2 113.6,101.7 115.3,101.3 116.9,100.9 118.6,100.8 120.3,100.5 122.0,100.1 123.6,99.6 125.3,99.3 127.0,99.1 128.6,98.9 130.3,98.7 132.0,98.2 133.7,97.8 135.3,97.3 137.0,96.9 138.7,96.7 140.3,96.6 142.0,96.4 143.7,96.1 145.4,95.8 147.0,95.7 148.7,95.5 150.4,95.3 152.0,95.1 153.7,94.9 155.4,94.8 157.1,94.7 158.7,94.3 160.4,94.0 162.1,93.9 163.7,93.8 165.4,93.7 167.1,93.7 168.8,101.2 170.4,100.5 172.1,99.8 173.8,99.1 175.4,97.1 177.1,95.6 178.8,94.1 180.5,93.5 182.1,92.9 183.8,91.8 185.5,90.7 187.2,89.8 188.8,89.5 190.5,89.2 192.2,88.4 193.8,87.8 195.5,87.4 197.2,86.9 198.9,86.7 200.5,86.6 202.2,86.2 203.9,85.5 205.5,85.0 207.2,84.5 208.9,83.9 210.6,83.6 212.2,83.4 213.9,83.0 215.6,82.5 217.2,82.1 218.9,81.8 220.6,81.6 222.3,81.5 223.9,81.3 225.6,80.9 227.3,80.6 228.9,80.3 230.6,80.1 232.3,79.9 234.0,79.7 235.6,79.5 237.3,79.3 239.0,79.1 240.7,78.7 242.3,78.4 244.0,78.1 245.7,77.9 247.3,77.7 249.0,77.5 250.7,77.4 252.4,77.2 254.0,76.6 255.7,76.3 257.4,75.8 259.0,75.7 260.7,75.6 262.4,75.4 264.1,75.2 265.7,74.9 267.4,74.6 269.1,74.3 270.7,74.1 272.4,73.9 274.1,73.8 275.8,73.6 277.4,73.5 279.1,73.3 280.8,73.1 282.4,72.7 284.1,72.6 285.8,72.5 287.5,72.3 289.1,72.2 290.8,71.9 292.5,71.7 294.1,71.5 295.8,71.2 297.5,71.0 299.2,70.8 300.8,70.7 302.5,70.5 304.2,70.2 305.9,69.9 307.5,69.7 309.2,69.4 310.9,69.0 312.5,68.9 314.2,68.8 315.9,68.7 317.6,68.5 319.2,68.3 320.9,68.1 322.6,67.9 324.2,67.7 325.9,67.5 327.6,67.4 329.3,67.2 330.9,67.1 332.6,66.9 334.3,66.6 335.9,66.5 337.6,66.2 339.3,66.1 341.0,66.0 342.6,65.8 344.3,65.7 346.0,65.5 347.6,65.4 349.3,65.0 351.0,64.7 352.7,64.5 354.3,64.3 356.0,64.2 357.7,64.1 359.3,63.9 361.0,63.6 362.7,63.5 364.4,63.3 366.0,63.1 367.7,63.0 369.4,62.7 371.1,62.6 372.7,62.5 374.4,62.2 376.1,62.0 377.7,61.8 379.4,61.5 381.1,61.4 382.8,61.4 384.4,61.3 386.1,61.1 387.8,60.9 389.4,60.8 391.1,60.6 392.8,60.4 394.5,60.2 396.1,60.1 397.8,60.0 399.5,59.8 401.1,59.6 402.8,59.3 404.5,59.1 406.2,58.9 407.8,58.8 409.5,58.7 411.2,58.6 412.8,58.5 414.5,58.4 416.2,58.2 417.9,57.9 419.5,57.8 421.2,57.6 422.9,57.5 424.6,57.3 426.2,57.2 427.9,57.0 429.6,56.8 431.2,56.7 432.9,56.6 434.6,56.4 436.3,56.2 437.9,56.0 439.6,55.9 441.3,55.8 442.9,55.7 444.6,55.6 446.3,55.4 448.0,55.3 449.6,55.2 451.3,55.1 453.0,54.7 454.6,54.5 456.3,59.4 458.0,58.4 459.7,56.6 461.3,55.9 463.0,55.0 464.7,53.9 466.3,53.4 468.0,53.0 469.7,52.3 471.4,51.2 473.0,50.4 474.7,50.1 476.4,49.7 478.0,49.4 479.7,48.9 481.4,48.3 483.1,47.7 484.7,47.5 486.4,46.9 488.1,46.6 489.8,46.3 491.4,46.0 493.1,45.7 494.8,45.5 496.4,44.9 498.1,44.6 499.8,44.1 501.5,43.4 503.1,43.0 504.8,42.8 506.5,42.6 508.1,42.3 509.8,41.9 511.5,41.5 513.2,41.2 514.8,40.2 516.5,39.4 518.2,39.0 519.8,38.8 521.5,38.5 523.2,38.0 524.9,37.5 526.5,37.2 528.2,36.9 529.9,36.5 531.5,36.2 533.2,35.8 534.9,35.4 536.6,35.1 538.2,34.9 539.9,34.7 541.6,34.2 543.3,33.9 544.9,33.7 546.6,33.5 548.3,33.3 549.9,33.0 551.6,32.9 553.3,32.6 555.0,32.4 556.6,32.2 558.3,32.0 560.0,31.7 561.6,31.5 563.3,31.1 565.0,30.7 566.7,30.4 568.3,30.2 570.0,30.0" />
  
  <!-- Punto finale luminoso -->
  <circle cx="570.0" cy="30.0" r="4" fill="#ffffff" stroke="#0366d6" stroke-width="2.5" />
</svg>