<svg width="600" height="150" viewBox="0 0 600 150" xmlns="http://www.w3.org/2000/svg">
  <defs>
    <filter id="shadow2" x="-2%" y="-2%" width="104%" height="108%">
      <feDropShadow dx="0" dy="2" stdDeviation="3" flood-opacity="0.1" />
    </filter>
    <linearGradient id="fillGrad" x1="0" y1="0" x2="0" y2="1">
      <stop offset="0%" stop-color="#0366d6" stop-opacity="0.3"/>
      <stop offset="100%" stop-color="#0366d6" stop-opacity="0.02"/>
    </linearGradient>
  </defs>
  <rect width="600" height="150" rx="12" fill="#ffffff" filter="url(#shadow2)" stroke="#e1e4e8" stroke-width="1"/>
  <text x="20" y="24" fill="#2b3137" font-family="-apple-system,BlinkMacSystemFont,'Segoe UI',Helvetica,Arial,sans-serif" font-size="14" font-weight="600">📈 Download Growth (Actual: 86.9k)</text>
  
  <!-- Area sotto la linea -->
  <polygon fill="url(#fillGrad)" points="30.0,120.0,120 30.0,120.0 31.4,119.5 32.7,118.9 34.1,118.5 35.5,118.3 36.8,118.1 38.2,117.5 39.5,117.1 40.9,116.9 42.3,116.3 43.6,115.9 45.0,115.6 46.4,115.5 47.7,115.2 49.1,114.8 50.5,114.4 51.8,114.0 53.2,113.8 54.5,113.6 55.9,113.4 57.3,113.1 58.6,112.8 60.0,112.6 61.4,112.4 62.7,111.4 64.1,111.1 65.5,110.8 66.8,110.4 68.2,110.1 69.5,109.7 70.9,109.5 72.3,109.4 73.6,109.1 75.0,108.7 76.4,108.3 77.7,108.0 79.1,107.7 80.5,107.6 81.8,107.5 83.2,107.3 84.5,107.0 85.9,106.8 87.3,106.7 88.6,106.4 90.0,105.9 91.4,105.7 92.7,105.6 94.1,105.4 95.5,105.0 96.8,104.8 98.2,104.3 99.5,104.0 100.9,103.7 102.3,103.6 103.6,103.4 105.0,103.0 106.4,102.6 107.7,102.3 109.1,102.2 110.5,102.0 111.8,101.8 113.2,101.4 114.5,101.0 115.9,100.6 117.3,100.3 118.6,100.1 120.0,100.0 121.4,99.8 122.7,99.6 124.1,99.4 125.5,99.2 126.8,99.1 128.2,98.9 129.5,98.7 130.9,98.6 132.3,98.5 133.6,98.4 135.0,98.0 136.4,97.8 137.7,97.7 139.1,97.6 140.5,97.5 141.8,97.5 143.2,103.9 144.5,103.3 145.9,102.7 147.3,102.1 148.6,100.4 150.0,99.2 151.4,97.9 152.7,97.4 154.1,96.8 155.5,95.9 156.8,94.9 158.2,94.2 159.5,93.9 160.9,93.7 162.3,93.0 163.6,92.5 165.0,92.1 166.4,91.7 167.7,91.6 169.1,91.5 170.5,91.1 171.8,90.5 173.2,90.1 174.5,89.6 175.9,89.2 177.3,88.9 178.6,88.8 180.0,88.3 181.4,88.0 182.7,87.6 184.1,87.3 185.5,87.2 186.8,87.1 188.2,86.9 189.5,86.6 190.9,86.3 192.3,86.1 193.6,85.9 195.0,85.7 196.4,85.6 197.7,85.4 199.1,85.2 200.5,85.1 201.8,84.7 203.2,84.5 204.5,84.2 205.9,84.0 207.3,83.8 208.6,83.7 210.0,83.6 211.4,83.4 212.7,83.0 214.1,82.6 215.5,82.3 216.8,82.1 218.2,82.1 219.5,81.9 220.9,81.7 222.3,81.4 223.6,81.2 225.0,80.9 226.4,80.7 227.7,80.7 229.1,80.5 230.5,80.4 231.8,80.2 233.2,80.1 234.5,79.9 235.9,79.6 237.3,79.5 238.6,79.4 240.0,79.3 241.4,79.2 242.7,78.9 244.1,78.7 245.5,78.5 246.8,78.3 248.2,78.1 249.5,78.0 250.9,77.9 252.3,77.7 253.6,77.5 255.0,77.2 256.4,77.0 257.7,76.8 259.1,76.4 260.5,76.4 261.8,76.2 263.2,76.1 264.5,76.0 265.9,75.8 267.3,75.6 268.6,75.5 270.0,75.3 271.4,75.2 272.7,75.0 274.1,74.9 275.5,74.8 276.8,74.7 278.2,74.4 279.5,74.3 280.9,74.1 282.3,74.0 283.6,73.8 285.0,73.7 286.4,73.6 287.7,73.5 289.1,73.3 290.5,73.0 291.8,72.7 293.2,72.5 294.5,72.4 295.9,72.3 297.3,72.3 298.6,72.1 300.0,71.8 301.4,71.7 302.7,71.6 304.1,71.4 305.5,71.3 306.8,71.1 308.2,71.0 309.5,70.9 310.9,70.6 312.3,70.5 313.6,70.2 315.0,70.0 316.4,70.0 317.7,69.9 319.1,69.8 320.5,69.7 321.8,69.5 323.2,69.4 324.5,69.2 325.9,69.0 327.3,68.9 328.6,68.8 330.0,68.7 331.4,68.6 332.7,68.4 334.1,68.2 335.5,68.0 336.8,67.8 338.2,67.7 339.5,67.6 340.9,67.5 342.3,67.4 343.6,67.3 345.0,67.2 346.4,67.0 347.7,66.8 349.1,66.7 350.5,66.6 351.8,66.5 353.2,66.3 354.5,66.2 355.9,66.0 357.3,65.9 358.6,65.8 360.0,65.6 361.4,65.5 362.7,65.3 364.1,65.2 365.5,65.2 366.8,65.0 368.2,64.9 369.5,64.8 370.9,64.7 372.3,64.6 373.6,64.5 375.0,64.2 376.4,64.0 377.7,68.2 379.1,67.4 380.5,65.8 381.8,65.2 383.2,64.5 384.5,63.5 385.9,63.1 387.3,62.7 388.6,62.1 390.0,61.2 391.4,60.5 392.7,60.3 394.1,60.0 395.5,59.7 396.8,59.2 398.2,58.8 399.5,58.3 400.9,58.0 402.3,57.6 403.6,57.3 405.0,57.0 406.4,56.8 407.7,56.6 409.1,56.3 410.5,55.9 411.8,55.6 413.2,55.1 414.5,54.6 415.9,54.2 417.3,54.0 418.6,53.9 420.0,53.6 421.4,53.3 422.7,52.9 424.1,52.7 425.5,51.8 426.8,51.1 428.2,50.8 429.5,50.6 430.9,50.4 432.3,49.9 433.6,49.5 435.0,49.2 436.4,49.0 437.7,48.6 439.1,48.4 440.5,48.1 441.8,47.7 443.2,47.5 444.5,47.3 445.9,47.1 447.3,46.7 448.6,46.5 450.0,46.3 451.4,46.1 452.7,46.0 454.1,45.7 455.5,45.5 456.8,45.3 458.2,45.2 459.5,45.0 460.9,44.8 462.3,44.6 463.6,44.4 465.0,44.1 466.4,43.7 467.7,43.4 469.1,43.3 470.5,43.1 471.8,43.0 473.2,42.8 474.5,42.6 475.9,42.4 477.3,42.3 478.6,42.2 480.0,42.0 481.4,41.9 482.7,41.6 484.1,41.4 485.5,41.3 486.8,41.1 488.2,40.7 489.5,40.4 490.9,40.2 492.3,40.0 493.6,39.8 495.0,39.5 496.4,39.3 497.7,39.1 499.1,38.9 500.5,38.8 501.8,38.7 503.2,38.5 504.5,38.2 505.9,38.1 507.3,37.9 508.6,37.7 510.0,37.5 511.4,37.3 512.7,37.0 514.1,36.9 515.5,36.6 516.8,36.3 518.2,36.2 519.5,36.1 520.9,35.9 522.3,35.7 523.6,35.5 525.0,35.3 526.4,35.1 527.7,35.0 529.1,34.9 530.5,34.7 531.8,34.5 533.2,34.4 534.5,34.2 535.9,34.1 537.3,34.0 538.6,33.8 540.0,33.7 541.4,33.5 542.7,33.3 544.1,33.2 545.5,33.1 546.8,32.9 548.2,32.6 549.5,32.5 550.9,32.4 552.3,32.3 553.6,32.0 555.0,31.8 556.4,31.5 557.7,31.4 559.1,31.3 560.5,31.3 561.8,31.1 563.2,30.9 564.5,30.7 565.9,30.4 567.3,30.3 568.6,30.1 570.0,30.0 570.0,30.0,120" />
  
  <!-- Linea principale -->
  <polyline fill="none" stroke="#0366d6" stroke-width="2.5" stroke-linecap="round" stroke-linejoin="round" points="30.0,120.0 31.4,119.5 32.7,118.9 34.1,118.5 35.5,118.3 36.8,118.1 38.2,117.5 39.5,117.1 40.9,116.9 42.3,116.3 43.6,115.9 45.0,115.6 46.4,115.5 47.7,115.2 49.1,114.8 50.5,114.4 51.8,114.0 53.2,113.8 54.5,113.6 55.9,113.4 57.3,113.1 58.6,112.8 60.0,112.6 61.4,112.4 62.7,111.4 64.1,111.1 65.5,110.8 66.8,110.4 68.2,110.1 69.5,109.7 70.9,109.5 72.3,109.4 73.6,109.1 75.0,108.7 76.4,108.3 77.7,108.0 79.1,107.7 80.5,107.6 81.8,107.5 83.2,107.3 84.5,107.0 85.9,106.8 87.3,106.7 88.6,106.4 90.0,105.9 91.4,105.7 92.7,105.6 94.1,105.4 95.5,105.0 96.8,104.8 98.2,104.3 99.5,104.0 100.9,103.7 102.3,103.6 103.6,103.4 105.0,103.0 106.4,102.6 107.7,102.3 109.1,102.2 110.5,102.0 111.8,101.8 113.2,101.4 114.5,101.0 115.9,100.6 117.3,100.3 118.6,100.1 120.0,100.0 121.4,99.8 122.7,99.6 124.1,99.4 125.5,99.2 126.8,99.1 128.2,98.9 129.5,98.7 130.9,98.6 132.3,98.5 133.6,98.4 135.0,98.0 136.4,97.8 137.7,97.7 139.1,97.6 140.5,97.5 141.8,97.5 143.2,103.9 144.5,103.3 145.9,102.7 147.3,102.1 148.6,100.4 150.0,99.2 151.4,97.9 152.7,97.4 154.1,96.8 155.5,95.9 156.8,94.9 158.2,94.2 159.5,93.9 160.9,93.7 162.3,93.0 163.6,92.5 165.0,92.1 166.4,91.7 167.7,91.6 169.1,91.5 170.5,91.1 171.8,90.5 173.2,90.1 174.5,89.6 175.9,89.2 177.3,88.9 178.6,88.8 180.0,88.3 181.4,88.0 182.7,87.6 184.1,87.3 185.5,87.2 186.8,87.1 188.2,86.9 189.5,86.6 190.9,86.3 192.3,86.1 193.6,85.9 195.0,85.7 196.4,85.6 197.7,85.4 199.1,85.2 200.5,85.1 201.8,84.7 203.2,84.5 204.5,84.2 205.9,84.0 207.3,83.8 208.6,83.7 210.0,83.6 211.4,83.4 212.7,83.0 214.1,82.6 215.5,82.3 216.8,82.1 218.2,82.1 219.5,81.9 220.9,81.7 222.3,81.4 223.6,81.2 225.0,80.9 226.4,80.7 227.7,80.7 229.1,80.5 230.5,80.4 231.8,80.2 233.2,80.1 234.5,79.9 235.9,79.6 237.3,79.5 238.6,79.4 240.0,79.3 241.4,79.2 242.7,78.9 244.1,78.7 245.5,78.5 246.8,78.3 248.2,78.1 249.5,78.0 250.9,77.9 252.3,77.7 253.6,77.5 255.0,77.2 256.4,77.0 257.7,76.8 259.1,76.4 260.5,76.4 261.8,76.2 263.2,76.1 264.5,76.0 265.9,75.8 267.3,75.6 268.6,75.5 270.0,75.3 271.4,75.2 272.7,75.0 274.1,74.9 275.5,74.8 276.8,74.7 278.2,74.4 279.5,74.3 280.9,74.1 282.3,74.0 283.6,73.8 285.0,73.7 286.4,73.6 287.7,73.5 289.1,73.3 290.5,73.0 291.8,72.7 293.2,72.5 294.5,72.4 295.9,72.3 297.3,72.3 298.6,72.1 300.0,71.8 301.4,71.7 302.7,71.6 304.1,71.4 305.5,71.3 306.8,71.1 308.2,71.0 309.5,70.9 310.9,70.6 312.3,70.5 313.6,70.2 315.0,70.0 316.4,70.0 317.7,69.9 319.1,69.8 320.5,69.7 321.8,69.5 323.2,69.4 324.5,69.2 325.9,69.0 327.3,68.9 328.6,68.8 330.0,68.7 331.4,68.6 332.7,68.4 334.1,68.2 335.5,68.0 336.8,67.8 338.2,67.7 339.5,67.6 340.9,67.5 342.3,67.4 343.6,67.3 345.0,67.2 346.4,67.0 347.7,66.8 349.1,66.7 350.5,66.6 351.8,66.5 353.2,66.3 354.5,66.2 355.9,66.0 357.3,65.9 358.6,65.8 360.0,65.6 361.4,65.5 362.7,65.3 364.1,65.2 365.5,65.2 366.8,65.0 368.2,64.9 369.5,64.8 370.9,64.7 372.3,64.6 373.6,64.5 375.0,64.2 376.4,64.0 377.7,68.2 379.1,67.4 380.5,65.8 381.8,65.2 383.2,64.5 384.5,63.5 385.9,63.1 387.3,62.7 388.6,62.1 390.0,61.2 391.4,60.5 392.7,60.3 394.1,60.0 395.5,59.7 396.8,59.2 398.2,58.8 399.5,58.3 400.9,58.0 402.3,57.6 403.6,57.3 405.0,57.0 406.4,56.8 407.7,56.6 409.1,56.3 410.5,55.9 411.8,55.6 413.2,55.1 414.5,54.6 415.9,54.2 417.3,54.0 418.6,53.9 420.0,53.6 421.4,53.3 422.7,52.9 424.1,52.7 425.5,51.8 426.8,51.1 428.2,50.8 429.5,50.6 430.9,50.4 432.3,49.9 433.6,49.5 435.0,49.2 436.4,49.0 437.7,48.6 439.1,48.4 440.5,48.1 441.8,47.7 443.2,47.5 444.5,47.3 445.9,47.1 447.3,46.7 448.6,46.5 450.0,46.3 451.4,46.1 452.7,46.0 454.1,45.7 455.5,45.5 456.8,45.3 458.2,45.2 459.5,45.0 460.9,44.8 462.3,44.6 463.6,44.4 465.0,44.1 466.4,43.7 467.7,43.4 469.1,43.3 470.5,43.1 471.8,43.0 473.2,42.8 474.5,42.6 475.9,42.4 477.3,42.3 478.6,42.2 480.0,42.0 481.4,41.9 482.7,41.6 484.1,41.4 485.5,41.3 486.8,41.1 488.2,40.7 489.5,40.4 490.9,40.2 492.3,40.0 493.6,39.8 495.0,39.5 496.4,39.3 497.7,39.1 499.1,38.9 500.5,38.8 501.8,38.7 503.2,38.5 504.5,38.2 505.9,38.1 507.3,37.9 508.6,37.7 510.0,37.5 511.4,37.3 512.7,37.0 514.1,36.9 515.5,36.6 516.8,36.3 518.2,36.2 519.5,36.1 520.9,35.9 522.3,35.7 523.6,35.5 525.0,35.3 526.4,35.1 527.7,35.0 529.1,34.9 530.5,34.7 531.8,34.5 533.2,34.4 534.5,34.2 535.9,34.1 537.3,34.0 538.6,33.8 540.0,33.7 541.4,33.5 542.7,33.3 544.1,33.2 545.5,33.1 546.8,32.9 548.2,32.6 549.5,32.5 550.9,32.4 552.3,32.3 553.6,32.0 555.0,31.8 556.4,31.5 557.7,31.4 559.1,31.3 560.5,31.3 561.8,31.1 563.2,30.9 564.5,30.7 565.9,30.4 567.3,30.3 568.6,30.1 570.0,30.0" />
  
  <!-- Punto finale luminoso -->
  <circle cx="570.0" cy="30.0" r="4" fill="#ffffff" stroke="#0366d6" stroke-width="2.5" />
</svg>