<svg width="600" height="150" viewBox="0 0 600 150" xmlns="http://www.w3.org/2000/svg">
  <defs>
    <filter id="shadow2" x="-2%" y="-2%" width="104%" height="108%">
      <feDropShadow dx="0" dy="2" stdDeviation="3" flood-opacity="0.1" />
    </filter>
    <linearGradient id="fillGrad" x1="0" y1="0" x2="0" y2="1">
      <stop offset="0%" stop-color="#0366d6" stop-opacity="0.3"/>
      <stop offset="100%" stop-color="#0366d6" stop-opacity="0.02"/>
    </linearGradient>
  </defs>
  <rect width="600" height="150" rx="12" fill="#ffffff" filter="url(#shadow2)" stroke="#e1e4e8" stroke-width="1"/>
  <text x="20" y="24" fill="#2b3137" font-family="-apple-system,BlinkMacSystemFont,'Segoe UI',Helvetica,Arial,sans-serif" font-size="14" font-weight="600">📈 Download Growth (Actual: 71.8k)</text>
  
  <!-- Area sotto la linea -->
  <polygon fill="url(#fillGrad)" points="30.0,120.0,120 30.0,120.0 36.9,118.0 43.8,115.7 50.8,113.8 57.7,113.3 64.6,112.3 71.5,109.9 78.5,108.3 85.4,107.2 92.3,104.8 99.2,103.6 106.2,102.4 113.1,101.6 120.0,100.5 126.9,98.9 133.8,97.1 140.8,95.8 147.7,94.9 154.6,94.2 161.5,93.1 168.5,91.8 175.4,90.7 182.3,90.2 189.2,89.1 196.2,85.2 203.1,84.1 210.0,82.6 216.9,81.0 223.8,79.7 230.8,78.4 237.7,77.6 244.6,77.0 251.5,75.9 258.5,74.0 265.4,72.4 272.3,71.3 279.2,70.0 286.2,69.6 293.1,69.3 300.0,68.7 306.9,67.4 313.8,66.7 320.8,66.2 327.7,64.8 334.6,62.7 341.5,62.2 348.5,61.8 355.4,61.0 362.3,59.3 369.2,58.2 376.2,56.5 383.1,55.3 390.0,53.8 396.9,53.5 403.8,52.6 410.8,51.1 417.7,49.5 424.6,48.3 431.5,47.8 438.5,47.0 445.4,46.3 452.3,44.6 459.2,43.0 466.2,41.5 473.1,40.1 480.0,39.4 486.9,38.9 493.8,38.3 500.8,37.2 507.7,36.4 514.6,35.7 521.5,35.1 528.5,34.6 535.4,33.8 542.3,33.2 549.2,32.8 556.2,32.4 563.1,30.9 570.0,30.0 570.0,30.0,120" />
  
  <!-- Linea principale -->
  <polyline fill="none" stroke="#0366d6" stroke-width="2.5" stroke-linecap="round" stroke-linejoin="round" points="30.0,120.0 36.9,118.0 43.8,115.7 50.8,113.8 57.7,113.3 64.6,112.3 71.5,109.9 78.5,108.3 85.4,107.2 92.3,104.8 99.2,103.6 106.2,102.4 113.1,101.6 120.0,100.5 126.9,98.9 133.8,97.1 140.8,95.8 147.7,94.9 154.6,94.2 161.5,93.1 168.5,91.8 175.4,90.7 182.3,90.2 189.2,89.1 196.2,85.2 203.1,84.1 210.0,82.6 216.9,81.0 223.8,79.7 230.8,78.4 237.7,77.6 244.6,77.0 251.5,75.9 258.5,74.0 265.4,72.4 272.3,71.3 279.2,70.0 286.2,69.6 293.1,69.3 300.0,68.7 306.9,67.4 313.8,66.7 320.8,66.2 327.7,64.8 334.6,62.7 341.5,62.2 348.5,61.8 355.4,61.0 362.3,59.3 369.2,58.2 376.2,56.5 383.1,55.3 390.0,53.8 396.9,53.5 403.8,52.6 410.8,51.1 417.7,49.5 424.6,48.3 431.5,47.8 438.5,47.0 445.4,46.3 452.3,44.6 459.2,43.0 466.2,41.5 473.1,40.1 480.0,39.4 486.9,38.9 493.8,38.3 500.8,37.2 507.7,36.4 514.6,35.7 521.5,35.1 528.5,34.6 535.4,33.8 542.3,33.2 549.2,32.8 556.2,32.4 563.1,30.9 570.0,30.0" />
  
  <!-- Punto finale luminoso -->
  <circle cx="570.0" cy="30.0" r="4" fill="#ffffff" stroke="#0366d6" stroke-width="2.5" />
</svg>