<svg width="600" height="150" viewBox="0 0 600 150" xmlns="http://www.w3.org/2000/svg">
  <defs>
    <filter id="shadow2" x="-2%" y="-2%" width="104%" height="108%">
      <feDropShadow dx="0" dy="2" stdDeviation="3" flood-opacity="0.1" />
    </filter>
    <linearGradient id="fillGrad" x1="0" y1="0" x2="0" y2="1">
      <stop offset="0%" stop-color="#0366d6" stop-opacity="0.3"/>
      <stop offset="100%" stop-color="#0366d6" stop-opacity="0.02"/>
    </linearGradient>
  </defs>
  <rect width="600" height="150" rx="12" fill="#ffffff" filter="url(#shadow2)" stroke="#e1e4e8" stroke-width="1"/>
  <text x="20" y="24" fill="#2b3137" font-family="-apple-system,BlinkMacSystemFont,'Segoe UI',Helvetica,Arial,sans-serif" font-size="14" font-weight="600">📈 Download Growth (Actual: 87.4k)</text>
  
  <!-- Area sotto la linea -->
  <polygon fill="url(#fillGrad)" points="30.0,120.0,120 30.0,120.0 31.3,119.5 32.6,119.0 34.0,118.5 35.3,118.4 36.6,118.1 37.9,117.6 39.3,117.2 40.6,116.9 41.9,116.3 43.2,116.0 44.6,115.8 45.9,115.6 47.2,115.3 48.5,114.9 49.9,114.5 51.2,114.2 52.5,114.0 53.8,113.8 55.1,113.5 56.5,113.2 57.8,113.0 59.1,112.8 60.4,112.6 61.8,111.6 63.1,111.4 64.4,111.0 65.7,110.6 67.1,110.3 68.4,110.0 69.7,109.8 71.0,109.6 72.4,109.4 73.7,108.9 75.0,108.5 76.3,108.3 77.6,108.0 79.0,107.9 80.3,107.8 81.6,107.6 82.9,107.3 84.3,107.2 85.6,107.0 86.9,106.7 88.2,106.2 89.6,106.1 90.9,106.0 92.2,105.8 93.5,105.4 94.9,105.1 96.2,104.7 97.5,104.4 98.8,104.1 100.1,104.0 101.5,103.8 102.8,103.4 104.1,103.0 105.4,102.7 106.8,102.6 108.1,102.4 109.4,102.3 110.7,101.8 112.1,101.5 113.4,101.1 114.7,100.8 116.0,100.6 117.4,100.5 118.7,100.3 120.0,100.1 121.3,99.9 122.6,99.7 124.0,99.6 125.3,99.4 126.6,99.2 127.9,99.1 129.3,99.0 130.6,98.9 131.9,98.5 133.2,98.3 134.6,98.3 135.9,98.1 137.2,98.1 138.5,98.1 139.9,104.3 141.2,103.7 142.5,103.2 143.8,102.6 145.1,100.9 146.5,99.7 147.8,98.4 149.1,97.9 150.4,97.4 151.8,96.5 153.1,95.5 154.4,94.8 155.7,94.6 157.1,94.3 158.4,93.6 159.7,93.1 161.0,92.8 162.4,92.4 163.7,92.2 165.0,92.2 166.3,91.8 167.6,91.2 169.0,90.8 170.3,90.4 171.6,89.9 172.9,89.7 174.3,89.5 175.6,89.1 176.9,88.8 178.2,88.4 179.6,88.1 180.9,88.0 182.2,87.9 183.5,87.7 184.9,87.4 186.2,87.2 187.5,86.9 188.8,86.8 190.1,86.6 191.5,86.4 192.8,86.2 194.1,86.1 195.4,85.9 196.8,85.6 198.1,85.4 199.4,85.1 200.7,84.9 202.1,84.7 203.4,84.6 204.7,84.5 206.0,84.3 207.4,83.9 208.7,83.6 210.0,83.2 211.3,83.0 212.6,83.0 214.0,82.8 215.3,82.6 216.6,82.4 217.9,82.2 219.3,81.9 220.6,81.7 221.9,81.6 223.2,81.5 224.6,81.3 225.9,81.2 227.2,81.0 228.5,80.9 229.9,80.6 231.2,80.5 232.5,80.4 233.8,80.3 235.1,80.2 236.5,79.9 237.8,79.7 239.1,79.5 240.4,79.3 241.8,79.1 243.1,79.0 244.4,78.9 245.7,78.8 247.1,78.5 248.4,78.2 249.7,78.0 251.0,77.8 252.4,77.5 253.7,77.4 255.0,77.3 256.3,77.2 257.6,77.0 259.0,76.9 260.3,76.7 261.6,76.6 262.9,76.4 264.3,76.3 265.6,76.1 266.9,76.0 268.2,75.9 269.6,75.8 270.9,75.5 272.2,75.4 273.5,75.2 274.9,75.1 276.2,75.0 277.5,74.8 278.8,74.7 280.1,74.6 281.5,74.4 282.8,74.2 284.1,73.9 285.4,73.7 286.8,73.5 288.1,73.5 289.4,73.4 290.7,73.2 292.1,73.0 293.4,72.9 294.7,72.8 296.0,72.6 297.4,72.4 298.7,72.3 300.0,72.2 301.3,72.1 302.6,71.8 304.0,71.7 305.3,71.5 306.6,71.3 307.9,71.2 309.3,71.1 310.6,71.1 311.9,70.9 313.2,70.8 314.6,70.6 315.9,70.5 317.2,70.3 318.5,70.2 319.9,70.1 321.2,69.9 322.5,69.8 323.8,69.6 325.1,69.4 326.5,69.3 327.8,69.1 329.1,69.0 330.4,68.9 331.8,68.8 333.1,68.7 334.4,68.6 335.7,68.5 337.1,68.3 338.4,68.1 339.7,68.0 341.0,67.9 342.4,67.8 343.7,67.6 345.0,67.5 346.3,67.4 347.6,67.2 349.0,67.1 350.3,66.9 351.6,66.8 352.9,66.7 354.3,66.6 355.6,66.5 356.9,66.4 358.2,66.3 359.6,66.1 360.9,66.0 362.2,66.0 363.5,65.9 364.9,65.6 366.2,65.4 367.5,69.5 368.8,68.7 370.1,67.1 371.5,66.5 372.8,65.8 374.1,64.9 375.4,64.4 376.8,64.1 378.1,63.5 379.4,62.6 380.7,62.0 382.1,61.8 383.4,61.4 384.7,61.2 386.0,60.7 387.4,60.3 388.7,59.8 390.0,59.5 391.3,59.1 392.6,58.8 394.0,58.5 395.3,58.3 396.6,58.1 397.9,57.9 399.3,57.4 400.6,57.1 401.9,56.7 403.2,56.2 404.6,55.8 405.9,55.6 407.2,55.5 408.5,55.3 409.9,54.9 411.2,54.6 412.5,54.3 413.8,53.5 415.1,52.8 416.5,52.5 417.8,52.3 419.1,52.1 420.4,51.6 421.8,51.3 423.1,51.0 424.4,50.7 425.7,50.4 427.1,50.1 428.4,49.8 429.7,49.4 431.0,49.2 432.4,49.1 433.7,48.9 435.0,48.5 436.3,48.3 437.6,48.0 439.0,47.9 440.3,47.8 441.6,47.5 442.9,47.4 444.3,47.2 445.6,47.0 446.9,46.8 448.2,46.7 449.6,46.4 450.9,46.2 452.2,45.9 453.5,45.6 454.9,45.3 456.2,45.2 457.5,45.0 458.8,44.8 460.1,44.6 461.5,44.5 462.8,44.3 464.1,44.2 465.4,44.1 466.8,43.9 468.1,43.8 469.4,43.5 470.7,43.4 472.1,43.2 473.4,43.0 474.7,42.7 476.0,42.3 477.4,42.1 478.7,42.0 480.0,41.7 481.3,41.5 482.6,41.3 484.0,41.1 485.3,40.9 486.6,40.8 487.9,40.7 489.3,40.4 490.6,40.2 491.9,40.0 493.2,39.9 494.6,39.7 495.9,39.5 497.2,39.3 498.5,39.0 499.9,38.9 501.2,38.6 502.5,38.4 503.8,38.2 505.1,38.1 506.5,37.9 507.8,37.8 509.1,37.6 510.4,37.4 511.8,37.2 513.1,37.1 514.4,36.9 515.7,36.8 517.1,36.6 518.4,36.5 519.7,36.3 521.0,36.2 522.4,36.1 523.7,35.9 525.0,35.8 526.3,35.6 527.6,35.5 529.0,35.3 530.3,35.2 531.6,35.0 532.9,34.8 534.3,34.7 535.6,34.5 536.9,34.4 538.2,34.1 539.6,34.0 540.9,33.7 542.2,33.6 543.5,33.5 544.9,33.4 546.2,33.2 547.5,33.1 548.8,32.9 550.1,32.6 551.5,32.5 552.8,32.3 554.1,32.2 555.4,32.1 556.8,31.9 558.1,31.7 559.4,31.5 560.7,31.3 562.1,31.2 563.4,30.9 564.7,30.7 566.0,30.5 567.4,30.3 568.7,30.2 570.0,30.0 570.0,30.0,120" />
  
  <!-- Linea principale -->
  <polyline fill="none" stroke="#0366d6" stroke-width="2.5" stroke-linecap="round" stroke-linejoin="round" points="30.0,120.0 31.3,119.5 32.6,119.0 34.0,118.5 35.3,118.4 36.6,118.1 37.9,117.6 39.3,117.2 40.6,116.9 41.9,116.3 43.2,116.0 44.6,115.8 45.9,115.6 47.2,115.3 48.5,114.9 49.9,114.5 51.2,114.2 52.5,114.0 53.8,113.8 55.1,113.5 56.5,113.2 57.8,113.0 59.1,112.8 60.4,112.6 61.8,111.6 63.1,111.4 64.4,111.0 65.7,110.6 67.1,110.3 68.4,110.0 69.7,109.8 71.0,109.6 72.4,109.4 73.7,108.9 75.0,108.5 76.3,108.3 77.6,108.0 79.0,107.9 80.3,107.8 81.6,107.6 82.9,107.3 84.3,107.2 85.6,107.0 86.9,106.7 88.2,106.2 89.6,106.1 90.9,106.0 92.2,105.8 93.5,105.4 94.9,105.1 96.2,104.7 97.5,104.4 98.8,104.1 100.1,104.0 101.5,103.8 102.8,103.4 104.1,103.0 105.4,102.7 106.8,102.6 108.1,102.4 109.4,102.3 110.7,101.8 112.1,101.5 113.4,101.1 114.7,100.8 116.0,100.6 117.4,100.5 118.7,100.3 120.0,100.1 121.3,99.9 122.6,99.7 124.0,99.6 125.3,99.4 126.6,99.2 127.9,99.1 129.3,99.0 130.6,98.9 131.9,98.5 133.2,98.3 134.6,98.3 135.9,98.1 137.2,98.1 138.5,98.1 139.9,104.3 141.2,103.7 142.5,103.2 143.8,102.6 145.1,100.9 146.5,99.7 147.8,98.4 149.1,97.9 150.4,97.4 151.8,96.5 153.1,95.5 154.4,94.8 155.7,94.6 157.1,94.3 158.4,93.6 159.7,93.1 161.0,92.8 162.4,92.4 163.7,92.2 165.0,92.2 166.3,91.8 167.6,91.2 169.0,90.8 170.3,90.4 171.6,89.9 172.9,89.7 174.3,89.5 175.6,89.1 176.9,88.8 178.2,88.4 179.6,88.1 180.9,88.0 182.2,87.9 183.5,87.7 184.9,87.4 186.2,87.2 187.5,86.9 188.8,86.8 190.1,86.6 191.5,86.4 192.8,86.2 194.1,86.1 195.4,85.9 196.8,85.6 198.1,85.4 199.4,85.1 200.7,84.9 202.1,84.7 203.4,84.6 204.7,84.5 206.0,84.3 207.4,83.9 208.7,83.6 210.0,83.2 211.3,83.0 212.6,83.0 214.0,82.8 215.3,82.6 216.6,82.4 217.9,82.2 219.3,81.9 220.6,81.7 221.9,81.6 223.2,81.5 224.6,81.3 225.9,81.2 227.2,81.0 228.5,80.9 229.9,80.6 231.2,80.5 232.5,80.4 233.8,80.3 235.1,80.2 236.5,79.9 237.8,79.7 239.1,79.5 240.4,79.3 241.8,79.1 243.1,79.0 244.4,78.9 245.7,78.8 247.1,78.5 248.4,78.2 249.7,78.0 251.0,77.8 252.4,77.5 253.7,77.4 255.0,77.3 256.3,77.2 257.6,77.0 259.0,76.9 260.3,76.7 261.6,76.6 262.9,76.4 264.3,76.3 265.6,76.1 266.9,76.0 268.2,75.9 269.6,75.8 270.9,75.5 272.2,75.4 273.5,75.2 274.9,75.1 276.2,75.0 277.5,74.8 278.8,74.7 280.1,74.6 281.5,74.4 282.8,74.2 284.1,73.9 285.4,73.7 286.8,73.5 288.1,73.5 289.4,73.4 290.7,73.2 292.1,73.0 293.4,72.9 294.7,72.8 296.0,72.6 297.4,72.4 298.7,72.3 300.0,72.2 301.3,72.1 302.6,71.8 304.0,71.7 305.3,71.5 306.6,71.3 307.9,71.2 309.3,71.1 310.6,71.1 311.9,70.9 313.2,70.8 314.6,70.6 315.9,70.5 317.2,70.3 318.5,70.2 319.9,70.1 321.2,69.9 322.5,69.8 323.8,69.6 325.1,69.4 326.5,69.3 327.8,69.1 329.1,69.0 330.4,68.9 331.8,68.8 333.1,68.7 334.4,68.6 335.7,68.5 337.1,68.3 338.4,68.1 339.7,68.0 341.0,67.9 342.4,67.8 343.7,67.6 345.0,67.5 346.3,67.4 347.6,67.2 349.0,67.1 350.3,66.9 351.6,66.8 352.9,66.7 354.3,66.6 355.6,66.5 356.9,66.4 358.2,66.3 359.6,66.1 360.9,66.0 362.2,66.0 363.5,65.9 364.9,65.6 366.2,65.4 367.5,69.5 368.8,68.7 370.1,67.1 371.5,66.5 372.8,65.8 374.1,64.9 375.4,64.4 376.8,64.1 378.1,63.5 379.4,62.6 380.7,62.0 382.1,61.8 383.4,61.4 384.7,61.2 386.0,60.7 387.4,60.3 388.7,59.8 390.0,59.5 391.3,59.1 392.6,58.8 394.0,58.5 395.3,58.3 396.6,58.1 397.9,57.9 399.3,57.4 400.6,57.1 401.9,56.7 403.2,56.2 404.6,55.8 405.9,55.6 407.2,55.5 408.5,55.3 409.9,54.9 411.2,54.6 412.5,54.3 413.8,53.5 415.1,52.8 416.5,52.5 417.8,52.3 419.1,52.1 420.4,51.6 421.8,51.3 423.1,51.0 424.4,50.7 425.7,50.4 427.1,50.1 428.4,49.8 429.7,49.4 431.0,49.2 432.4,49.1 433.7,48.9 435.0,48.5 436.3,48.3 437.6,48.0 439.0,47.9 440.3,47.8 441.6,47.5 442.9,47.4 444.3,47.2 445.6,47.0 446.9,46.8 448.2,46.7 449.6,46.4 450.9,46.2 452.2,45.9 453.5,45.6 454.9,45.3 456.2,45.2 457.5,45.0 458.8,44.8 460.1,44.6 461.5,44.5 462.8,44.3 464.1,44.2 465.4,44.1 466.8,43.9 468.1,43.8 469.4,43.5 470.7,43.4 472.1,43.2 473.4,43.0 474.7,42.7 476.0,42.3 477.4,42.1 478.7,42.0 480.0,41.7 481.3,41.5 482.6,41.3 484.0,41.1 485.3,40.9 486.6,40.8 487.9,40.7 489.3,40.4 490.6,40.2 491.9,40.0 493.2,39.9 494.6,39.7 495.9,39.5 497.2,39.3 498.5,39.0 499.9,38.9 501.2,38.6 502.5,38.4 503.8,38.2 505.1,38.1 506.5,37.9 507.8,37.8 509.1,37.6 510.4,37.4 511.8,37.2 513.1,37.1 514.4,36.9 515.7,36.8 517.1,36.6 518.4,36.5 519.7,36.3 521.0,36.2 522.4,36.1 523.7,35.9 525.0,35.8 526.3,35.6 527.6,35.5 529.0,35.3 530.3,35.2 531.6,35.0 532.9,34.8 534.3,34.7 535.6,34.5 536.9,34.4 538.2,34.1 539.6,34.0 540.9,33.7 542.2,33.6 543.5,33.5 544.9,33.4 546.2,33.2 547.5,33.1 548.8,32.9 550.1,32.6 551.5,32.5 552.8,32.3 554.1,32.2 555.4,32.1 556.8,31.9 558.1,31.7 559.4,31.5 560.7,31.3 562.1,31.2 563.4,30.9 564.7,30.7 566.0,30.5 567.4,30.3 568.7,30.2 570.0,30.0" />
  
  <!-- Punto finale luminoso -->
  <circle cx="570.0" cy="30.0" r="4" fill="#ffffff" stroke="#0366d6" stroke-width="2.5" />
</svg>