<svg width="600" height="150" viewBox="0 0 600 150" xmlns="http://www.w3.org/2000/svg">
  <defs>
    <filter id="shadow2" x="-2%" y="-2%" width="104%" height="108%">
      <feDropShadow dx="0" dy="2" stdDeviation="3" flood-opacity="0.1" />
    </filter>
    <linearGradient id="fillGrad" x1="0" y1="0" x2="0" y2="1">
      <stop offset="0%" stop-color="#0366d6" stop-opacity="0.3"/>
      <stop offset="100%" stop-color="#0366d6" stop-opacity="0.02"/>
    </linearGradient>
  </defs>
  <rect width="600" height="150" rx="12" fill="#ffffff" filter="url(#shadow2)" stroke="#e1e4e8" stroke-width="1"/>
  <text x="20" y="24" fill="#2b3137" font-family="-apple-system,BlinkMacSystemFont,'Segoe UI',Helvetica,Arial,sans-serif" font-size="14" font-weight="600">📈 Download Growth (Actual: 75.7k)</text>
  
  <!-- Area sotto la linea -->
  <polygon fill="url(#fillGrad)" points="30.0,120.0,120 30.0,120.0 33.7,118.9 37.3,117.6 41.0,116.5 44.7,116.2 48.4,115.7 52.0,114.3 55.7,113.4 59.4,112.9 63.1,111.5 66.7,110.8 70.4,110.1 74.1,109.7 77.8,109.1 81.4,108.2 85.1,107.2 88.8,106.4 92.4,105.9 96.1,105.6 99.8,104.9 103.5,104.2 107.1,103.6 110.8,103.3 114.5,102.7 118.2,100.5 121.8,99.9 125.5,99.0 129.2,98.2 132.9,97.4 136.5,96.7 140.2,96.2 143.9,95.9 147.6,95.3 151.2,94.2 154.9,93.3 158.6,92.7 162.2,92.0 165.9,91.8 169.6,91.6 173.3,91.2 176.9,90.5 180.6,90.1 184.3,89.8 188.0,89.0 191.6,87.9 195.3,87.6 199.0,87.4 202.7,86.9 206.3,86.0 210.0,85.4 213.7,84.4 217.3,83.8 221.0,82.9 224.7,82.7 228.4,82.2 232.0,81.4 235.7,80.5 239.4,79.8 243.1,79.5 246.7,79.1 250.4,78.7 254.1,77.7 257.8,76.8 261.4,76.0 265.1,75.2 268.8,74.8 272.4,74.6 276.1,74.2 279.8,73.6 283.5,73.1 287.1,72.8 290.8,72.4 294.5,72.1 298.2,71.7 301.8,71.4 305.5,71.2 309.2,70.9 312.9,70.1 316.5,69.6 320.2,69.4 323.9,69.1 327.6,68.9 331.2,68.9 334.9,83.5 338.6,82.1 342.2,80.8 345.9,79.4 349.6,75.5 353.3,72.7 356.9,69.7 360.6,68.6 364.3,67.3 368.0,65.3 371.6,63.1 375.3,61.4 379.0,60.8 382.7,60.2 386.3,58.6 390.0,57.5 393.7,56.7 397.3,55.8 401.0,55.4 404.7,55.2 408.4,54.4 412.0,53.0 415.7,52.0 419.4,51.1 423.1,49.9 426.7,49.4 430.4,49.0 434.1,48.1 437.8,47.2 441.4,46.4 445.1,45.8 448.8,45.5 452.4,45.3 456.1,44.8 459.8,44.1 463.5,43.5 467.1,43.0 470.8,42.6 474.5,42.2 478.2,41.8 481.8,41.4 485.5,41.1 489.2,40.7 492.9,39.9 496.5,39.4 500.2,38.7 503.9,38.3 507.6,37.9 511.2,37.6 514.9,37.3 518.6,36.9 522.2,35.9 525.9,35.2 529.6,34.3 533.3,33.9 536.9,33.8 540.6,33.4 544.3,33.0 548.0,32.4 551.6,31.9 555.3,31.3 559.0,30.8 562.7,30.6 566.3,30.3 570.0,30.0 570.0,30.0,120" />
  
  <!-- Linea principale -->
  <polyline fill="none" stroke="#0366d6" stroke-width="2.5" stroke-linecap="round" stroke-linejoin="round" points="30.0,120.0 33.7,118.9 37.3,117.6 41.0,116.5 44.7,116.2 48.4,115.7 52.0,114.3 55.7,113.4 59.4,112.9 63.1,111.5 66.7,110.8 70.4,110.1 74.1,109.7 77.8,109.1 81.4,108.2 85.1,107.2 88.8,106.4 92.4,105.9 96.1,105.6 99.8,104.9 103.5,104.2 107.1,103.6 110.8,103.3 114.5,102.7 118.2,100.5 121.8,99.9 125.5,99.0 129.2,98.2 132.9,97.4 136.5,96.7 140.2,96.2 143.9,95.9 147.6,95.3 151.2,94.2 154.9,93.3 158.6,92.7 162.2,92.0 165.9,91.8 169.6,91.6 173.3,91.2 176.9,90.5 180.6,90.1 184.3,89.8 188.0,89.0 191.6,87.9 195.3,87.6 199.0,87.4 202.7,86.9 206.3,86.0 210.0,85.4 213.7,84.4 217.3,83.8 221.0,82.9 224.7,82.7 228.4,82.2 232.0,81.4 235.7,80.5 239.4,79.8 243.1,79.5 246.7,79.1 250.4,78.7 254.1,77.7 257.8,76.8 261.4,76.0 265.1,75.2 268.8,74.8 272.4,74.6 276.1,74.2 279.8,73.6 283.5,73.1 287.1,72.8 290.8,72.4 294.5,72.1 298.2,71.7 301.8,71.4 305.5,71.2 309.2,70.9 312.9,70.1 316.5,69.6 320.2,69.4 323.9,69.1 327.6,68.9 331.2,68.9 334.9,83.5 338.6,82.1 342.2,80.8 345.9,79.4 349.6,75.5 353.3,72.7 356.9,69.7 360.6,68.6 364.3,67.3 368.0,65.3 371.6,63.1 375.3,61.4 379.0,60.8 382.7,60.2 386.3,58.6 390.0,57.5 393.7,56.7 397.3,55.8 401.0,55.4 404.7,55.2 408.4,54.4 412.0,53.0 415.7,52.0 419.4,51.1 423.1,49.9 426.7,49.4 430.4,49.0 434.1,48.1 437.8,47.2 441.4,46.4 445.1,45.8 448.8,45.5 452.4,45.3 456.1,44.8 459.8,44.1 463.5,43.5 467.1,43.0 470.8,42.6 474.5,42.2 478.2,41.8 481.8,41.4 485.5,41.1 489.2,40.7 492.9,39.9 496.5,39.4 500.2,38.7 503.9,38.3 507.6,37.9 511.2,37.6 514.9,37.3 518.6,36.9 522.2,35.9 525.9,35.2 529.6,34.3 533.3,33.9 536.9,33.8 540.6,33.4 544.3,33.0 548.0,32.4 551.6,31.9 555.3,31.3 559.0,30.8 562.7,30.6 566.3,30.3 570.0,30.0" />
  
  <!-- Punto finale luminoso -->
  <circle cx="570.0" cy="30.0" r="4" fill="#ffffff" stroke="#0366d6" stroke-width="2.5" />
</svg>