<svg width="600" height="150" viewBox="0 0 600 150" xmlns="http://www.w3.org/2000/svg">
  <defs>
    <filter id="shadow2" x="-2%" y="-2%" width="104%" height="108%">
      <feDropShadow dx="0" dy="2" stdDeviation="3" flood-opacity="0.1" />
    </filter>
    <linearGradient id="fillGrad" x1="0" y1="0" x2="0" y2="1">
      <stop offset="0%" stop-color="#0366d6" stop-opacity="0.3"/>
      <stop offset="100%" stop-color="#0366d6" stop-opacity="0.02"/>
    </linearGradient>
  </defs>
  <rect width="600" height="150" rx="12" fill="#ffffff" filter="url(#shadow2)" stroke="#e1e4e8" stroke-width="1"/>
  <text x="20" y="24" fill="#2b3137" font-family="-apple-system,BlinkMacSystemFont,'Segoe UI',Helvetica,Arial,sans-serif" font-size="14" font-weight="600">📈 Download Growth (Actual: 74.4k)</text>
  
  <!-- Area sotto la linea -->
  <polygon fill="url(#fillGrad)" points="30.0,120.0,120 30.0,120.0 34.5,118.7 39.0,117.2 43.5,116.0 48.0,115.6 52.5,115.0 57.0,113.4 61.5,112.4 66.0,111.7 70.5,110.1 75.0,109.3 79.5,108.5 84.0,108.0 88.5,107.3 93.0,106.2 97.5,105.1 102.0,104.2 106.5,103.6 111.0,103.2 115.5,102.5 120.0,101.7 124.5,100.9 129.0,100.6 133.5,99.8 138.0,97.3 142.5,96.6 147.0,95.6 151.5,94.6 156.0,93.7 160.5,92.9 165.0,92.4 169.5,92.0 174.0,91.3 178.5,90.0 183.0,89.0 187.5,88.3 192.0,87.4 196.5,87.2 201.0,87.0 205.5,86.5 210.0,85.7 214.5,85.3 219.0,84.9 223.5,84.0 228.0,82.6 232.5,82.3 237.0,82.1 241.5,81.5 246.0,80.5 250.5,79.8 255.0,78.6 259.5,77.9 264.0,76.9 268.5,76.7 273.0,76.1 277.5,75.1 282.0,74.0 286.5,73.3 291.0,72.9 295.5,72.4 300.0,72.0 304.5,70.9 309.0,69.8 313.5,68.9 318.0,67.9 322.5,67.5 327.0,67.2 331.5,66.8 336.0,66.0 340.5,65.5 345.0,65.1 349.5,64.7 354.0,64.3 358.5,63.8 363.0,63.4 367.5,63.2 372.0,62.9 376.5,61.9 381.0,61.4 385.5,61.2 390.0,60.8 394.5,60.6 399.0,60.6 403.5,77.6 408.0,75.9 412.5,74.4 417.0,72.8 421.5,68.2 426.0,65.0 430.5,61.5 435.0,60.2 439.5,58.8 444.0,56.4 448.5,53.8 453.0,51.9 457.5,51.2 462.0,50.5 466.5,48.6 471.0,47.3 475.5,46.4 480.0,45.3 484.5,44.9 489.0,44.7 493.5,43.7 498.0,42.1 502.5,41.0 507.0,39.8 511.5,38.5 516.0,37.9 520.5,37.5 525.0,36.4 529.5,35.4 534.0,34.5 538.5,33.7 543.0,33.4 547.5,33.1 552.0,32.6 556.5,31.7 561.0,31.1 565.5,30.5 570.0,30.0 570.0,30.0,120" />
  
  <!-- Linea principale -->
  <polyline fill="none" stroke="#0366d6" stroke-width="2.5" stroke-linecap="round" stroke-linejoin="round" points="30.0,120.0 34.5,118.7 39.0,117.2 43.5,116.0 48.0,115.6 52.5,115.0 57.0,113.4 61.5,112.4 66.0,111.7 70.5,110.1 75.0,109.3 79.5,108.5 84.0,108.0 88.5,107.3 93.0,106.2 97.5,105.1 102.0,104.2 106.5,103.6 111.0,103.2 115.5,102.5 120.0,101.7 124.5,100.9 129.0,100.6 133.5,99.8 138.0,97.3 142.5,96.6 147.0,95.6 151.5,94.6 156.0,93.7 160.5,92.9 165.0,92.4 169.5,92.0 174.0,91.3 178.5,90.0 183.0,89.0 187.5,88.3 192.0,87.4 196.5,87.2 201.0,87.0 205.5,86.5 210.0,85.7 214.5,85.3 219.0,84.9 223.5,84.0 228.0,82.6 232.5,82.3 237.0,82.1 241.5,81.5 246.0,80.5 250.5,79.8 255.0,78.6 259.5,77.9 264.0,76.9 268.5,76.7 273.0,76.1 277.5,75.1 282.0,74.0 286.5,73.3 291.0,72.9 295.5,72.4 300.0,72.0 304.5,70.9 309.0,69.8 313.5,68.9 318.0,67.9 322.5,67.5 327.0,67.2 331.5,66.8 336.0,66.0 340.5,65.5 345.0,65.1 349.5,64.7 354.0,64.3 358.5,63.8 363.0,63.4 367.5,63.2 372.0,62.9 376.5,61.9 381.0,61.4 385.5,61.2 390.0,60.8 394.5,60.6 399.0,60.6 403.5,77.6 408.0,75.9 412.5,74.4 417.0,72.8 421.5,68.2 426.0,65.0 430.5,61.5 435.0,60.2 439.5,58.8 444.0,56.4 448.5,53.8 453.0,51.9 457.5,51.2 462.0,50.5 466.5,48.6 471.0,47.3 475.5,46.4 480.0,45.3 484.5,44.9 489.0,44.7 493.5,43.7 498.0,42.1 502.5,41.0 507.0,39.8 511.5,38.5 516.0,37.9 520.5,37.5 525.0,36.4 529.5,35.4 534.0,34.5 538.5,33.7 543.0,33.4 547.5,33.1 552.0,32.6 556.5,31.7 561.0,31.1 565.5,30.5 570.0,30.0" />
  
  <!-- Punto finale luminoso -->
  <circle cx="570.0" cy="30.0" r="4" fill="#ffffff" stroke="#0366d6" stroke-width="2.5" />
</svg>