<svg width="600" height="150" viewBox="0 0 600 150" xmlns="http://www.w3.org/2000/svg">
  <defs>
    <filter id="shadow2" x="-2%" y="-2%" width="104%" height="108%">
      <feDropShadow dx="0" dy="2" stdDeviation="3" flood-opacity="0.1" />
    </filter>
    <linearGradient id="fillGrad" x1="0" y1="0" x2="0" y2="1">
      <stop offset="0%" stop-color="#0366d6" stop-opacity="0.3"/>
      <stop offset="100%" stop-color="#0366d6" stop-opacity="0.02"/>
    </linearGradient>
  </defs>
  <rect width="600" height="150" rx="12" fill="#ffffff" filter="url(#shadow2)" stroke="#e1e4e8" stroke-width="1"/>
  <text x="20" y="24" fill="#2b3137" font-family="-apple-system,BlinkMacSystemFont,'Segoe UI',Helvetica,Arial,sans-serif" font-size="14" font-weight="600">📈 Download Growth (Actual: 78.5k)</text>
  
  <!-- Area sotto la linea -->
  <polygon fill="url(#fillGrad)" points="30.0,120.0,120 30.0,120.0 32.4,119.1 34.7,118.2 37.1,117.4 39.4,117.2 41.8,116.7 44.1,115.7 46.5,115.1 48.9,114.6 51.2,113.6 53.6,113.1 55.9,112.5 58.3,112.2 60.7,111.8 63.0,111.1 65.4,110.3 67.7,109.8 70.1,109.4 72.4,109.1 74.8,108.7 77.2,108.1 79.5,107.6 81.9,107.4 84.2,106.9 86.6,105.3 89.0,104.8 91.3,104.2 93.7,103.5 96.0,103.0 98.4,102.4 100.7,102.1 103.1,101.8 105.5,101.4 107.8,100.6 110.2,99.9 112.5,99.4 114.9,98.9 117.2,98.7 119.6,98.6 122.0,98.3 124.3,97.8 126.7,97.5 129.0,97.3 131.4,96.7 133.8,95.8 136.1,95.6 138.5,95.4 140.8,95.1 143.2,94.4 145.5,93.9 147.9,93.2 150.3,92.7 152.6,92.0 155.0,91.9 157.3,91.5 159.7,90.9 162.1,90.2 164.4,89.7 166.8,89.5 169.1,89.2 171.5,88.9 173.8,88.1 176.2,87.5 178.6,86.8 180.9,86.2 183.3,85.9 185.6,85.7 188.0,85.5 190.3,85.0 192.7,84.7 195.1,84.4 197.4,84.1 199.8,83.9 202.1,83.6 204.5,83.3 206.9,83.2 209.2,83.0 211.6,82.3 213.9,82.0 216.3,81.8 218.6,81.6 221.0,81.5 223.4,81.5 225.7,92.5 228.1,91.4 230.4,90.4 232.8,89.4 235.2,86.4 237.5,84.3 239.9,82.1 242.2,81.2 244.6,80.3 246.9,78.8 249.3,77.1 251.7,75.8 254.0,75.4 256.4,74.9 258.7,73.7 261.1,72.8 263.4,72.3 265.8,71.6 268.2,71.3 270.5,71.2 272.9,70.5 275.2,69.5 277.6,68.8 280.0,68.0 282.3,67.2 284.7,66.8 287.0,66.5 289.4,65.8 291.7,65.2 294.1,64.5 296.5,64.1 298.8,63.8 301.2,63.7 303.5,63.3 305.9,62.8 308.3,62.4 310.6,62.0 313.0,61.6 315.3,61.3 317.7,61.0 320.0,60.7 322.4,60.5 324.8,60.2 327.1,59.6 329.5,59.2 331.8,58.7 334.2,58.4 336.6,58.1 338.9,57.9 341.3,57.6 343.6,57.4 346.0,56.6 348.3,56.0 350.7,55.4 353.1,55.1 355.4,55.0 357.8,54.7 360.1,54.4 362.5,54.0 364.8,53.6 367.2,53.1 369.6,52.8 371.9,52.6 374.3,52.4 376.6,52.1 379.0,51.9 381.4,51.6 383.7,51.3 386.1,50.9 388.4,50.6 390.8,50.5 393.1,50.2 395.5,50.1 397.9,49.7 400.2,49.3 402.6,49.0 404.9,48.6 407.3,48.3 409.7,48.0 412.0,47.9 414.4,47.6 416.7,47.1 419.1,46.7 421.4,46.4 423.8,46.0 426.2,45.4 428.5,45.3 430.9,45.1 433.2,44.9 435.6,44.6 437.9,44.3 440.3,44.0 442.7,43.8 445.0,43.5 447.4,43.2 449.7,43.0 452.1,42.8 454.5,42.6 456.8,42.3 459.2,41.9 461.5,41.7 463.9,41.3 466.2,41.2 468.6,41.0 471.0,40.7 473.3,40.5 475.7,40.3 478.0,40.0 480.4,39.6 482.8,39.1 485.1,38.7 487.5,38.5 489.8,38.4 492.2,38.2 494.5,37.9 496.9,37.5 499.3,37.3 501.6,37.1 504.0,36.8 506.3,36.5 508.7,36.2 511.0,36.0 513.4,35.9 515.8,35.5 518.1,35.2 520.5,34.8 522.8,34.5 525.2,34.3 527.6,34.2 529.9,34.1 532.3,33.8 534.6,33.6 537.0,33.3 539.3,33.0 541.7,32.7 544.1,32.6 546.4,32.4 548.8,32.1 551.1,31.9 553.5,31.6 555.9,31.2 558.2,30.9 560.6,30.7 562.9,30.5 565.3,30.3 567.6,30.2 570.0,30.0 570.0,30.0,120" />
  
  <!-- Linea principale -->
  <polyline fill="none" stroke="#0366d6" stroke-width="2.5" stroke-linecap="round" stroke-linejoin="round" points="30.0,120.0 32.4,119.1 34.7,118.2 37.1,117.4 39.4,117.2 41.8,116.7 44.1,115.7 46.5,115.1 48.9,114.6 51.2,113.6 53.6,113.1 55.9,112.5 58.3,112.2 60.7,111.8 63.0,111.1 65.4,110.3 67.7,109.8 70.1,109.4 72.4,109.1 74.8,108.7 77.2,108.1 79.5,107.6 81.9,107.4 84.2,106.9 86.6,105.3 89.0,104.8 91.3,104.2 93.7,103.5 96.0,103.0 98.4,102.4 100.7,102.1 103.1,101.8 105.5,101.4 107.8,100.6 110.2,99.9 112.5,99.4 114.9,98.9 117.2,98.7 119.6,98.6 122.0,98.3 124.3,97.8 126.7,97.5 129.0,97.3 131.4,96.7 133.8,95.8 136.1,95.6 138.5,95.4 140.8,95.1 143.2,94.4 145.5,93.9 147.9,93.2 150.3,92.7 152.6,92.0 155.0,91.9 157.3,91.5 159.7,90.9 162.1,90.2 164.4,89.7 166.8,89.5 169.1,89.2 171.5,88.9 173.8,88.1 176.2,87.5 178.6,86.8 180.9,86.2 183.3,85.9 185.6,85.7 188.0,85.5 190.3,85.0 192.7,84.7 195.1,84.4 197.4,84.1 199.8,83.9 202.1,83.6 204.5,83.3 206.9,83.2 209.2,83.0 211.6,82.3 213.9,82.0 216.3,81.8 218.6,81.6 221.0,81.5 223.4,81.5 225.7,92.5 228.1,91.4 230.4,90.4 232.8,89.4 235.2,86.4 237.5,84.3 239.9,82.1 242.2,81.2 244.6,80.3 246.9,78.8 249.3,77.1 251.7,75.8 254.0,75.4 256.4,74.9 258.7,73.7 261.1,72.8 263.4,72.3 265.8,71.6 268.2,71.3 270.5,71.2 272.9,70.5 275.2,69.5 277.6,68.8 280.0,68.0 282.3,67.2 284.7,66.8 287.0,66.5 289.4,65.8 291.7,65.2 294.1,64.5 296.5,64.1 298.8,63.8 301.2,63.7 303.5,63.3 305.9,62.8 308.3,62.4 310.6,62.0 313.0,61.6 315.3,61.3 317.7,61.0 320.0,60.7 322.4,60.5 324.8,60.2 327.1,59.6 329.5,59.2 331.8,58.7 334.2,58.4 336.6,58.1 338.9,57.9 341.3,57.6 343.6,57.4 346.0,56.6 348.3,56.0 350.7,55.4 353.1,55.1 355.4,55.0 357.8,54.7 360.1,54.4 362.5,54.0 364.8,53.6 367.2,53.1 369.6,52.8 371.9,52.6 374.3,52.4 376.6,52.1 379.0,51.9 381.4,51.6 383.7,51.3 386.1,50.9 388.4,50.6 390.8,50.5 393.1,50.2 395.5,50.1 397.9,49.7 400.2,49.3 402.6,49.0 404.9,48.6 407.3,48.3 409.7,48.0 412.0,47.9 414.4,47.6 416.7,47.1 419.1,46.7 421.4,46.4 423.8,46.0 426.2,45.4 428.5,45.3 430.9,45.1 433.2,44.9 435.6,44.6 437.9,44.3 440.3,44.0 442.7,43.8 445.0,43.5 447.4,43.2 449.7,43.0 452.1,42.8 454.5,42.6 456.8,42.3 459.2,41.9 461.5,41.7 463.9,41.3 466.2,41.2 468.6,41.0 471.0,40.7 473.3,40.5 475.7,40.3 478.0,40.0 480.4,39.6 482.8,39.1 485.1,38.7 487.5,38.5 489.8,38.4 492.2,38.2 494.5,37.9 496.9,37.5 499.3,37.3 501.6,37.1 504.0,36.8 506.3,36.5 508.7,36.2 511.0,36.0 513.4,35.9 515.8,35.5 518.1,35.2 520.5,34.8 522.8,34.5 525.2,34.3 527.6,34.2 529.9,34.1 532.3,33.8 534.6,33.6 537.0,33.3 539.3,33.0 541.7,32.7 544.1,32.6 546.4,32.4 548.8,32.1 551.1,31.9 553.5,31.6 555.9,31.2 558.2,30.9 560.6,30.7 562.9,30.5 565.3,30.3 567.6,30.2 570.0,30.0" />
  
  <!-- Punto finale luminoso -->
  <circle cx="570.0" cy="30.0" r="4" fill="#ffffff" stroke="#0366d6" stroke-width="2.5" />
</svg>