<svg width="600" height="150" viewBox="0 0 600 150" xmlns="http://www.w3.org/2000/svg">
  <defs>
    <filter id="shadow2" x="-2%" y="-2%" width="104%" height="108%">
      <feDropShadow dx="0" dy="2" stdDeviation="3" flood-opacity="0.1" />
    </filter>
    <linearGradient id="fillGrad" x1="0" y1="0" x2="0" y2="1">
      <stop offset="0%" stop-color="#0366d6" stop-opacity="0.3"/>
      <stop offset="100%" stop-color="#0366d6" stop-opacity="0.02"/>
    </linearGradient>
  </defs>
  <rect width="600" height="150" rx="12" fill="#ffffff" filter="url(#shadow2)" stroke="#e1e4e8" stroke-width="1"/>
  <text x="20" y="24" fill="#2b3137" font-family="-apple-system,BlinkMacSystemFont,'Segoe UI',Helvetica,Arial,sans-serif" font-size="14" font-weight="600">📈 Download Growth (Actual: 85.2k)</text>
  
  <!-- Area sotto la linea -->
  <polygon fill="url(#fillGrad)" points="30.0,120.0,120 30.0,120.0 31.5,119.5 33.1,118.9 34.6,118.3 36.1,118.2 37.6,117.9 39.2,117.3 40.7,116.9 42.2,116.6 43.8,115.9 45.3,115.6 46.8,115.3 48.4,115.1 49.9,114.8 51.4,114.3 52.9,113.9 54.5,113.5 56.0,113.3 57.5,113.1 59.1,112.8 60.6,112.4 62.1,112.1 63.7,112.0 65.2,111.7 66.7,110.7 68.2,110.4 69.8,109.9 71.3,109.5 72.8,109.2 74.4,108.8 75.9,108.6 77.4,108.4 79.0,108.2 80.5,107.6 82.0,107.2 83.5,106.9 85.1,106.6 86.6,106.5 88.1,106.4 89.7,106.2 91.2,105.9 92.7,105.7 94.2,105.5 95.8,105.2 97.3,104.6 98.8,104.5 100.4,104.4 101.9,104.2 103.4,103.7 105.0,103.4 106.5,103.0 108.0,102.6 109.5,102.2 111.1,102.1 112.6,101.9 114.1,101.5 115.7,101.1 117.2,100.8 118.7,100.6 120.3,100.4 121.8,100.2 123.3,99.7 124.8,99.3 126.4,98.9 127.9,98.5 129.4,98.4 131.0,98.2 132.5,98.1 134.0,97.8 135.6,97.5 137.1,97.4 138.6,97.2 140.1,97.1 141.7,96.8 143.2,96.7 144.7,96.6 146.3,96.5 147.8,96.1 149.3,95.8 150.8,95.8 152.4,95.6 153.9,95.5 155.4,95.5 157.0,102.5 158.5,101.8 160.0,101.2 161.6,100.6 163.1,98.7 164.6,97.3 166.1,95.9 167.7,95.4 169.2,94.8 170.7,93.8 172.3,92.7 173.8,91.9 175.3,91.6 176.9,91.4 178.4,90.6 179.9,90.0 181.4,89.7 183.0,89.2 184.5,89.0 186.0,89.0 187.6,88.6 189.1,87.9 190.6,87.4 192.2,87.0 193.7,86.4 195.2,86.2 196.7,86.0 198.3,85.6 199.8,85.1 201.3,84.8 202.9,84.4 204.4,84.3 205.9,84.2 207.5,84.0 209.0,83.6 210.5,83.4 212.0,83.1 213.6,82.9 215.1,82.7 216.6,82.5 218.2,82.3 219.7,82.2 221.2,82.0 222.7,81.6 224.3,81.4 225.8,81.0 227.3,80.9 228.9,80.7 230.4,80.5 231.9,80.4 233.5,80.2 235.0,79.7 236.5,79.3 238.0,78.9 239.6,78.8 241.1,78.7 242.6,78.5 244.2,78.3 245.7,78.0 247.2,77.8 248.8,77.5 250.3,77.3 251.8,77.2 253.3,77.0 254.9,76.9 256.4,76.7 257.9,76.5 259.5,76.4 261.0,76.1 262.5,75.9 264.1,75.8 265.6,75.7 267.1,75.6 268.6,75.3 270.2,75.1 271.7,74.9 273.2,74.6 274.8,74.4 276.3,74.3 277.8,74.2 279.3,74.0 280.9,73.7 282.4,73.4 283.9,73.2 285.5,73.0 287.0,72.6 288.5,72.5 290.1,72.4 291.6,72.3 293.1,72.1 294.6,71.9 296.2,71.7 297.7,71.5 299.2,71.4 300.8,71.2 302.3,71.0 303.8,70.9 305.4,70.8 306.9,70.6 308.4,70.4 309.9,70.2 311.5,70.0 313.0,69.9 314.5,69.8 316.1,69.6 317.6,69.5 319.1,69.4 320.7,69.2 322.2,68.9 323.7,68.6 325.2,68.4 326.8,68.2 328.3,68.1 329.8,68.0 331.4,67.8 332.9,67.6 334.4,67.4 335.9,67.3 337.5,67.1 339.0,67.0 340.5,66.8 342.1,66.6 343.6,66.5 345.1,66.3 346.7,66.1 348.2,65.9 349.7,65.6 351.2,65.5 352.8,65.5 354.3,65.4 355.8,65.2 357.4,65.1 358.9,64.9 360.4,64.7 362.0,64.5 363.5,64.4 365.0,64.3 366.5,64.2 368.1,64.0 369.6,63.8 371.1,63.6 372.7,63.4 374.2,63.2 375.7,63.1 377.3,63.0 378.8,62.9 380.3,62.8 381.8,62.7 383.4,62.5 384.9,62.3 386.4,62.1 388.0,62.0 389.5,61.9 391.0,61.7 392.5,61.6 394.1,61.4 395.6,61.3 397.1,61.2 398.7,61.0 400.2,60.8 401.7,60.7 403.3,60.5 404.8,60.4 406.3,60.3 407.8,60.2 409.4,60.1 410.9,59.9 412.4,59.8 414.0,59.8 415.5,59.6 417.0,59.3 418.6,59.1 420.1,63.6 421.6,62.7 423.1,61.0 424.7,60.3 426.2,59.6 427.7,58.6 429.3,58.0 430.8,57.7 432.3,57.0 433.9,56.0 435.4,55.3 436.9,55.0 438.4,54.7 440.0,54.4 441.5,53.9 443.0,53.4 444.6,52.8 446.1,52.6 447.6,52.0 449.2,51.8 450.7,51.4 452.2,51.2 453.7,51.0 455.3,50.7 456.8,50.2 458.3,49.9 459.9,49.4 461.4,48.8 462.9,48.4 464.4,48.2 466.0,48.0 467.5,47.8 469.0,47.4 470.6,47.0 472.1,46.7 473.6,45.8 475.2,45.0 476.7,44.7 478.2,44.5 479.7,44.2 481.3,43.7 482.8,43.3 484.3,43.0 485.9,42.7 487.4,42.3 488.9,42.0 490.5,41.7 492.0,41.3 493.5,41.0 495.0,40.9 496.6,40.7 498.1,40.3 499.6,40.0 501.2,39.7 502.7,39.6 504.2,39.4 505.8,39.1 507.3,39.0 508.8,38.7 510.3,38.6 511.9,38.4 513.4,38.2 514.9,37.9 516.5,37.7 518.0,37.4 519.5,37.0 521.0,36.7 522.6,36.5 524.1,36.3 525.6,36.1 527.2,35.9 528.7,35.8 530.2,35.6 531.8,35.5 533.3,35.3 534.8,35.1 536.3,35.0 537.9,34.6 539.4,34.5 540.9,34.3 542.5,34.1 544.0,33.7 545.5,33.3 547.1,33.1 548.6,32.9 550.1,32.7 551.6,32.4 553.2,32.2 554.7,31.9 556.2,31.7 557.8,31.6 559.3,31.5 560.8,31.3 562.4,31.0 563.9,30.8 565.4,30.7 566.9,30.4 568.5,30.2 570.0,30.0 570.0,30.0,120" />
  
  <!-- Linea principale -->
  <polyline fill="none" stroke="#0366d6" stroke-width="2.5" stroke-linecap="round" stroke-linejoin="round" points="30.0,120.0 31.5,119.5 33.1,118.9 34.6,118.3 36.1,118.2 37.6,117.9 39.2,117.3 40.7,116.9 42.2,116.6 43.8,115.9 45.3,115.6 46.8,115.3 48.4,115.1 49.9,114.8 51.4,114.3 52.9,113.9 54.5,113.5 56.0,113.3 57.5,113.1 59.1,112.8 60.6,112.4 62.1,112.1 63.7,112.0 65.2,111.7 66.7,110.7 68.2,110.4 69.8,109.9 71.3,109.5 72.8,109.2 74.4,108.8 75.9,108.6 77.4,108.4 79.0,108.2 80.5,107.6 82.0,107.2 83.5,106.9 85.1,106.6 86.6,106.5 88.1,106.4 89.7,106.2 91.2,105.9 92.7,105.7 94.2,105.5 95.8,105.2 97.3,104.6 98.8,104.5 100.4,104.4 101.9,104.2 103.4,103.7 105.0,103.4 106.5,103.0 108.0,102.6 109.5,102.2 111.1,102.1 112.6,101.9 114.1,101.5 115.7,101.1 117.2,100.8 118.7,100.6 120.3,100.4 121.8,100.2 123.3,99.7 124.8,99.3 126.4,98.9 127.9,98.5 129.4,98.4 131.0,98.2 132.5,98.1 134.0,97.8 135.6,97.5 137.1,97.4 138.6,97.2 140.1,97.1 141.7,96.8 143.2,96.7 144.7,96.6 146.3,96.5 147.8,96.1 149.3,95.8 150.8,95.8 152.4,95.6 153.9,95.5 155.4,95.5 157.0,102.5 158.5,101.8 160.0,101.2 161.6,100.6 163.1,98.7 164.6,97.3 166.1,95.9 167.7,95.4 169.2,94.8 170.7,93.8 172.3,92.7 173.8,91.9 175.3,91.6 176.9,91.4 178.4,90.6 179.9,90.0 181.4,89.7 183.0,89.2 184.5,89.0 186.0,89.0 187.6,88.6 189.1,87.9 190.6,87.4 192.2,87.0 193.7,86.4 195.2,86.2 196.7,86.0 198.3,85.6 199.8,85.1 201.3,84.8 202.9,84.4 204.4,84.3 205.9,84.2 207.5,84.0 209.0,83.6 210.5,83.4 212.0,83.1 213.6,82.9 215.1,82.7 216.6,82.5 218.2,82.3 219.7,82.2 221.2,82.0 222.7,81.6 224.3,81.4 225.8,81.0 227.3,80.9 228.9,80.7 230.4,80.5 231.9,80.4 233.5,80.2 235.0,79.7 236.5,79.3 238.0,78.9 239.6,78.8 241.1,78.7 242.6,78.5 244.2,78.3 245.7,78.0 247.2,77.8 248.8,77.5 250.3,77.3 251.8,77.2 253.3,77.0 254.9,76.9 256.4,76.7 257.9,76.5 259.5,76.4 261.0,76.1 262.5,75.9 264.1,75.8 265.6,75.7 267.1,75.6 268.6,75.3 270.2,75.1 271.7,74.9 273.2,74.6 274.8,74.4 276.3,74.3 277.8,74.2 279.3,74.0 280.9,73.7 282.4,73.4 283.9,73.2 285.5,73.0 287.0,72.6 288.5,72.5 290.1,72.4 291.6,72.3 293.1,72.1 294.6,71.9 296.2,71.7 297.7,71.5 299.2,71.4 300.8,71.2 302.3,71.0 303.8,70.9 305.4,70.8 306.9,70.6 308.4,70.4 309.9,70.2 311.5,70.0 313.0,69.9 314.5,69.8 316.1,69.6 317.6,69.5 319.1,69.4 320.7,69.2 322.2,68.9 323.7,68.6 325.2,68.4 326.8,68.2 328.3,68.1 329.8,68.0 331.4,67.8 332.9,67.6 334.4,67.4 335.9,67.3 337.5,67.1 339.0,67.0 340.5,66.8 342.1,66.6 343.6,66.5 345.1,66.3 346.7,66.1 348.2,65.9 349.7,65.6 351.2,65.5 352.8,65.5 354.3,65.4 355.8,65.2 357.4,65.1 358.9,64.9 360.4,64.7 362.0,64.5 363.5,64.4 365.0,64.3 366.5,64.2 368.1,64.0 369.6,63.8 371.1,63.6 372.7,63.4 374.2,63.2 375.7,63.1 377.3,63.0 378.8,62.9 380.3,62.8 381.8,62.7 383.4,62.5 384.9,62.3 386.4,62.1 388.0,62.0 389.5,61.9 391.0,61.7 392.5,61.6 394.1,61.4 395.6,61.3 397.1,61.2 398.7,61.0 400.2,60.8 401.7,60.7 403.3,60.5 404.8,60.4 406.3,60.3 407.8,60.2 409.4,60.1 410.9,59.9 412.4,59.8 414.0,59.8 415.5,59.6 417.0,59.3 418.6,59.1 420.1,63.6 421.6,62.7 423.1,61.0 424.7,60.3 426.2,59.6 427.7,58.6 429.3,58.0 430.8,57.7 432.3,57.0 433.9,56.0 435.4,55.3 436.9,55.0 438.4,54.7 440.0,54.4 441.5,53.9 443.0,53.4 444.6,52.8 446.1,52.6 447.6,52.0 449.2,51.8 450.7,51.4 452.2,51.2 453.7,51.0 455.3,50.7 456.8,50.2 458.3,49.9 459.9,49.4 461.4,48.8 462.9,48.4 464.4,48.2 466.0,48.0 467.5,47.8 469.0,47.4 470.6,47.0 472.1,46.7 473.6,45.8 475.2,45.0 476.7,44.7 478.2,44.5 479.7,44.2 481.3,43.7 482.8,43.3 484.3,43.0 485.9,42.7 487.4,42.3 488.9,42.0 490.5,41.7 492.0,41.3 493.5,41.0 495.0,40.9 496.6,40.7 498.1,40.3 499.6,40.0 501.2,39.7 502.7,39.6 504.2,39.4 505.8,39.1 507.3,39.0 508.8,38.7 510.3,38.6 511.9,38.4 513.4,38.2 514.9,37.9 516.5,37.7 518.0,37.4 519.5,37.0 521.0,36.7 522.6,36.5 524.1,36.3 525.6,36.1 527.2,35.9 528.7,35.8 530.2,35.6 531.8,35.5 533.3,35.3 534.8,35.1 536.3,35.0 537.9,34.6 539.4,34.5 540.9,34.3 542.5,34.1 544.0,33.7 545.5,33.3 547.1,33.1 548.6,32.9 550.1,32.7 551.6,32.4 553.2,32.2 554.7,31.9 556.2,31.7 557.8,31.6 559.3,31.5 560.8,31.3 562.4,31.0 563.9,30.8 565.4,30.7 566.9,30.4 568.5,30.2 570.0,30.0" />
  
  <!-- Punto finale luminoso -->
  <circle cx="570.0" cy="30.0" r="4" fill="#ffffff" stroke="#0366d6" stroke-width="2.5" />
</svg>