<svg width="600" height="150" viewBox="0 0 600 150" xmlns="http://www.w3.org/2000/svg">
  <defs>
    <filter id="shadow2" x="-2%" y="-2%" width="104%" height="108%">
      <feDropShadow dx="0" dy="2" stdDeviation="3" flood-opacity="0.1" />
    </filter>
    <linearGradient id="fillGrad" x1="0" y1="0" x2="0" y2="1">
      <stop offset="0%" stop-color="#0366d6" stop-opacity="0.3"/>
      <stop offset="100%" stop-color="#0366d6" stop-opacity="0.02"/>
    </linearGradient>
  </defs>
  <rect width="600" height="150" rx="12" fill="#ffffff" filter="url(#shadow2)" stroke="#e1e4e8" stroke-width="1"/>
  <text x="20" y="24" fill="#2b3137" font-family="-apple-system,BlinkMacSystemFont,'Segoe UI',Helvetica,Arial,sans-serif" font-size="14" font-weight="600">📈 Download Growth (Actual: 85.3k)</text>
  
  <!-- Area sotto la linea -->
  <polygon fill="url(#fillGrad)" points="30.0,120.0,120 30.0,120.0 31.5,119.5 33.1,118.9 34.6,118.3 36.1,118.2 37.6,117.9 39.2,117.3 40.7,116.9 42.2,116.6 43.7,115.9 45.3,115.6 46.8,115.3 48.3,115.1 49.8,114.8 51.4,114.4 52.9,113.9 54.4,113.5 55.9,113.3 57.5,113.1 59.0,112.8 60.5,112.5 62.0,112.2 63.6,112.0 65.1,111.7 66.6,110.7 68.1,110.4 69.7,110.0 71.2,109.6 72.7,109.2 74.2,108.9 75.8,108.7 77.3,108.5 78.8,108.2 80.3,107.7 81.9,107.3 83.4,107.0 84.9,106.6 86.4,106.5 88.0,106.4 89.5,106.3 91.0,105.9 92.5,105.7 94.1,105.6 95.6,105.2 97.1,104.7 98.6,104.5 100.2,104.4 101.7,104.2 103.2,103.8 104.7,103.5 106.3,103.0 107.8,102.7 109.3,102.3 110.8,102.2 112.4,102.0 113.9,101.5 115.4,101.1 116.9,100.8 118.5,100.7 120.0,100.5 121.5,100.3 123.1,99.8 124.6,99.4 126.1,99.0 127.6,98.6 129.2,98.4 130.7,98.3 132.2,98.1 133.7,97.8 135.3,97.6 136.8,97.4 138.3,97.3 139.8,97.1 141.4,96.9 142.9,96.8 144.4,96.7 145.9,96.6 147.5,96.1 149.0,95.9 150.5,95.8 152.0,95.7 153.6,95.6 155.1,95.6 156.6,102.6 158.1,101.9 159.7,101.3 161.2,100.6 162.7,98.7 164.2,97.4 165.8,96.0 167.3,95.4 168.8,94.8 170.3,93.9 171.9,92.8 173.4,92.0 174.9,91.7 176.4,91.5 178.0,90.7 179.5,90.1 181.0,89.8 182.5,89.3 184.1,89.1 185.6,89.1 187.1,88.7 188.6,88.0 190.2,87.5 191.7,87.1 193.2,86.5 194.7,86.3 196.3,86.1 197.8,85.7 199.3,85.3 200.8,84.9 202.4,84.6 203.9,84.4 205.4,84.3 206.9,84.1 208.5,83.7 210.0,83.5 211.5,83.2 213.1,83.0 214.6,82.8 216.1,82.6 217.6,82.5 219.2,82.3 220.7,82.1 222.2,81.8 223.7,81.5 225.3,81.2 226.8,81.0 228.3,80.8 229.8,80.7 231.4,80.5 232.9,80.3 234.4,79.8 235.9,79.5 237.5,79.1 239.0,78.9 240.5,78.9 242.0,78.7 243.6,78.4 245.1,78.2 246.6,77.9 248.1,77.6 249.7,77.4 251.2,77.3 252.7,77.2 254.2,77.0 255.8,76.9 257.3,76.7 258.8,76.5 260.3,76.2 261.9,76.1 263.4,76.0 264.9,75.8 266.4,75.7 268.0,75.5 269.5,75.2 271.0,75.0 272.5,74.8 274.1,74.6 275.6,74.4 277.1,74.3 278.6,74.2 280.2,73.8 281.7,73.6 283.2,73.3 284.7,73.1 286.3,72.7 287.8,72.7 289.3,72.5 290.8,72.4 292.4,72.2 293.9,72.1 295.4,71.9 296.9,71.7 298.5,71.5 300.0,71.4 301.5,71.2 303.1,71.1 304.6,71.0 306.1,70.8 307.6,70.5 309.2,70.4 310.7,70.2 312.2,70.1 313.7,69.9 315.3,69.8 316.8,69.7 318.3,69.5 319.8,69.4 321.4,69.1 322.9,68.7 324.4,68.5 325.9,68.4 327.5,68.3 329.0,68.2 330.5,68.0 332.0,67.7 333.6,67.6 335.1,67.5 336.6,67.3 338.1,67.1 339.7,66.9 341.2,66.8 342.7,66.7 344.2,66.5 345.8,66.3 347.3,66.0 348.8,65.8 350.3,65.7 351.9,65.7 353.4,65.6 354.9,65.4 356.4,65.3 358.0,65.1 359.5,64.9 361.0,64.7 362.5,64.6 364.1,64.5 365.6,64.4 367.1,64.2 368.6,64.0 370.2,63.8 371.7,63.6 373.2,63.4 374.7,63.3 376.3,63.2 377.8,63.1 379.3,63.0 380.8,62.9 382.4,62.7 383.9,62.5 385.4,62.3 386.9,62.2 388.5,62.1 390.0,61.9 391.5,61.8 393.1,61.6 394.6,61.5 396.1,61.3 397.6,61.2 399.2,61.0 400.7,60.9 402.2,60.7 403.7,60.6 405.3,60.5 406.8,60.4 408.3,60.3 409.8,60.1 411.4,60.0 412.9,60.0 414.4,59.8 415.9,59.5 417.5,59.3 419.0,63.8 420.5,62.9 422.0,61.2 423.6,60.5 425.1,59.8 426.6,58.8 428.1,58.2 429.7,57.9 431.2,57.2 432.7,56.2 434.2,55.5 435.8,55.3 437.3,54.9 438.8,54.6 440.3,54.1 441.9,53.6 443.4,53.0 444.9,52.8 446.4,52.3 448.0,52.0 449.5,51.7 451.0,51.4 452.5,51.2 454.1,50.9 455.6,50.4 457.1,50.1 458.6,49.6 460.2,49.0 461.7,48.6 463.2,48.4 464.7,48.3 466.3,48.0 467.8,47.6 469.3,47.3 470.8,46.9 472.4,46.0 473.9,45.3 475.4,45.0 476.9,44.8 478.5,44.5 480.0,44.0 481.5,43.6 483.1,43.3 484.6,42.9 486.1,42.6 487.6,42.3 489.2,42.0 490.7,41.6 492.2,41.3 493.7,41.1 495.3,40.9 496.8,40.5 498.3,40.2 499.8,40.0 501.4,39.9 502.9,39.7 504.4,39.4 505.9,39.2 507.5,39.0 509.0,38.8 510.5,38.6 512.0,38.5 513.6,38.2 515.1,38.0 516.6,37.6 518.1,37.2 519.7,36.9 521.2,36.8 522.7,36.6 524.2,36.4 525.8,36.2 527.3,36.0 528.8,35.9 530.3,35.7 531.9,35.6 533.4,35.4 534.9,35.3 536.4,34.9 538.0,34.8 539.5,34.6 541.0,34.4 542.5,34.0 544.1,33.6 545.6,33.4 547.1,33.2 548.6,33.0 550.2,32.7 551.7,32.5 553.2,32.2 554.7,32.0 556.3,31.9 557.8,31.8 559.3,31.6 560.8,31.3 562.4,31.1 563.9,31.0 565.4,30.7 566.9,30.5 568.5,30.3 570.0,30.0 570.0,30.0,120" />
  
  <!-- Linea principale -->
  <polyline fill="none" stroke="#0366d6" stroke-width="2.5" stroke-linecap="round" stroke-linejoin="round" points="30.0,120.0 31.5,119.5 33.1,118.9 34.6,118.3 36.1,118.2 37.6,117.9 39.2,117.3 40.7,116.9 42.2,116.6 43.7,115.9 45.3,115.6 46.8,115.3 48.3,115.1 49.8,114.8 51.4,114.4 52.9,113.9 54.4,113.5 55.9,113.3 57.5,113.1 59.0,112.8 60.5,112.5 62.0,112.2 63.6,112.0 65.1,111.7 66.6,110.7 68.1,110.4 69.7,110.0 71.2,109.6 72.7,109.2 74.2,108.9 75.8,108.7 77.3,108.5 78.8,108.2 80.3,107.7 81.9,107.3 83.4,107.0 84.9,106.6 86.4,106.5 88.0,106.4 89.5,106.3 91.0,105.9 92.5,105.7 94.1,105.6 95.6,105.2 97.1,104.7 98.6,104.5 100.2,104.4 101.7,104.2 103.2,103.8 104.7,103.5 106.3,103.0 107.8,102.7 109.3,102.3 110.8,102.2 112.4,102.0 113.9,101.5 115.4,101.1 116.9,100.8 118.5,100.7 120.0,100.5 121.5,100.3 123.1,99.8 124.6,99.4 126.1,99.0 127.6,98.6 129.2,98.4 130.7,98.3 132.2,98.1 133.7,97.8 135.3,97.6 136.8,97.4 138.3,97.3 139.8,97.1 141.4,96.9 142.9,96.8 144.4,96.7 145.9,96.6 147.5,96.1 149.0,95.9 150.5,95.8 152.0,95.7 153.6,95.6 155.1,95.6 156.6,102.6 158.1,101.9 159.7,101.3 161.2,100.6 162.7,98.7 164.2,97.4 165.8,96.0 167.3,95.4 168.8,94.8 170.3,93.9 171.9,92.8 173.4,92.0 174.9,91.7 176.4,91.5 178.0,90.7 179.5,90.1 181.0,89.8 182.5,89.3 184.1,89.1 185.6,89.1 187.1,88.7 188.6,88.0 190.2,87.5 191.7,87.1 193.2,86.5 194.7,86.3 196.3,86.1 197.8,85.7 199.3,85.3 200.8,84.9 202.4,84.6 203.9,84.4 205.4,84.3 206.9,84.1 208.5,83.7 210.0,83.5 211.5,83.2 213.1,83.0 214.6,82.8 216.1,82.6 217.6,82.5 219.2,82.3 220.7,82.1 222.2,81.8 223.7,81.5 225.3,81.2 226.8,81.0 228.3,80.8 229.8,80.7 231.4,80.5 232.9,80.3 234.4,79.8 235.9,79.5 237.5,79.1 239.0,78.9 240.5,78.9 242.0,78.7 243.6,78.4 245.1,78.2 246.6,77.9 248.1,77.6 249.7,77.4 251.2,77.3 252.7,77.2 254.2,77.0 255.8,76.9 257.3,76.7 258.8,76.5 260.3,76.2 261.9,76.1 263.4,76.0 264.9,75.8 266.4,75.7 268.0,75.5 269.5,75.2 271.0,75.0 272.5,74.8 274.1,74.6 275.6,74.4 277.1,74.3 278.6,74.2 280.2,73.8 281.7,73.6 283.2,73.3 284.7,73.1 286.3,72.7 287.8,72.7 289.3,72.5 290.8,72.4 292.4,72.2 293.9,72.1 295.4,71.9 296.9,71.7 298.5,71.5 300.0,71.4 301.5,71.2 303.1,71.1 304.6,71.0 306.1,70.8 307.6,70.5 309.2,70.4 310.7,70.2 312.2,70.1 313.7,69.9 315.3,69.8 316.8,69.7 318.3,69.5 319.8,69.4 321.4,69.1 322.9,68.7 324.4,68.5 325.9,68.4 327.5,68.3 329.0,68.2 330.5,68.0 332.0,67.7 333.6,67.6 335.1,67.5 336.6,67.3 338.1,67.1 339.7,66.9 341.2,66.8 342.7,66.7 344.2,66.5 345.8,66.3 347.3,66.0 348.8,65.8 350.3,65.7 351.9,65.7 353.4,65.6 354.9,65.4 356.4,65.3 358.0,65.1 359.5,64.9 361.0,64.7 362.5,64.6 364.1,64.5 365.6,64.4 367.1,64.2 368.6,64.0 370.2,63.8 371.7,63.6 373.2,63.4 374.7,63.3 376.3,63.2 377.8,63.1 379.3,63.0 380.8,62.9 382.4,62.7 383.9,62.5 385.4,62.3 386.9,62.2 388.5,62.1 390.0,61.9 391.5,61.8 393.1,61.6 394.6,61.5 396.1,61.3 397.6,61.2 399.2,61.0 400.7,60.9 402.2,60.7 403.7,60.6 405.3,60.5 406.8,60.4 408.3,60.3 409.8,60.1 411.4,60.0 412.9,60.0 414.4,59.8 415.9,59.5 417.5,59.3 419.0,63.8 420.5,62.9 422.0,61.2 423.6,60.5 425.1,59.8 426.6,58.8 428.1,58.2 429.7,57.9 431.2,57.2 432.7,56.2 434.2,55.5 435.8,55.3 437.3,54.9 438.8,54.6 440.3,54.1 441.9,53.6 443.4,53.0 444.9,52.8 446.4,52.3 448.0,52.0 449.5,51.7 451.0,51.4 452.5,51.2 454.1,50.9 455.6,50.4 457.1,50.1 458.6,49.6 460.2,49.0 461.7,48.6 463.2,48.4 464.7,48.3 466.3,48.0 467.8,47.6 469.3,47.3 470.8,46.9 472.4,46.0 473.9,45.3 475.4,45.0 476.9,44.8 478.5,44.5 480.0,44.0 481.5,43.6 483.1,43.3 484.6,42.9 486.1,42.6 487.6,42.3 489.2,42.0 490.7,41.6 492.2,41.3 493.7,41.1 495.3,40.9 496.8,40.5 498.3,40.2 499.8,40.0 501.4,39.9 502.9,39.7 504.4,39.4 505.9,39.2 507.5,39.0 509.0,38.8 510.5,38.6 512.0,38.5 513.6,38.2 515.1,38.0 516.6,37.6 518.1,37.2 519.7,36.9 521.2,36.8 522.7,36.6 524.2,36.4 525.8,36.2 527.3,36.0 528.8,35.9 530.3,35.7 531.9,35.6 533.4,35.4 534.9,35.3 536.4,34.9 538.0,34.8 539.5,34.6 541.0,34.4 542.5,34.0 544.1,33.6 545.6,33.4 547.1,33.2 548.6,33.0 550.2,32.7 551.7,32.5 553.2,32.2 554.7,32.0 556.3,31.9 557.8,31.8 559.3,31.6 560.8,31.3 562.4,31.1 563.9,31.0 565.4,30.7 566.9,30.5 568.5,30.3 570.0,30.0" />
  
  <!-- Punto finale luminoso -->
  <circle cx="570.0" cy="30.0" r="4" fill="#ffffff" stroke="#0366d6" stroke-width="2.5" />
</svg>