<svg width="600" height="150" viewBox="0 0 600 150" xmlns="http://www.w3.org/2000/svg">
  <defs>
    <filter id="shadow2" x="-2%" y="-2%" width="104%" height="108%">
      <feDropShadow dx="0" dy="2" stdDeviation="3" flood-opacity="0.1" />
    </filter>
    <linearGradient id="fillGrad" x1="0" y1="0" x2="0" y2="1">
      <stop offset="0%" stop-color="#0366d6" stop-opacity="0.3"/>
      <stop offset="100%" stop-color="#0366d6" stop-opacity="0.02"/>
    </linearGradient>
  </defs>
  <rect width="600" height="150" rx="12" fill="#ffffff" filter="url(#shadow2)" stroke="#e1e4e8" stroke-width="1"/>
  <text x="20" y="24" fill="#2b3137" font-family="-apple-system,BlinkMacSystemFont,'Segoe UI',Helvetica,Arial,sans-serif" font-size="14" font-weight="600">📈 Download Growth (Actual: 86.2k)</text>
  
  <!-- Area sotto la linea -->
  <polygon fill="url(#fillGrad)" points="30.0,120.0,120 30.0,120.0 31.4,119.5 32.9,118.9 34.3,118.4 35.7,118.3 37.1,118.0 38.6,117.4 40.0,117.0 41.4,116.7 42.9,116.1 44.3,115.8 45.7,115.5 47.1,115.3 48.6,115.0 50.0,114.6 51.4,114.2 52.9,113.8 54.3,113.6 55.7,113.4 57.1,113.1 58.6,112.8 60.0,112.5 61.4,112.4 62.9,112.1 64.3,111.1 65.7,110.8 67.1,110.4 68.6,110.1 70.0,109.7 71.4,109.4 72.9,109.2 74.3,109.0 75.7,108.7 77.1,108.3 78.6,107.8 80.0,107.6 81.4,107.2 82.9,107.1 84.3,107.1 85.7,106.9 87.1,106.6 88.6,106.4 90.0,106.2 91.4,105.9 92.9,105.4 94.3,105.2 95.7,105.1 97.1,104.9 98.6,104.5 100.0,104.2 101.4,103.8 102.9,103.5 104.3,103.1 105.7,103.0 107.1,102.8 108.6,102.4 110.0,102.0 111.4,101.7 112.9,101.6 114.3,101.4 115.7,101.2 117.1,100.7 118.6,100.3 120.0,100.0 121.4,99.6 122.9,99.4 124.3,99.3 125.7,99.1 127.1,98.8 128.6,98.6 130.0,98.5 131.4,98.3 132.9,98.2 134.3,98.0 135.7,97.8 137.1,97.7 138.6,97.6 140.0,97.2 141.4,97.0 142.9,96.9 144.3,96.8 145.7,96.7 147.1,96.7 148.6,103.4 150.0,102.7 151.4,102.1 152.9,101.5 154.3,99.7 155.7,98.4 157.1,97.1 158.6,96.6 160.0,96.0 161.4,95.1 162.9,94.0 164.3,93.3 165.7,93.0 167.1,92.8 168.6,92.0 170.0,91.5 171.4,91.2 172.9,90.7 174.3,90.5 175.7,90.5 177.1,90.1 178.6,89.5 180.0,89.0 181.4,88.6 182.9,88.1 184.3,87.8 185.7,87.7 187.1,87.2 188.6,86.8 190.0,86.5 191.4,86.2 192.9,86.0 194.3,86.0 195.7,85.7 197.1,85.4 198.6,85.2 200.0,84.9 201.4,84.7 202.9,84.5 204.3,84.3 205.7,84.2 207.1,84.0 208.6,83.8 210.0,83.5 211.4,83.2 212.9,82.9 214.3,82.8 215.7,82.6 217.1,82.4 218.6,82.3 220.0,82.1 221.4,81.7 222.9,81.3 224.3,80.9 225.7,80.8 227.1,80.7 228.6,80.5 230.0,80.3 231.4,80.1 232.9,79.9 234.3,79.6 235.7,79.4 237.1,79.3 238.6,79.1 240.0,79.0 241.4,78.8 242.9,78.6 244.3,78.5 245.7,78.2 247.1,78.1 248.6,78.0 250.0,77.8 251.4,77.7 252.9,77.5 254.3,77.3 255.7,77.1 257.1,76.9 258.6,76.6 260.0,76.5 261.4,76.4 262.9,76.2 264.3,76.0 265.7,75.7 267.1,75.5 268.6,75.3 270.0,74.9 271.4,74.8 272.9,74.7 274.3,74.6 275.7,74.4 277.1,74.2 278.6,74.1 280.0,73.9 281.4,73.7 282.9,73.6 284.3,73.4 285.7,73.3 287.1,73.2 288.6,73.1 290.0,72.8 291.4,72.7 292.9,72.5 294.3,72.3 295.7,72.2 297.1,72.1 298.6,72.0 300.0,71.8 301.4,71.7 302.9,71.4 304.3,71.1 305.7,70.9 307.1,70.7 308.6,70.6 310.0,70.6 311.4,70.4 312.9,70.1 314.3,70.0 315.7,69.9 317.1,69.7 318.6,69.5 320.0,69.3 321.4,69.2 322.9,69.1 324.3,68.9 325.7,68.7 327.1,68.5 328.6,68.3 330.0,68.2 331.4,68.1 332.9,68.1 334.3,67.9 335.7,67.8 337.1,67.6 338.6,67.4 340.0,67.2 341.4,67.1 342.9,67.0 344.3,66.9 345.7,66.8 347.1,66.5 348.6,66.3 350.0,66.2 351.4,66.0 352.9,65.9 354.3,65.8 355.7,65.7 357.1,65.6 358.6,65.5 360.0,65.3 361.4,65.1 362.9,65.0 364.3,64.8 365.7,64.7 367.1,64.6 368.6,64.4 370.0,64.3 371.4,64.1 372.9,64.0 374.3,63.9 375.7,63.7 377.1,63.6 378.6,63.4 380.0,63.3 381.4,63.2 382.9,63.1 384.3,63.0 385.7,62.9 387.1,62.7 388.6,62.7 390.0,62.6 391.4,62.2 392.9,62.0 394.3,66.4 395.7,65.5 397.1,63.9 398.6,63.3 400.0,62.5 401.4,61.6 402.9,61.1 404.3,60.7 405.7,60.1 407.1,59.1 408.6,58.4 410.0,58.2 411.4,57.9 412.9,57.6 414.3,57.1 415.7,56.6 417.1,56.1 418.6,55.8 420.0,55.4 421.4,55.1 422.9,54.8 424.3,54.6 425.7,54.3 427.1,54.1 428.6,53.6 430.0,53.3 431.4,52.8 432.9,52.3 434.3,51.9 435.7,51.7 437.1,51.5 438.6,51.3 440.0,50.9 441.4,50.6 442.9,50.3 444.3,49.4 445.7,48.7 447.1,48.4 448.6,48.2 450.0,47.9 451.4,47.4 452.9,47.1 454.3,46.8 455.7,46.5 457.1,46.1 458.6,45.8 460.0,45.5 461.4,45.1 462.9,44.9 464.3,44.7 465.7,44.5 467.1,44.1 468.6,43.9 470.0,43.7 471.4,43.5 472.9,43.3 474.3,43.1 475.7,42.9 477.1,42.7 478.6,42.5 480.0,42.4 481.4,42.2 482.9,41.9 484.3,41.7 485.7,41.4 487.1,41.0 488.6,40.7 490.0,40.6 491.4,40.4 492.9,40.2 494.3,40.0 495.7,39.9 497.1,39.7 498.6,39.6 500.0,39.4 501.4,39.2 502.9,39.1 504.3,38.8 505.7,38.7 507.1,38.5 508.6,38.3 510.0,37.9 511.4,37.6 512.9,37.4 514.3,37.2 515.7,37.0 517.1,36.7 518.6,36.5 520.0,36.2 521.4,36.0 522.9,36.0 524.3,35.8 525.7,35.6 527.1,35.3 528.6,35.2 530.0,35.1 531.4,34.8 532.9,34.6 534.3,34.4 535.7,34.1 537.1,33.9 538.6,33.6 540.0,33.4 541.4,33.2 542.9,33.1 544.3,32.9 545.7,32.8 547.1,32.6 548.6,32.4 550.0,32.1 551.4,32.0 552.9,31.9 554.3,31.7 555.7,31.5 557.1,31.4 558.6,31.2 560.0,31.1 561.4,31.0 562.9,30.8 564.3,30.7 565.7,30.5 567.1,30.3 568.6,30.2 570.0,30.0 570.0,30.0,120" />
  
  <!-- Linea principale -->
  <polyline fill="none" stroke="#0366d6" stroke-width="2.5" stroke-linecap="round" stroke-linejoin="round" points="30.0,120.0 31.4,119.5 32.9,118.9 34.3,118.4 35.7,118.3 37.1,118.0 38.6,117.4 40.0,117.0 41.4,116.7 42.9,116.1 44.3,115.8 45.7,115.5 47.1,115.3 48.6,115.0 50.0,114.6 51.4,114.2 52.9,113.8 54.3,113.6 55.7,113.4 57.1,113.1 58.6,112.8 60.0,112.5 61.4,112.4 62.9,112.1 64.3,111.1 65.7,110.8 67.1,110.4 68.6,110.1 70.0,109.7 71.4,109.4 72.9,109.2 74.3,109.0 75.7,108.7 77.1,108.3 78.6,107.8 80.0,107.6 81.4,107.2 82.9,107.1 84.3,107.1 85.7,106.9 87.1,106.6 88.6,106.4 90.0,106.2 91.4,105.9 92.9,105.4 94.3,105.2 95.7,105.1 97.1,104.9 98.6,104.5 100.0,104.2 101.4,103.8 102.9,103.5 104.3,103.1 105.7,103.0 107.1,102.8 108.6,102.4 110.0,102.0 111.4,101.7 112.9,101.6 114.3,101.4 115.7,101.2 117.1,100.7 118.6,100.3 120.0,100.0 121.4,99.6 122.9,99.4 124.3,99.3 125.7,99.1 127.1,98.8 128.6,98.6 130.0,98.5 131.4,98.3 132.9,98.2 134.3,98.0 135.7,97.8 137.1,97.7 138.6,97.6 140.0,97.2 141.4,97.0 142.9,96.9 144.3,96.8 145.7,96.7 147.1,96.7 148.6,103.4 150.0,102.7 151.4,102.1 152.9,101.5 154.3,99.7 155.7,98.4 157.1,97.1 158.6,96.6 160.0,96.0 161.4,95.1 162.9,94.0 164.3,93.3 165.7,93.0 167.1,92.8 168.6,92.0 170.0,91.5 171.4,91.2 172.9,90.7 174.3,90.5 175.7,90.5 177.1,90.1 178.6,89.5 180.0,89.0 181.4,88.6 182.9,88.1 184.3,87.8 185.7,87.7 187.1,87.2 188.6,86.8 190.0,86.5 191.4,86.2 192.9,86.0 194.3,86.0 195.7,85.7 197.1,85.4 198.6,85.2 200.0,84.9 201.4,84.7 202.9,84.5 204.3,84.3 205.7,84.2 207.1,84.0 208.6,83.8 210.0,83.5 211.4,83.2 212.9,82.9 214.3,82.8 215.7,82.6 217.1,82.4 218.6,82.3 220.0,82.1 221.4,81.7 222.9,81.3 224.3,80.9 225.7,80.8 227.1,80.7 228.6,80.5 230.0,80.3 231.4,80.1 232.9,79.9 234.3,79.6 235.7,79.4 237.1,79.3 238.6,79.1 240.0,79.0 241.4,78.8 242.9,78.6 244.3,78.5 245.7,78.2 247.1,78.1 248.6,78.0 250.0,77.8 251.4,77.7 252.9,77.5 254.3,77.3 255.7,77.1 257.1,76.9 258.6,76.6 260.0,76.5 261.4,76.4 262.9,76.2 264.3,76.0 265.7,75.7 267.1,75.5 268.6,75.3 270.0,74.9 271.4,74.8 272.9,74.7 274.3,74.6 275.7,74.4 277.1,74.2 278.6,74.1 280.0,73.9 281.4,73.7 282.9,73.6 284.3,73.4 285.7,73.3 287.1,73.2 288.6,73.1 290.0,72.8 291.4,72.7 292.9,72.5 294.3,72.3 295.7,72.2 297.1,72.1 298.6,72.0 300.0,71.8 301.4,71.7 302.9,71.4 304.3,71.1 305.7,70.9 307.1,70.7 308.6,70.6 310.0,70.6 311.4,70.4 312.9,70.1 314.3,70.0 315.7,69.9 317.1,69.7 318.6,69.5 320.0,69.3 321.4,69.2 322.9,69.1 324.3,68.9 325.7,68.7 327.1,68.5 328.6,68.3 330.0,68.2 331.4,68.1 332.9,68.1 334.3,67.9 335.7,67.8 337.1,67.6 338.6,67.4 340.0,67.2 341.4,67.1 342.9,67.0 344.3,66.9 345.7,66.8 347.1,66.5 348.6,66.3 350.0,66.2 351.4,66.0 352.9,65.9 354.3,65.8 355.7,65.7 357.1,65.6 358.6,65.5 360.0,65.3 361.4,65.1 362.9,65.0 364.3,64.8 365.7,64.7 367.1,64.6 368.6,64.4 370.0,64.3 371.4,64.1 372.9,64.0 374.3,63.9 375.7,63.7 377.1,63.6 378.6,63.4 380.0,63.3 381.4,63.2 382.9,63.1 384.3,63.0 385.7,62.9 387.1,62.7 388.6,62.7 390.0,62.6 391.4,62.2 392.9,62.0 394.3,66.4 395.7,65.5 397.1,63.9 398.6,63.3 400.0,62.5 401.4,61.6 402.9,61.1 404.3,60.7 405.7,60.1 407.1,59.1 408.6,58.4 410.0,58.2 411.4,57.9 412.9,57.6 414.3,57.1 415.7,56.6 417.1,56.1 418.6,55.8 420.0,55.4 421.4,55.1 422.9,54.8 424.3,54.6 425.7,54.3 427.1,54.1 428.6,53.6 430.0,53.3 431.4,52.8 432.9,52.3 434.3,51.9 435.7,51.7 437.1,51.5 438.6,51.3 440.0,50.9 441.4,50.6 442.9,50.3 444.3,49.4 445.7,48.7 447.1,48.4 448.6,48.2 450.0,47.9 451.4,47.4 452.9,47.1 454.3,46.8 455.7,46.5 457.1,46.1 458.6,45.8 460.0,45.5 461.4,45.1 462.9,44.9 464.3,44.7 465.7,44.5 467.1,44.1 468.6,43.9 470.0,43.7 471.4,43.5 472.9,43.3 474.3,43.1 475.7,42.9 477.1,42.7 478.6,42.5 480.0,42.4 481.4,42.2 482.9,41.9 484.3,41.7 485.7,41.4 487.1,41.0 488.6,40.7 490.0,40.6 491.4,40.4 492.9,40.2 494.3,40.0 495.7,39.9 497.1,39.7 498.6,39.6 500.0,39.4 501.4,39.2 502.9,39.1 504.3,38.8 505.7,38.7 507.1,38.5 508.6,38.3 510.0,37.9 511.4,37.6 512.9,37.4 514.3,37.2 515.7,37.0 517.1,36.7 518.6,36.5 520.0,36.2 521.4,36.0 522.9,36.0 524.3,35.8 525.7,35.6 527.1,35.3 528.6,35.2 530.0,35.1 531.4,34.8 532.9,34.6 534.3,34.4 535.7,34.1 537.1,33.9 538.6,33.6 540.0,33.4 541.4,33.2 542.9,33.1 544.3,32.9 545.7,32.8 547.1,32.6 548.6,32.4 550.0,32.1 551.4,32.0 552.9,31.9 554.3,31.7 555.7,31.5 557.1,31.4 558.6,31.2 560.0,31.1 561.4,31.0 562.9,30.8 564.3,30.7 565.7,30.5 567.1,30.3 568.6,30.2 570.0,30.0" />
  
  <!-- Punto finale luminoso -->
  <circle cx="570.0" cy="30.0" r="4" fill="#ffffff" stroke="#0366d6" stroke-width="2.5" />
</svg>