<svg width="600" height="150" viewBox="0 0 600 150" xmlns="http://www.w3.org/2000/svg">
  <defs>
    <filter id="shadow2" x="-2%" y="-2%" width="104%" height="108%">
      <feDropShadow dx="0" dy="2" stdDeviation="3" flood-opacity="0.1" />
    </filter>
    <linearGradient id="fillGrad" x1="0" y1="0" x2="0" y2="1">
      <stop offset="0%" stop-color="#0366d6" stop-opacity="0.3"/>
      <stop offset="100%" stop-color="#0366d6" stop-opacity="0.02"/>
    </linearGradient>
  </defs>
  <rect width="600" height="150" rx="12" fill="#ffffff" filter="url(#shadow2)" stroke="#e1e4e8" stroke-width="1"/>
  <text x="20" y="24" fill="#2b3137" font-family="-apple-system,BlinkMacSystemFont,'Segoe UI',Helvetica,Arial,sans-serif" font-size="14" font-weight="600">📈 Download Growth (Actual: 76.2k)</text>
  
  <!-- Area sotto la linea -->
  <polygon fill="url(#fillGrad)" points="30.0,120.0,120 30.0,120.0 33.4,118.9 36.7,117.7 40.1,116.7 43.4,116.5 46.8,115.9 50.1,114.7 53.5,113.8 56.8,113.3 60.2,112.0 63.5,111.3 66.9,110.7 70.2,110.3 73.6,109.7 77.0,108.8 80.3,107.9 83.7,107.2 87.0,106.7 90.4,106.4 93.7,105.8 97.1,105.1 100.4,104.5 103.8,104.2 107.1,103.7 110.5,101.6 113.9,101.0 117.2,100.2 120.6,99.4 123.9,98.7 127.3,98.0 130.6,97.6 134.0,97.3 137.3,96.7 140.7,95.7 144.0,94.8 147.4,94.3 150.7,93.6 154.1,93.4 157.5,93.2 160.8,92.9 164.2,92.2 167.5,91.8 170.9,91.6 174.2,90.8 177.6,89.7 180.9,89.5 184.3,89.2 187.6,88.8 191.0,87.9 194.3,87.4 197.7,86.5 201.1,85.8 204.4,85.0 207.8,84.9 211.1,84.4 214.5,83.6 217.8,82.7 221.2,82.1 224.5,81.8 227.9,81.4 231.2,81.1 234.6,80.1 238.0,79.3 241.3,78.5 244.7,77.8 248.0,77.4 251.4,77.2 254.7,76.8 258.1,76.2 261.4,75.8 264.8,75.5 268.1,75.2 271.5,74.9 274.8,74.4 278.2,74.1 281.6,73.9 284.9,73.7 288.3,72.9 291.6,72.4 295.0,72.3 298.3,72.0 301.7,71.8 305.0,71.8 308.4,85.6 311.7,84.3 315.1,83.0 318.4,81.8 321.8,78.0 325.2,75.4 328.5,72.6 331.9,71.5 335.2,70.3 338.6,68.4 341.9,66.3 345.3,64.8 348.6,64.2 352.0,63.6 355.3,62.1 358.7,61.0 362.0,60.3 365.4,59.4 368.8,59.1 372.1,58.9 375.5,58.1 378.8,56.8 382.2,55.9 385.5,55.0 388.9,54.0 392.2,53.5 395.6,53.1 398.9,52.2 402.3,51.4 405.7,50.6 409.0,50.0 412.4,49.8 415.7,49.6 419.1,49.1 422.4,48.4 425.8,47.9 429.1,47.4 432.5,47.0 435.8,46.6 439.2,46.2 442.5,45.9 445.9,45.6 449.3,45.2 452.6,44.5 456.0,44.0 459.3,43.4 462.7,43.0 466.0,42.6 469.4,42.3 472.7,42.0 476.1,41.7 479.4,40.7 482.8,40.0 486.1,39.2 489.5,38.8 492.9,38.8 496.2,38.4 499.6,37.9 502.9,37.4 506.3,37.0 509.6,36.3 513.0,35.9 516.3,35.7 519.7,35.4 523.0,35.1 526.4,34.9 529.8,34.5 533.1,34.1 536.5,33.5 539.8,33.2 543.2,33.1 546.5,32.8 549.9,32.6 553.2,32.1 556.6,31.6 559.9,31.2 563.3,30.8 566.6,30.3 570.0,30.0 570.0,30.0,120" />
  
  <!-- Linea principale -->
  <polyline fill="none" stroke="#0366d6" stroke-width="2.5" stroke-linecap="round" stroke-linejoin="round" points="30.0,120.0 33.4,118.9 36.7,117.7 40.1,116.7 43.4,116.5 46.8,115.9 50.1,114.7 53.5,113.8 56.8,113.3 60.2,112.0 63.5,111.3 66.9,110.7 70.2,110.3 73.6,109.7 77.0,108.8 80.3,107.9 83.7,107.2 87.0,106.7 90.4,106.4 93.7,105.8 97.1,105.1 100.4,104.5 103.8,104.2 107.1,103.7 110.5,101.6 113.9,101.0 117.2,100.2 120.6,99.4 123.9,98.7 127.3,98.0 130.6,97.6 134.0,97.3 137.3,96.7 140.7,95.7 144.0,94.8 147.4,94.3 150.7,93.6 154.1,93.4 157.5,93.2 160.8,92.9 164.2,92.2 167.5,91.8 170.9,91.6 174.2,90.8 177.6,89.7 180.9,89.5 184.3,89.2 187.6,88.8 191.0,87.9 194.3,87.4 197.7,86.5 201.1,85.8 204.4,85.0 207.8,84.9 211.1,84.4 214.5,83.6 217.8,82.7 221.2,82.1 224.5,81.8 227.9,81.4 231.2,81.1 234.6,80.1 238.0,79.3 241.3,78.5 244.7,77.8 248.0,77.4 251.4,77.2 254.7,76.8 258.1,76.2 261.4,75.8 264.8,75.5 268.1,75.2 271.5,74.9 274.8,74.4 278.2,74.1 281.6,73.9 284.9,73.7 288.3,72.9 291.6,72.4 295.0,72.3 298.3,72.0 301.7,71.8 305.0,71.8 308.4,85.6 311.7,84.3 315.1,83.0 318.4,81.8 321.8,78.0 325.2,75.4 328.5,72.6 331.9,71.5 335.2,70.3 338.6,68.4 341.9,66.3 345.3,64.8 348.6,64.2 352.0,63.6 355.3,62.1 358.7,61.0 362.0,60.3 365.4,59.4 368.8,59.1 372.1,58.9 375.5,58.1 378.8,56.8 382.2,55.9 385.5,55.0 388.9,54.0 392.2,53.5 395.6,53.1 398.9,52.2 402.3,51.4 405.7,50.6 409.0,50.0 412.4,49.8 415.7,49.6 419.1,49.1 422.4,48.4 425.8,47.9 429.1,47.4 432.5,47.0 435.8,46.6 439.2,46.2 442.5,45.9 445.9,45.6 449.3,45.2 452.6,44.5 456.0,44.0 459.3,43.4 462.7,43.0 466.0,42.6 469.4,42.3 472.7,42.0 476.1,41.7 479.4,40.7 482.8,40.0 486.1,39.2 489.5,38.8 492.9,38.8 496.2,38.4 499.6,37.9 502.9,37.4 506.3,37.0 509.6,36.3 513.0,35.9 516.3,35.7 519.7,35.4 523.0,35.1 526.4,34.9 529.8,34.5 533.1,34.1 536.5,33.5 539.8,33.2 543.2,33.1 546.5,32.8 549.9,32.6 553.2,32.1 556.6,31.6 559.9,31.2 563.3,30.8 566.6,30.3 570.0,30.0" />
  
  <!-- Punto finale luminoso -->
  <circle cx="570.0" cy="30.0" r="4" fill="#ffffff" stroke="#0366d6" stroke-width="2.5" />
</svg>