<svg width="600" height="150" viewBox="0 0 600 150" xmlns="http://www.w3.org/2000/svg">
  <defs>
    <filter id="shadow2" x="-2%" y="-2%" width="104%" height="108%">
      <feDropShadow dx="0" dy="2" stdDeviation="3" flood-opacity="0.1" />
    </filter>
    <linearGradient id="fillGrad" x1="0" y1="0" x2="0" y2="1">
      <stop offset="0%" stop-color="#0366d6" stop-opacity="0.3"/>
      <stop offset="100%" stop-color="#0366d6" stop-opacity="0.02"/>
    </linearGradient>
  </defs>
  <rect width="600" height="150" rx="12" fill="#ffffff" filter="url(#shadow2)" stroke="#e1e4e8" stroke-width="1"/>
  <text x="20" y="24" fill="#2b3137" font-family="-apple-system,BlinkMacSystemFont,'Segoe UI',Helvetica,Arial,sans-serif" font-size="14" font-weight="600">📈 Download Growth (Actual: 70.5k)</text>
  
  <!-- Area sotto la linea -->
  <polygon fill="url(#fillGrad)" points="30.0,120.0,120 30.0,120.0 40.2,117.2 50.4,114.2 60.6,111.6 70.8,110.9 80.9,109.5 91.1,106.3 101.3,104.2 111.5,102.7 121.7,99.4 131.9,97.8 142.1,96.1 152.3,95.2 162.5,93.7 172.6,91.4 182.8,89.1 193.0,87.2 203.2,86.0 213.4,85.1 223.6,83.7 233.8,81.9 244.0,80.4 254.2,79.6 264.3,78.1 274.5,72.9 284.7,71.4 294.9,69.3 305.1,67.3 315.3,65.5 325.5,63.8 335.7,62.6 345.8,61.8 356.0,60.3 366.2,57.8 376.4,55.6 386.6,54.1 396.8,52.3 407.0,51.9 417.2,51.4 427.4,50.5 437.5,48.8 447.7,47.9 457.9,47.1 468.1,45.2 478.3,42.4 488.5,41.8 498.7,41.2 508.9,40.1 519.1,37.9 529.2,36.4 539.4,34.1 549.6,32.5 559.8,30.4 570.0,30.0 570.0,30.0,120" />
  
  <!-- Linea principale -->
  <polyline fill="none" stroke="#0366d6" stroke-width="2.5" stroke-linecap="round" stroke-linejoin="round" points="30.0,120.0 40.2,117.2 50.4,114.2 60.6,111.6 70.8,110.9 80.9,109.5 91.1,106.3 101.3,104.2 111.5,102.7 121.7,99.4 131.9,97.8 142.1,96.1 152.3,95.2 162.5,93.7 172.6,91.4 182.8,89.1 193.0,87.2 203.2,86.0 213.4,85.1 223.6,83.7 233.8,81.9 244.0,80.4 254.2,79.6 264.3,78.1 274.5,72.9 284.7,71.4 294.9,69.3 305.1,67.3 315.3,65.5 325.5,63.8 335.7,62.6 345.8,61.8 356.0,60.3 366.2,57.8 376.4,55.6 386.6,54.1 396.8,52.3 407.0,51.9 417.2,51.4 427.4,50.5 437.5,48.8 447.7,47.9 457.9,47.1 468.1,45.2 478.3,42.4 488.5,41.8 498.7,41.2 508.9,40.1 519.1,37.9 529.2,36.4 539.4,34.1 549.6,32.5 559.8,30.4 570.0,30.0" />
  
  <!-- Punto finale luminoso -->
  <circle cx="570.0" cy="30.0" r="4" fill="#ffffff" stroke="#0366d6" stroke-width="2.5" />
</svg>