<svg width="600" height="150" viewBox="0 0 600 150" xmlns="http://www.w3.org/2000/svg">
  <defs>
    <filter id="shadow2" x="-2%" y="-2%" width="104%" height="108%">
      <feDropShadow dx="0" dy="2" stdDeviation="3" flood-opacity="0.1" />
    </filter>
    <linearGradient id="fillGrad" x1="0" y1="0" x2="0" y2="1">
      <stop offset="0%" stop-color="#0366d6" stop-opacity="0.3"/>
      <stop offset="100%" stop-color="#0366d6" stop-opacity="0.02"/>
    </linearGradient>
  </defs>
  <rect width="600" height="150" rx="12" fill="#ffffff" filter="url(#shadow2)" stroke="#e1e4e8" stroke-width="1"/>
  <text x="20" y="24" fill="#2b3137" font-family="-apple-system,BlinkMacSystemFont,'Segoe UI',Helvetica,Arial,sans-serif" font-size="14" font-weight="600">📈 Download Growth (Actual: 78.0k)</text>
  
  <!-- Area sotto la linea -->
  <polygon fill="url(#fillGrad)" points="30.0,120.0,120 30.0,120.0 32.5,119.1 35.1,118.1 37.6,117.3 40.1,117.0 42.7,116.6 45.2,115.5 47.7,114.8 50.3,114.4 52.8,113.3 55.4,112.8 57.9,112.2 60.4,111.9 63.0,111.4 65.5,110.7 68.0,109.9 70.6,109.3 73.1,108.9 75.6,108.6 78.2,108.1 80.7,107.6 83.2,107.1 85.8,106.8 88.3,106.4 90.8,104.7 93.4,104.1 95.9,103.5 98.5,102.8 101.0,102.2 103.5,101.7 106.1,101.3 108.6,101.0 111.1,100.5 113.7,99.7 116.2,99.0 118.7,98.5 121.3,97.9 123.8,97.8 126.3,97.6 128.9,97.3 131.4,96.8 133.9,96.5 136.5,96.2 139.0,95.6 141.5,94.7 144.1,94.5 146.6,94.3 149.2,94.0 151.7,93.2 154.2,92.7 156.8,92.0 159.3,91.5 161.8,90.8 164.4,90.6 166.9,90.2 169.4,89.6 172.0,88.9 174.5,88.4 177.0,88.1 179.6,87.8 182.1,87.5 184.6,86.7 187.2,86.0 189.7,85.4 192.3,84.7 194.8,84.4 197.3,84.2 199.9,84.0 202.4,83.4 204.9,83.1 207.5,82.8 210.0,82.5 212.5,82.3 215.1,81.9 217.6,81.7 220.1,81.5 222.7,81.4 225.2,80.7 227.7,80.3 230.3,80.1 232.8,79.9 235.4,79.8 237.9,79.8 240.4,91.3 243.0,90.1 245.5,89.1 248.0,88.1 250.6,84.9 253.1,82.7 255.6,80.4 258.2,79.5 260.7,78.5 263.2,76.9 265.8,75.2 268.3,73.9 270.8,73.4 273.4,72.9 275.9,71.7 278.5,70.7 281.0,70.2 283.5,69.4 286.1,69.1 288.6,69.0 291.1,68.3 293.7,67.2 296.2,66.5 298.7,65.7 301.3,64.8 303.8,64.4 306.3,64.1 308.9,63.4 311.4,62.7 313.9,62.1 316.5,61.6 319.0,61.3 321.5,61.2 324.1,60.8 326.6,60.2 329.2,59.8 331.7,59.4 334.2,59.0 336.8,58.7 339.3,58.4 341.8,58.1 344.4,57.8 346.9,57.5 349.4,56.9 352.0,56.5 354.5,56.0 357.0,55.7 359.6,55.3 362.1,55.1 364.6,54.8 367.2,54.6 369.7,53.7 372.3,53.2 374.8,52.5 377.3,52.2 379.9,52.1 382.4,51.8 384.9,51.5 387.5,51.0 390.0,50.6 392.5,50.1 395.1,49.8 397.6,49.6 400.1,49.3 402.7,49.1 405.2,48.9 407.7,48.6 410.3,48.3 412.8,47.8 415.4,47.5 417.9,47.4 420.4,47.1 423.0,47.0 425.5,46.5 428.0,46.2 430.6,45.8 433.1,45.5 435.6,45.1 438.2,44.8 440.7,44.7 443.2,44.4 445.8,43.9 448.3,43.4 450.8,43.1 453.4,42.7 455.9,42.1 458.5,41.9 461.0,41.7 463.5,41.6 466.1,41.2 468.6,41.0 471.1,40.6 473.7,40.4 476.2,40.1 478.7,39.8 481.3,39.5 483.8,39.3 486.3,39.2 488.9,38.9 491.4,38.4 493.9,38.2 496.5,37.8 499.0,37.7 501.5,37.4 504.1,37.2 506.6,37.0 509.2,36.8 511.7,36.5 514.2,36.0 516.8,35.4 519.3,35.1 521.8,34.8 524.4,34.7 526.9,34.6 529.4,34.3 532.0,33.8 534.5,33.6 537.0,33.4 539.6,33.1 542.1,32.8 544.6,32.5 547.2,32.3 549.7,32.1 552.3,31.7 554.8,31.4 557.3,31.0 559.9,30.6 562.4,30.5 564.9,30.4 567.5,30.3 570.0,30.0 570.0,30.0,120" />
  
  <!-- Linea principale -->
  <polyline fill="none" stroke="#0366d6" stroke-width="2.5" stroke-linecap="round" stroke-linejoin="round" points="30.0,120.0 32.5,119.1 35.1,118.1 37.6,117.3 40.1,117.0 42.7,116.6 45.2,115.5 47.7,114.8 50.3,114.4 52.8,113.3 55.4,112.8 57.9,112.2 60.4,111.9 63.0,111.4 65.5,110.7 68.0,109.9 70.6,109.3 73.1,108.9 75.6,108.6 78.2,108.1 80.7,107.6 83.2,107.1 85.8,106.8 88.3,106.4 90.8,104.7 93.4,104.1 95.9,103.5 98.5,102.8 101.0,102.2 103.5,101.7 106.1,101.3 108.6,101.0 111.1,100.5 113.7,99.7 116.2,99.0 118.7,98.5 121.3,97.9 123.8,97.8 126.3,97.6 128.9,97.3 131.4,96.8 133.9,96.5 136.5,96.2 139.0,95.6 141.5,94.7 144.1,94.5 146.6,94.3 149.2,94.0 151.7,93.2 154.2,92.7 156.8,92.0 159.3,91.5 161.8,90.8 164.4,90.6 166.9,90.2 169.4,89.6 172.0,88.9 174.5,88.4 177.0,88.1 179.6,87.8 182.1,87.5 184.6,86.7 187.2,86.0 189.7,85.4 192.3,84.7 194.8,84.4 197.3,84.2 199.9,84.0 202.4,83.4 204.9,83.1 207.5,82.8 210.0,82.5 212.5,82.3 215.1,81.9 217.6,81.7 220.1,81.5 222.7,81.4 225.2,80.7 227.7,80.3 230.3,80.1 232.8,79.9 235.4,79.8 237.9,79.8 240.4,91.3 243.0,90.1 245.5,89.1 248.0,88.1 250.6,84.9 253.1,82.7 255.6,80.4 258.2,79.5 260.7,78.5 263.2,76.9 265.8,75.2 268.3,73.9 270.8,73.4 273.4,72.9 275.9,71.7 278.5,70.7 281.0,70.2 283.5,69.4 286.1,69.1 288.6,69.0 291.1,68.3 293.7,67.2 296.2,66.5 298.7,65.7 301.3,64.8 303.8,64.4 306.3,64.1 308.9,63.4 311.4,62.7 313.9,62.1 316.5,61.6 319.0,61.3 321.5,61.2 324.1,60.8 326.6,60.2 329.2,59.8 331.7,59.4 334.2,59.0 336.8,58.7 339.3,58.4 341.8,58.1 344.4,57.8 346.9,57.5 349.4,56.9 352.0,56.5 354.5,56.0 357.0,55.7 359.6,55.3 362.1,55.1 364.6,54.8 367.2,54.6 369.7,53.7 372.3,53.2 374.8,52.5 377.3,52.2 379.9,52.1 382.4,51.8 384.9,51.5 387.5,51.0 390.0,50.6 392.5,50.1 395.1,49.8 397.6,49.6 400.1,49.3 402.7,49.1 405.2,48.9 407.7,48.6 410.3,48.3 412.8,47.8 415.4,47.5 417.9,47.4 420.4,47.1 423.0,47.0 425.5,46.5 428.0,46.2 430.6,45.8 433.1,45.5 435.6,45.1 438.2,44.8 440.7,44.7 443.2,44.4 445.8,43.9 448.3,43.4 450.8,43.1 453.4,42.7 455.9,42.1 458.5,41.9 461.0,41.7 463.5,41.6 466.1,41.2 468.6,41.0 471.1,40.6 473.7,40.4 476.2,40.1 478.7,39.8 481.3,39.5 483.8,39.3 486.3,39.2 488.9,38.9 491.4,38.4 493.9,38.2 496.5,37.8 499.0,37.7 501.5,37.4 504.1,37.2 506.6,37.0 509.2,36.8 511.7,36.5 514.2,36.0 516.8,35.4 519.3,35.1 521.8,34.8 524.4,34.7 526.9,34.6 529.4,34.3 532.0,33.8 534.5,33.6 537.0,33.4 539.6,33.1 542.1,32.8 544.6,32.5 547.2,32.3 549.7,32.1 552.3,31.7 554.8,31.4 557.3,31.0 559.9,30.6 562.4,30.5 564.9,30.4 567.5,30.3 570.0,30.0" />
  
  <!-- Punto finale luminoso -->
  <circle cx="570.0" cy="30.0" r="4" fill="#ffffff" stroke="#0366d6" stroke-width="2.5" />
</svg>