<svg width="600" height="150" viewBox="0 0 600 150" xmlns="http://www.w3.org/2000/svg">
  <defs>
    <filter id="shadow2" x="-2%" y="-2%" width="104%" height="108%">
      <feDropShadow dx="0" dy="2" stdDeviation="3" flood-opacity="0.1" />
    </filter>
    <linearGradient id="fillGrad" x1="0" y1="0" x2="0" y2="1">
      <stop offset="0%" stop-color="#0366d6" stop-opacity="0.3"/>
      <stop offset="100%" stop-color="#0366d6" stop-opacity="0.02"/>
    </linearGradient>
  </defs>
  <rect width="600" height="150" rx="12" fill="#ffffff" filter="url(#shadow2)" stroke="#e1e4e8" stroke-width="1"/>
  <text x="20" y="24" fill="#2b3137" font-family="-apple-system,BlinkMacSystemFont,'Segoe UI',Helvetica,Arial,sans-serif" font-size="14" font-weight="600">📈 Download Growth (Actual: 77.2k)</text>
  
  <!-- Area sotto la linea -->
  <polygon fill="url(#fillGrad)" points="30.0,120.0,120 30.0,120.0 32.9,119.0 35.7,118.0 38.6,117.0 41.4,116.8 44.3,116.3 47.1,115.2 50.0,114.4 52.9,113.9 55.7,112.7 58.6,112.2 61.4,111.6 64.3,111.2 67.1,110.7 70.0,109.9 72.9,109.1 75.7,108.4 78.6,108.0 81.4,107.7 84.3,107.2 87.1,106.6 90.0,106.0 92.9,105.8 95.7,105.2 98.6,103.4 101.4,102.9 104.3,102.1 107.1,101.4 110.0,100.8 112.9,100.2 115.7,99.8 118.6,99.5 121.4,98.9 124.3,98.1 127.1,97.3 130.0,96.8 132.9,96.1 135.7,96.0 138.6,95.8 141.4,95.5 144.3,94.9 147.1,94.6 150.0,94.3 152.9,93.6 155.7,92.6 158.6,92.4 161.4,92.2 164.3,91.8 167.1,91.1 170.0,90.5 172.9,89.7 175.7,89.1 178.6,88.4 181.4,88.3 184.3,87.8 187.1,87.1 190.0,86.3 192.9,85.8 195.7,85.5 198.6,85.2 201.4,84.8 204.3,84.0 207.1,83.2 210.0,82.6 212.9,81.9 215.7,81.5 218.6,81.3 221.4,81.0 224.3,80.5 227.1,80.1 230.0,79.8 232.9,79.5 235.7,79.2 238.6,78.8 241.4,78.6 244.3,78.4 247.1,78.2 250.0,77.5 252.9,77.1 255.7,76.9 258.6,76.6 261.4,76.5 264.3,76.5 267.1,88.9 270.0,87.7 272.9,86.6 275.7,85.5 278.6,82.1 281.4,79.7 284.3,77.2 287.1,76.2 290.0,75.2 292.9,73.4 295.7,71.5 298.6,70.1 301.4,69.6 304.3,69.1 307.1,67.7 310.0,66.7 312.9,66.1 315.7,65.3 318.6,65.0 321.4,64.8 324.3,64.1 327.1,63.0 330.0,62.1 332.9,61.3 335.7,60.4 338.6,59.9 341.4,59.6 344.3,58.8 347.1,58.1 350.0,57.4 352.9,56.8 355.7,56.6 358.6,56.4 361.4,56.0 364.3,55.4 367.1,54.9 370.0,54.5 372.9,54.1 375.7,53.7 378.6,53.4 381.4,53.1 384.3,52.8 387.1,52.5 390.0,51.8 392.9,51.3 395.7,50.8 398.6,50.5 401.4,50.1 404.3,49.8 407.1,49.6 410.0,49.3 412.9,48.4 415.7,47.8 418.6,47.0 421.4,46.7 424.3,46.6 427.1,46.3 430.0,45.9 432.9,45.4 435.7,45.0 438.6,44.4 441.4,44.1 444.3,43.9 447.1,43.6 450.0,43.4 452.9,43.1 455.7,42.7 458.6,42.4 461.4,41.9 464.3,41.6 467.1,41.5 470.0,41.2 472.9,41.0 475.7,40.6 478.6,40.2 481.4,39.8 484.3,39.4 487.1,39.0 490.0,38.7 492.9,38.5 495.7,38.3 498.6,37.7 501.4,37.2 504.3,36.8 507.1,36.4 510.0,35.7 512.9,35.6 515.7,35.4 518.6,35.2 521.4,34.8 524.3,34.5 527.1,34.2 530.0,33.9 532.9,33.6 535.7,33.3 538.6,33.0 541.4,32.8 544.3,32.6 547.1,32.3 550.0,31.8 552.9,31.6 555.7,31.2 558.6,31.0 561.4,30.7 564.3,30.4 567.1,30.2 570.0,30.0 570.0,30.0,120" />
  
  <!-- Linea principale -->
  <polyline fill="none" stroke="#0366d6" stroke-width="2.5" stroke-linecap="round" stroke-linejoin="round" points="30.0,120.0 32.9,119.0 35.7,118.0 38.6,117.0 41.4,116.8 44.3,116.3 47.1,115.2 50.0,114.4 52.9,113.9 55.7,112.7 58.6,112.2 61.4,111.6 64.3,111.2 67.1,110.7 70.0,109.9 72.9,109.1 75.7,108.4 78.6,108.0 81.4,107.7 84.3,107.2 87.1,106.6 90.0,106.0 92.9,105.8 95.7,105.2 98.6,103.4 101.4,102.9 104.3,102.1 107.1,101.4 110.0,100.8 112.9,100.2 115.7,99.8 118.6,99.5 121.4,98.9 124.3,98.1 127.1,97.3 130.0,96.8 132.9,96.1 135.7,96.0 138.6,95.8 141.4,95.5 144.3,94.9 147.1,94.6 150.0,94.3 152.9,93.6 155.7,92.6 158.6,92.4 161.4,92.2 164.3,91.8 167.1,91.1 170.0,90.5 172.9,89.7 175.7,89.1 178.6,88.4 181.4,88.3 184.3,87.8 187.1,87.1 190.0,86.3 192.9,85.8 195.7,85.5 198.6,85.2 201.4,84.8 204.3,84.0 207.1,83.2 210.0,82.6 212.9,81.9 215.7,81.5 218.6,81.3 221.4,81.0 224.3,80.5 227.1,80.1 230.0,79.8 232.9,79.5 235.7,79.2 238.6,78.8 241.4,78.6 244.3,78.4 247.1,78.2 250.0,77.5 252.9,77.1 255.7,76.9 258.6,76.6 261.4,76.5 264.3,76.5 267.1,88.9 270.0,87.7 272.9,86.6 275.7,85.5 278.6,82.1 281.4,79.7 284.3,77.2 287.1,76.2 290.0,75.2 292.9,73.4 295.7,71.5 298.6,70.1 301.4,69.6 304.3,69.1 307.1,67.7 310.0,66.7 312.9,66.1 315.7,65.3 318.6,65.0 321.4,64.8 324.3,64.1 327.1,63.0 330.0,62.1 332.9,61.3 335.7,60.4 338.6,59.9 341.4,59.6 344.3,58.8 347.1,58.1 350.0,57.4 352.9,56.8 355.7,56.6 358.6,56.4 361.4,56.0 364.3,55.4 367.1,54.9 370.0,54.5 372.9,54.1 375.7,53.7 378.6,53.4 381.4,53.1 384.3,52.8 387.1,52.5 390.0,51.8 392.9,51.3 395.7,50.8 398.6,50.5 401.4,50.1 404.3,49.8 407.1,49.6 410.0,49.3 412.9,48.4 415.7,47.8 418.6,47.0 421.4,46.7 424.3,46.6 427.1,46.3 430.0,45.9 432.9,45.4 435.7,45.0 438.6,44.4 441.4,44.1 444.3,43.9 447.1,43.6 450.0,43.4 452.9,43.1 455.7,42.7 458.6,42.4 461.4,41.9 464.3,41.6 467.1,41.5 470.0,41.2 472.9,41.0 475.7,40.6 478.6,40.2 481.4,39.8 484.3,39.4 487.1,39.0 490.0,38.7 492.9,38.5 495.7,38.3 498.6,37.7 501.4,37.2 504.3,36.8 507.1,36.4 510.0,35.7 512.9,35.6 515.7,35.4 518.6,35.2 521.4,34.8 524.3,34.5 527.1,34.2 530.0,33.9 532.9,33.6 535.7,33.3 538.6,33.0 541.4,32.8 544.3,32.6 547.1,32.3 550.0,31.8 552.9,31.6 555.7,31.2 558.6,31.0 561.4,30.7 564.3,30.4 567.1,30.2 570.0,30.0" />
  
  <!-- Punto finale luminoso -->
  <circle cx="570.0" cy="30.0" r="4" fill="#ffffff" stroke="#0366d6" stroke-width="2.5" />
</svg>