<svg width="600" height="150" viewBox="0 0 600 150" xmlns="http://www.w3.org/2000/svg">
  <defs>
    <filter id="shadow2" x="-2%" y="-2%" width="104%" height="108%">
      <feDropShadow dx="0" dy="2" stdDeviation="3" flood-opacity="0.1" />
    </filter>
    <linearGradient id="fillGrad" x1="0" y1="0" x2="0" y2="1">
      <stop offset="0%" stop-color="#0366d6" stop-opacity="0.3"/>
      <stop offset="100%" stop-color="#0366d6" stop-opacity="0.02"/>
    </linearGradient>
  </defs>
  <rect width="600" height="150" rx="12" fill="#ffffff" filter="url(#shadow2)" stroke="#e1e4e8" stroke-width="1"/>
  <text x="20" y="24" fill="#2b3137" font-family="-apple-system,BlinkMacSystemFont,'Segoe UI',Helvetica,Arial,sans-serif" font-size="14" font-weight="600">📈 Download Growth (Actual: 71.9k)</text>
  
  <!-- Area sotto la linea -->
  <polygon fill="url(#fillGrad)" points="30.0,120.0,120 30.0,120.0 36.1,118.0 42.1,115.8 48.2,113.9 54.3,113.4 60.3,112.4 66.4,110.0 72.5,108.5 78.5,107.4 84.6,105.0 90.7,103.8 96.7,102.6 102.8,101.9 108.9,100.8 114.9,99.2 121.0,97.4 127.1,96.1 133.1,95.2 139.2,94.6 145.3,93.5 151.3,92.2 157.4,91.1 163.5,90.5 169.6,89.5 175.6,85.7 181.7,84.5 187.8,83.0 193.8,81.5 199.9,80.2 206.0,79.0 212.0,78.1 218.1,77.5 224.2,76.4 230.2,74.6 236.3,73.0 242.4,71.9 248.4,70.6 254.5,70.3 260.6,70.0 266.6,69.3 272.7,68.1 278.8,67.4 284.8,66.8 290.9,65.5 297.0,63.4 303.0,62.9 309.1,62.5 315.2,61.7 321.2,60.1 327.3,59.0 333.4,57.3 339.4,56.1 345.5,54.6 351.6,54.3 357.6,53.4 363.7,51.9 369.8,50.4 375.8,49.2 381.9,48.7 388.0,47.9 394.0,47.2 400.1,45.5 406.2,43.9 412.2,42.5 418.3,41.1 424.4,40.4 430.4,40.0 436.5,39.3 442.6,38.2 448.7,37.4 454.7,36.8 460.8,36.2 466.9,35.7 472.9,34.8 479.0,34.3 485.1,33.9 491.1,33.5 497.2,32.0 503.3,31.1 509.3,30.8 515.4,30.3 521.5,30.0 527.5,30.0 533.6,55.7 539.7,53.2 545.7,50.9 551.8,48.5 557.9,41.5 563.9,36.6 570.0,31.4 570.0,31.4,120" />
  
  <!-- Linea principale -->
  <polyline fill="none" stroke="#0366d6" stroke-width="2.5" stroke-linecap="round" stroke-linejoin="round" points="30.0,120.0 36.1,118.0 42.1,115.8 48.2,113.9 54.3,113.4 60.3,112.4 66.4,110.0 72.5,108.5 78.5,107.4 84.6,105.0 90.7,103.8 96.7,102.6 102.8,101.9 108.9,100.8 114.9,99.2 121.0,97.4 127.1,96.1 133.1,95.2 139.2,94.6 145.3,93.5 151.3,92.2 157.4,91.1 163.5,90.5 169.6,89.5 175.6,85.7 181.7,84.5 187.8,83.0 193.8,81.5 199.9,80.2 206.0,79.0 212.0,78.1 218.1,77.5 224.2,76.4 230.2,74.6 236.3,73.0 242.4,71.9 248.4,70.6 254.5,70.3 260.6,70.0 266.6,69.3 272.7,68.1 278.8,67.4 284.8,66.8 290.9,65.5 297.0,63.4 303.0,62.9 309.1,62.5 315.2,61.7 321.2,60.1 327.3,59.0 333.4,57.3 339.4,56.1 345.5,54.6 351.6,54.3 357.6,53.4 363.7,51.9 369.8,50.4 375.8,49.2 381.9,48.7 388.0,47.9 394.0,47.2 400.1,45.5 406.2,43.9 412.2,42.5 418.3,41.1 424.4,40.4 430.4,40.0 436.5,39.3 442.6,38.2 448.7,37.4 454.7,36.8 460.8,36.2 466.9,35.7 472.9,34.8 479.0,34.3 485.1,33.9 491.1,33.5 497.2,32.0 503.3,31.1 509.3,30.8 515.4,30.3 521.5,30.0 527.5,30.0 533.6,55.7 539.7,53.2 545.7,50.9 551.8,48.5 557.9,41.5 563.9,36.6 570.0,31.4" />
  
  <!-- Punto finale luminoso -->
  <circle cx="570.0" cy="31.4" r="4" fill="#ffffff" stroke="#0366d6" stroke-width="2.5" />
</svg>