<svg width="600" height="150" viewBox="0 0 600 150" xmlns="http://www.w3.org/2000/svg">
  <defs>
    <filter id="shadow2" x="-2%" y="-2%" width="104%" height="108%">
      <feDropShadow dx="0" dy="2" stdDeviation="3" flood-opacity="0.1" />
    </filter>
    <linearGradient id="fillGrad" x1="0" y1="0" x2="0" y2="1">
      <stop offset="0%" stop-color="#0366d6" stop-opacity="0.3"/>
      <stop offset="100%" stop-color="#0366d6" stop-opacity="0.02"/>
    </linearGradient>
  </defs>
  <rect width="600" height="150" rx="12" fill="#ffffff" filter="url(#shadow2)" stroke="#e1e4e8" stroke-width="1"/>
  <text x="20" y="24" fill="#2b3137" font-family="-apple-system,BlinkMacSystemFont,'Segoe UI',Helvetica,Arial,sans-serif" font-size="14" font-weight="600">📈 Download Growth (Actual: 81.1k)</text>
  
  <!-- Area sotto la linea -->
  <polygon fill="url(#fillGrad)" points="30.0,120.0,120 30.0,120.0 31.9,119.3 33.9,118.5 35.8,117.9 37.7,117.7 39.7,117.3 41.6,116.5 43.5,116.0 45.5,115.6 47.4,114.7 49.4,114.3 51.3,113.9 53.2,113.6 55.2,113.3 57.1,112.7 59.0,112.1 61.0,111.6 62.9,111.3 64.8,111.1 66.8,110.7 68.7,110.3 70.6,109.9 72.6,109.7 74.5,109.3 76.5,108.0 78.4,107.6 80.3,107.0 82.3,106.5 84.2,106.1 86.1,105.6 88.1,105.3 90.0,105.1 91.9,104.7 93.9,104.1 95.8,103.5 97.7,103.1 99.7,102.7 101.6,102.6 103.5,102.5 105.5,102.2 107.4,101.8 109.4,101.5 111.3,101.4 113.2,100.9 115.2,100.2 117.1,100.0 119.0,99.8 121.0,99.6 122.9,99.0 124.8,98.6 126.8,98.0 128.7,97.6 130.6,97.1 132.6,97.0 134.5,96.7 136.5,96.1 138.4,95.6 140.3,95.2 142.3,95.0 144.2,94.7 146.1,94.5 148.1,93.9 150.0,93.3 151.9,92.8 153.9,92.3 155.8,92.1 157.7,91.9 159.7,91.7 161.6,91.3 163.5,91.0 165.5,90.8 167.4,90.6 169.4,90.4 171.3,90.1 173.2,89.9 175.2,89.8 177.1,89.7 179.0,89.1 181.0,88.8 182.9,88.7 184.8,88.5 186.8,88.4 188.7,88.4 190.6,97.5 192.6,96.6 194.5,95.8 196.5,94.9 198.4,92.5 200.3,90.8 202.3,88.9 204.2,88.2 206.1,87.5 208.1,86.2 210.0,84.8 211.9,83.8 213.9,83.4 215.8,83.1 217.7,82.1 219.7,81.4 221.6,80.9 223.5,80.3 225.5,80.1 227.4,80.0 229.4,79.5 231.3,78.6 233.2,78.0 235.2,77.4 237.1,76.7 239.0,76.4 241.0,76.2 242.9,75.6 244.8,75.1 246.8,74.6 248.7,74.2 250.6,74.0 252.6,73.8 254.5,73.5 256.5,73.1 258.4,72.8 260.3,72.4 262.3,72.2 264.2,71.9 266.1,71.7 268.1,71.4 270.0,71.2 271.9,71.0 273.9,70.5 275.8,70.2 277.7,69.8 279.7,69.5 281.6,69.3 283.5,69.1 285.5,68.9 287.4,68.7 289.4,68.0 291.3,67.6 293.2,67.0 295.2,66.8 297.1,66.8 299.0,66.5 301.0,66.2 302.9,65.9 304.8,65.6 306.8,65.2 308.7,64.9 310.6,64.8 312.6,64.6 314.5,64.4 316.5,64.2 318.4,63.9 320.3,63.7 322.3,63.3 324.2,63.2 326.1,63.0 328.1,62.8 330.0,62.7 331.9,62.4 333.9,62.1 335.8,61.8 337.7,61.5 339.7,61.2 341.6,61.0 343.5,60.9 345.5,60.7 347.4,60.3 349.4,59.9 351.3,59.6 353.2,59.4 355.2,58.9 357.1,58.7 359.0,58.6 361.0,58.5 362.9,58.2 364.8,58.0 366.8,57.7 368.7,57.5 370.6,57.3 372.6,57.1 374.5,56.9 376.5,56.7 378.4,56.6 380.3,56.4 382.3,56.0 384.2,55.8 386.1,55.5 388.1,55.4 390.0,55.2 391.9,55.0 393.9,54.9 395.8,54.7 397.7,54.5 399.7,54.1 401.6,53.7 403.5,53.4 405.5,53.2 407.4,53.1 409.4,53.0 411.3,52.7 413.2,52.4 415.2,52.2 417.1,52.1 419.0,51.8 421.0,51.6 422.9,51.3 424.8,51.2 426.8,51.0 428.7,50.7 430.6,50.5 432.6,50.2 434.5,49.9 436.5,49.8 438.4,49.7 440.3,49.6 442.3,49.4 444.2,49.2 446.1,49.0 448.1,48.7 450.0,48.5 451.9,48.3 453.9,48.2 455.8,48.0 457.7,47.8 459.7,47.5 461.6,47.2 463.5,47.0 465.5,46.8 467.4,46.6 469.4,46.5 471.3,46.4 473.2,46.2 475.2,46.1 477.1,45.9 479.0,45.6 481.0,45.4 482.9,45.2 484.8,45.1 486.8,44.9 488.7,44.7 490.6,44.4 492.6,44.3 494.5,44.1 496.5,43.9 498.4,43.7 500.3,43.5 502.3,43.3 504.2,43.2 506.1,43.0 508.1,42.9 510.0,42.7 511.9,42.5 513.9,42.4 515.8,42.3 517.7,42.1 519.7,41.7 521.6,41.4 523.5,47.3 525.5,46.2 527.4,43.9 529.4,43.1 531.3,42.1 533.2,40.8 535.2,40.1 537.1,39.6 539.0,38.8 541.0,37.5 542.9,36.5 544.8,36.2 546.8,35.8 548.7,35.4 550.6,34.7 552.6,34.1 554.5,33.4 556.5,33.0 558.4,32.4 560.3,32.0 562.3,31.6 564.2,31.3 566.1,31.0 568.1,30.7 570.0,30.0 570.0,30.0,120" />
  
  <!-- Linea principale -->
  <polyline fill="none" stroke="#0366d6" stroke-width="2.5" stroke-linecap="round" stroke-linejoin="round" points="30.0,120.0 31.9,119.3 33.9,118.5 35.8,117.9 37.7,117.7 39.7,117.3 41.6,116.5 43.5,116.0 45.5,115.6 47.4,114.7 49.4,114.3 51.3,113.9 53.2,113.6 55.2,113.3 57.1,112.7 59.0,112.1 61.0,111.6 62.9,111.3 64.8,111.1 66.8,110.7 68.7,110.3 70.6,109.9 72.6,109.7 74.5,109.3 76.5,108.0 78.4,107.6 80.3,107.0 82.3,106.5 84.2,106.1 86.1,105.6 88.1,105.3 90.0,105.1 91.9,104.7 93.9,104.1 95.8,103.5 97.7,103.1 99.7,102.7 101.6,102.6 103.5,102.5 105.5,102.2 107.4,101.8 109.4,101.5 111.3,101.4 113.2,100.9 115.2,100.2 117.1,100.0 119.0,99.8 121.0,99.6 122.9,99.0 124.8,98.6 126.8,98.0 128.7,97.6 130.6,97.1 132.6,97.0 134.5,96.7 136.5,96.1 138.4,95.6 140.3,95.2 142.3,95.0 144.2,94.7 146.1,94.5 148.1,93.9 150.0,93.3 151.9,92.8 153.9,92.3 155.8,92.1 157.7,91.9 159.7,91.7 161.6,91.3 163.5,91.0 165.5,90.8 167.4,90.6 169.4,90.4 171.3,90.1 173.2,89.9 175.2,89.8 177.1,89.7 179.0,89.1 181.0,88.8 182.9,88.7 184.8,88.5 186.8,88.4 188.7,88.4 190.6,97.5 192.6,96.6 194.5,95.8 196.5,94.9 198.4,92.5 200.3,90.8 202.3,88.9 204.2,88.2 206.1,87.5 208.1,86.2 210.0,84.8 211.9,83.8 213.9,83.4 215.8,83.1 217.7,82.1 219.7,81.4 221.6,80.9 223.5,80.3 225.5,80.1 227.4,80.0 229.4,79.5 231.3,78.6 233.2,78.0 235.2,77.4 237.1,76.7 239.0,76.4 241.0,76.2 242.9,75.6 244.8,75.1 246.8,74.6 248.7,74.2 250.6,74.0 252.6,73.8 254.5,73.5 256.5,73.1 258.4,72.8 260.3,72.4 262.3,72.2 264.2,71.9 266.1,71.7 268.1,71.4 270.0,71.2 271.9,71.0 273.9,70.5 275.8,70.2 277.7,69.8 279.7,69.5 281.6,69.3 283.5,69.1 285.5,68.9 287.4,68.7 289.4,68.0 291.3,67.6 293.2,67.0 295.2,66.8 297.1,66.8 299.0,66.5 301.0,66.2 302.9,65.9 304.8,65.6 306.8,65.2 308.7,64.9 310.6,64.8 312.6,64.6 314.5,64.4 316.5,64.2 318.4,63.9 320.3,63.7 322.3,63.3 324.2,63.2 326.1,63.0 328.1,62.8 330.0,62.7 331.9,62.4 333.9,62.1 335.8,61.8 337.7,61.5 339.7,61.2 341.6,61.0 343.5,60.9 345.5,60.7 347.4,60.3 349.4,59.9 351.3,59.6 353.2,59.4 355.2,58.9 357.1,58.7 359.0,58.6 361.0,58.5 362.9,58.2 364.8,58.0 366.8,57.7 368.7,57.5 370.6,57.3 372.6,57.1 374.5,56.9 376.5,56.7 378.4,56.6 380.3,56.4 382.3,56.0 384.2,55.8 386.1,55.5 388.1,55.4 390.0,55.2 391.9,55.0 393.9,54.9 395.8,54.7 397.7,54.5 399.7,54.1 401.6,53.7 403.5,53.4 405.5,53.2 407.4,53.1 409.4,53.0 411.3,52.7 413.2,52.4 415.2,52.2 417.1,52.1 419.0,51.8 421.0,51.6 422.9,51.3 424.8,51.2 426.8,51.0 428.7,50.7 430.6,50.5 432.6,50.2 434.5,49.9 436.5,49.8 438.4,49.7 440.3,49.6 442.3,49.4 444.2,49.2 446.1,49.0 448.1,48.7 450.0,48.5 451.9,48.3 453.9,48.2 455.8,48.0 457.7,47.8 459.7,47.5 461.6,47.2 463.5,47.0 465.5,46.8 467.4,46.6 469.4,46.5 471.3,46.4 473.2,46.2 475.2,46.1 477.1,45.9 479.0,45.6 481.0,45.4 482.9,45.2 484.8,45.1 486.8,44.9 488.7,44.7 490.6,44.4 492.6,44.3 494.5,44.1 496.5,43.9 498.4,43.7 500.3,43.5 502.3,43.3 504.2,43.2 506.1,43.0 508.1,42.9 510.0,42.7 511.9,42.5 513.9,42.4 515.8,42.3 517.7,42.1 519.7,41.7 521.6,41.4 523.5,47.3 525.5,46.2 527.4,43.9 529.4,43.1 531.3,42.1 533.2,40.8 535.2,40.1 537.1,39.6 539.0,38.8 541.0,37.5 542.9,36.5 544.8,36.2 546.8,35.8 548.7,35.4 550.6,34.7 552.6,34.1 554.5,33.4 556.5,33.0 558.4,32.4 560.3,32.0 562.3,31.6 564.2,31.3 566.1,31.0 568.1,30.7 570.0,30.0" />
  
  <!-- Punto finale luminoso -->
  <circle cx="570.0" cy="30.0" r="4" fill="#ffffff" stroke="#0366d6" stroke-width="2.5" />
</svg>