<svg width="600" height="150" viewBox="0 0 600 150" xmlns="http://www.w3.org/2000/svg">
  <defs>
    <filter id="shadow2" x="-2%" y="-2%" width="104%" height="108%">
      <feDropShadow dx="0" dy="2" stdDeviation="3" flood-opacity="0.1" />
    </filter>
    <linearGradient id="fillGrad" x1="0" y1="0" x2="0" y2="1">
      <stop offset="0%" stop-color="#0366d6" stop-opacity="0.3"/>
      <stop offset="100%" stop-color="#0366d6" stop-opacity="0.02"/>
    </linearGradient>
  </defs>
  <rect width="600" height="150" rx="12" fill="#ffffff" filter="url(#shadow2)" stroke="#e1e4e8" stroke-width="1"/>
  <text x="20" y="24" fill="#2b3137" font-family="-apple-system,BlinkMacSystemFont,'Segoe UI',Helvetica,Arial,sans-serif" font-size="14" font-weight="600">📈 Download Growth (Actual: 81.7k)</text>
  
  <!-- Area sotto la linea -->
  <polygon fill="url(#fillGrad)" points="30.0,120.0,120 30.0,120.0 31.9,119.3 33.8,118.6 35.6,117.9 37.5,117.8 39.4,117.4 41.3,116.6 43.2,116.1 45.1,115.8 46.9,114.9 48.8,114.5 50.7,114.1 52.6,113.9 54.5,113.5 56.3,113.0 58.2,112.4 60.1,111.9 62.0,111.6 63.9,111.4 65.7,111.1 67.6,110.6 69.5,110.3 71.4,110.1 73.3,109.7 75.2,108.4 77.0,108.0 78.9,107.5 80.8,107.0 82.7,106.6 84.6,106.2 86.4,105.9 88.3,105.7 90.2,105.3 92.1,104.7 94.0,104.2 95.9,103.8 97.7,103.4 99.6,103.2 101.5,103.1 103.4,102.9 105.3,102.5 107.1,102.3 109.0,102.1 110.9,101.6 112.8,100.9 114.7,100.8 116.6,100.6 118.4,100.4 120.3,99.8 122.2,99.4 124.1,98.9 126.0,98.5 127.8,98.0 129.7,97.9 131.6,97.6 133.5,97.1 135.4,96.5 137.2,96.1 139.1,96.0 141.0,95.7 142.9,95.5 144.8,94.9 146.7,94.4 148.5,93.9 150.4,93.4 152.3,93.2 154.2,93.0 156.1,92.8 157.9,92.4 159.8,92.2 161.7,91.9 163.6,91.8 165.5,91.6 167.4,91.3 169.2,91.1 171.1,91.0 173.0,90.9 174.9,90.3 176.8,90.1 178.6,90.0 180.5,89.8 182.4,89.7 184.3,89.7 186.2,98.3 188.0,97.5 189.9,96.7 191.8,95.9 193.7,93.6 195.6,91.9 197.5,90.1 199.3,89.5 201.2,88.7 203.1,87.5 205.0,86.2 206.9,85.2 208.7,84.9 210.6,84.5 212.5,83.6 214.4,82.9 216.3,82.4 218.2,81.9 220.0,81.6 221.9,81.5 223.8,81.0 225.7,80.2 227.6,79.6 229.4,79.1 231.3,78.4 233.2,78.1 235.1,77.9 237.0,77.3 238.9,76.8 240.7,76.3 242.6,75.9 244.5,75.8 246.4,75.6 248.3,75.3 250.1,74.9 252.0,74.6 253.9,74.3 255.8,74.0 257.7,73.8 259.5,73.5 261.4,73.3 263.3,73.1 265.2,72.9 267.1,72.5 269.0,72.1 270.8,71.7 272.7,71.5 274.6,71.2 276.5,71.1 278.4,70.9 280.2,70.7 282.1,70.0 284.0,69.6 285.9,69.1 287.8,68.9 289.7,68.8 291.5,68.6 293.4,68.3 295.3,68.0 297.2,67.7 299.1,67.3 300.9,67.1 302.8,66.9 304.7,66.7 306.6,66.6 308.5,66.4 310.3,66.1 312.2,65.9 314.1,65.5 316.0,65.4 317.9,65.2 319.8,65.1 321.6,64.9 323.5,64.6 325.4,64.4 327.3,64.1 329.2,63.8 331.0,63.5 332.9,63.3 334.8,63.2 336.7,63.0 338.6,62.6 340.5,62.3 342.3,62.0 344.2,61.7 346.1,61.2 348.0,61.1 349.9,61.0 351.7,60.9 353.6,60.6 355.5,60.4 357.4,60.1 359.3,60.0 361.1,59.7 363.0,59.5 364.9,59.3 366.8,59.2 368.7,59.1 370.6,58.8 372.4,58.5 374.3,58.3 376.2,58.1 378.1,57.9 380.0,57.8 381.8,57.5 383.7,57.4 385.6,57.2 387.5,57.0 389.4,56.7 391.3,56.2 393.1,56.0 395.0,55.8 396.9,55.7 398.8,55.6 400.7,55.4 402.5,55.0 404.4,54.8 406.3,54.7 408.2,54.5 410.1,54.3 412.0,54.0 413.8,53.9 415.7,53.7 417.6,53.4 419.5,53.2 421.4,52.9 423.2,52.6 425.1,52.5 427.0,52.4 428.9,52.3 430.8,52.1 432.6,51.9 434.5,51.7 436.4,51.5 438.3,51.3 440.2,51.1 442.1,51.0 443.9,50.8 445.8,50.6 447.7,50.4 449.6,50.1 451.5,49.9 453.3,49.6 455.2,49.5 457.1,49.4 459.0,49.2 460.9,49.1 462.8,49.0 464.6,48.8 466.5,48.5 468.4,48.3 470.3,48.1 472.2,48.0 474.0,47.8 475.9,47.6 477.8,47.4 479.7,47.2 481.6,47.1 483.4,46.9 485.3,46.7 487.2,46.5 489.1,46.3 491.0,46.2 492.9,46.0 494.7,45.9 496.6,45.7 498.5,45.6 500.4,45.4 502.3,45.3 504.1,45.2 506.0,44.8 507.9,44.5 509.8,50.2 511.7,49.0 513.6,46.9 515.4,46.1 517.3,45.1 519.2,43.9 521.1,43.2 523.0,42.7 524.8,41.9 526.7,40.7 528.6,39.8 530.5,39.5 532.4,39.0 534.3,38.7 536.1,38.0 538.0,37.4 539.9,36.7 541.8,36.4 543.7,35.8 545.5,35.5 547.4,35.0 549.3,34.8 551.2,34.4 553.1,34.1 554.9,33.5 556.8,33.1 558.7,32.5 560.6,31.7 562.5,31.3 564.4,31.0 566.2,30.8 568.1,30.5 570.0,30.0 570.0,30.0,120" />
  
  <!-- Linea principale -->
  <polyline fill="none" stroke="#0366d6" stroke-width="2.5" stroke-linecap="round" stroke-linejoin="round" points="30.0,120.0 31.9,119.3 33.8,118.6 35.6,117.9 37.5,117.8 39.4,117.4 41.3,116.6 43.2,116.1 45.1,115.8 46.9,114.9 48.8,114.5 50.7,114.1 52.6,113.9 54.5,113.5 56.3,113.0 58.2,112.4 60.1,111.9 62.0,111.6 63.9,111.4 65.7,111.1 67.6,110.6 69.5,110.3 71.4,110.1 73.3,109.7 75.2,108.4 77.0,108.0 78.9,107.5 80.8,107.0 82.7,106.6 84.6,106.2 86.4,105.9 88.3,105.7 90.2,105.3 92.1,104.7 94.0,104.2 95.9,103.8 97.7,103.4 99.6,103.2 101.5,103.1 103.4,102.9 105.3,102.5 107.1,102.3 109.0,102.1 110.9,101.6 112.8,100.9 114.7,100.8 116.6,100.6 118.4,100.4 120.3,99.8 122.2,99.4 124.1,98.9 126.0,98.5 127.8,98.0 129.7,97.9 131.6,97.6 133.5,97.1 135.4,96.5 137.2,96.1 139.1,96.0 141.0,95.7 142.9,95.5 144.8,94.9 146.7,94.4 148.5,93.9 150.4,93.4 152.3,93.2 154.2,93.0 156.1,92.8 157.9,92.4 159.8,92.2 161.7,91.9 163.6,91.8 165.5,91.6 167.4,91.3 169.2,91.1 171.1,91.0 173.0,90.9 174.9,90.3 176.8,90.1 178.6,90.0 180.5,89.8 182.4,89.7 184.3,89.7 186.2,98.3 188.0,97.5 189.9,96.7 191.8,95.9 193.7,93.6 195.6,91.9 197.5,90.1 199.3,89.5 201.2,88.7 203.1,87.5 205.0,86.2 206.9,85.2 208.7,84.9 210.6,84.5 212.5,83.6 214.4,82.9 216.3,82.4 218.2,81.9 220.0,81.6 221.9,81.5 223.8,81.0 225.7,80.2 227.6,79.6 229.4,79.1 231.3,78.4 233.2,78.1 235.1,77.9 237.0,77.3 238.9,76.8 240.7,76.3 242.6,75.9 244.5,75.8 246.4,75.6 248.3,75.3 250.1,74.9 252.0,74.6 253.9,74.3 255.8,74.0 257.7,73.8 259.5,73.5 261.4,73.3 263.3,73.1 265.2,72.9 267.1,72.5 269.0,72.1 270.8,71.7 272.7,71.5 274.6,71.2 276.5,71.1 278.4,70.9 280.2,70.7 282.1,70.0 284.0,69.6 285.9,69.1 287.8,68.9 289.7,68.8 291.5,68.6 293.4,68.3 295.3,68.0 297.2,67.7 299.1,67.3 300.9,67.1 302.8,66.9 304.7,66.7 306.6,66.6 308.5,66.4 310.3,66.1 312.2,65.9 314.1,65.5 316.0,65.4 317.9,65.2 319.8,65.1 321.6,64.9 323.5,64.6 325.4,64.4 327.3,64.1 329.2,63.8 331.0,63.5 332.9,63.3 334.8,63.2 336.7,63.0 338.6,62.6 340.5,62.3 342.3,62.0 344.2,61.7 346.1,61.2 348.0,61.1 349.9,61.0 351.7,60.9 353.6,60.6 355.5,60.4 357.4,60.1 359.3,60.0 361.1,59.7 363.0,59.5 364.9,59.3 366.8,59.2 368.7,59.1 370.6,58.8 372.4,58.5 374.3,58.3 376.2,58.1 378.1,57.9 380.0,57.8 381.8,57.5 383.7,57.4 385.6,57.2 387.5,57.0 389.4,56.7 391.3,56.2 393.1,56.0 395.0,55.8 396.9,55.7 398.8,55.6 400.7,55.4 402.5,55.0 404.4,54.8 406.3,54.7 408.2,54.5 410.1,54.3 412.0,54.0 413.8,53.9 415.7,53.7 417.6,53.4 419.5,53.2 421.4,52.9 423.2,52.6 425.1,52.5 427.0,52.4 428.9,52.3 430.8,52.1 432.6,51.9 434.5,51.7 436.4,51.5 438.3,51.3 440.2,51.1 442.1,51.0 443.9,50.8 445.8,50.6 447.7,50.4 449.6,50.1 451.5,49.9 453.3,49.6 455.2,49.5 457.1,49.4 459.0,49.2 460.9,49.1 462.8,49.0 464.6,48.8 466.5,48.5 468.4,48.3 470.3,48.1 472.2,48.0 474.0,47.8 475.9,47.6 477.8,47.4 479.7,47.2 481.6,47.1 483.4,46.9 485.3,46.7 487.2,46.5 489.1,46.3 491.0,46.2 492.9,46.0 494.7,45.9 496.6,45.7 498.5,45.6 500.4,45.4 502.3,45.3 504.1,45.2 506.0,44.8 507.9,44.5 509.8,50.2 511.7,49.0 513.6,46.9 515.4,46.1 517.3,45.1 519.2,43.9 521.1,43.2 523.0,42.7 524.8,41.9 526.7,40.7 528.6,39.8 530.5,39.5 532.4,39.0 534.3,38.7 536.1,38.0 538.0,37.4 539.9,36.7 541.8,36.4 543.7,35.8 545.5,35.5 547.4,35.0 549.3,34.8 551.2,34.4 553.1,34.1 554.9,33.5 556.8,33.1 558.7,32.5 560.6,31.7 562.5,31.3 564.4,31.0 566.2,30.8 568.1,30.5 570.0,30.0" />
  
  <!-- Punto finale luminoso -->
  <circle cx="570.0" cy="30.0" r="4" fill="#ffffff" stroke="#0366d6" stroke-width="2.5" />
</svg>