<svg width="600" height="150" viewBox="0 0 600 150" xmlns="http://www.w3.org/2000/svg">
  <defs>
    <filter id="shadow2" x="-2%" y="-2%" width="104%" height="108%">
      <feDropShadow dx="0" dy="2" stdDeviation="3" flood-opacity="0.1" />
    </filter>
    <linearGradient id="fillGrad" x1="0" y1="0" x2="0" y2="1">
      <stop offset="0%" stop-color="#0366d6" stop-opacity="0.3"/>
      <stop offset="100%" stop-color="#0366d6" stop-opacity="0.02"/>
    </linearGradient>
  </defs>
  <rect width="600" height="150" rx="12" fill="#ffffff" filter="url(#shadow2)" stroke="#e1e4e8" stroke-width="1"/>
  <text x="20" y="24" fill="#2b3137" font-family="-apple-system,BlinkMacSystemFont,'Segoe UI',Helvetica,Arial,sans-serif" font-size="14" font-weight="600">📈 Download Growth (Actual: 78.8k)</text>
  
  <!-- Area sotto la linea -->
  <polygon fill="url(#fillGrad)" points="30.0,120.0,120 30.0,120.0 32.3,119.2 34.5,118.2 36.8,117.4 39.1,117.2 41.3,116.8 43.6,115.8 45.9,115.2 48.2,114.7 50.4,113.7 52.7,113.2 55.0,112.7 57.2,112.4 59.5,112.0 61.8,111.3 64.0,110.6 66.3,110.0 68.6,109.6 70.8,109.4 73.1,108.9 75.4,108.4 77.6,107.9 79.9,107.7 82.2,107.2 84.5,105.7 86.7,105.2 89.0,104.6 91.3,103.9 93.5,103.4 95.8,102.9 98.1,102.5 100.3,102.3 102.6,101.8 104.9,101.0 107.1,100.4 109.4,99.9 111.7,99.4 113.9,99.2 116.2,99.1 118.5,98.8 120.8,98.3 123.0,98.0 125.3,97.8 127.6,97.2 129.8,96.4 132.1,96.2 134.4,96.0 136.6,95.7 138.9,95.0 141.2,94.5 143.4,93.8 145.7,93.3 148.0,92.7 150.3,92.6 152.5,92.2 154.8,91.6 157.1,90.9 159.3,90.4 161.6,90.2 163.9,89.9 166.1,89.6 168.4,88.9 170.7,88.2 172.9,87.6 175.2,87.1 177.5,86.8 179.7,86.6 182.0,86.3 184.3,85.8 186.6,85.5 188.8,85.2 191.1,85.0 193.4,84.8 195.6,84.4 197.9,84.2 200.2,84.1 202.4,83.9 204.7,83.2 207.0,82.9 209.2,82.8 211.5,82.5 213.8,82.4 216.1,82.4 218.3,93.2 220.6,92.1 222.9,91.2 225.1,90.2 227.4,87.2 229.7,85.2 231.9,83.0 234.2,82.2 236.5,81.2 238.7,79.7 241.0,78.1 243.3,76.9 245.5,76.4 247.8,76.0 250.1,74.8 252.4,74.0 254.6,73.4 256.9,72.7 259.2,72.4 261.4,72.3 263.7,71.7 266.0,70.7 268.2,70.0 270.5,69.3 272.8,68.5 275.0,68.1 277.3,67.8 279.6,67.1 281.8,66.5 284.1,65.9 286.4,65.4 288.7,65.2 290.9,65.0 293.2,64.7 295.5,64.1 297.7,63.7 300.0,63.4 302.3,63.0 304.5,62.7 306.8,62.4 309.1,62.1 311.3,61.9 313.6,61.6 315.9,61.1 318.2,60.7 320.4,60.2 322.7,59.9 325.0,59.6 327.2,59.4 329.5,59.1 331.8,58.9 334.0,58.1 336.3,57.6 338.6,56.9 340.8,56.7 343.1,56.6 345.4,56.3 347.6,56.0 349.9,55.6 352.2,55.2 354.5,54.7 356.7,54.4 359.0,54.2 361.3,54.0 363.5,53.8 365.8,53.6 368.1,53.2 370.3,53.0 372.6,52.5 374.9,52.3 377.1,52.1 379.4,51.9 381.7,51.8 383.9,51.4 386.2,51.0 388.5,50.7 390.8,50.3 393.0,50.0 395.3,49.8 397.6,49.6 399.8,49.4 402.1,48.9 404.4,48.4 406.6,48.1 408.9,47.8 411.2,47.2 413.4,47.0 415.7,46.9 418.0,46.7 420.3,46.4 422.5,46.1 424.8,45.8 427.1,45.6 429.3,45.3 431.6,45.1 433.9,44.8 436.1,44.6 438.4,44.5 440.7,44.2 442.9,43.8 445.2,43.6 447.5,43.2 449.7,43.1 452.0,42.9 454.3,42.6 456.6,42.4 458.8,42.2 461.1,42.0 463.4,41.5 465.6,41.0 467.9,40.7 470.2,40.4 472.4,40.3 474.7,40.2 477.0,39.9 479.2,39.4 481.5,39.3 483.8,39.1 486.1,38.8 488.3,38.5 490.6,38.2 492.9,38.1 495.1,37.9 497.4,37.5 499.7,37.2 501.9,36.8 504.2,36.5 506.5,36.4 508.7,36.3 511.0,36.2 513.3,35.9 515.5,35.7 517.8,35.4 520.1,35.1 522.4,34.8 524.6,34.7 526.9,34.5 529.2,34.3 531.4,34.0 533.7,33.7 536.0,33.3 538.2,33.1 540.5,32.8 542.8,32.6 545.0,32.5 547.3,32.3 549.6,32.2 551.8,32.0 554.1,31.8 556.4,31.4 558.7,31.2 560.9,30.9 563.2,30.7 565.5,30.5 567.7,30.3 570.0,30.0 570.0,30.0,120" />
  
  <!-- Linea principale -->
  <polyline fill="none" stroke="#0366d6" stroke-width="2.5" stroke-linecap="round" stroke-linejoin="round" points="30.0,120.0 32.3,119.2 34.5,118.2 36.8,117.4 39.1,117.2 41.3,116.8 43.6,115.8 45.9,115.2 48.2,114.7 50.4,113.7 52.7,113.2 55.0,112.7 57.2,112.4 59.5,112.0 61.8,111.3 64.0,110.6 66.3,110.0 68.6,109.6 70.8,109.4 73.1,108.9 75.4,108.4 77.6,107.9 79.9,107.7 82.2,107.2 84.5,105.7 86.7,105.2 89.0,104.6 91.3,103.9 93.5,103.4 95.8,102.9 98.1,102.5 100.3,102.3 102.6,101.8 104.9,101.0 107.1,100.4 109.4,99.9 111.7,99.4 113.9,99.2 116.2,99.1 118.5,98.8 120.8,98.3 123.0,98.0 125.3,97.8 127.6,97.2 129.8,96.4 132.1,96.2 134.4,96.0 136.6,95.7 138.9,95.0 141.2,94.5 143.4,93.8 145.7,93.3 148.0,92.7 150.3,92.6 152.5,92.2 154.8,91.6 157.1,90.9 159.3,90.4 161.6,90.2 163.9,89.9 166.1,89.6 168.4,88.9 170.7,88.2 172.9,87.6 175.2,87.1 177.5,86.8 179.7,86.6 182.0,86.3 184.3,85.8 186.6,85.5 188.8,85.2 191.1,85.0 193.4,84.8 195.6,84.4 197.9,84.2 200.2,84.1 202.4,83.9 204.7,83.2 207.0,82.9 209.2,82.8 211.5,82.5 213.8,82.4 216.1,82.4 218.3,93.2 220.6,92.1 222.9,91.2 225.1,90.2 227.4,87.2 229.7,85.2 231.9,83.0 234.2,82.2 236.5,81.2 238.7,79.7 241.0,78.1 243.3,76.9 245.5,76.4 247.8,76.0 250.1,74.8 252.4,74.0 254.6,73.4 256.9,72.7 259.2,72.4 261.4,72.3 263.7,71.7 266.0,70.7 268.2,70.0 270.5,69.3 272.8,68.5 275.0,68.1 277.3,67.8 279.6,67.1 281.8,66.5 284.1,65.9 286.4,65.4 288.7,65.2 290.9,65.0 293.2,64.7 295.5,64.1 297.7,63.7 300.0,63.4 302.3,63.0 304.5,62.7 306.8,62.4 309.1,62.1 311.3,61.9 313.6,61.6 315.9,61.1 318.2,60.7 320.4,60.2 322.7,59.9 325.0,59.6 327.2,59.4 329.5,59.1 331.8,58.9 334.0,58.1 336.3,57.6 338.6,56.9 340.8,56.7 343.1,56.6 345.4,56.3 347.6,56.0 349.9,55.6 352.2,55.2 354.5,54.7 356.7,54.4 359.0,54.2 361.3,54.0 363.5,53.8 365.8,53.6 368.1,53.2 370.3,53.0 372.6,52.5 374.9,52.3 377.1,52.1 379.4,51.9 381.7,51.8 383.9,51.4 386.2,51.0 388.5,50.7 390.8,50.3 393.0,50.0 395.3,49.8 397.6,49.6 399.8,49.4 402.1,48.9 404.4,48.4 406.6,48.1 408.9,47.8 411.2,47.2 413.4,47.0 415.7,46.9 418.0,46.7 420.3,46.4 422.5,46.1 424.8,45.8 427.1,45.6 429.3,45.3 431.6,45.1 433.9,44.8 436.1,44.6 438.4,44.5 440.7,44.2 442.9,43.8 445.2,43.6 447.5,43.2 449.7,43.1 452.0,42.9 454.3,42.6 456.6,42.4 458.8,42.2 461.1,42.0 463.4,41.5 465.6,41.0 467.9,40.7 470.2,40.4 472.4,40.3 474.7,40.2 477.0,39.9 479.2,39.4 481.5,39.3 483.8,39.1 486.1,38.8 488.3,38.5 490.6,38.2 492.9,38.1 495.1,37.9 497.4,37.5 499.7,37.2 501.9,36.8 504.2,36.5 506.5,36.4 508.7,36.3 511.0,36.2 513.3,35.9 515.5,35.7 517.8,35.4 520.1,35.1 522.4,34.8 524.6,34.7 526.9,34.5 529.2,34.3 531.4,34.0 533.7,33.7 536.0,33.3 538.2,33.1 540.5,32.8 542.8,32.6 545.0,32.5 547.3,32.3 549.6,32.2 551.8,32.0 554.1,31.8 556.4,31.4 558.7,31.2 560.9,30.9 563.2,30.7 565.5,30.5 567.7,30.3 570.0,30.0" />
  
  <!-- Punto finale luminoso -->
  <circle cx="570.0" cy="30.0" r="4" fill="#ffffff" stroke="#0366d6" stroke-width="2.5" />
</svg>