<svg width="600" height="150" viewBox="0 0 600 150" xmlns="http://www.w3.org/2000/svg">
  <defs>
    <filter id="shadow2" x="-2%" y="-2%" width="104%" height="108%">
      <feDropShadow dx="0" dy="2" stdDeviation="3" flood-opacity="0.1" />
    </filter>
    <linearGradient id="fillGrad" x1="0" y1="0" x2="0" y2="1">
      <stop offset="0%" stop-color="#0366d6" stop-opacity="0.3"/>
      <stop offset="100%" stop-color="#0366d6" stop-opacity="0.02"/>
    </linearGradient>
  </defs>
  <rect width="600" height="150" rx="12" fill="#ffffff" filter="url(#shadow2)" stroke="#e1e4e8" stroke-width="1"/>
  <text x="20" y="24" fill="#2b3137" font-family="-apple-system,BlinkMacSystemFont,'Segoe UI',Helvetica,Arial,sans-serif" font-size="14" font-weight="600">📈 Download Growth (Actual: 85.0k)</text>
  
  <!-- Area sotto la linea -->
  <polygon fill="url(#fillGrad)" points="30.0,120.0,120 30.0,120.0 31.6,119.4 33.1,118.8 34.7,118.3 36.2,118.2 37.8,117.9 39.3,117.2 40.9,116.8 42.4,116.5 44.0,115.9 45.6,115.5 47.1,115.2 48.7,115.0 50.2,114.7 51.8,114.3 53.3,113.8 54.9,113.4 56.5,113.2 58.0,113.0 59.6,112.7 61.1,112.3 62.7,112.0 64.2,111.9 65.8,111.6 67.3,110.5 68.9,110.2 70.5,109.8 72.0,109.4 73.6,109.0 75.1,108.7 76.7,108.5 78.2,108.3 79.8,108.0 81.4,107.5 82.9,107.0 84.5,106.7 86.0,106.4 87.6,106.3 89.1,106.2 90.7,106.0 92.2,105.7 93.8,105.5 95.4,105.3 96.9,105.0 98.5,104.4 100.0,104.3 101.6,104.1 103.1,103.9 104.7,103.5 106.3,103.2 107.8,102.7 109.4,102.4 110.9,102.0 112.5,101.9 114.0,101.6 115.6,101.2 117.1,100.8 118.7,100.5 120.3,100.3 121.8,100.1 123.4,99.9 124.9,99.5 126.5,99.0 128.0,98.6 129.6,98.2 131.2,98.0 132.7,97.9 134.3,97.8 135.8,97.4 137.4,97.2 138.9,97.0 140.5,96.9 142.0,96.7 143.6,96.5 145.2,96.4 146.7,96.3 148.3,96.2 149.8,95.7 151.4,95.5 152.9,95.4 154.5,95.3 156.1,95.2 157.6,95.2 159.2,102.3 160.7,101.6 162.3,100.9 163.8,100.3 165.4,98.4 166.9,97.0 168.5,95.6 170.1,95.0 171.6,94.4 173.2,93.4 174.7,92.3 176.3,91.5 177.8,91.2 179.4,90.9 181.0,90.2 182.5,89.6 184.1,89.2 185.6,88.8 187.2,88.6 188.7,88.5 190.3,88.1 191.8,87.4 193.4,87.0 195.0,86.5 196.5,86.0 198.1,85.7 199.6,85.5 201.2,85.1 202.7,84.6 204.3,84.3 205.9,83.9 207.4,83.8 209.0,83.7 210.5,83.5 212.1,83.1 213.6,82.8 215.2,82.6 216.7,82.4 218.3,82.2 219.9,82.0 221.4,81.8 223.0,81.6 224.5,81.5 226.1,81.1 227.6,80.8 229.2,80.5 230.7,80.3 232.3,80.1 233.9,80.0 235.4,79.8 237.0,79.6 238.5,79.1 240.1,78.8 241.6,78.3 243.2,78.2 244.8,78.1 246.3,77.9 247.9,77.7 249.4,77.4 251.0,77.2 252.5,76.9 254.1,76.7 255.6,76.6 257.2,76.4 258.8,76.3 260.3,76.1 261.9,75.9 263.4,75.7 265.0,75.4 266.5,75.3 268.1,75.2 269.7,75.0 271.2,74.9 272.8,74.7 274.3,74.5 275.9,74.2 277.4,74.0 279.0,73.8 280.5,73.6 282.1,73.5 283.7,73.4 285.2,73.0 286.8,72.7 288.3,72.5 289.9,72.3 291.4,71.9 293.0,71.8 294.6,71.7 296.1,71.6 297.7,71.4 299.2,71.2 300.8,71.0 302.3,70.9 303.9,70.7 305.4,70.5 307.0,70.4 308.6,70.2 310.1,70.1 311.7,69.9 313.2,69.7 314.8,69.5 316.3,69.3 317.9,69.2 319.5,69.1 321.0,68.9 322.6,68.8 324.1,68.6 325.7,68.5 327.2,68.2 328.8,67.8 330.3,67.6 331.9,67.4 333.5,67.4 335.0,67.3 336.6,67.1 338.1,66.8 339.7,66.7 341.2,66.6 342.8,66.4 344.4,66.2 345.9,66.0 347.5,65.9 349.0,65.8 350.6,65.5 352.1,65.3 353.7,65.1 355.2,64.9 356.8,64.8 358.4,64.7 359.9,64.6 361.5,64.5 363.0,64.3 364.6,64.1 366.1,64.0 367.7,63.8 369.3,63.6 370.8,63.5 372.4,63.4 373.9,63.2 375.5,63.0 377.0,62.8 378.6,62.6 380.1,62.4 381.7,62.3 383.3,62.2 384.8,62.1 386.4,62.0 387.9,61.9 389.5,61.7 391.0,61.5 392.6,61.3 394.1,61.2 395.7,61.1 397.3,60.9 398.8,60.8 400.4,60.6 401.9,60.4 403.5,60.3 405.0,60.2 406.6,60.0 408.2,59.8 409.7,59.6 411.3,59.6 412.8,59.5 414.4,59.3 415.9,59.2 417.5,59.1 419.0,58.9 420.6,58.9 422.2,58.8 423.7,58.4 425.3,58.2 426.8,62.8 428.4,61.9 429.9,60.2 431.5,59.5 433.1,58.7 434.6,57.7 436.2,57.1 437.7,56.8 439.3,56.1 440.8,55.1 442.4,54.3 443.9,54.1 445.5,53.7 447.1,53.4 448.6,52.9 450.2,52.4 451.7,51.9 453.3,51.6 454.8,51.1 456.4,50.8 458.0,50.5 459.5,50.2 461.1,50.0 462.6,49.7 464.2,49.2 465.7,48.9 467.3,48.4 468.8,47.8 470.4,47.4 472.0,47.2 473.5,47.0 475.1,46.7 476.6,46.3 478.2,46.0 479.7,45.7 481.3,44.7 482.9,44.0 484.4,43.6 486.0,43.5 487.5,43.1 489.1,42.6 490.6,42.2 492.2,41.9 493.7,41.6 495.3,41.2 496.9,40.9 498.4,40.6 500.0,40.2 501.5,39.9 503.1,39.8 504.6,39.6 506.2,39.1 507.8,38.8 509.3,38.6 510.9,38.5 512.4,38.3 514.0,38.0 515.5,37.8 517.1,37.6 518.6,37.4 520.2,37.2 521.8,37.0 523.3,36.7 524.9,36.5 526.4,36.2 528.0,35.8 529.5,35.5 531.1,35.3 532.7,35.1 534.2,35.0 535.8,34.8 537.3,34.6 538.9,34.4 540.4,34.3 542.0,34.1 543.5,33.9 545.1,33.8 546.7,33.4 548.2,33.3 549.8,33.1 551.3,32.9 552.9,32.5 554.4,32.1 556.0,31.9 557.6,31.7 559.1,31.5 560.7,31.2 562.2,31.0 563.8,30.7 565.3,30.5 566.9,30.4 568.4,30.2 570.0,30.0 570.0,30.0,120" />
  
  <!-- Linea principale -->
  <polyline fill="none" stroke="#0366d6" stroke-width="2.5" stroke-linecap="round" stroke-linejoin="round" points="30.0,120.0 31.6,119.4 33.1,118.8 34.7,118.3 36.2,118.2 37.8,117.9 39.3,117.2 40.9,116.8 42.4,116.5 44.0,115.9 45.6,115.5 47.1,115.2 48.7,115.0 50.2,114.7 51.8,114.3 53.3,113.8 54.9,113.4 56.5,113.2 58.0,113.0 59.6,112.7 61.1,112.3 62.7,112.0 64.2,111.9 65.8,111.6 67.3,110.5 68.9,110.2 70.5,109.8 72.0,109.4 73.6,109.0 75.1,108.7 76.7,108.5 78.2,108.3 79.8,108.0 81.4,107.5 82.9,107.0 84.5,106.7 86.0,106.4 87.6,106.3 89.1,106.2 90.7,106.0 92.2,105.7 93.8,105.5 95.4,105.3 96.9,105.0 98.5,104.4 100.0,104.3 101.6,104.1 103.1,103.9 104.7,103.5 106.3,103.2 107.8,102.7 109.4,102.4 110.9,102.0 112.5,101.9 114.0,101.6 115.6,101.2 117.1,100.8 118.7,100.5 120.3,100.3 121.8,100.1 123.4,99.9 124.9,99.5 126.5,99.0 128.0,98.6 129.6,98.2 131.2,98.0 132.7,97.9 134.3,97.8 135.8,97.4 137.4,97.2 138.9,97.0 140.5,96.9 142.0,96.7 143.6,96.5 145.2,96.4 146.7,96.3 148.3,96.2 149.8,95.7 151.4,95.5 152.9,95.4 154.5,95.3 156.1,95.2 157.6,95.2 159.2,102.3 160.7,101.6 162.3,100.9 163.8,100.3 165.4,98.4 166.9,97.0 168.5,95.6 170.1,95.0 171.6,94.4 173.2,93.4 174.7,92.3 176.3,91.5 177.8,91.2 179.4,90.9 181.0,90.2 182.5,89.6 184.1,89.2 185.6,88.8 187.2,88.6 188.7,88.5 190.3,88.1 191.8,87.4 193.4,87.0 195.0,86.5 196.5,86.0 198.1,85.7 199.6,85.5 201.2,85.1 202.7,84.6 204.3,84.3 205.9,83.9 207.4,83.8 209.0,83.7 210.5,83.5 212.1,83.1 213.6,82.8 215.2,82.6 216.7,82.4 218.3,82.2 219.9,82.0 221.4,81.8 223.0,81.6 224.5,81.5 226.1,81.1 227.6,80.8 229.2,80.5 230.7,80.3 232.3,80.1 233.9,80.0 235.4,79.8 237.0,79.6 238.5,79.1 240.1,78.8 241.6,78.3 243.2,78.2 244.8,78.1 246.3,77.9 247.9,77.7 249.4,77.4 251.0,77.2 252.5,76.9 254.1,76.7 255.6,76.6 257.2,76.4 258.8,76.3 260.3,76.1 261.9,75.9 263.4,75.7 265.0,75.4 266.5,75.3 268.1,75.2 269.7,75.0 271.2,74.9 272.8,74.7 274.3,74.5 275.9,74.2 277.4,74.0 279.0,73.8 280.5,73.6 282.1,73.5 283.7,73.4 285.2,73.0 286.8,72.7 288.3,72.5 289.9,72.3 291.4,71.9 293.0,71.8 294.6,71.7 296.1,71.6 297.7,71.4 299.2,71.2 300.8,71.0 302.3,70.9 303.9,70.7 305.4,70.5 307.0,70.4 308.6,70.2 310.1,70.1 311.7,69.9 313.2,69.7 314.8,69.5 316.3,69.3 317.9,69.2 319.5,69.1 321.0,68.9 322.6,68.8 324.1,68.6 325.7,68.5 327.2,68.2 328.8,67.8 330.3,67.6 331.9,67.4 333.5,67.4 335.0,67.3 336.6,67.1 338.1,66.8 339.7,66.7 341.2,66.6 342.8,66.4 344.4,66.2 345.9,66.0 347.5,65.9 349.0,65.8 350.6,65.5 352.1,65.3 353.7,65.1 355.2,64.9 356.8,64.8 358.4,64.7 359.9,64.6 361.5,64.5 363.0,64.3 364.6,64.1 366.1,64.0 367.7,63.8 369.3,63.6 370.8,63.5 372.4,63.4 373.9,63.2 375.5,63.0 377.0,62.8 378.6,62.6 380.1,62.4 381.7,62.3 383.3,62.2 384.8,62.1 386.4,62.0 387.9,61.9 389.5,61.7 391.0,61.5 392.6,61.3 394.1,61.2 395.7,61.1 397.3,60.9 398.8,60.8 400.4,60.6 401.9,60.4 403.5,60.3 405.0,60.2 406.6,60.0 408.2,59.8 409.7,59.6 411.3,59.6 412.8,59.5 414.4,59.3 415.9,59.2 417.5,59.1 419.0,58.9 420.6,58.9 422.2,58.8 423.7,58.4 425.3,58.2 426.8,62.8 428.4,61.9 429.9,60.2 431.5,59.5 433.1,58.7 434.6,57.7 436.2,57.1 437.7,56.8 439.3,56.1 440.8,55.1 442.4,54.3 443.9,54.1 445.5,53.7 447.1,53.4 448.6,52.9 450.2,52.4 451.7,51.9 453.3,51.6 454.8,51.1 456.4,50.8 458.0,50.5 459.5,50.2 461.1,50.0 462.6,49.7 464.2,49.2 465.7,48.9 467.3,48.4 468.8,47.8 470.4,47.4 472.0,47.2 473.5,47.0 475.1,46.7 476.6,46.3 478.2,46.0 479.7,45.7 481.3,44.7 482.9,44.0 484.4,43.6 486.0,43.5 487.5,43.1 489.1,42.6 490.6,42.2 492.2,41.9 493.7,41.6 495.3,41.2 496.9,40.9 498.4,40.6 500.0,40.2 501.5,39.9 503.1,39.8 504.6,39.6 506.2,39.1 507.8,38.8 509.3,38.6 510.9,38.5 512.4,38.3 514.0,38.0 515.5,37.8 517.1,37.6 518.6,37.4 520.2,37.2 521.8,37.0 523.3,36.7 524.9,36.5 526.4,36.2 528.0,35.8 529.5,35.5 531.1,35.3 532.7,35.1 534.2,35.0 535.8,34.8 537.3,34.6 538.9,34.4 540.4,34.3 542.0,34.1 543.5,33.9 545.1,33.8 546.7,33.4 548.2,33.3 549.8,33.1 551.3,32.9 552.9,32.5 554.4,32.1 556.0,31.9 557.6,31.7 559.1,31.5 560.7,31.2 562.2,31.0 563.8,30.7 565.3,30.5 566.9,30.4 568.4,30.2 570.0,30.0" />
  
  <!-- Punto finale luminoso -->
  <circle cx="570.0" cy="30.0" r="4" fill="#ffffff" stroke="#0366d6" stroke-width="2.5" />
</svg>