<svg width="600" height="150" viewBox="0 0 600 150" xmlns="http://www.w3.org/2000/svg">
  <defs>
    <filter id="shadow2" x="-2%" y="-2%" width="104%" height="108%">
      <feDropShadow dx="0" dy="2" stdDeviation="3" flood-opacity="0.1" />
    </filter>
    <linearGradient id="fillGrad" x1="0" y1="0" x2="0" y2="1">
      <stop offset="0%" stop-color="#0366d6" stop-opacity="0.3"/>
      <stop offset="100%" stop-color="#0366d6" stop-opacity="0.02"/>
    </linearGradient>
  </defs>
  <rect width="600" height="150" rx="12" fill="#ffffff" filter="url(#shadow2)" stroke="#e1e4e8" stroke-width="1"/>
  <text x="20" y="24" fill="#2b3137" font-family="-apple-system,BlinkMacSystemFont,'Segoe UI',Helvetica,Arial,sans-serif" font-size="14" font-weight="600">📈 Download Growth (Actual: 77.8k)</text>
  
  <!-- Area sotto la linea -->
  <polygon fill="url(#fillGrad)" points="30.0,120.0,120 30.0,120.0 32.6,119.1 35.3,118.1 37.9,117.2 40.6,117.0 43.2,116.5 45.9,115.4 48.5,114.7 51.2,114.2 53.8,113.1 56.5,112.6 59.1,112.0 61.8,111.7 64.4,111.2 67.1,110.4 69.7,109.6 72.4,109.0 75.0,108.6 77.6,108.3 80.3,107.8 82.9,107.3 85.6,106.7 88.2,106.5 90.9,106.0 93.5,104.3 96.2,103.7 98.8,103.0 101.5,102.4 104.1,101.8 106.8,101.2 109.4,100.8 112.1,100.5 114.7,100.0 117.4,99.2 120.0,98.4 122.6,97.9 125.3,97.4 127.9,97.2 130.6,97.0 133.2,96.7 135.9,96.2 138.5,95.9 141.2,95.6 143.8,95.0 146.5,94.0 149.1,93.8 151.8,93.6 154.4,93.3 157.1,92.5 159.7,92.0 162.4,91.3 165.0,90.7 167.6,90.0 170.3,89.9 172.9,89.5 175.6,88.8 178.2,88.1 180.9,87.5 183.5,87.3 186.2,86.9 188.8,86.6 191.5,85.8 194.1,85.1 196.8,84.5 199.4,83.8 202.1,83.5 204.7,83.3 207.4,83.0 210.0,82.5 212.6,82.1 215.3,81.8 217.9,81.6 220.6,81.3 223.2,80.9 225.9,80.7 228.5,80.5 231.2,80.3 233.8,79.6 236.5,79.2 239.1,79.1 241.8,78.9 244.4,78.7 247.1,78.7 249.7,90.5 252.4,89.4 255.0,88.3 257.6,87.2 260.3,84.0 262.9,81.8 265.6,79.3 268.2,78.5 270.9,77.4 273.5,75.8 276.2,74.0 278.8,72.7 281.5,72.2 284.1,71.7 286.8,70.4 289.4,69.5 292.1,68.9 294.7,68.1 297.4,67.8 300.0,67.6 302.6,67.0 305.3,65.9 307.9,65.1 310.6,64.3 313.2,63.4 315.9,63.0 318.5,62.7 321.2,61.9 323.8,61.2 326.5,60.6 329.1,60.0 331.8,59.8 334.4,59.6 337.1,59.2 339.7,58.6 342.4,58.2 345.0,57.8 347.6,57.4 350.3,57.1 352.9,56.8 355.6,56.5 358.2,56.2 360.9,55.9 363.5,55.3 366.2,54.8 368.8,54.3 371.5,54.0 374.1,53.6 376.8,53.4 379.4,53.1 382.1,52.9 384.7,52.0 387.4,51.4 390.0,50.7 392.6,50.4 395.3,50.4 397.9,50.0 400.6,49.7 403.2,49.2 405.9,48.8 408.5,48.3 411.2,47.9 413.8,47.8 416.5,47.5 419.1,47.3 421.8,47.0 424.4,46.7 427.1,46.4 429.7,45.9 432.4,45.6 435.0,45.5 437.6,45.2 440.3,45.1 442.9,44.6 445.6,44.3 448.2,43.9 450.9,43.5 453.5,43.1 456.2,42.9 458.8,42.7 461.5,42.4 464.1,41.9 466.8,41.4 469.4,41.1 472.1,40.7 474.7,40.0 477.4,39.9 480.0,39.7 482.6,39.5 485.3,39.2 487.9,38.9 490.6,38.5 493.2,38.3 495.9,38.0 498.5,37.7 501.2,37.4 503.8,37.2 506.5,37.1 509.1,36.8 511.8,36.3 514.4,36.1 517.1,35.7 519.7,35.5 522.4,35.3 525.0,35.0 527.6,34.8 530.3,34.6 532.9,34.3 535.6,33.8 538.2,33.2 540.9,32.9 543.5,32.6 546.2,32.5 548.8,32.4 551.5,32.0 554.1,31.5 556.8,31.3 559.4,31.1 562.1,30.8 564.7,30.5 567.4,30.2 570.0,30.0 570.0,30.0,120" />
  
  <!-- Linea principale -->
  <polyline fill="none" stroke="#0366d6" stroke-width="2.5" stroke-linecap="round" stroke-linejoin="round" points="30.0,120.0 32.6,119.1 35.3,118.1 37.9,117.2 40.6,117.0 43.2,116.5 45.9,115.4 48.5,114.7 51.2,114.2 53.8,113.1 56.5,112.6 59.1,112.0 61.8,111.7 64.4,111.2 67.1,110.4 69.7,109.6 72.4,109.0 75.0,108.6 77.6,108.3 80.3,107.8 82.9,107.3 85.6,106.7 88.2,106.5 90.9,106.0 93.5,104.3 96.2,103.7 98.8,103.0 101.5,102.4 104.1,101.8 106.8,101.2 109.4,100.8 112.1,100.5 114.7,100.0 117.4,99.2 120.0,98.4 122.6,97.9 125.3,97.4 127.9,97.2 130.6,97.0 133.2,96.7 135.9,96.2 138.5,95.9 141.2,95.6 143.8,95.0 146.5,94.0 149.1,93.8 151.8,93.6 154.4,93.3 157.1,92.5 159.7,92.0 162.4,91.3 165.0,90.7 167.6,90.0 170.3,89.9 172.9,89.5 175.6,88.8 178.2,88.1 180.9,87.5 183.5,87.3 186.2,86.9 188.8,86.6 191.5,85.8 194.1,85.1 196.8,84.5 199.4,83.8 202.1,83.5 204.7,83.3 207.4,83.0 210.0,82.5 212.6,82.1 215.3,81.8 217.9,81.6 220.6,81.3 223.2,80.9 225.9,80.7 228.5,80.5 231.2,80.3 233.8,79.6 236.5,79.2 239.1,79.1 241.8,78.9 244.4,78.7 247.1,78.7 249.7,90.5 252.4,89.4 255.0,88.3 257.6,87.2 260.3,84.0 262.9,81.8 265.6,79.3 268.2,78.5 270.9,77.4 273.5,75.8 276.2,74.0 278.8,72.7 281.5,72.2 284.1,71.7 286.8,70.4 289.4,69.5 292.1,68.9 294.7,68.1 297.4,67.8 300.0,67.6 302.6,67.0 305.3,65.9 307.9,65.1 310.6,64.3 313.2,63.4 315.9,63.0 318.5,62.7 321.2,61.9 323.8,61.2 326.5,60.6 329.1,60.0 331.8,59.8 334.4,59.6 337.1,59.2 339.7,58.6 342.4,58.2 345.0,57.8 347.6,57.4 350.3,57.1 352.9,56.8 355.6,56.5 358.2,56.2 360.9,55.9 363.5,55.3 366.2,54.8 368.8,54.3 371.5,54.0 374.1,53.6 376.8,53.4 379.4,53.1 382.1,52.9 384.7,52.0 387.4,51.4 390.0,50.7 392.6,50.4 395.3,50.4 397.9,50.0 400.6,49.7 403.2,49.2 405.9,48.8 408.5,48.3 411.2,47.9 413.8,47.8 416.5,47.5 419.1,47.3 421.8,47.0 424.4,46.7 427.1,46.4 429.7,45.9 432.4,45.6 435.0,45.5 437.6,45.2 440.3,45.1 442.9,44.6 445.6,44.3 448.2,43.9 450.9,43.5 453.5,43.1 456.2,42.9 458.8,42.7 461.5,42.4 464.1,41.9 466.8,41.4 469.4,41.1 472.1,40.7 474.7,40.0 477.4,39.9 480.0,39.7 482.6,39.5 485.3,39.2 487.9,38.9 490.6,38.5 493.2,38.3 495.9,38.0 498.5,37.7 501.2,37.4 503.8,37.2 506.5,37.1 509.1,36.8 511.8,36.3 514.4,36.1 517.1,35.7 519.7,35.5 522.4,35.3 525.0,35.0 527.6,34.8 530.3,34.6 532.9,34.3 535.6,33.8 538.2,33.2 540.9,32.9 543.5,32.6 546.2,32.5 548.8,32.4 551.5,32.0 554.1,31.5 556.8,31.3 559.4,31.1 562.1,30.8 564.7,30.5 567.4,30.2 570.0,30.0" />
  
  <!-- Punto finale luminoso -->
  <circle cx="570.0" cy="30.0" r="4" fill="#ffffff" stroke="#0366d6" stroke-width="2.5" />
</svg>