<svg width="600" height="150" viewBox="0 0 600 150" xmlns="http://www.w3.org/2000/svg">
  <defs>
    <filter id="shadow2" x="-2%" y="-2%" width="104%" height="108%">
      <feDropShadow dx="0" dy="2" stdDeviation="3" flood-opacity="0.1" />
    </filter>
    <linearGradient id="fillGrad" x1="0" y1="0" x2="0" y2="1">
      <stop offset="0%" stop-color="#0366d6" stop-opacity="0.3"/>
      <stop offset="100%" stop-color="#0366d6" stop-opacity="0.02"/>
    </linearGradient>
  </defs>
  <rect width="600" height="150" rx="12" fill="#ffffff" filter="url(#shadow2)" stroke="#e1e4e8" stroke-width="1"/>
  <text x="20" y="24" fill="#2b3137" font-family="-apple-system,BlinkMacSystemFont,'Segoe UI',Helvetica,Arial,sans-serif" font-size="14" font-weight="600">📈 Download Growth (Actual: 75.9k)</text>
  
  <!-- Area sotto la linea -->
  <polygon fill="url(#fillGrad)" points="30.0,120.0,120 30.0,120.0 33.6,118.9 37.1,117.7 40.7,116.6 44.2,116.3 47.8,115.8 51.3,114.5 54.9,113.6 58.4,113.0 62.0,111.7 65.5,111.0 69.1,110.3 72.6,109.9 76.2,109.3 79.7,108.4 83.3,107.5 86.8,106.7 90.4,106.2 93.9,105.9 97.5,105.3 101.1,104.6 104.6,103.9 108.2,103.6 111.7,103.0 115.3,100.9 118.8,100.3 122.4,99.5 125.9,98.6 129.5,97.9 133.0,97.2 136.6,96.8 140.1,96.4 143.7,95.8 147.2,94.8 150.8,93.9 154.3,93.3 157.9,92.6 161.4,92.4 165.0,92.2 168.6,91.9 172.1,91.2 175.7,90.8 179.2,90.5 182.8,89.7 186.3,88.6 189.9,88.3 193.4,88.1 197.0,87.6 200.5,86.7 204.1,86.1 207.6,85.2 211.2,84.5 214.7,83.7 218.3,83.5 221.8,83.0 225.4,82.2 228.9,81.3 232.5,80.7 236.1,80.4 239.6,80.0 243.2,79.6 246.7,78.7 250.3,77.8 253.8,77.0 257.4,76.2 260.9,75.8 264.5,75.6 268.0,75.2 271.6,74.6 275.1,74.2 278.7,73.8 282.2,73.5 285.8,73.2 289.3,72.7 292.9,72.4 296.4,72.2 300.0,72.0 303.6,71.1 307.1,70.7 310.7,70.5 314.2,70.2 317.8,70.0 321.3,70.0 324.9,84.3 328.4,82.9 332.0,81.7 335.5,80.3 339.1,76.4 342.6,73.7 346.2,70.8 349.7,69.7 353.3,68.5 356.8,66.5 360.4,64.3 363.9,62.7 367.5,62.1 371.1,61.5 374.6,60.0 378.2,58.8 381.7,58.1 385.3,57.2 388.8,56.8 392.4,56.6 395.9,55.8 399.5,54.5 403.0,53.5 406.6,52.6 410.1,51.5 413.7,51.0 417.2,50.6 420.8,49.7 424.3,48.8 427.9,48.1 431.4,47.4 435.0,47.1 438.6,46.9 442.1,46.4 445.7,45.7 449.2,45.2 452.8,44.7 456.3,44.3 459.9,43.9 463.4,43.5 467.0,43.1 470.5,42.8 474.1,42.4 477.6,41.7 481.2,41.1 484.7,40.5 488.3,40.1 491.8,39.7 495.4,39.4 498.9,39.1 502.5,38.7 506.1,37.7 509.6,37.0 513.2,36.2 516.7,35.8 520.3,35.7 523.8,35.3 527.4,34.9 530.9,34.3 534.5,33.8 538.0,33.2 541.6,32.8 545.1,32.6 548.7,32.3 552.2,32.0 555.8,31.7 559.3,31.3 562.9,30.9 566.4,30.3 570.0,30.0 570.0,30.0,120" />
  
  <!-- Linea principale -->
  <polyline fill="none" stroke="#0366d6" stroke-width="2.5" stroke-linecap="round" stroke-linejoin="round" points="30.0,120.0 33.6,118.9 37.1,117.7 40.7,116.6 44.2,116.3 47.8,115.8 51.3,114.5 54.9,113.6 58.4,113.0 62.0,111.7 65.5,111.0 69.1,110.3 72.6,109.9 76.2,109.3 79.7,108.4 83.3,107.5 86.8,106.7 90.4,106.2 93.9,105.9 97.5,105.3 101.1,104.6 104.6,103.9 108.2,103.6 111.7,103.0 115.3,100.9 118.8,100.3 122.4,99.5 125.9,98.6 129.5,97.9 133.0,97.2 136.6,96.8 140.1,96.4 143.7,95.8 147.2,94.8 150.8,93.9 154.3,93.3 157.9,92.6 161.4,92.4 165.0,92.2 168.6,91.9 172.1,91.2 175.7,90.8 179.2,90.5 182.8,89.7 186.3,88.6 189.9,88.3 193.4,88.1 197.0,87.6 200.5,86.7 204.1,86.1 207.6,85.2 211.2,84.5 214.7,83.7 218.3,83.5 221.8,83.0 225.4,82.2 228.9,81.3 232.5,80.7 236.1,80.4 239.6,80.0 243.2,79.6 246.7,78.7 250.3,77.8 253.8,77.0 257.4,76.2 260.9,75.8 264.5,75.6 268.0,75.2 271.6,74.6 275.1,74.2 278.7,73.8 282.2,73.5 285.8,73.2 289.3,72.7 292.9,72.4 296.4,72.2 300.0,72.0 303.6,71.1 307.1,70.7 310.7,70.5 314.2,70.2 317.8,70.0 321.3,70.0 324.9,84.3 328.4,82.9 332.0,81.7 335.5,80.3 339.1,76.4 342.6,73.7 346.2,70.8 349.7,69.7 353.3,68.5 356.8,66.5 360.4,64.3 363.9,62.7 367.5,62.1 371.1,61.5 374.6,60.0 378.2,58.8 381.7,58.1 385.3,57.2 388.8,56.8 392.4,56.6 395.9,55.8 399.5,54.5 403.0,53.5 406.6,52.6 410.1,51.5 413.7,51.0 417.2,50.6 420.8,49.7 424.3,48.8 427.9,48.1 431.4,47.4 435.0,47.1 438.6,46.9 442.1,46.4 445.7,45.7 449.2,45.2 452.8,44.7 456.3,44.3 459.9,43.9 463.4,43.5 467.0,43.1 470.5,42.8 474.1,42.4 477.6,41.7 481.2,41.1 484.7,40.5 488.3,40.1 491.8,39.7 495.4,39.4 498.9,39.1 502.5,38.7 506.1,37.7 509.6,37.0 513.2,36.2 516.7,35.8 520.3,35.7 523.8,35.3 527.4,34.9 530.9,34.3 534.5,33.8 538.0,33.2 541.6,32.8 545.1,32.6 548.7,32.3 552.2,32.0 555.8,31.7 559.3,31.3 562.9,30.9 566.4,30.3 570.0,30.0" />
  
  <!-- Punto finale luminoso -->
  <circle cx="570.0" cy="30.0" r="4" fill="#ffffff" stroke="#0366d6" stroke-width="2.5" />
</svg>