<svg width="600" height="150" viewBox="0 0 600 150" xmlns="http://www.w3.org/2000/svg">
  <defs>
    <filter id="shadow2" x="-2%" y="-2%" width="104%" height="108%">
      <feDropShadow dx="0" dy="2" stdDeviation="3" flood-opacity="0.1" />
    </filter>
    <linearGradient id="fillGrad" x1="0" y1="0" x2="0" y2="1">
      <stop offset="0%" stop-color="#0366d6" stop-opacity="0.3"/>
      <stop offset="100%" stop-color="#0366d6" stop-opacity="0.02"/>
    </linearGradient>
  </defs>
  <rect width="600" height="150" rx="12" fill="#ffffff" filter="url(#shadow2)" stroke="#e1e4e8" stroke-width="1"/>
  <text x="20" y="24" fill="#2b3137" font-family="-apple-system,BlinkMacSystemFont,'Segoe UI',Helvetica,Arial,sans-serif" font-size="14" font-weight="600">📈 Download Growth (Actual: 71.7k)</text>
  
  <!-- Area sotto la linea -->
  <polygon fill="url(#fillGrad)" points="30.0,120.0,120 30.0,120.0 37.1,117.9 44.2,115.6 51.3,113.6 58.4,113.1 65.5,112.0 72.6,109.6 79.7,108.0 86.8,106.9 93.9,104.4 101.1,103.1 108.2,101.9 115.3,101.1 122.4,100.0 129.5,98.3 136.6,96.5 143.7,95.1 150.8,94.2 157.9,93.5 165.0,92.4 172.1,91.1 179.2,89.9 186.3,89.3 193.4,88.2 200.5,84.3 207.6,83.1 214.7,81.5 221.8,80.0 228.9,78.6 236.1,77.3 243.2,76.4 250.3,75.8 257.4,74.7 264.5,72.7 271.6,71.1 278.7,69.9 285.8,68.6 292.9,68.2 300.0,67.9 307.1,67.2 314.2,66.0 321.3,65.2 328.4,64.7 335.5,63.2 342.6,61.1 349.7,60.6 356.8,60.2 363.9,59.3 371.1,57.6 378.2,56.5 385.3,54.8 392.4,53.5 399.5,52.0 406.6,51.6 413.7,50.7 420.8,49.1 427.9,47.5 435.0,46.3 442.1,45.8 449.2,45.0 456.3,44.3 463.4,42.5 470.5,40.8 477.6,39.3 484.7,37.9 491.8,37.1 498.9,36.7 506.1,36.0 513.2,34.8 520.3,34.0 527.4,33.3 534.5,32.8 541.6,32.2 548.7,31.4 555.8,30.8 562.9,30.4 570.0,30.0 570.0,30.0,120" />
  
  <!-- Linea principale -->
  <polyline fill="none" stroke="#0366d6" stroke-width="2.5" stroke-linecap="round" stroke-linejoin="round" points="30.0,120.0 37.1,117.9 44.2,115.6 51.3,113.6 58.4,113.1 65.5,112.0 72.6,109.6 79.7,108.0 86.8,106.9 93.9,104.4 101.1,103.1 108.2,101.9 115.3,101.1 122.4,100.0 129.5,98.3 136.6,96.5 143.7,95.1 150.8,94.2 157.9,93.5 165.0,92.4 172.1,91.1 179.2,89.9 186.3,89.3 193.4,88.2 200.5,84.3 207.6,83.1 214.7,81.5 221.8,80.0 228.9,78.6 236.1,77.3 243.2,76.4 250.3,75.8 257.4,74.7 264.5,72.7 271.6,71.1 278.7,69.9 285.8,68.6 292.9,68.2 300.0,67.9 307.1,67.2 314.2,66.0 321.3,65.2 328.4,64.7 335.5,63.2 342.6,61.1 349.7,60.6 356.8,60.2 363.9,59.3 371.1,57.6 378.2,56.5 385.3,54.8 392.4,53.5 399.5,52.0 406.6,51.6 413.7,50.7 420.8,49.1 427.9,47.5 435.0,46.3 442.1,45.8 449.2,45.0 456.3,44.3 463.4,42.5 470.5,40.8 477.6,39.3 484.7,37.9 491.8,37.1 498.9,36.7 506.1,36.0 513.2,34.8 520.3,34.0 527.4,33.3 534.5,32.8 541.6,32.2 548.7,31.4 555.8,30.8 562.9,30.4 570.0,30.0" />
  
  <!-- Punto finale luminoso -->
  <circle cx="570.0" cy="30.0" r="4" fill="#ffffff" stroke="#0366d6" stroke-width="2.5" />
</svg>