<svg width="600" height="150" viewBox="0 0 600 150" xmlns="http://www.w3.org/2000/svg">
  <defs>
    <filter id="shadow2" x="-2%" y="-2%" width="104%" height="108%">
      <feDropShadow dx="0" dy="2" stdDeviation="3" flood-opacity="0.1" />
    </filter>
    <linearGradient id="fillGrad" x1="0" y1="0" x2="0" y2="1">
      <stop offset="0%" stop-color="#0366d6" stop-opacity="0.3"/>
      <stop offset="100%" stop-color="#0366d6" stop-opacity="0.02"/>
    </linearGradient>
  </defs>
  <rect width="600" height="150" rx="12" fill="#ffffff" filter="url(#shadow2)" stroke="#e1e4e8" stroke-width="1"/>
  <text x="20" y="24" fill="#2b3137" font-family="-apple-system,BlinkMacSystemFont,'Segoe UI',Helvetica,Arial,sans-serif" font-size="14" font-weight="600">📈 Download Growth (Actual: 89.9k)</text>
  
  <!-- Area sotto la linea -->
  <polygon fill="url(#fillGrad)" points="30.0,120.0,120 30.0,120.0 31.1,119.6 32.2,119.1 33.3,118.7 34.4,118.6 35.4,118.3 36.5,117.8 37.6,117.5 38.7,117.3 39.8,116.7 40.9,116.5 42.0,116.2 43.1,116.1 44.2,115.8 45.2,115.5 46.3,115.1 47.4,114.8 48.5,114.6 49.6,114.5 50.7,114.2 51.8,114.0 52.9,113.7 54.0,113.6 55.0,113.4 56.1,112.5 57.2,112.3 58.3,112.0 59.4,111.6 60.5,111.4 61.6,111.1 62.7,110.9 63.8,110.8 64.8,110.5 65.9,110.1 67.0,109.8 68.1,109.6 69.2,109.3 70.3,109.2 71.4,109.1 72.5,109.0 73.5,108.7 74.6,108.6 75.7,108.4 76.8,108.1 77.9,107.7 79.0,107.6 80.1,107.5 81.2,107.3 82.3,107.0 83.3,106.7 84.4,106.4 85.5,106.1 86.6,105.8 87.7,105.7 88.8,105.5 89.9,105.2 91.0,104.9 92.1,104.6 93.1,104.5 94.2,104.3 95.3,104.2 96.4,103.8 97.5,103.5 98.6,103.2 99.7,102.9 100.8,102.7 101.9,102.6 102.9,102.5 104.0,102.2 105.1,102.1 106.2,101.9 107.3,101.8 108.4,101.7 109.5,101.5 110.6,101.4 111.7,101.3 112.7,101.2 113.8,100.9 114.9,100.7 116.0,100.6 117.1,100.5 118.2,100.4 119.3,100.4 120.4,106.0 121.5,105.5 122.5,105.0 123.6,104.5 124.7,102.9 125.8,101.9 126.9,100.7 128.0,100.3 129.1,99.8 130.2,99.0 131.2,98.2 132.3,97.6 133.4,97.3 134.5,97.1 135.6,96.5 136.7,96.1 137.8,95.8 138.9,95.4 140.0,95.3 141.0,95.2 142.1,94.9 143.2,94.3 144.3,94.0 145.4,93.6 146.5,93.2 147.6,93.0 148.7,92.8 149.8,92.5 150.8,92.1 151.9,91.8 153.0,91.6 154.1,91.5 155.2,91.4 156.3,91.2 157.4,90.9 158.5,90.7 159.6,90.5 160.6,90.4 161.7,90.2 162.8,90.0 163.9,89.9 165.0,89.8 166.1,89.6 167.2,89.3 168.3,89.1 169.4,88.9 170.4,88.7 171.5,88.6 172.6,88.5 173.7,88.3 174.8,88.2 175.9,87.8 177.0,87.5 178.1,87.2 179.2,87.0 180.2,87.0 181.3,86.8 182.4,86.7 183.5,86.5 184.6,86.3 185.7,86.0 186.8,85.9 187.9,85.8 189.0,85.6 190.0,85.5 191.1,85.4 192.2,85.3 193.3,85.1 194.4,84.9 195.5,84.8 196.6,84.7 197.7,84.6 198.8,84.5 199.8,84.3 200.9,84.1 202.0,83.9 203.1,83.8 204.2,83.6 205.3,83.4 206.4,83.4 207.5,83.2 208.5,83.0 209.6,82.8 210.7,82.6 211.8,82.4 212.9,82.1 214.0,82.0 215.1,81.9 216.2,81.9 217.3,81.7 218.3,81.6 219.4,81.4 220.5,81.3 221.6,81.1 222.7,81.0 223.8,80.9 224.9,80.8 226.0,80.7 227.1,80.6 228.1,80.3 229.2,80.2 230.3,80.1 231.4,80.0 232.5,79.9 233.6,79.7 234.7,79.6 235.8,79.5 236.9,79.4 237.9,79.2 239.0,78.9 240.1,78.7 241.2,78.6 242.3,78.5 243.4,78.5 244.5,78.3 245.6,78.1 246.7,78.0 247.7,77.9 248.8,77.7 249.9,77.6 251.0,77.4 252.1,77.4 253.2,77.3 254.3,77.1 255.4,76.9 256.5,76.7 257.5,76.6 258.6,76.5 259.7,76.4 260.8,76.4 261.9,76.2 263.0,76.1 264.1,76.0 265.2,75.8 266.2,75.7 267.3,75.6 268.4,75.5 269.5,75.4 270.6,75.3 271.7,75.1 272.8,74.9 273.9,74.8 275.0,74.6 276.0,74.5 277.1,74.4 278.2,74.4 279.3,74.3 280.4,74.2 281.5,74.1 282.6,73.9 283.7,73.8 284.8,73.6 285.8,73.6 286.9,73.4 288.0,73.3 289.1,73.2 290.2,73.1 291.3,73.0 292.4,72.9 293.5,72.7 294.6,72.6 295.6,72.4 296.7,72.4 297.8,72.3 298.9,72.2 300.0,72.1 301.1,72.0 302.2,71.9 303.3,71.9 304.4,71.7 305.4,71.5 306.5,71.3 307.6,75.0 308.7,74.2 309.8,72.9 310.9,72.3 312.0,71.7 313.1,70.9 314.2,70.5 315.2,70.2 316.3,69.7 317.4,68.9 318.5,68.3 319.6,68.1 320.7,67.8 321.8,67.5 322.9,67.1 324.0,66.7 325.0,66.3 326.1,66.1 327.2,65.7 328.3,65.5 329.4,65.2 330.5,65.0 331.6,64.8 332.7,64.6 333.8,64.2 334.8,64.0 335.9,63.6 337.0,63.1 338.1,62.8 339.2,62.6 340.3,62.5 341.4,62.3 342.5,62.0 343.5,61.7 344.6,61.4 345.7,60.7 346.8,60.1 347.9,59.8 349.0,59.7 350.1,59.4 351.2,59.0 352.3,58.7 353.3,58.5 354.4,58.2 355.5,57.9 356.6,57.7 357.7,57.4 358.8,57.1 359.9,56.9 361.0,56.8 362.1,56.6 363.1,56.3 364.2,56.0 365.3,55.9 366.4,55.7 367.5,55.6 368.6,55.4 369.7,55.2 370.8,55.1 371.9,54.9 372.9,54.8 374.0,54.6 375.1,54.4 376.2,54.2 377.3,53.9 378.4,53.6 379.5,53.4 380.6,53.3 381.7,53.1 382.7,53.0 383.8,52.8 384.9,52.7 386.0,52.5 387.1,52.4 388.2,52.3 389.3,52.1 390.4,52.1 391.5,51.8 392.5,51.7 393.6,51.5 394.7,51.3 395.8,51.1 396.9,50.7 398.0,50.6 399.1,50.4 400.2,50.2 401.2,50.0 402.3,49.8 403.4,49.6 404.5,49.5 405.6,49.4 406.7,49.3 407.8,49.1 408.9,48.9 410.0,48.7 411.0,48.6 412.1,48.4 413.2,48.2 414.3,48.1 415.4,47.8 416.5,47.7 417.6,47.4 418.7,47.2 419.8,47.1 420.8,47.0 421.9,46.8 423.0,46.7 424.1,46.5 425.2,46.4 426.3,46.2 427.4,46.1 428.5,45.9 429.6,45.8 430.6,45.7 431.7,45.6 432.8,45.4 433.9,45.3 435.0,45.2 436.1,45.1 437.2,44.9 438.3,44.8 439.4,44.6 440.4,44.5 441.5,44.4 442.6,44.2 443.7,44.0 444.8,43.9 445.9,43.8 447.0,43.7 448.1,43.5 449.2,43.3 450.2,43.1 451.3,43.0 452.4,42.9 453.5,42.8 454.6,42.7 455.7,42.5 456.8,42.3 457.9,42.1 459.0,42.0 460.0,41.8 461.1,41.7 462.2,41.6 463.3,41.4 464.4,41.3 465.5,41.1 466.6,40.9 467.7,40.8 468.8,40.6 469.8,40.4 470.9,40.3 472.0,40.0 473.1,39.9 474.2,39.8 475.3,39.5 476.4,39.4 477.5,39.2 478.5,39.1 479.6,39.0 480.7,38.8 481.8,38.6 482.9,38.5 484.0,38.4 485.1,38.2 486.2,38.0 487.3,37.8 488.3,37.7 489.4,37.5 490.5,37.4 491.6,37.3 492.7,37.1 493.8,37.0 494.9,36.9 496.0,36.8 497.1,36.7 498.1,36.6 499.2,36.4 500.3,36.4 501.4,36.2 502.5,36.1 503.6,35.9 504.7,35.8 505.8,35.7 506.9,35.6 507.9,35.5 509.0,35.3 510.1,35.3 511.2,35.2 512.3,35.1 513.4,47.1 514.5,45.8 515.6,44.9 516.7,44.1 517.7,43.5 518.8,43.0 519.9,42.3 521.0,41.7 522.1,40.7 523.2,40.4 524.3,39.8 525.4,39.4 526.5,38.8 527.5,38.5 528.6,38.2 529.7,38.0 530.8,37.5 531.9,37.0 533.0,36.6 534.1,36.1 535.2,35.7 536.2,35.4 537.3,35.3 538.4,35.0 539.5,34.7 540.6,34.5 541.7,34.4 542.8,34.4 543.9,34.4 545.0,34.4 546.0,34.4 547.1,34.2 548.2,34.0 549.3,33.8 550.4,33.5 551.5,33.3 552.6,33.0 553.7,32.8 554.8,32.6 555.8,32.5 556.9,32.3 558.0,32.1 559.1,31.9 560.2,31.7 561.3,31.5 562.4,31.3 563.5,31.0 564.6,30.8 565.6,30.6 566.7,30.5 567.8,30.3 568.9,30.1 570.0,30.0 570.0,30.0,120" />
  
  <!-- Linea principale -->
  <polyline fill="none" stroke="#0366d6" stroke-width="2.5" stroke-linecap="round" stroke-linejoin="round" points="30.0,120.0 31.1,119.6 32.2,119.1 33.3,118.7 34.4,118.6 35.4,118.3 36.5,117.8 37.6,117.5 38.7,117.3 39.8,116.7 40.9,116.5 42.0,116.2 43.1,116.1 44.2,115.8 45.2,115.5 46.3,115.1 47.4,114.8 48.5,114.6 49.6,114.5 50.7,114.2 51.8,114.0 52.9,113.7 54.0,113.6 55.0,113.4 56.1,112.5 57.2,112.3 58.3,112.0 59.4,111.6 60.5,111.4 61.6,111.1 62.7,110.9 63.8,110.8 64.8,110.5 65.9,110.1 67.0,109.8 68.1,109.6 69.2,109.3 70.3,109.2 71.4,109.1 72.5,109.0 73.5,108.7 74.6,108.6 75.7,108.4 76.8,108.1 77.9,107.7 79.0,107.6 80.1,107.5 81.2,107.3 82.3,107.0 83.3,106.7 84.4,106.4 85.5,106.1 86.6,105.8 87.7,105.7 88.8,105.5 89.9,105.2 91.0,104.9 92.1,104.6 93.1,104.5 94.2,104.3 95.3,104.2 96.4,103.8 97.5,103.5 98.6,103.2 99.7,102.9 100.8,102.7 101.9,102.6 102.9,102.5 104.0,102.2 105.1,102.1 106.2,101.9 107.3,101.8 108.4,101.7 109.5,101.5 110.6,101.4 111.7,101.3 112.7,101.2 113.8,100.9 114.9,100.7 116.0,100.6 117.1,100.5 118.2,100.4 119.3,100.4 120.4,106.0 121.5,105.5 122.5,105.0 123.6,104.5 124.7,102.9 125.8,101.9 126.9,100.7 128.0,100.3 129.1,99.8 130.2,99.0 131.2,98.2 132.3,97.6 133.4,97.3 134.5,97.1 135.6,96.5 136.7,96.1 137.8,95.8 138.9,95.4 140.0,95.3 141.0,95.2 142.1,94.9 143.2,94.3 144.3,94.0 145.4,93.6 146.5,93.2 147.6,93.0 148.7,92.8 149.8,92.5 150.8,92.1 151.9,91.8 153.0,91.6 154.1,91.5 155.2,91.4 156.3,91.2 157.4,90.9 158.5,90.7 159.6,90.5 160.6,90.4 161.7,90.2 162.8,90.0 163.9,89.9 165.0,89.8 166.1,89.6 167.2,89.3 168.3,89.1 169.4,88.9 170.4,88.7 171.5,88.6 172.6,88.5 173.7,88.3 174.8,88.2 175.9,87.8 177.0,87.5 178.1,87.2 179.2,87.0 180.2,87.0 181.3,86.8 182.4,86.7 183.5,86.5 184.6,86.3 185.7,86.0 186.8,85.9 187.9,85.8 189.0,85.6 190.0,85.5 191.1,85.4 192.2,85.3 193.3,85.1 194.4,84.9 195.5,84.8 196.6,84.7 197.7,84.6 198.8,84.5 199.8,84.3 200.9,84.1 202.0,83.9 203.1,83.8 204.2,83.6 205.3,83.4 206.4,83.4 207.5,83.2 208.5,83.0 209.6,82.8 210.7,82.6 211.8,82.4 212.9,82.1 214.0,82.0 215.1,81.9 216.2,81.9 217.3,81.7 218.3,81.6 219.4,81.4 220.5,81.3 221.6,81.1 222.7,81.0 223.8,80.9 224.9,80.8 226.0,80.7 227.1,80.6 228.1,80.3 229.2,80.2 230.3,80.1 231.4,80.0 232.5,79.9 233.6,79.7 234.7,79.6 235.8,79.5 236.9,79.4 237.9,79.2 239.0,78.9 240.1,78.7 241.2,78.6 242.3,78.5 243.4,78.5 244.5,78.3 245.6,78.1 246.7,78.0 247.7,77.9 248.8,77.7 249.9,77.6 251.0,77.4 252.1,77.4 253.2,77.3 254.3,77.1 255.4,76.9 256.5,76.7 257.5,76.6 258.6,76.5 259.7,76.4 260.8,76.4 261.9,76.2 263.0,76.1 264.1,76.0 265.2,75.8 266.2,75.7 267.3,75.6 268.4,75.5 269.5,75.4 270.6,75.3 271.7,75.1 272.8,74.9 273.9,74.8 275.0,74.6 276.0,74.5 277.1,74.4 278.2,74.4 279.3,74.3 280.4,74.2 281.5,74.1 282.6,73.9 283.7,73.8 284.8,73.6 285.8,73.6 286.9,73.4 288.0,73.3 289.1,73.2 290.2,73.1 291.3,73.0 292.4,72.9 293.5,72.7 294.6,72.6 295.6,72.4 296.7,72.4 297.8,72.3 298.9,72.2 300.0,72.1 301.1,72.0 302.2,71.9 303.3,71.9 304.4,71.7 305.4,71.5 306.5,71.3 307.6,75.0 308.7,74.2 309.8,72.9 310.9,72.3 312.0,71.7 313.1,70.9 314.2,70.5 315.2,70.2 316.3,69.7 317.4,68.9 318.5,68.3 319.6,68.1 320.7,67.8 321.8,67.5 322.9,67.1 324.0,66.7 325.0,66.3 326.1,66.1 327.2,65.7 328.3,65.5 329.4,65.2 330.5,65.0 331.6,64.8 332.7,64.6 333.8,64.2 334.8,64.0 335.9,63.6 337.0,63.1 338.1,62.8 339.2,62.6 340.3,62.5 341.4,62.3 342.5,62.0 343.5,61.7 344.6,61.4 345.7,60.7 346.8,60.1 347.9,59.8 349.0,59.7 350.1,59.4 351.2,59.0 352.3,58.7 353.3,58.5 354.4,58.2 355.5,57.9 356.6,57.7 357.7,57.4 358.8,57.1 359.9,56.9 361.0,56.8 362.1,56.6 363.1,56.3 364.2,56.0 365.3,55.9 366.4,55.7 367.5,55.6 368.6,55.4 369.7,55.2 370.8,55.1 371.9,54.9 372.9,54.8 374.0,54.6 375.1,54.4 376.2,54.2 377.3,53.9 378.4,53.6 379.5,53.4 380.6,53.3 381.7,53.1 382.7,53.0 383.8,52.8 384.9,52.7 386.0,52.5 387.1,52.4 388.2,52.3 389.3,52.1 390.4,52.1 391.5,51.8 392.5,51.7 393.6,51.5 394.7,51.3 395.8,51.1 396.9,50.7 398.0,50.6 399.1,50.4 400.2,50.2 401.2,50.0 402.3,49.8 403.4,49.6 404.5,49.5 405.6,49.4 406.7,49.3 407.8,49.1 408.9,48.9 410.0,48.7 411.0,48.6 412.1,48.4 413.2,48.2 414.3,48.1 415.4,47.8 416.5,47.7 417.6,47.4 418.7,47.2 419.8,47.1 420.8,47.0 421.9,46.8 423.0,46.7 424.1,46.5 425.2,46.4 426.3,46.2 427.4,46.1 428.5,45.9 429.6,45.8 430.6,45.7 431.7,45.6 432.8,45.4 433.9,45.3 435.0,45.2 436.1,45.1 437.2,44.9 438.3,44.8 439.4,44.6 440.4,44.5 441.5,44.4 442.6,44.2 443.7,44.0 444.8,43.9 445.9,43.8 447.0,43.7 448.1,43.5 449.2,43.3 450.2,43.1 451.3,43.0 452.4,42.9 453.5,42.8 454.6,42.7 455.7,42.5 456.8,42.3 457.9,42.1 459.0,42.0 460.0,41.8 461.1,41.7 462.2,41.6 463.3,41.4 464.4,41.3 465.5,41.1 466.6,40.9 467.7,40.8 468.8,40.6 469.8,40.4 470.9,40.3 472.0,40.0 473.1,39.9 474.2,39.8 475.3,39.5 476.4,39.4 477.5,39.2 478.5,39.1 479.6,39.0 480.7,38.8 481.8,38.6 482.9,38.5 484.0,38.4 485.1,38.2 486.2,38.0 487.3,37.8 488.3,37.7 489.4,37.5 490.5,37.4 491.6,37.3 492.7,37.1 493.8,37.0 494.9,36.9 496.0,36.8 497.1,36.7 498.1,36.6 499.2,36.4 500.3,36.4 501.4,36.2 502.5,36.1 503.6,35.9 504.7,35.8 505.8,35.7 506.9,35.6 507.9,35.5 509.0,35.3 510.1,35.3 511.2,35.2 512.3,35.1 513.4,47.1 514.5,45.8 515.6,44.9 516.7,44.1 517.7,43.5 518.8,43.0 519.9,42.3 521.0,41.7 522.1,40.7 523.2,40.4 524.3,39.8 525.4,39.4 526.5,38.8 527.5,38.5 528.6,38.2 529.7,38.0 530.8,37.5 531.9,37.0 533.0,36.6 534.1,36.1 535.2,35.7 536.2,35.4 537.3,35.3 538.4,35.0 539.5,34.7 540.6,34.5 541.7,34.4 542.8,34.4 543.9,34.4 545.0,34.4 546.0,34.4 547.1,34.2 548.2,34.0 549.3,33.8 550.4,33.5 551.5,33.3 552.6,33.0 553.7,32.8 554.8,32.6 555.8,32.5 556.9,32.3 558.0,32.1 559.1,31.9 560.2,31.7 561.3,31.5 562.4,31.3 563.5,31.0 564.6,30.8 565.6,30.6 566.7,30.5 567.8,30.3 568.9,30.1 570.0,30.0" />
  
  <!-- Punto finale luminoso -->
  <circle cx="570.0" cy="30.0" r="4" fill="#ffffff" stroke="#0366d6" stroke-width="2.5" />
</svg>