<svg width="600" height="150" viewBox="0 0 600 150" xmlns="http://www.w3.org/2000/svg">
  <defs>
    <filter id="shadow2" x="-2%" y="-2%" width="104%" height="108%">
      <feDropShadow dx="0" dy="2" stdDeviation="3" flood-opacity="0.1" />
    </filter>
    <linearGradient id="fillGrad" x1="0" y1="0" x2="0" y2="1">
      <stop offset="0%" stop-color="#0366d6" stop-opacity="0.3"/>
      <stop offset="100%" stop-color="#0366d6" stop-opacity="0.02"/>
    </linearGradient>
  </defs>
  <rect width="600" height="150" rx="12" fill="#ffffff" filter="url(#shadow2)" stroke="#e1e4e8" stroke-width="1"/>
  <text x="20" y="24" fill="#2b3137" font-family="-apple-system,BlinkMacSystemFont,'Segoe UI',Helvetica,Arial,sans-serif" font-size="14" font-weight="600">📈 Download Growth (Actual: 88.2k)</text>
  
  <!-- Area sotto la linea -->
  <polygon fill="url(#fillGrad)" points="30.0,120.0,120 30.0,120.0 31.2,119.5 32.5,119.0 33.8,118.6 35.0,118.4 36.2,118.2 37.5,117.7 38.8,117.3 40.0,117.1 41.2,116.5 42.5,116.2 43.8,115.9 45.0,115.8 46.2,115.5 47.5,115.1 48.8,114.7 50.0,114.4 51.2,114.2 52.5,114.1 53.8,113.8 55.0,113.5 56.2,113.2 57.5,113.1 58.8,112.9 60.0,112.0 61.2,111.7 62.5,111.4 63.8,111.0 65.0,110.7 66.2,110.4 67.5,110.2 68.8,110.1 70.0,109.8 71.2,109.4 72.5,109.0 73.8,108.8 75.0,108.5 76.2,108.4 77.5,108.3 78.8,108.1 80.0,107.9 81.2,107.7 82.5,107.6 83.8,107.2 85.0,106.8 86.2,106.6 87.5,106.6 88.8,106.4 90.0,106.0 91.2,105.7 92.5,105.3 93.8,105.1 95.0,104.7 96.2,104.6 97.5,104.4 98.8,104.1 100.0,103.7 101.2,103.4 102.5,103.3 103.8,103.1 105.0,103.0 106.2,102.6 107.5,102.2 108.8,101.9 110.0,101.5 111.2,101.4 112.5,101.3 113.8,101.1 115.0,100.9 116.2,100.7 117.5,100.5 118.8,100.4 120.0,100.3 121.2,100.1 122.5,100.0 123.8,99.9 125.0,99.8 126.2,99.4 127.5,99.2 128.8,99.1 130.0,99.0 131.2,98.9 132.5,98.9 133.8,105.0 135.0,104.4 136.2,103.8 137.5,103.3 138.8,101.6 140.0,100.5 141.2,99.3 142.5,98.8 143.8,98.3 145.0,97.5 146.2,96.5 147.5,95.9 148.8,95.6 150.0,95.4 151.2,94.7 152.5,94.2 153.8,93.9 155.0,93.5 156.2,93.4 157.5,93.3 158.8,93.0 160.0,92.4 161.2,92.0 162.5,91.6 163.8,91.1 165.0,90.9 166.2,90.8 167.5,90.4 168.8,90.0 170.0,89.7 171.2,89.4 172.5,89.3 173.8,89.2 175.0,89.0 176.2,88.7 177.5,88.5 178.8,88.3 180.0,88.1 181.2,87.9 182.5,87.8 183.8,87.6 185.0,87.5 186.2,87.3 187.5,87.0 188.7,86.8 190.0,86.5 191.2,86.3 192.5,86.2 193.8,86.0 195.0,85.9 196.2,85.8 197.5,85.3 198.8,85.0 200.0,84.7 201.2,84.5 202.5,84.5 203.8,84.3 205.0,84.1 206.2,83.9 207.5,83.7 208.8,83.4 210.0,83.3 211.2,83.2 212.5,83.0 213.8,82.9 215.0,82.8 216.2,82.6 217.5,82.5 218.8,82.2 220.0,82.1 221.2,82.0 222.5,81.9 223.8,81.8 225.0,81.6 226.2,81.4 227.5,81.2 228.8,81.0 230.0,80.8 231.2,80.7 232.5,80.6 233.8,80.4 235.0,80.2 236.2,79.9 237.5,79.7 238.8,79.5 240.0,79.2 241.2,79.1 242.5,79.0 243.8,78.9 245.0,78.8 246.2,78.6 247.5,78.5 248.8,78.3 250.0,78.2 251.2,78.0 252.5,77.9 253.8,77.8 255.0,77.7 256.2,77.5 257.5,77.3 258.8,77.2 260.0,77.0 261.2,76.9 262.5,76.8 263.8,76.7 265.0,76.6 266.2,76.4 267.5,76.3 268.8,76.0 270.0,75.8 271.2,75.6 272.5,75.4 273.8,75.4 275.0,75.3 276.2,75.1 277.5,74.9 278.8,74.8 280.0,74.7 281.2,74.5 282.5,74.4 283.8,74.2 285.0,74.1 286.2,74.0 287.5,73.8 288.8,73.6 290.0,73.4 291.2,73.2 292.5,73.2 293.8,73.1 295.0,73.0 296.2,72.9 297.5,72.8 298.8,72.6 300.0,72.5 301.2,72.3 302.5,72.2 303.8,72.1 305.0,72.0 306.2,71.9 307.5,71.7 308.8,71.5 310.0,71.3 311.2,71.2 312.5,71.1 313.7,71.0 315.0,70.9 316.2,70.8 317.5,70.7 318.8,70.6 320.0,70.4 321.2,70.2 322.5,70.1 323.8,70.0 325.0,69.9 326.2,69.8 327.5,69.6 328.8,69.5 330.0,69.4 331.2,69.3 332.5,69.1 333.8,69.0 335.0,68.8 336.2,68.7 337.5,68.7 338.8,68.6 340.0,68.5 341.2,68.3 342.5,68.2 343.8,68.2 345.0,68.1 346.2,67.8 347.5,67.6 348.8,71.5 350.0,70.7 351.2,69.3 352.5,68.7 353.8,68.0 355.0,67.2 356.2,66.7 357.5,66.4 358.8,65.8 360.0,65.0 361.2,64.3 362.5,64.1 363.8,63.8 365.0,63.5 366.2,63.1 367.5,62.7 368.8,62.2 370.0,62.0 371.2,61.5 372.5,61.3 373.8,61.0 375.0,60.8 376.2,60.6 377.5,60.4 378.8,60.0 380.0,59.7 381.2,59.3 382.5,58.7 383.8,58.4 385.0,58.2 386.2,58.1 387.5,57.9 388.8,57.5 390.0,57.2 391.2,57.0 392.5,56.2 393.8,55.5 395.0,55.2 396.2,55.1 397.5,54.8 398.8,54.4 400.0,54.0 401.2,53.8 402.5,53.5 403.8,53.2 405.0,52.9 406.2,52.7 407.5,52.3 408.8,52.1 410.0,51.9 411.2,51.8 412.5,51.4 413.8,51.2 415.0,51.0 416.2,50.8 417.5,50.7 418.8,50.4 420.0,50.3 421.3,50.1 422.5,49.9 423.8,49.8 425.0,49.6 426.2,49.4 427.5,49.2 428.8,48.9 430.0,48.6 431.2,48.3 432.5,48.2 433.8,48.0 435.0,47.9 436.2,47.7 437.5,47.5 438.8,47.4 440.0,47.3 441.2,47.2 442.5,47.0 443.8,46.9 445.0,46.6 446.2,46.5 447.5,46.3 448.7,46.1 450.0,45.8 451.2,45.5 452.5,45.3 453.8,45.1 455.0,44.9 456.2,44.7 457.5,44.5 458.8,44.3 460.0,44.1 461.2,44.0 462.5,43.9 463.8,43.7 465.0,43.4 466.2,43.3 467.5,43.2 468.8,43.0 470.0,42.7 471.2,42.6 472.5,42.3 473.8,42.2 475.0,41.9 476.2,41.7 477.5,41.5 478.8,41.4 480.0,41.3 481.2,41.1 482.5,40.9 483.8,40.8 485.0,40.5 486.2,40.4 487.5,40.3 488.8,40.2 490.0,40.0 491.2,39.9 492.5,39.7 493.8,39.6 495.0,39.5 496.2,39.3 497.5,39.2 498.8,39.0 500.0,38.9 501.2,38.8 502.5,38.6 503.8,38.4 505.0,38.2 506.2,38.1 507.5,38.0 508.8,37.9 510.0,37.6 511.2,37.5 512.5,37.2 513.8,37.1 515.0,37.0 516.2,36.9 517.5,36.8 518.8,36.6 520.0,36.4 521.2,36.1 522.5,36.1 523.8,35.8 525.0,35.8 526.2,35.6 527.5,35.5 528.8,35.3 530.0,35.1 531.2,34.9 532.5,34.8 533.8,34.5 535.0,34.3 536.2,34.2 537.5,33.9 538.8,33.8 540.0,33.6 541.2,33.4 542.5,33.2 543.8,33.0 545.0,32.9 546.2,32.8 547.5,32.6 548.8,32.4 550.0,32.3 551.2,32.1 552.5,32.0 553.8,31.7 555.0,31.5 556.2,31.4 557.5,31.3 558.8,31.1 560.0,31.0 561.2,30.8 562.5,30.7 563.8,30.5 565.0,30.5 566.2,30.3 567.5,30.2 568.8,30.1 570.0,30.0 570.0,30.0,120" />
  
  <!-- Linea principale -->
  <polyline fill="none" stroke="#0366d6" stroke-width="2.5" stroke-linecap="round" stroke-linejoin="round" points="30.0,120.0 31.2,119.5 32.5,119.0 33.8,118.6 35.0,118.4 36.2,118.2 37.5,117.7 38.8,117.3 40.0,117.1 41.2,116.5 42.5,116.2 43.8,115.9 45.0,115.8 46.2,115.5 47.5,115.1 48.8,114.7 50.0,114.4 51.2,114.2 52.5,114.1 53.8,113.8 55.0,113.5 56.2,113.2 57.5,113.1 58.8,112.9 60.0,112.0 61.2,111.7 62.5,111.4 63.8,111.0 65.0,110.7 66.2,110.4 67.5,110.2 68.8,110.1 70.0,109.8 71.2,109.4 72.5,109.0 73.8,108.8 75.0,108.5 76.2,108.4 77.5,108.3 78.8,108.1 80.0,107.9 81.2,107.7 82.5,107.6 83.8,107.2 85.0,106.8 86.2,106.6 87.5,106.6 88.8,106.4 90.0,106.0 91.2,105.7 92.5,105.3 93.8,105.1 95.0,104.7 96.2,104.6 97.5,104.4 98.8,104.1 100.0,103.7 101.2,103.4 102.5,103.3 103.8,103.1 105.0,103.0 106.2,102.6 107.5,102.2 108.8,101.9 110.0,101.5 111.2,101.4 112.5,101.3 113.8,101.1 115.0,100.9 116.2,100.7 117.5,100.5 118.8,100.4 120.0,100.3 121.2,100.1 122.5,100.0 123.8,99.9 125.0,99.8 126.2,99.4 127.5,99.2 128.8,99.1 130.0,99.0 131.2,98.9 132.5,98.9 133.8,105.0 135.0,104.4 136.2,103.8 137.5,103.3 138.8,101.6 140.0,100.5 141.2,99.3 142.5,98.8 143.8,98.3 145.0,97.5 146.2,96.5 147.5,95.9 148.8,95.6 150.0,95.4 151.2,94.7 152.5,94.2 153.8,93.9 155.0,93.5 156.2,93.4 157.5,93.3 158.8,93.0 160.0,92.4 161.2,92.0 162.5,91.6 163.8,91.1 165.0,90.9 166.2,90.8 167.5,90.4 168.8,90.0 170.0,89.7 171.2,89.4 172.5,89.3 173.8,89.2 175.0,89.0 176.2,88.7 177.5,88.5 178.8,88.3 180.0,88.1 181.2,87.9 182.5,87.8 183.8,87.6 185.0,87.5 186.2,87.3 187.5,87.0 188.7,86.8 190.0,86.5 191.2,86.3 192.5,86.2 193.8,86.0 195.0,85.9 196.2,85.8 197.5,85.3 198.8,85.0 200.0,84.7 201.2,84.5 202.5,84.5 203.8,84.3 205.0,84.1 206.2,83.9 207.5,83.7 208.8,83.4 210.0,83.3 211.2,83.2 212.5,83.0 213.8,82.9 215.0,82.8 216.2,82.6 217.5,82.5 218.8,82.2 220.0,82.1 221.2,82.0 222.5,81.9 223.8,81.8 225.0,81.6 226.2,81.4 227.5,81.2 228.8,81.0 230.0,80.8 231.2,80.7 232.5,80.6 233.8,80.4 235.0,80.2 236.2,79.9 237.5,79.7 238.8,79.5 240.0,79.2 241.2,79.1 242.5,79.0 243.8,78.9 245.0,78.8 246.2,78.6 247.5,78.5 248.8,78.3 250.0,78.2 251.2,78.0 252.5,77.9 253.8,77.8 255.0,77.7 256.2,77.5 257.5,77.3 258.8,77.2 260.0,77.0 261.2,76.9 262.5,76.8 263.8,76.7 265.0,76.6 266.2,76.4 267.5,76.3 268.8,76.0 270.0,75.8 271.2,75.6 272.5,75.4 273.8,75.4 275.0,75.3 276.2,75.1 277.5,74.9 278.8,74.8 280.0,74.7 281.2,74.5 282.5,74.4 283.8,74.2 285.0,74.1 286.2,74.0 287.5,73.8 288.8,73.6 290.0,73.4 291.2,73.2 292.5,73.2 293.8,73.1 295.0,73.0 296.2,72.9 297.5,72.8 298.8,72.6 300.0,72.5 301.2,72.3 302.5,72.2 303.8,72.1 305.0,72.0 306.2,71.9 307.5,71.7 308.8,71.5 310.0,71.3 311.2,71.2 312.5,71.1 313.7,71.0 315.0,70.9 316.2,70.8 317.5,70.7 318.8,70.6 320.0,70.4 321.2,70.2 322.5,70.1 323.8,70.0 325.0,69.9 326.2,69.8 327.5,69.6 328.8,69.5 330.0,69.4 331.2,69.3 332.5,69.1 333.8,69.0 335.0,68.8 336.2,68.7 337.5,68.7 338.8,68.6 340.0,68.5 341.2,68.3 342.5,68.2 343.8,68.2 345.0,68.1 346.2,67.8 347.5,67.6 348.8,71.5 350.0,70.7 351.2,69.3 352.5,68.7 353.8,68.0 355.0,67.2 356.2,66.7 357.5,66.4 358.8,65.8 360.0,65.0 361.2,64.3 362.5,64.1 363.8,63.8 365.0,63.5 366.2,63.1 367.5,62.7 368.8,62.2 370.0,62.0 371.2,61.5 372.5,61.3 373.8,61.0 375.0,60.8 376.2,60.6 377.5,60.4 378.8,60.0 380.0,59.7 381.2,59.3 382.5,58.7 383.8,58.4 385.0,58.2 386.2,58.1 387.5,57.9 388.8,57.5 390.0,57.2 391.2,57.0 392.5,56.2 393.8,55.5 395.0,55.2 396.2,55.1 397.5,54.8 398.8,54.4 400.0,54.0 401.2,53.8 402.5,53.5 403.8,53.2 405.0,52.9 406.2,52.7 407.5,52.3 408.8,52.1 410.0,51.9 411.2,51.8 412.5,51.4 413.8,51.2 415.0,51.0 416.2,50.8 417.5,50.7 418.8,50.4 420.0,50.3 421.3,50.1 422.5,49.9 423.8,49.8 425.0,49.6 426.2,49.4 427.5,49.2 428.8,48.9 430.0,48.6 431.2,48.3 432.5,48.2 433.8,48.0 435.0,47.9 436.2,47.7 437.5,47.5 438.8,47.4 440.0,47.3 441.2,47.2 442.5,47.0 443.8,46.9 445.0,46.6 446.2,46.5 447.5,46.3 448.7,46.1 450.0,45.8 451.2,45.5 452.5,45.3 453.8,45.1 455.0,44.9 456.2,44.7 457.5,44.5 458.8,44.3 460.0,44.1 461.2,44.0 462.5,43.9 463.8,43.7 465.0,43.4 466.2,43.3 467.5,43.2 468.8,43.0 470.0,42.7 471.2,42.6 472.5,42.3 473.8,42.2 475.0,41.9 476.2,41.7 477.5,41.5 478.8,41.4 480.0,41.3 481.2,41.1 482.5,40.9 483.8,40.8 485.0,40.5 486.2,40.4 487.5,40.3 488.8,40.2 490.0,40.0 491.2,39.9 492.5,39.7 493.8,39.6 495.0,39.5 496.2,39.3 497.5,39.2 498.8,39.0 500.0,38.9 501.2,38.8 502.5,38.6 503.8,38.4 505.0,38.2 506.2,38.1 507.5,38.0 508.8,37.9 510.0,37.6 511.2,37.5 512.5,37.2 513.8,37.1 515.0,37.0 516.2,36.9 517.5,36.8 518.8,36.6 520.0,36.4 521.2,36.1 522.5,36.1 523.8,35.8 525.0,35.8 526.2,35.6 527.5,35.5 528.8,35.3 530.0,35.1 531.2,34.9 532.5,34.8 533.8,34.5 535.0,34.3 536.2,34.2 537.5,33.9 538.8,33.8 540.0,33.6 541.2,33.4 542.5,33.2 543.8,33.0 545.0,32.9 546.2,32.8 547.5,32.6 548.8,32.4 550.0,32.3 551.2,32.1 552.5,32.0 553.8,31.7 555.0,31.5 556.2,31.4 557.5,31.3 558.8,31.1 560.0,31.0 561.2,30.8 562.5,30.7 563.8,30.5 565.0,30.5 566.2,30.3 567.5,30.2 568.8,30.1 570.0,30.0" />
  
  <!-- Punto finale luminoso -->
  <circle cx="570.0" cy="30.0" r="4" fill="#ffffff" stroke="#0366d6" stroke-width="2.5" />
</svg>