<svg width="600" height="150" viewBox="0 0 600 150" xmlns="http://www.w3.org/2000/svg">
  <defs>
    <filter id="shadow2" x="-2%" y="-2%" width="104%" height="108%">
      <feDropShadow dx="0" dy="2" stdDeviation="3" flood-opacity="0.1" />
    </filter>
    <linearGradient id="fillGrad" x1="0" y1="0" x2="0" y2="1">
      <stop offset="0%" stop-color="#0366d6" stop-opacity="0.3"/>
      <stop offset="100%" stop-color="#0366d6" stop-opacity="0.02"/>
    </linearGradient>
  </defs>
  <rect width="600" height="150" rx="12" fill="#ffffff" filter="url(#shadow2)" stroke="#e1e4e8" stroke-width="1"/>
  <text x="20" y="24" fill="#2b3137" font-family="-apple-system,BlinkMacSystemFont,'Segoe UI',Helvetica,Arial,sans-serif" font-size="14" font-weight="600">📈 Download Growth (Actual: 86.6k)</text>
  
  <!-- Area sotto la linea -->
  <polygon fill="url(#fillGrad)" points="30.0,120.0,120 30.0,120.0 31.4,119.5 32.8,118.9 34.2,118.4 35.6,118.3 36.9,118.1 38.3,117.5 39.7,117.1 41.1,116.8 42.5,116.2 43.9,115.9 45.3,115.6 46.7,115.4 48.0,115.1 49.4,114.7 50.8,114.3 52.2,113.9 53.6,113.7 55.0,113.6 56.4,113.3 57.8,113.0 59.2,112.7 60.5,112.5 61.9,112.3 63.3,111.3 64.7,111.0 66.1,110.6 67.5,110.3 68.9,109.9 70.3,109.6 71.6,109.4 73.0,109.2 74.4,109.0 75.8,108.5 77.2,108.1 78.6,107.8 80.0,107.5 81.4,107.4 82.8,107.3 84.1,107.2 85.5,106.8 86.9,106.7 88.3,106.5 89.7,106.2 91.1,105.7 92.5,105.5 93.9,105.4 95.2,105.2 96.6,104.8 98.0,104.5 99.4,104.1 100.8,103.8 102.2,103.4 103.6,103.4 105.0,103.1 106.3,102.7 107.7,102.4 109.1,102.1 110.5,101.9 111.9,101.7 113.3,101.6 114.7,101.1 116.1,100.7 117.5,100.4 118.8,100.0 120.2,99.8 121.6,99.7 123.0,99.6 124.4,99.3 125.8,99.1 127.2,98.9 128.6,98.8 129.9,98.6 131.3,98.4 132.7,98.3 134.1,98.2 135.5,98.1 136.9,97.7 138.3,97.5 139.7,97.4 141.1,97.3 142.4,97.2 143.8,97.2 145.2,103.7 146.6,103.1 148.0,102.5 149.4,101.9 150.8,100.1 152.2,98.9 153.5,97.5 154.9,97.0 156.3,96.5 157.7,95.6 159.1,94.6 160.5,93.8 161.9,93.6 163.3,93.3 164.7,92.6 166.0,92.1 167.4,91.7 168.8,91.3 170.2,91.1 171.6,91.1 173.0,90.7 174.4,90.1 175.8,89.6 177.1,89.2 178.5,88.7 179.9,88.5 181.3,88.3 182.7,87.9 184.1,87.5 185.5,87.2 186.9,86.9 188.3,86.7 189.6,86.6 191.0,86.4 192.4,86.1 193.8,85.9 195.2,85.6 196.6,85.4 198.0,85.2 199.4,85.1 200.7,84.9 202.1,84.7 203.5,84.6 204.9,84.2 206.3,84.0 207.7,83.7 209.1,83.5 210.5,83.3 211.9,83.2 213.2,83.1 214.6,82.9 216.0,82.4 217.4,82.1 218.8,81.7 220.2,81.6 221.6,81.5 223.0,81.3 224.3,81.1 225.7,80.9 227.1,80.7 228.5,80.4 229.9,80.2 231.3,80.1 232.7,79.9 234.1,79.8 235.4,79.7 236.8,79.5 238.2,79.3 239.6,79.0 241.0,78.9 242.4,78.8 243.8,78.7 245.2,78.6 246.6,78.3 247.9,78.2 249.3,77.9 250.7,77.7 252.1,77.5 253.5,77.4 254.9,77.3 256.3,77.1 257.7,76.8 259.0,76.6 260.4,76.4 261.8,76.2 263.2,75.8 264.6,75.7 266.0,75.6 267.4,75.5 268.8,75.3 270.2,75.2 271.5,75.0 272.9,74.8 274.3,74.7 275.7,74.5 277.1,74.4 278.5,74.3 279.9,74.2 281.3,74.0 282.6,73.7 284.0,73.6 285.4,73.4 286.8,73.3 288.2,73.2 289.6,73.0 291.0,72.9 292.4,72.8 293.8,72.6 295.1,72.4 296.5,72.1 297.9,71.9 299.3,71.7 300.7,71.6 302.1,71.6 303.5,71.4 304.9,71.1 306.2,71.0 307.6,70.9 309.0,70.7 310.4,70.6 311.8,70.4 313.2,70.3 314.6,70.2 316.0,69.9 317.4,69.8 318.7,69.5 320.1,69.3 321.5,69.2 322.9,69.2 324.3,69.1 325.7,69.0 327.1,68.8 328.5,68.7 329.8,68.5 331.2,68.3 332.6,68.2 334.0,68.1 335.4,68.0 336.8,67.8 338.2,67.6 339.6,67.4 341.0,67.2 342.3,67.1 343.7,67.0 345.1,66.9 346.5,66.8 347.9,66.7 349.3,66.6 350.7,66.5 352.1,66.2 353.4,66.1 354.8,65.9 356.2,65.8 357.6,65.7 359.0,65.6 360.4,65.4 361.8,65.3 363.2,65.2 364.6,65.0 365.9,64.8 367.3,64.7 368.7,64.5 370.1,64.5 371.5,64.4 372.9,64.3 374.3,64.1 375.7,64.0 377.0,63.9 378.4,63.9 379.8,63.7 381.2,63.4 382.6,63.2 384.0,67.5 385.4,66.6 386.8,65.0 388.1,64.4 389.5,63.7 390.9,62.7 392.3,62.2 393.7,61.9 395.1,61.3 396.5,60.4 397.9,59.7 399.3,59.5 400.6,59.1 402.0,58.8 403.4,58.4 404.8,57.9 406.2,57.4 407.6,57.1 409.0,56.7 410.4,56.4 411.7,56.1 413.1,55.9 414.5,55.6 415.9,55.4 417.3,54.9 418.7,54.6 420.1,54.2 421.5,53.6 422.9,53.3 424.2,53.1 425.6,52.9 427.0,52.7 428.4,52.3 429.8,52.0 431.2,51.7 432.6,50.8 434.0,50.1 435.3,49.8 436.7,49.7 438.1,49.4 439.5,48.9 440.9,48.5 442.3,48.2 443.7,47.9 445.1,47.6 446.5,47.3 447.8,47.0 449.2,46.7 450.6,46.4 452.0,46.3 453.4,46.1 454.8,45.7 456.2,45.4 457.6,45.2 458.9,45.1 460.3,44.9 461.7,44.6 463.1,44.5 464.5,44.3 465.9,44.1 467.3,43.9 468.7,43.8 470.1,43.5 471.4,43.3 472.8,43.0 474.2,42.6 475.6,42.3 477.0,42.2 478.4,42.0 479.8,41.8 481.2,41.7 482.5,41.5 483.9,41.3 485.3,41.2 486.7,41.1 488.1,40.9 489.5,40.8 490.9,40.5 492.3,40.3 493.7,40.2 495.0,39.9 496.4,39.6 497.8,39.2 499.2,39.0 500.6,38.9 502.0,38.6 503.4,38.4 504.8,38.2 506.1,37.9 507.5,37.7 508.9,37.7 510.3,37.5 511.7,37.3 513.1,37.0 514.5,36.9 515.9,36.8 517.2,36.5 518.6,36.3 520.0,36.1 521.4,35.8 522.8,35.7 524.2,35.4 525.6,35.1 527.0,35.0 528.4,34.9 529.7,34.7 531.1,34.5 532.5,34.3 533.9,34.1 535.3,33.9 536.7,33.8 538.1,33.6 539.5,33.5 540.8,33.3 542.2,33.2 543.6,33.0 545.0,32.9 546.4,32.8 547.8,32.6 549.2,32.5 550.6,32.3 552.0,32.1 553.3,32.0 554.7,31.8 556.1,31.6 557.5,31.4 558.9,31.3 560.3,31.1 561.7,31.0 563.1,30.7 564.4,30.6 565.8,30.3 567.2,30.2 568.6,30.1 570.0,30.0 570.0,30.0,120" />
  
  <!-- Linea principale -->
  <polyline fill="none" stroke="#0366d6" stroke-width="2.5" stroke-linecap="round" stroke-linejoin="round" points="30.0,120.0 31.4,119.5 32.8,118.9 34.2,118.4 35.6,118.3 36.9,118.1 38.3,117.5 39.7,117.1 41.1,116.8 42.5,116.2 43.9,115.9 45.3,115.6 46.7,115.4 48.0,115.1 49.4,114.7 50.8,114.3 52.2,113.9 53.6,113.7 55.0,113.6 56.4,113.3 57.8,113.0 59.2,112.7 60.5,112.5 61.9,112.3 63.3,111.3 64.7,111.0 66.1,110.6 67.5,110.3 68.9,109.9 70.3,109.6 71.6,109.4 73.0,109.2 74.4,109.0 75.8,108.5 77.2,108.1 78.6,107.8 80.0,107.5 81.4,107.4 82.8,107.3 84.1,107.2 85.5,106.8 86.9,106.7 88.3,106.5 89.7,106.2 91.1,105.7 92.5,105.5 93.9,105.4 95.2,105.2 96.6,104.8 98.0,104.5 99.4,104.1 100.8,103.8 102.2,103.4 103.6,103.4 105.0,103.1 106.3,102.7 107.7,102.4 109.1,102.1 110.5,101.9 111.9,101.7 113.3,101.6 114.7,101.1 116.1,100.7 117.5,100.4 118.8,100.0 120.2,99.8 121.6,99.7 123.0,99.6 124.4,99.3 125.8,99.1 127.2,98.9 128.6,98.8 129.9,98.6 131.3,98.4 132.7,98.3 134.1,98.2 135.5,98.1 136.9,97.7 138.3,97.5 139.7,97.4 141.1,97.3 142.4,97.2 143.8,97.2 145.2,103.7 146.6,103.1 148.0,102.5 149.4,101.9 150.8,100.1 152.2,98.9 153.5,97.5 154.9,97.0 156.3,96.5 157.7,95.6 159.1,94.6 160.5,93.8 161.9,93.6 163.3,93.3 164.7,92.6 166.0,92.1 167.4,91.7 168.8,91.3 170.2,91.1 171.6,91.1 173.0,90.7 174.4,90.1 175.8,89.6 177.1,89.2 178.5,88.7 179.9,88.5 181.3,88.3 182.7,87.9 184.1,87.5 185.5,87.2 186.9,86.9 188.3,86.7 189.6,86.6 191.0,86.4 192.4,86.1 193.8,85.9 195.2,85.6 196.6,85.4 198.0,85.2 199.4,85.1 200.7,84.9 202.1,84.7 203.5,84.6 204.9,84.2 206.3,84.0 207.7,83.7 209.1,83.5 210.5,83.3 211.9,83.2 213.2,83.1 214.6,82.9 216.0,82.4 217.4,82.1 218.8,81.7 220.2,81.6 221.6,81.5 223.0,81.3 224.3,81.1 225.7,80.9 227.1,80.7 228.5,80.4 229.9,80.2 231.3,80.1 232.7,79.9 234.1,79.8 235.4,79.7 236.8,79.5 238.2,79.3 239.6,79.0 241.0,78.9 242.4,78.8 243.8,78.7 245.2,78.6 246.6,78.3 247.9,78.2 249.3,77.9 250.7,77.7 252.1,77.5 253.5,77.4 254.9,77.3 256.3,77.1 257.7,76.8 259.0,76.6 260.4,76.4 261.8,76.2 263.2,75.8 264.6,75.7 266.0,75.6 267.4,75.5 268.8,75.3 270.2,75.2 271.5,75.0 272.9,74.8 274.3,74.7 275.7,74.5 277.1,74.4 278.5,74.3 279.9,74.2 281.3,74.0 282.6,73.7 284.0,73.6 285.4,73.4 286.8,73.3 288.2,73.2 289.6,73.0 291.0,72.9 292.4,72.8 293.8,72.6 295.1,72.4 296.5,72.1 297.9,71.9 299.3,71.7 300.7,71.6 302.1,71.6 303.5,71.4 304.9,71.1 306.2,71.0 307.6,70.9 309.0,70.7 310.4,70.6 311.8,70.4 313.2,70.3 314.6,70.2 316.0,69.9 317.4,69.8 318.7,69.5 320.1,69.3 321.5,69.2 322.9,69.2 324.3,69.1 325.7,69.0 327.1,68.8 328.5,68.7 329.8,68.5 331.2,68.3 332.6,68.2 334.0,68.1 335.4,68.0 336.8,67.8 338.2,67.6 339.6,67.4 341.0,67.2 342.3,67.1 343.7,67.0 345.1,66.9 346.5,66.8 347.9,66.7 349.3,66.6 350.7,66.5 352.1,66.2 353.4,66.1 354.8,65.9 356.2,65.8 357.6,65.7 359.0,65.6 360.4,65.4 361.8,65.3 363.2,65.2 364.6,65.0 365.9,64.8 367.3,64.7 368.7,64.5 370.1,64.5 371.5,64.4 372.9,64.3 374.3,64.1 375.7,64.0 377.0,63.9 378.4,63.9 379.8,63.7 381.2,63.4 382.6,63.2 384.0,67.5 385.4,66.6 386.8,65.0 388.1,64.4 389.5,63.7 390.9,62.7 392.3,62.2 393.7,61.9 395.1,61.3 396.5,60.4 397.9,59.7 399.3,59.5 400.6,59.1 402.0,58.8 403.4,58.4 404.8,57.9 406.2,57.4 407.6,57.1 409.0,56.7 410.4,56.4 411.7,56.1 413.1,55.9 414.5,55.6 415.9,55.4 417.3,54.9 418.7,54.6 420.1,54.2 421.5,53.6 422.9,53.3 424.2,53.1 425.6,52.9 427.0,52.7 428.4,52.3 429.8,52.0 431.2,51.7 432.6,50.8 434.0,50.1 435.3,49.8 436.7,49.7 438.1,49.4 439.5,48.9 440.9,48.5 442.3,48.2 443.7,47.9 445.1,47.6 446.5,47.3 447.8,47.0 449.2,46.7 450.6,46.4 452.0,46.3 453.4,46.1 454.8,45.7 456.2,45.4 457.6,45.2 458.9,45.1 460.3,44.9 461.7,44.6 463.1,44.5 464.5,44.3 465.9,44.1 467.3,43.9 468.7,43.8 470.1,43.5 471.4,43.3 472.8,43.0 474.2,42.6 475.6,42.3 477.0,42.2 478.4,42.0 479.8,41.8 481.2,41.7 482.5,41.5 483.9,41.3 485.3,41.2 486.7,41.1 488.1,40.9 489.5,40.8 490.9,40.5 492.3,40.3 493.7,40.2 495.0,39.9 496.4,39.6 497.8,39.2 499.2,39.0 500.6,38.9 502.0,38.6 503.4,38.4 504.8,38.2 506.1,37.9 507.5,37.7 508.9,37.7 510.3,37.5 511.7,37.3 513.1,37.0 514.5,36.9 515.9,36.8 517.2,36.5 518.6,36.3 520.0,36.1 521.4,35.8 522.8,35.7 524.2,35.4 525.6,35.1 527.0,35.0 528.4,34.9 529.7,34.7 531.1,34.5 532.5,34.3 533.9,34.1 535.3,33.9 536.7,33.8 538.1,33.6 539.5,33.5 540.8,33.3 542.2,33.2 543.6,33.0 545.0,32.9 546.4,32.8 547.8,32.6 549.2,32.5 550.6,32.3 552.0,32.1 553.3,32.0 554.7,31.8 556.1,31.6 557.5,31.4 558.9,31.3 560.3,31.1 561.7,31.0 563.1,30.7 564.4,30.6 565.8,30.3 567.2,30.2 568.6,30.1 570.0,30.0" />
  
  <!-- Punto finale luminoso -->
  <circle cx="570.0" cy="30.0" r="4" fill="#ffffff" stroke="#0366d6" stroke-width="2.5" />
</svg>