<svg width="600" height="150" viewBox="0 0 600 150" xmlns="http://www.w3.org/2000/svg">
  <defs>
    <filter id="shadow2" x="-2%" y="-2%" width="104%" height="108%">
      <feDropShadow dx="0" dy="2" stdDeviation="3" flood-opacity="0.1" />
    </filter>
    <linearGradient id="fillGrad" x1="0" y1="0" x2="0" y2="1">
      <stop offset="0%" stop-color="#0366d6" stop-opacity="0.3"/>
      <stop offset="100%" stop-color="#0366d6" stop-opacity="0.02"/>
    </linearGradient>
  </defs>
  <rect width="600" height="150" rx="12" fill="#ffffff" filter="url(#shadow2)" stroke="#e1e4e8" stroke-width="1"/>
  <text x="20" y="24" fill="#2b3137" font-family="-apple-system,BlinkMacSystemFont,'Segoe UI',Helvetica,Arial,sans-serif" font-size="14" font-weight="600">📈 Download Growth (Actual: 82.3k)</text>
  
  <!-- Area sotto la linea -->
  <polygon fill="url(#fillGrad)" points="30.0,120.0,120 30.0,120.0 31.8,119.3 33.7,118.6 35.5,118.0 37.3,117.9 39.2,117.5 41.0,116.8 42.9,116.3 44.7,115.9 46.5,115.2 48.4,114.8 50.2,114.4 52.0,114.1 53.9,113.8 55.7,113.3 57.6,112.7 59.4,112.3 61.2,112.0 63.1,111.8 64.9,111.4 66.7,111.0 68.6,110.7 70.4,110.5 72.2,110.1 74.1,108.9 75.9,108.5 77.8,108.1 79.6,107.6 81.4,107.2 83.3,106.7 85.1,106.5 86.9,106.3 88.8,105.9 90.6,105.3 92.4,104.8 94.3,104.5 96.1,104.1 98.0,103.9 99.8,103.8 101.6,103.6 103.5,103.2 105.3,103.0 107.1,102.8 109.0,102.4 110.8,101.7 112.7,101.6 114.5,101.4 116.3,101.2 118.2,100.7 120.0,100.3 121.8,99.8 123.7,99.4 125.5,98.9 127.3,98.8 129.2,98.5 131.0,98.0 132.9,97.5 134.7,97.1 136.5,97.0 138.4,96.7 140.2,96.5 142.0,95.9 143.9,95.4 145.7,95.0 147.6,94.5 149.4,94.3 151.2,94.2 153.1,94.0 154.9,93.6 156.7,93.3 158.6,93.1 160.4,92.9 162.2,92.8 164.1,92.5 165.9,92.3 167.8,92.2 169.6,92.1 171.4,91.6 173.3,91.3 175.1,91.2 176.9,91.0 178.8,90.9 180.6,90.9 182.4,99.2 184.3,98.4 186.1,97.7 188.0,96.9 189.8,94.7 191.6,93.1 193.5,91.4 195.3,90.7 197.1,90.0 199.0,88.9 200.8,87.6 202.7,86.7 204.5,86.3 206.3,86.0 208.2,85.1 210.0,84.4 211.8,84.0 213.7,83.5 215.5,83.2 217.3,83.1 219.2,82.7 221.0,81.9 222.9,81.3 224.7,80.8 226.5,80.1 228.4,79.8 230.2,79.6 232.0,79.1 233.9,78.6 235.7,78.1 237.6,77.8 239.4,77.6 241.2,77.5 243.1,77.2 244.9,76.8 246.7,76.5 248.6,76.2 250.4,76.0 252.2,75.7 254.1,75.5 255.9,75.3 257.8,75.1 259.6,74.9 261.4,74.4 263.3,74.1 265.1,73.7 266.9,73.5 268.8,73.3 270.6,73.1 272.4,72.9 274.3,72.7 276.1,72.1 278.0,71.7 279.8,71.2 281.6,71.0 283.5,71.0 285.3,70.7 287.1,70.5 289.0,70.2 290.8,69.9 292.7,69.5 294.5,69.3 296.3,69.1 298.2,69.0 300.0,68.8 301.8,68.6 303.7,68.4 305.5,68.2 307.3,67.8 309.2,67.6 311.0,67.5 312.9,67.4 314.7,67.2 316.5,66.9 318.4,66.7 320.2,66.4 322.0,66.1 323.9,65.9 325.7,65.7 327.6,65.6 329.4,65.4 331.2,65.0 333.1,64.7 334.9,64.4 336.7,64.1 338.6,63.7 340.4,63.6 342.2,63.4 344.1,63.3 345.9,63.1 347.8,62.9 349.6,62.6 351.4,62.5 353.3,62.2 355.1,62.1 356.9,61.9 358.8,61.7 360.6,61.6 362.4,61.4 364.3,61.1 366.1,60.9 368.0,60.6 369.8,60.5 371.6,60.4 373.5,60.2 375.3,60.0 377.1,59.9 379.0,59.7 380.8,59.3 382.7,58.9 384.5,58.7 386.3,58.5 388.2,58.4 390.0,58.3 391.8,58.1 393.7,57.7 395.5,57.6 397.3,57.4 399.2,57.2 401.0,57.0 402.9,56.8 404.7,56.6 406.5,56.5 408.4,56.2 410.2,56.0 412.0,55.7 413.9,55.4 415.7,55.3 417.6,55.3 419.4,55.2 421.2,55.0 423.1,54.8 424.9,54.6 426.7,54.4 428.6,54.1 430.4,54.0 432.2,53.9 434.1,53.7 435.9,53.5 437.8,53.3 439.6,53.0 441.4,52.8 443.3,52.6 445.1,52.4 446.9,52.3 448.8,52.2 450.6,52.1 452.4,52.0 454.3,51.8 456.1,51.5 458.0,51.3 459.8,51.1 461.6,51.0 463.5,50.8 465.3,50.6 467.1,50.4 469.0,50.3 470.8,50.1 472.7,49.9 474.5,49.7 476.3,49.5 478.2,49.3 480.0,49.2 481.8,49.1 483.7,49.0 485.5,48.8 487.3,48.7 489.2,48.5 491.0,48.5 492.9,48.3 494.7,47.9 496.5,47.6 498.4,53.1 500.2,52.0 502.0,49.9 503.9,49.2 505.7,48.2 507.6,47.0 509.4,46.4 511.2,46.0 513.1,45.2 514.9,44.0 516.7,43.1 518.6,42.9 520.4,42.4 522.2,42.1 524.1,41.4 525.9,40.9 527.8,40.2 529.6,39.9 531.4,39.3 533.3,39.0 535.1,38.6 536.9,38.3 538.8,38.0 540.6,37.7 542.4,37.1 544.3,36.7 546.1,36.2 548.0,35.4 549.8,35.0 551.6,34.7 553.5,34.5 555.3,34.2 557.1,33.8 559.0,33.3 560.8,33.0 562.7,31.9 564.5,31.0 566.3,30.6 568.2,30.4 570.0,30.0 570.0,30.0,120" />
  
  <!-- Linea principale -->
  <polyline fill="none" stroke="#0366d6" stroke-width="2.5" stroke-linecap="round" stroke-linejoin="round" points="30.0,120.0 31.8,119.3 33.7,118.6 35.5,118.0 37.3,117.9 39.2,117.5 41.0,116.8 42.9,116.3 44.7,115.9 46.5,115.2 48.4,114.8 50.2,114.4 52.0,114.1 53.9,113.8 55.7,113.3 57.6,112.7 59.4,112.3 61.2,112.0 63.1,111.8 64.9,111.4 66.7,111.0 68.6,110.7 70.4,110.5 72.2,110.1 74.1,108.9 75.9,108.5 77.8,108.1 79.6,107.6 81.4,107.2 83.3,106.7 85.1,106.5 86.9,106.3 88.8,105.9 90.6,105.3 92.4,104.8 94.3,104.5 96.1,104.1 98.0,103.9 99.8,103.8 101.6,103.6 103.5,103.2 105.3,103.0 107.1,102.8 109.0,102.4 110.8,101.7 112.7,101.6 114.5,101.4 116.3,101.2 118.2,100.7 120.0,100.3 121.8,99.8 123.7,99.4 125.5,98.9 127.3,98.8 129.2,98.5 131.0,98.0 132.9,97.5 134.7,97.1 136.5,97.0 138.4,96.7 140.2,96.5 142.0,95.9 143.9,95.4 145.7,95.0 147.6,94.5 149.4,94.3 151.2,94.2 153.1,94.0 154.9,93.6 156.7,93.3 158.6,93.1 160.4,92.9 162.2,92.8 164.1,92.5 165.9,92.3 167.8,92.2 169.6,92.1 171.4,91.6 173.3,91.3 175.1,91.2 176.9,91.0 178.8,90.9 180.6,90.9 182.4,99.2 184.3,98.4 186.1,97.7 188.0,96.9 189.8,94.7 191.6,93.1 193.5,91.4 195.3,90.7 197.1,90.0 199.0,88.9 200.8,87.6 202.7,86.7 204.5,86.3 206.3,86.0 208.2,85.1 210.0,84.4 211.8,84.0 213.7,83.5 215.5,83.2 217.3,83.1 219.2,82.7 221.0,81.9 222.9,81.3 224.7,80.8 226.5,80.1 228.4,79.8 230.2,79.6 232.0,79.1 233.9,78.6 235.7,78.1 237.6,77.8 239.4,77.6 241.2,77.5 243.1,77.2 244.9,76.8 246.7,76.5 248.6,76.2 250.4,76.0 252.2,75.7 254.1,75.5 255.9,75.3 257.8,75.1 259.6,74.9 261.4,74.4 263.3,74.1 265.1,73.7 266.9,73.5 268.8,73.3 270.6,73.1 272.4,72.9 274.3,72.7 276.1,72.1 278.0,71.7 279.8,71.2 281.6,71.0 283.5,71.0 285.3,70.7 287.1,70.5 289.0,70.2 290.8,69.9 292.7,69.5 294.5,69.3 296.3,69.1 298.2,69.0 300.0,68.8 301.8,68.6 303.7,68.4 305.5,68.2 307.3,67.8 309.2,67.6 311.0,67.5 312.9,67.4 314.7,67.2 316.5,66.9 318.4,66.7 320.2,66.4 322.0,66.1 323.9,65.9 325.7,65.7 327.6,65.6 329.4,65.4 331.2,65.0 333.1,64.7 334.9,64.4 336.7,64.1 338.6,63.7 340.4,63.6 342.2,63.4 344.1,63.3 345.9,63.1 347.8,62.9 349.6,62.6 351.4,62.5 353.3,62.2 355.1,62.1 356.9,61.9 358.8,61.7 360.6,61.6 362.4,61.4 364.3,61.1 366.1,60.9 368.0,60.6 369.8,60.5 371.6,60.4 373.5,60.2 375.3,60.0 377.1,59.9 379.0,59.7 380.8,59.3 382.7,58.9 384.5,58.7 386.3,58.5 388.2,58.4 390.0,58.3 391.8,58.1 393.7,57.7 395.5,57.6 397.3,57.4 399.2,57.2 401.0,57.0 402.9,56.8 404.7,56.6 406.5,56.5 408.4,56.2 410.2,56.0 412.0,55.7 413.9,55.4 415.7,55.3 417.6,55.3 419.4,55.2 421.2,55.0 423.1,54.8 424.9,54.6 426.7,54.4 428.6,54.1 430.4,54.0 432.2,53.9 434.1,53.7 435.9,53.5 437.8,53.3 439.6,53.0 441.4,52.8 443.3,52.6 445.1,52.4 446.9,52.3 448.8,52.2 450.6,52.1 452.4,52.0 454.3,51.8 456.1,51.5 458.0,51.3 459.8,51.1 461.6,51.0 463.5,50.8 465.3,50.6 467.1,50.4 469.0,50.3 470.8,50.1 472.7,49.9 474.5,49.7 476.3,49.5 478.2,49.3 480.0,49.2 481.8,49.1 483.7,49.0 485.5,48.8 487.3,48.7 489.2,48.5 491.0,48.5 492.9,48.3 494.7,47.9 496.5,47.6 498.4,53.1 500.2,52.0 502.0,49.9 503.9,49.2 505.7,48.2 507.6,47.0 509.4,46.4 511.2,46.0 513.1,45.2 514.9,44.0 516.7,43.1 518.6,42.9 520.4,42.4 522.2,42.1 524.1,41.4 525.9,40.9 527.8,40.2 529.6,39.9 531.4,39.3 533.3,39.0 535.1,38.6 536.9,38.3 538.8,38.0 540.6,37.7 542.4,37.1 544.3,36.7 546.1,36.2 548.0,35.4 549.8,35.0 551.6,34.7 553.5,34.5 555.3,34.2 557.1,33.8 559.0,33.3 560.8,33.0 562.7,31.9 564.5,31.0 566.3,30.6 568.2,30.4 570.0,30.0" />
  
  <!-- Punto finale luminoso -->
  <circle cx="570.0" cy="30.0" r="4" fill="#ffffff" stroke="#0366d6" stroke-width="2.5" />
</svg>