<svg width="600" height="150" viewBox="0 0 600 150" xmlns="http://www.w3.org/2000/svg">
  <defs>
    <filter id="shadow2" x="-2%" y="-2%" width="104%" height="108%">
      <feDropShadow dx="0" dy="2" stdDeviation="3" flood-opacity="0.1" />
    </filter>
    <linearGradient id="fillGrad" x1="0" y1="0" x2="0" y2="1">
      <stop offset="0%" stop-color="#0366d6" stop-opacity="0.3"/>
      <stop offset="100%" stop-color="#0366d6" stop-opacity="0.02"/>
    </linearGradient>
  </defs>
  <rect width="600" height="150" rx="12" fill="#ffffff" filter="url(#shadow2)" stroke="#e1e4e8" stroke-width="1"/>
  <text x="20" y="24" fill="#2b3137" font-family="-apple-system,BlinkMacSystemFont,'Segoe UI',Helvetica,Arial,sans-serif" font-size="14" font-weight="600">📈 Download Growth (Actual: 82.7k)</text>
  
  <!-- Area sotto la linea -->
  <polygon fill="url(#fillGrad)" points="30.0,120.0,120 30.0,120.0 31.8,119.4 33.6,118.7 35.4,118.1 37.2,117.9 39.0,117.6 40.8,116.9 42.6,116.4 44.4,116.0 46.3,115.3 48.1,114.9 49.9,114.5 51.7,114.3 53.5,113.9 55.3,113.4 57.1,112.9 58.9,112.5 60.7,112.2 62.5,112.0 64.3,111.6 66.1,111.2 67.9,110.9 69.7,110.7 71.5,110.4 73.3,109.2 75.2,108.8 77.0,108.3 78.8,107.9 80.6,107.5 82.4,107.1 84.2,106.8 86.0,106.6 87.8,106.3 89.6,105.7 91.4,105.2 93.2,104.8 95.0,104.4 96.8,104.3 98.6,104.2 100.4,104.0 102.2,103.6 104.0,103.4 105.9,103.2 107.7,102.8 109.5,102.2 111.3,102.0 113.1,101.9 114.9,101.6 116.7,101.1 118.5,100.8 120.3,100.3 122.1,99.9 123.9,99.4 125.7,99.3 127.5,99.0 129.3,98.5 131.1,98.1 132.9,97.7 134.7,97.5 136.6,97.3 138.4,97.1 140.2,96.5 142.0,96.0 143.8,95.6 145.6,95.1 147.4,94.9 149.2,94.8 151.0,94.6 152.8,94.2 154.6,94.0 156.4,93.8 158.2,93.6 160.0,93.4 161.8,93.2 163.6,93.0 165.5,92.9 167.3,92.8 169.1,92.3 170.9,92.0 172.7,91.9 174.5,91.7 176.3,91.6 178.1,91.6 179.9,99.7 181.7,98.9 183.5,98.2 185.3,97.5 187.1,95.3 188.9,93.7 190.7,92.1 192.5,91.5 194.3,90.8 196.2,89.6 198.0,88.4 199.8,87.5 201.6,87.1 203.4,86.8 205.2,85.9 207.0,85.3 208.8,84.9 210.6,84.3 212.4,84.1 214.2,84.0 216.0,83.6 217.8,82.8 219.6,82.3 221.4,81.7 223.2,81.1 225.1,80.8 226.9,80.6 228.7,80.1 230.5,79.6 232.3,79.2 234.1,78.8 235.9,78.6 237.7,78.5 239.5,78.2 241.3,77.8 243.1,77.5 244.9,77.3 246.7,77.0 248.5,76.8 250.3,76.6 252.1,76.3 253.9,76.2 255.8,76.0 257.6,75.5 259.4,75.2 261.2,74.9 263.0,74.6 264.8,74.4 266.6,74.2 268.4,74.1 270.2,73.9 272.0,73.3 273.8,72.9 275.6,72.4 277.4,72.2 279.2,72.2 281.0,71.9 282.8,71.7 284.6,71.4 286.5,71.1 288.3,70.7 290.1,70.5 291.9,70.4 293.7,70.2 295.5,70.0 297.3,69.9 299.1,69.6 300.9,69.4 302.7,69.1 304.5,68.9 306.3,68.8 308.1,68.6 309.9,68.5 311.7,68.2 313.5,68.0 315.4,67.7 317.2,67.4 319.0,67.2 320.8,67.0 322.6,66.9 324.4,66.7 326.2,66.3 328.0,66.0 329.8,65.8 331.6,65.5 333.4,65.0 335.2,64.9 337.0,64.8 338.8,64.7 340.6,64.5 342.4,64.3 344.2,64.0 346.1,63.8 347.9,63.6 349.7,63.5 351.5,63.3 353.3,63.1 355.1,63.0 356.9,62.8 358.7,62.5 360.5,62.3 362.3,62.1 364.1,61.9 365.9,61.8 367.7,61.6 369.5,61.5 371.3,61.3 373.1,61.1 374.9,60.8 376.8,60.4 378.6,60.1 380.4,59.9 382.2,59.9 384.0,59.8 385.8,59.5 387.6,59.2 389.4,59.1 391.2,58.9 393.0,58.7 394.8,58.5 396.6,58.3 398.4,58.2 400.2,58.0 402.0,57.7 403.8,57.5 405.7,57.2 407.5,57.0 409.3,56.9 411.1,56.8 412.9,56.7 414.7,56.5 416.5,56.4 418.3,56.2 420.1,56.0 421.9,55.7 423.7,55.6 425.5,55.5 427.3,55.3 429.1,55.1 430.9,54.9 432.7,54.6 434.5,54.4 436.4,54.2 438.2,54.1 440.0,53.9 441.8,53.8 443.6,53.7 445.4,53.6 447.2,53.4 449.0,53.1 450.8,52.9 452.6,52.8 454.4,52.6 456.2,52.5 458.0,52.3 459.8,52.1 461.6,51.9 463.4,51.8 465.3,51.6 467.1,51.4 468.9,51.2 470.7,51.0 472.5,50.9 474.3,50.8 476.1,50.7 477.9,50.5 479.7,50.4 481.5,50.2 483.3,50.2 485.1,50.0 486.9,49.6 488.7,49.4 490.5,54.7 492.3,53.6 494.1,51.6 496.0,50.9 497.8,49.9 499.6,48.8 501.4,48.2 503.2,47.7 505.0,47.0 506.8,45.8 508.6,45.0 510.4,44.7 512.2,44.3 514.0,43.9 515.8,43.3 517.6,42.8 519.4,42.1 521.2,41.8 523.0,41.2 524.8,40.9 526.7,40.5 528.5,40.3 530.3,40.0 532.1,39.7 533.9,39.1 535.7,38.7 537.5,38.2 539.3,37.5 541.1,37.0 542.9,36.8 544.7,36.6 546.5,36.3 548.3,35.8 550.1,35.4 551.9,35.1 553.7,34.0 555.6,33.1 557.4,32.7 559.2,32.5 561.0,32.2 562.8,31.6 564.6,31.1 566.4,30.8 568.2,30.4 570.0,30.0 570.0,30.0,120" />
  
  <!-- Linea principale -->
  <polyline fill="none" stroke="#0366d6" stroke-width="2.5" stroke-linecap="round" stroke-linejoin="round" points="30.0,120.0 31.8,119.4 33.6,118.7 35.4,118.1 37.2,117.9 39.0,117.6 40.8,116.9 42.6,116.4 44.4,116.0 46.3,115.3 48.1,114.9 49.9,114.5 51.7,114.3 53.5,113.9 55.3,113.4 57.1,112.9 58.9,112.5 60.7,112.2 62.5,112.0 64.3,111.6 66.1,111.2 67.9,110.9 69.7,110.7 71.5,110.4 73.3,109.2 75.2,108.8 77.0,108.3 78.8,107.9 80.6,107.5 82.4,107.1 84.2,106.8 86.0,106.6 87.8,106.3 89.6,105.7 91.4,105.2 93.2,104.8 95.0,104.4 96.8,104.3 98.6,104.2 100.4,104.0 102.2,103.6 104.0,103.4 105.9,103.2 107.7,102.8 109.5,102.2 111.3,102.0 113.1,101.9 114.9,101.6 116.7,101.1 118.5,100.8 120.3,100.3 122.1,99.9 123.9,99.4 125.7,99.3 127.5,99.0 129.3,98.5 131.1,98.1 132.9,97.7 134.7,97.5 136.6,97.3 138.4,97.1 140.2,96.5 142.0,96.0 143.8,95.6 145.6,95.1 147.4,94.9 149.2,94.8 151.0,94.6 152.8,94.2 154.6,94.0 156.4,93.8 158.2,93.6 160.0,93.4 161.8,93.2 163.6,93.0 165.5,92.9 167.3,92.8 169.1,92.3 170.9,92.0 172.7,91.9 174.5,91.7 176.3,91.6 178.1,91.6 179.9,99.7 181.7,98.9 183.5,98.2 185.3,97.5 187.1,95.3 188.9,93.7 190.7,92.1 192.5,91.5 194.3,90.8 196.2,89.6 198.0,88.4 199.8,87.5 201.6,87.1 203.4,86.8 205.2,85.9 207.0,85.3 208.8,84.9 210.6,84.3 212.4,84.1 214.2,84.0 216.0,83.6 217.8,82.8 219.6,82.3 221.4,81.7 223.2,81.1 225.1,80.8 226.9,80.6 228.7,80.1 230.5,79.6 232.3,79.2 234.1,78.8 235.9,78.6 237.7,78.5 239.5,78.2 241.3,77.8 243.1,77.5 244.9,77.3 246.7,77.0 248.5,76.8 250.3,76.6 252.1,76.3 253.9,76.2 255.8,76.0 257.6,75.5 259.4,75.2 261.2,74.9 263.0,74.6 264.8,74.4 266.6,74.2 268.4,74.1 270.2,73.9 272.0,73.3 273.8,72.9 275.6,72.4 277.4,72.2 279.2,72.2 281.0,71.9 282.8,71.7 284.6,71.4 286.5,71.1 288.3,70.7 290.1,70.5 291.9,70.4 293.7,70.2 295.5,70.0 297.3,69.9 299.1,69.6 300.9,69.4 302.7,69.1 304.5,68.9 306.3,68.8 308.1,68.6 309.9,68.5 311.7,68.2 313.5,68.0 315.4,67.7 317.2,67.4 319.0,67.2 320.8,67.0 322.6,66.9 324.4,66.7 326.2,66.3 328.0,66.0 329.8,65.8 331.6,65.5 333.4,65.0 335.2,64.9 337.0,64.8 338.8,64.7 340.6,64.5 342.4,64.3 344.2,64.0 346.1,63.8 347.9,63.6 349.7,63.5 351.5,63.3 353.3,63.1 355.1,63.0 356.9,62.8 358.7,62.5 360.5,62.3 362.3,62.1 364.1,61.9 365.9,61.8 367.7,61.6 369.5,61.5 371.3,61.3 373.1,61.1 374.9,60.8 376.8,60.4 378.6,60.1 380.4,59.9 382.2,59.9 384.0,59.8 385.8,59.5 387.6,59.2 389.4,59.1 391.2,58.9 393.0,58.7 394.8,58.5 396.6,58.3 398.4,58.2 400.2,58.0 402.0,57.7 403.8,57.5 405.7,57.2 407.5,57.0 409.3,56.9 411.1,56.8 412.9,56.7 414.7,56.5 416.5,56.4 418.3,56.2 420.1,56.0 421.9,55.7 423.7,55.6 425.5,55.5 427.3,55.3 429.1,55.1 430.9,54.9 432.7,54.6 434.5,54.4 436.4,54.2 438.2,54.1 440.0,53.9 441.8,53.8 443.6,53.7 445.4,53.6 447.2,53.4 449.0,53.1 450.8,52.9 452.6,52.8 454.4,52.6 456.2,52.5 458.0,52.3 459.8,52.1 461.6,51.9 463.4,51.8 465.3,51.6 467.1,51.4 468.9,51.2 470.7,51.0 472.5,50.9 474.3,50.8 476.1,50.7 477.9,50.5 479.7,50.4 481.5,50.2 483.3,50.2 485.1,50.0 486.9,49.6 488.7,49.4 490.5,54.7 492.3,53.6 494.1,51.6 496.0,50.9 497.8,49.9 499.6,48.8 501.4,48.2 503.2,47.7 505.0,47.0 506.8,45.8 508.6,45.0 510.4,44.7 512.2,44.3 514.0,43.9 515.8,43.3 517.6,42.8 519.4,42.1 521.2,41.8 523.0,41.2 524.8,40.9 526.7,40.5 528.5,40.3 530.3,40.0 532.1,39.7 533.9,39.1 535.7,38.7 537.5,38.2 539.3,37.5 541.1,37.0 542.9,36.8 544.7,36.6 546.5,36.3 548.3,35.8 550.1,35.4 551.9,35.1 553.7,34.0 555.6,33.1 557.4,32.7 559.2,32.5 561.0,32.2 562.8,31.6 564.6,31.1 566.4,30.8 568.2,30.4 570.0,30.0" />
  
  <!-- Punto finale luminoso -->
  <circle cx="570.0" cy="30.0" r="4" fill="#ffffff" stroke="#0366d6" stroke-width="2.5" />
</svg>