<svg width="600" height="150" viewBox="0 0 600 150" xmlns="http://www.w3.org/2000/svg">
  <defs>
    <filter id="shadow2" x="-2%" y="-2%" width="104%" height="108%">
      <feDropShadow dx="0" dy="2" stdDeviation="3" flood-opacity="0.1" />
    </filter>
    <linearGradient id="fillGrad" x1="0" y1="0" x2="0" y2="1">
      <stop offset="0%" stop-color="#0366d6" stop-opacity="0.3"/>
      <stop offset="100%" stop-color="#0366d6" stop-opacity="0.02"/>
    </linearGradient>
  </defs>
  <rect width="600" height="150" rx="12" fill="#ffffff" filter="url(#shadow2)" stroke="#e1e4e8" stroke-width="1"/>
  <text x="20" y="24" fill="#2b3137" font-family="-apple-system,BlinkMacSystemFont,'Segoe UI',Helvetica,Arial,sans-serif" font-size="14" font-weight="600">📈 Download Growth (Actual: 73.6k)</text>
  
  <!-- Area sotto la linea -->
  <polygon fill="url(#fillGrad)" points="30.0,120.0,120 30.0,120.0 35.1,118.5 40.2,116.9 45.3,115.5 50.4,115.1 55.5,114.3 60.6,112.6 65.7,111.4 70.8,110.7 75.8,108.9 80.9,108.0 86.0,107.1 91.1,106.6 96.2,105.8 101.3,104.6 106.4,103.3 111.5,102.3 116.6,101.6 121.7,101.2 126.8,100.4 131.9,99.4 137.0,98.6 142.1,98.2 147.2,97.4 152.3,94.6 157.4,93.7 162.5,92.6 167.5,91.5 172.6,90.5 177.7,89.6 182.8,89.0 187.9,88.5 193.0,87.7 198.1,86.4 203.2,85.2 208.3,84.4 213.4,83.4 218.5,83.2 223.6,82.9 228.7,82.4 233.8,81.5 238.9,81.0 244.0,80.6 249.1,79.6 254.2,78.1 259.2,77.7 264.3,77.4 269.4,76.8 274.5,75.6 279.6,74.8 284.7,73.6 289.8,72.7 294.9,71.6 300.0,71.3 305.1,70.7 310.2,69.6 315.3,68.4 320.4,67.6 325.5,67.2 330.6,66.6 335.7,66.1 340.8,64.8 345.8,63.6 350.9,62.6 356.0,61.6 361.1,61.0 366.2,60.7 371.3,60.2 376.4,59.4 381.5,58.8 386.6,58.3 391.7,57.9 396.8,57.5 401.9,56.9 407.0,56.5 412.1,56.2 417.2,55.9 422.3,54.8 427.4,54.2 432.5,53.9 437.5,53.5 442.6,53.3 447.7,53.3 452.8,72.4 457.9,70.5 463.0,68.8 468.1,67.1 473.2,61.9 478.3,58.2 483.4,54.3 488.5,52.9 493.6,51.2 498.7,48.6 503.8,45.7 508.9,43.5 514.0,42.7 519.1,42.0 524.2,39.9 529.2,38.4 534.3,37.4 539.4,36.2 544.5,35.6 549.6,35.4 554.7,34.3 559.8,32.5 564.9,31.3 570.0,30.0 570.0,30.0,120" />
  
  <!-- Linea principale -->
  <polyline fill="none" stroke="#0366d6" stroke-width="2.5" stroke-linecap="round" stroke-linejoin="round" points="30.0,120.0 35.1,118.5 40.2,116.9 45.3,115.5 50.4,115.1 55.5,114.3 60.6,112.6 65.7,111.4 70.8,110.7 75.8,108.9 80.9,108.0 86.0,107.1 91.1,106.6 96.2,105.8 101.3,104.6 106.4,103.3 111.5,102.3 116.6,101.6 121.7,101.2 126.8,100.4 131.9,99.4 137.0,98.6 142.1,98.2 147.2,97.4 152.3,94.6 157.4,93.7 162.5,92.6 167.5,91.5 172.6,90.5 177.7,89.6 182.8,89.0 187.9,88.5 193.0,87.7 198.1,86.4 203.2,85.2 208.3,84.4 213.4,83.4 218.5,83.2 223.6,82.9 228.7,82.4 233.8,81.5 238.9,81.0 244.0,80.6 249.1,79.6 254.2,78.1 259.2,77.7 264.3,77.4 269.4,76.8 274.5,75.6 279.6,74.8 284.7,73.6 289.8,72.7 294.9,71.6 300.0,71.3 305.1,70.7 310.2,69.6 315.3,68.4 320.4,67.6 325.5,67.2 330.6,66.6 335.7,66.1 340.8,64.8 345.8,63.6 350.9,62.6 356.0,61.6 361.1,61.0 366.2,60.7 371.3,60.2 376.4,59.4 381.5,58.8 386.6,58.3 391.7,57.9 396.8,57.5 401.9,56.9 407.0,56.5 412.1,56.2 417.2,55.9 422.3,54.8 427.4,54.2 432.5,53.9 437.5,53.5 442.6,53.3 447.7,53.3 452.8,72.4 457.9,70.5 463.0,68.8 468.1,67.1 473.2,61.9 478.3,58.2 483.4,54.3 488.5,52.9 493.6,51.2 498.7,48.6 503.8,45.7 508.9,43.5 514.0,42.7 519.1,42.0 524.2,39.9 529.2,38.4 534.3,37.4 539.4,36.2 544.5,35.6 549.6,35.4 554.7,34.3 559.8,32.5 564.9,31.3 570.0,30.0" />
  
  <!-- Punto finale luminoso -->
  <circle cx="570.0" cy="30.0" r="4" fill="#ffffff" stroke="#0366d6" stroke-width="2.5" />
</svg>