<svg width="600" height="150" viewBox="0 0 600 150" xmlns="http://www.w3.org/2000/svg">
  <defs>
    <filter id="shadow2" x="-2%" y="-2%" width="104%" height="108%">
      <feDropShadow dx="0" dy="2" stdDeviation="3" flood-opacity="0.1" />
    </filter>
    <linearGradient id="fillGrad" x1="0" y1="0" x2="0" y2="1">
      <stop offset="0%" stop-color="#0366d6" stop-opacity="0.3"/>
      <stop offset="100%" stop-color="#0366d6" stop-opacity="0.02"/>
    </linearGradient>
  </defs>
  <rect width="600" height="150" rx="12" fill="#ffffff" filter="url(#shadow2)" stroke="#e1e4e8" stroke-width="1"/>
  <text x="20" y="24" fill="#2b3137" font-family="-apple-system,BlinkMacSystemFont,'Segoe UI',Helvetica,Arial,sans-serif" font-size="14" font-weight="600">📈 Download Growth (Actual: 76.7k)</text>
  
  <!-- Area sotto la linea -->
  <polygon fill="url(#fillGrad)" points="30.0,120.0,120 30.0,120.0 33.1,119.0 36.3,117.8 39.4,116.9 42.6,116.6 45.7,116.1 48.8,114.9 52.0,114.1 55.1,113.6 58.3,112.3 61.4,111.7 64.5,111.1 67.7,110.7 70.8,110.2 74.0,109.4 77.1,108.5 80.2,107.8 83.4,107.3 86.5,107.0 89.7,106.5 92.8,105.8 95.9,105.2 99.1,105.0 102.2,104.4 105.3,102.5 108.5,101.9 111.6,101.1 114.8,100.4 117.9,99.7 121.0,99.0 124.2,98.6 127.3,98.3 130.5,97.8 133.6,96.8 136.7,96.0 139.9,95.4 143.0,94.8 146.2,94.6 149.3,94.4 152.4,94.1 155.6,93.5 158.7,93.1 161.9,92.8 165.0,92.1 168.1,91.1 171.3,90.8 174.4,90.7 177.6,90.2 180.7,89.4 183.8,88.9 187.0,88.0 190.1,87.4 193.3,86.6 196.4,86.5 199.5,86.0 202.7,85.2 205.8,84.4 209.0,83.9 212.1,83.6 215.2,83.2 218.4,82.8 221.5,82.0 224.7,81.2 227.8,80.4 230.9,79.7 234.1,79.3 237.2,79.1 240.3,78.8 243.5,78.2 246.6,77.8 249.8,77.5 252.9,77.2 256.0,76.9 259.2,76.5 262.3,76.2 265.5,76.0 268.6,75.8 271.7,75.1 274.9,74.6 278.0,74.5 281.2,74.2 284.3,74.0 287.4,74.0 290.6,87.2 293.7,85.9 296.9,84.7 300.0,83.5 303.1,79.9 306.3,77.4 309.4,74.7 312.6,73.7 315.7,72.6 318.8,70.8 322.0,68.8 325.1,67.3 328.3,66.7 331.4,66.2 334.5,64.8 337.7,63.7 340.8,63.0 344.0,62.2 347.1,61.9 350.2,61.7 353.4,60.9 356.5,59.7 359.7,58.8 362.8,58.0 365.9,57.0 369.1,56.5 372.2,56.1 375.3,55.3 378.5,54.5 381.6,53.8 384.8,53.2 387.9,53.0 391.0,52.8 394.2,52.3 397.3,51.7 400.5,51.2 403.6,50.7 406.7,50.4 409.9,50.0 413.0,49.6 416.2,49.3 419.3,49.0 422.4,48.6 425.6,47.9 428.7,47.4 431.9,46.8 435.0,46.5 438.1,46.1 441.3,45.9 444.4,45.6 447.6,45.2 450.7,44.3 453.8,43.7 457.0,42.9 460.1,42.5 463.3,42.5 466.4,42.1 469.5,41.7 472.7,41.2 475.8,40.7 479.0,40.1 482.1,39.8 485.2,39.6 488.4,39.3 491.5,39.0 494.7,38.7 497.8,38.4 500.9,38.0 504.1,37.5 507.2,37.2 510.3,37.0 513.5,36.7 516.6,36.6 519.8,36.1 522.9,35.7 526.0,35.2 529.2,34.8 532.3,34.4 535.5,34.1 538.6,33.9 541.7,33.6 544.9,33.0 548.0,32.5 551.2,32.1 554.3,31.7 557.4,31.0 560.6,30.8 563.7,30.6 566.9,30.4 570.0,30.0 570.0,30.0,120" />
  
  <!-- Linea principale -->
  <polyline fill="none" stroke="#0366d6" stroke-width="2.5" stroke-linecap="round" stroke-linejoin="round" points="30.0,120.0 33.1,119.0 36.3,117.8 39.4,116.9 42.6,116.6 45.7,116.1 48.8,114.9 52.0,114.1 55.1,113.6 58.3,112.3 61.4,111.7 64.5,111.1 67.7,110.7 70.8,110.2 74.0,109.4 77.1,108.5 80.2,107.8 83.4,107.3 86.5,107.0 89.7,106.5 92.8,105.8 95.9,105.2 99.1,105.0 102.2,104.4 105.3,102.5 108.5,101.9 111.6,101.1 114.8,100.4 117.9,99.7 121.0,99.0 124.2,98.6 127.3,98.3 130.5,97.8 133.6,96.8 136.7,96.0 139.9,95.4 143.0,94.8 146.2,94.6 149.3,94.4 152.4,94.1 155.6,93.5 158.7,93.1 161.9,92.8 165.0,92.1 168.1,91.1 171.3,90.8 174.4,90.7 177.6,90.2 180.7,89.4 183.8,88.9 187.0,88.0 190.1,87.4 193.3,86.6 196.4,86.5 199.5,86.0 202.7,85.2 205.8,84.4 209.0,83.9 212.1,83.6 215.2,83.2 218.4,82.8 221.5,82.0 224.7,81.2 227.8,80.4 230.9,79.7 234.1,79.3 237.2,79.1 240.3,78.8 243.5,78.2 246.6,77.8 249.8,77.5 252.9,77.2 256.0,76.9 259.2,76.5 262.3,76.2 265.5,76.0 268.6,75.8 271.7,75.1 274.9,74.6 278.0,74.5 281.2,74.2 284.3,74.0 287.4,74.0 290.6,87.2 293.7,85.9 296.9,84.7 300.0,83.5 303.1,79.9 306.3,77.4 309.4,74.7 312.6,73.7 315.7,72.6 318.8,70.8 322.0,68.8 325.1,67.3 328.3,66.7 331.4,66.2 334.5,64.8 337.7,63.7 340.8,63.0 344.0,62.2 347.1,61.9 350.2,61.7 353.4,60.9 356.5,59.7 359.7,58.8 362.8,58.0 365.9,57.0 369.1,56.5 372.2,56.1 375.3,55.3 378.5,54.5 381.6,53.8 384.8,53.2 387.9,53.0 391.0,52.8 394.2,52.3 397.3,51.7 400.5,51.2 403.6,50.7 406.7,50.4 409.9,50.0 413.0,49.6 416.2,49.3 419.3,49.0 422.4,48.6 425.6,47.9 428.7,47.4 431.9,46.8 435.0,46.5 438.1,46.1 441.3,45.9 444.4,45.6 447.6,45.2 450.7,44.3 453.8,43.7 457.0,42.9 460.1,42.5 463.3,42.5 466.4,42.1 469.5,41.7 472.7,41.2 475.8,40.7 479.0,40.1 482.1,39.8 485.2,39.6 488.4,39.3 491.5,39.0 494.7,38.7 497.8,38.4 500.9,38.0 504.1,37.5 507.2,37.2 510.3,37.0 513.5,36.7 516.6,36.6 519.8,36.1 522.9,35.7 526.0,35.2 529.2,34.8 532.3,34.4 535.5,34.1 538.6,33.9 541.7,33.6 544.9,33.0 548.0,32.5 551.2,32.1 554.3,31.7 557.4,31.0 560.6,30.8 563.7,30.6 566.9,30.4 570.0,30.0" />
  
  <!-- Punto finale luminoso -->
  <circle cx="570.0" cy="30.0" r="4" fill="#ffffff" stroke="#0366d6" stroke-width="2.5" />
</svg>