<svg width="600" height="150" viewBox="0 0 600 150" xmlns="http://www.w3.org/2000/svg">
  <defs>
    <filter id="shadow2" x="-2%" y="-2%" width="104%" height="108%">
      <feDropShadow dx="0" dy="2" stdDeviation="3" flood-opacity="0.1" />
    </filter>
    <linearGradient id="fillGrad" x1="0" y1="0" x2="0" y2="1">
      <stop offset="0%" stop-color="#0366d6" stop-opacity="0.3"/>
      <stop offset="100%" stop-color="#0366d6" stop-opacity="0.02"/>
    </linearGradient>
  </defs>
  <rect width="600" height="150" rx="12" fill="#ffffff" filter="url(#shadow2)" stroke="#e1e4e8" stroke-width="1"/>
  <text x="20" y="24" fill="#2b3137" font-family="-apple-system,BlinkMacSystemFont,'Segoe UI',Helvetica,Arial,sans-serif" font-size="14" font-weight="600">📈 Download Growth (Actual: 84.1k)</text>
  
  <!-- Area sotto la linea -->
  <polygon fill="url(#fillGrad)" points="30.0,120.0,120 30.0,120.0 31.7,119.4 33.3,118.8 35.0,118.2 36.6,118.1 38.3,117.8 39.9,117.1 41.6,116.6 43.3,116.3 44.9,115.6 46.6,115.3 48.2,114.9 49.9,114.7 51.5,114.4 53.2,113.9 54.8,113.4 56.5,113.1 58.2,112.8 59.8,112.6 61.5,112.3 63.1,111.9 64.8,111.6 66.4,111.4 68.1,111.1 69.8,110.0 71.4,109.7 73.1,109.3 74.7,108.8 76.4,108.4 78.0,108.1 79.7,107.8 81.3,107.7 83.0,107.3 84.7,106.8 86.3,106.3 88.0,106.0 89.6,105.7 91.3,105.6 92.9,105.5 94.6,105.3 96.3,104.9 97.9,104.7 99.6,104.6 101.2,104.2 102.9,103.6 104.5,103.4 106.2,103.3 107.9,103.1 109.5,102.6 111.2,102.3 112.8,101.8 114.5,101.4 116.1,101.0 117.8,100.9 119.4,100.7 121.1,100.2 122.8,99.8 124.4,99.4 126.1,99.3 127.7,99.1 129.4,98.9 131.0,98.4 132.7,97.9 134.4,97.5 136.0,97.1 137.7,96.9 139.3,96.7 141.0,96.6 142.6,96.2 144.3,96.0 146.0,95.8 147.6,95.7 149.3,95.5 150.9,95.3 152.6,95.1 154.2,95.0 155.9,94.9 157.5,94.4 159.2,94.2 160.9,94.1 162.5,93.9 164.2,93.9 165.8,93.9 167.5,101.3 169.1,100.6 170.8,99.9 172.5,99.2 174.1,97.2 175.8,95.8 177.4,94.2 179.1,93.7 180.7,93.0 182.4,92.0 184.0,90.9 185.7,90.0 187.4,89.7 189.0,89.4 190.7,88.6 192.3,88.0 194.0,87.6 195.6,87.1 197.3,86.9 199.0,86.8 200.6,86.4 202.3,85.7 203.9,85.2 205.6,84.7 207.2,84.1 208.9,83.9 210.6,83.7 212.2,83.2 213.9,82.8 215.5,82.3 217.2,82.0 218.8,81.9 220.5,81.8 222.1,81.5 223.8,81.1 225.5,80.9 227.1,80.6 228.8,80.4 230.4,80.2 232.1,80.0 233.7,79.8 235.4,79.6 237.1,79.4 238.7,79.0 240.4,78.7 242.0,78.4 243.7,78.2 245.3,78.0 247.0,77.8 248.7,77.7 250.3,77.5 252.0,76.9 253.6,76.6 255.3,76.1 256.9,75.9 258.6,75.9 260.2,75.7 261.9,75.5 263.6,75.2 265.2,74.9 266.9,74.6 268.5,74.4 270.2,74.3 271.8,74.1 273.5,73.9 275.2,73.8 276.8,73.6 278.5,73.4 280.1,73.1 281.8,72.9 283.4,72.8 285.1,72.6 286.7,72.5 288.4,72.3 290.1,72.0 291.7,71.8 293.4,71.5 295.0,71.3 296.7,71.1 298.3,71.0 300.0,70.9 301.7,70.5 303.3,70.2 305.0,70.0 306.6,69.8 308.3,69.3 309.9,69.3 311.6,69.1 313.3,69.0 314.9,68.8 316.6,68.6 318.2,68.4 319.9,68.2 321.5,68.0 323.2,67.9 324.8,67.7 326.5,67.6 328.2,67.5 329.8,67.3 331.5,67.0 333.1,66.8 334.8,66.6 336.4,66.5 338.1,66.3 339.8,66.2 341.4,66.0 343.1,65.9 344.7,65.7 346.4,65.4 348.0,65.0 349.7,64.8 351.3,64.6 353.0,64.6 354.7,64.5 356.3,64.3 358.0,64.0 359.6,63.8 361.3,63.7 362.9,63.5 364.6,63.3 366.3,63.1 367.9,63.0 369.6,62.9 371.2,62.6 372.9,62.4 374.5,62.2 376.2,61.9 377.9,61.8 379.5,61.8 381.2,61.7 382.8,61.5 384.5,61.3 386.1,61.1 387.8,61.0 389.4,60.8 391.1,60.6 392.8,60.5 394.4,60.4 396.1,60.2 397.7,60.0 399.4,59.7 401.0,59.5 402.7,59.3 404.4,59.2 406.0,59.1 407.7,59.0 409.3,58.9 411.0,58.8 412.6,58.6 414.3,58.4 416.0,58.2 417.6,58.0 419.3,57.9 420.9,57.8 422.6,57.6 424.2,57.4 425.9,57.3 427.5,57.1 429.2,57.0 430.9,56.8 432.5,56.6 434.2,56.4 435.8,56.3 437.5,56.2 439.1,56.1 440.8,56.0 442.5,55.8 444.1,55.7 445.8,55.6 447.4,55.5 449.1,55.1 450.7,54.9 452.4,59.8 454.0,58.8 455.7,57.0 457.4,56.3 459.0,55.4 460.7,54.4 462.3,53.8 464.0,53.4 465.6,52.7 467.3,51.6 469.0,50.8 470.6,50.6 472.3,50.2 473.9,49.9 475.6,49.3 477.2,48.8 478.9,48.2 480.6,47.9 482.2,47.4 483.9,47.1 485.5,46.8 487.2,46.5 488.8,46.2 490.5,46.0 492.1,45.4 493.8,45.1 495.5,44.6 497.1,43.9 498.8,43.5 500.4,43.3 502.1,43.1 503.7,42.8 505.4,42.4 507.1,42.0 508.7,41.7 510.4,40.7 512.0,39.9 513.7,39.6 515.3,39.4 517.0,39.0 518.7,38.5 520.3,38.1 522.0,37.7 523.6,37.4 525.3,37.0 526.9,36.7 528.6,36.4 530.2,35.9 531.9,35.7 533.6,35.5 535.2,35.3 536.9,34.8 538.5,34.5 540.2,34.3 541.8,34.1 543.5,33.9 545.2,33.6 546.8,33.4 548.5,33.2 550.1,33.0 551.8,32.8 553.4,32.6 555.1,32.3 556.7,32.1 558.4,31.7 560.1,31.3 561.7,31.0 563.4,30.8 565.0,30.6 566.7,30.4 568.3,30.2 570.0,30.0 570.0,30.0,120" />
  
  <!-- Linea principale -->
  <polyline fill="none" stroke="#0366d6" stroke-width="2.5" stroke-linecap="round" stroke-linejoin="round" points="30.0,120.0 31.7,119.4 33.3,118.8 35.0,118.2 36.6,118.1 38.3,117.8 39.9,117.1 41.6,116.6 43.3,116.3 44.9,115.6 46.6,115.3 48.2,114.9 49.9,114.7 51.5,114.4 53.2,113.9 54.8,113.4 56.5,113.1 58.2,112.8 59.8,112.6 61.5,112.3 63.1,111.9 64.8,111.6 66.4,111.4 68.1,111.1 69.8,110.0 71.4,109.7 73.1,109.3 74.7,108.8 76.4,108.4 78.0,108.1 79.7,107.8 81.3,107.7 83.0,107.3 84.7,106.8 86.3,106.3 88.0,106.0 89.6,105.7 91.3,105.6 92.9,105.5 94.6,105.3 96.3,104.9 97.9,104.7 99.6,104.6 101.2,104.2 102.9,103.6 104.5,103.4 106.2,103.3 107.9,103.1 109.5,102.6 111.2,102.3 112.8,101.8 114.5,101.4 116.1,101.0 117.8,100.9 119.4,100.7 121.1,100.2 122.8,99.8 124.4,99.4 126.1,99.3 127.7,99.1 129.4,98.9 131.0,98.4 132.7,97.9 134.4,97.5 136.0,97.1 137.7,96.9 139.3,96.7 141.0,96.6 142.6,96.2 144.3,96.0 146.0,95.8 147.6,95.7 149.3,95.5 150.9,95.3 152.6,95.1 154.2,95.0 155.9,94.9 157.5,94.4 159.2,94.2 160.9,94.1 162.5,93.9 164.2,93.9 165.8,93.9 167.5,101.3 169.1,100.6 170.8,99.9 172.5,99.2 174.1,97.2 175.8,95.8 177.4,94.2 179.1,93.7 180.7,93.0 182.4,92.0 184.0,90.9 185.7,90.0 187.4,89.7 189.0,89.4 190.7,88.6 192.3,88.0 194.0,87.6 195.6,87.1 197.3,86.9 199.0,86.8 200.6,86.4 202.3,85.7 203.9,85.2 205.6,84.7 207.2,84.1 208.9,83.9 210.6,83.7 212.2,83.2 213.9,82.8 215.5,82.3 217.2,82.0 218.8,81.9 220.5,81.8 222.1,81.5 223.8,81.1 225.5,80.9 227.1,80.6 228.8,80.4 230.4,80.2 232.1,80.0 233.7,79.8 235.4,79.6 237.1,79.4 238.7,79.0 240.4,78.7 242.0,78.4 243.7,78.2 245.3,78.0 247.0,77.8 248.7,77.7 250.3,77.5 252.0,76.9 253.6,76.6 255.3,76.1 256.9,75.9 258.6,75.9 260.2,75.7 261.9,75.5 263.6,75.2 265.2,74.9 266.9,74.6 268.5,74.4 270.2,74.3 271.8,74.1 273.5,73.9 275.2,73.8 276.8,73.6 278.5,73.4 280.1,73.1 281.8,72.9 283.4,72.8 285.1,72.6 286.7,72.5 288.4,72.3 290.1,72.0 291.7,71.8 293.4,71.5 295.0,71.3 296.7,71.1 298.3,71.0 300.0,70.9 301.7,70.5 303.3,70.2 305.0,70.0 306.6,69.8 308.3,69.3 309.9,69.3 311.6,69.1 313.3,69.0 314.9,68.8 316.6,68.6 318.2,68.4 319.9,68.2 321.5,68.0 323.2,67.9 324.8,67.7 326.5,67.6 328.2,67.5 329.8,67.3 331.5,67.0 333.1,66.8 334.8,66.6 336.4,66.5 338.1,66.3 339.8,66.2 341.4,66.0 343.1,65.9 344.7,65.7 346.4,65.4 348.0,65.0 349.7,64.8 351.3,64.6 353.0,64.6 354.7,64.5 356.3,64.3 358.0,64.0 359.6,63.8 361.3,63.7 362.9,63.5 364.6,63.3 366.3,63.1 367.9,63.0 369.6,62.9 371.2,62.6 372.9,62.4 374.5,62.2 376.2,61.9 377.9,61.8 379.5,61.8 381.2,61.7 382.8,61.5 384.5,61.3 386.1,61.1 387.8,61.0 389.4,60.8 391.1,60.6 392.8,60.5 394.4,60.4 396.1,60.2 397.7,60.0 399.4,59.7 401.0,59.5 402.7,59.3 404.4,59.2 406.0,59.1 407.7,59.0 409.3,58.9 411.0,58.8 412.6,58.6 414.3,58.4 416.0,58.2 417.6,58.0 419.3,57.9 420.9,57.8 422.6,57.6 424.2,57.4 425.9,57.3 427.5,57.1 429.2,57.0 430.9,56.8 432.5,56.6 434.2,56.4 435.8,56.3 437.5,56.2 439.1,56.1 440.8,56.0 442.5,55.8 444.1,55.7 445.8,55.6 447.4,55.5 449.1,55.1 450.7,54.9 452.4,59.8 454.0,58.8 455.7,57.0 457.4,56.3 459.0,55.4 460.7,54.4 462.3,53.8 464.0,53.4 465.6,52.7 467.3,51.6 469.0,50.8 470.6,50.6 472.3,50.2 473.9,49.9 475.6,49.3 477.2,48.8 478.9,48.2 480.6,47.9 482.2,47.4 483.9,47.1 485.5,46.8 487.2,46.5 488.8,46.2 490.5,46.0 492.1,45.4 493.8,45.1 495.5,44.6 497.1,43.9 498.8,43.5 500.4,43.3 502.1,43.1 503.7,42.8 505.4,42.4 507.1,42.0 508.7,41.7 510.4,40.7 512.0,39.9 513.7,39.6 515.3,39.4 517.0,39.0 518.7,38.5 520.3,38.1 522.0,37.7 523.6,37.4 525.3,37.0 526.9,36.7 528.6,36.4 530.2,35.9 531.9,35.7 533.6,35.5 535.2,35.3 536.9,34.8 538.5,34.5 540.2,34.3 541.8,34.1 543.5,33.9 545.2,33.6 546.8,33.4 548.5,33.2 550.1,33.0 551.8,32.8 553.4,32.6 555.1,32.3 556.7,32.1 558.4,31.7 560.1,31.3 561.7,31.0 563.4,30.8 565.0,30.6 566.7,30.4 568.3,30.2 570.0,30.0" />
  
  <!-- Punto finale luminoso -->
  <circle cx="570.0" cy="30.0" r="4" fill="#ffffff" stroke="#0366d6" stroke-width="2.5" />
</svg>