<svg width="600" height="150" viewBox="0 0 600 150" xmlns="http://www.w3.org/2000/svg">
  <defs>
    <filter id="shadow2" x="-2%" y="-2%" width="104%" height="108%">
      <feDropShadow dx="0" dy="2" stdDeviation="3" flood-opacity="0.1" />
    </filter>
    <linearGradient id="fillGrad" x1="0" y1="0" x2="0" y2="1">
      <stop offset="0%" stop-color="#0366d6" stop-opacity="0.3"/>
      <stop offset="100%" stop-color="#0366d6" stop-opacity="0.02"/>
    </linearGradient>
  </defs>
  <rect width="600" height="150" rx="12" fill="#ffffff" filter="url(#shadow2)" stroke="#e1e4e8" stroke-width="1"/>
  <text x="20" y="24" fill="#2b3137" font-family="-apple-system,BlinkMacSystemFont,'Segoe UI',Helvetica,Arial,sans-serif" font-size="14" font-weight="600">📈 Download Growth (Actual: 76.8k)</text>
  
  <!-- Area sotto la linea -->
  <polygon fill="url(#fillGrad)" points="30.0,120.0,120 30.0,120.0 33.1,119.0 36.1,117.9 39.2,116.9 42.2,116.7 45.3,116.2 48.3,115.0 51.4,114.2 54.4,113.7 57.5,112.5 60.5,111.9 63.6,111.3 66.6,110.9 69.7,110.4 72.7,109.5 75.8,108.7 78.8,108.0 81.9,107.6 84.9,107.2 88.0,106.7 91.0,106.1 94.1,105.5 97.1,105.2 100.2,104.7 103.2,102.8 106.3,102.2 109.3,101.5 112.4,100.7 115.4,100.0 118.5,99.4 121.5,99.0 124.6,98.7 127.6,98.1 130.7,97.2 133.7,96.4 136.8,95.9 139.8,95.2 142.9,95.1 145.9,94.9 149.0,94.6 152.0,93.9 155.1,93.6 158.1,93.3 161.2,92.6 164.2,91.6 167.3,91.4 170.3,91.2 173.4,90.8 176.4,89.9 179.5,89.4 182.5,88.6 185.6,88.0 188.6,87.2 191.7,87.1 194.7,86.6 197.8,85.8 200.8,85.1 203.9,84.5 206.9,84.2 210.0,83.8 213.1,83.5 216.1,82.6 219.2,81.8 222.2,81.1 225.3,80.4 228.3,80.1 231.4,79.8 234.4,79.5 237.5,79.0 240.5,78.6 243.6,78.2 246.6,78.0 249.7,77.7 252.7,77.3 255.8,77.0 258.8,76.8 261.9,76.6 264.9,75.8 268.0,75.4 271.0,75.3 274.1,75.0 277.1,74.8 280.2,74.8 283.2,87.7 286.3,86.5 289.3,85.3 292.4,84.1 295.4,80.6 298.5,78.2 301.5,75.5 304.6,74.6 307.6,73.4 310.7,71.6 313.7,69.7 316.8,68.2 319.8,67.7 322.9,67.1 325.9,65.7 329.0,64.7 332.0,64.0 335.1,63.2 338.1,62.9 341.2,62.7 344.2,62.0 347.3,60.8 350.3,59.9 353.4,59.1 356.4,58.1 359.5,57.6 362.5,57.3 365.6,56.4 368.6,55.7 371.7,55.0 374.7,54.4 377.8,54.1 380.8,54.0 383.9,53.5 386.9,52.9 390.0,52.4 393.1,52.0 396.1,51.6 399.2,51.2 402.2,50.8 405.3,50.5 408.3,50.2 411.4,49.9 414.4,49.2 417.5,48.7 420.5,48.1 423.6,47.8 426.6,47.4 429.7,47.2 432.7,46.9 435.8,46.6 438.8,45.6 441.9,45.0 444.9,44.2 448.0,43.9 451.0,43.8 454.1,43.5 457.1,43.1 460.2,42.6 463.2,42.1 466.3,41.6 469.3,41.2 472.4,41.0 475.4,40.7 478.5,40.4 481.5,40.2 484.6,39.8 487.6,39.5 490.7,38.9 493.7,38.7 496.8,38.5 499.8,38.2 502.9,38.0 505.9,37.5 509.0,37.2 512.0,36.7 515.1,36.3 518.1,35.9 521.2,35.6 524.2,35.4 527.3,35.1 530.3,34.6 533.4,34.0 536.4,33.6 539.5,33.2 542.5,32.5 545.6,32.4 548.6,32.1 551.7,31.9 554.7,31.6 557.8,31.3 560.8,30.9 563.9,30.6 566.9,30.3 570.0,30.0 570.0,30.0,120" />
  
  <!-- Linea principale -->
  <polyline fill="none" stroke="#0366d6" stroke-width="2.5" stroke-linecap="round" stroke-linejoin="round" points="30.0,120.0 33.1,119.0 36.1,117.9 39.2,116.9 42.2,116.7 45.3,116.2 48.3,115.0 51.4,114.2 54.4,113.7 57.5,112.5 60.5,111.9 63.6,111.3 66.6,110.9 69.7,110.4 72.7,109.5 75.8,108.7 78.8,108.0 81.9,107.6 84.9,107.2 88.0,106.7 91.0,106.1 94.1,105.5 97.1,105.2 100.2,104.7 103.2,102.8 106.3,102.2 109.3,101.5 112.4,100.7 115.4,100.0 118.5,99.4 121.5,99.0 124.6,98.7 127.6,98.1 130.7,97.2 133.7,96.4 136.8,95.9 139.8,95.2 142.9,95.1 145.9,94.9 149.0,94.6 152.0,93.9 155.1,93.6 158.1,93.3 161.2,92.6 164.2,91.6 167.3,91.4 170.3,91.2 173.4,90.8 176.4,89.9 179.5,89.4 182.5,88.6 185.6,88.0 188.6,87.2 191.7,87.1 194.7,86.6 197.8,85.8 200.8,85.1 203.9,84.5 206.9,84.2 210.0,83.8 213.1,83.5 216.1,82.6 219.2,81.8 222.2,81.1 225.3,80.4 228.3,80.1 231.4,79.8 234.4,79.5 237.5,79.0 240.5,78.6 243.6,78.2 246.6,78.0 249.7,77.7 252.7,77.3 255.8,77.0 258.8,76.8 261.9,76.6 264.9,75.8 268.0,75.4 271.0,75.3 274.1,75.0 277.1,74.8 280.2,74.8 283.2,87.7 286.3,86.5 289.3,85.3 292.4,84.1 295.4,80.6 298.5,78.2 301.5,75.5 304.6,74.6 307.6,73.4 310.7,71.6 313.7,69.7 316.8,68.2 319.8,67.7 322.9,67.1 325.9,65.7 329.0,64.7 332.0,64.0 335.1,63.2 338.1,62.9 341.2,62.7 344.2,62.0 347.3,60.8 350.3,59.9 353.4,59.1 356.4,58.1 359.5,57.6 362.5,57.3 365.6,56.4 368.6,55.7 371.7,55.0 374.7,54.4 377.8,54.1 380.8,54.0 383.9,53.5 386.9,52.9 390.0,52.4 393.1,52.0 396.1,51.6 399.2,51.2 402.2,50.8 405.3,50.5 408.3,50.2 411.4,49.9 414.4,49.2 417.5,48.7 420.5,48.1 423.6,47.8 426.6,47.4 429.7,47.2 432.7,46.9 435.8,46.6 438.8,45.6 441.9,45.0 444.9,44.2 448.0,43.9 451.0,43.8 454.1,43.5 457.1,43.1 460.2,42.6 463.2,42.1 466.3,41.6 469.3,41.2 472.4,41.0 475.4,40.7 478.5,40.4 481.5,40.2 484.6,39.8 487.6,39.5 490.7,38.9 493.7,38.7 496.8,38.5 499.8,38.2 502.9,38.0 505.9,37.5 509.0,37.2 512.0,36.7 515.1,36.3 518.1,35.9 521.2,35.6 524.2,35.4 527.3,35.1 530.3,34.6 533.4,34.0 536.4,33.6 539.5,33.2 542.5,32.5 545.6,32.4 548.6,32.1 551.7,31.9 554.7,31.6 557.8,31.3 560.8,30.9 563.9,30.6 566.9,30.3 570.0,30.0" />
  
  <!-- Punto finale luminoso -->
  <circle cx="570.0" cy="30.0" r="4" fill="#ffffff" stroke="#0366d6" stroke-width="2.5" />
</svg>