<svg width="600" height="150" viewBox="0 0 600 150" xmlns="http://www.w3.org/2000/svg">
  <defs>
    <filter id="shadow2" x="-2%" y="-2%" width="104%" height="108%">
      <feDropShadow dx="0" dy="2" stdDeviation="3" flood-opacity="0.1" />
    </filter>
    <linearGradient id="fillGrad" x1="0" y1="0" x2="0" y2="1">
      <stop offset="0%" stop-color="#0366d6" stop-opacity="0.3"/>
      <stop offset="100%" stop-color="#0366d6" stop-opacity="0.02"/>
    </linearGradient>
  </defs>
  <rect width="600" height="150" rx="12" fill="#ffffff" filter="url(#shadow2)" stroke="#e1e4e8" stroke-width="1"/>
  <text x="20" y="24" fill="#2b3137" font-family="-apple-system,BlinkMacSystemFont,'Segoe UI',Helvetica,Arial,sans-serif" font-size="14" font-weight="600">📈 Download Growth (Actual: 78.1k)</text>
  
  <!-- Area sotto la linea -->
  <polygon fill="url(#fillGrad)" points="30.0,120.0,120 30.0,120.0 32.5,119.1 35.0,118.1 37.5,117.3 40.0,117.1 42.5,116.6 45.0,115.6 47.5,114.9 50.0,114.4 52.5,113.4 55.0,112.8 57.5,112.3 60.0,112.0 62.5,111.5 65.0,110.8 67.5,110.0 70.0,109.4 72.5,109.0 75.0,108.7 77.5,108.3 80.0,107.7 82.5,107.2 85.0,107.0 87.5,106.5 90.0,104.8 92.5,104.3 95.0,103.6 97.5,103.0 100.0,102.4 102.5,101.8 105.0,101.5 107.5,101.2 110.0,100.7 112.5,99.9 115.0,99.2 117.5,98.7 120.0,98.1 122.5,98.0 125.0,97.8 127.5,97.5 130.0,97.0 132.5,96.7 135.0,96.5 137.5,95.8 140.0,94.9 142.5,94.7 145.0,94.5 147.5,94.2 150.0,93.5 152.5,93.0 155.0,92.2 157.5,91.7 160.0,91.1 162.5,90.9 165.0,90.5 167.5,89.8 170.0,89.2 172.5,88.7 175.0,88.4 177.5,88.1 180.0,87.8 182.5,87.0 185.0,86.3 187.5,85.7 190.0,85.1 192.5,84.7 195.0,84.6 197.5,84.3 200.0,83.8 202.5,83.4 205.0,83.1 207.5,82.9 210.0,82.7 212.5,82.3 215.0,82.0 217.5,81.9 220.0,81.7 222.5,81.0 225.0,80.6 227.5,80.5 230.0,80.3 232.5,80.1 235.0,80.1 237.5,91.5 240.0,90.4 242.5,89.4 245.0,88.3 247.5,85.2 250.0,83.1 252.5,80.7 255.0,79.9 257.5,78.9 260.0,77.3 262.5,75.6 265.0,74.3 267.5,73.8 270.0,73.3 272.5,72.1 275.0,71.2 277.5,70.6 280.0,69.9 282.5,69.6 285.0,69.4 287.5,68.8 290.0,67.7 292.5,67.0 295.0,66.2 297.5,65.3 300.0,64.9 302.5,64.6 305.0,63.9 307.5,63.2 310.0,62.6 312.5,62.1 315.0,61.9 317.5,61.7 320.0,61.3 322.5,60.8 325.0,60.3 327.5,59.9 330.0,59.6 332.5,59.3 335.0,59.0 337.5,58.7 340.0,58.4 342.5,58.1 345.0,57.5 347.5,57.1 350.0,56.6 352.5,56.3 355.0,55.9 357.5,55.7 360.0,55.4 362.5,55.2 365.0,54.3 367.5,53.8 370.0,53.1 372.5,52.8 375.0,52.8 377.5,52.4 380.0,52.1 382.5,51.7 385.0,51.3 387.5,50.8 390.0,50.4 392.5,50.3 395.0,50.0 397.5,49.8 400.0,49.5 402.5,49.2 405.0,48.9 407.5,48.4 410.0,48.2 412.5,48.0 415.0,47.8 417.5,47.6 420.0,47.2 422.5,46.9 425.0,46.5 427.5,46.1 430.0,45.8 432.5,45.5 435.0,45.4 437.5,45.1 440.0,44.6 442.5,44.1 445.0,43.8 447.5,43.4 450.0,42.8 452.5,42.6 455.0,42.4 457.5,42.3 460.0,42.0 462.5,41.7 465.0,41.3 467.5,41.1 470.0,40.8 472.5,40.6 475.0,40.3 477.5,40.1 480.0,39.9 482.5,39.6 485.0,39.2 487.5,39.0 490.0,38.6 492.5,38.4 495.0,38.2 497.5,37.9 500.0,37.7 502.5,37.5 505.0,37.2 507.5,36.8 510.0,36.2 512.5,35.9 515.0,35.6 517.5,35.5 520.0,35.4 522.5,35.1 525.0,34.6 527.5,34.4 530.0,34.2 532.5,33.9 535.0,33.6 537.5,33.3 540.0,33.1 542.5,32.9 545.0,32.5 547.5,32.2 550.0,31.8 552.5,31.5 555.0,31.3 557.5,31.2 560.0,31.1 562.5,30.8 565.0,30.6 567.5,30.3 570.0,30.0 570.0,30.0,120" />
  
  <!-- Linea principale -->
  <polyline fill="none" stroke="#0366d6" stroke-width="2.5" stroke-linecap="round" stroke-linejoin="round" points="30.0,120.0 32.5,119.1 35.0,118.1 37.5,117.3 40.0,117.1 42.5,116.6 45.0,115.6 47.5,114.9 50.0,114.4 52.5,113.4 55.0,112.8 57.5,112.3 60.0,112.0 62.5,111.5 65.0,110.8 67.5,110.0 70.0,109.4 72.5,109.0 75.0,108.7 77.5,108.3 80.0,107.7 82.5,107.2 85.0,107.0 87.5,106.5 90.0,104.8 92.5,104.3 95.0,103.6 97.5,103.0 100.0,102.4 102.5,101.8 105.0,101.5 107.5,101.2 110.0,100.7 112.5,99.9 115.0,99.2 117.5,98.7 120.0,98.1 122.5,98.0 125.0,97.8 127.5,97.5 130.0,97.0 132.5,96.7 135.0,96.5 137.5,95.8 140.0,94.9 142.5,94.7 145.0,94.5 147.5,94.2 150.0,93.5 152.5,93.0 155.0,92.2 157.5,91.7 160.0,91.1 162.5,90.9 165.0,90.5 167.5,89.8 170.0,89.2 172.5,88.7 175.0,88.4 177.5,88.1 180.0,87.8 182.5,87.0 185.0,86.3 187.5,85.7 190.0,85.1 192.5,84.7 195.0,84.6 197.5,84.3 200.0,83.8 202.5,83.4 205.0,83.1 207.5,82.9 210.0,82.7 212.5,82.3 215.0,82.0 217.5,81.9 220.0,81.7 222.5,81.0 225.0,80.6 227.5,80.5 230.0,80.3 232.5,80.1 235.0,80.1 237.5,91.5 240.0,90.4 242.5,89.4 245.0,88.3 247.5,85.2 250.0,83.1 252.5,80.7 255.0,79.9 257.5,78.9 260.0,77.3 262.5,75.6 265.0,74.3 267.5,73.8 270.0,73.3 272.5,72.1 275.0,71.2 277.5,70.6 280.0,69.9 282.5,69.6 285.0,69.4 287.5,68.8 290.0,67.7 292.5,67.0 295.0,66.2 297.5,65.3 300.0,64.9 302.5,64.6 305.0,63.9 307.5,63.2 310.0,62.6 312.5,62.1 315.0,61.9 317.5,61.7 320.0,61.3 322.5,60.8 325.0,60.3 327.5,59.9 330.0,59.6 332.5,59.3 335.0,59.0 337.5,58.7 340.0,58.4 342.5,58.1 345.0,57.5 347.5,57.1 350.0,56.6 352.5,56.3 355.0,55.9 357.5,55.7 360.0,55.4 362.5,55.2 365.0,54.3 367.5,53.8 370.0,53.1 372.5,52.8 375.0,52.8 377.5,52.4 380.0,52.1 382.5,51.7 385.0,51.3 387.5,50.8 390.0,50.4 392.5,50.3 395.0,50.0 397.5,49.8 400.0,49.5 402.5,49.2 405.0,48.9 407.5,48.4 410.0,48.2 412.5,48.0 415.0,47.8 417.5,47.6 420.0,47.2 422.5,46.9 425.0,46.5 427.5,46.1 430.0,45.8 432.5,45.5 435.0,45.4 437.5,45.1 440.0,44.6 442.5,44.1 445.0,43.8 447.5,43.4 450.0,42.8 452.5,42.6 455.0,42.4 457.5,42.3 460.0,42.0 462.5,41.7 465.0,41.3 467.5,41.1 470.0,40.8 472.5,40.6 475.0,40.3 477.5,40.1 480.0,39.9 482.5,39.6 485.0,39.2 487.5,39.0 490.0,38.6 492.5,38.4 495.0,38.2 497.5,37.9 500.0,37.7 502.5,37.5 505.0,37.2 507.5,36.8 510.0,36.2 512.5,35.9 515.0,35.6 517.5,35.5 520.0,35.4 522.5,35.1 525.0,34.6 527.5,34.4 530.0,34.2 532.5,33.9 535.0,33.6 537.5,33.3 540.0,33.1 542.5,32.9 545.0,32.5 547.5,32.2 550.0,31.8 552.5,31.5 555.0,31.3 557.5,31.2 560.0,31.1 562.5,30.8 565.0,30.6 567.5,30.3 570.0,30.0" />
  
  <!-- Punto finale luminoso -->
  <circle cx="570.0" cy="30.0" r="4" fill="#ffffff" stroke="#0366d6" stroke-width="2.5" />
</svg>