<svg width="600" height="150" viewBox="0 0 600 150" xmlns="http://www.w3.org/2000/svg">
  <defs>
    <filter id="shadow2" x="-2%" y="-2%" width="104%" height="108%">
      <feDropShadow dx="0" dy="2" stdDeviation="3" flood-opacity="0.1" />
    </filter>
    <linearGradient id="fillGrad" x1="0" y1="0" x2="0" y2="1">
      <stop offset="0%" stop-color="#0366d6" stop-opacity="0.3"/>
      <stop offset="100%" stop-color="#0366d6" stop-opacity="0.02"/>
    </linearGradient>
  </defs>
  <rect width="600" height="150" rx="12" fill="#ffffff" filter="url(#shadow2)" stroke="#e1e4e8" stroke-width="1"/>
  <text x="20" y="24" fill="#2b3137" font-family="-apple-system,BlinkMacSystemFont,'Segoe UI',Helvetica,Arial,sans-serif" font-size="14" font-weight="600">📈 Download Growth (Actual: 86.4k)</text>
  
  <!-- Area sotto la linea -->
  <polygon fill="url(#fillGrad)" points="30.0,120.0,120 30.0,120.0 31.4,119.5 32.8,118.9 34.2,118.4 35.6,118.3 37.0,118.0 38.5,117.4 39.9,117.0 41.3,116.8 42.7,116.2 44.1,115.8 45.5,115.5 46.9,115.4 48.3,115.1 49.7,114.7 51.1,114.2 52.6,113.9 54.0,113.6 55.4,113.5 56.8,113.2 58.2,112.9 59.6,112.6 61.0,112.5 62.4,112.2 63.8,111.2 65.2,110.9 66.7,110.5 68.1,110.1 69.5,109.8 70.9,109.5 72.3,109.3 73.7,109.1 75.1,108.8 76.5,108.4 77.9,108.0 79.3,107.7 80.8,107.3 82.2,107.3 83.6,107.2 85.0,107.0 86.4,106.7 87.8,106.5 89.2,106.4 90.6,106.0 92.0,105.5 93.4,105.4 94.9,105.3 96.3,105.1 97.7,104.6 99.1,104.4 100.5,103.9 101.9,103.6 103.3,103.2 104.7,103.2 106.1,102.9 107.5,102.6 109.0,102.2 110.4,101.9 111.8,101.7 113.2,101.5 114.6,101.4 116.0,100.9 117.4,100.5 118.8,100.1 120.2,99.8 121.6,99.6 123.1,99.5 124.5,99.3 125.9,99.0 127.3,98.8 128.7,98.7 130.1,98.5 131.5,98.4 132.9,98.2 134.3,98.0 135.7,97.9 137.2,97.8 138.6,97.4 140.0,97.2 141.4,97.1 142.8,97.0 144.2,96.9 145.6,96.9 147.0,103.5 148.4,102.9 149.8,102.3 151.3,101.7 152.7,99.9 154.1,98.6 155.5,97.3 156.9,96.8 158.3,96.2 159.7,95.3 161.1,94.3 162.5,93.5 163.9,93.3 165.4,93.0 166.8,92.3 168.2,91.8 169.6,91.4 171.0,91.0 172.4,90.8 173.8,90.7 175.2,90.4 176.6,89.7 178.0,89.3 179.5,88.9 180.9,88.4 182.3,88.1 183.7,88.0 185.1,87.5 186.5,87.1 187.9,86.8 189.3,86.5 190.7,86.4 192.1,86.3 193.6,86.0 195.0,85.7 196.4,85.5 197.8,85.2 199.2,85.0 200.6,84.9 202.0,84.7 203.4,84.5 204.8,84.3 206.2,84.2 207.7,83.8 209.1,83.6 210.5,83.3 211.9,83.1 213.3,82.9 214.7,82.8 216.1,82.6 217.5,82.5 218.9,82.0 220.3,81.7 221.7,81.3 223.2,81.1 224.6,81.1 226.0,80.9 227.4,80.7 228.8,80.4 230.2,80.2 231.6,79.9 233.0,79.7 234.4,79.6 235.8,79.5 237.3,79.4 238.7,79.2 240.1,79.0 241.5,78.9 242.9,78.6 244.3,78.4 245.7,78.4 247.1,78.2 248.5,78.1 249.9,77.9 251.4,77.7 252.8,77.5 254.2,77.3 255.6,77.0 257.0,76.9 258.4,76.8 259.8,76.7 261.2,76.4 262.6,76.1 264.0,75.9 265.5,75.7 266.9,75.3 268.3,75.2 269.7,75.1 271.1,75.0 272.5,74.8 273.9,74.7 275.3,74.5 276.7,74.3 278.1,74.2 279.6,74.0 281.0,73.9 282.4,73.7 283.8,73.7 285.2,73.5 286.6,73.2 288.0,73.1 289.4,72.9 290.8,72.8 292.2,72.7 293.7,72.5 295.1,72.4 296.5,72.3 297.9,72.1 299.3,71.8 300.7,71.5 302.1,71.3 303.5,71.2 304.9,71.1 306.3,71.0 307.8,70.8 309.2,70.6 310.6,70.4 312.0,70.3 313.4,70.2 314.8,70.0 316.2,69.8 317.6,69.7 319.0,69.6 320.4,69.4 321.9,69.2 323.3,69.0 324.7,68.8 326.1,68.7 327.5,68.6 328.9,68.5 330.3,68.4 331.7,68.2 333.1,68.1 334.5,67.9 336.0,67.7 337.4,67.6 338.8,67.5 340.2,67.4 341.6,67.2 343.0,67.0 344.4,66.8 345.8,66.7 347.2,66.5 348.6,66.4 350.1,66.3 351.5,66.2 352.9,66.1 354.3,66.0 355.7,65.8 357.1,65.6 358.5,65.5 359.9,65.3 361.3,65.2 362.7,65.1 364.2,64.9 365.6,64.8 367.0,64.7 368.4,64.5 369.8,64.4 371.2,64.2 372.6,64.1 374.0,63.9 375.4,63.8 376.8,63.8 378.3,63.6 379.7,63.5 381.1,63.4 382.5,63.3 383.9,63.2 385.3,63.1 386.7,62.8 388.1,62.6 389.5,66.9 390.9,66.0 392.3,64.4 393.8,63.8 395.2,63.0 396.6,62.1 398.0,61.6 399.4,61.2 400.8,60.6 402.2,59.7 403.6,59.0 405.0,58.8 406.4,58.4 407.9,58.1 409.3,57.7 410.7,57.2 412.1,56.7 413.5,56.4 414.9,55.9 416.3,55.7 417.7,55.4 419.1,55.2 420.5,54.9 422.0,54.7 423.4,54.2 424.8,53.9 426.2,53.5 427.6,52.9 429.0,52.5 430.4,52.3 431.8,52.2 433.2,51.9 434.6,51.6 436.1,51.2 437.5,50.9 438.9,50.0 440.3,49.4 441.7,49.0 443.1,48.9 444.5,48.6 445.9,48.1 447.3,47.7 448.7,47.4 450.2,47.1 451.6,46.8 453.0,46.5 454.4,46.2 455.8,45.8 457.2,45.6 458.6,45.4 460.0,45.2 461.4,44.8 462.8,44.6 464.3,44.4 465.7,44.2 467.1,44.1 468.5,43.8 469.9,43.6 471.3,43.4 472.7,43.2 474.1,43.1 475.5,42.9 476.9,42.6 478.4,42.4 479.8,42.1 481.2,41.7 482.6,41.5 484.0,41.3 485.4,41.1 486.8,41.0 488.2,40.8 489.6,40.6 491.0,40.4 492.5,40.3 493.9,40.2 495.3,40.0 496.7,39.9 498.1,39.6 499.5,39.4 500.9,39.3 502.3,39.0 503.7,38.7 505.1,38.3 506.6,38.1 508.0,37.9 509.4,37.7 510.8,37.5 512.2,37.3 513.6,37.0 515.0,36.8 516.4,36.7 517.8,36.6 519.2,36.4 520.7,36.1 522.1,35.9 523.5,35.8 524.9,35.6 526.3,35.3 527.7,35.2 529.1,34.9 530.5,34.7 531.9,34.4 533.3,34.2 534.8,34.0 536.2,33.9 537.6,33.7 539.0,33.6 540.4,33.4 541.8,33.2 543.2,32.9 544.6,32.8 546.0,32.7 547.4,32.5 548.9,32.3 550.3,32.2 551.7,32.0 553.1,31.9 554.5,31.8 555.9,31.6 557.3,31.5 558.7,31.3 560.1,31.1 561.5,31.0 563.0,30.8 564.4,30.6 565.8,30.4 567.2,30.3 568.6,30.1 570.0,30.0 570.0,30.0,120" />
  
  <!-- Linea principale -->
  <polyline fill="none" stroke="#0366d6" stroke-width="2.5" stroke-linecap="round" stroke-linejoin="round" points="30.0,120.0 31.4,119.5 32.8,118.9 34.2,118.4 35.6,118.3 37.0,118.0 38.5,117.4 39.9,117.0 41.3,116.8 42.7,116.2 44.1,115.8 45.5,115.5 46.9,115.4 48.3,115.1 49.7,114.7 51.1,114.2 52.6,113.9 54.0,113.6 55.4,113.5 56.8,113.2 58.2,112.9 59.6,112.6 61.0,112.5 62.4,112.2 63.8,111.2 65.2,110.9 66.7,110.5 68.1,110.1 69.5,109.8 70.9,109.5 72.3,109.3 73.7,109.1 75.1,108.8 76.5,108.4 77.9,108.0 79.3,107.7 80.8,107.3 82.2,107.3 83.6,107.2 85.0,107.0 86.4,106.7 87.8,106.5 89.2,106.4 90.6,106.0 92.0,105.5 93.4,105.4 94.9,105.3 96.3,105.1 97.7,104.6 99.1,104.4 100.5,103.9 101.9,103.6 103.3,103.2 104.7,103.2 106.1,102.9 107.5,102.6 109.0,102.2 110.4,101.9 111.8,101.7 113.2,101.5 114.6,101.4 116.0,100.9 117.4,100.5 118.8,100.1 120.2,99.8 121.6,99.6 123.1,99.5 124.5,99.3 125.9,99.0 127.3,98.8 128.7,98.7 130.1,98.5 131.5,98.4 132.9,98.2 134.3,98.0 135.7,97.9 137.2,97.8 138.6,97.4 140.0,97.2 141.4,97.1 142.8,97.0 144.2,96.9 145.6,96.9 147.0,103.5 148.4,102.9 149.8,102.3 151.3,101.7 152.7,99.9 154.1,98.6 155.5,97.3 156.9,96.8 158.3,96.2 159.7,95.3 161.1,94.3 162.5,93.5 163.9,93.3 165.4,93.0 166.8,92.3 168.2,91.8 169.6,91.4 171.0,91.0 172.4,90.8 173.8,90.7 175.2,90.4 176.6,89.7 178.0,89.3 179.5,88.9 180.9,88.4 182.3,88.1 183.7,88.0 185.1,87.5 186.5,87.1 187.9,86.8 189.3,86.5 190.7,86.4 192.1,86.3 193.6,86.0 195.0,85.7 196.4,85.5 197.8,85.2 199.2,85.0 200.6,84.9 202.0,84.7 203.4,84.5 204.8,84.3 206.2,84.2 207.7,83.8 209.1,83.6 210.5,83.3 211.9,83.1 213.3,82.9 214.7,82.8 216.1,82.6 217.5,82.5 218.9,82.0 220.3,81.7 221.7,81.3 223.2,81.1 224.6,81.1 226.0,80.9 227.4,80.7 228.8,80.4 230.2,80.2 231.6,79.9 233.0,79.7 234.4,79.6 235.8,79.5 237.3,79.4 238.7,79.2 240.1,79.0 241.5,78.9 242.9,78.6 244.3,78.4 245.7,78.4 247.1,78.2 248.5,78.1 249.9,77.9 251.4,77.7 252.8,77.5 254.2,77.3 255.6,77.0 257.0,76.9 258.4,76.8 259.8,76.7 261.2,76.4 262.6,76.1 264.0,75.9 265.5,75.7 266.9,75.3 268.3,75.2 269.7,75.1 271.1,75.0 272.5,74.8 273.9,74.7 275.3,74.5 276.7,74.3 278.1,74.2 279.6,74.0 281.0,73.9 282.4,73.7 283.8,73.7 285.2,73.5 286.6,73.2 288.0,73.1 289.4,72.9 290.8,72.8 292.2,72.7 293.7,72.5 295.1,72.4 296.5,72.3 297.9,72.1 299.3,71.8 300.7,71.5 302.1,71.3 303.5,71.2 304.9,71.1 306.3,71.0 307.8,70.8 309.2,70.6 310.6,70.4 312.0,70.3 313.4,70.2 314.8,70.0 316.2,69.8 317.6,69.7 319.0,69.6 320.4,69.4 321.9,69.2 323.3,69.0 324.7,68.8 326.1,68.7 327.5,68.6 328.9,68.5 330.3,68.4 331.7,68.2 333.1,68.1 334.5,67.9 336.0,67.7 337.4,67.6 338.8,67.5 340.2,67.4 341.6,67.2 343.0,67.0 344.4,66.8 345.8,66.7 347.2,66.5 348.6,66.4 350.1,66.3 351.5,66.2 352.9,66.1 354.3,66.0 355.7,65.8 357.1,65.6 358.5,65.5 359.9,65.3 361.3,65.2 362.7,65.1 364.2,64.9 365.6,64.8 367.0,64.7 368.4,64.5 369.8,64.4 371.2,64.2 372.6,64.1 374.0,63.9 375.4,63.8 376.8,63.8 378.3,63.6 379.7,63.5 381.1,63.4 382.5,63.3 383.9,63.2 385.3,63.1 386.7,62.8 388.1,62.6 389.5,66.9 390.9,66.0 392.3,64.4 393.8,63.8 395.2,63.0 396.6,62.1 398.0,61.6 399.4,61.2 400.8,60.6 402.2,59.7 403.6,59.0 405.0,58.8 406.4,58.4 407.9,58.1 409.3,57.7 410.7,57.2 412.1,56.7 413.5,56.4 414.9,55.9 416.3,55.7 417.7,55.4 419.1,55.2 420.5,54.9 422.0,54.7 423.4,54.2 424.8,53.9 426.2,53.5 427.6,52.9 429.0,52.5 430.4,52.3 431.8,52.2 433.2,51.9 434.6,51.6 436.1,51.2 437.5,50.9 438.9,50.0 440.3,49.4 441.7,49.0 443.1,48.9 444.5,48.6 445.9,48.1 447.3,47.7 448.7,47.4 450.2,47.1 451.6,46.8 453.0,46.5 454.4,46.2 455.8,45.8 457.2,45.6 458.6,45.4 460.0,45.2 461.4,44.8 462.8,44.6 464.3,44.4 465.7,44.2 467.1,44.1 468.5,43.8 469.9,43.6 471.3,43.4 472.7,43.2 474.1,43.1 475.5,42.9 476.9,42.6 478.4,42.4 479.8,42.1 481.2,41.7 482.6,41.5 484.0,41.3 485.4,41.1 486.8,41.0 488.2,40.8 489.6,40.6 491.0,40.4 492.5,40.3 493.9,40.2 495.3,40.0 496.7,39.9 498.1,39.6 499.5,39.4 500.9,39.3 502.3,39.0 503.7,38.7 505.1,38.3 506.6,38.1 508.0,37.9 509.4,37.7 510.8,37.5 512.2,37.3 513.6,37.0 515.0,36.8 516.4,36.7 517.8,36.6 519.2,36.4 520.7,36.1 522.1,35.9 523.5,35.8 524.9,35.6 526.3,35.3 527.7,35.2 529.1,34.9 530.5,34.7 531.9,34.4 533.3,34.2 534.8,34.0 536.2,33.9 537.6,33.7 539.0,33.6 540.4,33.4 541.8,33.2 543.2,32.9 544.6,32.8 546.0,32.7 547.4,32.5 548.9,32.3 550.3,32.2 551.7,32.0 553.1,31.9 554.5,31.8 555.9,31.6 557.3,31.5 558.7,31.3 560.1,31.1 561.5,31.0 563.0,30.8 564.4,30.6 565.8,30.4 567.2,30.3 568.6,30.1 570.0,30.0" />
  
  <!-- Punto finale luminoso -->
  <circle cx="570.0" cy="30.0" r="4" fill="#ffffff" stroke="#0366d6" stroke-width="2.5" />
</svg>