<svg width="600" height="150" viewBox="0 0 600 150" xmlns="http://www.w3.org/2000/svg">
  <defs>
    <filter id="shadow2" x="-2%" y="-2%" width="104%" height="108%">
      <feDropShadow dx="0" dy="2" stdDeviation="3" flood-opacity="0.1" />
    </filter>
    <linearGradient id="fillGrad" x1="0" y1="0" x2="0" y2="1">
      <stop offset="0%" stop-color="#0366d6" stop-opacity="0.3"/>
      <stop offset="100%" stop-color="#0366d6" stop-opacity="0.02"/>
    </linearGradient>
  </defs>
  <rect width="600" height="150" rx="12" fill="#ffffff" filter="url(#shadow2)" stroke="#e1e4e8" stroke-width="1"/>
  <text x="20" y="24" fill="#2b3137" font-family="-apple-system,BlinkMacSystemFont,'Segoe UI',Helvetica,Arial,sans-serif" font-size="14" font-weight="600">📈 Download Growth (Actual: 75.0k)</text>
  
  <!-- Area sotto la linea -->
  <polygon fill="url(#fillGrad)" points="30.0,120.0,120 30.0,120.0 34.1,118.8 38.1,117.4 42.2,116.2 46.2,115.9 50.3,115.3 54.4,113.9 58.4,112.9 62.5,112.3 66.5,110.8 70.6,110.0 74.7,109.3 78.7,108.9 82.8,108.2 86.8,107.2 90.9,106.1 95.0,105.3 99.0,104.7 103.1,104.4 107.1,103.7 111.2,102.9 115.3,102.2 119.3,101.9 123.4,101.2 127.4,98.9 131.5,98.2 135.6,97.3 139.6,96.4 143.7,95.5 147.7,94.8 151.8,94.3 155.9,93.9 159.9,93.2 164.0,92.1 168.0,91.1 172.1,90.4 176.2,89.7 180.2,89.4 184.3,89.2 188.3,88.8 192.4,88.1 196.5,87.6 200.5,87.3 204.6,86.5 208.6,85.2 212.7,84.9 216.8,84.7 220.8,84.2 224.9,83.2 228.9,82.5 233.0,81.5 237.1,80.7 241.1,79.8 245.2,79.6 249.2,79.1 253.3,78.1 257.4,77.2 261.4,76.5 265.5,76.2 269.5,75.7 273.6,75.3 277.7,74.2 281.7,73.2 285.8,72.4 289.8,71.5 293.9,71.1 298.0,70.8 302.0,70.4 306.1,69.7 310.2,69.2 314.2,68.8 318.3,68.5 322.3,68.2 326.4,67.6 330.5,67.3 334.5,67.1 338.6,66.8 342.6,65.9 346.7,65.4 350.8,65.2 354.8,64.9 358.9,64.7 362.9,64.7 367.0,80.5 371.1,78.9 375.1,77.5 379.2,76.1 383.2,71.8 387.3,68.7 391.4,65.5 395.4,64.3 399.5,62.9 403.5,60.7 407.6,58.3 411.7,56.5 415.7,55.9 419.8,55.2 423.8,53.5 427.9,52.3 432.0,51.4 436.0,50.4 440.1,50.0 444.1,49.8 448.2,48.9 452.3,47.4 456.3,46.4 460.4,45.3 464.4,44.1 468.5,43.6 472.6,43.1 476.6,42.1 480.7,41.2 484.7,40.3 488.8,39.6 492.9,39.3 496.9,39.1 501.0,38.5 505.0,37.8 509.1,37.2 513.2,36.6 517.2,36.2 521.3,35.7 525.3,35.3 529.4,34.8 533.5,34.5 537.5,34.1 541.6,33.3 545.6,32.6 549.7,31.9 553.8,31.5 557.8,31.1 561.9,30.8 565.9,30.4 570.0,30.0 570.0,30.0,120" />
  
  <!-- Linea principale -->
  <polyline fill="none" stroke="#0366d6" stroke-width="2.5" stroke-linecap="round" stroke-linejoin="round" points="30.0,120.0 34.1,118.8 38.1,117.4 42.2,116.2 46.2,115.9 50.3,115.3 54.4,113.9 58.4,112.9 62.5,112.3 66.5,110.8 70.6,110.0 74.7,109.3 78.7,108.9 82.8,108.2 86.8,107.2 90.9,106.1 95.0,105.3 99.0,104.7 103.1,104.4 107.1,103.7 111.2,102.9 115.3,102.2 119.3,101.9 123.4,101.2 127.4,98.9 131.5,98.2 135.6,97.3 139.6,96.4 143.7,95.5 147.7,94.8 151.8,94.3 155.9,93.9 159.9,93.2 164.0,92.1 168.0,91.1 172.1,90.4 176.2,89.7 180.2,89.4 184.3,89.2 188.3,88.8 192.4,88.1 196.5,87.6 200.5,87.3 204.6,86.5 208.6,85.2 212.7,84.9 216.8,84.7 220.8,84.2 224.9,83.2 228.9,82.5 233.0,81.5 237.1,80.7 241.1,79.8 245.2,79.6 249.2,79.1 253.3,78.1 257.4,77.2 261.4,76.5 265.5,76.2 269.5,75.7 273.6,75.3 277.7,74.2 281.7,73.2 285.8,72.4 289.8,71.5 293.9,71.1 298.0,70.8 302.0,70.4 306.1,69.7 310.2,69.2 314.2,68.8 318.3,68.5 322.3,68.2 326.4,67.6 330.5,67.3 334.5,67.1 338.6,66.8 342.6,65.9 346.7,65.4 350.8,65.2 354.8,64.9 358.9,64.7 362.9,64.7 367.0,80.5 371.1,78.9 375.1,77.5 379.2,76.1 383.2,71.8 387.3,68.7 391.4,65.5 395.4,64.3 399.5,62.9 403.5,60.7 407.6,58.3 411.7,56.5 415.7,55.9 419.8,55.2 423.8,53.5 427.9,52.3 432.0,51.4 436.0,50.4 440.1,50.0 444.1,49.8 448.2,48.9 452.3,47.4 456.3,46.4 460.4,45.3 464.4,44.1 468.5,43.6 472.6,43.1 476.6,42.1 480.7,41.2 484.7,40.3 488.8,39.6 492.9,39.3 496.9,39.1 501.0,38.5 505.0,37.8 509.1,37.2 513.2,36.6 517.2,36.2 521.3,35.7 525.3,35.3 529.4,34.8 533.5,34.5 537.5,34.1 541.6,33.3 545.6,32.6 549.7,31.9 553.8,31.5 557.8,31.1 561.9,30.8 565.9,30.4 570.0,30.0" />
  
  <!-- Punto finale luminoso -->
  <circle cx="570.0" cy="30.0" r="4" fill="#ffffff" stroke="#0366d6" stroke-width="2.5" />
</svg>