<svg width="600" height="150" viewBox="0 0 600 150" xmlns="http://www.w3.org/2000/svg">
  <defs>
    <filter id="shadow2" x="-2%" y="-2%" width="104%" height="108%">
      <feDropShadow dx="0" dy="2" stdDeviation="3" flood-opacity="0.1" />
    </filter>
    <linearGradient id="fillGrad" x1="0" y1="0" x2="0" y2="1">
      <stop offset="0%" stop-color="#0366d6" stop-opacity="0.3"/>
      <stop offset="100%" stop-color="#0366d6" stop-opacity="0.02"/>
    </linearGradient>
  </defs>
  <rect width="600" height="150" rx="12" fill="#ffffff" filter="url(#shadow2)" stroke="#e1e4e8" stroke-width="1"/>
  <text x="20" y="24" fill="#2b3137" font-family="-apple-system,BlinkMacSystemFont,'Segoe UI',Helvetica,Arial,sans-serif" font-size="14" font-weight="600">📈 Download Growth (Actual: 85.2k)</text>
  
  <!-- Area sotto la linea -->
  <polygon fill="url(#fillGrad)" points="30.0,120.0,120 30.0,120.0 31.5,119.5 33.1,118.9 34.6,118.3 36.1,118.2 37.7,117.9 39.2,117.3 40.7,116.9 42.3,116.6 43.8,115.9 45.3,115.6 46.9,115.3 48.4,115.1 49.9,114.8 51.5,114.3 53.0,113.8 54.5,113.5 56.1,113.2 57.6,113.1 59.1,112.8 60.7,112.4 62.2,112.1 63.8,112.0 65.3,111.7 66.8,110.6 68.4,110.3 69.9,109.9 71.4,109.5 73.0,109.2 74.5,108.8 76.0,108.6 77.6,108.4 79.1,108.1 80.6,107.6 82.2,107.2 83.7,106.9 85.2,106.5 86.8,106.5 88.3,106.4 89.8,106.2 91.4,105.9 92.9,105.7 94.4,105.5 96.0,105.1 97.5,104.6 99.0,104.4 100.6,104.3 102.1,104.1 103.6,103.7 105.2,103.4 106.7,102.9 108.2,102.6 109.8,102.2 111.3,102.1 112.8,101.9 114.4,101.4 115.9,101.0 117.4,100.7 119.0,100.6 120.5,100.4 122.0,100.2 123.6,99.7 125.1,99.3 126.6,98.9 128.2,98.5 129.7,98.3 131.2,98.2 132.8,98.0 134.3,97.7 135.9,97.5 137.4,97.3 138.9,97.2 140.5,97.0 142.0,96.8 143.5,96.6 145.1,96.6 146.6,96.4 148.1,96.0 149.7,95.8 151.2,95.7 152.7,95.6 154.3,95.5 155.8,95.5 157.3,102.5 158.9,101.8 160.4,101.2 161.9,100.5 163.5,98.6 165.0,97.3 166.5,95.8 168.1,95.3 169.6,94.7 171.1,93.7 172.7,92.7 174.2,91.9 175.7,91.6 177.3,91.3 178.8,90.5 180.3,90.0 181.9,89.6 183.4,89.2 184.9,89.0 186.5,88.9 188.0,88.5 189.5,87.8 191.1,87.4 192.6,86.9 194.1,86.4 195.7,86.1 197.2,85.9 198.8,85.5 200.3,85.1 201.8,84.7 203.4,84.4 204.9,84.2 206.4,84.1 208.0,83.9 209.5,83.6 211.0,83.3 212.6,83.0 214.1,82.8 215.6,82.6 217.2,82.4 218.7,82.3 220.2,82.1 221.8,81.9 223.3,81.6 224.8,81.3 226.4,81.0 227.9,80.8 229.4,80.6 231.0,80.4 232.5,80.3 234.0,80.1 235.6,79.6 237.1,79.3 238.6,78.8 240.2,78.7 241.7,78.6 243.2,78.4 244.8,78.2 246.3,78.0 247.8,77.7 249.4,77.4 250.9,77.2 252.4,77.1 254.0,76.9 255.5,76.8 257.0,76.6 258.6,76.4 260.1,76.3 261.6,76.0 263.2,75.8 264.7,75.7 266.2,75.6 267.8,75.5 269.3,75.2 270.9,75.0 272.4,74.8 273.9,74.6 275.5,74.3 277.0,74.2 278.5,74.1 280.1,73.9 281.6,73.6 283.1,73.3 284.7,73.1 286.2,72.9 287.7,72.5 289.3,72.4 290.8,72.3 292.3,72.2 293.9,72.0 295.4,71.8 296.9,71.6 298.5,71.5 300.0,71.3 301.5,71.1 303.1,71.0 304.6,70.8 306.1,70.7 307.7,70.5 309.2,70.3 310.7,70.1 312.3,69.9 313.8,69.8 315.3,69.7 316.9,69.5 318.4,69.4 319.9,69.3 321.5,69.1 323.0,68.8 324.5,68.5 326.1,68.3 327.6,68.1 329.1,68.0 330.7,67.9 332.2,67.7 333.8,67.4 335.3,67.3 336.8,67.2 338.4,67.0 339.9,66.8 341.4,66.6 343.0,66.5 344.5,66.4 346.0,66.2 347.6,66.0 349.1,65.7 350.6,65.5 352.2,65.4 353.7,65.4 355.2,65.3 356.8,65.1 358.3,65.0 359.8,64.8 361.4,64.6 362.9,64.4 364.4,64.3 366.0,64.2 367.5,64.1 369.0,63.9 370.6,63.7 372.1,63.5 373.6,63.3 375.2,63.1 376.7,63.0 378.2,62.9 379.8,62.8 381.3,62.7 382.8,62.6 384.4,62.4 385.9,62.2 387.4,62.0 389.0,61.9 390.5,61.8 392.0,61.6 393.6,61.5 395.1,61.3 396.6,61.2 398.2,61.0 399.7,60.9 401.2,60.7 402.8,60.5 404.3,60.4 405.9,60.3 407.4,60.2 408.9,60.1 410.5,60.0 412.0,59.8 413.5,59.7 415.1,59.6 416.6,59.5 418.1,59.2 419.7,58.9 421.2,63.5 422.7,62.6 424.3,60.9 425.8,60.2 427.3,59.4 428.9,58.4 430.4,57.9 431.9,57.5 433.5,56.9 435.0,55.9 436.5,55.1 438.1,54.9 439.6,54.5 441.1,54.2 442.7,53.7 444.2,53.2 445.7,52.7 447.3,52.4 448.8,51.9 450.3,51.6 451.9,51.3 453.4,51.1 454.9,50.8 456.5,50.6 458.0,50.1 459.5,49.7 461.1,49.3 462.6,48.6 464.1,48.3 465.7,48.1 467.2,47.9 468.8,47.6 470.3,47.2 471.8,46.9 473.4,46.6 474.9,45.6 476.4,44.9 478.0,44.6 479.5,44.4 481.0,44.1 482.6,43.6 484.1,43.2 485.6,42.8 487.2,42.5 488.7,42.2 490.2,41.9 491.8,41.6 493.3,41.1 494.8,40.9 496.4,40.7 497.9,40.5 499.4,40.1 501.0,39.8 502.5,39.6 504.0,39.4 505.6,39.3 507.1,39.0 508.6,38.8 510.2,38.6 511.7,38.4 513.2,38.2 514.8,38.0 516.3,37.8 517.8,37.5 519.4,37.2 520.9,36.8 522.4,36.5 524.0,36.3 525.5,36.1 527.0,36.0 528.6,35.8 530.1,35.6 531.6,35.4 533.2,35.3 534.7,35.1 536.2,34.9 537.8,34.8 539.3,34.5 540.9,34.3 542.4,34.2 543.9,33.9 545.5,33.6 547.0,33.2 548.5,33.0 550.1,32.8 551.6,32.5 553.1,32.3 554.7,32.0 556.2,31.8 557.7,31.6 559.3,31.5 560.8,31.3 562.3,31.1 563.9,30.8 565.4,30.6 566.9,30.5 568.5,30.3 570.0,30.0 570.0,30.0,120" />
  
  <!-- Linea principale -->
  <polyline fill="none" stroke="#0366d6" stroke-width="2.5" stroke-linecap="round" stroke-linejoin="round" points="30.0,120.0 31.5,119.5 33.1,118.9 34.6,118.3 36.1,118.2 37.7,117.9 39.2,117.3 40.7,116.9 42.3,116.6 43.8,115.9 45.3,115.6 46.9,115.3 48.4,115.1 49.9,114.8 51.5,114.3 53.0,113.8 54.5,113.5 56.1,113.2 57.6,113.1 59.1,112.8 60.7,112.4 62.2,112.1 63.8,112.0 65.3,111.7 66.8,110.6 68.4,110.3 69.9,109.9 71.4,109.5 73.0,109.2 74.5,108.8 76.0,108.6 77.6,108.4 79.1,108.1 80.6,107.6 82.2,107.2 83.7,106.9 85.2,106.5 86.8,106.5 88.3,106.4 89.8,106.2 91.4,105.9 92.9,105.7 94.4,105.5 96.0,105.1 97.5,104.6 99.0,104.4 100.6,104.3 102.1,104.1 103.6,103.7 105.2,103.4 106.7,102.9 108.2,102.6 109.8,102.2 111.3,102.1 112.8,101.9 114.4,101.4 115.9,101.0 117.4,100.7 119.0,100.6 120.5,100.4 122.0,100.2 123.6,99.7 125.1,99.3 126.6,98.9 128.2,98.5 129.7,98.3 131.2,98.2 132.8,98.0 134.3,97.7 135.9,97.5 137.4,97.3 138.9,97.2 140.5,97.0 142.0,96.8 143.5,96.6 145.1,96.6 146.6,96.4 148.1,96.0 149.7,95.8 151.2,95.7 152.7,95.6 154.3,95.5 155.8,95.5 157.3,102.5 158.9,101.8 160.4,101.2 161.9,100.5 163.5,98.6 165.0,97.3 166.5,95.8 168.1,95.3 169.6,94.7 171.1,93.7 172.7,92.7 174.2,91.9 175.7,91.6 177.3,91.3 178.8,90.5 180.3,90.0 181.9,89.6 183.4,89.2 184.9,89.0 186.5,88.9 188.0,88.5 189.5,87.8 191.1,87.4 192.6,86.9 194.1,86.4 195.7,86.1 197.2,85.9 198.8,85.5 200.3,85.1 201.8,84.7 203.4,84.4 204.9,84.2 206.4,84.1 208.0,83.9 209.5,83.6 211.0,83.3 212.6,83.0 214.1,82.8 215.6,82.6 217.2,82.4 218.7,82.3 220.2,82.1 221.8,81.9 223.3,81.6 224.8,81.3 226.4,81.0 227.9,80.8 229.4,80.6 231.0,80.4 232.5,80.3 234.0,80.1 235.6,79.6 237.1,79.3 238.6,78.8 240.2,78.7 241.7,78.6 243.2,78.4 244.8,78.2 246.3,78.0 247.8,77.7 249.4,77.4 250.9,77.2 252.4,77.1 254.0,76.9 255.5,76.8 257.0,76.6 258.6,76.4 260.1,76.3 261.6,76.0 263.2,75.8 264.7,75.7 266.2,75.6 267.8,75.5 269.3,75.2 270.9,75.0 272.4,74.8 273.9,74.6 275.5,74.3 277.0,74.2 278.5,74.1 280.1,73.9 281.6,73.6 283.1,73.3 284.7,73.1 286.2,72.9 287.7,72.5 289.3,72.4 290.8,72.3 292.3,72.2 293.9,72.0 295.4,71.8 296.9,71.6 298.5,71.5 300.0,71.3 301.5,71.1 303.1,71.0 304.6,70.8 306.1,70.7 307.7,70.5 309.2,70.3 310.7,70.1 312.3,69.9 313.8,69.8 315.3,69.7 316.9,69.5 318.4,69.4 319.9,69.3 321.5,69.1 323.0,68.8 324.5,68.5 326.1,68.3 327.6,68.1 329.1,68.0 330.7,67.9 332.2,67.7 333.8,67.4 335.3,67.3 336.8,67.2 338.4,67.0 339.9,66.8 341.4,66.6 343.0,66.5 344.5,66.4 346.0,66.2 347.6,66.0 349.1,65.7 350.6,65.5 352.2,65.4 353.7,65.4 355.2,65.3 356.8,65.1 358.3,65.0 359.8,64.8 361.4,64.6 362.9,64.4 364.4,64.3 366.0,64.2 367.5,64.1 369.0,63.9 370.6,63.7 372.1,63.5 373.6,63.3 375.2,63.1 376.7,63.0 378.2,62.9 379.8,62.8 381.3,62.7 382.8,62.6 384.4,62.4 385.9,62.2 387.4,62.0 389.0,61.9 390.5,61.8 392.0,61.6 393.6,61.5 395.1,61.3 396.6,61.2 398.2,61.0 399.7,60.9 401.2,60.7 402.8,60.5 404.3,60.4 405.9,60.3 407.4,60.2 408.9,60.1 410.5,60.0 412.0,59.8 413.5,59.7 415.1,59.6 416.6,59.5 418.1,59.2 419.7,58.9 421.2,63.5 422.7,62.6 424.3,60.9 425.8,60.2 427.3,59.4 428.9,58.4 430.4,57.9 431.9,57.5 433.5,56.9 435.0,55.9 436.5,55.1 438.1,54.9 439.6,54.5 441.1,54.2 442.7,53.7 444.2,53.2 445.7,52.7 447.3,52.4 448.8,51.9 450.3,51.6 451.9,51.3 453.4,51.1 454.9,50.8 456.5,50.6 458.0,50.1 459.5,49.7 461.1,49.3 462.6,48.6 464.1,48.3 465.7,48.1 467.2,47.9 468.8,47.6 470.3,47.2 471.8,46.9 473.4,46.6 474.9,45.6 476.4,44.9 478.0,44.6 479.5,44.4 481.0,44.1 482.6,43.6 484.1,43.2 485.6,42.8 487.2,42.5 488.7,42.2 490.2,41.9 491.8,41.6 493.3,41.1 494.8,40.9 496.4,40.7 497.9,40.5 499.4,40.1 501.0,39.8 502.5,39.6 504.0,39.4 505.6,39.3 507.1,39.0 508.6,38.8 510.2,38.6 511.7,38.4 513.2,38.2 514.8,38.0 516.3,37.8 517.8,37.5 519.4,37.2 520.9,36.8 522.4,36.5 524.0,36.3 525.5,36.1 527.0,36.0 528.6,35.8 530.1,35.6 531.6,35.4 533.2,35.3 534.7,35.1 536.2,34.9 537.8,34.8 539.3,34.5 540.9,34.3 542.4,34.2 543.9,33.9 545.5,33.6 547.0,33.2 548.5,33.0 550.1,32.8 551.6,32.5 553.1,32.3 554.7,32.0 556.2,31.8 557.7,31.6 559.3,31.5 560.8,31.3 562.3,31.1 563.9,30.8 565.4,30.6 566.9,30.5 568.5,30.3 570.0,30.0" />
  
  <!-- Punto finale luminoso -->
  <circle cx="570.0" cy="30.0" r="4" fill="#ffffff" stroke="#0366d6" stroke-width="2.5" />
</svg>