<svg width="600" height="150" viewBox="0 0 600 150" xmlns="http://www.w3.org/2000/svg">
  <defs>
    <filter id="shadow2" x="-2%" y="-2%" width="104%" height="108%">
      <feDropShadow dx="0" dy="2" stdDeviation="3" flood-opacity="0.1" />
    </filter>
    <linearGradient id="fillGrad" x1="0" y1="0" x2="0" y2="1">
      <stop offset="0%" stop-color="#0366d6" stop-opacity="0.3"/>
      <stop offset="100%" stop-color="#0366d6" stop-opacity="0.02"/>
    </linearGradient>
  </defs>
  <rect width="600" height="150" rx="12" fill="#ffffff" filter="url(#shadow2)" stroke="#e1e4e8" stroke-width="1"/>
  <text x="20" y="24" fill="#2b3137" font-family="-apple-system,BlinkMacSystemFont,'Segoe UI',Helvetica,Arial,sans-serif" font-size="14" font-weight="600">📈 Download Growth (Actual: 79.0k)</text>
  
  <!-- Area sotto la linea -->
  <polygon fill="url(#fillGrad)" points="30.0,120.0,120 30.0,120.0 32.2,119.2 34.4,118.3 36.6,117.5 38.8,117.3 41.0,116.9 43.2,115.9 45.4,115.3 47.6,114.8 49.8,113.8 52.0,113.4 54.1,112.9 56.3,112.6 58.5,112.1 60.7,111.5 62.9,110.7 65.1,110.2 67.3,109.8 69.5,109.6 71.7,109.1 73.9,108.6 76.1,108.1 78.3,107.9 80.5,107.5 82.7,105.9 84.9,105.5 87.1,104.8 89.3,104.2 91.5,103.7 93.7,103.2 95.9,102.8 98.0,102.6 100.2,102.1 102.4,101.4 104.6,100.7 106.8,100.3 109.0,99.8 111.2,99.6 113.4,99.5 115.6,99.2 117.8,98.7 120.0,98.4 122.2,98.2 124.4,97.6 126.6,96.8 128.8,96.6 131.0,96.4 133.2,96.1 135.4,95.4 137.6,95.0 139.8,94.3 142.0,93.8 144.1,93.2 146.3,93.1 148.5,92.7 150.7,92.1 152.9,91.4 155.1,91.0 157.3,90.8 159.5,90.4 161.7,90.2 163.9,89.5 166.1,88.8 168.3,88.2 170.5,87.6 172.7,87.4 174.9,87.2 177.1,86.9 179.3,86.5 181.5,86.1 183.7,85.9 185.9,85.6 188.0,85.4 190.2,85.1 192.4,84.9 194.6,84.7 196.8,84.5 199.0,83.9 201.2,83.6 203.4,83.4 205.6,83.2 207.8,83.1 210.0,83.1 212.2,93.6 214.4,92.6 216.6,91.7 218.8,90.7 221.0,87.8 223.2,85.8 225.4,83.7 227.6,82.9 229.8,81.9 232.0,80.5 234.1,78.9 236.3,77.7 238.5,77.2 240.7,76.8 242.9,75.7 245.1,74.8 247.3,74.3 249.5,73.6 251.7,73.3 253.9,73.2 256.1,72.6 258.3,71.6 260.5,70.9 262.7,70.2 264.9,69.4 267.1,69.0 269.3,68.7 271.5,68.0 273.7,67.4 275.9,66.9 278.0,66.4 280.2,66.2 282.4,66.0 284.6,65.7 286.8,65.1 289.0,64.8 291.2,64.4 293.4,64.1 295.6,63.8 297.8,63.5 300.0,63.2 302.2,63.0 304.4,62.7 306.6,62.1 308.8,61.7 311.0,61.3 313.2,61.0 315.4,60.7 317.6,60.5 319.8,60.2 322.0,60.0 324.1,59.2 326.3,58.7 328.5,58.1 330.7,57.8 332.9,57.7 335.1,57.4 337.3,57.1 339.5,56.7 341.7,56.4 343.9,55.9 346.1,55.6 348.3,55.4 350.5,55.2 352.7,55.0 354.9,54.8 357.1,54.4 359.3,54.2 361.5,53.7 363.7,53.5 365.9,53.4 368.0,53.1 370.2,53.0 372.4,52.6 374.6,52.3 376.8,51.9 379.0,51.6 381.2,51.3 383.4,51.0 385.6,50.9 387.8,50.6 390.0,50.2 392.2,49.7 394.4,49.4 396.6,49.1 398.8,48.5 401.0,48.4 403.2,48.2 405.4,48.0 407.6,47.7 409.8,47.5 412.0,47.2 414.1,46.9 416.3,46.7 418.5,46.4 420.7,46.2 422.9,46.0 425.1,45.9 427.3,45.6 429.5,45.1 431.7,45.0 433.9,44.6 436.1,44.5 438.3,44.3 440.5,44.0 442.7,43.8 444.9,43.6 447.1,43.4 449.3,42.9 451.5,42.4 453.7,42.1 455.9,41.9 458.0,41.8 460.2,41.6 462.4,41.3 464.6,40.9 466.8,40.7 469.0,40.5 471.2,40.2 473.4,40.0 475.6,39.7 477.8,39.5 480.0,39.4 482.2,39.0 484.4,38.7 486.6,38.3 488.8,38.0 491.0,37.9 493.2,37.8 495.4,37.7 497.6,37.4 499.8,37.2 502.0,36.9 504.1,36.7 506.3,36.4 508.5,36.2 510.7,36.0 512.9,35.8 515.1,35.6 517.3,35.3 519.5,34.9 521.7,34.6 523.9,34.4 526.1,34.2 528.3,34.0 530.5,33.9 532.7,33.7 534.9,33.6 537.1,33.4 539.3,33.0 541.5,32.8 543.7,32.5 545.9,32.4 548.0,32.1 550.2,31.9 552.4,31.6 554.6,31.4 556.8,31.3 559.0,31.0 561.2,30.8 563.4,30.5 565.6,30.3 567.8,30.1 570.0,30.0 570.0,30.0,120" />
  
  <!-- Linea principale -->
  <polyline fill="none" stroke="#0366d6" stroke-width="2.5" stroke-linecap="round" stroke-linejoin="round" points="30.0,120.0 32.2,119.2 34.4,118.3 36.6,117.5 38.8,117.3 41.0,116.9 43.2,115.9 45.4,115.3 47.6,114.8 49.8,113.8 52.0,113.4 54.1,112.9 56.3,112.6 58.5,112.1 60.7,111.5 62.9,110.7 65.1,110.2 67.3,109.8 69.5,109.6 71.7,109.1 73.9,108.6 76.1,108.1 78.3,107.9 80.5,107.5 82.7,105.9 84.9,105.5 87.1,104.8 89.3,104.2 91.5,103.7 93.7,103.2 95.9,102.8 98.0,102.6 100.2,102.1 102.4,101.4 104.6,100.7 106.8,100.3 109.0,99.8 111.2,99.6 113.4,99.5 115.6,99.2 117.8,98.7 120.0,98.4 122.2,98.2 124.4,97.6 126.6,96.8 128.8,96.6 131.0,96.4 133.2,96.1 135.4,95.4 137.6,95.0 139.8,94.3 142.0,93.8 144.1,93.2 146.3,93.1 148.5,92.7 150.7,92.1 152.9,91.4 155.1,91.0 157.3,90.8 159.5,90.4 161.7,90.2 163.9,89.5 166.1,88.8 168.3,88.2 170.5,87.6 172.7,87.4 174.9,87.2 177.1,86.9 179.3,86.5 181.5,86.1 183.7,85.9 185.9,85.6 188.0,85.4 190.2,85.1 192.4,84.9 194.6,84.7 196.8,84.5 199.0,83.9 201.2,83.6 203.4,83.4 205.6,83.2 207.8,83.1 210.0,83.1 212.2,93.6 214.4,92.6 216.6,91.7 218.8,90.7 221.0,87.8 223.2,85.8 225.4,83.7 227.6,82.9 229.8,81.9 232.0,80.5 234.1,78.9 236.3,77.7 238.5,77.2 240.7,76.8 242.9,75.7 245.1,74.8 247.3,74.3 249.5,73.6 251.7,73.3 253.9,73.2 256.1,72.6 258.3,71.6 260.5,70.9 262.7,70.2 264.9,69.4 267.1,69.0 269.3,68.7 271.5,68.0 273.7,67.4 275.9,66.9 278.0,66.4 280.2,66.2 282.4,66.0 284.6,65.7 286.8,65.1 289.0,64.8 291.2,64.4 293.4,64.1 295.6,63.8 297.8,63.5 300.0,63.2 302.2,63.0 304.4,62.7 306.6,62.1 308.8,61.7 311.0,61.3 313.2,61.0 315.4,60.7 317.6,60.5 319.8,60.2 322.0,60.0 324.1,59.2 326.3,58.7 328.5,58.1 330.7,57.8 332.9,57.7 335.1,57.4 337.3,57.1 339.5,56.7 341.7,56.4 343.9,55.9 346.1,55.6 348.3,55.4 350.5,55.2 352.7,55.0 354.9,54.8 357.1,54.4 359.3,54.2 361.5,53.7 363.7,53.5 365.9,53.4 368.0,53.1 370.2,53.0 372.4,52.6 374.6,52.3 376.8,51.9 379.0,51.6 381.2,51.3 383.4,51.0 385.6,50.9 387.8,50.6 390.0,50.2 392.2,49.7 394.4,49.4 396.6,49.1 398.8,48.5 401.0,48.4 403.2,48.2 405.4,48.0 407.6,47.7 409.8,47.5 412.0,47.2 414.1,46.9 416.3,46.7 418.5,46.4 420.7,46.2 422.9,46.0 425.1,45.9 427.3,45.6 429.5,45.1 431.7,45.0 433.9,44.6 436.1,44.5 438.3,44.3 440.5,44.0 442.7,43.8 444.9,43.6 447.1,43.4 449.3,42.9 451.5,42.4 453.7,42.1 455.9,41.9 458.0,41.8 460.2,41.6 462.4,41.3 464.6,40.9 466.8,40.7 469.0,40.5 471.2,40.2 473.4,40.0 475.6,39.7 477.8,39.5 480.0,39.4 482.2,39.0 484.4,38.7 486.6,38.3 488.8,38.0 491.0,37.9 493.2,37.8 495.4,37.7 497.6,37.4 499.8,37.2 502.0,36.9 504.1,36.7 506.3,36.4 508.5,36.2 510.7,36.0 512.9,35.8 515.1,35.6 517.3,35.3 519.5,34.9 521.7,34.6 523.9,34.4 526.1,34.2 528.3,34.0 530.5,33.9 532.7,33.7 534.9,33.6 537.1,33.4 539.3,33.0 541.5,32.8 543.7,32.5 545.9,32.4 548.0,32.1 550.2,31.9 552.4,31.6 554.6,31.4 556.8,31.3 559.0,31.0 561.2,30.8 563.4,30.5 565.6,30.3 567.8,30.1 570.0,30.0" />
  
  <!-- Punto finale luminoso -->
  <circle cx="570.0" cy="30.0" r="4" fill="#ffffff" stroke="#0366d6" stroke-width="2.5" />
</svg>