<svg width="600" height="150" viewBox="0 0 600 150" xmlns="http://www.w3.org/2000/svg">
  <defs>
    <filter id="shadow2" x="-2%" y="-2%" width="104%" height="108%">
      <feDropShadow dx="0" dy="2" stdDeviation="3" flood-opacity="0.1" />
    </filter>
    <linearGradient id="fillGrad" x1="0" y1="0" x2="0" y2="1">
      <stop offset="0%" stop-color="#0366d6" stop-opacity="0.3"/>
      <stop offset="100%" stop-color="#0366d6" stop-opacity="0.02"/>
    </linearGradient>
  </defs>
  <rect width="600" height="150" rx="12" fill="#ffffff" filter="url(#shadow2)" stroke="#e1e4e8" stroke-width="1"/>
  <text x="20" y="24" fill="#2b3137" font-family="-apple-system,BlinkMacSystemFont,'Segoe UI',Helvetica,Arial,sans-serif" font-size="14" font-weight="600">📈 Download Growth (Actual: 71.5k)</text>
  
  <!-- Area sotto la linea -->
  <polygon fill="url(#fillGrad)" points="30.0,120.0,120 30.0,120.0 37.7,117.8 45.4,115.4 53.1,113.4 60.9,112.8 68.6,111.7 76.3,109.2 84.0,107.5 91.7,106.4 99.4,103.8 107.1,102.5 114.9,101.2 122.6,100.4 130.3,99.2 138.0,97.5 145.7,95.6 153.4,94.2 161.1,93.2 168.9,92.5 176.6,91.3 184.3,89.9 192.0,88.7 199.7,88.2 207.4,87.0 215.1,82.9 222.9,81.7 230.6,80.0 238.3,78.4 246.0,77.0 253.7,75.6 261.4,74.7 269.1,74.1 276.9,72.9 284.6,70.9 292.3,69.2 300.0,68.0 307.7,66.6 315.4,66.2 323.1,65.9 330.9,65.2 338.6,63.9 346.3,63.1 354.0,62.5 361.7,61.0 369.4,58.8 377.1,58.3 384.9,57.9 392.6,57.0 400.3,55.2 408.0,54.1 415.7,52.3 423.4,51.0 431.1,49.3 438.9,49.0 446.6,48.0 454.3,46.4 462.0,44.7 469.7,43.5 477.4,42.9 485.1,42.1 492.9,41.3 500.6,39.5 508.3,37.8 516.0,36.2 523.7,34.7 531.4,33.9 539.1,33.5 546.9,32.8 554.6,31.6 562.3,30.7 570.0,30.0 570.0,30.0,120" />
  
  <!-- Linea principale -->
  <polyline fill="none" stroke="#0366d6" stroke-width="2.5" stroke-linecap="round" stroke-linejoin="round" points="30.0,120.0 37.7,117.8 45.4,115.4 53.1,113.4 60.9,112.8 68.6,111.7 76.3,109.2 84.0,107.5 91.7,106.4 99.4,103.8 107.1,102.5 114.9,101.2 122.6,100.4 130.3,99.2 138.0,97.5 145.7,95.6 153.4,94.2 161.1,93.2 168.9,92.5 176.6,91.3 184.3,89.9 192.0,88.7 199.7,88.2 207.4,87.0 215.1,82.9 222.9,81.7 230.6,80.0 238.3,78.4 246.0,77.0 253.7,75.6 261.4,74.7 269.1,74.1 276.9,72.9 284.6,70.9 292.3,69.2 300.0,68.0 307.7,66.6 315.4,66.2 323.1,65.9 330.9,65.2 338.6,63.9 346.3,63.1 354.0,62.5 361.7,61.0 369.4,58.8 377.1,58.3 384.9,57.9 392.6,57.0 400.3,55.2 408.0,54.1 415.7,52.3 423.4,51.0 431.1,49.3 438.9,49.0 446.6,48.0 454.3,46.4 462.0,44.7 469.7,43.5 477.4,42.9 485.1,42.1 492.9,41.3 500.6,39.5 508.3,37.8 516.0,36.2 523.7,34.7 531.4,33.9 539.1,33.5 546.9,32.8 554.6,31.6 562.3,30.7 570.0,30.0" />
  
  <!-- Punto finale luminoso -->
  <circle cx="570.0" cy="30.0" r="4" fill="#ffffff" stroke="#0366d6" stroke-width="2.5" />
</svg>