<svg width="600" height="150" viewBox="0 0 600 150" xmlns="http://www.w3.org/2000/svg">
  <defs>
    <filter id="shadow2" x="-2%" y="-2%" width="104%" height="108%">
      <feDropShadow dx="0" dy="2" stdDeviation="3" flood-opacity="0.1" />
    </filter>
    <linearGradient id="fillGrad" x1="0" y1="0" x2="0" y2="1">
      <stop offset="0%" stop-color="#0366d6" stop-opacity="0.3"/>
      <stop offset="100%" stop-color="#0366d6" stop-opacity="0.02"/>
    </linearGradient>
  </defs>
  <rect width="600" height="150" rx="12" fill="#ffffff" filter="url(#shadow2)" stroke="#e1e4e8" stroke-width="1"/>
  <text x="20" y="24" fill="#2b3137" font-family="-apple-system,BlinkMacSystemFont,'Segoe UI',Helvetica,Arial,sans-serif" font-size="14" font-weight="600">📈 Download Growth (Actual: 79.3k)</text>
  
  <!-- Area sotto la linea -->
  <polygon fill="url(#fillGrad)" points="30.0,120.0,120 30.0,120.0 32.1,119.2 34.3,118.3 36.4,117.5 38.5,117.3 40.7,116.9 42.8,116.0 44.9,115.3 47.1,114.9 49.2,114.0 51.3,113.5 53.5,113.0 55.6,112.7 57.7,112.3 59.9,111.6 62.0,110.9 64.2,110.4 66.3,110.0 68.4,109.7 70.6,109.3 72.7,108.8 74.8,108.3 77.0,108.1 79.1,107.7 81.2,106.2 83.4,105.7 85.5,105.1 87.6,104.5 89.8,104.0 91.9,103.5 94.0,103.1 96.2,102.9 98.3,102.4 100.4,101.7 102.6,101.1 104.7,100.6 106.8,100.1 109.0,100.0 111.1,99.8 113.2,99.6 115.4,99.1 117.5,98.8 119.6,98.6 121.8,98.0 123.9,97.2 126.0,97.0 128.2,96.8 130.3,96.5 132.5,95.9 134.6,95.4 136.7,94.7 138.9,94.3 141.0,93.7 143.1,93.5 145.3,93.2 147.4,92.6 149.5,91.9 151.7,91.5 153.8,91.3 155.9,90.9 158.1,90.7 160.2,90.0 162.3,89.3 164.5,88.8 166.6,88.2 168.7,87.9 170.9,87.7 173.0,87.5 175.1,87.0 177.3,86.7 179.4,86.4 181.5,86.2 183.7,86.0 185.8,85.7 187.9,85.5 190.1,85.3 192.2,85.1 194.3,84.5 196.5,84.2 198.6,84.1 200.8,83.8 202.9,83.7 205.0,83.7 207.2,94.1 209.3,93.1 211.4,92.2 213.6,91.2 215.7,88.4 217.8,86.4 220.0,84.3 222.1,83.5 224.2,82.6 226.4,81.1 228.5,79.6 230.6,78.4 232.8,78.0 234.9,77.5 237.0,76.4 239.2,75.6 241.3,75.0 243.4,74.4 245.6,74.1 247.7,74.0 249.8,73.4 252.0,72.4 254.1,71.7 256.2,71.0 258.4,70.2 260.5,69.9 262.6,69.6 264.8,68.9 266.9,68.3 269.1,67.8 271.2,67.3 273.3,67.1 275.5,66.9 277.6,66.6 279.7,66.1 281.9,65.7 284.0,65.3 286.1,65.0 288.3,64.7 290.4,64.4 292.5,64.2 294.7,63.9 296.8,63.7 298.9,63.1 301.1,62.7 303.2,62.3 305.3,62.0 307.5,61.7 309.6,61.5 311.7,61.2 313.9,61.0 316.0,60.2 318.1,59.7 320.3,59.1 322.4,58.9 324.5,58.8 326.7,58.5 328.8,58.2 330.9,57.8 333.1,57.4 335.2,57.0 337.4,56.7 339.5,56.5 341.6,56.3 343.8,56.1 345.9,55.9 348.0,55.6 350.2,55.3 352.3,54.9 354.4,54.6 356.6,54.5 358.7,54.3 360.8,54.1 363.0,53.8 365.1,53.4 367.2,53.1 369.4,52.8 371.5,52.4 373.6,52.2 375.8,52.1 377.9,51.8 380.0,51.4 382.2,50.9 384.3,50.6 386.4,50.3 388.6,49.7 390.7,49.6 392.8,49.4 395.0,49.3 397.1,49.0 399.2,48.7 401.4,48.4 403.5,48.2 405.7,47.9 407.8,47.7 409.9,47.4 412.1,47.2 414.2,47.1 416.3,46.8 418.5,46.4 420.6,46.2 422.7,45.9 424.9,45.7 427.0,45.5 429.1,45.3 431.3,45.1 433.4,44.9 435.5,44.7 437.7,44.2 439.8,43.7 441.9,43.4 444.1,43.2 446.2,43.1 448.3,43.0 450.5,42.7 452.6,42.3 454.7,42.1 456.9,41.9 459.0,41.6 461.1,41.4 463.3,41.1 465.4,40.9 467.5,40.7 469.7,40.4 471.8,40.1 474.0,39.7 476.1,39.4 478.2,39.3 480.4,39.2 482.5,39.1 484.6,38.8 486.8,38.6 488.9,38.3 491.0,38.1 493.2,37.8 495.3,37.6 497.4,37.5 499.6,37.2 501.7,37.0 503.8,36.7 506.0,36.4 508.1,36.1 510.2,35.8 512.4,35.6 514.5,35.5 516.6,35.4 518.8,35.2 520.9,35.1 523.0,34.8 525.2,34.5 527.3,34.2 529.4,34.0 531.6,33.8 533.7,33.6 535.8,33.4 538.0,33.1 540.1,32.9 542.3,32.8 544.4,32.5 546.5,32.3 548.7,32.0 550.8,31.8 552.9,31.7 555.1,31.5 557.2,31.3 559.3,31.2 561.5,31.0 563.6,30.8 565.7,30.7 567.9,30.5 570.0,30.0 570.0,30.0,120" />
  
  <!-- Linea principale -->
  <polyline fill="none" stroke="#0366d6" stroke-width="2.5" stroke-linecap="round" stroke-linejoin="round" points="30.0,120.0 32.1,119.2 34.3,118.3 36.4,117.5 38.5,117.3 40.7,116.9 42.8,116.0 44.9,115.3 47.1,114.9 49.2,114.0 51.3,113.5 53.5,113.0 55.6,112.7 57.7,112.3 59.9,111.6 62.0,110.9 64.2,110.4 66.3,110.0 68.4,109.7 70.6,109.3 72.7,108.8 74.8,108.3 77.0,108.1 79.1,107.7 81.2,106.2 83.4,105.7 85.5,105.1 87.6,104.5 89.8,104.0 91.9,103.5 94.0,103.1 96.2,102.9 98.3,102.4 100.4,101.7 102.6,101.1 104.7,100.6 106.8,100.1 109.0,100.0 111.1,99.8 113.2,99.6 115.4,99.1 117.5,98.8 119.6,98.6 121.8,98.0 123.9,97.2 126.0,97.0 128.2,96.8 130.3,96.5 132.5,95.9 134.6,95.4 136.7,94.7 138.9,94.3 141.0,93.7 143.1,93.5 145.3,93.2 147.4,92.6 149.5,91.9 151.7,91.5 153.8,91.3 155.9,90.9 158.1,90.7 160.2,90.0 162.3,89.3 164.5,88.8 166.6,88.2 168.7,87.9 170.9,87.7 173.0,87.5 175.1,87.0 177.3,86.7 179.4,86.4 181.5,86.2 183.7,86.0 185.8,85.7 187.9,85.5 190.1,85.3 192.2,85.1 194.3,84.5 196.5,84.2 198.6,84.1 200.8,83.8 202.9,83.7 205.0,83.7 207.2,94.1 209.3,93.1 211.4,92.2 213.6,91.2 215.7,88.4 217.8,86.4 220.0,84.3 222.1,83.5 224.2,82.6 226.4,81.1 228.5,79.6 230.6,78.4 232.8,78.0 234.9,77.5 237.0,76.4 239.2,75.6 241.3,75.0 243.4,74.4 245.6,74.1 247.7,74.0 249.8,73.4 252.0,72.4 254.1,71.7 256.2,71.0 258.4,70.2 260.5,69.9 262.6,69.6 264.8,68.9 266.9,68.3 269.1,67.8 271.2,67.3 273.3,67.1 275.5,66.9 277.6,66.6 279.7,66.1 281.9,65.7 284.0,65.3 286.1,65.0 288.3,64.7 290.4,64.4 292.5,64.2 294.7,63.9 296.8,63.7 298.9,63.1 301.1,62.7 303.2,62.3 305.3,62.0 307.5,61.7 309.6,61.5 311.7,61.2 313.9,61.0 316.0,60.2 318.1,59.7 320.3,59.1 322.4,58.9 324.5,58.8 326.7,58.5 328.8,58.2 330.9,57.8 333.1,57.4 335.2,57.0 337.4,56.7 339.5,56.5 341.6,56.3 343.8,56.1 345.9,55.9 348.0,55.6 350.2,55.3 352.3,54.9 354.4,54.6 356.6,54.5 358.7,54.3 360.8,54.1 363.0,53.8 365.1,53.4 367.2,53.1 369.4,52.8 371.5,52.4 373.6,52.2 375.8,52.1 377.9,51.8 380.0,51.4 382.2,50.9 384.3,50.6 386.4,50.3 388.6,49.7 390.7,49.6 392.8,49.4 395.0,49.3 397.1,49.0 399.2,48.7 401.4,48.4 403.5,48.2 405.7,47.9 407.8,47.7 409.9,47.4 412.1,47.2 414.2,47.1 416.3,46.8 418.5,46.4 420.6,46.2 422.7,45.9 424.9,45.7 427.0,45.5 429.1,45.3 431.3,45.1 433.4,44.9 435.5,44.7 437.7,44.2 439.8,43.7 441.9,43.4 444.1,43.2 446.2,43.1 448.3,43.0 450.5,42.7 452.6,42.3 454.7,42.1 456.9,41.9 459.0,41.6 461.1,41.4 463.3,41.1 465.4,40.9 467.5,40.7 469.7,40.4 471.8,40.1 474.0,39.7 476.1,39.4 478.2,39.3 480.4,39.2 482.5,39.1 484.6,38.8 486.8,38.6 488.9,38.3 491.0,38.1 493.2,37.8 495.3,37.6 497.4,37.5 499.6,37.2 501.7,37.0 503.8,36.7 506.0,36.4 508.1,36.1 510.2,35.8 512.4,35.6 514.5,35.5 516.6,35.4 518.8,35.2 520.9,35.1 523.0,34.8 525.2,34.5 527.3,34.2 529.4,34.0 531.6,33.8 533.7,33.6 535.8,33.4 538.0,33.1 540.1,32.9 542.3,32.8 544.4,32.5 546.5,32.3 548.7,32.0 550.8,31.8 552.9,31.7 555.1,31.5 557.2,31.3 559.3,31.2 561.5,31.0 563.6,30.8 565.7,30.7 567.9,30.5 570.0,30.0" />
  
  <!-- Punto finale luminoso -->
  <circle cx="570.0" cy="30.0" r="4" fill="#ffffff" stroke="#0366d6" stroke-width="2.5" />
</svg>