<svg width="600" height="150" viewBox="0 0 600 150" xmlns="http://www.w3.org/2000/svg">
  <defs>
    <filter id="shadow2" x="-2%" y="-2%" width="104%" height="108%">
      <feDropShadow dx="0" dy="2" stdDeviation="3" flood-opacity="0.1" />
    </filter>
    <linearGradient id="fillGrad" x1="0" y1="0" x2="0" y2="1">
      <stop offset="0%" stop-color="#0366d6" stop-opacity="0.3"/>
      <stop offset="100%" stop-color="#0366d6" stop-opacity="0.02"/>
    </linearGradient>
  </defs>
  <rect width="600" height="150" rx="12" fill="#ffffff" filter="url(#shadow2)" stroke="#e1e4e8" stroke-width="1"/>
  <text x="20" y="24" fill="#2b3137" font-family="-apple-system,BlinkMacSystemFont,'Segoe UI',Helvetica,Arial,sans-serif" font-size="14" font-weight="600">📈 Download Growth (Actual: 77.8k)</text>
  
  <!-- Area sotto la linea -->
  <polygon fill="url(#fillGrad)" points="30.0,120.0,120 30.0,120.0 32.6,119.1 35.3,118.1 37.9,117.2 40.5,117.0 43.2,116.5 45.8,115.4 48.4,114.7 51.1,114.2 53.7,113.1 56.3,112.6 59.0,112.0 61.6,111.7 64.2,111.2 66.9,110.5 69.5,109.7 72.1,109.1 74.8,108.6 77.4,108.4 80.0,107.9 82.7,107.3 85.3,106.8 88.0,106.5 90.6,106.0 93.2,104.3 95.9,103.8 98.5,103.1 101.1,102.4 103.8,101.8 106.4,101.2 109.0,100.8 111.7,100.6 114.3,100.1 116.9,99.2 119.6,98.5 122.2,98.0 124.8,97.4 127.5,97.2 130.1,97.1 132.7,96.8 135.4,96.2 138.0,95.9 140.6,95.7 143.3,95.0 145.9,94.1 148.5,93.9 151.2,93.7 153.8,93.3 156.4,92.6 159.1,92.1 161.7,91.3 164.3,90.8 167.0,90.1 169.6,89.9 172.2,89.5 174.9,88.8 177.5,88.1 180.1,87.6 182.8,87.4 185.4,87.0 188.0,86.7 190.7,85.9 193.3,85.2 196.0,84.5 198.6,83.9 201.2,83.6 203.9,83.4 206.5,83.1 209.1,82.6 211.8,82.2 214.4,81.9 217.0,81.6 219.7,81.4 222.3,81.0 224.9,80.8 227.6,80.6 230.2,80.4 232.8,79.7 235.5,79.3 238.1,79.2 240.7,78.9 243.4,78.8 246.0,78.8 248.6,90.6 251.3,89.4 253.9,88.4 256.5,87.3 259.2,84.1 261.8,81.8 264.4,79.4 267.1,78.5 269.7,77.5 272.3,75.9 275.0,74.1 277.6,72.8 280.2,72.3 282.9,71.8 285.5,70.5 288.1,69.6 290.8,69.0 293.4,68.2 296.0,67.9 298.7,67.8 301.3,67.1 304.0,66.0 306.6,65.2 309.2,64.4 311.9,63.5 314.5,63.1 317.1,62.8 319.8,62.0 322.4,61.3 325.0,60.7 327.7,60.2 330.3,59.9 332.9,59.8 335.6,59.4 338.2,58.8 340.8,58.4 343.5,57.9 346.1,57.6 348.7,57.2 351.4,56.9 354.0,56.6 356.6,56.3 359.3,56.0 361.9,55.4 364.5,55.0 367.2,54.4 369.8,54.1 372.4,53.8 375.1,53.6 377.7,53.3 380.3,53.0 383.0,52.2 385.6,51.6 388.2,50.9 390.9,50.6 393.5,50.5 396.1,50.2 398.8,49.8 401.4,49.4 404.0,49.0 406.7,48.4 409.3,48.1 412.0,47.9 414.6,47.7 417.2,47.4 419.9,47.2 422.5,46.8 425.1,46.6 427.8,46.0 430.4,45.8 433.0,45.6 435.7,45.4 438.3,45.2 440.9,44.8 443.6,44.4 446.2,44.0 448.8,43.7 451.5,43.3 454.1,43.0 456.7,42.9 459.4,42.6 462.0,42.1 464.6,41.6 467.3,41.2 469.9,40.9 472.5,40.2 475.2,40.1 477.8,39.9 480.4,39.7 483.1,39.3 485.7,39.1 488.3,38.7 491.0,38.5 493.6,38.2 496.2,37.9 498.9,37.6 501.5,37.4 504.1,37.3 506.8,36.9 509.4,36.5 512.0,36.3 514.7,35.9 517.3,35.7 520.0,35.5 522.6,35.2 525.2,35.0 527.9,34.8 530.5,34.5 533.1,34.0 535.8,33.4 538.4,33.1 541.0,32.8 543.7,32.7 546.3,32.6 548.9,32.2 551.6,31.7 554.2,31.5 556.8,31.3 559.5,31.0 562.1,30.7 564.7,30.4 567.4,30.2 570.0,30.0 570.0,30.0,120" />
  
  <!-- Linea principale -->
  <polyline fill="none" stroke="#0366d6" stroke-width="2.5" stroke-linecap="round" stroke-linejoin="round" points="30.0,120.0 32.6,119.1 35.3,118.1 37.9,117.2 40.5,117.0 43.2,116.5 45.8,115.4 48.4,114.7 51.1,114.2 53.7,113.1 56.3,112.6 59.0,112.0 61.6,111.7 64.2,111.2 66.9,110.5 69.5,109.7 72.1,109.1 74.8,108.6 77.4,108.4 80.0,107.9 82.7,107.3 85.3,106.8 88.0,106.5 90.6,106.0 93.2,104.3 95.9,103.8 98.5,103.1 101.1,102.4 103.8,101.8 106.4,101.2 109.0,100.8 111.7,100.6 114.3,100.1 116.9,99.2 119.6,98.5 122.2,98.0 124.8,97.4 127.5,97.2 130.1,97.1 132.7,96.8 135.4,96.2 138.0,95.9 140.6,95.7 143.3,95.0 145.9,94.1 148.5,93.9 151.2,93.7 153.8,93.3 156.4,92.6 159.1,92.1 161.7,91.3 164.3,90.8 167.0,90.1 169.6,89.9 172.2,89.5 174.9,88.8 177.5,88.1 180.1,87.6 182.8,87.4 185.4,87.0 188.0,86.7 190.7,85.9 193.3,85.2 196.0,84.5 198.6,83.9 201.2,83.6 203.9,83.4 206.5,83.1 209.1,82.6 211.8,82.2 214.4,81.9 217.0,81.6 219.7,81.4 222.3,81.0 224.9,80.8 227.6,80.6 230.2,80.4 232.8,79.7 235.5,79.3 238.1,79.2 240.7,78.9 243.4,78.8 246.0,78.8 248.6,90.6 251.3,89.4 253.9,88.4 256.5,87.3 259.2,84.1 261.8,81.8 264.4,79.4 267.1,78.5 269.7,77.5 272.3,75.9 275.0,74.1 277.6,72.8 280.2,72.3 282.9,71.8 285.5,70.5 288.1,69.6 290.8,69.0 293.4,68.2 296.0,67.9 298.7,67.8 301.3,67.1 304.0,66.0 306.6,65.2 309.2,64.4 311.9,63.5 314.5,63.1 317.1,62.8 319.8,62.0 322.4,61.3 325.0,60.7 327.7,60.2 330.3,59.9 332.9,59.8 335.6,59.4 338.2,58.8 340.8,58.4 343.5,57.9 346.1,57.6 348.7,57.2 351.4,56.9 354.0,56.6 356.6,56.3 359.3,56.0 361.9,55.4 364.5,55.0 367.2,54.4 369.8,54.1 372.4,53.8 375.1,53.6 377.7,53.3 380.3,53.0 383.0,52.2 385.6,51.6 388.2,50.9 390.9,50.6 393.5,50.5 396.1,50.2 398.8,49.8 401.4,49.4 404.0,49.0 406.7,48.4 409.3,48.1 412.0,47.9 414.6,47.7 417.2,47.4 419.9,47.2 422.5,46.8 425.1,46.6 427.8,46.0 430.4,45.8 433.0,45.6 435.7,45.4 438.3,45.2 440.9,44.8 443.6,44.4 446.2,44.0 448.8,43.7 451.5,43.3 454.1,43.0 456.7,42.9 459.4,42.6 462.0,42.1 464.6,41.6 467.3,41.2 469.9,40.9 472.5,40.2 475.2,40.1 477.8,39.9 480.4,39.7 483.1,39.3 485.7,39.1 488.3,38.7 491.0,38.5 493.6,38.2 496.2,37.9 498.9,37.6 501.5,37.4 504.1,37.3 506.8,36.9 509.4,36.5 512.0,36.3 514.7,35.9 517.3,35.7 520.0,35.5 522.6,35.2 525.2,35.0 527.9,34.8 530.5,34.5 533.1,34.0 535.8,33.4 538.4,33.1 541.0,32.8 543.7,32.7 546.3,32.6 548.9,32.2 551.6,31.7 554.2,31.5 556.8,31.3 559.5,31.0 562.1,30.7 564.7,30.4 567.4,30.2 570.0,30.0" />
  
  <!-- Punto finale luminoso -->
  <circle cx="570.0" cy="30.0" r="4" fill="#ffffff" stroke="#0366d6" stroke-width="2.5" />
</svg>