<svg width="600" height="150" viewBox="0 0 600 150" xmlns="http://www.w3.org/2000/svg">
  <defs>
    <filter id="shadow2" x="-2%" y="-2%" width="104%" height="108%">
      <feDropShadow dx="0" dy="2" stdDeviation="3" flood-opacity="0.1" />
    </filter>
    <linearGradient id="fillGrad" x1="0" y1="0" x2="0" y2="1">
      <stop offset="0%" stop-color="#0366d6" stop-opacity="0.3"/>
      <stop offset="100%" stop-color="#0366d6" stop-opacity="0.02"/>
    </linearGradient>
  </defs>
  <rect width="600" height="150" rx="12" fill="#ffffff" filter="url(#shadow2)" stroke="#e1e4e8" stroke-width="1"/>
  <text x="20" y="24" fill="#2b3137" font-family="-apple-system,BlinkMacSystemFont,'Segoe UI',Helvetica,Arial,sans-serif" font-size="14" font-weight="600">📈 Download Growth (Actual: 75.3k)</text>
  
  <!-- Area sotto la linea -->
  <polygon fill="url(#fillGrad)" points="30.0,120.0,120 30.0,120.0 34.0,118.8 37.9,117.5 41.9,116.4 45.9,116.0 49.9,115.4 53.8,114.1 57.8,113.1 61.8,112.5 65.7,111.1 69.7,110.3 73.7,109.6 77.6,109.2 81.6,108.5 85.6,107.6 89.6,106.5 93.5,105.8 97.5,105.2 101.5,104.8 105.4,104.2 109.4,103.4 113.4,102.8 117.4,102.4 121.3,101.8 125.3,99.5 129.3,98.9 133.2,98.0 137.2,97.1 141.2,96.3 145.1,95.5 149.1,95.1 153.1,94.7 157.1,94.0 161.0,92.9 165.0,92.0 169.0,91.3 172.9,90.6 176.9,90.4 180.9,90.2 184.9,89.8 188.8,89.1 192.8,88.6 196.8,88.3 200.7,87.5 204.7,86.3 208.7,86.0 212.6,85.8 216.6,85.3 220.6,84.3 224.6,83.7 228.5,82.7 232.5,81.9 236.5,81.1 240.4,80.9 244.4,80.3 248.4,79.4 252.4,78.5 256.3,77.8 260.3,77.5 264.3,77.1 268.2,76.6 272.2,75.6 276.2,74.7 280.1,73.8 284.1,73.0 288.1,72.6 292.1,72.3 296.0,71.9 300.0,71.3 304.0,70.8 307.9,70.4 311.9,70.1 315.9,69.8 319.9,69.3 323.8,68.9 327.8,68.7 331.8,68.5 335.7,67.6 339.7,67.0 343.7,66.9 347.6,66.6 351.6,66.4 355.6,66.4 359.6,81.7 363.5,80.2 367.5,78.8 371.5,77.4 375.4,73.2 379.4,70.3 383.4,67.2 387.4,66.0 391.3,64.7 395.3,62.6 399.3,60.2 403.2,58.5 407.2,57.9 411.2,57.2 415.1,55.6 419.1,54.3 423.1,53.6 427.1,52.6 431.0,52.2 435.0,52.0 439.0,51.1 442.9,49.7 446.9,48.6 450.9,47.6 454.9,46.5 458.8,45.9 462.8,45.5 466.8,44.5 470.7,43.6 474.7,42.8 478.7,42.1 482.6,41.8 486.6,41.6 490.6,41.0 494.6,40.3 498.5,39.7 502.5,39.2 506.5,38.7 510.4,38.3 514.4,37.9 518.4,37.5 522.4,37.1 526.3,36.7 530.3,35.9 534.3,35.3 538.2,34.6 542.2,34.3 546.2,33.8 550.1,33.5 554.1,33.1 558.1,32.8 562.1,31.7 566.0,30.9 570.0,30.0 570.0,30.0,120" />
  
  <!-- Linea principale -->
  <polyline fill="none" stroke="#0366d6" stroke-width="2.5" stroke-linecap="round" stroke-linejoin="round" points="30.0,120.0 34.0,118.8 37.9,117.5 41.9,116.4 45.9,116.0 49.9,115.4 53.8,114.1 57.8,113.1 61.8,112.5 65.7,111.1 69.7,110.3 73.7,109.6 77.6,109.2 81.6,108.5 85.6,107.6 89.6,106.5 93.5,105.8 97.5,105.2 101.5,104.8 105.4,104.2 109.4,103.4 113.4,102.8 117.4,102.4 121.3,101.8 125.3,99.5 129.3,98.9 133.2,98.0 137.2,97.1 141.2,96.3 145.1,95.5 149.1,95.1 153.1,94.7 157.1,94.0 161.0,92.9 165.0,92.0 169.0,91.3 172.9,90.6 176.9,90.4 180.9,90.2 184.9,89.8 188.8,89.1 192.8,88.6 196.8,88.3 200.7,87.5 204.7,86.3 208.7,86.0 212.6,85.8 216.6,85.3 220.6,84.3 224.6,83.7 228.5,82.7 232.5,81.9 236.5,81.1 240.4,80.9 244.4,80.3 248.4,79.4 252.4,78.5 256.3,77.8 260.3,77.5 264.3,77.1 268.2,76.6 272.2,75.6 276.2,74.7 280.1,73.8 284.1,73.0 288.1,72.6 292.1,72.3 296.0,71.9 300.0,71.3 304.0,70.8 307.9,70.4 311.9,70.1 315.9,69.8 319.9,69.3 323.8,68.9 327.8,68.7 331.8,68.5 335.7,67.6 339.7,67.0 343.7,66.9 347.6,66.6 351.6,66.4 355.6,66.4 359.6,81.7 363.5,80.2 367.5,78.8 371.5,77.4 375.4,73.2 379.4,70.3 383.4,67.2 387.4,66.0 391.3,64.7 395.3,62.6 399.3,60.2 403.2,58.5 407.2,57.9 411.2,57.2 415.1,55.6 419.1,54.3 423.1,53.6 427.1,52.6 431.0,52.2 435.0,52.0 439.0,51.1 442.9,49.7 446.9,48.6 450.9,47.6 454.9,46.5 458.8,45.9 462.8,45.5 466.8,44.5 470.7,43.6 474.7,42.8 478.7,42.1 482.6,41.8 486.6,41.6 490.6,41.0 494.6,40.3 498.5,39.7 502.5,39.2 506.5,38.7 510.4,38.3 514.4,37.9 518.4,37.5 522.4,37.1 526.3,36.7 530.3,35.9 534.3,35.3 538.2,34.6 542.2,34.3 546.2,33.8 550.1,33.5 554.1,33.1 558.1,32.8 562.1,31.7 566.0,30.9 570.0,30.0" />
  
  <!-- Punto finale luminoso -->
  <circle cx="570.0" cy="30.0" r="4" fill="#ffffff" stroke="#0366d6" stroke-width="2.5" />
</svg>