<svg width="600" height="150" viewBox="0 0 600 150" xmlns="http://www.w3.org/2000/svg">
  <defs>
    <filter id="shadow2" x="-2%" y="-2%" width="104%" height="108%">
      <feDropShadow dx="0" dy="2" stdDeviation="3" flood-opacity="0.1" />
    </filter>
    <linearGradient id="fillGrad" x1="0" y1="0" x2="0" y2="1">
      <stop offset="0%" stop-color="#0366d6" stop-opacity="0.3"/>
      <stop offset="100%" stop-color="#0366d6" stop-opacity="0.02"/>
    </linearGradient>
  </defs>
  <rect width="600" height="150" rx="12" fill="#ffffff" filter="url(#shadow2)" stroke="#e1e4e8" stroke-width="1"/>
  <text x="20" y="24" fill="#2b3137" font-family="-apple-system,BlinkMacSystemFont,'Segoe UI',Helvetica,Arial,sans-serif" font-size="14" font-weight="600">📈 Download Growth (Actual: 77.3k)</text>
  
  <!-- Area sotto la linea -->
  <polygon fill="url(#fillGrad)" points="30.0,120.0,120 30.0,120.0 32.8,119.0 35.7,118.0 38.5,117.1 41.3,116.8 44.1,116.3 47.0,115.2 49.8,114.5 52.6,114.0 55.4,112.8 58.3,112.2 61.1,111.7 63.9,111.3 66.8,110.8 69.6,110.0 72.4,109.2 75.2,108.6 78.1,108.1 80.9,107.8 83.7,107.3 86.5,106.7 89.4,106.2 92.2,105.9 95.0,105.4 97.9,103.6 100.7,103.0 103.5,102.3 106.3,101.6 109.2,101.0 112.0,100.3 114.8,100.0 117.6,99.7 120.5,99.1 123.3,98.3 126.1,97.5 129.0,97.0 131.8,96.4 134.6,96.2 137.4,96.0 140.3,95.7 143.1,95.1 145.9,94.8 148.7,94.5 151.6,93.9 154.4,92.9 157.2,92.7 160.1,92.5 162.9,92.1 165.7,91.3 168.5,90.8 171.4,90.0 174.2,89.4 177.0,88.7 179.8,88.6 182.7,88.1 185.5,87.4 188.3,86.7 191.2,86.1 194.0,85.9 196.8,85.5 199.6,85.2 202.5,84.3 205.3,83.6 208.1,82.9 210.9,82.2 213.8,81.9 216.6,81.7 219.4,81.4 222.3,80.8 225.1,80.5 227.9,80.1 230.7,79.9 233.6,79.6 236.4,79.2 239.2,79.0 242.0,78.8 244.9,78.6 247.7,77.9 250.5,77.4 253.4,77.3 256.2,77.0 259.0,76.9 261.8,76.9 264.7,89.2 267.5,88.0 270.3,86.9 273.1,85.8 276.0,82.4 278.8,80.1 281.6,77.6 284.5,76.6 287.3,75.6 290.1,73.8 292.9,72.0 295.8,70.6 298.6,70.1 301.4,69.6 304.2,68.2 307.1,67.2 309.9,66.6 312.7,65.8 315.5,65.5 318.4,65.3 321.2,64.6 324.0,63.5 326.9,62.7 329.7,61.8 332.5,60.9 335.3,60.5 338.2,60.1 341.0,59.3 343.8,58.6 346.6,57.9 349.5,57.4 352.3,57.1 355.1,57.0 358.0,56.6 360.8,55.9 363.6,55.5 366.4,55.1 369.3,54.7 372.1,54.3 374.9,54.0 377.7,53.7 380.6,53.4 383.4,53.1 386.2,52.4 389.1,52.0 391.9,51.4 394.7,51.1 397.5,50.7 400.4,50.5 403.2,50.2 406.0,49.9 408.8,49.0 411.7,48.4 414.5,47.7 417.3,47.4 420.2,47.3 423.0,47.0 425.8,46.6 428.6,46.1 431.5,45.7 434.3,45.1 437.1,44.8 439.9,44.6 442.8,44.3 445.6,44.1 448.4,43.8 451.3,43.5 454.1,43.2 456.9,42.6 459.7,42.4 462.6,42.2 465.4,41.9 468.2,41.8 471.0,41.3 473.9,40.9 476.7,40.5 479.5,40.1 482.4,39.7 485.2,39.5 488.0,39.3 490.8,39.0 493.7,38.5 496.5,38.0 499.3,37.6 502.1,37.2 505.0,36.5 507.8,36.4 510.6,36.1 513.5,36.0 516.3,35.6 519.1,35.3 521.9,35.0 524.8,34.7 527.6,34.4 530.4,34.1 533.2,33.8 536.1,33.6 538.9,33.4 541.7,33.1 544.6,32.6 547.4,32.4 550.2,32.0 553.0,31.8 555.9,31.6 558.7,31.3 561.5,31.1 564.3,30.8 567.2,30.5 570.0,30.0 570.0,30.0,120" />
  
  <!-- Linea principale -->
  <polyline fill="none" stroke="#0366d6" stroke-width="2.5" stroke-linecap="round" stroke-linejoin="round" points="30.0,120.0 32.8,119.0 35.7,118.0 38.5,117.1 41.3,116.8 44.1,116.3 47.0,115.2 49.8,114.5 52.6,114.0 55.4,112.8 58.3,112.2 61.1,111.7 63.9,111.3 66.8,110.8 69.6,110.0 72.4,109.2 75.2,108.6 78.1,108.1 80.9,107.8 83.7,107.3 86.5,106.7 89.4,106.2 92.2,105.9 95.0,105.4 97.9,103.6 100.7,103.0 103.5,102.3 106.3,101.6 109.2,101.0 112.0,100.3 114.8,100.0 117.6,99.7 120.5,99.1 123.3,98.3 126.1,97.5 129.0,97.0 131.8,96.4 134.6,96.2 137.4,96.0 140.3,95.7 143.1,95.1 145.9,94.8 148.7,94.5 151.6,93.9 154.4,92.9 157.2,92.7 160.1,92.5 162.9,92.1 165.7,91.3 168.5,90.8 171.4,90.0 174.2,89.4 177.0,88.7 179.8,88.6 182.7,88.1 185.5,87.4 188.3,86.7 191.2,86.1 194.0,85.9 196.8,85.5 199.6,85.2 202.5,84.3 205.3,83.6 208.1,82.9 210.9,82.2 213.8,81.9 216.6,81.7 219.4,81.4 222.3,80.8 225.1,80.5 227.9,80.1 230.7,79.9 233.6,79.6 236.4,79.2 239.2,79.0 242.0,78.8 244.9,78.6 247.7,77.9 250.5,77.4 253.4,77.3 256.2,77.0 259.0,76.9 261.8,76.9 264.7,89.2 267.5,88.0 270.3,86.9 273.1,85.8 276.0,82.4 278.8,80.1 281.6,77.6 284.5,76.6 287.3,75.6 290.1,73.8 292.9,72.0 295.8,70.6 298.6,70.1 301.4,69.6 304.2,68.2 307.1,67.2 309.9,66.6 312.7,65.8 315.5,65.5 318.4,65.3 321.2,64.6 324.0,63.5 326.9,62.7 329.7,61.8 332.5,60.9 335.3,60.5 338.2,60.1 341.0,59.3 343.8,58.6 346.6,57.9 349.5,57.4 352.3,57.1 355.1,57.0 358.0,56.6 360.8,55.9 363.6,55.5 366.4,55.1 369.3,54.7 372.1,54.3 374.9,54.0 377.7,53.7 380.6,53.4 383.4,53.1 386.2,52.4 389.1,52.0 391.9,51.4 394.7,51.1 397.5,50.7 400.4,50.5 403.2,50.2 406.0,49.9 408.8,49.0 411.7,48.4 414.5,47.7 417.3,47.4 420.2,47.3 423.0,47.0 425.8,46.6 428.6,46.1 431.5,45.7 434.3,45.1 437.1,44.8 439.9,44.6 442.8,44.3 445.6,44.1 448.4,43.8 451.3,43.5 454.1,43.2 456.9,42.6 459.7,42.4 462.6,42.2 465.4,41.9 468.2,41.8 471.0,41.3 473.9,40.9 476.7,40.5 479.5,40.1 482.4,39.7 485.2,39.5 488.0,39.3 490.8,39.0 493.7,38.5 496.5,38.0 499.3,37.6 502.1,37.2 505.0,36.5 507.8,36.4 510.6,36.1 513.5,36.0 516.3,35.6 519.1,35.3 521.9,35.0 524.8,34.7 527.6,34.4 530.4,34.1 533.2,33.8 536.1,33.6 538.9,33.4 541.7,33.1 544.6,32.6 547.4,32.4 550.2,32.0 553.0,31.8 555.9,31.6 558.7,31.3 561.5,31.1 564.3,30.8 567.2,30.5 570.0,30.0" />
  
  <!-- Punto finale luminoso -->
  <circle cx="570.0" cy="30.0" r="4" fill="#ffffff" stroke="#0366d6" stroke-width="2.5" />
</svg>