<svg width="600" height="150" viewBox="0 0 600 150" xmlns="http://www.w3.org/2000/svg">
  <defs>
    <filter id="shadow2" x="-2%" y="-2%" width="104%" height="108%">
      <feDropShadow dx="0" dy="2" stdDeviation="3" flood-opacity="0.1" />
    </filter>
    <linearGradient id="fillGrad" x1="0" y1="0" x2="0" y2="1">
      <stop offset="0%" stop-color="#0366d6" stop-opacity="0.3"/>
      <stop offset="100%" stop-color="#0366d6" stop-opacity="0.02"/>
    </linearGradient>
  </defs>
  <rect width="600" height="150" rx="12" fill="#ffffff" filter="url(#shadow2)" stroke="#e1e4e8" stroke-width="1"/>
  <text x="20" y="24" fill="#2b3137" font-family="-apple-system,BlinkMacSystemFont,'Segoe UI',Helvetica,Arial,sans-serif" font-size="14" font-weight="600">📈 Download Growth (Actual: 71.9k)</text>
  
  <!-- Area sotto la linea -->
  <polygon fill="url(#fillGrad)" points="30.0,120.0,120 30.0,120.0 36.0,118.0 42.0,115.8 48.0,113.9 54.0,113.4 60.0,112.4 66.0,110.1 72.0,108.5 78.0,107.5 84.0,105.1 90.0,103.9 96.0,102.7 102.0,102.0 108.0,100.9 114.0,99.3 120.0,97.6 126.0,96.2 132.0,95.4 138.0,94.7 144.0,93.7 150.0,92.4 156.0,91.3 162.0,90.7 168.0,89.7 174.0,85.9 180.0,84.8 186.0,83.3 192.0,81.8 198.0,80.5 204.0,79.2 210.0,78.4 216.0,77.8 222.0,76.7 228.0,74.9 234.0,73.3 240.0,72.2 246.0,71.0 252.0,70.6 258.0,70.3 264.0,69.6 270.0,68.4 276.0,67.7 282.0,67.2 288.0,65.8 294.0,63.8 300.0,63.3 306.0,62.9 312.0,62.1 318.0,60.5 324.0,59.4 330.0,57.7 336.0,56.5 342.0,55.1 348.0,54.8 354.0,53.9 360.0,52.4 366.0,50.8 372.0,49.7 378.0,49.2 384.0,48.4 390.0,47.7 396.0,46.0 402.0,44.4 408.0,43.0 414.0,41.6 420.0,40.9 426.0,40.5 432.0,39.9 438.0,38.7 444.0,37.9 450.0,37.3 456.0,36.7 462.0,36.2 468.0,35.4 474.0,34.9 480.0,34.5 486.0,34.1 492.0,32.6 498.0,31.7 504.0,31.4 510.0,30.9 516.0,30.6 522.0,30.6 528.0,56.1 534.0,53.6 540.0,51.4 546.0,49.0 552.0,42.0 558.0,37.2 564.0,31.9 570.0,30.0 570.0,30.0,120" />
  
  <!-- Linea principale -->
  <polyline fill="none" stroke="#0366d6" stroke-width="2.5" stroke-linecap="round" stroke-linejoin="round" points="30.0,120.0 36.0,118.0 42.0,115.8 48.0,113.9 54.0,113.4 60.0,112.4 66.0,110.1 72.0,108.5 78.0,107.5 84.0,105.1 90.0,103.9 96.0,102.7 102.0,102.0 108.0,100.9 114.0,99.3 120.0,97.6 126.0,96.2 132.0,95.4 138.0,94.7 144.0,93.7 150.0,92.4 156.0,91.3 162.0,90.7 168.0,89.7 174.0,85.9 180.0,84.8 186.0,83.3 192.0,81.8 198.0,80.5 204.0,79.2 210.0,78.4 216.0,77.8 222.0,76.7 228.0,74.9 234.0,73.3 240.0,72.2 246.0,71.0 252.0,70.6 258.0,70.3 264.0,69.6 270.0,68.4 276.0,67.7 282.0,67.2 288.0,65.8 294.0,63.8 300.0,63.3 306.0,62.9 312.0,62.1 318.0,60.5 324.0,59.4 330.0,57.7 336.0,56.5 342.0,55.1 348.0,54.8 354.0,53.9 360.0,52.4 366.0,50.8 372.0,49.7 378.0,49.2 384.0,48.4 390.0,47.7 396.0,46.0 402.0,44.4 408.0,43.0 414.0,41.6 420.0,40.9 426.0,40.5 432.0,39.9 438.0,38.7 444.0,37.9 450.0,37.3 456.0,36.7 462.0,36.2 468.0,35.4 474.0,34.9 480.0,34.5 486.0,34.1 492.0,32.6 498.0,31.7 504.0,31.4 510.0,30.9 516.0,30.6 522.0,30.6 528.0,56.1 534.0,53.6 540.0,51.4 546.0,49.0 552.0,42.0 558.0,37.2 564.0,31.9 570.0,30.0" />
  
  <!-- Punto finale luminoso -->
  <circle cx="570.0" cy="30.0" r="4" fill="#ffffff" stroke="#0366d6" stroke-width="2.5" />
</svg>