<svg width="600" height="150" viewBox="0 0 600 150" xmlns="http://www.w3.org/2000/svg">
  <defs>
    <filter id="shadow2" x="-2%" y="-2%" width="104%" height="108%">
      <feDropShadow dx="0" dy="2" stdDeviation="3" flood-opacity="0.1" />
    </filter>
    <linearGradient id="fillGrad" x1="0" y1="0" x2="0" y2="1">
      <stop offset="0%" stop-color="#0366d6" stop-opacity="0.3"/>
      <stop offset="100%" stop-color="#0366d6" stop-opacity="0.02"/>
    </linearGradient>
  </defs>
  <rect width="600" height="150" rx="12" fill="#ffffff" filter="url(#shadow2)" stroke="#e1e4e8" stroke-width="1"/>
  <text x="20" y="24" fill="#2b3137" font-family="-apple-system,BlinkMacSystemFont,'Segoe UI',Helvetica,Arial,sans-serif" font-size="14" font-weight="600">📈 Download Growth (Actual: 76.8k)</text>
  
  <!-- Area sotto la linea -->
  <polygon fill="url(#fillGrad)" points="30.0,120.0,120 30.0,120.0 33.1,119.0 36.1,117.9 39.2,116.9 42.3,116.7 45.3,116.2 48.4,115.0 51.5,114.2 54.5,113.7 57.6,112.4 60.7,111.8 63.8,111.2 66.8,110.9 69.9,110.3 73.0,109.5 76.0,108.6 79.1,108.0 82.2,107.5 85.2,107.2 88.3,106.7 91.4,106.0 94.4,105.4 97.5,105.2 100.6,104.6 103.6,102.7 106.7,102.1 109.8,101.4 112.8,100.6 115.9,100.0 119.0,99.3 122.0,98.9 125.1,98.6 128.2,98.1 131.2,97.1 134.3,96.3 137.4,95.8 140.5,95.2 143.5,95.0 146.6,94.8 149.7,94.5 152.7,93.9 155.8,93.5 158.9,93.2 161.9,92.5 165.0,91.5 168.1,91.3 171.1,91.1 174.2,90.7 177.3,89.9 180.3,89.3 183.4,88.5 186.5,87.9 189.5,87.1 192.6,87.0 195.7,86.5 198.8,85.7 201.8,85.0 204.9,84.4 208.0,84.1 211.0,83.7 214.1,83.4 217.2,82.5 220.2,81.7 223.3,81.0 226.4,80.3 229.4,79.9 232.5,79.7 235.6,79.4 238.6,78.8 241.7,78.4 244.8,78.1 247.8,77.8 250.9,77.6 254.0,77.1 257.0,76.9 260.1,76.7 263.2,76.5 266.2,75.7 269.3,75.3 272.4,75.1 275.5,74.9 278.5,74.7 281.6,74.7 284.7,87.7 287.7,86.4 290.8,85.2 293.9,84.0 296.9,80.5 300.0,78.0 303.1,75.4 306.1,74.4 309.2,73.3 312.3,71.5 315.3,69.5 318.4,68.1 321.5,67.5 324.5,67.0 327.6,65.6 330.7,64.5 333.8,63.9 336.8,63.0 339.9,62.7 343.0,62.6 346.0,61.8 349.1,60.6 352.2,59.7 355.2,58.9 358.3,57.9 361.4,57.4 364.4,57.1 367.5,56.2 370.6,55.5 373.6,54.8 376.7,54.2 379.8,53.9 382.8,53.8 385.9,53.3 389.0,52.7 392.0,52.2 395.1,51.7 398.2,51.4 401.2,51.0 404.3,50.6 407.4,50.3 410.5,50.0 413.5,49.7 416.6,49.0 419.7,48.5 422.7,47.9 425.8,47.6 428.9,47.2 431.9,46.9 435.0,46.6 438.1,46.3 441.1,45.4 444.2,44.8 447.3,44.0 450.3,43.7 453.4,43.6 456.5,43.2 459.5,42.8 462.6,42.3 465.7,41.9 468.8,41.3 471.8,40.9 474.9,40.8 478.0,40.5 481.0,40.2 484.1,39.9 487.2,39.6 490.2,39.2 493.3,38.7 496.4,38.4 499.4,38.2 502.5,38.0 505.6,37.8 508.6,37.3 511.7,36.9 514.8,36.5 517.8,36.1 520.9,35.6 524.0,35.4 527.0,35.2 530.1,34.9 533.2,34.3 536.2,33.8 539.3,33.4 542.4,33.0 545.5,32.3 548.5,32.1 551.6,31.9 554.7,31.7 557.7,31.3 560.8,31.0 563.9,30.6 566.9,30.3 570.0,30.0 570.0,30.0,120" />
  
  <!-- Linea principale -->
  <polyline fill="none" stroke="#0366d6" stroke-width="2.5" stroke-linecap="round" stroke-linejoin="round" points="30.0,120.0 33.1,119.0 36.1,117.9 39.2,116.9 42.3,116.7 45.3,116.2 48.4,115.0 51.5,114.2 54.5,113.7 57.6,112.4 60.7,111.8 63.8,111.2 66.8,110.9 69.9,110.3 73.0,109.5 76.0,108.6 79.1,108.0 82.2,107.5 85.2,107.2 88.3,106.7 91.4,106.0 94.4,105.4 97.5,105.2 100.6,104.6 103.6,102.7 106.7,102.1 109.8,101.4 112.8,100.6 115.9,100.0 119.0,99.3 122.0,98.9 125.1,98.6 128.2,98.1 131.2,97.1 134.3,96.3 137.4,95.8 140.5,95.2 143.5,95.0 146.6,94.8 149.7,94.5 152.7,93.9 155.8,93.5 158.9,93.2 161.9,92.5 165.0,91.5 168.1,91.3 171.1,91.1 174.2,90.7 177.3,89.9 180.3,89.3 183.4,88.5 186.5,87.9 189.5,87.1 192.6,87.0 195.7,86.5 198.8,85.7 201.8,85.0 204.9,84.4 208.0,84.1 211.0,83.7 214.1,83.4 217.2,82.5 220.2,81.7 223.3,81.0 226.4,80.3 229.4,79.9 232.5,79.7 235.6,79.4 238.6,78.8 241.7,78.4 244.8,78.1 247.8,77.8 250.9,77.6 254.0,77.1 257.0,76.9 260.1,76.7 263.2,76.5 266.2,75.7 269.3,75.3 272.4,75.1 275.5,74.9 278.5,74.7 281.6,74.7 284.7,87.7 287.7,86.4 290.8,85.2 293.9,84.0 296.9,80.5 300.0,78.0 303.1,75.4 306.1,74.4 309.2,73.3 312.3,71.5 315.3,69.5 318.4,68.1 321.5,67.5 324.5,67.0 327.6,65.6 330.7,64.5 333.8,63.9 336.8,63.0 339.9,62.7 343.0,62.6 346.0,61.8 349.1,60.6 352.2,59.7 355.2,58.9 358.3,57.9 361.4,57.4 364.4,57.1 367.5,56.2 370.6,55.5 373.6,54.8 376.7,54.2 379.8,53.9 382.8,53.8 385.9,53.3 389.0,52.7 392.0,52.2 395.1,51.7 398.2,51.4 401.2,51.0 404.3,50.6 407.4,50.3 410.5,50.0 413.5,49.7 416.6,49.0 419.7,48.5 422.7,47.9 425.8,47.6 428.9,47.2 431.9,46.9 435.0,46.6 438.1,46.3 441.1,45.4 444.2,44.8 447.3,44.0 450.3,43.7 453.4,43.6 456.5,43.2 459.5,42.8 462.6,42.3 465.7,41.9 468.8,41.3 471.8,40.9 474.9,40.8 478.0,40.5 481.0,40.2 484.1,39.9 487.2,39.6 490.2,39.2 493.3,38.7 496.4,38.4 499.4,38.2 502.5,38.0 505.6,37.8 508.6,37.3 511.7,36.9 514.8,36.5 517.8,36.1 520.9,35.6 524.0,35.4 527.0,35.2 530.1,34.9 533.2,34.3 536.2,33.8 539.3,33.4 542.4,33.0 545.5,32.3 548.5,32.1 551.6,31.9 554.7,31.7 557.7,31.3 560.8,31.0 563.9,30.6 566.9,30.3 570.0,30.0" />
  
  <!-- Punto finale luminoso -->
  <circle cx="570.0" cy="30.0" r="4" fill="#ffffff" stroke="#0366d6" stroke-width="2.5" />
</svg>