<svg width="600" height="150" viewBox="0 0 600 150" xmlns="http://www.w3.org/2000/svg">
  <defs>
    <filter id="shadow2" x="-2%" y="-2%" width="104%" height="108%">
      <feDropShadow dx="0" dy="2" stdDeviation="3" flood-opacity="0.1" />
    </filter>
    <linearGradient id="fillGrad" x1="0" y1="0" x2="0" y2="1">
      <stop offset="0%" stop-color="#0366d6" stop-opacity="0.3"/>
      <stop offset="100%" stop-color="#0366d6" stop-opacity="0.02"/>
    </linearGradient>
  </defs>
  <rect width="600" height="150" rx="12" fill="#ffffff" filter="url(#shadow2)" stroke="#e1e4e8" stroke-width="1"/>
  <text x="20" y="24" fill="#2b3137" font-family="-apple-system,BlinkMacSystemFont,'Segoe UI',Helvetica,Arial,sans-serif" font-size="14" font-weight="600">📈 Download Growth (Actual: 70.5k)</text>
  
  <!-- Area sotto la linea -->
  <polygon fill="url(#fillGrad)" points="30.0,120.0,120 30.0,120.0 40.4,117.2 50.8,114.2 61.2,111.6 71.5,110.9 81.9,109.5 92.3,106.3 102.7,104.1 113.1,102.7 123.5,99.3 133.8,97.7 144.2,96.0 154.6,95.0 165.0,93.5 175.4,91.3 185.8,88.9 196.2,87.1 206.5,85.8 216.9,85.0 227.3,83.5 237.7,81.7 248.1,80.2 258.5,79.4 268.8,78.0 279.2,72.7 289.6,71.2 300.0,69.1 310.4,67.0 320.8,65.2 331.2,63.5 341.5,62.3 351.9,61.5 362.3,60.0 372.7,57.5 383.1,55.3 393.5,53.8 403.8,52.0 414.2,51.5 424.6,51.1 435.0,50.2 445.4,48.5 455.8,47.5 466.2,46.8 476.5,44.9 486.9,42.1 497.3,41.4 507.7,40.9 518.1,39.7 528.5,37.5 538.8,36.0 549.2,33.7 559.6,32.1 570.0,30.0 570.0,30.0,120" />
  
  <!-- Linea principale -->
  <polyline fill="none" stroke="#0366d6" stroke-width="2.5" stroke-linecap="round" stroke-linejoin="round" points="30.0,120.0 40.4,117.2 50.8,114.2 61.2,111.6 71.5,110.9 81.9,109.5 92.3,106.3 102.7,104.1 113.1,102.7 123.5,99.3 133.8,97.7 144.2,96.0 154.6,95.0 165.0,93.5 175.4,91.3 185.8,88.9 196.2,87.1 206.5,85.8 216.9,85.0 227.3,83.5 237.7,81.7 248.1,80.2 258.5,79.4 268.8,78.0 279.2,72.7 289.6,71.2 300.0,69.1 310.4,67.0 320.8,65.2 331.2,63.5 341.5,62.3 351.9,61.5 362.3,60.0 372.7,57.5 383.1,55.3 393.5,53.8 403.8,52.0 414.2,51.5 424.6,51.1 435.0,50.2 445.4,48.5 455.8,47.5 466.2,46.8 476.5,44.9 486.9,42.1 497.3,41.4 507.7,40.9 518.1,39.7 528.5,37.5 538.8,36.0 549.2,33.7 559.6,32.1 570.0,30.0" />
  
  <!-- Punto finale luminoso -->
  <circle cx="570.0" cy="30.0" r="4" fill="#ffffff" stroke="#0366d6" stroke-width="2.5" />
</svg>