<svg width="600" height="150" viewBox="0 0 600 150" xmlns="http://www.w3.org/2000/svg">
  <defs>
    <filter id="shadow2" x="-2%" y="-2%" width="104%" height="108%">
      <feDropShadow dx="0" dy="2" stdDeviation="3" flood-opacity="0.1" />
    </filter>
    <linearGradient id="fillGrad" x1="0" y1="0" x2="0" y2="1">
      <stop offset="0%" stop-color="#0366d6" stop-opacity="0.3"/>
      <stop offset="100%" stop-color="#0366d6" stop-opacity="0.02"/>
    </linearGradient>
  </defs>
  <rect width="600" height="150" rx="12" fill="#ffffff" filter="url(#shadow2)" stroke="#e1e4e8" stroke-width="1"/>
  <text x="20" y="24" fill="#2b3137" font-family="-apple-system,BlinkMacSystemFont,'Segoe UI',Helvetica,Arial,sans-serif" font-size="14" font-weight="600">📈 Download Growth (Actual: 82.2k)</text>
  
  <!-- Area sotto la linea -->
  <polygon fill="url(#fillGrad)" points="30.0,120.0,120 30.0,120.0 31.8,119.3 33.7,118.6 35.5,118.0 37.4,117.8 39.2,117.5 41.1,116.8 42.9,116.2 44.8,115.9 46.6,115.1 48.5,114.7 50.3,114.3 52.2,114.1 54.0,113.8 55.9,113.2 57.7,112.7 59.6,112.2 61.4,111.9 63.3,111.7 65.1,111.4 67.0,111.0 68.8,110.6 70.7,110.4 72.5,110.1 74.4,108.8 76.2,108.5 78.1,108.0 79.9,107.5 81.8,107.1 83.6,106.7 85.5,106.4 87.3,106.2 89.2,105.8 91.0,105.2 92.9,104.7 94.7,104.4 96.6,104.0 98.4,103.8 100.3,103.7 102.1,103.5 104.0,103.1 105.8,102.9 107.7,102.7 109.5,102.3 111.4,101.6 113.2,101.4 115.1,101.3 116.9,101.1 118.8,100.5 120.6,100.2 122.5,99.6 124.3,99.2 126.2,98.8 128.0,98.7 129.9,98.4 131.7,97.9 133.6,97.4 135.4,97.0 137.3,96.8 139.1,96.6 141.0,96.3 142.8,95.8 144.7,95.3 146.5,94.8 148.4,94.4 150.2,94.1 152.1,94.0 153.9,93.8 155.8,93.4 157.6,93.2 159.5,92.9 161.3,92.8 163.2,92.6 165.0,92.3 166.8,92.1 168.7,92.0 170.5,91.9 172.4,91.4 174.2,91.1 176.1,91.0 177.9,90.8 179.8,90.7 181.6,90.7 183.5,99.1 185.3,98.3 187.2,97.5 189.0,96.8 190.9,94.5 192.7,92.9 194.6,91.2 196.4,90.6 198.3,89.8 200.1,88.7 202.0,87.4 203.8,86.5 205.7,86.1 207.5,85.8 209.4,84.8 211.2,84.2 213.1,83.8 214.9,83.2 216.8,83.0 218.6,82.9 220.5,82.4 222.3,81.6 224.2,81.1 226.0,80.5 227.9,79.9 229.7,79.6 231.6,79.4 233.4,78.8 235.3,78.3 237.1,77.9 239.0,77.5 240.8,77.3 242.7,77.2 244.5,76.9 246.4,76.5 248.2,76.2 250.1,75.9 251.9,75.7 253.8,75.4 255.6,75.2 257.5,75.0 259.3,74.8 261.2,74.6 263.0,74.1 264.9,73.8 266.7,73.4 268.6,73.2 270.4,73.0 272.3,72.8 274.1,72.6 276.0,72.4 277.8,71.8 279.7,71.4 281.5,70.9 283.4,70.7 285.2,70.7 287.1,70.4 288.9,70.2 290.8,69.8 292.6,69.6 294.5,69.2 296.3,68.9 298.2,68.8 300.0,68.6 301.8,68.5 303.7,68.3 305.5,68.0 307.4,67.8 309.2,67.5 311.1,67.3 312.9,67.2 314.8,67.0 316.6,66.9 318.5,66.6 320.3,66.3 322.2,66.0 324.0,65.8 325.9,65.5 327.7,65.3 329.6,65.2 331.4,65.0 333.3,64.6 335.1,64.3 337.0,64.1 338.8,63.8 340.7,63.3 342.5,63.2 344.4,63.1 346.2,63.0 348.1,62.7 349.9,62.5 351.8,62.3 353.6,62.1 355.5,61.9 357.3,61.7 359.2,61.5 361.0,61.3 362.9,61.2 364.7,61.0 366.6,60.7 368.4,60.5 370.3,60.3 372.1,60.1 374.0,60.0 375.8,59.8 377.7,59.6 379.5,59.5 381.4,59.3 383.2,58.9 385.1,58.5 386.9,58.3 388.8,58.1 390.6,58.0 392.5,57.9 394.3,57.7 396.2,57.3 398.0,57.2 399.9,57.0 401.7,56.8 403.6,56.6 405.4,56.4 407.3,56.2 409.1,56.1 411.0,55.8 412.8,55.6 414.7,55.3 416.5,55.0 418.4,54.9 420.2,54.8 422.1,54.7 423.9,54.5 425.8,54.4 427.6,54.1 429.5,53.9 431.3,53.7 433.2,53.6 435.0,53.4 436.8,53.3 438.7,53.1 440.5,52.8 442.4,52.6 444.2,52.3 446.1,52.1 447.9,52.0 449.8,51.9 451.6,51.7 453.5,51.6 455.3,51.5 457.2,51.3 459.0,51.0 460.9,50.8 462.7,50.7 464.6,50.5 466.4,50.4 468.3,50.2 470.1,50.0 472.0,49.8 473.8,49.7 475.7,49.5 477.5,49.3 479.4,49.1 481.2,48.9 483.1,48.8 484.9,48.7 486.8,48.5 488.6,48.4 490.5,48.2 492.3,48.0 494.2,48.0 496.0,47.8 497.9,47.4 499.7,47.2 501.6,52.6 503.4,51.6 505.3,49.5 507.1,48.7 509.0,47.7 510.8,46.6 512.7,45.9 514.5,45.5 516.4,44.7 518.2,43.5 520.1,42.6 521.9,42.4 523.8,41.9 525.6,41.5 527.5,40.9 529.3,40.4 531.2,39.7 533.0,39.4 534.9,38.8 536.7,38.5 538.6,38.0 540.4,37.8 542.3,37.5 544.1,37.2 546.0,36.6 547.8,36.2 549.7,35.6 551.5,34.9 553.4,34.4 555.2,34.2 557.1,34.0 558.9,33.7 560.8,33.2 562.6,32.8 564.5,32.4 566.3,31.3 568.2,30.4 570.0,30.0 570.0,30.0,120" />
  
  <!-- Linea principale -->
  <polyline fill="none" stroke="#0366d6" stroke-width="2.5" stroke-linecap="round" stroke-linejoin="round" points="30.0,120.0 31.8,119.3 33.7,118.6 35.5,118.0 37.4,117.8 39.2,117.5 41.1,116.8 42.9,116.2 44.8,115.9 46.6,115.1 48.5,114.7 50.3,114.3 52.2,114.1 54.0,113.8 55.9,113.2 57.7,112.7 59.6,112.2 61.4,111.9 63.3,111.7 65.1,111.4 67.0,111.0 68.8,110.6 70.7,110.4 72.5,110.1 74.4,108.8 76.2,108.5 78.1,108.0 79.9,107.5 81.8,107.1 83.6,106.7 85.5,106.4 87.3,106.2 89.2,105.8 91.0,105.2 92.9,104.7 94.7,104.4 96.6,104.0 98.4,103.8 100.3,103.7 102.1,103.5 104.0,103.1 105.8,102.9 107.7,102.7 109.5,102.3 111.4,101.6 113.2,101.4 115.1,101.3 116.9,101.1 118.8,100.5 120.6,100.2 122.5,99.6 124.3,99.2 126.2,98.8 128.0,98.7 129.9,98.4 131.7,97.9 133.6,97.4 135.4,97.0 137.3,96.8 139.1,96.6 141.0,96.3 142.8,95.8 144.7,95.3 146.5,94.8 148.4,94.4 150.2,94.1 152.1,94.0 153.9,93.8 155.8,93.4 157.6,93.2 159.5,92.9 161.3,92.8 163.2,92.6 165.0,92.3 166.8,92.1 168.7,92.0 170.5,91.9 172.4,91.4 174.2,91.1 176.1,91.0 177.9,90.8 179.8,90.7 181.6,90.7 183.5,99.1 185.3,98.3 187.2,97.5 189.0,96.8 190.9,94.5 192.7,92.9 194.6,91.2 196.4,90.6 198.3,89.8 200.1,88.7 202.0,87.4 203.8,86.5 205.7,86.1 207.5,85.8 209.4,84.8 211.2,84.2 213.1,83.8 214.9,83.2 216.8,83.0 218.6,82.9 220.5,82.4 222.3,81.6 224.2,81.1 226.0,80.5 227.9,79.9 229.7,79.6 231.6,79.4 233.4,78.8 235.3,78.3 237.1,77.9 239.0,77.5 240.8,77.3 242.7,77.2 244.5,76.9 246.4,76.5 248.2,76.2 250.1,75.9 251.9,75.7 253.8,75.4 255.6,75.2 257.5,75.0 259.3,74.8 261.2,74.6 263.0,74.1 264.9,73.8 266.7,73.4 268.6,73.2 270.4,73.0 272.3,72.8 274.1,72.6 276.0,72.4 277.8,71.8 279.7,71.4 281.5,70.9 283.4,70.7 285.2,70.7 287.1,70.4 288.9,70.2 290.8,69.8 292.6,69.6 294.5,69.2 296.3,68.9 298.2,68.8 300.0,68.6 301.8,68.5 303.7,68.3 305.5,68.0 307.4,67.8 309.2,67.5 311.1,67.3 312.9,67.2 314.8,67.0 316.6,66.9 318.5,66.6 320.3,66.3 322.2,66.0 324.0,65.8 325.9,65.5 327.7,65.3 329.6,65.2 331.4,65.0 333.3,64.6 335.1,64.3 337.0,64.1 338.8,63.8 340.7,63.3 342.5,63.2 344.4,63.1 346.2,63.0 348.1,62.7 349.9,62.5 351.8,62.3 353.6,62.1 355.5,61.9 357.3,61.7 359.2,61.5 361.0,61.3 362.9,61.2 364.7,61.0 366.6,60.7 368.4,60.5 370.3,60.3 372.1,60.1 374.0,60.0 375.8,59.8 377.7,59.6 379.5,59.5 381.4,59.3 383.2,58.9 385.1,58.5 386.9,58.3 388.8,58.1 390.6,58.0 392.5,57.9 394.3,57.7 396.2,57.3 398.0,57.2 399.9,57.0 401.7,56.8 403.6,56.6 405.4,56.4 407.3,56.2 409.1,56.1 411.0,55.8 412.8,55.6 414.7,55.3 416.5,55.0 418.4,54.9 420.2,54.8 422.1,54.7 423.9,54.5 425.8,54.4 427.6,54.1 429.5,53.9 431.3,53.7 433.2,53.6 435.0,53.4 436.8,53.3 438.7,53.1 440.5,52.8 442.4,52.6 444.2,52.3 446.1,52.1 447.9,52.0 449.8,51.9 451.6,51.7 453.5,51.6 455.3,51.5 457.2,51.3 459.0,51.0 460.9,50.8 462.7,50.7 464.6,50.5 466.4,50.4 468.3,50.2 470.1,50.0 472.0,49.8 473.8,49.7 475.7,49.5 477.5,49.3 479.4,49.1 481.2,48.9 483.1,48.8 484.9,48.7 486.8,48.5 488.6,48.4 490.5,48.2 492.3,48.0 494.2,48.0 496.0,47.8 497.9,47.4 499.7,47.2 501.6,52.6 503.4,51.6 505.3,49.5 507.1,48.7 509.0,47.7 510.8,46.6 512.7,45.9 514.5,45.5 516.4,44.7 518.2,43.5 520.1,42.6 521.9,42.4 523.8,41.9 525.6,41.5 527.5,40.9 529.3,40.4 531.2,39.7 533.0,39.4 534.9,38.8 536.7,38.5 538.6,38.0 540.4,37.8 542.3,37.5 544.1,37.2 546.0,36.6 547.8,36.2 549.7,35.6 551.5,34.9 553.4,34.4 555.2,34.2 557.1,34.0 558.9,33.7 560.8,33.2 562.6,32.8 564.5,32.4 566.3,31.3 568.2,30.4 570.0,30.0" />
  
  <!-- Punto finale luminoso -->
  <circle cx="570.0" cy="30.0" r="4" fill="#ffffff" stroke="#0366d6" stroke-width="2.5" />
</svg>