<svg width="600" height="150" viewBox="0 0 600 150" xmlns="http://www.w3.org/2000/svg">
  <defs>
    <filter id="shadow2" x="-2%" y="-2%" width="104%" height="108%">
      <feDropShadow dx="0" dy="2" stdDeviation="3" flood-opacity="0.1" />
    </filter>
    <linearGradient id="fillGrad" x1="0" y1="0" x2="0" y2="1">
      <stop offset="0%" stop-color="#0366d6" stop-opacity="0.3"/>
      <stop offset="100%" stop-color="#0366d6" stop-opacity="0.02"/>
    </linearGradient>
  </defs>
  <rect width="600" height="150" rx="12" fill="#ffffff" filter="url(#shadow2)" stroke="#e1e4e8" stroke-width="1"/>
  <text x="20" y="24" fill="#2b3137" font-family="-apple-system,BlinkMacSystemFont,'Segoe UI',Helvetica,Arial,sans-serif" font-size="14" font-weight="600">📈 Download Growth (Actual: 72.4k)</text>
  
  <!-- Area sotto la linea -->
  <polygon fill="url(#fillGrad)" points="30.0,120.0,120 30.0,120.0 35.8,118.2 41.6,116.2 47.4,114.5 53.2,114.1 59.0,113.1 64.8,111.0 70.6,109.6 76.5,108.7 82.3,106.5 88.1,105.5 93.9,104.4 99.7,103.7 105.5,102.8 111.3,101.3 117.1,99.8 122.9,98.6 128.7,97.7 134.5,97.2 140.3,96.2 146.1,95.1 151.9,94.1 157.7,93.6 163.5,92.6 169.4,89.2 175.2,88.2 181.0,86.8 186.8,85.5 192.6,84.3 198.4,83.2 204.2,82.4 210.0,81.9 215.8,80.9 221.6,79.3 227.4,77.8 233.2,76.9 239.0,75.7 244.8,75.4 250.6,75.1 256.5,74.5 262.3,73.4 268.1,72.8 273.9,72.3 279.7,71.1 285.5,69.2 291.3,68.8 297.1,68.4 302.9,67.7 308.7,66.3 314.5,65.3 320.3,63.8 326.1,62.7 331.9,61.4 337.7,61.1 343.5,60.3 349.4,58.9 355.2,57.5 361.0,56.5 366.8,56.0 372.6,55.3 378.4,54.7 384.2,53.2 390.0,51.8 395.8,50.5 401.6,49.2 407.4,48.6 413.2,48.2 419.0,47.6 424.8,46.6 430.6,45.9 436.5,45.3 442.3,44.8 448.1,44.4 453.9,43.6 459.7,43.1 465.5,42.8 471.3,42.4 477.1,41.1 482.9,40.3 488.7,40.0 494.5,39.5 500.3,39.3 506.1,39.3 511.9,62.3 517.7,60.1 523.5,58.0 529.4,55.9 535.2,49.6 541.0,45.2 546.8,40.5 552.6,38.7 558.4,36.8 564.2,33.5 570.0,30.0 570.0,30.0,120" />
  
  <!-- Linea principale -->
  <polyline fill="none" stroke="#0366d6" stroke-width="2.5" stroke-linecap="round" stroke-linejoin="round" points="30.0,120.0 35.8,118.2 41.6,116.2 47.4,114.5 53.2,114.1 59.0,113.1 64.8,111.0 70.6,109.6 76.5,108.7 82.3,106.5 88.1,105.5 93.9,104.4 99.7,103.7 105.5,102.8 111.3,101.3 117.1,99.8 122.9,98.6 128.7,97.7 134.5,97.2 140.3,96.2 146.1,95.1 151.9,94.1 157.7,93.6 163.5,92.6 169.4,89.2 175.2,88.2 181.0,86.8 186.8,85.5 192.6,84.3 198.4,83.2 204.2,82.4 210.0,81.9 215.8,80.9 221.6,79.3 227.4,77.8 233.2,76.9 239.0,75.7 244.8,75.4 250.6,75.1 256.5,74.5 262.3,73.4 268.1,72.8 273.9,72.3 279.7,71.1 285.5,69.2 291.3,68.8 297.1,68.4 302.9,67.7 308.7,66.3 314.5,65.3 320.3,63.8 326.1,62.7 331.9,61.4 337.7,61.1 343.5,60.3 349.4,58.9 355.2,57.5 361.0,56.5 366.8,56.0 372.6,55.3 378.4,54.7 384.2,53.2 390.0,51.8 395.8,50.5 401.6,49.2 407.4,48.6 413.2,48.2 419.0,47.6 424.8,46.6 430.6,45.9 436.5,45.3 442.3,44.8 448.1,44.4 453.9,43.6 459.7,43.1 465.5,42.8 471.3,42.4 477.1,41.1 482.9,40.3 488.7,40.0 494.5,39.5 500.3,39.3 506.1,39.3 511.9,62.3 517.7,60.1 523.5,58.0 529.4,55.9 535.2,49.6 541.0,45.2 546.8,40.5 552.6,38.7 558.4,36.8 564.2,33.5 570.0,30.0" />
  
  <!-- Punto finale luminoso -->
  <circle cx="570.0" cy="30.0" r="4" fill="#ffffff" stroke="#0366d6" stroke-width="2.5" />
</svg>