<svg width="600" height="150" viewBox="0 0 600 150" xmlns="http://www.w3.org/2000/svg">
  <defs>
    <filter id="shadow2" x="-2%" y="-2%" width="104%" height="108%">
      <feDropShadow dx="0" dy="2" stdDeviation="3" flood-opacity="0.1" />
    </filter>
    <linearGradient id="fillGrad" x1="0" y1="0" x2="0" y2="1">
      <stop offset="0%" stop-color="#0366d6" stop-opacity="0.3"/>
      <stop offset="100%" stop-color="#0366d6" stop-opacity="0.02"/>
    </linearGradient>
  </defs>
  <rect width="600" height="150" rx="12" fill="#ffffff" filter="url(#shadow2)" stroke="#e1e4e8" stroke-width="1"/>
  <text x="20" y="24" fill="#2b3137" font-family="-apple-system,BlinkMacSystemFont,'Segoe UI',Helvetica,Arial,sans-serif" font-size="14" font-weight="600">📈 Download Growth (Actual: 86.2k)</text>
  
  <!-- Area sotto la linea -->
  <polygon fill="url(#fillGrad)" points="30.0,120.0,120 30.0,120.0 31.4,119.5 32.8,118.9 34.3,118.4 35.7,118.3 37.1,118.0 38.5,117.4 40.0,117.0 41.4,116.7 42.8,116.1 44.2,115.8 45.7,115.5 47.1,115.3 48.5,115.0 49.9,114.6 51.4,114.2 52.8,113.8 54.2,113.6 55.6,113.4 57.1,113.2 58.5,112.8 59.9,112.5 61.3,112.4 62.8,112.1 64.2,111.1 65.6,110.8 67.0,110.5 68.5,110.1 69.9,109.7 71.3,109.4 72.7,109.2 74.2,109.0 75.6,108.8 77.0,108.3 78.4,107.9 79.9,107.6 81.3,107.3 82.7,107.2 84.1,107.1 85.6,106.9 87.0,106.6 88.4,106.4 89.8,106.3 91.3,105.9 92.7,105.4 94.1,105.3 95.5,105.2 97.0,105.0 98.4,104.5 99.8,104.3 101.2,103.8 102.7,103.5 104.1,103.1 105.5,103.1 106.9,102.8 108.4,102.4 109.8,102.0 111.2,101.7 112.6,101.6 114.1,101.4 115.5,101.2 116.9,100.8 118.3,100.4 119.8,100.0 121.2,99.6 122.6,99.5 124.0,99.3 125.5,99.2 126.9,98.9 128.3,98.7 129.7,98.5 131.2,98.4 132.6,98.2 134.0,98.0 135.4,97.9 136.9,97.8 138.3,97.7 139.7,97.3 141.1,97.1 142.6,97.0 144.0,96.8 145.4,96.8 146.8,96.8 148.3,103.4 149.7,102.8 151.1,102.2 152.5,101.6 154.0,99.7 155.4,98.5 156.8,97.1 158.2,96.6 159.7,96.0 161.1,95.1 162.5,94.1 163.9,93.4 165.4,93.1 166.8,92.8 168.2,92.1 169.6,91.6 171.1,91.2 172.5,90.8 173.9,90.6 175.3,90.5 176.8,90.2 178.2,89.5 179.6,89.1 181.0,88.6 182.5,88.1 183.9,87.9 185.3,87.7 186.7,87.3 188.2,86.9 189.6,86.5 191.0,86.3 192.4,86.1 193.9,86.0 195.3,85.8 196.7,85.5 198.1,85.2 199.6,85.0 201.0,84.8 202.4,84.6 203.8,84.4 205.3,84.2 206.7,84.1 208.1,83.9 209.5,83.6 210.9,83.3 212.4,83.0 213.8,82.9 215.2,82.7 216.6,82.5 218.1,82.4 219.5,82.2 220.9,81.7 222.3,81.4 223.8,81.0 225.2,80.9 226.6,80.8 228.0,80.6 229.5,80.4 230.9,80.2 232.3,79.9 233.7,79.6 235.2,79.4 236.6,79.4 238.0,79.2 239.4,79.1 240.9,78.9 242.3,78.7 243.7,78.6 245.1,78.3 246.6,78.2 248.0,78.1 249.4,77.9 250.8,77.8 252.3,77.6 253.7,77.4 255.1,77.2 256.5,77.0 258.0,76.7 259.4,76.6 260.8,76.5 262.2,76.3 263.7,76.1 265.1,75.8 266.5,75.6 267.9,75.4 269.4,75.0 270.8,74.9 272.2,74.8 273.6,74.7 275.1,74.5 276.5,74.4 277.9,74.2 279.3,74.0 280.8,73.8 282.2,73.7 283.6,73.5 285.0,73.4 286.5,73.3 287.9,73.2 289.3,72.9 290.7,72.8 292.2,72.6 293.6,72.5 295.0,72.3 296.4,72.2 297.9,72.1 299.3,71.9 300.7,71.8 302.1,71.5 303.6,71.2 305.0,71.0 306.4,70.8 307.8,70.8 309.3,70.7 310.7,70.5 312.1,70.2 313.5,70.1 315.0,70.0 316.4,69.8 317.8,69.7 319.2,69.5 320.7,69.4 322.1,69.2 323.5,69.0 324.9,68.8 326.4,68.6 327.8,68.4 329.2,68.3 330.6,68.3 332.1,68.2 333.5,68.0 334.9,67.9 336.3,67.7 337.8,67.6 339.2,67.4 340.6,67.3 342.0,67.1 343.5,67.0 344.9,66.9 346.3,66.7 347.7,66.4 349.2,66.3 350.6,66.1 352.0,66.0 353.4,65.9 354.9,65.8 356.3,65.7 357.7,65.6 359.1,65.5 360.6,65.2 362.0,65.1 363.4,64.9 364.8,64.8 366.3,64.7 367.7,64.6 369.1,64.4 370.5,64.3 372.0,64.1 373.4,64.0 374.8,63.8 376.2,63.7 377.7,63.5 379.1,63.4 380.5,63.4 381.9,63.2 383.4,63.1 384.8,63.0 386.2,62.9 387.6,62.8 389.1,62.7 390.5,62.4 391.9,62.2 393.3,66.5 394.7,65.7 396.2,64.0 397.6,63.4 399.0,62.6 400.4,61.7 401.9,61.2 403.3,60.8 404.7,60.2 406.1,59.3 407.6,58.6 409.0,58.3 410.4,58.0 411.8,57.7 413.3,57.2 414.7,56.8 416.1,56.2 417.5,56.0 419.0,55.5 420.4,55.3 421.8,54.9 423.2,54.7 424.7,54.5 426.1,54.2 427.5,53.8 428.9,53.4 430.4,53.0 431.8,52.4 433.2,52.1 434.6,51.9 436.1,51.7 437.5,51.5 438.9,51.1 440.3,50.7 441.8,50.4 443.2,49.6 444.6,48.9 446.0,48.5 447.5,48.4 448.9,48.1 450.3,47.6 451.7,47.2 453.2,46.9 454.6,46.6 456.0,46.3 457.4,46.0 458.9,45.7 460.3,45.3 461.7,45.1 463.1,44.9 464.6,44.7 466.0,44.3 467.4,44.1 468.8,43.8 470.3,43.7 471.7,43.5 473.1,43.2 474.5,43.1 476.0,42.9 477.4,42.7 478.8,42.5 480.2,42.4 481.7,42.1 483.1,41.9 484.5,41.6 485.9,41.2 487.4,40.9 488.8,40.8 490.2,40.6 491.6,40.4 493.1,40.2 494.5,40.0 495.9,39.9 497.3,39.8 498.8,39.6 500.2,39.4 501.6,39.3 503.0,39.0 504.5,38.9 505.9,38.7 507.3,38.5 508.7,38.1 510.2,37.8 511.6,37.6 513.0,37.4 514.4,37.1 515.9,36.9 517.3,36.7 518.7,36.4 520.1,36.2 521.6,36.1 523.0,36.0 524.4,35.8 525.8,35.5 527.3,35.4 528.7,35.2 530.1,35.0 531.5,34.8 533.0,34.6 534.4,34.3 535.8,34.1 537.2,33.8 538.7,33.6 540.1,33.4 541.5,33.3 542.9,33.1 544.4,33.0 545.8,32.8 547.2,32.6 548.6,32.3 550.1,32.2 551.5,32.1 552.9,31.9 554.3,31.7 555.8,31.6 557.2,31.4 558.6,31.3 560.0,31.2 561.5,31.0 562.9,30.9 564.3,30.7 565.7,30.5 567.2,30.4 568.6,30.2 570.0,30.0 570.0,30.0,120" />
  
  <!-- Linea principale -->
  <polyline fill="none" stroke="#0366d6" stroke-width="2.5" stroke-linecap="round" stroke-linejoin="round" points="30.0,120.0 31.4,119.5 32.8,118.9 34.3,118.4 35.7,118.3 37.1,118.0 38.5,117.4 40.0,117.0 41.4,116.7 42.8,116.1 44.2,115.8 45.7,115.5 47.1,115.3 48.5,115.0 49.9,114.6 51.4,114.2 52.8,113.8 54.2,113.6 55.6,113.4 57.1,113.2 58.5,112.8 59.9,112.5 61.3,112.4 62.8,112.1 64.2,111.1 65.6,110.8 67.0,110.5 68.5,110.1 69.9,109.7 71.3,109.4 72.7,109.2 74.2,109.0 75.6,108.8 77.0,108.3 78.4,107.9 79.9,107.6 81.3,107.3 82.7,107.2 84.1,107.1 85.6,106.9 87.0,106.6 88.4,106.4 89.8,106.3 91.3,105.9 92.7,105.4 94.1,105.3 95.5,105.2 97.0,105.0 98.4,104.5 99.8,104.3 101.2,103.8 102.7,103.5 104.1,103.1 105.5,103.1 106.9,102.8 108.4,102.4 109.8,102.0 111.2,101.7 112.6,101.6 114.1,101.4 115.5,101.2 116.9,100.8 118.3,100.4 119.8,100.0 121.2,99.6 122.6,99.5 124.0,99.3 125.5,99.2 126.9,98.9 128.3,98.7 129.7,98.5 131.2,98.4 132.6,98.2 134.0,98.0 135.4,97.9 136.9,97.8 138.3,97.7 139.7,97.3 141.1,97.1 142.6,97.0 144.0,96.8 145.4,96.8 146.8,96.8 148.3,103.4 149.7,102.8 151.1,102.2 152.5,101.6 154.0,99.7 155.4,98.5 156.8,97.1 158.2,96.6 159.7,96.0 161.1,95.1 162.5,94.1 163.9,93.4 165.4,93.1 166.8,92.8 168.2,92.1 169.6,91.6 171.1,91.2 172.5,90.8 173.9,90.6 175.3,90.5 176.8,90.2 178.2,89.5 179.6,89.1 181.0,88.6 182.5,88.1 183.9,87.9 185.3,87.7 186.7,87.3 188.2,86.9 189.6,86.5 191.0,86.3 192.4,86.1 193.9,86.0 195.3,85.8 196.7,85.5 198.1,85.2 199.6,85.0 201.0,84.8 202.4,84.6 203.8,84.4 205.3,84.2 206.7,84.1 208.1,83.9 209.5,83.6 210.9,83.3 212.4,83.0 213.8,82.9 215.2,82.7 216.6,82.5 218.1,82.4 219.5,82.2 220.9,81.7 222.3,81.4 223.8,81.0 225.2,80.9 226.6,80.8 228.0,80.6 229.5,80.4 230.9,80.2 232.3,79.9 233.7,79.6 235.2,79.4 236.6,79.4 238.0,79.2 239.4,79.1 240.9,78.9 242.3,78.7 243.7,78.6 245.1,78.3 246.6,78.2 248.0,78.1 249.4,77.9 250.8,77.8 252.3,77.6 253.7,77.4 255.1,77.2 256.5,77.0 258.0,76.7 259.4,76.6 260.8,76.5 262.2,76.3 263.7,76.1 265.1,75.8 266.5,75.6 267.9,75.4 269.4,75.0 270.8,74.9 272.2,74.8 273.6,74.7 275.1,74.5 276.5,74.4 277.9,74.2 279.3,74.0 280.8,73.8 282.2,73.7 283.6,73.5 285.0,73.4 286.5,73.3 287.9,73.2 289.3,72.9 290.7,72.8 292.2,72.6 293.6,72.5 295.0,72.3 296.4,72.2 297.9,72.1 299.3,71.9 300.7,71.8 302.1,71.5 303.6,71.2 305.0,71.0 306.4,70.8 307.8,70.8 309.3,70.7 310.7,70.5 312.1,70.2 313.5,70.1 315.0,70.0 316.4,69.8 317.8,69.7 319.2,69.5 320.7,69.4 322.1,69.2 323.5,69.0 324.9,68.8 326.4,68.6 327.8,68.4 329.2,68.3 330.6,68.3 332.1,68.2 333.5,68.0 334.9,67.9 336.3,67.7 337.8,67.6 339.2,67.4 340.6,67.3 342.0,67.1 343.5,67.0 344.9,66.9 346.3,66.7 347.7,66.4 349.2,66.3 350.6,66.1 352.0,66.0 353.4,65.9 354.9,65.8 356.3,65.7 357.7,65.6 359.1,65.5 360.6,65.2 362.0,65.1 363.4,64.9 364.8,64.8 366.3,64.7 367.7,64.6 369.1,64.4 370.5,64.3 372.0,64.1 373.4,64.0 374.8,63.8 376.2,63.7 377.7,63.5 379.1,63.4 380.5,63.4 381.9,63.2 383.4,63.1 384.8,63.0 386.2,62.9 387.6,62.8 389.1,62.7 390.5,62.4 391.9,62.2 393.3,66.5 394.7,65.7 396.2,64.0 397.6,63.4 399.0,62.6 400.4,61.7 401.9,61.2 403.3,60.8 404.7,60.2 406.1,59.3 407.6,58.6 409.0,58.3 410.4,58.0 411.8,57.7 413.3,57.2 414.7,56.8 416.1,56.2 417.5,56.0 419.0,55.5 420.4,55.3 421.8,54.9 423.2,54.7 424.7,54.5 426.1,54.2 427.5,53.8 428.9,53.4 430.4,53.0 431.8,52.4 433.2,52.1 434.6,51.9 436.1,51.7 437.5,51.5 438.9,51.1 440.3,50.7 441.8,50.4 443.2,49.6 444.6,48.9 446.0,48.5 447.5,48.4 448.9,48.1 450.3,47.6 451.7,47.2 453.2,46.9 454.6,46.6 456.0,46.3 457.4,46.0 458.9,45.7 460.3,45.3 461.7,45.1 463.1,44.9 464.6,44.7 466.0,44.3 467.4,44.1 468.8,43.8 470.3,43.7 471.7,43.5 473.1,43.2 474.5,43.1 476.0,42.9 477.4,42.7 478.8,42.5 480.2,42.4 481.7,42.1 483.1,41.9 484.5,41.6 485.9,41.2 487.4,40.9 488.8,40.8 490.2,40.6 491.6,40.4 493.1,40.2 494.5,40.0 495.9,39.9 497.3,39.8 498.8,39.6 500.2,39.4 501.6,39.3 503.0,39.0 504.5,38.9 505.9,38.7 507.3,38.5 508.7,38.1 510.2,37.8 511.6,37.6 513.0,37.4 514.4,37.1 515.9,36.9 517.3,36.7 518.7,36.4 520.1,36.2 521.6,36.1 523.0,36.0 524.4,35.8 525.8,35.5 527.3,35.4 528.7,35.2 530.1,35.0 531.5,34.8 533.0,34.6 534.4,34.3 535.8,34.1 537.2,33.8 538.7,33.6 540.1,33.4 541.5,33.3 542.9,33.1 544.4,33.0 545.8,32.8 547.2,32.6 548.6,32.3 550.1,32.2 551.5,32.1 552.9,31.9 554.3,31.7 555.8,31.6 557.2,31.4 558.6,31.3 560.0,31.2 561.5,31.0 562.9,30.9 564.3,30.7 565.7,30.5 567.2,30.4 568.6,30.2 570.0,30.0" />
  
  <!-- Punto finale luminoso -->
  <circle cx="570.0" cy="30.0" r="4" fill="#ffffff" stroke="#0366d6" stroke-width="2.5" />
</svg>