<svg width="600" height="150" viewBox="0 0 600 150" xmlns="http://www.w3.org/2000/svg">
  <defs>
    <filter id="shadow2" x="-2%" y="-2%" width="104%" height="108%">
      <feDropShadow dx="0" dy="2" stdDeviation="3" flood-opacity="0.1" />
    </filter>
    <linearGradient id="fillGrad" x1="0" y1="0" x2="0" y2="1">
      <stop offset="0%" stop-color="#0366d6" stop-opacity="0.3"/>
      <stop offset="100%" stop-color="#0366d6" stop-opacity="0.02"/>
    </linearGradient>
  </defs>
  <rect width="600" height="150" rx="12" fill="#ffffff" filter="url(#shadow2)" stroke="#e1e4e8" stroke-width="1"/>
  <text x="20" y="24" fill="#2b3137" font-family="-apple-system,BlinkMacSystemFont,'Segoe UI',Helvetica,Arial,sans-serif" font-size="14" font-weight="600">📈 Download Growth (Actual: 87.6k)</text>
  
  <!-- Area sotto la linea -->
  <polygon fill="url(#fillGrad)" points="30.0,120.0,120 30.0,120.0 31.3,119.5 32.6,119.0 33.9,118.5 35.2,118.4 36.5,118.2 37.8,117.6 39.1,117.2 40.4,117.0 41.7,116.4 43.0,116.1 44.3,115.8 45.7,115.6 47.0,115.4 48.3,115.0 49.6,114.6 50.9,114.2 52.2,114.0 53.5,113.9 54.8,113.6 56.1,113.3 57.4,113.0 58.7,112.9 60.0,112.6 61.3,111.7 62.6,111.5 63.9,111.1 65.2,110.7 66.5,110.4 67.8,110.1 69.1,109.9 70.4,109.8 71.7,109.5 73.0,109.1 74.3,108.7 75.7,108.4 77.0,108.1 78.3,108.0 79.6,107.9 80.9,107.8 82.2,107.5 83.5,107.3 84.8,107.2 86.1,106.9 87.4,106.4 88.7,106.3 90.0,106.2 91.3,106.0 92.6,105.6 93.9,105.3 95.2,104.9 96.5,104.6 97.8,104.3 99.1,104.2 100.4,104.0 101.7,103.6 103.0,103.2 104.3,103.0 105.7,102.8 107.0,102.6 108.3,102.5 109.6,102.1 110.9,101.7 112.2,101.3 113.5,101.0 114.8,100.8 116.1,100.7 117.4,100.6 118.7,100.3 120.0,100.1 121.3,100.0 122.6,99.8 123.9,99.7 125.2,99.5 126.5,99.4 127.8,99.3 129.1,99.2 130.4,98.8 131.7,98.6 133.0,98.5 134.3,98.4 135.7,98.3 137.0,98.3 138.3,104.5 139.6,103.9 140.9,103.4 142.2,102.8 143.5,101.1 144.8,99.9 146.1,98.7 147.4,98.2 148.7,97.7 150.0,96.8 151.3,95.8 152.6,95.1 153.9,94.9 155.2,94.6 156.5,94.0 157.8,93.5 159.1,93.1 160.4,92.7 161.7,92.6 163.0,92.5 164.3,92.2 165.7,91.6 167.0,91.2 168.3,90.7 169.6,90.3 170.9,90.1 172.2,89.9 173.5,89.5 174.8,89.1 176.1,88.8 177.4,88.5 178.7,88.4 180.0,88.3 181.3,88.1 182.6,87.8 183.9,87.6 185.2,87.3 186.5,87.2 187.8,87.0 189.1,86.8 190.4,86.6 191.7,86.5 193.0,86.3 194.3,86.0 195.7,85.8 197.0,85.5 198.3,85.3 199.6,85.2 200.9,85.0 202.2,84.9 203.5,84.7 204.8,84.3 206.1,84.0 207.4,83.6 208.7,83.5 210.0,83.4 211.3,83.3 212.6,83.1 213.9,82.8 215.2,82.6 216.5,82.3 217.8,82.2 219.1,82.1 220.4,81.9 221.7,81.8 223.0,81.7 224.3,81.5 225.7,81.4 227.0,81.1 228.3,81.0 229.6,80.9 230.9,80.7 232.2,80.7 233.5,80.4 234.8,80.2 236.1,80.0 237.4,79.8 238.7,79.6 240.0,79.5 241.3,79.4 242.6,79.3 243.9,79.0 245.2,78.7 246.5,78.6 247.8,78.4 249.1,78.0 250.4,77.9 251.7,77.8 253.0,77.7 254.3,77.6 255.7,77.4 257.0,77.2 258.3,77.1 259.6,76.9 260.9,76.8 262.2,76.7 263.5,76.5 264.8,76.5 266.1,76.3 267.4,76.0 268.7,75.9 270.0,75.7 271.3,75.6 272.6,75.5 273.9,75.4 275.2,75.3 276.5,75.2 277.8,75.0 279.1,74.7 280.4,74.4 281.7,74.3 283.0,74.1 284.3,74.1 285.7,74.0 287.0,73.8 288.3,73.6 289.6,73.4 290.9,73.3 292.2,73.2 293.5,73.0 294.8,72.8 296.1,72.7 297.4,72.6 298.7,72.4 300.0,72.3 301.3,72.1 302.6,71.9 303.9,71.8 305.2,71.7 306.5,71.7 307.8,71.5 309.1,71.4 310.4,71.2 311.7,71.1 313.0,70.9 314.3,70.8 315.7,70.7 317.0,70.6 318.3,70.4 319.6,70.2 320.9,70.0 322.2,69.9 323.5,69.7 324.8,69.6 326.1,69.5 327.4,69.4 328.7,69.4 330.0,69.3 331.3,69.1 332.6,68.9 333.9,68.8 335.2,68.6 336.5,68.5 337.8,68.4 339.1,68.3 340.4,68.1 341.7,68.0 343.0,67.9 344.3,67.8 345.7,67.6 347.0,67.5 348.3,67.3 349.6,67.2 350.9,67.2 352.2,67.0 353.5,66.9 354.8,66.8 356.1,66.7 357.4,66.7 358.7,66.5 360.0,66.2 361.3,66.0 362.6,70.1 363.9,69.3 365.2,67.8 366.5,67.2 367.8,66.5 369.1,65.6 370.4,65.1 371.7,64.8 373.0,64.2 374.3,63.3 375.7,62.7 377.0,62.5 378.3,62.2 379.6,61.9 380.9,61.4 382.2,61.0 383.5,60.5 384.8,60.3 386.1,59.8 387.4,59.6 388.7,59.3 390.0,59.1 391.3,58.9 392.6,58.6 393.9,58.2 395.2,57.9 396.5,57.5 397.8,56.9 399.1,56.6 400.4,56.4 401.7,56.3 403.0,56.0 404.3,55.7 405.7,55.4 407.0,55.1 408.3,54.3 409.6,53.6 410.9,53.3 412.2,53.2 413.5,52.9 414.8,52.5 416.1,52.1 417.4,51.8 418.7,51.5 420.0,51.2 421.3,51.0 422.6,50.7 423.9,50.3 425.2,50.1 426.5,49.9 427.8,49.8 429.1,49.4 430.4,49.1 431.7,48.9 433.0,48.8 434.3,48.6 435.7,48.4 437.0,48.2 438.3,48.1 439.6,47.9 440.9,47.7 442.2,47.6 443.5,47.3 444.8,47.1 446.1,46.8 447.4,46.5 448.7,46.2 450.0,46.1 451.3,45.9 452.6,45.7 453.9,45.6 455.2,45.4 456.5,45.2 457.8,45.1 459.1,45.0 460.4,44.8 461.7,44.7 463.0,44.4 464.3,44.3 465.7,44.1 467.0,43.9 468.3,43.6 469.6,43.3 470.9,43.1 472.2,42.9 473.5,42.7 474.8,42.5 476.1,42.3 477.4,42.0 478.7,41.8 480.0,41.8 481.3,41.6 482.6,41.4 483.9,41.2 485.2,41.0 486.5,40.9 487.8,40.7 489.1,40.5 490.4,40.3 491.7,40.0 493.0,39.9 494.3,39.6 495.7,39.4 497.0,39.2 498.3,39.1 499.6,38.9 500.9,38.8 502.2,38.6 503.5,38.4 504.8,38.2 506.1,38.1 507.4,37.9 508.7,37.8 510.0,37.6 511.3,37.5 512.6,37.4 513.9,37.2 515.2,37.1 516.5,37.0 517.8,36.8 519.1,36.7 520.4,36.5 521.7,36.4 523.0,36.2 524.3,36.0 525.7,35.8 527.0,35.7 528.3,35.6 529.6,35.4 530.9,35.2 532.2,35.0 533.5,34.7 534.8,34.7 536.1,34.6 537.4,34.5 538.7,34.3 540.0,34.2 541.3,34.0 542.6,33.7 543.9,33.6 545.2,33.4 546.5,33.3 547.8,33.2 549.1,33.0 550.4,32.8 551.7,32.6 553.0,32.4 554.3,32.3 555.7,32.0 557.0,31.8 558.3,31.6 559.6,31.4 560.9,31.3 562.2,31.1 563.5,30.8 564.8,30.6 566.1,30.5 567.4,30.4 568.7,30.2 570.0,30.0 570.0,30.0,120" />
  
  <!-- Linea principale -->
  <polyline fill="none" stroke="#0366d6" stroke-width="2.5" stroke-linecap="round" stroke-linejoin="round" points="30.0,120.0 31.3,119.5 32.6,119.0 33.9,118.5 35.2,118.4 36.5,118.2 37.8,117.6 39.1,117.2 40.4,117.0 41.7,116.4 43.0,116.1 44.3,115.8 45.7,115.6 47.0,115.4 48.3,115.0 49.6,114.6 50.9,114.2 52.2,114.0 53.5,113.9 54.8,113.6 56.1,113.3 57.4,113.0 58.7,112.9 60.0,112.6 61.3,111.7 62.6,111.5 63.9,111.1 65.2,110.7 66.5,110.4 67.8,110.1 69.1,109.9 70.4,109.8 71.7,109.5 73.0,109.1 74.3,108.7 75.7,108.4 77.0,108.1 78.3,108.0 79.6,107.9 80.9,107.8 82.2,107.5 83.5,107.3 84.8,107.2 86.1,106.9 87.4,106.4 88.7,106.3 90.0,106.2 91.3,106.0 92.6,105.6 93.9,105.3 95.2,104.9 96.5,104.6 97.8,104.3 99.1,104.2 100.4,104.0 101.7,103.6 103.0,103.2 104.3,103.0 105.7,102.8 107.0,102.6 108.3,102.5 109.6,102.1 110.9,101.7 112.2,101.3 113.5,101.0 114.8,100.8 116.1,100.7 117.4,100.6 118.7,100.3 120.0,100.1 121.3,100.0 122.6,99.8 123.9,99.7 125.2,99.5 126.5,99.4 127.8,99.3 129.1,99.2 130.4,98.8 131.7,98.6 133.0,98.5 134.3,98.4 135.7,98.3 137.0,98.3 138.3,104.5 139.6,103.9 140.9,103.4 142.2,102.8 143.5,101.1 144.8,99.9 146.1,98.7 147.4,98.2 148.7,97.7 150.0,96.8 151.3,95.8 152.6,95.1 153.9,94.9 155.2,94.6 156.5,94.0 157.8,93.5 159.1,93.1 160.4,92.7 161.7,92.6 163.0,92.5 164.3,92.2 165.7,91.6 167.0,91.2 168.3,90.7 169.6,90.3 170.9,90.1 172.2,89.9 173.5,89.5 174.8,89.1 176.1,88.8 177.4,88.5 178.7,88.4 180.0,88.3 181.3,88.1 182.6,87.8 183.9,87.6 185.2,87.3 186.5,87.2 187.8,87.0 189.1,86.8 190.4,86.6 191.7,86.5 193.0,86.3 194.3,86.0 195.7,85.8 197.0,85.5 198.3,85.3 199.6,85.2 200.9,85.0 202.2,84.9 203.5,84.7 204.8,84.3 206.1,84.0 207.4,83.6 208.7,83.5 210.0,83.4 211.3,83.3 212.6,83.1 213.9,82.8 215.2,82.6 216.5,82.3 217.8,82.2 219.1,82.1 220.4,81.9 221.7,81.8 223.0,81.7 224.3,81.5 225.7,81.4 227.0,81.1 228.3,81.0 229.6,80.9 230.9,80.7 232.2,80.7 233.5,80.4 234.8,80.2 236.1,80.0 237.4,79.8 238.7,79.6 240.0,79.5 241.3,79.4 242.6,79.3 243.9,79.0 245.2,78.7 246.5,78.6 247.8,78.4 249.1,78.0 250.4,77.9 251.7,77.8 253.0,77.7 254.3,77.6 255.7,77.4 257.0,77.2 258.3,77.1 259.6,76.9 260.9,76.8 262.2,76.7 263.5,76.5 264.8,76.5 266.1,76.3 267.4,76.0 268.7,75.9 270.0,75.7 271.3,75.6 272.6,75.5 273.9,75.4 275.2,75.3 276.5,75.2 277.8,75.0 279.1,74.7 280.4,74.4 281.7,74.3 283.0,74.1 284.3,74.1 285.7,74.0 287.0,73.8 288.3,73.6 289.6,73.4 290.9,73.3 292.2,73.2 293.5,73.0 294.8,72.8 296.1,72.7 297.4,72.6 298.7,72.4 300.0,72.3 301.3,72.1 302.6,71.9 303.9,71.8 305.2,71.7 306.5,71.7 307.8,71.5 309.1,71.4 310.4,71.2 311.7,71.1 313.0,70.9 314.3,70.8 315.7,70.7 317.0,70.6 318.3,70.4 319.6,70.2 320.9,70.0 322.2,69.9 323.5,69.7 324.8,69.6 326.1,69.5 327.4,69.4 328.7,69.4 330.0,69.3 331.3,69.1 332.6,68.9 333.9,68.8 335.2,68.6 336.5,68.5 337.8,68.4 339.1,68.3 340.4,68.1 341.7,68.0 343.0,67.9 344.3,67.8 345.7,67.6 347.0,67.5 348.3,67.3 349.6,67.2 350.9,67.2 352.2,67.0 353.5,66.9 354.8,66.8 356.1,66.7 357.4,66.7 358.7,66.5 360.0,66.2 361.3,66.0 362.6,70.1 363.9,69.3 365.2,67.8 366.5,67.2 367.8,66.5 369.1,65.6 370.4,65.1 371.7,64.8 373.0,64.2 374.3,63.3 375.7,62.7 377.0,62.5 378.3,62.2 379.6,61.9 380.9,61.4 382.2,61.0 383.5,60.5 384.8,60.3 386.1,59.8 387.4,59.6 388.7,59.3 390.0,59.1 391.3,58.9 392.6,58.6 393.9,58.2 395.2,57.9 396.5,57.5 397.8,56.9 399.1,56.6 400.4,56.4 401.7,56.3 403.0,56.0 404.3,55.7 405.7,55.4 407.0,55.1 408.3,54.3 409.6,53.6 410.9,53.3 412.2,53.2 413.5,52.9 414.8,52.5 416.1,52.1 417.4,51.8 418.7,51.5 420.0,51.2 421.3,51.0 422.6,50.7 423.9,50.3 425.2,50.1 426.5,49.9 427.8,49.8 429.1,49.4 430.4,49.1 431.7,48.9 433.0,48.8 434.3,48.6 435.7,48.4 437.0,48.2 438.3,48.1 439.6,47.9 440.9,47.7 442.2,47.6 443.5,47.3 444.8,47.1 446.1,46.8 447.4,46.5 448.7,46.2 450.0,46.1 451.3,45.9 452.6,45.7 453.9,45.6 455.2,45.4 456.5,45.2 457.8,45.1 459.1,45.0 460.4,44.8 461.7,44.7 463.0,44.4 464.3,44.3 465.7,44.1 467.0,43.9 468.3,43.6 469.6,43.3 470.9,43.1 472.2,42.9 473.5,42.7 474.8,42.5 476.1,42.3 477.4,42.0 478.7,41.8 480.0,41.8 481.3,41.6 482.6,41.4 483.9,41.2 485.2,41.0 486.5,40.9 487.8,40.7 489.1,40.5 490.4,40.3 491.7,40.0 493.0,39.9 494.3,39.6 495.7,39.4 497.0,39.2 498.3,39.1 499.6,38.9 500.9,38.8 502.2,38.6 503.5,38.4 504.8,38.2 506.1,38.1 507.4,37.9 508.7,37.8 510.0,37.6 511.3,37.5 512.6,37.4 513.9,37.2 515.2,37.1 516.5,37.0 517.8,36.8 519.1,36.7 520.4,36.5 521.7,36.4 523.0,36.2 524.3,36.0 525.7,35.8 527.0,35.7 528.3,35.6 529.6,35.4 530.9,35.2 532.2,35.0 533.5,34.7 534.8,34.7 536.1,34.6 537.4,34.5 538.7,34.3 540.0,34.2 541.3,34.0 542.6,33.7 543.9,33.6 545.2,33.4 546.5,33.3 547.8,33.2 549.1,33.0 550.4,32.8 551.7,32.6 553.0,32.4 554.3,32.3 555.7,32.0 557.0,31.8 558.3,31.6 559.6,31.4 560.9,31.3 562.2,31.1 563.5,30.8 564.8,30.6 566.1,30.5 567.4,30.4 568.7,30.2 570.0,30.0" />
  
  <!-- Punto finale luminoso -->
  <circle cx="570.0" cy="30.0" r="4" fill="#ffffff" stroke="#0366d6" stroke-width="2.5" />
</svg>