<svg width="600" height="150" viewBox="0 0 600 150" xmlns="http://www.w3.org/2000/svg">
  <defs>
    <filter id="shadow2" x="-2%" y="-2%" width="104%" height="108%">
      <feDropShadow dx="0" dy="2" stdDeviation="3" flood-opacity="0.1" />
    </filter>
    <linearGradient id="fillGrad" x1="0" y1="0" x2="0" y2="1">
      <stop offset="0%" stop-color="#0366d6" stop-opacity="0.3"/>
      <stop offset="100%" stop-color="#0366d6" stop-opacity="0.02"/>
    </linearGradient>
  </defs>
  <rect width="600" height="150" rx="12" fill="#ffffff" filter="url(#shadow2)" stroke="#e1e4e8" stroke-width="1"/>
  <text x="20" y="24" fill="#2b3137" font-family="-apple-system,BlinkMacSystemFont,'Segoe UI',Helvetica,Arial,sans-serif" font-size="14" font-weight="600">📈 Download Growth (Actual: 87.1k)</text>
  
  <!-- Area sotto la linea -->
  <polygon fill="url(#fillGrad)" points="30.0,120.0,120 30.0,120.0 31.3,119.5 32.7,119.0 34.0,118.5 35.4,118.4 36.7,118.1 38.0,117.5 39.4,117.2 40.7,116.9 42.1,116.3 43.4,116.0 44.7,115.7 46.1,115.5 47.4,115.3 48.8,114.9 50.1,114.4 51.4,114.1 52.8,113.9 54.1,113.7 55.5,113.5 56.8,113.2 58.1,112.9 59.5,112.7 60.8,112.5 62.2,111.5 63.5,111.3 64.8,110.9 66.2,110.5 67.5,110.2 68.9,109.9 70.2,109.7 71.5,109.5 72.9,109.3 74.2,108.8 75.6,108.4 76.9,108.2 78.2,107.8 79.6,107.8 80.9,107.7 82.3,107.5 83.6,107.2 84.9,107.0 86.3,106.9 87.6,106.6 89.0,106.1 90.3,105.9 91.6,105.8 93.0,105.6 94.3,105.2 95.7,105.0 97.0,104.6 98.3,104.3 99.7,103.9 101.0,103.8 102.4,103.6 103.7,103.2 105.0,102.8 106.4,102.6 107.7,102.4 109.1,102.2 110.4,102.1 111.7,101.7 113.1,101.3 114.4,100.9 115.8,100.6 117.1,100.4 118.4,100.3 119.8,100.1 121.1,99.8 122.5,99.7 123.8,99.5 125.1,99.4 126.5,99.2 127.8,99.0 129.2,98.9 130.5,98.8 131.8,98.7 133.2,98.3 134.5,98.1 135.9,98.0 137.2,97.9 138.5,97.8 139.9,97.8 141.2,104.2 142.6,103.5 143.9,103.0 145.2,102.4 146.6,100.7 147.9,99.5 149.3,98.2 150.6,97.7 151.9,97.1 153.3,96.3 154.6,95.3 156.0,94.6 157.3,94.3 158.6,94.1 160.0,93.4 161.3,92.9 162.7,92.5 164.0,92.1 165.3,92.0 166.7,91.9 168.0,91.5 169.4,90.9 170.7,90.5 172.0,90.1 173.4,89.6 174.7,89.4 176.1,89.2 177.4,88.8 178.7,88.4 180.1,88.1 181.4,87.8 182.8,87.7 184.1,87.6 185.4,87.4 186.8,87.1 188.1,86.8 189.5,86.6 190.8,86.4 192.1,86.2 193.5,86.0 194.8,85.9 196.2,85.7 197.5,85.6 198.8,85.2 200.2,85.0 201.5,84.7 202.9,84.6 204.2,84.4 205.5,84.2 206.9,84.1 208.2,83.9 209.6,83.5 210.9,83.2 212.2,82.8 213.6,82.6 214.9,82.6 216.3,82.4 217.6,82.2 218.9,82.0 220.3,81.8 221.6,81.5 223.0,81.3 224.3,81.2 225.6,81.1 227.0,80.9 228.3,80.8 229.7,80.6 231.0,80.5 232.3,80.2 233.7,80.1 235.0,80.0 236.4,79.8 237.7,79.8 239.0,79.5 240.4,79.3 241.7,79.1 243.1,78.9 244.4,78.7 245.7,78.6 247.1,78.5 248.4,78.3 249.8,78.1 251.1,77.8 252.4,77.6 253.8,77.4 255.1,77.1 256.5,77.0 257.8,76.9 259.1,76.8 260.5,76.6 261.8,76.4 263.2,76.2 264.5,76.1 265.8,75.9 267.2,75.8 268.5,75.7 269.9,75.5 271.2,75.5 272.5,75.3 273.9,75.0 275.2,74.9 276.6,74.7 277.9,74.6 279.2,74.5 280.6,74.3 281.9,74.2 283.3,74.1 284.6,74.0 285.9,73.7 287.3,73.4 288.6,73.2 290.0,73.1 291.3,73.0 292.6,72.9 294.0,72.8 295.3,72.5 296.7,72.4 298.0,72.3 299.3,72.1 300.7,71.9 302.0,71.8 303.3,71.7 304.7,71.6 306.0,71.3 307.4,71.2 308.7,71.0 310.0,70.8 311.4,70.7 312.7,70.6 314.1,70.6 315.4,70.4 316.7,70.3 318.1,70.1 319.4,69.9 320.8,69.8 322.1,69.7 323.4,69.6 324.8,69.4 326.1,69.3 327.5,69.1 328.8,68.9 330.1,68.7 331.5,68.6 332.8,68.5 334.2,68.4 335.5,68.3 336.8,68.2 338.2,68.1 339.5,68.0 340.9,67.7 342.2,67.6 343.5,67.4 344.9,67.4 346.2,67.2 347.6,67.1 348.9,66.9 350.2,66.8 351.6,66.7 352.9,66.6 354.3,66.4 355.6,66.3 356.9,66.1 358.3,66.0 359.6,65.9 361.0,65.8 362.3,65.7 363.6,65.6 365.0,65.5 366.3,65.4 367.7,65.3 369.0,65.0 370.3,64.8 371.7,68.9 373.0,68.1 374.4,66.6 375.7,66.0 377.0,65.2 378.4,64.3 379.7,63.9 381.1,63.5 382.4,62.9 383.7,62.0 385.1,61.4 386.4,61.2 387.8,60.8 389.1,60.5 390.4,60.1 391.8,59.6 393.1,59.1 394.5,58.9 395.8,58.4 397.1,58.2 398.5,57.9 399.8,57.7 401.2,57.5 402.5,57.2 403.8,56.8 405.2,56.5 406.5,56.1 407.9,55.5 409.2,55.2 410.5,55.0 411.9,54.8 413.2,54.6 414.6,54.2 415.9,53.9 417.2,53.6 418.6,52.8 419.9,52.1 421.3,51.8 422.6,51.6 423.9,51.3 425.3,50.9 426.6,50.5 428.0,50.3 429.3,50.0 430.6,49.7 432.0,49.4 433.3,49.1 434.7,48.7 436.0,48.5 437.3,48.3 438.7,48.1 440.0,47.8 441.4,47.5 442.7,47.3 444.0,47.2 445.4,47.0 446.7,46.7 448.1,46.6 449.4,46.4 450.7,46.2 452.1,46.1 453.4,45.9 454.8,45.6 456.1,45.5 457.4,45.1 458.8,44.8 460.1,44.5 461.5,44.4 462.8,44.2 464.1,44.0 465.5,43.9 466.8,43.7 468.2,43.5 469.5,43.4 470.8,43.3 472.2,43.1 473.5,43.0 474.9,42.7 476.2,42.6 477.5,42.4 478.9,42.2 480.2,41.9 481.6,41.5 482.9,41.3 484.2,41.1 485.6,40.9 486.9,40.7 488.3,40.5 489.6,40.2 490.9,40.1 492.3,40.0 493.6,39.8 495.0,39.6 496.3,39.4 497.6,39.2 499.0,39.1 500.3,38.9 501.7,38.6 503.0,38.5 504.3,38.2 505.7,38.0 507.0,37.8 508.4,37.5 509.7,37.4 511.0,37.2 512.4,37.1 513.7,36.9 515.1,36.7 516.4,36.5 517.7,36.3 519.1,36.2 520.4,36.1 521.8,35.9 523.1,35.7 524.4,35.6 525.8,35.5 527.1,35.3 528.5,35.2 529.8,35.1 531.1,34.9 532.5,34.7 533.8,34.6 535.2,34.5 536.5,34.3 537.8,34.1 539.2,33.9 540.5,33.8 541.9,33.6 543.2,33.5 544.5,33.2 545.9,33.1 547.2,32.8 548.6,32.7 549.9,32.6 551.2,32.5 552.6,32.3 553.9,32.2 555.3,32.0 556.6,31.7 557.9,31.6 559.3,31.4 560.6,31.3 562.0,31.2 563.3,31.0 564.6,30.8 566.0,30.6 567.3,30.4 568.7,30.3 570.0,30.0 570.0,30.0,120" />
  
  <!-- Linea principale -->
  <polyline fill="none" stroke="#0366d6" stroke-width="2.5" stroke-linecap="round" stroke-linejoin="round" points="30.0,120.0 31.3,119.5 32.7,119.0 34.0,118.5 35.4,118.4 36.7,118.1 38.0,117.5 39.4,117.2 40.7,116.9 42.1,116.3 43.4,116.0 44.7,115.7 46.1,115.5 47.4,115.3 48.8,114.9 50.1,114.4 51.4,114.1 52.8,113.9 54.1,113.7 55.5,113.5 56.8,113.2 58.1,112.9 59.5,112.7 60.8,112.5 62.2,111.5 63.5,111.3 64.8,110.9 66.2,110.5 67.5,110.2 68.9,109.9 70.2,109.7 71.5,109.5 72.9,109.3 74.2,108.8 75.6,108.4 76.9,108.2 78.2,107.8 79.6,107.8 80.9,107.7 82.3,107.5 83.6,107.2 84.9,107.0 86.3,106.9 87.6,106.6 89.0,106.1 90.3,105.9 91.6,105.8 93.0,105.6 94.3,105.2 95.7,105.0 97.0,104.6 98.3,104.3 99.7,103.9 101.0,103.8 102.4,103.6 103.7,103.2 105.0,102.8 106.4,102.6 107.7,102.4 109.1,102.2 110.4,102.1 111.7,101.7 113.1,101.3 114.4,100.9 115.8,100.6 117.1,100.4 118.4,100.3 119.8,100.1 121.1,99.8 122.5,99.7 123.8,99.5 125.1,99.4 126.5,99.2 127.8,99.0 129.2,98.9 130.5,98.8 131.8,98.7 133.2,98.3 134.5,98.1 135.9,98.0 137.2,97.9 138.5,97.8 139.9,97.8 141.2,104.2 142.6,103.5 143.9,103.0 145.2,102.4 146.6,100.7 147.9,99.5 149.3,98.2 150.6,97.7 151.9,97.1 153.3,96.3 154.6,95.3 156.0,94.6 157.3,94.3 158.6,94.1 160.0,93.4 161.3,92.9 162.7,92.5 164.0,92.1 165.3,92.0 166.7,91.9 168.0,91.5 169.4,90.9 170.7,90.5 172.0,90.1 173.4,89.6 174.7,89.4 176.1,89.2 177.4,88.8 178.7,88.4 180.1,88.1 181.4,87.8 182.8,87.7 184.1,87.6 185.4,87.4 186.8,87.1 188.1,86.8 189.5,86.6 190.8,86.4 192.1,86.2 193.5,86.0 194.8,85.9 196.2,85.7 197.5,85.6 198.8,85.2 200.2,85.0 201.5,84.7 202.9,84.6 204.2,84.4 205.5,84.2 206.9,84.1 208.2,83.9 209.6,83.5 210.9,83.2 212.2,82.8 213.6,82.6 214.9,82.6 216.3,82.4 217.6,82.2 218.9,82.0 220.3,81.8 221.6,81.5 223.0,81.3 224.3,81.2 225.6,81.1 227.0,80.9 228.3,80.8 229.7,80.6 231.0,80.5 232.3,80.2 233.7,80.1 235.0,80.0 236.4,79.8 237.7,79.8 239.0,79.5 240.4,79.3 241.7,79.1 243.1,78.9 244.4,78.7 245.7,78.6 247.1,78.5 248.4,78.3 249.8,78.1 251.1,77.8 252.4,77.6 253.8,77.4 255.1,77.1 256.5,77.0 257.8,76.9 259.1,76.8 260.5,76.6 261.8,76.4 263.2,76.2 264.5,76.1 265.8,75.9 267.2,75.8 268.5,75.7 269.9,75.5 271.2,75.5 272.5,75.3 273.9,75.0 275.2,74.9 276.6,74.7 277.9,74.6 279.2,74.5 280.6,74.3 281.9,74.2 283.3,74.1 284.6,74.0 285.9,73.7 287.3,73.4 288.6,73.2 290.0,73.1 291.3,73.0 292.6,72.9 294.0,72.8 295.3,72.5 296.7,72.4 298.0,72.3 299.3,72.1 300.7,71.9 302.0,71.8 303.3,71.7 304.7,71.6 306.0,71.3 307.4,71.2 308.7,71.0 310.0,70.8 311.4,70.7 312.7,70.6 314.1,70.6 315.4,70.4 316.7,70.3 318.1,70.1 319.4,69.9 320.8,69.8 322.1,69.7 323.4,69.6 324.8,69.4 326.1,69.3 327.5,69.1 328.8,68.9 330.1,68.7 331.5,68.6 332.8,68.5 334.2,68.4 335.5,68.3 336.8,68.2 338.2,68.1 339.5,68.0 340.9,67.7 342.2,67.6 343.5,67.4 344.9,67.4 346.2,67.2 347.6,67.1 348.9,66.9 350.2,66.8 351.6,66.7 352.9,66.6 354.3,66.4 355.6,66.3 356.9,66.1 358.3,66.0 359.6,65.9 361.0,65.8 362.3,65.7 363.6,65.6 365.0,65.5 366.3,65.4 367.7,65.3 369.0,65.0 370.3,64.8 371.7,68.9 373.0,68.1 374.4,66.6 375.7,66.0 377.0,65.2 378.4,64.3 379.7,63.9 381.1,63.5 382.4,62.9 383.7,62.0 385.1,61.4 386.4,61.2 387.8,60.8 389.1,60.5 390.4,60.1 391.8,59.6 393.1,59.1 394.5,58.9 395.8,58.4 397.1,58.2 398.5,57.9 399.8,57.7 401.2,57.5 402.5,57.2 403.8,56.8 405.2,56.5 406.5,56.1 407.9,55.5 409.2,55.2 410.5,55.0 411.9,54.8 413.2,54.6 414.6,54.2 415.9,53.9 417.2,53.6 418.6,52.8 419.9,52.1 421.3,51.8 422.6,51.6 423.9,51.3 425.3,50.9 426.6,50.5 428.0,50.3 429.3,50.0 430.6,49.7 432.0,49.4 433.3,49.1 434.7,48.7 436.0,48.5 437.3,48.3 438.7,48.1 440.0,47.8 441.4,47.5 442.7,47.3 444.0,47.2 445.4,47.0 446.7,46.7 448.1,46.6 449.4,46.4 450.7,46.2 452.1,46.1 453.4,45.9 454.8,45.6 456.1,45.5 457.4,45.1 458.8,44.8 460.1,44.5 461.5,44.4 462.8,44.2 464.1,44.0 465.5,43.9 466.8,43.7 468.2,43.5 469.5,43.4 470.8,43.3 472.2,43.1 473.5,43.0 474.9,42.7 476.2,42.6 477.5,42.4 478.9,42.2 480.2,41.9 481.6,41.5 482.9,41.3 484.2,41.1 485.6,40.9 486.9,40.7 488.3,40.5 489.6,40.2 490.9,40.1 492.3,40.0 493.6,39.8 495.0,39.6 496.3,39.4 497.6,39.2 499.0,39.1 500.3,38.9 501.7,38.6 503.0,38.5 504.3,38.2 505.7,38.0 507.0,37.8 508.4,37.5 509.7,37.4 511.0,37.2 512.4,37.1 513.7,36.9 515.1,36.7 516.4,36.5 517.7,36.3 519.1,36.2 520.4,36.1 521.8,35.9 523.1,35.7 524.4,35.6 525.8,35.5 527.1,35.3 528.5,35.2 529.8,35.1 531.1,34.9 532.5,34.7 533.8,34.6 535.2,34.5 536.5,34.3 537.8,34.1 539.2,33.9 540.5,33.8 541.9,33.6 543.2,33.5 544.5,33.2 545.9,33.1 547.2,32.8 548.6,32.7 549.9,32.6 551.2,32.5 552.6,32.3 553.9,32.2 555.3,32.0 556.6,31.7 557.9,31.6 559.3,31.4 560.6,31.3 562.0,31.2 563.3,31.0 564.6,30.8 566.0,30.6 567.3,30.4 568.7,30.3 570.0,30.0" />
  
  <!-- Punto finale luminoso -->
  <circle cx="570.0" cy="30.0" r="4" fill="#ffffff" stroke="#0366d6" stroke-width="2.5" />
</svg>