<svg width="600" height="150" viewBox="0 0 600 150" xmlns="http://www.w3.org/2000/svg">
  <defs>
    <filter id="shadow2" x="-2%" y="-2%" width="104%" height="108%">
      <feDropShadow dx="0" dy="2" stdDeviation="3" flood-opacity="0.1" />
    </filter>
    <linearGradient id="fillGrad" x1="0" y1="0" x2="0" y2="1">
      <stop offset="0%" stop-color="#0366d6" stop-opacity="0.3"/>
      <stop offset="100%" stop-color="#0366d6" stop-opacity="0.02"/>
    </linearGradient>
  </defs>
  <rect width="600" height="150" rx="12" fill="#ffffff" filter="url(#shadow2)" stroke="#e1e4e8" stroke-width="1"/>
  <text x="20" y="24" fill="#2b3137" font-family="-apple-system,BlinkMacSystemFont,'Segoe UI',Helvetica,Arial,sans-serif" font-size="14" font-weight="600">📈 Download Growth (Actual: 68.8k)</text>
  
  <!-- Area sotto la linea -->
  <polygon fill="url(#fillGrad)" points="30.0,120.0,120 30.0,120.0 51.6,114.9 73.2,109.3 94.8,104.5 116.4,103.2 138.0,100.6 159.6,94.7 181.2,90.7 202.8,88.0 224.4,81.9 246.0,78.9 267.6,75.8 289.2,74.0 310.8,71.2 332.4,67.1 354.0,62.7 375.6,59.3 397.2,57.1 418.8,55.5 440.4,52.7 462.0,49.5 483.6,46.6 505.2,45.3 526.8,42.5 548.4,32.9 570.0,30.0 570.0,30.0,120" />
  
  <!-- Linea principale -->
  <polyline fill="none" stroke="#0366d6" stroke-width="2.5" stroke-linecap="round" stroke-linejoin="round" points="30.0,120.0 51.6,114.9 73.2,109.3 94.8,104.5 116.4,103.2 138.0,100.6 159.6,94.7 181.2,90.7 202.8,88.0 224.4,81.9 246.0,78.9 267.6,75.8 289.2,74.0 310.8,71.2 332.4,67.1 354.0,62.7 375.6,59.3 397.2,57.1 418.8,55.5 440.4,52.7 462.0,49.5 483.6,46.6 505.2,45.3 526.8,42.5 548.4,32.9 570.0,30.0" />
  
  <!-- Punto finale luminoso -->
  <circle cx="570.0" cy="30.0" r="4" fill="#ffffff" stroke="#0366d6" stroke-width="2.5" />
</svg>