<svg width="600" height="150" viewBox="0 0 600 150" xmlns="http://www.w3.org/2000/svg">
  <defs>
    <filter id="shadow2" x="-2%" y="-2%" width="104%" height="108%">
      <feDropShadow dx="0" dy="2" stdDeviation="3" flood-opacity="0.1" />
    </filter>
    <linearGradient id="fillGrad" x1="0" y1="0" x2="0" y2="1">
      <stop offset="0%" stop-color="#0366d6" stop-opacity="0.3"/>
      <stop offset="100%" stop-color="#0366d6" stop-opacity="0.02"/>
    </linearGradient>
  </defs>
  <rect width="600" height="150" rx="12" fill="#ffffff" filter="url(#shadow2)" stroke="#e1e4e8" stroke-width="1"/>
  <text x="20" y="24" fill="#2b3137" font-family="-apple-system,BlinkMacSystemFont,'Segoe UI',Helvetica,Arial,sans-serif" font-size="14" font-weight="600">📈 Download Growth (Actual: 80.6k)</text>
  
  <!-- Area sotto la linea -->
  <polygon fill="url(#fillGrad)" points="30.0,120.0,120 30.0,120.0 32.0,119.3 34.0,118.5 36.0,117.8 37.9,117.6 39.9,117.2 41.9,116.4 43.9,115.8 45.9,115.4 47.9,114.6 49.9,114.1 51.8,113.7 53.8,113.4 55.8,113.0 57.8,112.4 59.8,111.8 61.8,111.3 63.8,111.0 65.7,110.8 67.7,110.4 69.7,109.9 71.7,109.5 73.7,109.3 75.7,108.9 77.6,107.5 79.6,107.1 81.6,106.6 83.6,106.0 85.6,105.6 87.6,105.1 89.6,104.8 91.5,104.6 93.5,104.2 95.5,103.5 97.5,102.9 99.5,102.6 101.5,102.1 103.5,102.0 105.4,101.8 107.4,101.6 109.4,101.2 111.4,100.9 113.4,100.7 115.4,100.2 117.4,99.5 119.3,99.3 121.3,99.1 123.3,98.9 125.3,98.3 127.3,97.9 129.3,97.3 131.2,96.8 133.2,96.3 135.2,96.2 137.2,95.8 139.2,95.3 141.2,94.7 143.2,94.3 145.1,94.1 147.1,93.8 149.1,93.6 151.1,93.0 153.1,92.4 155.1,91.9 157.1,91.4 159.0,91.1 161.0,91.0 163.0,90.7 165.0,90.3 167.0,90.0 169.0,89.8 171.0,89.6 172.9,89.4 174.9,89.1 176.9,88.9 178.9,88.8 180.9,88.6 182.9,88.1 184.9,87.8 186.8,87.6 188.8,87.5 190.8,87.3 192.8,87.3 194.8,96.7 196.8,95.8 198.8,94.9 200.7,94.1 202.7,91.5 204.7,89.7 206.7,87.8 208.7,87.1 210.7,86.3 212.6,85.0 214.6,83.6 216.6,82.6 218.6,82.2 220.6,81.8 222.6,80.8 224.6,80.0 226.5,79.5 228.5,78.9 230.5,78.7 232.5,78.6 234.5,78.0 236.5,77.2 238.5,76.5 240.4,75.9 242.4,75.2 244.4,74.9 246.4,74.6 248.4,74.0 250.4,73.5 252.4,73.0 254.3,72.6 256.3,72.4 258.3,72.2 260.3,71.9 262.3,71.5 264.3,71.1 266.2,70.8 268.2,70.5 270.2,70.2 272.2,70.0 274.2,69.7 276.2,69.5 278.2,69.3 280.1,68.8 282.1,68.4 284.1,68.0 286.1,67.8 288.1,67.5 290.1,67.3 292.1,67.1 294.0,66.9 296.0,66.2 298.0,65.8 300.0,65.2 302.0,65.0 304.0,64.9 306.0,64.7 307.9,64.4 309.9,64.0 311.9,63.7 313.9,63.3 315.9,63.0 317.9,62.9 319.9,62.6 321.8,62.5 323.8,62.3 325.8,62.0 327.8,61.8 329.8,61.4 331.8,61.2 333.8,61.0 335.7,60.8 337.7,60.7 339.7,60.4 341.7,60.1 343.7,59.8 345.7,59.5 347.6,59.2 349.6,59.0 351.6,58.8 353.6,58.6 355.6,58.2 357.6,57.8 359.6,57.5 361.5,57.2 363.5,56.7 365.5,56.6 367.5,56.5 369.5,56.3 371.5,56.1 373.5,55.8 375.4,55.6 377.4,55.4 379.4,55.1 381.4,54.9 383.4,54.7 385.4,54.5 387.4,54.4 389.3,54.1 391.3,53.8 393.3,53.6 395.3,53.3 397.3,53.2 399.3,53.0 401.2,52.8 403.2,52.6 405.2,52.4 407.2,52.2 409.2,51.8 411.2,51.4 413.2,51.1 415.1,50.9 417.1,50.8 419.1,50.7 421.1,50.4 423.1,50.0 425.1,49.8 427.1,49.7 429.0,49.4 431.0,49.2 433.0,49.0 435.0,48.8 437.0,48.6 439.0,48.3 441.0,48.1 442.9,47.7 444.9,47.5 446.9,47.3 448.9,47.3 450.9,47.2 452.9,46.9 454.9,46.7 456.8,46.5 458.8,46.3 460.8,46.0 462.8,45.9 464.8,45.7 466.8,45.5 468.8,45.3 470.7,45.0 472.7,44.7 474.7,44.5 476.7,44.2 478.7,44.1 480.7,43.9 482.6,43.8 484.6,43.7 486.6,43.5 488.6,43.3 490.6,43.0 492.6,42.8 494.6,42.6 496.5,42.5 498.5,42.3 500.5,42.1 502.5,41.8 504.5,41.6 506.5,41.5 508.5,41.3 510.4,41.0 512.4,40.8 514.4,40.6 516.4,40.5 518.4,40.4 520.4,40.2 522.4,40.0 524.3,39.8 526.3,39.7 528.3,39.6 530.3,39.4 532.3,39.0 534.3,38.7 536.2,44.8 538.2,43.6 540.2,41.3 542.2,40.4 544.2,39.3 546.2,38.0 548.2,37.3 550.1,36.8 552.1,35.9 554.1,34.6 556.1,33.6 558.1,33.3 560.1,32.8 562.1,32.4 564.0,31.7 566.0,31.1 568.0,30.3 570.0,30.0 570.0,30.0,120" />
  
  <!-- Linea principale -->
  <polyline fill="none" stroke="#0366d6" stroke-width="2.5" stroke-linecap="round" stroke-linejoin="round" points="30.0,120.0 32.0,119.3 34.0,118.5 36.0,117.8 37.9,117.6 39.9,117.2 41.9,116.4 43.9,115.8 45.9,115.4 47.9,114.6 49.9,114.1 51.8,113.7 53.8,113.4 55.8,113.0 57.8,112.4 59.8,111.8 61.8,111.3 63.8,111.0 65.7,110.8 67.7,110.4 69.7,109.9 71.7,109.5 73.7,109.3 75.7,108.9 77.6,107.5 79.6,107.1 81.6,106.6 83.6,106.0 85.6,105.6 87.6,105.1 89.6,104.8 91.5,104.6 93.5,104.2 95.5,103.5 97.5,102.9 99.5,102.6 101.5,102.1 103.5,102.0 105.4,101.8 107.4,101.6 109.4,101.2 111.4,100.9 113.4,100.7 115.4,100.2 117.4,99.5 119.3,99.3 121.3,99.1 123.3,98.9 125.3,98.3 127.3,97.9 129.3,97.3 131.2,96.8 133.2,96.3 135.2,96.2 137.2,95.8 139.2,95.3 141.2,94.7 143.2,94.3 145.1,94.1 147.1,93.8 149.1,93.6 151.1,93.0 153.1,92.4 155.1,91.9 157.1,91.4 159.0,91.1 161.0,91.0 163.0,90.7 165.0,90.3 167.0,90.0 169.0,89.8 171.0,89.6 172.9,89.4 174.9,89.1 176.9,88.9 178.9,88.8 180.9,88.6 182.9,88.1 184.9,87.8 186.8,87.6 188.8,87.5 190.8,87.3 192.8,87.3 194.8,96.7 196.8,95.8 198.8,94.9 200.7,94.1 202.7,91.5 204.7,89.7 206.7,87.8 208.7,87.1 210.7,86.3 212.6,85.0 214.6,83.6 216.6,82.6 218.6,82.2 220.6,81.8 222.6,80.8 224.6,80.0 226.5,79.5 228.5,78.9 230.5,78.7 232.5,78.6 234.5,78.0 236.5,77.2 238.5,76.5 240.4,75.9 242.4,75.2 244.4,74.9 246.4,74.6 248.4,74.0 250.4,73.5 252.4,73.0 254.3,72.6 256.3,72.4 258.3,72.2 260.3,71.9 262.3,71.5 264.3,71.1 266.2,70.8 268.2,70.5 270.2,70.2 272.2,70.0 274.2,69.7 276.2,69.5 278.2,69.3 280.1,68.8 282.1,68.4 284.1,68.0 286.1,67.8 288.1,67.5 290.1,67.3 292.1,67.1 294.0,66.9 296.0,66.2 298.0,65.8 300.0,65.2 302.0,65.0 304.0,64.9 306.0,64.7 307.9,64.4 309.9,64.0 311.9,63.7 313.9,63.3 315.9,63.0 317.9,62.9 319.9,62.6 321.8,62.5 323.8,62.3 325.8,62.0 327.8,61.8 329.8,61.4 331.8,61.2 333.8,61.0 335.7,60.8 337.7,60.7 339.7,60.4 341.7,60.1 343.7,59.8 345.7,59.5 347.6,59.2 349.6,59.0 351.6,58.8 353.6,58.6 355.6,58.2 357.6,57.8 359.6,57.5 361.5,57.2 363.5,56.7 365.5,56.6 367.5,56.5 369.5,56.3 371.5,56.1 373.5,55.8 375.4,55.6 377.4,55.4 379.4,55.1 381.4,54.9 383.4,54.7 385.4,54.5 387.4,54.4 389.3,54.1 391.3,53.8 393.3,53.6 395.3,53.3 397.3,53.2 399.3,53.0 401.2,52.8 403.2,52.6 405.2,52.4 407.2,52.2 409.2,51.8 411.2,51.4 413.2,51.1 415.1,50.9 417.1,50.8 419.1,50.7 421.1,50.4 423.1,50.0 425.1,49.8 427.1,49.7 429.0,49.4 431.0,49.2 433.0,49.0 435.0,48.8 437.0,48.6 439.0,48.3 441.0,48.1 442.9,47.7 444.9,47.5 446.9,47.3 448.9,47.3 450.9,47.2 452.9,46.9 454.9,46.7 456.8,46.5 458.8,46.3 460.8,46.0 462.8,45.9 464.8,45.7 466.8,45.5 468.8,45.3 470.7,45.0 472.7,44.7 474.7,44.5 476.7,44.2 478.7,44.1 480.7,43.9 482.6,43.8 484.6,43.7 486.6,43.5 488.6,43.3 490.6,43.0 492.6,42.8 494.6,42.6 496.5,42.5 498.5,42.3 500.5,42.1 502.5,41.8 504.5,41.6 506.5,41.5 508.5,41.3 510.4,41.0 512.4,40.8 514.4,40.6 516.4,40.5 518.4,40.4 520.4,40.2 522.4,40.0 524.3,39.8 526.3,39.7 528.3,39.6 530.3,39.4 532.3,39.0 534.3,38.7 536.2,44.8 538.2,43.6 540.2,41.3 542.2,40.4 544.2,39.3 546.2,38.0 548.2,37.3 550.1,36.8 552.1,35.9 554.1,34.6 556.1,33.6 558.1,33.3 560.1,32.8 562.1,32.4 564.0,31.7 566.0,31.1 568.0,30.3 570.0,30.0" />
  
  <!-- Punto finale luminoso -->
  <circle cx="570.0" cy="30.0" r="4" fill="#ffffff" stroke="#0366d6" stroke-width="2.5" />
</svg>