<svg width="600" height="150" viewBox="0 0 600 150" xmlns="http://www.w3.org/2000/svg">
  <defs>
    <filter id="shadow2" x="-2%" y="-2%" width="104%" height="108%">
      <feDropShadow dx="0" dy="2" stdDeviation="3" flood-opacity="0.1" />
    </filter>
    <linearGradient id="fillGrad" x1="0" y1="0" x2="0" y2="1">
      <stop offset="0%" stop-color="#0366d6" stop-opacity="0.3"/>
      <stop offset="100%" stop-color="#0366d6" stop-opacity="0.02"/>
    </linearGradient>
  </defs>
  <rect width="600" height="150" rx="12" fill="#ffffff" filter="url(#shadow2)" stroke="#e1e4e8" stroke-width="1"/>
  <text x="20" y="24" fill="#2b3137" font-family="-apple-system,BlinkMacSystemFont,'Segoe UI',Helvetica,Arial,sans-serif" font-size="14" font-weight="600">📈 Download Growth (Actual: 71.6k)</text>
  
  <!-- Area sotto la linea -->
  <polygon fill="url(#fillGrad)" points="30.0,120.0,120 30.0,120.0 37.2,117.9 44.4,115.6 51.6,113.6 58.8,113.1 66.0,112.0 73.2,109.6 80.4,107.9 87.6,106.8 94.8,104.3 102.0,103.0 109.2,101.8 116.4,101.0 123.6,99.9 130.8,98.2 138.0,96.4 145.2,95.0 152.4,94.1 159.6,93.4 166.8,92.3 174.0,90.9 181.2,89.8 188.4,89.2 195.6,88.1 202.8,84.1 210.0,82.9 217.2,81.3 224.4,79.8 231.6,78.4 238.8,77.1 246.0,76.2 253.2,75.6 260.4,74.4 267.6,72.5 274.8,70.8 282.0,69.7 289.2,68.4 296.4,68.0 303.6,67.7 310.8,67.0 318.0,65.7 325.2,64.9 332.4,64.4 339.6,63.0 346.8,60.8 354.0,60.3 361.2,59.9 368.4,59.1 375.6,57.4 382.8,56.2 390.0,54.5 397.2,53.2 404.4,51.6 411.6,51.3 418.8,50.4 426.0,48.8 433.2,47.2 440.4,46.0 447.6,45.4 454.8,44.6 462.0,43.9 469.2,42.1 476.4,40.5 483.6,39.0 490.8,37.5 498.0,36.7 505.2,36.3 512.4,35.7 519.6,34.4 526.8,33.6 534.0,32.9 541.2,32.4 548.4,31.8 555.6,30.9 562.8,30.4 570.0,30.0 570.0,30.0,120" />
  
  <!-- Linea principale -->
  <polyline fill="none" stroke="#0366d6" stroke-width="2.5" stroke-linecap="round" stroke-linejoin="round" points="30.0,120.0 37.2,117.9 44.4,115.6 51.6,113.6 58.8,113.1 66.0,112.0 73.2,109.6 80.4,107.9 87.6,106.8 94.8,104.3 102.0,103.0 109.2,101.8 116.4,101.0 123.6,99.9 130.8,98.2 138.0,96.4 145.2,95.0 152.4,94.1 159.6,93.4 166.8,92.3 174.0,90.9 181.2,89.8 188.4,89.2 195.6,88.1 202.8,84.1 210.0,82.9 217.2,81.3 224.4,79.8 231.6,78.4 238.8,77.1 246.0,76.2 253.2,75.6 260.4,74.4 267.6,72.5 274.8,70.8 282.0,69.7 289.2,68.4 296.4,68.0 303.6,67.7 310.8,67.0 318.0,65.7 325.2,64.9 332.4,64.4 339.6,63.0 346.8,60.8 354.0,60.3 361.2,59.9 368.4,59.1 375.6,57.4 382.8,56.2 390.0,54.5 397.2,53.2 404.4,51.6 411.6,51.3 418.8,50.4 426.0,48.8 433.2,47.2 440.4,46.0 447.6,45.4 454.8,44.6 462.0,43.9 469.2,42.1 476.4,40.5 483.6,39.0 490.8,37.5 498.0,36.7 505.2,36.3 512.4,35.7 519.6,34.4 526.8,33.6 534.0,32.9 541.2,32.4 548.4,31.8 555.6,30.9 562.8,30.4 570.0,30.0" />
  
  <!-- Punto finale luminoso -->
  <circle cx="570.0" cy="30.0" r="4" fill="#ffffff" stroke="#0366d6" stroke-width="2.5" />
</svg>