<svg width="600" height="150" viewBox="0 0 600 150" xmlns="http://www.w3.org/2000/svg">
  <defs>
    <filter id="shadow2" x="-2%" y="-2%" width="104%" height="108%">
      <feDropShadow dx="0" dy="2" stdDeviation="3" flood-opacity="0.1" />
    </filter>
    <linearGradient id="fillGrad" x1="0" y1="0" x2="0" y2="1">
      <stop offset="0%" stop-color="#0366d6" stop-opacity="0.3"/>
      <stop offset="100%" stop-color="#0366d6" stop-opacity="0.02"/>
    </linearGradient>
  </defs>
  <rect width="600" height="150" rx="12" fill="#ffffff" filter="url(#shadow2)" stroke="#e1e4e8" stroke-width="1"/>
  <text x="20" y="24" fill="#2b3137" font-family="-apple-system,BlinkMacSystemFont,'Segoe UI',Helvetica,Arial,sans-serif" font-size="14" font-weight="600">📈 Download Growth (Actual: 84.2k)</text>
  
  <!-- Area sotto la linea -->
  <polygon fill="url(#fillGrad)" points="30.0,120.0,120 30.0,120.0 31.6,119.4 33.3,118.8 34.9,118.2 36.5,118.1 38.2,117.8 39.8,117.1 41.5,116.7 43.1,116.4 44.7,115.7 46.4,115.3 48.0,115.0 49.6,114.8 51.3,114.5 52.9,114.0 54.5,113.5 56.2,113.1 57.8,112.8 59.5,112.7 61.1,112.4 62.7,112.0 64.4,111.7 66.0,111.5 67.6,111.2 69.3,110.1 70.9,109.8 72.5,109.3 74.2,108.9 75.8,108.5 77.5,108.2 79.1,107.9 80.7,107.7 82.4,107.4 84.0,106.9 85.6,106.5 87.3,106.1 88.9,105.8 90.5,105.7 92.2,105.6 93.8,105.4 95.5,105.0 97.1,104.8 98.7,104.7 100.4,104.3 102.0,103.7 103.6,103.5 105.3,103.4 106.9,103.2 108.5,102.7 110.2,102.4 111.8,101.9 113.5,101.6 115.1,101.2 116.7,101.1 118.4,100.8 120.0,100.4 121.6,99.9 123.3,99.6 124.9,99.4 126.5,99.2 128.2,99.0 129.8,98.5 131.5,98.1 133.1,97.7 134.7,97.3 136.4,97.1 138.0,96.9 139.6,96.7 141.3,96.4 142.9,96.2 144.5,96.0 146.2,95.8 147.8,95.7 149.5,95.5 151.1,95.3 152.7,95.2 154.4,95.1 156.0,94.6 157.6,94.4 159.3,94.3 160.9,94.1 162.5,94.1 164.2,94.1 165.8,101.5 167.5,100.7 169.1,100.1 170.7,99.4 172.4,97.4 174.0,96.0 175.6,94.4 177.3,93.9 178.9,93.2 180.5,92.2 182.2,91.1 183.8,90.2 185.5,89.9 187.1,89.6 188.7,88.8 190.4,88.2 192.0,87.9 193.6,87.4 195.3,87.2 196.9,87.1 198.5,86.7 200.2,86.0 201.8,85.5 203.5,85.0 205.1,84.4 206.7,84.2 208.4,84.0 210.0,83.5 211.6,83.0 213.3,82.6 214.9,82.3 216.5,82.2 218.2,82.1 219.8,81.8 221.5,81.4 223.1,81.2 224.7,80.9 226.4,80.7 228.0,80.5 229.6,80.3 231.3,80.1 232.9,79.9 234.5,79.7 236.2,79.3 237.8,79.0 239.5,78.7 241.1,78.5 242.7,78.3 244.4,78.2 246.0,78.0 247.6,77.8 249.3,77.3 250.9,76.9 252.5,76.5 254.2,76.3 255.8,76.2 257.5,76.0 259.1,75.8 260.7,75.5 262.4,75.3 264.0,74.9 265.6,74.7 267.3,74.6 268.9,74.4 270.5,74.3 272.2,74.1 273.8,73.9 275.5,73.7 277.1,73.4 278.7,73.3 280.4,73.2 282.0,73.0 283.6,72.9 285.3,72.6 286.9,72.4 288.5,72.1 290.2,71.9 291.8,71.7 293.5,71.5 295.1,71.4 296.7,71.2 298.4,70.9 300.0,70.6 301.6,70.4 303.3,70.1 304.9,69.7 306.5,69.6 308.2,69.5 309.8,69.4 311.5,69.2 313.1,69.0 314.7,68.8 316.4,68.6 318.0,68.4 319.6,68.3 321.3,68.1 322.9,68.0 324.5,67.9 326.2,67.7 327.8,67.4 329.5,67.3 331.1,67.0 332.7,66.9 334.4,66.8 336.0,66.6 337.6,66.5 339.3,66.3 340.9,66.1 342.5,65.8 344.2,65.5 345.8,65.3 347.5,65.1 349.1,65.0 350.7,64.9 352.4,64.7 354.0,64.4 355.6,64.3 357.3,64.2 358.9,63.9 360.5,63.8 362.2,63.6 363.8,63.4 365.5,63.3 367.1,63.0 368.7,62.9 370.4,62.6 372.0,62.4 373.6,62.3 375.3,62.2 376.9,62.1 378.5,62.0 380.2,61.8 381.8,61.6 383.5,61.4 385.1,61.2 386.7,61.1 388.4,61.0 390.0,60.8 391.6,60.7 393.3,60.4 394.9,60.2 396.5,60.0 398.2,59.8 399.8,59.7 401.5,59.6 403.1,59.5 404.7,59.4 406.4,59.3 408.0,59.1 409.6,58.8 411.3,58.7 412.9,58.5 414.5,58.4 416.2,58.2 417.8,58.1 419.5,57.9 421.1,57.7 422.7,57.6 424.4,57.5 426.0,57.3 427.6,57.1 429.3,56.9 430.9,56.8 432.5,56.7 434.2,56.6 435.8,56.5 437.5,56.3 439.1,56.2 440.7,56.1 442.4,56.0 444.0,55.6 445.6,55.4 447.3,60.3 448.9,59.3 450.5,57.5 452.2,56.8 453.8,55.9 455.5,54.9 457.1,54.3 458.7,53.9 460.4,53.2 462.0,52.2 463.6,51.4 465.3,51.1 466.9,50.7 468.5,50.4 470.2,49.9 471.8,49.4 473.5,48.8 475.1,48.5 476.7,48.0 478.4,47.7 480.0,47.3 481.6,47.1 483.3,46.8 484.9,46.6 486.5,46.0 488.2,45.7 489.8,45.2 491.5,44.5 493.1,44.1 494.7,43.9 496.4,43.7 498.0,43.4 499.6,43.0 501.3,42.6 502.9,42.3 504.5,41.3 506.2,40.5 507.8,40.2 509.5,40.0 511.1,39.7 512.7,39.1 514.4,38.7 516.0,38.4 517.6,38.0 519.3,37.7 520.9,37.3 522.5,37.0 524.2,36.6 525.8,36.3 527.5,36.1 529.1,35.9 530.7,35.5 532.4,35.2 534.0,34.9 535.6,34.8 537.3,34.6 538.9,34.3 540.5,34.1 542.2,33.9 543.8,33.7 545.5,33.5 547.1,33.3 548.7,33.0 550.4,32.8 552.0,32.4 553.6,32.0 555.3,31.7 556.9,31.5 558.5,31.3 560.2,31.1 561.8,30.9 563.5,30.7 565.1,30.5 566.7,30.4 568.4,30.2 570.0,30.0 570.0,30.0,120" />
  
  <!-- Linea principale -->
  <polyline fill="none" stroke="#0366d6" stroke-width="2.5" stroke-linecap="round" stroke-linejoin="round" points="30.0,120.0 31.6,119.4 33.3,118.8 34.9,118.2 36.5,118.1 38.2,117.8 39.8,117.1 41.5,116.7 43.1,116.4 44.7,115.7 46.4,115.3 48.0,115.0 49.6,114.8 51.3,114.5 52.9,114.0 54.5,113.5 56.2,113.1 57.8,112.8 59.5,112.7 61.1,112.4 62.7,112.0 64.4,111.7 66.0,111.5 67.6,111.2 69.3,110.1 70.9,109.8 72.5,109.3 74.2,108.9 75.8,108.5 77.5,108.2 79.1,107.9 80.7,107.7 82.4,107.4 84.0,106.9 85.6,106.5 87.3,106.1 88.9,105.8 90.5,105.7 92.2,105.6 93.8,105.4 95.5,105.0 97.1,104.8 98.7,104.7 100.4,104.3 102.0,103.7 103.6,103.5 105.3,103.4 106.9,103.2 108.5,102.7 110.2,102.4 111.8,101.9 113.5,101.6 115.1,101.2 116.7,101.1 118.4,100.8 120.0,100.4 121.6,99.9 123.3,99.6 124.9,99.4 126.5,99.2 128.2,99.0 129.8,98.5 131.5,98.1 133.1,97.7 134.7,97.3 136.4,97.1 138.0,96.9 139.6,96.7 141.3,96.4 142.9,96.2 144.5,96.0 146.2,95.8 147.8,95.7 149.5,95.5 151.1,95.3 152.7,95.2 154.4,95.1 156.0,94.6 157.6,94.4 159.3,94.3 160.9,94.1 162.5,94.1 164.2,94.1 165.8,101.5 167.5,100.7 169.1,100.1 170.7,99.4 172.4,97.4 174.0,96.0 175.6,94.4 177.3,93.9 178.9,93.2 180.5,92.2 182.2,91.1 183.8,90.2 185.5,89.9 187.1,89.6 188.7,88.8 190.4,88.2 192.0,87.9 193.6,87.4 195.3,87.2 196.9,87.1 198.5,86.7 200.2,86.0 201.8,85.5 203.5,85.0 205.1,84.4 206.7,84.2 208.4,84.0 210.0,83.5 211.6,83.0 213.3,82.6 214.9,82.3 216.5,82.2 218.2,82.1 219.8,81.8 221.5,81.4 223.1,81.2 224.7,80.9 226.4,80.7 228.0,80.5 229.6,80.3 231.3,80.1 232.9,79.9 234.5,79.7 236.2,79.3 237.8,79.0 239.5,78.7 241.1,78.5 242.7,78.3 244.4,78.2 246.0,78.0 247.6,77.8 249.3,77.3 250.9,76.9 252.5,76.5 254.2,76.3 255.8,76.2 257.5,76.0 259.1,75.8 260.7,75.5 262.4,75.3 264.0,74.9 265.6,74.7 267.3,74.6 268.9,74.4 270.5,74.3 272.2,74.1 273.8,73.9 275.5,73.7 277.1,73.4 278.7,73.3 280.4,73.2 282.0,73.0 283.6,72.9 285.3,72.6 286.9,72.4 288.5,72.1 290.2,71.9 291.8,71.7 293.5,71.5 295.1,71.4 296.7,71.2 298.4,70.9 300.0,70.6 301.6,70.4 303.3,70.1 304.9,69.7 306.5,69.6 308.2,69.5 309.8,69.4 311.5,69.2 313.1,69.0 314.7,68.8 316.4,68.6 318.0,68.4 319.6,68.3 321.3,68.1 322.9,68.0 324.5,67.9 326.2,67.7 327.8,67.4 329.5,67.3 331.1,67.0 332.7,66.9 334.4,66.8 336.0,66.6 337.6,66.5 339.3,66.3 340.9,66.1 342.5,65.8 344.2,65.5 345.8,65.3 347.5,65.1 349.1,65.0 350.7,64.9 352.4,64.7 354.0,64.4 355.6,64.3 357.3,64.2 358.9,63.9 360.5,63.8 362.2,63.6 363.8,63.4 365.5,63.3 367.1,63.0 368.7,62.9 370.4,62.6 372.0,62.4 373.6,62.3 375.3,62.2 376.9,62.1 378.5,62.0 380.2,61.8 381.8,61.6 383.5,61.4 385.1,61.2 386.7,61.1 388.4,61.0 390.0,60.8 391.6,60.7 393.3,60.4 394.9,60.2 396.5,60.0 398.2,59.8 399.8,59.7 401.5,59.6 403.1,59.5 404.7,59.4 406.4,59.3 408.0,59.1 409.6,58.8 411.3,58.7 412.9,58.5 414.5,58.4 416.2,58.2 417.8,58.1 419.5,57.9 421.1,57.7 422.7,57.6 424.4,57.5 426.0,57.3 427.6,57.1 429.3,56.9 430.9,56.8 432.5,56.7 434.2,56.6 435.8,56.5 437.5,56.3 439.1,56.2 440.7,56.1 442.4,56.0 444.0,55.6 445.6,55.4 447.3,60.3 448.9,59.3 450.5,57.5 452.2,56.8 453.8,55.9 455.5,54.9 457.1,54.3 458.7,53.9 460.4,53.2 462.0,52.2 463.6,51.4 465.3,51.1 466.9,50.7 468.5,50.4 470.2,49.9 471.8,49.4 473.5,48.8 475.1,48.5 476.7,48.0 478.4,47.7 480.0,47.3 481.6,47.1 483.3,46.8 484.9,46.6 486.5,46.0 488.2,45.7 489.8,45.2 491.5,44.5 493.1,44.1 494.7,43.9 496.4,43.7 498.0,43.4 499.6,43.0 501.3,42.6 502.9,42.3 504.5,41.3 506.2,40.5 507.8,40.2 509.5,40.0 511.1,39.7 512.7,39.1 514.4,38.7 516.0,38.4 517.6,38.0 519.3,37.7 520.9,37.3 522.5,37.0 524.2,36.6 525.8,36.3 527.5,36.1 529.1,35.9 530.7,35.5 532.4,35.2 534.0,34.9 535.6,34.8 537.3,34.6 538.9,34.3 540.5,34.1 542.2,33.9 543.8,33.7 545.5,33.5 547.1,33.3 548.7,33.0 550.4,32.8 552.0,32.4 553.6,32.0 555.3,31.7 556.9,31.5 558.5,31.3 560.2,31.1 561.8,30.9 563.5,30.7 565.1,30.5 566.7,30.4 568.4,30.2 570.0,30.0" />
  
  <!-- Punto finale luminoso -->
  <circle cx="570.0" cy="30.0" r="4" fill="#ffffff" stroke="#0366d6" stroke-width="2.5" />
</svg>