<svg width="600" height="150" viewBox="0 0 600 150" xmlns="http://www.w3.org/2000/svg">
  <defs>
    <filter id="shadow2" x="-2%" y="-2%" width="104%" height="108%">
      <feDropShadow dx="0" dy="2" stdDeviation="3" flood-opacity="0.1" />
    </filter>
    <linearGradient id="fillGrad" x1="0" y1="0" x2="0" y2="1">
      <stop offset="0%" stop-color="#0366d6" stop-opacity="0.3"/>
      <stop offset="100%" stop-color="#0366d6" stop-opacity="0.02"/>
    </linearGradient>
  </defs>
  <rect width="600" height="150" rx="12" fill="#ffffff" filter="url(#shadow2)" stroke="#e1e4e8" stroke-width="1"/>
  <text x="20" y="24" fill="#2b3137" font-family="-apple-system,BlinkMacSystemFont,'Segoe UI',Helvetica,Arial,sans-serif" font-size="14" font-weight="600">📈 Download Growth (Actual: 76.9k)</text>
  
  <!-- Area sotto la linea -->
  <polygon fill="url(#fillGrad)" points="30.0,120.0,120 30.0,120.0 33.0,119.0 36.0,117.9 39.1,116.9 42.1,116.7 45.1,116.2 48.1,115.0 51.1,114.2 54.1,113.7 57.2,112.5 60.2,111.9 63.2,111.3 66.2,111.0 69.2,110.4 72.2,109.6 75.3,108.7 78.3,108.1 81.3,107.6 84.3,107.3 87.3,106.8 90.3,106.1 93.4,105.6 96.4,105.3 99.4,104.8 102.4,102.9 105.4,102.3 108.4,101.6 111.5,100.8 114.5,100.2 117.5,99.5 120.5,99.1 123.5,98.8 126.5,98.3 129.6,97.4 132.6,96.6 135.6,96.0 138.6,95.4 141.6,95.2 144.6,95.0 147.7,94.7 150.7,94.1 153.7,93.7 156.7,93.5 159.7,92.8 162.7,91.8 165.8,91.5 168.8,91.3 171.8,90.9 174.8,90.1 177.8,89.6 180.8,88.8 183.9,88.2 186.9,87.4 189.9,87.3 192.9,86.8 195.9,86.1 198.9,85.3 202.0,84.7 205.0,84.4 208.0,84.1 211.0,83.7 214.0,82.9 217.0,82.1 220.1,81.4 223.1,80.7 226.1,80.3 229.1,80.1 232.1,79.8 235.1,79.2 238.2,78.8 241.2,78.5 244.2,78.2 247.2,77.9 250.2,77.5 253.2,77.3 256.3,77.1 259.3,76.9 262.3,76.1 265.3,75.7 268.3,75.5 271.3,75.3 274.4,75.1 277.4,75.1 280.4,87.9 283.4,86.7 286.4,85.6 289.4,84.4 292.5,80.9 295.5,78.4 298.5,75.8 301.5,74.8 304.5,73.7 307.5,71.9 310.6,70.0 313.6,68.5 316.6,68.0 319.6,67.5 322.6,66.1 325.6,65.0 328.7,64.4 331.7,63.6 334.7,63.2 337.7,63.1 340.7,62.3 343.7,61.1 346.8,60.3 349.8,59.4 352.8,58.5 355.8,58.0 358.8,57.7 361.8,56.8 364.9,56.1 367.9,55.4 370.9,54.8 373.9,54.5 376.9,54.4 379.9,53.9 383.0,53.3 386.0,52.8 389.0,52.4 392.0,52.0 395.0,51.6 398.0,51.3 401.1,50.9 404.1,50.6 407.1,50.3 410.1,49.6 413.1,49.1 416.1,48.6 419.2,48.2 422.2,47.9 425.2,47.6 428.2,47.3 431.2,47.0 434.2,46.1 437.3,45.5 440.3,44.7 443.3,44.4 446.3,44.3 449.3,43.9 452.3,43.5 455.4,43.0 458.4,42.6 461.4,42.0 464.4,41.7 467.4,41.5 470.4,41.2 473.5,40.9 476.5,40.7 479.5,40.3 482.5,40.0 485.5,39.4 488.5,39.2 491.6,39.0 494.6,38.7 497.6,38.5 500.6,38.0 503.6,37.7 506.6,37.2 509.7,36.8 512.7,36.4 515.7,36.1 518.7,35.9 521.7,35.7 524.7,35.1 527.8,34.6 530.8,34.2 533.8,33.8 536.8,33.1 539.8,32.9 542.8,32.7 545.9,32.5 548.9,32.1 551.9,31.8 554.9,31.4 557.9,31.1 560.9,30.8 564.0,30.5 567.0,30.2 570.0,30.0 570.0,30.0,120" />
  
  <!-- Linea principale -->
  <polyline fill="none" stroke="#0366d6" stroke-width="2.5" stroke-linecap="round" stroke-linejoin="round" points="30.0,120.0 33.0,119.0 36.0,117.9 39.1,116.9 42.1,116.7 45.1,116.2 48.1,115.0 51.1,114.2 54.1,113.7 57.2,112.5 60.2,111.9 63.2,111.3 66.2,111.0 69.2,110.4 72.2,109.6 75.3,108.7 78.3,108.1 81.3,107.6 84.3,107.3 87.3,106.8 90.3,106.1 93.4,105.6 96.4,105.3 99.4,104.8 102.4,102.9 105.4,102.3 108.4,101.6 111.5,100.8 114.5,100.2 117.5,99.5 120.5,99.1 123.5,98.8 126.5,98.3 129.6,97.4 132.6,96.6 135.6,96.0 138.6,95.4 141.6,95.2 144.6,95.0 147.7,94.7 150.7,94.1 153.7,93.7 156.7,93.5 159.7,92.8 162.7,91.8 165.8,91.5 168.8,91.3 171.8,90.9 174.8,90.1 177.8,89.6 180.8,88.8 183.9,88.2 186.9,87.4 189.9,87.3 192.9,86.8 195.9,86.1 198.9,85.3 202.0,84.7 205.0,84.4 208.0,84.1 211.0,83.7 214.0,82.9 217.0,82.1 220.1,81.4 223.1,80.7 226.1,80.3 229.1,80.1 232.1,79.8 235.1,79.2 238.2,78.8 241.2,78.5 244.2,78.2 247.2,77.9 250.2,77.5 253.2,77.3 256.3,77.1 259.3,76.9 262.3,76.1 265.3,75.7 268.3,75.5 271.3,75.3 274.4,75.1 277.4,75.1 280.4,87.9 283.4,86.7 286.4,85.6 289.4,84.4 292.5,80.9 295.5,78.4 298.5,75.8 301.5,74.8 304.5,73.7 307.5,71.9 310.6,70.0 313.6,68.5 316.6,68.0 319.6,67.5 322.6,66.1 325.6,65.0 328.7,64.4 331.7,63.6 334.7,63.2 337.7,63.1 340.7,62.3 343.7,61.1 346.8,60.3 349.8,59.4 352.8,58.5 355.8,58.0 358.8,57.7 361.8,56.8 364.9,56.1 367.9,55.4 370.9,54.8 373.9,54.5 376.9,54.4 379.9,53.9 383.0,53.3 386.0,52.8 389.0,52.4 392.0,52.0 395.0,51.6 398.0,51.3 401.1,50.9 404.1,50.6 407.1,50.3 410.1,49.6 413.1,49.1 416.1,48.6 419.2,48.2 422.2,47.9 425.2,47.6 428.2,47.3 431.2,47.0 434.2,46.1 437.3,45.5 440.3,44.7 443.3,44.4 446.3,44.3 449.3,43.9 452.3,43.5 455.4,43.0 458.4,42.6 461.4,42.0 464.4,41.7 467.4,41.5 470.4,41.2 473.5,40.9 476.5,40.7 479.5,40.3 482.5,40.0 485.5,39.4 488.5,39.2 491.6,39.0 494.6,38.7 497.6,38.5 500.6,38.0 503.6,37.7 506.6,37.2 509.7,36.8 512.7,36.4 515.7,36.1 518.7,35.9 521.7,35.7 524.7,35.1 527.8,34.6 530.8,34.2 533.8,33.8 536.8,33.1 539.8,32.9 542.8,32.7 545.9,32.5 548.9,32.1 551.9,31.8 554.9,31.4 557.9,31.1 560.9,30.8 564.0,30.5 567.0,30.2 570.0,30.0" />
  
  <!-- Punto finale luminoso -->
  <circle cx="570.0" cy="30.0" r="4" fill="#ffffff" stroke="#0366d6" stroke-width="2.5" />
</svg>