<svg width="600" height="150" viewBox="0 0 600 150" xmlns="http://www.w3.org/2000/svg">
  <defs>
    <filter id="shadow2" x="-2%" y="-2%" width="104%" height="108%">
      <feDropShadow dx="0" dy="2" stdDeviation="3" flood-opacity="0.1" />
    </filter>
    <linearGradient id="fillGrad" x1="0" y1="0" x2="0" y2="1">
      <stop offset="0%" stop-color="#0366d6" stop-opacity="0.3"/>
      <stop offset="100%" stop-color="#0366d6" stop-opacity="0.02"/>
    </linearGradient>
  </defs>
  <rect width="600" height="150" rx="12" fill="#ffffff" filter="url(#shadow2)" stroke="#e1e4e8" stroke-width="1"/>
  <text x="20" y="24" fill="#2b3137" font-family="-apple-system,BlinkMacSystemFont,'Segoe UI',Helvetica,Arial,sans-serif" font-size="14" font-weight="600">📈 Download Growth (Actual: 79.3k)</text>
  
  <!-- Area sotto la linea -->
  <polygon fill="url(#fillGrad)" points="30.0,120.0,120 30.0,120.0 32.1,119.2 34.2,118.3 36.3,117.5 38.4,117.3 40.5,116.9 42.6,116.0 44.7,115.4 46.7,114.9 48.8,114.0 50.9,113.5 53.0,113.0 55.1,112.7 57.2,112.3 59.3,111.6 61.4,110.9 63.5,110.4 65.6,110.0 67.7,109.8 69.8,109.3 71.9,108.8 74.0,108.4 76.0,108.2 78.1,107.7 80.2,106.2 82.3,105.8 84.4,105.2 86.5,104.6 88.6,104.0 90.7,103.5 92.8,103.2 94.9,102.9 97.0,102.5 99.1,101.8 101.2,101.1 103.3,100.7 105.3,100.2 107.4,100.0 109.5,99.9 111.6,99.6 113.7,99.1 115.8,98.9 117.9,98.6 120.0,98.1 122.1,97.3 124.2,97.1 126.3,96.9 128.4,96.6 130.5,95.9 132.6,95.5 134.7,94.8 136.7,94.4 138.8,93.8 140.9,93.6 143.0,93.3 145.1,92.7 147.2,92.0 149.3,91.6 151.4,91.4 153.5,91.1 155.6,90.8 157.7,90.1 159.8,89.5 161.9,88.9 164.0,88.3 166.0,88.0 168.1,87.9 170.2,87.6 172.3,87.1 174.4,86.8 176.5,86.6 178.6,86.3 180.7,86.1 182.8,85.8 184.9,85.6 187.0,85.4 189.1,85.3 191.2,84.7 193.3,84.3 195.3,84.2 197.4,84.0 199.5,83.9 201.6,83.9 203.7,94.2 205.8,93.2 207.9,92.3 210.0,91.3 212.1,88.5 214.2,86.5 216.3,84.4 218.4,83.6 220.5,82.7 222.6,81.3 224.7,79.7 226.7,78.5 228.8,78.1 230.9,77.7 233.0,76.6 235.1,75.7 237.2,75.2 239.3,74.5 241.4,74.3 243.5,74.2 245.6,73.6 247.7,72.6 249.8,71.9 251.9,71.2 254.0,70.4 256.0,70.1 258.1,69.8 260.2,69.1 262.3,68.5 264.4,67.9 266.5,67.5 268.6,67.3 270.7,67.1 272.8,66.8 274.9,66.3 277.0,65.9 279.1,65.5 281.2,65.2 283.3,64.9 285.3,64.6 287.4,64.4 289.5,64.1 291.6,63.9 293.7,63.3 295.8,62.9 297.9,62.5 300.0,62.2 302.1,61.9 304.2,61.7 306.3,61.5 308.4,61.2 310.5,60.5 312.6,60.0 314.7,59.3 316.7,59.1 318.8,59.0 320.9,58.7 323.0,58.4 325.1,58.0 327.2,57.7 329.3,57.2 331.4,56.9 333.5,56.8 335.6,56.5 337.7,56.3 339.8,56.1 341.9,55.8 344.0,55.5 346.0,55.1 348.1,54.9 350.2,54.7 352.3,54.5 354.4,54.4 356.5,54.0 358.6,53.7 360.7,53.3 362.8,53.0 364.9,52.7 367.0,52.5 369.1,52.3 371.2,52.1 373.3,51.6 375.3,51.2 377.4,50.9 379.5,50.5 381.6,50.0 383.7,49.8 385.8,49.7 387.9,49.5 390.0,49.2 392.1,49.0 394.2,48.7 396.3,48.4 398.4,48.2 400.5,48.0 402.6,47.7 404.7,47.5 406.7,47.4 408.8,47.1 410.9,46.7 413.0,46.5 415.1,46.2 417.2,46.0 419.3,45.8 421.4,45.6 423.5,45.4 425.6,45.2 427.7,45.0 429.8,44.5 431.9,44.0 434.0,43.7 436.0,43.5 438.1,43.4 440.2,43.3 442.3,43.0 444.4,42.5 446.5,42.4 448.6,42.2 450.7,41.9 452.8,41.7 454.9,41.4 457.0,41.2 459.1,41.0 461.2,40.7 463.3,40.4 465.3,40.0 467.4,39.7 469.5,39.6 471.6,39.5 473.7,39.4 475.8,39.1 477.9,38.9 480.0,38.6 482.1,38.4 484.2,38.1 486.3,37.9 488.4,37.8 490.5,37.5 492.6,37.3 494.7,37.0 496.7,36.7 498.8,36.4 500.9,36.1 503.0,36.0 505.1,35.8 507.2,35.7 509.3,35.5 511.4,35.4 513.5,35.1 515.6,34.8 517.7,34.6 519.8,34.3 521.9,34.2 524.0,34.0 526.0,33.7 528.1,33.5 530.2,33.3 532.3,33.1 534.4,32.9 536.5,32.6 538.6,32.4 540.7,32.1 542.8,32.0 544.9,31.9 547.0,31.7 549.1,31.5 551.2,31.3 553.3,31.1 555.3,31.0 557.4,30.8 559.5,30.3 561.6,30.0 563.7,36.8 565.8,35.4 567.9,32.9 570.0,31.9 570.0,31.9,120" />
  
  <!-- Linea principale -->
  <polyline fill="none" stroke="#0366d6" stroke-width="2.5" stroke-linecap="round" stroke-linejoin="round" points="30.0,120.0 32.1,119.2 34.2,118.3 36.3,117.5 38.4,117.3 40.5,116.9 42.6,116.0 44.7,115.4 46.7,114.9 48.8,114.0 50.9,113.5 53.0,113.0 55.1,112.7 57.2,112.3 59.3,111.6 61.4,110.9 63.5,110.4 65.6,110.0 67.7,109.8 69.8,109.3 71.9,108.8 74.0,108.4 76.0,108.2 78.1,107.7 80.2,106.2 82.3,105.8 84.4,105.2 86.5,104.6 88.6,104.0 90.7,103.5 92.8,103.2 94.9,102.9 97.0,102.5 99.1,101.8 101.2,101.1 103.3,100.7 105.3,100.2 107.4,100.0 109.5,99.9 111.6,99.6 113.7,99.1 115.8,98.9 117.9,98.6 120.0,98.1 122.1,97.3 124.2,97.1 126.3,96.9 128.4,96.6 130.5,95.9 132.6,95.5 134.7,94.8 136.7,94.4 138.8,93.8 140.9,93.6 143.0,93.3 145.1,92.7 147.2,92.0 149.3,91.6 151.4,91.4 153.5,91.1 155.6,90.8 157.7,90.1 159.8,89.5 161.9,88.9 164.0,88.3 166.0,88.0 168.1,87.9 170.2,87.6 172.3,87.1 174.4,86.8 176.5,86.6 178.6,86.3 180.7,86.1 182.8,85.8 184.9,85.6 187.0,85.4 189.1,85.3 191.2,84.7 193.3,84.3 195.3,84.2 197.4,84.0 199.5,83.9 201.6,83.9 203.7,94.2 205.8,93.2 207.9,92.3 210.0,91.3 212.1,88.5 214.2,86.5 216.3,84.4 218.4,83.6 220.5,82.7 222.6,81.3 224.7,79.7 226.7,78.5 228.8,78.1 230.9,77.7 233.0,76.6 235.1,75.7 237.2,75.2 239.3,74.5 241.4,74.3 243.5,74.2 245.6,73.6 247.7,72.6 249.8,71.9 251.9,71.2 254.0,70.4 256.0,70.1 258.1,69.8 260.2,69.1 262.3,68.5 264.4,67.9 266.5,67.5 268.6,67.3 270.7,67.1 272.8,66.8 274.9,66.3 277.0,65.9 279.1,65.5 281.2,65.2 283.3,64.9 285.3,64.6 287.4,64.4 289.5,64.1 291.6,63.9 293.7,63.3 295.8,62.9 297.9,62.5 300.0,62.2 302.1,61.9 304.2,61.7 306.3,61.5 308.4,61.2 310.5,60.5 312.6,60.0 314.7,59.3 316.7,59.1 318.8,59.0 320.9,58.7 323.0,58.4 325.1,58.0 327.2,57.7 329.3,57.2 331.4,56.9 333.5,56.8 335.6,56.5 337.7,56.3 339.8,56.1 341.9,55.8 344.0,55.5 346.0,55.1 348.1,54.9 350.2,54.7 352.3,54.5 354.4,54.4 356.5,54.0 358.6,53.7 360.7,53.3 362.8,53.0 364.9,52.7 367.0,52.5 369.1,52.3 371.2,52.1 373.3,51.6 375.3,51.2 377.4,50.9 379.5,50.5 381.6,50.0 383.7,49.8 385.8,49.7 387.9,49.5 390.0,49.2 392.1,49.0 394.2,48.7 396.3,48.4 398.4,48.2 400.5,48.0 402.6,47.7 404.7,47.5 406.7,47.4 408.8,47.1 410.9,46.7 413.0,46.5 415.1,46.2 417.2,46.0 419.3,45.8 421.4,45.6 423.5,45.4 425.6,45.2 427.7,45.0 429.8,44.5 431.9,44.0 434.0,43.7 436.0,43.5 438.1,43.4 440.2,43.3 442.3,43.0 444.4,42.5 446.5,42.4 448.6,42.2 450.7,41.9 452.8,41.7 454.9,41.4 457.0,41.2 459.1,41.0 461.2,40.7 463.3,40.4 465.3,40.0 467.4,39.7 469.5,39.6 471.6,39.5 473.7,39.4 475.8,39.1 477.9,38.9 480.0,38.6 482.1,38.4 484.2,38.1 486.3,37.9 488.4,37.8 490.5,37.5 492.6,37.3 494.7,37.0 496.7,36.7 498.8,36.4 500.9,36.1 503.0,36.0 505.1,35.8 507.2,35.7 509.3,35.5 511.4,35.4 513.5,35.1 515.6,34.8 517.7,34.6 519.8,34.3 521.9,34.2 524.0,34.0 526.0,33.7 528.1,33.5 530.2,33.3 532.3,33.1 534.4,32.9 536.5,32.6 538.6,32.4 540.7,32.1 542.8,32.0 544.9,31.9 547.0,31.7 549.1,31.5 551.2,31.3 553.3,31.1 555.3,31.0 557.4,30.8 559.5,30.3 561.6,30.0 563.7,36.8 565.8,35.4 567.9,32.9 570.0,31.9" />
  
  <!-- Punto finale luminoso -->
  <circle cx="570.0" cy="31.9" r="4" fill="#ffffff" stroke="#0366d6" stroke-width="2.5" />
</svg>