<svg width="600" height="150" viewBox="0 0 600 150" xmlns="http://www.w3.org/2000/svg">
  <defs>
    <filter id="shadow2" x="-2%" y="-2%" width="104%" height="108%">
      <feDropShadow dx="0" dy="2" stdDeviation="3" flood-opacity="0.1" />
    </filter>
    <linearGradient id="fillGrad" x1="0" y1="0" x2="0" y2="1">
      <stop offset="0%" stop-color="#0366d6" stop-opacity="0.3"/>
      <stop offset="100%" stop-color="#0366d6" stop-opacity="0.02"/>
    </linearGradient>
  </defs>
  <rect width="600" height="150" rx="12" fill="#ffffff" filter="url(#shadow2)" stroke="#e1e4e8" stroke-width="1"/>
  <text x="20" y="24" fill="#2b3137" font-family="-apple-system,BlinkMacSystemFont,'Segoe UI',Helvetica,Arial,sans-serif" font-size="14" font-weight="600">📈 Download Growth (Actual: 77.1k)</text>
  
  <!-- Area sotto la linea -->
  <polygon fill="url(#fillGrad)" points="30.0,120.0,120 30.0,120.0 32.9,119.0 35.9,117.9 38.8,117.0 41.7,116.8 44.7,116.3 47.6,115.1 50.5,114.3 53.5,113.8 56.4,112.7 59.3,112.1 62.3,111.5 65.2,111.1 68.2,110.6 71.1,109.8 74.0,108.9 77.0,108.3 79.9,107.9 82.8,107.5 85.8,107.0 88.7,106.4 91.6,105.8 94.6,105.6 97.5,105.0 100.4,103.2 103.4,102.6 106.3,101.9 109.2,101.2 112.2,100.5 115.1,99.9 118.0,99.5 121.0,99.2 123.9,98.7 126.8,97.8 129.8,97.0 132.7,96.5 135.7,95.8 138.6,95.7 141.5,95.5 144.5,95.2 147.4,94.6 150.3,94.2 153.3,94.0 156.2,93.3 159.1,92.3 162.1,92.0 165.0,91.9 167.9,91.5 170.9,90.7 173.8,90.1 176.7,89.3 179.7,88.7 182.6,88.0 185.5,87.8 188.5,87.4 191.4,86.7 194.3,85.9 197.3,85.3 200.2,85.1 203.2,84.7 206.1,84.4 209.0,83.5 212.0,82.8 214.9,82.1 217.8,81.4 220.8,81.0 223.7,80.8 226.6,80.5 229.6,79.9 232.5,79.6 235.4,79.2 238.4,79.0 241.3,78.7 244.2,78.3 247.2,78.0 250.1,77.9 253.0,77.7 256.0,76.9 258.9,76.5 261.8,76.3 264.8,76.1 267.7,75.9 270.7,75.9 273.6,88.5 276.5,87.3 279.5,86.2 282.4,85.0 285.3,81.6 288.3,79.2 291.2,76.6 294.1,75.6 297.1,74.6 300.0,72.8 302.9,70.9 305.9,69.5 308.8,68.9 311.7,68.4 314.7,67.0 317.6,66.0 320.5,65.4 323.5,64.6 326.4,64.3 329.3,64.1 332.3,63.4 335.2,62.2 338.2,61.4 341.1,60.5 344.0,59.6 347.0,59.1 349.9,58.8 352.8,58.0 355.8,57.2 358.7,56.5 361.6,56.0 364.6,55.7 367.5,55.6 370.4,55.1 373.4,54.5 376.3,54.0 379.2,53.6 382.2,53.2 385.1,52.9 388.0,52.5 391.0,52.2 393.9,51.9 396.8,51.6 399.8,50.9 402.7,50.4 405.7,49.9 408.6,49.5 411.5,49.2 414.5,48.9 417.4,48.6 420.3,48.3 423.3,47.4 426.2,46.8 429.1,46.0 432.1,45.7 435.0,45.7 437.9,45.3 440.9,44.9 443.8,44.4 446.7,44.0 449.7,43.4 452.6,43.1 455.5,42.9 458.5,42.6 461.4,42.4 464.3,42.1 467.3,41.7 470.2,41.4 473.2,40.9 476.1,40.6 479.0,40.4 482.0,40.2 484.9,40.0 487.8,39.5 490.8,39.2 493.7,38.7 496.6,38.3 499.6,37.9 502.5,37.6 505.4,37.5 508.4,37.2 511.3,36.6 514.2,36.1 517.2,35.7 520.1,35.3 523.0,34.6 526.0,34.5 528.9,34.3 531.8,34.1 534.8,33.7 537.7,33.4 540.7,33.0 543.6,32.8 546.5,32.4 549.5,32.2 552.4,31.9 555.3,31.6 558.3,31.5 561.2,31.1 564.1,30.6 567.1,30.4 570.0,30.0 570.0,30.0,120" />
  
  <!-- Linea principale -->
  <polyline fill="none" stroke="#0366d6" stroke-width="2.5" stroke-linecap="round" stroke-linejoin="round" points="30.0,120.0 32.9,119.0 35.9,117.9 38.8,117.0 41.7,116.8 44.7,116.3 47.6,115.1 50.5,114.3 53.5,113.8 56.4,112.7 59.3,112.1 62.3,111.5 65.2,111.1 68.2,110.6 71.1,109.8 74.0,108.9 77.0,108.3 79.9,107.9 82.8,107.5 85.8,107.0 88.7,106.4 91.6,105.8 94.6,105.6 97.5,105.0 100.4,103.2 103.4,102.6 106.3,101.9 109.2,101.2 112.2,100.5 115.1,99.9 118.0,99.5 121.0,99.2 123.9,98.7 126.8,97.8 129.8,97.0 132.7,96.5 135.7,95.8 138.6,95.7 141.5,95.5 144.5,95.2 147.4,94.6 150.3,94.2 153.3,94.0 156.2,93.3 159.1,92.3 162.1,92.0 165.0,91.9 167.9,91.5 170.9,90.7 173.8,90.1 176.7,89.3 179.7,88.7 182.6,88.0 185.5,87.8 188.5,87.4 191.4,86.7 194.3,85.9 197.3,85.3 200.2,85.1 203.2,84.7 206.1,84.4 209.0,83.5 212.0,82.8 214.9,82.1 217.8,81.4 220.8,81.0 223.7,80.8 226.6,80.5 229.6,79.9 232.5,79.6 235.4,79.2 238.4,79.0 241.3,78.7 244.2,78.3 247.2,78.0 250.1,77.9 253.0,77.7 256.0,76.9 258.9,76.5 261.8,76.3 264.8,76.1 267.7,75.9 270.7,75.9 273.6,88.5 276.5,87.3 279.5,86.2 282.4,85.0 285.3,81.6 288.3,79.2 291.2,76.6 294.1,75.6 297.1,74.6 300.0,72.8 302.9,70.9 305.9,69.5 308.8,68.9 311.7,68.4 314.7,67.0 317.6,66.0 320.5,65.4 323.5,64.6 326.4,64.3 329.3,64.1 332.3,63.4 335.2,62.2 338.2,61.4 341.1,60.5 344.0,59.6 347.0,59.1 349.9,58.8 352.8,58.0 355.8,57.2 358.7,56.5 361.6,56.0 364.6,55.7 367.5,55.6 370.4,55.1 373.4,54.5 376.3,54.0 379.2,53.6 382.2,53.2 385.1,52.9 388.0,52.5 391.0,52.2 393.9,51.9 396.8,51.6 399.8,50.9 402.7,50.4 405.7,49.9 408.6,49.5 411.5,49.2 414.5,48.9 417.4,48.6 420.3,48.3 423.3,47.4 426.2,46.8 429.1,46.0 432.1,45.7 435.0,45.7 437.9,45.3 440.9,44.9 443.8,44.4 446.7,44.0 449.7,43.4 452.6,43.1 455.5,42.9 458.5,42.6 461.4,42.4 464.3,42.1 467.3,41.7 470.2,41.4 473.2,40.9 476.1,40.6 479.0,40.4 482.0,40.2 484.9,40.0 487.8,39.5 490.8,39.2 493.7,38.7 496.6,38.3 499.6,37.9 502.5,37.6 505.4,37.5 508.4,37.2 511.3,36.6 514.2,36.1 517.2,35.7 520.1,35.3 523.0,34.6 526.0,34.5 528.9,34.3 531.8,34.1 534.8,33.7 537.7,33.4 540.7,33.0 543.6,32.8 546.5,32.4 549.5,32.2 552.4,31.9 555.3,31.6 558.3,31.5 561.2,31.1 564.1,30.6 567.1,30.4 570.0,30.0" />
  
  <!-- Punto finale luminoso -->
  <circle cx="570.0" cy="30.0" r="4" fill="#ffffff" stroke="#0366d6" stroke-width="2.5" />
</svg>