<svg width="600" height="150" viewBox="0 0 600 150" xmlns="http://www.w3.org/2000/svg">
  <defs>
    <filter id="shadow2" x="-2%" y="-2%" width="104%" height="108%">
      <feDropShadow dx="0" dy="2" stdDeviation="3" flood-opacity="0.1" />
    </filter>
    <linearGradient id="fillGrad" x1="0" y1="0" x2="0" y2="1">
      <stop offset="0%" stop-color="#0366d6" stop-opacity="0.3"/>
      <stop offset="100%" stop-color="#0366d6" stop-opacity="0.02"/>
    </linearGradient>
  </defs>
  <rect width="600" height="150" rx="12" fill="#ffffff" filter="url(#shadow2)" stroke="#e1e4e8" stroke-width="1"/>
  <text x="20" y="24" fill="#2b3137" font-family="-apple-system,BlinkMacSystemFont,'Segoe UI',Helvetica,Arial,sans-serif" font-size="14" font-weight="600">📈 Download Growth (Actual: 78.9k)</text>
  
  <!-- Area sotto la linea -->
  <polygon fill="url(#fillGrad)" points="30.0,120.0,120 30.0,120.0 32.3,119.2 34.5,118.2 36.8,117.4 39.0,117.2 41.3,116.8 43.6,115.8 45.8,115.2 48.1,114.8 50.3,113.7 52.6,113.2 54.9,112.7 57.1,112.4 59.4,112.0 61.6,111.3 63.9,110.6 66.2,110.0 68.4,109.7 70.7,109.4 72.9,108.9 75.2,108.4 77.4,107.9 79.7,107.7 82.0,107.3 84.2,105.7 86.5,105.2 88.7,104.6 91.0,104.0 93.3,103.4 95.5,102.9 97.8,102.6 100.0,102.3 102.3,101.8 104.6,101.1 106.8,100.4 109.1,100.0 111.3,99.4 113.6,99.3 115.9,99.1 118.1,98.9 120.4,98.4 122.6,98.1 124.9,97.8 127.2,97.3 129.4,96.4 131.7,96.2 133.9,96.0 136.2,95.7 138.5,95.0 140.7,94.6 143.0,93.9 145.2,93.4 147.5,92.8 149.7,92.6 152.0,92.3 154.3,91.6 156.5,91.0 158.8,90.5 161.0,90.3 163.3,90.0 165.6,89.7 167.8,89.0 170.1,88.3 172.3,87.7 174.6,87.1 176.9,86.8 179.1,86.6 181.4,86.4 183.6,85.9 185.9,85.6 188.2,85.3 190.4,85.1 192.7,84.9 194.9,84.5 197.2,84.3 199.5,84.1 201.7,84.0 204.0,83.3 206.2,83.0 208.5,82.8 210.8,82.6 213.0,82.5 215.3,82.5 217.5,93.2 219.8,92.2 222.1,91.2 224.3,90.2 226.6,87.3 228.8,85.3 231.1,83.1 233.3,82.2 235.6,81.3 237.9,79.8 240.1,78.2 242.4,77.0 244.6,76.5 246.9,76.1 249.2,74.9 251.4,74.1 253.7,73.5 255.9,72.8 258.2,72.5 260.5,72.4 262.7,71.8 265.0,70.8 267.2,70.1 269.5,69.4 271.8,68.6 274.0,68.2 276.3,67.9 278.5,67.2 280.8,66.6 283.1,66.0 285.3,65.5 287.6,65.3 289.8,65.1 292.1,64.8 294.4,64.3 296.6,63.9 298.9,63.5 301.1,63.2 303.4,62.9 305.6,62.6 307.9,62.3 310.2,62.0 312.4,61.8 314.7,61.2 316.9,60.8 319.2,60.3 321.5,60.0 323.7,59.7 326.0,59.5 328.2,59.3 330.5,59.0 332.8,58.2 335.0,57.7 337.3,57.1 339.5,56.8 341.8,56.7 344.1,56.4 346.3,56.1 348.6,55.7 350.8,55.3 353.1,54.8 355.4,54.5 357.6,54.4 359.9,54.1 362.1,53.9 364.4,53.7 366.7,53.4 368.9,53.1 371.2,52.7 373.4,52.4 375.7,52.3 377.9,52.1 380.2,51.9 382.5,51.5 384.7,51.2 387.0,50.8 389.2,50.5 391.5,50.1 393.8,49.9 396.0,49.8 398.3,49.5 400.5,49.0 402.8,48.6 405.1,48.3 407.3,47.9 409.6,47.3 411.8,47.2 414.1,47.0 416.4,46.9 418.6,46.6 420.9,46.3 423.1,46.0 425.4,45.7 427.7,45.5 429.9,45.2 432.2,45.0 434.4,44.8 436.7,44.7 439.0,44.4 441.2,43.9 443.5,43.7 445.7,43.4 448.0,43.2 450.3,43.0 452.5,42.8 454.8,42.6 457.0,42.4 459.3,42.1 461.5,41.7 463.8,41.2 466.1,40.8 468.3,40.6 470.6,40.5 472.8,40.4 475.1,40.1 477.4,39.6 479.6,39.4 481.9,39.3 484.1,38.9 486.4,38.7 488.7,38.4 490.9,38.2 493.2,38.0 495.4,37.7 497.7,37.4 500.0,37.0 502.2,36.7 504.5,36.5 506.7,36.4 509.0,36.3 511.3,36.1 513.5,35.8 515.8,35.6 518.0,35.3 520.3,35.0 522.6,34.8 524.8,34.7 527.1,34.4 529.3,34.2 531.6,33.9 533.8,33.5 536.1,33.3 538.4,33.0 540.6,32.8 542.9,32.6 545.1,32.5 547.4,32.3 549.7,32.2 551.9,31.9 554.2,31.6 556.4,31.3 558.7,31.1 561.0,30.9 563.2,30.7 565.5,30.5 567.7,30.2 570.0,30.0 570.0,30.0,120" />
  
  <!-- Linea principale -->
  <polyline fill="none" stroke="#0366d6" stroke-width="2.5" stroke-linecap="round" stroke-linejoin="round" points="30.0,120.0 32.3,119.2 34.5,118.2 36.8,117.4 39.0,117.2 41.3,116.8 43.6,115.8 45.8,115.2 48.1,114.8 50.3,113.7 52.6,113.2 54.9,112.7 57.1,112.4 59.4,112.0 61.6,111.3 63.9,110.6 66.2,110.0 68.4,109.7 70.7,109.4 72.9,108.9 75.2,108.4 77.4,107.9 79.7,107.7 82.0,107.3 84.2,105.7 86.5,105.2 88.7,104.6 91.0,104.0 93.3,103.4 95.5,102.9 97.8,102.6 100.0,102.3 102.3,101.8 104.6,101.1 106.8,100.4 109.1,100.0 111.3,99.4 113.6,99.3 115.9,99.1 118.1,98.9 120.4,98.4 122.6,98.1 124.9,97.8 127.2,97.3 129.4,96.4 131.7,96.2 133.9,96.0 136.2,95.7 138.5,95.0 140.7,94.6 143.0,93.9 145.2,93.4 147.5,92.8 149.7,92.6 152.0,92.3 154.3,91.6 156.5,91.0 158.8,90.5 161.0,90.3 163.3,90.0 165.6,89.7 167.8,89.0 170.1,88.3 172.3,87.7 174.6,87.1 176.9,86.8 179.1,86.6 181.4,86.4 183.6,85.9 185.9,85.6 188.2,85.3 190.4,85.1 192.7,84.9 194.9,84.5 197.2,84.3 199.5,84.1 201.7,84.0 204.0,83.3 206.2,83.0 208.5,82.8 210.8,82.6 213.0,82.5 215.3,82.5 217.5,93.2 219.8,92.2 222.1,91.2 224.3,90.2 226.6,87.3 228.8,85.3 231.1,83.1 233.3,82.2 235.6,81.3 237.9,79.8 240.1,78.2 242.4,77.0 244.6,76.5 246.9,76.1 249.2,74.9 251.4,74.1 253.7,73.5 255.9,72.8 258.2,72.5 260.5,72.4 262.7,71.8 265.0,70.8 267.2,70.1 269.5,69.4 271.8,68.6 274.0,68.2 276.3,67.9 278.5,67.2 280.8,66.6 283.1,66.0 285.3,65.5 287.6,65.3 289.8,65.1 292.1,64.8 294.4,64.3 296.6,63.9 298.9,63.5 301.1,63.2 303.4,62.9 305.6,62.6 307.9,62.3 310.2,62.0 312.4,61.8 314.7,61.2 316.9,60.8 319.2,60.3 321.5,60.0 323.7,59.7 326.0,59.5 328.2,59.3 330.5,59.0 332.8,58.2 335.0,57.7 337.3,57.1 339.5,56.8 341.8,56.7 344.1,56.4 346.3,56.1 348.6,55.7 350.8,55.3 353.1,54.8 355.4,54.5 357.6,54.4 359.9,54.1 362.1,53.9 364.4,53.7 366.7,53.4 368.9,53.1 371.2,52.7 373.4,52.4 375.7,52.3 377.9,52.1 380.2,51.9 382.5,51.5 384.7,51.2 387.0,50.8 389.2,50.5 391.5,50.1 393.8,49.9 396.0,49.8 398.3,49.5 400.5,49.0 402.8,48.6 405.1,48.3 407.3,47.9 409.6,47.3 411.8,47.2 414.1,47.0 416.4,46.9 418.6,46.6 420.9,46.3 423.1,46.0 425.4,45.7 427.7,45.5 429.9,45.2 432.2,45.0 434.4,44.8 436.7,44.7 439.0,44.4 441.2,43.9 443.5,43.7 445.7,43.4 448.0,43.2 450.3,43.0 452.5,42.8 454.8,42.6 457.0,42.4 459.3,42.1 461.5,41.7 463.8,41.2 466.1,40.8 468.3,40.6 470.6,40.5 472.8,40.4 475.1,40.1 477.4,39.6 479.6,39.4 481.9,39.3 484.1,38.9 486.4,38.7 488.7,38.4 490.9,38.2 493.2,38.0 495.4,37.7 497.7,37.4 500.0,37.0 502.2,36.7 504.5,36.5 506.7,36.4 509.0,36.3 511.3,36.1 513.5,35.8 515.8,35.6 518.0,35.3 520.3,35.0 522.6,34.8 524.8,34.7 527.1,34.4 529.3,34.2 531.6,33.9 533.8,33.5 536.1,33.3 538.4,33.0 540.6,32.8 542.9,32.6 545.1,32.5 547.4,32.3 549.7,32.2 551.9,31.9 554.2,31.6 556.4,31.3 558.7,31.1 561.0,30.9 563.2,30.7 565.5,30.5 567.7,30.2 570.0,30.0" />
  
  <!-- Punto finale luminoso -->
  <circle cx="570.0" cy="30.0" r="4" fill="#ffffff" stroke="#0366d6" stroke-width="2.5" />
</svg>