<svg width="600" height="150" viewBox="0 0 600 150" xmlns="http://www.w3.org/2000/svg">
  <defs>
    <filter id="shadow2" x="-2%" y="-2%" width="104%" height="108%">
      <feDropShadow dx="0" dy="2" stdDeviation="3" flood-opacity="0.1" />
    </filter>
    <linearGradient id="fillGrad" x1="0" y1="0" x2="0" y2="1">
      <stop offset="0%" stop-color="#0366d6" stop-opacity="0.3"/>
      <stop offset="100%" stop-color="#0366d6" stop-opacity="0.02"/>
    </linearGradient>
  </defs>
  <rect width="600" height="150" rx="12" fill="#ffffff" filter="url(#shadow2)" stroke="#e1e4e8" stroke-width="1"/>
  <text x="20" y="24" fill="#2b3137" font-family="-apple-system,BlinkMacSystemFont,'Segoe UI',Helvetica,Arial,sans-serif" font-size="14" font-weight="600">📈 Download Growth (Actual: 87.4k)</text>
  
  <!-- Area sotto la linea -->
  <polygon fill="url(#fillGrad)" points="30.0,120.0,120 30.0,120.0 31.3,119.5 32.6,119.0 34.0,118.5 35.3,118.4 36.6,118.1 37.9,117.6 39.2,117.2 40.6,116.9 41.9,116.4 43.2,116.1 44.5,115.8 45.8,115.6 47.2,115.3 48.5,114.9 49.8,114.5 51.1,114.2 52.4,114.0 53.8,113.8 55.1,113.6 56.4,113.2 57.7,113.0 59.0,112.8 60.4,112.6 61.7,111.7 63.0,111.4 64.3,111.0 65.6,110.7 67.0,110.3 68.3,110.0 69.6,109.8 70.9,109.7 72.2,109.4 73.6,109.0 74.9,108.6 76.2,108.3 77.5,108.0 78.9,107.9 80.2,107.8 81.5,107.7 82.8,107.4 84.1,107.2 85.5,107.1 86.8,106.7 88.1,106.2 89.4,106.1 90.7,106.0 92.1,105.8 93.4,105.4 94.7,105.2 96.0,104.8 97.3,104.5 98.7,104.1 100.0,104.0 101.3,103.8 102.6,103.5 103.9,103.1 105.3,102.8 106.6,102.7 107.9,102.5 109.2,102.3 110.5,101.9 111.9,101.5 113.2,101.2 114.5,100.8 115.8,100.6 117.1,100.5 118.5,100.4 119.8,100.1 121.1,99.9 122.4,99.8 123.7,99.6 125.1,99.5 126.4,99.3 127.7,99.2 129.0,99.1 130.3,99.0 131.7,98.6 133.0,98.4 134.3,98.3 135.6,98.2 136.9,98.1 138.3,98.1 139.6,104.4 140.9,103.8 142.2,103.2 143.5,102.6 144.9,100.9 146.2,99.7 147.5,98.5 148.8,98.0 150.1,97.4 151.5,96.6 152.8,95.6 154.1,94.9 155.4,94.6 156.7,94.4 158.1,93.7 159.4,93.2 160.7,92.9 162.0,92.5 163.3,92.3 164.7,92.3 166.0,91.9 167.3,91.3 168.6,90.9 170.0,90.5 171.3,90.0 172.6,89.8 173.9,89.6 175.2,89.2 176.6,88.8 177.9,88.5 179.2,88.2 180.5,88.1 181.8,88.0 183.2,87.8 184.5,87.5 185.8,87.3 187.1,87.0 188.4,86.8 189.8,86.7 191.1,86.5 192.4,86.3 193.7,86.2 195.0,86.0 196.4,85.7 197.7,85.5 199.0,85.2 200.3,85.0 201.6,84.8 203.0,84.7 204.3,84.6 205.6,84.4 206.9,84.0 208.2,83.7 209.6,83.3 210.9,83.1 212.2,83.1 213.5,82.9 214.8,82.7 216.2,82.5 217.5,82.3 218.8,82.0 220.1,81.8 221.4,81.7 222.8,81.6 224.1,81.5 225.4,81.3 226.7,81.1 228.0,81.0 229.4,80.7 230.7,80.6 232.0,80.5 233.3,80.4 234.6,80.3 236.0,80.1 237.3,79.9 238.6,79.6 239.9,79.5 241.2,79.3 242.6,79.1 243.9,79.0 245.2,78.9 246.5,78.6 247.8,78.3 249.2,78.2 250.5,78.0 251.8,77.6 253.1,77.5 254.4,77.4 255.8,77.3 257.1,77.2 258.4,77.0 259.7,76.8 261.1,76.7 262.4,76.5 263.7,76.4 265.0,76.2 266.3,76.1 267.7,76.1 269.0,75.9 270.3,75.6 271.6,75.5 272.9,75.3 274.3,75.2 275.6,75.1 276.9,74.9 278.2,74.8 279.5,74.7 280.9,74.6 282.2,74.3 283.5,74.0 284.8,73.8 286.1,73.7 287.5,73.6 288.8,73.6 290.1,73.4 291.4,73.1 292.7,73.0 294.1,72.9 295.4,72.7 296.7,72.6 298.0,72.4 299.3,72.3 300.7,72.2 302.0,72.0 303.3,71.8 304.6,71.6 305.9,71.4 307.3,71.3 308.6,71.3 309.9,71.2 311.2,71.1 312.5,70.9 313.9,70.8 315.2,70.6 316.5,70.4 317.8,70.3 319.1,70.2 320.5,70.1 321.8,70.0 323.1,69.8 324.4,69.6 325.7,69.4 327.1,69.2 328.4,69.1 329.7,69.0 331.0,69.0 332.3,68.9 333.7,68.8 335.0,68.6 336.3,68.4 337.6,68.3 338.9,68.1 340.3,68.0 341.6,67.9 342.9,67.8 344.2,67.6 345.6,67.5 346.9,67.4 348.2,67.3 349.5,67.1 350.8,67.0 352.2,66.8 353.5,66.7 354.8,66.7 356.1,66.5 357.4,66.4 358.8,66.3 360.1,66.2 361.4,66.1 362.7,66.0 364.0,65.7 365.4,65.5 366.7,69.6 368.0,68.8 369.3,67.3 370.6,66.7 372.0,66.0 373.3,65.1 374.6,64.6 375.9,64.3 377.2,63.7 378.6,62.8 379.9,62.1 381.2,61.9 382.5,61.6 383.8,61.3 385.2,60.9 386.5,60.4 387.8,59.9 389.1,59.7 390.4,59.2 391.8,59.0 393.1,58.7 394.4,58.5 395.7,58.3 397.0,58.1 398.4,57.6 399.7,57.3 401.0,56.9 402.3,56.3 403.6,56.0 405.0,55.8 406.3,55.7 407.6,55.4 408.9,55.1 410.2,54.8 411.6,54.5 412.9,53.6 414.2,53.0 415.5,52.7 416.8,52.5 418.2,52.3 419.5,51.8 420.8,51.5 422.1,51.2 423.4,50.9 424.8,50.6 426.1,50.3 427.4,50.0 428.7,49.7 430.0,49.4 431.4,49.3 432.7,49.1 434.0,48.7 435.3,48.5 436.7,48.3 438.0,48.1 439.3,48.0 440.6,47.7 441.9,47.6 443.3,47.4 444.6,47.2 445.9,47.0 447.2,46.9 448.5,46.6 449.9,46.4 451.2,46.1 452.5,45.8 453.8,45.5 455.1,45.4 456.5,45.2 457.8,45.0 459.1,44.9 460.4,44.7 461.7,44.5 463.1,44.4 464.4,44.3 465.7,44.1 467.0,44.0 468.3,43.7 469.7,43.6 471.0,43.4 472.3,43.2 473.6,42.9 474.9,42.5 476.3,42.4 477.6,42.2 478.9,42.0 480.2,41.7 481.5,41.5 482.9,41.3 484.2,41.1 485.5,41.0 486.8,40.9 488.1,40.7 489.5,40.4 490.8,40.3 492.1,40.2 493.4,39.9 494.7,39.7 496.1,39.5 497.4,39.3 498.7,39.1 500.0,38.8 501.3,38.6 502.7,38.4 504.0,38.3 505.3,38.2 506.6,38.0 507.9,37.8 509.3,37.6 510.6,37.4 511.9,37.3 513.2,37.2 514.5,37.0 515.9,36.8 517.2,36.7 518.5,36.6 519.8,36.4 521.1,36.4 522.5,36.2 523.8,36.0 525.1,35.9 526.4,35.7 527.8,35.6 529.1,35.4 530.4,35.2 531.7,35.0 533.0,34.9 534.4,34.8 535.7,34.6 537.0,34.4 538.3,34.2 539.6,33.9 541.0,33.8 542.3,33.7 543.6,33.7 544.9,33.5 546.2,33.4 547.6,33.1 548.9,32.9 550.2,32.8 551.5,32.5 552.8,32.4 554.2,32.3 555.5,32.1 556.8,32.0 558.1,31.7 559.4,31.5 560.8,31.4 562.1,31.2 563.4,31.0 564.7,30.8 566.0,30.5 567.4,30.4 568.7,30.3 570.0,30.0 570.0,30.0,120" />
  
  <!-- Linea principale -->
  <polyline fill="none" stroke="#0366d6" stroke-width="2.5" stroke-linecap="round" stroke-linejoin="round" points="30.0,120.0 31.3,119.5 32.6,119.0 34.0,118.5 35.3,118.4 36.6,118.1 37.9,117.6 39.2,117.2 40.6,116.9 41.9,116.4 43.2,116.1 44.5,115.8 45.8,115.6 47.2,115.3 48.5,114.9 49.8,114.5 51.1,114.2 52.4,114.0 53.8,113.8 55.1,113.6 56.4,113.2 57.7,113.0 59.0,112.8 60.4,112.6 61.7,111.7 63.0,111.4 64.3,111.0 65.6,110.7 67.0,110.3 68.3,110.0 69.6,109.8 70.9,109.7 72.2,109.4 73.6,109.0 74.9,108.6 76.2,108.3 77.5,108.0 78.9,107.9 80.2,107.8 81.5,107.7 82.8,107.4 84.1,107.2 85.5,107.1 86.8,106.7 88.1,106.2 89.4,106.1 90.7,106.0 92.1,105.8 93.4,105.4 94.7,105.2 96.0,104.8 97.3,104.5 98.7,104.1 100.0,104.0 101.3,103.8 102.6,103.5 103.9,103.1 105.3,102.8 106.6,102.7 107.9,102.5 109.2,102.3 110.5,101.9 111.9,101.5 113.2,101.2 114.5,100.8 115.8,100.6 117.1,100.5 118.5,100.4 119.8,100.1 121.1,99.9 122.4,99.8 123.7,99.6 125.1,99.5 126.4,99.3 127.7,99.2 129.0,99.1 130.3,99.0 131.7,98.6 133.0,98.4 134.3,98.3 135.6,98.2 136.9,98.1 138.3,98.1 139.6,104.4 140.9,103.8 142.2,103.2 143.5,102.6 144.9,100.9 146.2,99.7 147.5,98.5 148.8,98.0 150.1,97.4 151.5,96.6 152.8,95.6 154.1,94.9 155.4,94.6 156.7,94.4 158.1,93.7 159.4,93.2 160.7,92.9 162.0,92.5 163.3,92.3 164.7,92.3 166.0,91.9 167.3,91.3 168.6,90.9 170.0,90.5 171.3,90.0 172.6,89.8 173.9,89.6 175.2,89.2 176.6,88.8 177.9,88.5 179.2,88.2 180.5,88.1 181.8,88.0 183.2,87.8 184.5,87.5 185.8,87.3 187.1,87.0 188.4,86.8 189.8,86.7 191.1,86.5 192.4,86.3 193.7,86.2 195.0,86.0 196.4,85.7 197.7,85.5 199.0,85.2 200.3,85.0 201.6,84.8 203.0,84.7 204.3,84.6 205.6,84.4 206.9,84.0 208.2,83.7 209.6,83.3 210.9,83.1 212.2,83.1 213.5,82.9 214.8,82.7 216.2,82.5 217.5,82.3 218.8,82.0 220.1,81.8 221.4,81.7 222.8,81.6 224.1,81.5 225.4,81.3 226.7,81.1 228.0,81.0 229.4,80.7 230.7,80.6 232.0,80.5 233.3,80.4 234.6,80.3 236.0,80.1 237.3,79.9 238.6,79.6 239.9,79.5 241.2,79.3 242.6,79.1 243.9,79.0 245.2,78.9 246.5,78.6 247.8,78.3 249.2,78.2 250.5,78.0 251.8,77.6 253.1,77.5 254.4,77.4 255.8,77.3 257.1,77.2 258.4,77.0 259.7,76.8 261.1,76.7 262.4,76.5 263.7,76.4 265.0,76.2 266.3,76.1 267.7,76.1 269.0,75.9 270.3,75.6 271.6,75.5 272.9,75.3 274.3,75.2 275.6,75.1 276.9,74.9 278.2,74.8 279.5,74.7 280.9,74.6 282.2,74.3 283.5,74.0 284.8,73.8 286.1,73.7 287.5,73.6 288.8,73.6 290.1,73.4 291.4,73.1 292.7,73.0 294.1,72.9 295.4,72.7 296.7,72.6 298.0,72.4 299.3,72.3 300.7,72.2 302.0,72.0 303.3,71.8 304.6,71.6 305.9,71.4 307.3,71.3 308.6,71.3 309.9,71.2 311.2,71.1 312.5,70.9 313.9,70.8 315.2,70.6 316.5,70.4 317.8,70.3 319.1,70.2 320.5,70.1 321.8,70.0 323.1,69.8 324.4,69.6 325.7,69.4 327.1,69.2 328.4,69.1 329.7,69.0 331.0,69.0 332.3,68.9 333.7,68.8 335.0,68.6 336.3,68.4 337.6,68.3 338.9,68.1 340.3,68.0 341.6,67.9 342.9,67.8 344.2,67.6 345.6,67.5 346.9,67.4 348.2,67.3 349.5,67.1 350.8,67.0 352.2,66.8 353.5,66.7 354.8,66.7 356.1,66.5 357.4,66.4 358.8,66.3 360.1,66.2 361.4,66.1 362.7,66.0 364.0,65.7 365.4,65.5 366.7,69.6 368.0,68.8 369.3,67.3 370.6,66.7 372.0,66.0 373.3,65.1 374.6,64.6 375.9,64.3 377.2,63.7 378.6,62.8 379.9,62.1 381.2,61.9 382.5,61.6 383.8,61.3 385.2,60.9 386.5,60.4 387.8,59.9 389.1,59.7 390.4,59.2 391.8,59.0 393.1,58.7 394.4,58.5 395.7,58.3 397.0,58.1 398.4,57.6 399.7,57.3 401.0,56.9 402.3,56.3 403.6,56.0 405.0,55.8 406.3,55.7 407.6,55.4 408.9,55.1 410.2,54.8 411.6,54.5 412.9,53.6 414.2,53.0 415.5,52.7 416.8,52.5 418.2,52.3 419.5,51.8 420.8,51.5 422.1,51.2 423.4,50.9 424.8,50.6 426.1,50.3 427.4,50.0 428.7,49.7 430.0,49.4 431.4,49.3 432.7,49.1 434.0,48.7 435.3,48.5 436.7,48.3 438.0,48.1 439.3,48.0 440.6,47.7 441.9,47.6 443.3,47.4 444.6,47.2 445.9,47.0 447.2,46.9 448.5,46.6 449.9,46.4 451.2,46.1 452.5,45.8 453.8,45.5 455.1,45.4 456.5,45.2 457.8,45.0 459.1,44.9 460.4,44.7 461.7,44.5 463.1,44.4 464.4,44.3 465.7,44.1 467.0,44.0 468.3,43.7 469.7,43.6 471.0,43.4 472.3,43.2 473.6,42.9 474.9,42.5 476.3,42.4 477.6,42.2 478.9,42.0 480.2,41.7 481.5,41.5 482.9,41.3 484.2,41.1 485.5,41.0 486.8,40.9 488.1,40.7 489.5,40.4 490.8,40.3 492.1,40.2 493.4,39.9 494.7,39.7 496.1,39.5 497.4,39.3 498.7,39.1 500.0,38.8 501.3,38.6 502.7,38.4 504.0,38.3 505.3,38.2 506.6,38.0 507.9,37.8 509.3,37.6 510.6,37.4 511.9,37.3 513.2,37.2 514.5,37.0 515.9,36.8 517.2,36.7 518.5,36.6 519.8,36.4 521.1,36.4 522.5,36.2 523.8,36.0 525.1,35.9 526.4,35.7 527.8,35.6 529.1,35.4 530.4,35.2 531.7,35.0 533.0,34.9 534.4,34.8 535.7,34.6 537.0,34.4 538.3,34.2 539.6,33.9 541.0,33.8 542.3,33.7 543.6,33.7 544.9,33.5 546.2,33.4 547.6,33.1 548.9,32.9 550.2,32.8 551.5,32.5 552.8,32.4 554.2,32.3 555.5,32.1 556.8,32.0 558.1,31.7 559.4,31.5 560.8,31.4 562.1,31.2 563.4,31.0 564.7,30.8 566.0,30.5 567.4,30.4 568.7,30.3 570.0,30.0" />
  
  <!-- Punto finale luminoso -->
  <circle cx="570.0" cy="30.0" r="4" fill="#ffffff" stroke="#0366d6" stroke-width="2.5" />
</svg>