<svg width="600" height="150" viewBox="0 0 600 150" xmlns="http://www.w3.org/2000/svg">
  <defs>
    <filter id="shadow2" x="-2%" y="-2%" width="104%" height="108%">
      <feDropShadow dx="0" dy="2" stdDeviation="3" flood-opacity="0.1" />
    </filter>
    <linearGradient id="fillGrad" x1="0" y1="0" x2="0" y2="1">
      <stop offset="0%" stop-color="#0366d6" stop-opacity="0.3"/>
      <stop offset="100%" stop-color="#0366d6" stop-opacity="0.02"/>
    </linearGradient>
  </defs>
  <rect width="600" height="150" rx="12" fill="#ffffff" filter="url(#shadow2)" stroke="#e1e4e8" stroke-width="1"/>
  <text x="20" y="24" fill="#2b3137" font-family="-apple-system,BlinkMacSystemFont,'Segoe UI',Helvetica,Arial,sans-serif" font-size="14" font-weight="600">📈 Download Growth (Actual: 83.6k)</text>
  
  <!-- Area sotto la linea -->
  <polygon fill="url(#fillGrad)" points="30.0,120.0,120 30.0,120.0 31.7,119.4 33.4,118.7 35.1,118.2 36.8,118.0 38.5,117.7 40.2,117.0 41.9,116.6 43.6,116.2 45.3,115.5 47.0,115.2 48.7,114.8 50.4,114.6 52.1,114.3 53.8,113.8 55.6,113.3 57.3,112.9 59.0,112.6 60.7,112.4 62.4,112.1 64.1,111.7 65.8,111.4 67.5,111.2 69.2,110.9 70.9,109.8 72.6,109.4 74.3,109.0 76.0,108.5 77.7,108.1 79.4,107.8 81.1,107.5 82.8,107.3 84.5,107.0 86.2,106.5 87.9,106.0 89.6,105.7 91.3,105.3 93.0,105.2 94.7,105.1 96.4,104.9 98.1,104.5 99.8,104.3 101.5,104.1 103.2,103.7 105.0,103.1 106.7,103.0 108.4,102.9 110.1,102.6 111.8,102.1 113.5,101.8 115.2,101.3 116.9,101.0 118.6,100.5 120.3,100.4 122.0,100.2 123.7,99.7 125.4,99.2 127.1,98.9 128.8,98.7 130.5,98.5 132.2,98.3 133.9,97.8 135.6,97.3 137.3,96.9 139.0,96.5 140.7,96.3 142.4,96.1 144.1,96.0 145.8,95.6 147.5,95.4 149.2,95.2 150.9,95.0 152.6,94.9 154.4,94.6 156.1,94.4 157.8,94.3 159.5,94.2 161.2,93.8 162.9,93.5 164.6,93.4 166.3,93.3 168.0,93.2 169.7,93.2 171.4,100.8 173.1,100.1 174.8,99.4 176.5,98.7 178.2,96.6 179.9,95.1 181.6,93.6 183.3,93.0 185.0,92.3 186.7,91.3 188.4,90.1 190.1,89.2 191.8,88.9 193.5,88.6 195.2,87.8 196.9,87.1 198.6,86.8 200.3,86.3 202.1,86.1 203.8,86.0 205.5,85.5 207.2,84.8 208.9,84.3 210.6,83.8 212.3,83.2 214.0,82.9 215.7,82.7 217.4,82.2 219.1,81.8 220.8,81.4 222.5,81.0 224.2,80.9 225.9,80.8 227.6,80.5 229.3,80.1 231.0,79.8 232.7,79.6 234.4,79.3 236.1,79.1 237.8,78.9 239.5,78.7 241.2,78.5 242.9,78.3 244.6,77.9 246.3,77.6 248.0,77.3 249.7,77.1 251.5,76.9 253.2,76.7 254.9,76.5 256.6,76.4 258.3,75.8 260.0,75.4 261.7,75.0 263.4,74.8 265.1,74.7 266.8,74.5 268.5,74.3 270.2,74.0 271.9,73.7 273.6,73.4 275.3,73.2 277.0,73.0 278.7,72.9 280.4,72.7 282.1,72.6 283.8,72.3 285.5,72.2 287.2,71.8 288.9,71.7 290.6,71.6 292.3,71.4 294.0,71.3 295.7,71.0 297.4,70.8 299.1,70.5 300.9,70.3 302.6,70.0 304.3,69.9 306.0,69.7 307.7,69.6 309.4,69.2 311.1,68.9 312.8,68.7 314.5,68.4 316.2,68.0 317.9,67.9 319.6,67.8 321.3,67.7 323.0,67.5 324.7,67.3 326.4,67.0 328.1,66.9 329.8,66.7 331.5,66.5 333.2,66.3 334.9,66.2 336.6,66.1 338.3,65.9 340.0,65.6 341.7,65.4 343.4,65.2 345.1,65.1 346.8,64.9 348.5,64.7 350.3,64.6 352.0,64.5 353.7,64.3 355.4,64.0 357.1,63.6 358.8,63.4 360.5,63.2 362.2,63.1 363.9,63.0 365.6,62.8 367.3,62.5 369.0,62.4 370.7,62.2 372.4,62.0 374.1,61.8 375.8,61.6 377.5,61.5 379.2,61.4 380.9,61.1 382.6,60.9 384.3,60.6 386.0,60.4 387.7,60.3 389.4,60.2 391.1,60.1 392.8,60.0 394.5,59.8 396.2,59.6 397.9,59.4 399.7,59.2 401.4,59.1 403.1,58.9 404.8,58.8 406.5,58.6 408.2,58.4 409.9,58.1 411.6,57.9 413.3,57.7 415.0,57.6 416.7,57.5 418.4,57.4 420.1,57.3 421.8,57.2 423.5,57.0 425.2,56.7 426.9,56.6 428.6,56.4 430.3,56.3 432.0,56.1 433.7,55.9 435.4,55.7 437.1,55.6 438.8,55.5 440.5,55.3 442.2,55.1 443.9,54.9 445.6,54.8 447.4,54.7 449.1,54.6 450.8,54.4 452.5,54.3 454.2,54.1 455.9,54.0 457.6,53.9 459.3,53.8 461.0,53.4 462.7,53.2 464.4,58.2 466.1,57.2 467.8,55.3 469.5,54.6 471.2,53.7 472.9,52.6 474.6,52.1 476.3,51.6 478.0,50.9 479.7,49.8 481.4,49.0 483.1,48.8 484.8,48.4 486.5,48.0 488.2,47.5 489.9,46.9 491.6,46.3 493.3,46.0 495.0,45.5 496.8,45.2 498.5,44.8 500.2,44.6 501.9,44.3 503.6,44.0 505.3,43.5 507.0,43.1 508.7,42.6 510.4,41.9 512.1,41.5 513.8,41.3 515.5,41.1 517.2,40.8 518.9,40.4 520.6,40.0 522.3,39.6 524.0,38.6 525.7,37.8 527.4,37.4 529.1,37.2 530.8,36.9 532.5,36.4 534.2,35.9 535.9,35.6 537.6,35.2 539.3,34.9 541.0,34.5 542.7,34.2 544.4,33.7 546.2,33.4 547.9,33.2 549.6,33.0 551.3,32.6 553.0,32.3 554.7,32.0 556.4,31.8 558.1,31.6 559.8,31.3 561.5,31.1 563.2,30.9 564.9,30.7 566.6,30.5 568.3,30.3 570.0,30.0 570.0,30.0,120" />
  
  <!-- Linea principale -->
  <polyline fill="none" stroke="#0366d6" stroke-width="2.5" stroke-linecap="round" stroke-linejoin="round" points="30.0,120.0 31.7,119.4 33.4,118.7 35.1,118.2 36.8,118.0 38.5,117.7 40.2,117.0 41.9,116.6 43.6,116.2 45.3,115.5 47.0,115.2 48.7,114.8 50.4,114.6 52.1,114.3 53.8,113.8 55.6,113.3 57.3,112.9 59.0,112.6 60.7,112.4 62.4,112.1 64.1,111.7 65.8,111.4 67.5,111.2 69.2,110.9 70.9,109.8 72.6,109.4 74.3,109.0 76.0,108.5 77.7,108.1 79.4,107.8 81.1,107.5 82.8,107.3 84.5,107.0 86.2,106.5 87.9,106.0 89.6,105.7 91.3,105.3 93.0,105.2 94.7,105.1 96.4,104.9 98.1,104.5 99.8,104.3 101.5,104.1 103.2,103.7 105.0,103.1 106.7,103.0 108.4,102.9 110.1,102.6 111.8,102.1 113.5,101.8 115.2,101.3 116.9,101.0 118.6,100.5 120.3,100.4 122.0,100.2 123.7,99.7 125.4,99.2 127.1,98.9 128.8,98.7 130.5,98.5 132.2,98.3 133.9,97.8 135.6,97.3 137.3,96.9 139.0,96.5 140.7,96.3 142.4,96.1 144.1,96.0 145.8,95.6 147.5,95.4 149.2,95.2 150.9,95.0 152.6,94.9 154.4,94.6 156.1,94.4 157.8,94.3 159.5,94.2 161.2,93.8 162.9,93.5 164.6,93.4 166.3,93.3 168.0,93.2 169.7,93.2 171.4,100.8 173.1,100.1 174.8,99.4 176.5,98.7 178.2,96.6 179.9,95.1 181.6,93.6 183.3,93.0 185.0,92.3 186.7,91.3 188.4,90.1 190.1,89.2 191.8,88.9 193.5,88.6 195.2,87.8 196.9,87.1 198.6,86.8 200.3,86.3 202.1,86.1 203.8,86.0 205.5,85.5 207.2,84.8 208.9,84.3 210.6,83.8 212.3,83.2 214.0,82.9 215.7,82.7 217.4,82.2 219.1,81.8 220.8,81.4 222.5,81.0 224.2,80.9 225.9,80.8 227.6,80.5 229.3,80.1 231.0,79.8 232.7,79.6 234.4,79.3 236.1,79.1 237.8,78.9 239.5,78.7 241.2,78.5 242.9,78.3 244.6,77.9 246.3,77.6 248.0,77.3 249.7,77.1 251.5,76.9 253.2,76.7 254.9,76.5 256.6,76.4 258.3,75.8 260.0,75.4 261.7,75.0 263.4,74.8 265.1,74.7 266.8,74.5 268.5,74.3 270.2,74.0 271.9,73.7 273.6,73.4 275.3,73.2 277.0,73.0 278.7,72.9 280.4,72.7 282.1,72.6 283.8,72.3 285.5,72.2 287.2,71.8 288.9,71.7 290.6,71.6 292.3,71.4 294.0,71.3 295.7,71.0 297.4,70.8 299.1,70.5 300.9,70.3 302.6,70.0 304.3,69.9 306.0,69.7 307.7,69.6 309.4,69.2 311.1,68.9 312.8,68.7 314.5,68.4 316.2,68.0 317.9,67.9 319.6,67.8 321.3,67.7 323.0,67.5 324.7,67.3 326.4,67.0 328.1,66.9 329.8,66.7 331.5,66.5 333.2,66.3 334.9,66.2 336.6,66.1 338.3,65.9 340.0,65.6 341.7,65.4 343.4,65.2 345.1,65.1 346.8,64.9 348.5,64.7 350.3,64.6 352.0,64.5 353.7,64.3 355.4,64.0 357.1,63.6 358.8,63.4 360.5,63.2 362.2,63.1 363.9,63.0 365.6,62.8 367.3,62.5 369.0,62.4 370.7,62.2 372.4,62.0 374.1,61.8 375.8,61.6 377.5,61.5 379.2,61.4 380.9,61.1 382.6,60.9 384.3,60.6 386.0,60.4 387.7,60.3 389.4,60.2 391.1,60.1 392.8,60.0 394.5,59.8 396.2,59.6 397.9,59.4 399.7,59.2 401.4,59.1 403.1,58.9 404.8,58.8 406.5,58.6 408.2,58.4 409.9,58.1 411.6,57.9 413.3,57.7 415.0,57.6 416.7,57.5 418.4,57.4 420.1,57.3 421.8,57.2 423.5,57.0 425.2,56.7 426.9,56.6 428.6,56.4 430.3,56.3 432.0,56.1 433.7,55.9 435.4,55.7 437.1,55.6 438.8,55.5 440.5,55.3 442.2,55.1 443.9,54.9 445.6,54.8 447.4,54.7 449.1,54.6 450.8,54.4 452.5,54.3 454.2,54.1 455.9,54.0 457.6,53.9 459.3,53.8 461.0,53.4 462.7,53.2 464.4,58.2 466.1,57.2 467.8,55.3 469.5,54.6 471.2,53.7 472.9,52.6 474.6,52.1 476.3,51.6 478.0,50.9 479.7,49.8 481.4,49.0 483.1,48.8 484.8,48.4 486.5,48.0 488.2,47.5 489.9,46.9 491.6,46.3 493.3,46.0 495.0,45.5 496.8,45.2 498.5,44.8 500.2,44.6 501.9,44.3 503.6,44.0 505.3,43.5 507.0,43.1 508.7,42.6 510.4,41.9 512.1,41.5 513.8,41.3 515.5,41.1 517.2,40.8 518.9,40.4 520.6,40.0 522.3,39.6 524.0,38.6 525.7,37.8 527.4,37.4 529.1,37.2 530.8,36.9 532.5,36.4 534.2,35.9 535.9,35.6 537.6,35.2 539.3,34.9 541.0,34.5 542.7,34.2 544.4,33.7 546.2,33.4 547.9,33.2 549.6,33.0 551.3,32.6 553.0,32.3 554.7,32.0 556.4,31.8 558.1,31.6 559.8,31.3 561.5,31.1 563.2,30.9 564.9,30.7 566.6,30.5 568.3,30.3 570.0,30.0" />
  
  <!-- Punto finale luminoso -->
  <circle cx="570.0" cy="30.0" r="4" fill="#ffffff" stroke="#0366d6" stroke-width="2.5" />
</svg>