<svg width="600" height="150" viewBox="0 0 600 150" xmlns="http://www.w3.org/2000/svg">
  <defs>
    <filter id="shadow2" x="-2%" y="-2%" width="104%" height="108%">
      <feDropShadow dx="0" dy="2" stdDeviation="3" flood-opacity="0.1" />
    </filter>
    <linearGradient id="fillGrad" x1="0" y1="0" x2="0" y2="1">
      <stop offset="0%" stop-color="#0366d6" stop-opacity="0.3"/>
      <stop offset="100%" stop-color="#0366d6" stop-opacity="0.02"/>
    </linearGradient>
  </defs>
  <rect width="600" height="150" rx="12" fill="#ffffff" filter="url(#shadow2)" stroke="#e1e4e8" stroke-width="1"/>
  <text x="20" y="24" fill="#2b3137" font-family="-apple-system,BlinkMacSystemFont,'Segoe UI',Helvetica,Arial,sans-serif" font-size="14" font-weight="600">📈 Download Growth (Actual: 87.6k)</text>
  
  <!-- Area sotto la linea -->
  <polygon fill="url(#fillGrad)" points="30.0,120.0,120 30.0,120.0 31.3,119.5 32.6,119.0 33.9,118.5 35.2,118.4 36.5,118.2 37.8,117.6 39.2,117.2 40.5,117.0 41.8,116.4 43.1,116.1 44.4,115.8 45.7,115.6 47.0,115.4 48.3,115.0 49.6,114.6 50.9,114.2 52.2,114.0 53.5,113.9 54.8,113.6 56.2,113.3 57.5,113.0 58.8,112.9 60.1,112.6 61.4,111.7 62.7,111.4 64.0,111.1 65.3,110.7 66.6,110.4 67.9,110.1 69.2,109.9 70.5,109.7 71.8,109.5 73.1,109.0 74.5,108.7 75.8,108.4 77.1,108.1 78.4,108.0 79.7,107.9 81.0,107.8 82.3,107.5 83.6,107.3 84.9,107.2 86.2,106.8 87.5,106.3 88.8,106.2 90.1,106.1 91.5,105.9 92.8,105.5 94.1,105.3 95.4,104.9 96.7,104.6 98.0,104.2 99.3,104.2 100.6,103.9 101.9,103.6 103.2,103.2 104.5,102.9 105.8,102.8 107.1,102.6 108.5,102.4 109.8,102.0 111.1,101.6 112.4,101.3 113.7,101.0 115.0,100.8 116.3,100.7 117.6,100.5 118.9,100.3 120.2,100.1 121.5,99.9 122.8,99.8 124.1,99.6 125.4,99.4 126.8,99.3 128.1,99.2 129.4,99.1 130.7,98.8 132.0,98.6 133.3,98.5 134.6,98.4 135.9,98.3 137.2,98.3 138.5,104.5 139.8,103.9 141.1,103.3 142.4,102.8 143.8,101.1 145.1,99.9 146.4,98.6 147.7,98.1 149.0,97.6 150.3,96.7 151.6,95.8 152.9,95.1 154.2,94.8 155.5,94.6 156.8,93.9 158.1,93.4 159.4,93.1 160.8,92.7 162.1,92.5 163.4,92.5 164.7,92.1 166.0,91.5 167.3,91.1 168.6,90.7 169.9,90.2 171.2,90.0 172.5,89.8 173.8,89.4 175.1,89.1 176.4,88.7 177.7,88.4 179.1,88.3 180.4,88.2 181.7,88.0 183.0,87.7 184.3,87.5 185.6,87.3 186.9,87.1 188.2,86.9 189.5,86.7 190.8,86.6 192.1,86.4 193.4,86.3 194.7,85.9 196.1,85.7 197.4,85.4 198.7,85.3 200.0,85.1 201.3,85.0 202.6,84.8 203.9,84.7 205.2,84.2 206.5,83.9 207.8,83.5 209.1,83.4 210.4,83.4 211.7,83.2 213.1,83.0 214.4,82.8 215.7,82.5 217.0,82.3 218.3,82.1 219.6,82.0 220.9,81.9 222.2,81.7 223.5,81.6 224.8,81.4 226.1,81.3 227.4,81.0 228.7,80.9 230.0,80.8 231.4,80.7 232.7,80.6 234.0,80.3 235.3,80.2 236.6,79.9 237.9,79.7 239.2,79.5 240.5,79.4 241.8,79.3 243.1,79.2 244.4,78.9 245.7,78.6 247.0,78.5 248.4,78.3 249.7,77.9 251.0,77.8 252.3,77.7 253.6,77.6 254.9,77.5 256.2,77.3 257.5,77.1 258.8,77.0 260.1,76.8 261.4,76.7 262.7,76.6 264.0,76.4 265.4,76.4 266.7,76.2 268.0,75.9 269.3,75.8 270.6,75.6 271.9,75.5 273.2,75.4 274.5,75.3 275.8,75.2 277.1,75.1 278.4,74.9 279.7,74.6 281.0,74.3 282.3,74.2 283.7,74.0 285.0,74.0 286.3,73.9 287.6,73.7 288.9,73.5 290.2,73.3 291.5,73.2 292.8,73.1 294.1,72.9 295.4,72.7 296.7,72.6 298.0,72.5 299.3,72.3 300.7,72.2 302.0,71.9 303.3,71.8 304.6,71.7 305.9,71.6 307.2,71.6 308.5,71.4 309.8,71.3 311.1,71.1 312.4,71.0 313.7,70.8 315.0,70.7 316.3,70.6 317.7,70.5 319.0,70.3 320.3,70.1 321.6,69.9 322.9,69.8 324.2,69.6 325.5,69.5 326.8,69.4 328.1,69.3 329.4,69.2 330.7,69.1 332.0,69.0 333.3,68.8 334.6,68.7 336.0,68.5 337.3,68.4 338.6,68.3 339.9,68.2 341.2,68.0 342.5,67.9 343.8,67.8 345.1,67.6 346.4,67.5 347.7,67.3 349.0,67.2 350.3,67.1 351.6,67.0 353.0,66.9 354.3,66.8 355.6,66.7 356.9,66.6 358.2,66.5 359.5,66.4 360.8,66.1 362.1,65.9 363.4,70.0 364.7,69.2 366.0,67.7 367.3,67.1 368.6,66.4 370.0,65.5 371.3,65.0 372.6,64.7 373.9,64.1 375.2,63.2 376.5,62.6 377.8,62.4 379.1,62.0 380.4,61.8 381.7,61.3 383.0,60.9 384.3,60.4 385.6,60.1 386.9,59.7 388.3,59.5 389.6,59.2 390.9,59.0 392.2,58.7 393.5,58.5 394.8,58.1 396.1,57.8 397.4,57.4 398.7,56.8 400.0,56.5 401.3,56.3 402.6,56.1 403.9,55.9 405.3,55.6 406.6,55.2 407.9,55.0 409.2,54.1 410.5,53.5 411.8,53.2 413.1,53.0 414.4,52.7 415.7,52.3 417.0,51.9 418.3,51.7 419.6,51.4 420.9,51.1 422.3,50.8 423.6,50.5 424.9,50.2 426.2,49.9 427.5,49.8 428.8,49.6 430.1,49.2 431.4,49.0 432.7,48.8 434.0,48.7 435.3,48.5 436.6,48.2 437.9,48.1 439.2,47.9 440.6,47.7 441.9,47.6 443.2,47.4 444.5,47.2 445.8,47.0 447.1,46.7 448.4,46.3 449.7,46.0 451.0,45.9 452.3,45.7 453.6,45.6 454.9,45.4 456.2,45.2 457.6,45.1 458.9,45.0 460.2,44.8 461.5,44.7 462.8,44.5 464.1,44.3 465.4,44.1 466.7,44.0 468.0,43.8 469.3,43.5 470.6,43.1 471.9,42.9 473.2,42.7 474.6,42.5 475.9,42.3 477.2,42.1 478.5,41.9 479.8,41.7 481.1,41.6 482.4,41.5 483.7,41.3 485.0,41.0 486.3,40.9 487.6,40.8 488.9,40.5 490.2,40.3 491.5,40.1 492.9,39.9 494.2,39.7 495.5,39.4 496.8,39.2 498.1,39.0 499.4,38.9 500.7,38.8 502.0,38.6 503.3,38.4 504.6,38.2 505.9,38.0 507.2,37.9 508.5,37.8 509.9,37.6 511.2,37.5 512.5,37.3 513.8,37.2 515.1,37.0 516.4,37.0 517.7,36.8 519.0,36.6 520.3,36.5 521.6,36.3 522.9,36.2 524.2,36.0 525.5,35.8 526.9,35.6 528.2,35.5 529.5,35.4 530.8,35.3 532.1,35.0 533.4,34.8 534.7,34.6 536.0,34.5 537.3,34.4 538.6,34.3 539.9,34.1 541.2,34.0 542.5,33.8 543.8,33.5 545.2,33.4 546.5,33.2 547.8,33.1 549.1,33.0 550.4,32.8 551.7,32.6 553.0,32.4 554.3,32.2 555.6,32.1 556.9,31.8 558.2,31.6 559.5,31.5 560.8,31.2 562.2,31.1 563.5,30.9 564.8,30.7 566.1,30.5 567.4,30.3 568.7,30.2 570.0,30.0 570.0,30.0,120" />
  
  <!-- Linea principale -->
  <polyline fill="none" stroke="#0366d6" stroke-width="2.5" stroke-linecap="round" stroke-linejoin="round" points="30.0,120.0 31.3,119.5 32.6,119.0 33.9,118.5 35.2,118.4 36.5,118.2 37.8,117.6 39.2,117.2 40.5,117.0 41.8,116.4 43.1,116.1 44.4,115.8 45.7,115.6 47.0,115.4 48.3,115.0 49.6,114.6 50.9,114.2 52.2,114.0 53.5,113.9 54.8,113.6 56.2,113.3 57.5,113.0 58.8,112.9 60.1,112.6 61.4,111.7 62.7,111.4 64.0,111.1 65.3,110.7 66.6,110.4 67.9,110.1 69.2,109.9 70.5,109.7 71.8,109.5 73.1,109.0 74.5,108.7 75.8,108.4 77.1,108.1 78.4,108.0 79.7,107.9 81.0,107.8 82.3,107.5 83.6,107.3 84.9,107.2 86.2,106.8 87.5,106.3 88.8,106.2 90.1,106.1 91.5,105.9 92.8,105.5 94.1,105.3 95.4,104.9 96.7,104.6 98.0,104.2 99.3,104.2 100.6,103.9 101.9,103.6 103.2,103.2 104.5,102.9 105.8,102.8 107.1,102.6 108.5,102.4 109.8,102.0 111.1,101.6 112.4,101.3 113.7,101.0 115.0,100.8 116.3,100.7 117.6,100.5 118.9,100.3 120.2,100.1 121.5,99.9 122.8,99.8 124.1,99.6 125.4,99.4 126.8,99.3 128.1,99.2 129.4,99.1 130.7,98.8 132.0,98.6 133.3,98.5 134.6,98.4 135.9,98.3 137.2,98.3 138.5,104.5 139.8,103.9 141.1,103.3 142.4,102.8 143.8,101.1 145.1,99.9 146.4,98.6 147.7,98.1 149.0,97.6 150.3,96.7 151.6,95.8 152.9,95.1 154.2,94.8 155.5,94.6 156.8,93.9 158.1,93.4 159.4,93.1 160.8,92.7 162.1,92.5 163.4,92.5 164.7,92.1 166.0,91.5 167.3,91.1 168.6,90.7 169.9,90.2 171.2,90.0 172.5,89.8 173.8,89.4 175.1,89.1 176.4,88.7 177.7,88.4 179.1,88.3 180.4,88.2 181.7,88.0 183.0,87.7 184.3,87.5 185.6,87.3 186.9,87.1 188.2,86.9 189.5,86.7 190.8,86.6 192.1,86.4 193.4,86.3 194.7,85.9 196.1,85.7 197.4,85.4 198.7,85.3 200.0,85.1 201.3,85.0 202.6,84.8 203.9,84.7 205.2,84.2 206.5,83.9 207.8,83.5 209.1,83.4 210.4,83.4 211.7,83.2 213.1,83.0 214.4,82.8 215.7,82.5 217.0,82.3 218.3,82.1 219.6,82.0 220.9,81.9 222.2,81.7 223.5,81.6 224.8,81.4 226.1,81.3 227.4,81.0 228.7,80.9 230.0,80.8 231.4,80.7 232.7,80.6 234.0,80.3 235.3,80.2 236.6,79.9 237.9,79.7 239.2,79.5 240.5,79.4 241.8,79.3 243.1,79.2 244.4,78.9 245.7,78.6 247.0,78.5 248.4,78.3 249.7,77.9 251.0,77.8 252.3,77.7 253.6,77.6 254.9,77.5 256.2,77.3 257.5,77.1 258.8,77.0 260.1,76.8 261.4,76.7 262.7,76.6 264.0,76.4 265.4,76.4 266.7,76.2 268.0,75.9 269.3,75.8 270.6,75.6 271.9,75.5 273.2,75.4 274.5,75.3 275.8,75.2 277.1,75.1 278.4,74.9 279.7,74.6 281.0,74.3 282.3,74.2 283.7,74.0 285.0,74.0 286.3,73.9 287.6,73.7 288.9,73.5 290.2,73.3 291.5,73.2 292.8,73.1 294.1,72.9 295.4,72.7 296.7,72.6 298.0,72.5 299.3,72.3 300.7,72.2 302.0,71.9 303.3,71.8 304.6,71.7 305.9,71.6 307.2,71.6 308.5,71.4 309.8,71.3 311.1,71.1 312.4,71.0 313.7,70.8 315.0,70.7 316.3,70.6 317.7,70.5 319.0,70.3 320.3,70.1 321.6,69.9 322.9,69.8 324.2,69.6 325.5,69.5 326.8,69.4 328.1,69.3 329.4,69.2 330.7,69.1 332.0,69.0 333.3,68.8 334.6,68.7 336.0,68.5 337.3,68.4 338.6,68.3 339.9,68.2 341.2,68.0 342.5,67.9 343.8,67.8 345.1,67.6 346.4,67.5 347.7,67.3 349.0,67.2 350.3,67.1 351.6,67.0 353.0,66.9 354.3,66.8 355.6,66.7 356.9,66.6 358.2,66.5 359.5,66.4 360.8,66.1 362.1,65.9 363.4,70.0 364.7,69.2 366.0,67.7 367.3,67.1 368.6,66.4 370.0,65.5 371.3,65.0 372.6,64.7 373.9,64.1 375.2,63.2 376.5,62.6 377.8,62.4 379.1,62.0 380.4,61.8 381.7,61.3 383.0,60.9 384.3,60.4 385.6,60.1 386.9,59.7 388.3,59.5 389.6,59.2 390.9,59.0 392.2,58.7 393.5,58.5 394.8,58.1 396.1,57.8 397.4,57.4 398.7,56.8 400.0,56.5 401.3,56.3 402.6,56.1 403.9,55.9 405.3,55.6 406.6,55.2 407.9,55.0 409.2,54.1 410.5,53.5 411.8,53.2 413.1,53.0 414.4,52.7 415.7,52.3 417.0,51.9 418.3,51.7 419.6,51.4 420.9,51.1 422.3,50.8 423.6,50.5 424.9,50.2 426.2,49.9 427.5,49.8 428.8,49.6 430.1,49.2 431.4,49.0 432.7,48.8 434.0,48.7 435.3,48.5 436.6,48.2 437.9,48.1 439.2,47.9 440.6,47.7 441.9,47.6 443.2,47.4 444.5,47.2 445.8,47.0 447.1,46.7 448.4,46.3 449.7,46.0 451.0,45.9 452.3,45.7 453.6,45.6 454.9,45.4 456.2,45.2 457.6,45.1 458.9,45.0 460.2,44.8 461.5,44.7 462.8,44.5 464.1,44.3 465.4,44.1 466.7,44.0 468.0,43.8 469.3,43.5 470.6,43.1 471.9,42.9 473.2,42.7 474.6,42.5 475.9,42.3 477.2,42.1 478.5,41.9 479.8,41.7 481.1,41.6 482.4,41.5 483.7,41.3 485.0,41.0 486.3,40.9 487.6,40.8 488.9,40.5 490.2,40.3 491.5,40.1 492.9,39.9 494.2,39.7 495.5,39.4 496.8,39.2 498.1,39.0 499.4,38.9 500.7,38.8 502.0,38.6 503.3,38.4 504.6,38.2 505.9,38.0 507.2,37.9 508.5,37.8 509.9,37.6 511.2,37.5 512.5,37.3 513.8,37.2 515.1,37.0 516.4,37.0 517.7,36.8 519.0,36.6 520.3,36.5 521.6,36.3 522.9,36.2 524.2,36.0 525.5,35.8 526.9,35.6 528.2,35.5 529.5,35.4 530.8,35.3 532.1,35.0 533.4,34.8 534.7,34.6 536.0,34.5 537.3,34.4 538.6,34.3 539.9,34.1 541.2,34.0 542.5,33.8 543.8,33.5 545.2,33.4 546.5,33.2 547.8,33.1 549.1,33.0 550.4,32.8 551.7,32.6 553.0,32.4 554.3,32.2 555.6,32.1 556.9,31.8 558.2,31.6 559.5,31.5 560.8,31.2 562.2,31.1 563.5,30.9 564.8,30.7 566.1,30.5 567.4,30.3 568.7,30.2 570.0,30.0" />
  
  <!-- Punto finale luminoso -->
  <circle cx="570.0" cy="30.0" r="4" fill="#ffffff" stroke="#0366d6" stroke-width="2.5" />
</svg>