<svg width="600" height="150" viewBox="0 0 600 150" xmlns="http://www.w3.org/2000/svg">
  <defs>
    <filter id="shadow2" x="-2%" y="-2%" width="104%" height="108%">
      <feDropShadow dx="0" dy="2" stdDeviation="3" flood-opacity="0.1" />
    </filter>
    <linearGradient id="fillGrad" x1="0" y1="0" x2="0" y2="1">
      <stop offset="0%" stop-color="#0366d6" stop-opacity="0.3"/>
      <stop offset="100%" stop-color="#0366d6" stop-opacity="0.02"/>
    </linearGradient>
  </defs>
  <rect width="600" height="150" rx="12" fill="#ffffff" filter="url(#shadow2)" stroke="#e1e4e8" stroke-width="1"/>
  <text x="20" y="24" fill="#2b3137" font-family="-apple-system,BlinkMacSystemFont,'Segoe UI',Helvetica,Arial,sans-serif" font-size="14" font-weight="600">📈 Download Growth (Actual: 84.6k)</text>
  
  <!-- Area sotto la linea -->
  <polygon fill="url(#fillGrad)" points="30.0,120.0,120 30.0,120.0 31.6,119.4 33.2,118.8 34.8,118.3 36.4,118.1 38.0,117.9 39.6,117.2 41.2,116.8 42.7,116.5 44.3,115.8 45.9,115.4 47.5,115.1 49.1,114.9 50.7,114.6 52.3,114.1 53.9,113.7 55.5,113.3 57.1,113.0 58.7,112.8 60.3,112.5 61.9,112.2 63.5,111.9 65.0,111.7 66.6,111.4 68.2,110.3 69.8,110.0 71.4,109.6 73.0,109.2 74.6,108.8 76.2,108.5 77.8,108.2 79.4,108.1 81.0,107.8 82.6,107.2 84.2,106.8 85.8,106.5 87.3,106.1 88.9,106.0 90.5,105.9 92.1,105.7 93.7,105.4 95.3,105.2 96.9,105.1 98.5,104.7 100.1,104.1 101.7,104.0 103.3,103.8 104.9,103.6 106.5,103.2 108.1,102.9 109.6,102.4 111.2,102.0 112.8,101.6 114.4,101.5 116.0,101.3 117.6,100.9 119.2,100.4 120.8,100.1 122.4,100.0 124.0,99.7 125.6,99.5 127.2,99.1 128.8,98.6 130.4,98.2 131.9,97.8 133.5,97.6 135.1,97.5 136.7,97.3 138.3,97.0 139.9,96.8 141.5,96.6 143.1,96.4 144.7,96.3 146.3,96.1 147.9,95.9 149.5,95.8 151.1,95.7 152.7,95.3 154.2,95.0 155.8,94.9 157.4,94.8 159.0,94.7 160.6,94.7 162.2,101.9 163.8,101.2 165.4,100.6 167.0,99.9 168.6,97.9 170.2,96.6 171.8,95.1 173.4,94.5 175.0,93.9 176.5,92.9 178.1,91.8 179.7,91.0 181.3,90.7 182.9,90.4 184.5,89.6 186.1,89.0 187.7,88.7 189.3,88.2 190.9,88.0 192.5,87.9 194.1,87.5 195.7,86.8 197.3,86.3 198.8,85.9 200.4,85.3 202.0,85.0 203.6,84.9 205.2,84.4 206.8,84.0 208.4,83.6 210.0,83.2 211.6,83.1 213.2,83.0 214.8,82.8 216.4,82.4 218.0,82.1 219.6,81.9 221.2,81.7 222.7,81.5 224.3,81.3 225.9,81.1 227.5,80.9 229.1,80.7 230.7,80.3 232.3,80.1 233.9,79.7 235.5,79.5 237.1,79.3 238.7,79.2 240.3,79.0 241.9,78.8 243.5,78.3 245.0,78.0 246.6,77.5 248.2,77.4 249.8,77.3 251.4,77.1 253.0,76.9 254.6,76.6 256.2,76.4 257.8,76.0 259.4,75.8 261.0,75.7 262.6,75.6 264.2,75.4 265.8,75.3 267.3,75.1 268.9,74.9 270.5,74.6 272.1,74.4 273.7,74.3 275.3,74.2 276.9,74.1 278.5,73.8 280.1,73.6 281.7,73.3 283.3,73.1 284.9,72.9 286.5,72.7 288.1,72.6 289.6,72.5 291.2,72.1 292.8,71.8 294.4,71.6 296.0,71.4 297.6,71.0 299.2,70.9 300.8,70.8 302.4,70.7 304.0,70.5 305.6,70.3 307.2,70.1 308.8,69.9 310.4,69.7 311.9,69.6 313.5,69.4 315.1,69.3 316.7,69.2 318.3,69.0 319.9,68.7 321.5,68.6 323.1,68.3 324.7,68.2 326.3,68.1 327.9,67.9 329.5,67.8 331.1,67.6 332.7,67.5 334.2,67.2 335.8,66.8 337.4,66.6 339.0,66.4 340.6,66.4 342.2,66.3 343.8,66.1 345.4,65.8 347.0,65.6 348.6,65.5 350.2,65.3 351.8,65.2 353.4,65.0 355.0,64.8 356.5,64.7 358.1,64.5 359.7,64.3 361.3,64.0 362.9,63.8 364.5,63.7 366.1,63.6 367.7,63.6 369.3,63.4 370.9,63.2 372.5,63.1 374.1,62.9 375.7,62.7 377.3,62.6 378.8,62.4 380.4,62.3 382.0,62.1 383.6,61.9 385.2,61.7 386.8,61.5 388.4,61.3 390.0,61.2 391.6,61.1 393.2,61.0 394.8,60.9 396.4,60.8 398.0,60.6 399.6,60.3 401.2,60.2 402.7,60.0 404.3,59.9 405.9,59.8 407.5,59.6 409.1,59.4 410.7,59.3 412.3,59.2 413.9,59.0 415.5,58.8 417.1,58.7 418.7,58.5 420.3,58.4 421.9,58.3 423.5,58.2 425.0,58.1 426.6,57.9 428.2,57.8 429.8,57.7 431.4,57.6 433.0,57.2 434.6,57.0 436.2,61.7 437.8,60.8 439.4,59.0 441.0,58.3 442.6,57.5 444.2,56.5 445.8,55.9 447.3,55.6 448.9,54.9 450.5,53.9 452.1,53.1 453.7,52.9 455.3,52.5 456.9,52.2 458.5,51.6 460.1,51.1 461.7,50.5 463.3,50.3 464.9,49.7 466.5,49.5 468.1,49.1 469.6,48.9 471.2,48.6 472.8,48.4 474.4,47.8 476.0,47.5 477.6,47.0 479.2,46.4 480.8,46.0 482.4,45.8 484.0,45.6 485.6,45.3 487.2,44.9 488.8,44.5 490.4,44.2 491.9,43.3 493.5,42.5 495.1,42.2 496.7,42.0 498.3,41.7 499.9,41.2 501.5,40.7 503.1,40.4 504.7,40.1 506.3,39.7 507.9,39.4 509.5,39.1 511.1,38.6 512.7,38.4 514.2,38.2 515.8,38.0 517.4,37.6 519.0,37.3 520.6,37.0 522.2,36.9 523.8,36.7 525.4,36.4 527.0,36.2 528.6,36.0 530.2,35.8 531.8,35.6 533.4,35.4 535.0,35.1 536.5,34.9 538.1,34.6 539.7,34.2 541.3,33.9 542.9,33.7 544.5,33.5 546.1,33.3 547.7,33.1 549.3,32.9 550.9,32.7 552.5,32.6 554.1,32.5 555.7,32.2 557.3,32.1 558.8,31.8 560.4,31.6 562.0,31.4 563.6,31.2 565.2,30.8 566.8,30.4 568.4,30.2 570.0,30.0 570.0,30.0,120" />
  
  <!-- Linea principale -->
  <polyline fill="none" stroke="#0366d6" stroke-width="2.5" stroke-linecap="round" stroke-linejoin="round" points="30.0,120.0 31.6,119.4 33.2,118.8 34.8,118.3 36.4,118.1 38.0,117.9 39.6,117.2 41.2,116.8 42.7,116.5 44.3,115.8 45.9,115.4 47.5,115.1 49.1,114.9 50.7,114.6 52.3,114.1 53.9,113.7 55.5,113.3 57.1,113.0 58.7,112.8 60.3,112.5 61.9,112.2 63.5,111.9 65.0,111.7 66.6,111.4 68.2,110.3 69.8,110.0 71.4,109.6 73.0,109.2 74.6,108.8 76.2,108.5 77.8,108.2 79.4,108.1 81.0,107.8 82.6,107.2 84.2,106.8 85.8,106.5 87.3,106.1 88.9,106.0 90.5,105.9 92.1,105.7 93.7,105.4 95.3,105.2 96.9,105.1 98.5,104.7 100.1,104.1 101.7,104.0 103.3,103.8 104.9,103.6 106.5,103.2 108.1,102.9 109.6,102.4 111.2,102.0 112.8,101.6 114.4,101.5 116.0,101.3 117.6,100.9 119.2,100.4 120.8,100.1 122.4,100.0 124.0,99.7 125.6,99.5 127.2,99.1 128.8,98.6 130.4,98.2 131.9,97.8 133.5,97.6 135.1,97.5 136.7,97.3 138.3,97.0 139.9,96.8 141.5,96.6 143.1,96.4 144.7,96.3 146.3,96.1 147.9,95.9 149.5,95.8 151.1,95.7 152.7,95.3 154.2,95.0 155.8,94.9 157.4,94.8 159.0,94.7 160.6,94.7 162.2,101.9 163.8,101.2 165.4,100.6 167.0,99.9 168.6,97.9 170.2,96.6 171.8,95.1 173.4,94.5 175.0,93.9 176.5,92.9 178.1,91.8 179.7,91.0 181.3,90.7 182.9,90.4 184.5,89.6 186.1,89.0 187.7,88.7 189.3,88.2 190.9,88.0 192.5,87.9 194.1,87.5 195.7,86.8 197.3,86.3 198.8,85.9 200.4,85.3 202.0,85.0 203.6,84.9 205.2,84.4 206.8,84.0 208.4,83.6 210.0,83.2 211.6,83.1 213.2,83.0 214.8,82.8 216.4,82.4 218.0,82.1 219.6,81.9 221.2,81.7 222.7,81.5 224.3,81.3 225.9,81.1 227.5,80.9 229.1,80.7 230.7,80.3 232.3,80.1 233.9,79.7 235.5,79.5 237.1,79.3 238.7,79.2 240.3,79.0 241.9,78.8 243.5,78.3 245.0,78.0 246.6,77.5 248.2,77.4 249.8,77.3 251.4,77.1 253.0,76.9 254.6,76.6 256.2,76.4 257.8,76.0 259.4,75.8 261.0,75.7 262.6,75.6 264.2,75.4 265.8,75.3 267.3,75.1 268.9,74.9 270.5,74.6 272.1,74.4 273.7,74.3 275.3,74.2 276.9,74.1 278.5,73.8 280.1,73.6 281.7,73.3 283.3,73.1 284.9,72.9 286.5,72.7 288.1,72.6 289.6,72.5 291.2,72.1 292.8,71.8 294.4,71.6 296.0,71.4 297.6,71.0 299.2,70.9 300.8,70.8 302.4,70.7 304.0,70.5 305.6,70.3 307.2,70.1 308.8,69.9 310.4,69.7 311.9,69.6 313.5,69.4 315.1,69.3 316.7,69.2 318.3,69.0 319.9,68.7 321.5,68.6 323.1,68.3 324.7,68.2 326.3,68.1 327.9,67.9 329.5,67.8 331.1,67.6 332.7,67.5 334.2,67.2 335.8,66.8 337.4,66.6 339.0,66.4 340.6,66.4 342.2,66.3 343.8,66.1 345.4,65.8 347.0,65.6 348.6,65.5 350.2,65.3 351.8,65.2 353.4,65.0 355.0,64.8 356.5,64.7 358.1,64.5 359.7,64.3 361.3,64.0 362.9,63.8 364.5,63.7 366.1,63.6 367.7,63.6 369.3,63.4 370.9,63.2 372.5,63.1 374.1,62.9 375.7,62.7 377.3,62.6 378.8,62.4 380.4,62.3 382.0,62.1 383.6,61.9 385.2,61.7 386.8,61.5 388.4,61.3 390.0,61.2 391.6,61.1 393.2,61.0 394.8,60.9 396.4,60.8 398.0,60.6 399.6,60.3 401.2,60.2 402.7,60.0 404.3,59.9 405.9,59.8 407.5,59.6 409.1,59.4 410.7,59.3 412.3,59.2 413.9,59.0 415.5,58.8 417.1,58.7 418.7,58.5 420.3,58.4 421.9,58.3 423.5,58.2 425.0,58.1 426.6,57.9 428.2,57.8 429.8,57.7 431.4,57.6 433.0,57.2 434.6,57.0 436.2,61.7 437.8,60.8 439.4,59.0 441.0,58.3 442.6,57.5 444.2,56.5 445.8,55.9 447.3,55.6 448.9,54.9 450.5,53.9 452.1,53.1 453.7,52.9 455.3,52.5 456.9,52.2 458.5,51.6 460.1,51.1 461.7,50.5 463.3,50.3 464.9,49.7 466.5,49.5 468.1,49.1 469.6,48.9 471.2,48.6 472.8,48.4 474.4,47.8 476.0,47.5 477.6,47.0 479.2,46.4 480.8,46.0 482.4,45.8 484.0,45.6 485.6,45.3 487.2,44.9 488.8,44.5 490.4,44.2 491.9,43.3 493.5,42.5 495.1,42.2 496.7,42.0 498.3,41.7 499.9,41.2 501.5,40.7 503.1,40.4 504.7,40.1 506.3,39.7 507.9,39.4 509.5,39.1 511.1,38.6 512.7,38.4 514.2,38.2 515.8,38.0 517.4,37.6 519.0,37.3 520.6,37.0 522.2,36.9 523.8,36.7 525.4,36.4 527.0,36.2 528.6,36.0 530.2,35.8 531.8,35.6 533.4,35.4 535.0,35.1 536.5,34.9 538.1,34.6 539.7,34.2 541.3,33.9 542.9,33.7 544.5,33.5 546.1,33.3 547.7,33.1 549.3,32.9 550.9,32.7 552.5,32.6 554.1,32.5 555.7,32.2 557.3,32.1 558.8,31.8 560.4,31.6 562.0,31.4 563.6,31.2 565.2,30.8 566.8,30.4 568.4,30.2 570.0,30.0" />
  
  <!-- Punto finale luminoso -->
  <circle cx="570.0" cy="30.0" r="4" fill="#ffffff" stroke="#0366d6" stroke-width="2.5" />
</svg>