<svg width="600" height="150" viewBox="0 0 600 150" xmlns="http://www.w3.org/2000/svg">
  <defs>
    <filter id="shadow2" x="-2%" y="-2%" width="104%" height="108%">
      <feDropShadow dx="0" dy="2" stdDeviation="3" flood-opacity="0.1" />
    </filter>
    <linearGradient id="fillGrad" x1="0" y1="0" x2="0" y2="1">
      <stop offset="0%" stop-color="#0366d6" stop-opacity="0.3"/>
      <stop offset="100%" stop-color="#0366d6" stop-opacity="0.02"/>
    </linearGradient>
  </defs>
  <rect width="600" height="150" rx="12" fill="#ffffff" filter="url(#shadow2)" stroke="#e1e4e8" stroke-width="1"/>
  <text x="20" y="24" fill="#2b3137" font-family="-apple-system,BlinkMacSystemFont,'Segoe UI',Helvetica,Arial,sans-serif" font-size="14" font-weight="600">📈 Download Growth (Actual: 75.3k)</text>
  
  <!-- Area sotto la linea -->
  <polygon fill="url(#fillGrad)" points="30.0,120.0,120 30.0,120.0 33.9,118.8 37.8,117.5 41.7,116.4 45.5,116.1 49.4,115.5 53.3,114.1 57.2,113.2 61.1,112.6 65.0,111.1 68.8,110.4 72.7,109.7 76.6,109.3 80.5,108.7 84.4,107.7 88.3,106.7 92.2,105.9 96.0,105.4 99.9,105.0 103.8,104.4 107.7,103.6 111.6,102.9 115.5,102.6 119.4,102.0 123.2,99.7 127.1,99.1 131.0,98.2 134.9,97.3 138.8,96.5 142.7,95.8 146.5,95.3 150.4,94.9 154.3,94.3 158.2,93.2 162.1,92.3 166.0,91.6 169.9,90.9 173.7,90.7 177.6,90.5 181.5,90.1 185.4,89.4 189.3,88.9 193.2,88.6 197.1,87.8 200.9,86.6 204.8,86.3 208.7,86.1 212.6,85.6 216.5,84.7 220.4,84.0 224.2,83.0 228.1,82.3 232.0,81.4 235.9,81.3 239.8,80.7 243.7,79.8 247.6,78.9 251.4,78.2 255.3,77.9 259.2,77.5 263.1,77.1 267.0,76.1 270.9,75.1 274.7,74.3 278.6,73.5 282.5,73.0 286.4,72.8 290.3,72.4 294.2,71.7 298.1,71.3 301.9,70.9 305.8,70.6 309.7,70.2 313.6,69.8 317.5,69.4 321.4,69.2 325.3,69.0 329.1,68.1 333.0,67.6 336.9,67.4 340.8,67.1 344.7,66.9 348.6,66.9 352.4,82.1 356.3,80.6 360.2,79.2 364.1,77.8 368.0,73.7 371.9,70.8 375.8,67.7 379.6,66.6 383.5,65.2 387.4,63.1 391.3,60.8 395.2,59.1 399.1,58.5 402.9,57.8 406.8,56.2 410.7,55.0 414.6,54.2 418.5,53.2 422.4,52.8 426.3,52.7 430.1,51.8 434.0,50.4 437.9,49.3 441.8,48.3 445.7,47.2 449.6,46.6 453.5,46.2 457.3,45.3 461.2,44.4 465.1,43.5 469.0,42.9 472.9,42.6 476.8,42.3 480.6,41.8 484.5,41.1 488.4,40.5 492.3,40.0 496.2,39.5 500.1,39.1 504.0,38.7 507.8,38.3 511.7,37.9 515.6,37.5 519.5,36.7 523.4,36.2 527.3,35.5 531.2,35.1 535.0,34.6 538.9,34.3 542.8,34.0 546.7,33.6 550.6,32.5 554.5,31.8 558.3,30.9 562.2,30.5 566.1,30.4 570.0,30.0 570.0,30.0,120" />
  
  <!-- Linea principale -->
  <polyline fill="none" stroke="#0366d6" stroke-width="2.5" stroke-linecap="round" stroke-linejoin="round" points="30.0,120.0 33.9,118.8 37.8,117.5 41.7,116.4 45.5,116.1 49.4,115.5 53.3,114.1 57.2,113.2 61.1,112.6 65.0,111.1 68.8,110.4 72.7,109.7 76.6,109.3 80.5,108.7 84.4,107.7 88.3,106.7 92.2,105.9 96.0,105.4 99.9,105.0 103.8,104.4 107.7,103.6 111.6,102.9 115.5,102.6 119.4,102.0 123.2,99.7 127.1,99.1 131.0,98.2 134.9,97.3 138.8,96.5 142.7,95.8 146.5,95.3 150.4,94.9 154.3,94.3 158.2,93.2 162.1,92.3 166.0,91.6 169.9,90.9 173.7,90.7 177.6,90.5 181.5,90.1 185.4,89.4 189.3,88.9 193.2,88.6 197.1,87.8 200.9,86.6 204.8,86.3 208.7,86.1 212.6,85.6 216.5,84.7 220.4,84.0 224.2,83.0 228.1,82.3 232.0,81.4 235.9,81.3 239.8,80.7 243.7,79.8 247.6,78.9 251.4,78.2 255.3,77.9 259.2,77.5 263.1,77.1 267.0,76.1 270.9,75.1 274.7,74.3 278.6,73.5 282.5,73.0 286.4,72.8 290.3,72.4 294.2,71.7 298.1,71.3 301.9,70.9 305.8,70.6 309.7,70.2 313.6,69.8 317.5,69.4 321.4,69.2 325.3,69.0 329.1,68.1 333.0,67.6 336.9,67.4 340.8,67.1 344.7,66.9 348.6,66.9 352.4,82.1 356.3,80.6 360.2,79.2 364.1,77.8 368.0,73.7 371.9,70.8 375.8,67.7 379.6,66.6 383.5,65.2 387.4,63.1 391.3,60.8 395.2,59.1 399.1,58.5 402.9,57.8 406.8,56.2 410.7,55.0 414.6,54.2 418.5,53.2 422.4,52.8 426.3,52.7 430.1,51.8 434.0,50.4 437.9,49.3 441.8,48.3 445.7,47.2 449.6,46.6 453.5,46.2 457.3,45.3 461.2,44.4 465.1,43.5 469.0,42.9 472.9,42.6 476.8,42.3 480.6,41.8 484.5,41.1 488.4,40.5 492.3,40.0 496.2,39.5 500.1,39.1 504.0,38.7 507.8,38.3 511.7,37.9 515.6,37.5 519.5,36.7 523.4,36.2 527.3,35.5 531.2,35.1 535.0,34.6 538.9,34.3 542.8,34.0 546.7,33.6 550.6,32.5 554.5,31.8 558.3,30.9 562.2,30.5 566.1,30.4 570.0,30.0" />
  
  <!-- Punto finale luminoso -->
  <circle cx="570.0" cy="30.0" r="4" fill="#ffffff" stroke="#0366d6" stroke-width="2.5" />
</svg>