<svg width="600" height="150" viewBox="0 0 600 150" xmlns="http://www.w3.org/2000/svg">
  <defs>
    <filter id="shadow2" x="-2%" y="-2%" width="104%" height="108%">
      <feDropShadow dx="0" dy="2" stdDeviation="3" flood-opacity="0.1" />
    </filter>
    <linearGradient id="fillGrad" x1="0" y1="0" x2="0" y2="1">
      <stop offset="0%" stop-color="#0366d6" stop-opacity="0.3"/>
      <stop offset="100%" stop-color="#0366d6" stop-opacity="0.02"/>
    </linearGradient>
  </defs>
  <rect width="600" height="150" rx="12" fill="#ffffff" filter="url(#shadow2)" stroke="#e1e4e8" stroke-width="1"/>
  <text x="20" y="24" fill="#2b3137" font-family="-apple-system,BlinkMacSystemFont,'Segoe UI',Helvetica,Arial,sans-serif" font-size="14" font-weight="600">📈 Download Growth (Actual: 77.0k)</text>
  
  <!-- Area sotto la linea -->
  <polygon fill="url(#fillGrad)" points="30.0,120.0,120 30.0,120.0 33.0,119.0 35.9,117.9 38.9,117.0 41.9,116.7 44.8,116.2 47.8,115.1 50.8,114.3 53.7,113.8 56.7,112.6 59.7,112.0 62.6,111.4 65.6,111.1 68.6,110.5 71.5,109.7 74.5,108.9 77.5,108.2 80.4,107.8 83.4,107.5 86.4,106.9 89.3,106.3 92.3,105.7 95.3,105.5 98.2,104.9 101.2,103.1 104.2,102.5 107.1,101.8 110.1,101.0 113.1,100.4 116.0,99.8 119.0,99.4 122.0,99.0 124.9,98.5 127.9,97.6 130.9,96.8 133.8,96.3 136.8,95.7 139.8,95.5 142.7,95.3 145.7,95.0 148.7,94.4 151.6,94.0 154.6,93.8 157.6,93.1 160.5,92.1 163.5,91.9 166.5,91.7 169.5,91.3 172.4,90.5 175.4,89.9 178.4,89.1 181.3,88.5 184.3,87.8 187.3,87.6 190.2,87.2 193.2,86.4 196.2,85.7 199.1,85.1 202.1,84.8 205.1,84.5 208.0,84.1 211.0,83.3 214.0,82.5 216.9,81.8 219.9,81.1 222.9,80.7 225.8,80.5 228.8,80.2 231.8,79.7 234.7,79.3 237.7,79.0 240.7,78.7 243.6,78.4 246.6,78.0 249.6,77.7 252.5,77.6 255.5,77.4 258.5,76.6 261.4,76.2 264.4,76.0 267.4,75.8 270.3,75.6 273.3,75.6 276.3,88.3 279.2,87.1 282.2,85.9 285.2,84.8 288.1,81.3 291.1,78.9 294.1,76.3 297.0,75.3 300.0,74.2 303.0,72.5 305.9,70.5 308.9,69.1 311.9,68.6 314.8,68.1 317.8,66.7 320.8,65.7 323.7,65.0 326.7,64.2 329.7,63.9 332.6,63.7 335.6,63.0 338.6,61.8 341.5,61.0 344.5,60.1 347.5,59.1 350.4,58.7 353.4,58.4 356.4,57.5 359.3,56.8 362.3,56.1 365.3,55.5 368.2,55.3 371.2,55.1 374.2,54.7 377.1,54.0 380.1,53.6 383.1,53.1 386.0,52.8 389.0,52.4 392.0,52.0 394.9,51.7 397.9,51.4 400.9,51.1 403.8,50.4 406.8,49.9 409.8,49.4 412.7,49.0 415.7,48.7 418.7,48.4 421.6,48.1 424.6,47.8 427.6,46.9 430.5,46.3 433.5,45.5 436.5,45.2 439.5,45.1 442.4,44.8 445.4,44.4 448.4,43.9 451.3,43.5 454.3,42.9 457.3,42.5 460.2,42.4 463.2,42.1 466.2,41.8 469.1,41.6 472.1,41.2 475.1,40.9 478.0,40.3 481.0,40.1 484.0,39.9 486.9,39.6 489.9,39.5 492.9,39.0 495.8,38.6 498.8,38.1 501.8,37.8 504.7,37.4 507.7,37.1 510.7,36.9 513.6,36.6 516.6,36.0 519.6,35.5 522.5,35.1 525.5,34.7 528.5,34.0 531.4,33.9 534.4,33.7 537.4,33.5 540.3,33.1 543.3,32.8 546.3,32.4 549.2,32.1 552.2,31.8 555.2,31.6 558.1,31.2 561.1,31.0 564.1,30.9 567.0,30.5 570.0,30.0 570.0,30.0,120" />
  
  <!-- Linea principale -->
  <polyline fill="none" stroke="#0366d6" stroke-width="2.5" stroke-linecap="round" stroke-linejoin="round" points="30.0,120.0 33.0,119.0 35.9,117.9 38.9,117.0 41.9,116.7 44.8,116.2 47.8,115.1 50.8,114.3 53.7,113.8 56.7,112.6 59.7,112.0 62.6,111.4 65.6,111.1 68.6,110.5 71.5,109.7 74.5,108.9 77.5,108.2 80.4,107.8 83.4,107.5 86.4,106.9 89.3,106.3 92.3,105.7 95.3,105.5 98.2,104.9 101.2,103.1 104.2,102.5 107.1,101.8 110.1,101.0 113.1,100.4 116.0,99.8 119.0,99.4 122.0,99.0 124.9,98.5 127.9,97.6 130.9,96.8 133.8,96.3 136.8,95.7 139.8,95.5 142.7,95.3 145.7,95.0 148.7,94.4 151.6,94.0 154.6,93.8 157.6,93.1 160.5,92.1 163.5,91.9 166.5,91.7 169.5,91.3 172.4,90.5 175.4,89.9 178.4,89.1 181.3,88.5 184.3,87.8 187.3,87.6 190.2,87.2 193.2,86.4 196.2,85.7 199.1,85.1 202.1,84.8 205.1,84.5 208.0,84.1 211.0,83.3 214.0,82.5 216.9,81.8 219.9,81.1 222.9,80.7 225.8,80.5 228.8,80.2 231.8,79.7 234.7,79.3 237.7,79.0 240.7,78.7 243.6,78.4 246.6,78.0 249.6,77.7 252.5,77.6 255.5,77.4 258.5,76.6 261.4,76.2 264.4,76.0 267.4,75.8 270.3,75.6 273.3,75.6 276.3,88.3 279.2,87.1 282.2,85.9 285.2,84.8 288.1,81.3 291.1,78.9 294.1,76.3 297.0,75.3 300.0,74.2 303.0,72.5 305.9,70.5 308.9,69.1 311.9,68.6 314.8,68.1 317.8,66.7 320.8,65.7 323.7,65.0 326.7,64.2 329.7,63.9 332.6,63.7 335.6,63.0 338.6,61.8 341.5,61.0 344.5,60.1 347.5,59.1 350.4,58.7 353.4,58.4 356.4,57.5 359.3,56.8 362.3,56.1 365.3,55.5 368.2,55.3 371.2,55.1 374.2,54.7 377.1,54.0 380.1,53.6 383.1,53.1 386.0,52.8 389.0,52.4 392.0,52.0 394.9,51.7 397.9,51.4 400.9,51.1 403.8,50.4 406.8,49.9 409.8,49.4 412.7,49.0 415.7,48.7 418.7,48.4 421.6,48.1 424.6,47.8 427.6,46.9 430.5,46.3 433.5,45.5 436.5,45.2 439.5,45.1 442.4,44.8 445.4,44.4 448.4,43.9 451.3,43.5 454.3,42.9 457.3,42.5 460.2,42.4 463.2,42.1 466.2,41.8 469.1,41.6 472.1,41.2 475.1,40.9 478.0,40.3 481.0,40.1 484.0,39.9 486.9,39.6 489.9,39.5 492.9,39.0 495.8,38.6 498.8,38.1 501.8,37.8 504.7,37.4 507.7,37.1 510.7,36.9 513.6,36.6 516.6,36.0 519.6,35.5 522.5,35.1 525.5,34.7 528.5,34.0 531.4,33.9 534.4,33.7 537.4,33.5 540.3,33.1 543.3,32.8 546.3,32.4 549.2,32.1 552.2,31.8 555.2,31.6 558.1,31.2 561.1,31.0 564.1,30.9 567.0,30.5 570.0,30.0" />
  
  <!-- Punto finale luminoso -->
  <circle cx="570.0" cy="30.0" r="4" fill="#ffffff" stroke="#0366d6" stroke-width="2.5" />
</svg>