<svg width="600" height="150" viewBox="0 0 600 150" xmlns="http://www.w3.org/2000/svg">
  <defs>
    <filter id="shadow2" x="-2%" y="-2%" width="104%" height="108%">
      <feDropShadow dx="0" dy="2" stdDeviation="3" flood-opacity="0.1" />
    </filter>
    <linearGradient id="fillGrad" x1="0" y1="0" x2="0" y2="1">
      <stop offset="0%" stop-color="#0366d6" stop-opacity="0.3"/>
      <stop offset="100%" stop-color="#0366d6" stop-opacity="0.02"/>
    </linearGradient>
  </defs>
  <rect width="600" height="150" rx="12" fill="#ffffff" filter="url(#shadow2)" stroke="#e1e4e8" stroke-width="1"/>
  <text x="20" y="24" fill="#2b3137" font-family="-apple-system,BlinkMacSystemFont,'Segoe UI',Helvetica,Arial,sans-serif" font-size="14" font-weight="600">📈 Download Growth (Actual: 84.0k)</text>
  
  <!-- Area sotto la linea -->
  <polygon fill="url(#fillGrad)" points="30.0,120.0,120 30.0,120.0 31.7,119.4 33.3,118.8 35.0,118.2 36.6,118.1 38.3,117.8 40.0,117.1 41.6,116.6 43.3,116.3 45.0,115.6 46.6,115.3 48.3,114.9 49.9,114.7 51.6,114.4 53.3,113.9 54.9,113.4 56.6,113.0 58.2,112.8 59.9,112.6 61.6,112.3 63.2,111.9 64.9,111.6 66.6,111.4 68.2,111.1 69.9,110.0 71.5,109.7 73.2,109.2 74.9,108.8 76.5,108.4 78.2,108.1 79.8,107.8 81.5,107.6 83.2,107.3 84.8,106.8 86.5,106.3 88.2,106.0 89.8,105.6 91.5,105.5 93.1,105.4 94.8,105.2 96.5,104.9 98.1,104.7 99.8,104.5 101.4,104.1 103.1,103.5 104.8,103.4 106.4,103.3 108.1,103.0 109.8,102.6 111.4,102.2 113.1,101.8 114.7,101.4 116.4,101.0 118.1,100.9 119.7,100.6 121.4,100.2 123.0,99.7 124.7,99.4 126.4,99.2 128.0,99.0 129.7,98.8 131.4,98.3 133.0,97.9 134.7,97.4 136.3,97.0 138.0,96.8 139.7,96.7 141.3,96.5 143.0,96.2 144.6,96.0 146.3,95.8 148.0,95.6 149.6,95.4 151.3,95.2 153.0,95.0 154.6,94.9 156.3,94.8 157.9,94.4 159.6,94.1 161.3,94.0 162.9,93.9 164.6,93.8 166.2,93.8 167.9,101.3 169.6,100.5 171.2,99.9 172.9,99.2 174.6,97.1 176.2,95.7 177.9,94.2 179.5,93.6 181.2,93.0 182.9,91.9 184.5,90.8 186.2,89.9 187.8,89.6 189.5,89.3 191.2,88.5 192.8,87.9 194.5,87.5 196.2,87.0 197.8,86.8 199.5,86.8 201.1,86.3 202.8,85.6 204.5,85.1 206.1,84.6 207.8,84.1 209.4,83.8 211.1,83.6 212.8,83.1 214.4,82.7 216.1,82.3 217.8,81.9 219.4,81.8 221.1,81.7 222.7,81.4 224.4,81.1 226.1,80.8 227.7,80.5 229.4,80.3 231.0,80.1 232.7,79.9 234.4,79.7 236.0,79.5 237.7,79.3 239.4,78.9 241.0,78.6 242.7,78.3 244.3,78.1 246.0,77.9 247.7,77.7 249.3,77.6 251.0,77.4 252.6,76.8 254.3,76.5 256.0,76.0 257.6,75.8 259.3,75.8 261.0,75.6 262.6,75.3 264.3,75.1 265.9,74.8 267.6,74.5 269.3,74.3 270.9,74.1 272.6,74.0 274.2,73.8 275.9,73.7 277.6,73.5 279.2,73.3 280.9,72.9 282.6,72.8 284.2,72.7 285.9,72.5 287.5,72.4 289.2,72.1 290.9,71.9 292.5,71.7 294.2,71.4 295.8,71.2 297.5,71.0 299.2,70.9 300.8,70.8 302.5,70.4 304.2,70.1 305.8,69.9 307.5,69.6 309.1,69.2 310.8,69.1 312.5,69.0 314.1,68.9 315.8,68.7 317.4,68.5 319.1,68.3 320.8,68.1 322.4,67.9 324.1,67.8 325.8,67.6 327.4,67.4 329.1,67.4 330.7,67.2 332.4,66.9 334.1,66.7 335.7,66.5 337.4,66.4 339.0,66.2 340.7,66.0 342.4,65.9 344.0,65.8 345.7,65.6 347.4,65.3 349.0,64.9 350.7,64.7 352.3,64.5 354.0,64.4 355.7,64.4 357.3,64.1 359.0,63.8 360.6,63.7 362.3,63.6 364.0,63.4 365.6,63.2 367.3,63.0 369.0,62.9 370.6,62.7 372.3,62.5 373.9,62.3 375.6,62.0 377.3,61.8 378.9,61.7 380.6,61.6 382.2,61.5 383.9,61.4 385.6,61.2 387.2,61.0 388.9,60.8 390.6,60.6 392.2,60.5 393.9,60.4 395.5,60.2 397.2,60.1 398.9,59.8 400.5,59.6 402.2,59.4 403.8,59.2 405.5,59.1 407.2,59.0 408.8,58.9 410.5,58.8 412.2,58.6 413.8,58.5 415.5,58.2 417.1,58.1 418.8,57.9 420.5,57.8 422.1,57.6 423.8,57.5 425.4,57.3 427.1,57.1 428.8,57.0 430.4,56.8 432.1,56.6 433.8,56.5 435.4,56.3 437.1,56.2 438.7,56.1 440.4,56.0 442.1,55.8 443.7,55.7 445.4,55.5 447.0,55.5 448.7,55.3 450.4,55.0 452.0,54.7 453.7,59.6 455.4,58.7 457.0,56.8 458.7,56.1 460.3,55.3 462.0,54.2 463.7,53.6 465.3,53.2 467.0,52.6 468.6,51.5 470.3,50.7 472.0,50.4 473.6,50.0 475.3,49.7 477.0,49.2 478.6,48.7 480.3,48.1 481.9,47.8 483.6,47.2 485.3,47.0 486.9,46.6 488.6,46.4 490.2,46.1 491.9,45.8 493.6,45.3 495.2,44.9 496.9,44.4 498.6,43.7 500.2,43.3 501.9,43.1 503.5,42.9 505.2,42.7 506.9,42.2 508.5,41.8 510.2,41.5 511.8,40.5 513.5,39.7 515.2,39.4 516.8,39.2 518.5,38.8 520.2,38.3 521.8,37.9 523.5,37.6 525.1,37.2 526.8,36.9 528.5,36.5 530.1,36.2 531.8,35.7 533.4,35.5 535.1,35.3 536.8,35.1 538.4,34.6 540.1,34.3 541.8,34.1 543.4,33.9 545.1,33.7 546.7,33.4 548.4,33.2 550.1,33.0 551.7,32.8 553.4,32.6 555.0,32.4 556.7,32.1 558.4,31.9 560.0,31.5 561.7,31.1 563.4,30.8 565.0,30.6 566.7,30.4 568.3,30.2 570.0,30.0 570.0,30.0,120" />
  
  <!-- Linea principale -->
  <polyline fill="none" stroke="#0366d6" stroke-width="2.5" stroke-linecap="round" stroke-linejoin="round" points="30.0,120.0 31.7,119.4 33.3,118.8 35.0,118.2 36.6,118.1 38.3,117.8 40.0,117.1 41.6,116.6 43.3,116.3 45.0,115.6 46.6,115.3 48.3,114.9 49.9,114.7 51.6,114.4 53.3,113.9 54.9,113.4 56.6,113.0 58.2,112.8 59.9,112.6 61.6,112.3 63.2,111.9 64.9,111.6 66.6,111.4 68.2,111.1 69.9,110.0 71.5,109.7 73.2,109.2 74.9,108.8 76.5,108.4 78.2,108.1 79.8,107.8 81.5,107.6 83.2,107.3 84.8,106.8 86.5,106.3 88.2,106.0 89.8,105.6 91.5,105.5 93.1,105.4 94.8,105.2 96.5,104.9 98.1,104.7 99.8,104.5 101.4,104.1 103.1,103.5 104.8,103.4 106.4,103.3 108.1,103.0 109.8,102.6 111.4,102.2 113.1,101.8 114.7,101.4 116.4,101.0 118.1,100.9 119.7,100.6 121.4,100.2 123.0,99.7 124.7,99.4 126.4,99.2 128.0,99.0 129.7,98.8 131.4,98.3 133.0,97.9 134.7,97.4 136.3,97.0 138.0,96.8 139.7,96.7 141.3,96.5 143.0,96.2 144.6,96.0 146.3,95.8 148.0,95.6 149.6,95.4 151.3,95.2 153.0,95.0 154.6,94.9 156.3,94.8 157.9,94.4 159.6,94.1 161.3,94.0 162.9,93.9 164.6,93.8 166.2,93.8 167.9,101.3 169.6,100.5 171.2,99.9 172.9,99.2 174.6,97.1 176.2,95.7 177.9,94.2 179.5,93.6 181.2,93.0 182.9,91.9 184.5,90.8 186.2,89.9 187.8,89.6 189.5,89.3 191.2,88.5 192.8,87.9 194.5,87.5 196.2,87.0 197.8,86.8 199.5,86.8 201.1,86.3 202.8,85.6 204.5,85.1 206.1,84.6 207.8,84.1 209.4,83.8 211.1,83.6 212.8,83.1 214.4,82.7 216.1,82.3 217.8,81.9 219.4,81.8 221.1,81.7 222.7,81.4 224.4,81.1 226.1,80.8 227.7,80.5 229.4,80.3 231.0,80.1 232.7,79.9 234.4,79.7 236.0,79.5 237.7,79.3 239.4,78.9 241.0,78.6 242.7,78.3 244.3,78.1 246.0,77.9 247.7,77.7 249.3,77.6 251.0,77.4 252.6,76.8 254.3,76.5 256.0,76.0 257.6,75.8 259.3,75.8 261.0,75.6 262.6,75.3 264.3,75.1 265.9,74.8 267.6,74.5 269.3,74.3 270.9,74.1 272.6,74.0 274.2,73.8 275.9,73.7 277.6,73.5 279.2,73.3 280.9,72.9 282.6,72.8 284.2,72.7 285.9,72.5 287.5,72.4 289.2,72.1 290.9,71.9 292.5,71.7 294.2,71.4 295.8,71.2 297.5,71.0 299.2,70.9 300.8,70.8 302.5,70.4 304.2,70.1 305.8,69.9 307.5,69.6 309.1,69.2 310.8,69.1 312.5,69.0 314.1,68.9 315.8,68.7 317.4,68.5 319.1,68.3 320.8,68.1 322.4,67.9 324.1,67.8 325.8,67.6 327.4,67.4 329.1,67.4 330.7,67.2 332.4,66.9 334.1,66.7 335.7,66.5 337.4,66.4 339.0,66.2 340.7,66.0 342.4,65.9 344.0,65.8 345.7,65.6 347.4,65.3 349.0,64.9 350.7,64.7 352.3,64.5 354.0,64.4 355.7,64.4 357.3,64.1 359.0,63.8 360.6,63.7 362.3,63.6 364.0,63.4 365.6,63.2 367.3,63.0 369.0,62.9 370.6,62.7 372.3,62.5 373.9,62.3 375.6,62.0 377.3,61.8 378.9,61.7 380.6,61.6 382.2,61.5 383.9,61.4 385.6,61.2 387.2,61.0 388.9,60.8 390.6,60.6 392.2,60.5 393.9,60.4 395.5,60.2 397.2,60.1 398.9,59.8 400.5,59.6 402.2,59.4 403.8,59.2 405.5,59.1 407.2,59.0 408.8,58.9 410.5,58.8 412.2,58.6 413.8,58.5 415.5,58.2 417.1,58.1 418.8,57.9 420.5,57.8 422.1,57.6 423.8,57.5 425.4,57.3 427.1,57.1 428.8,57.0 430.4,56.8 432.1,56.6 433.8,56.5 435.4,56.3 437.1,56.2 438.7,56.1 440.4,56.0 442.1,55.8 443.7,55.7 445.4,55.5 447.0,55.5 448.7,55.3 450.4,55.0 452.0,54.7 453.7,59.6 455.4,58.7 457.0,56.8 458.7,56.1 460.3,55.3 462.0,54.2 463.7,53.6 465.3,53.2 467.0,52.6 468.6,51.5 470.3,50.7 472.0,50.4 473.6,50.0 475.3,49.7 477.0,49.2 478.6,48.7 480.3,48.1 481.9,47.8 483.6,47.2 485.3,47.0 486.9,46.6 488.6,46.4 490.2,46.1 491.9,45.8 493.6,45.3 495.2,44.9 496.9,44.4 498.6,43.7 500.2,43.3 501.9,43.1 503.5,42.9 505.2,42.7 506.9,42.2 508.5,41.8 510.2,41.5 511.8,40.5 513.5,39.7 515.2,39.4 516.8,39.2 518.5,38.8 520.2,38.3 521.8,37.9 523.5,37.6 525.1,37.2 526.8,36.9 528.5,36.5 530.1,36.2 531.8,35.7 533.4,35.5 535.1,35.3 536.8,35.1 538.4,34.6 540.1,34.3 541.8,34.1 543.4,33.9 545.1,33.7 546.7,33.4 548.4,33.2 550.1,33.0 551.7,32.8 553.4,32.6 555.0,32.4 556.7,32.1 558.4,31.9 560.0,31.5 561.7,31.1 563.4,30.8 565.0,30.6 566.7,30.4 568.3,30.2 570.0,30.0" />
  
  <!-- Punto finale luminoso -->
  <circle cx="570.0" cy="30.0" r="4" fill="#ffffff" stroke="#0366d6" stroke-width="2.5" />
</svg>