<svg width="600" height="150" viewBox="0 0 600 150" xmlns="http://www.w3.org/2000/svg">
  <defs>
    <filter id="shadow2" x="-2%" y="-2%" width="104%" height="108%">
      <feDropShadow dx="0" dy="2" stdDeviation="3" flood-opacity="0.1" />
    </filter>
    <linearGradient id="fillGrad" x1="0" y1="0" x2="0" y2="1">
      <stop offset="0%" stop-color="#0366d6" stop-opacity="0.3"/>
      <stop offset="100%" stop-color="#0366d6" stop-opacity="0.02"/>
    </linearGradient>
  </defs>
  <rect width="600" height="150" rx="12" fill="#ffffff" filter="url(#shadow2)" stroke="#e1e4e8" stroke-width="1"/>
  <text x="20" y="24" fill="#2b3137" font-family="-apple-system,BlinkMacSystemFont,'Segoe UI',Helvetica,Arial,sans-serif" font-size="14" font-weight="600">📈 Download Growth (Actual: 77.5k)</text>
  
  <!-- Area sotto la linea -->
  <polygon fill="url(#fillGrad)" points="30.0,120.0,120 30.0,120.0 32.8,119.0 35.5,118.0 38.3,117.1 41.0,116.9 43.8,116.4 46.5,115.3 49.3,114.6 52.0,114.1 54.8,112.9 57.6,112.4 60.3,111.8 63.1,111.5 65.8,110.9 68.6,110.2 71.3,109.4 74.1,108.7 76.8,108.3 79.6,108.0 82.3,107.5 85.1,106.9 87.9,106.4 90.6,106.1 93.4,105.6 96.1,103.8 98.9,103.3 101.6,102.6 104.4,101.9 107.1,101.3 109.9,100.7 112.7,100.3 115.4,100.0 118.2,99.5 120.9,98.6 123.7,97.9 126.4,97.4 129.2,96.7 131.9,96.6 134.7,96.4 137.4,96.1 140.2,95.5 143.0,95.2 145.7,95.0 148.5,94.3 151.2,93.3 154.0,93.1 156.7,92.9 159.5,92.5 162.2,91.8 165.0,91.3 167.8,90.5 170.5,89.9 173.3,89.2 176.0,89.1 178.8,88.6 181.5,87.9 184.3,87.2 187.0,86.7 189.8,86.4 192.6,86.0 195.3,85.7 198.1,84.9 200.8,84.2 203.6,83.5 206.3,82.8 209.1,82.5 211.8,82.3 214.6,82.0 217.3,81.5 220.1,81.1 222.9,80.8 225.6,80.5 228.4,80.3 231.1,79.9 233.9,79.6 236.6,79.5 239.4,79.3 242.1,78.5 244.9,78.1 247.7,78.0 250.4,77.7 253.2,77.6 255.9,77.6 258.7,89.7 261.4,88.5 264.2,87.5 266.9,86.3 269.7,83.0 272.4,80.7 275.2,78.3 278.0,77.3 280.7,76.3 283.5,74.6 286.2,72.7 289.0,71.4 291.7,70.9 294.5,70.4 297.2,69.1 300.0,68.1 302.8,67.5 305.5,66.7 308.3,66.4 311.0,66.2 313.8,65.5 316.5,64.4 319.3,63.6 322.0,62.8 324.8,61.9 327.6,61.4 330.3,61.1 333.1,60.3 335.8,59.6 338.6,59.0 341.3,58.4 344.1,58.2 346.8,58.0 349.6,57.6 352.3,57.0 355.1,56.6 357.9,56.1 360.6,55.8 363.4,55.4 366.1,55.1 368.9,54.8 371.6,54.5 374.4,54.2 377.1,53.5 379.9,53.1 382.7,52.5 385.4,52.2 388.2,51.9 390.9,51.6 393.7,51.3 396.4,51.0 399.2,50.2 401.9,49.6 404.7,48.9 407.4,48.6 410.2,48.5 413.0,48.2 415.7,47.8 418.5,47.3 421.2,46.9 424.0,46.4 426.7,46.0 429.5,45.8 432.2,45.5 435.0,45.3 437.8,45.1 440.5,44.7 443.3,44.4 446.0,43.9 448.8,43.6 451.5,43.5 454.3,43.2 457.0,43.1 459.8,42.6 462.6,42.2 465.3,41.8 468.1,41.4 470.8,41.0 473.6,40.8 476.3,40.6 479.1,40.3 481.8,39.8 484.6,39.3 487.3,38.9 490.1,38.5 492.9,37.9 495.6,37.7 498.4,37.5 501.1,37.3 503.9,37.0 506.6,36.7 509.4,36.3 512.1,36.1 514.9,35.8 517.7,35.5 520.4,35.2 523.2,35.0 525.9,34.8 528.7,34.5 531.4,34.0 534.2,33.8 536.9,33.4 539.7,33.2 542.4,33.0 545.2,32.7 548.0,32.5 550.7,32.3 553.5,32.0 556.2,31.5 559.0,30.9 561.7,30.5 564.5,30.2 567.2,30.1 570.0,30.0 570.0,30.0,120" />
  
  <!-- Linea principale -->
  <polyline fill="none" stroke="#0366d6" stroke-width="2.5" stroke-linecap="round" stroke-linejoin="round" points="30.0,120.0 32.8,119.0 35.5,118.0 38.3,117.1 41.0,116.9 43.8,116.4 46.5,115.3 49.3,114.6 52.0,114.1 54.8,112.9 57.6,112.4 60.3,111.8 63.1,111.5 65.8,110.9 68.6,110.2 71.3,109.4 74.1,108.7 76.8,108.3 79.6,108.0 82.3,107.5 85.1,106.9 87.9,106.4 90.6,106.1 93.4,105.6 96.1,103.8 98.9,103.3 101.6,102.6 104.4,101.9 107.1,101.3 109.9,100.7 112.7,100.3 115.4,100.0 118.2,99.5 120.9,98.6 123.7,97.9 126.4,97.4 129.2,96.7 131.9,96.6 134.7,96.4 137.4,96.1 140.2,95.5 143.0,95.2 145.7,95.0 148.5,94.3 151.2,93.3 154.0,93.1 156.7,92.9 159.5,92.5 162.2,91.8 165.0,91.3 167.8,90.5 170.5,89.9 173.3,89.2 176.0,89.1 178.8,88.6 181.5,87.9 184.3,87.2 187.0,86.7 189.8,86.4 192.6,86.0 195.3,85.7 198.1,84.9 200.8,84.2 203.6,83.5 206.3,82.8 209.1,82.5 211.8,82.3 214.6,82.0 217.3,81.5 220.1,81.1 222.9,80.8 225.6,80.5 228.4,80.3 231.1,79.9 233.9,79.6 236.6,79.5 239.4,79.3 242.1,78.5 244.9,78.1 247.7,78.0 250.4,77.7 253.2,77.6 255.9,77.6 258.7,89.7 261.4,88.5 264.2,87.5 266.9,86.3 269.7,83.0 272.4,80.7 275.2,78.3 278.0,77.3 280.7,76.3 283.5,74.6 286.2,72.7 289.0,71.4 291.7,70.9 294.5,70.4 297.2,69.1 300.0,68.1 302.8,67.5 305.5,66.7 308.3,66.4 311.0,66.2 313.8,65.5 316.5,64.4 319.3,63.6 322.0,62.8 324.8,61.9 327.6,61.4 330.3,61.1 333.1,60.3 335.8,59.6 338.6,59.0 341.3,58.4 344.1,58.2 346.8,58.0 349.6,57.6 352.3,57.0 355.1,56.6 357.9,56.1 360.6,55.8 363.4,55.4 366.1,55.1 368.9,54.8 371.6,54.5 374.4,54.2 377.1,53.5 379.9,53.1 382.7,52.5 385.4,52.2 388.2,51.9 390.9,51.6 393.7,51.3 396.4,51.0 399.2,50.2 401.9,49.6 404.7,48.9 407.4,48.6 410.2,48.5 413.0,48.2 415.7,47.8 418.5,47.3 421.2,46.9 424.0,46.4 426.7,46.0 429.5,45.8 432.2,45.5 435.0,45.3 437.8,45.1 440.5,44.7 443.3,44.4 446.0,43.9 448.8,43.6 451.5,43.5 454.3,43.2 457.0,43.1 459.8,42.6 462.6,42.2 465.3,41.8 468.1,41.4 470.8,41.0 473.6,40.8 476.3,40.6 479.1,40.3 481.8,39.8 484.6,39.3 487.3,38.9 490.1,38.5 492.9,37.9 495.6,37.7 498.4,37.5 501.1,37.3 503.9,37.0 506.6,36.7 509.4,36.3 512.1,36.1 514.9,35.8 517.7,35.5 520.4,35.2 523.2,35.0 525.9,34.8 528.7,34.5 531.4,34.0 534.2,33.8 536.9,33.4 539.7,33.2 542.4,33.0 545.2,32.7 548.0,32.5 550.7,32.3 553.5,32.0 556.2,31.5 559.0,30.9 561.7,30.5 564.5,30.2 567.2,30.1 570.0,30.0" />
  
  <!-- Punto finale luminoso -->
  <circle cx="570.0" cy="30.0" r="4" fill="#ffffff" stroke="#0366d6" stroke-width="2.5" />
</svg>