<svg width="600" height="150" viewBox="0 0 600 150" xmlns="http://www.w3.org/2000/svg">
  <defs>
    <filter id="shadow2" x="-2%" y="-2%" width="104%" height="108%">
      <feDropShadow dx="0" dy="2" stdDeviation="3" flood-opacity="0.1" />
    </filter>
    <linearGradient id="fillGrad" x1="0" y1="0" x2="0" y2="1">
      <stop offset="0%" stop-color="#0366d6" stop-opacity="0.3"/>
      <stop offset="100%" stop-color="#0366d6" stop-opacity="0.02"/>
    </linearGradient>
  </defs>
  <rect width="600" height="150" rx="12" fill="#ffffff" filter="url(#shadow2)" stroke="#e1e4e8" stroke-width="1"/>
  <text x="20" y="24" fill="#2b3137" font-family="-apple-system,BlinkMacSystemFont,'Segoe UI',Helvetica,Arial,sans-serif" font-size="14" font-weight="600">📈 Download Growth (Actual: 77.2k)</text>
  
  <!-- Area sotto la linea -->
  <polygon fill="url(#fillGrad)" points="30.0,120.0,120 30.0,120.0 32.8,119.0 35.7,118.0 38.5,117.0 41.4,116.8 44.2,116.3 47.1,115.2 49.9,114.4 52.7,113.9 55.6,112.8 58.4,112.2 61.3,111.6 64.1,111.3 66.9,110.7 69.8,110.0 72.6,109.1 75.5,108.5 78.3,108.1 81.2,107.7 84.0,107.2 86.8,106.6 89.7,106.1 92.5,105.8 95.4,105.3 98.2,103.5 101.1,102.9 103.9,102.2 106.7,101.5 109.6,100.8 112.4,100.2 115.3,99.8 118.1,99.5 120.9,99.0 123.8,98.1 126.6,97.4 129.5,96.8 132.3,96.2 135.2,96.1 138.0,95.9 140.8,95.6 143.7,95.0 146.5,94.6 149.4,94.4 152.2,93.7 155.1,92.7 157.9,92.5 160.7,92.3 163.6,91.9 166.4,91.1 169.3,90.6 172.1,89.8 174.9,89.2 177.8,88.5 180.6,88.4 183.5,87.9 186.3,87.2 189.2,86.5 192.0,85.9 194.8,85.7 197.7,85.3 200.5,85.0 203.4,84.1 206.2,83.4 209.1,82.7 211.9,82.0 214.7,81.7 217.6,81.4 220.4,81.2 223.3,80.6 226.1,80.2 228.9,79.9 231.8,79.6 234.6,79.4 237.5,79.0 240.3,78.7 243.2,78.5 246.0,78.4 248.8,77.6 251.7,77.2 254.5,77.1 257.4,76.8 260.2,76.6 263.1,76.6 265.9,89.0 268.7,87.8 271.6,86.7 274.4,85.6 277.3,82.2 280.1,79.8 282.9,77.3 285.8,76.4 288.6,75.3 291.5,73.6 294.3,71.7 297.2,70.3 300.0,69.8 302.8,69.3 305.7,67.9 308.5,66.9 311.4,66.3 314.2,65.5 317.1,65.2 319.9,65.0 322.7,64.3 325.6,63.1 328.4,62.3 331.3,61.5 334.1,60.6 336.9,60.1 339.8,59.8 342.6,59.0 345.5,58.3 348.3,57.6 351.2,57.0 354.0,56.8 356.8,56.6 359.7,56.2 362.5,55.6 365.4,55.1 368.2,54.7 371.1,54.3 373.9,54.0 376.7,53.6 379.6,53.3 382.4,53.0 385.3,52.7 388.1,52.0 390.9,51.6 393.8,51.0 396.6,50.7 399.5,50.3 402.3,50.1 405.2,49.8 408.0,49.5 410.8,48.6 413.7,48.0 416.5,47.3 419.4,47.0 422.2,46.9 425.1,46.5 427.9,46.1 430.7,45.7 433.6,45.2 436.4,44.7 439.3,44.3 442.1,44.2 444.9,43.9 447.8,43.6 450.6,43.4 453.5,43.0 456.3,42.7 459.2,42.2 462.0,41.9 464.8,41.7 467.7,41.5 470.5,41.3 473.4,40.8 476.2,40.5 479.1,40.0 481.9,39.7 484.7,39.3 487.6,39.0 490.4,38.8 493.3,38.5 496.1,38.0 498.9,37.5 501.8,37.1 504.6,36.7 507.5,36.0 510.3,35.9 513.2,35.6 516.0,35.5 518.8,35.1 521.7,34.8 524.5,34.5 527.4,34.2 530.2,33.9 533.1,33.6 535.9,33.3 538.7,33.1 541.6,32.9 544.4,32.6 547.3,32.1 550.1,31.9 552.9,31.5 555.8,31.3 558.6,31.0 561.5,30.7 564.3,30.5 567.2,30.3 570.0,30.0 570.0,30.0,120" />
  
  <!-- Linea principale -->
  <polyline fill="none" stroke="#0366d6" stroke-width="2.5" stroke-linecap="round" stroke-linejoin="round" points="30.0,120.0 32.8,119.0 35.7,118.0 38.5,117.0 41.4,116.8 44.2,116.3 47.1,115.2 49.9,114.4 52.7,113.9 55.6,112.8 58.4,112.2 61.3,111.6 64.1,111.3 66.9,110.7 69.8,110.0 72.6,109.1 75.5,108.5 78.3,108.1 81.2,107.7 84.0,107.2 86.8,106.6 89.7,106.1 92.5,105.8 95.4,105.3 98.2,103.5 101.1,102.9 103.9,102.2 106.7,101.5 109.6,100.8 112.4,100.2 115.3,99.8 118.1,99.5 120.9,99.0 123.8,98.1 126.6,97.4 129.5,96.8 132.3,96.2 135.2,96.1 138.0,95.9 140.8,95.6 143.7,95.0 146.5,94.6 149.4,94.4 152.2,93.7 155.1,92.7 157.9,92.5 160.7,92.3 163.6,91.9 166.4,91.1 169.3,90.6 172.1,89.8 174.9,89.2 177.8,88.5 180.6,88.4 183.5,87.9 186.3,87.2 189.2,86.5 192.0,85.9 194.8,85.7 197.7,85.3 200.5,85.0 203.4,84.1 206.2,83.4 209.1,82.7 211.9,82.0 214.7,81.7 217.6,81.4 220.4,81.2 223.3,80.6 226.1,80.2 228.9,79.9 231.8,79.6 234.6,79.4 237.5,79.0 240.3,78.7 243.2,78.5 246.0,78.4 248.8,77.6 251.7,77.2 254.5,77.1 257.4,76.8 260.2,76.6 263.1,76.6 265.9,89.0 268.7,87.8 271.6,86.7 274.4,85.6 277.3,82.2 280.1,79.8 282.9,77.3 285.8,76.4 288.6,75.3 291.5,73.6 294.3,71.7 297.2,70.3 300.0,69.8 302.8,69.3 305.7,67.9 308.5,66.9 311.4,66.3 314.2,65.5 317.1,65.2 319.9,65.0 322.7,64.3 325.6,63.1 328.4,62.3 331.3,61.5 334.1,60.6 336.9,60.1 339.8,59.8 342.6,59.0 345.5,58.3 348.3,57.6 351.2,57.0 354.0,56.8 356.8,56.6 359.7,56.2 362.5,55.6 365.4,55.1 368.2,54.7 371.1,54.3 373.9,54.0 376.7,53.6 379.6,53.3 382.4,53.0 385.3,52.7 388.1,52.0 390.9,51.6 393.8,51.0 396.6,50.7 399.5,50.3 402.3,50.1 405.2,49.8 408.0,49.5 410.8,48.6 413.7,48.0 416.5,47.3 419.4,47.0 422.2,46.9 425.1,46.5 427.9,46.1 430.7,45.7 433.6,45.2 436.4,44.7 439.3,44.3 442.1,44.2 444.9,43.9 447.8,43.6 450.6,43.4 453.5,43.0 456.3,42.7 459.2,42.2 462.0,41.9 464.8,41.7 467.7,41.5 470.5,41.3 473.4,40.8 476.2,40.5 479.1,40.0 481.9,39.7 484.7,39.3 487.6,39.0 490.4,38.8 493.3,38.5 496.1,38.0 498.9,37.5 501.8,37.1 504.6,36.7 507.5,36.0 510.3,35.9 513.2,35.6 516.0,35.5 518.8,35.1 521.7,34.8 524.5,34.5 527.4,34.2 530.2,33.9 533.1,33.6 535.9,33.3 538.7,33.1 541.6,32.9 544.4,32.6 547.3,32.1 550.1,31.9 552.9,31.5 555.8,31.3 558.6,31.0 561.5,30.7 564.3,30.5 567.2,30.3 570.0,30.0" />
  
  <!-- Punto finale luminoso -->
  <circle cx="570.0" cy="30.0" r="4" fill="#ffffff" stroke="#0366d6" stroke-width="2.5" />
</svg>