<svg width="600" height="150" viewBox="0 0 600 150" xmlns="http://www.w3.org/2000/svg">
  <defs>
    <filter id="shadow2" x="-2%" y="-2%" width="104%" height="108%">
      <feDropShadow dx="0" dy="2" stdDeviation="3" flood-opacity="0.1" />
    </filter>
    <linearGradient id="fillGrad" x1="0" y1="0" x2="0" y2="1">
      <stop offset="0%" stop-color="#0366d6" stop-opacity="0.3"/>
      <stop offset="100%" stop-color="#0366d6" stop-opacity="0.02"/>
    </linearGradient>
  </defs>
  <rect width="600" height="150" rx="12" fill="#ffffff" filter="url(#shadow2)" stroke="#e1e4e8" stroke-width="1"/>
  <text x="20" y="24" fill="#2b3137" font-family="-apple-system,BlinkMacSystemFont,'Segoe UI',Helvetica,Arial,sans-serif" font-size="14" font-weight="600">📈 Download Growth (Actual: 71.2k)</text>
  
  <!-- Area sotto la linea -->
  <polygon fill="url(#fillGrad)" points="30.0,120.0,120 30.0,120.0 38.6,117.7 47.1,115.1 55.7,112.9 64.3,112.3 72.9,111.1 81.4,108.4 90.0,106.6 98.6,105.4 107.1,102.6 115.7,101.2 124.3,99.8 132.9,98.9 141.4,97.7 150.0,95.8 158.6,93.8 167.1,92.2 175.7,91.2 184.3,90.5 192.9,89.2 201.4,87.7 210.0,86.4 218.6,85.8 227.1,84.5 235.7,80.1 244.3,78.8 252.9,77.1 261.4,75.3 270.0,73.8 278.6,72.3 287.1,71.4 295.7,70.6 304.3,69.4 312.9,67.2 321.4,65.4 330.0,64.2 338.6,62.7 347.1,62.2 355.7,61.9 364.3,61.1 372.9,59.7 381.4,58.9 390.0,58.2 398.6,56.6 407.1,54.3 415.7,53.7 424.3,53.2 432.9,52.3 441.4,50.4 450.0,49.2 458.6,47.2 467.1,45.8 475.7,44.1 484.3,43.7 492.9,42.7 501.4,40.9 510.0,39.1 518.6,37.8 527.1,37.2 535.7,36.3 544.3,35.5 552.9,33.5 561.4,31.7 570.0,30.0 570.0,30.0,120" />
  
  <!-- Linea principale -->
  <polyline fill="none" stroke="#0366d6" stroke-width="2.5" stroke-linecap="round" stroke-linejoin="round" points="30.0,120.0 38.6,117.7 47.1,115.1 55.7,112.9 64.3,112.3 72.9,111.1 81.4,108.4 90.0,106.6 98.6,105.4 107.1,102.6 115.7,101.2 124.3,99.8 132.9,98.9 141.4,97.7 150.0,95.8 158.6,93.8 167.1,92.2 175.7,91.2 184.3,90.5 192.9,89.2 201.4,87.7 210.0,86.4 218.6,85.8 227.1,84.5 235.7,80.1 244.3,78.8 252.9,77.1 261.4,75.3 270.0,73.8 278.6,72.3 287.1,71.4 295.7,70.6 304.3,69.4 312.9,67.2 321.4,65.4 330.0,64.2 338.6,62.7 347.1,62.2 355.7,61.9 364.3,61.1 372.9,59.7 381.4,58.9 390.0,58.2 398.6,56.6 407.1,54.3 415.7,53.7 424.3,53.2 432.9,52.3 441.4,50.4 450.0,49.2 458.6,47.2 467.1,45.8 475.7,44.1 484.3,43.7 492.9,42.7 501.4,40.9 510.0,39.1 518.6,37.8 527.1,37.2 535.7,36.3 544.3,35.5 552.9,33.5 561.4,31.7 570.0,30.0" />
  
  <!-- Punto finale luminoso -->
  <circle cx="570.0" cy="30.0" r="4" fill="#ffffff" stroke="#0366d6" stroke-width="2.5" />
</svg>