<svg width="600" height="150" viewBox="0 0 600 150" xmlns="http://www.w3.org/2000/svg">
  <defs>
    <filter id="shadow2" x="-2%" y="-2%" width="104%" height="108%">
      <feDropShadow dx="0" dy="2" stdDeviation="3" flood-opacity="0.1" />
    </filter>
    <linearGradient id="fillGrad" x1="0" y1="0" x2="0" y2="1">
      <stop offset="0%" stop-color="#0366d6" stop-opacity="0.3"/>
      <stop offset="100%" stop-color="#0366d6" stop-opacity="0.02"/>
    </linearGradient>
  </defs>
  <rect width="600" height="150" rx="12" fill="#ffffff" filter="url(#shadow2)" stroke="#e1e4e8" stroke-width="1"/>
  <text x="20" y="24" fill="#2b3137" font-family="-apple-system,BlinkMacSystemFont,'Segoe UI',Helvetica,Arial,sans-serif" font-size="14" font-weight="600">📈 Download Growth (Actual: 86.9k)</text>
  
  <!-- Area sotto la linea -->
  <polygon fill="url(#fillGrad)" points="30.0,120.0,120 30.0,120.0 31.4,119.5 32.7,119.0 34.1,118.5 35.4,118.3 36.8,118.1 38.1,117.5 39.5,117.1 40.9,116.9 42.2,116.3 43.6,116.0 44.9,115.7 46.3,115.5 47.6,115.2 49.0,114.8 50.4,114.4 51.7,114.0 53.1,113.8 54.4,113.7 55.8,113.4 57.1,113.1 58.5,112.8 59.8,112.7 61.2,112.4 62.6,111.4 63.9,111.2 65.3,110.8 66.6,110.4 68.0,110.1 69.3,109.8 70.7,109.6 72.1,109.4 73.4,109.2 74.8,108.7 76.1,108.3 77.5,108.0 78.8,107.7 80.2,107.6 81.6,107.5 82.9,107.4 84.3,107.1 85.6,106.9 87.0,106.8 88.3,106.4 89.7,105.9 91.1,105.8 92.4,105.7 93.8,105.5 95.1,105.1 96.5,104.8 97.8,104.4 99.2,104.1 100.6,103.7 101.9,103.6 103.3,103.4 104.6,103.0 106.0,102.7 107.3,102.4 108.7,102.2 110.1,102.1 111.4,101.9 112.8,101.5 114.1,101.1 115.5,100.7 116.8,100.4 118.2,100.2 119.5,100.1 120.9,99.9 122.3,99.6 123.6,99.4 125.0,99.3 126.3,99.1 127.7,99.0 129.0,98.8 130.4,98.7 131.8,98.6 133.1,98.5 134.5,98.1 135.8,97.9 137.2,97.8 138.5,97.7 139.9,97.6 141.3,97.6 142.6,104.0 144.0,103.4 145.3,102.8 146.7,102.2 148.0,100.5 149.4,99.2 150.8,97.9 152.1,97.4 153.5,96.9 154.8,96.0 156.2,95.0 157.5,94.3 158.9,94.0 160.3,93.8 161.6,93.1 163.0,92.6 164.3,92.2 165.7,91.8 167.0,91.6 168.4,91.6 169.7,91.2 171.1,90.6 172.5,90.2 173.8,89.8 175.2,89.3 176.5,89.0 177.9,88.9 179.2,88.5 180.6,88.1 182.0,87.7 183.3,87.4 184.7,87.3 186.0,87.2 187.4,87.0 188.7,86.7 190.1,86.5 191.5,86.2 192.8,86.0 194.2,85.9 195.5,85.7 196.9,85.5 198.2,85.4 199.6,85.2 201.0,84.9 202.3,84.6 203.7,84.3 205.0,84.2 206.4,84.0 207.7,83.9 209.1,83.7 210.5,83.5 211.8,83.1 213.2,82.8 214.5,82.4 215.9,82.2 217.2,82.2 218.6,82.0 219.9,81.8 221.3,81.6 222.7,81.4 224.0,81.1 225.4,80.9 226.7,80.8 228.1,80.6 229.4,80.5 230.8,80.4 232.2,80.2 233.5,80.0 234.9,79.8 236.2,79.6 237.6,79.5 238.9,79.4 240.3,79.3 241.7,79.1 243.0,78.9 244.4,78.7 245.7,78.5 247.1,78.3 248.4,78.1 249.8,78.0 251.2,77.9 252.5,77.6 253.9,77.3 255.2,77.1 256.6,76.9 257.9,76.6 259.3,76.5 260.7,76.4 262.0,76.3 263.4,76.1 264.7,76.0 266.1,75.8 267.4,75.6 268.8,75.5 270.2,75.3 271.5,75.2 272.9,75.1 274.2,75.0 275.6,74.8 276.9,74.5 278.3,74.4 279.6,74.2 281.0,74.1 282.4,74.0 283.7,73.9 285.1,73.8 286.4,73.6 287.8,73.5 289.1,73.2 290.5,72.9 291.9,72.7 293.2,72.6 294.6,72.5 295.9,72.4 297.3,72.2 298.6,72.0 300.0,71.9 301.4,71.8 302.7,71.6 304.1,71.4 305.4,71.2 306.8,71.1 308.1,71.0 309.5,70.8 310.9,70.6 312.2,70.4 313.6,70.2 314.9,70.1 316.3,70.1 317.6,70.0 319.0,69.9 320.4,69.7 321.7,69.6 323.1,69.4 324.4,69.2 325.8,69.1 327.1,69.0 328.5,68.9 329.8,68.7 331.2,68.5 332.6,68.3 333.9,68.2 335.3,68.0 336.6,67.9 338.0,67.8 339.3,67.7 340.7,67.6 342.1,67.5 343.4,67.4 344.8,67.2 346.1,67.0 347.5,66.9 348.8,66.8 350.2,66.6 351.6,66.5 352.9,66.3 354.3,66.2 355.6,66.1 357.0,66.0 358.3,65.8 359.7,65.7 361.1,65.5 362.4,65.4 363.8,65.4 365.1,65.2 366.5,65.1 367.8,65.0 369.2,64.9 370.6,64.8 371.9,64.7 373.3,64.4 374.6,64.2 376.0,68.4 377.3,67.6 378.7,66.0 380.1,65.4 381.4,64.7 382.8,63.7 384.1,63.3 385.5,62.9 386.8,62.3 388.2,61.4 389.5,60.7 390.9,60.5 392.3,60.2 393.6,59.9 395.0,59.4 396.3,59.0 397.7,58.5 399.0,58.2 400.4,57.8 401.8,57.5 403.1,57.2 404.5,57.0 405.8,56.8 407.2,56.6 408.5,56.1 409.9,55.8 411.3,55.4 412.6,54.8 414.0,54.4 415.3,54.3 416.7,54.1 418.0,53.9 419.4,53.5 420.8,53.2 422.1,52.9 423.5,52.0 424.8,51.4 426.2,51.1 427.5,50.9 428.9,50.6 430.3,50.2 431.6,49.8 433.0,49.5 434.3,49.2 435.7,48.9 437.0,48.6 438.4,48.3 439.7,47.9 441.1,47.7 442.5,47.6 443.8,47.4 445.2,47.0 446.5,46.7 447.9,46.5 449.2,46.4 450.6,46.2 452.0,45.9 453.3,45.8 454.7,45.6 456.0,45.4 457.4,45.3 458.7,45.1 460.1,44.8 461.5,44.7 462.8,44.3 464.2,44.0 465.5,43.7 466.9,43.6 468.2,43.4 469.6,43.2 471.0,43.0 472.3,42.9 473.7,42.7 475.0,42.6 476.4,42.5 477.7,42.3 479.1,42.1 480.5,41.8 481.8,41.7 483.2,41.6 484.5,41.3 485.9,41.0 487.2,40.7 488.6,40.5 489.9,40.3 491.3,40.1 492.7,39.8 494.0,39.6 495.4,39.4 496.7,39.2 498.1,39.1 499.4,39.0 500.8,38.7 502.2,38.5 503.5,38.3 504.9,38.2 506.2,38.0 507.6,37.8 508.9,37.6 510.3,37.3 511.7,37.2 513.0,36.9 514.4,36.6 515.7,36.5 517.1,36.3 518.4,36.2 519.8,36.0 521.2,35.8 522.5,35.6 523.9,35.4 525.2,35.3 526.6,35.2 527.9,35.0 529.3,34.8 530.7,34.7 532.0,34.5 533.4,34.4 534.7,34.3 536.1,34.1 537.4,34.0 538.8,33.8 540.2,33.6 541.5,33.5 542.9,33.4 544.2,33.2 545.6,33.0 546.9,32.8 548.3,32.7 549.6,32.6 551.0,32.3 552.4,32.1 553.7,31.8 555.1,31.7 556.4,31.7 557.8,31.6 559.1,31.4 560.5,31.3 561.9,31.0 563.2,30.7 564.6,30.6 565.9,30.4 567.3,30.3 568.6,30.2 570.0,30.0 570.0,30.0,120" />
  
  <!-- Linea principale -->
  <polyline fill="none" stroke="#0366d6" stroke-width="2.5" stroke-linecap="round" stroke-linejoin="round" points="30.0,120.0 31.4,119.5 32.7,119.0 34.1,118.5 35.4,118.3 36.8,118.1 38.1,117.5 39.5,117.1 40.9,116.9 42.2,116.3 43.6,116.0 44.9,115.7 46.3,115.5 47.6,115.2 49.0,114.8 50.4,114.4 51.7,114.0 53.1,113.8 54.4,113.7 55.8,113.4 57.1,113.1 58.5,112.8 59.8,112.7 61.2,112.4 62.6,111.4 63.9,111.2 65.3,110.8 66.6,110.4 68.0,110.1 69.3,109.8 70.7,109.6 72.1,109.4 73.4,109.2 74.8,108.7 76.1,108.3 77.5,108.0 78.8,107.7 80.2,107.6 81.6,107.5 82.9,107.4 84.3,107.1 85.6,106.9 87.0,106.8 88.3,106.4 89.7,105.9 91.1,105.8 92.4,105.7 93.8,105.5 95.1,105.1 96.5,104.8 97.8,104.4 99.2,104.1 100.6,103.7 101.9,103.6 103.3,103.4 104.6,103.0 106.0,102.7 107.3,102.4 108.7,102.2 110.1,102.1 111.4,101.9 112.8,101.5 114.1,101.1 115.5,100.7 116.8,100.4 118.2,100.2 119.5,100.1 120.9,99.9 122.3,99.6 123.6,99.4 125.0,99.3 126.3,99.1 127.7,99.0 129.0,98.8 130.4,98.7 131.8,98.6 133.1,98.5 134.5,98.1 135.8,97.9 137.2,97.8 138.5,97.7 139.9,97.6 141.3,97.6 142.6,104.0 144.0,103.4 145.3,102.8 146.7,102.2 148.0,100.5 149.4,99.2 150.8,97.9 152.1,97.4 153.5,96.9 154.8,96.0 156.2,95.0 157.5,94.3 158.9,94.0 160.3,93.8 161.6,93.1 163.0,92.6 164.3,92.2 165.7,91.8 167.0,91.6 168.4,91.6 169.7,91.2 171.1,90.6 172.5,90.2 173.8,89.8 175.2,89.3 176.5,89.0 177.9,88.9 179.2,88.5 180.6,88.1 182.0,87.7 183.3,87.4 184.7,87.3 186.0,87.2 187.4,87.0 188.7,86.7 190.1,86.5 191.5,86.2 192.8,86.0 194.2,85.9 195.5,85.7 196.9,85.5 198.2,85.4 199.6,85.2 201.0,84.9 202.3,84.6 203.7,84.3 205.0,84.2 206.4,84.0 207.7,83.9 209.1,83.7 210.5,83.5 211.8,83.1 213.2,82.8 214.5,82.4 215.9,82.2 217.2,82.2 218.6,82.0 219.9,81.8 221.3,81.6 222.7,81.4 224.0,81.1 225.4,80.9 226.7,80.8 228.1,80.6 229.4,80.5 230.8,80.4 232.2,80.2 233.5,80.0 234.9,79.8 236.2,79.6 237.6,79.5 238.9,79.4 240.3,79.3 241.7,79.1 243.0,78.9 244.4,78.7 245.7,78.5 247.1,78.3 248.4,78.1 249.8,78.0 251.2,77.9 252.5,77.6 253.9,77.3 255.2,77.1 256.6,76.9 257.9,76.6 259.3,76.5 260.7,76.4 262.0,76.3 263.4,76.1 264.7,76.0 266.1,75.8 267.4,75.6 268.8,75.5 270.2,75.3 271.5,75.2 272.9,75.1 274.2,75.0 275.6,74.8 276.9,74.5 278.3,74.4 279.6,74.2 281.0,74.1 282.4,74.0 283.7,73.9 285.1,73.8 286.4,73.6 287.8,73.5 289.1,73.2 290.5,72.9 291.9,72.7 293.2,72.6 294.6,72.5 295.9,72.4 297.3,72.2 298.6,72.0 300.0,71.9 301.4,71.8 302.7,71.6 304.1,71.4 305.4,71.2 306.8,71.1 308.1,71.0 309.5,70.8 310.9,70.6 312.2,70.4 313.6,70.2 314.9,70.1 316.3,70.1 317.6,70.0 319.0,69.9 320.4,69.7 321.7,69.6 323.1,69.4 324.4,69.2 325.8,69.1 327.1,69.0 328.5,68.9 329.8,68.7 331.2,68.5 332.6,68.3 333.9,68.2 335.3,68.0 336.6,67.9 338.0,67.8 339.3,67.7 340.7,67.6 342.1,67.5 343.4,67.4 344.8,67.2 346.1,67.0 347.5,66.9 348.8,66.8 350.2,66.6 351.6,66.5 352.9,66.3 354.3,66.2 355.6,66.1 357.0,66.0 358.3,65.8 359.7,65.7 361.1,65.5 362.4,65.4 363.8,65.4 365.1,65.2 366.5,65.1 367.8,65.0 369.2,64.9 370.6,64.8 371.9,64.7 373.3,64.4 374.6,64.2 376.0,68.4 377.3,67.6 378.7,66.0 380.1,65.4 381.4,64.7 382.8,63.7 384.1,63.3 385.5,62.9 386.8,62.3 388.2,61.4 389.5,60.7 390.9,60.5 392.3,60.2 393.6,59.9 395.0,59.4 396.3,59.0 397.7,58.5 399.0,58.2 400.4,57.8 401.8,57.5 403.1,57.2 404.5,57.0 405.8,56.8 407.2,56.6 408.5,56.1 409.9,55.8 411.3,55.4 412.6,54.8 414.0,54.4 415.3,54.3 416.7,54.1 418.0,53.9 419.4,53.5 420.8,53.2 422.1,52.9 423.5,52.0 424.8,51.4 426.2,51.1 427.5,50.9 428.9,50.6 430.3,50.2 431.6,49.8 433.0,49.5 434.3,49.2 435.7,48.9 437.0,48.6 438.4,48.3 439.7,47.9 441.1,47.7 442.5,47.6 443.8,47.4 445.2,47.0 446.5,46.7 447.9,46.5 449.2,46.4 450.6,46.2 452.0,45.9 453.3,45.8 454.7,45.6 456.0,45.4 457.4,45.3 458.7,45.1 460.1,44.8 461.5,44.7 462.8,44.3 464.2,44.0 465.5,43.7 466.9,43.6 468.2,43.4 469.6,43.2 471.0,43.0 472.3,42.9 473.7,42.7 475.0,42.6 476.4,42.5 477.7,42.3 479.1,42.1 480.5,41.8 481.8,41.7 483.2,41.6 484.5,41.3 485.9,41.0 487.2,40.7 488.6,40.5 489.9,40.3 491.3,40.1 492.7,39.8 494.0,39.6 495.4,39.4 496.7,39.2 498.1,39.1 499.4,39.0 500.8,38.7 502.2,38.5 503.5,38.3 504.9,38.2 506.2,38.0 507.6,37.8 508.9,37.6 510.3,37.3 511.7,37.2 513.0,36.9 514.4,36.6 515.7,36.5 517.1,36.3 518.4,36.2 519.8,36.0 521.2,35.8 522.5,35.6 523.9,35.4 525.2,35.3 526.6,35.2 527.9,35.0 529.3,34.8 530.7,34.7 532.0,34.5 533.4,34.4 534.7,34.3 536.1,34.1 537.4,34.0 538.8,33.8 540.2,33.6 541.5,33.5 542.9,33.4 544.2,33.2 545.6,33.0 546.9,32.8 548.3,32.7 549.6,32.6 551.0,32.3 552.4,32.1 553.7,31.8 555.1,31.7 556.4,31.7 557.8,31.6 559.1,31.4 560.5,31.3 561.9,31.0 563.2,30.7 564.6,30.6 565.9,30.4 567.3,30.3 568.6,30.2 570.0,30.0" />
  
  <!-- Punto finale luminoso -->
  <circle cx="570.0" cy="30.0" r="4" fill="#ffffff" stroke="#0366d6" stroke-width="2.5" />
</svg>