<svg width="600" height="150" viewBox="0 0 600 150" xmlns="http://www.w3.org/2000/svg">
  <defs>
    <filter id="shadow2" x="-2%" y="-2%" width="104%" height="108%">
      <feDropShadow dx="0" dy="2" stdDeviation="3" flood-opacity="0.1" />
    </filter>
    <linearGradient id="fillGrad" x1="0" y1="0" x2="0" y2="1">
      <stop offset="0%" stop-color="#0366d6" stop-opacity="0.3"/>
      <stop offset="100%" stop-color="#0366d6" stop-opacity="0.02"/>
    </linearGradient>
  </defs>
  <rect width="600" height="150" rx="12" fill="#ffffff" filter="url(#shadow2)" stroke="#e1e4e8" stroke-width="1"/>
  <text x="20" y="24" fill="#2b3137" font-family="-apple-system,BlinkMacSystemFont,'Segoe UI',Helvetica,Arial,sans-serif" font-size="14" font-weight="600">📈 Download Growth (Actual: 96.8k)</text>
  
  <!-- Area sotto la linea -->
  <polygon fill="url(#fillGrad)" points="30.0,120.0,120 30.0,120.0 30.8,119.7 31.6,119.3 32.4,119.0 33.2,118.9 34.0,118.7 34.8,118.3 35.6,118.1 36.4,117.9 37.2,117.5 38.0,117.3 38.8,117.1 39.6,117.0 40.4,116.8 41.2,116.5 41.9,116.2 42.7,116.0 43.5,115.9 44.3,115.8 45.1,115.6 45.9,115.4 46.7,115.2 47.5,115.1 48.3,114.9 49.1,114.3 49.9,114.1 50.7,113.8 51.5,113.6 52.3,113.4 53.1,113.2 53.9,113.0 54.7,112.9 55.5,112.7 56.3,112.4 57.1,112.2 57.9,112.0 58.7,111.8 59.5,111.7 60.3,111.7 61.1,111.5 61.9,111.3 62.7,111.2 63.5,111.1 64.2,110.9 65.0,110.6 65.8,110.5 66.6,110.4 67.4,110.3 68.2,110.0 69.0,109.8 69.8,109.6 70.6,109.4 71.4,109.1 72.2,109.1 73.0,108.9 73.8,108.6 74.6,108.4 75.4,108.2 76.2,108.1 77.0,108.0 77.8,107.9 78.6,107.6 79.4,107.3 80.2,107.1 81.0,106.8 81.8,106.7 82.6,106.7 83.4,106.6 84.2,106.4 85.0,106.2 85.8,106.1 86.5,106.0 87.3,105.9 88.1,105.8 88.9,105.7 89.7,105.7 90.5,105.6 91.3,105.3 92.1,105.2 92.9,105.1 93.7,105.0 94.5,105.0 95.3,105.0 96.1,109.3 96.9,108.9 97.7,108.5 98.5,108.1 99.3,106.9 100.1,106.1 100.9,105.2 101.7,104.9 102.5,104.5 103.3,103.9 104.1,103.3 104.9,102.8 105.7,102.6 106.5,102.4 107.3,102.0 108.1,101.6 108.8,101.4 109.6,101.1 110.4,101.0 111.2,101.0 112.0,100.7 112.8,100.3 113.6,100.0 114.4,99.7 115.2,99.4 116.0,99.3 116.8,99.2 117.6,98.9 118.4,98.6 119.2,98.4 120.0,98.2 120.8,98.1 121.6,98.1 122.4,97.9 123.2,97.7 124.0,97.5 124.8,97.4 125.6,97.3 126.4,97.1 127.2,97.0 128.0,96.9 128.8,96.8 129.6,96.7 130.4,96.5 131.2,96.3 131.9,96.1 132.7,96.0 133.5,95.9 134.3,95.8 135.1,95.7 135.9,95.6 136.7,95.3 137.5,95.1 138.3,94.8 139.1,94.7 139.9,94.7 140.7,94.6 141.5,94.4 142.3,94.3 143.1,94.1 143.9,93.9 144.7,93.8 145.5,93.7 146.3,93.6 147.1,93.6 147.9,93.5 148.7,93.3 149.5,93.2 150.3,93.1 151.1,93.0 151.9,92.9 152.7,92.8 153.5,92.8 154.2,92.6 155.0,92.5 155.8,92.3 156.6,92.2 157.4,92.1 158.2,92.0 159.0,91.9 159.8,91.8 160.6,91.6 161.4,91.4 162.2,91.3 163.0,91.2 163.8,90.9 164.6,90.9 165.4,90.8 166.2,90.7 167.0,90.6 167.8,90.5 168.6,90.4 169.4,90.3 170.2,90.2 171.0,90.1 171.8,90.0 172.6,89.9 173.4,89.9 174.2,89.7 175.0,89.6 175.8,89.5 176.5,89.4 177.3,89.3 178.1,89.2 178.9,89.1 179.7,89.0 180.5,88.9 181.3,88.8 182.1,88.7 182.9,88.5 183.7,88.3 184.5,88.2 185.3,88.2 186.1,88.1 186.9,88.0 187.7,87.8 188.5,87.8 189.3,87.7 190.1,87.6 190.9,87.5 191.7,87.4 192.5,87.3 193.3,87.2 194.1,87.1 194.9,86.9 195.7,86.8 196.5,86.7 197.3,86.6 198.1,86.6 198.8,86.5 199.6,86.4 200.4,86.3 201.2,86.2 202.0,86.1 202.8,86.0 203.6,85.9 204.4,85.9 205.2,85.8 206.0,85.7 206.8,85.5 207.6,85.4 208.4,85.3 209.2,85.2 210.0,85.1 210.8,85.1 211.6,85.0 212.4,84.9 213.2,84.9 214.0,84.8 214.8,84.6 215.6,84.5 216.4,84.4 217.2,84.4 218.0,84.3 218.8,84.2 219.6,84.1 220.4,84.0 221.2,83.9 221.9,83.8 222.7,83.7 223.5,83.6 224.3,83.5 225.1,83.5 225.9,83.4 226.7,83.3 227.5,83.3 228.3,83.2 229.1,83.1 229.9,83.1 230.7,83.0 231.5,82.8 232.3,82.6 233.1,85.4 233.9,84.9 234.7,83.8 235.5,83.4 236.3,82.9 237.1,82.3 237.9,82.0 238.7,81.8 239.5,81.4 240.3,80.8 241.1,80.3 241.9,80.2 242.7,79.9 243.5,79.8 244.2,79.4 245.0,79.1 245.8,78.8 246.6,78.6 247.4,78.3 248.2,78.2 249.0,78.0 249.8,77.8 250.6,77.7 251.4,77.5 252.2,77.2 253.0,77.0 253.8,76.7 254.6,76.3 255.4,76.1 256.2,76.0 257.0,75.9 257.8,75.7 258.6,75.5 259.4,75.2 260.2,75.1 261.0,74.5 261.8,74.0 262.6,73.8 263.4,73.7 264.2,73.5 265.0,73.2 265.8,73.0 266.5,72.8 267.3,72.6 268.1,72.4 268.9,72.2 269.7,72.0 270.5,71.7 271.3,71.6 272.1,71.5 272.9,71.4 273.7,71.1 274.5,70.9 275.3,70.8 276.1,70.7 276.9,70.6 277.7,70.4 278.5,70.3 279.3,70.2 280.1,70.1 280.9,70.0 281.7,69.9 282.5,69.7 283.3,69.5 284.1,69.3 284.9,69.1 285.7,68.9 286.5,68.8 287.3,68.7 288.1,68.6 288.8,68.5 289.6,68.3 290.4,68.2 291.2,68.2 292.0,68.1 292.8,67.9 293.6,67.9 294.4,67.7 295.2,67.6 296.0,67.5 296.8,67.3 297.6,67.1 298.4,66.9 299.2,66.7 300.0,66.6 300.8,66.5 301.6,66.3 302.4,66.2 303.2,66.0 304.0,65.9 304.8,65.8 305.6,65.7 306.4,65.6 307.2,65.4 308.0,65.3 308.8,65.2 309.6,65.1 310.4,64.9 311.2,64.8 311.9,64.6 312.7,64.5 313.5,64.3 314.3,64.2 315.1,64.1 315.9,64.0 316.7,63.9 317.5,63.8 318.3,63.6 319.1,63.5 319.9,63.4 320.7,63.3 321.5,63.2 322.3,63.1 323.1,63.0 323.9,62.9 324.7,62.8 325.5,62.7 326.3,62.6 327.1,62.5 327.9,62.4 328.7,62.3 329.5,62.2 330.3,62.1 331.1,62.0 331.9,61.9 332.7,61.7 333.5,61.6 334.2,61.5 335.0,61.4 335.8,61.3 336.6,61.2 337.4,61.0 338.2,60.9 339.0,60.8 339.8,60.8 340.6,60.7 341.4,60.6 342.2,60.4 343.0,60.2 343.8,60.2 344.6,60.0 345.4,59.9 346.2,59.9 347.0,59.7 347.8,59.6 348.6,59.5 349.4,59.3 350.2,59.3 351.0,59.1 351.8,58.9 352.6,58.8 353.4,58.6 354.2,58.6 355.0,58.4 355.8,58.3 356.5,58.1 357.3,58.0 358.1,57.9 358.9,57.8 359.7,57.7 360.5,57.6 361.3,57.4 362.1,57.4 362.9,57.3 363.7,57.1 364.5,56.9 365.3,56.8 366.1,56.7 366.9,56.6 367.7,56.5 368.5,56.4 369.3,56.3 370.1,56.2 370.9,56.2 371.7,56.1 372.5,56.0 373.3,55.9 374.1,55.8 374.9,55.7 375.7,55.6 376.5,55.5 377.3,55.4 378.1,55.4 378.8,55.3 379.6,55.2 380.4,55.1 381.2,55.0 382.0,54.9 382.8,54.9 383.6,64.0 384.4,63.1 385.2,62.4 386.0,61.8 386.8,61.3 387.6,61.0 388.4,60.4 389.2,59.9 390.0,59.2 390.8,58.9 391.6,58.5 392.4,58.2 393.2,57.7 394.0,57.5 394.8,57.3 395.6,57.1 396.4,56.7 397.2,56.3 398.0,56.0 398.8,55.6 399.6,55.3 400.4,55.1 401.2,55.0 401.9,54.8 402.7,54.6 403.5,54.4 404.3,54.3 405.1,54.3 405.9,54.3 406.7,54.3 407.5,54.3 408.3,54.2 409.1,54.0 409.9,53.9 410.7,53.6 411.5,53.5 412.3,53.2 413.1,53.1 413.9,53.0 414.7,52.8 415.5,52.7 416.3,52.5 417.1,52.4 417.9,52.3 418.7,52.1 419.5,51.9 420.3,51.7 421.1,51.6 421.9,51.4 422.7,51.3 423.5,51.1 424.2,51.1 425.0,51.0 425.8,50.9 426.6,50.6 427.4,50.5 428.2,50.3 429.0,50.2 429.8,50.0 430.6,49.9 431.4,49.8 432.2,49.7 433.0,49.6 433.8,49.5 434.6,49.4 435.4,49.2 436.2,49.1 437.0,49.0 437.8,48.9 438.6,48.8 439.4,48.6 440.2,48.5 441.0,48.3 441.8,48.2 442.6,48.1 443.4,48.0 444.2,47.9 445.0,47.8 445.8,47.7 446.5,47.7 447.3,47.5 448.1,47.4 448.9,47.2 449.7,47.1 450.5,47.0 451.3,47.0 452.1,46.9 452.9,46.7 453.7,46.7 454.5,46.6 455.3,46.4 456.1,46.4 456.9,46.3 457.7,46.2 458.5,46.1 459.3,46.0 460.1,45.9 460.9,45.8 461.7,45.6 462.5,45.5 463.3,45.4 464.1,45.3 464.9,45.3 465.7,45.1 466.5,45.0 467.3,44.9 468.1,44.8 468.8,44.6 469.6,44.5 470.4,44.4 471.2,44.3 472.0,44.3 472.8,44.2 473.6,44.1 474.4,44.0 475.2,43.8 476.0,43.7 476.8,43.2 477.6,43.1 478.4,43.0 479.2,42.9 480.0,42.9 480.8,42.8 481.6,42.8 482.4,42.6 483.2,42.5 484.0,42.4 484.8,42.3 485.6,42.3 486.4,42.2 487.2,42.2 488.0,42.1 488.8,42.1 489.6,42.0 490.4,42.0 491.2,41.9 491.9,41.9 492.7,41.8 493.5,41.8 494.3,41.6 495.1,41.5 495.9,41.5 496.7,41.4 497.5,41.3 498.3,41.3 499.1,41.2 499.9,41.2 500.7,41.1 501.5,41.0 502.3,41.0 503.1,40.9 503.9,40.8 504.7,40.7 505.5,40.6 506.3,40.6 507.1,40.5 507.9,40.5 508.7,40.4 509.5,40.4 510.3,40.4 511.1,40.3 511.9,40.2 512.7,40.1 513.5,40.0 514.2,40.0 515.0,40.0 515.8,39.9 516.6,39.9 517.4,39.9 518.2,39.8 519.0,39.8 519.8,39.7 520.6,39.6 521.4,39.5 522.2,39.4 523.0,39.4 523.8,42.1 524.6,41.4 525.4,40.8 526.2,40.4 527.0,39.9 527.8,39.5 528.6,39.1 529.4,38.7 530.2,38.2 531.0,37.7 531.8,37.4 532.6,37.2 533.4,37.0 534.2,36.8 535.0,36.5 535.8,36.4 536.5,36.3 537.3,36.1 538.1,35.9 538.9,35.7 539.7,35.4 540.5,35.2 541.3,35.0 542.1,34.8 542.9,34.7 543.7,34.5 544.5,34.4 545.3,34.3 546.1,34.2 546.9,34.0 547.7,33.9 548.5,33.7 549.3,33.5 550.1,33.3 550.9,33.1 551.7,33.0 552.5,32.8 553.3,32.7 554.1,32.6 554.9,32.5 555.7,32.4 556.5,32.2 557.3,32.1 558.1,32.0 558.8,31.8 559.6,31.6 560.4,31.4 561.2,31.2 562.0,31.1 562.8,31.0 563.6,30.9 564.4,30.9 565.2,30.8 566.0,30.7 566.8,30.6 567.6,30.4 568.4,30.3 569.2,30.1 570.0,30.0 570.0,30.0,120" />
  
  <!-- Linea principale -->
  <polyline fill="none" stroke="#0366d6" stroke-width="2.5" stroke-linecap="round" stroke-linejoin="round" points="30.0,120.0 30.8,119.7 31.6,119.3 32.4,119.0 33.2,118.9 34.0,118.7 34.8,118.3 35.6,118.1 36.4,117.9 37.2,117.5 38.0,117.3 38.8,117.1 39.6,117.0 40.4,116.8 41.2,116.5 41.9,116.2 42.7,116.0 43.5,115.9 44.3,115.8 45.1,115.6 45.9,115.4 46.7,115.2 47.5,115.1 48.3,114.9 49.1,114.3 49.9,114.1 50.7,113.8 51.5,113.6 52.3,113.4 53.1,113.2 53.9,113.0 54.7,112.9 55.5,112.7 56.3,112.4 57.1,112.2 57.9,112.0 58.7,111.8 59.5,111.7 60.3,111.7 61.1,111.5 61.9,111.3 62.7,111.2 63.5,111.1 64.2,110.9 65.0,110.6 65.8,110.5 66.6,110.4 67.4,110.3 68.2,110.0 69.0,109.8 69.8,109.6 70.6,109.4 71.4,109.1 72.2,109.1 73.0,108.9 73.8,108.6 74.6,108.4 75.4,108.2 76.2,108.1 77.0,108.0 77.8,107.9 78.6,107.6 79.4,107.3 80.2,107.1 81.0,106.8 81.8,106.7 82.6,106.7 83.4,106.6 84.2,106.4 85.0,106.2 85.8,106.1 86.5,106.0 87.3,105.9 88.1,105.8 88.9,105.7 89.7,105.7 90.5,105.6 91.3,105.3 92.1,105.2 92.9,105.1 93.7,105.0 94.5,105.0 95.3,105.0 96.1,109.3 96.9,108.9 97.7,108.5 98.5,108.1 99.3,106.9 100.1,106.1 100.9,105.2 101.7,104.9 102.5,104.5 103.3,103.9 104.1,103.3 104.9,102.8 105.7,102.6 106.5,102.4 107.3,102.0 108.1,101.6 108.8,101.4 109.6,101.1 110.4,101.0 111.2,101.0 112.0,100.7 112.8,100.3 113.6,100.0 114.4,99.7 115.2,99.4 116.0,99.3 116.8,99.2 117.6,98.9 118.4,98.6 119.2,98.4 120.0,98.2 120.8,98.1 121.6,98.1 122.4,97.9 123.2,97.7 124.0,97.5 124.8,97.4 125.6,97.3 126.4,97.1 127.2,97.0 128.0,96.9 128.8,96.8 129.6,96.7 130.4,96.5 131.2,96.3 131.9,96.1 132.7,96.0 133.5,95.9 134.3,95.8 135.1,95.7 135.9,95.6 136.7,95.3 137.5,95.1 138.3,94.8 139.1,94.7 139.9,94.7 140.7,94.6 141.5,94.4 142.3,94.3 143.1,94.1 143.9,93.9 144.7,93.8 145.5,93.7 146.3,93.6 147.1,93.6 147.9,93.5 148.7,93.3 149.5,93.2 150.3,93.1 151.1,93.0 151.9,92.9 152.7,92.8 153.5,92.8 154.2,92.6 155.0,92.5 155.8,92.3 156.6,92.2 157.4,92.1 158.2,92.0 159.0,91.9 159.8,91.8 160.6,91.6 161.4,91.4 162.2,91.3 163.0,91.2 163.8,90.9 164.6,90.9 165.4,90.8 166.2,90.7 167.0,90.6 167.8,90.5 168.6,90.4 169.4,90.3 170.2,90.2 171.0,90.1 171.8,90.0 172.6,89.9 173.4,89.9 174.2,89.7 175.0,89.6 175.8,89.5 176.5,89.4 177.3,89.3 178.1,89.2 178.9,89.1 179.7,89.0 180.5,88.9 181.3,88.8 182.1,88.7 182.9,88.5 183.7,88.3 184.5,88.2 185.3,88.2 186.1,88.1 186.9,88.0 187.7,87.8 188.5,87.8 189.3,87.7 190.1,87.6 190.9,87.5 191.7,87.4 192.5,87.3 193.3,87.2 194.1,87.1 194.9,86.9 195.7,86.8 196.5,86.7 197.3,86.6 198.1,86.6 198.8,86.5 199.6,86.4 200.4,86.3 201.2,86.2 202.0,86.1 202.8,86.0 203.6,85.9 204.4,85.9 205.2,85.8 206.0,85.7 206.8,85.5 207.6,85.4 208.4,85.3 209.2,85.2 210.0,85.1 210.8,85.1 211.6,85.0 212.4,84.9 213.2,84.9 214.0,84.8 214.8,84.6 215.6,84.5 216.4,84.4 217.2,84.4 218.0,84.3 218.8,84.2 219.6,84.1 220.4,84.0 221.2,83.9 221.9,83.8 222.7,83.7 223.5,83.6 224.3,83.5 225.1,83.5 225.9,83.4 226.7,83.3 227.5,83.3 228.3,83.2 229.1,83.1 229.9,83.1 230.7,83.0 231.5,82.8 232.3,82.6 233.1,85.4 233.9,84.9 234.7,83.8 235.5,83.4 236.3,82.9 237.1,82.3 237.9,82.0 238.7,81.8 239.5,81.4 240.3,80.8 241.1,80.3 241.9,80.2 242.7,79.9 243.5,79.8 244.2,79.4 245.0,79.1 245.8,78.8 246.6,78.6 247.4,78.3 248.2,78.2 249.0,78.0 249.8,77.8 250.6,77.7 251.4,77.5 252.2,77.2 253.0,77.0 253.8,76.7 254.6,76.3 255.4,76.1 256.2,76.0 257.0,75.9 257.8,75.7 258.6,75.5 259.4,75.2 260.2,75.1 261.0,74.5 261.8,74.0 262.6,73.8 263.4,73.7 264.2,73.5 265.0,73.2 265.8,73.0 266.5,72.8 267.3,72.6 268.1,72.4 268.9,72.2 269.7,72.0 270.5,71.7 271.3,71.6 272.1,71.5 272.9,71.4 273.7,71.1 274.5,70.9 275.3,70.8 276.1,70.7 276.9,70.6 277.7,70.4 278.5,70.3 279.3,70.2 280.1,70.1 280.9,70.0 281.7,69.9 282.5,69.7 283.3,69.5 284.1,69.3 284.9,69.1 285.7,68.9 286.5,68.8 287.3,68.7 288.1,68.6 288.8,68.5 289.6,68.3 290.4,68.2 291.2,68.2 292.0,68.1 292.8,67.9 293.6,67.9 294.4,67.7 295.2,67.6 296.0,67.5 296.8,67.3 297.6,67.1 298.4,66.9 299.2,66.7 300.0,66.6 300.8,66.5 301.6,66.3 302.4,66.2 303.2,66.0 304.0,65.9 304.8,65.8 305.6,65.7 306.4,65.6 307.2,65.4 308.0,65.3 308.8,65.2 309.6,65.1 310.4,64.9 311.2,64.8 311.9,64.6 312.7,64.5 313.5,64.3 314.3,64.2 315.1,64.1 315.9,64.0 316.7,63.9 317.5,63.8 318.3,63.6 319.1,63.5 319.9,63.4 320.7,63.3 321.5,63.2 322.3,63.1 323.1,63.0 323.9,62.9 324.7,62.8 325.5,62.7 326.3,62.6 327.1,62.5 327.9,62.4 328.7,62.3 329.5,62.2 330.3,62.1 331.1,62.0 331.9,61.9 332.7,61.7 333.5,61.6 334.2,61.5 335.0,61.4 335.8,61.3 336.6,61.2 337.4,61.0 338.2,60.9 339.0,60.8 339.8,60.8 340.6,60.7 341.4,60.6 342.2,60.4 343.0,60.2 343.8,60.2 344.6,60.0 345.4,59.9 346.2,59.9 347.0,59.7 347.8,59.6 348.6,59.5 349.4,59.3 350.2,59.3 351.0,59.1 351.8,58.9 352.6,58.8 353.4,58.6 354.2,58.6 355.0,58.4 355.8,58.3 356.5,58.1 357.3,58.0 358.1,57.9 358.9,57.8 359.7,57.7 360.5,57.6 361.3,57.4 362.1,57.4 362.9,57.3 363.7,57.1 364.5,56.9 365.3,56.8 366.1,56.7 366.9,56.6 367.7,56.5 368.5,56.4 369.3,56.3 370.1,56.2 370.9,56.2 371.7,56.1 372.5,56.0 373.3,55.9 374.1,55.8 374.9,55.7 375.7,55.6 376.5,55.5 377.3,55.4 378.1,55.4 378.8,55.3 379.6,55.2 380.4,55.1 381.2,55.0 382.0,54.9 382.8,54.9 383.6,64.0 384.4,63.1 385.2,62.4 386.0,61.8 386.8,61.3 387.6,61.0 388.4,60.4 389.2,59.9 390.0,59.2 390.8,58.9 391.6,58.5 392.4,58.2 393.2,57.7 394.0,57.5 394.8,57.3 395.6,57.1 396.4,56.7 397.2,56.3 398.0,56.0 398.8,55.6 399.6,55.3 400.4,55.1 401.2,55.0 401.9,54.8 402.7,54.6 403.5,54.4 404.3,54.3 405.1,54.3 405.9,54.3 406.7,54.3 407.5,54.3 408.3,54.2 409.1,54.0 409.9,53.9 410.7,53.6 411.5,53.5 412.3,53.2 413.1,53.1 413.9,53.0 414.7,52.8 415.5,52.7 416.3,52.5 417.1,52.4 417.9,52.3 418.7,52.1 419.5,51.9 420.3,51.7 421.1,51.6 421.9,51.4 422.7,51.3 423.5,51.1 424.2,51.1 425.0,51.0 425.8,50.9 426.6,50.6 427.4,50.5 428.2,50.3 429.0,50.2 429.8,50.0 430.6,49.9 431.4,49.8 432.2,49.7 433.0,49.6 433.8,49.5 434.6,49.4 435.4,49.2 436.2,49.1 437.0,49.0 437.8,48.9 438.6,48.8 439.4,48.6 440.2,48.5 441.0,48.3 441.8,48.2 442.6,48.1 443.4,48.0 444.2,47.9 445.0,47.8 445.8,47.7 446.5,47.7 447.3,47.5 448.1,47.4 448.9,47.2 449.7,47.1 450.5,47.0 451.3,47.0 452.1,46.9 452.9,46.7 453.7,46.7 454.5,46.6 455.3,46.4 456.1,46.4 456.9,46.3 457.7,46.2 458.5,46.1 459.3,46.0 460.1,45.9 460.9,45.8 461.7,45.6 462.5,45.5 463.3,45.4 464.1,45.3 464.9,45.3 465.7,45.1 466.5,45.0 467.3,44.9 468.1,44.8 468.8,44.6 469.6,44.5 470.4,44.4 471.2,44.3 472.0,44.3 472.8,44.2 473.6,44.1 474.4,44.0 475.2,43.8 476.0,43.7 476.8,43.2 477.6,43.1 478.4,43.0 479.2,42.9 480.0,42.9 480.8,42.8 481.6,42.8 482.4,42.6 483.2,42.5 484.0,42.4 484.8,42.3 485.6,42.3 486.4,42.2 487.2,42.2 488.0,42.1 488.8,42.1 489.6,42.0 490.4,42.0 491.2,41.9 491.9,41.9 492.7,41.8 493.5,41.8 494.3,41.6 495.1,41.5 495.9,41.5 496.7,41.4 497.5,41.3 498.3,41.3 499.1,41.2 499.9,41.2 500.7,41.1 501.5,41.0 502.3,41.0 503.1,40.9 503.9,40.8 504.7,40.7 505.5,40.6 506.3,40.6 507.1,40.5 507.9,40.5 508.7,40.4 509.5,40.4 510.3,40.4 511.1,40.3 511.9,40.2 512.7,40.1 513.5,40.0 514.2,40.0 515.0,40.0 515.8,39.9 516.6,39.9 517.4,39.9 518.2,39.8 519.0,39.8 519.8,39.7 520.6,39.6 521.4,39.5 522.2,39.4 523.0,39.4 523.8,42.1 524.6,41.4 525.4,40.8 526.2,40.4 527.0,39.9 527.8,39.5 528.6,39.1 529.4,38.7 530.2,38.2 531.0,37.7 531.8,37.4 532.6,37.2 533.4,37.0 534.2,36.8 535.0,36.5 535.8,36.4 536.5,36.3 537.3,36.1 538.1,35.9 538.9,35.7 539.7,35.4 540.5,35.2 541.3,35.0 542.1,34.8 542.9,34.7 543.7,34.5 544.5,34.4 545.3,34.3 546.1,34.2 546.9,34.0 547.7,33.9 548.5,33.7 549.3,33.5 550.1,33.3 550.9,33.1 551.7,33.0 552.5,32.8 553.3,32.7 554.1,32.6 554.9,32.5 555.7,32.4 556.5,32.2 557.3,32.1 558.1,32.0 558.8,31.8 559.6,31.6 560.4,31.4 561.2,31.2 562.0,31.1 562.8,31.0 563.6,30.9 564.4,30.9 565.2,30.8 566.0,30.7 566.8,30.6 567.6,30.4 568.4,30.3 569.2,30.1 570.0,30.0" />
  
  <!-- Punto finale luminoso -->
  <circle cx="570.0" cy="30.0" r="4" fill="#ffffff" stroke="#0366d6" stroke-width="2.5" />
</svg>