<svg width="600" height="150" viewBox="0 0 600 150" xmlns="http://www.w3.org/2000/svg">
  <defs>
    <filter id="shadow2" x="-2%" y="-2%" width="104%" height="108%">
      <feDropShadow dx="0" dy="2" stdDeviation="3" flood-opacity="0.1" />
    </filter>
    <linearGradient id="fillGrad" x1="0" y1="0" x2="0" y2="1">
      <stop offset="0%" stop-color="#0366d6" stop-opacity="0.3"/>
      <stop offset="100%" stop-color="#0366d6" stop-opacity="0.02"/>
    </linearGradient>
  </defs>
  <rect width="600" height="150" rx="12" fill="#ffffff" filter="url(#shadow2)" stroke="#e1e4e8" stroke-width="1"/>
  <text x="20" y="24" fill="#2b3137" font-family="-apple-system,BlinkMacSystemFont,'Segoe UI',Helvetica,Arial,sans-serif" font-size="14" font-weight="600">📈 Download Growth (Actual: 86.5k)</text>
  
  <!-- Area sotto la linea -->
  <polygon fill="url(#fillGrad)" points="30.0,120.0,120 30.0,120.0 31.4,119.5 32.8,118.9 34.2,118.4 35.6,118.3 37.0,118.1 38.4,117.5 39.8,117.1 41.2,116.8 42.6,116.2 44.0,115.9 45.4,115.6 46.8,115.4 48.2,115.1 49.6,114.7 51.0,114.3 52.4,113.9 53.8,113.7 55.2,113.5 56.6,113.3 58.0,112.9 59.4,112.6 60.8,112.5 62.2,112.2 63.6,111.3 65.0,111.0 66.4,110.6 67.8,110.2 69.2,109.9 70.6,109.6 72.0,109.4 73.4,109.2 74.8,108.9 76.2,108.5 77.6,108.1 79.0,107.8 80.4,107.5 81.8,107.4 83.2,107.3 84.6,107.1 86.0,106.8 87.4,106.6 88.8,106.5 90.2,106.1 91.6,105.6 93.0,105.5 94.4,105.4 95.8,105.2 97.2,104.8 98.5,104.5 99.9,104.1 101.3,103.8 102.7,103.4 104.1,103.3 105.5,103.1 106.9,102.7 108.3,102.3 109.7,102.0 111.1,101.9 112.5,101.7 113.9,101.5 115.3,101.1 116.7,100.7 118.1,100.3 119.5,99.9 120.9,99.8 122.3,99.7 123.7,99.5 125.1,99.2 126.5,99.0 127.9,98.8 129.3,98.7 130.7,98.6 132.1,98.4 133.5,98.2 134.9,98.1 136.3,98.0 137.7,97.6 139.1,97.4 140.5,97.3 141.9,97.2 143.3,97.1 144.7,97.1 146.1,103.7 147.5,103.0 148.9,102.4 150.3,101.8 151.7,100.1 153.1,98.8 154.5,97.5 155.9,97.0 157.3,96.4 158.7,95.5 160.1,94.5 161.5,93.8 162.9,93.5 164.3,93.2 165.7,92.5 167.1,92.0 168.5,91.7 169.9,91.2 171.3,91.1 172.7,91.0 174.1,90.6 175.5,90.0 176.9,89.6 178.3,89.1 179.7,88.6 181.1,88.4 182.5,88.2 183.9,87.8 185.3,87.4 186.7,87.1 188.1,86.8 189.5,86.6 190.9,86.5 192.3,86.3 193.7,86.0 195.1,85.8 196.5,85.5 197.9,85.3 199.3,85.1 200.7,85.0 202.1,84.8 203.5,84.6 204.9,84.5 206.3,84.1 207.7,83.9 209.1,83.6 210.5,83.4 211.9,83.2 213.3,83.1 214.7,82.9 216.1,82.8 217.5,82.3 218.9,82.0 220.3,81.6 221.7,81.5 223.1,81.4 224.5,81.2 225.9,81.0 227.3,80.8 228.7,80.5 230.1,80.3 231.5,80.1 232.8,80.0 234.2,79.8 235.6,79.7 237.0,79.6 238.4,79.4 239.8,79.2 241.2,78.9 242.6,78.8 244.0,78.7 245.4,78.6 246.8,78.5 248.2,78.2 249.6,78.0 251.0,77.8 252.4,77.6 253.8,77.4 255.2,77.2 256.6,77.2 258.0,77.0 259.4,76.7 260.8,76.4 262.2,76.2 263.6,76.0 265.0,75.7 266.4,75.6 267.8,75.5 269.2,75.4 270.6,75.2 272.0,75.0 273.4,74.9 274.8,74.7 276.2,74.5 277.6,74.4 279.0,74.2 280.4,74.1 281.8,74.0 283.2,73.9 284.6,73.6 286.0,73.5 287.4,73.3 288.8,73.2 290.2,73.0 291.6,72.9 293.0,72.8 294.4,72.7 295.8,72.5 297.2,72.2 298.6,71.9 300.0,71.7 301.4,71.6 302.8,71.5 304.2,71.4 305.6,71.2 307.0,71.0 308.4,70.9 309.8,70.8 311.2,70.6 312.6,70.4 314.0,70.2 315.4,70.1 316.8,70.0 318.2,69.8 319.6,69.6 321.0,69.4 322.4,69.2 323.8,69.1 325.2,69.0 326.6,69.0 328.0,68.8 329.4,68.7 330.8,68.5 332.2,68.3 333.6,68.2 335.0,68.1 336.4,67.9 337.8,67.8 339.2,67.7 340.6,67.5 342.0,67.3 343.4,67.1 344.8,66.9 346.2,66.8 347.6,66.7 349.0,66.6 350.4,66.5 351.8,66.4 353.2,66.3 354.6,66.1 356.0,65.9 357.4,65.8 358.8,65.7 360.2,65.5 361.6,65.4 363.0,65.2 364.4,65.1 365.8,65.0 367.2,64.9 368.5,64.7 369.9,64.5 371.3,64.4 372.7,64.3 374.1,64.2 375.5,64.1 376.9,64.0 378.3,63.8 379.7,63.7 381.1,63.7 382.5,63.6 383.9,63.2 385.3,63.0 386.7,67.3 388.1,66.5 389.5,64.9 390.9,64.2 392.3,63.5 393.7,62.6 395.1,62.1 396.5,61.7 397.9,61.1 399.3,60.2 400.7,59.5 402.1,59.3 403.5,58.9 404.9,58.6 406.3,58.2 407.7,57.7 409.1,57.2 410.5,57.0 411.9,56.5 413.3,56.2 414.7,55.9 416.1,55.7 417.5,55.5 418.9,55.2 420.3,54.8 421.7,54.4 423.1,54.0 424.5,53.4 425.9,53.1 427.3,52.9 428.7,52.7 430.1,52.5 431.5,52.1 432.9,51.8 434.3,51.5 435.7,50.6 437.1,49.9 438.5,49.6 439.9,49.4 441.3,49.2 442.7,48.7 444.1,48.3 445.5,48.0 446.9,47.7 448.3,47.4 449.7,47.1 451.1,46.8 452.5,46.4 453.9,46.2 455.3,46.0 456.7,45.9 458.1,45.5 459.5,45.2 460.9,45.0 462.3,44.8 463.7,44.7 465.1,44.4 466.5,44.3 467.9,44.0 469.3,43.9 470.7,43.7 472.1,43.5 473.5,43.3 474.9,43.1 476.3,42.7 477.7,42.4 479.1,42.1 480.5,42.0 481.9,41.8 483.3,41.6 484.7,41.4 486.1,41.3 487.5,41.1 488.9,41.0 490.3,40.8 491.7,40.6 493.1,40.5 494.5,40.2 495.9,40.1 497.3,39.9 498.7,39.7 500.1,39.4 501.5,39.0 502.8,38.8 504.2,38.6 505.6,38.4 507.0,38.2 508.4,37.9 509.8,37.7 511.2,37.5 512.6,37.4 514.0,37.3 515.4,37.1 516.8,36.8 518.2,36.6 519.6,36.5 521.0,36.3 522.4,36.0 523.8,35.9 525.2,35.6 526.6,35.4 528.0,35.1 529.4,34.9 530.8,34.7 532.2,34.6 533.6,34.4 535.0,34.3 536.4,34.1 537.8,33.9 539.2,33.7 540.6,33.5 542.0,33.4 543.4,33.2 544.8,33.0 546.2,32.9 547.6,32.8 549.0,32.6 550.4,32.5 551.8,32.3 553.2,32.2 554.6,32.0 556.0,31.8 557.4,31.7 558.8,31.6 560.2,31.4 561.6,31.1 563.0,31.0 564.4,30.9 565.8,30.7 567.2,30.5 568.6,30.3 570.0,30.0 570.0,30.0,120" />
  
  <!-- Linea principale -->
  <polyline fill="none" stroke="#0366d6" stroke-width="2.5" stroke-linecap="round" stroke-linejoin="round" points="30.0,120.0 31.4,119.5 32.8,118.9 34.2,118.4 35.6,118.3 37.0,118.1 38.4,117.5 39.8,117.1 41.2,116.8 42.6,116.2 44.0,115.9 45.4,115.6 46.8,115.4 48.2,115.1 49.6,114.7 51.0,114.3 52.4,113.9 53.8,113.7 55.2,113.5 56.6,113.3 58.0,112.9 59.4,112.6 60.8,112.5 62.2,112.2 63.6,111.3 65.0,111.0 66.4,110.6 67.8,110.2 69.2,109.9 70.6,109.6 72.0,109.4 73.4,109.2 74.8,108.9 76.2,108.5 77.6,108.1 79.0,107.8 80.4,107.5 81.8,107.4 83.2,107.3 84.6,107.1 86.0,106.8 87.4,106.6 88.8,106.5 90.2,106.1 91.6,105.6 93.0,105.5 94.4,105.4 95.8,105.2 97.2,104.8 98.5,104.5 99.9,104.1 101.3,103.8 102.7,103.4 104.1,103.3 105.5,103.1 106.9,102.7 108.3,102.3 109.7,102.0 111.1,101.9 112.5,101.7 113.9,101.5 115.3,101.1 116.7,100.7 118.1,100.3 119.5,99.9 120.9,99.8 122.3,99.7 123.7,99.5 125.1,99.2 126.5,99.0 127.9,98.8 129.3,98.7 130.7,98.6 132.1,98.4 133.5,98.2 134.9,98.1 136.3,98.0 137.7,97.6 139.1,97.4 140.5,97.3 141.9,97.2 143.3,97.1 144.7,97.1 146.1,103.7 147.5,103.0 148.9,102.4 150.3,101.8 151.7,100.1 153.1,98.8 154.5,97.5 155.9,97.0 157.3,96.4 158.7,95.5 160.1,94.5 161.5,93.8 162.9,93.5 164.3,93.2 165.7,92.5 167.1,92.0 168.5,91.7 169.9,91.2 171.3,91.1 172.7,91.0 174.1,90.6 175.5,90.0 176.9,89.6 178.3,89.1 179.7,88.6 181.1,88.4 182.5,88.2 183.9,87.8 185.3,87.4 186.7,87.1 188.1,86.8 189.5,86.6 190.9,86.5 192.3,86.3 193.7,86.0 195.1,85.8 196.5,85.5 197.9,85.3 199.3,85.1 200.7,85.0 202.1,84.8 203.5,84.6 204.9,84.5 206.3,84.1 207.7,83.9 209.1,83.6 210.5,83.4 211.9,83.2 213.3,83.1 214.7,82.9 216.1,82.8 217.5,82.3 218.9,82.0 220.3,81.6 221.7,81.5 223.1,81.4 224.5,81.2 225.9,81.0 227.3,80.8 228.7,80.5 230.1,80.3 231.5,80.1 232.8,80.0 234.2,79.8 235.6,79.7 237.0,79.6 238.4,79.4 239.8,79.2 241.2,78.9 242.6,78.8 244.0,78.7 245.4,78.6 246.8,78.5 248.2,78.2 249.6,78.0 251.0,77.8 252.4,77.6 253.8,77.4 255.2,77.2 256.6,77.2 258.0,77.0 259.4,76.7 260.8,76.4 262.2,76.2 263.6,76.0 265.0,75.7 266.4,75.6 267.8,75.5 269.2,75.4 270.6,75.2 272.0,75.0 273.4,74.9 274.8,74.7 276.2,74.5 277.6,74.4 279.0,74.2 280.4,74.1 281.8,74.0 283.2,73.9 284.6,73.6 286.0,73.5 287.4,73.3 288.8,73.2 290.2,73.0 291.6,72.9 293.0,72.8 294.4,72.7 295.8,72.5 297.2,72.2 298.6,71.9 300.0,71.7 301.4,71.6 302.8,71.5 304.2,71.4 305.6,71.2 307.0,71.0 308.4,70.9 309.8,70.8 311.2,70.6 312.6,70.4 314.0,70.2 315.4,70.1 316.8,70.0 318.2,69.8 319.6,69.6 321.0,69.4 322.4,69.2 323.8,69.1 325.2,69.0 326.6,69.0 328.0,68.8 329.4,68.7 330.8,68.5 332.2,68.3 333.6,68.2 335.0,68.1 336.4,67.9 337.8,67.8 339.2,67.7 340.6,67.5 342.0,67.3 343.4,67.1 344.8,66.9 346.2,66.8 347.6,66.7 349.0,66.6 350.4,66.5 351.8,66.4 353.2,66.3 354.6,66.1 356.0,65.9 357.4,65.8 358.8,65.7 360.2,65.5 361.6,65.4 363.0,65.2 364.4,65.1 365.8,65.0 367.2,64.9 368.5,64.7 369.9,64.5 371.3,64.4 372.7,64.3 374.1,64.2 375.5,64.1 376.9,64.0 378.3,63.8 379.7,63.7 381.1,63.7 382.5,63.6 383.9,63.2 385.3,63.0 386.7,67.3 388.1,66.5 389.5,64.9 390.9,64.2 392.3,63.5 393.7,62.6 395.1,62.1 396.5,61.7 397.9,61.1 399.3,60.2 400.7,59.5 402.1,59.3 403.5,58.9 404.9,58.6 406.3,58.2 407.7,57.7 409.1,57.2 410.5,57.0 411.9,56.5 413.3,56.2 414.7,55.9 416.1,55.7 417.5,55.5 418.9,55.2 420.3,54.8 421.7,54.4 423.1,54.0 424.5,53.4 425.9,53.1 427.3,52.9 428.7,52.7 430.1,52.5 431.5,52.1 432.9,51.8 434.3,51.5 435.7,50.6 437.1,49.9 438.5,49.6 439.9,49.4 441.3,49.2 442.7,48.7 444.1,48.3 445.5,48.0 446.9,47.7 448.3,47.4 449.7,47.1 451.1,46.8 452.5,46.4 453.9,46.2 455.3,46.0 456.7,45.9 458.1,45.5 459.5,45.2 460.9,45.0 462.3,44.8 463.7,44.7 465.1,44.4 466.5,44.3 467.9,44.0 469.3,43.9 470.7,43.7 472.1,43.5 473.5,43.3 474.9,43.1 476.3,42.7 477.7,42.4 479.1,42.1 480.5,42.0 481.9,41.8 483.3,41.6 484.7,41.4 486.1,41.3 487.5,41.1 488.9,41.0 490.3,40.8 491.7,40.6 493.1,40.5 494.5,40.2 495.9,40.1 497.3,39.9 498.7,39.7 500.1,39.4 501.5,39.0 502.8,38.8 504.2,38.6 505.6,38.4 507.0,38.2 508.4,37.9 509.8,37.7 511.2,37.5 512.6,37.4 514.0,37.3 515.4,37.1 516.8,36.8 518.2,36.6 519.6,36.5 521.0,36.3 522.4,36.0 523.8,35.9 525.2,35.6 526.6,35.4 528.0,35.1 529.4,34.9 530.8,34.7 532.2,34.6 533.6,34.4 535.0,34.3 536.4,34.1 537.8,33.9 539.2,33.7 540.6,33.5 542.0,33.4 543.4,33.2 544.8,33.0 546.2,32.9 547.6,32.8 549.0,32.6 550.4,32.5 551.8,32.3 553.2,32.2 554.6,32.0 556.0,31.8 557.4,31.7 558.8,31.6 560.2,31.4 561.6,31.1 563.0,31.0 564.4,30.9 565.8,30.7 567.2,30.5 568.6,30.3 570.0,30.0" />
  
  <!-- Punto finale luminoso -->
  <circle cx="570.0" cy="30.0" r="4" fill="#ffffff" stroke="#0366d6" stroke-width="2.5" />
</svg>