<svg width="600" height="150" viewBox="0 0 600 150" xmlns="http://www.w3.org/2000/svg">
  <defs>
    <filter id="shadow2" x="-2%" y="-2%" width="104%" height="108%">
      <feDropShadow dx="0" dy="2" stdDeviation="3" flood-opacity="0.1" />
    </filter>
    <linearGradient id="fillGrad" x1="0" y1="0" x2="0" y2="1">
      <stop offset="0%" stop-color="#0366d6" stop-opacity="0.3"/>
      <stop offset="100%" stop-color="#0366d6" stop-opacity="0.02"/>
    </linearGradient>
  </defs>
  <rect width="600" height="150" rx="12" fill="#ffffff" filter="url(#shadow2)" stroke="#e1e4e8" stroke-width="1"/>
  <text x="20" y="24" fill="#2b3137" font-family="-apple-system,BlinkMacSystemFont,'Segoe UI',Helvetica,Arial,sans-serif" font-size="14" font-weight="600">📈 Download Growth (Actual: 88.3k)</text>
  
  <!-- Area sotto la linea -->
  <polygon fill="url(#fillGrad)" points="30.0,120.0,120 30.0,120.0 31.2,119.5 32.5,119.0 33.7,118.6 35.0,118.5 36.2,118.2 37.5,117.7 38.7,117.3 40.0,117.1 41.2,116.5 42.5,116.2 43.7,115.9 45.0,115.8 46.2,115.5 47.5,115.1 48.7,114.7 50.0,114.4 51.2,114.2 52.4,114.1 53.7,113.8 54.9,113.5 56.2,113.2 57.4,113.1 58.7,112.9 59.9,112.0 61.2,111.7 62.4,111.4 63.7,111.0 64.9,110.7 66.2,110.4 67.4,110.2 68.7,110.1 69.9,109.8 71.2,109.4 72.4,109.0 73.6,108.8 74.9,108.5 76.1,108.4 77.4,108.3 78.6,108.2 79.9,107.9 81.1,107.7 82.4,107.6 83.6,107.3 84.9,106.8 86.1,106.7 87.4,106.6 88.6,106.4 89.9,106.0 91.1,105.8 92.4,105.4 93.6,105.1 94.8,104.7 96.1,104.7 97.3,104.5 98.6,104.1 99.8,103.7 101.1,103.5 102.3,103.4 103.6,103.2 104.8,103.0 106.1,102.6 107.3,102.2 108.6,101.9 109.8,101.6 111.1,101.4 112.3,101.3 113.6,101.2 114.8,100.9 116.1,100.7 117.3,100.6 118.5,100.4 119.8,100.3 121.0,100.1 122.3,100.0 123.5,99.9 124.8,99.8 126.0,99.5 127.3,99.3 128.5,99.2 129.8,99.1 131.0,99.0 132.3,99.0 133.5,105.0 134.8,104.4 136.0,103.9 137.3,103.3 138.5,101.7 139.7,100.5 141.0,99.3 142.2,98.9 143.5,98.3 144.7,97.5 146.0,96.6 147.2,95.9 148.5,95.7 149.7,95.4 151.0,94.8 152.2,94.3 153.5,94.0 154.7,93.6 156.0,93.4 157.2,93.4 158.5,93.0 159.7,92.4 160.9,92.0 162.2,91.6 163.4,91.2 164.7,91.0 165.9,90.8 167.2,90.4 168.4,90.1 169.7,89.7 170.9,89.5 172.2,89.4 173.4,89.3 174.7,89.1 175.9,88.8 177.2,88.6 178.4,88.3 179.7,88.2 180.9,88.0 182.1,87.8 183.4,87.7 184.6,87.5 185.9,87.4 187.1,87.1 188.4,86.8 189.6,86.6 190.9,86.4 192.1,86.2 193.4,86.1 194.6,86.0 195.9,85.8 197.1,85.4 198.4,85.1 199.6,84.7 200.9,84.6 202.1,84.6 203.3,84.4 204.6,84.2 205.8,84.0 207.1,83.8 208.3,83.5 209.6,83.3 210.8,83.2 212.1,83.1 213.3,83.0 214.6,82.9 215.8,82.7 217.1,82.5 218.3,82.3 219.6,82.2 220.8,82.1 222.1,81.9 223.3,81.9 224.5,81.6 225.8,81.5 227.0,81.2 228.3,81.1 229.5,80.9 230.8,80.7 232.0,80.6 233.3,80.5 234.5,80.2 235.8,80.0 237.0,79.8 238.3,79.6 239.5,79.3 240.8,79.2 242.0,79.1 243.3,79.0 244.5,78.9 245.8,78.7 247.0,78.5 248.2,78.4 249.5,78.2 250.7,78.1 252.0,78.0 253.2,77.9 254.5,77.8 255.7,77.6 257.0,77.4 258.2,77.3 259.5,77.1 260.7,77.0 262.0,76.9 263.2,76.7 264.5,76.6 265.7,76.5 267.0,76.4 268.2,76.1 269.4,75.8 270.7,75.7 271.9,75.5 273.2,75.5 274.4,75.4 275.7,75.2 276.9,75.0 278.2,74.9 279.4,74.8 280.7,74.6 281.9,74.5 283.2,74.3 284.4,74.2 285.7,74.1 286.9,73.9 288.2,73.7 289.4,73.5 290.6,73.3 291.9,73.2 293.1,73.2 294.4,73.1 295.6,73.0 296.9,72.9 298.1,72.7 299.4,72.6 300.6,72.4 301.9,72.3 303.1,72.2 304.4,72.1 305.6,71.9 306.9,71.8 308.1,71.6 309.4,71.4 310.6,71.3 311.8,71.1 313.1,71.1 314.3,71.0 315.6,70.9 316.8,70.8 318.1,70.7 319.3,70.5 320.6,70.3 321.8,70.2 323.1,70.1 324.3,70.0 325.6,69.8 326.8,69.7 328.1,69.6 329.3,69.5 330.6,69.4 331.8,69.2 333.0,69.1 334.3,68.9 335.5,68.8 336.8,68.8 338.0,68.7 339.3,68.6 340.5,68.4 341.8,68.3 343.0,68.3 344.3,68.2 345.5,67.9 346.8,67.7 348.0,71.6 349.3,70.8 350.5,69.4 351.8,68.8 353.0,68.1 354.2,67.3 355.5,66.8 356.7,66.5 358.0,65.9 359.2,65.1 360.5,64.4 361.7,64.2 363.0,63.9 364.2,63.7 365.5,63.2 366.7,62.8 368.0,62.3 369.2,62.1 370.5,61.7 371.7,61.4 373.0,61.1 374.2,60.9 375.5,60.7 376.7,60.5 377.9,60.1 379.2,59.8 380.4,59.4 381.7,58.9 382.9,58.5 384.2,58.4 385.4,58.2 386.7,58.0 387.9,57.7 389.2,57.3 390.4,57.1 391.7,56.3 392.9,55.6 394.2,55.4 395.4,55.2 396.7,54.9 397.9,54.5 399.1,54.2 400.4,53.9 401.6,53.6 402.9,53.3 404.1,53.1 405.4,52.8 406.6,52.4 407.9,52.2 409.1,52.1 410.4,51.9 411.6,51.5 412.9,51.3 414.1,51.1 415.4,51.0 416.6,50.8 417.9,50.6 419.1,50.4 420.3,50.2 421.6,50.1 422.8,49.9 424.1,49.8 425.3,49.5 426.6,49.4 427.8,49.0 429.1,48.7 430.3,48.5 431.6,48.3 432.8,48.1 434.1,48.0 435.3,47.8 436.6,47.7 437.8,47.5 439.1,47.4 440.3,47.3 441.5,47.1 442.8,47.0 444.0,46.7 445.3,46.6 446.5,46.5 447.8,46.2 449.0,45.9 450.3,45.6 451.5,45.4 452.8,45.3 454.0,45.1 455.3,44.8 456.5,44.6 457.8,44.4 459.0,44.2 460.3,44.1 461.5,44.0 462.7,43.8 464.0,43.6 465.2,43.4 466.5,43.3 467.7,43.1 469.0,42.9 470.2,42.7 471.5,42.5 472.7,42.3 474.0,42.1 475.2,41.8 476.5,41.7 477.7,41.6 479.0,41.4 480.2,41.3 481.5,41.1 482.7,40.9 483.9,40.7 485.2,40.6 486.4,40.4 487.7,40.3 488.9,40.1 490.2,40.0 491.4,39.9 492.7,39.7 493.9,39.7 495.2,39.5 496.4,39.4 497.7,39.2 498.9,39.0 500.2,38.9 501.4,38.8 502.7,38.6 503.9,38.4 505.2,38.3 506.4,38.1 507.6,38.0 508.9,37.8 510.1,37.6 511.4,37.3 512.6,37.3 513.9,37.2 515.1,37.1 516.4,36.9 517.6,36.8 518.9,36.6 520.1,36.3 521.4,36.2 522.6,36.0 523.9,35.9 525.1,35.8 526.4,35.6 527.6,35.4 528.8,35.2 530.1,35.0 531.3,34.9 532.6,34.7 533.8,34.5 535.1,34.3 536.3,34.1 537.6,34.0 538.8,33.8 540.1,33.6 541.3,33.4 542.6,33.2 543.8,33.1 545.1,32.9 546.3,32.7 547.6,32.6 548.8,32.4 550.0,32.3 551.3,32.1 552.5,31.9 553.8,31.7 555.0,31.6 556.3,31.4 557.5,31.2 558.8,31.2 560.0,31.0 561.3,30.8 562.5,30.7 563.8,30.6 565.0,30.5 566.3,30.4 567.5,30.2 568.8,30.2 570.0,30.0 570.0,30.0,120" />
  
  <!-- Linea principale -->
  <polyline fill="none" stroke="#0366d6" stroke-width="2.5" stroke-linecap="round" stroke-linejoin="round" points="30.0,120.0 31.2,119.5 32.5,119.0 33.7,118.6 35.0,118.5 36.2,118.2 37.5,117.7 38.7,117.3 40.0,117.1 41.2,116.5 42.5,116.2 43.7,115.9 45.0,115.8 46.2,115.5 47.5,115.1 48.7,114.7 50.0,114.4 51.2,114.2 52.4,114.1 53.7,113.8 54.9,113.5 56.2,113.2 57.4,113.1 58.7,112.9 59.9,112.0 61.2,111.7 62.4,111.4 63.7,111.0 64.9,110.7 66.2,110.4 67.4,110.2 68.7,110.1 69.9,109.8 71.2,109.4 72.4,109.0 73.6,108.8 74.9,108.5 76.1,108.4 77.4,108.3 78.6,108.2 79.9,107.9 81.1,107.7 82.4,107.6 83.6,107.3 84.9,106.8 86.1,106.7 87.4,106.6 88.6,106.4 89.9,106.0 91.1,105.8 92.4,105.4 93.6,105.1 94.8,104.7 96.1,104.7 97.3,104.5 98.6,104.1 99.8,103.7 101.1,103.5 102.3,103.4 103.6,103.2 104.8,103.0 106.1,102.6 107.3,102.2 108.6,101.9 109.8,101.6 111.1,101.4 112.3,101.3 113.6,101.2 114.8,100.9 116.1,100.7 117.3,100.6 118.5,100.4 119.8,100.3 121.0,100.1 122.3,100.0 123.5,99.9 124.8,99.8 126.0,99.5 127.3,99.3 128.5,99.2 129.8,99.1 131.0,99.0 132.3,99.0 133.5,105.0 134.8,104.4 136.0,103.9 137.3,103.3 138.5,101.7 139.7,100.5 141.0,99.3 142.2,98.9 143.5,98.3 144.7,97.5 146.0,96.6 147.2,95.9 148.5,95.7 149.7,95.4 151.0,94.8 152.2,94.3 153.5,94.0 154.7,93.6 156.0,93.4 157.2,93.4 158.5,93.0 159.7,92.4 160.9,92.0 162.2,91.6 163.4,91.2 164.7,91.0 165.9,90.8 167.2,90.4 168.4,90.1 169.7,89.7 170.9,89.5 172.2,89.4 173.4,89.3 174.7,89.1 175.9,88.8 177.2,88.6 178.4,88.3 179.7,88.2 180.9,88.0 182.1,87.8 183.4,87.7 184.6,87.5 185.9,87.4 187.1,87.1 188.4,86.8 189.6,86.6 190.9,86.4 192.1,86.2 193.4,86.1 194.6,86.0 195.9,85.8 197.1,85.4 198.4,85.1 199.6,84.7 200.9,84.6 202.1,84.6 203.3,84.4 204.6,84.2 205.8,84.0 207.1,83.8 208.3,83.5 209.6,83.3 210.8,83.2 212.1,83.1 213.3,83.0 214.6,82.9 215.8,82.7 217.1,82.5 218.3,82.3 219.6,82.2 220.8,82.1 222.1,81.9 223.3,81.9 224.5,81.6 225.8,81.5 227.0,81.2 228.3,81.1 229.5,80.9 230.8,80.7 232.0,80.6 233.3,80.5 234.5,80.2 235.8,80.0 237.0,79.8 238.3,79.6 239.5,79.3 240.8,79.2 242.0,79.1 243.3,79.0 244.5,78.9 245.8,78.7 247.0,78.5 248.2,78.4 249.5,78.2 250.7,78.1 252.0,78.0 253.2,77.9 254.5,77.8 255.7,77.6 257.0,77.4 258.2,77.3 259.5,77.1 260.7,77.0 262.0,76.9 263.2,76.7 264.5,76.6 265.7,76.5 267.0,76.4 268.2,76.1 269.4,75.8 270.7,75.7 271.9,75.5 273.2,75.5 274.4,75.4 275.7,75.2 276.9,75.0 278.2,74.9 279.4,74.8 280.7,74.6 281.9,74.5 283.2,74.3 284.4,74.2 285.7,74.1 286.9,73.9 288.2,73.7 289.4,73.5 290.6,73.3 291.9,73.2 293.1,73.2 294.4,73.1 295.6,73.0 296.9,72.9 298.1,72.7 299.4,72.6 300.6,72.4 301.9,72.3 303.1,72.2 304.4,72.1 305.6,71.9 306.9,71.8 308.1,71.6 309.4,71.4 310.6,71.3 311.8,71.1 313.1,71.1 314.3,71.0 315.6,70.9 316.8,70.8 318.1,70.7 319.3,70.5 320.6,70.3 321.8,70.2 323.1,70.1 324.3,70.0 325.6,69.8 326.8,69.7 328.1,69.6 329.3,69.5 330.6,69.4 331.8,69.2 333.0,69.1 334.3,68.9 335.5,68.8 336.8,68.8 338.0,68.7 339.3,68.6 340.5,68.4 341.8,68.3 343.0,68.3 344.3,68.2 345.5,67.9 346.8,67.7 348.0,71.6 349.3,70.8 350.5,69.4 351.8,68.8 353.0,68.1 354.2,67.3 355.5,66.8 356.7,66.5 358.0,65.9 359.2,65.1 360.5,64.4 361.7,64.2 363.0,63.9 364.2,63.7 365.5,63.2 366.7,62.8 368.0,62.3 369.2,62.1 370.5,61.7 371.7,61.4 373.0,61.1 374.2,60.9 375.5,60.7 376.7,60.5 377.9,60.1 379.2,59.8 380.4,59.4 381.7,58.9 382.9,58.5 384.2,58.4 385.4,58.2 386.7,58.0 387.9,57.7 389.2,57.3 390.4,57.1 391.7,56.3 392.9,55.6 394.2,55.4 395.4,55.2 396.7,54.9 397.9,54.5 399.1,54.2 400.4,53.9 401.6,53.6 402.9,53.3 404.1,53.1 405.4,52.8 406.6,52.4 407.9,52.2 409.1,52.1 410.4,51.9 411.6,51.5 412.9,51.3 414.1,51.1 415.4,51.0 416.6,50.8 417.9,50.6 419.1,50.4 420.3,50.2 421.6,50.1 422.8,49.9 424.1,49.8 425.3,49.5 426.6,49.4 427.8,49.0 429.1,48.7 430.3,48.5 431.6,48.3 432.8,48.1 434.1,48.0 435.3,47.8 436.6,47.7 437.8,47.5 439.1,47.4 440.3,47.3 441.5,47.1 442.8,47.0 444.0,46.7 445.3,46.6 446.5,46.5 447.8,46.2 449.0,45.9 450.3,45.6 451.5,45.4 452.8,45.3 454.0,45.1 455.3,44.8 456.5,44.6 457.8,44.4 459.0,44.2 460.3,44.1 461.5,44.0 462.7,43.8 464.0,43.6 465.2,43.4 466.5,43.3 467.7,43.1 469.0,42.9 470.2,42.7 471.5,42.5 472.7,42.3 474.0,42.1 475.2,41.8 476.5,41.7 477.7,41.6 479.0,41.4 480.2,41.3 481.5,41.1 482.7,40.9 483.9,40.7 485.2,40.6 486.4,40.4 487.7,40.3 488.9,40.1 490.2,40.0 491.4,39.9 492.7,39.7 493.9,39.7 495.2,39.5 496.4,39.4 497.7,39.2 498.9,39.0 500.2,38.9 501.4,38.8 502.7,38.6 503.9,38.4 505.2,38.3 506.4,38.1 507.6,38.0 508.9,37.8 510.1,37.6 511.4,37.3 512.6,37.3 513.9,37.2 515.1,37.1 516.4,36.9 517.6,36.8 518.9,36.6 520.1,36.3 521.4,36.2 522.6,36.0 523.9,35.9 525.1,35.8 526.4,35.6 527.6,35.4 528.8,35.2 530.1,35.0 531.3,34.9 532.6,34.7 533.8,34.5 535.1,34.3 536.3,34.1 537.6,34.0 538.8,33.8 540.1,33.6 541.3,33.4 542.6,33.2 543.8,33.1 545.1,32.9 546.3,32.7 547.6,32.6 548.8,32.4 550.0,32.3 551.3,32.1 552.5,31.9 553.8,31.7 555.0,31.6 556.3,31.4 557.5,31.2 558.8,31.2 560.0,31.0 561.3,30.8 562.5,30.7 563.8,30.6 565.0,30.5 566.3,30.4 567.5,30.2 568.8,30.2 570.0,30.0" />
  
  <!-- Punto finale luminoso -->
  <circle cx="570.0" cy="30.0" r="4" fill="#ffffff" stroke="#0366d6" stroke-width="2.5" />
</svg>