<svg width="600" height="150" viewBox="0 0 600 150" xmlns="http://www.w3.org/2000/svg">
  <defs>
    <filter id="shadow2" x="-2%" y="-2%" width="104%" height="108%">
      <feDropShadow dx="0" dy="2" stdDeviation="3" flood-opacity="0.1" />
    </filter>
    <linearGradient id="fillGrad" x1="0" y1="0" x2="0" y2="1">
      <stop offset="0%" stop-color="#0366d6" stop-opacity="0.3"/>
      <stop offset="100%" stop-color="#0366d6" stop-opacity="0.02"/>
    </linearGradient>
  </defs>
  <rect width="600" height="150" rx="12" fill="#ffffff" filter="url(#shadow2)" stroke="#e1e4e8" stroke-width="1"/>
  <text x="20" y="24" fill="#2b3137" font-family="-apple-system,BlinkMacSystemFont,'Segoe UI',Helvetica,Arial,sans-serif" font-size="14" font-weight="600">📈 Download Growth (Actual: 82.8k)</text>
  
  <!-- Area sotto la linea -->
  <polygon fill="url(#fillGrad)" points="30.0,120.0,120 30.0,120.0 31.8,119.4 33.6,118.7 35.4,118.1 37.2,117.9 39.0,117.6 40.8,116.9 42.6,116.4 44.4,116.1 46.1,115.3 47.9,114.9 49.7,114.6 51.5,114.3 53.3,114.0 55.1,113.5 56.9,112.9 58.7,112.5 60.5,112.2 62.3,112.0 64.1,111.7 65.9,111.3 67.7,111.0 69.5,110.8 71.3,110.5 73.1,109.3 74.9,108.9 76.6,108.4 78.4,108.0 80.2,107.6 82.0,107.2 83.8,106.9 85.6,106.7 87.4,106.4 89.2,105.8 91.0,105.3 92.8,105.0 94.6,104.6 96.4,104.5 98.2,104.4 100.0,104.2 101.8,103.8 103.6,103.5 105.3,103.4 107.1,102.9 108.9,102.3 110.7,102.2 112.5,102.0 114.3,101.8 116.1,101.3 117.9,100.9 119.7,100.4 121.5,100.0 123.3,99.6 125.1,99.5 126.9,99.2 128.7,98.7 130.5,98.2 132.3,97.9 134.1,97.7 135.8,97.5 137.6,97.3 139.4,96.7 141.2,96.2 143.0,95.8 144.8,95.3 146.6,95.1 148.4,95.0 150.2,94.8 152.0,94.4 153.8,94.2 155.6,94.0 157.4,93.8 159.2,93.6 161.0,93.4 162.8,93.2 164.6,93.1 166.3,93.0 168.1,92.5 169.9,92.2 171.7,92.1 173.5,92.0 175.3,91.9 177.1,91.9 178.9,99.9 180.7,99.1 182.5,98.4 184.3,97.7 186.1,95.5 187.9,93.9 189.7,92.3 191.5,91.7 193.3,91.0 195.0,89.9 196.8,88.6 198.6,87.7 200.4,87.4 202.2,87.1 204.0,86.2 205.8,85.5 207.6,85.1 209.4,84.6 211.2,84.4 213.0,84.3 214.8,83.8 216.6,83.1 218.4,82.6 220.2,82.0 222.0,81.4 223.8,81.1 225.5,80.9 227.3,80.4 229.1,79.9 230.9,79.5 232.7,79.1 234.5,79.0 236.3,78.9 238.1,78.6 239.9,78.2 241.7,77.9 243.5,77.6 245.3,77.4 247.1,77.1 248.9,76.9 250.7,76.7 252.5,76.5 254.3,76.3 256.0,75.9 257.8,75.6 259.6,75.2 261.4,75.0 263.2,74.8 265.0,74.6 266.8,74.4 268.6,74.2 270.4,73.7 272.2,73.3 274.0,72.8 275.8,72.6 277.6,72.5 279.4,72.3 281.2,72.1 283.0,71.8 284.8,71.5 286.5,71.1 288.3,70.9 290.1,70.8 291.9,70.6 293.7,70.4 295.5,70.3 297.3,70.0 299.1,69.8 300.9,69.5 302.7,69.3 304.5,69.2 306.3,69.0 308.1,68.9 309.9,68.6 311.7,68.4 313.5,68.1 315.2,67.9 317.0,67.6 318.8,67.4 320.6,67.3 322.4,67.1 324.2,66.8 326.0,66.4 327.8,66.2 329.6,65.9 331.4,65.5 333.2,65.4 335.0,65.3 336.8,65.1 338.6,64.9 340.4,64.7 342.2,64.5 344.0,64.3 345.7,64.1 347.5,63.9 349.3,63.7 351.1,63.6 352.9,63.5 354.7,63.3 356.5,62.9 358.3,62.8 360.1,62.5 361.9,62.4 363.7,62.3 365.5,62.1 367.3,61.9 369.1,61.8 370.9,61.6 372.7,61.2 374.5,60.9 376.2,60.6 378.0,60.4 379.8,60.4 381.6,60.3 383.4,60.0 385.2,59.7 387.0,59.6 388.8,59.4 390.6,59.2 392.4,59.0 394.2,58.8 396.0,58.7 397.8,58.5 399.6,58.2 401.4,58.0 403.2,57.7 405.0,57.5 406.7,57.4 408.5,57.3 410.3,57.2 412.1,57.1 413.9,56.9 415.7,56.7 417.5,56.5 419.3,56.3 421.1,56.1 422.9,56.0 424.7,55.8 426.5,55.7 428.3,55.4 430.1,55.1 431.9,54.9 433.7,54.7 435.4,54.6 437.2,54.5 439.0,54.4 440.8,54.2 442.6,54.1 444.4,53.9 446.2,53.7 448.0,53.5 449.8,53.3 451.6,53.2 453.4,53.0 455.2,52.8 457.0,52.6 458.8,52.5 460.6,52.3 462.4,52.2 464.2,52.0 465.9,51.8 467.7,51.6 469.5,51.5 471.3,51.4 473.1,51.2 474.9,51.1 476.7,50.9 478.5,50.8 480.3,50.7 482.1,50.6 483.9,50.2 485.7,49.9 487.5,55.2 489.3,54.2 491.1,52.2 492.9,51.4 494.7,50.5 496.4,49.4 498.2,48.8 500.0,48.3 501.8,47.6 503.6,46.4 505.4,45.6 507.2,45.3 509.0,44.9 510.8,44.5 512.6,44.0 514.4,43.4 516.2,42.8 518.0,42.5 519.8,41.9 521.6,41.6 523.4,41.2 525.1,40.9 526.9,40.6 528.7,40.3 530.5,39.8 532.3,39.4 534.1,38.8 535.9,38.1 537.7,37.7 539.5,37.5 541.3,37.3 543.1,37.0 544.9,36.5 546.7,36.1 548.5,35.7 550.3,34.7 552.1,33.8 553.9,33.4 555.6,33.2 557.4,32.9 559.2,32.3 561.0,31.8 562.8,31.5 564.6,31.1 566.4,30.7 568.2,30.4 570.0,30.0 570.0,30.0,120" />
  
  <!-- Linea principale -->
  <polyline fill="none" stroke="#0366d6" stroke-width="2.5" stroke-linecap="round" stroke-linejoin="round" points="30.0,120.0 31.8,119.4 33.6,118.7 35.4,118.1 37.2,117.9 39.0,117.6 40.8,116.9 42.6,116.4 44.4,116.1 46.1,115.3 47.9,114.9 49.7,114.6 51.5,114.3 53.3,114.0 55.1,113.5 56.9,112.9 58.7,112.5 60.5,112.2 62.3,112.0 64.1,111.7 65.9,111.3 67.7,111.0 69.5,110.8 71.3,110.5 73.1,109.3 74.9,108.9 76.6,108.4 78.4,108.0 80.2,107.6 82.0,107.2 83.8,106.9 85.6,106.7 87.4,106.4 89.2,105.8 91.0,105.3 92.8,105.0 94.6,104.6 96.4,104.5 98.2,104.4 100.0,104.2 101.8,103.8 103.6,103.5 105.3,103.4 107.1,102.9 108.9,102.3 110.7,102.2 112.5,102.0 114.3,101.8 116.1,101.3 117.9,100.9 119.7,100.4 121.5,100.0 123.3,99.6 125.1,99.5 126.9,99.2 128.7,98.7 130.5,98.2 132.3,97.9 134.1,97.7 135.8,97.5 137.6,97.3 139.4,96.7 141.2,96.2 143.0,95.8 144.8,95.3 146.6,95.1 148.4,95.0 150.2,94.8 152.0,94.4 153.8,94.2 155.6,94.0 157.4,93.8 159.2,93.6 161.0,93.4 162.8,93.2 164.6,93.1 166.3,93.0 168.1,92.5 169.9,92.2 171.7,92.1 173.5,92.0 175.3,91.9 177.1,91.9 178.9,99.9 180.7,99.1 182.5,98.4 184.3,97.7 186.1,95.5 187.9,93.9 189.7,92.3 191.5,91.7 193.3,91.0 195.0,89.9 196.8,88.6 198.6,87.7 200.4,87.4 202.2,87.1 204.0,86.2 205.8,85.5 207.6,85.1 209.4,84.6 211.2,84.4 213.0,84.3 214.8,83.8 216.6,83.1 218.4,82.6 220.2,82.0 222.0,81.4 223.8,81.1 225.5,80.9 227.3,80.4 229.1,79.9 230.9,79.5 232.7,79.1 234.5,79.0 236.3,78.9 238.1,78.6 239.9,78.2 241.7,77.9 243.5,77.6 245.3,77.4 247.1,77.1 248.9,76.9 250.7,76.7 252.5,76.5 254.3,76.3 256.0,75.9 257.8,75.6 259.6,75.2 261.4,75.0 263.2,74.8 265.0,74.6 266.8,74.4 268.6,74.2 270.4,73.7 272.2,73.3 274.0,72.8 275.8,72.6 277.6,72.5 279.4,72.3 281.2,72.1 283.0,71.8 284.8,71.5 286.5,71.1 288.3,70.9 290.1,70.8 291.9,70.6 293.7,70.4 295.5,70.3 297.3,70.0 299.1,69.8 300.9,69.5 302.7,69.3 304.5,69.2 306.3,69.0 308.1,68.9 309.9,68.6 311.7,68.4 313.5,68.1 315.2,67.9 317.0,67.6 318.8,67.4 320.6,67.3 322.4,67.1 324.2,66.8 326.0,66.4 327.8,66.2 329.6,65.9 331.4,65.5 333.2,65.4 335.0,65.3 336.8,65.1 338.6,64.9 340.4,64.7 342.2,64.5 344.0,64.3 345.7,64.1 347.5,63.9 349.3,63.7 351.1,63.6 352.9,63.5 354.7,63.3 356.5,62.9 358.3,62.8 360.1,62.5 361.9,62.4 363.7,62.3 365.5,62.1 367.3,61.9 369.1,61.8 370.9,61.6 372.7,61.2 374.5,60.9 376.2,60.6 378.0,60.4 379.8,60.4 381.6,60.3 383.4,60.0 385.2,59.7 387.0,59.6 388.8,59.4 390.6,59.2 392.4,59.0 394.2,58.8 396.0,58.7 397.8,58.5 399.6,58.2 401.4,58.0 403.2,57.7 405.0,57.5 406.7,57.4 408.5,57.3 410.3,57.2 412.1,57.1 413.9,56.9 415.7,56.7 417.5,56.5 419.3,56.3 421.1,56.1 422.9,56.0 424.7,55.8 426.5,55.7 428.3,55.4 430.1,55.1 431.9,54.9 433.7,54.7 435.4,54.6 437.2,54.5 439.0,54.4 440.8,54.2 442.6,54.1 444.4,53.9 446.2,53.7 448.0,53.5 449.8,53.3 451.6,53.2 453.4,53.0 455.2,52.8 457.0,52.6 458.8,52.5 460.6,52.3 462.4,52.2 464.2,52.0 465.9,51.8 467.7,51.6 469.5,51.5 471.3,51.4 473.1,51.2 474.9,51.1 476.7,50.9 478.5,50.8 480.3,50.7 482.1,50.6 483.9,50.2 485.7,49.9 487.5,55.2 489.3,54.2 491.1,52.2 492.9,51.4 494.7,50.5 496.4,49.4 498.2,48.8 500.0,48.3 501.8,47.6 503.6,46.4 505.4,45.6 507.2,45.3 509.0,44.9 510.8,44.5 512.6,44.0 514.4,43.4 516.2,42.8 518.0,42.5 519.8,41.9 521.6,41.6 523.4,41.2 525.1,40.9 526.9,40.6 528.7,40.3 530.5,39.8 532.3,39.4 534.1,38.8 535.9,38.1 537.7,37.7 539.5,37.5 541.3,37.3 543.1,37.0 544.9,36.5 546.7,36.1 548.5,35.7 550.3,34.7 552.1,33.8 553.9,33.4 555.6,33.2 557.4,32.9 559.2,32.3 561.0,31.8 562.8,31.5 564.6,31.1 566.4,30.7 568.2,30.4 570.0,30.0" />
  
  <!-- Punto finale luminoso -->
  <circle cx="570.0" cy="30.0" r="4" fill="#ffffff" stroke="#0366d6" stroke-width="2.5" />
</svg>