<svg width="600" height="150" viewBox="0 0 600 150" xmlns="http://www.w3.org/2000/svg">
  <defs>
    <filter id="shadow2" x="-2%" y="-2%" width="104%" height="108%">
      <feDropShadow dx="0" dy="2" stdDeviation="3" flood-opacity="0.1" />
    </filter>
    <linearGradient id="fillGrad" x1="0" y1="0" x2="0" y2="1">
      <stop offset="0%" stop-color="#0366d6" stop-opacity="0.3"/>
      <stop offset="100%" stop-color="#0366d6" stop-opacity="0.02"/>
    </linearGradient>
  </defs>
  <rect width="600" height="150" rx="12" fill="#ffffff" filter="url(#shadow2)" stroke="#e1e4e8" stroke-width="1"/>
  <text x="20" y="24" fill="#2b3137" font-family="-apple-system,BlinkMacSystemFont,'Segoe UI',Helvetica,Arial,sans-serif" font-size="14" font-weight="600">📈 Download Growth (Actual: 88.2k)</text>
  
  <!-- Area sotto la linea -->
  <polygon fill="url(#fillGrad)" points="30.0,120.0,120 30.0,120.0 31.3,119.5 32.5,119.0 33.8,118.6 35.0,118.4 36.3,118.2 37.5,117.7 38.8,117.3 40.0,117.1 41.3,116.5 42.5,116.2 43.8,115.9 45.0,115.8 46.3,115.5 47.5,115.1 48.8,114.7 50.0,114.4 51.3,114.2 52.6,114.0 53.8,113.8 55.1,113.5 56.3,113.2 57.6,113.1 58.8,112.9 60.1,112.0 61.3,111.7 62.6,111.3 63.8,111.0 65.1,110.7 66.3,110.4 67.6,110.2 68.8,110.1 70.1,109.8 71.3,109.4 72.6,109.0 73.9,108.7 75.1,108.4 76.4,108.4 77.6,108.3 78.9,108.1 80.1,107.8 81.4,107.7 82.6,107.6 83.9,107.2 85.1,106.7 86.4,106.6 87.6,106.5 88.9,106.4 90.1,106.0 91.4,105.7 92.6,105.3 93.9,105.0 95.2,104.7 96.4,104.6 97.7,104.4 98.9,104.1 100.2,103.7 101.4,103.4 102.7,103.3 103.9,103.1 105.2,103.0 106.4,102.6 107.7,102.2 108.9,101.9 110.2,101.5 111.4,101.4 112.7,101.3 113.9,101.1 115.2,100.8 116.5,100.7 117.7,100.5 119.0,100.4 120.2,100.3 121.5,100.1 122.7,99.9 124.0,99.9 125.2,99.8 126.5,99.4 127.7,99.2 129.0,99.1 130.2,99.0 131.5,98.9 132.7,98.9 134.0,105.0 135.2,104.4 136.5,103.8 137.7,103.3 139.0,101.6 140.3,100.5 141.5,99.3 142.8,98.8 144.0,98.3 145.3,97.4 146.5,96.5 147.8,95.8 149.0,95.6 150.3,95.3 151.5,94.7 152.8,94.2 154.0,93.9 155.3,93.5 156.5,93.3 157.8,93.3 159.0,92.9 160.3,92.4 161.6,92.0 162.8,91.6 164.1,91.1 165.3,90.9 166.6,90.7 167.8,90.3 169.1,90.0 170.3,89.7 171.6,89.4 172.8,89.3 174.1,89.2 175.3,89.0 176.6,88.7 177.8,88.5 179.1,88.3 180.3,88.1 181.6,87.9 182.9,87.7 184.1,87.6 185.4,87.4 186.6,87.3 187.9,87.0 189.1,86.7 190.4,86.5 191.6,86.3 192.9,86.1 194.1,86.0 195.4,85.9 196.6,85.7 197.9,85.3 199.1,85.0 200.4,84.6 201.6,84.5 202.9,84.5 204.2,84.3 205.4,84.1 206.7,83.9 207.9,83.7 209.2,83.4 210.4,83.2 211.7,83.1 212.9,83.0 214.2,82.9 215.4,82.8 216.7,82.6 217.9,82.4 219.2,82.2 220.4,82.0 221.7,82.0 222.9,81.8 224.2,81.8 225.5,81.5 226.7,81.3 228.0,81.1 229.2,81.0 230.5,80.8 231.7,80.6 233.0,80.5 234.2,80.4 235.5,80.1 236.7,79.9 238.0,79.7 239.2,79.5 240.5,79.2 241.7,79.1 243.0,79.0 244.2,78.9 245.5,78.7 246.8,78.6 248.0,78.4 249.3,78.3 250.5,78.1 251.8,78.0 253.0,77.9 254.3,77.8 255.5,77.7 256.8,77.5 258.0,77.3 259.3,77.2 260.5,77.0 261.8,76.9 263.0,76.8 264.3,76.6 265.5,76.5 266.8,76.4 268.1,76.3 269.3,76.0 270.6,75.7 271.8,75.5 273.1,75.4 274.3,75.3 275.6,75.3 276.8,75.1 278.1,74.9 279.3,74.7 280.6,74.6 281.8,74.5 283.1,74.3 284.3,74.2 285.6,74.1 286.8,74.0 288.1,73.7 289.4,73.6 290.6,73.4 291.9,73.2 293.1,73.1 294.4,73.1 295.6,73.0 296.9,72.9 298.1,72.7 299.4,72.6 300.6,72.4 301.9,72.3 303.1,72.2 304.4,72.1 305.6,71.9 306.9,71.8 308.1,71.6 309.4,71.4 310.6,71.3 311.9,71.1 313.2,71.0 314.4,70.9 315.7,70.8 316.9,70.8 318.2,70.7 319.4,70.5 320.7,70.3 321.9,70.2 323.2,70.1 324.4,70.0 325.7,69.8 326.9,69.7 328.2,69.6 329.4,69.4 330.7,69.3 331.9,69.2 333.2,69.1 334.5,68.9 335.7,68.8 337.0,68.7 338.2,68.6 339.5,68.5 340.7,68.4 342.0,68.3 343.2,68.2 344.5,68.1 345.7,68.0 347.0,67.7 348.2,67.5 349.5,71.5 350.7,70.7 352.0,69.2 353.2,68.7 354.5,68.0 355.8,67.1 357.0,66.7 358.3,66.3 359.5,65.8 360.8,64.9 362.0,64.3 363.3,64.1 364.5,63.8 365.8,63.5 367.0,63.1 368.3,62.6 369.5,62.2 370.8,61.9 372.0,61.5 373.3,61.3 374.5,61.0 375.8,60.8 377.1,60.6 378.3,60.4 379.6,59.9 380.8,59.6 382.1,59.2 383.3,58.7 384.6,58.4 385.8,58.2 387.1,58.0 388.3,57.8 389.6,57.5 390.8,57.2 392.1,56.9 393.3,56.1 394.6,55.5 395.8,55.2 397.1,55.0 398.4,54.8 399.6,54.3 400.9,54.0 402.1,53.7 403.4,53.4 404.6,53.2 405.9,52.9 407.1,52.6 408.4,52.3 409.6,52.0 410.9,51.9 412.1,51.7 413.4,51.4 414.6,51.1 415.9,50.9 417.1,50.8 418.4,50.6 419.7,50.4 420.9,50.2 422.2,50.1 423.4,49.9 424.7,49.7 425.9,49.6 427.2,49.3 428.4,49.2 429.7,48.9 430.9,48.5 432.2,48.3 433.4,48.1 434.7,48.0 435.9,47.8 437.2,47.6 438.4,47.5 439.7,47.3 441.0,47.2 442.2,47.1 443.5,46.9 444.7,46.8 446.0,46.5 447.2,46.4 448.5,46.3 449.7,46.0 451.0,45.7 452.2,45.4 453.5,45.2 454.7,45.1 456.0,44.9 457.2,44.6 458.5,44.4 459.7,44.2 461.0,44.0 462.3,43.9 463.5,43.8 464.8,43.6 466.0,43.4 467.3,43.2 468.5,43.1 469.8,42.9 471.0,42.7 472.3,42.5 473.5,42.3 474.8,42.1 476.0,41.8 477.3,41.6 478.5,41.5 479.8,41.4 481.0,41.2 482.3,41.1 483.5,40.9 484.8,40.7 486.1,40.5 487.3,40.4 488.6,40.2 489.8,40.1 491.1,39.9 492.3,39.8 493.6,39.7 494.8,39.5 496.1,39.5 497.3,39.3 498.6,39.1 499.8,39.0 501.1,38.8 502.3,38.7 503.6,38.6 504.8,38.4 506.1,38.2 507.4,38.1 508.6,37.9 509.9,37.8 511.1,37.6 512.4,37.4 513.6,37.1 514.9,37.0 516.1,36.9 517.4,36.9 518.6,36.7 519.9,36.6 521.1,36.4 522.4,36.1 523.6,36.0 524.9,35.8 526.1,35.7 527.4,35.6 528.7,35.4 529.9,35.2 531.2,35.0 532.4,34.8 533.7,34.7 534.9,34.5 536.2,34.3 537.4,34.1 538.7,33.9 539.9,33.7 541.2,33.6 542.4,33.3 543.7,33.1 544.9,33.0 546.2,32.9 547.4,32.7 548.7,32.5 550.0,32.4 551.2,32.2 552.5,32.1 553.7,31.9 555.0,31.6 556.2,31.5 557.5,31.3 558.7,31.2 560.0,31.0 561.2,30.9 562.5,30.7 563.7,30.6 565.0,30.4 566.2,30.4 567.5,30.3 568.7,30.2 570.0,30.0 570.0,30.0,120" />
  
  <!-- Linea principale -->
  <polyline fill="none" stroke="#0366d6" stroke-width="2.5" stroke-linecap="round" stroke-linejoin="round" points="30.0,120.0 31.3,119.5 32.5,119.0 33.8,118.6 35.0,118.4 36.3,118.2 37.5,117.7 38.8,117.3 40.0,117.1 41.3,116.5 42.5,116.2 43.8,115.9 45.0,115.8 46.3,115.5 47.5,115.1 48.8,114.7 50.0,114.4 51.3,114.2 52.6,114.0 53.8,113.8 55.1,113.5 56.3,113.2 57.6,113.1 58.8,112.9 60.1,112.0 61.3,111.7 62.6,111.3 63.8,111.0 65.1,110.7 66.3,110.4 67.6,110.2 68.8,110.1 70.1,109.8 71.3,109.4 72.6,109.0 73.9,108.7 75.1,108.4 76.4,108.4 77.6,108.3 78.9,108.1 80.1,107.8 81.4,107.7 82.6,107.6 83.9,107.2 85.1,106.7 86.4,106.6 87.6,106.5 88.9,106.4 90.1,106.0 91.4,105.7 92.6,105.3 93.9,105.0 95.2,104.7 96.4,104.6 97.7,104.4 98.9,104.1 100.2,103.7 101.4,103.4 102.7,103.3 103.9,103.1 105.2,103.0 106.4,102.6 107.7,102.2 108.9,101.9 110.2,101.5 111.4,101.4 112.7,101.3 113.9,101.1 115.2,100.8 116.5,100.7 117.7,100.5 119.0,100.4 120.2,100.3 121.5,100.1 122.7,99.9 124.0,99.9 125.2,99.8 126.5,99.4 127.7,99.2 129.0,99.1 130.2,99.0 131.5,98.9 132.7,98.9 134.0,105.0 135.2,104.4 136.5,103.8 137.7,103.3 139.0,101.6 140.3,100.5 141.5,99.3 142.8,98.8 144.0,98.3 145.3,97.4 146.5,96.5 147.8,95.8 149.0,95.6 150.3,95.3 151.5,94.7 152.8,94.2 154.0,93.9 155.3,93.5 156.5,93.3 157.8,93.3 159.0,92.9 160.3,92.4 161.6,92.0 162.8,91.6 164.1,91.1 165.3,90.9 166.6,90.7 167.8,90.3 169.1,90.0 170.3,89.7 171.6,89.4 172.8,89.3 174.1,89.2 175.3,89.0 176.6,88.7 177.8,88.5 179.1,88.3 180.3,88.1 181.6,87.9 182.9,87.7 184.1,87.6 185.4,87.4 186.6,87.3 187.9,87.0 189.1,86.7 190.4,86.5 191.6,86.3 192.9,86.1 194.1,86.0 195.4,85.9 196.6,85.7 197.9,85.3 199.1,85.0 200.4,84.6 201.6,84.5 202.9,84.5 204.2,84.3 205.4,84.1 206.7,83.9 207.9,83.7 209.2,83.4 210.4,83.2 211.7,83.1 212.9,83.0 214.2,82.9 215.4,82.8 216.7,82.6 217.9,82.4 219.2,82.2 220.4,82.0 221.7,82.0 222.9,81.8 224.2,81.8 225.5,81.5 226.7,81.3 228.0,81.1 229.2,81.0 230.5,80.8 231.7,80.6 233.0,80.5 234.2,80.4 235.5,80.1 236.7,79.9 238.0,79.7 239.2,79.5 240.5,79.2 241.7,79.1 243.0,79.0 244.2,78.9 245.5,78.7 246.8,78.6 248.0,78.4 249.3,78.3 250.5,78.1 251.8,78.0 253.0,77.9 254.3,77.8 255.5,77.7 256.8,77.5 258.0,77.3 259.3,77.2 260.5,77.0 261.8,76.9 263.0,76.8 264.3,76.6 265.5,76.5 266.8,76.4 268.1,76.3 269.3,76.0 270.6,75.7 271.8,75.5 273.1,75.4 274.3,75.3 275.6,75.3 276.8,75.1 278.1,74.9 279.3,74.7 280.6,74.6 281.8,74.5 283.1,74.3 284.3,74.2 285.6,74.1 286.8,74.0 288.1,73.7 289.4,73.6 290.6,73.4 291.9,73.2 293.1,73.1 294.4,73.1 295.6,73.0 296.9,72.9 298.1,72.7 299.4,72.6 300.6,72.4 301.9,72.3 303.1,72.2 304.4,72.1 305.6,71.9 306.9,71.8 308.1,71.6 309.4,71.4 310.6,71.3 311.9,71.1 313.2,71.0 314.4,70.9 315.7,70.8 316.9,70.8 318.2,70.7 319.4,70.5 320.7,70.3 321.9,70.2 323.2,70.1 324.4,70.0 325.7,69.8 326.9,69.7 328.2,69.6 329.4,69.4 330.7,69.3 331.9,69.2 333.2,69.1 334.5,68.9 335.7,68.8 337.0,68.7 338.2,68.6 339.5,68.5 340.7,68.4 342.0,68.3 343.2,68.2 344.5,68.1 345.7,68.0 347.0,67.7 348.2,67.5 349.5,71.5 350.7,70.7 352.0,69.2 353.2,68.7 354.5,68.0 355.8,67.1 357.0,66.7 358.3,66.3 359.5,65.8 360.8,64.9 362.0,64.3 363.3,64.1 364.5,63.8 365.8,63.5 367.0,63.1 368.3,62.6 369.5,62.2 370.8,61.9 372.0,61.5 373.3,61.3 374.5,61.0 375.8,60.8 377.1,60.6 378.3,60.4 379.6,59.9 380.8,59.6 382.1,59.2 383.3,58.7 384.6,58.4 385.8,58.2 387.1,58.0 388.3,57.8 389.6,57.5 390.8,57.2 392.1,56.9 393.3,56.1 394.6,55.5 395.8,55.2 397.1,55.0 398.4,54.8 399.6,54.3 400.9,54.0 402.1,53.7 403.4,53.4 404.6,53.2 405.9,52.9 407.1,52.6 408.4,52.3 409.6,52.0 410.9,51.9 412.1,51.7 413.4,51.4 414.6,51.1 415.9,50.9 417.1,50.8 418.4,50.6 419.7,50.4 420.9,50.2 422.2,50.1 423.4,49.9 424.7,49.7 425.9,49.6 427.2,49.3 428.4,49.2 429.7,48.9 430.9,48.5 432.2,48.3 433.4,48.1 434.7,48.0 435.9,47.8 437.2,47.6 438.4,47.5 439.7,47.3 441.0,47.2 442.2,47.1 443.5,46.9 444.7,46.8 446.0,46.5 447.2,46.4 448.5,46.3 449.7,46.0 451.0,45.7 452.2,45.4 453.5,45.2 454.7,45.1 456.0,44.9 457.2,44.6 458.5,44.4 459.7,44.2 461.0,44.0 462.3,43.9 463.5,43.8 464.8,43.6 466.0,43.4 467.3,43.2 468.5,43.1 469.8,42.9 471.0,42.7 472.3,42.5 473.5,42.3 474.8,42.1 476.0,41.8 477.3,41.6 478.5,41.5 479.8,41.4 481.0,41.2 482.3,41.1 483.5,40.9 484.8,40.7 486.1,40.5 487.3,40.4 488.6,40.2 489.8,40.1 491.1,39.9 492.3,39.8 493.6,39.7 494.8,39.5 496.1,39.5 497.3,39.3 498.6,39.1 499.8,39.0 501.1,38.8 502.3,38.7 503.6,38.6 504.8,38.4 506.1,38.2 507.4,38.1 508.6,37.9 509.9,37.8 511.1,37.6 512.4,37.4 513.6,37.1 514.9,37.0 516.1,36.9 517.4,36.9 518.6,36.7 519.9,36.6 521.1,36.4 522.4,36.1 523.6,36.0 524.9,35.8 526.1,35.7 527.4,35.6 528.7,35.4 529.9,35.2 531.2,35.0 532.4,34.8 533.7,34.7 534.9,34.5 536.2,34.3 537.4,34.1 538.7,33.9 539.9,33.7 541.2,33.6 542.4,33.3 543.7,33.1 544.9,33.0 546.2,32.9 547.4,32.7 548.7,32.5 550.0,32.4 551.2,32.2 552.5,32.1 553.7,31.9 555.0,31.6 556.2,31.5 557.5,31.3 558.7,31.2 560.0,31.0 561.2,30.9 562.5,30.7 563.7,30.6 565.0,30.4 566.2,30.4 567.5,30.3 568.7,30.2 570.0,30.0" />
  
  <!-- Punto finale luminoso -->
  <circle cx="570.0" cy="30.0" r="4" fill="#ffffff" stroke="#0366d6" stroke-width="2.5" />
</svg>