<svg width="600" height="150" viewBox="0 0 600 150" xmlns="http://www.w3.org/2000/svg">
  <defs>
    <filter id="shadow2" x="-2%" y="-2%" width="104%" height="108%">
      <feDropShadow dx="0" dy="2" stdDeviation="3" flood-opacity="0.1" />
    </filter>
    <linearGradient id="fillGrad" x1="0" y1="0" x2="0" y2="1">
      <stop offset="0%" stop-color="#0366d6" stop-opacity="0.3"/>
      <stop offset="100%" stop-color="#0366d6" stop-opacity="0.02"/>
    </linearGradient>
  </defs>
  <rect width="600" height="150" rx="12" fill="#ffffff" filter="url(#shadow2)" stroke="#e1e4e8" stroke-width="1"/>
  <text x="20" y="24" fill="#2b3137" font-family="-apple-system,BlinkMacSystemFont,'Segoe UI',Helvetica,Arial,sans-serif" font-size="14" font-weight="600">📈 Download Growth (Actual: 77.7k)</text>
  
  <!-- Area sotto la linea -->
  <polygon fill="url(#fillGrad)" points="30.0,120.0,120 30.0,120.0 32.7,119.1 35.3,118.1 38.0,117.2 40.6,117.0 43.3,116.5 46.0,115.4 48.6,114.7 51.3,114.2 53.9,113.1 56.6,112.5 59.3,112.0 61.9,111.7 64.6,111.2 67.2,110.4 69.9,109.6 72.6,109.0 75.2,108.6 77.9,108.3 80.5,107.8 83.2,107.2 85.9,106.7 88.5,106.5 91.2,106.0 93.8,104.2 96.5,103.7 99.2,103.0 101.8,102.3 104.5,101.7 107.1,101.1 109.8,100.8 112.5,100.5 115.1,100.0 117.8,99.1 120.4,98.4 123.1,97.9 125.8,97.3 128.4,97.1 131.1,97.0 133.7,96.7 136.4,96.1 139.1,95.8 141.7,95.6 144.4,94.9 147.0,94.0 149.7,93.8 152.4,93.6 155.0,93.2 157.7,92.5 160.3,92.0 163.0,91.2 165.7,90.6 168.3,90.0 171.0,89.8 173.6,89.4 176.3,88.7 179.0,88.0 181.6,87.5 184.3,87.2 186.9,86.9 189.6,86.6 192.3,85.8 194.9,85.0 197.6,84.4 200.2,83.7 202.9,83.4 205.6,83.2 208.2,82.9 210.9,82.4 213.5,82.0 216.2,81.7 218.9,81.5 221.5,81.2 224.2,80.9 226.8,80.6 229.5,80.4 232.2,80.3 234.8,79.6 237.5,79.2 240.1,79.0 242.8,78.8 245.5,78.6 248.1,78.6 250.8,90.5 253.4,89.3 256.1,88.3 258.8,87.2 261.4,83.9 264.1,81.7 266.7,79.3 269.4,78.4 272.1,77.3 274.7,75.7 277.4,73.9 280.0,72.6 282.7,72.1 285.4,71.6 288.0,70.3 290.7,69.3 293.3,68.7 296.0,68.0 298.7,67.7 301.3,67.5 304.0,66.8 306.7,65.7 309.3,65.0 312.0,64.2 314.6,63.3 317.3,62.8 320.0,62.5 322.6,61.8 325.3,61.1 327.9,60.4 330.6,59.9 333.3,59.7 335.9,59.5 338.6,59.1 341.2,58.5 343.9,58.1 346.6,57.7 349.2,57.3 351.9,57.0 354.5,56.6 357.2,56.3 359.9,56.1 362.5,55.8 365.2,55.1 367.8,54.7 370.5,54.2 373.2,53.9 375.8,53.5 378.5,53.3 381.1,53.0 383.8,52.7 386.5,51.9 389.1,51.3 391.8,50.6 394.4,50.3 397.1,50.2 399.8,49.9 402.4,49.5 405.1,49.1 407.7,48.7 410.4,48.1 413.1,47.8 415.7,47.6 418.4,47.3 421.0,47.1 423.7,46.9 426.4,46.5 429.0,46.2 431.7,45.7 434.3,45.5 437.0,45.3 439.7,45.1 442.3,44.9 445.0,44.5 447.6,44.1 450.3,43.7 453.0,43.3 455.6,43.0 458.3,42.7 460.9,42.5 463.6,42.3 466.3,41.7 468.9,41.2 471.6,40.9 474.2,40.5 476.9,39.9 479.6,39.7 482.2,39.5 484.9,39.3 487.5,39.0 490.2,38.7 492.9,38.4 495.5,38.1 498.2,37.8 500.8,37.6 503.5,37.3 506.2,37.0 508.8,36.9 511.5,36.6 514.1,36.1 516.8,35.9 519.5,35.5 522.1,35.3 524.8,35.1 527.4,34.8 530.1,34.6 532.8,34.4 535.4,34.1 538.1,33.6 540.7,33.0 543.4,32.7 546.1,32.4 548.7,32.3 551.4,32.2 554.0,31.8 556.7,31.3 559.4,31.1 562.0,31.0 564.7,30.6 567.3,30.3 570.0,30.0 570.0,30.0,120" />
  
  <!-- Linea principale -->
  <polyline fill="none" stroke="#0366d6" stroke-width="2.5" stroke-linecap="round" stroke-linejoin="round" points="30.0,120.0 32.7,119.1 35.3,118.1 38.0,117.2 40.6,117.0 43.3,116.5 46.0,115.4 48.6,114.7 51.3,114.2 53.9,113.1 56.6,112.5 59.3,112.0 61.9,111.7 64.6,111.2 67.2,110.4 69.9,109.6 72.6,109.0 75.2,108.6 77.9,108.3 80.5,107.8 83.2,107.2 85.9,106.7 88.5,106.5 91.2,106.0 93.8,104.2 96.5,103.7 99.2,103.0 101.8,102.3 104.5,101.7 107.1,101.1 109.8,100.8 112.5,100.5 115.1,100.0 117.8,99.1 120.4,98.4 123.1,97.9 125.8,97.3 128.4,97.1 131.1,97.0 133.7,96.7 136.4,96.1 139.1,95.8 141.7,95.6 144.4,94.9 147.0,94.0 149.7,93.8 152.4,93.6 155.0,93.2 157.7,92.5 160.3,92.0 163.0,91.2 165.7,90.6 168.3,90.0 171.0,89.8 173.6,89.4 176.3,88.7 179.0,88.0 181.6,87.5 184.3,87.2 186.9,86.9 189.6,86.6 192.3,85.8 194.9,85.0 197.6,84.4 200.2,83.7 202.9,83.4 205.6,83.2 208.2,82.9 210.9,82.4 213.5,82.0 216.2,81.7 218.9,81.5 221.5,81.2 224.2,80.9 226.8,80.6 229.5,80.4 232.2,80.3 234.8,79.6 237.5,79.2 240.1,79.0 242.8,78.8 245.5,78.6 248.1,78.6 250.8,90.5 253.4,89.3 256.1,88.3 258.8,87.2 261.4,83.9 264.1,81.7 266.7,79.3 269.4,78.4 272.1,77.3 274.7,75.7 277.4,73.9 280.0,72.6 282.7,72.1 285.4,71.6 288.0,70.3 290.7,69.3 293.3,68.7 296.0,68.0 298.7,67.7 301.3,67.5 304.0,66.8 306.7,65.7 309.3,65.0 312.0,64.2 314.6,63.3 317.3,62.8 320.0,62.5 322.6,61.8 325.3,61.1 327.9,60.4 330.6,59.9 333.3,59.7 335.9,59.5 338.6,59.1 341.2,58.5 343.9,58.1 346.6,57.7 349.2,57.3 351.9,57.0 354.5,56.6 357.2,56.3 359.9,56.1 362.5,55.8 365.2,55.1 367.8,54.7 370.5,54.2 373.2,53.9 375.8,53.5 378.5,53.3 381.1,53.0 383.8,52.7 386.5,51.9 389.1,51.3 391.8,50.6 394.4,50.3 397.1,50.2 399.8,49.9 402.4,49.5 405.1,49.1 407.7,48.7 410.4,48.1 413.1,47.8 415.7,47.6 418.4,47.3 421.0,47.1 423.7,46.9 426.4,46.5 429.0,46.2 431.7,45.7 434.3,45.5 437.0,45.3 439.7,45.1 442.3,44.9 445.0,44.5 447.6,44.1 450.3,43.7 453.0,43.3 455.6,43.0 458.3,42.7 460.9,42.5 463.6,42.3 466.3,41.7 468.9,41.2 471.6,40.9 474.2,40.5 476.9,39.9 479.6,39.7 482.2,39.5 484.9,39.3 487.5,39.0 490.2,38.7 492.9,38.4 495.5,38.1 498.2,37.8 500.8,37.6 503.5,37.3 506.2,37.0 508.8,36.9 511.5,36.6 514.1,36.1 516.8,35.9 519.5,35.5 522.1,35.3 524.8,35.1 527.4,34.8 530.1,34.6 532.8,34.4 535.4,34.1 538.1,33.6 540.7,33.0 543.4,32.7 546.1,32.4 548.7,32.3 551.4,32.2 554.0,31.8 556.7,31.3 559.4,31.1 562.0,31.0 564.7,30.6 567.3,30.3 570.0,30.0" />
  
  <!-- Punto finale luminoso -->
  <circle cx="570.0" cy="30.0" r="4" fill="#ffffff" stroke="#0366d6" stroke-width="2.5" />
</svg>