<svg width="600" height="150" viewBox="0 0 600 150" xmlns="http://www.w3.org/2000/svg">
  <defs>
    <filter id="shadow2" x="-2%" y="-2%" width="104%" height="108%">
      <feDropShadow dx="0" dy="2" stdDeviation="3" flood-opacity="0.1" />
    </filter>
    <linearGradient id="fillGrad" x1="0" y1="0" x2="0" y2="1">
      <stop offset="0%" stop-color="#0366d6" stop-opacity="0.3"/>
      <stop offset="100%" stop-color="#0366d6" stop-opacity="0.02"/>
    </linearGradient>
  </defs>
  <rect width="600" height="150" rx="12" fill="#ffffff" filter="url(#shadow2)" stroke="#e1e4e8" stroke-width="1"/>
  <text x="20" y="24" fill="#2b3137" font-family="-apple-system,BlinkMacSystemFont,'Segoe UI',Helvetica,Arial,sans-serif" font-size="14" font-weight="600">📈 Download Growth (Actual: 74.1k)</text>
  
  <!-- Area sotto la linea -->
  <polygon fill="url(#fillGrad)" points="30.0,120.0,120 30.0,120.0 34.8,118.6 39.6,117.1 44.5,115.7 49.3,115.4 54.1,114.7 58.9,113.1 63.8,112.0 68.6,111.3 73.4,109.6 78.2,108.7 83.0,107.9 87.9,107.4 92.7,106.7 97.5,105.5 102.3,104.3 107.1,103.4 112.0,102.8 116.8,102.3 121.6,101.6 126.4,100.7 131.2,99.9 136.1,99.5 140.9,98.8 145.7,96.2 150.5,95.4 155.4,94.3 160.2,93.3 165.0,92.4 169.8,91.5 174.6,90.9 179.5,90.5 184.3,89.7 189.1,88.5 193.9,87.4 198.8,86.6 203.6,85.7 208.4,85.5 213.2,85.2 218.0,84.8 222.9,83.9 227.7,83.4 232.5,83.1 237.3,82.1 242.1,80.7 247.0,80.4 251.8,80.1 256.6,79.5 261.4,78.4 266.2,77.7 271.1,76.5 275.9,75.7 280.7,74.6 285.5,74.4 290.4,73.8 295.2,72.7 300.0,71.6 304.8,70.8 309.6,70.5 314.5,69.9 319.3,69.5 324.1,68.3 328.9,67.2 333.8,66.2 338.6,65.2 343.4,64.7 348.2,64.4 353.0,64.0 357.9,63.2 362.7,62.7 367.5,62.2 372.3,61.8 377.1,61.4 382.0,60.9 386.8,60.5 391.6,60.2 396.4,60.0 401.2,58.9 406.1,58.3 410.9,58.1 415.7,57.7 420.5,57.5 425.4,57.5 430.2,75.4 435.0,73.6 439.8,72.0 444.6,70.4 449.5,65.5 454.3,62.1 459.1,58.4 463.9,57.1 468.8,55.6 473.6,53.1 478.4,50.3 483.2,48.3 488.0,47.6 492.9,46.9 497.7,44.9 502.5,43.5 507.3,42.6 512.1,41.4 517.0,40.9 521.8,40.7 526.6,39.7 531.4,38.0 536.2,36.8 541.1,35.6 545.9,34.3 550.7,33.7 555.5,33.2 560.4,32.0 565.2,31.0 570.0,30.0 570.0,30.0,120" />
  
  <!-- Linea principale -->
  <polyline fill="none" stroke="#0366d6" stroke-width="2.5" stroke-linecap="round" stroke-linejoin="round" points="30.0,120.0 34.8,118.6 39.6,117.1 44.5,115.7 49.3,115.4 54.1,114.7 58.9,113.1 63.8,112.0 68.6,111.3 73.4,109.6 78.2,108.7 83.0,107.9 87.9,107.4 92.7,106.7 97.5,105.5 102.3,104.3 107.1,103.4 112.0,102.8 116.8,102.3 121.6,101.6 126.4,100.7 131.2,99.9 136.1,99.5 140.9,98.8 145.7,96.2 150.5,95.4 155.4,94.3 160.2,93.3 165.0,92.4 169.8,91.5 174.6,90.9 179.5,90.5 184.3,89.7 189.1,88.5 193.9,87.4 198.8,86.6 203.6,85.7 208.4,85.5 213.2,85.2 218.0,84.8 222.9,83.9 227.7,83.4 232.5,83.1 237.3,82.1 242.1,80.7 247.0,80.4 251.8,80.1 256.6,79.5 261.4,78.4 266.2,77.7 271.1,76.5 275.9,75.7 280.7,74.6 285.5,74.4 290.4,73.8 295.2,72.7 300.0,71.6 304.8,70.8 309.6,70.5 314.5,69.9 319.3,69.5 324.1,68.3 328.9,67.2 333.8,66.2 338.6,65.2 343.4,64.7 348.2,64.4 353.0,64.0 357.9,63.2 362.7,62.7 367.5,62.2 372.3,61.8 377.1,61.4 382.0,60.9 386.8,60.5 391.6,60.2 396.4,60.0 401.2,58.9 406.1,58.3 410.9,58.1 415.7,57.7 420.5,57.5 425.4,57.5 430.2,75.4 435.0,73.6 439.8,72.0 444.6,70.4 449.5,65.5 454.3,62.1 459.1,58.4 463.9,57.1 468.8,55.6 473.6,53.1 478.4,50.3 483.2,48.3 488.0,47.6 492.9,46.9 497.7,44.9 502.5,43.5 507.3,42.6 512.1,41.4 517.0,40.9 521.8,40.7 526.6,39.7 531.4,38.0 536.2,36.8 541.1,35.6 545.9,34.3 550.7,33.7 555.5,33.2 560.4,32.0 565.2,31.0 570.0,30.0" />
  
  <!-- Punto finale luminoso -->
  <circle cx="570.0" cy="30.0" r="4" fill="#ffffff" stroke="#0366d6" stroke-width="2.5" />
</svg>