<svg width="600" height="150" viewBox="0 0 600 150" xmlns="http://www.w3.org/2000/svg">
  <defs>
    <filter id="shadow2" x="-2%" y="-2%" width="104%" height="108%">
      <feDropShadow dx="0" dy="2" stdDeviation="3" flood-opacity="0.1" />
    </filter>
    <linearGradient id="fillGrad" x1="0" y1="0" x2="0" y2="1">
      <stop offset="0%" stop-color="#0366d6" stop-opacity="0.3"/>
      <stop offset="100%" stop-color="#0366d6" stop-opacity="0.02"/>
    </linearGradient>
  </defs>
  <rect width="600" height="150" rx="12" fill="#ffffff" filter="url(#shadow2)" stroke="#e1e4e8" stroke-width="1"/>
  <text x="20" y="24" fill="#2b3137" font-family="-apple-system,BlinkMacSystemFont,'Segoe UI',Helvetica,Arial,sans-serif" font-size="14" font-weight="600">📈 Download Growth (Actual: 78.0k)</text>
  
  <!-- Area sotto la linea -->
  <polygon fill="url(#fillGrad)" points="30.0,120.0,120 30.0,120.0 32.6,119.1 35.2,118.1 37.8,117.2 40.3,117.0 42.9,116.6 45.5,115.5 48.1,114.8 50.7,114.3 53.3,113.2 55.8,112.7 58.4,112.2 61.0,111.8 63.6,111.3 66.2,110.6 68.8,109.8 71.3,109.2 73.9,108.8 76.5,108.5 79.1,108.1 81.7,107.5 84.3,107.0 86.8,106.7 89.4,106.3 92.0,104.5 94.6,104.0 97.2,103.4 99.8,102.7 102.3,102.1 104.9,101.5 107.5,101.2 110.1,100.9 112.7,100.4 115.3,99.6 117.8,98.8 120.4,98.4 123.0,97.8 125.6,97.6 128.2,97.5 130.8,97.2 133.3,96.6 135.9,96.3 138.5,96.1 141.1,95.4 143.7,94.5 146.3,94.3 148.9,94.1 151.4,93.8 154.0,93.0 156.6,92.5 159.2,91.8 161.8,91.2 164.4,90.6 166.9,90.4 169.5,90.0 172.1,89.4 174.7,88.7 177.3,88.1 179.9,87.9 182.4,87.6 185.0,87.2 187.6,86.5 190.2,85.8 192.8,85.1 195.4,84.5 197.9,84.2 200.5,84.0 203.1,83.7 205.7,83.2 208.3,82.8 210.9,82.5 213.4,82.3 216.0,82.0 218.6,81.7 221.2,81.4 223.8,81.3 226.4,81.1 228.9,80.4 231.5,80.0 234.1,79.9 236.7,79.6 239.3,79.5 241.9,79.5 244.4,91.1 247.0,89.9 249.6,88.9 252.2,87.8 254.8,84.7 257.4,82.5 260.0,80.1 262.5,79.2 265.1,78.2 267.7,76.6 270.3,74.8 272.9,73.5 275.5,73.0 278.0,72.6 280.6,71.3 283.2,70.4 285.8,69.8 288.4,69.1 291.0,68.7 293.5,68.6 296.1,67.9 298.7,66.9 301.3,66.1 303.9,65.3 306.5,64.4 309.0,64.0 311.6,63.7 314.2,63.0 316.8,62.3 319.4,61.7 322.0,61.1 324.5,60.9 327.1,60.7 329.7,60.3 332.3,59.8 334.9,59.4 337.5,58.9 340.0,58.6 342.6,58.3 345.2,57.9 347.8,57.6 350.4,57.4 353.0,57.1 355.6,56.5 358.1,56.0 360.7,55.5 363.3,55.2 365.9,54.9 368.5,54.6 371.1,54.4 373.6,54.1 376.2,53.3 378.8,52.7 381.4,52.0 384.0,51.7 386.6,51.7 389.1,51.3 391.7,51.0 394.3,50.5 396.9,50.1 399.5,49.6 402.1,49.3 404.6,49.1 407.2,48.8 409.8,48.6 412.4,48.4 415.0,48.0 417.6,47.8 420.1,47.3 422.7,47.0 425.3,46.9 427.9,46.6 430.5,46.5 433.1,46.0 435.6,45.7 438.2,45.3 440.8,44.9 443.4,44.5 446.0,44.3 448.6,44.1 451.1,43.9 453.7,43.3 456.3,42.9 458.9,42.5 461.5,42.1 464.1,41.5 466.7,41.4 469.2,41.2 471.8,41.0 474.4,40.7 477.0,40.4 479.6,40.0 482.2,39.8 484.7,39.5 487.3,39.2 489.9,39.0 492.5,38.8 495.1,38.6 497.7,38.3 500.2,37.8 502.8,37.6 505.4,37.3 508.0,37.1 510.6,36.8 513.2,36.6 515.7,36.4 518.3,36.2 520.9,35.9 523.5,35.4 526.1,34.8 528.7,34.5 531.2,34.2 533.8,34.1 536.4,34.0 539.0,33.6 541.6,33.2 544.2,33.0 546.7,32.8 549.3,32.4 551.9,32.2 554.5,31.8 557.1,31.7 559.7,31.5 562.2,31.1 564.8,30.8 567.4,30.4 570.0,30.0 570.0,30.0,120" />
  
  <!-- Linea principale -->
  <polyline fill="none" stroke="#0366d6" stroke-width="2.5" stroke-linecap="round" stroke-linejoin="round" points="30.0,120.0 32.6,119.1 35.2,118.1 37.8,117.2 40.3,117.0 42.9,116.6 45.5,115.5 48.1,114.8 50.7,114.3 53.3,113.2 55.8,112.7 58.4,112.2 61.0,111.8 63.6,111.3 66.2,110.6 68.8,109.8 71.3,109.2 73.9,108.8 76.5,108.5 79.1,108.1 81.7,107.5 84.3,107.0 86.8,106.7 89.4,106.3 92.0,104.5 94.6,104.0 97.2,103.4 99.8,102.7 102.3,102.1 104.9,101.5 107.5,101.2 110.1,100.9 112.7,100.4 115.3,99.6 117.8,98.8 120.4,98.4 123.0,97.8 125.6,97.6 128.2,97.5 130.8,97.2 133.3,96.6 135.9,96.3 138.5,96.1 141.1,95.4 143.7,94.5 146.3,94.3 148.9,94.1 151.4,93.8 154.0,93.0 156.6,92.5 159.2,91.8 161.8,91.2 164.4,90.6 166.9,90.4 169.5,90.0 172.1,89.4 174.7,88.7 177.3,88.1 179.9,87.9 182.4,87.6 185.0,87.2 187.6,86.5 190.2,85.8 192.8,85.1 195.4,84.5 197.9,84.2 200.5,84.0 203.1,83.7 205.7,83.2 208.3,82.8 210.9,82.5 213.4,82.3 216.0,82.0 218.6,81.7 221.2,81.4 223.8,81.3 226.4,81.1 228.9,80.4 231.5,80.0 234.1,79.9 236.7,79.6 239.3,79.5 241.9,79.5 244.4,91.1 247.0,89.9 249.6,88.9 252.2,87.8 254.8,84.7 257.4,82.5 260.0,80.1 262.5,79.2 265.1,78.2 267.7,76.6 270.3,74.8 272.9,73.5 275.5,73.0 278.0,72.6 280.6,71.3 283.2,70.4 285.8,69.8 288.4,69.1 291.0,68.7 293.5,68.6 296.1,67.9 298.7,66.9 301.3,66.1 303.9,65.3 306.5,64.4 309.0,64.0 311.6,63.7 314.2,63.0 316.8,62.3 319.4,61.7 322.0,61.1 324.5,60.9 327.1,60.7 329.7,60.3 332.3,59.8 334.9,59.4 337.5,58.9 340.0,58.6 342.6,58.3 345.2,57.9 347.8,57.6 350.4,57.4 353.0,57.1 355.6,56.5 358.1,56.0 360.7,55.5 363.3,55.2 365.9,54.9 368.5,54.6 371.1,54.4 373.6,54.1 376.2,53.3 378.8,52.7 381.4,52.0 384.0,51.7 386.6,51.7 389.1,51.3 391.7,51.0 394.3,50.5 396.9,50.1 399.5,49.6 402.1,49.3 404.6,49.1 407.2,48.8 409.8,48.6 412.4,48.4 415.0,48.0 417.6,47.8 420.1,47.3 422.7,47.0 425.3,46.9 427.9,46.6 430.5,46.5 433.1,46.0 435.6,45.7 438.2,45.3 440.8,44.9 443.4,44.5 446.0,44.3 448.6,44.1 451.1,43.9 453.7,43.3 456.3,42.9 458.9,42.5 461.5,42.1 464.1,41.5 466.7,41.4 469.2,41.2 471.8,41.0 474.4,40.7 477.0,40.4 479.6,40.0 482.2,39.8 484.7,39.5 487.3,39.2 489.9,39.0 492.5,38.8 495.1,38.6 497.7,38.3 500.2,37.8 502.8,37.6 505.4,37.3 508.0,37.1 510.6,36.8 513.2,36.6 515.7,36.4 518.3,36.2 520.9,35.9 523.5,35.4 526.1,34.8 528.7,34.5 531.2,34.2 533.8,34.1 536.4,34.0 539.0,33.6 541.6,33.2 544.2,33.0 546.7,32.8 549.3,32.4 551.9,32.2 554.5,31.8 557.1,31.7 559.7,31.5 562.2,31.1 564.8,30.8 567.4,30.4 570.0,30.0" />
  
  <!-- Punto finale luminoso -->
  <circle cx="570.0" cy="30.0" r="4" fill="#ffffff" stroke="#0366d6" stroke-width="2.5" />
</svg>