<svg width="600" height="150" viewBox="0 0 600 150" xmlns="http://www.w3.org/2000/svg">
  <defs>
    <filter id="shadow2" x="-2%" y="-2%" width="104%" height="108%">
      <feDropShadow dx="0" dy="2" stdDeviation="3" flood-opacity="0.1" />
    </filter>
    <linearGradient id="fillGrad" x1="0" y1="0" x2="0" y2="1">
      <stop offset="0%" stop-color="#0366d6" stop-opacity="0.3"/>
      <stop offset="100%" stop-color="#0366d6" stop-opacity="0.02"/>
    </linearGradient>
  </defs>
  <rect width="600" height="150" rx="12" fill="#ffffff" filter="url(#shadow2)" stroke="#e1e4e8" stroke-width="1"/>
  <text x="20" y="24" fill="#2b3137" font-family="-apple-system,BlinkMacSystemFont,'Segoe UI',Helvetica,Arial,sans-serif" font-size="14" font-weight="600">📈 Download Growth (Actual: 73.4k)</text>
  
  <!-- Area sotto la linea -->
  <polygon fill="url(#fillGrad)" points="30.0,120.0,120 30.0,120.0 35.2,118.5 40.4,116.8 45.6,115.3 50.8,114.9 56.0,114.2 61.2,112.4 66.3,111.2 71.5,110.4 76.7,108.6 81.9,107.6 87.1,106.7 92.3,106.2 97.5,105.3 102.7,104.1 107.9,102.8 113.1,101.8 118.3,101.1 123.5,100.6 128.7,99.8 133.8,98.8 139.0,98.0 144.2,97.5 149.4,96.7 154.6,93.8 159.8,93.0 165.0,91.8 170.2,90.7 175.4,89.7 180.6,88.7 185.8,88.1 191.0,87.6 196.2,86.8 201.3,85.4 206.5,84.2 211.7,83.3 216.9,82.4 222.1,82.1 227.3,81.8 232.5,81.3 237.7,80.4 242.9,79.9 248.1,79.5 253.3,78.4 258.5,76.8 263.7,76.5 268.8,76.2 274.0,75.6 279.2,74.3 284.4,73.5 289.6,72.2 294.8,71.3 300.0,70.2 305.2,69.9 310.4,69.2 315.6,68.1 320.8,66.9 326.0,66.0 331.2,65.6 336.3,65.0 341.5,64.5 346.7,63.2 351.9,62.0 357.1,60.9 362.3,59.8 367.5,59.3 372.7,59.0 377.9,58.5 383.1,57.6 388.3,57.0 393.5,56.5 398.7,56.1 403.8,55.7 409.0,55.1 414.2,54.7 419.4,54.4 424.6,54.1 429.8,52.9 435.0,52.2 440.2,52.0 445.4,51.6 450.6,51.4 455.8,51.4 461.0,71.0 466.2,69.1 471.3,67.3 476.5,65.5 481.7,60.2 486.9,56.4 492.1,52.4 497.3,50.9 502.5,49.2 507.7,46.5 512.9,43.5 518.1,41.3 523.3,40.5 528.5,39.7 533.7,37.5 538.8,36.0 544.0,35.0 549.2,33.7 554.4,33.2 559.6,33.0 564.8,31.8 570.0,30.0 570.0,30.0,120" />
  
  <!-- Linea principale -->
  <polyline fill="none" stroke="#0366d6" stroke-width="2.5" stroke-linecap="round" stroke-linejoin="round" points="30.0,120.0 35.2,118.5 40.4,116.8 45.6,115.3 50.8,114.9 56.0,114.2 61.2,112.4 66.3,111.2 71.5,110.4 76.7,108.6 81.9,107.6 87.1,106.7 92.3,106.2 97.5,105.3 102.7,104.1 107.9,102.8 113.1,101.8 118.3,101.1 123.5,100.6 128.7,99.8 133.8,98.8 139.0,98.0 144.2,97.5 149.4,96.7 154.6,93.8 159.8,93.0 165.0,91.8 170.2,90.7 175.4,89.7 180.6,88.7 185.8,88.1 191.0,87.6 196.2,86.8 201.3,85.4 206.5,84.2 211.7,83.3 216.9,82.4 222.1,82.1 227.3,81.8 232.5,81.3 237.7,80.4 242.9,79.9 248.1,79.5 253.3,78.4 258.5,76.8 263.7,76.5 268.8,76.2 274.0,75.6 279.2,74.3 284.4,73.5 289.6,72.2 294.8,71.3 300.0,70.2 305.2,69.9 310.4,69.2 315.6,68.1 320.8,66.9 326.0,66.0 331.2,65.6 336.3,65.0 341.5,64.5 346.7,63.2 351.9,62.0 357.1,60.9 362.3,59.8 367.5,59.3 372.7,59.0 377.9,58.5 383.1,57.6 388.3,57.0 393.5,56.5 398.7,56.1 403.8,55.7 409.0,55.1 414.2,54.7 419.4,54.4 424.6,54.1 429.8,52.9 435.0,52.2 440.2,52.0 445.4,51.6 450.6,51.4 455.8,51.4 461.0,71.0 466.2,69.1 471.3,67.3 476.5,65.5 481.7,60.2 486.9,56.4 492.1,52.4 497.3,50.9 502.5,49.2 507.7,46.5 512.9,43.5 518.1,41.3 523.3,40.5 528.5,39.7 533.7,37.5 538.8,36.0 544.0,35.0 549.2,33.7 554.4,33.2 559.6,33.0 564.8,31.8 570.0,30.0" />
  
  <!-- Punto finale luminoso -->
  <circle cx="570.0" cy="30.0" r="4" fill="#ffffff" stroke="#0366d6" stroke-width="2.5" />
</svg>