<svg width="600" height="150" viewBox="0 0 600 150" xmlns="http://www.w3.org/2000/svg">
  <defs>
    <filter id="shadow2" x="-2%" y="-2%" width="104%" height="108%">
      <feDropShadow dx="0" dy="2" stdDeviation="3" flood-opacity="0.1" />
    </filter>
    <linearGradient id="fillGrad" x1="0" y1="0" x2="0" y2="1">
      <stop offset="0%" stop-color="#0366d6" stop-opacity="0.3"/>
      <stop offset="100%" stop-color="#0366d6" stop-opacity="0.02"/>
    </linearGradient>
  </defs>
  <rect width="600" height="150" rx="12" fill="#ffffff" filter="url(#shadow2)" stroke="#e1e4e8" stroke-width="1"/>
  <text x="20" y="24" fill="#2b3137" font-family="-apple-system,BlinkMacSystemFont,'Segoe UI',Helvetica,Arial,sans-serif" font-size="14" font-weight="600">📈 Download Growth (Actual: 83.0k)</text>
  
  <!-- Area sotto la linea -->
  <polygon fill="url(#fillGrad)" points="30.0,120.0,120 30.0,120.0 31.8,119.4 33.6,118.7 35.3,118.1 37.1,117.9 38.9,117.6 40.7,116.9 42.5,116.4 44.3,116.1 46.0,115.3 47.8,115.0 49.6,114.6 51.4,114.4 53.2,114.0 55.0,113.5 56.7,113.0 58.5,112.6 60.3,112.3 62.1,112.1 63.9,111.8 65.6,111.4 67.4,111.0 69.2,110.9 71.0,110.5 72.8,109.4 74.6,109.0 76.3,108.5 78.1,108.1 79.9,107.7 81.7,107.3 83.5,107.0 85.2,106.8 87.0,106.5 88.8,105.9 90.6,105.4 92.4,105.1 94.2,104.7 95.9,104.6 97.7,104.5 99.5,104.3 101.3,103.9 103.1,103.7 104.9,103.5 106.6,103.1 108.4,102.5 110.2,102.3 112.0,102.2 113.8,101.9 115.5,101.4 117.3,101.1 119.1,100.6 120.9,100.2 122.7,99.7 124.5,99.6 126.2,99.4 128.0,98.9 129.8,98.4 131.6,98.1 133.4,97.9 135.1,97.7 136.9,97.4 138.7,96.9 140.5,96.4 142.3,96.0 144.1,95.5 145.8,95.3 147.6,95.2 149.4,95.0 151.2,94.6 153.0,94.4 154.8,94.2 156.5,94.0 158.3,93.9 160.1,93.6 161.9,93.4 163.7,93.3 165.4,93.2 167.2,92.7 169.0,92.5 170.8,92.4 172.6,92.2 174.4,92.1 176.1,92.1 177.9,100.1 179.7,99.3 181.5,98.6 183.3,97.8 185.0,95.7 186.8,94.2 188.6,92.5 190.4,91.9 192.2,91.2 194.0,90.1 195.7,88.9 197.5,88.0 199.3,87.7 201.1,87.3 202.9,86.5 204.7,85.8 206.4,85.4 208.2,84.9 210.0,84.7 211.8,84.6 213.6,84.2 215.3,83.4 217.1,82.9 218.9,82.3 220.7,81.7 222.5,81.5 224.3,81.2 226.0,80.7 227.8,80.3 229.6,79.8 231.4,79.5 233.2,79.3 235.0,79.2 236.7,78.9 238.5,78.5 240.3,78.2 242.1,78.0 243.9,77.7 245.6,77.5 247.4,77.3 249.2,77.1 251.0,76.9 252.8,76.7 254.6,76.3 256.3,76.0 258.1,75.6 259.9,75.4 261.7,75.2 263.5,75.0 265.2,74.8 267.0,74.6 268.8,74.0 270.6,73.7 272.4,73.2 274.2,73.0 275.9,72.9 277.7,72.7 279.5,72.5 281.3,72.2 283.1,71.9 284.9,71.5 286.6,71.3 288.4,71.2 290.2,71.0 292.0,70.8 293.8,70.7 295.5,70.4 297.3,70.3 299.1,69.9 300.9,69.7 302.7,69.6 304.5,69.5 306.2,69.4 308.0,69.1 309.8,68.8 311.6,68.5 313.4,68.3 315.1,68.0 316.9,67.9 318.7,67.8 320.5,67.6 322.3,67.2 324.1,66.9 325.8,66.6 327.6,66.4 329.4,66.0 331.2,65.9 333.0,65.7 334.8,65.6 336.5,65.4 338.3,65.2 340.1,64.9 341.9,64.8 343.7,64.6 345.4,64.4 347.2,64.2 349.0,64.1 350.8,64.0 352.6,63.7 354.4,63.4 356.1,63.3 357.9,63.0 359.7,62.9 361.5,62.7 363.3,62.6 365.0,62.4 366.8,62.3 368.6,62.1 370.4,61.7 372.2,61.4 374.0,61.1 375.7,60.9 377.5,60.9 379.3,60.8 381.1,60.5 382.9,60.2 384.7,60.1 386.4,59.9 388.2,59.7 390.0,59.5 391.8,59.3 393.6,59.2 395.3,59.0 397.1,58.8 398.9,58.5 400.7,58.3 402.5,58.0 404.3,57.9 406.0,57.8 407.8,57.8 409.6,57.6 411.4,57.4 413.2,57.2 415.0,57.0 416.7,56.8 418.5,56.7 420.3,56.5 422.1,56.4 423.9,56.2 425.6,55.9 427.4,55.7 429.2,55.5 431.0,55.3 432.8,55.1 434.6,55.0 436.3,54.9 438.1,54.8 439.9,54.7 441.7,54.5 443.5,54.2 445.2,54.1 447.0,53.9 448.8,53.8 450.6,53.6 452.4,53.4 454.2,53.2 455.9,53.1 457.7,52.9 459.5,52.8 461.3,52.5 463.1,52.4 464.9,52.2 466.6,52.1 468.4,52.0 470.2,51.8 472.0,51.7 473.8,51.5 475.5,51.4 477.3,51.3 479.1,51.2 480.9,50.8 482.7,50.5 484.5,55.8 486.2,54.7 488.0,52.8 489.8,52.0 491.6,51.1 493.4,50.0 495.1,49.4 496.9,48.9 498.7,48.2 500.5,47.1 502.3,46.2 504.1,46.0 505.8,45.5 507.6,45.2 509.4,44.6 511.2,44.0 513.0,43.4 514.8,43.1 516.5,42.5 518.3,42.2 520.1,41.8 521.9,41.6 523.7,41.3 525.4,41.0 527.2,40.4 529.0,40.1 530.8,39.5 532.6,38.8 534.4,38.4 536.1,38.2 537.9,38.0 539.7,37.7 541.5,37.2 543.3,36.8 545.0,36.5 546.8,35.4 548.6,34.6 550.4,34.2 552.2,34.0 554.0,33.6 555.7,33.1 557.5,32.6 559.3,32.2 561.1,31.9 562.9,31.5 564.7,31.1 566.4,30.8 568.2,30.3 570.0,30.0 570.0,30.0,120" />
  
  <!-- Linea principale -->
  <polyline fill="none" stroke="#0366d6" stroke-width="2.5" stroke-linecap="round" stroke-linejoin="round" points="30.0,120.0 31.8,119.4 33.6,118.7 35.3,118.1 37.1,117.9 38.9,117.6 40.7,116.9 42.5,116.4 44.3,116.1 46.0,115.3 47.8,115.0 49.6,114.6 51.4,114.4 53.2,114.0 55.0,113.5 56.7,113.0 58.5,112.6 60.3,112.3 62.1,112.1 63.9,111.8 65.6,111.4 67.4,111.0 69.2,110.9 71.0,110.5 72.8,109.4 74.6,109.0 76.3,108.5 78.1,108.1 79.9,107.7 81.7,107.3 83.5,107.0 85.2,106.8 87.0,106.5 88.8,105.9 90.6,105.4 92.4,105.1 94.2,104.7 95.9,104.6 97.7,104.5 99.5,104.3 101.3,103.9 103.1,103.7 104.9,103.5 106.6,103.1 108.4,102.5 110.2,102.3 112.0,102.2 113.8,101.9 115.5,101.4 117.3,101.1 119.1,100.6 120.9,100.2 122.7,99.7 124.5,99.6 126.2,99.4 128.0,98.9 129.8,98.4 131.6,98.1 133.4,97.9 135.1,97.7 136.9,97.4 138.7,96.9 140.5,96.4 142.3,96.0 144.1,95.5 145.8,95.3 147.6,95.2 149.4,95.0 151.2,94.6 153.0,94.4 154.8,94.2 156.5,94.0 158.3,93.9 160.1,93.6 161.9,93.4 163.7,93.3 165.4,93.2 167.2,92.7 169.0,92.5 170.8,92.4 172.6,92.2 174.4,92.1 176.1,92.1 177.9,100.1 179.7,99.3 181.5,98.6 183.3,97.8 185.0,95.7 186.8,94.2 188.6,92.5 190.4,91.9 192.2,91.2 194.0,90.1 195.7,88.9 197.5,88.0 199.3,87.7 201.1,87.3 202.9,86.5 204.7,85.8 206.4,85.4 208.2,84.9 210.0,84.7 211.8,84.6 213.6,84.2 215.3,83.4 217.1,82.9 218.9,82.3 220.7,81.7 222.5,81.5 224.3,81.2 226.0,80.7 227.8,80.3 229.6,79.8 231.4,79.5 233.2,79.3 235.0,79.2 236.7,78.9 238.5,78.5 240.3,78.2 242.1,78.0 243.9,77.7 245.6,77.5 247.4,77.3 249.2,77.1 251.0,76.9 252.8,76.7 254.6,76.3 256.3,76.0 258.1,75.6 259.9,75.4 261.7,75.2 263.5,75.0 265.2,74.8 267.0,74.6 268.8,74.0 270.6,73.7 272.4,73.2 274.2,73.0 275.9,72.9 277.7,72.7 279.5,72.5 281.3,72.2 283.1,71.9 284.9,71.5 286.6,71.3 288.4,71.2 290.2,71.0 292.0,70.8 293.8,70.7 295.5,70.4 297.3,70.3 299.1,69.9 300.9,69.7 302.7,69.6 304.5,69.5 306.2,69.4 308.0,69.1 309.8,68.8 311.6,68.5 313.4,68.3 315.1,68.0 316.9,67.9 318.7,67.8 320.5,67.6 322.3,67.2 324.1,66.9 325.8,66.6 327.6,66.4 329.4,66.0 331.2,65.9 333.0,65.7 334.8,65.6 336.5,65.4 338.3,65.2 340.1,64.9 341.9,64.8 343.7,64.6 345.4,64.4 347.2,64.2 349.0,64.1 350.8,64.0 352.6,63.7 354.4,63.4 356.1,63.3 357.9,63.0 359.7,62.9 361.5,62.7 363.3,62.6 365.0,62.4 366.8,62.3 368.6,62.1 370.4,61.7 372.2,61.4 374.0,61.1 375.7,60.9 377.5,60.9 379.3,60.8 381.1,60.5 382.9,60.2 384.7,60.1 386.4,59.9 388.2,59.7 390.0,59.5 391.8,59.3 393.6,59.2 395.3,59.0 397.1,58.8 398.9,58.5 400.7,58.3 402.5,58.0 404.3,57.9 406.0,57.8 407.8,57.8 409.6,57.6 411.4,57.4 413.2,57.2 415.0,57.0 416.7,56.8 418.5,56.7 420.3,56.5 422.1,56.4 423.9,56.2 425.6,55.9 427.4,55.7 429.2,55.5 431.0,55.3 432.8,55.1 434.6,55.0 436.3,54.9 438.1,54.8 439.9,54.7 441.7,54.5 443.5,54.2 445.2,54.1 447.0,53.9 448.8,53.8 450.6,53.6 452.4,53.4 454.2,53.2 455.9,53.1 457.7,52.9 459.5,52.8 461.3,52.5 463.1,52.4 464.9,52.2 466.6,52.1 468.4,52.0 470.2,51.8 472.0,51.7 473.8,51.5 475.5,51.4 477.3,51.3 479.1,51.2 480.9,50.8 482.7,50.5 484.5,55.8 486.2,54.7 488.0,52.8 489.8,52.0 491.6,51.1 493.4,50.0 495.1,49.4 496.9,48.9 498.7,48.2 500.5,47.1 502.3,46.2 504.1,46.0 505.8,45.5 507.6,45.2 509.4,44.6 511.2,44.0 513.0,43.4 514.8,43.1 516.5,42.5 518.3,42.2 520.1,41.8 521.9,41.6 523.7,41.3 525.4,41.0 527.2,40.4 529.0,40.1 530.8,39.5 532.6,38.8 534.4,38.4 536.1,38.2 537.9,38.0 539.7,37.7 541.5,37.2 543.3,36.8 545.0,36.5 546.8,35.4 548.6,34.6 550.4,34.2 552.2,34.0 554.0,33.6 555.7,33.1 557.5,32.6 559.3,32.2 561.1,31.9 562.9,31.5 564.7,31.1 566.4,30.8 568.2,30.3 570.0,30.0" />
  
  <!-- Punto finale luminoso -->
  <circle cx="570.0" cy="30.0" r="4" fill="#ffffff" stroke="#0366d6" stroke-width="2.5" />
</svg>