<svg width="600" height="150" viewBox="0 0 600 150" xmlns="http://www.w3.org/2000/svg">
  <defs>
    <filter id="shadow2" x="-2%" y="-2%" width="104%" height="108%">
      <feDropShadow dx="0" dy="2" stdDeviation="3" flood-opacity="0.1" />
    </filter>
    <linearGradient id="fillGrad" x1="0" y1="0" x2="0" y2="1">
      <stop offset="0%" stop-color="#0366d6" stop-opacity="0.3"/>
      <stop offset="100%" stop-color="#0366d6" stop-opacity="0.02"/>
    </linearGradient>
  </defs>
  <rect width="600" height="150" rx="12" fill="#ffffff" filter="url(#shadow2)" stroke="#e1e4e8" stroke-width="1"/>
  <text x="20" y="24" fill="#2b3137" font-family="-apple-system,BlinkMacSystemFont,'Segoe UI',Helvetica,Arial,sans-serif" font-size="14" font-weight="600">📈 Download Growth (Actual: 88.3k)</text>
  
  <!-- Area sotto la linea -->
  <polygon fill="url(#fillGrad)" points="30.0,120.0,120 30.0,120.0 31.2,119.5 32.5,119.0 33.7,118.6 35.0,118.5 36.2,118.2 37.5,117.7 38.7,117.3 40.0,117.1 41.2,116.5 42.4,116.2 43.7,115.9 44.9,115.8 46.2,115.5 47.4,115.1 48.7,114.7 49.9,114.4 51.2,114.2 52.4,114.1 53.6,113.8 54.9,113.5 56.1,113.3 57.4,113.1 58.6,112.9 59.9,112.0 61.1,111.7 62.4,111.4 63.6,111.0 64.8,110.7 66.1,110.4 67.3,110.2 68.6,110.1 69.8,109.8 71.1,109.4 72.3,109.0 73.5,108.8 74.8,108.5 76.0,108.4 77.3,108.3 78.5,108.2 79.8,107.9 81.0,107.7 82.3,107.6 83.5,107.3 84.7,106.8 86.0,106.7 87.2,106.6 88.5,106.4 89.7,106.0 91.0,105.8 92.2,105.4 93.5,105.1 94.7,104.8 95.9,104.7 97.2,104.5 98.4,104.1 99.7,103.8 100.9,103.5 102.2,103.4 103.4,103.2 104.7,103.0 105.9,102.6 107.1,102.3 108.4,101.9 109.6,101.6 110.9,101.4 112.1,101.3 113.4,101.2 114.6,100.9 115.9,100.8 117.1,100.6 118.3,100.5 119.6,100.3 120.8,100.1 122.1,100.0 123.3,99.9 124.6,99.8 125.8,99.5 127.1,99.3 128.3,99.2 129.5,99.1 130.8,99.0 132.0,99.0 133.3,105.0 134.5,104.4 135.8,103.9 137.0,103.3 138.2,101.7 139.5,100.6 140.7,99.3 142.0,98.9 143.2,98.4 144.5,97.5 145.7,96.6 147.0,95.9 148.2,95.7 149.4,95.4 150.7,94.8 151.9,94.3 153.2,94.0 154.4,93.6 155.7,93.5 156.9,93.4 158.2,93.0 159.4,92.5 160.6,92.1 161.9,91.7 163.1,91.2 164.4,91.0 165.6,90.9 166.9,90.5 168.1,90.1 169.4,89.8 170.6,89.5 171.8,89.4 173.1,89.3 174.3,89.1 175.6,88.8 176.8,88.6 178.1,88.4 179.3,88.2 180.6,88.0 181.8,87.9 183.0,87.7 184.3,87.6 185.5,87.4 186.8,87.1 188.0,86.9 189.3,86.6 190.5,86.5 191.8,86.3 193.0,86.2 194.2,86.0 195.5,85.9 196.7,85.4 198.0,85.2 199.2,84.8 200.5,84.7 201.7,84.6 202.9,84.4 204.2,84.3 205.4,84.0 206.7,83.8 207.9,83.6 209.2,83.4 210.4,83.3 211.7,83.2 212.9,83.0 214.1,82.9 215.4,82.7 216.6,82.6 217.9,82.3 219.1,82.2 220.4,82.1 221.6,82.0 222.9,81.9 224.1,81.7 225.3,81.5 226.6,81.3 227.8,81.1 229.1,80.9 230.3,80.8 231.6,80.7 232.8,80.6 234.1,80.3 235.3,80.1 236.5,79.9 237.8,79.7 239.0,79.4 240.3,79.3 241.5,79.2 242.8,79.1 244.0,78.9 245.3,78.8 246.5,78.6 247.7,78.5 249.0,78.3 250.2,78.2 251.5,78.0 252.7,77.9 254.0,77.9 255.2,77.7 256.5,77.5 257.7,77.3 258.9,77.2 260.2,77.1 261.4,76.9 262.7,76.8 263.9,76.7 265.2,76.6 266.4,76.4 267.6,76.2 268.9,75.9 270.1,75.7 271.4,75.6 272.6,75.5 273.9,75.5 275.1,75.3 276.4,75.0 277.6,74.9 278.8,74.8 280.1,74.7 281.3,74.5 282.6,74.4 283.8,74.3 285.1,74.2 286.3,73.9 287.6,73.8 288.8,73.6 290.0,73.4 291.3,73.3 292.5,73.3 293.8,73.2 295.0,73.1 296.3,72.9 297.5,72.8 298.8,72.6 300.0,72.5 301.2,72.4 302.5,72.3 303.7,72.1 305.0,72.0 306.2,71.8 307.5,71.6 308.7,71.5 310.0,71.3 311.2,71.2 312.4,71.1 313.7,71.1 314.9,71.0 316.2,70.9 317.4,70.8 318.7,70.5 319.9,70.4 321.2,70.3 322.4,70.2 323.6,70.1 324.9,69.9 326.1,69.8 327.4,69.7 328.6,69.6 329.9,69.4 331.1,69.3 332.4,69.1 333.6,69.0 334.8,68.9 336.1,68.8 337.3,68.7 338.6,68.6 339.8,68.5 341.1,68.4 342.3,68.4 343.5,68.2 344.8,68.0 346.0,67.8 347.3,71.7 348.5,70.9 349.8,69.4 351.0,68.9 352.3,68.2 353.5,67.3 354.7,66.9 356.0,66.6 357.2,66.0 358.5,65.2 359.7,64.5 361.0,64.3 362.2,64.0 363.5,63.7 364.7,63.3 365.9,62.9 367.2,62.4 368.4,62.2 369.7,61.7 370.9,61.5 372.2,61.2 373.4,61.0 374.7,60.8 375.9,60.6 377.1,60.2 378.4,59.9 379.6,59.5 380.9,59.0 382.1,58.6 383.4,58.5 384.6,58.3 385.9,58.1 387.1,57.7 388.3,57.4 389.6,57.2 390.8,56.4 392.1,55.8 393.3,55.5 394.6,55.3 395.8,55.0 397.1,54.6 398.3,54.3 399.5,54.0 400.8,53.7 402.0,53.4 403.3,53.2 404.5,52.9 405.8,52.5 407.0,52.3 408.2,52.2 409.5,52.0 410.7,51.6 412.0,51.4 413.2,51.2 414.5,51.1 415.7,50.9 417.0,50.7 418.2,50.5 419.4,50.4 420.7,50.2 421.9,50.0 423.2,49.9 424.4,49.6 425.7,49.5 426.9,49.2 428.2,48.8 429.4,48.6 430.6,48.4 431.9,48.3 433.1,48.1 434.4,48.0 435.6,47.8 436.9,47.6 438.1,47.5 439.4,47.4 440.6,47.2 441.8,47.1 443.1,46.8 444.3,46.7 445.6,46.6 446.8,46.4 448.1,46.1 449.3,45.7 450.6,45.6 451.8,45.4 453.0,45.2 454.3,44.9 455.5,44.7 456.8,44.5 458.0,44.3 459.3,44.3 460.5,44.1 461.8,43.9 463.0,43.7 464.2,43.6 465.5,43.5 466.7,43.2 468.0,43.0 469.2,42.9 470.5,42.6 471.7,42.5 472.9,42.2 474.2,42.0 475.4,41.8 476.7,41.7 477.9,41.5 479.2,41.4 480.4,41.2 481.7,41.0 482.9,40.8 484.1,40.7 485.4,40.6 486.6,40.4 487.9,40.3 489.1,40.1 490.4,40.0 491.6,39.9 492.9,39.8 494.1,39.6 495.3,39.5 496.6,39.3 497.8,39.2 499.1,39.0 500.3,38.9 501.6,38.7 502.8,38.5 504.1,38.4 505.3,38.3 506.5,38.1 507.8,37.9 509.0,37.7 510.3,37.5 511.5,37.4 512.8,37.3 514.0,37.2 515.3,37.0 516.5,36.9 517.7,36.7 519.0,36.4 520.2,36.3 521.5,36.1 522.7,36.0 524.0,35.9 525.2,35.7 526.5,35.6 527.7,35.4 528.9,35.2 530.2,35.1 531.4,34.8 532.7,34.6 533.9,34.5 535.2,34.2 536.4,34.1 537.6,33.9 538.9,33.7 540.1,33.5 541.4,33.3 542.6,33.2 543.9,33.1 545.1,32.9 546.4,32.7 547.6,32.6 548.8,32.4 550.1,32.3 551.3,32.0 552.6,31.8 553.8,31.7 555.1,31.6 556.3,31.4 557.6,31.3 558.8,31.1 560.0,31.0 561.3,30.8 562.5,30.8 563.8,30.6 565.0,30.5 566.3,30.4 567.5,30.3 568.8,30.1 570.0,30.0 570.0,30.0,120" />
  
  <!-- Linea principale -->
  <polyline fill="none" stroke="#0366d6" stroke-width="2.5" stroke-linecap="round" stroke-linejoin="round" points="30.0,120.0 31.2,119.5 32.5,119.0 33.7,118.6 35.0,118.5 36.2,118.2 37.5,117.7 38.7,117.3 40.0,117.1 41.2,116.5 42.4,116.2 43.7,115.9 44.9,115.8 46.2,115.5 47.4,115.1 48.7,114.7 49.9,114.4 51.2,114.2 52.4,114.1 53.6,113.8 54.9,113.5 56.1,113.3 57.4,113.1 58.6,112.9 59.9,112.0 61.1,111.7 62.4,111.4 63.6,111.0 64.8,110.7 66.1,110.4 67.3,110.2 68.6,110.1 69.8,109.8 71.1,109.4 72.3,109.0 73.5,108.8 74.8,108.5 76.0,108.4 77.3,108.3 78.5,108.2 79.8,107.9 81.0,107.7 82.3,107.6 83.5,107.3 84.7,106.8 86.0,106.7 87.2,106.6 88.5,106.4 89.7,106.0 91.0,105.8 92.2,105.4 93.5,105.1 94.7,104.8 95.9,104.7 97.2,104.5 98.4,104.1 99.7,103.8 100.9,103.5 102.2,103.4 103.4,103.2 104.7,103.0 105.9,102.6 107.1,102.3 108.4,101.9 109.6,101.6 110.9,101.4 112.1,101.3 113.4,101.2 114.6,100.9 115.9,100.8 117.1,100.6 118.3,100.5 119.6,100.3 120.8,100.1 122.1,100.0 123.3,99.9 124.6,99.8 125.8,99.5 127.1,99.3 128.3,99.2 129.5,99.1 130.8,99.0 132.0,99.0 133.3,105.0 134.5,104.4 135.8,103.9 137.0,103.3 138.2,101.7 139.5,100.6 140.7,99.3 142.0,98.9 143.2,98.4 144.5,97.5 145.7,96.6 147.0,95.9 148.2,95.7 149.4,95.4 150.7,94.8 151.9,94.3 153.2,94.0 154.4,93.6 155.7,93.5 156.9,93.4 158.2,93.0 159.4,92.5 160.6,92.1 161.9,91.7 163.1,91.2 164.4,91.0 165.6,90.9 166.9,90.5 168.1,90.1 169.4,89.8 170.6,89.5 171.8,89.4 173.1,89.3 174.3,89.1 175.6,88.8 176.8,88.6 178.1,88.4 179.3,88.2 180.6,88.0 181.8,87.9 183.0,87.7 184.3,87.6 185.5,87.4 186.8,87.1 188.0,86.9 189.3,86.6 190.5,86.5 191.8,86.3 193.0,86.2 194.2,86.0 195.5,85.9 196.7,85.4 198.0,85.2 199.2,84.8 200.5,84.7 201.7,84.6 202.9,84.4 204.2,84.3 205.4,84.0 206.7,83.8 207.9,83.6 209.2,83.4 210.4,83.3 211.7,83.2 212.9,83.0 214.1,82.9 215.4,82.7 216.6,82.6 217.9,82.3 219.1,82.2 220.4,82.1 221.6,82.0 222.9,81.9 224.1,81.7 225.3,81.5 226.6,81.3 227.8,81.1 229.1,80.9 230.3,80.8 231.6,80.7 232.8,80.6 234.1,80.3 235.3,80.1 236.5,79.9 237.8,79.7 239.0,79.4 240.3,79.3 241.5,79.2 242.8,79.1 244.0,78.9 245.3,78.8 246.5,78.6 247.7,78.5 249.0,78.3 250.2,78.2 251.5,78.0 252.7,77.9 254.0,77.9 255.2,77.7 256.5,77.5 257.7,77.3 258.9,77.2 260.2,77.1 261.4,76.9 262.7,76.8 263.9,76.7 265.2,76.6 266.4,76.4 267.6,76.2 268.9,75.9 270.1,75.7 271.4,75.6 272.6,75.5 273.9,75.5 275.1,75.3 276.4,75.0 277.6,74.9 278.8,74.8 280.1,74.7 281.3,74.5 282.6,74.4 283.8,74.3 285.1,74.2 286.3,73.9 287.6,73.8 288.8,73.6 290.0,73.4 291.3,73.3 292.5,73.3 293.8,73.2 295.0,73.1 296.3,72.9 297.5,72.8 298.8,72.6 300.0,72.5 301.2,72.4 302.5,72.3 303.7,72.1 305.0,72.0 306.2,71.8 307.5,71.6 308.7,71.5 310.0,71.3 311.2,71.2 312.4,71.1 313.7,71.1 314.9,71.0 316.2,70.9 317.4,70.8 318.7,70.5 319.9,70.4 321.2,70.3 322.4,70.2 323.6,70.1 324.9,69.9 326.1,69.8 327.4,69.7 328.6,69.6 329.9,69.4 331.1,69.3 332.4,69.1 333.6,69.0 334.8,68.9 336.1,68.8 337.3,68.7 338.6,68.6 339.8,68.5 341.1,68.4 342.3,68.4 343.5,68.2 344.8,68.0 346.0,67.8 347.3,71.7 348.5,70.9 349.8,69.4 351.0,68.9 352.3,68.2 353.5,67.3 354.7,66.9 356.0,66.6 357.2,66.0 358.5,65.2 359.7,64.5 361.0,64.3 362.2,64.0 363.5,63.7 364.7,63.3 365.9,62.9 367.2,62.4 368.4,62.2 369.7,61.7 370.9,61.5 372.2,61.2 373.4,61.0 374.7,60.8 375.9,60.6 377.1,60.2 378.4,59.9 379.6,59.5 380.9,59.0 382.1,58.6 383.4,58.5 384.6,58.3 385.9,58.1 387.1,57.7 388.3,57.4 389.6,57.2 390.8,56.4 392.1,55.8 393.3,55.5 394.6,55.3 395.8,55.0 397.1,54.6 398.3,54.3 399.5,54.0 400.8,53.7 402.0,53.4 403.3,53.2 404.5,52.9 405.8,52.5 407.0,52.3 408.2,52.2 409.5,52.0 410.7,51.6 412.0,51.4 413.2,51.2 414.5,51.1 415.7,50.9 417.0,50.7 418.2,50.5 419.4,50.4 420.7,50.2 421.9,50.0 423.2,49.9 424.4,49.6 425.7,49.5 426.9,49.2 428.2,48.8 429.4,48.6 430.6,48.4 431.9,48.3 433.1,48.1 434.4,48.0 435.6,47.8 436.9,47.6 438.1,47.5 439.4,47.4 440.6,47.2 441.8,47.1 443.1,46.8 444.3,46.7 445.6,46.6 446.8,46.4 448.1,46.1 449.3,45.7 450.6,45.6 451.8,45.4 453.0,45.2 454.3,44.9 455.5,44.7 456.8,44.5 458.0,44.3 459.3,44.3 460.5,44.1 461.8,43.9 463.0,43.7 464.2,43.6 465.5,43.5 466.7,43.2 468.0,43.0 469.2,42.9 470.5,42.6 471.7,42.5 472.9,42.2 474.2,42.0 475.4,41.8 476.7,41.7 477.9,41.5 479.2,41.4 480.4,41.2 481.7,41.0 482.9,40.8 484.1,40.7 485.4,40.6 486.6,40.4 487.9,40.3 489.1,40.1 490.4,40.0 491.6,39.9 492.9,39.8 494.1,39.6 495.3,39.5 496.6,39.3 497.8,39.2 499.1,39.0 500.3,38.9 501.6,38.7 502.8,38.5 504.1,38.4 505.3,38.3 506.5,38.1 507.8,37.9 509.0,37.7 510.3,37.5 511.5,37.4 512.8,37.3 514.0,37.2 515.3,37.0 516.5,36.9 517.7,36.7 519.0,36.4 520.2,36.3 521.5,36.1 522.7,36.0 524.0,35.9 525.2,35.7 526.5,35.6 527.7,35.4 528.9,35.2 530.2,35.1 531.4,34.8 532.7,34.6 533.9,34.5 535.2,34.2 536.4,34.1 537.6,33.9 538.9,33.7 540.1,33.5 541.4,33.3 542.6,33.2 543.9,33.1 545.1,32.9 546.4,32.7 547.6,32.6 548.8,32.4 550.1,32.3 551.3,32.0 552.6,31.8 553.8,31.7 555.1,31.6 556.3,31.4 557.6,31.3 558.8,31.1 560.0,31.0 561.3,30.8 562.5,30.8 563.8,30.6 565.0,30.5 566.3,30.4 567.5,30.3 568.8,30.1 570.0,30.0" />
  
  <!-- Punto finale luminoso -->
  <circle cx="570.0" cy="30.0" r="4" fill="#ffffff" stroke="#0366d6" stroke-width="2.5" />
</svg>