<svg width="600" height="150" viewBox="0 0 600 150" xmlns="http://www.w3.org/2000/svg">
  <defs>
    <filter id="shadow2" x="-2%" y="-2%" width="104%" height="108%">
      <feDropShadow dx="0" dy="2" stdDeviation="3" flood-opacity="0.1" />
    </filter>
    <linearGradient id="fillGrad" x1="0" y1="0" x2="0" y2="1">
      <stop offset="0%" stop-color="#0366d6" stop-opacity="0.3"/>
      <stop offset="100%" stop-color="#0366d6" stop-opacity="0.02"/>
    </linearGradient>
  </defs>
  <rect width="600" height="150" rx="12" fill="#ffffff" filter="url(#shadow2)" stroke="#e1e4e8" stroke-width="1"/>
  <text x="20" y="24" fill="#2b3137" font-family="-apple-system,BlinkMacSystemFont,'Segoe UI',Helvetica,Arial,sans-serif" font-size="14" font-weight="600">📈 Download Growth (Actual: 81.0k)</text>
  
  <!-- Area sotto la linea -->
  <polygon fill="url(#fillGrad)" points="30.0,120.0,120 30.0,120.0 31.9,119.3 33.9,118.5 35.8,117.8 37.8,117.7 39.7,117.3 41.7,116.5 43.6,115.9 45.5,115.6 47.5,114.7 49.4,114.3 51.4,113.8 53.3,113.6 55.3,113.2 57.2,112.6 59.1,112.0 61.1,111.6 63.0,111.2 65.0,111.0 66.9,110.6 68.8,110.2 70.8,109.8 72.7,109.6 74.7,109.2 76.6,107.9 78.6,107.5 80.5,106.9 82.4,106.4 84.4,105.9 86.3,105.5 88.3,105.2 90.2,105.0 92.2,104.6 94.1,104.0 96.0,103.4 98.0,103.0 99.9,102.6 101.9,102.4 103.8,102.3 105.8,102.1 107.7,101.7 109.6,101.4 111.6,101.2 113.5,100.7 115.5,100.0 117.4,99.8 119.4,99.7 121.3,99.4 123.2,98.8 125.2,98.5 127.1,97.9 129.1,97.4 131.0,96.9 132.9,96.8 134.9,96.5 136.8,96.0 138.8,95.4 140.7,95.0 142.7,94.8 144.6,94.5 146.5,94.3 148.5,93.7 150.4,93.1 152.4,92.6 154.3,92.1 156.3,91.9 158.2,91.7 160.1,91.5 162.1,91.1 164.0,90.8 166.0,90.6 167.9,90.4 169.9,90.2 171.8,89.9 173.7,89.7 175.7,89.6 177.6,89.5 179.6,88.9 181.5,88.6 183.5,88.5 185.4,88.3 187.3,88.2 189.3,88.2 191.2,97.3 193.2,96.4 195.1,95.6 197.1,94.8 199.0,92.3 200.9,90.5 202.9,88.7 204.8,88.0 206.8,87.2 208.7,85.9 210.6,84.6 212.6,83.5 214.5,83.2 216.5,82.8 218.4,81.8 220.4,81.1 222.3,80.6 224.2,80.0 226.2,79.8 228.1,79.7 230.1,79.2 232.0,78.3 234.0,77.7 235.9,77.1 237.8,76.4 239.8,76.1 241.7,75.8 243.7,75.3 245.6,74.7 247.6,74.2 249.5,73.8 251.4,73.6 253.4,73.5 255.3,73.2 257.3,72.8 259.2,72.4 261.2,72.1 263.1,71.8 265.0,71.6 267.0,71.3 268.9,71.1 270.9,70.9 272.8,70.6 274.7,70.2 276.7,69.8 278.6,69.4 280.6,69.2 282.5,68.9 284.5,68.7 286.4,68.5 288.3,68.3 290.3,67.6 292.2,67.2 294.2,66.6 296.1,66.4 298.1,66.4 300.0,66.1 301.9,65.8 303.9,65.5 305.8,65.2 307.8,64.8 309.7,64.5 311.7,64.4 313.6,64.2 315.5,64.0 317.5,63.8 319.4,63.5 321.4,63.3 323.3,62.9 325.3,62.7 327.2,62.6 329.1,62.4 331.1,62.3 333.0,62.0 335.0,61.7 336.9,61.4 338.8,61.1 340.8,60.8 342.7,60.6 344.7,60.5 346.6,60.3 348.6,59.9 350.5,59.5 352.4,59.2 354.4,58.9 356.3,58.4 358.3,58.3 360.2,58.1 362.2,58.0 364.1,57.8 366.0,57.5 368.0,57.3 369.9,57.1 371.9,56.8 373.8,56.6 375.8,56.4 377.7,56.2 379.6,56.1 381.6,55.9 383.5,55.5 385.5,55.4 387.4,55.1 389.4,54.9 391.3,54.8 393.2,54.5 395.2,54.4 397.1,54.2 399.1,54.0 401.0,53.6 402.9,53.2 404.9,52.9 406.8,52.7 408.8,52.6 410.7,52.5 412.7,52.2 414.6,51.9 416.5,51.7 418.5,51.6 420.4,51.3 422.4,51.1 424.3,50.8 426.3,50.7 428.2,50.5 430.1,50.2 432.1,50.0 434.0,49.7 436.0,49.4 437.9,49.3 439.9,49.2 441.8,49.1 443.7,48.9 445.7,48.7 447.6,48.4 449.6,48.2 451.5,48.0 453.5,47.8 455.4,47.7 457.3,47.5 459.3,47.3 461.2,47.0 463.2,46.7 465.1,46.5 467.1,46.2 469.0,46.1 470.9,46.0 472.9,45.8 474.8,45.7 476.8,45.6 478.7,45.4 480.6,45.0 482.6,44.9 484.5,44.6 486.5,44.5 488.4,44.3 490.4,44.1 492.3,43.9 494.2,43.7 496.2,43.6 498.1,43.4 500.1,43.1 502.0,42.9 504.0,42.7 505.9,42.6 507.8,42.5 509.8,42.3 511.7,42.2 513.7,42.0 515.6,41.8 517.6,41.7 519.5,41.6 521.4,41.1 523.4,40.8 525.3,46.8 527.3,45.6 529.2,43.4 531.2,42.5 533.1,41.5 535.0,40.2 537.0,39.5 538.9,39.0 540.9,38.2 542.8,36.9 544.7,35.9 546.7,35.6 548.6,35.1 550.6,34.7 552.5,34.1 554.5,33.4 556.4,32.7 558.3,32.4 560.3,31.7 562.2,31.4 564.2,30.9 566.1,30.7 568.1,30.3 570.0,30.0 570.0,30.0,120" />
  
  <!-- Linea principale -->
  <polyline fill="none" stroke="#0366d6" stroke-width="2.5" stroke-linecap="round" stroke-linejoin="round" points="30.0,120.0 31.9,119.3 33.9,118.5 35.8,117.8 37.8,117.7 39.7,117.3 41.7,116.5 43.6,115.9 45.5,115.6 47.5,114.7 49.4,114.3 51.4,113.8 53.3,113.6 55.3,113.2 57.2,112.6 59.1,112.0 61.1,111.6 63.0,111.2 65.0,111.0 66.9,110.6 68.8,110.2 70.8,109.8 72.7,109.6 74.7,109.2 76.6,107.9 78.6,107.5 80.5,106.9 82.4,106.4 84.4,105.9 86.3,105.5 88.3,105.2 90.2,105.0 92.2,104.6 94.1,104.0 96.0,103.4 98.0,103.0 99.9,102.6 101.9,102.4 103.8,102.3 105.8,102.1 107.7,101.7 109.6,101.4 111.6,101.2 113.5,100.7 115.5,100.0 117.4,99.8 119.4,99.7 121.3,99.4 123.2,98.8 125.2,98.5 127.1,97.9 129.1,97.4 131.0,96.9 132.9,96.8 134.9,96.5 136.8,96.0 138.8,95.4 140.7,95.0 142.7,94.8 144.6,94.5 146.5,94.3 148.5,93.7 150.4,93.1 152.4,92.6 154.3,92.1 156.3,91.9 158.2,91.7 160.1,91.5 162.1,91.1 164.0,90.8 166.0,90.6 167.9,90.4 169.9,90.2 171.8,89.9 173.7,89.7 175.7,89.6 177.6,89.5 179.6,88.9 181.5,88.6 183.5,88.5 185.4,88.3 187.3,88.2 189.3,88.2 191.2,97.3 193.2,96.4 195.1,95.6 197.1,94.8 199.0,92.3 200.9,90.5 202.9,88.7 204.8,88.0 206.8,87.2 208.7,85.9 210.6,84.6 212.6,83.5 214.5,83.2 216.5,82.8 218.4,81.8 220.4,81.1 222.3,80.6 224.2,80.0 226.2,79.8 228.1,79.7 230.1,79.2 232.0,78.3 234.0,77.7 235.9,77.1 237.8,76.4 239.8,76.1 241.7,75.8 243.7,75.3 245.6,74.7 247.6,74.2 249.5,73.8 251.4,73.6 253.4,73.5 255.3,73.2 257.3,72.8 259.2,72.4 261.2,72.1 263.1,71.8 265.0,71.6 267.0,71.3 268.9,71.1 270.9,70.9 272.8,70.6 274.7,70.2 276.7,69.8 278.6,69.4 280.6,69.2 282.5,68.9 284.5,68.7 286.4,68.5 288.3,68.3 290.3,67.6 292.2,67.2 294.2,66.6 296.1,66.4 298.1,66.4 300.0,66.1 301.9,65.8 303.9,65.5 305.8,65.2 307.8,64.8 309.7,64.5 311.7,64.4 313.6,64.2 315.5,64.0 317.5,63.8 319.4,63.5 321.4,63.3 323.3,62.9 325.3,62.7 327.2,62.6 329.1,62.4 331.1,62.3 333.0,62.0 335.0,61.7 336.9,61.4 338.8,61.1 340.8,60.8 342.7,60.6 344.7,60.5 346.6,60.3 348.6,59.9 350.5,59.5 352.4,59.2 354.4,58.9 356.3,58.4 358.3,58.3 360.2,58.1 362.2,58.0 364.1,57.8 366.0,57.5 368.0,57.3 369.9,57.1 371.9,56.8 373.8,56.6 375.8,56.4 377.7,56.2 379.6,56.1 381.6,55.9 383.5,55.5 385.5,55.4 387.4,55.1 389.4,54.9 391.3,54.8 393.2,54.5 395.2,54.4 397.1,54.2 399.1,54.0 401.0,53.6 402.9,53.2 404.9,52.9 406.8,52.7 408.8,52.6 410.7,52.5 412.7,52.2 414.6,51.9 416.5,51.7 418.5,51.6 420.4,51.3 422.4,51.1 424.3,50.8 426.3,50.7 428.2,50.5 430.1,50.2 432.1,50.0 434.0,49.7 436.0,49.4 437.9,49.3 439.9,49.2 441.8,49.1 443.7,48.9 445.7,48.7 447.6,48.4 449.6,48.2 451.5,48.0 453.5,47.8 455.4,47.7 457.3,47.5 459.3,47.3 461.2,47.0 463.2,46.7 465.1,46.5 467.1,46.2 469.0,46.1 470.9,46.0 472.9,45.8 474.8,45.7 476.8,45.6 478.7,45.4 480.6,45.0 482.6,44.9 484.5,44.6 486.5,44.5 488.4,44.3 490.4,44.1 492.3,43.9 494.2,43.7 496.2,43.6 498.1,43.4 500.1,43.1 502.0,42.9 504.0,42.7 505.9,42.6 507.8,42.5 509.8,42.3 511.7,42.2 513.7,42.0 515.6,41.8 517.6,41.7 519.5,41.6 521.4,41.1 523.4,40.8 525.3,46.8 527.3,45.6 529.2,43.4 531.2,42.5 533.1,41.5 535.0,40.2 537.0,39.5 538.9,39.0 540.9,38.2 542.8,36.9 544.7,35.9 546.7,35.6 548.6,35.1 550.6,34.7 552.5,34.1 554.5,33.4 556.4,32.7 558.3,32.4 560.3,31.7 562.2,31.4 564.2,30.9 566.1,30.7 568.1,30.3 570.0,30.0" />
  
  <!-- Punto finale luminoso -->
  <circle cx="570.0" cy="30.0" r="4" fill="#ffffff" stroke="#0366d6" stroke-width="2.5" />
</svg>