<svg width="600" height="150" viewBox="0 0 600 150" xmlns="http://www.w3.org/2000/svg">
  <defs>
    <filter id="shadow2" x="-2%" y="-2%" width="104%" height="108%">
      <feDropShadow dx="0" dy="2" stdDeviation="3" flood-opacity="0.1" />
    </filter>
    <linearGradient id="fillGrad" x1="0" y1="0" x2="0" y2="1">
      <stop offset="0%" stop-color="#0366d6" stop-opacity="0.3"/>
      <stop offset="100%" stop-color="#0366d6" stop-opacity="0.02"/>
    </linearGradient>
  </defs>
  <rect width="600" height="150" rx="12" fill="#ffffff" filter="url(#shadow2)" stroke="#e1e4e8" stroke-width="1"/>
  <text x="20" y="24" fill="#2b3137" font-family="-apple-system,BlinkMacSystemFont,'Segoe UI',Helvetica,Arial,sans-serif" font-size="14" font-weight="600">📈 Download Growth (Actual: 86.9k)</text>
  
  <!-- Area sotto la linea -->
  <polygon fill="url(#fillGrad)" points="30.0,120.0,120 30.0,120.0 31.4,119.5 32.7,118.9 34.1,118.5 35.4,118.3 36.8,118.1 38.2,117.5 39.5,117.1 40.9,116.9 42.2,116.3 43.6,116.0 45.0,115.7 46.3,115.5 47.7,115.2 49.0,114.8 50.4,114.4 51.8,114.0 53.1,113.8 54.5,113.7 55.8,113.4 57.2,113.1 58.6,112.8 59.9,112.6 61.3,112.4 62.6,111.4 64.0,111.1 65.4,110.8 66.7,110.4 68.1,110.1 69.4,109.8 70.8,109.6 72.2,109.4 73.5,109.1 74.9,108.7 76.2,108.3 77.6,108.0 79.0,107.7 80.3,107.6 81.7,107.5 83.0,107.3 84.4,107.0 85.8,106.9 87.1,106.7 88.5,106.4 89.8,105.9 91.2,105.8 92.6,105.7 93.9,105.5 95.3,105.1 96.6,104.8 98.0,104.4 99.4,104.1 100.7,103.7 102.1,103.6 103.5,103.4 104.8,103.0 106.2,102.6 107.5,102.3 108.9,102.2 110.3,102.0 111.6,101.8 113.0,101.4 114.3,101.0 115.7,100.7 117.1,100.3 118.4,100.1 119.8,100.0 121.1,99.9 122.5,99.6 123.9,99.4 125.2,99.2 126.6,99.1 127.9,99.0 129.3,98.7 130.7,98.6 132.0,98.5 133.4,98.4 134.7,98.0 136.1,97.8 137.5,97.7 138.8,97.6 140.2,97.5 141.5,97.5 142.9,104.0 144.3,103.3 145.6,102.8 147.0,102.2 148.3,100.4 149.7,99.2 151.1,97.9 152.4,97.4 153.8,96.8 155.1,95.9 156.5,95.0 157.9,94.2 159.2,94.0 160.6,93.7 161.9,93.0 163.3,92.5 164.7,92.2 166.0,91.8 167.4,91.6 168.7,91.5 170.1,91.1 171.5,90.5 172.8,90.1 174.2,89.7 175.5,89.2 176.9,89.0 178.3,88.8 179.6,88.4 181.0,88.0 182.3,87.7 183.7,87.4 185.1,87.2 186.4,87.2 187.8,86.9 189.1,86.6 190.5,86.4 191.9,86.2 193.2,86.0 194.6,85.8 195.9,85.6 197.3,85.4 198.7,85.3 200.0,85.1 201.4,84.8 202.7,84.5 204.1,84.3 205.5,84.1 206.8,83.9 208.2,83.8 209.5,83.6 210.9,83.5 212.3,83.0 213.6,82.7 215.0,82.3 216.3,82.2 217.7,82.1 219.1,81.9 220.4,81.7 221.8,81.5 223.1,81.3 224.5,81.0 225.9,80.8 227.2,80.7 228.6,80.6 229.9,80.4 231.3,80.3 232.7,80.1 234.0,80.0 235.4,79.7 236.8,79.5 238.1,79.5 239.5,79.3 240.8,79.2 242.2,79.0 243.6,78.8 244.9,78.6 246.3,78.4 247.6,78.2 249.0,78.0 250.4,77.9 251.7,77.8 253.1,77.5 254.4,77.2 255.8,77.0 257.2,76.8 258.5,76.5 259.9,76.4 261.2,76.3 262.6,76.2 264.0,76.0 265.3,75.9 266.7,75.7 268.0,75.5 269.4,75.4 270.8,75.2 272.1,75.1 273.5,75.0 274.8,74.9 276.2,74.7 277.6,74.4 278.9,74.3 280.3,74.1 281.6,74.0 283.0,73.9 284.4,73.8 285.7,73.6 287.1,73.5 288.4,73.4 289.8,73.1 291.2,72.8 292.5,72.6 293.9,72.4 295.2,72.4 296.6,72.3 298.0,72.1 299.3,71.9 300.7,71.7 302.0,71.7 303.4,71.5 304.8,71.3 306.1,71.1 307.5,71.0 308.8,70.9 310.2,70.7 311.6,70.5 312.9,70.3 314.3,70.1 315.6,70.0 317.0,70.0 318.4,69.9 319.7,69.7 321.1,69.6 322.4,69.4 323.8,69.3 325.2,69.1 326.5,69.0 327.9,68.9 329.2,68.8 330.6,68.6 332.0,68.4 333.3,68.2 334.7,68.1 336.0,67.9 337.4,67.8 338.8,67.7 340.1,67.6 341.5,67.5 342.8,67.4 344.2,67.3 345.6,67.0 346.9,66.9 348.3,66.8 349.6,66.7 351.0,66.5 352.4,66.4 353.7,66.2 355.1,66.1 356.4,66.0 357.8,65.9 359.2,65.7 360.5,65.5 361.9,65.4 363.2,65.3 364.6,65.2 366.0,65.1 367.3,65.0 368.7,64.9 370.1,64.8 371.4,64.7 372.8,64.6 374.1,64.3 375.5,64.1 376.9,68.3 378.2,67.5 379.6,65.9 380.9,65.3 382.3,64.5 383.7,63.6 385.0,63.1 386.4,62.8 387.7,62.2 389.1,61.3 390.5,60.6 391.8,60.4 393.2,60.0 394.5,59.8 395.9,59.3 397.3,58.9 398.6,58.3 400.0,58.1 401.3,57.6 402.7,57.4 404.1,57.1 405.4,56.9 406.8,56.6 408.1,56.4 409.5,55.9 410.9,55.6 412.2,55.2 413.6,54.6 414.9,54.3 416.3,54.1 417.7,53.9 419.0,53.7 420.4,53.4 421.7,53.0 423.1,52.7 424.5,51.9 425.8,51.2 427.2,50.9 428.5,50.7 429.9,50.4 431.3,50.0 432.6,49.6 434.0,49.3 435.3,49.0 436.7,48.7 438.1,48.4 439.4,48.2 440.8,47.8 442.1,47.5 443.5,47.4 444.9,47.2 446.2,46.8 447.6,46.6 448.9,46.3 450.3,46.2 451.7,46.1 453.0,45.8 454.4,45.6 455.7,45.4 457.1,45.3 458.5,45.1 459.8,44.9 461.2,44.7 462.5,44.5 463.9,44.2 465.3,43.8 466.6,43.5 468.0,43.4 469.3,43.2 470.7,43.0 472.1,42.9 473.4,42.7 474.8,42.5 476.1,42.4 477.5,42.3 478.9,42.1 480.2,42.0 481.6,41.7 482.9,41.5 484.3,41.4 485.7,41.2 487.0,40.8 488.4,40.5 489.7,40.3 491.1,40.1 492.5,39.9 493.8,39.6 495.2,39.4 496.5,39.2 497.9,39.0 499.3,38.9 500.6,38.8 502.0,38.6 503.4,38.3 504.7,38.2 506.1,38.1 507.4,37.8 508.8,37.6 510.2,37.4 511.5,37.1 512.9,37.0 514.2,36.7 515.6,36.4 517.0,36.3 518.3,36.2 519.7,36.0 521.0,35.8 522.4,35.6 523.8,35.5 525.1,35.2 526.5,35.1 527.8,35.0 529.2,34.8 530.6,34.6 531.9,34.5 533.3,34.3 534.6,34.2 536.0,34.1 537.4,33.9 538.7,33.8 540.1,33.6 541.4,33.5 542.8,33.3 544.2,33.2 545.5,33.0 546.9,32.8 548.2,32.7 549.6,32.5 551.0,32.4 552.3,32.1 553.7,31.9 555.0,31.6 556.4,31.5 557.8,31.5 559.1,31.4 560.5,31.2 561.8,31.1 563.2,30.8 564.6,30.5 565.9,30.4 567.3,30.2 568.6,30.1 570.0,30.0 570.0,30.0,120" />
  
  <!-- Linea principale -->
  <polyline fill="none" stroke="#0366d6" stroke-width="2.5" stroke-linecap="round" stroke-linejoin="round" points="30.0,120.0 31.4,119.5 32.7,118.9 34.1,118.5 35.4,118.3 36.8,118.1 38.2,117.5 39.5,117.1 40.9,116.9 42.2,116.3 43.6,116.0 45.0,115.7 46.3,115.5 47.7,115.2 49.0,114.8 50.4,114.4 51.8,114.0 53.1,113.8 54.5,113.7 55.8,113.4 57.2,113.1 58.6,112.8 59.9,112.6 61.3,112.4 62.6,111.4 64.0,111.1 65.4,110.8 66.7,110.4 68.1,110.1 69.4,109.8 70.8,109.6 72.2,109.4 73.5,109.1 74.9,108.7 76.2,108.3 77.6,108.0 79.0,107.7 80.3,107.6 81.7,107.5 83.0,107.3 84.4,107.0 85.8,106.9 87.1,106.7 88.5,106.4 89.8,105.9 91.2,105.8 92.6,105.7 93.9,105.5 95.3,105.1 96.6,104.8 98.0,104.4 99.4,104.1 100.7,103.7 102.1,103.6 103.5,103.4 104.8,103.0 106.2,102.6 107.5,102.3 108.9,102.2 110.3,102.0 111.6,101.8 113.0,101.4 114.3,101.0 115.7,100.7 117.1,100.3 118.4,100.1 119.8,100.0 121.1,99.9 122.5,99.6 123.9,99.4 125.2,99.2 126.6,99.1 127.9,99.0 129.3,98.7 130.7,98.6 132.0,98.5 133.4,98.4 134.7,98.0 136.1,97.8 137.5,97.7 138.8,97.6 140.2,97.5 141.5,97.5 142.9,104.0 144.3,103.3 145.6,102.8 147.0,102.2 148.3,100.4 149.7,99.2 151.1,97.9 152.4,97.4 153.8,96.8 155.1,95.9 156.5,95.0 157.9,94.2 159.2,94.0 160.6,93.7 161.9,93.0 163.3,92.5 164.7,92.2 166.0,91.8 167.4,91.6 168.7,91.5 170.1,91.1 171.5,90.5 172.8,90.1 174.2,89.7 175.5,89.2 176.9,89.0 178.3,88.8 179.6,88.4 181.0,88.0 182.3,87.7 183.7,87.4 185.1,87.2 186.4,87.2 187.8,86.9 189.1,86.6 190.5,86.4 191.9,86.2 193.2,86.0 194.6,85.8 195.9,85.6 197.3,85.4 198.7,85.3 200.0,85.1 201.4,84.8 202.7,84.5 204.1,84.3 205.5,84.1 206.8,83.9 208.2,83.8 209.5,83.6 210.9,83.5 212.3,83.0 213.6,82.7 215.0,82.3 216.3,82.2 217.7,82.1 219.1,81.9 220.4,81.7 221.8,81.5 223.1,81.3 224.5,81.0 225.9,80.8 227.2,80.7 228.6,80.6 229.9,80.4 231.3,80.3 232.7,80.1 234.0,80.0 235.4,79.7 236.8,79.5 238.1,79.5 239.5,79.3 240.8,79.2 242.2,79.0 243.6,78.8 244.9,78.6 246.3,78.4 247.6,78.2 249.0,78.0 250.4,77.9 251.7,77.8 253.1,77.5 254.4,77.2 255.8,77.0 257.2,76.8 258.5,76.5 259.9,76.4 261.2,76.3 262.6,76.2 264.0,76.0 265.3,75.9 266.7,75.7 268.0,75.5 269.4,75.4 270.8,75.2 272.1,75.1 273.5,75.0 274.8,74.9 276.2,74.7 277.6,74.4 278.9,74.3 280.3,74.1 281.6,74.0 283.0,73.9 284.4,73.8 285.7,73.6 287.1,73.5 288.4,73.4 289.8,73.1 291.2,72.8 292.5,72.6 293.9,72.4 295.2,72.4 296.6,72.3 298.0,72.1 299.3,71.9 300.7,71.7 302.0,71.7 303.4,71.5 304.8,71.3 306.1,71.1 307.5,71.0 308.8,70.9 310.2,70.7 311.6,70.5 312.9,70.3 314.3,70.1 315.6,70.0 317.0,70.0 318.4,69.9 319.7,69.7 321.1,69.6 322.4,69.4 323.8,69.3 325.2,69.1 326.5,69.0 327.9,68.9 329.2,68.8 330.6,68.6 332.0,68.4 333.3,68.2 334.7,68.1 336.0,67.9 337.4,67.8 338.8,67.7 340.1,67.6 341.5,67.5 342.8,67.4 344.2,67.3 345.6,67.0 346.9,66.9 348.3,66.8 349.6,66.7 351.0,66.5 352.4,66.4 353.7,66.2 355.1,66.1 356.4,66.0 357.8,65.9 359.2,65.7 360.5,65.5 361.9,65.4 363.2,65.3 364.6,65.2 366.0,65.1 367.3,65.0 368.7,64.9 370.1,64.8 371.4,64.7 372.8,64.6 374.1,64.3 375.5,64.1 376.9,68.3 378.2,67.5 379.6,65.9 380.9,65.3 382.3,64.5 383.7,63.6 385.0,63.1 386.4,62.8 387.7,62.2 389.1,61.3 390.5,60.6 391.8,60.4 393.2,60.0 394.5,59.8 395.9,59.3 397.3,58.9 398.6,58.3 400.0,58.1 401.3,57.6 402.7,57.4 404.1,57.1 405.4,56.9 406.8,56.6 408.1,56.4 409.5,55.9 410.9,55.6 412.2,55.2 413.6,54.6 414.9,54.3 416.3,54.1 417.7,53.9 419.0,53.7 420.4,53.4 421.7,53.0 423.1,52.7 424.5,51.9 425.8,51.2 427.2,50.9 428.5,50.7 429.9,50.4 431.3,50.0 432.6,49.6 434.0,49.3 435.3,49.0 436.7,48.7 438.1,48.4 439.4,48.2 440.8,47.8 442.1,47.5 443.5,47.4 444.9,47.2 446.2,46.8 447.6,46.6 448.9,46.3 450.3,46.2 451.7,46.1 453.0,45.8 454.4,45.6 455.7,45.4 457.1,45.3 458.5,45.1 459.8,44.9 461.2,44.7 462.5,44.5 463.9,44.2 465.3,43.8 466.6,43.5 468.0,43.4 469.3,43.2 470.7,43.0 472.1,42.9 473.4,42.7 474.8,42.5 476.1,42.4 477.5,42.3 478.9,42.1 480.2,42.0 481.6,41.7 482.9,41.5 484.3,41.4 485.7,41.2 487.0,40.8 488.4,40.5 489.7,40.3 491.1,40.1 492.5,39.9 493.8,39.6 495.2,39.4 496.5,39.2 497.9,39.0 499.3,38.9 500.6,38.8 502.0,38.6 503.4,38.3 504.7,38.2 506.1,38.1 507.4,37.8 508.8,37.6 510.2,37.4 511.5,37.1 512.9,37.0 514.2,36.7 515.6,36.4 517.0,36.3 518.3,36.2 519.7,36.0 521.0,35.8 522.4,35.6 523.8,35.5 525.1,35.2 526.5,35.1 527.8,35.0 529.2,34.8 530.6,34.6 531.9,34.5 533.3,34.3 534.6,34.2 536.0,34.1 537.4,33.9 538.7,33.8 540.1,33.6 541.4,33.5 542.8,33.3 544.2,33.2 545.5,33.0 546.9,32.8 548.2,32.7 549.6,32.5 551.0,32.4 552.3,32.1 553.7,31.9 555.0,31.6 556.4,31.5 557.8,31.5 559.1,31.4 560.5,31.2 561.8,31.1 563.2,30.8 564.6,30.5 565.9,30.4 567.3,30.2 568.6,30.1 570.0,30.0" />
  
  <!-- Punto finale luminoso -->
  <circle cx="570.0" cy="30.0" r="4" fill="#ffffff" stroke="#0366d6" stroke-width="2.5" />
</svg>