<svg width="600" height="150" viewBox="0 0 600 150" xmlns="http://www.w3.org/2000/svg">
  <defs>
    <filter id="shadow2" x="-2%" y="-2%" width="104%" height="108%">
      <feDropShadow dx="0" dy="2" stdDeviation="3" flood-opacity="0.1" />
    </filter>
    <linearGradient id="fillGrad" x1="0" y1="0" x2="0" y2="1">
      <stop offset="0%" stop-color="#0366d6" stop-opacity="0.3"/>
      <stop offset="100%" stop-color="#0366d6" stop-opacity="0.02"/>
    </linearGradient>
  </defs>
  <rect width="600" height="150" rx="12" fill="#ffffff" filter="url(#shadow2)" stroke="#e1e4e8" stroke-width="1"/>
  <text x="20" y="24" fill="#2b3137" font-family="-apple-system,BlinkMacSystemFont,'Segoe UI',Helvetica,Arial,sans-serif" font-size="14" font-weight="600">📈 Download Growth (Actual: 106.1k)</text>
  
  <!-- Area sotto la linea -->
  <polygon fill="url(#fillGrad)" points="30.0,63.3,120 30.0,63.3 30.7,63.2 31.3,63.1 32.0,63.0 32.7,63.0 33.4,62.9 34.0,62.8 34.7,62.7 35.4,62.7 36.1,62.6 36.7,62.5 37.4,62.5 38.1,62.4 38.8,62.4 39.4,62.3 40.1,62.2 40.8,62.1 41.5,62.1 42.1,62.1 42.8,62.0 43.5,62.0 44.2,61.9 44.8,61.9 45.5,61.8 46.2,61.7 46.9,61.6 47.5,61.5 48.2,61.5 48.9,61.4 49.6,61.3 50.2,61.3 50.9,61.3 51.6,61.2 52.2,61.1 52.9,61.1 53.6,61.0 54.3,60.9 54.9,60.9 55.6,60.9 56.3,60.9 57.0,60.8 57.6,60.8 58.3,60.8 59.0,60.7 59.7,60.6 60.3,60.6 61.0,60.6 61.7,60.5 62.4,60.4 63.0,60.4 63.7,60.3 64.4,60.3 65.1,60.2 65.7,60.2 66.4,60.1 67.1,60.1 67.8,60.0 68.4,59.9 69.1,59.9 69.8,59.9 70.4,59.8 71.1,59.8 71.8,59.7 72.5,59.6 73.1,59.6 73.8,59.5 74.5,59.5 75.2,59.5 75.8,59.4 76.5,59.4 77.2,59.4 77.9,59.3 78.5,59.3 79.2,59.3 79.9,59.2 80.6,59.2 81.2,59.2 81.9,59.1 82.6,59.1 83.3,59.1 83.9,59.0 84.6,59.0 85.3,59.0 86.0,60.2 86.6,60.1 87.3,60.0 88.0,59.9 88.7,59.6 89.3,59.3 90.0,59.1 90.7,59.0 91.3,58.9 92.0,58.7 92.7,58.5 93.4,58.4 94.0,58.4 94.7,58.3 95.4,58.2 96.1,58.1 96.7,58.0 97.4,57.9 98.1,57.9 98.8,57.9 99.4,57.8 100.1,57.7 100.8,57.6 101.5,57.6 102.1,57.5 102.8,57.4 103.5,57.4 104.2,57.3 104.8,57.2 105.5,57.2 106.2,57.1 106.9,57.1 107.5,57.1 108.2,57.0 108.9,57.0 109.6,56.9 110.2,56.9 110.9,56.8 111.6,56.8 112.2,56.8 112.9,56.7 113.6,56.7 114.3,56.7 114.9,56.6 115.6,56.6 116.3,56.5 117.0,56.5 117.6,56.5 118.3,56.4 119.0,56.4 119.7,56.4 120.3,56.3 121.0,56.2 121.7,56.2 122.4,56.1 123.0,56.1 123.7,56.1 124.4,56.0 125.1,56.0 125.7,56.0 126.4,55.9 127.1,55.9 127.8,55.9 128.4,55.8 129.1,55.8 129.8,55.8 130.4,55.7 131.1,55.7 131.8,55.7 132.5,55.6 133.1,55.6 133.8,55.6 134.5,55.6 135.2,55.5 135.8,55.5 136.5,55.5 137.2,55.4 137.9,55.4 138.5,55.4 139.2,55.3 139.9,55.3 140.6,55.3 141.2,55.2 141.9,55.2 142.6,55.1 143.3,55.1 143.9,55.0 144.6,55.0 145.3,55.0 146.0,55.0 146.6,54.9 147.3,54.9 148.0,54.9 148.7,54.8 149.3,54.8 150.0,54.8 150.7,54.8 151.3,54.8 152.0,54.7 152.7,54.7 153.4,54.7 154.0,54.6 154.7,54.6 155.4,54.6 156.1,54.5 156.7,54.5 157.4,54.5 158.1,54.5 158.8,54.4 159.4,54.4 160.1,54.3 160.8,54.3 161.5,54.3 162.1,54.3 162.8,54.2 163.5,54.2 164.2,54.2 164.8,54.1 165.5,54.1 166.2,54.1 166.9,54.0 167.5,54.0 168.2,54.0 168.9,54.0 169.6,53.9 170.2,53.9 170.9,53.9 171.6,53.8 172.2,53.8 172.9,53.8 173.6,53.8 174.3,53.8 174.9,53.7 175.6,53.7 176.3,53.7 177.0,53.6 177.6,53.6 178.3,53.6 179.0,53.6 179.7,53.5 180.3,53.5 181.0,53.5 181.7,53.4 182.4,53.4 183.0,53.4 183.7,53.4 184.4,53.4 185.1,53.3 185.7,53.3 186.4,53.3 187.1,53.3 187.8,53.2 188.4,53.2 189.1,53.2 189.8,53.2 190.4,53.1 191.1,53.1 191.8,53.1 192.5,53.1 193.1,53.0 193.8,53.0 194.5,53.0 195.2,53.0 195.8,52.9 196.5,52.9 197.2,52.9 197.9,52.9 198.5,52.8 199.2,52.8 199.9,52.8 200.6,52.8 201.2,52.7 201.9,53.5 202.6,53.4 203.3,53.1 203.9,52.9 204.6,52.8 205.3,52.6 206.0,52.5 206.6,52.5 207.3,52.4 208.0,52.2 208.7,52.1 209.3,52.0 210.0,52.0 210.7,51.9 211.3,51.8 212.0,51.7 212.7,51.6 213.4,51.6 214.0,51.5 214.7,51.5 215.4,51.4 216.1,51.4 216.7,51.3 217.4,51.3 218.1,51.2 218.8,51.1 219.4,51.0 220.1,50.9 220.8,50.9 221.5,50.8 222.1,50.8 222.8,50.8 223.5,50.7 224.2,50.6 224.8,50.6 225.5,50.4 226.2,50.3 226.9,50.2 227.5,50.2 228.2,50.1 228.9,50.1 229.6,50.0 230.2,49.9 230.9,49.9 231.6,49.8 232.2,49.8 232.9,49.7 233.6,49.6 234.3,49.6 234.9,49.6 235.6,49.5 236.3,49.5 237.0,49.4 237.6,49.4 238.3,49.3 239.0,49.3 239.7,49.3 240.3,49.2 241.0,49.2 241.7,49.2 242.4,49.1 243.0,49.1 243.7,49.1 244.4,49.0 245.1,49.0 245.7,48.9 246.4,48.8 247.1,48.8 247.8,48.8 248.4,48.7 249.1,48.7 249.8,48.7 250.4,48.7 251.1,48.6 251.8,48.6 252.5,48.6 253.1,48.5 253.8,48.5 254.5,48.5 255.2,48.4 255.8,48.4 256.5,48.3 257.2,48.3 257.9,48.2 258.5,48.2 259.2,48.2 259.9,48.1 260.6,48.1 261.2,48.0 261.9,48.0 262.6,48.0 263.3,47.9 263.9,47.9 264.6,47.9 265.3,47.8 266.0,47.8 266.6,47.8 267.3,47.7 268.0,47.7 268.7,47.6 269.3,47.6 270.0,47.5 270.7,47.5 271.3,47.5 272.0,47.5 272.7,47.4 273.4,47.4 274.0,47.4 274.7,47.3 275.4,47.3 276.1,47.3 276.7,47.2 277.4,47.2 278.1,47.2 278.8,47.1 279.4,47.1 280.1,47.1 280.8,47.1 281.5,47.0 282.1,47.0 282.8,47.0 283.5,46.9 284.2,46.9 284.8,46.9 285.5,46.8 286.2,46.8 286.9,46.8 287.5,46.8 288.2,46.7 288.9,46.7 289.6,46.7 290.2,46.6 290.9,46.6 291.6,46.6 292.2,46.5 292.9,46.5 293.6,46.5 294.3,46.4 294.9,46.4 295.6,46.4 296.3,46.3 297.0,46.3 297.6,46.3 298.3,46.2 299.0,46.2 299.7,46.2 300.3,46.1 301.0,46.1 301.7,46.1 302.4,46.0 303.0,46.0 303.7,45.9 304.4,45.9 305.1,45.9 305.7,45.8 306.4,45.8 307.1,45.8 307.8,45.7 308.4,45.7 309.1,45.7 309.8,45.6 310.4,45.6 311.1,45.6 311.8,45.5 312.5,45.5 313.1,45.5 313.8,45.4 314.5,45.4 315.2,45.4 315.8,45.3 316.5,45.3 317.2,45.3 317.9,45.3 318.5,45.2 319.2,45.2 319.9,45.2 320.6,45.2 321.2,45.2 321.9,45.1 322.6,45.1 323.3,45.1 323.9,45.0 324.6,45.0 325.3,45.0 326.0,45.0 326.6,44.9 327.3,44.9 328.0,44.9 328.7,44.9 329.3,47.5 330.0,47.2 330.7,47.0 331.3,46.8 332.0,46.7 332.7,46.6 333.4,46.4 334.0,46.3 334.7,46.1 335.4,46.0 336.1,45.9 336.7,45.8 337.4,45.7 338.1,45.6 338.8,45.5 339.4,45.5 340.1,45.4 340.8,45.3 341.5,45.2 342.1,45.1 342.8,45.0 343.5,44.9 344.2,44.9 344.8,44.9 345.5,44.8 346.2,44.7 346.9,44.7 347.5,44.7 348.2,44.7 348.9,44.7 349.6,44.7 350.2,44.7 350.9,44.6 351.6,44.6 352.2,44.5 352.9,44.5 353.6,44.4 354.3,44.4 354.9,44.3 355.6,44.3 356.3,44.3 357.0,44.2 357.6,44.2 358.3,44.1 359.0,44.1 359.7,44.1 360.3,44.0 361.0,43.9 361.7,43.9 362.4,43.9 363.0,43.8 363.7,43.8 364.4,43.8 365.1,43.7 365.7,43.7 366.4,43.6 367.1,43.6 367.8,43.6 368.4,43.5 369.1,43.5 369.8,43.5 370.4,43.4 371.1,43.4 371.8,43.4 372.5,43.3 373.1,43.3 373.8,43.2 374.5,43.2 375.2,43.2 375.8,43.2 376.5,43.1 377.2,43.1 377.9,43.0 378.5,43.0 379.2,43.0 379.9,42.9 380.6,42.9 381.2,42.9 381.9,42.9 382.6,42.8 383.3,42.8 383.9,42.8 384.6,42.7 385.3,42.7 386.0,42.7 386.6,42.6 387.3,42.6 388.0,42.6 388.7,42.6 389.3,42.5 390.0,42.5 390.7,42.5 391.3,42.5 392.0,42.4 392.7,42.4 393.4,42.4 394.0,42.3 394.7,42.3 395.4,42.3 396.1,42.2 396.7,42.2 397.4,42.2 398.1,42.2 398.8,42.1 399.4,42.1 400.1,42.0 400.8,42.0 401.5,42.0 402.1,42.0 402.8,41.9 403.5,41.9 404.2,41.9 404.8,41.9 405.5,41.8 406.2,41.8 406.9,41.7 407.5,41.7 408.2,41.6 408.9,41.5 409.6,41.5 410.2,41.5 410.9,41.5 411.6,41.5 412.2,41.5 412.9,41.4 413.6,41.4 414.3,41.4 414.9,41.3 415.6,41.3 416.3,41.3 417.0,41.3 417.6,41.3 418.3,41.3 419.0,41.3 419.7,41.2 420.3,41.2 421.0,41.2 421.7,41.2 422.4,41.2 423.0,41.1 423.7,41.1 424.4,41.1 425.1,41.1 425.7,41.0 426.4,41.0 427.1,41.0 427.8,41.0 428.4,41.0 429.1,41.0 429.8,40.9 430.4,40.9 431.1,40.9 431.8,40.9 432.5,40.9 433.1,40.8 433.8,40.8 434.5,40.8 435.2,40.8 435.8,40.8 436.5,40.8 437.2,40.8 437.9,40.7 438.5,40.7 439.2,40.7 439.9,40.7 440.6,40.7 441.2,40.6 441.9,40.6 442.6,40.6 443.3,40.6 443.9,40.6 444.6,40.6 445.3,40.6 446.0,40.5 446.6,40.5 447.3,40.5 448.0,41.3 448.7,41.1 449.3,40.9 450.0,40.8 450.7,40.7 451.3,40.5 452.0,40.4 452.7,40.3 453.4,40.2 454.0,40.0 454.7,40.0 455.4,39.9 456.1,39.8 456.7,39.8 457.4,39.7 458.1,39.7 458.8,39.6 459.4,39.6 460.1,39.5 460.8,39.5 461.5,39.4 462.1,39.3 462.8,39.3 463.5,39.2 464.2,39.2 464.8,39.1 465.5,39.1 466.2,39.1 466.9,39.0 467.5,39.0 468.2,38.9 468.9,38.9 469.6,38.9 470.2,38.8 470.9,38.7 471.6,38.7 472.2,38.7 472.9,38.6 473.6,38.6 474.3,38.6 474.9,38.5 475.6,38.5 476.3,38.4 477.0,38.4 477.6,38.4 478.3,38.3 479.0,38.3 479.7,38.2 480.3,38.2 481.0,38.1 481.7,38.1 482.4,38.1 483.0,38.1 483.7,38.0 484.4,38.0 485.1,38.0 485.7,37.9 486.4,37.9 487.1,37.9 487.8,37.8 488.4,37.8 489.1,37.8 489.8,37.7 490.4,37.7 491.1,37.7 491.8,37.7 492.5,37.6 493.1,37.6 493.8,120.0 494.5,37.5 495.2,37.5 495.8,37.4 496.5,37.4 497.2,37.4 497.9,37.4 498.5,37.3 499.2,37.3 499.9,37.3 500.6,37.2 501.2,37.2 501.9,37.1 502.6,37.1 503.3,37.0 503.9,37.0 504.6,37.0 505.3,36.9 506.0,36.9 506.6,36.9 507.3,36.9 508.0,36.8 508.7,36.7 509.3,36.7 510.0,36.7 510.7,36.6 511.3,36.5 512.0,36.5 512.7,36.5 513.4,36.4 514.0,36.4 514.7,36.4 515.4,36.3 516.1,36.3 516.7,36.3 517.4,36.2 518.1,36.2 518.8,36.1 519.4,36.1 520.1,36.1 520.8,36.0 521.5,36.0 522.1,36.0 522.8,36.0 523.5,35.9 524.2,35.9 524.8,35.9 525.5,35.8 526.2,35.8 526.9,35.7 527.5,35.7 528.2,35.7 528.9,35.7 529.6,35.6 530.2,35.6 530.9,35.6 531.6,35.6 532.2,35.5 532.9,35.5 533.6,35.5 534.3,35.5 534.9,35.3 535.6,35.1 536.3,35.0 537.0,34.8 537.6,34.7 538.3,34.7 539.0,34.6 539.7,34.5 540.3,34.4 541.0,34.2 541.7,34.1 542.4,34.2 543.0,33.9 543.7,33.8 544.4,33.6 545.1,33.5 545.7,33.4 546.4,33.3 547.1,33.2 547.8,33.1 548.4,33.0 549.1,32.9 549.8,32.8 550.4,32.7 551.1,32.6 551.8,32.5 552.5,32.4 553.1,32.4 553.8,32.3 554.5,32.3 555.2,32.2 555.8,32.2 556.5,32.1 557.2,32.0 557.9,31.9 558.5,31.8 559.2,31.7 559.9,31.7 560.6,31.6 561.2,31.6 561.9,31.5 562.6,31.5 563.3,31.4 563.9,31.4 564.6,31.4 565.3,31.8 566.0,31.5 566.6,31.2 567.3,31.0 568.0,30.8 568.7,30.5 569.3,30.0 570.0,31.7 570.0,31.7,120" />
  
  <!-- Linea principale -->
  <polyline fill="none" stroke="#0366d6" stroke-width="2.5" stroke-linecap="round" stroke-linejoin="round" points="30.0,63.3 30.7,63.2 31.3,63.1 32.0,63.0 32.7,63.0 33.4,62.9 34.0,62.8 34.7,62.7 35.4,62.7 36.1,62.6 36.7,62.5 37.4,62.5 38.1,62.4 38.8,62.4 39.4,62.3 40.1,62.2 40.8,62.1 41.5,62.1 42.1,62.1 42.8,62.0 43.5,62.0 44.2,61.9 44.8,61.9 45.5,61.8 46.2,61.7 46.9,61.6 47.5,61.5 48.2,61.5 48.9,61.4 49.6,61.3 50.2,61.3 50.9,61.3 51.6,61.2 52.2,61.1 52.9,61.1 53.6,61.0 54.3,60.9 54.9,60.9 55.6,60.9 56.3,60.9 57.0,60.8 57.6,60.8 58.3,60.8 59.0,60.7 59.7,60.6 60.3,60.6 61.0,60.6 61.7,60.5 62.4,60.4 63.0,60.4 63.7,60.3 64.4,60.3 65.1,60.2 65.7,60.2 66.4,60.1 67.1,60.1 67.8,60.0 68.4,59.9 69.1,59.9 69.8,59.9 70.4,59.8 71.1,59.8 71.8,59.7 72.5,59.6 73.1,59.6 73.8,59.5 74.5,59.5 75.2,59.5 75.8,59.4 76.5,59.4 77.2,59.4 77.9,59.3 78.5,59.3 79.2,59.3 79.9,59.2 80.6,59.2 81.2,59.2 81.9,59.1 82.6,59.1 83.3,59.1 83.9,59.0 84.6,59.0 85.3,59.0 86.0,60.2 86.6,60.1 87.3,60.0 88.0,59.9 88.7,59.6 89.3,59.3 90.0,59.1 90.7,59.0 91.3,58.9 92.0,58.7 92.7,58.5 93.4,58.4 94.0,58.4 94.7,58.3 95.4,58.2 96.1,58.1 96.7,58.0 97.4,57.9 98.1,57.9 98.8,57.9 99.4,57.8 100.1,57.7 100.8,57.6 101.5,57.6 102.1,57.5 102.8,57.4 103.5,57.4 104.2,57.3 104.8,57.2 105.5,57.2 106.2,57.1 106.9,57.1 107.5,57.1 108.2,57.0 108.9,57.0 109.6,56.9 110.2,56.9 110.9,56.8 111.6,56.8 112.2,56.8 112.9,56.7 113.6,56.7 114.3,56.7 114.9,56.6 115.6,56.6 116.3,56.5 117.0,56.5 117.6,56.5 118.3,56.4 119.0,56.4 119.7,56.4 120.3,56.3 121.0,56.2 121.7,56.2 122.4,56.1 123.0,56.1 123.7,56.1 124.4,56.0 125.1,56.0 125.7,56.0 126.4,55.9 127.1,55.9 127.8,55.9 128.4,55.8 129.1,55.8 129.8,55.8 130.4,55.7 131.1,55.7 131.8,55.7 132.5,55.6 133.1,55.6 133.8,55.6 134.5,55.6 135.2,55.5 135.8,55.5 136.5,55.5 137.2,55.4 137.9,55.4 138.5,55.4 139.2,55.3 139.9,55.3 140.6,55.3 141.2,55.2 141.9,55.2 142.6,55.1 143.3,55.1 143.9,55.0 144.6,55.0 145.3,55.0 146.0,55.0 146.6,54.9 147.3,54.9 148.0,54.9 148.7,54.8 149.3,54.8 150.0,54.8 150.7,54.8 151.3,54.8 152.0,54.7 152.7,54.7 153.4,54.7 154.0,54.6 154.7,54.6 155.4,54.6 156.1,54.5 156.7,54.5 157.4,54.5 158.1,54.5 158.8,54.4 159.4,54.4 160.1,54.3 160.8,54.3 161.5,54.3 162.1,54.3 162.8,54.2 163.5,54.2 164.2,54.2 164.8,54.1 165.5,54.1 166.2,54.1 166.9,54.0 167.5,54.0 168.2,54.0 168.9,54.0 169.6,53.9 170.2,53.9 170.9,53.9 171.6,53.8 172.2,53.8 172.9,53.8 173.6,53.8 174.3,53.8 174.9,53.7 175.6,53.7 176.3,53.7 177.0,53.6 177.6,53.6 178.3,53.6 179.0,53.6 179.7,53.5 180.3,53.5 181.0,53.5 181.7,53.4 182.4,53.4 183.0,53.4 183.7,53.4 184.4,53.4 185.1,53.3 185.7,53.3 186.4,53.3 187.1,53.3 187.8,53.2 188.4,53.2 189.1,53.2 189.8,53.2 190.4,53.1 191.1,53.1 191.8,53.1 192.5,53.1 193.1,53.0 193.8,53.0 194.5,53.0 195.2,53.0 195.8,52.9 196.5,52.9 197.2,52.9 197.9,52.9 198.5,52.8 199.2,52.8 199.9,52.8 200.6,52.8 201.2,52.7 201.9,53.5 202.6,53.4 203.3,53.1 203.9,52.9 204.6,52.8 205.3,52.6 206.0,52.5 206.6,52.5 207.3,52.4 208.0,52.2 208.7,52.1 209.3,52.0 210.0,52.0 210.7,51.9 211.3,51.8 212.0,51.7 212.7,51.6 213.4,51.6 214.0,51.5 214.7,51.5 215.4,51.4 216.1,51.4 216.7,51.3 217.4,51.3 218.1,51.2 218.8,51.1 219.4,51.0 220.1,50.9 220.8,50.9 221.5,50.8 222.1,50.8 222.8,50.8 223.5,50.7 224.2,50.6 224.8,50.6 225.5,50.4 226.2,50.3 226.9,50.2 227.5,50.2 228.2,50.1 228.9,50.1 229.6,50.0 230.2,49.9 230.9,49.9 231.6,49.8 232.2,49.8 232.9,49.7 233.6,49.6 234.3,49.6 234.9,49.6 235.6,49.5 236.3,49.5 237.0,49.4 237.6,49.4 238.3,49.3 239.0,49.3 239.7,49.3 240.3,49.2 241.0,49.2 241.7,49.2 242.4,49.1 243.0,49.1 243.7,49.1 244.4,49.0 245.1,49.0 245.7,48.9 246.4,48.8 247.1,48.8 247.8,48.8 248.4,48.7 249.1,48.7 249.8,48.7 250.4,48.7 251.1,48.6 251.8,48.6 252.5,48.6 253.1,48.5 253.8,48.5 254.5,48.5 255.2,48.4 255.8,48.4 256.5,48.3 257.2,48.3 257.9,48.2 258.5,48.2 259.2,48.2 259.9,48.1 260.6,48.1 261.2,48.0 261.9,48.0 262.6,48.0 263.3,47.9 263.9,47.9 264.6,47.9 265.3,47.8 266.0,47.8 266.6,47.8 267.3,47.7 268.0,47.7 268.7,47.6 269.3,47.6 270.0,47.5 270.7,47.5 271.3,47.5 272.0,47.5 272.7,47.4 273.4,47.4 274.0,47.4 274.7,47.3 275.4,47.3 276.1,47.3 276.7,47.2 277.4,47.2 278.1,47.2 278.8,47.1 279.4,47.1 280.1,47.1 280.8,47.1 281.5,47.0 282.1,47.0 282.8,47.0 283.5,46.9 284.2,46.9 284.8,46.9 285.5,46.8 286.2,46.8 286.9,46.8 287.5,46.8 288.2,46.7 288.9,46.7 289.6,46.7 290.2,46.6 290.9,46.6 291.6,46.6 292.2,46.5 292.9,46.5 293.6,46.5 294.3,46.4 294.9,46.4 295.6,46.4 296.3,46.3 297.0,46.3 297.6,46.3 298.3,46.2 299.0,46.2 299.7,46.2 300.3,46.1 301.0,46.1 301.7,46.1 302.4,46.0 303.0,46.0 303.7,45.9 304.4,45.9 305.1,45.9 305.7,45.8 306.4,45.8 307.1,45.8 307.8,45.7 308.4,45.7 309.1,45.7 309.8,45.6 310.4,45.6 311.1,45.6 311.8,45.5 312.5,45.5 313.1,45.5 313.8,45.4 314.5,45.4 315.2,45.4 315.8,45.3 316.5,45.3 317.2,45.3 317.9,45.3 318.5,45.2 319.2,45.2 319.9,45.2 320.6,45.2 321.2,45.2 321.9,45.1 322.6,45.1 323.3,45.1 323.9,45.0 324.6,45.0 325.3,45.0 326.0,45.0 326.6,44.9 327.3,44.9 328.0,44.9 328.7,44.9 329.3,47.5 330.0,47.2 330.7,47.0 331.3,46.8 332.0,46.7 332.7,46.6 333.4,46.4 334.0,46.3 334.7,46.1 335.4,46.0 336.1,45.9 336.7,45.8 337.4,45.7 338.1,45.6 338.8,45.5 339.4,45.5 340.1,45.4 340.8,45.3 341.5,45.2 342.1,45.1 342.8,45.0 343.5,44.9 344.2,44.9 344.8,44.9 345.5,44.8 346.2,44.7 346.9,44.7 347.5,44.7 348.2,44.7 348.9,44.7 349.6,44.7 350.2,44.7 350.9,44.6 351.6,44.6 352.2,44.5 352.9,44.5 353.6,44.4 354.3,44.4 354.9,44.3 355.6,44.3 356.3,44.3 357.0,44.2 357.6,44.2 358.3,44.1 359.0,44.1 359.7,44.1 360.3,44.0 361.0,43.9 361.7,43.9 362.4,43.9 363.0,43.8 363.7,43.8 364.4,43.8 365.1,43.7 365.7,43.7 366.4,43.6 367.1,43.6 367.8,43.6 368.4,43.5 369.1,43.5 369.8,43.5 370.4,43.4 371.1,43.4 371.8,43.4 372.5,43.3 373.1,43.3 373.8,43.2 374.5,43.2 375.2,43.2 375.8,43.2 376.5,43.1 377.2,43.1 377.9,43.0 378.5,43.0 379.2,43.0 379.9,42.9 380.6,42.9 381.2,42.9 381.9,42.9 382.6,42.8 383.3,42.8 383.9,42.8 384.6,42.7 385.3,42.7 386.0,42.7 386.6,42.6 387.3,42.6 388.0,42.6 388.7,42.6 389.3,42.5 390.0,42.5 390.7,42.5 391.3,42.5 392.0,42.4 392.7,42.4 393.4,42.4 394.0,42.3 394.7,42.3 395.4,42.3 396.1,42.2 396.7,42.2 397.4,42.2 398.1,42.2 398.8,42.1 399.4,42.1 400.1,42.0 400.8,42.0 401.5,42.0 402.1,42.0 402.8,41.9 403.5,41.9 404.2,41.9 404.8,41.9 405.5,41.8 406.2,41.8 406.9,41.7 407.5,41.7 408.2,41.6 408.9,41.5 409.6,41.5 410.2,41.5 410.9,41.5 411.6,41.5 412.2,41.5 412.9,41.4 413.6,41.4 414.3,41.4 414.9,41.3 415.6,41.3 416.3,41.3 417.0,41.3 417.6,41.3 418.3,41.3 419.0,41.3 419.7,41.2 420.3,41.2 421.0,41.2 421.7,41.2 422.4,41.2 423.0,41.1 423.7,41.1 424.4,41.1 425.1,41.1 425.7,41.0 426.4,41.0 427.1,41.0 427.8,41.0 428.4,41.0 429.1,41.0 429.8,40.9 430.4,40.9 431.1,40.9 431.8,40.9 432.5,40.9 433.1,40.8 433.8,40.8 434.5,40.8 435.2,40.8 435.8,40.8 436.5,40.8 437.2,40.8 437.9,40.7 438.5,40.7 439.2,40.7 439.9,40.7 440.6,40.7 441.2,40.6 441.9,40.6 442.6,40.6 443.3,40.6 443.9,40.6 444.6,40.6 445.3,40.6 446.0,40.5 446.6,40.5 447.3,40.5 448.0,41.3 448.7,41.1 449.3,40.9 450.0,40.8 450.7,40.7 451.3,40.5 452.0,40.4 452.7,40.3 453.4,40.2 454.0,40.0 454.7,40.0 455.4,39.9 456.1,39.8 456.7,39.8 457.4,39.7 458.1,39.7 458.8,39.6 459.4,39.6 460.1,39.5 460.8,39.5 461.5,39.4 462.1,39.3 462.8,39.3 463.5,39.2 464.2,39.2 464.8,39.1 465.5,39.1 466.2,39.1 466.9,39.0 467.5,39.0 468.2,38.9 468.9,38.9 469.6,38.9 470.2,38.8 470.9,38.7 471.6,38.7 472.2,38.7 472.9,38.6 473.6,38.6 474.3,38.6 474.9,38.5 475.6,38.5 476.3,38.4 477.0,38.4 477.6,38.4 478.3,38.3 479.0,38.3 479.7,38.2 480.3,38.2 481.0,38.1 481.7,38.1 482.4,38.1 483.0,38.1 483.7,38.0 484.4,38.0 485.1,38.0 485.7,37.9 486.4,37.9 487.1,37.9 487.8,37.8 488.4,37.8 489.1,37.8 489.8,37.7 490.4,37.7 491.1,37.7 491.8,37.7 492.5,37.6 493.1,37.6 493.8,120.0 494.5,37.5 495.2,37.5 495.8,37.4 496.5,37.4 497.2,37.4 497.9,37.4 498.5,37.3 499.2,37.3 499.9,37.3 500.6,37.2 501.2,37.2 501.9,37.1 502.6,37.1 503.3,37.0 503.9,37.0 504.6,37.0 505.3,36.9 506.0,36.9 506.6,36.9 507.3,36.9 508.0,36.8 508.7,36.7 509.3,36.7 510.0,36.7 510.7,36.6 511.3,36.5 512.0,36.5 512.7,36.5 513.4,36.4 514.0,36.4 514.7,36.4 515.4,36.3 516.1,36.3 516.7,36.3 517.4,36.2 518.1,36.2 518.8,36.1 519.4,36.1 520.1,36.1 520.8,36.0 521.5,36.0 522.1,36.0 522.8,36.0 523.5,35.9 524.2,35.9 524.8,35.9 525.5,35.8 526.2,35.8 526.9,35.7 527.5,35.7 528.2,35.7 528.9,35.7 529.6,35.6 530.2,35.6 530.9,35.6 531.6,35.6 532.2,35.5 532.9,35.5 533.6,35.5 534.3,35.5 534.9,35.3 535.6,35.1 536.3,35.0 537.0,34.8 537.6,34.7 538.3,34.7 539.0,34.6 539.7,34.5 540.3,34.4 541.0,34.2 541.7,34.1 542.4,34.2 543.0,33.9 543.7,33.8 544.4,33.6 545.1,33.5 545.7,33.4 546.4,33.3 547.1,33.2 547.8,33.1 548.4,33.0 549.1,32.9 549.8,32.8 550.4,32.7 551.1,32.6 551.8,32.5 552.5,32.4 553.1,32.4 553.8,32.3 554.5,32.3 555.2,32.2 555.8,32.2 556.5,32.1 557.2,32.0 557.9,31.9 558.5,31.8 559.2,31.7 559.9,31.7 560.6,31.6 561.2,31.6 561.9,31.5 562.6,31.5 563.3,31.4 563.9,31.4 564.6,31.4 565.3,31.8 566.0,31.5 566.6,31.2 567.3,31.0 568.0,30.8 568.7,30.5 569.3,30.0 570.0,31.7" />
  
  <!-- Punto finale luminoso -->
  <circle cx="570.0" cy="31.7" r="4" fill="#ffffff" stroke="#0366d6" stroke-width="2.5" />
</svg>