<svg width="600" height="150" viewBox="0 0 600 150" xmlns="http://www.w3.org/2000/svg">
  <defs>
    <filter id="shadow2" x="-2%" y="-2%" width="104%" height="108%">
      <feDropShadow dx="0" dy="2" stdDeviation="3" flood-opacity="0.1" />
    </filter>
    <linearGradient id="fillGrad" x1="0" y1="0" x2="0" y2="1">
      <stop offset="0%" stop-color="#0366d6" stop-opacity="0.3"/>
      <stop offset="100%" stop-color="#0366d6" stop-opacity="0.02"/>
    </linearGradient>
  </defs>
  <rect width="600" height="150" rx="12" fill="#ffffff" filter="url(#shadow2)" stroke="#e1e4e8" stroke-width="1"/>
  <text x="20" y="24" fill="#2b3137" font-family="-apple-system,BlinkMacSystemFont,'Segoe UI',Helvetica,Arial,sans-serif" font-size="14" font-weight="600">📈 Download Growth (Actual: 78.3k)</text>
  
  <!-- Area sotto la linea -->
  <polygon fill="url(#fillGrad)" points="30.0,120.0,120 30.0,120.0 32.5,119.1 34.9,118.2 37.4,117.3 39.8,117.1 42.3,116.7 44.7,115.6 47.2,114.9 49.6,114.5 52.1,113.4 54.5,112.9 57.0,112.4 59.5,112.1 61.9,111.6 64.4,110.9 66.8,110.1 69.3,109.5 71.7,109.1 74.2,108.8 76.6,108.4 79.1,107.8 81.5,107.3 84.0,107.1 86.5,106.6 88.9,104.9 91.4,104.5 93.8,103.8 96.3,103.1 98.7,102.6 101.2,102.0 103.6,101.6 106.1,101.4 108.5,100.9 111.0,100.1 113.5,99.4 115.9,98.9 118.4,98.4 120.8,98.2 123.3,98.1 125.7,97.8 128.2,97.2 130.6,96.9 133.1,96.7 135.5,96.1 138.0,95.2 140.5,95.0 142.9,94.8 145.4,94.5 147.8,93.7 150.3,93.3 152.7,92.5 155.2,92.0 157.6,91.4 160.1,91.2 162.5,90.8 165.0,90.2 167.5,89.5 169.9,89.0 172.4,88.7 174.8,88.4 177.3,88.1 179.7,87.4 182.2,86.7 184.6,86.0 187.1,85.4 189.5,85.1 192.0,84.9 194.5,84.6 196.9,84.1 199.4,83.8 201.8,83.5 204.3,83.3 206.7,83.0 209.2,82.7 211.6,82.4 214.1,82.3 216.5,82.1 219.0,81.4 221.5,81.0 223.9,80.9 226.4,80.7 228.8,80.5 231.3,80.5 233.7,91.8 236.2,90.7 238.6,89.7 241.1,88.7 243.5,85.6 246.0,83.5 248.5,81.1 250.9,80.3 253.4,79.3 255.8,77.7 258.3,76.0 260.7,74.8 263.2,74.3 265.6,73.8 268.1,72.6 270.5,71.7 273.0,71.1 275.5,70.4 277.9,70.1 280.4,70.0 282.8,69.3 285.3,68.3 287.7,67.5 290.2,66.8 292.6,65.9 295.1,65.5 297.5,65.2 300.0,64.5 302.5,63.8 304.9,63.2 307.4,62.7 309.8,62.5 312.3,62.3 314.7,61.9 317.2,61.4 319.6,61.0 322.1,60.6 324.5,60.2 327.0,59.9 329.5,59.6 331.9,59.3 334.4,59.0 336.8,58.7 339.3,58.2 341.7,57.7 344.2,57.2 346.6,56.9 349.1,56.6 351.5,56.4 354.0,56.1 356.5,55.8 358.9,55.0 361.4,54.5 363.8,53.8 366.3,53.5 368.7,53.5 371.2,53.1 373.6,52.8 376.1,52.4 378.5,52.0 381.0,51.5 383.5,51.1 385.9,51.0 388.4,50.7 390.8,50.5 393.3,50.3 395.7,49.9 398.2,49.7 400.6,49.2 403.1,48.9 405.5,48.8 408.0,48.5 410.5,48.4 412.9,48.0 415.4,47.6 417.8,47.2 420.3,46.9 422.7,46.5 425.2,46.3 427.6,46.1 430.1,45.9 432.5,45.4 435.0,44.9 437.5,44.6 439.9,44.2 442.4,43.6 444.8,43.4 447.3,43.2 449.7,43.1 452.2,42.8 454.6,42.5 457.1,42.1 459.5,41.9 462.0,41.6 464.5,41.4 466.9,41.1 469.4,40.9 471.8,40.8 474.3,40.4 476.7,40.0 479.2,39.8 481.6,39.4 484.1,39.3 486.5,39.0 489.0,38.8 491.5,38.6 493.9,38.4 496.4,38.1 498.8,37.6 501.3,37.1 503.7,36.8 506.2,36.5 508.6,36.4 511.1,36.2 513.5,35.9 516.0,35.5 518.5,35.3 520.9,35.1 523.4,34.7 525.8,34.5 528.3,34.2 530.7,34.0 533.2,33.8 535.6,33.4 538.1,33.1 540.5,32.7 543.0,32.4 545.5,32.2 547.9,32.1 550.4,32.0 552.8,31.7 555.3,31.5 557.7,31.2 560.2,30.9 562.6,30.6 565.1,30.4 567.5,30.2 570.0,30.0 570.0,30.0,120" />
  
  <!-- Linea principale -->
  <polyline fill="none" stroke="#0366d6" stroke-width="2.5" stroke-linecap="round" stroke-linejoin="round" points="30.0,120.0 32.5,119.1 34.9,118.2 37.4,117.3 39.8,117.1 42.3,116.7 44.7,115.6 47.2,114.9 49.6,114.5 52.1,113.4 54.5,112.9 57.0,112.4 59.5,112.1 61.9,111.6 64.4,110.9 66.8,110.1 69.3,109.5 71.7,109.1 74.2,108.8 76.6,108.4 79.1,107.8 81.5,107.3 84.0,107.1 86.5,106.6 88.9,104.9 91.4,104.5 93.8,103.8 96.3,103.1 98.7,102.6 101.2,102.0 103.6,101.6 106.1,101.4 108.5,100.9 111.0,100.1 113.5,99.4 115.9,98.9 118.4,98.4 120.8,98.2 123.3,98.1 125.7,97.8 128.2,97.2 130.6,96.9 133.1,96.7 135.5,96.1 138.0,95.2 140.5,95.0 142.9,94.8 145.4,94.5 147.8,93.7 150.3,93.3 152.7,92.5 155.2,92.0 157.6,91.4 160.1,91.2 162.5,90.8 165.0,90.2 167.5,89.5 169.9,89.0 172.4,88.7 174.8,88.4 177.3,88.1 179.7,87.4 182.2,86.7 184.6,86.0 187.1,85.4 189.5,85.1 192.0,84.9 194.5,84.6 196.9,84.1 199.4,83.8 201.8,83.5 204.3,83.3 206.7,83.0 209.2,82.7 211.6,82.4 214.1,82.3 216.5,82.1 219.0,81.4 221.5,81.0 223.9,80.9 226.4,80.7 228.8,80.5 231.3,80.5 233.7,91.8 236.2,90.7 238.6,89.7 241.1,88.7 243.5,85.6 246.0,83.5 248.5,81.1 250.9,80.3 253.4,79.3 255.8,77.7 258.3,76.0 260.7,74.8 263.2,74.3 265.6,73.8 268.1,72.6 270.5,71.7 273.0,71.1 275.5,70.4 277.9,70.1 280.4,70.0 282.8,69.3 285.3,68.3 287.7,67.5 290.2,66.8 292.6,65.9 295.1,65.5 297.5,65.2 300.0,64.5 302.5,63.8 304.9,63.2 307.4,62.7 309.8,62.5 312.3,62.3 314.7,61.9 317.2,61.4 319.6,61.0 322.1,60.6 324.5,60.2 327.0,59.9 329.5,59.6 331.9,59.3 334.4,59.0 336.8,58.7 339.3,58.2 341.7,57.7 344.2,57.2 346.6,56.9 349.1,56.6 351.5,56.4 354.0,56.1 356.5,55.8 358.9,55.0 361.4,54.5 363.8,53.8 366.3,53.5 368.7,53.5 371.2,53.1 373.6,52.8 376.1,52.4 378.5,52.0 381.0,51.5 383.5,51.1 385.9,51.0 388.4,50.7 390.8,50.5 393.3,50.3 395.7,49.9 398.2,49.7 400.6,49.2 403.1,48.9 405.5,48.8 408.0,48.5 410.5,48.4 412.9,48.0 415.4,47.6 417.8,47.2 420.3,46.9 422.7,46.5 425.2,46.3 427.6,46.1 430.1,45.9 432.5,45.4 435.0,44.9 437.5,44.6 439.9,44.2 442.4,43.6 444.8,43.4 447.3,43.2 449.7,43.1 452.2,42.8 454.6,42.5 457.1,42.1 459.5,41.9 462.0,41.6 464.5,41.4 466.9,41.1 469.4,40.9 471.8,40.8 474.3,40.4 476.7,40.0 479.2,39.8 481.6,39.4 484.1,39.3 486.5,39.0 489.0,38.8 491.5,38.6 493.9,38.4 496.4,38.1 498.8,37.6 501.3,37.1 503.7,36.8 506.2,36.5 508.6,36.4 511.1,36.2 513.5,35.9 516.0,35.5 518.5,35.3 520.9,35.1 523.4,34.7 525.8,34.5 528.3,34.2 530.7,34.0 533.2,33.8 535.6,33.4 538.1,33.1 540.5,32.7 543.0,32.4 545.5,32.2 547.9,32.1 550.4,32.0 552.8,31.7 555.3,31.5 557.7,31.2 560.2,30.9 562.6,30.6 565.1,30.4 567.5,30.2 570.0,30.0" />
  
  <!-- Punto finale luminoso -->
  <circle cx="570.0" cy="30.0" r="4" fill="#ffffff" stroke="#0366d6" stroke-width="2.5" />
</svg>