<svg width="600" height="150" viewBox="0 0 600 150" xmlns="http://www.w3.org/2000/svg">
  <defs>
    <filter id="shadow2" x="-2%" y="-2%" width="104%" height="108%">
      <feDropShadow dx="0" dy="2" stdDeviation="3" flood-opacity="0.1" />
    </filter>
    <linearGradient id="fillGrad" x1="0" y1="0" x2="0" y2="1">
      <stop offset="0%" stop-color="#0366d6" stop-opacity="0.3"/>
      <stop offset="100%" stop-color="#0366d6" stop-opacity="0.02"/>
    </linearGradient>
  </defs>
  <rect width="600" height="150" rx="12" fill="#ffffff" filter="url(#shadow2)" stroke="#e1e4e8" stroke-width="1"/>
  <text x="20" y="24" fill="#2b3137" font-family="-apple-system,BlinkMacSystemFont,'Segoe UI',Helvetica,Arial,sans-serif" font-size="14" font-weight="600">📈 Download Growth (Actual: 80.5k)</text>
  
  <!-- Area sotto la linea -->
  <polygon fill="url(#fillGrad)" points="30.0,120.0,120 30.0,120.0 32.0,119.3 34.0,118.5 36.0,117.8 38.0,117.6 40.0,117.2 42.0,116.3 44.0,115.8 46.0,115.4 48.0,114.5 50.0,114.0 52.0,113.6 54.0,113.3 56.0,112.9 58.0,112.3 60.0,111.7 62.0,111.2 64.0,110.9 66.0,110.7 68.0,110.3 70.0,109.8 72.0,109.4 74.0,109.2 76.0,108.8 78.0,107.4 80.0,107.0 82.0,106.4 84.0,105.9 86.0,105.4 88.0,104.9 90.0,104.6 92.0,104.4 94.0,104.0 96.0,103.3 98.0,102.7 100.0,102.3 102.0,101.9 104.0,101.7 106.0,101.6 108.0,101.4 110.0,100.9 112.0,100.7 114.0,100.5 116.0,100.0 118.0,99.2 120.0,99.0 122.0,98.9 124.0,98.6 126.0,98.0 128.0,97.6 130.0,97.0 132.0,96.5 134.0,96.0 136.0,95.9 138.0,95.5 140.0,95.0 142.0,94.4 144.0,94.0 146.0,93.8 148.0,93.5 150.0,93.3 152.0,92.6 154.0,92.1 156.0,91.5 158.0,91.0 160.0,90.8 162.0,90.6 164.0,90.4 166.0,90.0 168.0,89.7 170.0,89.4 172.0,89.2 174.0,89.0 176.0,88.7 178.0,88.5 180.0,88.4 182.0,88.2 184.0,87.7 186.0,87.4 188.0,87.3 190.0,87.1 192.0,86.9 194.0,86.9 196.0,96.4 198.0,95.5 200.0,94.6 202.0,93.7 204.0,91.2 206.0,89.4 208.0,87.4 210.0,86.7 212.0,85.9 214.0,84.6 216.0,83.1 218.0,82.1 220.0,81.7 222.0,81.3 224.0,80.3 226.0,79.5 228.0,79.0 230.0,78.4 232.0,78.2 234.0,78.1 236.0,77.5 238.0,76.6 240.0,76.0 242.0,75.4 244.0,74.7 246.0,74.3 248.0,74.1 250.0,73.5 252.0,72.9 254.0,72.4 256.0,72.0 258.0,71.8 260.0,71.7 262.0,71.3 264.0,70.9 266.0,70.5 268.0,70.2 270.0,69.9 272.0,69.6 274.0,69.4 276.0,69.1 278.0,68.9 280.0,68.7 282.0,68.2 284.0,67.8 286.0,67.4 288.0,67.1 290.0,66.9 292.0,66.7 294.0,66.5 296.0,66.2 298.0,65.5 300.0,65.1 302.0,64.5 304.0,64.3 306.0,64.2 308.0,64.0 310.0,63.7 312.0,63.3 314.0,63.0 316.0,62.6 318.0,62.3 320.0,62.2 322.0,61.9 324.0,61.8 326.0,61.6 328.0,61.3 330.0,61.1 332.0,60.6 334.0,60.5 336.0,60.3 338.0,60.1 340.0,60.0 342.0,59.6 344.0,59.4 346.0,59.0 348.0,58.7 350.0,58.4 352.0,58.2 354.0,58.1 356.0,57.9 358.0,57.5 360.0,57.1 362.0,56.8 364.0,56.5 366.0,56.0 368.0,55.8 370.0,55.7 372.0,55.5 374.0,55.3 376.0,55.0 378.0,54.8 380.0,54.6 382.0,54.3 384.0,54.1 386.0,53.9 388.0,53.7 390.0,53.6 392.0,53.3 394.0,53.0 396.0,52.8 398.0,52.5 400.0,52.3 402.0,52.2 404.0,51.9 406.0,51.8 408.0,51.6 410.0,51.4 412.0,51.0 414.0,50.5 416.0,50.2 418.0,50.0 420.0,49.9 422.0,49.8 424.0,49.5 426.0,49.2 428.0,49.0 430.0,48.8 432.0,48.6 434.0,48.3 436.0,48.1 438.0,47.9 440.0,47.8 442.0,47.4 444.0,47.2 446.0,46.9 448.0,46.6 450.0,46.4 452.0,46.4 454.0,46.3 456.0,46.0 458.0,45.8 460.0,45.6 462.0,45.4 464.0,45.1 466.0,44.9 468.0,44.8 470.0,44.6 472.0,44.4 474.0,44.1 476.0,43.8 478.0,43.5 480.0,43.3 482.0,43.1 484.0,43.0 486.0,42.9 488.0,42.7 490.0,42.6 492.0,42.4 494.0,42.1 496.0,41.9 498.0,41.6 500.0,41.5 502.0,41.3 504.0,41.1 506.0,40.8 508.0,40.7 510.0,40.5 512.0,40.3 514.0,40.1 516.0,39.9 518.0,39.6 520.0,39.5 522.0,39.4 524.0,39.2 526.0,39.1 528.0,38.9 530.0,38.7 532.0,38.6 534.0,38.4 536.0,38.0 538.0,37.7 540.0,43.9 542.0,42.7 544.0,40.3 546.0,39.4 548.0,38.4 550.0,37.0 552.0,36.3 554.0,35.8 556.0,34.9 558.0,33.6 560.0,32.6 562.0,32.3 564.0,31.8 566.0,31.3 568.0,30.7 570.0,30.0 570.0,30.0,120" />
  
  <!-- Linea principale -->
  <polyline fill="none" stroke="#0366d6" stroke-width="2.5" stroke-linecap="round" stroke-linejoin="round" points="30.0,120.0 32.0,119.3 34.0,118.5 36.0,117.8 38.0,117.6 40.0,117.2 42.0,116.3 44.0,115.8 46.0,115.4 48.0,114.5 50.0,114.0 52.0,113.6 54.0,113.3 56.0,112.9 58.0,112.3 60.0,111.7 62.0,111.2 64.0,110.9 66.0,110.7 68.0,110.3 70.0,109.8 72.0,109.4 74.0,109.2 76.0,108.8 78.0,107.4 80.0,107.0 82.0,106.4 84.0,105.9 86.0,105.4 88.0,104.9 90.0,104.6 92.0,104.4 94.0,104.0 96.0,103.3 98.0,102.7 100.0,102.3 102.0,101.9 104.0,101.7 106.0,101.6 108.0,101.4 110.0,100.9 112.0,100.7 114.0,100.5 116.0,100.0 118.0,99.2 120.0,99.0 122.0,98.9 124.0,98.6 126.0,98.0 128.0,97.6 130.0,97.0 132.0,96.5 134.0,96.0 136.0,95.9 138.0,95.5 140.0,95.0 142.0,94.4 144.0,94.0 146.0,93.8 148.0,93.5 150.0,93.3 152.0,92.6 154.0,92.1 156.0,91.5 158.0,91.0 160.0,90.8 162.0,90.6 164.0,90.4 166.0,90.0 168.0,89.7 170.0,89.4 172.0,89.2 174.0,89.0 176.0,88.7 178.0,88.5 180.0,88.4 182.0,88.2 184.0,87.7 186.0,87.4 188.0,87.3 190.0,87.1 192.0,86.9 194.0,86.9 196.0,96.4 198.0,95.5 200.0,94.6 202.0,93.7 204.0,91.2 206.0,89.4 208.0,87.4 210.0,86.7 212.0,85.9 214.0,84.6 216.0,83.1 218.0,82.1 220.0,81.7 222.0,81.3 224.0,80.3 226.0,79.5 228.0,79.0 230.0,78.4 232.0,78.2 234.0,78.1 236.0,77.5 238.0,76.6 240.0,76.0 242.0,75.4 244.0,74.7 246.0,74.3 248.0,74.1 250.0,73.5 252.0,72.9 254.0,72.4 256.0,72.0 258.0,71.8 260.0,71.7 262.0,71.3 264.0,70.9 266.0,70.5 268.0,70.2 270.0,69.9 272.0,69.6 274.0,69.4 276.0,69.1 278.0,68.9 280.0,68.7 282.0,68.2 284.0,67.8 286.0,67.4 288.0,67.1 290.0,66.9 292.0,66.7 294.0,66.5 296.0,66.2 298.0,65.5 300.0,65.1 302.0,64.5 304.0,64.3 306.0,64.2 308.0,64.0 310.0,63.7 312.0,63.3 314.0,63.0 316.0,62.6 318.0,62.3 320.0,62.2 322.0,61.9 324.0,61.8 326.0,61.6 328.0,61.3 330.0,61.1 332.0,60.6 334.0,60.5 336.0,60.3 338.0,60.1 340.0,60.0 342.0,59.6 344.0,59.4 346.0,59.0 348.0,58.7 350.0,58.4 352.0,58.2 354.0,58.1 356.0,57.9 358.0,57.5 360.0,57.1 362.0,56.8 364.0,56.5 366.0,56.0 368.0,55.8 370.0,55.7 372.0,55.5 374.0,55.3 376.0,55.0 378.0,54.8 380.0,54.6 382.0,54.3 384.0,54.1 386.0,53.9 388.0,53.7 390.0,53.6 392.0,53.3 394.0,53.0 396.0,52.8 398.0,52.5 400.0,52.3 402.0,52.2 404.0,51.9 406.0,51.8 408.0,51.6 410.0,51.4 412.0,51.0 414.0,50.5 416.0,50.2 418.0,50.0 420.0,49.9 422.0,49.8 424.0,49.5 426.0,49.2 428.0,49.0 430.0,48.8 432.0,48.6 434.0,48.3 436.0,48.1 438.0,47.9 440.0,47.8 442.0,47.4 444.0,47.2 446.0,46.9 448.0,46.6 450.0,46.4 452.0,46.4 454.0,46.3 456.0,46.0 458.0,45.8 460.0,45.6 462.0,45.4 464.0,45.1 466.0,44.9 468.0,44.8 470.0,44.6 472.0,44.4 474.0,44.1 476.0,43.8 478.0,43.5 480.0,43.3 482.0,43.1 484.0,43.0 486.0,42.9 488.0,42.7 490.0,42.6 492.0,42.4 494.0,42.1 496.0,41.9 498.0,41.6 500.0,41.5 502.0,41.3 504.0,41.1 506.0,40.8 508.0,40.7 510.0,40.5 512.0,40.3 514.0,40.1 516.0,39.9 518.0,39.6 520.0,39.5 522.0,39.4 524.0,39.2 526.0,39.1 528.0,38.9 530.0,38.7 532.0,38.6 534.0,38.4 536.0,38.0 538.0,37.7 540.0,43.9 542.0,42.7 544.0,40.3 546.0,39.4 548.0,38.4 550.0,37.0 552.0,36.3 554.0,35.8 556.0,34.9 558.0,33.6 560.0,32.6 562.0,32.3 564.0,31.8 566.0,31.3 568.0,30.7 570.0,30.0" />
  
  <!-- Punto finale luminoso -->
  <circle cx="570.0" cy="30.0" r="4" fill="#ffffff" stroke="#0366d6" stroke-width="2.5" />
</svg>