<svg width="600" height="150" viewBox="0 0 600 150" xmlns="http://www.w3.org/2000/svg">
  <defs>
    <filter id="shadow2" x="-2%" y="-2%" width="104%" height="108%">
      <feDropShadow dx="0" dy="2" stdDeviation="3" flood-opacity="0.1" />
    </filter>
    <linearGradient id="fillGrad" x1="0" y1="0" x2="0" y2="1">
      <stop offset="0%" stop-color="#0366d6" stop-opacity="0.3"/>
      <stop offset="100%" stop-color="#0366d6" stop-opacity="0.02"/>
    </linearGradient>
  </defs>
  <rect width="600" height="150" rx="12" fill="#ffffff" filter="url(#shadow2)" stroke="#e1e4e8" stroke-width="1"/>
  <text x="20" y="24" fill="#2b3137" font-family="-apple-system,BlinkMacSystemFont,'Segoe UI',Helvetica,Arial,sans-serif" font-size="14" font-weight="600">📈 Download Growth (Actual: 78.4k)</text>
  
  <!-- Area sotto la linea -->
  <polygon fill="url(#fillGrad)" points="30.0,120.0,120 30.0,120.0 32.4,119.1 34.8,118.2 37.3,117.3 39.7,117.1 42.1,116.7 44.5,115.7 47.0,115.0 49.4,114.5 51.8,113.5 54.2,113.0 56.6,112.4 59.1,112.1 61.5,111.7 63.9,111.0 66.3,110.2 68.7,109.6 71.2,109.2 73.6,109.0 76.0,108.5 78.4,107.9 80.9,107.5 83.3,107.2 85.7,106.8 88.1,105.1 90.5,104.6 93.0,104.0 95.4,103.3 97.8,102.7 100.2,102.2 102.6,101.8 105.1,101.6 107.5,101.1 109.9,100.3 112.3,99.6 114.8,99.1 117.2,98.6 119.6,98.4 122.0,98.3 124.4,98.0 126.9,97.5 129.3,97.2 131.7,96.9 134.1,96.3 136.5,95.4 139.0,95.2 141.4,95.1 143.8,94.7 146.2,94.0 148.7,93.6 151.1,92.8 153.5,92.3 155.9,91.7 158.3,91.5 160.8,91.1 163.2,90.5 165.6,89.8 168.0,89.3 170.4,89.1 172.9,88.7 175.3,88.4 177.7,87.7 180.1,87.0 182.6,86.4 185.0,85.8 187.4,85.5 189.8,85.3 192.2,85.0 194.7,84.5 197.1,84.2 199.5,83.9 201.9,83.6 204.3,83.4 206.8,83.1 209.2,82.8 211.6,82.7 214.0,82.5 216.5,81.8 218.9,81.5 221.3,81.3 223.7,81.1 226.1,81.0 228.6,81.0 231.0,92.1 233.4,91.0 235.8,90.0 238.3,89.0 240.7,86.0 243.1,83.8 245.5,81.6 247.9,80.7 250.4,79.8 252.8,78.2 255.2,76.5 257.6,75.2 260.0,74.8 262.5,74.3 264.9,73.1 267.3,72.2 269.7,71.6 272.2,70.9 274.6,70.6 277.0,70.5 279.4,69.8 281.8,68.8 284.3,68.1 286.7,67.3 289.1,66.5 291.5,66.1 293.9,65.8 296.4,65.1 298.8,64.4 301.2,63.8 303.6,63.3 306.1,63.1 308.5,62.9 310.9,62.5 313.3,62.0 315.7,61.6 318.2,61.2 320.6,60.8 323.0,60.5 325.4,60.2 327.8,59.9 330.3,59.7 332.7,59.4 335.1,58.8 337.5,58.4 340.0,57.9 342.4,57.6 344.8,57.2 347.2,57.0 349.6,56.8 352.1,56.5 354.5,55.7 356.9,55.2 359.3,54.5 361.7,54.2 364.2,54.2 366.6,53.8 369.0,53.5 371.4,53.1 373.9,52.7 376.3,52.2 378.7,51.9 381.1,51.7 383.5,51.4 386.0,51.2 388.4,51.0 390.8,50.7 393.2,50.4 395.7,49.9 398.1,49.7 400.5,49.5 402.9,49.3 405.3,49.1 407.8,48.7 410.2,48.4 412.6,48.0 415.0,47.7 417.4,47.3 419.9,47.0 422.3,46.9 424.7,46.6 427.1,46.1 429.6,45.7 432.0,45.3 434.4,45.0 436.8,44.4 439.2,44.2 441.7,44.0 444.1,43.9 446.5,43.6 448.9,43.3 451.3,43.0 453.8,42.7 456.2,42.4 458.6,42.2 461.0,41.9 463.5,41.7 465.9,41.6 468.3,41.3 470.7,40.8 473.1,40.6 475.6,40.3 478.0,40.1 480.4,39.9 482.8,39.6 485.2,39.4 487.7,39.2 490.1,39.0 492.5,38.5 494.9,37.9 497.4,37.6 499.8,37.4 502.2,37.2 504.6,37.1 507.0,36.8 509.5,36.3 511.9,36.1 514.3,36.0 516.7,35.6 519.1,35.4 521.6,35.1 524.0,34.9 526.4,34.7 528.8,34.3 531.3,34.0 533.7,33.6 536.1,33.3 538.5,33.1 540.9,33.0 543.4,32.9 545.8,32.7 548.2,32.4 550.6,32.1 553.0,31.9 555.5,31.6 557.9,31.4 560.3,31.2 562.7,30.9 565.2,30.7 567.6,30.4 570.0,30.0 570.0,30.0,120" />
  
  <!-- Linea principale -->
  <polyline fill="none" stroke="#0366d6" stroke-width="2.5" stroke-linecap="round" stroke-linejoin="round" points="30.0,120.0 32.4,119.1 34.8,118.2 37.3,117.3 39.7,117.1 42.1,116.7 44.5,115.7 47.0,115.0 49.4,114.5 51.8,113.5 54.2,113.0 56.6,112.4 59.1,112.1 61.5,111.7 63.9,111.0 66.3,110.2 68.7,109.6 71.2,109.2 73.6,109.0 76.0,108.5 78.4,107.9 80.9,107.5 83.3,107.2 85.7,106.8 88.1,105.1 90.5,104.6 93.0,104.0 95.4,103.3 97.8,102.7 100.2,102.2 102.6,101.8 105.1,101.6 107.5,101.1 109.9,100.3 112.3,99.6 114.8,99.1 117.2,98.6 119.6,98.4 122.0,98.3 124.4,98.0 126.9,97.5 129.3,97.2 131.7,96.9 134.1,96.3 136.5,95.4 139.0,95.2 141.4,95.1 143.8,94.7 146.2,94.0 148.7,93.6 151.1,92.8 153.5,92.3 155.9,91.7 158.3,91.5 160.8,91.1 163.2,90.5 165.6,89.8 168.0,89.3 170.4,89.1 172.9,88.7 175.3,88.4 177.7,87.7 180.1,87.0 182.6,86.4 185.0,85.8 187.4,85.5 189.8,85.3 192.2,85.0 194.7,84.5 197.1,84.2 199.5,83.9 201.9,83.6 204.3,83.4 206.8,83.1 209.2,82.8 211.6,82.7 214.0,82.5 216.5,81.8 218.9,81.5 221.3,81.3 223.7,81.1 226.1,81.0 228.6,81.0 231.0,92.1 233.4,91.0 235.8,90.0 238.3,89.0 240.7,86.0 243.1,83.8 245.5,81.6 247.9,80.7 250.4,79.8 252.8,78.2 255.2,76.5 257.6,75.2 260.0,74.8 262.5,74.3 264.9,73.1 267.3,72.2 269.7,71.6 272.2,70.9 274.6,70.6 277.0,70.5 279.4,69.8 281.8,68.8 284.3,68.1 286.7,67.3 289.1,66.5 291.5,66.1 293.9,65.8 296.4,65.1 298.8,64.4 301.2,63.8 303.6,63.3 306.1,63.1 308.5,62.9 310.9,62.5 313.3,62.0 315.7,61.6 318.2,61.2 320.6,60.8 323.0,60.5 325.4,60.2 327.8,59.9 330.3,59.7 332.7,59.4 335.1,58.8 337.5,58.4 340.0,57.9 342.4,57.6 344.8,57.2 347.2,57.0 349.6,56.8 352.1,56.5 354.5,55.7 356.9,55.2 359.3,54.5 361.7,54.2 364.2,54.2 366.6,53.8 369.0,53.5 371.4,53.1 373.9,52.7 376.3,52.2 378.7,51.9 381.1,51.7 383.5,51.4 386.0,51.2 388.4,51.0 390.8,50.7 393.2,50.4 395.7,49.9 398.1,49.7 400.5,49.5 402.9,49.3 405.3,49.1 407.8,48.7 410.2,48.4 412.6,48.0 415.0,47.7 417.4,47.3 419.9,47.0 422.3,46.9 424.7,46.6 427.1,46.1 429.6,45.7 432.0,45.3 434.4,45.0 436.8,44.4 439.2,44.2 441.7,44.0 444.1,43.9 446.5,43.6 448.9,43.3 451.3,43.0 453.8,42.7 456.2,42.4 458.6,42.2 461.0,41.9 463.5,41.7 465.9,41.6 468.3,41.3 470.7,40.8 473.1,40.6 475.6,40.3 478.0,40.1 480.4,39.9 482.8,39.6 485.2,39.4 487.7,39.2 490.1,39.0 492.5,38.5 494.9,37.9 497.4,37.6 499.8,37.4 502.2,37.2 504.6,37.1 507.0,36.8 509.5,36.3 511.9,36.1 514.3,36.0 516.7,35.6 519.1,35.4 521.6,35.1 524.0,34.9 526.4,34.7 528.8,34.3 531.3,34.0 533.7,33.6 536.1,33.3 538.5,33.1 540.9,33.0 543.4,32.9 545.8,32.7 548.2,32.4 550.6,32.1 553.0,31.9 555.5,31.6 557.9,31.4 560.3,31.2 562.7,30.9 565.2,30.7 567.6,30.4 570.0,30.0" />
  
  <!-- Punto finale luminoso -->
  <circle cx="570.0" cy="30.0" r="4" fill="#ffffff" stroke="#0366d6" stroke-width="2.5" />
</svg>