<svg width="600" height="150" viewBox="0 0 600 150" xmlns="http://www.w3.org/2000/svg">
  <defs>
    <filter id="shadow2" x="-2%" y="-2%" width="104%" height="108%">
      <feDropShadow dx="0" dy="2" stdDeviation="3" flood-opacity="0.1" />
    </filter>
    <linearGradient id="fillGrad" x1="0" y1="0" x2="0" y2="1">
      <stop offset="0%" stop-color="#0366d6" stop-opacity="0.3"/>
      <stop offset="100%" stop-color="#0366d6" stop-opacity="0.02"/>
    </linearGradient>
  </defs>
  <rect width="600" height="150" rx="12" fill="#ffffff" filter="url(#shadow2)" stroke="#e1e4e8" stroke-width="1"/>
  <text x="20" y="24" fill="#2b3137" font-family="-apple-system,BlinkMacSystemFont,'Segoe UI',Helvetica,Arial,sans-serif" font-size="14" font-weight="600">📈 Download Growth (Actual: 87.9k)</text>
  
  <!-- Area sotto la linea -->
  <polygon fill="url(#fillGrad)" points="30.0,120.0,120 30.0,120.0 31.3,119.5 32.6,119.0 33.8,118.5 35.1,118.4 36.4,118.2 37.7,117.6 39.0,117.3 40.2,117.0 41.5,116.4 42.8,116.2 44.1,115.9 45.4,115.7 46.6,115.4 47.9,115.1 49.2,114.6 50.5,114.3 51.8,114.1 53.0,114.0 54.3,113.7 55.6,113.4 56.9,113.1 58.2,113.0 59.4,112.8 60.7,111.9 62.0,111.6 63.3,111.2 64.5,110.9 65.8,110.6 67.1,110.3 68.4,110.1 69.7,109.9 70.9,109.7 72.2,109.2 73.5,108.9 74.8,108.6 76.1,108.3 77.3,108.2 78.6,108.1 79.9,108.0 81.2,107.7 82.5,107.5 83.7,107.4 85.0,107.1 86.3,106.6 87.6,106.5 88.9,106.4 90.1,106.2 91.4,105.8 92.7,105.5 94.0,105.1 95.3,104.9 96.5,104.5 97.8,104.4 99.1,104.2 100.4,103.9 101.7,103.5 102.9,103.2 104.2,103.1 105.5,102.9 106.8,102.7 108.1,102.3 109.3,102.0 110.6,101.6 111.9,101.3 113.2,101.1 114.5,101.0 115.7,100.9 117.0,100.6 118.3,100.4 119.6,100.3 120.9,100.1 122.1,100.0 123.4,99.8 124.7,99.7 126.0,99.6 127.3,99.5 128.5,99.1 129.8,98.9 131.1,98.9 132.4,98.7 133.6,98.7 134.9,98.7 136.2,104.8 137.5,104.2 138.8,103.6 140.0,103.0 141.3,101.4 142.6,100.2 143.9,99.0 145.2,98.5 146.4,98.0 147.7,97.1 149.0,96.2 150.3,95.5 151.6,95.3 152.8,95.0 154.1,94.3 155.4,93.9 156.7,93.5 158.0,93.2 159.2,93.0 160.5,92.9 161.8,92.6 163.1,92.0 164.4,91.6 165.6,91.2 166.9,90.7 168.2,90.5 169.5,90.3 170.8,90.0 172.0,89.6 173.3,89.3 174.6,89.0 175.9,88.9 177.2,88.8 178.4,88.6 179.7,88.3 181.0,88.0 182.3,87.8 183.6,87.7 184.8,87.5 186.1,87.3 187.4,87.1 188.7,87.0 190.0,86.8 191.2,86.5 192.5,86.3 193.8,86.0 195.1,85.9 196.4,85.7 197.6,85.6 198.9,85.4 200.2,85.3 201.5,84.8 202.7,84.5 204.0,84.2 205.3,84.0 206.6,84.0 207.9,83.8 209.1,83.6 210.4,83.4 211.7,83.2 213.0,82.9 214.3,82.7 215.5,82.6 216.8,82.5 218.1,82.4 219.4,82.3 220.7,82.1 221.9,81.9 223.2,81.7 224.5,81.5 225.8,81.5 227.1,81.3 228.3,81.2 229.6,81.0 230.9,80.8 232.2,80.6 233.5,80.4 234.7,80.2 236.0,80.1 237.3,80.0 238.6,79.9 239.9,79.6 241.1,79.4 242.4,79.2 243.7,79.0 245.0,78.6 246.3,78.6 247.5,78.5 248.8,78.4 250.1,78.2 251.4,78.0 252.7,77.9 253.9,77.7 255.2,77.6 256.5,77.5 257.8,77.3 259.1,77.2 260.3,77.1 261.6,77.0 262.9,76.7 264.2,76.6 265.5,76.4 266.7,76.3 268.0,76.2 269.3,76.0 270.6,75.9 271.8,75.8 273.1,75.7 274.4,75.4 275.7,75.1 277.0,75.0 278.2,74.8 279.5,74.7 280.8,74.7 282.1,74.5 283.4,74.3 284.6,74.1 285.9,74.0 287.2,73.9 288.5,73.7 289.8,73.6 291.0,73.5 292.3,73.4 293.6,73.1 294.9,73.0 296.2,72.8 297.4,72.6 298.7,72.5 300.0,72.4 301.3,72.4 302.6,72.2 303.8,72.1 305.1,71.9 306.4,71.8 307.7,71.6 309.0,71.5 310.2,71.4 311.5,71.3 312.8,71.2 314.1,71.0 315.4,70.8 316.6,70.6 317.9,70.5 319.2,70.4 320.5,70.3 321.8,70.2 323.0,70.1 324.3,70.0 325.6,69.9 326.9,69.7 328.2,69.5 329.4,69.4 330.7,69.3 332.0,69.2 333.3,69.0 334.5,68.9 335.8,68.8 337.1,68.7 338.4,68.5 339.7,68.4 340.9,68.2 342.2,68.1 343.5,68.0 344.8,67.9 346.1,67.8 347.3,67.7 348.6,67.6 349.9,67.5 351.2,67.5 352.5,67.3 353.7,67.0 355.0,66.8 356.3,70.8 357.6,70.1 358.9,68.5 360.1,68.0 361.4,67.3 362.7,66.4 364.0,65.9 365.3,65.6 366.5,65.1 367.8,64.2 369.1,63.5 370.4,63.3 371.7,63.0 372.9,62.8 374.2,62.3 375.5,61.9 376.8,61.4 378.1,61.2 379.3,60.7 380.6,60.5 381.9,60.2 383.2,60.0 384.5,59.8 385.7,59.6 387.0,59.1 388.3,58.8 389.6,58.4 390.9,57.9 392.1,57.6 393.4,57.4 394.7,57.2 396.0,57.0 397.3,56.7 398.5,56.3 399.8,56.1 401.1,55.3 402.4,54.6 403.6,54.3 404.9,54.2 406.2,53.9 407.5,53.5 408.8,53.1 410.0,52.8 411.3,52.6 412.6,52.3 413.9,52.0 415.2,51.7 416.4,51.4 417.7,51.1 419.0,51.0 420.3,50.8 421.6,50.4 422.8,50.2 424.1,50.0 425.4,49.9 426.7,49.7 428.0,49.5 429.2,49.3 430.5,49.1 431.8,49.0 433.1,48.8 434.4,48.7 435.6,48.4 436.9,48.2 438.2,47.9 439.5,47.6 440.8,47.3 442.0,47.2 443.3,47.0 444.6,46.9 445.9,46.7 447.2,46.5 448.4,46.4 449.7,46.3 451.0,46.1 452.3,45.9 453.6,45.8 454.8,45.6 456.1,45.4 457.4,45.3 458.7,45.1 460.0,44.8 461.2,44.4 462.5,44.2 463.8,44.1 465.1,43.9 466.4,43.6 467.6,43.4 468.9,43.2 470.2,43.0 471.5,42.9 472.7,42.8 474.0,42.6 475.3,42.4 476.6,42.2 477.9,42.1 479.1,41.9 480.4,41.7 481.7,41.5 483.0,41.2 484.3,41.1 485.5,40.8 486.8,40.6 488.1,40.4 489.4,40.3 490.7,40.1 491.9,40.0 493.2,39.8 494.5,39.6 495.8,39.4 497.1,39.3 498.3,39.2 499.6,39.0 500.9,38.9 502.2,38.7 503.5,38.6 504.7,38.5 506.0,38.4 507.3,38.2 508.6,38.1 509.9,37.9 511.1,37.7 512.4,37.6 513.7,37.5 515.0,37.3 516.3,37.1 517.5,37.0 518.8,36.8 520.1,36.7 521.4,36.5 522.7,36.3 523.9,36.0 525.2,35.9 526.5,35.8 527.8,35.8 529.1,35.6 530.3,35.5 531.6,35.2 532.9,35.0 534.2,34.9 535.5,34.7 536.7,34.6 538.0,34.5 539.3,34.3 540.6,34.1 541.8,33.9 543.1,33.7 544.4,33.6 545.7,33.3 547.0,33.1 548.2,33.0 549.5,32.7 550.8,32.6 552.1,32.4 553.4,32.2 554.6,32.0 555.9,31.8 557.2,31.7 558.5,31.5 559.8,31.3 561.0,31.2 562.3,31.0 563.6,30.9 564.9,30.7 566.2,30.5 567.4,30.3 568.7,30.1 570.0,30.0 570.0,30.0,120" />
  
  <!-- Linea principale -->
  <polyline fill="none" stroke="#0366d6" stroke-width="2.5" stroke-linecap="round" stroke-linejoin="round" points="30.0,120.0 31.3,119.5 32.6,119.0 33.8,118.5 35.1,118.4 36.4,118.2 37.7,117.6 39.0,117.3 40.2,117.0 41.5,116.4 42.8,116.2 44.1,115.9 45.4,115.7 46.6,115.4 47.9,115.1 49.2,114.6 50.5,114.3 51.8,114.1 53.0,114.0 54.3,113.7 55.6,113.4 56.9,113.1 58.2,113.0 59.4,112.8 60.7,111.9 62.0,111.6 63.3,111.2 64.5,110.9 65.8,110.6 67.1,110.3 68.4,110.1 69.7,109.9 70.9,109.7 72.2,109.2 73.5,108.9 74.8,108.6 76.1,108.3 77.3,108.2 78.6,108.1 79.9,108.0 81.2,107.7 82.5,107.5 83.7,107.4 85.0,107.1 86.3,106.6 87.6,106.5 88.9,106.4 90.1,106.2 91.4,105.8 92.7,105.5 94.0,105.1 95.3,104.9 96.5,104.5 97.8,104.4 99.1,104.2 100.4,103.9 101.7,103.5 102.9,103.2 104.2,103.1 105.5,102.9 106.8,102.7 108.1,102.3 109.3,102.0 110.6,101.6 111.9,101.3 113.2,101.1 114.5,101.0 115.7,100.9 117.0,100.6 118.3,100.4 119.6,100.3 120.9,100.1 122.1,100.0 123.4,99.8 124.7,99.7 126.0,99.6 127.3,99.5 128.5,99.1 129.8,98.9 131.1,98.9 132.4,98.7 133.6,98.7 134.9,98.7 136.2,104.8 137.5,104.2 138.8,103.6 140.0,103.0 141.3,101.4 142.6,100.2 143.9,99.0 145.2,98.5 146.4,98.0 147.7,97.1 149.0,96.2 150.3,95.5 151.6,95.3 152.8,95.0 154.1,94.3 155.4,93.9 156.7,93.5 158.0,93.2 159.2,93.0 160.5,92.9 161.8,92.6 163.1,92.0 164.4,91.6 165.6,91.2 166.9,90.7 168.2,90.5 169.5,90.3 170.8,90.0 172.0,89.6 173.3,89.3 174.6,89.0 175.9,88.9 177.2,88.8 178.4,88.6 179.7,88.3 181.0,88.0 182.3,87.8 183.6,87.7 184.8,87.5 186.1,87.3 187.4,87.1 188.7,87.0 190.0,86.8 191.2,86.5 192.5,86.3 193.8,86.0 195.1,85.9 196.4,85.7 197.6,85.6 198.9,85.4 200.2,85.3 201.5,84.8 202.7,84.5 204.0,84.2 205.3,84.0 206.6,84.0 207.9,83.8 209.1,83.6 210.4,83.4 211.7,83.2 213.0,82.9 214.3,82.7 215.5,82.6 216.8,82.5 218.1,82.4 219.4,82.3 220.7,82.1 221.9,81.9 223.2,81.7 224.5,81.5 225.8,81.5 227.1,81.3 228.3,81.2 229.6,81.0 230.9,80.8 232.2,80.6 233.5,80.4 234.7,80.2 236.0,80.1 237.3,80.0 238.6,79.9 239.9,79.6 241.1,79.4 242.4,79.2 243.7,79.0 245.0,78.6 246.3,78.6 247.5,78.5 248.8,78.4 250.1,78.2 251.4,78.0 252.7,77.9 253.9,77.7 255.2,77.6 256.5,77.5 257.8,77.3 259.1,77.2 260.3,77.1 261.6,77.0 262.9,76.7 264.2,76.6 265.5,76.4 266.7,76.3 268.0,76.2 269.3,76.0 270.6,75.9 271.8,75.8 273.1,75.7 274.4,75.4 275.7,75.1 277.0,75.0 278.2,74.8 279.5,74.7 280.8,74.7 282.1,74.5 283.4,74.3 284.6,74.1 285.9,74.0 287.2,73.9 288.5,73.7 289.8,73.6 291.0,73.5 292.3,73.4 293.6,73.1 294.9,73.0 296.2,72.8 297.4,72.6 298.7,72.5 300.0,72.4 301.3,72.4 302.6,72.2 303.8,72.1 305.1,71.9 306.4,71.8 307.7,71.6 309.0,71.5 310.2,71.4 311.5,71.3 312.8,71.2 314.1,71.0 315.4,70.8 316.6,70.6 317.9,70.5 319.2,70.4 320.5,70.3 321.8,70.2 323.0,70.1 324.3,70.0 325.6,69.9 326.9,69.7 328.2,69.5 329.4,69.4 330.7,69.3 332.0,69.2 333.3,69.0 334.5,68.9 335.8,68.8 337.1,68.7 338.4,68.5 339.7,68.4 340.9,68.2 342.2,68.1 343.5,68.0 344.8,67.9 346.1,67.8 347.3,67.7 348.6,67.6 349.9,67.5 351.2,67.5 352.5,67.3 353.7,67.0 355.0,66.8 356.3,70.8 357.6,70.1 358.9,68.5 360.1,68.0 361.4,67.3 362.7,66.4 364.0,65.9 365.3,65.6 366.5,65.1 367.8,64.2 369.1,63.5 370.4,63.3 371.7,63.0 372.9,62.8 374.2,62.3 375.5,61.9 376.8,61.4 378.1,61.2 379.3,60.7 380.6,60.5 381.9,60.2 383.2,60.0 384.5,59.8 385.7,59.6 387.0,59.1 388.3,58.8 389.6,58.4 390.9,57.9 392.1,57.6 393.4,57.4 394.7,57.2 396.0,57.0 397.3,56.7 398.5,56.3 399.8,56.1 401.1,55.3 402.4,54.6 403.6,54.3 404.9,54.2 406.2,53.9 407.5,53.5 408.8,53.1 410.0,52.8 411.3,52.6 412.6,52.3 413.9,52.0 415.2,51.7 416.4,51.4 417.7,51.1 419.0,51.0 420.3,50.8 421.6,50.4 422.8,50.2 424.1,50.0 425.4,49.9 426.7,49.7 428.0,49.5 429.2,49.3 430.5,49.1 431.8,49.0 433.1,48.8 434.4,48.7 435.6,48.4 436.9,48.2 438.2,47.9 439.5,47.6 440.8,47.3 442.0,47.2 443.3,47.0 444.6,46.9 445.9,46.7 447.2,46.5 448.4,46.4 449.7,46.3 451.0,46.1 452.3,45.9 453.6,45.8 454.8,45.6 456.1,45.4 457.4,45.3 458.7,45.1 460.0,44.8 461.2,44.4 462.5,44.2 463.8,44.1 465.1,43.9 466.4,43.6 467.6,43.4 468.9,43.2 470.2,43.0 471.5,42.9 472.7,42.8 474.0,42.6 475.3,42.4 476.6,42.2 477.9,42.1 479.1,41.9 480.4,41.7 481.7,41.5 483.0,41.2 484.3,41.1 485.5,40.8 486.8,40.6 488.1,40.4 489.4,40.3 490.7,40.1 491.9,40.0 493.2,39.8 494.5,39.6 495.8,39.4 497.1,39.3 498.3,39.2 499.6,39.0 500.9,38.9 502.2,38.7 503.5,38.6 504.7,38.5 506.0,38.4 507.3,38.2 508.6,38.1 509.9,37.9 511.1,37.7 512.4,37.6 513.7,37.5 515.0,37.3 516.3,37.1 517.5,37.0 518.8,36.8 520.1,36.7 521.4,36.5 522.7,36.3 523.9,36.0 525.2,35.9 526.5,35.8 527.8,35.8 529.1,35.6 530.3,35.5 531.6,35.2 532.9,35.0 534.2,34.9 535.5,34.7 536.7,34.6 538.0,34.5 539.3,34.3 540.6,34.1 541.8,33.9 543.1,33.7 544.4,33.6 545.7,33.3 547.0,33.1 548.2,33.0 549.5,32.7 550.8,32.6 552.1,32.4 553.4,32.2 554.6,32.0 555.9,31.8 557.2,31.7 558.5,31.5 559.8,31.3 561.0,31.2 562.3,31.0 563.6,30.9 564.9,30.7 566.2,30.5 567.4,30.3 568.7,30.1 570.0,30.0" />
  
  <!-- Punto finale luminoso -->
  <circle cx="570.0" cy="30.0" r="4" fill="#ffffff" stroke="#0366d6" stroke-width="2.5" />
</svg>