<svg width="600" height="150" viewBox="0 0 600 150" xmlns="http://www.w3.org/2000/svg">
  <defs>
    <filter id="shadow2" x="-2%" y="-2%" width="104%" height="108%">
      <feDropShadow dx="0" dy="2" stdDeviation="3" flood-opacity="0.1" />
    </filter>
    <linearGradient id="fillGrad" x1="0" y1="0" x2="0" y2="1">
      <stop offset="0%" stop-color="#0366d6" stop-opacity="0.3"/>
      <stop offset="100%" stop-color="#0366d6" stop-opacity="0.02"/>
    </linearGradient>
  </defs>
  <rect width="600" height="150" rx="12" fill="#ffffff" filter="url(#shadow2)" stroke="#e1e4e8" stroke-width="1"/>
  <text x="20" y="24" fill="#2b3137" font-family="-apple-system,BlinkMacSystemFont,'Segoe UI',Helvetica,Arial,sans-serif" font-size="14" font-weight="600">📈 Download Growth (Actual: 86.8k)</text>
  
  <!-- Area sotto la linea -->
  <polygon fill="url(#fillGrad)" points="30.0,120.0,120 30.0,120.0 31.4,119.5 32.7,118.9 34.1,118.5 35.5,118.3 36.9,118.1 38.2,117.5 39.6,117.1 41.0,116.8 42.3,116.2 43.7,115.9 45.1,115.6 46.4,115.5 47.8,115.2 49.2,114.8 50.6,114.3 51.9,114.0 53.3,113.8 54.7,113.6 56.0,113.3 57.4,113.0 58.8,112.7 60.2,112.6 61.5,112.3 62.9,111.4 64.3,111.1 65.6,110.7 67.0,110.4 68.4,110.0 69.7,109.7 71.1,109.5 72.5,109.3 73.9,109.1 75.2,108.6 76.6,108.2 78.0,107.9 79.3,107.6 80.7,107.5 82.1,107.4 83.5,107.3 84.8,107.0 86.2,106.8 87.6,106.7 88.9,106.3 90.3,105.8 91.7,105.7 93.0,105.6 94.4,105.4 95.8,105.0 97.2,104.7 98.5,104.3 99.9,104.0 101.3,103.6 102.6,103.5 104.0,103.3 105.4,102.9 106.8,102.5 108.1,102.2 109.5,102.1 110.9,101.9 112.2,101.8 113.6,101.3 115.0,100.9 116.3,100.6 117.7,100.2 119.1,100.0 120.5,99.9 121.8,99.8 123.2,99.5 124.6,99.3 125.9,99.1 127.3,99.0 128.7,98.9 130.1,98.6 131.4,98.5 132.8,98.4 134.2,98.3 135.5,97.9 136.9,97.7 138.3,97.6 139.6,97.5 141.0,97.4 142.4,97.4 143.8,103.9 145.1,103.2 146.5,102.7 147.9,102.1 149.2,100.3 150.6,99.1 152.0,97.8 153.4,97.3 154.7,96.7 156.1,95.8 157.5,94.8 158.8,94.1 160.2,93.8 161.6,93.6 162.9,92.9 164.3,92.4 165.7,92.0 167.1,91.6 168.4,91.4 169.8,91.4 171.2,91.0 172.5,90.4 173.9,90.0 175.3,89.5 176.6,89.0 178.0,88.8 179.4,88.6 180.8,88.2 182.1,87.9 183.5,87.5 184.9,87.2 186.2,87.1 187.6,87.0 189.0,86.8 190.4,86.5 191.7,86.2 193.1,86.0 194.5,85.8 195.8,85.6 197.2,85.4 198.6,85.3 199.9,85.1 201.3,84.9 202.7,84.6 204.1,84.4 205.4,84.1 206.8,83.9 208.2,83.7 209.5,83.6 210.9,83.4 212.3,83.3 213.7,82.8 215.0,82.5 216.4,82.1 217.8,82.0 219.1,81.9 220.5,81.7 221.9,81.5 223.2,81.3 224.6,81.1 226.0,80.8 227.4,80.6 228.7,80.5 230.1,80.4 231.5,80.2 232.8,80.1 234.2,79.9 235.6,79.8 237.0,79.5 238.3,79.3 239.7,79.3 241.1,79.1 242.4,79.0 243.8,78.8 245.2,78.6 246.5,78.4 247.9,78.2 249.3,78.0 250.7,77.8 252.0,77.7 253.4,77.6 254.8,77.3 256.1,77.0 257.5,76.8 258.9,76.6 260.3,76.3 261.6,76.2 263.0,76.1 264.4,76.0 265.7,75.8 267.1,75.6 268.5,75.5 269.8,75.3 271.2,75.1 272.6,75.0 274.0,74.9 275.3,74.7 276.7,74.7 278.1,74.5 279.4,74.2 280.8,74.1 282.2,73.9 283.6,73.8 284.9,73.7 286.3,73.5 287.7,73.4 289.0,73.3 290.4,73.1 291.8,72.9 293.1,72.6 294.5,72.4 295.9,72.2 297.3,72.1 298.6,72.1 300.0,71.9 301.4,71.6 302.7,71.5 304.1,71.4 305.5,71.2 306.9,71.1 308.2,70.9 309.6,70.8 311.0,70.7 312.3,70.5 313.7,70.3 315.1,70.1 316.4,69.9 317.8,69.8 319.2,69.7 320.6,69.7 321.9,69.5 323.3,69.4 324.7,69.2 326.0,69.0 327.4,68.9 328.8,68.8 330.2,68.6 331.5,68.5 332.9,68.4 334.3,68.2 335.6,68.0 337.0,67.8 338.4,67.6 339.7,67.5 341.1,67.4 342.5,67.3 343.9,67.3 345.2,67.2 346.6,67.0 348.0,66.8 349.3,66.6 350.7,66.5 352.1,66.4 353.5,66.3 354.8,66.1 356.2,66.0 357.6,65.8 358.9,65.7 360.3,65.6 361.7,65.4 363.0,65.3 364.4,65.1 365.8,65.0 367.2,65.0 368.5,64.8 369.9,64.7 371.3,64.6 372.6,64.5 374.0,64.4 375.4,64.3 376.8,64.0 378.1,63.8 379.5,68.0 380.9,67.2 382.2,65.6 383.6,65.0 385.0,64.3 386.3,63.3 387.7,62.9 389.1,62.5 390.5,61.9 391.8,61.0 393.2,60.3 394.6,60.1 395.9,59.8 397.3,59.5 398.7,59.0 400.1,58.5 401.4,58.0 402.8,57.8 404.2,57.3 405.5,57.1 406.9,56.8 408.3,56.6 409.6,56.3 411.0,56.1 412.4,55.6 413.8,55.3 415.1,54.9 416.5,54.3 417.9,54.0 419.2,53.8 420.6,53.6 422.0,53.4 423.4,53.0 424.7,52.7 426.1,52.4 427.5,51.5 428.8,50.9 430.2,50.6 431.6,50.4 432.9,50.1 434.3,49.7 435.7,49.3 437.1,49.0 438.4,48.7 439.8,48.4 441.2,48.1 442.5,47.8 443.9,47.4 445.3,47.2 446.6,47.0 448.0,46.8 449.4,46.5 450.8,46.2 452.1,46.0 453.5,45.9 454.9,45.7 456.2,45.4 457.6,45.3 459.0,45.1 460.4,44.9 461.7,44.7 463.1,44.6 464.5,44.3 465.8,44.1 467.2,43.8 468.6,43.4 469.9,43.1 471.3,43.0 472.7,42.8 474.1,42.7 475.4,42.5 476.8,42.3 478.2,42.1 479.5,42.0 480.9,41.9 482.3,41.7 483.7,41.6 485.0,41.3 486.4,41.2 487.8,41.0 489.1,40.8 490.5,40.5 491.9,40.1 493.2,39.9 494.6,39.7 496.0,39.5 497.4,39.2 498.7,39.0 500.1,38.8 501.5,38.6 502.8,38.5 504.2,38.4 505.6,38.2 507.0,37.9 508.3,37.8 509.7,37.6 511.1,37.4 512.4,37.2 513.8,37.0 515.2,36.7 516.5,36.6 517.9,36.3 519.3,36.0 520.7,35.9 522.0,35.7 523.4,35.6 524.8,35.4 526.1,35.2 527.5,35.0 528.9,34.8 530.3,34.7 531.6,34.5 533.0,34.4 534.4,34.2 535.7,34.1 537.1,33.9 538.5,33.8 539.8,33.7 541.2,33.5 542.6,33.4 544.0,33.2 545.3,33.0 546.7,32.9 548.1,32.7 549.4,32.5 550.8,32.3 552.2,32.2 553.6,32.1 554.9,31.9 556.3,31.7 557.7,31.5 559.0,31.2 560.4,31.1 561.8,31.0 563.1,30.9 564.5,30.8 565.9,30.6 567.3,30.4 568.6,30.1 570.0,30.0 570.0,30.0,120" />
  
  <!-- Linea principale -->
  <polyline fill="none" stroke="#0366d6" stroke-width="2.5" stroke-linecap="round" stroke-linejoin="round" points="30.0,120.0 31.4,119.5 32.7,118.9 34.1,118.5 35.5,118.3 36.9,118.1 38.2,117.5 39.6,117.1 41.0,116.8 42.3,116.2 43.7,115.9 45.1,115.6 46.4,115.5 47.8,115.2 49.2,114.8 50.6,114.3 51.9,114.0 53.3,113.8 54.7,113.6 56.0,113.3 57.4,113.0 58.8,112.7 60.2,112.6 61.5,112.3 62.9,111.4 64.3,111.1 65.6,110.7 67.0,110.4 68.4,110.0 69.7,109.7 71.1,109.5 72.5,109.3 73.9,109.1 75.2,108.6 76.6,108.2 78.0,107.9 79.3,107.6 80.7,107.5 82.1,107.4 83.5,107.3 84.8,107.0 86.2,106.8 87.6,106.7 88.9,106.3 90.3,105.8 91.7,105.7 93.0,105.6 94.4,105.4 95.8,105.0 97.2,104.7 98.5,104.3 99.9,104.0 101.3,103.6 102.6,103.5 104.0,103.3 105.4,102.9 106.8,102.5 108.1,102.2 109.5,102.1 110.9,101.9 112.2,101.8 113.6,101.3 115.0,100.9 116.3,100.6 117.7,100.2 119.1,100.0 120.5,99.9 121.8,99.8 123.2,99.5 124.6,99.3 125.9,99.1 127.3,99.0 128.7,98.9 130.1,98.6 131.4,98.5 132.8,98.4 134.2,98.3 135.5,97.9 136.9,97.7 138.3,97.6 139.6,97.5 141.0,97.4 142.4,97.4 143.8,103.9 145.1,103.2 146.5,102.7 147.9,102.1 149.2,100.3 150.6,99.1 152.0,97.8 153.4,97.3 154.7,96.7 156.1,95.8 157.5,94.8 158.8,94.1 160.2,93.8 161.6,93.6 162.9,92.9 164.3,92.4 165.7,92.0 167.1,91.6 168.4,91.4 169.8,91.4 171.2,91.0 172.5,90.4 173.9,90.0 175.3,89.5 176.6,89.0 178.0,88.8 179.4,88.6 180.8,88.2 182.1,87.9 183.5,87.5 184.9,87.2 186.2,87.1 187.6,87.0 189.0,86.8 190.4,86.5 191.7,86.2 193.1,86.0 194.5,85.8 195.8,85.6 197.2,85.4 198.6,85.3 199.9,85.1 201.3,84.9 202.7,84.6 204.1,84.4 205.4,84.1 206.8,83.9 208.2,83.7 209.5,83.6 210.9,83.4 212.3,83.3 213.7,82.8 215.0,82.5 216.4,82.1 217.8,82.0 219.1,81.9 220.5,81.7 221.9,81.5 223.2,81.3 224.6,81.1 226.0,80.8 227.4,80.6 228.7,80.5 230.1,80.4 231.5,80.2 232.8,80.1 234.2,79.9 235.6,79.8 237.0,79.5 238.3,79.3 239.7,79.3 241.1,79.1 242.4,79.0 243.8,78.8 245.2,78.6 246.5,78.4 247.9,78.2 249.3,78.0 250.7,77.8 252.0,77.7 253.4,77.6 254.8,77.3 256.1,77.0 257.5,76.8 258.9,76.6 260.3,76.3 261.6,76.2 263.0,76.1 264.4,76.0 265.7,75.8 267.1,75.6 268.5,75.5 269.8,75.3 271.2,75.1 272.6,75.0 274.0,74.9 275.3,74.7 276.7,74.7 278.1,74.5 279.4,74.2 280.8,74.1 282.2,73.9 283.6,73.8 284.9,73.7 286.3,73.5 287.7,73.4 289.0,73.3 290.4,73.1 291.8,72.9 293.1,72.6 294.5,72.4 295.9,72.2 297.3,72.1 298.6,72.1 300.0,71.9 301.4,71.6 302.7,71.5 304.1,71.4 305.5,71.2 306.9,71.1 308.2,70.9 309.6,70.8 311.0,70.7 312.3,70.5 313.7,70.3 315.1,70.1 316.4,69.9 317.8,69.8 319.2,69.7 320.6,69.7 321.9,69.5 323.3,69.4 324.7,69.2 326.0,69.0 327.4,68.9 328.8,68.8 330.2,68.6 331.5,68.5 332.9,68.4 334.3,68.2 335.6,68.0 337.0,67.8 338.4,67.6 339.7,67.5 341.1,67.4 342.5,67.3 343.9,67.3 345.2,67.2 346.6,67.0 348.0,66.8 349.3,66.6 350.7,66.5 352.1,66.4 353.5,66.3 354.8,66.1 356.2,66.0 357.6,65.8 358.9,65.7 360.3,65.6 361.7,65.4 363.0,65.3 364.4,65.1 365.8,65.0 367.2,65.0 368.5,64.8 369.9,64.7 371.3,64.6 372.6,64.5 374.0,64.4 375.4,64.3 376.8,64.0 378.1,63.8 379.5,68.0 380.9,67.2 382.2,65.6 383.6,65.0 385.0,64.3 386.3,63.3 387.7,62.9 389.1,62.5 390.5,61.9 391.8,61.0 393.2,60.3 394.6,60.1 395.9,59.8 397.3,59.5 398.7,59.0 400.1,58.5 401.4,58.0 402.8,57.8 404.2,57.3 405.5,57.1 406.9,56.8 408.3,56.6 409.6,56.3 411.0,56.1 412.4,55.6 413.8,55.3 415.1,54.9 416.5,54.3 417.9,54.0 419.2,53.8 420.6,53.6 422.0,53.4 423.4,53.0 424.7,52.7 426.1,52.4 427.5,51.5 428.8,50.9 430.2,50.6 431.6,50.4 432.9,50.1 434.3,49.7 435.7,49.3 437.1,49.0 438.4,48.7 439.8,48.4 441.2,48.1 442.5,47.8 443.9,47.4 445.3,47.2 446.6,47.0 448.0,46.8 449.4,46.5 450.8,46.2 452.1,46.0 453.5,45.9 454.9,45.7 456.2,45.4 457.6,45.3 459.0,45.1 460.4,44.9 461.7,44.7 463.1,44.6 464.5,44.3 465.8,44.1 467.2,43.8 468.6,43.4 469.9,43.1 471.3,43.0 472.7,42.8 474.1,42.7 475.4,42.5 476.8,42.3 478.2,42.1 479.5,42.0 480.9,41.9 482.3,41.7 483.7,41.6 485.0,41.3 486.4,41.2 487.8,41.0 489.1,40.8 490.5,40.5 491.9,40.1 493.2,39.9 494.6,39.7 496.0,39.5 497.4,39.2 498.7,39.0 500.1,38.8 501.5,38.6 502.8,38.5 504.2,38.4 505.6,38.2 507.0,37.9 508.3,37.8 509.7,37.6 511.1,37.4 512.4,37.2 513.8,37.0 515.2,36.7 516.5,36.6 517.9,36.3 519.3,36.0 520.7,35.9 522.0,35.7 523.4,35.6 524.8,35.4 526.1,35.2 527.5,35.0 528.9,34.8 530.3,34.7 531.6,34.5 533.0,34.4 534.4,34.2 535.7,34.1 537.1,33.9 538.5,33.8 539.8,33.7 541.2,33.5 542.6,33.4 544.0,33.2 545.3,33.0 546.7,32.9 548.1,32.7 549.4,32.5 550.8,32.3 552.2,32.2 553.6,32.1 554.9,31.9 556.3,31.7 557.7,31.5 559.0,31.2 560.4,31.1 561.8,31.0 563.1,30.9 564.5,30.8 565.9,30.6 567.3,30.4 568.6,30.1 570.0,30.0" />
  
  <!-- Punto finale luminoso -->
  <circle cx="570.0" cy="30.0" r="4" fill="#ffffff" stroke="#0366d6" stroke-width="2.5" />
</svg>