<svg width="600" height="150" viewBox="0 0 600 150" xmlns="http://www.w3.org/2000/svg">
  <defs>
    <filter id="shadow2" x="-2%" y="-2%" width="104%" height="108%">
      <feDropShadow dx="0" dy="2" stdDeviation="3" flood-opacity="0.1" />
    </filter>
    <linearGradient id="fillGrad" x1="0" y1="0" x2="0" y2="1">
      <stop offset="0%" stop-color="#0366d6" stop-opacity="0.3"/>
      <stop offset="100%" stop-color="#0366d6" stop-opacity="0.02"/>
    </linearGradient>
  </defs>
  <rect width="600" height="150" rx="12" fill="#ffffff" filter="url(#shadow2)" stroke="#e1e4e8" stroke-width="1"/>
  <text x="20" y="24" fill="#2b3137" font-family="-apple-system,BlinkMacSystemFont,'Segoe UI',Helvetica,Arial,sans-serif" font-size="14" font-weight="600">📈 Download Growth (Actual: 74.4k)</text>
  
  <!-- Area sotto la linea -->
  <polygon fill="url(#fillGrad)" points="30.0,120.0,120 30.0,120.0 34.5,118.7 39.1,117.2 43.6,115.9 48.2,115.6 52.7,114.9 57.2,113.4 61.8,112.3 66.3,111.6 70.8,110.0 75.4,109.2 79.9,108.4 84.5,108.0 89.0,107.2 93.5,106.2 98.1,105.0 102.6,104.1 107.1,103.5 111.7,103.1 116.2,102.4 120.8,101.6 125.3,100.8 129.8,100.5 134.4,99.7 138.9,97.2 143.4,96.5 148.0,95.5 152.5,94.5 157.1,93.6 161.6,92.8 166.1,92.2 170.7,91.8 175.2,91.1 179.7,89.9 184.3,88.8 188.8,88.1 193.4,87.2 197.9,87.0 202.4,86.8 207.0,86.4 211.5,85.5 216.1,85.1 220.6,84.7 225.1,83.8 229.7,82.4 234.2,82.1 238.7,81.9 243.3,81.3 247.8,80.2 252.4,79.5 256.9,78.4 261.4,77.6 266.0,76.6 270.5,76.4 275.0,75.8 279.6,74.8 284.1,73.8 288.7,73.0 293.2,72.7 297.7,72.2 302.3,71.7 306.8,70.6 311.3,69.5 315.9,68.6 320.4,67.6 325.0,67.2 329.5,66.9 334.0,66.5 338.6,65.7 343.1,65.2 347.6,64.8 352.2,64.4 356.7,64.0 361.3,63.5 365.8,63.1 370.3,62.9 374.9,62.6 379.4,61.6 383.9,61.0 388.5,60.8 393.0,60.5 397.6,60.3 402.1,60.3 406.6,77.3 411.2,75.7 415.7,74.2 420.3,72.6 424.8,67.9 429.3,64.7 433.9,61.2 438.4,59.9 442.9,58.4 447.5,56.0 452.0,53.4 456.6,51.5 461.1,50.8 465.6,50.1 470.2,48.2 474.7,46.9 479.2,46.0 483.8,44.9 488.3,44.4 492.9,44.3 497.4,43.3 501.9,41.7 506.5,40.5 511.0,39.4 515.5,38.1 520.1,37.5 524.6,37.0 529.2,35.9 533.7,34.9 538.2,34.0 542.8,33.2 547.3,32.9 551.8,32.7 556.4,32.1 560.9,31.2 565.5,30.6 570.0,30.0 570.0,30.0,120" />
  
  <!-- Linea principale -->
  <polyline fill="none" stroke="#0366d6" stroke-width="2.5" stroke-linecap="round" stroke-linejoin="round" points="30.0,120.0 34.5,118.7 39.1,117.2 43.6,115.9 48.2,115.6 52.7,114.9 57.2,113.4 61.8,112.3 66.3,111.6 70.8,110.0 75.4,109.2 79.9,108.4 84.5,108.0 89.0,107.2 93.5,106.2 98.1,105.0 102.6,104.1 107.1,103.5 111.7,103.1 116.2,102.4 120.8,101.6 125.3,100.8 129.8,100.5 134.4,99.7 138.9,97.2 143.4,96.5 148.0,95.5 152.5,94.5 157.1,93.6 161.6,92.8 166.1,92.2 170.7,91.8 175.2,91.1 179.7,89.9 184.3,88.8 188.8,88.1 193.4,87.2 197.9,87.0 202.4,86.8 207.0,86.4 211.5,85.5 216.1,85.1 220.6,84.7 225.1,83.8 229.7,82.4 234.2,82.1 238.7,81.9 243.3,81.3 247.8,80.2 252.4,79.5 256.9,78.4 261.4,77.6 266.0,76.6 270.5,76.4 275.0,75.8 279.6,74.8 284.1,73.8 288.7,73.0 293.2,72.7 297.7,72.2 302.3,71.7 306.8,70.6 311.3,69.5 315.9,68.6 320.4,67.6 325.0,67.2 329.5,66.9 334.0,66.5 338.6,65.7 343.1,65.2 347.6,64.8 352.2,64.4 356.7,64.0 361.3,63.5 365.8,63.1 370.3,62.9 374.9,62.6 379.4,61.6 383.9,61.0 388.5,60.8 393.0,60.5 397.6,60.3 402.1,60.3 406.6,77.3 411.2,75.7 415.7,74.2 420.3,72.6 424.8,67.9 429.3,64.7 433.9,61.2 438.4,59.9 442.9,58.4 447.5,56.0 452.0,53.4 456.6,51.5 461.1,50.8 465.6,50.1 470.2,48.2 474.7,46.9 479.2,46.0 483.8,44.9 488.3,44.4 492.9,44.3 497.4,43.3 501.9,41.7 506.5,40.5 511.0,39.4 515.5,38.1 520.1,37.5 524.6,37.0 529.2,35.9 533.7,34.9 538.2,34.0 542.8,33.2 547.3,32.9 551.8,32.7 556.4,32.1 560.9,31.2 565.5,30.6 570.0,30.0" />
  
  <!-- Punto finale luminoso -->
  <circle cx="570.0" cy="30.0" r="4" fill="#ffffff" stroke="#0366d6" stroke-width="2.5" />
</svg>