<svg width="600" height="150" viewBox="0 0 600 150" xmlns="http://www.w3.org/2000/svg">
  <defs>
    <filter id="shadow2" x="-2%" y="-2%" width="104%" height="108%">
      <feDropShadow dx="0" dy="2" stdDeviation="3" flood-opacity="0.1" />
    </filter>
    <linearGradient id="fillGrad" x1="0" y1="0" x2="0" y2="1">
      <stop offset="0%" stop-color="#0366d6" stop-opacity="0.3"/>
      <stop offset="100%" stop-color="#0366d6" stop-opacity="0.02"/>
    </linearGradient>
  </defs>
  <rect width="600" height="150" rx="12" fill="#ffffff" filter="url(#shadow2)" stroke="#e1e4e8" stroke-width="1"/>
  <text x="20" y="24" fill="#2b3137" font-family="-apple-system,BlinkMacSystemFont,'Segoe UI',Helvetica,Arial,sans-serif" font-size="14" font-weight="600">📈 Download Growth (Actual: 79.2k)</text>
  
  <!-- Area sotto la linea -->
  <polygon fill="url(#fillGrad)" points="30.0,120.0,120 30.0,120.0 32.1,119.2 34.3,118.3 36.4,117.5 38.6,117.3 40.7,116.9 42.9,116.0 45.0,115.3 47.1,114.9 49.3,113.9 51.4,113.4 53.6,112.9 55.7,112.7 57.9,112.2 60.0,111.6 62.1,110.9 64.3,110.3 66.4,109.9 68.6,109.7 70.7,109.3 72.9,108.7 75.0,108.3 77.1,108.1 79.3,107.6 81.4,106.1 83.6,105.6 85.7,105.0 87.9,104.4 90.0,103.9 92.1,103.4 94.3,103.0 96.4,102.8 98.6,102.3 100.7,101.6 102.9,101.0 105.0,100.5 107.1,100.0 109.3,99.8 111.4,99.7 113.6,99.5 115.7,99.0 117.9,98.7 120.0,98.5 122.1,97.9 124.3,97.1 126.4,96.9 128.6,96.7 130.7,96.4 132.9,95.7 135.0,95.3 137.1,94.6 139.3,94.1 141.4,93.5 143.6,93.4 145.7,93.0 147.9,92.4 150.0,91.8 152.1,91.3 154.3,91.1 156.4,90.8 158.6,90.5 160.7,89.8 162.9,89.2 165.0,88.6 167.1,88.0 169.3,87.7 171.4,87.6 173.6,87.3 175.7,86.8 177.9,86.5 180.0,86.3 182.1,86.0 184.3,85.8 186.4,85.5 188.6,85.3 190.7,85.1 192.9,85.0 195.0,84.3 197.1,84.0 199.3,83.9 201.4,83.6 203.6,83.5 205.7,83.5 207.9,93.9 210.0,92.9 212.1,92.0 214.3,91.0 216.4,88.2 218.6,86.2 220.7,84.1 222.9,83.3 225.0,82.4 227.1,80.9 229.3,79.3 231.4,78.2 233.6,77.7 235.7,77.3 237.9,76.2 240.0,75.3 242.1,74.8 244.3,74.1 246.4,73.9 248.6,73.7 250.7,73.1 252.9,72.2 255.0,71.5 257.1,70.8 259.3,70.0 261.4,69.6 263.6,69.3 265.7,68.7 267.9,68.0 270.0,67.5 272.1,67.0 274.3,66.8 276.4,66.7 278.6,66.3 280.7,65.8 282.9,65.4 285.0,65.0 287.1,64.7 289.3,64.4 291.4,64.1 293.6,63.9 295.7,63.6 297.9,63.4 300.0,62.8 302.1,62.4 304.3,61.9 306.4,61.7 308.6,61.4 310.7,61.2 312.9,60.9 315.0,60.7 317.1,59.9 319.3,59.4 321.4,58.8 323.6,58.5 325.7,58.5 327.9,58.2 330.0,57.8 332.1,57.5 334.3,57.1 336.4,56.6 338.6,56.3 340.7,56.2 342.9,55.9 345.0,55.7 347.1,55.5 349.3,55.2 351.4,55.0 353.6,54.5 355.7,54.3 357.9,54.1 360.0,53.9 362.1,53.8 364.3,53.4 366.4,53.1 368.6,52.7 370.7,52.4 372.9,52.1 375.0,51.8 377.1,51.7 379.3,51.5 381.4,51.0 383.6,50.6 385.7,50.2 387.9,49.9 390.0,49.3 392.1,49.2 394.3,49.0 396.4,48.9 398.6,48.6 400.7,48.3 402.9,48.0 405.0,47.8 407.1,47.5 409.3,47.3 411.4,47.0 413.6,46.9 415.7,46.7 417.9,46.4 420.0,46.0 422.1,45.8 424.3,45.5 426.4,45.3 428.6,45.1 430.7,44.9 432.9,44.7 435.0,44.5 437.1,44.3 439.3,43.8 441.4,43.3 443.6,43.0 445.7,42.8 447.9,42.7 450.0,42.6 452.1,42.3 454.3,41.8 456.4,41.6 458.6,41.5 460.7,41.2 462.9,40.9 465.0,40.6 467.1,40.5 469.3,40.3 471.4,39.9 473.6,39.7 475.7,39.3 477.9,39.0 480.0,38.8 482.1,38.7 484.3,38.6 486.4,38.4 488.6,38.2 490.7,37.9 492.9,37.6 495.0,37.4 497.1,37.2 499.3,37.0 501.4,36.8 503.6,36.6 505.7,36.2 507.9,35.9 510.0,35.6 512.1,35.4 514.3,35.2 516.4,35.0 518.6,34.9 520.7,34.8 522.9,34.6 525.0,34.4 527.1,34.0 529.3,33.8 531.4,33.5 533.6,33.4 535.7,33.2 537.9,32.9 540.0,32.7 542.1,32.5 544.3,32.3 546.4,32.1 548.6,31.8 550.7,31.6 552.9,31.3 555.0,31.2 557.1,31.1 559.3,30.9 561.4,30.7 563.6,30.5 565.7,30.3 567.9,30.2 570.0,30.0 570.0,30.0,120" />
  
  <!-- Linea principale -->
  <polyline fill="none" stroke="#0366d6" stroke-width="2.5" stroke-linecap="round" stroke-linejoin="round" points="30.0,120.0 32.1,119.2 34.3,118.3 36.4,117.5 38.6,117.3 40.7,116.9 42.9,116.0 45.0,115.3 47.1,114.9 49.3,113.9 51.4,113.4 53.6,112.9 55.7,112.7 57.9,112.2 60.0,111.6 62.1,110.9 64.3,110.3 66.4,109.9 68.6,109.7 70.7,109.3 72.9,108.7 75.0,108.3 77.1,108.1 79.3,107.6 81.4,106.1 83.6,105.6 85.7,105.0 87.9,104.4 90.0,103.9 92.1,103.4 94.3,103.0 96.4,102.8 98.6,102.3 100.7,101.6 102.9,101.0 105.0,100.5 107.1,100.0 109.3,99.8 111.4,99.7 113.6,99.5 115.7,99.0 117.9,98.7 120.0,98.5 122.1,97.9 124.3,97.1 126.4,96.9 128.6,96.7 130.7,96.4 132.9,95.7 135.0,95.3 137.1,94.6 139.3,94.1 141.4,93.5 143.6,93.4 145.7,93.0 147.9,92.4 150.0,91.8 152.1,91.3 154.3,91.1 156.4,90.8 158.6,90.5 160.7,89.8 162.9,89.2 165.0,88.6 167.1,88.0 169.3,87.7 171.4,87.6 173.6,87.3 175.7,86.8 177.9,86.5 180.0,86.3 182.1,86.0 184.3,85.8 186.4,85.5 188.6,85.3 190.7,85.1 192.9,85.0 195.0,84.3 197.1,84.0 199.3,83.9 201.4,83.6 203.6,83.5 205.7,83.5 207.9,93.9 210.0,92.9 212.1,92.0 214.3,91.0 216.4,88.2 218.6,86.2 220.7,84.1 222.9,83.3 225.0,82.4 227.1,80.9 229.3,79.3 231.4,78.2 233.6,77.7 235.7,77.3 237.9,76.2 240.0,75.3 242.1,74.8 244.3,74.1 246.4,73.9 248.6,73.7 250.7,73.1 252.9,72.2 255.0,71.5 257.1,70.8 259.3,70.0 261.4,69.6 263.6,69.3 265.7,68.7 267.9,68.0 270.0,67.5 272.1,67.0 274.3,66.8 276.4,66.7 278.6,66.3 280.7,65.8 282.9,65.4 285.0,65.0 287.1,64.7 289.3,64.4 291.4,64.1 293.6,63.9 295.7,63.6 297.9,63.4 300.0,62.8 302.1,62.4 304.3,61.9 306.4,61.7 308.6,61.4 310.7,61.2 312.9,60.9 315.0,60.7 317.1,59.9 319.3,59.4 321.4,58.8 323.6,58.5 325.7,58.5 327.9,58.2 330.0,57.8 332.1,57.5 334.3,57.1 336.4,56.6 338.6,56.3 340.7,56.2 342.9,55.9 345.0,55.7 347.1,55.5 349.3,55.2 351.4,55.0 353.6,54.5 355.7,54.3 357.9,54.1 360.0,53.9 362.1,53.8 364.3,53.4 366.4,53.1 368.6,52.7 370.7,52.4 372.9,52.1 375.0,51.8 377.1,51.7 379.3,51.5 381.4,51.0 383.6,50.6 385.7,50.2 387.9,49.9 390.0,49.3 392.1,49.2 394.3,49.0 396.4,48.9 398.6,48.6 400.7,48.3 402.9,48.0 405.0,47.8 407.1,47.5 409.3,47.3 411.4,47.0 413.6,46.9 415.7,46.7 417.9,46.4 420.0,46.0 422.1,45.8 424.3,45.5 426.4,45.3 428.6,45.1 430.7,44.9 432.9,44.7 435.0,44.5 437.1,44.3 439.3,43.8 441.4,43.3 443.6,43.0 445.7,42.8 447.9,42.7 450.0,42.6 452.1,42.3 454.3,41.8 456.4,41.6 458.6,41.5 460.7,41.2 462.9,40.9 465.0,40.6 467.1,40.5 469.3,40.3 471.4,39.9 473.6,39.7 475.7,39.3 477.9,39.0 480.0,38.8 482.1,38.7 484.3,38.6 486.4,38.4 488.6,38.2 490.7,37.9 492.9,37.6 495.0,37.4 497.1,37.2 499.3,37.0 501.4,36.8 503.6,36.6 505.7,36.2 507.9,35.9 510.0,35.6 512.1,35.4 514.3,35.2 516.4,35.0 518.6,34.9 520.7,34.8 522.9,34.6 525.0,34.4 527.1,34.0 529.3,33.8 531.4,33.5 533.6,33.4 535.7,33.2 537.9,32.9 540.0,32.7 542.1,32.5 544.3,32.3 546.4,32.1 548.6,31.8 550.7,31.6 552.9,31.3 555.0,31.2 557.1,31.1 559.3,30.9 561.4,30.7 563.6,30.5 565.7,30.3 567.9,30.2 570.0,30.0" />
  
  <!-- Punto finale luminoso -->
  <circle cx="570.0" cy="30.0" r="4" fill="#ffffff" stroke="#0366d6" stroke-width="2.5" />
</svg>