<svg width="600" height="150" viewBox="0 0 600 150" xmlns="http://www.w3.org/2000/svg">
  <defs>
    <filter id="shadow2" x="-2%" y="-2%" width="104%" height="108%">
      <feDropShadow dx="0" dy="2" stdDeviation="3" flood-opacity="0.1" />
    </filter>
    <linearGradient id="fillGrad" x1="0" y1="0" x2="0" y2="1">
      <stop offset="0%" stop-color="#0366d6" stop-opacity="0.3"/>
      <stop offset="100%" stop-color="#0366d6" stop-opacity="0.02"/>
    </linearGradient>
  </defs>
  <rect width="600" height="150" rx="12" fill="#ffffff" filter="url(#shadow2)" stroke="#e1e4e8" stroke-width="1"/>
  <text x="20" y="24" fill="#2b3137" font-family="-apple-system,BlinkMacSystemFont,'Segoe UI',Helvetica,Arial,sans-serif" font-size="14" font-weight="600">📈 Download Growth (Actual: 76.2k)</text>
  
  <!-- Area sotto la linea -->
  <polygon fill="url(#fillGrad)" points="30.0,120.0,120 30.0,120.0 33.3,118.9 36.7,117.7 40.0,116.7 43.3,116.5 46.7,115.9 50.0,114.7 53.3,113.8 56.7,113.3 60.0,112.0 63.3,111.3 66.7,110.7 70.0,110.3 73.3,109.7 76.7,108.9 80.0,107.9 83.3,107.2 86.7,106.8 90.0,106.4 93.3,105.8 96.7,105.2 100.0,104.6 103.3,104.3 106.7,103.7 110.0,101.7 113.3,101.1 116.7,100.3 120.0,99.5 123.3,98.8 126.7,98.1 130.0,97.6 133.3,97.3 136.7,96.7 140.0,95.7 143.3,94.9 146.7,94.3 150.0,93.6 153.3,93.5 156.7,93.3 160.0,92.9 163.3,92.3 166.7,91.9 170.0,91.6 173.3,90.9 176.7,89.8 180.0,89.5 183.3,89.3 186.7,88.9 190.0,88.0 193.3,87.4 196.7,86.5 200.0,85.9 203.3,85.1 206.7,84.9 210.0,84.5 213.3,83.6 216.7,82.8 220.0,82.2 223.3,81.9 226.7,81.5 230.0,81.1 233.3,80.2 236.7,79.4 240.0,78.6 243.3,77.9 246.7,77.5 250.0,77.3 253.3,76.9 256.7,76.3 260.0,75.9 263.3,75.5 266.7,75.3 270.0,75.0 273.3,74.5 276.7,74.2 280.0,74.0 283.3,73.8 286.7,73.0 290.0,72.5 293.3,72.4 296.7,72.1 300.0,71.9 303.3,71.9 306.7,85.7 310.0,84.3 313.3,83.1 316.7,81.8 320.0,78.1 323.3,75.5 326.7,72.7 330.0,71.6 333.3,70.4 336.7,68.5 340.0,66.4 343.3,64.9 346.7,64.3 350.0,63.8 353.3,62.3 356.7,61.2 360.0,60.5 363.3,59.6 366.7,59.2 370.0,59.1 373.3,58.3 376.7,57.0 380.0,56.1 383.3,55.1 386.7,54.1 390.0,53.6 393.3,53.2 396.7,52.4 400.0,51.6 403.3,50.8 406.7,50.2 410.0,49.9 413.3,49.7 416.7,49.2 420.0,48.6 423.3,48.1 426.7,47.6 430.0,47.2 433.3,46.8 436.7,46.4 440.0,46.0 443.3,45.7 446.7,45.4 450.0,44.7 453.3,44.1 456.7,43.5 460.0,43.2 463.3,42.7 466.7,42.5 470.0,42.2 473.3,41.8 476.7,40.8 480.0,40.2 483.3,39.4 486.7,39.0 490.0,38.9 493.3,38.6 496.7,38.1 500.0,37.6 503.3,37.1 506.7,36.5 510.0,36.1 513.3,35.9 516.7,35.6 520.0,35.3 523.3,35.1 526.7,34.6 530.0,34.3 533.3,33.7 536.7,33.4 540.0,33.2 543.3,33.0 546.7,32.8 550.0,32.3 553.3,31.8 556.7,31.4 560.0,30.9 563.3,30.5 566.7,30.2 570.0,30.0 570.0,30.0,120" />
  
  <!-- Linea principale -->
  <polyline fill="none" stroke="#0366d6" stroke-width="2.5" stroke-linecap="round" stroke-linejoin="round" points="30.0,120.0 33.3,118.9 36.7,117.7 40.0,116.7 43.3,116.5 46.7,115.9 50.0,114.7 53.3,113.8 56.7,113.3 60.0,112.0 63.3,111.3 66.7,110.7 70.0,110.3 73.3,109.7 76.7,108.9 80.0,107.9 83.3,107.2 86.7,106.8 90.0,106.4 93.3,105.8 96.7,105.2 100.0,104.6 103.3,104.3 106.7,103.7 110.0,101.7 113.3,101.1 116.7,100.3 120.0,99.5 123.3,98.8 126.7,98.1 130.0,97.6 133.3,97.3 136.7,96.7 140.0,95.7 143.3,94.9 146.7,94.3 150.0,93.6 153.3,93.5 156.7,93.3 160.0,92.9 163.3,92.3 166.7,91.9 170.0,91.6 173.3,90.9 176.7,89.8 180.0,89.5 183.3,89.3 186.7,88.9 190.0,88.0 193.3,87.4 196.7,86.5 200.0,85.9 203.3,85.1 206.7,84.9 210.0,84.5 213.3,83.6 216.7,82.8 220.0,82.2 223.3,81.9 226.7,81.5 230.0,81.1 233.3,80.2 236.7,79.4 240.0,78.6 243.3,77.9 246.7,77.5 250.0,77.3 253.3,76.9 256.7,76.3 260.0,75.9 263.3,75.5 266.7,75.3 270.0,75.0 273.3,74.5 276.7,74.2 280.0,74.0 283.3,73.8 286.7,73.0 290.0,72.5 293.3,72.4 296.7,72.1 300.0,71.9 303.3,71.9 306.7,85.7 310.0,84.3 313.3,83.1 316.7,81.8 320.0,78.1 323.3,75.5 326.7,72.7 330.0,71.6 333.3,70.4 336.7,68.5 340.0,66.4 343.3,64.9 346.7,64.3 350.0,63.8 353.3,62.3 356.7,61.2 360.0,60.5 363.3,59.6 366.7,59.2 370.0,59.1 373.3,58.3 376.7,57.0 380.0,56.1 383.3,55.1 386.7,54.1 390.0,53.6 393.3,53.2 396.7,52.4 400.0,51.6 403.3,50.8 406.7,50.2 410.0,49.9 413.3,49.7 416.7,49.2 420.0,48.6 423.3,48.1 426.7,47.6 430.0,47.2 433.3,46.8 436.7,46.4 440.0,46.0 443.3,45.7 446.7,45.4 450.0,44.7 453.3,44.1 456.7,43.5 460.0,43.2 463.3,42.7 466.7,42.5 470.0,42.2 473.3,41.8 476.7,40.8 480.0,40.2 483.3,39.4 486.7,39.0 490.0,38.9 493.3,38.6 496.7,38.1 500.0,37.6 503.3,37.1 506.7,36.5 510.0,36.1 513.3,35.9 516.7,35.6 520.0,35.3 523.3,35.1 526.7,34.6 530.0,34.3 533.3,33.7 536.7,33.4 540.0,33.2 543.3,33.0 546.7,32.8 550.0,32.3 553.3,31.8 556.7,31.4 560.0,30.9 563.3,30.5 566.7,30.2 570.0,30.0" />
  
  <!-- Punto finale luminoso -->
  <circle cx="570.0" cy="30.0" r="4" fill="#ffffff" stroke="#0366d6" stroke-width="2.5" />
</svg>