<svg width="600" height="150" viewBox="0 0 600 150" xmlns="http://www.w3.org/2000/svg">
  <defs>
    <filter id="shadow2" x="-2%" y="-2%" width="104%" height="108%">
      <feDropShadow dx="0" dy="2" stdDeviation="3" flood-opacity="0.1" />
    </filter>
    <linearGradient id="fillGrad" x1="0" y1="0" x2="0" y2="1">
      <stop offset="0%" stop-color="#0366d6" stop-opacity="0.3"/>
      <stop offset="100%" stop-color="#0366d6" stop-opacity="0.02"/>
    </linearGradient>
  </defs>
  <rect width="600" height="150" rx="12" fill="#ffffff" filter="url(#shadow2)" stroke="#e1e4e8" stroke-width="1"/>
  <text x="20" y="24" fill="#2b3137" font-family="-apple-system,BlinkMacSystemFont,'Segoe UI',Helvetica,Arial,sans-serif" font-size="14" font-weight="600">📈 Download Growth (Actual: 82.4k)</text>
  
  <!-- Area sotto la linea -->
  <polygon fill="url(#fillGrad)" points="30.0,120.0,120 30.0,120.0 31.8,119.4 33.7,118.6 35.5,118.0 37.3,117.9 39.2,117.5 41.0,116.8 42.8,116.3 44.6,116.0 46.5,115.2 48.3,114.8 50.1,114.4 52.0,114.2 53.8,113.8 55.6,113.3 57.5,112.8 59.3,112.3 61.1,112.0 62.9,111.8 64.8,111.5 66.6,111.1 68.4,110.7 70.3,110.5 72.1,110.2 73.9,109.0 75.8,108.6 77.6,108.1 79.4,107.7 81.3,107.2 83.1,106.8 84.9,106.6 86.7,106.4 88.6,106.0 90.4,105.4 92.2,104.9 94.1,104.6 95.9,104.2 97.7,104.0 99.6,103.9 101.4,103.7 103.2,103.3 105.1,103.1 106.9,102.9 108.7,102.5 110.5,101.8 112.4,101.7 114.2,101.6 116.0,101.3 117.9,100.8 119.7,100.4 121.5,99.9 123.4,99.5 125.2,99.0 127.0,98.9 128.8,98.6 130.7,98.2 132.5,97.7 134.3,97.3 136.2,97.1 138.0,96.9 139.8,96.7 141.7,96.1 143.5,95.6 145.3,95.1 147.2,94.7 149.0,94.5 150.8,94.3 152.6,94.1 154.5,93.7 156.3,93.5 158.1,93.3 160.0,93.1 161.8,92.9 163.6,92.7 165.5,92.5 167.3,92.4 169.1,92.3 170.9,91.8 172.8,91.5 174.6,91.4 176.4,91.2 178.3,91.1 180.1,91.1 181.9,99.4 183.8,98.6 185.6,97.8 187.4,97.1 189.3,94.8 191.1,93.2 192.9,91.6 194.7,90.9 196.6,90.2 198.4,89.1 200.2,87.8 202.1,86.9 203.9,86.5 205.7,86.2 207.6,85.3 209.4,84.6 211.2,84.2 213.1,83.7 214.9,83.5 216.7,83.4 218.5,82.9 220.4,82.1 222.2,81.6 224.0,81.0 225.9,80.4 227.7,80.1 229.5,79.9 231.4,79.3 233.2,78.9 235.0,78.4 236.8,78.0 238.7,77.9 240.5,77.8 242.3,77.5 244.2,77.1 246.0,76.8 247.8,76.5 249.7,76.2 251.5,76.0 253.3,75.8 255.2,75.6 257.0,75.4 258.8,75.2 260.6,74.7 262.5,74.4 264.3,74.0 266.1,73.8 268.0,73.6 269.8,73.4 271.6,73.2 273.5,73.0 275.3,72.4 277.1,72.0 278.9,71.5 280.8,71.3 282.6,71.3 284.4,71.1 286.3,70.8 288.1,70.5 289.9,70.2 291.8,69.8 293.6,69.6 295.4,69.5 297.3,69.3 299.1,69.1 300.9,69.0 302.7,68.7 304.6,68.5 306.4,68.1 308.2,68.0 310.1,67.9 311.9,67.7 313.7,67.6 315.6,67.3 317.4,67.0 319.2,66.7 321.1,66.5 322.9,66.2 324.7,66.0 326.5,65.9 328.4,65.7 330.2,65.4 332.0,65.0 333.9,64.8 335.7,64.5 337.5,64.1 339.4,64.0 341.2,63.8 343.0,63.7 344.8,63.5 346.7,63.3 348.5,63.0 350.3,62.8 352.2,62.6 354.0,62.4 355.8,62.2 357.7,62.1 359.5,62.0 361.3,61.8 363.2,61.4 365.0,61.3 366.8,61.0 368.6,60.9 370.5,60.7 372.3,60.5 374.1,60.4 376.0,60.2 377.8,60.0 379.6,59.7 381.5,59.3 383.3,59.1 385.1,58.9 386.9,58.8 388.8,58.7 390.6,58.5 392.4,58.1 394.3,58.0 396.1,57.8 397.9,57.6 399.8,57.4 401.6,57.2 403.4,57.0 405.3,56.9 407.1,56.6 408.9,56.4 410.7,56.1 412.6,55.9 414.4,55.7 416.2,55.7 418.1,55.6 419.9,55.4 421.7,55.2 423.6,55.0 425.4,54.8 427.2,54.6 429.1,54.4 430.9,54.3 432.7,54.1 434.5,54.0 436.4,53.7 438.2,53.4 440.0,53.2 441.9,53.0 443.7,52.9 445.5,52.7 447.4,52.6 449.2,52.5 451.0,52.4 452.8,52.2 454.7,51.9 456.5,51.7 458.3,51.5 460.2,51.4 462.0,51.2 463.8,51.1 465.7,50.9 467.5,50.7 469.3,50.6 471.2,50.4 473.0,50.2 474.8,50.0 476.6,49.8 478.5,49.7 480.3,49.6 482.1,49.4 484.0,49.3 485.8,49.1 487.6,49.0 489.5,48.9 491.3,48.7 493.1,48.4 494.9,48.1 496.8,53.5 498.6,52.4 500.4,50.4 502.3,49.6 504.1,48.7 505.9,47.5 507.8,46.9 509.6,46.4 511.4,45.7 513.3,44.5 515.1,43.6 516.9,43.4 518.7,42.9 520.6,42.6 522.4,41.9 524.2,41.4 526.1,40.7 527.9,40.4 529.7,39.8 531.6,39.5 533.4,39.1 535.2,38.8 537.1,38.5 538.9,38.2 540.7,37.6 542.5,37.2 544.4,36.7 546.2,36.0 548.0,35.5 549.9,35.3 551.7,35.1 553.5,34.8 555.4,34.3 557.2,33.9 559.0,33.5 560.8,32.4 562.7,31.6 564.5,31.2 566.3,30.9 568.2,30.6 570.0,30.0 570.0,30.0,120" />
  
  <!-- Linea principale -->
  <polyline fill="none" stroke="#0366d6" stroke-width="2.5" stroke-linecap="round" stroke-linejoin="round" points="30.0,120.0 31.8,119.4 33.7,118.6 35.5,118.0 37.3,117.9 39.2,117.5 41.0,116.8 42.8,116.3 44.6,116.0 46.5,115.2 48.3,114.8 50.1,114.4 52.0,114.2 53.8,113.8 55.6,113.3 57.5,112.8 59.3,112.3 61.1,112.0 62.9,111.8 64.8,111.5 66.6,111.1 68.4,110.7 70.3,110.5 72.1,110.2 73.9,109.0 75.8,108.6 77.6,108.1 79.4,107.7 81.3,107.2 83.1,106.8 84.9,106.6 86.7,106.4 88.6,106.0 90.4,105.4 92.2,104.9 94.1,104.6 95.9,104.2 97.7,104.0 99.6,103.9 101.4,103.7 103.2,103.3 105.1,103.1 106.9,102.9 108.7,102.5 110.5,101.8 112.4,101.7 114.2,101.6 116.0,101.3 117.9,100.8 119.7,100.4 121.5,99.9 123.4,99.5 125.2,99.0 127.0,98.9 128.8,98.6 130.7,98.2 132.5,97.7 134.3,97.3 136.2,97.1 138.0,96.9 139.8,96.7 141.7,96.1 143.5,95.6 145.3,95.1 147.2,94.7 149.0,94.5 150.8,94.3 152.6,94.1 154.5,93.7 156.3,93.5 158.1,93.3 160.0,93.1 161.8,92.9 163.6,92.7 165.5,92.5 167.3,92.4 169.1,92.3 170.9,91.8 172.8,91.5 174.6,91.4 176.4,91.2 178.3,91.1 180.1,91.1 181.9,99.4 183.8,98.6 185.6,97.8 187.4,97.1 189.3,94.8 191.1,93.2 192.9,91.6 194.7,90.9 196.6,90.2 198.4,89.1 200.2,87.8 202.1,86.9 203.9,86.5 205.7,86.2 207.6,85.3 209.4,84.6 211.2,84.2 213.1,83.7 214.9,83.5 216.7,83.4 218.5,82.9 220.4,82.1 222.2,81.6 224.0,81.0 225.9,80.4 227.7,80.1 229.5,79.9 231.4,79.3 233.2,78.9 235.0,78.4 236.8,78.0 238.7,77.9 240.5,77.8 242.3,77.5 244.2,77.1 246.0,76.8 247.8,76.5 249.7,76.2 251.5,76.0 253.3,75.8 255.2,75.6 257.0,75.4 258.8,75.2 260.6,74.7 262.5,74.4 264.3,74.0 266.1,73.8 268.0,73.6 269.8,73.4 271.6,73.2 273.5,73.0 275.3,72.4 277.1,72.0 278.9,71.5 280.8,71.3 282.6,71.3 284.4,71.1 286.3,70.8 288.1,70.5 289.9,70.2 291.8,69.8 293.6,69.6 295.4,69.5 297.3,69.3 299.1,69.1 300.9,69.0 302.7,68.7 304.6,68.5 306.4,68.1 308.2,68.0 310.1,67.9 311.9,67.7 313.7,67.6 315.6,67.3 317.4,67.0 319.2,66.7 321.1,66.5 322.9,66.2 324.7,66.0 326.5,65.9 328.4,65.7 330.2,65.4 332.0,65.0 333.9,64.8 335.7,64.5 337.5,64.1 339.4,64.0 341.2,63.8 343.0,63.7 344.8,63.5 346.7,63.3 348.5,63.0 350.3,62.8 352.2,62.6 354.0,62.4 355.8,62.2 357.7,62.1 359.5,62.0 361.3,61.8 363.2,61.4 365.0,61.3 366.8,61.0 368.6,60.9 370.5,60.7 372.3,60.5 374.1,60.4 376.0,60.2 377.8,60.0 379.6,59.7 381.5,59.3 383.3,59.1 385.1,58.9 386.9,58.8 388.8,58.7 390.6,58.5 392.4,58.1 394.3,58.0 396.1,57.8 397.9,57.6 399.8,57.4 401.6,57.2 403.4,57.0 405.3,56.9 407.1,56.6 408.9,56.4 410.7,56.1 412.6,55.9 414.4,55.7 416.2,55.7 418.1,55.6 419.9,55.4 421.7,55.2 423.6,55.0 425.4,54.8 427.2,54.6 429.1,54.4 430.9,54.3 432.7,54.1 434.5,54.0 436.4,53.7 438.2,53.4 440.0,53.2 441.9,53.0 443.7,52.9 445.5,52.7 447.4,52.6 449.2,52.5 451.0,52.4 452.8,52.2 454.7,51.9 456.5,51.7 458.3,51.5 460.2,51.4 462.0,51.2 463.8,51.1 465.7,50.9 467.5,50.7 469.3,50.6 471.2,50.4 473.0,50.2 474.8,50.0 476.6,49.8 478.5,49.7 480.3,49.6 482.1,49.4 484.0,49.3 485.8,49.1 487.6,49.0 489.5,48.9 491.3,48.7 493.1,48.4 494.9,48.1 496.8,53.5 498.6,52.4 500.4,50.4 502.3,49.6 504.1,48.7 505.9,47.5 507.8,46.9 509.6,46.4 511.4,45.7 513.3,44.5 515.1,43.6 516.9,43.4 518.7,42.9 520.6,42.6 522.4,41.9 524.2,41.4 526.1,40.7 527.9,40.4 529.7,39.8 531.6,39.5 533.4,39.1 535.2,38.8 537.1,38.5 538.9,38.2 540.7,37.6 542.5,37.2 544.4,36.7 546.2,36.0 548.0,35.5 549.9,35.3 551.7,35.1 553.5,34.8 555.4,34.3 557.2,33.9 559.0,33.5 560.8,32.4 562.7,31.6 564.5,31.2 566.3,30.9 568.2,30.6 570.0,30.0" />
  
  <!-- Punto finale luminoso -->
  <circle cx="570.0" cy="30.0" r="4" fill="#ffffff" stroke="#0366d6" stroke-width="2.5" />
</svg>