<svg width="600" height="150" viewBox="0 0 600 150" xmlns="http://www.w3.org/2000/svg">
  <defs>
    <filter id="shadow2" x="-2%" y="-2%" width="104%" height="108%">
      <feDropShadow dx="0" dy="2" stdDeviation="3" flood-opacity="0.1" />
    </filter>
    <linearGradient id="fillGrad" x1="0" y1="0" x2="0" y2="1">
      <stop offset="0%" stop-color="#0366d6" stop-opacity="0.3"/>
      <stop offset="100%" stop-color="#0366d6" stop-opacity="0.02"/>
    </linearGradient>
  </defs>
  <rect width="600" height="150" rx="12" fill="#ffffff" filter="url(#shadow2)" stroke="#e1e4e8" stroke-width="1"/>
  <text x="20" y="24" fill="#2b3137" font-family="-apple-system,BlinkMacSystemFont,'Segoe UI',Helvetica,Arial,sans-serif" font-size="14" font-weight="600">📈 Download Growth (Actual: 73.2k)</text>
  
  <!-- Area sotto la linea -->
  <polygon fill="url(#fillGrad)" points="30.0,120.0,120 30.0,120.0 35.3,118.4 40.7,116.7 46.0,115.2 51.4,114.8 56.7,114.0 62.1,112.1 67.4,110.9 72.8,110.0 78.1,108.1 83.5,107.2 88.8,106.2 94.2,105.7 99.5,104.8 104.9,103.5 110.2,102.2 115.5,101.1 120.9,100.4 126.2,99.9 131.6,99.0 136.9,98.0 142.3,97.1 147.6,96.7 153.0,95.9 158.3,92.9 163.7,92.0 169.0,90.8 174.4,89.6 179.7,88.6 185.0,87.6 190.4,86.9 195.7,86.4 201.1,85.6 206.4,84.1 211.8,82.8 217.1,82.0 222.5,81.0 227.8,80.7 233.2,80.4 238.5,79.9 243.9,79.0 249.2,78.4 254.6,78.0 259.9,76.9 265.2,75.3 270.6,74.9 275.9,74.6 281.3,73.9 286.6,72.7 292.0,71.8 297.3,70.5 302.7,69.5 308.0,68.3 313.4,68.1 318.7,67.4 324.1,66.2 329.4,65.0 334.8,64.0 340.1,63.6 345.4,63.0 350.8,62.5 356.1,61.1 361.5,59.9 366.8,58.8 372.2,57.6 377.5,57.1 382.9,56.7 388.2,56.2 393.6,55.3 398.9,54.7 404.3,54.2 409.6,53.8 415.0,53.3 420.3,52.7 425.6,52.3 431.0,52.0 436.3,51.7 441.7,50.4 447.0,49.8 452.4,49.5 457.7,49.1 463.1,48.9 468.4,48.9 473.8,69.2 479.1,67.2 484.5,65.4 489.8,63.5 495.1,58.0 500.5,54.1 505.8,49.9 511.2,48.4 516.5,46.6 521.9,43.8 527.2,40.7 532.6,38.4 537.9,37.6 543.3,36.7 548.6,34.5 554.0,32.9 559.3,31.9 564.7,30.5 570.0,30.0 570.0,30.0,120" />
  
  <!-- Linea principale -->
  <polyline fill="none" stroke="#0366d6" stroke-width="2.5" stroke-linecap="round" stroke-linejoin="round" points="30.0,120.0 35.3,118.4 40.7,116.7 46.0,115.2 51.4,114.8 56.7,114.0 62.1,112.1 67.4,110.9 72.8,110.0 78.1,108.1 83.5,107.2 88.8,106.2 94.2,105.7 99.5,104.8 104.9,103.5 110.2,102.2 115.5,101.1 120.9,100.4 126.2,99.9 131.6,99.0 136.9,98.0 142.3,97.1 147.6,96.7 153.0,95.9 158.3,92.9 163.7,92.0 169.0,90.8 174.4,89.6 179.7,88.6 185.0,87.6 190.4,86.9 195.7,86.4 201.1,85.6 206.4,84.1 211.8,82.8 217.1,82.0 222.5,81.0 227.8,80.7 233.2,80.4 238.5,79.9 243.9,79.0 249.2,78.4 254.6,78.0 259.9,76.9 265.2,75.3 270.6,74.9 275.9,74.6 281.3,73.9 286.6,72.7 292.0,71.8 297.3,70.5 302.7,69.5 308.0,68.3 313.4,68.1 318.7,67.4 324.1,66.2 329.4,65.0 334.8,64.0 340.1,63.6 345.4,63.0 350.8,62.5 356.1,61.1 361.5,59.9 366.8,58.8 372.2,57.6 377.5,57.1 382.9,56.7 388.2,56.2 393.6,55.3 398.9,54.7 404.3,54.2 409.6,53.8 415.0,53.3 420.3,52.7 425.6,52.3 431.0,52.0 436.3,51.7 441.7,50.4 447.0,49.8 452.4,49.5 457.7,49.1 463.1,48.9 468.4,48.9 473.8,69.2 479.1,67.2 484.5,65.4 489.8,63.5 495.1,58.0 500.5,54.1 505.8,49.9 511.2,48.4 516.5,46.6 521.9,43.8 527.2,40.7 532.6,38.4 537.9,37.6 543.3,36.7 548.6,34.5 554.0,32.9 559.3,31.9 564.7,30.5 570.0,30.0" />
  
  <!-- Punto finale luminoso -->
  <circle cx="570.0" cy="30.0" r="4" fill="#ffffff" stroke="#0366d6" stroke-width="2.5" />
</svg>