<svg width="600" height="150" viewBox="0 0 600 150" xmlns="http://www.w3.org/2000/svg">
  <defs>
    <filter id="shadow2" x="-2%" y="-2%" width="104%" height="108%">
      <feDropShadow dx="0" dy="2" stdDeviation="3" flood-opacity="0.1" />
    </filter>
    <linearGradient id="fillGrad" x1="0" y1="0" x2="0" y2="1">
      <stop offset="0%" stop-color="#0366d6" stop-opacity="0.3"/>
      <stop offset="100%" stop-color="#0366d6" stop-opacity="0.02"/>
    </linearGradient>
  </defs>
  <rect width="600" height="150" rx="12" fill="#ffffff" filter="url(#shadow2)" stroke="#e1e4e8" stroke-width="1"/>
  <text x="20" y="24" fill="#2b3137" font-family="-apple-system,BlinkMacSystemFont,'Segoe UI',Helvetica,Arial,sans-serif" font-size="14" font-weight="600">📈 Download Growth (Actual: 85.1k)</text>
  
  <!-- Area sotto la linea -->
  <polygon fill="url(#fillGrad)" points="30.0,120.0,120 30.0,120.0 31.5,119.4 33.1,118.8 34.6,118.3 36.2,118.2 37.7,117.9 39.3,117.3 40.8,116.8 42.4,116.5 43.9,115.9 45.5,115.6 47.0,115.2 48.6,115.0 50.1,114.7 51.7,114.3 53.2,113.8 54.8,113.4 56.3,113.2 57.9,113.0 59.4,112.7 60.9,112.4 62.5,112.1 64.0,111.9 65.6,111.6 67.1,110.6 68.7,110.3 70.2,109.9 71.8,109.4 73.3,109.1 74.9,108.7 76.4,108.5 78.0,108.3 79.5,108.0 81.1,107.5 82.6,107.1 84.2,106.8 85.7,106.5 87.2,106.4 88.8,106.3 90.3,106.1 91.9,105.8 93.4,105.6 95.0,105.4 96.5,105.0 98.1,104.5 99.6,104.3 101.2,104.2 102.7,104.0 104.3,103.6 105.8,103.3 107.4,102.8 108.9,102.5 110.5,102.1 112.0,102.0 113.6,101.7 115.1,101.3 116.6,100.9 118.2,100.6 119.7,100.4 121.3,100.2 122.8,100.0 124.4,99.6 125.9,99.1 127.5,98.7 129.0,98.4 130.6,98.2 132.1,98.0 133.7,97.9 135.2,97.5 136.8,97.3 138.3,97.2 139.9,97.0 141.4,96.9 143.0,96.6 144.5,96.5 146.0,96.4 147.6,96.3 149.1,95.8 150.7,95.6 152.2,95.5 153.8,95.4 155.3,95.3 156.9,95.3 158.4,102.4 160.0,101.7 161.5,101.0 163.1,100.4 164.6,98.5 166.2,97.1 167.7,95.7 169.3,95.1 170.8,94.5 172.3,93.5 173.9,92.5 175.4,91.7 177.0,91.4 178.5,91.1 180.1,90.3 181.6,89.8 183.2,89.4 184.7,88.9 186.3,88.8 187.8,88.7 189.4,88.3 190.9,87.6 192.5,87.1 194.0,86.7 195.6,86.1 197.1,85.9 198.7,85.7 200.2,85.2 201.7,84.8 203.3,84.4 204.8,84.1 206.4,84.0 207.9,83.9 209.5,83.6 211.0,83.3 212.6,83.0 214.1,82.8 215.7,82.6 217.2,82.4 218.8,82.2 220.3,82.0 221.9,81.8 223.4,81.6 225.0,81.3 226.5,81.0 228.1,80.7 229.6,80.5 231.1,80.3 232.7,80.2 234.2,80.0 235.8,79.8 237.3,79.3 238.9,79.0 240.4,78.5 242.0,78.4 243.5,78.3 245.1,78.1 246.6,77.9 248.2,77.6 249.7,77.4 251.3,77.1 252.8,76.9 254.4,76.8 255.9,76.6 257.4,76.5 259.0,76.3 260.5,76.1 262.1,76.0 263.6,75.7 265.2,75.5 266.7,75.4 268.3,75.3 269.8,75.2 271.4,74.9 272.9,74.7 274.5,74.4 276.0,74.2 277.6,74.0 279.1,73.8 280.7,73.7 282.2,73.6 283.8,73.3 285.3,73.0 286.8,72.8 288.4,72.5 289.9,72.2 291.5,72.1 293.0,71.9 294.6,71.8 296.1,71.6 297.7,71.5 299.2,71.3 300.8,71.1 302.3,70.9 303.9,70.8 305.4,70.6 307.0,70.5 308.5,70.4 310.1,70.2 311.6,69.9 313.2,69.8 314.7,69.6 316.2,69.4 317.8,69.3 319.3,69.1 320.9,69.0 322.4,68.9 324.0,68.7 325.5,68.4 327.1,68.1 328.6,67.9 330.2,67.7 331.7,67.6 333.3,67.6 334.8,67.4 336.4,67.1 337.9,66.9 339.5,66.8 341.0,66.6 342.6,66.5 344.1,66.3 345.6,66.2 347.2,66.0 348.7,65.8 350.3,65.6 351.8,65.4 353.4,65.1 354.9,65.0 356.5,65.0 358.0,64.9 359.6,64.7 361.1,64.6 362.7,64.4 364.2,64.2 365.8,64.0 367.3,63.9 368.9,63.8 370.4,63.7 371.9,63.5 373.5,63.3 375.0,63.1 376.6,62.9 378.1,62.7 379.7,62.6 381.2,62.5 382.8,62.4 384.3,62.3 385.9,62.2 387.4,62.0 389.0,61.8 390.5,61.6 392.1,61.5 393.6,61.3 395.2,61.2 396.7,61.0 398.3,60.9 399.8,60.7 401.3,60.6 402.9,60.5 404.4,60.3 406.0,60.1 407.5,60.0 409.1,59.9 410.6,59.8 412.2,59.6 413.7,59.5 415.3,59.4 416.8,59.2 418.4,59.2 419.9,59.1 421.5,58.7 423.0,58.5 424.6,63.1 426.1,62.2 427.7,60.5 429.2,59.8 430.7,59.0 432.3,58.0 433.8,57.5 435.4,57.1 436.9,56.4 438.5,55.4 440.0,54.7 441.6,54.4 443.1,54.1 444.7,53.8 446.2,53.2 447.8,52.8 449.3,52.2 450.9,51.9 452.4,51.4 454.0,51.2 455.5,50.8 457.0,50.6 458.6,50.3 460.1,50.1 461.7,49.6 463.2,49.2 464.8,48.8 466.3,48.1 467.9,47.8 469.4,47.6 471.0,47.4 472.5,47.1 474.1,46.7 475.6,46.3 477.2,46.0 478.7,45.1 480.3,44.4 481.8,44.0 483.4,43.8 484.9,43.5 486.4,43.0 488.0,42.6 489.5,42.3 491.1,42.0 492.6,41.6 494.2,41.3 495.7,41.0 497.3,40.6 498.8,40.3 500.4,40.2 501.9,40.0 503.5,39.5 505.0,39.2 506.6,39.0 508.1,38.9 509.7,38.7 511.2,38.4 512.8,38.2 514.3,38.0 515.8,37.8 517.4,37.6 518.9,37.5 520.5,37.2 522.0,37.0 523.6,36.6 525.1,36.2 526.7,35.9 528.2,35.7 529.8,35.5 531.3,35.4 532.9,35.2 534.4,35.0 536.0,34.8 537.5,34.7 539.1,34.5 540.6,34.3 542.1,34.2 543.7,33.9 545.2,33.7 546.8,33.5 548.3,33.3 549.9,33.0 551.4,32.6 553.0,32.3 554.5,32.1 556.1,31.9 557.6,31.6 559.2,31.4 560.7,31.1 562.3,30.9 563.8,30.8 565.4,30.7 566.9,30.4 568.5,30.2 570.0,30.0 570.0,30.0,120" />
  
  <!-- Linea principale -->
  <polyline fill="none" stroke="#0366d6" stroke-width="2.5" stroke-linecap="round" stroke-linejoin="round" points="30.0,120.0 31.5,119.4 33.1,118.8 34.6,118.3 36.2,118.2 37.7,117.9 39.3,117.3 40.8,116.8 42.4,116.5 43.9,115.9 45.5,115.6 47.0,115.2 48.6,115.0 50.1,114.7 51.7,114.3 53.2,113.8 54.8,113.4 56.3,113.2 57.9,113.0 59.4,112.7 60.9,112.4 62.5,112.1 64.0,111.9 65.6,111.6 67.1,110.6 68.7,110.3 70.2,109.9 71.8,109.4 73.3,109.1 74.9,108.7 76.4,108.5 78.0,108.3 79.5,108.0 81.1,107.5 82.6,107.1 84.2,106.8 85.7,106.5 87.2,106.4 88.8,106.3 90.3,106.1 91.9,105.8 93.4,105.6 95.0,105.4 96.5,105.0 98.1,104.5 99.6,104.3 101.2,104.2 102.7,104.0 104.3,103.6 105.8,103.3 107.4,102.8 108.9,102.5 110.5,102.1 112.0,102.0 113.6,101.7 115.1,101.3 116.6,100.9 118.2,100.6 119.7,100.4 121.3,100.2 122.8,100.0 124.4,99.6 125.9,99.1 127.5,98.7 129.0,98.4 130.6,98.2 132.1,98.0 133.7,97.9 135.2,97.5 136.8,97.3 138.3,97.2 139.9,97.0 141.4,96.9 143.0,96.6 144.5,96.5 146.0,96.4 147.6,96.3 149.1,95.8 150.7,95.6 152.2,95.5 153.8,95.4 155.3,95.3 156.9,95.3 158.4,102.4 160.0,101.7 161.5,101.0 163.1,100.4 164.6,98.5 166.2,97.1 167.7,95.7 169.3,95.1 170.8,94.5 172.3,93.5 173.9,92.5 175.4,91.7 177.0,91.4 178.5,91.1 180.1,90.3 181.6,89.8 183.2,89.4 184.7,88.9 186.3,88.8 187.8,88.7 189.4,88.3 190.9,87.6 192.5,87.1 194.0,86.7 195.6,86.1 197.1,85.9 198.7,85.7 200.2,85.2 201.7,84.8 203.3,84.4 204.8,84.1 206.4,84.0 207.9,83.9 209.5,83.6 211.0,83.3 212.6,83.0 214.1,82.8 215.7,82.6 217.2,82.4 218.8,82.2 220.3,82.0 221.9,81.8 223.4,81.6 225.0,81.3 226.5,81.0 228.1,80.7 229.6,80.5 231.1,80.3 232.7,80.2 234.2,80.0 235.8,79.8 237.3,79.3 238.9,79.0 240.4,78.5 242.0,78.4 243.5,78.3 245.1,78.1 246.6,77.9 248.2,77.6 249.7,77.4 251.3,77.1 252.8,76.9 254.4,76.8 255.9,76.6 257.4,76.5 259.0,76.3 260.5,76.1 262.1,76.0 263.6,75.7 265.2,75.5 266.7,75.4 268.3,75.3 269.8,75.2 271.4,74.9 272.9,74.7 274.5,74.4 276.0,74.2 277.6,74.0 279.1,73.8 280.7,73.7 282.2,73.6 283.8,73.3 285.3,73.0 286.8,72.8 288.4,72.5 289.9,72.2 291.5,72.1 293.0,71.9 294.6,71.8 296.1,71.6 297.7,71.5 299.2,71.3 300.8,71.1 302.3,70.9 303.9,70.8 305.4,70.6 307.0,70.5 308.5,70.4 310.1,70.2 311.6,69.9 313.2,69.8 314.7,69.6 316.2,69.4 317.8,69.3 319.3,69.1 320.9,69.0 322.4,68.9 324.0,68.7 325.5,68.4 327.1,68.1 328.6,67.9 330.2,67.7 331.7,67.6 333.3,67.6 334.8,67.4 336.4,67.1 337.9,66.9 339.5,66.8 341.0,66.6 342.6,66.5 344.1,66.3 345.6,66.2 347.2,66.0 348.7,65.8 350.3,65.6 351.8,65.4 353.4,65.1 354.9,65.0 356.5,65.0 358.0,64.9 359.6,64.7 361.1,64.6 362.7,64.4 364.2,64.2 365.8,64.0 367.3,63.9 368.9,63.8 370.4,63.7 371.9,63.5 373.5,63.3 375.0,63.1 376.6,62.9 378.1,62.7 379.7,62.6 381.2,62.5 382.8,62.4 384.3,62.3 385.9,62.2 387.4,62.0 389.0,61.8 390.5,61.6 392.1,61.5 393.6,61.3 395.2,61.2 396.7,61.0 398.3,60.9 399.8,60.7 401.3,60.6 402.9,60.5 404.4,60.3 406.0,60.1 407.5,60.0 409.1,59.9 410.6,59.8 412.2,59.6 413.7,59.5 415.3,59.4 416.8,59.2 418.4,59.2 419.9,59.1 421.5,58.7 423.0,58.5 424.6,63.1 426.1,62.2 427.7,60.5 429.2,59.8 430.7,59.0 432.3,58.0 433.8,57.5 435.4,57.1 436.9,56.4 438.5,55.4 440.0,54.7 441.6,54.4 443.1,54.1 444.7,53.8 446.2,53.2 447.8,52.8 449.3,52.2 450.9,51.9 452.4,51.4 454.0,51.2 455.5,50.8 457.0,50.6 458.6,50.3 460.1,50.1 461.7,49.6 463.2,49.2 464.8,48.8 466.3,48.1 467.9,47.8 469.4,47.6 471.0,47.4 472.5,47.1 474.1,46.7 475.6,46.3 477.2,46.0 478.7,45.1 480.3,44.4 481.8,44.0 483.4,43.8 484.9,43.5 486.4,43.0 488.0,42.6 489.5,42.3 491.1,42.0 492.6,41.6 494.2,41.3 495.7,41.0 497.3,40.6 498.8,40.3 500.4,40.2 501.9,40.0 503.5,39.5 505.0,39.2 506.6,39.0 508.1,38.9 509.7,38.7 511.2,38.4 512.8,38.2 514.3,38.0 515.8,37.8 517.4,37.6 518.9,37.5 520.5,37.2 522.0,37.0 523.6,36.6 525.1,36.2 526.7,35.9 528.2,35.7 529.8,35.5 531.3,35.4 532.9,35.2 534.4,35.0 536.0,34.8 537.5,34.7 539.1,34.5 540.6,34.3 542.1,34.2 543.7,33.9 545.2,33.7 546.8,33.5 548.3,33.3 549.9,33.0 551.4,32.6 553.0,32.3 554.5,32.1 556.1,31.9 557.6,31.6 559.2,31.4 560.7,31.1 562.3,30.9 563.8,30.8 565.4,30.7 566.9,30.4 568.5,30.2 570.0,30.0" />
  
  <!-- Punto finale luminoso -->
  <circle cx="570.0" cy="30.0" r="4" fill="#ffffff" stroke="#0366d6" stroke-width="2.5" />
</svg>