<svg width="600" height="150" viewBox="0 0 600 150" xmlns="http://www.w3.org/2000/svg">
  <defs>
    <filter id="shadow2" x="-2%" y="-2%" width="104%" height="108%">
      <feDropShadow dx="0" dy="2" stdDeviation="3" flood-opacity="0.1" />
    </filter>
    <linearGradient id="fillGrad" x1="0" y1="0" x2="0" y2="1">
      <stop offset="0%" stop-color="#0366d6" stop-opacity="0.3"/>
      <stop offset="100%" stop-color="#0366d6" stop-opacity="0.02"/>
    </linearGradient>
  </defs>
  <rect width="600" height="150" rx="12" fill="#ffffff" filter="url(#shadow2)" stroke="#e1e4e8" stroke-width="1"/>
  <text x="20" y="24" fill="#2b3137" font-family="-apple-system,BlinkMacSystemFont,'Segoe UI',Helvetica,Arial,sans-serif" font-size="14" font-weight="600">📈 Download Growth (Actual: 71.8k)</text>
  
  <!-- Area sotto la linea -->
  <polygon fill="url(#fillGrad)" points="30.0,120.0,120 30.0,120.0 37.0,117.9 44.0,115.7 51.0,113.7 58.1,113.2 65.1,112.2 72.1,109.8 79.1,108.2 86.1,107.1 93.1,104.7 100.1,103.4 107.1,102.2 114.2,101.5 121.2,100.3 128.2,98.7 135.2,96.9 142.2,95.6 149.2,94.6 156.2,94.0 163.2,92.9 170.3,91.6 177.3,90.4 184.3,89.9 191.3,88.8 198.3,84.9 205.3,83.7 212.3,82.2 219.4,80.7 226.4,79.3 233.4,78.0 240.4,77.2 247.4,76.5 254.4,75.5 261.4,73.6 268.4,71.9 275.5,70.8 282.5,69.5 289.5,69.2 296.5,68.8 303.5,68.2 310.5,66.9 317.5,66.2 324.5,65.6 331.6,64.2 338.6,62.1 345.6,61.6 352.6,61.2 359.6,60.4 366.6,58.7 373.6,57.6 380.6,55.9 387.7,54.7 394.7,53.2 401.7,52.8 408.7,51.9 415.7,50.4 422.7,48.8 429.7,47.6 436.8,47.1 443.8,46.3 450.8,45.6 457.8,43.8 464.8,42.2 471.8,40.8 478.8,39.3 485.8,38.6 492.9,38.1 499.9,37.5 506.9,36.3 513.9,35.5 520.9,34.9 527.9,34.3 534.9,33.8 541.9,32.9 549.0,32.4 556.0,32.0 563.0,31.6 570.0,30.0 570.0,30.0,120" />
  
  <!-- Linea principale -->
  <polyline fill="none" stroke="#0366d6" stroke-width="2.5" stroke-linecap="round" stroke-linejoin="round" points="30.0,120.0 37.0,117.9 44.0,115.7 51.0,113.7 58.1,113.2 65.1,112.2 72.1,109.8 79.1,108.2 86.1,107.1 93.1,104.7 100.1,103.4 107.1,102.2 114.2,101.5 121.2,100.3 128.2,98.7 135.2,96.9 142.2,95.6 149.2,94.6 156.2,94.0 163.2,92.9 170.3,91.6 177.3,90.4 184.3,89.9 191.3,88.8 198.3,84.9 205.3,83.7 212.3,82.2 219.4,80.7 226.4,79.3 233.4,78.0 240.4,77.2 247.4,76.5 254.4,75.5 261.4,73.6 268.4,71.9 275.5,70.8 282.5,69.5 289.5,69.2 296.5,68.8 303.5,68.2 310.5,66.9 317.5,66.2 324.5,65.6 331.6,64.2 338.6,62.1 345.6,61.6 352.6,61.2 359.6,60.4 366.6,58.7 373.6,57.6 380.6,55.9 387.7,54.7 394.7,53.2 401.7,52.8 408.7,51.9 415.7,50.4 422.7,48.8 429.7,47.6 436.8,47.1 443.8,46.3 450.8,45.6 457.8,43.8 464.8,42.2 471.8,40.8 478.8,39.3 485.8,38.6 492.9,38.1 499.9,37.5 506.9,36.3 513.9,35.5 520.9,34.9 527.9,34.3 534.9,33.8 541.9,32.9 549.0,32.4 556.0,32.0 563.0,31.6 570.0,30.0" />
  
  <!-- Punto finale luminoso -->
  <circle cx="570.0" cy="30.0" r="4" fill="#ffffff" stroke="#0366d6" stroke-width="2.5" />
</svg>