<svg width="600" height="150" viewBox="0 0 600 150" xmlns="http://www.w3.org/2000/svg">
  <defs>
    <filter id="shadow2" x="-2%" y="-2%" width="104%" height="108%">
      <feDropShadow dx="0" dy="2" stdDeviation="3" flood-opacity="0.1" />
    </filter>
    <linearGradient id="fillGrad" x1="0" y1="0" x2="0" y2="1">
      <stop offset="0%" stop-color="#0366d6" stop-opacity="0.3"/>
      <stop offset="100%" stop-color="#0366d6" stop-opacity="0.02"/>
    </linearGradient>
  </defs>
  <rect width="600" height="150" rx="12" fill="#ffffff" filter="url(#shadow2)" stroke="#e1e4e8" stroke-width="1"/>
  <text x="20" y="24" fill="#2b3137" font-family="-apple-system,BlinkMacSystemFont,'Segoe UI',Helvetica,Arial,sans-serif" font-size="14" font-weight="600">📈 Download Growth (Actual: 77.9k)</text>
  
  <!-- Area sotto la linea -->
  <polygon fill="url(#fillGrad)" points="30.0,120.0,120 30.0,120.0 32.6,119.1 35.2,118.1 37.8,117.2 40.4,117.0 43.0,116.5 45.7,115.5 48.3,114.8 50.9,114.3 53.5,113.2 56.1,112.6 58.7,112.1 61.3,111.8 63.9,111.3 66.5,110.5 69.1,109.8 71.7,109.1 74.3,108.7 77.0,108.5 79.6,108.0 82.2,107.4 84.8,106.9 87.4,106.6 90.0,106.1 92.6,104.4 95.2,103.9 97.8,103.2 100.4,102.5 103.0,101.9 105.7,101.4 108.3,101.0 110.9,100.7 113.5,100.2 116.1,99.4 118.7,98.7 121.3,98.2 123.9,97.6 126.5,97.4 129.1,97.3 131.7,97.0 134.3,96.4 137.0,96.1 139.6,95.9 142.2,95.2 144.8,94.3 147.4,94.1 150.0,93.9 152.6,93.5 155.2,92.8 157.8,92.3 160.4,91.6 163.0,91.0 165.7,90.3 168.3,90.2 170.9,89.8 173.5,89.1 176.1,88.4 178.7,87.9 181.3,87.6 183.9,87.3 186.5,87.0 189.1,86.2 191.7,85.5 194.3,84.8 197.0,84.2 199.6,83.9 202.2,83.7 204.8,83.4 207.4,82.9 210.0,82.5 212.6,82.2 215.2,82.0 217.8,81.7 220.4,81.3 223.0,81.1 225.7,80.9 228.3,80.7 230.9,80.0 233.5,79.7 236.1,79.5 238.7,79.3 241.3,79.1 243.9,79.1 246.5,90.8 249.1,89.7 251.7,88.6 254.3,87.6 257.0,84.4 259.6,82.1 262.2,79.8 264.8,78.9 267.4,77.9 270.0,76.2 272.6,74.5 275.2,73.1 277.8,72.7 280.4,72.2 283.0,70.9 285.7,70.0 288.3,69.4 290.9,68.6 293.5,68.3 296.1,68.2 298.7,67.5 301.3,66.4 303.9,65.6 306.5,64.9 309.1,64.0 311.7,63.5 314.3,63.2 317.0,62.5 319.6,61.8 322.2,61.2 324.8,60.6 327.4,60.4 330.0,60.2 332.6,59.8 335.2,59.3 337.8,58.8 340.4,58.4 343.0,58.1 345.7,57.8 348.3,57.4 350.9,57.1 353.5,56.9 356.1,56.5 358.7,55.9 361.3,55.5 363.9,55.0 366.5,54.7 369.1,54.3 371.7,54.1 374.3,53.8 377.0,53.5 379.6,52.7 382.2,52.1 384.8,51.4 387.4,51.2 390.0,51.1 392.6,50.7 395.2,50.4 397.8,49.9 400.4,49.5 403.0,49.0 405.7,48.7 408.3,48.5 410.9,48.2 413.5,48.0 416.1,47.8 418.7,47.4 421.3,47.1 423.9,46.6 426.5,46.4 429.1,46.2 431.7,46.0 434.3,45.8 437.0,45.4 439.6,45.0 442.2,44.6 444.8,44.3 447.4,43.9 450.0,43.6 452.6,43.5 455.2,43.2 457.8,42.7 460.4,42.2 463.0,41.9 465.7,41.5 468.3,40.8 470.9,40.7 473.5,40.5 476.1,40.3 478.7,40.0 481.3,39.7 483.9,39.4 486.5,39.1 489.1,38.8 491.7,38.6 494.3,38.3 497.0,38.1 499.6,37.9 502.2,37.6 504.8,37.1 507.4,36.9 510.0,36.6 512.6,36.4 515.2,36.1 517.8,35.9 520.4,35.7 523.0,35.5 525.7,35.2 528.3,34.7 530.9,34.1 533.5,33.8 536.1,33.5 538.7,33.4 541.3,33.3 543.9,32.9 546.5,32.4 549.1,32.2 551.7,32.0 554.3,31.7 557.0,31.4 559.6,31.1 562.2,30.9 564.8,30.7 567.4,30.3 570.0,30.0 570.0,30.0,120" />
  
  <!-- Linea principale -->
  <polyline fill="none" stroke="#0366d6" stroke-width="2.5" stroke-linecap="round" stroke-linejoin="round" points="30.0,120.0 32.6,119.1 35.2,118.1 37.8,117.2 40.4,117.0 43.0,116.5 45.7,115.5 48.3,114.8 50.9,114.3 53.5,113.2 56.1,112.6 58.7,112.1 61.3,111.8 63.9,111.3 66.5,110.5 69.1,109.8 71.7,109.1 74.3,108.7 77.0,108.5 79.6,108.0 82.2,107.4 84.8,106.9 87.4,106.6 90.0,106.1 92.6,104.4 95.2,103.9 97.8,103.2 100.4,102.5 103.0,101.9 105.7,101.4 108.3,101.0 110.9,100.7 113.5,100.2 116.1,99.4 118.7,98.7 121.3,98.2 123.9,97.6 126.5,97.4 129.1,97.3 131.7,97.0 134.3,96.4 137.0,96.1 139.6,95.9 142.2,95.2 144.8,94.3 147.4,94.1 150.0,93.9 152.6,93.5 155.2,92.8 157.8,92.3 160.4,91.6 163.0,91.0 165.7,90.3 168.3,90.2 170.9,89.8 173.5,89.1 176.1,88.4 178.7,87.9 181.3,87.6 183.9,87.3 186.5,87.0 189.1,86.2 191.7,85.5 194.3,84.8 197.0,84.2 199.6,83.9 202.2,83.7 204.8,83.4 207.4,82.9 210.0,82.5 212.6,82.2 215.2,82.0 217.8,81.7 220.4,81.3 223.0,81.1 225.7,80.9 228.3,80.7 230.9,80.0 233.5,79.7 236.1,79.5 238.7,79.3 241.3,79.1 243.9,79.1 246.5,90.8 249.1,89.7 251.7,88.6 254.3,87.6 257.0,84.4 259.6,82.1 262.2,79.8 264.8,78.9 267.4,77.9 270.0,76.2 272.6,74.5 275.2,73.1 277.8,72.7 280.4,72.2 283.0,70.9 285.7,70.0 288.3,69.4 290.9,68.6 293.5,68.3 296.1,68.2 298.7,67.5 301.3,66.4 303.9,65.6 306.5,64.9 309.1,64.0 311.7,63.5 314.3,63.2 317.0,62.5 319.6,61.8 322.2,61.2 324.8,60.6 327.4,60.4 330.0,60.2 332.6,59.8 335.2,59.3 337.8,58.8 340.4,58.4 343.0,58.1 345.7,57.8 348.3,57.4 350.9,57.1 353.5,56.9 356.1,56.5 358.7,55.9 361.3,55.5 363.9,55.0 366.5,54.7 369.1,54.3 371.7,54.1 374.3,53.8 377.0,53.5 379.6,52.7 382.2,52.1 384.8,51.4 387.4,51.2 390.0,51.1 392.6,50.7 395.2,50.4 397.8,49.9 400.4,49.5 403.0,49.0 405.7,48.7 408.3,48.5 410.9,48.2 413.5,48.0 416.1,47.8 418.7,47.4 421.3,47.1 423.9,46.6 426.5,46.4 429.1,46.2 431.7,46.0 434.3,45.8 437.0,45.4 439.6,45.0 442.2,44.6 444.8,44.3 447.4,43.9 450.0,43.6 452.6,43.5 455.2,43.2 457.8,42.7 460.4,42.2 463.0,41.9 465.7,41.5 468.3,40.8 470.9,40.7 473.5,40.5 476.1,40.3 478.7,40.0 481.3,39.7 483.9,39.4 486.5,39.1 489.1,38.8 491.7,38.6 494.3,38.3 497.0,38.1 499.6,37.9 502.2,37.6 504.8,37.1 507.4,36.9 510.0,36.6 512.6,36.4 515.2,36.1 517.8,35.9 520.4,35.7 523.0,35.5 525.7,35.2 528.3,34.7 530.9,34.1 533.5,33.8 536.1,33.5 538.7,33.4 541.3,33.3 543.9,32.9 546.5,32.4 549.1,32.2 551.7,32.0 554.3,31.7 557.0,31.4 559.6,31.1 562.2,30.9 564.8,30.7 567.4,30.3 570.0,30.0" />
  
  <!-- Punto finale luminoso -->
  <circle cx="570.0" cy="30.0" r="4" fill="#ffffff" stroke="#0366d6" stroke-width="2.5" />
</svg>