<svg width="600" height="150" viewBox="0 0 600 150" xmlns="http://www.w3.org/2000/svg">
  <defs>
    <filter id="shadow2" x="-2%" y="-2%" width="104%" height="108%">
      <feDropShadow dx="0" dy="2" stdDeviation="3" flood-opacity="0.1" />
    </filter>
    <linearGradient id="fillGrad" x1="0" y1="0" x2="0" y2="1">
      <stop offset="0%" stop-color="#0366d6" stop-opacity="0.3"/>
      <stop offset="100%" stop-color="#0366d6" stop-opacity="0.02"/>
    </linearGradient>
  </defs>
  <rect width="600" height="150" rx="12" fill="#ffffff" filter="url(#shadow2)" stroke="#e1e4e8" stroke-width="1"/>
  <text x="20" y="24" fill="#2b3137" font-family="-apple-system,BlinkMacSystemFont,'Segoe UI',Helvetica,Arial,sans-serif" font-size="14" font-weight="600">📈 Download Growth (Actual: 86.0k)</text>
  
  <!-- Area sotto la linea -->
  <polygon fill="url(#fillGrad)" points="30.0,120.0,120 30.0,120.0 31.4,119.5 32.9,118.9 34.3,118.4 35.8,118.3 37.2,118.0 38.7,117.4 40.1,117.0 41.6,116.7 43.0,116.1 44.5,115.8 45.9,115.5 47.4,115.3 48.8,115.0 50.3,114.6 51.7,114.1 53.2,113.8 54.6,113.5 56.1,113.4 57.5,113.1 59.0,112.7 60.4,112.5 61.8,112.3 63.3,112.0 64.7,111.0 66.2,110.7 67.6,110.4 69.1,110.0 70.5,109.6 72.0,109.3 73.4,109.1 74.9,108.9 76.3,108.6 77.8,108.1 79.2,107.7 80.7,107.4 82.1,107.1 83.6,107.0 85.0,106.9 86.5,106.8 87.9,106.4 89.4,106.3 90.8,106.1 92.3,105.8 93.7,105.2 95.1,105.1 96.6,105.0 98.0,104.8 99.5,104.4 100.9,104.1 102.4,103.6 103.8,103.3 105.3,102.9 106.7,102.9 108.2,102.6 109.6,102.2 111.1,101.8 112.5,101.5 114.0,101.4 115.4,101.2 116.9,101.0 118.3,100.6 119.8,100.1 121.2,99.8 122.7,99.4 124.1,99.2 125.5,99.1 127.0,98.9 128.4,98.6 129.9,98.4 131.3,98.3 132.8,98.1 134.2,98.0 135.7,97.8 137.1,97.6 138.6,97.5 140.0,97.4 141.5,97.0 142.9,96.8 144.4,96.7 145.8,96.6 147.3,96.5 148.7,96.5 150.2,103.2 151.6,102.6 153.1,102.0 154.5,101.3 156.0,99.5 157.4,98.2 158.8,96.9 160.3,96.4 161.7,95.8 163.2,94.8 164.6,93.8 166.1,93.1 167.5,92.8 169.0,92.5 170.4,91.8 171.9,91.2 173.3,90.9 174.8,90.5 176.2,90.3 177.7,90.2 179.1,89.8 180.6,89.2 182.0,88.7 183.5,88.3 184.9,87.8 186.4,87.5 187.8,87.4 189.2,86.9 190.7,86.5 192.1,86.2 193.6,85.9 195.0,85.7 196.5,85.6 197.9,85.4 199.4,85.1 200.8,84.8 202.3,84.6 203.7,84.4 205.2,84.2 206.6,84.0 208.1,83.8 209.5,83.7 211.0,83.5 212.4,83.2 213.9,82.9 215.3,82.6 216.8,82.4 218.2,82.2 219.7,82.1 221.1,82.0 222.5,81.8 224.0,81.3 225.4,81.0 226.9,80.6 228.3,80.4 229.8,80.4 231.2,80.2 232.7,80.0 234.1,79.7 235.6,79.5 237.0,79.2 238.5,79.0 239.9,78.9 241.4,78.7 242.8,78.6 244.3,78.5 245.7,78.3 247.2,78.1 248.6,77.8 250.1,77.7 251.5,77.6 252.9,77.4 254.4,77.4 255.8,77.1 257.3,76.9 258.7,76.7 260.2,76.5 261.6,76.3 263.1,76.1 264.5,76.0 266.0,75.9 267.4,75.6 268.9,75.3 270.3,75.1 271.8,74.9 273.2,74.5 274.7,74.4 276.1,74.3 277.6,74.2 279.0,74.0 280.5,73.8 281.9,73.6 283.4,73.5 284.8,73.3 286.2,73.2 287.7,73.0 289.1,72.9 290.6,72.8 292.0,72.6 293.5,72.4 294.9,72.2 296.4,72.0 297.8,71.9 299.3,71.8 300.7,71.6 302.2,71.5 303.6,71.4 305.1,71.2 306.5,70.9 308.0,70.6 309.4,70.4 310.9,70.3 312.3,70.2 313.8,70.1 315.2,69.9 316.6,69.7 318.1,69.5 319.5,69.4 321.0,69.2 322.4,69.1 323.9,68.9 325.3,68.8 326.8,68.7 328.2,68.4 329.7,68.3 331.1,68.0 332.6,67.8 334.0,67.7 335.5,67.7 336.9,67.6 338.4,67.4 339.8,67.3 341.3,67.1 342.7,67.0 344.2,66.8 345.6,66.7 347.1,66.6 348.5,66.4 349.9,66.3 351.4,66.1 352.8,65.8 354.3,65.7 355.7,65.5 357.2,65.4 358.6,65.3 360.1,65.2 361.5,65.1 363.0,65.0 364.4,64.9 365.9,64.6 367.3,64.5 368.8,64.3 370.2,64.2 371.7,64.1 373.1,63.9 374.6,63.8 376.0,63.6 377.5,63.5 378.9,63.4 380.3,63.2 381.8,63.0 383.2,62.9 384.7,62.8 386.1,62.7 387.6,62.6 389.0,62.5 390.5,62.3 391.9,62.2 393.4,62.2 394.8,62.0 396.3,61.7 397.7,61.5 399.2,65.9 400.6,65.0 402.1,63.4 403.5,62.7 405.0,62.0 406.4,61.0 407.9,60.5 409.3,60.2 410.8,59.5 412.2,58.6 413.6,57.9 415.1,57.7 416.5,57.3 418.0,57.0 419.4,56.5 420.9,56.0 422.3,55.5 423.8,55.3 425.2,54.8 426.7,54.5 428.1,54.2 429.6,54.0 431.0,53.7 432.5,53.5 433.9,53.0 435.4,52.7 436.8,52.2 438.3,51.6 439.7,51.3 441.2,51.1 442.6,50.9 444.0,50.7 445.5,50.3 446.9,49.9 448.4,49.7 449.8,48.8 451.3,48.1 452.7,47.7 454.2,47.6 455.6,47.3 457.1,46.8 458.5,46.4 460.0,46.1 461.4,45.8 462.9,45.5 464.3,45.2 465.8,44.9 467.2,44.5 468.7,44.2 470.1,44.1 471.6,43.9 473.0,43.5 474.5,43.2 475.9,43.0 477.3,42.8 478.8,42.7 480.2,42.4 481.7,42.2 483.1,42.0 484.6,41.8 486.0,41.7 487.5,41.5 488.9,41.2 490.4,41.0 491.8,40.7 493.3,40.3 494.7,40.0 496.2,39.9 497.6,39.7 499.1,39.5 500.5,39.3 502.0,39.1 503.4,39.0 504.9,38.9 506.3,38.7 507.7,38.5 509.2,38.4 510.6,38.1 512.1,37.9 513.5,37.8 515.0,37.5 516.4,37.2 517.9,36.8 519.3,36.6 520.8,36.4 522.2,36.2 523.7,36.0 525.1,35.7 526.6,35.5 528.0,35.3 529.5,35.2 530.9,35.1 532.4,34.8 533.8,34.6 535.3,34.4 536.7,34.3 538.2,34.0 539.6,33.8 541.0,33.6 542.5,33.3 543.9,33.2 545.4,32.9 546.8,32.6 548.3,32.4 549.7,32.3 551.2,32.1 552.6,32.0 554.1,31.8 555.5,31.6 557.0,31.3 558.4,31.2 559.9,31.1 561.3,30.9 562.8,30.7 564.2,30.6 565.7,30.4 567.1,30.3 568.6,30.2 570.0,30.0 570.0,30.0,120" />
  
  <!-- Linea principale -->
  <polyline fill="none" stroke="#0366d6" stroke-width="2.5" stroke-linecap="round" stroke-linejoin="round" points="30.0,120.0 31.4,119.5 32.9,118.9 34.3,118.4 35.8,118.3 37.2,118.0 38.7,117.4 40.1,117.0 41.6,116.7 43.0,116.1 44.5,115.8 45.9,115.5 47.4,115.3 48.8,115.0 50.3,114.6 51.7,114.1 53.2,113.8 54.6,113.5 56.1,113.4 57.5,113.1 59.0,112.7 60.4,112.5 61.8,112.3 63.3,112.0 64.7,111.0 66.2,110.7 67.6,110.4 69.1,110.0 70.5,109.6 72.0,109.3 73.4,109.1 74.9,108.9 76.3,108.6 77.8,108.1 79.2,107.7 80.7,107.4 82.1,107.1 83.6,107.0 85.0,106.9 86.5,106.8 87.9,106.4 89.4,106.3 90.8,106.1 92.3,105.8 93.7,105.2 95.1,105.1 96.6,105.0 98.0,104.8 99.5,104.4 100.9,104.1 102.4,103.6 103.8,103.3 105.3,102.9 106.7,102.9 108.2,102.6 109.6,102.2 111.1,101.8 112.5,101.5 114.0,101.4 115.4,101.2 116.9,101.0 118.3,100.6 119.8,100.1 121.2,99.8 122.7,99.4 124.1,99.2 125.5,99.1 127.0,98.9 128.4,98.6 129.9,98.4 131.3,98.3 132.8,98.1 134.2,98.0 135.7,97.8 137.1,97.6 138.6,97.5 140.0,97.4 141.5,97.0 142.9,96.8 144.4,96.7 145.8,96.6 147.3,96.5 148.7,96.5 150.2,103.2 151.6,102.6 153.1,102.0 154.5,101.3 156.0,99.5 157.4,98.2 158.8,96.9 160.3,96.4 161.7,95.8 163.2,94.8 164.6,93.8 166.1,93.1 167.5,92.8 169.0,92.5 170.4,91.8 171.9,91.2 173.3,90.9 174.8,90.5 176.2,90.3 177.7,90.2 179.1,89.8 180.6,89.2 182.0,88.7 183.5,88.3 184.9,87.8 186.4,87.5 187.8,87.4 189.2,86.9 190.7,86.5 192.1,86.2 193.6,85.9 195.0,85.7 196.5,85.6 197.9,85.4 199.4,85.1 200.8,84.8 202.3,84.6 203.7,84.4 205.2,84.2 206.6,84.0 208.1,83.8 209.5,83.7 211.0,83.5 212.4,83.2 213.9,82.9 215.3,82.6 216.8,82.4 218.2,82.2 219.7,82.1 221.1,82.0 222.5,81.8 224.0,81.3 225.4,81.0 226.9,80.6 228.3,80.4 229.8,80.4 231.2,80.2 232.7,80.0 234.1,79.7 235.6,79.5 237.0,79.2 238.5,79.0 239.9,78.9 241.4,78.7 242.8,78.6 244.3,78.5 245.7,78.3 247.2,78.1 248.6,77.8 250.1,77.7 251.5,77.6 252.9,77.4 254.4,77.4 255.8,77.1 257.3,76.9 258.7,76.7 260.2,76.5 261.6,76.3 263.1,76.1 264.5,76.0 266.0,75.9 267.4,75.6 268.9,75.3 270.3,75.1 271.8,74.9 273.2,74.5 274.7,74.4 276.1,74.3 277.6,74.2 279.0,74.0 280.5,73.8 281.9,73.6 283.4,73.5 284.8,73.3 286.2,73.2 287.7,73.0 289.1,72.9 290.6,72.8 292.0,72.6 293.5,72.4 294.9,72.2 296.4,72.0 297.8,71.9 299.3,71.8 300.7,71.6 302.2,71.5 303.6,71.4 305.1,71.2 306.5,70.9 308.0,70.6 309.4,70.4 310.9,70.3 312.3,70.2 313.8,70.1 315.2,69.9 316.6,69.7 318.1,69.5 319.5,69.4 321.0,69.2 322.4,69.1 323.9,68.9 325.3,68.8 326.8,68.7 328.2,68.4 329.7,68.3 331.1,68.0 332.6,67.8 334.0,67.7 335.5,67.7 336.9,67.6 338.4,67.4 339.8,67.3 341.3,67.1 342.7,67.0 344.2,66.8 345.6,66.7 347.1,66.6 348.5,66.4 349.9,66.3 351.4,66.1 352.8,65.8 354.3,65.7 355.7,65.5 357.2,65.4 358.6,65.3 360.1,65.2 361.5,65.1 363.0,65.0 364.4,64.9 365.9,64.6 367.3,64.5 368.8,64.3 370.2,64.2 371.7,64.1 373.1,63.9 374.6,63.8 376.0,63.6 377.5,63.5 378.9,63.4 380.3,63.2 381.8,63.0 383.2,62.9 384.7,62.8 386.1,62.7 387.6,62.6 389.0,62.5 390.5,62.3 391.9,62.2 393.4,62.2 394.8,62.0 396.3,61.7 397.7,61.5 399.2,65.9 400.6,65.0 402.1,63.4 403.5,62.7 405.0,62.0 406.4,61.0 407.9,60.5 409.3,60.2 410.8,59.5 412.2,58.6 413.6,57.9 415.1,57.7 416.5,57.3 418.0,57.0 419.4,56.5 420.9,56.0 422.3,55.5 423.8,55.3 425.2,54.8 426.7,54.5 428.1,54.2 429.6,54.0 431.0,53.7 432.5,53.5 433.9,53.0 435.4,52.7 436.8,52.2 438.3,51.6 439.7,51.3 441.2,51.1 442.6,50.9 444.0,50.7 445.5,50.3 446.9,49.9 448.4,49.7 449.8,48.8 451.3,48.1 452.7,47.7 454.2,47.6 455.6,47.3 457.1,46.8 458.5,46.4 460.0,46.1 461.4,45.8 462.9,45.5 464.3,45.2 465.8,44.9 467.2,44.5 468.7,44.2 470.1,44.1 471.6,43.9 473.0,43.5 474.5,43.2 475.9,43.0 477.3,42.8 478.8,42.7 480.2,42.4 481.7,42.2 483.1,42.0 484.6,41.8 486.0,41.7 487.5,41.5 488.9,41.2 490.4,41.0 491.8,40.7 493.3,40.3 494.7,40.0 496.2,39.9 497.6,39.7 499.1,39.5 500.5,39.3 502.0,39.1 503.4,39.0 504.9,38.9 506.3,38.7 507.7,38.5 509.2,38.4 510.6,38.1 512.1,37.9 513.5,37.8 515.0,37.5 516.4,37.2 517.9,36.8 519.3,36.6 520.8,36.4 522.2,36.2 523.7,36.0 525.1,35.7 526.6,35.5 528.0,35.3 529.5,35.2 530.9,35.1 532.4,34.8 533.8,34.6 535.3,34.4 536.7,34.3 538.2,34.0 539.6,33.8 541.0,33.6 542.5,33.3 543.9,33.2 545.4,32.9 546.8,32.6 548.3,32.4 549.7,32.3 551.2,32.1 552.6,32.0 554.1,31.8 555.5,31.6 557.0,31.3 558.4,31.2 559.9,31.1 561.3,30.9 562.8,30.7 564.2,30.6 565.7,30.4 567.1,30.3 568.6,30.2 570.0,30.0" />
  
  <!-- Punto finale luminoso -->
  <circle cx="570.0" cy="30.0" r="4" fill="#ffffff" stroke="#0366d6" stroke-width="2.5" />
</svg>