<svg width="600" height="150" viewBox="0 0 600 150" xmlns="http://www.w3.org/2000/svg">
  <defs>
    <filter id="shadow2" x="-2%" y="-2%" width="104%" height="108%">
      <feDropShadow dx="0" dy="2" stdDeviation="3" flood-opacity="0.1" />
    </filter>
    <linearGradient id="fillGrad" x1="0" y1="0" x2="0" y2="1">
      <stop offset="0%" stop-color="#0366d6" stop-opacity="0.3"/>
      <stop offset="100%" stop-color="#0366d6" stop-opacity="0.02"/>
    </linearGradient>
  </defs>
  <rect width="600" height="150" rx="12" fill="#ffffff" filter="url(#shadow2)" stroke="#e1e4e8" stroke-width="1"/>
  <text x="20" y="24" fill="#2b3137" font-family="-apple-system,BlinkMacSystemFont,'Segoe UI',Helvetica,Arial,sans-serif" font-size="14" font-weight="600">📈 Download Growth (Actual: 74.2k)</text>
  
  <!-- Area sotto la linea -->
  <polygon fill="url(#fillGrad)" points="30.0,120.0,120 30.0,120.0 34.7,118.6 39.4,117.1 44.1,115.8 48.8,115.5 53.5,114.8 58.2,113.2 62.9,112.1 67.6,111.4 72.3,109.7 77.0,108.9 81.7,108.1 86.3,107.6 91.0,106.9 95.7,105.7 100.4,104.6 105.1,103.7 109.8,103.0 114.5,102.6 119.2,101.9 123.9,101.0 128.6,100.2 133.3,99.9 138.0,99.1 142.7,96.5 147.4,95.7 152.1,94.7 156.8,93.7 161.5,92.8 166.2,91.9 170.9,91.4 175.6,90.9 180.3,90.2 185.0,88.9 189.7,87.9 194.3,87.1 199.0,86.2 203.7,86.0 208.4,85.8 213.1,85.3 217.8,84.5 222.5,84.0 227.2,83.6 231.9,82.7 236.6,81.3 241.3,81.0 246.0,80.7 250.7,80.1 255.4,79.0 260.1,78.3 264.8,77.2 269.5,76.3 274.2,75.3 278.9,75.1 283.6,74.5 288.3,73.4 293.0,72.4 297.7,71.6 302.3,71.2 307.0,70.7 311.7,70.2 316.4,69.1 321.1,68.0 325.8,67.0 330.5,66.1 335.2,65.6 339.9,65.3 344.6,64.8 349.3,64.1 354.0,63.5 358.7,63.1 363.4,62.7 368.1,62.3 372.8,61.8 377.5,61.4 382.2,61.2 386.9,60.9 391.6,59.8 396.3,59.2 401.0,59.0 405.7,58.7 410.3,58.5 415.0,58.5 419.7,76.0 424.4,74.3 429.1,72.8 433.8,71.1 438.5,66.3 443.2,63.0 447.9,59.4 452.6,58.1 457.3,56.5 462.0,54.1 466.7,51.4 471.4,49.4 476.1,48.7 480.8,48.0 485.5,46.1 490.2,44.6 494.9,43.7 499.6,42.6 504.3,42.1 509.0,41.9 513.7,40.9 518.3,39.3 523.0,38.1 527.7,36.9 532.4,35.6 537.1,35.0 541.8,34.5 546.5,33.4 551.2,32.4 555.9,31.4 560.6,30.6 565.3,30.2 570.0,30.0 570.0,30.0,120" />
  
  <!-- Linea principale -->
  <polyline fill="none" stroke="#0366d6" stroke-width="2.5" stroke-linecap="round" stroke-linejoin="round" points="30.0,120.0 34.7,118.6 39.4,117.1 44.1,115.8 48.8,115.5 53.5,114.8 58.2,113.2 62.9,112.1 67.6,111.4 72.3,109.7 77.0,108.9 81.7,108.1 86.3,107.6 91.0,106.9 95.7,105.7 100.4,104.6 105.1,103.7 109.8,103.0 114.5,102.6 119.2,101.9 123.9,101.0 128.6,100.2 133.3,99.9 138.0,99.1 142.7,96.5 147.4,95.7 152.1,94.7 156.8,93.7 161.5,92.8 166.2,91.9 170.9,91.4 175.6,90.9 180.3,90.2 185.0,88.9 189.7,87.9 194.3,87.1 199.0,86.2 203.7,86.0 208.4,85.8 213.1,85.3 217.8,84.5 222.5,84.0 227.2,83.6 231.9,82.7 236.6,81.3 241.3,81.0 246.0,80.7 250.7,80.1 255.4,79.0 260.1,78.3 264.8,77.2 269.5,76.3 274.2,75.3 278.9,75.1 283.6,74.5 288.3,73.4 293.0,72.4 297.7,71.6 302.3,71.2 307.0,70.7 311.7,70.2 316.4,69.1 321.1,68.0 325.8,67.0 330.5,66.1 335.2,65.6 339.9,65.3 344.6,64.8 349.3,64.1 354.0,63.5 358.7,63.1 363.4,62.7 368.1,62.3 372.8,61.8 377.5,61.4 382.2,61.2 386.9,60.9 391.6,59.8 396.3,59.2 401.0,59.0 405.7,58.7 410.3,58.5 415.0,58.5 419.7,76.0 424.4,74.3 429.1,72.8 433.8,71.1 438.5,66.3 443.2,63.0 447.9,59.4 452.6,58.1 457.3,56.5 462.0,54.1 466.7,51.4 471.4,49.4 476.1,48.7 480.8,48.0 485.5,46.1 490.2,44.6 494.9,43.7 499.6,42.6 504.3,42.1 509.0,41.9 513.7,40.9 518.3,39.3 523.0,38.1 527.7,36.9 532.4,35.6 537.1,35.0 541.8,34.5 546.5,33.4 551.2,32.4 555.9,31.4 560.6,30.6 565.3,30.2 570.0,30.0" />
  
  <!-- Punto finale luminoso -->
  <circle cx="570.0" cy="30.0" r="4" fill="#ffffff" stroke="#0366d6" stroke-width="2.5" />
</svg>