<svg width="600" height="150" viewBox="0 0 600 150" xmlns="http://www.w3.org/2000/svg">
  <defs>
    <filter id="shadow2" x="-2%" y="-2%" width="104%" height="108%">
      <feDropShadow dx="0" dy="2" stdDeviation="3" flood-opacity="0.1" />
    </filter>
    <linearGradient id="fillGrad" x1="0" y1="0" x2="0" y2="1">
      <stop offset="0%" stop-color="#0366d6" stop-opacity="0.3"/>
      <stop offset="100%" stop-color="#0366d6" stop-opacity="0.02"/>
    </linearGradient>
  </defs>
  <rect width="600" height="150" rx="12" fill="#ffffff" filter="url(#shadow2)" stroke="#e1e4e8" stroke-width="1"/>
  <text x="20" y="24" fill="#2b3137" font-family="-apple-system,BlinkMacSystemFont,'Segoe UI',Helvetica,Arial,sans-serif" font-size="14" font-weight="600">📈 Download Growth (Actual: 79.0k)</text>
  
  <!-- Area sotto la linea -->
  <polygon fill="url(#fillGrad)" points="30.0,120.0,120 30.0,120.0 32.2,119.2 34.4,118.3 36.6,117.5 38.9,117.3 41.1,116.9 43.3,115.9 45.5,115.3 47.7,114.8 49.9,113.8 52.1,113.3 54.3,112.8 56.6,112.5 58.8,112.1 61.0,111.4 63.2,110.7 65.4,110.2 67.6,109.8 69.8,109.5 72.0,109.1 74.3,108.6 76.5,108.1 78.7,107.9 80.9,107.4 83.1,105.9 85.3,105.4 87.5,104.8 89.8,104.2 92.0,103.6 94.2,103.1 96.4,102.8 98.6,102.5 100.8,102.1 103.0,101.3 105.2,100.7 107.5,100.2 109.7,99.7 111.9,99.5 114.1,99.4 116.3,99.1 118.5,98.6 120.7,98.3 123.0,98.1 125.2,97.6 127.4,96.7 129.6,96.5 131.8,96.4 134.0,96.0 136.2,95.4 138.4,94.9 140.7,94.2 142.9,93.7 145.1,93.1 147.3,93.0 149.5,92.6 151.7,92.0 153.9,91.4 156.1,90.9 158.4,90.7 160.6,90.4 162.8,90.1 165.0,89.4 167.2,88.7 169.4,88.1 171.6,87.6 173.9,87.3 176.1,87.1 178.3,86.8 180.5,86.4 182.7,86.0 184.9,85.8 187.1,85.5 189.3,85.3 191.6,85.0 193.8,84.8 196.0,84.6 198.2,84.4 200.4,83.8 202.6,83.4 204.8,83.3 207.0,83.1 209.3,83.0 211.5,83.0 213.7,93.6 215.9,92.5 218.1,91.6 220.3,90.6 222.5,87.7 224.8,85.7 227.0,83.5 229.2,82.7 231.4,81.8 233.6,80.3 235.8,78.7 238.0,77.5 240.2,77.1 242.5,76.7 244.7,75.5 246.9,74.7 249.1,74.1 251.3,73.5 253.5,73.2 255.7,73.1 258.0,72.4 260.2,71.5 262.4,70.7 264.6,70.0 266.8,69.2 269.0,68.9 271.2,68.6 273.4,67.9 275.7,67.3 277.9,66.7 280.1,66.2 282.3,66.0 284.5,65.9 286.7,65.5 288.9,65.0 291.1,64.6 293.4,64.2 295.6,63.9 297.8,63.6 300.0,63.3 302.2,63.0 304.4,62.8 306.6,62.5 308.9,62.0 311.1,61.6 313.3,61.1 315.5,60.8 317.7,60.5 319.9,60.3 322.1,60.0 324.3,59.8 326.6,59.0 328.8,58.5 331.0,57.9 333.2,57.6 335.4,57.6 337.6,57.3 339.8,56.9 342.0,56.5 344.3,56.2 346.5,55.7 348.7,55.4 350.9,55.2 353.1,55.0 355.3,54.8 357.5,54.6 359.8,54.3 362.0,54.0 364.2,53.5 366.4,53.3 368.6,53.2 370.8,52.9 373.0,52.8 375.2,52.4 377.5,52.1 379.7,51.7 381.9,51.4 384.1,51.1 386.3,50.8 388.5,50.7 390.7,50.4 393.0,50.0 395.2,49.5 397.4,49.2 399.6,48.9 401.8,48.3 404.0,48.2 406.2,48.0 408.4,47.8 410.7,47.5 412.9,47.3 415.1,46.9 417.3,46.7 419.5,46.4 421.7,46.2 423.9,46.0 426.1,45.8 428.4,45.6 430.6,45.4 432.8,44.9 435.0,44.7 437.2,44.4 439.4,44.2 441.6,44.0 443.9,43.8 446.1,43.6 448.3,43.4 450.5,43.1 452.7,42.7 454.9,42.2 457.1,41.9 459.3,41.6 461.6,41.5 463.8,41.4 466.0,41.1 468.2,40.7 470.4,40.5 472.6,40.3 474.8,40.0 477.0,39.8 479.3,39.5 481.5,39.3 483.7,39.1 485.9,38.7 488.1,38.5 490.3,38.1 492.5,37.8 494.8,37.6 497.0,37.5 499.2,37.4 501.4,37.2 503.6,36.9 505.8,36.7 508.0,36.4 510.2,36.1 512.5,36.0 514.7,35.8 516.9,35.5 519.1,35.3 521.3,35.0 523.5,34.7 525.7,34.4 528.0,34.1 530.2,33.9 532.4,33.8 534.6,33.6 536.8,33.5 539.0,33.3 541.2,33.1 543.4,32.7 545.7,32.5 547.9,32.3 550.1,32.1 552.3,31.9 554.5,31.6 556.7,31.4 558.9,31.2 561.1,31.0 563.4,30.8 565.6,30.5 567.8,30.3 570.0,30.0 570.0,30.0,120" />
  
  <!-- Linea principale -->
  <polyline fill="none" stroke="#0366d6" stroke-width="2.5" stroke-linecap="round" stroke-linejoin="round" points="30.0,120.0 32.2,119.2 34.4,118.3 36.6,117.5 38.9,117.3 41.1,116.9 43.3,115.9 45.5,115.3 47.7,114.8 49.9,113.8 52.1,113.3 54.3,112.8 56.6,112.5 58.8,112.1 61.0,111.4 63.2,110.7 65.4,110.2 67.6,109.8 69.8,109.5 72.0,109.1 74.3,108.6 76.5,108.1 78.7,107.9 80.9,107.4 83.1,105.9 85.3,105.4 87.5,104.8 89.8,104.2 92.0,103.6 94.2,103.1 96.4,102.8 98.6,102.5 100.8,102.1 103.0,101.3 105.2,100.7 107.5,100.2 109.7,99.7 111.9,99.5 114.1,99.4 116.3,99.1 118.5,98.6 120.7,98.3 123.0,98.1 125.2,97.6 127.4,96.7 129.6,96.5 131.8,96.4 134.0,96.0 136.2,95.4 138.4,94.9 140.7,94.2 142.9,93.7 145.1,93.1 147.3,93.0 149.5,92.6 151.7,92.0 153.9,91.4 156.1,90.9 158.4,90.7 160.6,90.4 162.8,90.1 165.0,89.4 167.2,88.7 169.4,88.1 171.6,87.6 173.9,87.3 176.1,87.1 178.3,86.8 180.5,86.4 182.7,86.0 184.9,85.8 187.1,85.5 189.3,85.3 191.6,85.0 193.8,84.8 196.0,84.6 198.2,84.4 200.4,83.8 202.6,83.4 204.8,83.3 207.0,83.1 209.3,83.0 211.5,83.0 213.7,93.6 215.9,92.5 218.1,91.6 220.3,90.6 222.5,87.7 224.8,85.7 227.0,83.5 229.2,82.7 231.4,81.8 233.6,80.3 235.8,78.7 238.0,77.5 240.2,77.1 242.5,76.7 244.7,75.5 246.9,74.7 249.1,74.1 251.3,73.5 253.5,73.2 255.7,73.1 258.0,72.4 260.2,71.5 262.4,70.7 264.6,70.0 266.8,69.2 269.0,68.9 271.2,68.6 273.4,67.9 275.7,67.3 277.9,66.7 280.1,66.2 282.3,66.0 284.5,65.9 286.7,65.5 288.9,65.0 291.1,64.6 293.4,64.2 295.6,63.9 297.8,63.6 300.0,63.3 302.2,63.0 304.4,62.8 306.6,62.5 308.9,62.0 311.1,61.6 313.3,61.1 315.5,60.8 317.7,60.5 319.9,60.3 322.1,60.0 324.3,59.8 326.6,59.0 328.8,58.5 331.0,57.9 333.2,57.6 335.4,57.6 337.6,57.3 339.8,56.9 342.0,56.5 344.3,56.2 346.5,55.7 348.7,55.4 350.9,55.2 353.1,55.0 355.3,54.8 357.5,54.6 359.8,54.3 362.0,54.0 364.2,53.5 366.4,53.3 368.6,53.2 370.8,52.9 373.0,52.8 375.2,52.4 377.5,52.1 379.7,51.7 381.9,51.4 384.1,51.1 386.3,50.8 388.5,50.7 390.7,50.4 393.0,50.0 395.2,49.5 397.4,49.2 399.6,48.9 401.8,48.3 404.0,48.2 406.2,48.0 408.4,47.8 410.7,47.5 412.9,47.3 415.1,46.9 417.3,46.7 419.5,46.4 421.7,46.2 423.9,46.0 426.1,45.8 428.4,45.6 430.6,45.4 432.8,44.9 435.0,44.7 437.2,44.4 439.4,44.2 441.6,44.0 443.9,43.8 446.1,43.6 448.3,43.4 450.5,43.1 452.7,42.7 454.9,42.2 457.1,41.9 459.3,41.6 461.6,41.5 463.8,41.4 466.0,41.1 468.2,40.7 470.4,40.5 472.6,40.3 474.8,40.0 477.0,39.8 479.3,39.5 481.5,39.3 483.7,39.1 485.9,38.7 488.1,38.5 490.3,38.1 492.5,37.8 494.8,37.6 497.0,37.5 499.2,37.4 501.4,37.2 503.6,36.9 505.8,36.7 508.0,36.4 510.2,36.1 512.5,36.0 514.7,35.8 516.9,35.5 519.1,35.3 521.3,35.0 523.5,34.7 525.7,34.4 528.0,34.1 530.2,33.9 532.4,33.8 534.6,33.6 536.8,33.5 539.0,33.3 541.2,33.1 543.4,32.7 545.7,32.5 547.9,32.3 550.1,32.1 552.3,31.9 554.5,31.6 556.7,31.4 558.9,31.2 561.1,31.0 563.4,30.8 565.6,30.5 567.8,30.3 570.0,30.0" />
  
  <!-- Punto finale luminoso -->
  <circle cx="570.0" cy="30.0" r="4" fill="#ffffff" stroke="#0366d6" stroke-width="2.5" />
</svg>