<svg width="600" height="150" viewBox="0 0 600 150" xmlns="http://www.w3.org/2000/svg">
  <defs>
    <filter id="shadow2" x="-2%" y="-2%" width="104%" height="108%">
      <feDropShadow dx="0" dy="2" stdDeviation="3" flood-opacity="0.1" />
    </filter>
    <linearGradient id="fillGrad" x1="0" y1="0" x2="0" y2="1">
      <stop offset="0%" stop-color="#0366d6" stop-opacity="0.3"/>
      <stop offset="100%" stop-color="#0366d6" stop-opacity="0.02"/>
    </linearGradient>
  </defs>
  <rect width="600" height="150" rx="12" fill="#ffffff" filter="url(#shadow2)" stroke="#e1e4e8" stroke-width="1"/>
  <text x="20" y="24" fill="#2b3137" font-family="-apple-system,BlinkMacSystemFont,'Segoe UI',Helvetica,Arial,sans-serif" font-size="14" font-weight="600">📈 Download Growth (Actual: 73.8k)</text>
  
  <!-- Area sotto la linea -->
  <polygon fill="url(#fillGrad)" points="30.0,120.0,120 30.0,120.0 35.0,118.5 39.9,117.0 44.9,115.6 49.8,115.2 54.8,114.5 59.7,112.8 64.7,111.7 69.6,110.9 74.6,109.2 79.5,108.3 84.5,107.5 89.4,107.0 94.4,106.2 99.4,105.0 104.3,103.8 109.3,102.8 114.2,102.1 119.2,101.7 124.1,100.9 129.1,100.0 134.0,99.2 139.0,98.8 143.9,98.0 148.9,95.3 153.9,94.5 158.8,93.4 163.8,92.3 168.7,91.4 173.7,90.5 178.6,89.9 183.6,89.4 188.5,88.6 193.5,87.3 198.4,86.2 203.4,85.4 208.3,84.5 213.3,84.2 218.3,84.0 223.2,83.5 228.2,82.6 233.1,82.1 238.1,81.7 243.0,80.7 248.0,79.3 252.9,78.9 257.9,78.6 262.8,78.0 267.8,76.9 272.8,76.1 277.7,74.9 282.7,74.0 287.6,73.0 292.6,72.7 297.5,72.1 302.5,71.0 307.4,69.9 312.4,69.0 317.3,68.7 322.3,68.1 327.2,67.6 332.2,66.4 337.2,65.2 342.1,64.2 347.1,63.2 352.0,62.7 357.0,62.4 361.9,61.9 366.9,61.1 371.8,60.6 376.8,60.1 381.7,59.7 386.7,59.3 391.7,58.7 396.6,58.3 401.6,58.1 406.5,57.8 411.5,56.6 416.4,56.0 421.4,55.8 426.3,55.4 431.3,55.2 436.2,55.2 441.2,73.7 446.1,71.9 451.1,70.3 456.1,68.6 461.0,63.5 466.0,60.0 470.9,56.2 475.9,54.8 480.8,53.2 485.8,50.6 490.7,47.8 495.7,45.7 500.6,44.9 505.6,44.2 510.6,42.2 515.5,40.7 520.5,39.7 525.4,38.5 530.4,38.0 535.3,37.8 540.3,36.8 545.2,35.0 550.2,33.8 555.1,32.6 560.1,31.2 565.0,30.5 570.0,30.0 570.0,30.0,120" />
  
  <!-- Linea principale -->
  <polyline fill="none" stroke="#0366d6" stroke-width="2.5" stroke-linecap="round" stroke-linejoin="round" points="30.0,120.0 35.0,118.5 39.9,117.0 44.9,115.6 49.8,115.2 54.8,114.5 59.7,112.8 64.7,111.7 69.6,110.9 74.6,109.2 79.5,108.3 84.5,107.5 89.4,107.0 94.4,106.2 99.4,105.0 104.3,103.8 109.3,102.8 114.2,102.1 119.2,101.7 124.1,100.9 129.1,100.0 134.0,99.2 139.0,98.8 143.9,98.0 148.9,95.3 153.9,94.5 158.8,93.4 163.8,92.3 168.7,91.4 173.7,90.5 178.6,89.9 183.6,89.4 188.5,88.6 193.5,87.3 198.4,86.2 203.4,85.4 208.3,84.5 213.3,84.2 218.3,84.0 223.2,83.5 228.2,82.6 233.1,82.1 238.1,81.7 243.0,80.7 248.0,79.3 252.9,78.9 257.9,78.6 262.8,78.0 267.8,76.9 272.8,76.1 277.7,74.9 282.7,74.0 287.6,73.0 292.6,72.7 297.5,72.1 302.5,71.0 307.4,69.9 312.4,69.0 317.3,68.7 322.3,68.1 327.2,67.6 332.2,66.4 337.2,65.2 342.1,64.2 347.1,63.2 352.0,62.7 357.0,62.4 361.9,61.9 366.9,61.1 371.8,60.6 376.8,60.1 381.7,59.7 386.7,59.3 391.7,58.7 396.6,58.3 401.6,58.1 406.5,57.8 411.5,56.6 416.4,56.0 421.4,55.8 426.3,55.4 431.3,55.2 436.2,55.2 441.2,73.7 446.1,71.9 451.1,70.3 456.1,68.6 461.0,63.5 466.0,60.0 470.9,56.2 475.9,54.8 480.8,53.2 485.8,50.6 490.7,47.8 495.7,45.7 500.6,44.9 505.6,44.2 510.6,42.2 515.5,40.7 520.5,39.7 525.4,38.5 530.4,38.0 535.3,37.8 540.3,36.8 545.2,35.0 550.2,33.8 555.1,32.6 560.1,31.2 565.0,30.5 570.0,30.0" />
  
  <!-- Punto finale luminoso -->
  <circle cx="570.0" cy="30.0" r="4" fill="#ffffff" stroke="#0366d6" stroke-width="2.5" />
</svg>