<svg width="600" height="150" viewBox="0 0 600 150" xmlns="http://www.w3.org/2000/svg">
  <defs>
    <filter id="shadow2" x="-2%" y="-2%" width="104%" height="108%">
      <feDropShadow dx="0" dy="2" stdDeviation="3" flood-opacity="0.1" />
    </filter>
    <linearGradient id="fillGrad" x1="0" y1="0" x2="0" y2="1">
      <stop offset="0%" stop-color="#0366d6" stop-opacity="0.3"/>
      <stop offset="100%" stop-color="#0366d6" stop-opacity="0.02"/>
    </linearGradient>
  </defs>
  <rect width="600" height="150" rx="12" fill="#ffffff" filter="url(#shadow2)" stroke="#e1e4e8" stroke-width="1"/>
  <text x="20" y="24" fill="#2b3137" font-family="-apple-system,BlinkMacSystemFont,'Segoe UI',Helvetica,Arial,sans-serif" font-size="14" font-weight="600">📈 Download Growth (Actual: 78.7k)</text>
  
  <!-- Area sotto la linea -->
  <polygon fill="url(#fillGrad)" points="30.0,120.0,120 30.0,120.0 32.3,119.1 34.6,118.2 36.9,117.4 39.2,117.2 41.5,116.8 43.8,115.8 46.2,115.1 48.5,114.7 50.8,113.7 53.1,113.2 55.4,112.7 57.7,112.4 60.0,111.9 62.3,111.2 64.6,110.5 66.9,109.9 69.2,109.5 71.5,109.3 73.8,108.8 76.2,108.3 78.5,107.8 80.8,107.6 83.1,107.1 85.4,105.5 87.7,105.0 90.0,104.4 92.3,103.8 94.6,103.2 96.9,102.7 99.2,102.3 101.5,102.1 103.8,101.6 106.2,100.8 108.5,100.2 110.8,99.7 113.1,99.2 115.4,99.0 117.7,98.9 120.0,98.6 122.3,98.1 124.6,97.8 126.9,97.6 129.2,97.0 131.5,96.1 133.8,95.9 136.2,95.8 138.5,95.4 140.8,94.7 143.1,94.3 145.4,93.6 147.7,93.1 150.0,92.4 152.3,92.3 154.6,91.9 156.9,91.3 159.2,90.6 161.5,90.1 163.8,89.9 166.2,89.6 168.5,89.3 170.8,88.6 173.1,87.9 175.4,87.3 177.7,86.7 180.0,86.4 182.3,86.2 184.6,86.0 186.9,85.5 189.2,85.2 191.5,84.9 193.8,84.6 196.2,84.4 198.5,84.1 200.8,83.8 203.1,83.7 205.4,83.5 207.7,82.9 210.0,82.5 212.3,82.4 214.6,82.2 216.9,82.0 219.2,82.0 221.5,92.9 223.8,91.8 226.2,90.9 228.5,89.9 230.8,86.9 233.1,84.8 235.4,82.6 237.7,81.8 240.0,80.9 242.3,79.3 244.6,77.7 246.9,76.5 249.2,76.0 251.5,75.6 253.8,74.4 256.2,73.5 258.5,73.0 260.8,72.3 263.1,72.0 265.4,71.8 267.7,71.2 270.0,70.2 272.3,69.5 274.6,68.8 276.9,67.9 279.2,67.5 281.5,67.3 283.8,66.6 286.2,65.9 288.5,65.3 290.8,64.8 293.1,64.6 295.4,64.5 297.7,64.1 300.0,63.6 302.3,63.2 304.6,62.8 306.9,62.5 309.2,62.2 311.5,61.9 313.8,61.6 316.2,61.3 318.5,61.0 320.8,60.5 323.1,60.1 325.4,59.6 327.7,59.3 330.0,59.0 332.3,58.8 334.6,58.5 336.9,58.2 339.2,57.5 341.5,56.9 343.8,56.3 346.2,56.0 348.5,56.0 350.8,55.7 353.1,55.3 355.4,54.9 357.7,54.5 360.0,54.0 362.3,53.7 364.6,53.6 366.9,53.3 369.2,53.1 371.5,52.9 373.8,52.6 376.2,52.3 378.5,51.8 380.8,51.6 383.1,51.5 385.4,51.2 387.7,51.1 390.0,50.7 392.3,50.3 394.6,50.0 396.9,49.6 399.2,49.3 401.5,49.0 403.8,48.9 406.2,48.7 408.5,48.2 410.8,47.7 413.1,47.4 415.4,47.0 417.7,46.4 420.0,46.3 422.3,46.1 424.6,46.0 426.9,45.7 429.2,45.4 431.5,45.1 433.8,44.8 436.2,44.6 438.5,44.3 440.8,44.1 443.1,43.9 445.4,43.7 447.7,43.4 450.0,43.0 452.3,42.8 454.6,42.5 456.9,42.3 459.2,42.1 461.5,41.8 463.8,41.6 466.2,41.4 468.5,41.2 470.8,40.7 473.1,40.2 475.4,39.9 477.7,39.6 480.0,39.5 482.3,39.4 484.6,39.1 486.9,38.6 489.2,38.4 491.5,38.3 493.8,37.9 496.2,37.7 498.5,37.4 500.8,37.2 503.1,37.0 505.4,36.7 507.7,36.4 510.0,36.0 512.3,35.7 514.6,35.5 516.9,35.4 519.2,35.3 521.5,35.1 523.8,34.8 526.2,34.5 528.5,34.3 530.8,34.0 533.1,33.8 535.4,33.6 537.7,33.4 540.0,33.2 542.3,32.8 544.6,32.5 546.9,32.2 549.2,31.9 551.5,31.7 553.8,31.6 556.2,31.4 558.5,31.3 560.8,31.1 563.1,30.9 565.4,30.5 567.7,30.3 570.0,30.0 570.0,30.0,120" />
  
  <!-- Linea principale -->
  <polyline fill="none" stroke="#0366d6" stroke-width="2.5" stroke-linecap="round" stroke-linejoin="round" points="30.0,120.0 32.3,119.1 34.6,118.2 36.9,117.4 39.2,117.2 41.5,116.8 43.8,115.8 46.2,115.1 48.5,114.7 50.8,113.7 53.1,113.2 55.4,112.7 57.7,112.4 60.0,111.9 62.3,111.2 64.6,110.5 66.9,109.9 69.2,109.5 71.5,109.3 73.8,108.8 76.2,108.3 78.5,107.8 80.8,107.6 83.1,107.1 85.4,105.5 87.7,105.0 90.0,104.4 92.3,103.8 94.6,103.2 96.9,102.7 99.2,102.3 101.5,102.1 103.8,101.6 106.2,100.8 108.5,100.2 110.8,99.7 113.1,99.2 115.4,99.0 117.7,98.9 120.0,98.6 122.3,98.1 124.6,97.8 126.9,97.6 129.2,97.0 131.5,96.1 133.8,95.9 136.2,95.8 138.5,95.4 140.8,94.7 143.1,94.3 145.4,93.6 147.7,93.1 150.0,92.4 152.3,92.3 154.6,91.9 156.9,91.3 159.2,90.6 161.5,90.1 163.8,89.9 166.2,89.6 168.5,89.3 170.8,88.6 173.1,87.9 175.4,87.3 177.7,86.7 180.0,86.4 182.3,86.2 184.6,86.0 186.9,85.5 189.2,85.2 191.5,84.9 193.8,84.6 196.2,84.4 198.5,84.1 200.8,83.8 203.1,83.7 205.4,83.5 207.7,82.9 210.0,82.5 212.3,82.4 214.6,82.2 216.9,82.0 219.2,82.0 221.5,92.9 223.8,91.8 226.2,90.9 228.5,89.9 230.8,86.9 233.1,84.8 235.4,82.6 237.7,81.8 240.0,80.9 242.3,79.3 244.6,77.7 246.9,76.5 249.2,76.0 251.5,75.6 253.8,74.4 256.2,73.5 258.5,73.0 260.8,72.3 263.1,72.0 265.4,71.8 267.7,71.2 270.0,70.2 272.3,69.5 274.6,68.8 276.9,67.9 279.2,67.5 281.5,67.3 283.8,66.6 286.2,65.9 288.5,65.3 290.8,64.8 293.1,64.6 295.4,64.5 297.7,64.1 300.0,63.6 302.3,63.2 304.6,62.8 306.9,62.5 309.2,62.2 311.5,61.9 313.8,61.6 316.2,61.3 318.5,61.0 320.8,60.5 323.1,60.1 325.4,59.6 327.7,59.3 330.0,59.0 332.3,58.8 334.6,58.5 336.9,58.2 339.2,57.5 341.5,56.9 343.8,56.3 346.2,56.0 348.5,56.0 350.8,55.7 353.1,55.3 355.4,54.9 357.7,54.5 360.0,54.0 362.3,53.7 364.6,53.6 366.9,53.3 369.2,53.1 371.5,52.9 373.8,52.6 376.2,52.3 378.5,51.8 380.8,51.6 383.1,51.5 385.4,51.2 387.7,51.1 390.0,50.7 392.3,50.3 394.6,50.0 396.9,49.6 399.2,49.3 401.5,49.0 403.8,48.9 406.2,48.7 408.5,48.2 410.8,47.7 413.1,47.4 415.4,47.0 417.7,46.4 420.0,46.3 422.3,46.1 424.6,46.0 426.9,45.7 429.2,45.4 431.5,45.1 433.8,44.8 436.2,44.6 438.5,44.3 440.8,44.1 443.1,43.9 445.4,43.7 447.7,43.4 450.0,43.0 452.3,42.8 454.6,42.5 456.9,42.3 459.2,42.1 461.5,41.8 463.8,41.6 466.2,41.4 468.5,41.2 470.8,40.7 473.1,40.2 475.4,39.9 477.7,39.6 480.0,39.5 482.3,39.4 484.6,39.1 486.9,38.6 489.2,38.4 491.5,38.3 493.8,37.9 496.2,37.7 498.5,37.4 500.8,37.2 503.1,37.0 505.4,36.7 507.7,36.4 510.0,36.0 512.3,35.7 514.6,35.5 516.9,35.4 519.2,35.3 521.5,35.1 523.8,34.8 526.2,34.5 528.5,34.3 530.8,34.0 533.1,33.8 535.4,33.6 537.7,33.4 540.0,33.2 542.3,32.8 544.6,32.5 546.9,32.2 549.2,31.9 551.5,31.7 553.8,31.6 556.2,31.4 558.5,31.3 560.8,31.1 563.1,30.9 565.4,30.5 567.7,30.3 570.0,30.0" />
  
  <!-- Punto finale luminoso -->
  <circle cx="570.0" cy="30.0" r="4" fill="#ffffff" stroke="#0366d6" stroke-width="2.5" />
</svg>