<svg width="600" height="150" viewBox="0 0 600 150" xmlns="http://www.w3.org/2000/svg">
  <defs>
    <filter id="shadow2" x="-2%" y="-2%" width="104%" height="108%">
      <feDropShadow dx="0" dy="2" stdDeviation="3" flood-opacity="0.1" />
    </filter>
    <linearGradient id="fillGrad" x1="0" y1="0" x2="0" y2="1">
      <stop offset="0%" stop-color="#0366d6" stop-opacity="0.3"/>
      <stop offset="100%" stop-color="#0366d6" stop-opacity="0.02"/>
    </linearGradient>
  </defs>
  <rect width="600" height="150" rx="12" fill="#ffffff" filter="url(#shadow2)" stroke="#e1e4e8" stroke-width="1"/>
  <text x="20" y="24" fill="#2b3137" font-family="-apple-system,BlinkMacSystemFont,'Segoe UI',Helvetica,Arial,sans-serif" font-size="14" font-weight="600">📈 Download Growth (Actual: 86.7k)</text>
  
  <!-- Area sotto la linea -->
  <polygon fill="url(#fillGrad)" points="30.0,120.0,120 30.0,120.0 31.4,119.5 32.8,118.9 34.1,118.5 35.5,118.3 36.9,118.1 38.3,117.5 39.6,117.1 41.0,116.8 42.4,116.2 43.8,115.9 45.2,115.6 46.5,115.4 47.9,115.2 49.3,114.8 50.7,114.3 52.0,114.0 53.4,113.8 54.8,113.6 56.2,113.3 57.6,113.0 58.9,112.7 60.3,112.6 61.7,112.3 63.1,111.4 64.4,111.1 65.8,110.7 67.2,110.3 68.6,110.0 69.9,109.7 71.3,109.5 72.7,109.3 74.1,109.0 75.5,108.6 76.8,108.2 78.2,107.9 79.6,107.6 81.0,107.5 82.3,107.4 83.7,107.2 85.1,106.9 86.5,106.7 87.9,106.6 89.2,106.3 90.6,105.7 92.0,105.6 93.4,105.5 94.7,105.3 96.1,104.9 97.5,104.6 98.9,104.2 100.3,103.9 101.6,103.5 103.0,103.5 104.4,103.2 105.8,102.9 107.1,102.5 108.5,102.2 109.9,102.0 111.3,101.8 112.7,101.7 114.0,101.2 115.4,100.8 116.8,100.5 118.2,100.1 119.5,99.9 120.9,99.8 122.3,99.7 123.7,99.4 125.1,99.2 126.4,99.0 127.8,98.9 129.2,98.8 130.6,98.6 131.9,98.4 133.3,98.3 134.7,98.2 136.1,97.8 137.4,97.6 138.8,97.5 140.2,97.4 141.6,97.3 143.0,97.3 144.3,103.8 145.7,103.2 147.1,102.6 148.5,102.0 149.8,100.2 151.2,99.0 152.6,97.7 154.0,97.2 155.4,96.6 156.7,95.7 158.1,94.7 159.5,94.0 160.9,93.7 162.2,93.5 163.6,92.8 165.0,92.2 166.4,91.9 167.8,91.5 169.1,91.3 170.5,91.3 171.9,90.9 173.3,90.3 174.6,89.8 176.0,89.4 177.4,88.9 178.8,88.7 180.2,88.5 181.5,88.1 182.9,87.7 184.3,87.4 185.7,87.1 187.0,86.9 188.4,86.8 189.8,86.6 191.2,86.3 192.6,86.1 193.9,85.8 195.3,85.7 196.7,85.5 198.1,85.3 199.4,85.1 200.8,85.0 202.2,84.8 203.6,84.5 204.9,84.2 206.3,83.9 207.7,83.8 209.1,83.6 210.5,83.4 211.8,83.3 213.2,83.1 214.6,82.7 216.0,82.3 217.3,82.0 218.7,81.8 220.1,81.8 221.5,81.6 222.9,81.4 224.2,81.1 225.6,80.9 227.0,80.6 228.4,80.4 229.7,80.3 231.1,80.2 232.5,80.1 233.9,79.9 235.3,79.7 236.6,79.6 238.0,79.3 239.4,79.2 240.8,79.1 242.1,78.9 243.5,78.9 244.9,78.6 246.3,78.4 247.7,78.2 249.0,78.0 250.4,77.8 251.8,77.6 253.2,77.5 254.5,77.4 255.9,77.1 257.3,76.8 258.7,76.6 260.1,76.4 261.4,76.1 262.8,76.0 264.2,75.9 265.6,75.8 266.9,75.6 268.3,75.5 269.7,75.3 271.1,75.1 272.4,75.0 273.8,74.8 275.2,74.7 276.6,74.5 278.0,74.5 279.3,74.3 280.7,74.0 282.1,73.9 283.5,73.7 284.8,73.6 286.2,73.5 287.6,73.3 289.0,73.2 290.4,73.1 291.7,72.9 293.1,72.7 294.5,72.4 295.9,72.2 297.2,72.0 298.6,71.9 300.0,71.9 301.4,71.7 302.8,71.4 304.1,71.3 305.5,71.2 306.9,71.0 308.3,70.9 309.6,70.7 311.0,70.6 312.4,70.5 313.8,70.2 315.2,70.1 316.5,69.8 317.9,69.6 319.3,69.6 320.7,69.5 322.0,69.4 323.4,69.3 324.8,69.1 326.2,69.0 327.6,68.8 328.9,68.6 330.3,68.5 331.7,68.4 333.1,68.3 334.4,68.2 335.8,68.0 337.2,67.7 338.6,67.6 339.9,67.4 341.3,67.3 342.7,67.2 344.1,67.1 345.5,67.0 346.8,66.9 348.2,66.8 349.6,66.6 351.0,66.4 352.3,66.3 353.7,66.2 355.1,66.0 356.5,65.9 357.9,65.7 359.2,65.6 360.6,65.5 362.0,65.4 363.4,65.2 364.7,65.0 366.1,64.9 367.5,64.8 368.9,64.7 370.3,64.6 371.6,64.5 373.0,64.4 374.4,64.2 375.8,64.2 377.1,64.1 378.5,63.8 379.9,63.6 381.3,67.8 382.7,67.0 384.0,65.4 385.4,64.8 386.8,64.0 388.2,63.1 389.5,62.6 390.9,62.3 392.3,61.7 393.7,60.7 395.1,60.0 396.4,59.8 397.8,59.5 399.2,59.2 400.6,58.7 401.9,58.3 403.3,57.8 404.7,57.5 406.1,57.1 407.4,56.8 408.8,56.5 410.2,56.3 411.6,56.0 413.0,55.8 414.3,55.4 415.7,55.0 417.1,54.6 418.5,54.0 419.8,53.7 421.2,53.5 422.6,53.3 424.0,53.1 425.4,52.7 426.7,52.4 428.1,52.1 429.5,51.3 430.9,50.6 432.2,50.3 433.6,50.1 435.0,49.8 436.4,49.4 437.8,49.0 439.1,48.7 440.5,48.4 441.9,48.1 443.3,47.8 444.6,47.5 446.0,47.1 447.4,46.9 448.8,46.7 450.2,46.5 451.5,46.1 452.9,45.9 454.3,45.7 455.7,45.5 457.0,45.4 458.4,45.1 459.8,44.9 461.2,44.7 462.6,44.6 463.9,44.4 465.3,44.2 466.7,44.0 468.1,43.8 469.4,43.5 470.8,43.1 472.2,42.8 473.6,42.7 474.9,42.5 476.3,42.3 477.7,42.2 479.1,42.0 480.5,41.8 481.8,41.7 483.2,41.6 484.6,41.4 486.0,41.3 487.3,40.9 488.7,40.8 490.1,40.7 491.5,40.4 492.9,40.1 494.2,39.7 495.6,39.6 497.0,39.4 498.4,39.1 499.7,38.9 501.1,38.7 502.5,38.4 503.9,38.3 505.3,38.2 506.6,38.0 508.0,37.8 509.4,37.6 510.8,37.4 512.1,37.3 513.5,37.1 514.9,36.8 516.3,36.6 517.7,36.4 519.0,36.2 520.4,35.9 521.8,35.7 523.2,35.5 524.5,35.4 525.9,35.2 527.3,35.1 528.7,34.9 530.1,34.7 531.4,34.4 532.8,34.3 534.2,34.2 535.6,34.0 536.9,33.8 538.3,33.7 539.7,33.6 541.1,33.4 542.4,33.3 543.8,33.2 545.2,33.0 546.6,32.8 548.0,32.7 549.3,32.5 550.7,32.4 552.1,32.2 553.5,32.0 554.8,31.8 556.2,31.7 557.6,31.6 559.0,31.3 560.4,31.1 561.7,30.8 563.1,30.7 564.5,30.6 565.9,30.6 567.2,30.4 568.6,30.2 570.0,30.0 570.0,30.0,120" />
  
  <!-- Linea principale -->
  <polyline fill="none" stroke="#0366d6" stroke-width="2.5" stroke-linecap="round" stroke-linejoin="round" points="30.0,120.0 31.4,119.5 32.8,118.9 34.1,118.5 35.5,118.3 36.9,118.1 38.3,117.5 39.6,117.1 41.0,116.8 42.4,116.2 43.8,115.9 45.2,115.6 46.5,115.4 47.9,115.2 49.3,114.8 50.7,114.3 52.0,114.0 53.4,113.8 54.8,113.6 56.2,113.3 57.6,113.0 58.9,112.7 60.3,112.6 61.7,112.3 63.1,111.4 64.4,111.1 65.8,110.7 67.2,110.3 68.6,110.0 69.9,109.7 71.3,109.5 72.7,109.3 74.1,109.0 75.5,108.6 76.8,108.2 78.2,107.9 79.6,107.6 81.0,107.5 82.3,107.4 83.7,107.2 85.1,106.9 86.5,106.7 87.9,106.6 89.2,106.3 90.6,105.7 92.0,105.6 93.4,105.5 94.7,105.3 96.1,104.9 97.5,104.6 98.9,104.2 100.3,103.9 101.6,103.5 103.0,103.5 104.4,103.2 105.8,102.9 107.1,102.5 108.5,102.2 109.9,102.0 111.3,101.8 112.7,101.7 114.0,101.2 115.4,100.8 116.8,100.5 118.2,100.1 119.5,99.9 120.9,99.8 122.3,99.7 123.7,99.4 125.1,99.2 126.4,99.0 127.8,98.9 129.2,98.8 130.6,98.6 131.9,98.4 133.3,98.3 134.7,98.2 136.1,97.8 137.4,97.6 138.8,97.5 140.2,97.4 141.6,97.3 143.0,97.3 144.3,103.8 145.7,103.2 147.1,102.6 148.5,102.0 149.8,100.2 151.2,99.0 152.6,97.7 154.0,97.2 155.4,96.6 156.7,95.7 158.1,94.7 159.5,94.0 160.9,93.7 162.2,93.5 163.6,92.8 165.0,92.2 166.4,91.9 167.8,91.5 169.1,91.3 170.5,91.3 171.9,90.9 173.3,90.3 174.6,89.8 176.0,89.4 177.4,88.9 178.8,88.7 180.2,88.5 181.5,88.1 182.9,87.7 184.3,87.4 185.7,87.1 187.0,86.9 188.4,86.8 189.8,86.6 191.2,86.3 192.6,86.1 193.9,85.8 195.3,85.7 196.7,85.5 198.1,85.3 199.4,85.1 200.8,85.0 202.2,84.8 203.6,84.5 204.9,84.2 206.3,83.9 207.7,83.8 209.1,83.6 210.5,83.4 211.8,83.3 213.2,83.1 214.6,82.7 216.0,82.3 217.3,82.0 218.7,81.8 220.1,81.8 221.5,81.6 222.9,81.4 224.2,81.1 225.6,80.9 227.0,80.6 228.4,80.4 229.7,80.3 231.1,80.2 232.5,80.1 233.9,79.9 235.3,79.7 236.6,79.6 238.0,79.3 239.4,79.2 240.8,79.1 242.1,78.9 243.5,78.9 244.9,78.6 246.3,78.4 247.7,78.2 249.0,78.0 250.4,77.8 251.8,77.6 253.2,77.5 254.5,77.4 255.9,77.1 257.3,76.8 258.7,76.6 260.1,76.4 261.4,76.1 262.8,76.0 264.2,75.9 265.6,75.8 266.9,75.6 268.3,75.5 269.7,75.3 271.1,75.1 272.4,75.0 273.8,74.8 275.2,74.7 276.6,74.5 278.0,74.5 279.3,74.3 280.7,74.0 282.1,73.9 283.5,73.7 284.8,73.6 286.2,73.5 287.6,73.3 289.0,73.2 290.4,73.1 291.7,72.9 293.1,72.7 294.5,72.4 295.9,72.2 297.2,72.0 298.6,71.9 300.0,71.9 301.4,71.7 302.8,71.4 304.1,71.3 305.5,71.2 306.9,71.0 308.3,70.9 309.6,70.7 311.0,70.6 312.4,70.5 313.8,70.2 315.2,70.1 316.5,69.8 317.9,69.6 319.3,69.6 320.7,69.5 322.0,69.4 323.4,69.3 324.8,69.1 326.2,69.0 327.6,68.8 328.9,68.6 330.3,68.5 331.7,68.4 333.1,68.3 334.4,68.2 335.8,68.0 337.2,67.7 338.6,67.6 339.9,67.4 341.3,67.3 342.7,67.2 344.1,67.1 345.5,67.0 346.8,66.9 348.2,66.8 349.6,66.6 351.0,66.4 352.3,66.3 353.7,66.2 355.1,66.0 356.5,65.9 357.9,65.7 359.2,65.6 360.6,65.5 362.0,65.4 363.4,65.2 364.7,65.0 366.1,64.9 367.5,64.8 368.9,64.7 370.3,64.6 371.6,64.5 373.0,64.4 374.4,64.2 375.8,64.2 377.1,64.1 378.5,63.8 379.9,63.6 381.3,67.8 382.7,67.0 384.0,65.4 385.4,64.8 386.8,64.0 388.2,63.1 389.5,62.6 390.9,62.3 392.3,61.7 393.7,60.7 395.1,60.0 396.4,59.8 397.8,59.5 399.2,59.2 400.6,58.7 401.9,58.3 403.3,57.8 404.7,57.5 406.1,57.1 407.4,56.8 408.8,56.5 410.2,56.3 411.6,56.0 413.0,55.8 414.3,55.4 415.7,55.0 417.1,54.6 418.5,54.0 419.8,53.7 421.2,53.5 422.6,53.3 424.0,53.1 425.4,52.7 426.7,52.4 428.1,52.1 429.5,51.3 430.9,50.6 432.2,50.3 433.6,50.1 435.0,49.8 436.4,49.4 437.8,49.0 439.1,48.7 440.5,48.4 441.9,48.1 443.3,47.8 444.6,47.5 446.0,47.1 447.4,46.9 448.8,46.7 450.2,46.5 451.5,46.1 452.9,45.9 454.3,45.7 455.7,45.5 457.0,45.4 458.4,45.1 459.8,44.9 461.2,44.7 462.6,44.6 463.9,44.4 465.3,44.2 466.7,44.0 468.1,43.8 469.4,43.5 470.8,43.1 472.2,42.8 473.6,42.7 474.9,42.5 476.3,42.3 477.7,42.2 479.1,42.0 480.5,41.8 481.8,41.7 483.2,41.6 484.6,41.4 486.0,41.3 487.3,40.9 488.7,40.8 490.1,40.7 491.5,40.4 492.9,40.1 494.2,39.7 495.6,39.6 497.0,39.4 498.4,39.1 499.7,38.9 501.1,38.7 502.5,38.4 503.9,38.3 505.3,38.2 506.6,38.0 508.0,37.8 509.4,37.6 510.8,37.4 512.1,37.3 513.5,37.1 514.9,36.8 516.3,36.6 517.7,36.4 519.0,36.2 520.4,35.9 521.8,35.7 523.2,35.5 524.5,35.4 525.9,35.2 527.3,35.1 528.7,34.9 530.1,34.7 531.4,34.4 532.8,34.3 534.2,34.2 535.6,34.0 536.9,33.8 538.3,33.7 539.7,33.6 541.1,33.4 542.4,33.3 543.8,33.2 545.2,33.0 546.6,32.8 548.0,32.7 549.3,32.5 550.7,32.4 552.1,32.2 553.5,32.0 554.8,31.8 556.2,31.7 557.6,31.6 559.0,31.3 560.4,31.1 561.7,30.8 563.1,30.7 564.5,30.6 565.9,30.6 567.2,30.4 568.6,30.2 570.0,30.0" />
  
  <!-- Punto finale luminoso -->
  <circle cx="570.0" cy="30.0" r="4" fill="#ffffff" stroke="#0366d6" stroke-width="2.5" />
</svg>