<svg width="600" height="150" viewBox="0 0 600 150" xmlns="http://www.w3.org/2000/svg">
  <defs>
    <filter id="shadow2" x="-2%" y="-2%" width="104%" height="108%">
      <feDropShadow dx="0" dy="2" stdDeviation="3" flood-opacity="0.1" />
    </filter>
    <linearGradient id="fillGrad" x1="0" y1="0" x2="0" y2="1">
      <stop offset="0%" stop-color="#0366d6" stop-opacity="0.3"/>
      <stop offset="100%" stop-color="#0366d6" stop-opacity="0.02"/>
    </linearGradient>
  </defs>
  <rect width="600" height="150" rx="12" fill="#ffffff" filter="url(#shadow2)" stroke="#e1e4e8" stroke-width="1"/>
  <text x="20" y="24" fill="#2b3137" font-family="-apple-system,BlinkMacSystemFont,'Segoe UI',Helvetica,Arial,sans-serif" font-size="14" font-weight="600">📈 Download Growth (Actual: 71.1k)</text>
  
  <!-- Area sotto la linea -->
  <polygon fill="url(#fillGrad)" points="30.0,120.0,120 30.0,120.0 38.7,117.6 47.4,115.0 56.1,112.8 64.8,112.2 73.5,111.0 82.3,108.2 91.0,106.3 99.7,105.1 108.4,102.2 117.1,100.8 125.8,99.4 134.5,98.6 143.2,97.3 151.9,95.3 160.6,93.3 169.4,91.7 178.1,90.6 186.8,89.9 195.5,88.6 204.2,87.1 212.9,85.8 221.6,85.1 230.3,83.9 239.0,79.4 247.7,78.0 256.5,76.3 265.2,74.5 273.9,72.9 282.6,71.4 291.3,70.5 300.0,69.7 308.7,68.5 317.4,66.3 326.1,64.4 334.8,63.1 343.5,61.6 352.3,61.2 361.0,60.8 369.7,60.0 378.4,58.6 387.1,57.7 395.8,57.1 404.5,55.5 413.2,53.0 421.9,52.4 430.6,52.0 439.4,51.0 448.1,49.1 456.8,47.8 465.5,45.9 474.2,44.4 482.9,42.7 491.6,42.3 500.3,41.2 509.0,39.4 517.7,37.6 526.5,36.2 535.2,35.6 543.9,34.7 552.6,33.9 561.3,31.9 570.0,30.0 570.0,30.0,120" />
  
  <!-- Linea principale -->
  <polyline fill="none" stroke="#0366d6" stroke-width="2.5" stroke-linecap="round" stroke-linejoin="round" points="30.0,120.0 38.7,117.6 47.4,115.0 56.1,112.8 64.8,112.2 73.5,111.0 82.3,108.2 91.0,106.3 99.7,105.1 108.4,102.2 117.1,100.8 125.8,99.4 134.5,98.6 143.2,97.3 151.9,95.3 160.6,93.3 169.4,91.7 178.1,90.6 186.8,89.9 195.5,88.6 204.2,87.1 212.9,85.8 221.6,85.1 230.3,83.9 239.0,79.4 247.7,78.0 256.5,76.3 265.2,74.5 273.9,72.9 282.6,71.4 291.3,70.5 300.0,69.7 308.7,68.5 317.4,66.3 326.1,64.4 334.8,63.1 343.5,61.6 352.3,61.2 361.0,60.8 369.7,60.0 378.4,58.6 387.1,57.7 395.8,57.1 404.5,55.5 413.2,53.0 421.9,52.4 430.6,52.0 439.4,51.0 448.1,49.1 456.8,47.8 465.5,45.9 474.2,44.4 482.9,42.7 491.6,42.3 500.3,41.2 509.0,39.4 517.7,37.6 526.5,36.2 535.2,35.6 543.9,34.7 552.6,33.9 561.3,31.9 570.0,30.0" />
  
  <!-- Punto finale luminoso -->
  <circle cx="570.0" cy="30.0" r="4" fill="#ffffff" stroke="#0366d6" stroke-width="2.5" />
</svg>