<svg width="600" height="150" viewBox="0 0 600 150" xmlns="http://www.w3.org/2000/svg">
  <defs>
    <filter id="shadow2" x="-2%" y="-2%" width="104%" height="108%">
      <feDropShadow dx="0" dy="2" stdDeviation="3" flood-opacity="0.1" />
    </filter>
    <linearGradient id="fillGrad" x1="0" y1="0" x2="0" y2="1">
      <stop offset="0%" stop-color="#0366d6" stop-opacity="0.3"/>
      <stop offset="100%" stop-color="#0366d6" stop-opacity="0.02"/>
    </linearGradient>
  </defs>
  <rect width="600" height="150" rx="12" fill="#ffffff" filter="url(#shadow2)" stroke="#e1e4e8" stroke-width="1"/>
  <text x="20" y="24" fill="#2b3137" font-family="-apple-system,BlinkMacSystemFont,'Segoe UI',Helvetica,Arial,sans-serif" font-size="14" font-weight="600">📈 Download Growth (Actual: 86.3k)</text>
  
  <!-- Area sotto la linea -->
  <polygon fill="url(#fillGrad)" points="30.0,120.0,120 30.0,120.0 31.4,119.5 32.8,118.9 34.3,118.4 35.7,118.3 37.1,118.0 38.5,117.4 39.9,117.0 41.3,116.8 42.8,116.1 44.2,115.8 45.6,115.5 47.0,115.3 48.4,115.1 49.8,114.6 51.3,114.2 52.7,113.9 54.1,113.6 55.5,113.5 56.9,113.2 58.3,112.9 59.8,112.6 61.2,112.4 62.6,112.1 64.0,111.2 65.4,110.9 66.9,110.5 68.3,110.1 69.7,109.8 71.1,109.4 72.5,109.2 73.9,109.1 75.4,108.8 76.8,108.3 78.2,107.9 79.6,107.6 81.0,107.3 82.4,107.2 83.9,107.1 85.3,107.0 86.7,106.6 88.1,106.5 89.5,106.3 90.9,106.0 92.4,105.4 93.8,105.3 95.2,105.2 96.6,105.0 98.0,104.6 99.4,104.3 100.9,103.9 102.3,103.6 103.7,103.2 105.1,103.1 106.5,102.9 108.0,102.5 109.4,102.1 110.8,101.8 112.2,101.7 113.6,101.5 115.0,101.3 116.5,100.8 117.9,100.4 119.3,100.1 120.7,99.7 122.1,99.5 123.5,99.4 125.0,99.3 126.4,99.0 127.8,98.8 129.2,98.6 130.6,98.4 132.0,98.3 133.5,98.1 134.9,98.0 136.3,97.9 137.7,97.8 139.1,97.4 140.6,97.1 142.0,97.1 143.4,96.9 144.8,96.9 146.2,96.9 147.6,103.5 149.1,102.8 150.5,102.2 151.9,101.6 153.3,99.8 154.7,98.6 156.1,97.2 157.6,96.7 159.0,96.1 160.4,95.2 161.8,94.2 163.2,93.5 164.6,93.2 166.1,92.9 167.5,92.2 168.9,91.7 170.3,91.3 171.7,90.9 173.1,90.7 174.6,90.6 176.0,90.3 177.4,89.6 178.8,89.2 180.2,88.8 181.7,88.3 183.1,88.0 184.5,87.9 185.9,87.4 187.3,87.0 188.7,86.7 190.2,86.4 191.6,86.2 193.0,86.2 194.4,85.9 195.8,85.6 197.2,85.4 198.7,85.1 200.1,84.9 201.5,84.7 202.9,84.6 204.3,84.4 205.7,84.2 207.2,84.1 208.6,83.7 210.0,83.5 211.4,83.2 212.8,83.0 214.3,82.8 215.7,82.7 217.1,82.5 218.5,82.4 219.9,81.9 221.3,81.6 222.8,81.2 224.2,81.0 225.6,81.0 227.0,80.8 228.4,80.6 229.8,80.3 231.3,80.1 232.7,79.8 234.1,79.6 235.5,79.5 236.9,79.4 238.3,79.2 239.8,79.1 241.2,78.9 242.6,78.7 244.0,78.4 245.4,78.3 246.9,78.2 248.3,78.1 249.7,78.0 251.1,77.7 252.5,77.5 253.9,77.3 255.4,77.1 256.8,76.9 258.2,76.8 259.6,76.7 261.0,76.5 262.4,76.2 263.9,75.9 265.3,75.7 266.7,75.5 268.1,75.2 269.5,75.1 270.9,75.0 272.4,74.9 273.8,74.7 275.2,74.5 276.6,74.3 278.0,74.2 279.4,74.0 280.9,73.9 282.3,73.7 283.7,73.6 285.1,73.5 286.5,73.3 288.0,73.1 289.4,72.9 290.8,72.7 292.2,72.6 293.6,72.5 295.0,72.3 296.5,72.2 297.9,72.1 299.3,72.0 300.7,71.7 302.1,71.4 303.5,71.2 305.0,71.0 306.4,70.9 307.8,70.9 309.2,70.7 310.6,70.4 312.0,70.3 313.5,70.2 314.9,70.0 316.3,69.8 317.7,69.6 319.1,69.5 320.6,69.4 322.0,69.2 323.4,69.0 324.8,68.8 326.2,68.6 327.6,68.5 329.1,68.4 330.5,68.4 331.9,68.2 333.3,68.1 334.7,67.9 336.1,67.7 337.6,67.6 339.0,67.5 340.4,67.3 341.8,67.2 343.2,67.1 344.6,66.9 346.1,66.6 347.5,66.5 348.9,66.3 350.3,66.2 351.7,66.1 353.1,66.0 354.6,65.9 356.0,65.8 357.4,65.7 358.8,65.4 360.2,65.3 361.7,65.1 363.1,65.0 364.5,64.9 365.9,64.8 367.3,64.6 368.7,64.5 370.2,64.4 371.6,64.2 373.0,64.0 374.4,63.9 375.8,63.7 377.2,63.7 378.7,63.6 380.1,63.4 381.5,63.3 382.9,63.2 384.3,63.1 385.7,63.0 387.2,62.9 388.6,62.6 390.0,62.4 391.4,66.7 392.8,65.9 394.3,64.2 395.7,63.6 397.1,62.8 398.5,61.9 399.9,61.4 401.3,61.1 402.8,60.4 404.2,59.5 405.6,58.8 407.0,58.6 408.4,58.2 409.8,57.9 411.3,57.5 412.7,57.0 414.1,56.5 415.5,56.2 416.9,55.7 418.3,55.5 419.8,55.2 421.2,55.0 422.6,54.7 424.0,54.5 425.4,54.0 426.9,53.7 428.3,53.3 429.7,52.7 431.1,52.3 432.5,52.1 433.9,51.9 435.4,51.7 436.8,51.3 438.2,51.0 439.6,50.7 441.0,49.8 442.4,49.1 443.9,48.8 445.3,48.6 446.7,48.3 448.1,47.9 449.5,47.5 450.9,47.2 452.4,46.9 453.8,46.6 455.2,46.3 456.6,46.0 458.0,45.6 459.4,45.3 460.9,45.2 462.3,45.0 463.7,44.6 465.1,44.3 466.5,44.1 468.0,44.0 469.4,43.8 470.8,43.5 472.2,43.4 473.6,43.2 475.0,43.0 476.5,42.8 477.9,42.7 479.3,42.4 480.7,42.2 482.1,41.8 483.5,41.5 485.0,41.2 486.4,41.1 487.8,40.9 489.2,40.7 490.6,40.5 492.0,40.3 493.5,40.2 494.9,40.1 496.3,39.9 497.7,39.7 499.1,39.6 500.6,39.3 502.0,39.2 503.4,39.0 504.8,38.8 506.2,38.4 507.6,38.1 509.1,37.9 510.5,37.7 511.9,37.5 513.3,37.2 514.7,37.0 516.1,36.7 517.6,36.5 519.0,36.5 520.4,36.3 521.8,36.1 523.2,35.8 524.6,35.7 526.1,35.6 527.5,35.3 528.9,35.1 530.3,34.9 531.7,34.6 533.1,34.5 534.6,34.1 536.0,33.9 537.4,33.7 538.8,33.6 540.2,33.4 541.7,33.3 543.1,33.1 544.5,32.9 545.9,32.7 547.3,32.5 548.7,32.4 550.2,32.2 551.6,32.0 553.0,31.9 554.4,31.7 555.8,31.6 557.2,31.5 558.7,31.3 560.1,31.2 561.5,31.0 562.9,30.8 564.3,30.7 565.7,30.5 567.2,30.3 568.6,30.1 570.0,30.0 570.0,30.0,120" />
  
  <!-- Linea principale -->
  <polyline fill="none" stroke="#0366d6" stroke-width="2.5" stroke-linecap="round" stroke-linejoin="round" points="30.0,120.0 31.4,119.5 32.8,118.9 34.3,118.4 35.7,118.3 37.1,118.0 38.5,117.4 39.9,117.0 41.3,116.8 42.8,116.1 44.2,115.8 45.6,115.5 47.0,115.3 48.4,115.1 49.8,114.6 51.3,114.2 52.7,113.9 54.1,113.6 55.5,113.5 56.9,113.2 58.3,112.9 59.8,112.6 61.2,112.4 62.6,112.1 64.0,111.2 65.4,110.9 66.9,110.5 68.3,110.1 69.7,109.8 71.1,109.4 72.5,109.2 73.9,109.1 75.4,108.8 76.8,108.3 78.2,107.9 79.6,107.6 81.0,107.3 82.4,107.2 83.9,107.1 85.3,107.0 86.7,106.6 88.1,106.5 89.5,106.3 90.9,106.0 92.4,105.4 93.8,105.3 95.2,105.2 96.6,105.0 98.0,104.6 99.4,104.3 100.9,103.9 102.3,103.6 103.7,103.2 105.1,103.1 106.5,102.9 108.0,102.5 109.4,102.1 110.8,101.8 112.2,101.7 113.6,101.5 115.0,101.3 116.5,100.8 117.9,100.4 119.3,100.1 120.7,99.7 122.1,99.5 123.5,99.4 125.0,99.3 126.4,99.0 127.8,98.8 129.2,98.6 130.6,98.4 132.0,98.3 133.5,98.1 134.9,98.0 136.3,97.9 137.7,97.8 139.1,97.4 140.6,97.1 142.0,97.1 143.4,96.9 144.8,96.9 146.2,96.9 147.6,103.5 149.1,102.8 150.5,102.2 151.9,101.6 153.3,99.8 154.7,98.6 156.1,97.2 157.6,96.7 159.0,96.1 160.4,95.2 161.8,94.2 163.2,93.5 164.6,93.2 166.1,92.9 167.5,92.2 168.9,91.7 170.3,91.3 171.7,90.9 173.1,90.7 174.6,90.6 176.0,90.3 177.4,89.6 178.8,89.2 180.2,88.8 181.7,88.3 183.1,88.0 184.5,87.9 185.9,87.4 187.3,87.0 188.7,86.7 190.2,86.4 191.6,86.2 193.0,86.2 194.4,85.9 195.8,85.6 197.2,85.4 198.7,85.1 200.1,84.9 201.5,84.7 202.9,84.6 204.3,84.4 205.7,84.2 207.2,84.1 208.6,83.7 210.0,83.5 211.4,83.2 212.8,83.0 214.3,82.8 215.7,82.7 217.1,82.5 218.5,82.4 219.9,81.9 221.3,81.6 222.8,81.2 224.2,81.0 225.6,81.0 227.0,80.8 228.4,80.6 229.8,80.3 231.3,80.1 232.7,79.8 234.1,79.6 235.5,79.5 236.9,79.4 238.3,79.2 239.8,79.1 241.2,78.9 242.6,78.7 244.0,78.4 245.4,78.3 246.9,78.2 248.3,78.1 249.7,78.0 251.1,77.7 252.5,77.5 253.9,77.3 255.4,77.1 256.8,76.9 258.2,76.8 259.6,76.7 261.0,76.5 262.4,76.2 263.9,75.9 265.3,75.7 266.7,75.5 268.1,75.2 269.5,75.1 270.9,75.0 272.4,74.9 273.8,74.7 275.2,74.5 276.6,74.3 278.0,74.2 279.4,74.0 280.9,73.9 282.3,73.7 283.7,73.6 285.1,73.5 286.5,73.3 288.0,73.1 289.4,72.9 290.8,72.7 292.2,72.6 293.6,72.5 295.0,72.3 296.5,72.2 297.9,72.1 299.3,72.0 300.7,71.7 302.1,71.4 303.5,71.2 305.0,71.0 306.4,70.9 307.8,70.9 309.2,70.7 310.6,70.4 312.0,70.3 313.5,70.2 314.9,70.0 316.3,69.8 317.7,69.6 319.1,69.5 320.6,69.4 322.0,69.2 323.4,69.0 324.8,68.8 326.2,68.6 327.6,68.5 329.1,68.4 330.5,68.4 331.9,68.2 333.3,68.1 334.7,67.9 336.1,67.7 337.6,67.6 339.0,67.5 340.4,67.3 341.8,67.2 343.2,67.1 344.6,66.9 346.1,66.6 347.5,66.5 348.9,66.3 350.3,66.2 351.7,66.1 353.1,66.0 354.6,65.9 356.0,65.8 357.4,65.7 358.8,65.4 360.2,65.3 361.7,65.1 363.1,65.0 364.5,64.9 365.9,64.8 367.3,64.6 368.7,64.5 370.2,64.4 371.6,64.2 373.0,64.0 374.4,63.9 375.8,63.7 377.2,63.7 378.7,63.6 380.1,63.4 381.5,63.3 382.9,63.2 384.3,63.1 385.7,63.0 387.2,62.9 388.6,62.6 390.0,62.4 391.4,66.7 392.8,65.9 394.3,64.2 395.7,63.6 397.1,62.8 398.5,61.9 399.9,61.4 401.3,61.1 402.8,60.4 404.2,59.5 405.6,58.8 407.0,58.6 408.4,58.2 409.8,57.9 411.3,57.5 412.7,57.0 414.1,56.5 415.5,56.2 416.9,55.7 418.3,55.5 419.8,55.2 421.2,55.0 422.6,54.7 424.0,54.5 425.4,54.0 426.9,53.7 428.3,53.3 429.7,52.7 431.1,52.3 432.5,52.1 433.9,51.9 435.4,51.7 436.8,51.3 438.2,51.0 439.6,50.7 441.0,49.8 442.4,49.1 443.9,48.8 445.3,48.6 446.7,48.3 448.1,47.9 449.5,47.5 450.9,47.2 452.4,46.9 453.8,46.6 455.2,46.3 456.6,46.0 458.0,45.6 459.4,45.3 460.9,45.2 462.3,45.0 463.7,44.6 465.1,44.3 466.5,44.1 468.0,44.0 469.4,43.8 470.8,43.5 472.2,43.4 473.6,43.2 475.0,43.0 476.5,42.8 477.9,42.7 479.3,42.4 480.7,42.2 482.1,41.8 483.5,41.5 485.0,41.2 486.4,41.1 487.8,40.9 489.2,40.7 490.6,40.5 492.0,40.3 493.5,40.2 494.9,40.1 496.3,39.9 497.7,39.7 499.1,39.6 500.6,39.3 502.0,39.2 503.4,39.0 504.8,38.8 506.2,38.4 507.6,38.1 509.1,37.9 510.5,37.7 511.9,37.5 513.3,37.2 514.7,37.0 516.1,36.7 517.6,36.5 519.0,36.5 520.4,36.3 521.8,36.1 523.2,35.8 524.6,35.7 526.1,35.6 527.5,35.3 528.9,35.1 530.3,34.9 531.7,34.6 533.1,34.5 534.6,34.1 536.0,33.9 537.4,33.7 538.8,33.6 540.2,33.4 541.7,33.3 543.1,33.1 544.5,32.9 545.9,32.7 547.3,32.5 548.7,32.4 550.2,32.2 551.6,32.0 553.0,31.9 554.4,31.7 555.8,31.6 557.2,31.5 558.7,31.3 560.1,31.2 561.5,31.0 562.9,30.8 564.3,30.7 565.7,30.5 567.2,30.3 568.6,30.1 570.0,30.0" />
  
  <!-- Punto finale luminoso -->
  <circle cx="570.0" cy="30.0" r="4" fill="#ffffff" stroke="#0366d6" stroke-width="2.5" />
</svg>