<svg width="600" height="150" viewBox="0 0 600 150" xmlns="http://www.w3.org/2000/svg">
  <defs>
    <filter id="shadow2" x="-2%" y="-2%" width="104%" height="108%">
      <feDropShadow dx="0" dy="2" stdDeviation="3" flood-opacity="0.1" />
    </filter>
    <linearGradient id="fillGrad" x1="0" y1="0" x2="0" y2="1">
      <stop offset="0%" stop-color="#0366d6" stop-opacity="0.3"/>
      <stop offset="100%" stop-color="#0366d6" stop-opacity="0.02"/>
    </linearGradient>
  </defs>
  <rect width="600" height="150" rx="12" fill="#ffffff" filter="url(#shadow2)" stroke="#e1e4e8" stroke-width="1"/>
  <text x="20" y="24" fill="#2b3137" font-family="-apple-system,BlinkMacSystemFont,'Segoe UI',Helvetica,Arial,sans-serif" font-size="14" font-weight="600">📈 Download Growth (Actual: 81.3k)</text>
  
  <!-- Area sotto la linea -->
  <polygon fill="url(#fillGrad)" points="30.0,120.0,120 30.0,120.0 31.9,119.3 33.8,118.5 35.8,117.9 37.7,117.7 39.6,117.4 41.5,116.5 43.5,116.0 45.4,115.6 47.3,114.8 49.2,114.4 51.1,114.0 53.1,113.7 55.0,113.3 56.9,112.8 58.8,112.2 60.7,111.7 62.7,111.4 64.6,111.2 66.5,110.8 68.4,110.4 70.4,110.0 72.3,109.8 74.2,109.4 76.1,108.1 78.0,107.7 80.0,107.2 81.9,106.7 83.8,106.2 85.7,105.8 87.7,105.5 89.6,105.3 91.5,104.9 93.4,104.3 95.3,103.7 97.3,103.3 99.2,102.9 101.1,102.8 103.0,102.6 104.9,102.4 106.9,102.0 108.8,101.7 110.7,101.6 112.6,101.1 114.6,100.4 116.5,100.2 118.4,100.1 120.3,99.8 122.2,99.2 124.2,98.9 126.1,98.3 128.0,97.9 129.9,97.3 131.9,97.2 133.8,96.9 135.7,96.4 137.6,95.9 139.5,95.5 141.5,95.3 143.4,95.0 145.3,94.8 147.2,94.2 149.1,93.6 151.1,93.1 153.0,92.6 154.9,92.4 156.8,92.2 158.8,92.0 160.7,91.6 162.6,91.4 164.5,91.1 166.4,90.9 168.4,90.8 170.3,90.5 172.2,90.3 174.1,90.2 176.0,90.0 178.0,89.5 179.9,89.2 181.8,89.1 183.7,88.9 185.7,88.8 187.6,88.8 189.5,97.7 191.4,96.8 193.3,96.1 195.3,95.2 197.2,92.8 199.1,91.1 201.0,89.3 203.0,88.6 204.9,87.8 206.8,86.6 208.7,85.2 210.6,84.2 212.6,83.8 214.5,83.5 216.4,82.5 218.3,81.8 220.2,81.3 222.2,80.8 224.1,80.5 226.0,80.4 227.9,79.9 229.9,79.1 231.8,78.5 233.7,77.9 235.6,77.2 237.5,76.9 239.5,76.7 241.4,76.1 243.3,75.6 245.2,75.1 247.2,74.7 249.1,74.5 251.0,74.4 252.9,74.1 254.8,73.6 256.8,73.3 258.7,73.0 260.6,72.7 262.5,72.5 264.4,72.2 266.4,72.0 268.3,71.8 270.2,71.5 272.1,71.1 274.1,70.7 276.0,70.3 277.9,70.1 279.8,69.8 281.7,69.7 283.7,69.5 285.6,69.2 287.5,68.6 289.4,68.2 291.4,67.6 293.3,67.4 295.2,67.4 297.1,67.1 299.0,66.8 301.0,66.5 302.9,66.2 304.8,65.8 306.7,65.5 308.6,65.4 310.6,65.2 312.5,65.0 314.4,64.8 316.3,64.6 318.3,64.4 320.2,64.0 322.1,63.8 324.0,63.7 325.9,63.5 327.9,63.4 329.8,63.0 331.7,62.8 333.6,62.4 335.6,62.2 337.5,61.9 339.4,61.7 341.3,61.6 343.2,61.4 345.2,61.0 347.1,60.6 349.0,60.3 350.9,60.0 352.8,59.6 354.8,59.4 356.7,59.3 358.6,59.2 360.5,58.9 362.5,58.7 364.4,58.4 366.3,58.2 368.2,58.0 370.1,57.8 372.1,57.6 374.0,57.4 375.9,57.3 377.8,57.1 379.8,56.7 381.7,56.6 383.6,56.3 385.5,56.1 387.4,56.0 389.4,55.7 391.3,55.6 393.2,55.4 395.1,55.2 397.0,54.8 399.0,54.4 400.9,54.2 402.8,53.9 404.7,53.8 406.7,53.8 408.6,53.5 410.5,53.1 412.4,53.0 414.3,52.8 416.3,52.6 418.2,52.4 420.1,52.1 422.0,52.0 424.0,51.8 425.9,51.5 427.8,51.3 429.7,51.0 431.6,50.7 433.6,50.6 435.5,50.5 437.4,50.4 439.3,50.2 441.2,50.0 443.2,49.8 445.1,49.5 447.0,49.3 448.9,49.2 450.9,49.0 452.8,48.8 454.7,48.6 456.6,48.4 458.5,48.1 460.5,47.8 462.4,47.6 464.3,47.5 466.2,47.3 468.1,47.2 470.1,47.1 472.0,46.9 473.9,46.7 475.8,46.4 477.8,46.2 479.7,46.0 481.6,45.9 483.5,45.7 485.4,45.5 487.4,45.3 489.3,45.1 491.2,45.0 493.1,44.8 495.1,44.5 497.0,44.3 498.9,44.1 500.8,44.0 502.7,43.9 504.7,43.7 506.6,43.6 508.5,43.4 510.4,43.2 512.3,43.2 514.3,43.0 516.2,42.6 518.1,42.3 520.0,48.1 522.0,47.0 523.9,44.8 525.8,43.9 527.7,42.9 529.6,41.7 531.6,41.0 533.5,40.5 535.4,39.7 537.3,38.4 539.3,37.5 541.2,37.2 543.1,36.7 545.0,36.3 546.9,35.7 548.9,35.0 550.8,34.3 552.7,34.0 554.6,33.4 556.5,33.0 558.5,32.6 560.4,32.3 562.3,32.0 564.2,31.7 566.2,31.0 568.1,30.6 570.0,30.0 570.0,30.0,120" />
  
  <!-- Linea principale -->
  <polyline fill="none" stroke="#0366d6" stroke-width="2.5" stroke-linecap="round" stroke-linejoin="round" points="30.0,120.0 31.9,119.3 33.8,118.5 35.8,117.9 37.7,117.7 39.6,117.4 41.5,116.5 43.5,116.0 45.4,115.6 47.3,114.8 49.2,114.4 51.1,114.0 53.1,113.7 55.0,113.3 56.9,112.8 58.8,112.2 60.7,111.7 62.7,111.4 64.6,111.2 66.5,110.8 68.4,110.4 70.4,110.0 72.3,109.8 74.2,109.4 76.1,108.1 78.0,107.7 80.0,107.2 81.9,106.7 83.8,106.2 85.7,105.8 87.7,105.5 89.6,105.3 91.5,104.9 93.4,104.3 95.3,103.7 97.3,103.3 99.2,102.9 101.1,102.8 103.0,102.6 104.9,102.4 106.9,102.0 108.8,101.7 110.7,101.6 112.6,101.1 114.6,100.4 116.5,100.2 118.4,100.1 120.3,99.8 122.2,99.2 124.2,98.9 126.1,98.3 128.0,97.9 129.9,97.3 131.9,97.2 133.8,96.9 135.7,96.4 137.6,95.9 139.5,95.5 141.5,95.3 143.4,95.0 145.3,94.8 147.2,94.2 149.1,93.6 151.1,93.1 153.0,92.6 154.9,92.4 156.8,92.2 158.8,92.0 160.7,91.6 162.6,91.4 164.5,91.1 166.4,90.9 168.4,90.8 170.3,90.5 172.2,90.3 174.1,90.2 176.0,90.0 178.0,89.5 179.9,89.2 181.8,89.1 183.7,88.9 185.7,88.8 187.6,88.8 189.5,97.7 191.4,96.8 193.3,96.1 195.3,95.2 197.2,92.8 199.1,91.1 201.0,89.3 203.0,88.6 204.9,87.8 206.8,86.6 208.7,85.2 210.6,84.2 212.6,83.8 214.5,83.5 216.4,82.5 218.3,81.8 220.2,81.3 222.2,80.8 224.1,80.5 226.0,80.4 227.9,79.9 229.9,79.1 231.8,78.5 233.7,77.9 235.6,77.2 237.5,76.9 239.5,76.7 241.4,76.1 243.3,75.6 245.2,75.1 247.2,74.7 249.1,74.5 251.0,74.4 252.9,74.1 254.8,73.6 256.8,73.3 258.7,73.0 260.6,72.7 262.5,72.5 264.4,72.2 266.4,72.0 268.3,71.8 270.2,71.5 272.1,71.1 274.1,70.7 276.0,70.3 277.9,70.1 279.8,69.8 281.7,69.7 283.7,69.5 285.6,69.2 287.5,68.6 289.4,68.2 291.4,67.6 293.3,67.4 295.2,67.4 297.1,67.1 299.0,66.8 301.0,66.5 302.9,66.2 304.8,65.8 306.7,65.5 308.6,65.4 310.6,65.2 312.5,65.0 314.4,64.8 316.3,64.6 318.3,64.4 320.2,64.0 322.1,63.8 324.0,63.7 325.9,63.5 327.9,63.4 329.8,63.0 331.7,62.8 333.6,62.4 335.6,62.2 337.5,61.9 339.4,61.7 341.3,61.6 343.2,61.4 345.2,61.0 347.1,60.6 349.0,60.3 350.9,60.0 352.8,59.6 354.8,59.4 356.7,59.3 358.6,59.2 360.5,58.9 362.5,58.7 364.4,58.4 366.3,58.2 368.2,58.0 370.1,57.8 372.1,57.6 374.0,57.4 375.9,57.3 377.8,57.1 379.8,56.7 381.7,56.6 383.6,56.3 385.5,56.1 387.4,56.0 389.4,55.7 391.3,55.6 393.2,55.4 395.1,55.2 397.0,54.8 399.0,54.4 400.9,54.2 402.8,53.9 404.7,53.8 406.7,53.8 408.6,53.5 410.5,53.1 412.4,53.0 414.3,52.8 416.3,52.6 418.2,52.4 420.1,52.1 422.0,52.0 424.0,51.8 425.9,51.5 427.8,51.3 429.7,51.0 431.6,50.7 433.6,50.6 435.5,50.5 437.4,50.4 439.3,50.2 441.2,50.0 443.2,49.8 445.1,49.5 447.0,49.3 448.9,49.2 450.9,49.0 452.8,48.8 454.7,48.6 456.6,48.4 458.5,48.1 460.5,47.8 462.4,47.6 464.3,47.5 466.2,47.3 468.1,47.2 470.1,47.1 472.0,46.9 473.9,46.7 475.8,46.4 477.8,46.2 479.7,46.0 481.6,45.9 483.5,45.7 485.4,45.5 487.4,45.3 489.3,45.1 491.2,45.0 493.1,44.8 495.1,44.5 497.0,44.3 498.9,44.1 500.8,44.0 502.7,43.9 504.7,43.7 506.6,43.6 508.5,43.4 510.4,43.2 512.3,43.2 514.3,43.0 516.2,42.6 518.1,42.3 520.0,48.1 522.0,47.0 523.9,44.8 525.8,43.9 527.7,42.9 529.6,41.7 531.6,41.0 533.5,40.5 535.4,39.7 537.3,38.4 539.3,37.5 541.2,37.2 543.1,36.7 545.0,36.3 546.9,35.7 548.9,35.0 550.8,34.3 552.7,34.0 554.6,33.4 556.5,33.0 558.5,32.6 560.4,32.3 562.3,32.0 564.2,31.7 566.2,31.0 568.1,30.6 570.0,30.0" />
  
  <!-- Punto finale luminoso -->
  <circle cx="570.0" cy="30.0" r="4" fill="#ffffff" stroke="#0366d6" stroke-width="2.5" />
</svg>