<svg width="600" height="150" viewBox="0 0 600 150" xmlns="http://www.w3.org/2000/svg">
  <defs>
    <filter id="shadow2" x="-2%" y="-2%" width="104%" height="108%">
      <feDropShadow dx="0" dy="2" stdDeviation="3" flood-opacity="0.1" />
    </filter>
    <linearGradient id="fillGrad" x1="0" y1="0" x2="0" y2="1">
      <stop offset="0%" stop-color="#0366d6" stop-opacity="0.3"/>
      <stop offset="100%" stop-color="#0366d6" stop-opacity="0.02"/>
    </linearGradient>
  </defs>
  <rect width="600" height="150" rx="12" fill="#ffffff" filter="url(#shadow2)" stroke="#e1e4e8" stroke-width="1"/>
  <text x="20" y="24" fill="#2b3137" font-family="-apple-system,BlinkMacSystemFont,'Segoe UI',Helvetica,Arial,sans-serif" font-size="14" font-weight="600">📈 Download Growth (Actual: 86.5k)</text>
  
  <!-- Area sotto la linea -->
  <polygon fill="url(#fillGrad)" points="30.0,120.0,120 30.0,120.0 31.4,119.5 32.8,118.9 34.2,118.4 35.6,118.3 37.0,118.1 38.4,117.5 39.8,117.1 41.2,116.8 42.6,116.2 44.0,115.9 45.3,115.6 46.7,115.4 48.1,115.1 49.5,114.7 50.9,114.3 52.3,113.9 53.7,113.7 55.1,113.5 56.5,113.3 57.9,112.9 59.3,112.7 60.7,112.5 62.1,112.2 63.5,111.3 64.9,111.0 66.3,110.6 67.7,110.2 69.1,109.9 70.5,109.6 71.9,109.4 73.3,109.2 74.7,108.9 76.0,108.5 77.4,108.1 78.8,107.8 80.2,107.5 81.6,107.4 83.0,107.3 84.4,107.1 85.8,106.8 87.2,106.6 88.6,106.5 90.0,106.1 91.4,105.6 92.8,105.5 94.2,105.4 95.6,105.2 97.0,104.8 98.4,104.5 99.8,104.1 101.2,103.8 102.6,103.4 104.0,103.3 105.3,103.1 106.7,102.7 108.1,102.3 109.5,102.0 110.9,101.9 112.3,101.7 113.7,101.5 115.1,101.1 116.5,100.7 117.9,100.3 119.3,100.0 120.7,99.8 122.1,99.7 123.5,99.5 124.9,99.2 126.3,99.0 127.7,98.9 129.1,98.7 130.5,98.6 131.9,98.4 133.3,98.2 134.7,98.1 136.0,98.0 137.4,97.7 138.8,97.4 140.2,97.4 141.6,97.2 143.0,97.1 144.4,97.1 145.8,103.7 147.2,103.0 148.6,102.5 150.0,101.9 151.4,100.1 152.8,98.8 154.2,97.5 155.6,97.0 157.0,96.4 158.4,95.5 159.8,94.5 161.2,93.8 162.6,93.5 164.0,93.3 165.3,92.5 166.7,92.0 168.1,91.7 169.5,91.3 170.9,91.1 172.3,91.0 173.7,90.6 175.1,90.0 176.5,89.6 177.9,89.2 179.3,88.7 180.7,88.4 182.1,88.3 183.5,87.8 184.9,87.5 186.3,87.1 187.7,86.8 189.1,86.7 190.5,86.6 191.9,86.4 193.3,86.0 194.7,85.8 196.0,85.6 197.4,85.4 198.8,85.2 200.2,85.0 201.6,84.8 203.0,84.7 204.4,84.5 205.8,84.2 207.2,83.9 208.6,83.6 210.0,83.5 211.4,83.3 212.8,83.1 214.2,83.0 215.6,82.8 217.0,82.4 218.4,82.0 219.8,81.6 221.2,81.5 222.6,81.5 224.0,81.3 225.3,81.1 226.7,80.8 228.1,80.6 229.5,80.3 230.9,80.1 232.3,80.0 233.7,79.9 235.1,79.7 236.5,79.6 237.9,79.4 239.3,79.2 240.7,79.0 242.1,78.8 243.5,78.7 244.9,78.6 246.3,78.5 247.7,78.3 249.1,78.1 250.5,77.8 251.9,77.6 253.3,77.4 254.7,77.3 256.0,77.2 257.4,77.1 258.8,76.8 260.2,76.5 261.6,76.3 263.0,76.1 264.4,75.7 265.8,75.6 267.2,75.5 268.6,75.4 270.0,75.3 271.4,75.1 272.8,74.9 274.2,74.8 275.6,74.6 277.0,74.5 278.4,74.3 279.8,74.2 281.2,74.1 282.6,73.9 284.0,73.7 285.3,73.5 286.7,73.3 288.1,73.2 289.5,73.1 290.9,72.9 292.3,72.8 293.7,72.7 295.1,72.6 296.5,72.3 297.9,72.0 299.3,71.8 300.7,71.6 302.1,71.6 303.5,71.5 304.9,71.3 306.3,71.0 307.7,70.9 309.1,70.8 310.5,70.6 311.9,70.5 313.3,70.3 314.7,70.2 316.0,70.1 317.4,69.8 318.8,69.7 320.2,69.4 321.6,69.2 323.0,69.1 324.4,69.1 325.8,69.0 327.2,68.9 328.6,68.7 330.0,68.6 331.4,68.4 332.8,68.2 334.2,68.1 335.6,68.0 337.0,67.9 338.4,67.7 339.8,67.5 341.2,67.3 342.6,67.1 344.0,67.0 345.3,66.9 346.7,66.8 348.1,66.7 349.5,66.6 350.9,66.5 352.3,66.3 353.7,66.1 355.1,66.0 356.5,65.8 357.9,65.7 359.3,65.6 360.7,65.5 362.1,65.3 363.5,65.2 364.9,65.1 366.3,64.9 367.7,64.7 369.1,64.6 370.5,64.4 371.9,64.4 373.3,64.3 374.7,64.2 376.0,64.0 377.4,63.9 378.8,63.8 380.2,63.7 381.6,63.6 383.0,63.3 384.4,63.1 385.8,67.4 387.2,66.5 388.6,64.9 390.0,64.3 391.4,63.6 392.8,62.6 394.2,62.1 395.6,61.8 397.0,61.2 398.4,60.3 399.8,59.6 401.2,59.3 402.6,59.0 404.0,58.7 405.3,58.2 406.7,57.8 408.1,57.3 409.5,57.0 410.9,56.5 412.3,56.3 413.7,56.0 415.1,55.8 416.5,55.5 417.9,55.3 419.3,54.8 420.7,54.5 422.1,54.1 423.5,53.5 424.9,53.2 426.3,53.0 427.7,52.8 429.1,52.6 430.5,52.2 431.9,51.8 433.3,51.6 434.7,50.7 436.0,50.0 437.4,49.7 438.8,49.5 440.2,49.2 441.6,48.8 443.0,48.4 444.4,48.1 445.8,47.8 447.2,47.5 448.6,47.2 450.0,46.9 451.4,46.5 452.8,46.3 454.2,46.1 455.6,45.9 457.0,45.5 458.4,45.3 459.8,45.1 461.2,44.9 462.6,44.8 464.0,44.5 465.3,44.3 466.7,44.1 468.1,43.9 469.5,43.8 470.9,43.6 472.3,43.4 473.7,43.2 475.1,42.8 476.5,42.5 477.9,42.2 479.3,42.0 480.7,41.9 482.1,41.7 483.5,41.5 484.9,41.3 486.3,41.2 487.7,41.1 489.1,40.9 490.5,40.7 491.9,40.6 493.3,40.3 494.7,40.2 496.0,40.0 497.4,39.8 498.8,39.5 500.2,39.1 501.6,38.9 503.0,38.7 504.4,38.5 505.8,38.2 507.2,38.0 508.6,37.8 510.0,37.6 511.4,37.5 512.8,37.4 514.2,37.1 515.6,36.9 517.0,36.7 518.4,36.6 519.8,36.4 521.2,36.1 522.6,36.0 524.0,35.7 525.3,35.5 526.7,35.2 528.1,35.0 529.5,34.8 530.9,34.7 532.3,34.5 533.7,34.4 535.1,34.2 536.5,34.0 537.9,33.7 539.3,33.6 540.7,33.5 542.1,33.3 543.5,33.1 544.9,33.0 546.3,32.8 547.7,32.7 549.1,32.6 550.5,32.4 551.9,32.3 553.3,32.1 554.7,31.9 556.0,31.8 557.4,31.7 558.8,31.5 560.2,31.2 561.6,31.1 563.0,31.0 564.4,30.8 565.8,30.6 567.2,30.4 568.6,30.1 570.0,30.0 570.0,30.0,120" />
  
  <!-- Linea principale -->
  <polyline fill="none" stroke="#0366d6" stroke-width="2.5" stroke-linecap="round" stroke-linejoin="round" points="30.0,120.0 31.4,119.5 32.8,118.9 34.2,118.4 35.6,118.3 37.0,118.1 38.4,117.5 39.8,117.1 41.2,116.8 42.6,116.2 44.0,115.9 45.3,115.6 46.7,115.4 48.1,115.1 49.5,114.7 50.9,114.3 52.3,113.9 53.7,113.7 55.1,113.5 56.5,113.3 57.9,112.9 59.3,112.7 60.7,112.5 62.1,112.2 63.5,111.3 64.9,111.0 66.3,110.6 67.7,110.2 69.1,109.9 70.5,109.6 71.9,109.4 73.3,109.2 74.7,108.9 76.0,108.5 77.4,108.1 78.8,107.8 80.2,107.5 81.6,107.4 83.0,107.3 84.4,107.1 85.8,106.8 87.2,106.6 88.6,106.5 90.0,106.1 91.4,105.6 92.8,105.5 94.2,105.4 95.6,105.2 97.0,104.8 98.4,104.5 99.8,104.1 101.2,103.8 102.6,103.4 104.0,103.3 105.3,103.1 106.7,102.7 108.1,102.3 109.5,102.0 110.9,101.9 112.3,101.7 113.7,101.5 115.1,101.1 116.5,100.7 117.9,100.3 119.3,100.0 120.7,99.8 122.1,99.7 123.5,99.5 124.9,99.2 126.3,99.0 127.7,98.9 129.1,98.7 130.5,98.6 131.9,98.4 133.3,98.2 134.7,98.1 136.0,98.0 137.4,97.7 138.8,97.4 140.2,97.4 141.6,97.2 143.0,97.1 144.4,97.1 145.8,103.7 147.2,103.0 148.6,102.5 150.0,101.9 151.4,100.1 152.8,98.8 154.2,97.5 155.6,97.0 157.0,96.4 158.4,95.5 159.8,94.5 161.2,93.8 162.6,93.5 164.0,93.3 165.3,92.5 166.7,92.0 168.1,91.7 169.5,91.3 170.9,91.1 172.3,91.0 173.7,90.6 175.1,90.0 176.5,89.6 177.9,89.2 179.3,88.7 180.7,88.4 182.1,88.3 183.5,87.8 184.9,87.5 186.3,87.1 187.7,86.8 189.1,86.7 190.5,86.6 191.9,86.4 193.3,86.0 194.7,85.8 196.0,85.6 197.4,85.4 198.8,85.2 200.2,85.0 201.6,84.8 203.0,84.7 204.4,84.5 205.8,84.2 207.2,83.9 208.6,83.6 210.0,83.5 211.4,83.3 212.8,83.1 214.2,83.0 215.6,82.8 217.0,82.4 218.4,82.0 219.8,81.6 221.2,81.5 222.6,81.5 224.0,81.3 225.3,81.1 226.7,80.8 228.1,80.6 229.5,80.3 230.9,80.1 232.3,80.0 233.7,79.9 235.1,79.7 236.5,79.6 237.9,79.4 239.3,79.2 240.7,79.0 242.1,78.8 243.5,78.7 244.9,78.6 246.3,78.5 247.7,78.3 249.1,78.1 250.5,77.8 251.9,77.6 253.3,77.4 254.7,77.3 256.0,77.2 257.4,77.1 258.8,76.8 260.2,76.5 261.6,76.3 263.0,76.1 264.4,75.7 265.8,75.6 267.2,75.5 268.6,75.4 270.0,75.3 271.4,75.1 272.8,74.9 274.2,74.8 275.6,74.6 277.0,74.5 278.4,74.3 279.8,74.2 281.2,74.1 282.6,73.9 284.0,73.7 285.3,73.5 286.7,73.3 288.1,73.2 289.5,73.1 290.9,72.9 292.3,72.8 293.7,72.7 295.1,72.6 296.5,72.3 297.9,72.0 299.3,71.8 300.7,71.6 302.1,71.6 303.5,71.5 304.9,71.3 306.3,71.0 307.7,70.9 309.1,70.8 310.5,70.6 311.9,70.5 313.3,70.3 314.7,70.2 316.0,70.1 317.4,69.8 318.8,69.7 320.2,69.4 321.6,69.2 323.0,69.1 324.4,69.1 325.8,69.0 327.2,68.9 328.6,68.7 330.0,68.6 331.4,68.4 332.8,68.2 334.2,68.1 335.6,68.0 337.0,67.9 338.4,67.7 339.8,67.5 341.2,67.3 342.6,67.1 344.0,67.0 345.3,66.9 346.7,66.8 348.1,66.7 349.5,66.6 350.9,66.5 352.3,66.3 353.7,66.1 355.1,66.0 356.5,65.8 357.9,65.7 359.3,65.6 360.7,65.5 362.1,65.3 363.5,65.2 364.9,65.1 366.3,64.9 367.7,64.7 369.1,64.6 370.5,64.4 371.9,64.4 373.3,64.3 374.7,64.2 376.0,64.0 377.4,63.9 378.8,63.8 380.2,63.7 381.6,63.6 383.0,63.3 384.4,63.1 385.8,67.4 387.2,66.5 388.6,64.9 390.0,64.3 391.4,63.6 392.8,62.6 394.2,62.1 395.6,61.8 397.0,61.2 398.4,60.3 399.8,59.6 401.2,59.3 402.6,59.0 404.0,58.7 405.3,58.2 406.7,57.8 408.1,57.3 409.5,57.0 410.9,56.5 412.3,56.3 413.7,56.0 415.1,55.8 416.5,55.5 417.9,55.3 419.3,54.8 420.7,54.5 422.1,54.1 423.5,53.5 424.9,53.2 426.3,53.0 427.7,52.8 429.1,52.6 430.5,52.2 431.9,51.8 433.3,51.6 434.7,50.7 436.0,50.0 437.4,49.7 438.8,49.5 440.2,49.2 441.6,48.8 443.0,48.4 444.4,48.1 445.8,47.8 447.2,47.5 448.6,47.2 450.0,46.9 451.4,46.5 452.8,46.3 454.2,46.1 455.6,45.9 457.0,45.5 458.4,45.3 459.8,45.1 461.2,44.9 462.6,44.8 464.0,44.5 465.3,44.3 466.7,44.1 468.1,43.9 469.5,43.8 470.9,43.6 472.3,43.4 473.7,43.2 475.1,42.8 476.5,42.5 477.9,42.2 479.3,42.0 480.7,41.9 482.1,41.7 483.5,41.5 484.9,41.3 486.3,41.2 487.7,41.1 489.1,40.9 490.5,40.7 491.9,40.6 493.3,40.3 494.7,40.2 496.0,40.0 497.4,39.8 498.8,39.5 500.2,39.1 501.6,38.9 503.0,38.7 504.4,38.5 505.8,38.2 507.2,38.0 508.6,37.8 510.0,37.6 511.4,37.5 512.8,37.4 514.2,37.1 515.6,36.9 517.0,36.7 518.4,36.6 519.8,36.4 521.2,36.1 522.6,36.0 524.0,35.7 525.3,35.5 526.7,35.2 528.1,35.0 529.5,34.8 530.9,34.7 532.3,34.5 533.7,34.4 535.1,34.2 536.5,34.0 537.9,33.7 539.3,33.6 540.7,33.5 542.1,33.3 543.5,33.1 544.9,33.0 546.3,32.8 547.7,32.7 549.1,32.6 550.5,32.4 551.9,32.3 553.3,32.1 554.7,31.9 556.0,31.8 557.4,31.7 558.8,31.5 560.2,31.2 561.6,31.1 563.0,31.0 564.4,30.8 565.8,30.6 567.2,30.4 568.6,30.1 570.0,30.0" />
  
  <!-- Punto finale luminoso -->
  <circle cx="570.0" cy="30.0" r="4" fill="#ffffff" stroke="#0366d6" stroke-width="2.5" />
</svg>