<svg width="600" height="150" viewBox="0 0 600 150" xmlns="http://www.w3.org/2000/svg">
  <defs>
    <filter id="shadow2" x="-2%" y="-2%" width="104%" height="108%">
      <feDropShadow dx="0" dy="2" stdDeviation="3" flood-opacity="0.1" />
    </filter>
    <linearGradient id="fillGrad" x1="0" y1="0" x2="0" y2="1">
      <stop offset="0%" stop-color="#0366d6" stop-opacity="0.3"/>
      <stop offset="100%" stop-color="#0366d6" stop-opacity="0.02"/>
    </linearGradient>
  </defs>
  <rect width="600" height="150" rx="12" fill="#ffffff" filter="url(#shadow2)" stroke="#e1e4e8" stroke-width="1"/>
  <text x="20" y="24" fill="#2b3137" font-family="-apple-system,BlinkMacSystemFont,'Segoe UI',Helvetica,Arial,sans-serif" font-size="14" font-weight="600">📈 Download Growth (Actual: 77.8k)</text>
  
  <!-- Area sotto la linea -->
  <polygon fill="url(#fillGrad)" points="30.0,120.0,120 30.0,120.0 32.6,119.1 35.2,118.1 37.9,117.2 40.5,117.0 43.1,116.5 45.7,115.5 48.3,114.7 51.0,114.3 53.6,113.2 56.2,112.6 58.8,112.1 61.5,111.7 64.1,111.2 66.7,110.5 69.3,109.7 71.9,109.1 74.6,108.7 77.2,108.4 79.8,107.9 82.4,107.3 85.0,106.8 87.7,106.6 90.3,106.1 92.9,104.4 95.5,103.8 98.2,103.2 100.8,102.5 103.4,101.9 106.0,101.3 108.6,100.9 111.3,100.6 113.9,100.2 116.5,99.3 119.1,98.6 121.7,98.1 124.4,97.5 127.0,97.4 129.6,97.2 132.2,96.9 134.9,96.3 137.5,96.0 140.1,95.8 142.7,95.2 145.3,94.2 148.0,94.0 150.6,93.8 153.2,93.5 155.8,92.7 158.4,92.2 161.1,91.5 163.7,90.9 166.3,90.2 168.9,90.1 171.6,89.7 174.2,89.0 176.8,88.3 179.4,87.8 182.0,87.5 184.7,87.2 187.3,86.9 189.9,86.1 192.5,85.4 195.1,84.7 197.8,84.1 200.4,83.7 203.0,83.5 205.6,83.3 208.3,82.7 210.9,82.4 213.5,82.1 216.1,81.8 218.7,81.6 221.4,81.2 224.0,81.0 226.6,80.8 229.2,80.6 231.8,79.9 234.5,79.5 237.1,79.4 239.7,79.1 242.3,79.0 245.0,79.0 247.6,90.7 250.2,89.6 252.8,88.5 255.4,87.4 258.1,84.3 260.7,82.0 263.3,79.6 265.9,78.7 268.5,77.7 271.2,76.1 273.8,74.3 276.4,73.0 279.0,72.5 281.7,72.0 284.3,70.7 286.9,69.8 289.5,69.2 292.1,68.4 294.8,68.1 297.4,68.0 300.0,67.3 302.6,66.2 305.2,65.5 307.9,64.7 310.5,63.8 313.1,63.4 315.7,63.0 318.3,62.3 321.0,61.6 323.6,61.0 326.2,60.4 328.8,60.2 331.5,60.0 334.1,59.6 336.7,59.1 339.3,58.6 341.9,58.2 344.6,57.9 347.2,57.5 349.8,57.2 352.4,56.9 355.0,56.6 357.7,56.3 360.3,55.7 362.9,55.3 365.5,54.8 368.2,54.4 370.8,54.1 373.4,53.9 376.0,53.6 378.6,53.3 381.3,52.5 383.9,51.9 386.5,51.2 389.1,50.9 391.7,50.8 394.4,50.5 397.0,50.1 399.6,49.7 402.2,49.3 404.9,48.8 407.5,48.4 410.1,48.3 412.7,48.0 415.3,47.8 418.0,47.5 420.6,47.2 423.2,46.9 425.8,46.4 428.4,46.2 431.1,46.0 433.7,45.7 436.3,45.6 438.9,45.1 441.6,44.8 444.2,44.4 446.8,44.0 449.4,43.6 452.0,43.4 454.7,43.2 457.3,43.0 459.9,42.4 462.5,41.9 465.1,41.6 467.8,41.2 470.4,40.6 473.0,40.4 475.6,40.2 478.3,40.1 480.9,39.7 483.5,39.4 486.1,39.1 488.7,38.8 491.4,38.5 494.0,38.3 496.6,38.0 499.2,37.8 501.8,37.6 504.5,37.3 507.1,36.9 509.7,36.6 512.3,36.3 515.0,36.1 517.6,35.9 520.2,35.6 522.8,35.4 525.4,35.2 528.1,34.9 530.7,34.4 533.3,33.8 535.9,33.5 538.5,33.2 541.2,33.1 543.8,33.0 546.4,32.6 549.0,32.1 551.7,31.9 554.3,31.7 556.9,31.4 559.5,31.1 562.1,30.8 564.8,30.6 567.4,30.4 570.0,30.0 570.0,30.0,120" />
  
  <!-- Linea principale -->
  <polyline fill="none" stroke="#0366d6" stroke-width="2.5" stroke-linecap="round" stroke-linejoin="round" points="30.0,120.0 32.6,119.1 35.2,118.1 37.9,117.2 40.5,117.0 43.1,116.5 45.7,115.5 48.3,114.7 51.0,114.3 53.6,113.2 56.2,112.6 58.8,112.1 61.5,111.7 64.1,111.2 66.7,110.5 69.3,109.7 71.9,109.1 74.6,108.7 77.2,108.4 79.8,107.9 82.4,107.3 85.0,106.8 87.7,106.6 90.3,106.1 92.9,104.4 95.5,103.8 98.2,103.2 100.8,102.5 103.4,101.9 106.0,101.3 108.6,100.9 111.3,100.6 113.9,100.2 116.5,99.3 119.1,98.6 121.7,98.1 124.4,97.5 127.0,97.4 129.6,97.2 132.2,96.9 134.9,96.3 137.5,96.0 140.1,95.8 142.7,95.2 145.3,94.2 148.0,94.0 150.6,93.8 153.2,93.5 155.8,92.7 158.4,92.2 161.1,91.5 163.7,90.9 166.3,90.2 168.9,90.1 171.6,89.7 174.2,89.0 176.8,88.3 179.4,87.8 182.0,87.5 184.7,87.2 187.3,86.9 189.9,86.1 192.5,85.4 195.1,84.7 197.8,84.1 200.4,83.7 203.0,83.5 205.6,83.3 208.3,82.7 210.9,82.4 213.5,82.1 216.1,81.8 218.7,81.6 221.4,81.2 224.0,81.0 226.6,80.8 229.2,80.6 231.8,79.9 234.5,79.5 237.1,79.4 239.7,79.1 242.3,79.0 245.0,79.0 247.6,90.7 250.2,89.6 252.8,88.5 255.4,87.4 258.1,84.3 260.7,82.0 263.3,79.6 265.9,78.7 268.5,77.7 271.2,76.1 273.8,74.3 276.4,73.0 279.0,72.5 281.7,72.0 284.3,70.7 286.9,69.8 289.5,69.2 292.1,68.4 294.8,68.1 297.4,68.0 300.0,67.3 302.6,66.2 305.2,65.5 307.9,64.7 310.5,63.8 313.1,63.4 315.7,63.0 318.3,62.3 321.0,61.6 323.6,61.0 326.2,60.4 328.8,60.2 331.5,60.0 334.1,59.6 336.7,59.1 339.3,58.6 341.9,58.2 344.6,57.9 347.2,57.5 349.8,57.2 352.4,56.9 355.0,56.6 357.7,56.3 360.3,55.7 362.9,55.3 365.5,54.8 368.2,54.4 370.8,54.1 373.4,53.9 376.0,53.6 378.6,53.3 381.3,52.5 383.9,51.9 386.5,51.2 389.1,50.9 391.7,50.8 394.4,50.5 397.0,50.1 399.6,49.7 402.2,49.3 404.9,48.8 407.5,48.4 410.1,48.3 412.7,48.0 415.3,47.8 418.0,47.5 420.6,47.2 423.2,46.9 425.8,46.4 428.4,46.2 431.1,46.0 433.7,45.7 436.3,45.6 438.9,45.1 441.6,44.8 444.2,44.4 446.8,44.0 449.4,43.6 452.0,43.4 454.7,43.2 457.3,43.0 459.9,42.4 462.5,41.9 465.1,41.6 467.8,41.2 470.4,40.6 473.0,40.4 475.6,40.2 478.3,40.1 480.9,39.7 483.5,39.4 486.1,39.1 488.7,38.8 491.4,38.5 494.0,38.3 496.6,38.0 499.2,37.8 501.8,37.6 504.5,37.3 507.1,36.9 509.7,36.6 512.3,36.3 515.0,36.1 517.6,35.9 520.2,35.6 522.8,35.4 525.4,35.2 528.1,34.9 530.7,34.4 533.3,33.8 535.9,33.5 538.5,33.2 541.2,33.1 543.8,33.0 546.4,32.6 549.0,32.1 551.7,31.9 554.3,31.7 556.9,31.4 559.5,31.1 562.1,30.8 564.8,30.6 567.4,30.4 570.0,30.0" />
  
  <!-- Punto finale luminoso -->
  <circle cx="570.0" cy="30.0" r="4" fill="#ffffff" stroke="#0366d6" stroke-width="2.5" />
</svg>