<svg width="600" height="150" viewBox="0 0 600 150" xmlns="http://www.w3.org/2000/svg">
  <defs>
    <filter id="shadow2" x="-2%" y="-2%" width="104%" height="108%">
      <feDropShadow dx="0" dy="2" stdDeviation="3" flood-opacity="0.1" />
    </filter>
    <linearGradient id="fillGrad" x1="0" y1="0" x2="0" y2="1">
      <stop offset="0%" stop-color="#0366d6" stop-opacity="0.3"/>
      <stop offset="100%" stop-color="#0366d6" stop-opacity="0.02"/>
    </linearGradient>
  </defs>
  <rect width="600" height="150" rx="12" fill="#ffffff" filter="url(#shadow2)" stroke="#e1e4e8" stroke-width="1"/>
  <text x="20" y="24" fill="#2b3137" font-family="-apple-system,BlinkMacSystemFont,'Segoe UI',Helvetica,Arial,sans-serif" font-size="14" font-weight="600">📈 Download Growth (Actual: 71.2k)</text>
  
  <!-- Area sotto la linea -->
  <polygon fill="url(#fillGrad)" points="30.0,120.0,120 30.0,120.0 38.4,117.7 46.9,115.2 55.3,113.0 63.8,112.4 72.2,111.3 80.6,108.6 89.1,106.8 97.5,105.6 105.9,102.9 114.4,101.5 122.8,100.1 131.2,99.3 139.7,98.1 148.1,96.2 156.6,94.2 165.0,92.7 173.4,91.7 181.9,91.0 190.3,89.7 198.8,88.3 207.2,87.0 215.6,86.4 224.1,85.2 232.5,80.8 240.9,79.5 249.4,77.8 257.8,76.1 266.2,74.6 274.7,73.2 283.1,72.2 291.6,71.5 300.0,70.3 308.4,68.2 316.9,66.4 325.3,65.1 333.8,63.7 342.2,63.3 350.6,62.9 359.1,62.2 367.5,60.8 375.9,59.9 384.4,59.3 392.8,57.8 401.2,55.4 409.7,54.9 418.1,54.4 426.6,53.5 435.0,51.7 443.4,50.4 451.9,48.5 460.3,47.1 468.8,45.4 477.2,45.1 485.6,44.1 494.1,42.3 502.5,40.6 510.9,39.2 519.4,38.7 527.8,37.8 536.2,37.0 544.7,35.0 553.1,33.2 561.6,31.6 570.0,30.0 570.0,30.0,120" />
  
  <!-- Linea principale -->
  <polyline fill="none" stroke="#0366d6" stroke-width="2.5" stroke-linecap="round" stroke-linejoin="round" points="30.0,120.0 38.4,117.7 46.9,115.2 55.3,113.0 63.8,112.4 72.2,111.3 80.6,108.6 89.1,106.8 97.5,105.6 105.9,102.9 114.4,101.5 122.8,100.1 131.2,99.3 139.7,98.1 148.1,96.2 156.6,94.2 165.0,92.7 173.4,91.7 181.9,91.0 190.3,89.7 198.8,88.3 207.2,87.0 215.6,86.4 224.1,85.2 232.5,80.8 240.9,79.5 249.4,77.8 257.8,76.1 266.2,74.6 274.7,73.2 283.1,72.2 291.6,71.5 300.0,70.3 308.4,68.2 316.9,66.4 325.3,65.1 333.8,63.7 342.2,63.3 350.6,62.9 359.1,62.2 367.5,60.8 375.9,59.9 384.4,59.3 392.8,57.8 401.2,55.4 409.7,54.9 418.1,54.4 426.6,53.5 435.0,51.7 443.4,50.4 451.9,48.5 460.3,47.1 468.8,45.4 477.2,45.1 485.6,44.1 494.1,42.3 502.5,40.6 510.9,39.2 519.4,38.7 527.8,37.8 536.2,37.0 544.7,35.0 553.1,33.2 561.6,31.6 570.0,30.0" />
  
  <!-- Punto finale luminoso -->
  <circle cx="570.0" cy="30.0" r="4" fill="#ffffff" stroke="#0366d6" stroke-width="2.5" />
</svg>