<svg width="600" height="150" viewBox="0 0 600 150" xmlns="http://www.w3.org/2000/svg">
  <defs>
    <filter id="shadow2" x="-2%" y="-2%" width="104%" height="108%">
      <feDropShadow dx="0" dy="2" stdDeviation="3" flood-opacity="0.1" />
    </filter>
    <linearGradient id="fillGrad" x1="0" y1="0" x2="0" y2="1">
      <stop offset="0%" stop-color="#0366d6" stop-opacity="0.3"/>
      <stop offset="100%" stop-color="#0366d6" stop-opacity="0.02"/>
    </linearGradient>
  </defs>
  <rect width="600" height="150" rx="12" fill="#ffffff" filter="url(#shadow2)" stroke="#e1e4e8" stroke-width="1"/>
  <text x="20" y="24" fill="#2b3137" font-family="-apple-system,BlinkMacSystemFont,'Segoe UI',Helvetica,Arial,sans-serif" font-size="14" font-weight="600">📈 Download Growth (Actual: 78.0k)</text>
  
  <!-- Area sotto la linea -->
  <polygon fill="url(#fillGrad)" points="30.0,120.0,120 30.0,120.0 32.6,119.1 35.1,118.1 37.7,117.2 40.3,117.0 42.9,116.6 45.4,115.5 48.0,114.8 50.6,114.3 53.1,113.3 55.7,112.7 58.3,112.2 60.9,111.9 63.4,111.4 66.0,110.6 68.6,109.9 71.1,109.3 73.7,108.9 76.3,108.6 78.9,108.1 81.4,107.5 84.0,107.0 86.6,106.8 89.1,106.3 91.7,104.6 94.3,104.1 96.9,103.4 99.4,102.7 102.0,102.1 104.6,101.6 107.1,101.2 109.7,100.9 112.3,100.4 114.9,99.6 117.4,98.9 120.0,98.4 122.6,97.8 125.1,97.7 127.7,97.5 130.3,97.2 132.9,96.7 135.4,96.3 138.0,96.1 140.6,95.5 143.1,94.6 145.7,94.3 148.3,94.2 150.9,93.8 153.4,93.1 156.0,92.6 158.6,91.8 161.1,91.3 163.7,90.6 166.3,90.5 168.9,90.1 171.4,89.4 174.0,88.7 176.6,88.2 179.1,88.0 181.7,87.6 184.3,87.3 186.9,86.5 189.4,85.8 192.0,85.2 194.6,84.5 197.1,84.2 199.7,84.0 202.3,83.8 204.9,83.2 207.4,82.9 210.0,82.6 212.6,82.3 215.1,82.1 217.7,81.7 220.3,81.5 222.9,81.3 225.4,81.1 228.0,80.4 230.6,80.1 233.1,79.9 235.7,79.7 238.3,79.6 240.9,79.6 243.4,91.1 246.0,90.0 248.6,89.0 251.1,87.9 253.7,84.7 256.3,82.5 258.9,80.2 261.4,79.3 264.0,78.3 266.6,76.7 269.1,74.9 271.7,73.6 274.3,73.1 276.9,72.7 279.4,71.4 282.0,70.5 284.6,69.9 287.1,69.1 289.7,68.8 292.3,68.7 294.9,68.0 297.4,67.0 300.0,66.2 302.6,65.4 305.1,64.5 307.7,64.1 310.3,63.8 312.9,63.1 315.4,62.4 318.0,61.8 320.6,61.2 323.1,61.0 325.7,60.8 328.3,60.5 330.9,59.9 333.4,59.5 336.0,59.1 338.6,58.7 341.1,58.4 343.7,58.1 346.3,57.7 348.9,57.5 351.4,57.2 354.0,56.6 356.6,56.1 359.1,55.6 361.7,55.3 364.3,55.0 366.9,54.8 369.4,54.5 372.0,54.2 374.6,53.4 377.1,52.8 379.7,52.1 382.3,51.8 384.9,51.8 387.4,51.4 390.0,51.1 392.6,50.6 395.1,50.2 397.7,49.7 400.3,49.4 402.9,49.2 405.4,49.0 408.0,48.7 410.6,48.5 413.1,48.2 415.7,47.9 418.3,47.4 420.9,47.1 423.4,47.0 426.0,46.7 428.6,46.6 431.1,46.1 433.7,45.8 436.3,45.4 438.9,45.0 441.4,44.7 444.0,44.4 446.6,44.2 449.1,44.0 451.7,43.5 454.3,43.0 456.9,42.6 459.4,42.3 462.0,41.6 464.6,41.5 467.1,41.3 469.7,41.1 472.3,40.8 474.9,40.5 477.4,40.2 480.0,39.9 482.6,39.6 485.1,39.4 487.7,39.1 490.3,38.9 492.9,38.8 495.4,38.4 498.0,38.0 500.6,37.8 503.1,37.4 505.7,37.2 508.3,37.0 510.9,36.7 513.4,36.5 516.0,36.3 518.6,36.0 521.1,35.5 523.7,35.0 526.3,34.6 528.9,34.4 531.4,34.3 534.0,34.1 536.6,33.8 539.1,33.3 541.7,33.1 544.3,32.9 546.9,32.6 549.4,32.3 552.0,32.0 554.6,31.8 557.1,31.6 559.7,31.2 562.3,30.9 564.9,30.5 567.4,30.2 570.0,30.0 570.0,30.0,120" />
  
  <!-- Linea principale -->
  <polyline fill="none" stroke="#0366d6" stroke-width="2.5" stroke-linecap="round" stroke-linejoin="round" points="30.0,120.0 32.6,119.1 35.1,118.1 37.7,117.2 40.3,117.0 42.9,116.6 45.4,115.5 48.0,114.8 50.6,114.3 53.1,113.3 55.7,112.7 58.3,112.2 60.9,111.9 63.4,111.4 66.0,110.6 68.6,109.9 71.1,109.3 73.7,108.9 76.3,108.6 78.9,108.1 81.4,107.5 84.0,107.0 86.6,106.8 89.1,106.3 91.7,104.6 94.3,104.1 96.9,103.4 99.4,102.7 102.0,102.1 104.6,101.6 107.1,101.2 109.7,100.9 112.3,100.4 114.9,99.6 117.4,98.9 120.0,98.4 122.6,97.8 125.1,97.7 127.7,97.5 130.3,97.2 132.9,96.7 135.4,96.3 138.0,96.1 140.6,95.5 143.1,94.6 145.7,94.3 148.3,94.2 150.9,93.8 153.4,93.1 156.0,92.6 158.6,91.8 161.1,91.3 163.7,90.6 166.3,90.5 168.9,90.1 171.4,89.4 174.0,88.7 176.6,88.2 179.1,88.0 181.7,87.6 184.3,87.3 186.9,86.5 189.4,85.8 192.0,85.2 194.6,84.5 197.1,84.2 199.7,84.0 202.3,83.8 204.9,83.2 207.4,82.9 210.0,82.6 212.6,82.3 215.1,82.1 217.7,81.7 220.3,81.5 222.9,81.3 225.4,81.1 228.0,80.4 230.6,80.1 233.1,79.9 235.7,79.7 238.3,79.6 240.9,79.6 243.4,91.1 246.0,90.0 248.6,89.0 251.1,87.9 253.7,84.7 256.3,82.5 258.9,80.2 261.4,79.3 264.0,78.3 266.6,76.7 269.1,74.9 271.7,73.6 274.3,73.1 276.9,72.7 279.4,71.4 282.0,70.5 284.6,69.9 287.1,69.1 289.7,68.8 292.3,68.7 294.9,68.0 297.4,67.0 300.0,66.2 302.6,65.4 305.1,64.5 307.7,64.1 310.3,63.8 312.9,63.1 315.4,62.4 318.0,61.8 320.6,61.2 323.1,61.0 325.7,60.8 328.3,60.5 330.9,59.9 333.4,59.5 336.0,59.1 338.6,58.7 341.1,58.4 343.7,58.1 346.3,57.7 348.9,57.5 351.4,57.2 354.0,56.6 356.6,56.1 359.1,55.6 361.7,55.3 364.3,55.0 366.9,54.8 369.4,54.5 372.0,54.2 374.6,53.4 377.1,52.8 379.7,52.1 382.3,51.8 384.9,51.8 387.4,51.4 390.0,51.1 392.6,50.6 395.1,50.2 397.7,49.7 400.3,49.4 402.9,49.2 405.4,49.0 408.0,48.7 410.6,48.5 413.1,48.2 415.7,47.9 418.3,47.4 420.9,47.1 423.4,47.0 426.0,46.7 428.6,46.6 431.1,46.1 433.7,45.8 436.3,45.4 438.9,45.0 441.4,44.7 444.0,44.4 446.6,44.2 449.1,44.0 451.7,43.5 454.3,43.0 456.9,42.6 459.4,42.3 462.0,41.6 464.6,41.5 467.1,41.3 469.7,41.1 472.3,40.8 474.9,40.5 477.4,40.2 480.0,39.9 482.6,39.6 485.1,39.4 487.7,39.1 490.3,38.9 492.9,38.8 495.4,38.4 498.0,38.0 500.6,37.8 503.1,37.4 505.7,37.2 508.3,37.0 510.9,36.7 513.4,36.5 516.0,36.3 518.6,36.0 521.1,35.5 523.7,35.0 526.3,34.6 528.9,34.4 531.4,34.3 534.0,34.1 536.6,33.8 539.1,33.3 541.7,33.1 544.3,32.9 546.9,32.6 549.4,32.3 552.0,32.0 554.6,31.8 557.1,31.6 559.7,31.2 562.3,30.9 564.9,30.5 567.4,30.2 570.0,30.0" />
  
  <!-- Punto finale luminoso -->
  <circle cx="570.0" cy="30.0" r="4" fill="#ffffff" stroke="#0366d6" stroke-width="2.5" />
</svg>