<svg width="600" height="150" viewBox="0 0 600 150" xmlns="http://www.w3.org/2000/svg">
  <defs>
    <filter id="shadow2" x="-2%" y="-2%" width="104%" height="108%">
      <feDropShadow dx="0" dy="2" stdDeviation="3" flood-opacity="0.1" />
    </filter>
    <linearGradient id="fillGrad" x1="0" y1="0" x2="0" y2="1">
      <stop offset="0%" stop-color="#0366d6" stop-opacity="0.3"/>
      <stop offset="100%" stop-color="#0366d6" stop-opacity="0.02"/>
    </linearGradient>
  </defs>
  <rect width="600" height="150" rx="12" fill="#ffffff" filter="url(#shadow2)" stroke="#e1e4e8" stroke-width="1"/>
  <text x="20" y="24" fill="#2b3137" font-family="-apple-system,BlinkMacSystemFont,'Segoe UI',Helvetica,Arial,sans-serif" font-size="14" font-weight="600">📈 Download Growth (Actual: 83.9k)</text>
  
  <!-- Area sotto la linea -->
  <polygon fill="url(#fillGrad)" points="30.0,120.0,120 30.0,120.0 31.7,119.4 33.4,118.8 35.0,118.2 36.7,118.1 38.4,117.8 40.1,117.1 41.8,116.6 43.5,116.3 45.1,115.6 46.8,115.2 48.5,114.9 50.2,114.7 51.9,114.4 53.6,113.9 55.2,113.4 56.9,113.0 58.6,112.7 60.3,112.5 62.0,112.2 63.6,111.8 65.3,111.5 67.0,111.3 68.7,111.0 70.4,109.9 72.1,109.6 73.7,109.1 75.4,108.7 77.1,108.3 78.8,107.9 80.5,107.7 82.1,107.5 83.8,107.2 85.5,106.7 87.2,106.2 88.9,105.9 90.6,105.5 92.2,105.4 93.9,105.3 95.6,105.1 97.3,104.8 99.0,104.5 100.7,104.4 102.3,104.0 104.0,103.4 105.7,103.2 107.4,103.1 109.1,102.9 110.7,102.4 112.4,102.1 114.1,101.6 115.8,101.2 117.5,100.8 119.2,100.7 120.8,100.4 122.5,100.0 124.2,99.6 125.9,99.2 127.6,99.1 129.3,98.8 130.9,98.6 132.6,98.1 134.3,97.7 136.0,97.2 137.7,96.8 139.3,96.6 141.0,96.5 142.7,96.3 144.4,96.0 146.1,95.7 147.8,95.6 149.4,95.4 151.1,95.2 152.8,95.0 154.5,94.8 156.2,94.7 157.9,94.6 159.5,94.2 161.2,93.9 162.9,93.8 164.6,93.7 166.3,93.6 167.9,93.6 169.6,101.1 171.3,100.4 173.0,99.7 174.7,99.0 176.4,97.0 178.0,95.5 179.7,94.0 181.4,93.4 183.1,92.7 184.8,91.7 186.4,90.5 188.1,89.7 189.8,89.4 191.5,89.1 193.2,88.2 194.9,87.6 196.5,87.2 198.2,86.8 199.9,86.6 201.6,86.5 203.3,86.0 205.0,85.3 206.6,84.8 208.3,84.3 210.0,83.8 211.7,83.5 213.4,83.3 215.0,82.8 216.7,82.4 218.4,81.9 220.1,81.6 221.8,81.4 223.5,81.3 225.1,81.1 226.8,80.7 228.5,80.4 230.2,80.2 231.9,79.9 233.6,79.7 235.2,79.5 236.9,79.3 238.6,79.1 240.3,79.0 242.0,78.6 243.6,78.3 245.3,77.9 247.0,77.7 248.7,77.5 250.4,77.4 252.1,77.2 253.7,77.0 255.4,76.5 257.1,76.1 258.8,75.6 260.5,75.5 262.1,75.4 263.8,75.2 265.5,75.0 267.2,74.7 268.9,74.4 270.6,74.1 272.2,73.9 273.9,73.8 275.6,73.6 277.3,73.4 279.0,73.3 280.7,73.1 282.3,72.9 284.0,72.5 285.7,72.4 287.4,72.3 289.1,72.1 290.7,72.0 292.4,71.7 294.1,71.5 295.8,71.2 297.5,71.0 299.2,70.8 300.8,70.6 302.5,70.5 304.2,70.3 305.9,70.0 307.6,69.7 309.3,69.4 310.9,69.2 312.6,68.8 314.3,68.7 316.0,68.6 317.7,68.5 319.3,68.2 321.0,68.1 322.7,67.8 324.4,67.7 326.1,67.5 327.8,67.3 329.4,67.1 331.1,67.0 332.8,66.9 334.5,66.7 336.2,66.4 337.9,66.3 339.5,66.0 341.2,65.9 342.9,65.8 344.6,65.6 346.3,65.4 347.9,65.3 349.6,65.1 351.3,64.8 353.0,64.4 354.7,64.2 356.4,64.0 358.0,64.0 359.7,63.9 361.4,63.7 363.1,63.4 364.8,63.2 366.4,63.1 368.1,62.9 369.8,62.7 371.5,62.5 373.2,62.4 374.9,62.2 376.5,62.0 378.2,61.8 379.9,61.5 381.6,61.3 383.3,61.2 385.0,61.1 386.6,61.0 388.3,60.9 390.0,60.7 391.7,60.5 393.4,60.3 395.0,60.1 396.7,60.0 398.4,59.9 400.1,59.7 401.8,59.6 403.5,59.3 405.1,59.1 406.8,58.9 408.5,58.7 410.2,58.5 411.9,58.4 413.6,58.3 415.2,58.2 416.9,58.1 418.6,57.9 420.3,57.7 422.0,57.5 423.6,57.3 425.3,57.2 427.0,57.1 428.7,56.9 430.4,56.7 432.1,56.6 433.7,56.4 435.4,56.3 437.1,56.1 438.8,55.9 440.5,55.7 442.1,55.6 443.8,55.5 445.5,55.4 447.2,55.3 448.9,55.1 450.6,55.0 452.2,54.9 453.9,54.8 455.6,54.4 457.3,54.2 459.0,59.1 460.7,58.2 462.3,56.3 464.0,55.6 465.7,54.7 467.4,53.6 469.1,53.1 470.7,52.7 472.4,52.0 474.1,50.9 475.8,50.1 477.5,49.8 479.2,49.4 480.8,49.1 482.5,48.6 484.2,48.0 485.9,47.4 487.6,47.2 489.3,46.6 490.9,46.3 492.6,46.0 494.3,45.7 496.0,45.4 497.7,45.2 499.3,44.6 501.0,44.3 502.7,43.8 504.4,43.1 506.1,42.7 507.8,42.5 509.4,42.3 511.1,42.0 512.8,41.6 514.5,41.2 516.2,40.8 517.9,39.8 519.5,39.0 521.2,38.7 522.9,38.5 524.6,38.1 526.3,37.6 527.9,37.2 529.6,36.8 531.3,36.5 533.0,36.1 534.7,35.8 536.4,35.4 538.0,35.0 539.7,34.7 541.4,34.6 543.1,34.3 544.8,33.9 546.4,33.6 548.1,33.3 549.8,33.2 551.5,33.0 553.2,32.7 554.9,32.5 556.5,32.2 558.2,32.0 559.9,31.8 561.6,31.7 563.3,31.3 565.0,31.1 566.6,30.7 568.3,30.3 570.0,30.0 570.0,30.0,120" />
  
  <!-- Linea principale -->
  <polyline fill="none" stroke="#0366d6" stroke-width="2.5" stroke-linecap="round" stroke-linejoin="round" points="30.0,120.0 31.7,119.4 33.4,118.8 35.0,118.2 36.7,118.1 38.4,117.8 40.1,117.1 41.8,116.6 43.5,116.3 45.1,115.6 46.8,115.2 48.5,114.9 50.2,114.7 51.9,114.4 53.6,113.9 55.2,113.4 56.9,113.0 58.6,112.7 60.3,112.5 62.0,112.2 63.6,111.8 65.3,111.5 67.0,111.3 68.7,111.0 70.4,109.9 72.1,109.6 73.7,109.1 75.4,108.7 77.1,108.3 78.8,107.9 80.5,107.7 82.1,107.5 83.8,107.2 85.5,106.7 87.2,106.2 88.9,105.9 90.6,105.5 92.2,105.4 93.9,105.3 95.6,105.1 97.3,104.8 99.0,104.5 100.7,104.4 102.3,104.0 104.0,103.4 105.7,103.2 107.4,103.1 109.1,102.9 110.7,102.4 112.4,102.1 114.1,101.6 115.8,101.2 117.5,100.8 119.2,100.7 120.8,100.4 122.5,100.0 124.2,99.6 125.9,99.2 127.6,99.1 129.3,98.8 130.9,98.6 132.6,98.1 134.3,97.7 136.0,97.2 137.7,96.8 139.3,96.6 141.0,96.5 142.7,96.3 144.4,96.0 146.1,95.7 147.8,95.6 149.4,95.4 151.1,95.2 152.8,95.0 154.5,94.8 156.2,94.7 157.9,94.6 159.5,94.2 161.2,93.9 162.9,93.8 164.6,93.7 166.3,93.6 167.9,93.6 169.6,101.1 171.3,100.4 173.0,99.7 174.7,99.0 176.4,97.0 178.0,95.5 179.7,94.0 181.4,93.4 183.1,92.7 184.8,91.7 186.4,90.5 188.1,89.7 189.8,89.4 191.5,89.1 193.2,88.2 194.9,87.6 196.5,87.2 198.2,86.8 199.9,86.6 201.6,86.5 203.3,86.0 205.0,85.3 206.6,84.8 208.3,84.3 210.0,83.8 211.7,83.5 213.4,83.3 215.0,82.8 216.7,82.4 218.4,81.9 220.1,81.6 221.8,81.4 223.5,81.3 225.1,81.1 226.8,80.7 228.5,80.4 230.2,80.2 231.9,79.9 233.6,79.7 235.2,79.5 236.9,79.3 238.6,79.1 240.3,79.0 242.0,78.6 243.6,78.3 245.3,77.9 247.0,77.7 248.7,77.5 250.4,77.4 252.1,77.2 253.7,77.0 255.4,76.5 257.1,76.1 258.8,75.6 260.5,75.5 262.1,75.4 263.8,75.2 265.5,75.0 267.2,74.7 268.9,74.4 270.6,74.1 272.2,73.9 273.9,73.8 275.6,73.6 277.3,73.4 279.0,73.3 280.7,73.1 282.3,72.9 284.0,72.5 285.7,72.4 287.4,72.3 289.1,72.1 290.7,72.0 292.4,71.7 294.1,71.5 295.8,71.2 297.5,71.0 299.2,70.8 300.8,70.6 302.5,70.5 304.2,70.3 305.9,70.0 307.6,69.7 309.3,69.4 310.9,69.2 312.6,68.8 314.3,68.7 316.0,68.6 317.7,68.5 319.3,68.2 321.0,68.1 322.7,67.8 324.4,67.7 326.1,67.5 327.8,67.3 329.4,67.1 331.1,67.0 332.8,66.9 334.5,66.7 336.2,66.4 337.9,66.3 339.5,66.0 341.2,65.9 342.9,65.8 344.6,65.6 346.3,65.4 347.9,65.3 349.6,65.1 351.3,64.8 353.0,64.4 354.7,64.2 356.4,64.0 358.0,64.0 359.7,63.9 361.4,63.7 363.1,63.4 364.8,63.2 366.4,63.1 368.1,62.9 369.8,62.7 371.5,62.5 373.2,62.4 374.9,62.2 376.5,62.0 378.2,61.8 379.9,61.5 381.6,61.3 383.3,61.2 385.0,61.1 386.6,61.0 388.3,60.9 390.0,60.7 391.7,60.5 393.4,60.3 395.0,60.1 396.7,60.0 398.4,59.9 400.1,59.7 401.8,59.6 403.5,59.3 405.1,59.1 406.8,58.9 408.5,58.7 410.2,58.5 411.9,58.4 413.6,58.3 415.2,58.2 416.9,58.1 418.6,57.9 420.3,57.7 422.0,57.5 423.6,57.3 425.3,57.2 427.0,57.1 428.7,56.9 430.4,56.7 432.1,56.6 433.7,56.4 435.4,56.3 437.1,56.1 438.8,55.9 440.5,55.7 442.1,55.6 443.8,55.5 445.5,55.4 447.2,55.3 448.9,55.1 450.6,55.0 452.2,54.9 453.9,54.8 455.6,54.4 457.3,54.2 459.0,59.1 460.7,58.2 462.3,56.3 464.0,55.6 465.7,54.7 467.4,53.6 469.1,53.1 470.7,52.7 472.4,52.0 474.1,50.9 475.8,50.1 477.5,49.8 479.2,49.4 480.8,49.1 482.5,48.6 484.2,48.0 485.9,47.4 487.6,47.2 489.3,46.6 490.9,46.3 492.6,46.0 494.3,45.7 496.0,45.4 497.7,45.2 499.3,44.6 501.0,44.3 502.7,43.8 504.4,43.1 506.1,42.7 507.8,42.5 509.4,42.3 511.1,42.0 512.8,41.6 514.5,41.2 516.2,40.8 517.9,39.8 519.5,39.0 521.2,38.7 522.9,38.5 524.6,38.1 526.3,37.6 527.9,37.2 529.6,36.8 531.3,36.5 533.0,36.1 534.7,35.8 536.4,35.4 538.0,35.0 539.7,34.7 541.4,34.6 543.1,34.3 544.8,33.9 546.4,33.6 548.1,33.3 549.8,33.2 551.5,33.0 553.2,32.7 554.9,32.5 556.5,32.2 558.2,32.0 559.9,31.8 561.6,31.7 563.3,31.3 565.0,31.1 566.6,30.7 568.3,30.3 570.0,30.0" />
  
  <!-- Punto finale luminoso -->
  <circle cx="570.0" cy="30.0" r="4" fill="#ffffff" stroke="#0366d6" stroke-width="2.5" />
</svg>