<svg width="600" height="150" viewBox="0 0 600 150" xmlns="http://www.w3.org/2000/svg">
  <defs>
    <filter id="shadow2" x="-2%" y="-2%" width="104%" height="108%">
      <feDropShadow dx="0" dy="2" stdDeviation="3" flood-opacity="0.1" />
    </filter>
    <linearGradient id="fillGrad" x1="0" y1="0" x2="0" y2="1">
      <stop offset="0%" stop-color="#0366d6" stop-opacity="0.3"/>
      <stop offset="100%" stop-color="#0366d6" stop-opacity="0.02"/>
    </linearGradient>
  </defs>
  <rect width="600" height="150" rx="12" fill="#ffffff" filter="url(#shadow2)" stroke="#e1e4e8" stroke-width="1"/>
  <text x="20" y="24" fill="#2b3137" font-family="-apple-system,BlinkMacSystemFont,'Segoe UI',Helvetica,Arial,sans-serif" font-size="14" font-weight="600">📈 Download Growth (Actual: 76.3k)</text>
  
  <!-- Area sotto la linea -->
  <polygon fill="url(#fillGrad)" points="30.0,120.0,120 30.0,120.0 33.3,118.9 36.6,117.8 39.9,116.8 43.2,116.5 46.5,116.0 49.8,114.7 53.0,113.9 56.3,113.3 59.6,112.1 62.9,111.4 66.2,110.8 69.5,110.4 72.8,109.8 76.1,109.0 79.4,108.1 82.7,107.4 86.0,106.9 89.3,106.6 92.6,106.0 95.9,105.3 99.1,104.7 102.4,104.4 105.7,103.9 109.0,101.9 112.3,101.3 115.6,100.5 118.9,99.7 122.2,99.0 125.5,98.3 128.8,97.9 132.1,97.5 135.4,97.0 138.7,96.0 142.0,95.2 145.2,94.6 148.5,93.9 151.8,93.7 155.1,93.5 158.4,93.2 161.7,92.6 165.0,92.2 168.3,91.9 171.6,91.2 174.9,90.1 178.2,89.8 181.5,89.6 184.8,89.2 188.0,88.3 191.3,87.8 194.6,86.9 197.9,86.2 201.2,85.5 204.5,85.3 207.8,84.8 211.1,84.0 214.4,83.2 217.7,82.6 221.0,82.3 224.3,81.9 227.6,81.5 230.9,80.6 234.1,79.8 237.4,79.0 240.7,78.3 244.0,77.9 247.3,77.7 250.6,77.4 253.9,76.8 257.2,76.4 260.5,76.0 263.8,75.7 267.1,75.4 270.4,75.0 273.7,74.7 277.0,74.5 280.2,74.3 283.5,73.5 286.8,73.0 290.1,72.9 293.4,72.6 296.7,72.4 300.0,72.4 303.3,86.0 306.6,84.7 309.9,83.5 313.2,82.2 316.5,78.5 319.8,75.9 323.0,73.2 326.3,72.1 329.6,71.0 332.9,69.0 336.2,67.0 339.5,65.4 342.8,64.9 346.1,64.3 349.4,62.8 352.7,61.8 356.0,61.1 359.3,60.2 362.6,59.8 365.9,59.7 369.1,58.9 372.4,57.6 375.7,56.7 379.0,55.8 382.3,54.8 385.6,54.3 388.9,53.9 392.2,53.0 395.5,52.3 398.8,51.5 402.1,50.9 405.4,50.6 408.7,50.4 412.0,50.0 415.2,49.3 418.5,48.8 421.8,48.3 425.1,47.9 428.4,47.5 431.7,47.1 435.0,46.8 438.3,46.5 441.6,46.1 444.9,45.4 448.2,44.9 451.5,44.3 454.8,43.9 458.0,43.5 461.3,43.3 464.6,43.0 467.9,42.6 471.2,41.6 474.5,41.0 477.8,40.2 481.1,39.8 484.4,39.8 487.7,39.4 491.0,39.0 494.3,38.4 497.6,38.0 500.9,37.4 504.1,37.0 507.4,36.8 510.7,36.5 514.0,36.2 517.3,35.9 520.6,35.5 523.9,35.2 527.2,34.6 530.5,34.3 533.8,34.1 537.1,33.8 540.4,33.7 543.7,33.1 547.0,32.7 550.2,32.3 553.5,31.8 556.8,31.4 560.1,31.1 563.4,30.9 566.7,30.6 570.0,30.0 570.0,30.0,120" />
  
  <!-- Linea principale -->
  <polyline fill="none" stroke="#0366d6" stroke-width="2.5" stroke-linecap="round" stroke-linejoin="round" points="30.0,120.0 33.3,118.9 36.6,117.8 39.9,116.8 43.2,116.5 46.5,116.0 49.8,114.7 53.0,113.9 56.3,113.3 59.6,112.1 62.9,111.4 66.2,110.8 69.5,110.4 72.8,109.8 76.1,109.0 79.4,108.1 82.7,107.4 86.0,106.9 89.3,106.6 92.6,106.0 95.9,105.3 99.1,104.7 102.4,104.4 105.7,103.9 109.0,101.9 112.3,101.3 115.6,100.5 118.9,99.7 122.2,99.0 125.5,98.3 128.8,97.9 132.1,97.5 135.4,97.0 138.7,96.0 142.0,95.2 145.2,94.6 148.5,93.9 151.8,93.7 155.1,93.5 158.4,93.2 161.7,92.6 165.0,92.2 168.3,91.9 171.6,91.2 174.9,90.1 178.2,89.8 181.5,89.6 184.8,89.2 188.0,88.3 191.3,87.8 194.6,86.9 197.9,86.2 201.2,85.5 204.5,85.3 207.8,84.8 211.1,84.0 214.4,83.2 217.7,82.6 221.0,82.3 224.3,81.9 227.6,81.5 230.9,80.6 234.1,79.8 237.4,79.0 240.7,78.3 244.0,77.9 247.3,77.7 250.6,77.4 253.9,76.8 257.2,76.4 260.5,76.0 263.8,75.7 267.1,75.4 270.4,75.0 273.7,74.7 277.0,74.5 280.2,74.3 283.5,73.5 286.8,73.0 290.1,72.9 293.4,72.6 296.7,72.4 300.0,72.4 303.3,86.0 306.6,84.7 309.9,83.5 313.2,82.2 316.5,78.5 319.8,75.9 323.0,73.2 326.3,72.1 329.6,71.0 332.9,69.0 336.2,67.0 339.5,65.4 342.8,64.9 346.1,64.3 349.4,62.8 352.7,61.8 356.0,61.1 359.3,60.2 362.6,59.8 365.9,59.7 369.1,58.9 372.4,57.6 375.7,56.7 379.0,55.8 382.3,54.8 385.6,54.3 388.9,53.9 392.2,53.0 395.5,52.3 398.8,51.5 402.1,50.9 405.4,50.6 408.7,50.4 412.0,50.0 415.2,49.3 418.5,48.8 421.8,48.3 425.1,47.9 428.4,47.5 431.7,47.1 435.0,46.8 438.3,46.5 441.6,46.1 444.9,45.4 448.2,44.9 451.5,44.3 454.8,43.9 458.0,43.5 461.3,43.3 464.6,43.0 467.9,42.6 471.2,41.6 474.5,41.0 477.8,40.2 481.1,39.8 484.4,39.8 487.7,39.4 491.0,39.0 494.3,38.4 497.6,38.0 500.9,37.4 504.1,37.0 507.4,36.8 510.7,36.5 514.0,36.2 517.3,35.9 520.6,35.5 523.9,35.2 527.2,34.6 530.5,34.3 533.8,34.1 537.1,33.8 540.4,33.7 543.7,33.1 547.0,32.7 550.2,32.3 553.5,31.8 556.8,31.4 560.1,31.1 563.4,30.9 566.7,30.6 570.0,30.0" />
  
  <!-- Punto finale luminoso -->
  <circle cx="570.0" cy="30.0" r="4" fill="#ffffff" stroke="#0366d6" stroke-width="2.5" />
</svg>