<svg width="600" height="150" viewBox="0 0 600 150" xmlns="http://www.w3.org/2000/svg">
  <defs>
    <filter id="shadow2" x="-2%" y="-2%" width="104%" height="108%">
      <feDropShadow dx="0" dy="2" stdDeviation="3" flood-opacity="0.1" />
    </filter>
    <linearGradient id="fillGrad" x1="0" y1="0" x2="0" y2="1">
      <stop offset="0%" stop-color="#0366d6" stop-opacity="0.3"/>
      <stop offset="100%" stop-color="#0366d6" stop-opacity="0.02"/>
    </linearGradient>
  </defs>
  <rect width="600" height="150" rx="12" fill="#ffffff" filter="url(#shadow2)" stroke="#e1e4e8" stroke-width="1"/>
  <text x="20" y="24" fill="#2b3137" font-family="-apple-system,BlinkMacSystemFont,'Segoe UI',Helvetica,Arial,sans-serif" font-size="14" font-weight="600">📈 Download Growth (Actual: 78.6k)</text>
  
  <!-- Area sotto la linea -->
  <polygon fill="url(#fillGrad)" points="30.0,120.0,120 30.0,120.0 32.3,119.1 34.7,118.2 37.0,117.4 39.3,117.2 41.6,116.8 44.0,115.8 46.3,115.1 48.6,114.7 50.9,113.6 53.3,113.1 55.6,112.6 57.9,112.3 60.3,111.8 62.6,111.2 64.9,110.4 67.2,109.9 69.6,109.5 71.9,109.2 74.2,108.8 76.6,108.2 78.9,107.7 81.2,107.5 83.5,107.0 85.9,105.4 88.2,105.0 90.5,104.3 92.8,103.7 95.2,103.1 97.5,102.6 99.8,102.2 102.2,102.0 104.5,101.5 106.8,100.7 109.1,100.1 111.5,99.6 113.8,99.1 116.1,98.9 118.4,98.8 120.8,98.5 123.1,98.0 125.4,97.7 127.8,97.5 130.1,96.9 132.4,96.0 134.7,95.8 137.1,95.6 139.4,95.3 141.7,94.6 144.1,94.1 146.4,93.4 148.7,92.9 151.0,92.3 153.4,92.1 155.7,91.8 158.0,91.1 160.3,90.5 162.7,90.0 165.0,89.8 167.3,89.4 169.7,89.1 172.0,88.4 174.3,87.7 176.6,87.1 179.0,86.5 181.3,86.2 183.6,86.1 185.9,85.8 188.3,85.3 190.6,85.0 192.9,84.7 195.3,84.5 197.6,84.2 199.9,83.9 202.2,83.7 204.6,83.5 206.9,83.3 209.2,82.7 211.6,82.3 213.9,82.2 216.2,82.0 218.5,81.8 220.9,81.8 223.2,92.7 225.5,91.7 227.8,90.7 230.2,89.7 232.5,86.7 234.8,84.6 237.2,82.4 239.5,81.6 241.8,80.6 244.1,79.1 246.5,77.4 248.8,76.2 251.1,75.8 253.4,75.3 255.8,74.1 258.1,73.3 260.4,72.7 262.8,72.0 265.1,71.7 267.4,71.6 269.7,71.0 272.1,69.9 274.4,69.2 276.7,68.5 279.1,67.7 281.4,67.3 283.7,67.0 286.0,66.3 288.4,65.6 290.7,65.0 293.0,64.6 295.3,64.3 297.7,64.2 300.0,63.8 302.3,63.3 304.7,62.9 307.0,62.5 309.3,62.2 311.6,61.8 314.0,61.5 316.3,61.3 318.6,61.0 320.9,60.7 323.3,60.2 325.6,59.7 327.9,59.2 330.3,59.0 332.6,58.6 334.9,58.4 337.2,58.2 339.6,57.9 341.9,57.1 344.2,56.6 346.6,55.9 348.9,55.7 351.2,55.6 353.5,55.3 355.9,55.0 358.2,54.5 360.5,54.2 362.8,53.7 365.2,53.4 367.5,53.2 369.8,53.0 372.2,52.7 374.5,52.5 376.8,52.2 379.1,51.9 381.5,51.5 383.8,51.2 386.1,51.1 388.4,50.9 390.8,50.7 393.1,50.3 395.4,50.0 397.8,49.6 400.1,49.3 402.4,48.9 404.7,48.7 407.1,48.5 409.4,48.3 411.7,47.8 414.1,47.3 416.4,47.0 418.7,46.6 421.0,46.1 423.4,45.9 425.7,45.7 428.0,45.6 430.3,45.3 432.7,45.0 435.0,44.7 437.3,44.4 439.7,44.2 442.0,43.9 444.3,43.7 446.6,43.5 449.0,43.3 451.3,43.0 453.6,42.6 455.9,42.4 458.3,42.0 460.6,41.9 462.9,41.7 465.3,41.4 467.6,41.2 469.9,41.0 472.2,40.8 474.6,40.3 476.9,39.8 479.2,39.5 481.6,39.2 483.9,39.1 486.2,39.0 488.5,38.6 490.9,38.2 493.2,38.0 495.5,37.8 497.8,37.5 500.2,37.3 502.5,37.0 504.8,36.8 507.2,36.6 509.5,36.2 511.8,35.9 514.1,35.5 516.5,35.2 518.8,35.1 521.1,35.0 523.4,34.9 525.8,34.6 528.1,34.4 530.4,34.1 532.8,33.8 535.1,33.5 537.4,33.3 539.7,33.1 542.1,32.9 544.4,32.7 546.7,32.4 549.1,32.0 551.4,31.7 553.7,31.4 556.0,31.3 558.4,31.1 560.7,30.9 563.0,30.8 565.3,30.6 567.7,30.4 570.0,30.0 570.0,30.0,120" />
  
  <!-- Linea principale -->
  <polyline fill="none" stroke="#0366d6" stroke-width="2.5" stroke-linecap="round" stroke-linejoin="round" points="30.0,120.0 32.3,119.1 34.7,118.2 37.0,117.4 39.3,117.2 41.6,116.8 44.0,115.8 46.3,115.1 48.6,114.7 50.9,113.6 53.3,113.1 55.6,112.6 57.9,112.3 60.3,111.8 62.6,111.2 64.9,110.4 67.2,109.9 69.6,109.5 71.9,109.2 74.2,108.8 76.6,108.2 78.9,107.7 81.2,107.5 83.5,107.0 85.9,105.4 88.2,105.0 90.5,104.3 92.8,103.7 95.2,103.1 97.5,102.6 99.8,102.2 102.2,102.0 104.5,101.5 106.8,100.7 109.1,100.1 111.5,99.6 113.8,99.1 116.1,98.9 118.4,98.8 120.8,98.5 123.1,98.0 125.4,97.7 127.8,97.5 130.1,96.9 132.4,96.0 134.7,95.8 137.1,95.6 139.4,95.3 141.7,94.6 144.1,94.1 146.4,93.4 148.7,92.9 151.0,92.3 153.4,92.1 155.7,91.8 158.0,91.1 160.3,90.5 162.7,90.0 165.0,89.8 167.3,89.4 169.7,89.1 172.0,88.4 174.3,87.7 176.6,87.1 179.0,86.5 181.3,86.2 183.6,86.1 185.9,85.8 188.3,85.3 190.6,85.0 192.9,84.7 195.3,84.5 197.6,84.2 199.9,83.9 202.2,83.7 204.6,83.5 206.9,83.3 209.2,82.7 211.6,82.3 213.9,82.2 216.2,82.0 218.5,81.8 220.9,81.8 223.2,92.7 225.5,91.7 227.8,90.7 230.2,89.7 232.5,86.7 234.8,84.6 237.2,82.4 239.5,81.6 241.8,80.6 244.1,79.1 246.5,77.4 248.8,76.2 251.1,75.8 253.4,75.3 255.8,74.1 258.1,73.3 260.4,72.7 262.8,72.0 265.1,71.7 267.4,71.6 269.7,71.0 272.1,69.9 274.4,69.2 276.7,68.5 279.1,67.7 281.4,67.3 283.7,67.0 286.0,66.3 288.4,65.6 290.7,65.0 293.0,64.6 295.3,64.3 297.7,64.2 300.0,63.8 302.3,63.3 304.7,62.9 307.0,62.5 309.3,62.2 311.6,61.8 314.0,61.5 316.3,61.3 318.6,61.0 320.9,60.7 323.3,60.2 325.6,59.7 327.9,59.2 330.3,59.0 332.6,58.6 334.9,58.4 337.2,58.2 339.6,57.9 341.9,57.1 344.2,56.6 346.6,55.9 348.9,55.7 351.2,55.6 353.5,55.3 355.9,55.0 358.2,54.5 360.5,54.2 362.8,53.7 365.2,53.4 367.5,53.2 369.8,53.0 372.2,52.7 374.5,52.5 376.8,52.2 379.1,51.9 381.5,51.5 383.8,51.2 386.1,51.1 388.4,50.9 390.8,50.7 393.1,50.3 395.4,50.0 397.8,49.6 400.1,49.3 402.4,48.9 404.7,48.7 407.1,48.5 409.4,48.3 411.7,47.8 414.1,47.3 416.4,47.0 418.7,46.6 421.0,46.1 423.4,45.9 425.7,45.7 428.0,45.6 430.3,45.3 432.7,45.0 435.0,44.7 437.3,44.4 439.7,44.2 442.0,43.9 444.3,43.7 446.6,43.5 449.0,43.3 451.3,43.0 453.6,42.6 455.9,42.4 458.3,42.0 460.6,41.9 462.9,41.7 465.3,41.4 467.6,41.2 469.9,41.0 472.2,40.8 474.6,40.3 476.9,39.8 479.2,39.5 481.6,39.2 483.9,39.1 486.2,39.0 488.5,38.6 490.9,38.2 493.2,38.0 495.5,37.8 497.8,37.5 500.2,37.3 502.5,37.0 504.8,36.8 507.2,36.6 509.5,36.2 511.8,35.9 514.1,35.5 516.5,35.2 518.8,35.1 521.1,35.0 523.4,34.9 525.8,34.6 528.1,34.4 530.4,34.1 532.8,33.8 535.1,33.5 537.4,33.3 539.7,33.1 542.1,32.9 544.4,32.7 546.7,32.4 549.1,32.0 551.4,31.7 553.7,31.4 556.0,31.3 558.4,31.1 560.7,30.9 563.0,30.8 565.3,30.6 567.7,30.4 570.0,30.0" />
  
  <!-- Punto finale luminoso -->
  <circle cx="570.0" cy="30.0" r="4" fill="#ffffff" stroke="#0366d6" stroke-width="2.5" />
</svg>