<svg width="600" height="150" viewBox="0 0 600 150" xmlns="http://www.w3.org/2000/svg">
  <defs>
    <filter id="shadow2" x="-2%" y="-2%" width="104%" height="108%">
      <feDropShadow dx="0" dy="2" stdDeviation="3" flood-opacity="0.1" />
    </filter>
    <linearGradient id="fillGrad" x1="0" y1="0" x2="0" y2="1">
      <stop offset="0%" stop-color="#0366d6" stop-opacity="0.3"/>
      <stop offset="100%" stop-color="#0366d6" stop-opacity="0.02"/>
    </linearGradient>
  </defs>
  <rect width="600" height="150" rx="12" fill="#ffffff" filter="url(#shadow2)" stroke="#e1e4e8" stroke-width="1"/>
  <text x="20" y="24" fill="#2b3137" font-family="-apple-system,BlinkMacSystemFont,'Segoe UI',Helvetica,Arial,sans-serif" font-size="14" font-weight="600">📈 Download Growth (Actual: 84.8k)</text>
  
  <!-- Area sotto la linea -->
  <polygon fill="url(#fillGrad)" points="30.0,120.0,120 30.0,120.0 31.6,119.4 33.2,118.8 34.7,118.3 36.3,118.2 37.9,117.9 39.5,117.2 41.1,116.8 42.6,116.5 44.2,115.8 45.8,115.5 47.4,115.1 48.9,114.9 50.5,114.6 52.1,114.2 53.7,113.7 55.3,113.3 56.8,113.1 58.4,112.9 60.0,112.6 61.6,112.3 63.2,111.9 64.7,111.8 66.3,111.5 67.9,110.4 69.5,110.1 71.1,109.7 72.6,109.3 74.2,108.9 75.8,108.6 77.4,108.3 78.9,108.2 80.5,107.9 82.1,107.3 83.7,106.9 85.3,106.6 86.8,106.2 88.4,106.1 90.0,106.0 91.6,105.9 93.2,105.5 94.7,105.3 96.3,105.2 97.9,104.8 99.5,104.2 101.1,104.1 102.6,104.0 104.2,103.8 105.8,103.3 107.4,103.0 108.9,102.5 110.5,102.2 112.1,101.8 113.7,101.7 115.3,101.4 116.8,101.0 118.4,100.6 120.0,100.3 121.6,100.1 123.2,99.9 124.7,99.7 126.3,99.2 127.9,98.8 129.5,98.4 131.1,98.0 132.6,97.8 134.2,97.7 135.8,97.5 137.4,97.2 138.9,97.0 140.5,96.8 142.1,96.6 143.7,96.5 145.3,96.3 146.8,96.1 148.4,96.0 150.0,95.9 151.6,95.5 153.2,95.2 154.7,95.1 156.3,95.0 157.9,94.9 159.5,94.9 161.1,102.1 162.6,101.4 164.2,100.7 165.8,100.1 167.4,98.1 168.9,96.8 170.5,95.3 172.1,94.7 173.7,94.1 175.3,93.1 176.8,92.0 178.4,91.2 180.0,90.9 181.6,90.6 183.2,89.9 184.7,89.3 186.3,88.9 187.9,88.4 189.5,88.3 191.1,88.2 192.6,87.8 194.2,87.1 195.8,86.6 197.4,86.1 198.9,85.6 200.5,85.3 202.1,85.1 203.7,84.7 205.3,84.3 206.8,83.9 208.4,83.6 210.0,83.4 211.6,83.3 213.2,83.1 214.7,82.7 216.3,82.4 217.9,82.2 219.5,82.0 221.1,81.8 222.6,81.6 224.2,81.4 225.8,81.2 227.4,81.0 228.9,80.7 230.5,80.4 232.1,80.1 233.7,79.9 235.3,79.7 236.8,79.5 238.4,79.4 240.0,79.2 241.6,78.7 243.2,78.3 244.7,77.9 246.3,77.7 247.9,77.7 249.5,77.5 251.1,77.2 252.6,77.0 254.2,76.7 255.8,76.4 257.4,76.2 258.9,76.1 260.5,75.9 262.1,75.8 263.7,75.6 265.3,75.4 266.8,75.3 268.4,74.9 270.0,74.8 271.6,74.7 273.2,74.6 274.7,74.5 276.3,74.2 277.9,74.0 279.5,73.7 281.1,73.5 282.6,73.3 284.2,73.1 285.8,73.0 287.4,72.9 288.9,72.5 290.5,72.2 292.1,72.0 293.7,71.8 295.3,71.4 296.8,71.3 298.4,71.2 300.0,71.1 301.6,70.9 303.2,70.7 304.7,70.5 306.3,70.3 307.9,70.1 309.5,70.0 311.1,69.8 312.6,69.7 314.2,69.6 315.8,69.4 317.4,69.1 318.9,69.0 320.5,68.8 322.1,68.6 323.7,68.5 325.3,68.3 326.8,68.2 328.4,68.1 330.0,67.9 331.6,67.6 333.2,67.3 334.7,67.1 336.3,66.9 337.9,66.8 339.5,66.7 341.1,66.5 342.6,66.2 344.2,66.1 345.8,66.0 347.4,65.8 348.9,65.6 350.5,65.4 352.1,65.3 353.7,65.2 355.3,64.9 356.8,64.7 358.4,64.5 360.0,64.3 361.6,64.2 363.2,64.1 364.7,64.0 366.3,63.9 367.9,63.7 369.5,63.5 371.1,63.3 372.6,63.2 374.2,63.0 375.8,62.9 377.4,62.8 378.9,62.6 380.5,62.4 382.1,62.2 383.7,62.0 385.3,61.8 386.8,61.7 388.4,61.6 390.0,61.5 391.6,61.4 393.2,61.3 394.7,61.1 396.3,60.8 397.9,60.7 399.5,60.5 401.1,60.4 402.6,60.3 404.2,60.1 405.8,59.9 407.4,59.8 408.9,59.7 410.5,59.5 412.1,59.3 413.7,59.2 415.3,59.0 416.8,58.9 418.4,58.8 420.0,58.7 421.6,58.6 423.2,58.4 424.7,58.3 426.3,58.2 427.9,58.1 429.5,57.8 431.1,57.5 432.6,62.2 434.2,61.3 435.8,59.5 437.4,58.8 438.9,58.0 440.5,57.0 442.1,56.5 443.7,56.1 445.3,55.4 446.8,54.4 448.4,53.6 450.0,53.4 451.6,53.0 453.2,52.7 454.7,52.2 456.3,51.7 457.9,51.1 459.5,50.9 461.1,50.3 462.6,50.1 464.2,49.7 465.8,49.5 467.4,49.2 468.9,49.0 470.5,48.4 472.1,48.1 473.7,47.6 475.3,47.0 476.8,46.6 478.4,46.4 480.0,46.2 481.6,46.0 483.2,45.5 484.7,45.2 486.3,44.9 487.9,43.9 489.5,43.2 491.1,42.8 492.6,42.6 494.2,42.3 495.8,41.8 497.4,41.4 498.9,41.1 500.5,40.7 502.1,40.4 503.7,40.1 505.3,39.7 506.8,39.3 508.4,39.1 510.0,38.9 511.6,38.7 513.2,38.3 514.7,38.0 516.3,37.7 517.9,37.6 519.5,37.4 521.1,37.1 522.6,36.9 524.2,36.7 525.8,36.5 527.4,36.3 528.9,36.2 530.5,35.9 532.1,35.6 533.7,35.3 535.3,34.9 536.8,34.6 538.4,34.4 540.0,34.2 541.6,34.0 543.2,33.8 544.7,33.6 546.3,33.5 547.9,33.3 549.5,33.2 551.1,33.0 552.6,32.8 554.2,32.5 555.8,32.4 557.4,32.2 558.9,31.9 560.5,31.6 562.1,31.2 563.7,31.0 565.3,30.7 566.8,30.5 568.4,30.2 570.0,30.0 570.0,30.0,120" />
  
  <!-- Linea principale -->
  <polyline fill="none" stroke="#0366d6" stroke-width="2.5" stroke-linecap="round" stroke-linejoin="round" points="30.0,120.0 31.6,119.4 33.2,118.8 34.7,118.3 36.3,118.2 37.9,117.9 39.5,117.2 41.1,116.8 42.6,116.5 44.2,115.8 45.8,115.5 47.4,115.1 48.9,114.9 50.5,114.6 52.1,114.2 53.7,113.7 55.3,113.3 56.8,113.1 58.4,112.9 60.0,112.6 61.6,112.3 63.2,111.9 64.7,111.8 66.3,111.5 67.9,110.4 69.5,110.1 71.1,109.7 72.6,109.3 74.2,108.9 75.8,108.6 77.4,108.3 78.9,108.2 80.5,107.9 82.1,107.3 83.7,106.9 85.3,106.6 86.8,106.2 88.4,106.1 90.0,106.0 91.6,105.9 93.2,105.5 94.7,105.3 96.3,105.2 97.9,104.8 99.5,104.2 101.1,104.1 102.6,104.0 104.2,103.8 105.8,103.3 107.4,103.0 108.9,102.5 110.5,102.2 112.1,101.8 113.7,101.7 115.3,101.4 116.8,101.0 118.4,100.6 120.0,100.3 121.6,100.1 123.2,99.9 124.7,99.7 126.3,99.2 127.9,98.8 129.5,98.4 131.1,98.0 132.6,97.8 134.2,97.7 135.8,97.5 137.4,97.2 138.9,97.0 140.5,96.8 142.1,96.6 143.7,96.5 145.3,96.3 146.8,96.1 148.4,96.0 150.0,95.9 151.6,95.5 153.2,95.2 154.7,95.1 156.3,95.0 157.9,94.9 159.5,94.9 161.1,102.1 162.6,101.4 164.2,100.7 165.8,100.1 167.4,98.1 168.9,96.8 170.5,95.3 172.1,94.7 173.7,94.1 175.3,93.1 176.8,92.0 178.4,91.2 180.0,90.9 181.6,90.6 183.2,89.9 184.7,89.3 186.3,88.9 187.9,88.4 189.5,88.3 191.1,88.2 192.6,87.8 194.2,87.1 195.8,86.6 197.4,86.1 198.9,85.6 200.5,85.3 202.1,85.1 203.7,84.7 205.3,84.3 206.8,83.9 208.4,83.6 210.0,83.4 211.6,83.3 213.2,83.1 214.7,82.7 216.3,82.4 217.9,82.2 219.5,82.0 221.1,81.8 222.6,81.6 224.2,81.4 225.8,81.2 227.4,81.0 228.9,80.7 230.5,80.4 232.1,80.1 233.7,79.9 235.3,79.7 236.8,79.5 238.4,79.4 240.0,79.2 241.6,78.7 243.2,78.3 244.7,77.9 246.3,77.7 247.9,77.7 249.5,77.5 251.1,77.2 252.6,77.0 254.2,76.7 255.8,76.4 257.4,76.2 258.9,76.1 260.5,75.9 262.1,75.8 263.7,75.6 265.3,75.4 266.8,75.3 268.4,74.9 270.0,74.8 271.6,74.7 273.2,74.6 274.7,74.5 276.3,74.2 277.9,74.0 279.5,73.7 281.1,73.5 282.6,73.3 284.2,73.1 285.8,73.0 287.4,72.9 288.9,72.5 290.5,72.2 292.1,72.0 293.7,71.8 295.3,71.4 296.8,71.3 298.4,71.2 300.0,71.1 301.6,70.9 303.2,70.7 304.7,70.5 306.3,70.3 307.9,70.1 309.5,70.0 311.1,69.8 312.6,69.7 314.2,69.6 315.8,69.4 317.4,69.1 318.9,69.0 320.5,68.8 322.1,68.6 323.7,68.5 325.3,68.3 326.8,68.2 328.4,68.1 330.0,67.9 331.6,67.6 333.2,67.3 334.7,67.1 336.3,66.9 337.9,66.8 339.5,66.7 341.1,66.5 342.6,66.2 344.2,66.1 345.8,66.0 347.4,65.8 348.9,65.6 350.5,65.4 352.1,65.3 353.7,65.2 355.3,64.9 356.8,64.7 358.4,64.5 360.0,64.3 361.6,64.2 363.2,64.1 364.7,64.0 366.3,63.9 367.9,63.7 369.5,63.5 371.1,63.3 372.6,63.2 374.2,63.0 375.8,62.9 377.4,62.8 378.9,62.6 380.5,62.4 382.1,62.2 383.7,62.0 385.3,61.8 386.8,61.7 388.4,61.6 390.0,61.5 391.6,61.4 393.2,61.3 394.7,61.1 396.3,60.8 397.9,60.7 399.5,60.5 401.1,60.4 402.6,60.3 404.2,60.1 405.8,59.9 407.4,59.8 408.9,59.7 410.5,59.5 412.1,59.3 413.7,59.2 415.3,59.0 416.8,58.9 418.4,58.8 420.0,58.7 421.6,58.6 423.2,58.4 424.7,58.3 426.3,58.2 427.9,58.1 429.5,57.8 431.1,57.5 432.6,62.2 434.2,61.3 435.8,59.5 437.4,58.8 438.9,58.0 440.5,57.0 442.1,56.5 443.7,56.1 445.3,55.4 446.8,54.4 448.4,53.6 450.0,53.4 451.6,53.0 453.2,52.7 454.7,52.2 456.3,51.7 457.9,51.1 459.5,50.9 461.1,50.3 462.6,50.1 464.2,49.7 465.8,49.5 467.4,49.2 468.9,49.0 470.5,48.4 472.1,48.1 473.7,47.6 475.3,47.0 476.8,46.6 478.4,46.4 480.0,46.2 481.6,46.0 483.2,45.5 484.7,45.2 486.3,44.9 487.9,43.9 489.5,43.2 491.1,42.8 492.6,42.6 494.2,42.3 495.8,41.8 497.4,41.4 498.9,41.1 500.5,40.7 502.1,40.4 503.7,40.1 505.3,39.7 506.8,39.3 508.4,39.1 510.0,38.9 511.6,38.7 513.2,38.3 514.7,38.0 516.3,37.7 517.9,37.6 519.5,37.4 521.1,37.1 522.6,36.9 524.2,36.7 525.8,36.5 527.4,36.3 528.9,36.2 530.5,35.9 532.1,35.6 533.7,35.3 535.3,34.9 536.8,34.6 538.4,34.4 540.0,34.2 541.6,34.0 543.2,33.8 544.7,33.6 546.3,33.5 547.9,33.3 549.5,33.2 551.1,33.0 552.6,32.8 554.2,32.5 555.8,32.4 557.4,32.2 558.9,31.9 560.5,31.6 562.1,31.2 563.7,31.0 565.3,30.7 566.8,30.5 568.4,30.2 570.0,30.0" />
  
  <!-- Punto finale luminoso -->
  <circle cx="570.0" cy="30.0" r="4" fill="#ffffff" stroke="#0366d6" stroke-width="2.5" />
</svg>