<svg width="600" height="150" viewBox="0 0 600 150" xmlns="http://www.w3.org/2000/svg">
  <defs>
    <filter id="shadow2" x="-2%" y="-2%" width="104%" height="108%">
      <feDropShadow dx="0" dy="2" stdDeviation="3" flood-opacity="0.1" />
    </filter>
    <linearGradient id="fillGrad" x1="0" y1="0" x2="0" y2="1">
      <stop offset="0%" stop-color="#0366d6" stop-opacity="0.3"/>
      <stop offset="100%" stop-color="#0366d6" stop-opacity="0.02"/>
    </linearGradient>
  </defs>
  <rect width="600" height="150" rx="12" fill="#ffffff" filter="url(#shadow2)" stroke="#e1e4e8" stroke-width="1"/>
  <text x="20" y="24" fill="#2b3137" font-family="-apple-system,BlinkMacSystemFont,'Segoe UI',Helvetica,Arial,sans-serif" font-size="14" font-weight="600">📈 Download Growth (Actual: 75.9k)</text>
  
  <!-- Area sotto la linea -->
  <polygon fill="url(#fillGrad)" points="30.0,120.0,120 30.0,120.0 33.5,118.9 37.0,117.7 40.5,116.6 43.9,116.3 47.4,115.8 50.9,114.5 54.4,113.6 57.9,113.1 61.4,111.7 64.8,111.1 68.3,110.4 71.8,110.0 75.3,109.4 78.8,108.5 82.3,107.6 85.7,106.8 89.2,106.3 92.7,106.0 96.2,105.4 99.7,104.7 103.2,104.1 106.6,103.8 110.1,103.2 113.6,101.1 117.1,100.5 120.6,99.6 124.1,98.8 127.5,98.1 131.0,97.4 134.5,96.9 138.0,96.6 141.5,96.0 145.0,95.0 148.5,94.1 151.9,93.5 155.4,92.8 158.9,92.6 162.4,92.4 165.9,92.1 169.4,91.4 172.8,91.0 176.3,90.7 179.8,89.9 183.3,88.8 186.8,88.5 190.3,88.3 193.7,87.9 197.2,87.0 200.7,86.4 204.2,85.5 207.7,84.8 211.2,84.0 214.6,83.8 218.1,83.3 221.6,82.5 225.1,81.6 228.6,81.0 232.1,80.7 235.5,80.3 239.0,79.9 242.5,79.0 246.0,78.1 249.5,77.3 253.0,76.5 256.5,76.1 259.9,75.9 263.4,75.6 266.9,74.9 270.4,74.5 273.9,74.1 277.4,73.8 280.8,73.5 284.3,73.1 287.8,72.8 291.3,72.6 294.8,72.4 298.3,71.5 301.7,71.0 305.2,70.9 308.7,70.6 312.2,70.4 315.7,70.4 319.2,84.6 322.6,83.2 326.1,81.9 329.6,80.6 333.1,76.8 336.6,74.1 340.1,71.2 343.5,70.1 347.0,68.9 350.5,66.9 354.0,64.7 357.5,63.1 361.0,62.5 364.5,62.0 367.9,60.4 371.4,59.3 374.9,58.6 378.4,57.7 381.9,57.3 385.4,57.1 388.8,56.3 392.3,55.0 395.8,54.0 399.3,53.1 402.8,52.0 406.3,51.5 409.7,51.1 413.2,50.2 416.7,49.4 420.2,48.6 423.7,48.0 427.2,47.7 430.6,47.5 434.1,47.0 437.6,46.3 441.1,45.8 444.6,45.3 448.1,44.9 451.5,44.5 455.0,44.1 458.5,43.7 462.0,43.4 465.5,43.0 469.0,42.3 472.5,41.7 475.9,41.1 479.4,40.7 482.9,40.3 486.4,40.0 489.9,39.7 493.4,39.3 496.8,38.3 500.3,37.6 503.8,36.8 507.3,36.5 510.8,36.4 514.3,36.0 517.7,35.5 521.2,35.0 524.7,34.5 528.2,33.9 531.7,33.4 535.2,33.2 538.6,32.9 542.1,32.6 545.6,32.4 549.1,31.9 552.6,31.6 556.1,31.0 559.5,30.7 563.0,30.5 566.5,30.2 570.0,30.0 570.0,30.0,120" />
  
  <!-- Linea principale -->
  <polyline fill="none" stroke="#0366d6" stroke-width="2.5" stroke-linecap="round" stroke-linejoin="round" points="30.0,120.0 33.5,118.9 37.0,117.7 40.5,116.6 43.9,116.3 47.4,115.8 50.9,114.5 54.4,113.6 57.9,113.1 61.4,111.7 64.8,111.1 68.3,110.4 71.8,110.0 75.3,109.4 78.8,108.5 82.3,107.6 85.7,106.8 89.2,106.3 92.7,106.0 96.2,105.4 99.7,104.7 103.2,104.1 106.6,103.8 110.1,103.2 113.6,101.1 117.1,100.5 120.6,99.6 124.1,98.8 127.5,98.1 131.0,97.4 134.5,96.9 138.0,96.6 141.5,96.0 145.0,95.0 148.5,94.1 151.9,93.5 155.4,92.8 158.9,92.6 162.4,92.4 165.9,92.1 169.4,91.4 172.8,91.0 176.3,90.7 179.8,89.9 183.3,88.8 186.8,88.5 190.3,88.3 193.7,87.9 197.2,87.0 200.7,86.4 204.2,85.5 207.7,84.8 211.2,84.0 214.6,83.8 218.1,83.3 221.6,82.5 225.1,81.6 228.6,81.0 232.1,80.7 235.5,80.3 239.0,79.9 242.5,79.0 246.0,78.1 249.5,77.3 253.0,76.5 256.5,76.1 259.9,75.9 263.4,75.6 266.9,74.9 270.4,74.5 273.9,74.1 277.4,73.8 280.8,73.5 284.3,73.1 287.8,72.8 291.3,72.6 294.8,72.4 298.3,71.5 301.7,71.0 305.2,70.9 308.7,70.6 312.2,70.4 315.7,70.4 319.2,84.6 322.6,83.2 326.1,81.9 329.6,80.6 333.1,76.8 336.6,74.1 340.1,71.2 343.5,70.1 347.0,68.9 350.5,66.9 354.0,64.7 357.5,63.1 361.0,62.5 364.5,62.0 367.9,60.4 371.4,59.3 374.9,58.6 378.4,57.7 381.9,57.3 385.4,57.1 388.8,56.3 392.3,55.0 395.8,54.0 399.3,53.1 402.8,52.0 406.3,51.5 409.7,51.1 413.2,50.2 416.7,49.4 420.2,48.6 423.7,48.0 427.2,47.7 430.6,47.5 434.1,47.0 437.6,46.3 441.1,45.8 444.6,45.3 448.1,44.9 451.5,44.5 455.0,44.1 458.5,43.7 462.0,43.4 465.5,43.0 469.0,42.3 472.5,41.7 475.9,41.1 479.4,40.7 482.9,40.3 486.4,40.0 489.9,39.7 493.4,39.3 496.8,38.3 500.3,37.6 503.8,36.8 507.3,36.5 510.8,36.4 514.3,36.0 517.7,35.5 521.2,35.0 524.7,34.5 528.2,33.9 531.7,33.4 535.2,33.2 538.6,32.9 542.1,32.6 545.6,32.4 549.1,31.9 552.6,31.6 556.1,31.0 559.5,30.7 563.0,30.5 566.5,30.2 570.0,30.0" />
  
  <!-- Punto finale luminoso -->
  <circle cx="570.0" cy="30.0" r="4" fill="#ffffff" stroke="#0366d6" stroke-width="2.5" />
</svg>