<svg width="600" height="150" viewBox="0 0 600 150" xmlns="http://www.w3.org/2000/svg">
  <defs>
    <filter id="shadow2" x="-2%" y="-2%" width="104%" height="108%">
      <feDropShadow dx="0" dy="2" stdDeviation="3" flood-opacity="0.1" />
    </filter>
    <linearGradient id="fillGrad" x1="0" y1="0" x2="0" y2="1">
      <stop offset="0%" stop-color="#0366d6" stop-opacity="0.3"/>
      <stop offset="100%" stop-color="#0366d6" stop-opacity="0.02"/>
    </linearGradient>
  </defs>
  <rect width="600" height="150" rx="12" fill="#ffffff" filter="url(#shadow2)" stroke="#e1e4e8" stroke-width="1"/>
  <text x="20" y="24" fill="#2b3137" font-family="-apple-system,BlinkMacSystemFont,'Segoe UI',Helvetica,Arial,sans-serif" font-size="14" font-weight="600">📈 Download Growth (Actual: 76.5k)</text>
  
  <!-- Area sotto la linea -->
  <polygon fill="url(#fillGrad)" points="30.0,120.0,120 30.0,120.0 33.2,119.0 36.5,117.8 39.7,116.8 42.9,116.5 46.2,116.0 49.4,114.8 52.6,114.0 55.9,113.4 59.1,112.2 62.3,111.6 65.6,110.9 68.8,110.6 72.0,110.0 75.3,109.2 78.5,108.3 81.7,107.6 85.0,107.1 88.2,106.8 91.4,106.2 94.7,105.5 97.9,105.0 101.1,104.7 104.4,104.1 107.6,102.1 110.8,101.5 114.1,100.8 117.3,100.0 120.5,99.3 123.8,98.6 127.0,98.2 130.2,97.9 133.5,97.3 136.7,96.4 139.9,95.5 143.2,95.0 146.4,94.3 149.6,94.1 152.9,94.0 156.1,93.6 159.3,93.0 162.6,92.6 165.8,92.3 169.0,91.6 172.3,90.5 175.5,90.3 178.7,90.1 182.0,89.7 185.2,88.8 188.4,88.3 191.7,87.4 194.9,86.8 198.1,86.0 201.4,85.8 204.6,85.4 207.8,84.6 211.1,83.8 214.3,83.2 217.5,82.9 220.8,82.5 224.0,82.1 227.2,81.2 230.5,80.4 233.7,79.7 236.9,78.9 240.2,78.6 243.4,78.3 246.6,78.0 249.9,77.4 253.1,77.0 256.3,76.7 259.6,76.4 262.8,76.1 266.0,75.7 269.3,75.4 272.5,75.2 275.7,75.0 279.0,74.2 282.2,73.8 285.4,73.6 288.7,73.3 291.9,73.2 295.1,73.2 298.4,86.6 301.6,85.2 304.9,84.1 308.1,82.8 311.3,79.2 314.6,76.6 317.8,73.9 321.0,72.9 324.3,71.7 327.5,69.8 330.7,67.8 334.0,66.3 337.2,65.7 340.4,65.2 343.7,63.7 346.9,62.7 350.1,62.0 353.4,61.1 356.6,60.8 359.8,60.6 363.1,59.8 366.3,58.6 369.5,57.7 372.8,56.8 376.0,55.8 379.2,55.3 382.5,54.9 385.7,54.1 388.9,53.3 392.2,52.6 395.4,52.0 398.6,51.7 401.9,51.5 405.1,51.0 408.3,50.4 411.6,49.9 414.8,49.4 418.0,49.0 421.3,48.6 424.5,48.3 427.7,47.9 431.0,47.6 434.2,47.3 437.4,46.6 440.7,46.1 443.9,45.5 447.1,45.1 450.4,44.7 453.6,44.5 456.8,44.1 460.1,43.8 463.3,42.9 466.5,42.2 469.8,41.4 473.0,41.1 476.2,41.0 479.5,40.6 482.7,40.2 485.9,39.7 489.2,39.2 492.4,38.6 495.6,38.2 498.9,38.1 502.1,37.7 505.3,37.5 508.6,37.2 511.8,36.8 515.0,36.5 518.3,35.9 521.5,35.6 524.7,35.4 528.0,35.2 531.2,35.0 534.4,34.5 537.7,34.1 540.9,33.6 544.1,33.2 547.4,32.8 550.6,32.5 553.8,32.3 557.1,32.0 560.3,31.4 563.5,30.8 566.8,30.4 570.0,30.0 570.0,30.0,120" />
  
  <!-- Linea principale -->
  <polyline fill="none" stroke="#0366d6" stroke-width="2.5" stroke-linecap="round" stroke-linejoin="round" points="30.0,120.0 33.2,119.0 36.5,117.8 39.7,116.8 42.9,116.5 46.2,116.0 49.4,114.8 52.6,114.0 55.9,113.4 59.1,112.2 62.3,111.6 65.6,110.9 68.8,110.6 72.0,110.0 75.3,109.2 78.5,108.3 81.7,107.6 85.0,107.1 88.2,106.8 91.4,106.2 94.7,105.5 97.9,105.0 101.1,104.7 104.4,104.1 107.6,102.1 110.8,101.5 114.1,100.8 117.3,100.0 120.5,99.3 123.8,98.6 127.0,98.2 130.2,97.9 133.5,97.3 136.7,96.4 139.9,95.5 143.2,95.0 146.4,94.3 149.6,94.1 152.9,94.0 156.1,93.6 159.3,93.0 162.6,92.6 165.8,92.3 169.0,91.6 172.3,90.5 175.5,90.3 178.7,90.1 182.0,89.7 185.2,88.8 188.4,88.3 191.7,87.4 194.9,86.8 198.1,86.0 201.4,85.8 204.6,85.4 207.8,84.6 211.1,83.8 214.3,83.2 217.5,82.9 220.8,82.5 224.0,82.1 227.2,81.2 230.5,80.4 233.7,79.7 236.9,78.9 240.2,78.6 243.4,78.3 246.6,78.0 249.9,77.4 253.1,77.0 256.3,76.7 259.6,76.4 262.8,76.1 266.0,75.7 269.3,75.4 272.5,75.2 275.7,75.0 279.0,74.2 282.2,73.8 285.4,73.6 288.7,73.3 291.9,73.2 295.1,73.2 298.4,86.6 301.6,85.2 304.9,84.1 308.1,82.8 311.3,79.2 314.6,76.6 317.8,73.9 321.0,72.9 324.3,71.7 327.5,69.8 330.7,67.8 334.0,66.3 337.2,65.7 340.4,65.2 343.7,63.7 346.9,62.7 350.1,62.0 353.4,61.1 356.6,60.8 359.8,60.6 363.1,59.8 366.3,58.6 369.5,57.7 372.8,56.8 376.0,55.8 379.2,55.3 382.5,54.9 385.7,54.1 388.9,53.3 392.2,52.6 395.4,52.0 398.6,51.7 401.9,51.5 405.1,51.0 408.3,50.4 411.6,49.9 414.8,49.4 418.0,49.0 421.3,48.6 424.5,48.3 427.7,47.9 431.0,47.6 434.2,47.3 437.4,46.6 440.7,46.1 443.9,45.5 447.1,45.1 450.4,44.7 453.6,44.5 456.8,44.1 460.1,43.8 463.3,42.9 466.5,42.2 469.8,41.4 473.0,41.1 476.2,41.0 479.5,40.6 482.7,40.2 485.9,39.7 489.2,39.2 492.4,38.6 495.6,38.2 498.9,38.1 502.1,37.7 505.3,37.5 508.6,37.2 511.8,36.8 515.0,36.5 518.3,35.9 521.5,35.6 524.7,35.4 528.0,35.2 531.2,35.0 534.4,34.5 537.7,34.1 540.9,33.6 544.1,33.2 547.4,32.8 550.6,32.5 553.8,32.3 557.1,32.0 560.3,31.4 563.5,30.8 566.8,30.4 570.0,30.0" />
  
  <!-- Punto finale luminoso -->
  <circle cx="570.0" cy="30.0" r="4" fill="#ffffff" stroke="#0366d6" stroke-width="2.5" />
</svg>