<svg width="600" height="150" viewBox="0 0 600 150" xmlns="http://www.w3.org/2000/svg">
  <defs>
    <filter id="shadow2" x="-2%" y="-2%" width="104%" height="108%">
      <feDropShadow dx="0" dy="2" stdDeviation="3" flood-opacity="0.1" />
    </filter>
    <linearGradient id="fillGrad" x1="0" y1="0" x2="0" y2="1">
      <stop offset="0%" stop-color="#0366d6" stop-opacity="0.3"/>
      <stop offset="100%" stop-color="#0366d6" stop-opacity="0.02"/>
    </linearGradient>
  </defs>
  <rect width="600" height="150" rx="12" fill="#ffffff" filter="url(#shadow2)" stroke="#e1e4e8" stroke-width="1"/>
  <text x="20" y="24" fill="#2b3137" font-family="-apple-system,BlinkMacSystemFont,'Segoe UI',Helvetica,Arial,sans-serif" font-size="14" font-weight="600">📈 Download Growth (Actual: 79.3k)</text>
  
  <!-- Area sotto la linea -->
  <polygon fill="url(#fillGrad)" points="30.0,120.0,120 30.0,120.0 32.1,119.2 34.2,118.3 36.3,117.5 38.4,117.3 40.5,116.9 42.6,116.0 44.7,115.4 46.8,114.9 48.9,114.0 51.0,113.5 53.1,113.0 55.2,112.7 57.3,112.3 59.4,111.6 61.5,110.9 63.6,110.4 65.7,110.0 67.8,109.8 69.9,109.3 72.0,108.8 74.1,108.4 76.2,108.2 78.3,107.7 80.4,106.2 82.5,105.8 84.6,105.2 86.7,104.6 88.8,104.0 90.9,103.5 93.0,103.2 95.1,102.9 97.2,102.5 99.3,101.8 101.4,101.1 103.5,100.7 105.6,100.2 107.7,100.0 109.8,99.9 111.9,99.6 114.0,99.1 116.1,98.9 118.2,98.6 120.4,98.1 122.5,97.3 124.6,97.1 126.7,96.9 128.8,96.6 130.9,95.9 133.0,95.5 135.1,94.8 137.2,94.4 139.3,93.8 141.4,93.6 143.5,93.3 145.6,92.7 147.7,92.0 149.8,91.6 151.9,91.4 154.0,91.1 156.1,90.8 158.2,90.1 160.3,89.5 162.4,88.9 164.5,88.3 166.6,88.0 168.7,87.9 170.8,87.6 172.9,87.1 175.0,86.8 177.1,86.6 179.2,86.3 181.3,86.1 183.4,85.8 185.5,85.6 187.6,85.4 189.7,85.3 191.8,84.7 193.9,84.3 196.0,84.2 198.1,84.0 200.2,83.9 202.3,83.9 204.4,94.2 206.5,93.2 208.6,92.3 210.7,91.3 212.8,88.5 214.9,86.5 217.0,84.4 219.1,83.6 221.2,82.7 223.3,81.3 225.4,79.7 227.5,78.5 229.6,78.1 231.7,77.7 233.8,76.6 235.9,75.7 238.0,75.2 240.1,74.5 242.2,74.3 244.3,74.2 246.4,73.6 248.5,72.6 250.6,71.9 252.7,71.2 254.8,70.4 256.9,70.1 259.0,69.8 261.1,69.1 263.2,68.5 265.3,67.9 267.4,67.5 269.5,67.3 271.6,67.1 273.7,66.8 275.8,66.3 277.9,65.9 280.0,65.5 282.1,65.2 284.2,64.9 286.3,64.6 288.4,64.4 290.5,64.1 292.6,63.9 294.7,63.3 296.8,62.9 298.9,62.5 301.1,62.2 303.2,61.9 305.3,61.7 307.4,61.5 309.5,61.2 311.6,60.5 313.7,60.0 315.8,59.3 317.9,59.1 320.0,59.0 322.1,58.7 324.2,58.4 326.3,58.0 328.4,57.7 330.5,57.2 332.6,56.9 334.7,56.8 336.8,56.5 338.9,56.3 341.0,56.1 343.1,55.8 345.2,55.5 347.3,55.1 349.4,54.9 351.5,54.7 353.6,54.5 355.7,54.4 357.8,54.0 359.9,53.7 362.0,53.3 364.1,53.0 366.2,52.7 368.3,52.5 370.4,52.3 372.5,52.1 374.6,51.6 376.7,51.2 378.8,50.9 380.9,50.5 383.0,50.0 385.1,49.8 387.2,49.7 389.3,49.5 391.4,49.2 393.5,49.0 395.6,48.7 397.7,48.4 399.8,48.2 401.9,48.0 404.0,47.7 406.1,47.5 408.2,47.4 410.3,47.1 412.4,46.7 414.5,46.5 416.6,46.2 418.7,46.0 420.8,45.8 422.9,45.6 425.0,45.4 427.1,45.2 429.2,45.0 431.3,44.5 433.4,44.0 435.5,43.7 437.6,43.5 439.7,43.4 441.8,43.3 443.9,43.0 446.0,42.5 448.1,42.4 450.2,42.2 452.3,41.9 454.4,41.7 456.5,41.4 458.6,41.2 460.7,41.0 462.8,40.7 464.9,40.4 467.0,40.0 469.1,39.7 471.2,39.6 473.3,39.5 475.4,39.4 477.5,39.1 479.6,38.9 481.8,38.6 483.9,38.4 486.0,38.1 488.1,37.9 490.2,37.8 492.3,37.5 494.4,37.3 496.5,37.0 498.6,36.7 500.7,36.4 502.8,36.1 504.9,36.0 507.0,35.8 509.1,35.7 511.2,35.5 513.3,35.4 515.4,35.1 517.5,34.8 519.6,34.6 521.7,34.3 523.8,34.2 525.9,34.0 528.0,33.7 530.1,33.5 532.2,33.3 534.3,33.1 536.4,32.9 538.5,32.6 540.6,32.4 542.7,32.1 544.8,32.0 546.9,31.9 549.0,31.7 551.1,31.5 553.2,31.3 555.3,31.1 557.4,31.0 559.5,30.8 561.6,30.3 563.7,30.0 565.8,36.8 567.9,35.4 570.0,32.9 570.0,32.9,120" />
  
  <!-- Linea principale -->
  <polyline fill="none" stroke="#0366d6" stroke-width="2.5" stroke-linecap="round" stroke-linejoin="round" points="30.0,120.0 32.1,119.2 34.2,118.3 36.3,117.5 38.4,117.3 40.5,116.9 42.6,116.0 44.7,115.4 46.8,114.9 48.9,114.0 51.0,113.5 53.1,113.0 55.2,112.7 57.3,112.3 59.4,111.6 61.5,110.9 63.6,110.4 65.7,110.0 67.8,109.8 69.9,109.3 72.0,108.8 74.1,108.4 76.2,108.2 78.3,107.7 80.4,106.2 82.5,105.8 84.6,105.2 86.7,104.6 88.8,104.0 90.9,103.5 93.0,103.2 95.1,102.9 97.2,102.5 99.3,101.8 101.4,101.1 103.5,100.7 105.6,100.2 107.7,100.0 109.8,99.9 111.9,99.6 114.0,99.1 116.1,98.9 118.2,98.6 120.4,98.1 122.5,97.3 124.6,97.1 126.7,96.9 128.8,96.6 130.9,95.9 133.0,95.5 135.1,94.8 137.2,94.4 139.3,93.8 141.4,93.6 143.5,93.3 145.6,92.7 147.7,92.0 149.8,91.6 151.9,91.4 154.0,91.1 156.1,90.8 158.2,90.1 160.3,89.5 162.4,88.9 164.5,88.3 166.6,88.0 168.7,87.9 170.8,87.6 172.9,87.1 175.0,86.8 177.1,86.6 179.2,86.3 181.3,86.1 183.4,85.8 185.5,85.6 187.6,85.4 189.7,85.3 191.8,84.7 193.9,84.3 196.0,84.2 198.1,84.0 200.2,83.9 202.3,83.9 204.4,94.2 206.5,93.2 208.6,92.3 210.7,91.3 212.8,88.5 214.9,86.5 217.0,84.4 219.1,83.6 221.2,82.7 223.3,81.3 225.4,79.7 227.5,78.5 229.6,78.1 231.7,77.7 233.8,76.6 235.9,75.7 238.0,75.2 240.1,74.5 242.2,74.3 244.3,74.2 246.4,73.6 248.5,72.6 250.6,71.9 252.7,71.2 254.8,70.4 256.9,70.1 259.0,69.8 261.1,69.1 263.2,68.5 265.3,67.9 267.4,67.5 269.5,67.3 271.6,67.1 273.7,66.8 275.8,66.3 277.9,65.9 280.0,65.5 282.1,65.2 284.2,64.9 286.3,64.6 288.4,64.4 290.5,64.1 292.6,63.9 294.7,63.3 296.8,62.9 298.9,62.5 301.1,62.2 303.2,61.9 305.3,61.7 307.4,61.5 309.5,61.2 311.6,60.5 313.7,60.0 315.8,59.3 317.9,59.1 320.0,59.0 322.1,58.7 324.2,58.4 326.3,58.0 328.4,57.7 330.5,57.2 332.6,56.9 334.7,56.8 336.8,56.5 338.9,56.3 341.0,56.1 343.1,55.8 345.2,55.5 347.3,55.1 349.4,54.9 351.5,54.7 353.6,54.5 355.7,54.4 357.8,54.0 359.9,53.7 362.0,53.3 364.1,53.0 366.2,52.7 368.3,52.5 370.4,52.3 372.5,52.1 374.6,51.6 376.7,51.2 378.8,50.9 380.9,50.5 383.0,50.0 385.1,49.8 387.2,49.7 389.3,49.5 391.4,49.2 393.5,49.0 395.6,48.7 397.7,48.4 399.8,48.2 401.9,48.0 404.0,47.7 406.1,47.5 408.2,47.4 410.3,47.1 412.4,46.7 414.5,46.5 416.6,46.2 418.7,46.0 420.8,45.8 422.9,45.6 425.0,45.4 427.1,45.2 429.2,45.0 431.3,44.5 433.4,44.0 435.5,43.7 437.6,43.5 439.7,43.4 441.8,43.3 443.9,43.0 446.0,42.5 448.1,42.4 450.2,42.2 452.3,41.9 454.4,41.7 456.5,41.4 458.6,41.2 460.7,41.0 462.8,40.7 464.9,40.4 467.0,40.0 469.1,39.7 471.2,39.6 473.3,39.5 475.4,39.4 477.5,39.1 479.6,38.9 481.8,38.6 483.9,38.4 486.0,38.1 488.1,37.9 490.2,37.8 492.3,37.5 494.4,37.3 496.5,37.0 498.6,36.7 500.7,36.4 502.8,36.1 504.9,36.0 507.0,35.8 509.1,35.7 511.2,35.5 513.3,35.4 515.4,35.1 517.5,34.8 519.6,34.6 521.7,34.3 523.8,34.2 525.9,34.0 528.0,33.7 530.1,33.5 532.2,33.3 534.3,33.1 536.4,32.9 538.5,32.6 540.6,32.4 542.7,32.1 544.8,32.0 546.9,31.9 549.0,31.7 551.1,31.5 553.2,31.3 555.3,31.1 557.4,31.0 559.5,30.8 561.6,30.3 563.7,30.0 565.8,36.8 567.9,35.4 570.0,32.9" />
  
  <!-- Punto finale luminoso -->
  <circle cx="570.0" cy="32.9" r="4" fill="#ffffff" stroke="#0366d6" stroke-width="2.5" />
</svg>