<svg width="600" height="150" viewBox="0 0 600 150" xmlns="http://www.w3.org/2000/svg">
  <defs>
    <filter id="shadow2" x="-2%" y="-2%" width="104%" height="108%">
      <feDropShadow dx="0" dy="2" stdDeviation="3" flood-opacity="0.1" />
    </filter>
    <linearGradient id="fillGrad" x1="0" y1="0" x2="0" y2="1">
      <stop offset="0%" stop-color="#0366d6" stop-opacity="0.3"/>
      <stop offset="100%" stop-color="#0366d6" stop-opacity="0.02"/>
    </linearGradient>
  </defs>
  <rect width="600" height="150" rx="12" fill="#ffffff" filter="url(#shadow2)" stroke="#e1e4e8" stroke-width="1"/>
  <text x="20" y="24" fill="#2b3137" font-family="-apple-system,BlinkMacSystemFont,'Segoe UI',Helvetica,Arial,sans-serif" font-size="14" font-weight="600">📈 Download Growth (Actual: 71.9k)</text>
  
  <!-- Area sotto la linea -->
  <polygon fill="url(#fillGrad)" points="30.0,120.0,120 30.0,120.0 36.6,118.0 43.2,115.8 49.8,113.9 56.3,113.4 62.9,112.4 69.5,110.0 76.1,108.5 82.7,107.4 89.3,105.0 95.9,103.8 102.4,102.6 109.0,101.9 115.6,100.8 122.2,99.2 128.8,97.4 135.4,96.1 142.0,95.2 148.5,94.6 155.1,93.5 161.7,92.2 168.3,91.1 174.9,90.5 181.5,89.5 188.0,85.7 194.6,84.5 201.2,83.0 207.8,81.5 214.4,80.2 221.0,79.0 227.6,78.1 234.1,77.5 240.7,76.4 247.3,74.6 253.9,73.0 260.5,71.9 267.1,70.6 273.7,70.3 280.2,70.0 286.8,69.3 293.4,68.1 300.0,67.4 306.6,66.8 313.2,65.5 319.8,63.4 326.3,62.9 332.9,62.5 339.5,61.7 346.1,60.1 352.7,59.0 359.3,57.3 365.9,56.1 372.4,54.6 379.0,54.3 385.6,53.4 392.2,51.9 398.8,50.4 405.4,49.2 412.0,48.7 418.5,47.9 425.1,47.2 431.7,45.5 438.3,43.9 444.9,42.5 451.5,41.1 458.0,40.4 464.6,40.0 471.2,39.3 477.8,38.2 484.4,37.4 491.0,36.8 497.6,36.2 504.1,35.7 510.7,34.8 517.3,34.3 523.9,33.9 530.5,33.5 537.1,32.0 543.7,31.1 550.2,30.8 556.8,30.3 563.4,30.0 570.0,56.0 570.0,56.0,120" />
  
  <!-- Linea principale -->
  <polyline fill="none" stroke="#0366d6" stroke-width="2.5" stroke-linecap="round" stroke-linejoin="round" points="30.0,120.0 36.6,118.0 43.2,115.8 49.8,113.9 56.3,113.4 62.9,112.4 69.5,110.0 76.1,108.5 82.7,107.4 89.3,105.0 95.9,103.8 102.4,102.6 109.0,101.9 115.6,100.8 122.2,99.2 128.8,97.4 135.4,96.1 142.0,95.2 148.5,94.6 155.1,93.5 161.7,92.2 168.3,91.1 174.9,90.5 181.5,89.5 188.0,85.7 194.6,84.5 201.2,83.0 207.8,81.5 214.4,80.2 221.0,79.0 227.6,78.1 234.1,77.5 240.7,76.4 247.3,74.6 253.9,73.0 260.5,71.9 267.1,70.6 273.7,70.3 280.2,70.0 286.8,69.3 293.4,68.1 300.0,67.4 306.6,66.8 313.2,65.5 319.8,63.4 326.3,62.9 332.9,62.5 339.5,61.7 346.1,60.1 352.7,59.0 359.3,57.3 365.9,56.1 372.4,54.6 379.0,54.3 385.6,53.4 392.2,51.9 398.8,50.4 405.4,49.2 412.0,48.7 418.5,47.9 425.1,47.2 431.7,45.5 438.3,43.9 444.9,42.5 451.5,41.1 458.0,40.4 464.6,40.0 471.2,39.3 477.8,38.2 484.4,37.4 491.0,36.8 497.6,36.2 504.1,35.7 510.7,34.8 517.3,34.3 523.9,33.9 530.5,33.5 537.1,32.0 543.7,31.1 550.2,30.8 556.8,30.3 563.4,30.0 570.0,56.0" />
  
  <!-- Punto finale luminoso -->
  <circle cx="570.0" cy="56.0" r="4" fill="#ffffff" stroke="#0366d6" stroke-width="2.5" />
</svg>