<svg width="600" height="150" viewBox="0 0 600 150" xmlns="http://www.w3.org/2000/svg">
  <defs>
    <filter id="shadow2" x="-2%" y="-2%" width="104%" height="108%">
      <feDropShadow dx="0" dy="2" stdDeviation="3" flood-opacity="0.1" />
    </filter>
    <linearGradient id="fillGrad" x1="0" y1="0" x2="0" y2="1">
      <stop offset="0%" stop-color="#0366d6" stop-opacity="0.3"/>
      <stop offset="100%" stop-color="#0366d6" stop-opacity="0.02"/>
    </linearGradient>
  </defs>
  <rect width="600" height="150" rx="12" fill="#ffffff" filter="url(#shadow2)" stroke="#e1e4e8" stroke-width="1"/>
  <text x="20" y="24" fill="#2b3137" font-family="-apple-system,BlinkMacSystemFont,'Segoe UI',Helvetica,Arial,sans-serif" font-size="14" font-weight="600">📈 Download Growth (Actual: 74.0k)</text>
  
  <!-- Area sotto la linea -->
  <polygon fill="url(#fillGrad)" points="30.0,120.0,120 30.0,120.0 34.9,118.6 39.7,117.0 44.6,115.7 49.5,115.3 54.3,114.6 59.2,113.0 64.1,111.9 68.9,111.2 73.8,109.5 78.6,108.6 83.5,107.8 88.4,107.3 93.2,106.5 98.1,105.4 103.0,104.2 107.8,103.2 112.7,102.6 117.6,102.1 122.4,101.4 127.3,100.5 132.2,99.7 137.0,99.3 141.9,98.6 146.8,95.9 151.6,95.1 156.5,94.0 161.4,93.0 166.2,92.1 171.1,91.2 175.9,90.6 180.8,90.2 185.7,89.4 190.5,88.1 195.4,87.0 200.3,86.2 205.1,85.3 210.0,85.1 214.9,84.9 219.7,84.4 224.6,83.5 229.5,83.0 234.3,82.7 239.2,81.7 244.1,80.3 248.9,79.9 253.8,79.6 258.6,79.1 263.5,77.9 268.4,77.2 273.2,76.0 278.1,75.2 283.0,74.1 287.8,73.9 292.7,73.3 297.6,72.2 302.4,71.1 307.3,70.3 312.2,69.9 317.0,69.4 321.9,68.9 326.8,67.7 331.6,66.6 336.5,65.6 341.4,64.6 346.2,64.1 351.1,63.8 355.9,63.4 360.8,62.6 365.7,62.0 370.5,61.5 375.4,61.2 380.3,60.8 385.1,60.2 390.0,59.8 394.9,59.6 399.7,59.3 404.6,58.2 409.5,57.6 414.3,57.4 419.2,57.0 424.1,56.8 428.9,56.8 433.8,74.9 438.6,73.1 443.5,71.5 448.4,69.8 453.2,64.9 458.1,61.5 463.0,57.8 467.8,56.4 472.7,54.8 477.6,52.3 482.4,49.6 487.3,47.5 492.2,46.8 497.0,46.0 501.9,44.1 506.8,42.6 511.6,41.7 516.5,40.5 521.4,40.1 526.2,39.9 531.1,38.8 535.9,37.1 540.8,35.9 545.7,34.7 550.5,33.3 555.4,32.7 560.3,32.2 565.1,31.0 570.0,30.0 570.0,30.0,120" />
  
  <!-- Linea principale -->
  <polyline fill="none" stroke="#0366d6" stroke-width="2.5" stroke-linecap="round" stroke-linejoin="round" points="30.0,120.0 34.9,118.6 39.7,117.0 44.6,115.7 49.5,115.3 54.3,114.6 59.2,113.0 64.1,111.9 68.9,111.2 73.8,109.5 78.6,108.6 83.5,107.8 88.4,107.3 93.2,106.5 98.1,105.4 103.0,104.2 107.8,103.2 112.7,102.6 117.6,102.1 122.4,101.4 127.3,100.5 132.2,99.7 137.0,99.3 141.9,98.6 146.8,95.9 151.6,95.1 156.5,94.0 161.4,93.0 166.2,92.1 171.1,91.2 175.9,90.6 180.8,90.2 185.7,89.4 190.5,88.1 195.4,87.0 200.3,86.2 205.1,85.3 210.0,85.1 214.9,84.9 219.7,84.4 224.6,83.5 229.5,83.0 234.3,82.7 239.2,81.7 244.1,80.3 248.9,79.9 253.8,79.6 258.6,79.1 263.5,77.9 268.4,77.2 273.2,76.0 278.1,75.2 283.0,74.1 287.8,73.9 292.7,73.3 297.6,72.2 302.4,71.1 307.3,70.3 312.2,69.9 317.0,69.4 321.9,68.9 326.8,67.7 331.6,66.6 336.5,65.6 341.4,64.6 346.2,64.1 351.1,63.8 355.9,63.4 360.8,62.6 365.7,62.0 370.5,61.5 375.4,61.2 380.3,60.8 385.1,60.2 390.0,59.8 394.9,59.6 399.7,59.3 404.6,58.2 409.5,57.6 414.3,57.4 419.2,57.0 424.1,56.8 428.9,56.8 433.8,74.9 438.6,73.1 443.5,71.5 448.4,69.8 453.2,64.9 458.1,61.5 463.0,57.8 467.8,56.4 472.7,54.8 477.6,52.3 482.4,49.6 487.3,47.5 492.2,46.8 497.0,46.0 501.9,44.1 506.8,42.6 511.6,41.7 516.5,40.5 521.4,40.1 526.2,39.9 531.1,38.8 535.9,37.1 540.8,35.9 545.7,34.7 550.5,33.3 555.4,32.7 560.3,32.2 565.1,31.0 570.0,30.0" />
  
  <!-- Punto finale luminoso -->
  <circle cx="570.0" cy="30.0" r="4" fill="#ffffff" stroke="#0366d6" stroke-width="2.5" />
</svg>