<svg width="600" height="150" viewBox="0 0 600 150" xmlns="http://www.w3.org/2000/svg">
  <defs>
    <filter id="shadow2" x="-2%" y="-2%" width="104%" height="108%">
      <feDropShadow dx="0" dy="2" stdDeviation="3" flood-opacity="0.1" />
    </filter>
    <linearGradient id="fillGrad" x1="0" y1="0" x2="0" y2="1">
      <stop offset="0%" stop-color="#0366d6" stop-opacity="0.3"/>
      <stop offset="100%" stop-color="#0366d6" stop-opacity="0.02"/>
    </linearGradient>
  </defs>
  <rect width="600" height="150" rx="12" fill="#ffffff" filter="url(#shadow2)" stroke="#e1e4e8" stroke-width="1"/>
  <text x="20" y="24" fill="#2b3137" font-family="-apple-system,BlinkMacSystemFont,'Segoe UI',Helvetica,Arial,sans-serif" font-size="14" font-weight="600">📈 Download Growth (Actual: 79.1k)</text>
  
  <!-- Area sotto la linea -->
  <polygon fill="url(#fillGrad)" points="30.0,120.0,120 30.0,120.0 32.2,119.2 34.4,118.3 36.5,117.5 38.7,117.3 40.9,116.9 43.1,115.9 45.2,115.3 47.4,114.9 49.6,113.9 51.8,113.4 54.0,112.9 56.1,112.6 58.3,112.1 60.5,111.5 62.7,110.8 64.8,110.2 67.0,109.9 69.2,109.6 71.4,109.2 73.5,108.6 75.7,108.2 77.9,108.0 80.1,107.5 82.3,106.0 84.4,105.5 86.6,104.9 88.8,104.3 91.0,103.8 93.1,103.2 95.3,102.9 97.5,102.6 99.7,102.2 101.9,101.5 104.0,100.8 106.2,100.4 108.4,99.8 110.6,99.7 112.7,99.6 114.9,99.3 117.1,98.8 119.3,98.5 121.5,98.3 123.6,97.7 125.8,96.9 128.0,96.7 130.2,96.5 132.3,96.2 134.5,95.5 136.7,95.1 138.9,94.4 141.0,93.9 143.2,93.3 145.4,93.2 147.6,92.8 149.8,92.2 151.9,91.6 154.1,91.1 156.3,90.9 158.5,90.6 160.6,90.3 162.8,89.6 165.0,88.9 167.2,88.4 169.4,87.8 171.5,87.5 173.7,87.3 175.9,87.1 178.1,86.6 180.2,86.3 182.4,86.0 184.6,85.8 186.8,85.6 189.0,85.2 191.1,85.0 193.3,84.9 195.5,84.7 197.7,84.1 199.8,83.7 202.0,83.6 204.2,83.4 206.4,83.2 208.5,83.2 210.7,93.7 212.9,92.7 215.1,91.8 217.3,90.8 219.4,87.9 221.6,85.9 223.8,83.8 226.0,83.0 228.1,82.1 230.3,80.6 232.5,79.0 234.7,77.8 236.9,77.4 239.0,77.0 241.2,75.8 243.4,75.0 245.6,74.5 247.7,73.8 249.9,73.5 252.1,73.4 254.3,72.8 256.5,71.8 258.6,71.1 260.8,70.4 263.0,69.6 265.2,69.2 267.3,68.9 269.5,68.3 271.7,67.6 273.9,67.1 276.0,66.6 278.2,66.4 280.4,66.2 282.6,65.9 284.8,65.4 286.9,65.0 289.1,64.6 291.3,64.3 293.5,64.0 295.6,63.7 297.8,63.4 300.0,63.2 302.2,62.9 304.4,62.4 306.5,62.0 308.7,61.5 310.9,61.2 313.1,60.9 315.2,60.7 317.4,60.5 319.6,60.2 321.8,59.5 324.0,58.9 326.1,58.3 328.3,58.1 330.5,58.0 332.7,57.7 334.8,57.4 337.0,57.0 339.2,56.6 341.4,56.1 343.5,55.8 345.7,55.7 347.9,55.4 350.1,55.2 352.3,55.0 354.4,54.7 356.6,54.5 358.8,54.0 361.0,53.8 363.1,53.6 365.3,53.4 367.5,53.3 369.7,52.9 371.9,52.6 374.0,52.2 376.2,51.9 378.4,51.5 380.6,51.3 382.7,51.2 384.9,50.9 387.1,50.5 389.3,50.0 391.5,49.7 393.6,49.4 395.8,48.8 398.0,48.7 400.2,48.5 402.3,48.3 404.5,48.0 406.7,47.8 408.9,47.5 411.0,47.2 413.2,47.0 415.4,46.7 417.6,46.5 419.8,46.3 421.9,46.2 424.1,45.9 426.3,45.5 428.5,45.3 430.6,44.9 432.8,44.8 435.0,44.6 437.2,44.3 439.4,44.1 441.5,43.9 443.7,43.7 445.9,43.2 448.1,42.7 450.2,42.4 452.4,42.2 454.6,42.1 456.8,42.0 459.0,41.7 461.1,41.2 463.3,41.0 465.5,40.9 467.7,40.6 469.8,40.3 472.0,40.0 474.2,39.9 476.4,39.7 478.5,39.3 480.7,39.0 482.9,38.7 485.1,38.4 487.3,38.2 489.4,38.1 491.6,38.0 493.8,37.8 496.0,37.5 498.1,37.3 500.3,37.0 502.5,36.7 504.7,36.5 506.9,36.4 509.0,36.1 511.2,35.9 513.4,35.6 515.6,35.3 517.7,35.0 519.9,34.7 522.1,34.5 524.3,34.4 526.5,34.2 528.6,34.1 530.8,33.9 533.0,33.7 535.2,33.3 537.3,33.1 539.5,32.9 541.7,32.7 543.9,32.5 546.0,32.3 548.2,32.0 550.4,31.8 552.6,31.6 554.8,31.4 556.9,31.1 559.1,30.9 561.3,30.6 563.5,30.5 565.6,30.4 567.8,30.2 570.0,30.0 570.0,30.0,120" />
  
  <!-- Linea principale -->
  <polyline fill="none" stroke="#0366d6" stroke-width="2.5" stroke-linecap="round" stroke-linejoin="round" points="30.0,120.0 32.2,119.2 34.4,118.3 36.5,117.5 38.7,117.3 40.9,116.9 43.1,115.9 45.2,115.3 47.4,114.9 49.6,113.9 51.8,113.4 54.0,112.9 56.1,112.6 58.3,112.1 60.5,111.5 62.7,110.8 64.8,110.2 67.0,109.9 69.2,109.6 71.4,109.2 73.5,108.6 75.7,108.2 77.9,108.0 80.1,107.5 82.3,106.0 84.4,105.5 86.6,104.9 88.8,104.3 91.0,103.8 93.1,103.2 95.3,102.9 97.5,102.6 99.7,102.2 101.9,101.5 104.0,100.8 106.2,100.4 108.4,99.8 110.6,99.7 112.7,99.6 114.9,99.3 117.1,98.8 119.3,98.5 121.5,98.3 123.6,97.7 125.8,96.9 128.0,96.7 130.2,96.5 132.3,96.2 134.5,95.5 136.7,95.1 138.9,94.4 141.0,93.9 143.2,93.3 145.4,93.2 147.6,92.8 149.8,92.2 151.9,91.6 154.1,91.1 156.3,90.9 158.5,90.6 160.6,90.3 162.8,89.6 165.0,88.9 167.2,88.4 169.4,87.8 171.5,87.5 173.7,87.3 175.9,87.1 178.1,86.6 180.2,86.3 182.4,86.0 184.6,85.8 186.8,85.6 189.0,85.2 191.1,85.0 193.3,84.9 195.5,84.7 197.7,84.1 199.8,83.7 202.0,83.6 204.2,83.4 206.4,83.2 208.5,83.2 210.7,93.7 212.9,92.7 215.1,91.8 217.3,90.8 219.4,87.9 221.6,85.9 223.8,83.8 226.0,83.0 228.1,82.1 230.3,80.6 232.5,79.0 234.7,77.8 236.9,77.4 239.0,77.0 241.2,75.8 243.4,75.0 245.6,74.5 247.7,73.8 249.9,73.5 252.1,73.4 254.3,72.8 256.5,71.8 258.6,71.1 260.8,70.4 263.0,69.6 265.2,69.2 267.3,68.9 269.5,68.3 271.7,67.6 273.9,67.1 276.0,66.6 278.2,66.4 280.4,66.2 282.6,65.9 284.8,65.4 286.9,65.0 289.1,64.6 291.3,64.3 293.5,64.0 295.6,63.7 297.8,63.4 300.0,63.2 302.2,62.9 304.4,62.4 306.5,62.0 308.7,61.5 310.9,61.2 313.1,60.9 315.2,60.7 317.4,60.5 319.6,60.2 321.8,59.5 324.0,58.9 326.1,58.3 328.3,58.1 330.5,58.0 332.7,57.7 334.8,57.4 337.0,57.0 339.2,56.6 341.4,56.1 343.5,55.8 345.7,55.7 347.9,55.4 350.1,55.2 352.3,55.0 354.4,54.7 356.6,54.5 358.8,54.0 361.0,53.8 363.1,53.6 365.3,53.4 367.5,53.3 369.7,52.9 371.9,52.6 374.0,52.2 376.2,51.9 378.4,51.5 380.6,51.3 382.7,51.2 384.9,50.9 387.1,50.5 389.3,50.0 391.5,49.7 393.6,49.4 395.8,48.8 398.0,48.7 400.2,48.5 402.3,48.3 404.5,48.0 406.7,47.8 408.9,47.5 411.0,47.2 413.2,47.0 415.4,46.7 417.6,46.5 419.8,46.3 421.9,46.2 424.1,45.9 426.3,45.5 428.5,45.3 430.6,44.9 432.8,44.8 435.0,44.6 437.2,44.3 439.4,44.1 441.5,43.9 443.7,43.7 445.9,43.2 448.1,42.7 450.2,42.4 452.4,42.2 454.6,42.1 456.8,42.0 459.0,41.7 461.1,41.2 463.3,41.0 465.5,40.9 467.7,40.6 469.8,40.3 472.0,40.0 474.2,39.9 476.4,39.7 478.5,39.3 480.7,39.0 482.9,38.7 485.1,38.4 487.3,38.2 489.4,38.1 491.6,38.0 493.8,37.8 496.0,37.5 498.1,37.3 500.3,37.0 502.5,36.7 504.7,36.5 506.9,36.4 509.0,36.1 511.2,35.9 513.4,35.6 515.6,35.3 517.7,35.0 519.9,34.7 522.1,34.5 524.3,34.4 526.5,34.2 528.6,34.1 530.8,33.9 533.0,33.7 535.2,33.3 537.3,33.1 539.5,32.9 541.7,32.7 543.9,32.5 546.0,32.3 548.2,32.0 550.4,31.8 552.6,31.6 554.8,31.4 556.9,31.1 559.1,30.9 561.3,30.6 563.5,30.5 565.6,30.4 567.8,30.2 570.0,30.0" />
  
  <!-- Punto finale luminoso -->
  <circle cx="570.0" cy="30.0" r="4" fill="#ffffff" stroke="#0366d6" stroke-width="2.5" />
</svg>