<svg width="600" height="150" viewBox="0 0 600 150" xmlns="http://www.w3.org/2000/svg">
  <defs>
    <filter id="shadow2" x="-2%" y="-2%" width="104%" height="108%">
      <feDropShadow dx="0" dy="2" stdDeviation="3" flood-opacity="0.1" />
    </filter>
    <linearGradient id="fillGrad" x1="0" y1="0" x2="0" y2="1">
      <stop offset="0%" stop-color="#0366d6" stop-opacity="0.3"/>
      <stop offset="100%" stop-color="#0366d6" stop-opacity="0.02"/>
    </linearGradient>
  </defs>
  <rect width="600" height="150" rx="12" fill="#ffffff" filter="url(#shadow2)" stroke="#e1e4e8" stroke-width="1"/>
  <text x="20" y="24" fill="#2b3137" font-family="-apple-system,BlinkMacSystemFont,'Segoe UI',Helvetica,Arial,sans-serif" font-size="14" font-weight="600">📈 Download Growth (Actual: 86.8k)</text>
  
  <!-- Area sotto la linea -->
  <polygon fill="url(#fillGrad)" points="30.0,120.0,120 30.0,120.0 31.4,119.5 32.7,118.9 34.1,118.5 35.5,118.3 36.9,118.1 38.2,117.5 39.6,117.1 41.0,116.8 42.4,116.2 43.7,115.9 45.1,115.6 46.5,115.5 47.9,115.2 49.2,114.8 50.6,114.3 52.0,114.0 53.4,113.8 54.7,113.6 56.1,113.3 57.5,113.0 58.9,112.7 60.2,112.6 61.6,112.3 63.0,111.4 64.4,111.1 65.7,110.7 67.1,110.3 68.5,110.0 69.8,109.7 71.2,109.5 72.6,109.3 74.0,109.1 75.3,108.6 76.7,108.2 78.1,107.9 79.5,107.6 80.8,107.5 82.2,107.4 83.6,107.3 85.0,107.0 86.3,106.8 87.7,106.7 89.1,106.3 90.5,105.8 91.8,105.7 93.2,105.6 94.6,105.4 96.0,105.0 97.3,104.7 98.7,104.3 100.1,104.0 101.5,103.6 102.8,103.5 104.2,103.3 105.6,102.9 106.9,102.5 108.3,102.2 109.7,102.1 111.1,101.9 112.4,101.7 113.8,101.3 115.2,100.9 116.6,100.5 117.9,100.2 119.3,100.0 120.7,99.9 122.1,99.8 123.4,99.5 124.8,99.3 126.2,99.1 127.6,99.0 128.9,98.8 130.3,98.6 131.7,98.5 133.1,98.4 134.4,98.3 135.8,97.9 137.2,97.7 138.5,97.6 139.9,97.5 141.3,97.4 142.7,97.4 144.0,103.9 145.4,103.2 146.8,102.7 148.2,102.1 149.5,100.3 150.9,99.1 152.3,97.7 153.7,97.3 155.0,96.7 156.4,95.8 157.8,94.8 159.2,94.1 160.5,93.8 161.9,93.6 163.3,92.8 164.7,92.3 166.0,92.0 167.4,91.6 168.8,91.4 170.2,91.3 171.5,91.0 172.9,90.4 174.3,89.9 175.6,89.5 177.0,89.0 178.4,88.8 179.8,88.6 181.1,88.2 182.5,87.8 183.9,87.5 185.3,87.2 186.6,87.0 188.0,87.0 189.4,86.7 190.8,86.4 192.1,86.2 193.5,86.0 194.9,85.8 196.3,85.6 197.6,85.4 199.0,85.2 200.4,85.1 201.8,84.9 203.1,84.6 204.5,84.3 205.9,84.0 207.3,83.9 208.6,83.7 210.0,83.6 211.4,83.4 212.7,83.2 214.1,82.8 215.5,82.5 216.9,82.1 218.2,81.9 219.6,81.9 221.0,81.7 222.4,81.5 223.7,81.3 225.1,81.0 226.5,80.7 227.9,80.6 229.2,80.5 230.6,80.3 232.0,80.2 233.4,80.1 234.7,79.9 236.1,79.7 237.5,79.4 238.9,79.3 240.2,79.2 241.6,79.1 243.0,79.0 244.4,78.7 245.7,78.5 247.1,78.3 248.5,78.1 249.8,77.9 251.2,77.8 252.6,77.7 254.0,77.5 255.3,77.3 256.7,77.0 258.1,76.8 259.5,76.6 260.8,76.2 262.2,76.1 263.6,76.0 265.0,75.9 266.3,75.8 267.7,75.6 269.1,75.4 270.5,75.3 271.8,75.1 273.2,75.0 274.6,74.8 276.0,74.7 277.3,74.6 278.7,74.4 280.1,74.2 281.5,74.1 282.8,73.9 284.2,73.8 285.6,73.6 286.9,73.5 288.3,73.4 289.7,73.2 291.1,73.1 292.4,72.8 293.8,72.5 295.2,72.3 296.6,72.2 297.9,72.1 299.3,72.0 300.7,71.8 302.1,71.6 303.4,71.5 304.8,71.4 306.2,71.2 307.6,71.0 308.9,70.8 310.3,70.7 311.7,70.6 313.1,70.4 314.4,70.2 315.8,70.0 317.2,69.8 318.5,69.7 319.9,69.7 321.3,69.6 322.7,69.4 324.0,69.3 325.4,69.1 326.8,69.0 328.2,68.8 329.5,68.7 330.9,68.6 332.3,68.5 333.7,68.3 335.0,68.1 336.4,67.9 337.8,67.7 339.2,67.6 340.5,67.5 341.9,67.4 343.3,67.3 344.7,67.2 346.0,67.1 347.4,67.0 348.8,66.7 350.2,66.6 351.5,66.4 352.9,66.3 354.3,66.2 355.6,66.1 357.0,65.9 358.4,65.8 359.8,65.7 361.1,65.5 362.5,65.4 363.9,65.2 365.3,65.1 366.6,65.0 368.0,64.9 369.4,64.8 370.8,64.7 372.1,64.5 373.5,64.4 374.9,64.4 376.3,64.3 377.6,63.9 379.0,63.7 380.4,68.0 381.8,67.1 383.1,65.5 384.5,64.9 385.9,64.2 387.3,63.3 388.6,62.8 390.0,62.4 391.4,61.8 392.7,60.9 394.1,60.2 395.5,60.0 396.9,59.7 398.2,59.4 399.6,58.9 401.0,58.5 402.4,58.0 403.7,57.7 405.1,57.3 406.5,57.0 407.9,56.7 409.2,56.5 410.6,56.3 412.0,56.0 413.4,55.6 414.7,55.3 416.1,54.8 417.5,54.3 418.9,53.9 420.2,53.7 421.6,53.6 423.0,53.3 424.4,53.0 425.7,52.6 427.1,52.3 428.5,51.5 429.8,50.8 431.2,50.5 432.6,50.3 434.0,50.0 435.3,49.6 436.7,49.2 438.1,48.9 439.5,48.6 440.8,48.3 442.2,48.0 443.6,47.7 445.0,47.3 446.3,47.1 447.7,47.0 449.1,46.8 450.5,46.4 451.8,46.1 453.2,45.9 454.6,45.8 456.0,45.6 457.3,45.3 458.7,45.2 460.1,45.0 461.5,44.8 462.8,44.6 464.2,44.5 465.6,44.2 466.9,44.0 468.3,43.7 469.7,43.3 471.1,43.1 472.4,42.9 473.8,42.7 475.2,42.6 476.6,42.4 477.9,42.2 479.3,42.1 480.7,42.0 482.1,41.8 483.4,41.6 484.8,41.5 486.2,41.2 487.6,41.1 488.9,40.9 490.3,40.7 491.7,40.4 493.1,40.0 494.4,39.8 495.8,39.6 497.2,39.4 498.5,39.2 499.9,39.0 501.3,38.7 502.7,38.5 504.0,38.4 505.4,38.3 506.8,38.1 508.2,37.8 509.5,37.7 510.9,37.6 512.3,37.3 513.7,37.1 515.0,36.9 516.4,36.6 517.8,36.5 519.2,36.2 520.5,35.9 521.9,35.8 523.3,35.7 524.7,35.5 526.0,35.3 527.4,35.1 528.8,34.9 530.2,34.7 531.5,34.6 532.9,34.5 534.3,34.3 535.6,34.1 537.0,34.0 538.4,33.8 539.8,33.7 541.1,33.6 542.5,33.4 543.9,33.3 545.3,33.1 546.6,32.9 548.0,32.8 549.4,32.7 550.8,32.5 552.1,32.2 553.5,32.1 554.9,32.0 556.3,31.8 557.6,31.6 559.0,31.4 560.4,31.1 561.8,31.0 563.1,30.9 564.5,30.9 565.9,30.7 567.3,30.5 568.6,30.3 570.0,30.0 570.0,30.0,120" />
  
  <!-- Linea principale -->
  <polyline fill="none" stroke="#0366d6" stroke-width="2.5" stroke-linecap="round" stroke-linejoin="round" points="30.0,120.0 31.4,119.5 32.7,118.9 34.1,118.5 35.5,118.3 36.9,118.1 38.2,117.5 39.6,117.1 41.0,116.8 42.4,116.2 43.7,115.9 45.1,115.6 46.5,115.5 47.9,115.2 49.2,114.8 50.6,114.3 52.0,114.0 53.4,113.8 54.7,113.6 56.1,113.3 57.5,113.0 58.9,112.7 60.2,112.6 61.6,112.3 63.0,111.4 64.4,111.1 65.7,110.7 67.1,110.3 68.5,110.0 69.8,109.7 71.2,109.5 72.6,109.3 74.0,109.1 75.3,108.6 76.7,108.2 78.1,107.9 79.5,107.6 80.8,107.5 82.2,107.4 83.6,107.3 85.0,107.0 86.3,106.8 87.7,106.7 89.1,106.3 90.5,105.8 91.8,105.7 93.2,105.6 94.6,105.4 96.0,105.0 97.3,104.7 98.7,104.3 100.1,104.0 101.5,103.6 102.8,103.5 104.2,103.3 105.6,102.9 106.9,102.5 108.3,102.2 109.7,102.1 111.1,101.9 112.4,101.7 113.8,101.3 115.2,100.9 116.6,100.5 117.9,100.2 119.3,100.0 120.7,99.9 122.1,99.8 123.4,99.5 124.8,99.3 126.2,99.1 127.6,99.0 128.9,98.8 130.3,98.6 131.7,98.5 133.1,98.4 134.4,98.3 135.8,97.9 137.2,97.7 138.5,97.6 139.9,97.5 141.3,97.4 142.7,97.4 144.0,103.9 145.4,103.2 146.8,102.7 148.2,102.1 149.5,100.3 150.9,99.1 152.3,97.7 153.7,97.3 155.0,96.7 156.4,95.8 157.8,94.8 159.2,94.1 160.5,93.8 161.9,93.6 163.3,92.8 164.7,92.3 166.0,92.0 167.4,91.6 168.8,91.4 170.2,91.3 171.5,91.0 172.9,90.4 174.3,89.9 175.6,89.5 177.0,89.0 178.4,88.8 179.8,88.6 181.1,88.2 182.5,87.8 183.9,87.5 185.3,87.2 186.6,87.0 188.0,87.0 189.4,86.7 190.8,86.4 192.1,86.2 193.5,86.0 194.9,85.8 196.3,85.6 197.6,85.4 199.0,85.2 200.4,85.1 201.8,84.9 203.1,84.6 204.5,84.3 205.9,84.0 207.3,83.9 208.6,83.7 210.0,83.6 211.4,83.4 212.7,83.2 214.1,82.8 215.5,82.5 216.9,82.1 218.2,81.9 219.6,81.9 221.0,81.7 222.4,81.5 223.7,81.3 225.1,81.0 226.5,80.7 227.9,80.6 229.2,80.5 230.6,80.3 232.0,80.2 233.4,80.1 234.7,79.9 236.1,79.7 237.5,79.4 238.9,79.3 240.2,79.2 241.6,79.1 243.0,79.0 244.4,78.7 245.7,78.5 247.1,78.3 248.5,78.1 249.8,77.9 251.2,77.8 252.6,77.7 254.0,77.5 255.3,77.3 256.7,77.0 258.1,76.8 259.5,76.6 260.8,76.2 262.2,76.1 263.6,76.0 265.0,75.9 266.3,75.8 267.7,75.6 269.1,75.4 270.5,75.3 271.8,75.1 273.2,75.0 274.6,74.8 276.0,74.7 277.3,74.6 278.7,74.4 280.1,74.2 281.5,74.1 282.8,73.9 284.2,73.8 285.6,73.6 286.9,73.5 288.3,73.4 289.7,73.2 291.1,73.1 292.4,72.8 293.8,72.5 295.2,72.3 296.6,72.2 297.9,72.1 299.3,72.0 300.7,71.8 302.1,71.6 303.4,71.5 304.8,71.4 306.2,71.2 307.6,71.0 308.9,70.8 310.3,70.7 311.7,70.6 313.1,70.4 314.4,70.2 315.8,70.0 317.2,69.8 318.5,69.7 319.9,69.7 321.3,69.6 322.7,69.4 324.0,69.3 325.4,69.1 326.8,69.0 328.2,68.8 329.5,68.7 330.9,68.6 332.3,68.5 333.7,68.3 335.0,68.1 336.4,67.9 337.8,67.7 339.2,67.6 340.5,67.5 341.9,67.4 343.3,67.3 344.7,67.2 346.0,67.1 347.4,67.0 348.8,66.7 350.2,66.6 351.5,66.4 352.9,66.3 354.3,66.2 355.6,66.1 357.0,65.9 358.4,65.8 359.8,65.7 361.1,65.5 362.5,65.4 363.9,65.2 365.3,65.1 366.6,65.0 368.0,64.9 369.4,64.8 370.8,64.7 372.1,64.5 373.5,64.4 374.9,64.4 376.3,64.3 377.6,63.9 379.0,63.7 380.4,68.0 381.8,67.1 383.1,65.5 384.5,64.9 385.9,64.2 387.3,63.3 388.6,62.8 390.0,62.4 391.4,61.8 392.7,60.9 394.1,60.2 395.5,60.0 396.9,59.7 398.2,59.4 399.6,58.9 401.0,58.5 402.4,58.0 403.7,57.7 405.1,57.3 406.5,57.0 407.9,56.7 409.2,56.5 410.6,56.3 412.0,56.0 413.4,55.6 414.7,55.3 416.1,54.8 417.5,54.3 418.9,53.9 420.2,53.7 421.6,53.6 423.0,53.3 424.4,53.0 425.7,52.6 427.1,52.3 428.5,51.5 429.8,50.8 431.2,50.5 432.6,50.3 434.0,50.0 435.3,49.6 436.7,49.2 438.1,48.9 439.5,48.6 440.8,48.3 442.2,48.0 443.6,47.7 445.0,47.3 446.3,47.1 447.7,47.0 449.1,46.8 450.5,46.4 451.8,46.1 453.2,45.9 454.6,45.8 456.0,45.6 457.3,45.3 458.7,45.2 460.1,45.0 461.5,44.8 462.8,44.6 464.2,44.5 465.6,44.2 466.9,44.0 468.3,43.7 469.7,43.3 471.1,43.1 472.4,42.9 473.8,42.7 475.2,42.6 476.6,42.4 477.9,42.2 479.3,42.1 480.7,42.0 482.1,41.8 483.4,41.6 484.8,41.5 486.2,41.2 487.6,41.1 488.9,40.9 490.3,40.7 491.7,40.4 493.1,40.0 494.4,39.8 495.8,39.6 497.2,39.4 498.5,39.2 499.9,39.0 501.3,38.7 502.7,38.5 504.0,38.4 505.4,38.3 506.8,38.1 508.2,37.8 509.5,37.7 510.9,37.6 512.3,37.3 513.7,37.1 515.0,36.9 516.4,36.6 517.8,36.5 519.2,36.2 520.5,35.9 521.9,35.8 523.3,35.7 524.7,35.5 526.0,35.3 527.4,35.1 528.8,34.9 530.2,34.7 531.5,34.6 532.9,34.5 534.3,34.3 535.6,34.1 537.0,34.0 538.4,33.8 539.8,33.7 541.1,33.6 542.5,33.4 543.9,33.3 545.3,33.1 546.6,32.9 548.0,32.8 549.4,32.7 550.8,32.5 552.1,32.2 553.5,32.1 554.9,32.0 556.3,31.8 557.6,31.6 559.0,31.4 560.4,31.1 561.8,31.0 563.1,30.9 564.5,30.9 565.9,30.7 567.3,30.5 568.6,30.3 570.0,30.0" />
  
  <!-- Punto finale luminoso -->
  <circle cx="570.0" cy="30.0" r="4" fill="#ffffff" stroke="#0366d6" stroke-width="2.5" />
</svg>