<svg width="600" height="150" viewBox="0 0 600 150" xmlns="http://www.w3.org/2000/svg">
  <defs>
    <filter id="shadow2" x="-2%" y="-2%" width="104%" height="108%">
      <feDropShadow dx="0" dy="2" stdDeviation="3" flood-opacity="0.1" />
    </filter>
    <linearGradient id="fillGrad" x1="0" y1="0" x2="0" y2="1">
      <stop offset="0%" stop-color="#0366d6" stop-opacity="0.3"/>
      <stop offset="100%" stop-color="#0366d6" stop-opacity="0.02"/>
    </linearGradient>
  </defs>
  <rect width="600" height="150" rx="12" fill="#ffffff" filter="url(#shadow2)" stroke="#e1e4e8" stroke-width="1"/>
  <text x="20" y="24" fill="#2b3137" font-family="-apple-system,BlinkMacSystemFont,'Segoe UI',Helvetica,Arial,sans-serif" font-size="14" font-weight="600">📈 Download Growth (Actual: 76.4k)</text>
  
  <!-- Area sotto la linea -->
  <polygon fill="url(#fillGrad)" points="30.0,120.0,120 30.0,120.0 33.3,118.9 36.5,117.8 39.8,116.8 43.0,116.5 46.3,116.0 49.5,114.8 52.8,114.0 56.0,113.4 59.3,112.2 62.5,111.5 65.8,110.9 69.0,110.5 72.3,109.9 75.5,109.1 78.8,108.2 82.0,107.5 85.3,107.0 88.6,106.7 91.8,106.1 95.1,105.5 98.3,104.9 101.6,104.6 104.8,104.0 108.1,102.0 111.3,101.5 114.6,100.7 117.8,99.9 121.1,99.2 124.3,98.5 127.6,98.1 130.8,97.8 134.1,97.2 137.3,96.3 140.6,95.4 143.9,94.9 147.1,94.2 150.4,94.0 153.6,93.8 156.9,93.5 160.1,92.9 163.4,92.5 166.6,92.2 169.9,91.5 173.1,90.4 176.4,90.1 179.6,89.9 182.9,89.5 186.1,88.7 189.4,88.1 192.7,87.2 195.9,86.6 199.2,85.8 202.4,85.7 205.7,85.2 208.9,84.4 212.2,83.6 215.4,83.0 218.7,82.7 221.9,82.3 225.2,82.0 228.4,81.1 231.7,80.2 234.9,79.5 238.2,78.7 241.4,78.4 244.7,78.1 248.0,77.8 251.2,77.2 254.5,76.8 257.7,76.5 261.0,76.2 264.2,75.9 267.5,75.5 270.7,75.2 274.0,75.0 277.2,74.8 280.5,74.0 283.7,73.5 287.0,73.4 290.2,73.1 293.5,72.9 296.7,72.9 300.0,86.4 303.3,85.1 306.5,83.9 309.8,82.6 313.0,79.0 316.3,76.4 319.5,73.7 322.8,72.6 326.0,71.5 329.3,69.6 332.5,67.5 335.8,66.0 339.0,65.5 342.3,64.9 345.5,63.5 348.8,62.4 352.0,61.7 355.3,60.8 358.6,60.5 361.8,60.3 365.1,59.5 368.3,58.3 371.6,57.4 374.8,56.5 378.1,55.5 381.3,55.0 384.6,54.6 387.8,53.8 391.1,53.0 394.3,52.2 397.6,51.6 400.8,51.4 404.1,51.2 407.3,50.7 410.6,50.1 413.9,49.6 417.1,49.1 420.4,48.7 423.6,48.3 426.9,47.9 430.1,47.6 433.4,47.3 436.6,46.9 439.9,46.2 443.1,45.7 446.4,45.1 449.6,44.8 452.9,44.3 456.1,44.1 459.4,43.8 462.7,43.5 465.9,42.5 469.2,41.8 472.4,41.0 475.7,40.7 478.9,40.6 482.2,40.2 485.4,39.8 488.7,39.3 491.9,38.8 495.2,38.2 498.4,37.8 501.7,37.7 504.9,37.3 508.2,37.1 511.4,36.8 514.7,36.4 518.0,36.1 521.2,35.5 524.5,35.2 527.7,35.0 531.0,34.8 534.2,34.6 537.5,34.1 540.7,33.7 544.0,33.2 547.2,32.8 550.5,32.4 553.7,32.1 557.0,31.9 560.2,31.6 563.5,31.0 566.7,30.4 570.0,30.0 570.0,30.0,120" />
  
  <!-- Linea principale -->
  <polyline fill="none" stroke="#0366d6" stroke-width="2.5" stroke-linecap="round" stroke-linejoin="round" points="30.0,120.0 33.3,118.9 36.5,117.8 39.8,116.8 43.0,116.5 46.3,116.0 49.5,114.8 52.8,114.0 56.0,113.4 59.3,112.2 62.5,111.5 65.8,110.9 69.0,110.5 72.3,109.9 75.5,109.1 78.8,108.2 82.0,107.5 85.3,107.0 88.6,106.7 91.8,106.1 95.1,105.5 98.3,104.9 101.6,104.6 104.8,104.0 108.1,102.0 111.3,101.5 114.6,100.7 117.8,99.9 121.1,99.2 124.3,98.5 127.6,98.1 130.8,97.8 134.1,97.2 137.3,96.3 140.6,95.4 143.9,94.9 147.1,94.2 150.4,94.0 153.6,93.8 156.9,93.5 160.1,92.9 163.4,92.5 166.6,92.2 169.9,91.5 173.1,90.4 176.4,90.1 179.6,89.9 182.9,89.5 186.1,88.7 189.4,88.1 192.7,87.2 195.9,86.6 199.2,85.8 202.4,85.7 205.7,85.2 208.9,84.4 212.2,83.6 215.4,83.0 218.7,82.7 221.9,82.3 225.2,82.0 228.4,81.1 231.7,80.2 234.9,79.5 238.2,78.7 241.4,78.4 244.7,78.1 248.0,77.8 251.2,77.2 254.5,76.8 257.7,76.5 261.0,76.2 264.2,75.9 267.5,75.5 270.7,75.2 274.0,75.0 277.2,74.8 280.5,74.0 283.7,73.5 287.0,73.4 290.2,73.1 293.5,72.9 296.7,72.9 300.0,86.4 303.3,85.1 306.5,83.9 309.8,82.6 313.0,79.0 316.3,76.4 319.5,73.7 322.8,72.6 326.0,71.5 329.3,69.6 332.5,67.5 335.8,66.0 339.0,65.5 342.3,64.9 345.5,63.5 348.8,62.4 352.0,61.7 355.3,60.8 358.6,60.5 361.8,60.3 365.1,59.5 368.3,58.3 371.6,57.4 374.8,56.5 378.1,55.5 381.3,55.0 384.6,54.6 387.8,53.8 391.1,53.0 394.3,52.2 397.6,51.6 400.8,51.4 404.1,51.2 407.3,50.7 410.6,50.1 413.9,49.6 417.1,49.1 420.4,48.7 423.6,48.3 426.9,47.9 430.1,47.6 433.4,47.3 436.6,46.9 439.9,46.2 443.1,45.7 446.4,45.1 449.6,44.8 452.9,44.3 456.1,44.1 459.4,43.8 462.7,43.5 465.9,42.5 469.2,41.8 472.4,41.0 475.7,40.7 478.9,40.6 482.2,40.2 485.4,39.8 488.7,39.3 491.9,38.8 495.2,38.2 498.4,37.8 501.7,37.7 504.9,37.3 508.2,37.1 511.4,36.8 514.7,36.4 518.0,36.1 521.2,35.5 524.5,35.2 527.7,35.0 531.0,34.8 534.2,34.6 537.5,34.1 540.7,33.7 544.0,33.2 547.2,32.8 550.5,32.4 553.7,32.1 557.0,31.9 560.2,31.6 563.5,31.0 566.7,30.4 570.0,30.0" />
  
  <!-- Punto finale luminoso -->
  <circle cx="570.0" cy="30.0" r="4" fill="#ffffff" stroke="#0366d6" stroke-width="2.5" />
</svg>