<svg width="600" height="150" viewBox="0 0 600 150" xmlns="http://www.w3.org/2000/svg">
  <defs>
    <filter id="shadow2" x="-2%" y="-2%" width="104%" height="108%">
      <feDropShadow dx="0" dy="2" stdDeviation="3" flood-opacity="0.1" />
    </filter>
    <linearGradient id="fillGrad" x1="0" y1="0" x2="0" y2="1">
      <stop offset="0%" stop-color="#0366d6" stop-opacity="0.3"/>
      <stop offset="100%" stop-color="#0366d6" stop-opacity="0.02"/>
    </linearGradient>
  </defs>
  <rect width="600" height="150" rx="12" fill="#ffffff" filter="url(#shadow2)" stroke="#e1e4e8" stroke-width="1"/>
  <text x="20" y="24" fill="#2b3137" font-family="-apple-system,BlinkMacSystemFont,'Segoe UI',Helvetica,Arial,sans-serif" font-size="14" font-weight="600">📈 Download Growth (Actual: 84.6k)</text>
  
  <!-- Area sotto la linea -->
  <polygon fill="url(#fillGrad)" points="30.0,120.0,120 30.0,120.0 31.6,119.4 33.2,118.8 34.8,118.3 36.4,118.1 38.0,117.8 39.6,117.2 41.2,116.7 42.8,116.5 44.4,115.8 46.0,115.4 47.6,115.1 49.2,114.9 50.8,114.6 52.4,114.1 54.0,113.6 55.6,113.3 57.2,113.0 58.8,112.8 60.4,112.5 62.0,112.2 63.6,111.9 65.1,111.7 66.7,111.4 68.3,110.3 69.9,110.0 71.5,109.6 73.1,109.2 74.7,108.8 76.3,108.4 77.9,108.2 79.5,108.0 81.1,107.7 82.7,107.2 84.3,106.8 85.9,106.5 87.5,106.1 89.1,106.0 90.7,105.9 92.3,105.7 93.9,105.4 95.5,105.2 97.1,105.0 98.7,104.6 100.3,104.0 101.9,103.9 103.5,103.8 105.1,103.6 106.7,103.1 108.3,102.8 109.9,102.3 111.5,102.0 113.1,101.6 114.7,101.5 116.3,101.2 117.9,100.8 119.5,100.4 121.1,100.1 122.7,99.9 124.3,99.7 125.9,99.5 127.5,99.0 129.1,98.6 130.7,98.2 132.2,97.8 133.8,97.6 135.4,97.4 137.0,97.3 138.6,96.9 140.2,96.7 141.8,96.5 143.4,96.4 145.0,96.2 146.6,96.0 148.2,95.9 149.8,95.7 151.4,95.6 153.0,95.2 154.6,95.0 156.2,94.9 157.8,94.7 159.4,94.6 161.0,94.6 162.6,101.9 164.2,101.2 165.8,100.5 167.4,99.9 169.0,97.9 170.6,96.5 172.2,95.0 173.8,94.5 175.4,93.9 177.0,92.8 178.6,91.7 180.2,90.9 181.8,90.6 183.4,90.3 185.0,89.5 186.6,88.9 188.2,88.6 189.8,88.1 191.4,87.9 193.0,87.8 194.6,87.4 196.2,86.7 197.8,86.3 199.3,85.8 200.9,85.2 202.5,85.0 204.1,84.8 205.7,84.3 207.3,83.9 208.9,83.5 210.5,83.2 212.1,83.0 213.7,82.9 215.3,82.7 216.9,82.3 218.5,82.0 220.1,81.8 221.7,81.6 223.3,81.4 224.9,81.2 226.5,81.0 228.1,80.8 229.7,80.6 231.3,80.2 232.9,80.0 234.5,79.6 236.1,79.4 237.7,79.2 239.3,79.1 240.9,78.9 242.5,78.7 244.1,78.2 245.7,77.9 247.3,77.4 248.9,77.3 250.5,77.2 252.1,77.0 253.7,76.8 255.3,76.5 256.9,76.3 258.5,75.9 260.1,75.7 261.7,75.6 263.3,75.5 264.9,75.3 266.4,75.2 268.0,75.0 269.6,74.8 271.2,74.5 272.8,74.3 274.4,74.2 276.0,74.1 277.6,74.0 279.2,73.7 280.8,73.5 282.4,73.2 284.0,73.0 285.6,72.8 287.2,72.6 288.8,72.5 290.4,72.3 292.0,72.0 293.6,71.7 295.2,71.5 296.8,71.3 298.4,70.9 300.0,70.8 301.6,70.7 303.2,70.5 304.8,70.3 306.4,70.2 308.0,70.0 309.6,69.8 311.2,69.6 312.8,69.5 314.4,69.3 316.0,69.1 317.6,69.1 319.2,68.9 320.8,68.6 322.4,68.4 324.0,68.2 325.6,68.1 327.2,68.0 328.8,67.8 330.4,67.7 332.0,67.5 333.6,67.3 335.1,67.0 336.7,66.7 338.3,66.5 339.9,66.3 341.5,66.2 343.1,66.2 344.7,66.0 346.3,65.7 347.9,65.5 349.5,65.4 351.1,65.2 352.7,65.0 354.3,64.8 355.9,64.7 357.5,64.6 359.1,64.3 360.7,64.1 362.3,63.9 363.9,63.7 365.5,63.6 367.1,63.5 368.7,63.4 370.3,63.3 371.9,63.1 373.5,62.9 375.1,62.7 376.7,62.5 378.3,62.4 379.9,62.3 381.5,62.1 383.1,62.0 384.7,61.8 386.3,61.5 387.9,61.3 389.5,61.2 391.1,61.0 392.7,60.9 394.3,60.8 395.9,60.7 397.5,60.6 399.1,60.5 400.7,60.2 402.2,60.1 403.8,59.9 405.4,59.8 407.0,59.6 408.6,59.5 410.2,59.3 411.8,59.1 413.4,59.0 415.0,58.9 416.6,58.7 418.2,58.5 419.8,58.3 421.4,58.3 423.0,58.2 424.6,58.0 426.2,57.9 427.8,57.8 429.4,57.6 431.0,57.6 432.6,57.4 434.2,57.1 435.8,56.9 437.4,61.6 439.0,60.7 440.6,58.9 442.2,58.2 443.8,57.4 445.4,56.3 447.0,55.8 448.6,55.4 450.2,54.7 451.8,53.7 453.4,52.9 455.0,52.7 456.6,52.3 458.2,52.0 459.8,51.5 461.4,51.0 463.0,50.4 464.6,50.1 466.2,49.6 467.8,49.3 469.3,49.0 470.9,48.7 472.5,48.5 474.1,48.2 475.7,47.7 477.3,47.3 478.9,46.9 480.5,46.2 482.1,45.8 483.7,45.6 485.3,45.4 486.9,45.2 488.5,44.7 490.1,44.4 491.7,44.1 493.3,43.1 494.9,42.3 496.5,42.0 498.1,41.8 499.7,41.5 501.3,41.0 502.9,40.5 504.5,40.2 506.1,39.9 507.7,39.5 509.3,39.2 510.9,38.9 512.5,38.5 514.1,38.2 515.7,38.0 517.3,37.8 518.9,37.4 520.5,37.1 522.1,36.8 523.7,36.7 525.3,36.5 526.9,36.2 528.5,36.0 530.1,35.8 531.7,35.6 533.3,35.4 534.9,35.2 536.4,34.9 538.0,34.7 539.6,34.4 541.2,33.9 542.8,33.6 544.4,33.5 546.0,33.3 547.6,33.1 549.2,32.9 550.8,32.7 552.4,32.5 554.0,32.4 555.6,32.2 557.2,32.0 558.8,31.9 560.4,31.6 562.0,31.4 563.6,31.2 565.2,31.0 566.8,30.6 568.4,30.2 570.0,30.0 570.0,30.0,120" />
  
  <!-- Linea principale -->
  <polyline fill="none" stroke="#0366d6" stroke-width="2.5" stroke-linecap="round" stroke-linejoin="round" points="30.0,120.0 31.6,119.4 33.2,118.8 34.8,118.3 36.4,118.1 38.0,117.8 39.6,117.2 41.2,116.7 42.8,116.5 44.4,115.8 46.0,115.4 47.6,115.1 49.2,114.9 50.8,114.6 52.4,114.1 54.0,113.6 55.6,113.3 57.2,113.0 58.8,112.8 60.4,112.5 62.0,112.2 63.6,111.9 65.1,111.7 66.7,111.4 68.3,110.3 69.9,110.0 71.5,109.6 73.1,109.2 74.7,108.8 76.3,108.4 77.9,108.2 79.5,108.0 81.1,107.7 82.7,107.2 84.3,106.8 85.9,106.5 87.5,106.1 89.1,106.0 90.7,105.9 92.3,105.7 93.9,105.4 95.5,105.2 97.1,105.0 98.7,104.6 100.3,104.0 101.9,103.9 103.5,103.8 105.1,103.6 106.7,103.1 108.3,102.8 109.9,102.3 111.5,102.0 113.1,101.6 114.7,101.5 116.3,101.2 117.9,100.8 119.5,100.4 121.1,100.1 122.7,99.9 124.3,99.7 125.9,99.5 127.5,99.0 129.1,98.6 130.7,98.2 132.2,97.8 133.8,97.6 135.4,97.4 137.0,97.3 138.6,96.9 140.2,96.7 141.8,96.5 143.4,96.4 145.0,96.2 146.6,96.0 148.2,95.9 149.8,95.7 151.4,95.6 153.0,95.2 154.6,95.0 156.2,94.9 157.8,94.7 159.4,94.6 161.0,94.6 162.6,101.9 164.2,101.2 165.8,100.5 167.4,99.9 169.0,97.9 170.6,96.5 172.2,95.0 173.8,94.5 175.4,93.9 177.0,92.8 178.6,91.7 180.2,90.9 181.8,90.6 183.4,90.3 185.0,89.5 186.6,88.9 188.2,88.6 189.8,88.1 191.4,87.9 193.0,87.8 194.6,87.4 196.2,86.7 197.8,86.3 199.3,85.8 200.9,85.2 202.5,85.0 204.1,84.8 205.7,84.3 207.3,83.9 208.9,83.5 210.5,83.2 212.1,83.0 213.7,82.9 215.3,82.7 216.9,82.3 218.5,82.0 220.1,81.8 221.7,81.6 223.3,81.4 224.9,81.2 226.5,81.0 228.1,80.8 229.7,80.6 231.3,80.2 232.9,80.0 234.5,79.6 236.1,79.4 237.7,79.2 239.3,79.1 240.9,78.9 242.5,78.7 244.1,78.2 245.7,77.9 247.3,77.4 248.9,77.3 250.5,77.2 252.1,77.0 253.7,76.8 255.3,76.5 256.9,76.3 258.5,75.9 260.1,75.7 261.7,75.6 263.3,75.5 264.9,75.3 266.4,75.2 268.0,75.0 269.6,74.8 271.2,74.5 272.8,74.3 274.4,74.2 276.0,74.1 277.6,74.0 279.2,73.7 280.8,73.5 282.4,73.2 284.0,73.0 285.6,72.8 287.2,72.6 288.8,72.5 290.4,72.3 292.0,72.0 293.6,71.7 295.2,71.5 296.8,71.3 298.4,70.9 300.0,70.8 301.6,70.7 303.2,70.5 304.8,70.3 306.4,70.2 308.0,70.0 309.6,69.8 311.2,69.6 312.8,69.5 314.4,69.3 316.0,69.1 317.6,69.1 319.2,68.9 320.8,68.6 322.4,68.4 324.0,68.2 325.6,68.1 327.2,68.0 328.8,67.8 330.4,67.7 332.0,67.5 333.6,67.3 335.1,67.0 336.7,66.7 338.3,66.5 339.9,66.3 341.5,66.2 343.1,66.2 344.7,66.0 346.3,65.7 347.9,65.5 349.5,65.4 351.1,65.2 352.7,65.0 354.3,64.8 355.9,64.7 357.5,64.6 359.1,64.3 360.7,64.1 362.3,63.9 363.9,63.7 365.5,63.6 367.1,63.5 368.7,63.4 370.3,63.3 371.9,63.1 373.5,62.9 375.1,62.7 376.7,62.5 378.3,62.4 379.9,62.3 381.5,62.1 383.1,62.0 384.7,61.8 386.3,61.5 387.9,61.3 389.5,61.2 391.1,61.0 392.7,60.9 394.3,60.8 395.9,60.7 397.5,60.6 399.1,60.5 400.7,60.2 402.2,60.1 403.8,59.9 405.4,59.8 407.0,59.6 408.6,59.5 410.2,59.3 411.8,59.1 413.4,59.0 415.0,58.9 416.6,58.7 418.2,58.5 419.8,58.3 421.4,58.3 423.0,58.2 424.6,58.0 426.2,57.9 427.8,57.8 429.4,57.6 431.0,57.6 432.6,57.4 434.2,57.1 435.8,56.9 437.4,61.6 439.0,60.7 440.6,58.9 442.2,58.2 443.8,57.4 445.4,56.3 447.0,55.8 448.6,55.4 450.2,54.7 451.8,53.7 453.4,52.9 455.0,52.7 456.6,52.3 458.2,52.0 459.8,51.5 461.4,51.0 463.0,50.4 464.6,50.1 466.2,49.6 467.8,49.3 469.3,49.0 470.9,48.7 472.5,48.5 474.1,48.2 475.7,47.7 477.3,47.3 478.9,46.9 480.5,46.2 482.1,45.8 483.7,45.6 485.3,45.4 486.9,45.2 488.5,44.7 490.1,44.4 491.7,44.1 493.3,43.1 494.9,42.3 496.5,42.0 498.1,41.8 499.7,41.5 501.3,41.0 502.9,40.5 504.5,40.2 506.1,39.9 507.7,39.5 509.3,39.2 510.9,38.9 512.5,38.5 514.1,38.2 515.7,38.0 517.3,37.8 518.9,37.4 520.5,37.1 522.1,36.8 523.7,36.7 525.3,36.5 526.9,36.2 528.5,36.0 530.1,35.8 531.7,35.6 533.3,35.4 534.9,35.2 536.4,34.9 538.0,34.7 539.6,34.4 541.2,33.9 542.8,33.6 544.4,33.5 546.0,33.3 547.6,33.1 549.2,32.9 550.8,32.7 552.4,32.5 554.0,32.4 555.6,32.2 557.2,32.0 558.8,31.9 560.4,31.6 562.0,31.4 563.6,31.2 565.2,31.0 566.8,30.6 568.4,30.2 570.0,30.0" />
  
  <!-- Punto finale luminoso -->
  <circle cx="570.0" cy="30.0" r="4" fill="#ffffff" stroke="#0366d6" stroke-width="2.5" />
</svg>