<svg width="600" height="150" viewBox="0 0 600 150" xmlns="http://www.w3.org/2000/svg">
  <defs>
    <filter id="shadow2" x="-2%" y="-2%" width="104%" height="108%">
      <feDropShadow dx="0" dy="2" stdDeviation="3" flood-opacity="0.1" />
    </filter>
    <linearGradient id="fillGrad" x1="0" y1="0" x2="0" y2="1">
      <stop offset="0%" stop-color="#0366d6" stop-opacity="0.3"/>
      <stop offset="100%" stop-color="#0366d6" stop-opacity="0.02"/>
    </linearGradient>
  </defs>
  <rect width="600" height="150" rx="12" fill="#ffffff" filter="url(#shadow2)" stroke="#e1e4e8" stroke-width="1"/>
  <text x="20" y="24" fill="#2b3137" font-family="-apple-system,BlinkMacSystemFont,'Segoe UI',Helvetica,Arial,sans-serif" font-size="14" font-weight="600">📈 Download Growth (Actual: 70.2k)</text>
  
  <!-- Area sotto la linea -->
  <polygon fill="url(#fillGrad)" points="30.0,120.0,120 30.0,120.0 41.2,117.0 52.5,113.7 63.8,110.8 75.0,110.0 86.2,108.5 97.5,105.0 108.8,102.6 120.0,101.1 131.2,97.5 142.5,95.6 153.8,93.8 165.0,92.8 176.2,91.1 187.5,88.7 198.8,86.1 210.0,84.1 221.2,82.7 232.5,81.8 243.8,80.2 255.0,78.2 266.2,76.6 277.5,75.7 288.8,74.1 300.0,68.4 311.2,66.7 322.5,64.5 333.8,62.2 345.0,60.2 356.2,58.3 367.5,57.1 378.8,56.1 390.0,54.6 401.2,51.8 412.5,49.4 423.8,47.8 435.0,45.8 446.2,45.3 457.5,44.8 468.8,43.8 480.0,42.0 491.2,40.9 502.5,40.1 513.8,38.0 525.0,35.0 536.2,34.2 547.5,33.7 558.8,32.4 570.0,30.0 570.0,30.0,120" />
  
  <!-- Linea principale -->
  <polyline fill="none" stroke="#0366d6" stroke-width="2.5" stroke-linecap="round" stroke-linejoin="round" points="30.0,120.0 41.2,117.0 52.5,113.7 63.8,110.8 75.0,110.0 86.2,108.5 97.5,105.0 108.8,102.6 120.0,101.1 131.2,97.5 142.5,95.6 153.8,93.8 165.0,92.8 176.2,91.1 187.5,88.7 198.8,86.1 210.0,84.1 221.2,82.7 232.5,81.8 243.8,80.2 255.0,78.2 266.2,76.6 277.5,75.7 288.8,74.1 300.0,68.4 311.2,66.7 322.5,64.5 333.8,62.2 345.0,60.2 356.2,58.3 367.5,57.1 378.8,56.1 390.0,54.6 401.2,51.8 412.5,49.4 423.8,47.8 435.0,45.8 446.2,45.3 457.5,44.8 468.8,43.8 480.0,42.0 491.2,40.9 502.5,40.1 513.8,38.0 525.0,35.0 536.2,34.2 547.5,33.7 558.8,32.4 570.0,30.0" />
  
  <!-- Punto finale luminoso -->
  <circle cx="570.0" cy="30.0" r="4" fill="#ffffff" stroke="#0366d6" stroke-width="2.5" />
</svg>