<svg width="600" height="150" viewBox="0 0 600 150" xmlns="http://www.w3.org/2000/svg">
  <defs>
    <filter id="shadow2" x="-2%" y="-2%" width="104%" height="108%">
      <feDropShadow dx="0" dy="2" stdDeviation="3" flood-opacity="0.1" />
    </filter>
    <linearGradient id="fillGrad" x1="0" y1="0" x2="0" y2="1">
      <stop offset="0%" stop-color="#0366d6" stop-opacity="0.3"/>
      <stop offset="100%" stop-color="#0366d6" stop-opacity="0.02"/>
    </linearGradient>
  </defs>
  <rect width="600" height="150" rx="12" fill="#ffffff" filter="url(#shadow2)" stroke="#e1e4e8" stroke-width="1"/>
  <text x="20" y="24" fill="#2b3137" font-family="-apple-system,BlinkMacSystemFont,'Segoe UI',Helvetica,Arial,sans-serif" font-size="14" font-weight="600">📈 Download Growth (Actual: 79.0k)</text>
  
  <!-- Area sotto la linea -->
  <polygon fill="url(#fillGrad)" points="30.0,120.0,120 30.0,120.0 32.2,119.2 34.4,118.3 36.6,117.5 38.8,117.3 41.0,116.9 43.2,115.9 45.4,115.3 47.6,114.8 49.8,113.8 52.0,113.3 54.2,112.8 56.4,112.6 58.7,112.1 60.9,111.4 63.1,110.7 65.3,110.2 67.5,109.8 69.7,109.6 71.9,109.1 74.1,108.6 76.3,108.1 78.5,107.9 80.7,107.5 82.9,105.9 85.1,105.4 87.3,104.8 89.5,104.2 91.7,103.7 93.9,103.1 96.1,102.8 98.3,102.5 100.5,102.1 102.7,101.3 104.9,100.7 107.1,100.3 109.3,99.7 111.6,99.6 113.8,99.4 116.0,99.2 118.2,98.7 120.4,98.4 122.6,98.2 124.8,97.6 127.0,96.8 129.2,96.6 131.4,96.4 133.6,96.1 135.8,95.4 138.0,95.0 140.2,94.3 142.4,93.8 144.6,93.2 146.8,93.0 149.0,92.7 151.2,92.0 153.4,91.4 155.6,90.9 157.8,90.7 160.0,90.4 162.2,90.1 164.4,89.4 166.7,88.8 168.9,88.2 171.1,87.6 173.3,87.3 175.5,87.1 177.7,86.9 179.9,86.4 182.1,86.1 184.3,85.8 186.5,85.6 188.7,85.4 190.9,85.0 193.1,84.8 195.3,84.7 197.5,84.5 199.7,83.9 201.9,83.5 204.1,83.4 206.3,83.2 208.5,83.0 210.7,83.0 212.9,93.6 215.1,92.6 217.3,91.6 219.6,90.6 221.8,87.8 224.0,85.8 226.2,83.6 228.4,82.8 230.6,81.9 232.8,80.4 235.0,78.8 237.2,77.6 239.4,77.2 241.6,76.7 243.8,75.6 246.0,74.7 248.2,74.2 250.4,73.5 252.6,73.2 254.8,73.1 257.0,72.5 259.2,71.5 261.4,70.8 263.6,70.1 265.8,69.3 268.0,68.9 270.2,68.6 272.4,68.0 274.7,67.4 276.9,66.8 279.1,66.3 281.3,66.1 283.5,65.9 285.7,65.6 287.9,65.1 290.1,64.7 292.3,64.3 294.5,64.0 296.7,63.7 298.9,63.4 301.1,63.1 303.3,62.9 305.5,62.6 307.7,62.0 309.9,61.6 312.1,61.2 314.3,60.9 316.5,60.6 318.7,60.4 320.9,60.1 323.1,59.9 325.3,59.1 327.6,58.6 329.8,58.0 332.0,57.7 334.2,57.6 336.4,57.3 338.6,57.0 340.8,56.6 343.0,56.3 345.2,55.8 347.4,55.5 349.6,55.3 351.8,55.1 354.0,54.9 356.2,54.7 358.4,54.3 360.6,54.1 362.8,53.6 365.0,53.4 367.2,53.3 369.4,53.0 371.6,52.9 373.8,52.5 376.0,52.2 378.2,51.8 380.4,51.5 382.7,51.2 384.9,50.9 387.1,50.8 389.3,50.5 391.5,50.1 393.7,49.6 395.9,49.3 398.1,49.0 400.3,48.4 402.5,48.3 404.7,48.1 406.9,47.9 409.1,47.6 411.3,47.4 413.5,47.0 415.7,46.8 417.9,46.5 420.1,46.3 422.3,46.1 424.5,45.9 426.7,45.7 428.9,45.5 431.1,45.0 433.3,44.8 435.6,44.5 437.8,44.3 440.0,44.1 442.2,43.9 444.4,43.7 446.6,43.5 448.8,43.3 451.0,42.8 453.2,42.3 455.4,42.0 457.6,41.7 459.8,41.6 462.0,41.5 464.2,41.2 466.4,40.8 468.6,40.6 470.8,40.4 473.0,40.1 475.2,39.9 477.4,39.6 479.6,39.4 481.8,39.2 484.0,38.8 486.2,38.6 488.4,38.2 490.7,37.9 492.9,37.7 495.1,37.7 497.3,37.5 499.5,37.3 501.7,37.1 503.9,36.8 506.1,36.5 508.3,36.2 510.5,36.1 512.7,35.9 514.9,35.7 517.1,35.5 519.3,35.1 521.5,34.8 523.7,34.5 525.9,34.2 528.1,34.1 530.3,33.9 532.5,33.8 534.7,33.6 536.9,33.4 539.1,33.2 541.3,32.8 543.6,32.6 545.8,32.4 548.0,32.2 550.2,32.0 552.4,31.8 554.6,31.5 556.8,31.3 559.0,31.1 561.2,30.9 563.4,30.6 565.6,30.4 567.8,30.1 570.0,30.0 570.0,30.0,120" />
  
  <!-- Linea principale -->
  <polyline fill="none" stroke="#0366d6" stroke-width="2.5" stroke-linecap="round" stroke-linejoin="round" points="30.0,120.0 32.2,119.2 34.4,118.3 36.6,117.5 38.8,117.3 41.0,116.9 43.2,115.9 45.4,115.3 47.6,114.8 49.8,113.8 52.0,113.3 54.2,112.8 56.4,112.6 58.7,112.1 60.9,111.4 63.1,110.7 65.3,110.2 67.5,109.8 69.7,109.6 71.9,109.1 74.1,108.6 76.3,108.1 78.5,107.9 80.7,107.5 82.9,105.9 85.1,105.4 87.3,104.8 89.5,104.2 91.7,103.7 93.9,103.1 96.1,102.8 98.3,102.5 100.5,102.1 102.7,101.3 104.9,100.7 107.1,100.3 109.3,99.7 111.6,99.6 113.8,99.4 116.0,99.2 118.2,98.7 120.4,98.4 122.6,98.2 124.8,97.6 127.0,96.8 129.2,96.6 131.4,96.4 133.6,96.1 135.8,95.4 138.0,95.0 140.2,94.3 142.4,93.8 144.6,93.2 146.8,93.0 149.0,92.7 151.2,92.0 153.4,91.4 155.6,90.9 157.8,90.7 160.0,90.4 162.2,90.1 164.4,89.4 166.7,88.8 168.9,88.2 171.1,87.6 173.3,87.3 175.5,87.1 177.7,86.9 179.9,86.4 182.1,86.1 184.3,85.8 186.5,85.6 188.7,85.4 190.9,85.0 193.1,84.8 195.3,84.7 197.5,84.5 199.7,83.9 201.9,83.5 204.1,83.4 206.3,83.2 208.5,83.0 210.7,83.0 212.9,93.6 215.1,92.6 217.3,91.6 219.6,90.6 221.8,87.8 224.0,85.8 226.2,83.6 228.4,82.8 230.6,81.9 232.8,80.4 235.0,78.8 237.2,77.6 239.4,77.2 241.6,76.7 243.8,75.6 246.0,74.7 248.2,74.2 250.4,73.5 252.6,73.2 254.8,73.1 257.0,72.5 259.2,71.5 261.4,70.8 263.6,70.1 265.8,69.3 268.0,68.9 270.2,68.6 272.4,68.0 274.7,67.4 276.9,66.8 279.1,66.3 281.3,66.1 283.5,65.9 285.7,65.6 287.9,65.1 290.1,64.7 292.3,64.3 294.5,64.0 296.7,63.7 298.9,63.4 301.1,63.1 303.3,62.9 305.5,62.6 307.7,62.0 309.9,61.6 312.1,61.2 314.3,60.9 316.5,60.6 318.7,60.4 320.9,60.1 323.1,59.9 325.3,59.1 327.6,58.6 329.8,58.0 332.0,57.7 334.2,57.6 336.4,57.3 338.6,57.0 340.8,56.6 343.0,56.3 345.2,55.8 347.4,55.5 349.6,55.3 351.8,55.1 354.0,54.9 356.2,54.7 358.4,54.3 360.6,54.1 362.8,53.6 365.0,53.4 367.2,53.3 369.4,53.0 371.6,52.9 373.8,52.5 376.0,52.2 378.2,51.8 380.4,51.5 382.7,51.2 384.9,50.9 387.1,50.8 389.3,50.5 391.5,50.1 393.7,49.6 395.9,49.3 398.1,49.0 400.3,48.4 402.5,48.3 404.7,48.1 406.9,47.9 409.1,47.6 411.3,47.4 413.5,47.0 415.7,46.8 417.9,46.5 420.1,46.3 422.3,46.1 424.5,45.9 426.7,45.7 428.9,45.5 431.1,45.0 433.3,44.8 435.6,44.5 437.8,44.3 440.0,44.1 442.2,43.9 444.4,43.7 446.6,43.5 448.8,43.3 451.0,42.8 453.2,42.3 455.4,42.0 457.6,41.7 459.8,41.6 462.0,41.5 464.2,41.2 466.4,40.8 468.6,40.6 470.8,40.4 473.0,40.1 475.2,39.9 477.4,39.6 479.6,39.4 481.8,39.2 484.0,38.8 486.2,38.6 488.4,38.2 490.7,37.9 492.9,37.7 495.1,37.7 497.3,37.5 499.5,37.3 501.7,37.1 503.9,36.8 506.1,36.5 508.3,36.2 510.5,36.1 512.7,35.9 514.9,35.7 517.1,35.5 519.3,35.1 521.5,34.8 523.7,34.5 525.9,34.2 528.1,34.1 530.3,33.9 532.5,33.8 534.7,33.6 536.9,33.4 539.1,33.2 541.3,32.8 543.6,32.6 545.8,32.4 548.0,32.2 550.2,32.0 552.4,31.8 554.6,31.5 556.8,31.3 559.0,31.1 561.2,30.9 563.4,30.6 565.6,30.4 567.8,30.1 570.0,30.0" />
  
  <!-- Punto finale luminoso -->
  <circle cx="570.0" cy="30.0" r="4" fill="#ffffff" stroke="#0366d6" stroke-width="2.5" />
</svg>