<svg width="600" height="150" viewBox="0 0 600 150" xmlns="http://www.w3.org/2000/svg">
  <defs>
    <filter id="shadow2" x="-2%" y="-2%" width="104%" height="108%">
      <feDropShadow dx="0" dy="2" stdDeviation="3" flood-opacity="0.1" />
    </filter>
    <linearGradient id="fillGrad" x1="0" y1="0" x2="0" y2="1">
      <stop offset="0%" stop-color="#0366d6" stop-opacity="0.3"/>
      <stop offset="100%" stop-color="#0366d6" stop-opacity="0.02"/>
    </linearGradient>
  </defs>
  <rect width="600" height="150" rx="12" fill="#ffffff" filter="url(#shadow2)" stroke="#e1e4e8" stroke-width="1"/>
  <text x="20" y="24" fill="#2b3137" font-family="-apple-system,BlinkMacSystemFont,'Segoe UI',Helvetica,Arial,sans-serif" font-size="14" font-weight="600">📈 Download Growth (Actual: 87.8k)</text>
  
  <!-- Area sotto la linea -->
  <polygon fill="url(#fillGrad)" points="30.0,120.0,120 30.0,120.0 31.3,119.5 32.6,119.0 33.9,118.5 35.2,118.4 36.5,118.2 37.8,117.6 39.0,117.2 40.3,117.0 41.6,116.4 42.9,116.1 44.2,115.8 45.5,115.7 46.8,115.4 48.1,115.0 49.4,114.6 50.7,114.3 52.0,114.1 53.3,113.9 54.5,113.7 55.8,113.4 57.1,113.1 58.4,113.0 59.7,112.7 61.0,111.8 62.3,111.5 63.6,111.2 64.9,110.8 66.2,110.5 67.5,110.2 68.8,110.0 70.0,109.8 71.3,109.6 72.6,109.1 73.9,108.8 75.2,108.5 76.5,108.2 77.8,108.1 79.1,108.0 80.4,107.9 81.7,107.6 83.0,107.4 84.3,107.3 85.6,107.0 86.8,106.5 88.1,106.3 89.4,106.3 90.7,106.1 92.0,105.7 93.3,105.4 94.6,105.0 95.9,104.7 97.2,104.4 98.5,104.3 99.8,104.1 101.1,103.7 102.3,103.3 103.6,103.1 104.9,102.9 106.2,102.8 107.5,102.6 108.8,102.2 110.1,101.8 111.4,101.5 112.7,101.1 114.0,101.0 115.3,100.9 116.6,100.7 117.8,100.4 119.1,100.2 120.4,100.1 121.7,100.0 123.0,99.8 124.3,99.6 125.6,99.5 126.9,99.4 128.2,99.3 129.5,99.0 130.8,98.7 132.1,98.7 133.3,98.5 134.6,98.5 135.9,98.5 137.2,104.6 138.5,104.0 139.8,103.5 141.1,102.9 142.4,101.2 143.7,100.1 145.0,98.8 146.3,98.3 147.6,97.8 148.9,96.9 150.1,96.0 151.4,95.3 152.7,95.1 154.0,94.8 155.3,94.1 156.6,93.6 157.9,93.3 159.2,92.9 160.5,92.8 161.8,92.7 163.1,92.3 164.4,91.8 165.6,91.4 166.9,90.9 168.2,90.5 169.5,90.3 170.8,90.1 172.1,89.7 173.4,89.3 174.7,89.0 176.0,88.7 177.3,88.6 178.6,88.5 179.9,88.3 181.1,88.0 182.4,87.8 183.7,87.6 185.0,87.4 186.3,87.2 187.6,87.0 188.9,86.9 190.2,86.7 191.5,86.6 192.8,86.3 194.1,86.0 195.4,85.7 196.7,85.6 197.9,85.4 199.2,85.3 200.5,85.1 201.8,85.0 203.1,84.5 204.4,84.2 205.7,83.9 207.0,83.7 208.3,83.7 209.6,83.5 210.9,83.3 212.2,83.1 213.4,82.9 214.7,82.6 216.0,82.4 217.3,82.3 218.6,82.2 219.9,82.1 221.2,82.0 222.5,81.8 223.8,81.6 225.1,81.4 226.4,81.2 227.7,81.1 228.9,81.0 230.2,80.9 231.5,80.7 232.8,80.5 234.1,80.3 235.4,80.1 236.7,79.9 238.0,79.8 239.3,79.7 240.6,79.6 241.9,79.3 243.2,79.0 244.4,78.8 245.7,78.6 247.0,78.3 248.3,78.2 249.6,78.1 250.9,78.0 252.2,77.9 253.5,77.7 254.8,77.5 256.1,77.4 257.4,77.2 258.7,77.1 260.0,76.9 261.2,76.8 262.5,76.8 263.8,76.6 265.1,76.3 266.4,76.2 267.7,76.0 269.0,75.9 270.3,75.8 271.6,75.7 272.9,75.6 274.2,75.5 275.5,75.3 276.7,75.0 278.0,74.8 279.3,74.6 280.6,74.4 281.9,74.4 283.2,74.3 284.5,74.1 285.8,73.9 287.1,73.8 288.4,73.7 289.7,73.5 291.0,73.3 292.2,73.2 293.5,73.1 294.8,73.0 296.1,72.7 297.4,72.6 298.7,72.4 300.0,72.2 301.3,72.1 302.6,72.1 303.9,72.0 305.2,71.8 306.5,71.7 307.8,71.6 309.0,71.4 310.3,71.2 311.6,71.1 312.9,71.0 314.2,70.9 315.5,70.8 316.8,70.6 318.1,70.4 319.4,70.2 320.7,70.1 322.0,70.0 323.3,69.9 324.5,69.8 325.8,69.7 327.1,69.6 328.4,69.5 329.7,69.3 331.0,69.1 332.3,69.0 333.6,68.9 334.9,68.8 336.2,68.6 337.5,68.5 338.8,68.4 340.0,68.2 341.3,68.1 342.6,68.0 343.9,67.8 345.2,67.7 346.5,67.6 347.8,67.5 349.1,67.4 350.4,67.3 351.7,67.2 353.0,67.1 354.3,67.0 355.6,66.9 356.8,66.6 358.1,66.4 359.4,70.4 360.7,69.6 362.0,68.1 363.3,67.5 364.6,66.8 365.9,66.0 367.2,65.5 368.5,65.2 369.8,64.6 371.1,63.7 372.3,63.1 373.6,62.9 374.9,62.5 376.2,62.3 377.5,61.8 378.8,61.4 380.1,60.9 381.4,60.7 382.7,60.2 384.0,60.0 385.3,59.7 386.6,59.5 387.8,59.3 389.1,59.1 390.4,58.6 391.7,58.3 393.0,57.9 394.3,57.4 395.6,57.0 396.9,56.9 398.2,56.7 399.5,56.5 400.8,56.1 402.1,55.8 403.3,55.5 404.6,54.7 405.9,54.1 407.2,53.8 408.5,53.6 409.8,53.3 411.1,52.9 412.4,52.6 413.7,52.3 415.0,52.0 416.3,51.7 417.6,51.4 418.9,51.2 420.1,50.8 421.4,50.6 422.7,50.4 424.0,50.2 425.3,49.9 426.6,49.6 427.9,49.4 429.2,49.3 430.5,49.1 431.8,48.9 433.1,48.7 434.4,48.5 435.6,48.4 436.9,48.2 438.2,48.1 439.5,47.8 440.8,47.6 442.1,47.3 443.4,47.0 444.7,46.7 446.0,46.6 447.3,46.4 448.6,46.3 449.9,46.1 451.1,45.9 452.4,45.8 453.7,45.7 455.0,45.5 456.3,45.3 457.6,45.2 458.9,44.9 460.2,44.8 461.5,44.7 462.8,44.4 464.1,44.1 465.4,43.8 466.7,43.6 467.9,43.4 469.2,43.2 470.5,43.0 471.8,42.8 473.1,42.6 474.4,42.4 475.7,42.3 477.0,42.2 478.3,42.0 479.6,41.7 480.9,41.6 482.2,41.5 483.4,41.2 484.7,41.0 486.0,40.8 487.3,40.6 488.6,40.4 489.9,40.2 491.2,39.9 492.5,39.8 493.8,39.7 495.1,39.5 496.4,39.4 497.7,39.2 498.9,39.0 500.2,38.8 501.5,38.7 502.8,38.5 504.1,38.4 505.4,38.2 506.7,38.1 508.0,37.9 509.3,37.8 510.6,37.7 511.9,37.5 513.2,37.4 514.4,37.2 515.7,37.1 517.0,36.9 518.3,36.8 519.6,36.6 520.9,36.4 522.2,36.3 523.5,36.1 524.8,36.0 526.1,35.8 527.4,35.6 528.7,35.3 530.0,35.2 531.2,35.1 532.5,35.1 533.8,34.9 535.1,34.8 536.4,34.5 537.7,34.3 539.0,34.2 540.3,34.0 541.6,33.9 542.9,33.8 544.2,33.6 545.5,33.4 546.7,33.2 548.0,33.0 549.3,32.9 550.6,32.6 551.9,32.4 553.2,32.2 554.5,32.0 555.8,31.9 557.1,31.7 558.4,31.5 559.7,31.3 561.0,31.1 562.2,31.0 563.5,30.8 564.8,30.6 566.1,30.5 567.4,30.3 568.7,30.2 570.0,30.0 570.0,30.0,120" />
  
  <!-- Linea principale -->
  <polyline fill="none" stroke="#0366d6" stroke-width="2.5" stroke-linecap="round" stroke-linejoin="round" points="30.0,120.0 31.3,119.5 32.6,119.0 33.9,118.5 35.2,118.4 36.5,118.2 37.8,117.6 39.0,117.2 40.3,117.0 41.6,116.4 42.9,116.1 44.2,115.8 45.5,115.7 46.8,115.4 48.1,115.0 49.4,114.6 50.7,114.3 52.0,114.1 53.3,113.9 54.5,113.7 55.8,113.4 57.1,113.1 58.4,113.0 59.7,112.7 61.0,111.8 62.3,111.5 63.6,111.2 64.9,110.8 66.2,110.5 67.5,110.2 68.8,110.0 70.0,109.8 71.3,109.6 72.6,109.1 73.9,108.8 75.2,108.5 76.5,108.2 77.8,108.1 79.1,108.0 80.4,107.9 81.7,107.6 83.0,107.4 84.3,107.3 85.6,107.0 86.8,106.5 88.1,106.3 89.4,106.3 90.7,106.1 92.0,105.7 93.3,105.4 94.6,105.0 95.9,104.7 97.2,104.4 98.5,104.3 99.8,104.1 101.1,103.7 102.3,103.3 103.6,103.1 104.9,102.9 106.2,102.8 107.5,102.6 108.8,102.2 110.1,101.8 111.4,101.5 112.7,101.1 114.0,101.0 115.3,100.9 116.6,100.7 117.8,100.4 119.1,100.2 120.4,100.1 121.7,100.0 123.0,99.8 124.3,99.6 125.6,99.5 126.9,99.4 128.2,99.3 129.5,99.0 130.8,98.7 132.1,98.7 133.3,98.5 134.6,98.5 135.9,98.5 137.2,104.6 138.5,104.0 139.8,103.5 141.1,102.9 142.4,101.2 143.7,100.1 145.0,98.8 146.3,98.3 147.6,97.8 148.9,96.9 150.1,96.0 151.4,95.3 152.7,95.1 154.0,94.8 155.3,94.1 156.6,93.6 157.9,93.3 159.2,92.9 160.5,92.8 161.8,92.7 163.1,92.3 164.4,91.8 165.6,91.4 166.9,90.9 168.2,90.5 169.5,90.3 170.8,90.1 172.1,89.7 173.4,89.3 174.7,89.0 176.0,88.7 177.3,88.6 178.6,88.5 179.9,88.3 181.1,88.0 182.4,87.8 183.7,87.6 185.0,87.4 186.3,87.2 187.6,87.0 188.9,86.9 190.2,86.7 191.5,86.6 192.8,86.3 194.1,86.0 195.4,85.7 196.7,85.6 197.9,85.4 199.2,85.3 200.5,85.1 201.8,85.0 203.1,84.5 204.4,84.2 205.7,83.9 207.0,83.7 208.3,83.7 209.6,83.5 210.9,83.3 212.2,83.1 213.4,82.9 214.7,82.6 216.0,82.4 217.3,82.3 218.6,82.2 219.9,82.1 221.2,82.0 222.5,81.8 223.8,81.6 225.1,81.4 226.4,81.2 227.7,81.1 228.9,81.0 230.2,80.9 231.5,80.7 232.8,80.5 234.1,80.3 235.4,80.1 236.7,79.9 238.0,79.8 239.3,79.7 240.6,79.6 241.9,79.3 243.2,79.0 244.4,78.8 245.7,78.6 247.0,78.3 248.3,78.2 249.6,78.1 250.9,78.0 252.2,77.9 253.5,77.7 254.8,77.5 256.1,77.4 257.4,77.2 258.7,77.1 260.0,76.9 261.2,76.8 262.5,76.8 263.8,76.6 265.1,76.3 266.4,76.2 267.7,76.0 269.0,75.9 270.3,75.8 271.6,75.7 272.9,75.6 274.2,75.5 275.5,75.3 276.7,75.0 278.0,74.8 279.3,74.6 280.6,74.4 281.9,74.4 283.2,74.3 284.5,74.1 285.8,73.9 287.1,73.8 288.4,73.7 289.7,73.5 291.0,73.3 292.2,73.2 293.5,73.1 294.8,73.0 296.1,72.7 297.4,72.6 298.7,72.4 300.0,72.2 301.3,72.1 302.6,72.1 303.9,72.0 305.2,71.8 306.5,71.7 307.8,71.6 309.0,71.4 310.3,71.2 311.6,71.1 312.9,71.0 314.2,70.9 315.5,70.8 316.8,70.6 318.1,70.4 319.4,70.2 320.7,70.1 322.0,70.0 323.3,69.9 324.5,69.8 325.8,69.7 327.1,69.6 328.4,69.5 329.7,69.3 331.0,69.1 332.3,69.0 333.6,68.9 334.9,68.8 336.2,68.6 337.5,68.5 338.8,68.4 340.0,68.2 341.3,68.1 342.6,68.0 343.9,67.8 345.2,67.7 346.5,67.6 347.8,67.5 349.1,67.4 350.4,67.3 351.7,67.2 353.0,67.1 354.3,67.0 355.6,66.9 356.8,66.6 358.1,66.4 359.4,70.4 360.7,69.6 362.0,68.1 363.3,67.5 364.6,66.8 365.9,66.0 367.2,65.5 368.5,65.2 369.8,64.6 371.1,63.7 372.3,63.1 373.6,62.9 374.9,62.5 376.2,62.3 377.5,61.8 378.8,61.4 380.1,60.9 381.4,60.7 382.7,60.2 384.0,60.0 385.3,59.7 386.6,59.5 387.8,59.3 389.1,59.1 390.4,58.6 391.7,58.3 393.0,57.9 394.3,57.4 395.6,57.0 396.9,56.9 398.2,56.7 399.5,56.5 400.8,56.1 402.1,55.8 403.3,55.5 404.6,54.7 405.9,54.1 407.2,53.8 408.5,53.6 409.8,53.3 411.1,52.9 412.4,52.6 413.7,52.3 415.0,52.0 416.3,51.7 417.6,51.4 418.9,51.2 420.1,50.8 421.4,50.6 422.7,50.4 424.0,50.2 425.3,49.9 426.6,49.6 427.9,49.4 429.2,49.3 430.5,49.1 431.8,48.9 433.1,48.7 434.4,48.5 435.6,48.4 436.9,48.2 438.2,48.1 439.5,47.8 440.8,47.6 442.1,47.3 443.4,47.0 444.7,46.7 446.0,46.6 447.3,46.4 448.6,46.3 449.9,46.1 451.1,45.9 452.4,45.8 453.7,45.7 455.0,45.5 456.3,45.3 457.6,45.2 458.9,44.9 460.2,44.8 461.5,44.7 462.8,44.4 464.1,44.1 465.4,43.8 466.7,43.6 467.9,43.4 469.2,43.2 470.5,43.0 471.8,42.8 473.1,42.6 474.4,42.4 475.7,42.3 477.0,42.2 478.3,42.0 479.6,41.7 480.9,41.6 482.2,41.5 483.4,41.2 484.7,41.0 486.0,40.8 487.3,40.6 488.6,40.4 489.9,40.2 491.2,39.9 492.5,39.8 493.8,39.7 495.1,39.5 496.4,39.4 497.7,39.2 498.9,39.0 500.2,38.8 501.5,38.7 502.8,38.5 504.1,38.4 505.4,38.2 506.7,38.1 508.0,37.9 509.3,37.8 510.6,37.7 511.9,37.5 513.2,37.4 514.4,37.2 515.7,37.1 517.0,36.9 518.3,36.8 519.6,36.6 520.9,36.4 522.2,36.3 523.5,36.1 524.8,36.0 526.1,35.8 527.4,35.6 528.7,35.3 530.0,35.2 531.2,35.1 532.5,35.1 533.8,34.9 535.1,34.8 536.4,34.5 537.7,34.3 539.0,34.2 540.3,34.0 541.6,33.9 542.9,33.8 544.2,33.6 545.5,33.4 546.7,33.2 548.0,33.0 549.3,32.9 550.6,32.6 551.9,32.4 553.2,32.2 554.5,32.0 555.8,31.9 557.1,31.7 558.4,31.5 559.7,31.3 561.0,31.1 562.2,31.0 563.5,30.8 564.8,30.6 566.1,30.5 567.4,30.3 568.7,30.2 570.0,30.0" />
  
  <!-- Punto finale luminoso -->
  <circle cx="570.0" cy="30.0" r="4" fill="#ffffff" stroke="#0366d6" stroke-width="2.5" />
</svg>