<svg width="600" height="150" viewBox="0 0 600 150" xmlns="http://www.w3.org/2000/svg">
  <defs>
    <filter id="shadow2" x="-2%" y="-2%" width="104%" height="108%">
      <feDropShadow dx="0" dy="2" stdDeviation="3" flood-opacity="0.1" />
    </filter>
    <linearGradient id="fillGrad" x1="0" y1="0" x2="0" y2="1">
      <stop offset="0%" stop-color="#0366d6" stop-opacity="0.3"/>
      <stop offset="100%" stop-color="#0366d6" stop-opacity="0.02"/>
    </linearGradient>
  </defs>
  <rect width="600" height="150" rx="12" fill="#ffffff" filter="url(#shadow2)" stroke="#e1e4e8" stroke-width="1"/>
  <text x="20" y="24" fill="#2b3137" font-family="-apple-system,BlinkMacSystemFont,'Segoe UI',Helvetica,Arial,sans-serif" font-size="14" font-weight="600">📈 Download Growth (Actual: 74.6k)</text>
  
  <!-- Area sotto la linea -->
  <polygon fill="url(#fillGrad)" points="30.0,120.0,120 30.0,120.0 34.3,118.7 38.6,117.3 43.0,116.1 47.3,115.7 51.6,115.1 55.9,113.6 60.2,112.6 64.6,111.9 68.9,110.3 73.2,109.6 77.5,108.8 81.8,108.3 86.2,107.6 90.5,106.6 94.8,105.5 99.1,104.6 103.4,104.0 107.8,103.6 112.1,102.9 116.4,102.1 120.7,101.4 125.0,101.0 129.4,100.3 133.7,97.9 138.0,97.2 142.3,96.2 146.6,95.2 151.0,94.4 155.3,93.6 159.6,93.0 163.9,92.6 168.2,91.9 172.6,90.8 176.9,89.7 181.2,89.0 185.5,88.2 189.8,88.0 194.2,87.8 198.5,87.4 202.8,86.6 207.1,86.1 211.4,85.8 215.8,84.9 220.1,83.5 224.4,83.2 228.7,83.0 233.0,82.5 237.4,81.4 241.7,80.7 246.0,79.7 250.3,78.9 254.6,77.9 259.0,77.7 263.3,77.1 267.6,76.2 271.9,75.2 276.2,74.4 280.6,74.1 284.9,73.6 289.2,73.1 293.5,72.0 297.8,71.0 302.2,70.1 306.5,69.2 310.8,68.7 315.1,68.5 319.4,68.1 323.8,67.3 328.1,66.8 332.4,66.4 336.7,66.0 341.0,65.7 345.4,65.2 349.7,64.8 354.0,64.6 358.3,64.3 362.6,63.3 367.0,62.8 371.3,62.6 375.6,62.2 379.9,62.0 384.2,62.0 388.6,78.6 392.9,77.0 397.2,75.5 401.5,74.0 405.8,69.5 410.2,66.3 414.5,62.9 418.8,61.7 423.1,60.2 427.4,57.9 431.8,55.4 436.1,53.5 440.4,52.8 444.7,52.2 449.0,50.4 453.4,49.0 457.7,48.2 462.0,47.1 466.3,46.7 470.6,46.5 475.0,45.5 479.3,44.0 483.6,42.9 487.9,41.8 492.2,40.5 496.6,39.9 500.9,39.5 505.2,38.4 509.5,37.5 513.8,36.5 518.2,35.8 522.5,35.5 526.8,35.2 531.1,34.7 535.4,33.9 539.8,33.3 544.1,32.7 548.4,32.2 552.7,31.7 557.0,31.2 561.4,30.8 565.7,30.4 570.0,30.0 570.0,30.0,120" />
  
  <!-- Linea principale -->
  <polyline fill="none" stroke="#0366d6" stroke-width="2.5" stroke-linecap="round" stroke-linejoin="round" points="30.0,120.0 34.3,118.7 38.6,117.3 43.0,116.1 47.3,115.7 51.6,115.1 55.9,113.6 60.2,112.6 64.6,111.9 68.9,110.3 73.2,109.6 77.5,108.8 81.8,108.3 86.2,107.6 90.5,106.6 94.8,105.5 99.1,104.6 103.4,104.0 107.8,103.6 112.1,102.9 116.4,102.1 120.7,101.4 125.0,101.0 129.4,100.3 133.7,97.9 138.0,97.2 142.3,96.2 146.6,95.2 151.0,94.4 155.3,93.6 159.6,93.0 163.9,92.6 168.2,91.9 172.6,90.8 176.9,89.7 181.2,89.0 185.5,88.2 189.8,88.0 194.2,87.8 198.5,87.4 202.8,86.6 207.1,86.1 211.4,85.8 215.8,84.9 220.1,83.5 224.4,83.2 228.7,83.0 233.0,82.5 237.4,81.4 241.7,80.7 246.0,79.7 250.3,78.9 254.6,77.9 259.0,77.7 263.3,77.1 267.6,76.2 271.9,75.2 276.2,74.4 280.6,74.1 284.9,73.6 289.2,73.1 293.5,72.0 297.8,71.0 302.2,70.1 306.5,69.2 310.8,68.7 315.1,68.5 319.4,68.1 323.8,67.3 328.1,66.8 332.4,66.4 336.7,66.0 341.0,65.7 345.4,65.2 349.7,64.8 354.0,64.6 358.3,64.3 362.6,63.3 367.0,62.8 371.3,62.6 375.6,62.2 379.9,62.0 384.2,62.0 388.6,78.6 392.9,77.0 397.2,75.5 401.5,74.0 405.8,69.5 410.2,66.3 414.5,62.9 418.8,61.7 423.1,60.2 427.4,57.9 431.8,55.4 436.1,53.5 440.4,52.8 444.7,52.2 449.0,50.4 453.4,49.0 457.7,48.2 462.0,47.1 466.3,46.7 470.6,46.5 475.0,45.5 479.3,44.0 483.6,42.9 487.9,41.8 492.2,40.5 496.6,39.9 500.9,39.5 505.2,38.4 509.5,37.5 513.8,36.5 518.2,35.8 522.5,35.5 526.8,35.2 531.1,34.7 535.4,33.9 539.8,33.3 544.1,32.7 548.4,32.2 552.7,31.7 557.0,31.2 561.4,30.8 565.7,30.4 570.0,30.0" />
  
  <!-- Punto finale luminoso -->
  <circle cx="570.0" cy="30.0" r="4" fill="#ffffff" stroke="#0366d6" stroke-width="2.5" />
</svg>