<svg width="600" height="150" viewBox="0 0 600 150" xmlns="http://www.w3.org/2000/svg">
  <defs>
    <filter id="shadow2" x="-2%" y="-2%" width="104%" height="108%">
      <feDropShadow dx="0" dy="2" stdDeviation="3" flood-opacity="0.1" />
    </filter>
    <linearGradient id="fillGrad" x1="0" y1="0" x2="0" y2="1">
      <stop offset="0%" stop-color="#0366d6" stop-opacity="0.3"/>
      <stop offset="100%" stop-color="#0366d6" stop-opacity="0.02"/>
    </linearGradient>
  </defs>
  <rect width="600" height="150" rx="12" fill="#ffffff" filter="url(#shadow2)" stroke="#e1e4e8" stroke-width="1"/>
  <text x="20" y="24" fill="#2b3137" font-family="-apple-system,BlinkMacSystemFont,'Segoe UI',Helvetica,Arial,sans-serif" font-size="14" font-weight="600">📈 Download Growth (Actual: 71.8k)</text>
  
  <!-- Area sotto la linea -->
  <polygon fill="url(#fillGrad)" points="30.0,120.0,120 30.0,120.0 36.8,118.0 43.7,115.7 50.5,113.8 57.3,113.3 64.2,112.3 71.0,109.9 77.8,108.3 84.7,107.3 91.5,104.9 98.4,103.6 105.2,102.4 112.0,101.7 118.9,100.6 125.7,99.0 132.5,97.2 139.4,95.9 146.2,95.0 153.0,94.3 159.9,93.2 166.7,91.9 173.5,90.8 180.4,90.3 187.2,89.2 194.1,85.3 200.9,84.2 207.7,82.7 214.6,81.2 221.4,79.8 228.2,78.6 235.1,77.7 241.9,77.1 248.7,76.0 255.6,74.2 262.4,72.6 269.2,71.5 276.1,70.2 282.9,69.8 289.7,69.5 296.6,68.8 303.4,67.6 310.3,66.9 317.1,66.3 323.9,64.9 330.8,62.9 337.6,62.4 344.4,62.0 351.3,61.2 358.1,59.5 364.9,58.4 371.8,56.8 378.6,55.5 385.4,54.0 392.3,53.7 399.1,52.8 405.9,51.3 412.8,49.7 419.6,48.5 426.5,48.0 433.3,47.2 440.1,46.5 447.0,44.8 453.8,43.2 460.6,41.8 467.5,40.4 474.3,39.6 481.1,39.2 488.0,38.6 494.8,37.4 501.6,36.6 508.5,36.0 515.3,35.4 522.2,34.9 529.0,34.0 535.8,33.5 542.7,33.1 549.5,32.7 556.3,31.2 563.2,30.3 570.0,30.0 570.0,30.0,120" />
  
  <!-- Linea principale -->
  <polyline fill="none" stroke="#0366d6" stroke-width="2.5" stroke-linecap="round" stroke-linejoin="round" points="30.0,120.0 36.8,118.0 43.7,115.7 50.5,113.8 57.3,113.3 64.2,112.3 71.0,109.9 77.8,108.3 84.7,107.3 91.5,104.9 98.4,103.6 105.2,102.4 112.0,101.7 118.9,100.6 125.7,99.0 132.5,97.2 139.4,95.9 146.2,95.0 153.0,94.3 159.9,93.2 166.7,91.9 173.5,90.8 180.4,90.3 187.2,89.2 194.1,85.3 200.9,84.2 207.7,82.7 214.6,81.2 221.4,79.8 228.2,78.6 235.1,77.7 241.9,77.1 248.7,76.0 255.6,74.2 262.4,72.6 269.2,71.5 276.1,70.2 282.9,69.8 289.7,69.5 296.6,68.8 303.4,67.6 310.3,66.9 317.1,66.3 323.9,64.9 330.8,62.9 337.6,62.4 344.4,62.0 351.3,61.2 358.1,59.5 364.9,58.4 371.8,56.8 378.6,55.5 385.4,54.0 392.3,53.7 399.1,52.8 405.9,51.3 412.8,49.7 419.6,48.5 426.5,48.0 433.3,47.2 440.1,46.5 447.0,44.8 453.8,43.2 460.6,41.8 467.5,40.4 474.3,39.6 481.1,39.2 488.0,38.6 494.8,37.4 501.6,36.6 508.5,36.0 515.3,35.4 522.2,34.9 529.0,34.0 535.8,33.5 542.7,33.1 549.5,32.7 556.3,31.2 563.2,30.3 570.0,30.0" />
  
  <!-- Punto finale luminoso -->
  <circle cx="570.0" cy="30.0" r="4" fill="#ffffff" stroke="#0366d6" stroke-width="2.5" />
</svg>