<svg width="600" height="150" viewBox="0 0 600 150" xmlns="http://www.w3.org/2000/svg">
  <defs>
    <filter id="shadow2" x="-2%" y="-2%" width="104%" height="108%">
      <feDropShadow dx="0" dy="2" stdDeviation="3" flood-opacity="0.1" />
    </filter>
    <linearGradient id="fillGrad" x1="0" y1="0" x2="0" y2="1">
      <stop offset="0%" stop-color="#0366d6" stop-opacity="0.3"/>
      <stop offset="100%" stop-color="#0366d6" stop-opacity="0.02"/>
    </linearGradient>
  </defs>
  <rect width="600" height="150" rx="12" fill="#ffffff" filter="url(#shadow2)" stroke="#e1e4e8" stroke-width="1"/>
  <text x="20" y="24" fill="#2b3137" font-family="-apple-system,BlinkMacSystemFont,'Segoe UI',Helvetica,Arial,sans-serif" font-size="14" font-weight="600">📈 Download Growth (Actual: 88.0k)</text>
  
  <!-- Area sotto la linea -->
  <polygon fill="url(#fillGrad)" points="30.0,120.0,120 30.0,120.0 31.3,119.5 32.5,119.0 33.8,118.6 35.1,118.4 36.4,118.2 37.6,117.6 38.9,117.3 40.2,117.0 41.5,116.5 42.7,116.2 44.0,115.9 45.3,115.7 46.6,115.5 47.8,115.1 49.1,114.7 50.4,114.3 51.7,114.1 52.9,114.0 54.2,113.7 55.5,113.4 56.7,113.2 58.0,113.0 59.3,112.8 60.6,111.9 61.8,111.6 63.1,111.3 64.4,110.9 65.7,110.6 66.9,110.3 68.2,110.1 69.5,109.9 70.8,109.7 72.0,109.3 73.3,108.9 74.6,108.6 75.8,108.3 77.1,108.2 78.4,108.2 79.7,108.0 80.9,107.7 82.2,107.6 83.5,107.4 84.8,107.1 86.0,106.6 87.3,106.5 88.6,106.4 89.9,106.2 91.1,105.8 92.4,105.6 93.7,105.2 95.0,104.9 96.2,104.5 97.5,104.5 98.8,104.3 100.0,103.9 101.3,103.5 102.6,103.3 103.9,103.1 105.1,103.0 106.4,102.8 107.7,102.4 109.0,102.0 110.2,101.7 111.5,101.3 112.8,101.2 114.1,101.1 115.3,100.9 116.6,100.7 117.9,100.5 119.2,100.3 120.4,100.2 121.7,100.1 123.0,99.9 124.2,99.7 125.5,99.6 126.8,99.6 128.1,99.2 129.3,99.0 130.6,98.9 131.9,98.8 133.2,98.7 134.4,98.7 135.7,104.8 137.0,104.2 138.3,103.7 139.5,103.1 140.8,101.4 142.1,100.3 143.3,99.0 144.6,98.6 145.9,98.1 147.2,97.2 148.4,96.3 149.7,95.6 151.0,95.3 152.3,95.1 153.5,94.4 154.8,93.9 156.1,93.6 157.4,93.2 158.6,93.1 159.9,93.0 161.2,92.7 162.5,92.1 163.7,91.7 165.0,91.3 166.3,90.8 167.5,90.6 168.8,90.4 170.1,90.0 171.4,89.7 172.6,89.3 173.9,89.1 175.2,89.0 176.5,88.9 177.7,88.7 179.0,88.4 180.3,88.1 181.6,87.9 182.8,87.7 184.1,87.6 185.4,87.4 186.7,87.2 187.9,87.1 189.2,86.9 190.5,86.6 191.7,86.4 193.0,86.1 194.3,86.0 195.6,85.8 196.8,85.7 198.1,85.5 199.4,85.4 200.7,84.9 201.9,84.6 203.2,84.3 204.5,84.1 205.8,84.1 207.0,83.9 208.3,83.7 209.6,83.5 210.8,83.3 212.1,83.0 213.4,82.8 214.7,82.8 215.9,82.6 217.2,82.5 218.5,82.4 219.8,82.2 221.0,82.0 222.3,81.8 223.6,81.7 224.9,81.6 226.1,81.4 227.4,81.4 228.7,81.1 230.0,81.0 231.2,80.7 232.5,80.6 233.8,80.4 235.0,80.2 236.3,80.1 237.6,80.0 238.9,79.7 240.1,79.5 241.4,79.3 242.7,79.1 244.0,78.8 245.2,78.7 246.5,78.6 247.8,78.5 249.1,78.3 250.3,78.2 251.6,78.0 252.9,77.9 254.2,77.7 255.4,77.6 256.7,77.4 258.0,77.3 259.2,77.2 260.5,77.1 261.8,76.8 263.1,76.7 264.3,76.5 265.6,76.4 266.9,76.3 268.2,76.2 269.4,76.1 270.7,76.0 272.0,75.8 273.3,75.5 274.5,75.3 275.8,75.1 277.1,74.9 278.3,74.9 279.6,74.8 280.9,74.6 282.2,74.4 283.4,74.3 284.7,74.2 286.0,74.0 287.3,73.9 288.5,73.7 289.8,73.6 291.1,73.5 292.4,73.3 293.6,73.1 294.9,72.9 296.2,72.7 297.5,72.6 298.7,72.6 300.0,72.5 301.3,72.4 302.5,72.2 303.8,72.1 305.1,71.9 306.4,71.8 307.6,71.7 308.9,71.6 310.2,71.4 311.5,71.3 312.7,71.1 314.0,70.9 315.3,70.8 316.6,70.6 317.8,70.5 319.1,70.4 320.4,70.3 321.7,70.3 322.9,70.2 324.2,70.0 325.5,69.8 326.7,69.7 328.0,69.5 329.3,69.5 330.6,69.3 331.8,69.2 333.1,69.0 334.4,68.9 335.7,68.8 336.9,68.7 338.2,68.5 339.5,68.4 340.8,68.3 342.0,68.2 343.3,68.1 344.6,68.0 345.8,67.9 347.1,67.8 348.4,67.6 349.7,67.6 350.9,67.5 352.2,67.2 353.5,67.0 354.8,71.0 356.0,70.2 357.3,68.7 358.6,68.1 359.9,67.4 361.1,66.6 362.4,66.1 363.7,65.8 365.0,65.2 366.2,64.4 367.5,63.7 368.8,63.5 370.0,63.2 371.3,62.9 372.6,62.5 373.9,62.1 375.1,61.6 376.4,61.3 377.7,60.9 379.0,60.7 380.2,60.4 381.5,60.2 382.8,60.0 384.1,59.7 385.3,59.3 386.6,59.0 387.9,58.6 389.2,58.1 390.4,57.7 391.7,57.6 393.0,57.4 394.2,57.2 395.5,56.8 396.8,56.5 398.1,56.3 399.3,55.4 400.6,54.8 401.9,54.5 403.2,54.4 404.4,54.1 405.7,53.7 407.0,53.3 408.3,53.0 409.5,52.8 410.8,52.5 412.1,52.2 413.3,51.9 414.6,51.6 415.9,51.3 417.2,51.2 418.4,51.0 419.7,50.7 421.0,50.4 422.3,50.2 423.5,50.1 424.8,49.9 426.1,49.7 427.4,49.5 428.6,49.3 429.9,49.2 431.2,49.0 432.5,48.9 433.7,48.6 435.0,48.4 436.3,48.1 437.5,47.8 438.8,47.5 440.1,47.4 441.4,47.2 442.6,47.1 443.9,46.9 445.2,46.7 446.5,46.6 447.7,46.5 449.0,46.3 450.3,46.2 451.6,46.1 452.8,45.8 454.1,45.7 455.4,45.5 456.7,45.3 457.9,45.0 459.2,44.6 460.5,44.5 461.7,44.3 463.0,44.1 464.3,43.9 465.6,43.7 466.8,43.4 468.1,43.2 469.4,43.2 470.7,43.0 471.9,42.8 473.2,42.6 474.5,42.4 475.8,42.3 477.0,42.1 478.3,41.9 479.6,41.7 480.8,41.5 482.1,41.3 483.4,41.0 484.7,40.8 485.9,40.7 487.2,40.5 488.5,40.4 489.8,40.3 491.0,40.1 492.3,39.9 493.6,39.7 494.9,39.6 496.1,39.4 497.4,39.3 498.7,39.1 500.0,39.0 501.2,38.8 502.5,38.7 503.8,38.6 505.0,38.5 506.3,38.3 507.6,38.1 508.9,38.0 510.1,37.9 511.4,37.7 512.7,37.5 514.0,37.3 515.2,37.2 516.5,37.1 517.8,37.0 519.1,36.7 520.3,36.5 521.6,36.3 522.9,36.2 524.2,36.1 525.4,36.0 526.7,35.8 528.0,35.7 529.2,35.5 530.5,35.2 531.8,35.1 533.1,34.9 534.3,34.8 535.6,34.7 536.9,34.5 538.2,34.3 539.4,34.1 540.7,33.9 542.0,33.8 543.3,33.6 544.5,33.4 545.8,33.2 547.1,33.0 548.3,32.9 549.6,32.7 550.9,32.4 552.2,32.2 553.4,32.1 554.7,32.0 556.0,31.8 557.3,31.6 558.5,31.5 559.8,31.3 561.1,31.2 562.4,31.0 563.6,30.7 564.9,30.6 566.2,30.4 567.5,30.3 568.7,30.1 570.0,30.0 570.0,30.0,120" />
  
  <!-- Linea principale -->
  <polyline fill="none" stroke="#0366d6" stroke-width="2.5" stroke-linecap="round" stroke-linejoin="round" points="30.0,120.0 31.3,119.5 32.5,119.0 33.8,118.6 35.1,118.4 36.4,118.2 37.6,117.6 38.9,117.3 40.2,117.0 41.5,116.5 42.7,116.2 44.0,115.9 45.3,115.7 46.6,115.5 47.8,115.1 49.1,114.7 50.4,114.3 51.7,114.1 52.9,114.0 54.2,113.7 55.5,113.4 56.7,113.2 58.0,113.0 59.3,112.8 60.6,111.9 61.8,111.6 63.1,111.3 64.4,110.9 65.7,110.6 66.9,110.3 68.2,110.1 69.5,109.9 70.8,109.7 72.0,109.3 73.3,108.9 74.6,108.6 75.8,108.3 77.1,108.2 78.4,108.2 79.7,108.0 80.9,107.7 82.2,107.6 83.5,107.4 84.8,107.1 86.0,106.6 87.3,106.5 88.6,106.4 89.9,106.2 91.1,105.8 92.4,105.6 93.7,105.2 95.0,104.9 96.2,104.5 97.5,104.5 98.8,104.3 100.0,103.9 101.3,103.5 102.6,103.3 103.9,103.1 105.1,103.0 106.4,102.8 107.7,102.4 109.0,102.0 110.2,101.7 111.5,101.3 112.8,101.2 114.1,101.1 115.3,100.9 116.6,100.7 117.9,100.5 119.2,100.3 120.4,100.2 121.7,100.1 123.0,99.9 124.2,99.7 125.5,99.6 126.8,99.6 128.1,99.2 129.3,99.0 130.6,98.9 131.9,98.8 133.2,98.7 134.4,98.7 135.7,104.8 137.0,104.2 138.3,103.7 139.5,103.1 140.8,101.4 142.1,100.3 143.3,99.0 144.6,98.6 145.9,98.1 147.2,97.2 148.4,96.3 149.7,95.6 151.0,95.3 152.3,95.1 153.5,94.4 154.8,93.9 156.1,93.6 157.4,93.2 158.6,93.1 159.9,93.0 161.2,92.7 162.5,92.1 163.7,91.7 165.0,91.3 166.3,90.8 167.5,90.6 168.8,90.4 170.1,90.0 171.4,89.7 172.6,89.3 173.9,89.1 175.2,89.0 176.5,88.9 177.7,88.7 179.0,88.4 180.3,88.1 181.6,87.9 182.8,87.7 184.1,87.6 185.4,87.4 186.7,87.2 187.9,87.1 189.2,86.9 190.5,86.6 191.7,86.4 193.0,86.1 194.3,86.0 195.6,85.8 196.8,85.7 198.1,85.5 199.4,85.4 200.7,84.9 201.9,84.6 203.2,84.3 204.5,84.1 205.8,84.1 207.0,83.9 208.3,83.7 209.6,83.5 210.8,83.3 212.1,83.0 213.4,82.8 214.7,82.8 215.9,82.6 217.2,82.5 218.5,82.4 219.8,82.2 221.0,82.0 222.3,81.8 223.6,81.7 224.9,81.6 226.1,81.4 227.4,81.4 228.7,81.1 230.0,81.0 231.2,80.7 232.5,80.6 233.8,80.4 235.0,80.2 236.3,80.1 237.6,80.0 238.9,79.7 240.1,79.5 241.4,79.3 242.7,79.1 244.0,78.8 245.2,78.7 246.5,78.6 247.8,78.5 249.1,78.3 250.3,78.2 251.6,78.0 252.9,77.9 254.2,77.7 255.4,77.6 256.7,77.4 258.0,77.3 259.2,77.2 260.5,77.1 261.8,76.8 263.1,76.7 264.3,76.5 265.6,76.4 266.9,76.3 268.2,76.2 269.4,76.1 270.7,76.0 272.0,75.8 273.3,75.5 274.5,75.3 275.8,75.1 277.1,74.9 278.3,74.9 279.6,74.8 280.9,74.6 282.2,74.4 283.4,74.3 284.7,74.2 286.0,74.0 287.3,73.9 288.5,73.7 289.8,73.6 291.1,73.5 292.4,73.3 293.6,73.1 294.9,72.9 296.2,72.7 297.5,72.6 298.7,72.6 300.0,72.5 301.3,72.4 302.5,72.2 303.8,72.1 305.1,71.9 306.4,71.8 307.6,71.7 308.9,71.6 310.2,71.4 311.5,71.3 312.7,71.1 314.0,70.9 315.3,70.8 316.6,70.6 317.8,70.5 319.1,70.4 320.4,70.3 321.7,70.3 322.9,70.2 324.2,70.0 325.5,69.8 326.7,69.7 328.0,69.5 329.3,69.5 330.6,69.3 331.8,69.2 333.1,69.0 334.4,68.9 335.7,68.8 336.9,68.7 338.2,68.5 339.5,68.4 340.8,68.3 342.0,68.2 343.3,68.1 344.6,68.0 345.8,67.9 347.1,67.8 348.4,67.6 349.7,67.6 350.9,67.5 352.2,67.2 353.5,67.0 354.8,71.0 356.0,70.2 357.3,68.7 358.6,68.1 359.9,67.4 361.1,66.6 362.4,66.1 363.7,65.8 365.0,65.2 366.2,64.4 367.5,63.7 368.8,63.5 370.0,63.2 371.3,62.9 372.6,62.5 373.9,62.1 375.1,61.6 376.4,61.3 377.7,60.9 379.0,60.7 380.2,60.4 381.5,60.2 382.8,60.0 384.1,59.7 385.3,59.3 386.6,59.0 387.9,58.6 389.2,58.1 390.4,57.7 391.7,57.6 393.0,57.4 394.2,57.2 395.5,56.8 396.8,56.5 398.1,56.3 399.3,55.4 400.6,54.8 401.9,54.5 403.2,54.4 404.4,54.1 405.7,53.7 407.0,53.3 408.3,53.0 409.5,52.8 410.8,52.5 412.1,52.2 413.3,51.9 414.6,51.6 415.9,51.3 417.2,51.2 418.4,51.0 419.7,50.7 421.0,50.4 422.3,50.2 423.5,50.1 424.8,49.9 426.1,49.7 427.4,49.5 428.6,49.3 429.9,49.2 431.2,49.0 432.5,48.9 433.7,48.6 435.0,48.4 436.3,48.1 437.5,47.8 438.8,47.5 440.1,47.4 441.4,47.2 442.6,47.1 443.9,46.9 445.2,46.7 446.5,46.6 447.7,46.5 449.0,46.3 450.3,46.2 451.6,46.1 452.8,45.8 454.1,45.7 455.4,45.5 456.7,45.3 457.9,45.0 459.2,44.6 460.5,44.5 461.7,44.3 463.0,44.1 464.3,43.9 465.6,43.7 466.8,43.4 468.1,43.2 469.4,43.2 470.7,43.0 471.9,42.8 473.2,42.6 474.5,42.4 475.8,42.3 477.0,42.1 478.3,41.9 479.6,41.7 480.8,41.5 482.1,41.3 483.4,41.0 484.7,40.8 485.9,40.7 487.2,40.5 488.5,40.4 489.8,40.3 491.0,40.1 492.3,39.9 493.6,39.7 494.9,39.6 496.1,39.4 497.4,39.3 498.7,39.1 500.0,39.0 501.2,38.8 502.5,38.7 503.8,38.6 505.0,38.5 506.3,38.3 507.6,38.1 508.9,38.0 510.1,37.9 511.4,37.7 512.7,37.5 514.0,37.3 515.2,37.2 516.5,37.1 517.8,37.0 519.1,36.7 520.3,36.5 521.6,36.3 522.9,36.2 524.2,36.1 525.4,36.0 526.7,35.8 528.0,35.7 529.2,35.5 530.5,35.2 531.8,35.1 533.1,34.9 534.3,34.8 535.6,34.7 536.9,34.5 538.2,34.3 539.4,34.1 540.7,33.9 542.0,33.8 543.3,33.6 544.5,33.4 545.8,33.2 547.1,33.0 548.3,32.9 549.6,32.7 550.9,32.4 552.2,32.2 553.4,32.1 554.7,32.0 556.0,31.8 557.3,31.6 558.5,31.5 559.8,31.3 561.1,31.2 562.4,31.0 563.6,30.7 564.9,30.6 566.2,30.4 567.5,30.3 568.7,30.1 570.0,30.0" />
  
  <!-- Punto finale luminoso -->
  <circle cx="570.0" cy="30.0" r="4" fill="#ffffff" stroke="#0366d6" stroke-width="2.5" />
</svg>