<svg width="600" height="150" viewBox="0 0 600 150" xmlns="http://www.w3.org/2000/svg">
  <defs>
    <filter id="shadow2" x="-2%" y="-2%" width="104%" height="108%">
      <feDropShadow dx="0" dy="2" stdDeviation="3" flood-opacity="0.1" />
    </filter>
    <linearGradient id="fillGrad" x1="0" y1="0" x2="0" y2="1">
      <stop offset="0%" stop-color="#0366d6" stop-opacity="0.3"/>
      <stop offset="100%" stop-color="#0366d6" stop-opacity="0.02"/>
    </linearGradient>
  </defs>
  <rect width="600" height="150" rx="12" fill="#ffffff" filter="url(#shadow2)" stroke="#e1e4e8" stroke-width="1"/>
  <text x="20" y="24" fill="#2b3137" font-family="-apple-system,BlinkMacSystemFont,'Segoe UI',Helvetica,Arial,sans-serif" font-size="14" font-weight="600">📈 Download Growth (Actual: 85.1k)</text>
  
  <!-- Area sotto la linea -->
  <polygon fill="url(#fillGrad)" points="30.0,120.0,120 30.0,120.0 31.5,119.4 33.1,118.8 34.6,118.3 36.2,118.2 37.7,117.9 39.2,117.3 40.8,116.8 42.3,116.6 43.8,115.9 45.4,115.6 46.9,115.2 48.5,115.0 50.0,114.7 51.5,114.3 53.1,113.8 54.6,113.5 56.2,113.2 57.7,113.0 59.2,112.8 60.8,112.4 62.3,112.1 63.8,112.0 65.4,111.7 66.9,110.6 68.5,110.3 70.0,109.9 71.5,109.5 73.1,109.1 74.6,108.8 76.2,108.6 77.7,108.4 79.2,108.1 80.8,107.6 82.3,107.2 83.8,106.9 85.4,106.5 86.9,106.4 88.5,106.3 90.0,106.1 91.5,105.8 93.1,105.6 94.6,105.5 96.2,105.1 97.7,104.5 99.2,104.4 100.8,104.3 102.3,104.1 103.8,103.6 105.4,103.3 106.9,102.9 108.5,102.5 110.0,102.1 111.5,102.1 113.1,101.8 114.6,101.4 116.2,101.0 117.7,100.7 119.2,100.5 120.8,100.3 122.3,100.1 123.8,99.6 125.4,99.2 126.9,98.8 128.5,98.4 130.0,98.2 131.5,98.1 133.1,98.0 134.6,97.6 136.2,97.4 137.7,97.3 139.2,97.1 140.8,97.0 142.3,96.7 143.8,96.6 145.4,96.5 146.9,96.4 148.5,96.0 150.0,95.7 151.5,95.6 153.1,95.5 154.6,95.4 156.2,95.4 157.7,102.4 159.2,101.7 160.8,101.1 162.3,100.5 163.8,98.6 165.4,97.2 166.9,95.8 168.5,95.2 170.0,94.6 171.5,93.7 173.1,92.6 174.6,91.8 176.2,91.5 177.7,91.2 179.2,90.4 180.8,89.9 182.3,89.5 183.8,89.1 185.4,88.9 186.9,88.8 188.5,88.4 190.0,87.7 191.5,87.3 193.1,86.8 194.6,86.3 196.2,86.0 197.7,85.8 199.2,85.4 200.8,85.0 202.3,84.6 203.8,84.3 205.4,84.1 206.9,84.0 208.5,83.8 210.0,83.4 211.5,83.2 213.1,82.9 214.6,82.7 216.2,82.5 217.7,82.3 219.2,82.1 220.8,82.0 222.3,81.8 223.8,81.4 225.4,81.2 226.9,80.9 228.5,80.7 230.0,80.5 231.5,80.3 233.1,80.2 234.6,80.0 236.2,79.5 237.7,79.1 239.2,78.7 240.8,78.6 242.3,78.5 243.8,78.3 245.4,78.1 246.9,77.8 248.5,77.6 250.0,77.3 251.5,77.1 253.1,77.0 254.6,76.8 256.2,76.7 257.7,76.5 259.2,76.3 260.8,76.1 262.3,75.8 263.8,75.7 265.4,75.6 266.9,75.5 268.5,75.4 270.0,75.1 271.5,74.9 273.1,74.6 274.6,74.4 276.2,74.2 277.7,74.0 279.2,73.9 280.8,73.8 282.3,73.5 283.8,73.2 285.4,73.0 286.9,72.7 288.5,72.4 290.0,72.3 291.5,72.1 293.1,72.0 294.6,71.8 296.2,71.7 297.7,71.5 299.2,71.3 300.8,71.1 302.3,71.0 303.8,70.8 305.4,70.7 306.9,70.6 308.5,70.4 310.0,70.1 311.5,70.0 313.1,69.8 314.6,69.7 316.2,69.5 317.7,69.4 319.2,69.2 320.8,69.1 322.3,68.9 323.8,68.6 325.4,68.3 326.9,68.1 328.5,67.9 330.0,67.9 331.5,67.8 333.1,67.6 334.6,67.3 336.2,67.2 337.7,67.1 339.2,66.8 340.8,66.7 342.3,66.5 343.8,66.4 345.4,66.3 346.9,66.0 348.5,65.8 350.0,65.6 351.5,65.4 353.1,65.3 354.6,65.2 356.2,65.1 357.7,65.0 359.2,64.8 360.8,64.6 362.3,64.5 363.8,64.3 365.4,64.2 366.9,64.0 368.5,63.9 370.0,63.8 371.5,63.5 373.1,63.3 374.6,63.1 376.2,62.9 377.7,62.8 379.2,62.7 380.8,62.6 382.3,62.5 383.8,62.4 385.4,62.3 386.9,62.0 388.5,61.9 390.0,61.7 391.5,61.6 393.1,61.4 394.6,61.3 396.2,61.1 397.7,61.0 399.2,60.9 400.8,60.7 402.3,60.5 403.8,60.4 405.4,60.2 406.9,60.1 408.5,60.0 410.0,59.9 411.5,59.8 413.1,59.6 414.6,59.5 416.2,59.5 417.7,59.3 419.2,59.0 420.8,58.8 422.3,63.4 423.8,62.5 425.4,60.7 426.9,60.1 428.5,59.3 430.0,58.3 431.5,57.7 433.1,57.4 434.6,56.7 436.2,55.7 437.7,55.0 439.2,54.7 440.8,54.3 442.3,54.0 443.8,53.5 445.4,53.0 446.9,52.5 448.5,52.2 450.0,51.7 451.5,51.5 453.1,51.1 454.6,50.9 456.2,50.6 457.7,50.4 459.2,49.9 460.8,49.5 462.3,49.1 463.8,48.4 465.4,48.1 466.9,47.9 468.5,47.7 470.0,47.4 471.5,47.0 473.1,46.7 474.6,46.3 476.2,45.4 477.7,44.7 479.2,44.3 480.8,44.2 482.3,43.8 483.8,43.4 485.4,42.9 486.9,42.6 488.5,42.3 490.0,42.0 491.5,41.6 493.1,41.3 494.6,40.9 496.2,40.7 497.7,40.5 499.2,40.3 500.8,39.9 502.3,39.6 503.8,39.3 505.4,39.2 506.9,39.0 508.5,38.7 510.0,38.6 511.5,38.3 513.1,38.2 514.6,38.0 516.2,37.8 517.7,37.5 519.2,37.3 520.8,36.9 522.3,36.5 523.8,36.3 525.4,36.1 526.9,35.9 528.5,35.7 530.0,35.5 531.5,35.3 533.1,35.2 534.6,35.1 536.2,34.9 537.7,34.7 539.2,34.6 540.8,34.2 542.3,34.1 543.8,33.9 545.4,33.7 546.9,33.3 548.5,32.9 550.0,32.7 551.5,32.5 553.1,32.3 554.6,32.0 556.2,31.8 557.7,31.5 559.2,31.3 560.8,31.2 562.3,31.1 563.8,30.8 565.4,30.6 566.9,30.4 568.5,30.3 570.0,30.0 570.0,30.0,120" />
  
  <!-- Linea principale -->
  <polyline fill="none" stroke="#0366d6" stroke-width="2.5" stroke-linecap="round" stroke-linejoin="round" points="30.0,120.0 31.5,119.4 33.1,118.8 34.6,118.3 36.2,118.2 37.7,117.9 39.2,117.3 40.8,116.8 42.3,116.6 43.8,115.9 45.4,115.6 46.9,115.2 48.5,115.0 50.0,114.7 51.5,114.3 53.1,113.8 54.6,113.5 56.2,113.2 57.7,113.0 59.2,112.8 60.8,112.4 62.3,112.1 63.8,112.0 65.4,111.7 66.9,110.6 68.5,110.3 70.0,109.9 71.5,109.5 73.1,109.1 74.6,108.8 76.2,108.6 77.7,108.4 79.2,108.1 80.8,107.6 82.3,107.2 83.8,106.9 85.4,106.5 86.9,106.4 88.5,106.3 90.0,106.1 91.5,105.8 93.1,105.6 94.6,105.5 96.2,105.1 97.7,104.5 99.2,104.4 100.8,104.3 102.3,104.1 103.8,103.6 105.4,103.3 106.9,102.9 108.5,102.5 110.0,102.1 111.5,102.1 113.1,101.8 114.6,101.4 116.2,101.0 117.7,100.7 119.2,100.5 120.8,100.3 122.3,100.1 123.8,99.6 125.4,99.2 126.9,98.8 128.5,98.4 130.0,98.2 131.5,98.1 133.1,98.0 134.6,97.6 136.2,97.4 137.7,97.3 139.2,97.1 140.8,97.0 142.3,96.7 143.8,96.6 145.4,96.5 146.9,96.4 148.5,96.0 150.0,95.7 151.5,95.6 153.1,95.5 154.6,95.4 156.2,95.4 157.7,102.4 159.2,101.7 160.8,101.1 162.3,100.5 163.8,98.6 165.4,97.2 166.9,95.8 168.5,95.2 170.0,94.6 171.5,93.7 173.1,92.6 174.6,91.8 176.2,91.5 177.7,91.2 179.2,90.4 180.8,89.9 182.3,89.5 183.8,89.1 185.4,88.9 186.9,88.8 188.5,88.4 190.0,87.7 191.5,87.3 193.1,86.8 194.6,86.3 196.2,86.0 197.7,85.8 199.2,85.4 200.8,85.0 202.3,84.6 203.8,84.3 205.4,84.1 206.9,84.0 208.5,83.8 210.0,83.4 211.5,83.2 213.1,82.9 214.6,82.7 216.2,82.5 217.7,82.3 219.2,82.1 220.8,82.0 222.3,81.8 223.8,81.4 225.4,81.2 226.9,80.9 228.5,80.7 230.0,80.5 231.5,80.3 233.1,80.2 234.6,80.0 236.2,79.5 237.7,79.1 239.2,78.7 240.8,78.6 242.3,78.5 243.8,78.3 245.4,78.1 246.9,77.8 248.5,77.6 250.0,77.3 251.5,77.1 253.1,77.0 254.6,76.8 256.2,76.7 257.7,76.5 259.2,76.3 260.8,76.1 262.3,75.8 263.8,75.7 265.4,75.6 266.9,75.5 268.5,75.4 270.0,75.1 271.5,74.9 273.1,74.6 274.6,74.4 276.2,74.2 277.7,74.0 279.2,73.9 280.8,73.8 282.3,73.5 283.8,73.2 285.4,73.0 286.9,72.7 288.5,72.4 290.0,72.3 291.5,72.1 293.1,72.0 294.6,71.8 296.2,71.7 297.7,71.5 299.2,71.3 300.8,71.1 302.3,71.0 303.8,70.8 305.4,70.7 306.9,70.6 308.5,70.4 310.0,70.1 311.5,70.0 313.1,69.8 314.6,69.7 316.2,69.5 317.7,69.4 319.2,69.2 320.8,69.1 322.3,68.9 323.8,68.6 325.4,68.3 326.9,68.1 328.5,67.9 330.0,67.9 331.5,67.8 333.1,67.6 334.6,67.3 336.2,67.2 337.7,67.1 339.2,66.8 340.8,66.7 342.3,66.5 343.8,66.4 345.4,66.3 346.9,66.0 348.5,65.8 350.0,65.6 351.5,65.4 353.1,65.3 354.6,65.2 356.2,65.1 357.7,65.0 359.2,64.8 360.8,64.6 362.3,64.5 363.8,64.3 365.4,64.2 366.9,64.0 368.5,63.9 370.0,63.8 371.5,63.5 373.1,63.3 374.6,63.1 376.2,62.9 377.7,62.8 379.2,62.7 380.8,62.6 382.3,62.5 383.8,62.4 385.4,62.3 386.9,62.0 388.5,61.9 390.0,61.7 391.5,61.6 393.1,61.4 394.6,61.3 396.2,61.1 397.7,61.0 399.2,60.9 400.8,60.7 402.3,60.5 403.8,60.4 405.4,60.2 406.9,60.1 408.5,60.0 410.0,59.9 411.5,59.8 413.1,59.6 414.6,59.5 416.2,59.5 417.7,59.3 419.2,59.0 420.8,58.8 422.3,63.4 423.8,62.5 425.4,60.7 426.9,60.1 428.5,59.3 430.0,58.3 431.5,57.7 433.1,57.4 434.6,56.7 436.2,55.7 437.7,55.0 439.2,54.7 440.8,54.3 442.3,54.0 443.8,53.5 445.4,53.0 446.9,52.5 448.5,52.2 450.0,51.7 451.5,51.5 453.1,51.1 454.6,50.9 456.2,50.6 457.7,50.4 459.2,49.9 460.8,49.5 462.3,49.1 463.8,48.4 465.4,48.1 466.9,47.9 468.5,47.7 470.0,47.4 471.5,47.0 473.1,46.7 474.6,46.3 476.2,45.4 477.7,44.7 479.2,44.3 480.8,44.2 482.3,43.8 483.8,43.4 485.4,42.9 486.9,42.6 488.5,42.3 490.0,42.0 491.5,41.6 493.1,41.3 494.6,40.9 496.2,40.7 497.7,40.5 499.2,40.3 500.8,39.9 502.3,39.6 503.8,39.3 505.4,39.2 506.9,39.0 508.5,38.7 510.0,38.6 511.5,38.3 513.1,38.2 514.6,38.0 516.2,37.8 517.7,37.5 519.2,37.3 520.8,36.9 522.3,36.5 523.8,36.3 525.4,36.1 526.9,35.9 528.5,35.7 530.0,35.5 531.5,35.3 533.1,35.2 534.6,35.1 536.2,34.9 537.7,34.7 539.2,34.6 540.8,34.2 542.3,34.1 543.8,33.9 545.4,33.7 546.9,33.3 548.5,32.9 550.0,32.7 551.5,32.5 553.1,32.3 554.6,32.0 556.2,31.8 557.7,31.5 559.2,31.3 560.8,31.2 562.3,31.1 563.8,30.8 565.4,30.6 566.9,30.4 568.5,30.3 570.0,30.0" />
  
  <!-- Punto finale luminoso -->
  <circle cx="570.0" cy="30.0" r="4" fill="#ffffff" stroke="#0366d6" stroke-width="2.5" />
</svg>