<svg width="600" height="150" viewBox="0 0 600 150" xmlns="http://www.w3.org/2000/svg">
  <defs>
    <filter id="shadow2" x="-2%" y="-2%" width="104%" height="108%">
      <feDropShadow dx="0" dy="2" stdDeviation="3" flood-opacity="0.1" />
    </filter>
    <linearGradient id="fillGrad" x1="0" y1="0" x2="0" y2="1">
      <stop offset="0%" stop-color="#0366d6" stop-opacity="0.3"/>
      <stop offset="100%" stop-color="#0366d6" stop-opacity="0.02"/>
    </linearGradient>
  </defs>
  <rect width="600" height="150" rx="12" fill="#ffffff" filter="url(#shadow2)" stroke="#e1e4e8" stroke-width="1"/>
  <text x="20" y="24" fill="#2b3137" font-family="-apple-system,BlinkMacSystemFont,'Segoe UI',Helvetica,Arial,sans-serif" font-size="14" font-weight="600">📈 Download Growth (Actual: 72.9k)</text>
  
  <!-- Area sotto la linea -->
  <polygon fill="url(#fillGrad)" points="30.0,120.0,120 30.0,120.0 35.6,118.3 41.1,116.5 46.7,114.9 52.3,114.5 57.8,113.6 63.4,111.7 69.0,110.4 74.5,109.5 80.1,107.5 85.7,106.5 91.2,105.5 96.8,104.9 102.4,104.0 107.9,102.7 113.5,101.2 119.1,100.1 124.6,99.4 130.2,98.8 135.8,97.9 141.3,96.9 146.9,95.9 152.5,95.5 158.0,94.6 163.6,91.4 169.2,90.5 174.7,89.2 180.3,88.0 185.9,86.9 191.4,85.8 197.0,85.2 202.6,84.6 208.1,83.7 213.7,82.2 219.3,80.9 224.8,80.0 230.4,78.9 236.0,78.6 241.5,78.4 247.1,77.8 252.7,76.8 258.2,76.2 263.8,75.8 269.4,74.6 274.9,72.9 280.5,72.5 286.1,72.2 291.6,71.5 297.2,70.1 302.8,69.3 308.4,67.9 313.9,66.9 319.5,65.6 325.1,65.4 330.6,64.6 336.2,63.3 341.8,62.1 347.3,61.1 352.9,60.7 358.5,60.0 364.0,59.4 369.6,58.0 375.2,56.7 380.7,55.5 386.3,54.3 391.9,53.7 397.4,53.4 403.0,52.9 408.6,51.9 414.1,51.3 419.7,50.7 425.3,50.3 430.8,49.8 436.4,49.1 442.0,48.7 447.5,48.4 453.1,48.1 458.7,46.8 464.2,46.0 469.8,45.8 475.4,45.4 480.9,45.1 486.5,45.1 492.1,66.5 497.6,64.4 503.2,62.5 508.8,60.5 514.3,54.7 519.9,50.6 525.5,46.2 531.0,44.6 536.6,42.8 542.2,39.8 547.7,36.5 553.3,34.1 558.9,33.2 564.4,32.3 570.0,30.0 570.0,30.0,120" />
  
  <!-- Linea principale -->
  <polyline fill="none" stroke="#0366d6" stroke-width="2.5" stroke-linecap="round" stroke-linejoin="round" points="30.0,120.0 35.6,118.3 41.1,116.5 46.7,114.9 52.3,114.5 57.8,113.6 63.4,111.7 69.0,110.4 74.5,109.5 80.1,107.5 85.7,106.5 91.2,105.5 96.8,104.9 102.4,104.0 107.9,102.7 113.5,101.2 119.1,100.1 124.6,99.4 130.2,98.8 135.8,97.9 141.3,96.9 146.9,95.9 152.5,95.5 158.0,94.6 163.6,91.4 169.2,90.5 174.7,89.2 180.3,88.0 185.9,86.9 191.4,85.8 197.0,85.2 202.6,84.6 208.1,83.7 213.7,82.2 219.3,80.9 224.8,80.0 230.4,78.9 236.0,78.6 241.5,78.4 247.1,77.8 252.7,76.8 258.2,76.2 263.8,75.8 269.4,74.6 274.9,72.9 280.5,72.5 286.1,72.2 291.6,71.5 297.2,70.1 302.8,69.3 308.4,67.9 313.9,66.9 319.5,65.6 325.1,65.4 330.6,64.6 336.2,63.3 341.8,62.1 347.3,61.1 352.9,60.7 358.5,60.0 364.0,59.4 369.6,58.0 375.2,56.7 380.7,55.5 386.3,54.3 391.9,53.7 397.4,53.4 403.0,52.9 408.6,51.9 414.1,51.3 419.7,50.7 425.3,50.3 430.8,49.8 436.4,49.1 442.0,48.7 447.5,48.4 453.1,48.1 458.7,46.8 464.2,46.0 469.8,45.8 475.4,45.4 480.9,45.1 486.5,45.1 492.1,66.5 497.6,64.4 503.2,62.5 508.8,60.5 514.3,54.7 519.9,50.6 525.5,46.2 531.0,44.6 536.6,42.8 542.2,39.8 547.7,36.5 553.3,34.1 558.9,33.2 564.4,32.3 570.0,30.0" />
  
  <!-- Punto finale luminoso -->
  <circle cx="570.0" cy="30.0" r="4" fill="#ffffff" stroke="#0366d6" stroke-width="2.5" />
</svg>