<svg width="600" height="150" viewBox="0 0 600 150" xmlns="http://www.w3.org/2000/svg">
  <defs>
    <filter id="shadow2" x="-2%" y="-2%" width="104%" height="108%">
      <feDropShadow dx="0" dy="2" stdDeviation="3" flood-opacity="0.1" />
    </filter>
    <linearGradient id="fillGrad" x1="0" y1="0" x2="0" y2="1">
      <stop offset="0%" stop-color="#0366d6" stop-opacity="0.3"/>
      <stop offset="100%" stop-color="#0366d6" stop-opacity="0.02"/>
    </linearGradient>
  </defs>
  <rect width="600" height="150" rx="12" fill="#ffffff" filter="url(#shadow2)" stroke="#e1e4e8" stroke-width="1"/>
  <text x="20" y="24" fill="#2b3137" font-family="-apple-system,BlinkMacSystemFont,'Segoe UI',Helvetica,Arial,sans-serif" font-size="14" font-weight="600">📈 Download Growth (Actual: 75.5k)</text>
  
  <!-- Area sotto la linea -->
  <polygon fill="url(#fillGrad)" points="30.0,120.0,120 30.0,120.0 33.8,118.8 37.6,117.6 41.3,116.5 45.1,116.2 48.9,115.6 52.7,114.3 56.4,113.4 60.2,112.8 64.0,111.4 67.8,110.7 71.5,110.0 75.3,109.6 79.1,108.9 82.9,108.0 86.6,107.0 90.4,106.2 94.2,105.7 98.0,105.4 101.7,104.7 105.5,104.0 109.3,103.4 113.1,103.0 116.9,102.4 120.6,100.2 124.4,99.6 128.2,98.7 132.0,97.9 135.7,97.1 139.5,96.4 143.3,95.9 147.1,95.5 150.8,94.9 154.6,93.9 158.4,92.9 162.2,92.3 165.9,91.6 169.7,91.4 173.5,91.2 177.3,90.8 181.0,90.1 184.8,89.7 188.6,89.4 192.4,88.6 196.2,87.4 199.9,87.1 203.7,86.9 207.5,86.5 211.3,85.5 215.0,84.9 218.8,83.9 222.6,83.2 226.4,82.4 230.1,82.2 233.9,81.7 237.7,80.8 241.5,79.9 245.2,79.3 249.0,79.0 252.8,78.5 256.6,78.1 260.3,77.1 264.1,76.2 267.9,75.4 271.7,74.6 275.5,74.2 279.2,73.9 283.0,73.6 286.8,72.9 290.6,72.5 294.3,72.1 298.1,71.8 301.9,71.5 305.7,71.0 309.4,70.7 313.2,70.5 317.0,70.2 320.8,69.3 324.5,68.8 328.3,68.7 332.1,68.4 335.9,68.2 339.7,68.2 343.4,83.0 347.2,81.5 351.0,80.2 354.8,78.9 358.5,74.8 362.3,72.0 366.1,69.0 369.9,67.9 373.6,66.6 377.4,64.5 381.2,62.3 385.0,60.6 388.7,60.0 392.5,59.4 396.3,57.7 400.1,56.6 403.8,55.8 407.6,54.9 411.4,54.5 415.2,54.3 419.0,53.4 422.7,52.1 426.5,51.1 430.3,50.1 434.1,49.0 437.8,48.4 441.6,48.0 445.4,47.1 449.2,46.2 452.9,45.4 456.7,44.7 460.5,44.4 464.3,44.2 468.0,43.7 471.8,43.0 475.6,42.5 479.4,41.9 483.1,41.5 486.9,41.1 490.7,40.7 494.5,40.3 498.3,39.9 502.0,39.6 505.8,38.8 509.6,38.2 513.4,37.5 517.1,37.2 520.9,36.7 524.7,36.4 528.5,36.1 532.2,35.7 536.0,34.7 539.8,34.0 543.6,33.1 547.3,32.7 551.1,32.6 554.9,32.2 558.7,31.7 562.4,31.2 566.2,30.7 570.0,30.0 570.0,30.0,120" />
  
  <!-- Linea principale -->
  <polyline fill="none" stroke="#0366d6" stroke-width="2.5" stroke-linecap="round" stroke-linejoin="round" points="30.0,120.0 33.8,118.8 37.6,117.6 41.3,116.5 45.1,116.2 48.9,115.6 52.7,114.3 56.4,113.4 60.2,112.8 64.0,111.4 67.8,110.7 71.5,110.0 75.3,109.6 79.1,108.9 82.9,108.0 86.6,107.0 90.4,106.2 94.2,105.7 98.0,105.4 101.7,104.7 105.5,104.0 109.3,103.4 113.1,103.0 116.9,102.4 120.6,100.2 124.4,99.6 128.2,98.7 132.0,97.9 135.7,97.1 139.5,96.4 143.3,95.9 147.1,95.5 150.8,94.9 154.6,93.9 158.4,92.9 162.2,92.3 165.9,91.6 169.7,91.4 173.5,91.2 177.3,90.8 181.0,90.1 184.8,89.7 188.6,89.4 192.4,88.6 196.2,87.4 199.9,87.1 203.7,86.9 207.5,86.5 211.3,85.5 215.0,84.9 218.8,83.9 222.6,83.2 226.4,82.4 230.1,82.2 233.9,81.7 237.7,80.8 241.5,79.9 245.2,79.3 249.0,79.0 252.8,78.5 256.6,78.1 260.3,77.1 264.1,76.2 267.9,75.4 271.7,74.6 275.5,74.2 279.2,73.9 283.0,73.6 286.8,72.9 290.6,72.5 294.3,72.1 298.1,71.8 301.9,71.5 305.7,71.0 309.4,70.7 313.2,70.5 317.0,70.2 320.8,69.3 324.5,68.8 328.3,68.7 332.1,68.4 335.9,68.2 339.7,68.2 343.4,83.0 347.2,81.5 351.0,80.2 354.8,78.9 358.5,74.8 362.3,72.0 366.1,69.0 369.9,67.9 373.6,66.6 377.4,64.5 381.2,62.3 385.0,60.6 388.7,60.0 392.5,59.4 396.3,57.7 400.1,56.6 403.8,55.8 407.6,54.9 411.4,54.5 415.2,54.3 419.0,53.4 422.7,52.1 426.5,51.1 430.3,50.1 434.1,49.0 437.8,48.4 441.6,48.0 445.4,47.1 449.2,46.2 452.9,45.4 456.7,44.7 460.5,44.4 464.3,44.2 468.0,43.7 471.8,43.0 475.6,42.5 479.4,41.9 483.1,41.5 486.9,41.1 490.7,40.7 494.5,40.3 498.3,39.9 502.0,39.6 505.8,38.8 509.6,38.2 513.4,37.5 517.1,37.2 520.9,36.7 524.7,36.4 528.5,36.1 532.2,35.7 536.0,34.7 539.8,34.0 543.6,33.1 547.3,32.7 551.1,32.6 554.9,32.2 558.7,31.7 562.4,31.2 566.2,30.7 570.0,30.0" />
  
  <!-- Punto finale luminoso -->
  <circle cx="570.0" cy="30.0" r="4" fill="#ffffff" stroke="#0366d6" stroke-width="2.5" />
</svg>