<svg width="600" height="150" viewBox="0 0 600 150" xmlns="http://www.w3.org/2000/svg">
  <defs>
    <filter id="shadow2" x="-2%" y="-2%" width="104%" height="108%">
      <feDropShadow dx="0" dy="2" stdDeviation="3" flood-opacity="0.1" />
    </filter>
    <linearGradient id="fillGrad" x1="0" y1="0" x2="0" y2="1">
      <stop offset="0%" stop-color="#0366d6" stop-opacity="0.3"/>
      <stop offset="100%" stop-color="#0366d6" stop-opacity="0.02"/>
    </linearGradient>
  </defs>
  <rect width="600" height="150" rx="12" fill="#ffffff" filter="url(#shadow2)" stroke="#e1e4e8" stroke-width="1"/>
  <text x="20" y="24" fill="#2b3137" font-family="-apple-system,BlinkMacSystemFont,'Segoe UI',Helvetica,Arial,sans-serif" font-size="14" font-weight="600">📈 Download Growth (Actual: 71.5k)</text>
  
  <!-- Area sotto la linea -->
  <polygon fill="url(#fillGrad)" points="30.0,120.0,120 30.0,120.0 37.5,117.8 45.0,115.5 52.5,113.5 60.0,112.9 67.5,111.8 75.0,109.3 82.5,107.7 90.0,106.6 97.5,104.0 105.0,102.7 112.5,101.4 120.0,100.7 127.5,99.5 135.0,97.8 142.5,95.9 150.0,94.5 157.5,93.5 165.0,92.9 172.5,91.7 180.0,90.3 187.5,89.1 195.0,88.6 202.5,87.4 210.0,83.4 217.5,82.1 225.0,80.5 232.5,79.0 240.0,77.5 247.5,76.2 255.0,75.3 262.5,74.6 270.0,73.5 277.5,71.5 285.0,69.8 292.5,68.7 300.0,67.3 307.5,66.9 315.0,66.6 322.5,65.9 330.0,64.6 337.5,63.8 345.0,63.3 352.5,61.8 360.0,59.6 367.5,59.1 375.0,58.7 382.5,57.8 390.0,56.1 397.5,54.9 405.0,53.1 412.5,51.8 420.0,50.2 427.5,49.9 435.0,49.0 442.5,47.3 450.0,45.7 457.5,44.5 465.0,43.9 472.5,43.1 480.0,42.3 487.5,40.5 495.0,38.8 502.5,37.3 510.0,35.8 517.5,35.0 525.0,34.6 532.5,33.9 540.0,32.7 547.5,31.9 555.0,31.2 562.5,30.6 570.0,30.0 570.0,30.0,120" />
  
  <!-- Linea principale -->
  <polyline fill="none" stroke="#0366d6" stroke-width="2.5" stroke-linecap="round" stroke-linejoin="round" points="30.0,120.0 37.5,117.8 45.0,115.5 52.5,113.5 60.0,112.9 67.5,111.8 75.0,109.3 82.5,107.7 90.0,106.6 97.5,104.0 105.0,102.7 112.5,101.4 120.0,100.7 127.5,99.5 135.0,97.8 142.5,95.9 150.0,94.5 157.5,93.5 165.0,92.9 172.5,91.7 180.0,90.3 187.5,89.1 195.0,88.6 202.5,87.4 210.0,83.4 217.5,82.1 225.0,80.5 232.5,79.0 240.0,77.5 247.5,76.2 255.0,75.3 262.5,74.6 270.0,73.5 277.5,71.5 285.0,69.8 292.5,68.7 300.0,67.3 307.5,66.9 315.0,66.6 322.5,65.9 330.0,64.6 337.5,63.8 345.0,63.3 352.5,61.8 360.0,59.6 367.5,59.1 375.0,58.7 382.5,57.8 390.0,56.1 397.5,54.9 405.0,53.1 412.5,51.8 420.0,50.2 427.5,49.9 435.0,49.0 442.5,47.3 450.0,45.7 457.5,44.5 465.0,43.9 472.5,43.1 480.0,42.3 487.5,40.5 495.0,38.8 502.5,37.3 510.0,35.8 517.5,35.0 525.0,34.6 532.5,33.9 540.0,32.7 547.5,31.9 555.0,31.2 562.5,30.6 570.0,30.0" />
  
  <!-- Punto finale luminoso -->
  <circle cx="570.0" cy="30.0" r="4" fill="#ffffff" stroke="#0366d6" stroke-width="2.5" />
</svg>