<svg width="600" height="150" viewBox="0 0 600 150" xmlns="http://www.w3.org/2000/svg">
  <defs>
    <filter id="shadow2" x="-2%" y="-2%" width="104%" height="108%">
      <feDropShadow dx="0" dy="2" stdDeviation="3" flood-opacity="0.1" />
    </filter>
    <linearGradient id="fillGrad" x1="0" y1="0" x2="0" y2="1">
      <stop offset="0%" stop-color="#0366d6" stop-opacity="0.3"/>
      <stop offset="100%" stop-color="#0366d6" stop-opacity="0.02"/>
    </linearGradient>
  </defs>
  <rect width="600" height="150" rx="12" fill="#ffffff" filter="url(#shadow2)" stroke="#e1e4e8" stroke-width="1"/>
  <text x="20" y="24" fill="#2b3137" font-family="-apple-system,BlinkMacSystemFont,'Segoe UI',Helvetica,Arial,sans-serif" font-size="14" font-weight="600">📈 Download Growth (Actual: 71.6k)</text>
  
  <!-- Area sotto la linea -->
  <polygon fill="url(#fillGrad)" points="30.0,120.0,120 30.0,120.0 37.3,117.9 44.6,115.6 51.9,113.6 59.2,113.0 66.5,112.0 73.8,109.5 81.1,107.9 88.4,106.8 95.7,104.2 103.0,103.0 110.3,101.7 117.6,101.0 124.9,99.8 132.2,98.1 139.5,96.3 146.8,94.9 154.1,93.9 161.4,93.3 168.6,92.2 175.9,90.8 183.2,89.6 190.5,89.1 197.8,87.9 205.1,83.9 212.4,82.7 219.7,81.2 227.0,79.6 234.3,78.2 241.6,76.9 248.9,76.0 256.2,75.4 263.5,74.3 270.8,72.3 278.1,70.6 285.4,69.5 292.7,68.2 300.0,67.8 307.3,67.4 314.6,66.8 321.9,65.5 329.2,64.7 336.5,64.2 343.8,62.7 351.1,60.6 358.4,60.0 365.7,59.6 373.0,58.8 380.3,57.1 387.6,56.0 394.9,54.2 402.2,52.9 409.5,51.4 416.8,51.0 424.1,50.1 431.4,48.5 438.6,46.9 445.9,45.7 453.2,45.1 460.5,44.3 467.8,43.6 475.1,41.8 482.4,40.1 489.7,38.6 497.0,37.2 504.3,36.4 511.6,35.9 518.9,35.3 526.2,34.1 533.5,33.3 540.8,32.6 548.1,32.0 555.4,31.4 562.7,30.6 570.0,30.0 570.0,30.0,120" />
  
  <!-- Linea principale -->
  <polyline fill="none" stroke="#0366d6" stroke-width="2.5" stroke-linecap="round" stroke-linejoin="round" points="30.0,120.0 37.3,117.9 44.6,115.6 51.9,113.6 59.2,113.0 66.5,112.0 73.8,109.5 81.1,107.9 88.4,106.8 95.7,104.2 103.0,103.0 110.3,101.7 117.6,101.0 124.9,99.8 132.2,98.1 139.5,96.3 146.8,94.9 154.1,93.9 161.4,93.3 168.6,92.2 175.9,90.8 183.2,89.6 190.5,89.1 197.8,87.9 205.1,83.9 212.4,82.7 219.7,81.2 227.0,79.6 234.3,78.2 241.6,76.9 248.9,76.0 256.2,75.4 263.5,74.3 270.8,72.3 278.1,70.6 285.4,69.5 292.7,68.2 300.0,67.8 307.3,67.4 314.6,66.8 321.9,65.5 329.2,64.7 336.5,64.2 343.8,62.7 351.1,60.6 358.4,60.0 365.7,59.6 373.0,58.8 380.3,57.1 387.6,56.0 394.9,54.2 402.2,52.9 409.5,51.4 416.8,51.0 424.1,50.1 431.4,48.5 438.6,46.9 445.9,45.7 453.2,45.1 460.5,44.3 467.8,43.6 475.1,41.8 482.4,40.1 489.7,38.6 497.0,37.2 504.3,36.4 511.6,35.9 518.9,35.3 526.2,34.1 533.5,33.3 540.8,32.6 548.1,32.0 555.4,31.4 562.7,30.6 570.0,30.0" />
  
  <!-- Punto finale luminoso -->
  <circle cx="570.0" cy="30.0" r="4" fill="#ffffff" stroke="#0366d6" stroke-width="2.5" />
</svg>