<svg width="600" height="150" viewBox="0 0 600 150" xmlns="http://www.w3.org/2000/svg">
  <defs>
    <filter id="shadow2" x="-2%" y="-2%" width="104%" height="108%">
      <feDropShadow dx="0" dy="2" stdDeviation="3" flood-opacity="0.1" />
    </filter>
    <linearGradient id="fillGrad" x1="0" y1="0" x2="0" y2="1">
      <stop offset="0%" stop-color="#0366d6" stop-opacity="0.3"/>
      <stop offset="100%" stop-color="#0366d6" stop-opacity="0.02"/>
    </linearGradient>
  </defs>
  <rect width="600" height="150" rx="12" fill="#ffffff" filter="url(#shadow2)" stroke="#e1e4e8" stroke-width="1"/>
  <text x="20" y="24" fill="#2b3137" font-family="-apple-system,BlinkMacSystemFont,'Segoe UI',Helvetica,Arial,sans-serif" font-size="14" font-weight="600">📈 Download Growth (Actual: 70.3k)</text>
  
  <!-- Area sotto la linea -->
  <polygon fill="url(#fillGrad)" points="30.0,120.0,120 30.0,120.0 41.0,117.0 52.0,113.8 63.1,111.0 74.1,110.2 85.1,108.7 96.1,105.3 107.1,103.0 118.2,101.4 129.2,97.9 140.2,96.1 151.2,94.3 162.2,93.3 173.3,91.6 184.3,89.2 195.3,86.7 206.3,84.7 217.3,83.4 228.4,82.5 239.4,80.9 250.4,79.0 261.4,77.3 272.4,76.5 283.5,74.9 294.5,69.3 305.5,67.6 316.5,65.4 327.6,63.2 338.6,61.3 349.6,59.4 360.6,58.2 371.6,57.3 382.7,55.7 393.7,53.0 404.7,50.6 415.7,49.0 426.7,47.1 437.8,46.6 448.8,46.1 459.8,45.2 470.8,43.4 481.8,42.3 492.9,41.5 503.9,39.5 514.9,36.5 525.9,35.7 536.9,35.2 548.0,34.0 559.0,31.6 570.0,30.0 570.0,30.0,120" />
  
  <!-- Linea principale -->
  <polyline fill="none" stroke="#0366d6" stroke-width="2.5" stroke-linecap="round" stroke-linejoin="round" points="30.0,120.0 41.0,117.0 52.0,113.8 63.1,111.0 74.1,110.2 85.1,108.7 96.1,105.3 107.1,103.0 118.2,101.4 129.2,97.9 140.2,96.1 151.2,94.3 162.2,93.3 173.3,91.6 184.3,89.2 195.3,86.7 206.3,84.7 217.3,83.4 228.4,82.5 239.4,80.9 250.4,79.0 261.4,77.3 272.4,76.5 283.5,74.9 294.5,69.3 305.5,67.6 316.5,65.4 327.6,63.2 338.6,61.3 349.6,59.4 360.6,58.2 371.6,57.3 382.7,55.7 393.7,53.0 404.7,50.6 415.7,49.0 426.7,47.1 437.8,46.6 448.8,46.1 459.8,45.2 470.8,43.4 481.8,42.3 492.9,41.5 503.9,39.5 514.9,36.5 525.9,35.7 536.9,35.2 548.0,34.0 559.0,31.6 570.0,30.0" />
  
  <!-- Punto finale luminoso -->
  <circle cx="570.0" cy="30.0" r="4" fill="#ffffff" stroke="#0366d6" stroke-width="2.5" />
</svg>