<svg width="600" height="150" viewBox="0 0 600 150" xmlns="http://www.w3.org/2000/svg">
  <defs>
    <filter id="shadow2" x="-2%" y="-2%" width="104%" height="108%">
      <feDropShadow dx="0" dy="2" stdDeviation="3" flood-opacity="0.1" />
    </filter>
    <linearGradient id="fillGrad" x1="0" y1="0" x2="0" y2="1">
      <stop offset="0%" stop-color="#0366d6" stop-opacity="0.3"/>
      <stop offset="100%" stop-color="#0366d6" stop-opacity="0.02"/>
    </linearGradient>
  </defs>
  <rect width="600" height="150" rx="12" fill="#ffffff" filter="url(#shadow2)" stroke="#e1e4e8" stroke-width="1"/>
  <text x="20" y="24" fill="#2b3137" font-family="-apple-system,BlinkMacSystemFont,'Segoe UI',Helvetica,Arial,sans-serif" font-size="14" font-weight="600">📈 Download Growth (Actual: 87.7k)</text>
  
  <!-- Area sotto la linea -->
  <polygon fill="url(#fillGrad)" points="30.0,120.0,120 30.0,120.0 31.3,119.5 32.6,119.0 33.9,118.5 35.2,118.4 36.5,118.2 37.8,117.6 39.1,117.2 40.4,117.0 41.7,116.4 42.9,116.1 44.2,115.8 45.5,115.7 46.8,115.4 48.1,115.0 49.4,114.6 50.7,114.3 52.0,114.1 53.3,113.9 54.6,113.6 55.9,113.3 57.2,113.1 58.5,112.9 59.8,112.7 61.1,111.8 62.4,111.5 63.7,111.1 65.0,110.8 66.3,110.5 67.6,110.2 68.8,110.0 70.1,109.8 71.4,109.6 72.7,109.1 74.0,108.7 75.3,108.5 76.6,108.2 77.9,108.1 79.2,108.0 80.5,107.9 81.8,107.6 83.1,107.4 84.4,107.3 85.7,106.9 87.0,106.4 88.3,106.3 89.6,106.2 90.9,106.0 92.2,105.6 93.5,105.4 94.7,105.0 96.0,104.7 97.3,104.3 98.6,104.3 99.9,104.1 101.2,103.7 102.5,103.3 103.8,103.0 105.1,102.9 106.4,102.7 107.7,102.6 109.0,102.2 110.3,101.8 111.6,101.4 112.9,101.1 114.2,100.9 115.5,100.8 116.8,100.7 118.1,100.4 119.4,100.2 120.6,100.1 121.9,99.9 123.2,99.8 124.5,99.6 125.8,99.5 127.1,99.4 128.4,99.3 129.7,98.9 131.0,98.7 132.3,98.6 133.6,98.5 134.9,98.4 136.2,98.4 137.5,104.6 138.8,104.0 140.1,103.5 141.4,102.9 142.7,101.2 144.0,100.0 145.3,98.8 146.5,98.3 147.8,97.8 149.1,96.9 150.4,96.0 151.7,95.3 153.0,95.0 154.3,94.8 155.6,94.1 156.9,93.6 158.2,93.3 159.5,92.9 160.8,92.7 162.1,92.7 163.4,92.3 164.7,91.7 166.0,91.3 167.3,90.9 168.6,90.4 169.9,90.2 171.2,90.0 172.4,89.6 173.7,89.3 175.0,88.9 176.3,88.7 177.6,88.5 178.9,88.5 180.2,88.3 181.5,87.9 182.8,87.7 184.1,87.5 185.4,87.3 186.7,87.1 188.0,87.0 189.3,86.8 190.6,86.7 191.9,86.5 193.2,86.2 194.5,86.0 195.8,85.7 197.1,85.5 198.3,85.3 199.6,85.2 200.9,85.1 202.2,84.9 203.5,84.5 204.8,84.2 206.1,83.8 207.4,83.7 208.7,83.6 210.0,83.5 211.3,83.3 212.6,83.0 213.9,82.8 215.2,82.5 216.5,82.4 217.8,82.3 219.1,82.1 220.4,82.0 221.7,81.9 222.9,81.7 224.2,81.5 225.5,81.3 226.8,81.2 228.1,81.1 229.4,80.9 230.7,80.9 232.0,80.6 233.3,80.4 234.6,80.2 235.9,80.0 237.2,79.8 238.5,79.7 239.8,79.6 241.1,79.5 242.4,79.2 243.7,78.9 245.0,78.8 246.3,78.6 247.6,78.2 248.8,78.1 250.1,78.0 251.4,77.9 252.7,77.8 254.0,77.6 255.3,77.4 256.6,77.3 257.9,77.1 259.2,77.0 260.5,76.9 261.8,76.8 263.1,76.7 264.4,76.5 265.7,76.3 267.0,76.2 268.3,76.0 269.6,75.9 270.9,75.7 272.2,75.6 273.5,75.5 274.7,75.4 276.0,75.2 277.3,75.0 278.6,74.7 279.9,74.5 281.2,74.3 282.5,74.3 283.8,74.2 285.1,74.0 286.4,73.8 287.7,73.7 289.0,73.6 290.3,73.4 291.6,73.3 292.9,73.1 294.2,73.0 295.5,72.9 296.8,72.7 298.1,72.5 299.4,72.3 300.6,72.1 301.9,72.0 303.2,72.0 304.5,71.9 305.8,71.8 307.1,71.6 308.4,71.5 309.7,71.3 311.0,71.1 312.3,71.0 313.6,70.9 314.9,70.8 316.2,70.7 317.5,70.5 318.8,70.3 320.1,70.1 321.4,70.0 322.7,69.9 324.0,69.8 325.3,69.7 326.5,69.6 327.8,69.5 329.1,69.4 330.4,69.2 331.7,69.0 333.0,68.9 334.3,68.8 335.6,68.7 336.9,68.5 338.2,68.4 339.5,68.3 340.8,68.1 342.1,68.0 343.4,67.9 344.7,67.7 346.0,67.6 347.3,67.5 348.6,67.4 349.9,67.3 351.2,67.2 352.4,67.1 353.7,67.0 355.0,66.9 356.3,66.8 357.6,66.5 358.9,66.3 360.2,70.3 361.5,69.5 362.8,68.0 364.1,67.4 365.4,66.7 366.7,65.9 368.0,65.4 369.3,65.1 370.6,64.5 371.9,63.6 373.2,63.0 374.5,62.8 375.8,62.4 377.1,62.2 378.3,61.7 379.6,61.3 380.9,60.8 382.2,60.6 383.5,60.1 384.8,59.9 386.1,59.6 387.4,59.4 388.7,59.2 390.0,59.0 391.3,58.5 392.6,58.2 393.9,57.8 395.2,57.3 396.5,56.9 397.8,56.7 399.1,56.6 400.4,56.4 401.7,56.0 402.9,55.7 404.2,55.4 405.5,54.6 406.8,54.0 408.1,53.7 409.4,53.5 410.7,53.2 412.0,52.8 413.3,52.4 414.6,52.2 415.9,51.9 417.2,51.6 418.5,51.3 419.8,51.0 421.1,50.7 422.4,50.4 423.7,50.3 425.0,50.1 426.3,49.7 427.6,49.5 428.8,49.3 430.1,49.2 431.4,49.0 432.7,48.7 434.0,48.6 435.3,48.4 436.6,48.2 437.9,48.1 439.2,47.9 440.5,47.7 441.8,47.5 443.1,47.2 444.4,46.8 445.7,46.6 447.0,46.4 448.3,46.3 449.6,46.1 450.9,45.9 452.2,45.8 453.5,45.6 454.7,45.5 456.0,45.4 457.3,45.2 458.6,45.1 459.9,44.8 461.2,44.7 462.5,44.5 463.8,44.3 465.1,44.0 466.4,43.6 467.7,43.5 469.0,43.3 470.3,43.1 471.6,42.9 472.9,42.6 474.2,42.4 475.5,42.2 476.8,42.2 478.1,42.0 479.4,41.8 480.6,41.6 481.9,41.4 483.2,41.3 484.5,41.1 485.8,40.9 487.1,40.7 488.4,40.4 489.7,40.3 491.0,40.0 492.3,39.8 493.6,39.6 494.9,39.5 496.2,39.3 497.5,39.2 498.8,39.0 500.1,38.8 501.4,38.6 502.7,38.5 504.0,38.4 505.3,38.2 506.5,38.0 507.8,37.9 509.1,37.8 510.4,37.6 511.7,37.6 513.0,37.4 514.3,37.2 515.6,37.1 516.9,36.9 518.2,36.8 519.5,36.6 520.8,36.4 522.1,36.2 523.4,36.1 524.7,36.0 526.0,35.9 527.3,35.6 528.6,35.4 529.9,35.2 531.2,35.1 532.4,35.0 533.7,34.9 535.0,34.7 536.3,34.6 537.6,34.4 538.9,34.1 540.2,34.0 541.5,33.8 542.8,33.7 544.1,33.6 545.4,33.4 546.7,33.2 548.0,33.0 549.3,32.8 550.6,32.7 551.9,32.5 553.2,32.3 554.5,32.1 555.8,31.8 557.1,31.7 558.3,31.5 559.6,31.3 560.9,31.1 562.2,30.9 563.5,30.8 564.8,30.6 566.1,30.4 567.4,30.3 568.7,30.1 570.0,30.0 570.0,30.0,120" />
  
  <!-- Linea principale -->
  <polyline fill="none" stroke="#0366d6" stroke-width="2.5" stroke-linecap="round" stroke-linejoin="round" points="30.0,120.0 31.3,119.5 32.6,119.0 33.9,118.5 35.2,118.4 36.5,118.2 37.8,117.6 39.1,117.2 40.4,117.0 41.7,116.4 42.9,116.1 44.2,115.8 45.5,115.7 46.8,115.4 48.1,115.0 49.4,114.6 50.7,114.3 52.0,114.1 53.3,113.9 54.6,113.6 55.9,113.3 57.2,113.1 58.5,112.9 59.8,112.7 61.1,111.8 62.4,111.5 63.7,111.1 65.0,110.8 66.3,110.5 67.6,110.2 68.8,110.0 70.1,109.8 71.4,109.6 72.7,109.1 74.0,108.7 75.3,108.5 76.6,108.2 77.9,108.1 79.2,108.0 80.5,107.9 81.8,107.6 83.1,107.4 84.4,107.3 85.7,106.9 87.0,106.4 88.3,106.3 89.6,106.2 90.9,106.0 92.2,105.6 93.5,105.4 94.7,105.0 96.0,104.7 97.3,104.3 98.6,104.3 99.9,104.1 101.2,103.7 102.5,103.3 103.8,103.0 105.1,102.9 106.4,102.7 107.7,102.6 109.0,102.2 110.3,101.8 111.6,101.4 112.9,101.1 114.2,100.9 115.5,100.8 116.8,100.7 118.1,100.4 119.4,100.2 120.6,100.1 121.9,99.9 123.2,99.8 124.5,99.6 125.8,99.5 127.1,99.4 128.4,99.3 129.7,98.9 131.0,98.7 132.3,98.6 133.6,98.5 134.9,98.4 136.2,98.4 137.5,104.6 138.8,104.0 140.1,103.5 141.4,102.9 142.7,101.2 144.0,100.0 145.3,98.8 146.5,98.3 147.8,97.8 149.1,96.9 150.4,96.0 151.7,95.3 153.0,95.0 154.3,94.8 155.6,94.1 156.9,93.6 158.2,93.3 159.5,92.9 160.8,92.7 162.1,92.7 163.4,92.3 164.7,91.7 166.0,91.3 167.3,90.9 168.6,90.4 169.9,90.2 171.2,90.0 172.4,89.6 173.7,89.3 175.0,88.9 176.3,88.7 177.6,88.5 178.9,88.5 180.2,88.3 181.5,87.9 182.8,87.7 184.1,87.5 185.4,87.3 186.7,87.1 188.0,87.0 189.3,86.8 190.6,86.7 191.9,86.5 193.2,86.2 194.5,86.0 195.8,85.7 197.1,85.5 198.3,85.3 199.6,85.2 200.9,85.1 202.2,84.9 203.5,84.5 204.8,84.2 206.1,83.8 207.4,83.7 208.7,83.6 210.0,83.5 211.3,83.3 212.6,83.0 213.9,82.8 215.2,82.5 216.5,82.4 217.8,82.3 219.1,82.1 220.4,82.0 221.7,81.9 222.9,81.7 224.2,81.5 225.5,81.3 226.8,81.2 228.1,81.1 229.4,80.9 230.7,80.9 232.0,80.6 233.3,80.4 234.6,80.2 235.9,80.0 237.2,79.8 238.5,79.7 239.8,79.6 241.1,79.5 242.4,79.2 243.7,78.9 245.0,78.8 246.3,78.6 247.6,78.2 248.8,78.1 250.1,78.0 251.4,77.9 252.7,77.8 254.0,77.6 255.3,77.4 256.6,77.3 257.9,77.1 259.2,77.0 260.5,76.9 261.8,76.8 263.1,76.7 264.4,76.5 265.7,76.3 267.0,76.2 268.3,76.0 269.6,75.9 270.9,75.7 272.2,75.6 273.5,75.5 274.7,75.4 276.0,75.2 277.3,75.0 278.6,74.7 279.9,74.5 281.2,74.3 282.5,74.3 283.8,74.2 285.1,74.0 286.4,73.8 287.7,73.7 289.0,73.6 290.3,73.4 291.6,73.3 292.9,73.1 294.2,73.0 295.5,72.9 296.8,72.7 298.1,72.5 299.4,72.3 300.6,72.1 301.9,72.0 303.2,72.0 304.5,71.9 305.8,71.8 307.1,71.6 308.4,71.5 309.7,71.3 311.0,71.1 312.3,71.0 313.6,70.9 314.9,70.8 316.2,70.7 317.5,70.5 318.8,70.3 320.1,70.1 321.4,70.0 322.7,69.9 324.0,69.8 325.3,69.7 326.5,69.6 327.8,69.5 329.1,69.4 330.4,69.2 331.7,69.0 333.0,68.9 334.3,68.8 335.6,68.7 336.9,68.5 338.2,68.4 339.5,68.3 340.8,68.1 342.1,68.0 343.4,67.9 344.7,67.7 346.0,67.6 347.3,67.5 348.6,67.4 349.9,67.3 351.2,67.2 352.4,67.1 353.7,67.0 355.0,66.9 356.3,66.8 357.6,66.5 358.9,66.3 360.2,70.3 361.5,69.5 362.8,68.0 364.1,67.4 365.4,66.7 366.7,65.9 368.0,65.4 369.3,65.1 370.6,64.5 371.9,63.6 373.2,63.0 374.5,62.8 375.8,62.4 377.1,62.2 378.3,61.7 379.6,61.3 380.9,60.8 382.2,60.6 383.5,60.1 384.8,59.9 386.1,59.6 387.4,59.4 388.7,59.2 390.0,59.0 391.3,58.5 392.6,58.2 393.9,57.8 395.2,57.3 396.5,56.9 397.8,56.7 399.1,56.6 400.4,56.4 401.7,56.0 402.9,55.7 404.2,55.4 405.5,54.6 406.8,54.0 408.1,53.7 409.4,53.5 410.7,53.2 412.0,52.8 413.3,52.4 414.6,52.2 415.9,51.9 417.2,51.6 418.5,51.3 419.8,51.0 421.1,50.7 422.4,50.4 423.7,50.3 425.0,50.1 426.3,49.7 427.6,49.5 428.8,49.3 430.1,49.2 431.4,49.0 432.7,48.7 434.0,48.6 435.3,48.4 436.6,48.2 437.9,48.1 439.2,47.9 440.5,47.7 441.8,47.5 443.1,47.2 444.4,46.8 445.7,46.6 447.0,46.4 448.3,46.3 449.6,46.1 450.9,45.9 452.2,45.8 453.5,45.6 454.7,45.5 456.0,45.4 457.3,45.2 458.6,45.1 459.9,44.8 461.2,44.7 462.5,44.5 463.8,44.3 465.1,44.0 466.4,43.6 467.7,43.5 469.0,43.3 470.3,43.1 471.6,42.9 472.9,42.6 474.2,42.4 475.5,42.2 476.8,42.2 478.1,42.0 479.4,41.8 480.6,41.6 481.9,41.4 483.2,41.3 484.5,41.1 485.8,40.9 487.1,40.7 488.4,40.4 489.7,40.3 491.0,40.0 492.3,39.8 493.6,39.6 494.9,39.5 496.2,39.3 497.5,39.2 498.8,39.0 500.1,38.8 501.4,38.6 502.7,38.5 504.0,38.4 505.3,38.2 506.5,38.0 507.8,37.9 509.1,37.8 510.4,37.6 511.7,37.6 513.0,37.4 514.3,37.2 515.6,37.1 516.9,36.9 518.2,36.8 519.5,36.6 520.8,36.4 522.1,36.2 523.4,36.1 524.7,36.0 526.0,35.9 527.3,35.6 528.6,35.4 529.9,35.2 531.2,35.1 532.4,35.0 533.7,34.9 535.0,34.7 536.3,34.6 537.6,34.4 538.9,34.1 540.2,34.0 541.5,33.8 542.8,33.7 544.1,33.6 545.4,33.4 546.7,33.2 548.0,33.0 549.3,32.8 550.6,32.7 551.9,32.5 553.2,32.3 554.5,32.1 555.8,31.8 557.1,31.7 558.3,31.5 559.6,31.3 560.9,31.1 562.2,30.9 563.5,30.8 564.8,30.6 566.1,30.4 567.4,30.3 568.7,30.1 570.0,30.0" />
  
  <!-- Punto finale luminoso -->
  <circle cx="570.0" cy="30.0" r="4" fill="#ffffff" stroke="#0366d6" stroke-width="2.5" />
</svg>