<svg width="600" height="150" viewBox="0 0 600 150" xmlns="http://www.w3.org/2000/svg">
  <defs>
    <filter id="shadow2" x="-2%" y="-2%" width="104%" height="108%">
      <feDropShadow dx="0" dy="2" stdDeviation="3" flood-opacity="0.1" />
    </filter>
    <linearGradient id="fillGrad" x1="0" y1="0" x2="0" y2="1">
      <stop offset="0%" stop-color="#0366d6" stop-opacity="0.3"/>
      <stop offset="100%" stop-color="#0366d6" stop-opacity="0.02"/>
    </linearGradient>
  </defs>
  <rect width="600" height="150" rx="12" fill="#ffffff" filter="url(#shadow2)" stroke="#e1e4e8" stroke-width="1"/>
  <text x="20" y="24" fill="#2b3137" font-family="-apple-system,BlinkMacSystemFont,'Segoe UI',Helvetica,Arial,sans-serif" font-size="14" font-weight="600">📈 Download Growth (Actual: 82.7k)</text>
  
  <!-- Area sotto la linea -->
  <polygon fill="url(#fillGrad)" points="30.0,120.0,120 30.0,120.0 31.8,119.4 33.6,118.7 35.4,118.1 37.2,117.9 39.1,117.6 40.9,116.8 42.7,116.3 44.5,116.0 46.3,115.2 48.1,114.9 49.9,114.5 51.7,114.3 53.6,113.9 55.4,113.4 57.2,112.9 59.0,112.4 60.8,112.1 62.6,111.9 64.4,111.6 66.2,111.2 68.1,110.8 69.9,110.7 71.7,110.3 73.5,109.1 75.3,108.8 77.1,108.3 78.9,107.8 80.7,107.4 82.6,107.0 84.4,106.7 86.2,106.5 88.0,106.2 89.8,105.6 91.6,105.1 93.4,104.8 95.2,104.4 97.0,104.3 98.9,104.2 100.7,104.0 102.5,103.6 104.3,103.3 106.1,103.2 107.9,102.7 109.7,102.1 111.5,101.9 113.4,101.8 115.2,101.6 117.0,101.0 118.8,100.7 120.6,100.2 122.4,99.8 124.2,99.3 126.0,99.2 127.9,98.9 129.7,98.4 131.5,98.0 133.3,97.6 135.1,97.4 136.9,97.2 138.7,97.0 140.5,96.4 142.3,95.9 144.2,95.5 146.0,95.0 147.8,94.8 149.6,94.7 151.4,94.5 153.2,94.1 155.0,93.9 156.8,93.6 158.7,93.5 160.5,93.3 162.3,93.0 164.1,92.9 165.9,92.8 167.7,92.6 169.5,92.1 171.3,91.9 173.2,91.8 175.0,91.6 176.8,91.5 178.6,91.5 180.4,99.7 182.2,98.9 184.0,98.1 185.8,97.4 187.7,95.2 189.5,93.6 191.3,91.9 193.1,91.3 194.9,90.6 196.7,89.5 198.5,88.2 200.3,87.3 202.1,87.0 204.0,86.7 205.8,85.8 207.6,85.1 209.4,84.7 211.2,84.2 213.0,84.0 214.8,83.9 216.6,83.4 218.5,82.6 220.3,82.1 222.1,81.5 223.9,80.9 225.7,80.6 227.5,80.4 229.3,79.9 231.1,79.4 233.0,79.0 234.8,78.6 236.6,78.5 238.4,78.3 240.2,78.1 242.0,77.7 243.8,77.4 245.6,77.1 247.4,76.8 249.3,76.6 251.1,76.4 252.9,76.2 254.7,76.0 256.5,75.8 258.3,75.3 260.1,75.0 261.9,74.7 263.8,74.4 265.6,74.2 267.4,74.0 269.2,73.9 271.0,73.7 272.8,73.1 274.6,72.7 276.4,72.2 278.3,72.0 280.1,71.9 281.9,71.7 283.7,71.5 285.5,71.2 287.3,70.9 289.1,70.5 290.9,70.3 292.8,70.2 294.6,70.0 296.4,69.8 298.2,69.6 300.0,69.4 301.8,69.2 303.6,68.8 305.4,68.7 307.2,68.6 309.1,68.4 310.9,68.3 312.7,68.0 314.5,67.7 316.3,67.4 318.1,67.2 319.9,66.9 321.7,66.8 323.6,66.6 325.4,66.5 327.2,66.1 329.0,65.8 330.8,65.5 332.6,65.3 334.4,64.8 336.2,64.7 338.1,64.6 339.9,64.4 341.7,64.2 343.5,64.0 345.3,63.8 347.1,63.6 348.9,63.4 350.7,63.2 352.6,63.0 354.4,62.9 356.2,62.8 358.0,62.6 359.8,62.2 361.6,62.1 363.4,61.8 365.2,61.7 367.0,61.5 368.9,61.3 370.7,61.2 372.5,61.1 374.3,60.9 376.1,60.5 377.9,60.1 379.7,59.9 381.5,59.7 383.4,59.6 385.2,59.5 387.0,59.3 388.8,58.9 390.6,58.8 392.4,58.7 394.2,58.4 396.0,58.3 397.9,58.0 399.7,57.9 401.5,57.7 403.3,57.5 405.1,57.2 406.9,57.0 408.7,56.7 410.5,56.6 412.3,56.5 414.2,56.5 416.0,56.3 417.8,56.1 419.6,55.9 421.4,55.7 423.2,55.5 425.0,55.3 426.8,55.2 428.7,55.0 430.5,54.8 432.3,54.6 434.1,54.3 435.9,54.1 437.7,53.9 439.5,53.8 441.3,53.6 443.2,53.5 445.0,53.4 446.8,53.3 448.6,53.1 450.4,52.8 452.2,52.7 454.0,52.5 455.8,52.3 457.7,52.2 459.5,52.0 461.3,51.8 463.1,51.6 464.9,51.5 466.7,51.3 468.5,51.1 470.3,50.9 472.1,50.7 474.0,50.6 475.8,50.5 477.6,50.4 479.4,50.2 481.2,50.1 483.0,49.9 484.8,49.9 486.6,49.7 488.5,49.3 490.3,49.1 492.1,54.4 493.9,53.3 495.7,51.3 497.5,50.6 499.3,49.6 501.1,48.5 503.0,47.9 504.8,47.4 506.6,46.7 508.4,45.5 510.2,44.7 512.0,44.4 513.8,44.0 515.6,43.6 517.4,43.0 519.3,42.4 521.1,41.8 522.9,41.5 524.7,40.9 526.5,40.6 528.3,40.2 530.1,39.9 531.9,39.6 533.8,39.3 535.6,38.8 537.4,38.4 539.2,37.8 541.0,37.1 542.8,36.7 544.6,36.4 546.4,36.2 548.3,35.9 550.1,35.5 551.9,35.0 553.7,34.7 555.5,33.6 557.3,32.7 559.1,32.4 560.9,32.1 562.8,31.8 564.6,31.2 566.4,30.7 568.2,30.4 570.0,30.0 570.0,30.0,120" />
  
  <!-- Linea principale -->
  <polyline fill="none" stroke="#0366d6" stroke-width="2.5" stroke-linecap="round" stroke-linejoin="round" points="30.0,120.0 31.8,119.4 33.6,118.7 35.4,118.1 37.2,117.9 39.1,117.6 40.9,116.8 42.7,116.3 44.5,116.0 46.3,115.2 48.1,114.9 49.9,114.5 51.7,114.3 53.6,113.9 55.4,113.4 57.2,112.9 59.0,112.4 60.8,112.1 62.6,111.9 64.4,111.6 66.2,111.2 68.1,110.8 69.9,110.7 71.7,110.3 73.5,109.1 75.3,108.8 77.1,108.3 78.9,107.8 80.7,107.4 82.6,107.0 84.4,106.7 86.2,106.5 88.0,106.2 89.8,105.6 91.6,105.1 93.4,104.8 95.2,104.4 97.0,104.3 98.9,104.2 100.7,104.0 102.5,103.6 104.3,103.3 106.1,103.2 107.9,102.7 109.7,102.1 111.5,101.9 113.4,101.8 115.2,101.6 117.0,101.0 118.8,100.7 120.6,100.2 122.4,99.8 124.2,99.3 126.0,99.2 127.9,98.9 129.7,98.4 131.5,98.0 133.3,97.6 135.1,97.4 136.9,97.2 138.7,97.0 140.5,96.4 142.3,95.9 144.2,95.5 146.0,95.0 147.8,94.8 149.6,94.7 151.4,94.5 153.2,94.1 155.0,93.9 156.8,93.6 158.7,93.5 160.5,93.3 162.3,93.0 164.1,92.9 165.9,92.8 167.7,92.6 169.5,92.1 171.3,91.9 173.2,91.8 175.0,91.6 176.8,91.5 178.6,91.5 180.4,99.7 182.2,98.9 184.0,98.1 185.8,97.4 187.7,95.2 189.5,93.6 191.3,91.9 193.1,91.3 194.9,90.6 196.7,89.5 198.5,88.2 200.3,87.3 202.1,87.0 204.0,86.7 205.8,85.8 207.6,85.1 209.4,84.7 211.2,84.2 213.0,84.0 214.8,83.9 216.6,83.4 218.5,82.6 220.3,82.1 222.1,81.5 223.9,80.9 225.7,80.6 227.5,80.4 229.3,79.9 231.1,79.4 233.0,79.0 234.8,78.6 236.6,78.5 238.4,78.3 240.2,78.1 242.0,77.7 243.8,77.4 245.6,77.1 247.4,76.8 249.3,76.6 251.1,76.4 252.9,76.2 254.7,76.0 256.5,75.8 258.3,75.3 260.1,75.0 261.9,74.7 263.8,74.4 265.6,74.2 267.4,74.0 269.2,73.9 271.0,73.7 272.8,73.1 274.6,72.7 276.4,72.2 278.3,72.0 280.1,71.9 281.9,71.7 283.7,71.5 285.5,71.2 287.3,70.9 289.1,70.5 290.9,70.3 292.8,70.2 294.6,70.0 296.4,69.8 298.2,69.6 300.0,69.4 301.8,69.2 303.6,68.8 305.4,68.7 307.2,68.6 309.1,68.4 310.9,68.3 312.7,68.0 314.5,67.7 316.3,67.4 318.1,67.2 319.9,66.9 321.7,66.8 323.6,66.6 325.4,66.5 327.2,66.1 329.0,65.8 330.8,65.5 332.6,65.3 334.4,64.8 336.2,64.7 338.1,64.6 339.9,64.4 341.7,64.2 343.5,64.0 345.3,63.8 347.1,63.6 348.9,63.4 350.7,63.2 352.6,63.0 354.4,62.9 356.2,62.8 358.0,62.6 359.8,62.2 361.6,62.1 363.4,61.8 365.2,61.7 367.0,61.5 368.9,61.3 370.7,61.2 372.5,61.1 374.3,60.9 376.1,60.5 377.9,60.1 379.7,59.9 381.5,59.7 383.4,59.6 385.2,59.5 387.0,59.3 388.8,58.9 390.6,58.8 392.4,58.7 394.2,58.4 396.0,58.3 397.9,58.0 399.7,57.9 401.5,57.7 403.3,57.5 405.1,57.2 406.9,57.0 408.7,56.7 410.5,56.6 412.3,56.5 414.2,56.5 416.0,56.3 417.8,56.1 419.6,55.9 421.4,55.7 423.2,55.5 425.0,55.3 426.8,55.2 428.7,55.0 430.5,54.8 432.3,54.6 434.1,54.3 435.9,54.1 437.7,53.9 439.5,53.8 441.3,53.6 443.2,53.5 445.0,53.4 446.8,53.3 448.6,53.1 450.4,52.8 452.2,52.7 454.0,52.5 455.8,52.3 457.7,52.2 459.5,52.0 461.3,51.8 463.1,51.6 464.9,51.5 466.7,51.3 468.5,51.1 470.3,50.9 472.1,50.7 474.0,50.6 475.8,50.5 477.6,50.4 479.4,50.2 481.2,50.1 483.0,49.9 484.8,49.9 486.6,49.7 488.5,49.3 490.3,49.1 492.1,54.4 493.9,53.3 495.7,51.3 497.5,50.6 499.3,49.6 501.1,48.5 503.0,47.9 504.8,47.4 506.6,46.7 508.4,45.5 510.2,44.7 512.0,44.4 513.8,44.0 515.6,43.6 517.4,43.0 519.3,42.4 521.1,41.8 522.9,41.5 524.7,40.9 526.5,40.6 528.3,40.2 530.1,39.9 531.9,39.6 533.8,39.3 535.6,38.8 537.4,38.4 539.2,37.8 541.0,37.1 542.8,36.7 544.6,36.4 546.4,36.2 548.3,35.9 550.1,35.5 551.9,35.0 553.7,34.7 555.5,33.6 557.3,32.7 559.1,32.4 560.9,32.1 562.8,31.8 564.6,31.2 566.4,30.7 568.2,30.4 570.0,30.0" />
  
  <!-- Punto finale luminoso -->
  <circle cx="570.0" cy="30.0" r="4" fill="#ffffff" stroke="#0366d6" stroke-width="2.5" />
</svg>