<svg width="600" height="150" viewBox="0 0 600 150" xmlns="http://www.w3.org/2000/svg">
  <defs>
    <filter id="shadow2" x="-2%" y="-2%" width="104%" height="108%">
      <feDropShadow dx="0" dy="2" stdDeviation="3" flood-opacity="0.1" />
    </filter>
    <linearGradient id="fillGrad" x1="0" y1="0" x2="0" y2="1">
      <stop offset="0%" stop-color="#0366d6" stop-opacity="0.3"/>
      <stop offset="100%" stop-color="#0366d6" stop-opacity="0.02"/>
    </linearGradient>
  </defs>
  <rect width="600" height="150" rx="12" fill="#ffffff" filter="url(#shadow2)" stroke="#e1e4e8" stroke-width="1"/>
  <text x="20" y="24" fill="#2b3137" font-family="-apple-system,BlinkMacSystemFont,'Segoe UI',Helvetica,Arial,sans-serif" font-size="14" font-weight="600">📈 Download Growth (Actual: 73.0k)</text>
  
  <!-- Area sotto la linea -->
  <polygon fill="url(#fillGrad)" points="30.0,120.0,120 30.0,120.0 35.5,118.4 41.0,116.6 46.5,115.0 52.0,114.6 57.6,113.8 63.1,111.8 68.6,110.6 74.1,109.7 79.6,107.7 85.1,106.8 90.6,105.8 96.1,105.2 101.6,104.3 107.1,103.0 112.7,101.6 118.2,100.5 123.7,99.7 129.2,99.2 134.7,98.3 140.2,97.3 145.7,96.4 151.2,95.9 156.7,95.1 162.2,92.0 167.8,91.0 173.3,89.8 178.8,88.6 184.3,87.5 189.8,86.5 195.3,85.8 200.8,85.3 206.3,84.4 211.8,82.9 217.3,81.6 222.9,80.7 228.4,79.7 233.9,79.4 239.4,79.1 244.9,78.6 250.4,77.6 255.9,77.0 261.4,76.6 266.9,75.4 272.4,73.8 278.0,73.4 283.5,73.1 289.0,72.4 294.5,71.1 300.0,70.2 305.5,68.8 311.0,67.8 316.5,66.6 322.0,66.4 327.6,65.6 333.1,64.4 338.6,63.1 344.1,62.2 349.6,61.8 355.1,61.1 360.6,60.6 366.1,59.2 371.6,57.9 377.1,56.7 382.7,55.6 388.2,55.0 393.7,54.6 399.2,54.1 404.7,53.2 410.2,52.6 415.7,52.0 421.2,51.6 426.7,51.1 432.2,50.5 437.8,50.0 443.3,49.7 448.8,49.4 454.3,48.1 459.8,47.4 465.3,47.2 470.8,46.7 476.3,46.5 481.8,46.5 487.3,67.5 492.9,65.4 498.4,63.6 503.9,61.6 509.4,55.9 514.9,51.9 520.4,47.6 525.9,46.0 531.4,44.2 536.9,41.3 542.4,38.1 548.0,35.7 553.5,34.8 559.0,34.0 564.5,31.7 570.0,30.0 570.0,30.0,120" />
  
  <!-- Linea principale -->
  <polyline fill="none" stroke="#0366d6" stroke-width="2.5" stroke-linecap="round" stroke-linejoin="round" points="30.0,120.0 35.5,118.4 41.0,116.6 46.5,115.0 52.0,114.6 57.6,113.8 63.1,111.8 68.6,110.6 74.1,109.7 79.6,107.7 85.1,106.8 90.6,105.8 96.1,105.2 101.6,104.3 107.1,103.0 112.7,101.6 118.2,100.5 123.7,99.7 129.2,99.2 134.7,98.3 140.2,97.3 145.7,96.4 151.2,95.9 156.7,95.1 162.2,92.0 167.8,91.0 173.3,89.8 178.8,88.6 184.3,87.5 189.8,86.5 195.3,85.8 200.8,85.3 206.3,84.4 211.8,82.9 217.3,81.6 222.9,80.7 228.4,79.7 233.9,79.4 239.4,79.1 244.9,78.6 250.4,77.6 255.9,77.0 261.4,76.6 266.9,75.4 272.4,73.8 278.0,73.4 283.5,73.1 289.0,72.4 294.5,71.1 300.0,70.2 305.5,68.8 311.0,67.8 316.5,66.6 322.0,66.4 327.6,65.6 333.1,64.4 338.6,63.1 344.1,62.2 349.6,61.8 355.1,61.1 360.6,60.6 366.1,59.2 371.6,57.9 377.1,56.7 382.7,55.6 388.2,55.0 393.7,54.6 399.2,54.1 404.7,53.2 410.2,52.6 415.7,52.0 421.2,51.6 426.7,51.1 432.2,50.5 437.8,50.0 443.3,49.7 448.8,49.4 454.3,48.1 459.8,47.4 465.3,47.2 470.8,46.7 476.3,46.5 481.8,46.5 487.3,67.5 492.9,65.4 498.4,63.6 503.9,61.6 509.4,55.9 514.9,51.9 520.4,47.6 525.9,46.0 531.4,44.2 536.9,41.3 542.4,38.1 548.0,35.7 553.5,34.8 559.0,34.0 564.5,31.7 570.0,30.0" />
  
  <!-- Punto finale luminoso -->
  <circle cx="570.0" cy="30.0" r="4" fill="#ffffff" stroke="#0366d6" stroke-width="2.5" />
</svg>