<svg width="600" height="150" viewBox="0 0 600 150" xmlns="http://www.w3.org/2000/svg">
  <defs>
    <filter id="shadow2" x="-2%" y="-2%" width="104%" height="108%">
      <feDropShadow dx="0" dy="2" stdDeviation="3" flood-opacity="0.1" />
    </filter>
    <linearGradient id="fillGrad" x1="0" y1="0" x2="0" y2="1">
      <stop offset="0%" stop-color="#0366d6" stop-opacity="0.3"/>
      <stop offset="100%" stop-color="#0366d6" stop-opacity="0.02"/>
    </linearGradient>
  </defs>
  <rect width="600" height="150" rx="12" fill="#ffffff" filter="url(#shadow2)" stroke="#e1e4e8" stroke-width="1"/>
  <text x="20" y="24" fill="#2b3137" font-family="-apple-system,BlinkMacSystemFont,'Segoe UI',Helvetica,Arial,sans-serif" font-size="14" font-weight="600">📈 Download Growth (Actual: 83.7k)</text>
  
  <!-- Area sotto la linea -->
  <polygon fill="url(#fillGrad)" points="30.0,120.0,120 30.0,120.0 31.7,119.4 33.4,118.7 35.1,118.2 36.8,118.0 38.5,117.7 40.2,117.0 41.9,116.6 43.6,116.3 45.3,115.5 47.0,115.2 48.7,114.8 50.4,114.6 52.1,114.3 53.8,113.8 55.5,113.3 57.2,112.9 58.9,112.6 60.6,112.4 62.3,112.1 64.0,111.7 65.7,111.4 67.4,111.2 69.1,110.9 70.8,109.8 72.5,109.4 74.2,109.0 75.8,108.6 77.5,108.2 79.2,107.8 80.9,107.5 82.6,107.4 84.3,107.0 86.0,106.5 87.7,106.0 89.4,105.7 91.1,105.3 92.8,105.2 94.5,105.1 96.2,104.9 97.9,104.6 99.6,104.3 101.3,104.2 103.0,103.8 104.7,103.2 106.4,103.0 108.1,102.9 109.8,102.7 111.5,102.2 113.2,101.9 114.9,101.4 116.6,101.0 118.3,100.6 120.0,100.5 121.7,100.2 123.4,99.8 125.1,99.3 126.8,98.9 128.5,98.8 130.2,98.6 131.9,98.4 133.6,97.8 135.3,97.4 137.0,97.0 138.7,96.5 140.4,96.3 142.1,96.2 143.8,96.0 145.5,95.7 147.2,95.4 148.9,95.2 150.6,95.1 152.3,94.9 154.0,94.7 155.7,94.5 157.4,94.4 159.1,94.3 160.8,93.8 162.5,93.6 164.2,93.5 165.8,93.3 167.5,93.2 169.2,93.2 170.9,100.9 172.6,100.1 174.3,99.5 176.0,98.7 177.7,96.7 179.4,95.2 181.1,93.6 182.8,93.1 184.5,92.4 186.2,91.3 187.9,90.2 189.6,89.3 191.3,89.0 193.0,88.7 194.7,87.8 196.4,87.2 198.1,86.8 199.8,86.3 201.5,86.1 203.2,86.1 204.9,85.6 206.6,84.9 208.3,84.4 210.0,83.9 211.7,83.3 213.4,83.0 215.1,82.8 216.8,82.3 218.5,81.9 220.2,81.5 221.9,81.1 223.6,81.0 225.3,80.9 227.0,80.6 228.7,80.2 230.4,79.9 232.1,79.7 233.8,79.4 235.5,79.2 237.2,79.0 238.9,78.8 240.6,78.6 242.3,78.4 244.0,78.0 245.7,77.7 247.4,77.4 249.1,77.2 250.8,77.0 252.5,76.8 254.2,76.6 255.8,76.5 257.5,75.9 259.2,75.5 260.9,75.1 262.6,74.9 264.3,74.8 266.0,74.6 267.7,74.4 269.4,74.1 271.1,73.8 272.8,73.5 274.5,73.3 276.2,73.2 277.9,73.0 279.6,72.8 281.3,72.7 283.0,72.5 284.7,72.3 286.4,71.9 288.1,71.8 289.8,71.7 291.5,71.5 293.2,71.4 294.9,71.1 296.6,70.9 298.3,70.6 300.0,70.4 301.7,70.1 303.4,70.0 305.1,69.9 306.8,69.7 308.5,69.4 310.2,69.0 311.9,68.8 313.6,68.6 315.3,68.1 317.0,68.0 318.7,67.9 320.4,67.8 322.1,67.6 323.8,67.4 325.5,67.2 327.2,67.0 328.9,66.8 330.6,66.6 332.3,66.5 334.0,66.3 335.7,66.2 337.4,66.0 339.1,65.7 340.8,65.6 342.5,65.3 344.2,65.2 345.8,65.1 347.5,64.9 349.2,64.8 350.9,64.6 352.6,64.4 354.3,64.1 356.0,63.7 357.7,63.5 359.4,63.3 361.1,63.3 362.8,63.2 364.5,63.0 366.2,62.6 367.9,62.5 369.6,62.4 371.3,62.2 373.0,62.0 374.7,61.8 376.4,61.6 378.1,61.5 379.8,61.2 381.5,61.0 383.2,60.8 384.9,60.5 386.6,60.4 388.3,60.4 390.0,60.3 391.7,60.1 393.4,59.9 395.1,59.7 396.8,59.6 398.5,59.4 400.2,59.2 401.9,59.1 403.6,58.9 405.3,58.8 407.0,58.5 408.7,58.3 410.4,58.1 412.1,57.9 413.8,57.8 415.5,57.7 417.2,57.6 418.9,57.4 420.6,57.3 422.3,57.2 424.0,56.9 425.7,56.7 427.4,56.5 429.1,56.4 430.8,56.3 432.5,56.1 434.2,55.9 435.8,55.8 437.5,55.6 439.2,55.5 440.9,55.3 442.6,55.1 444.3,54.9 446.0,54.8 447.7,54.7 449.4,54.6 451.1,54.5 452.8,54.3 454.5,54.2 456.2,54.1 457.9,54.0 459.6,53.6 461.3,53.4 463.0,58.4 464.7,57.4 466.4,55.5 468.1,54.8 469.8,53.9 471.5,52.8 473.2,52.2 474.9,51.8 476.6,51.1 478.3,50.0 480.0,49.2 481.7,49.0 483.4,48.5 485.1,48.2 486.8,47.7 488.5,47.1 490.2,46.5 491.9,46.2 493.6,45.7 495.3,45.4 497.0,45.0 498.7,44.8 500.4,44.5 502.1,44.2 503.8,43.7 505.5,43.3 507.2,42.8 508.9,42.1 510.6,41.7 512.3,41.5 514.0,41.3 515.7,41.0 517.4,40.6 519.1,40.2 520.8,39.8 522.5,38.8 524.2,38.0 525.8,37.7 527.5,37.5 529.2,37.1 530.9,36.6 532.6,36.1 534.3,35.8 536.0,35.4 537.7,35.1 539.4,34.7 541.1,34.4 542.8,33.9 544.5,33.6 546.2,33.5 547.9,33.2 549.6,32.8 551.3,32.5 553.0,32.2 554.7,32.1 556.4,31.9 558.1,31.5 559.8,31.4 561.5,31.1 563.2,30.9 564.9,30.7 566.6,30.5 568.3,30.2 570.0,30.0 570.0,30.0,120" />
  
  <!-- Linea principale -->
  <polyline fill="none" stroke="#0366d6" stroke-width="2.5" stroke-linecap="round" stroke-linejoin="round" points="30.0,120.0 31.7,119.4 33.4,118.7 35.1,118.2 36.8,118.0 38.5,117.7 40.2,117.0 41.9,116.6 43.6,116.3 45.3,115.5 47.0,115.2 48.7,114.8 50.4,114.6 52.1,114.3 53.8,113.8 55.5,113.3 57.2,112.9 58.9,112.6 60.6,112.4 62.3,112.1 64.0,111.7 65.7,111.4 67.4,111.2 69.1,110.9 70.8,109.8 72.5,109.4 74.2,109.0 75.8,108.6 77.5,108.2 79.2,107.8 80.9,107.5 82.6,107.4 84.3,107.0 86.0,106.5 87.7,106.0 89.4,105.7 91.1,105.3 92.8,105.2 94.5,105.1 96.2,104.9 97.9,104.6 99.6,104.3 101.3,104.2 103.0,103.8 104.7,103.2 106.4,103.0 108.1,102.9 109.8,102.7 111.5,102.2 113.2,101.9 114.9,101.4 116.6,101.0 118.3,100.6 120.0,100.5 121.7,100.2 123.4,99.8 125.1,99.3 126.8,98.9 128.5,98.8 130.2,98.6 131.9,98.4 133.6,97.8 135.3,97.4 137.0,97.0 138.7,96.5 140.4,96.3 142.1,96.2 143.8,96.0 145.5,95.7 147.2,95.4 148.9,95.2 150.6,95.1 152.3,94.9 154.0,94.7 155.7,94.5 157.4,94.4 159.1,94.3 160.8,93.8 162.5,93.6 164.2,93.5 165.8,93.3 167.5,93.2 169.2,93.2 170.9,100.9 172.6,100.1 174.3,99.5 176.0,98.7 177.7,96.7 179.4,95.2 181.1,93.6 182.8,93.1 184.5,92.4 186.2,91.3 187.9,90.2 189.6,89.3 191.3,89.0 193.0,88.7 194.7,87.8 196.4,87.2 198.1,86.8 199.8,86.3 201.5,86.1 203.2,86.1 204.9,85.6 206.6,84.9 208.3,84.4 210.0,83.9 211.7,83.3 213.4,83.0 215.1,82.8 216.8,82.3 218.5,81.9 220.2,81.5 221.9,81.1 223.6,81.0 225.3,80.9 227.0,80.6 228.7,80.2 230.4,79.9 232.1,79.7 233.8,79.4 235.5,79.2 237.2,79.0 238.9,78.8 240.6,78.6 242.3,78.4 244.0,78.0 245.7,77.7 247.4,77.4 249.1,77.2 250.8,77.0 252.5,76.8 254.2,76.6 255.8,76.5 257.5,75.9 259.2,75.5 260.9,75.1 262.6,74.9 264.3,74.8 266.0,74.6 267.7,74.4 269.4,74.1 271.1,73.8 272.8,73.5 274.5,73.3 276.2,73.2 277.9,73.0 279.6,72.8 281.3,72.7 283.0,72.5 284.7,72.3 286.4,71.9 288.1,71.8 289.8,71.7 291.5,71.5 293.2,71.4 294.9,71.1 296.6,70.9 298.3,70.6 300.0,70.4 301.7,70.1 303.4,70.0 305.1,69.9 306.8,69.7 308.5,69.4 310.2,69.0 311.9,68.8 313.6,68.6 315.3,68.1 317.0,68.0 318.7,67.9 320.4,67.8 322.1,67.6 323.8,67.4 325.5,67.2 327.2,67.0 328.9,66.8 330.6,66.6 332.3,66.5 334.0,66.3 335.7,66.2 337.4,66.0 339.1,65.7 340.8,65.6 342.5,65.3 344.2,65.2 345.8,65.1 347.5,64.9 349.2,64.8 350.9,64.6 352.6,64.4 354.3,64.1 356.0,63.7 357.7,63.5 359.4,63.3 361.1,63.3 362.8,63.2 364.5,63.0 366.2,62.6 367.9,62.5 369.6,62.4 371.3,62.2 373.0,62.0 374.7,61.8 376.4,61.6 378.1,61.5 379.8,61.2 381.5,61.0 383.2,60.8 384.9,60.5 386.6,60.4 388.3,60.4 390.0,60.3 391.7,60.1 393.4,59.9 395.1,59.7 396.8,59.6 398.5,59.4 400.2,59.2 401.9,59.1 403.6,58.9 405.3,58.8 407.0,58.5 408.7,58.3 410.4,58.1 412.1,57.9 413.8,57.8 415.5,57.7 417.2,57.6 418.9,57.4 420.6,57.3 422.3,57.2 424.0,56.9 425.7,56.7 427.4,56.5 429.1,56.4 430.8,56.3 432.5,56.1 434.2,55.9 435.8,55.8 437.5,55.6 439.2,55.5 440.9,55.3 442.6,55.1 444.3,54.9 446.0,54.8 447.7,54.7 449.4,54.6 451.1,54.5 452.8,54.3 454.5,54.2 456.2,54.1 457.9,54.0 459.6,53.6 461.3,53.4 463.0,58.4 464.7,57.4 466.4,55.5 468.1,54.8 469.8,53.9 471.5,52.8 473.2,52.2 474.9,51.8 476.6,51.1 478.3,50.0 480.0,49.2 481.7,49.0 483.4,48.5 485.1,48.2 486.8,47.7 488.5,47.1 490.2,46.5 491.9,46.2 493.6,45.7 495.3,45.4 497.0,45.0 498.7,44.8 500.4,44.5 502.1,44.2 503.8,43.7 505.5,43.3 507.2,42.8 508.9,42.1 510.6,41.7 512.3,41.5 514.0,41.3 515.7,41.0 517.4,40.6 519.1,40.2 520.8,39.8 522.5,38.8 524.2,38.0 525.8,37.7 527.5,37.5 529.2,37.1 530.9,36.6 532.6,36.1 534.3,35.8 536.0,35.4 537.7,35.1 539.4,34.7 541.1,34.4 542.8,33.9 544.5,33.6 546.2,33.5 547.9,33.2 549.6,32.8 551.3,32.5 553.0,32.2 554.7,32.1 556.4,31.9 558.1,31.5 559.8,31.4 561.5,31.1 563.2,30.9 564.9,30.7 566.6,30.5 568.3,30.2 570.0,30.0" />
  
  <!-- Punto finale luminoso -->
  <circle cx="570.0" cy="30.0" r="4" fill="#ffffff" stroke="#0366d6" stroke-width="2.5" />
</svg>