<svg width="600" height="150" viewBox="0 0 600 150" xmlns="http://www.w3.org/2000/svg">
  <defs>
    <filter id="shadow2" x="-2%" y="-2%" width="104%" height="108%">
      <feDropShadow dx="0" dy="2" stdDeviation="3" flood-opacity="0.1" />
    </filter>
    <linearGradient id="fillGrad" x1="0" y1="0" x2="0" y2="1">
      <stop offset="0%" stop-color="#0366d6" stop-opacity="0.3"/>
      <stop offset="100%" stop-color="#0366d6" stop-opacity="0.02"/>
    </linearGradient>
  </defs>
  <rect width="600" height="150" rx="12" fill="#ffffff" filter="url(#shadow2)" stroke="#e1e4e8" stroke-width="1"/>
  <text x="20" y="24" fill="#2b3137" font-family="-apple-system,BlinkMacSystemFont,'Segoe UI',Helvetica,Arial,sans-serif" font-size="14" font-weight="600">📈 Download Growth (Actual: 77.5k)</text>
  
  <!-- Area sotto la linea -->
  <polygon fill="url(#fillGrad)" points="30.0,120.0,120 30.0,120.0 32.8,119.0 35.5,118.0 38.3,117.1 41.1,116.9 43.8,116.4 46.6,115.3 49.4,114.6 52.2,114.1 54.9,112.9 57.7,112.4 60.5,111.8 63.2,111.5 66.0,110.9 68.8,110.2 71.5,109.4 74.3,108.7 77.1,108.3 79.8,108.0 82.6,107.5 85.4,106.9 88.2,106.4 90.9,106.1 93.7,105.6 96.5,103.8 99.2,103.3 102.0,102.6 104.8,101.9 107.5,101.2 110.3,100.6 113.1,100.3 115.8,100.0 118.6,99.5 121.4,98.6 124.2,97.8 126.9,97.3 129.7,96.7 132.5,96.5 135.2,96.4 138.0,96.1 140.8,95.5 143.5,95.2 146.3,94.9 149.1,94.3 151.8,93.3 154.6,93.1 157.4,92.9 160.2,92.5 162.9,91.7 165.7,91.2 168.5,90.4 171.2,89.9 174.0,89.2 176.8,89.0 179.5,88.6 182.3,87.9 185.1,87.2 187.8,86.6 190.6,86.4 193.4,86.0 196.2,85.7 198.9,84.9 201.7,84.1 204.5,83.5 207.2,82.8 210.0,82.4 212.8,82.2 215.5,82.0 218.3,81.4 221.1,81.0 223.8,80.7 226.6,80.5 229.4,80.2 232.2,79.8 234.9,79.6 237.7,79.4 240.5,79.2 243.2,78.5 246.0,78.1 248.8,77.9 251.5,77.7 254.3,77.5 257.1,77.5 259.8,89.7 262.6,88.5 265.4,87.4 268.2,86.3 270.9,83.0 273.7,80.7 276.5,78.2 279.2,77.3 282.0,76.2 284.8,74.5 287.5,72.7 290.3,71.3 293.1,70.8 295.8,70.3 298.6,69.0 301.4,68.0 304.2,67.4 306.9,66.6 309.7,66.3 312.5,66.2 315.2,65.5 318.0,64.3 320.8,63.5 323.5,62.7 326.3,61.8 329.1,61.3 331.8,61.0 334.6,60.2 337.4,59.5 340.2,58.9 342.9,58.3 345.7,58.1 348.5,57.9 351.2,57.5 354.0,56.9 356.8,56.5 359.5,56.0 362.3,55.7 365.1,55.3 367.8,55.0 370.6,54.7 373.4,54.4 376.2,54.1 378.9,53.4 381.7,53.0 384.5,52.4 387.2,52.1 390.0,51.8 392.8,51.5 395.5,51.2 398.3,50.9 401.1,50.1 403.8,49.5 406.6,48.8 409.4,48.5 412.2,48.4 414.9,48.0 417.7,47.7 420.5,47.2 423.2,46.8 426.0,46.2 428.8,45.9 431.5,45.7 434.3,45.4 437.1,45.2 439.8,45.0 442.6,44.6 445.4,44.3 448.2,43.8 450.9,43.5 453.7,43.4 456.5,43.1 459.2,42.9 462.0,42.5 464.8,42.1 467.5,41.7 470.3,41.3 473.1,40.9 475.8,40.7 478.6,40.5 481.4,40.2 484.2,39.7 486.9,39.2 489.7,38.8 492.5,38.4 495.2,37.8 498.0,37.6 500.8,37.4 503.5,37.2 506.3,36.9 509.1,36.6 511.8,36.2 514.6,36.0 517.4,35.6 520.2,35.4 522.9,35.1 525.7,34.9 528.5,34.7 531.2,34.4 534.0,33.9 536.8,33.7 539.5,33.3 542.3,33.1 545.1,32.9 547.8,32.6 550.6,32.4 553.4,32.2 556.2,31.9 558.9,31.3 561.7,30.8 564.5,30.4 567.2,30.1 570.0,30.0 570.0,30.0,120" />
  
  <!-- Linea principale -->
  <polyline fill="none" stroke="#0366d6" stroke-width="2.5" stroke-linecap="round" stroke-linejoin="round" points="30.0,120.0 32.8,119.0 35.5,118.0 38.3,117.1 41.1,116.9 43.8,116.4 46.6,115.3 49.4,114.6 52.2,114.1 54.9,112.9 57.7,112.4 60.5,111.8 63.2,111.5 66.0,110.9 68.8,110.2 71.5,109.4 74.3,108.7 77.1,108.3 79.8,108.0 82.6,107.5 85.4,106.9 88.2,106.4 90.9,106.1 93.7,105.6 96.5,103.8 99.2,103.3 102.0,102.6 104.8,101.9 107.5,101.2 110.3,100.6 113.1,100.3 115.8,100.0 118.6,99.5 121.4,98.6 124.2,97.8 126.9,97.3 129.7,96.7 132.5,96.5 135.2,96.4 138.0,96.1 140.8,95.5 143.5,95.2 146.3,94.9 149.1,94.3 151.8,93.3 154.6,93.1 157.4,92.9 160.2,92.5 162.9,91.7 165.7,91.2 168.5,90.4 171.2,89.9 174.0,89.2 176.8,89.0 179.5,88.6 182.3,87.9 185.1,87.2 187.8,86.6 190.6,86.4 193.4,86.0 196.2,85.7 198.9,84.9 201.7,84.1 204.5,83.5 207.2,82.8 210.0,82.4 212.8,82.2 215.5,82.0 218.3,81.4 221.1,81.0 223.8,80.7 226.6,80.5 229.4,80.2 232.2,79.8 234.9,79.6 237.7,79.4 240.5,79.2 243.2,78.5 246.0,78.1 248.8,77.9 251.5,77.7 254.3,77.5 257.1,77.5 259.8,89.7 262.6,88.5 265.4,87.4 268.2,86.3 270.9,83.0 273.7,80.7 276.5,78.2 279.2,77.3 282.0,76.2 284.8,74.5 287.5,72.7 290.3,71.3 293.1,70.8 295.8,70.3 298.6,69.0 301.4,68.0 304.2,67.4 306.9,66.6 309.7,66.3 312.5,66.2 315.2,65.5 318.0,64.3 320.8,63.5 323.5,62.7 326.3,61.8 329.1,61.3 331.8,61.0 334.6,60.2 337.4,59.5 340.2,58.9 342.9,58.3 345.7,58.1 348.5,57.9 351.2,57.5 354.0,56.9 356.8,56.5 359.5,56.0 362.3,55.7 365.1,55.3 367.8,55.0 370.6,54.7 373.4,54.4 376.2,54.1 378.9,53.4 381.7,53.0 384.5,52.4 387.2,52.1 390.0,51.8 392.8,51.5 395.5,51.2 398.3,50.9 401.1,50.1 403.8,49.5 406.6,48.8 409.4,48.5 412.2,48.4 414.9,48.0 417.7,47.7 420.5,47.2 423.2,46.8 426.0,46.2 428.8,45.9 431.5,45.7 434.3,45.4 437.1,45.2 439.8,45.0 442.6,44.6 445.4,44.3 448.2,43.8 450.9,43.5 453.7,43.4 456.5,43.1 459.2,42.9 462.0,42.5 464.8,42.1 467.5,41.7 470.3,41.3 473.1,40.9 475.8,40.7 478.6,40.5 481.4,40.2 484.2,39.7 486.9,39.2 489.7,38.8 492.5,38.4 495.2,37.8 498.0,37.6 500.8,37.4 503.5,37.2 506.3,36.9 509.1,36.6 511.8,36.2 514.6,36.0 517.4,35.6 520.2,35.4 522.9,35.1 525.7,34.9 528.5,34.7 531.2,34.4 534.0,33.9 536.8,33.7 539.5,33.3 542.3,33.1 545.1,32.9 547.8,32.6 550.6,32.4 553.4,32.2 556.2,31.9 558.9,31.3 561.7,30.8 564.5,30.4 567.2,30.1 570.0,30.0" />
  
  <!-- Punto finale luminoso -->
  <circle cx="570.0" cy="30.0" r="4" fill="#ffffff" stroke="#0366d6" stroke-width="2.5" />
</svg>