<svg width="600" height="150" viewBox="0 0 600 150" xmlns="http://www.w3.org/2000/svg">
  <defs>
    <filter id="shadow2" x="-2%" y="-2%" width="104%" height="108%">
      <feDropShadow dx="0" dy="2" stdDeviation="3" flood-opacity="0.1" />
    </filter>
    <linearGradient id="fillGrad" x1="0" y1="0" x2="0" y2="1">
      <stop offset="0%" stop-color="#0366d6" stop-opacity="0.3"/>
      <stop offset="100%" stop-color="#0366d6" stop-opacity="0.02"/>
    </linearGradient>
  </defs>
  <rect width="600" height="150" rx="12" fill="#ffffff" filter="url(#shadow2)" stroke="#e1e4e8" stroke-width="1"/>
  <text x="20" y="24" fill="#2b3137" font-family="-apple-system,BlinkMacSystemFont,'Segoe UI',Helvetica,Arial,sans-serif" font-size="14" font-weight="600">📈 Download Growth (Actual: 74.9k)</text>
  
  <!-- Area sotto la linea -->
  <polygon fill="url(#fillGrad)" points="30.0,120.0,120 30.0,120.0 34.1,118.7 38.2,117.4 42.4,116.2 46.5,115.9 50.6,115.3 54.7,113.8 58.9,112.8 63.0,112.2 67.1,110.7 71.2,109.9 75.3,109.2 79.5,108.8 83.6,108.1 87.7,107.1 91.8,106.0 96.0,105.2 100.1,104.6 104.2,104.2 108.3,103.6 112.4,102.8 116.6,102.1 120.7,101.7 124.8,101.1 128.9,98.7 133.1,98.0 137.2,97.1 141.3,96.2 145.4,95.3 149.5,94.6 153.7,94.0 157.8,93.7 161.9,93.0 166.0,91.8 170.2,90.9 174.3,90.2 178.4,89.4 182.5,89.2 186.6,89.0 190.8,88.6 194.9,87.8 199.0,87.4 203.1,87.0 207.3,86.2 211.4,84.9 215.5,84.6 219.6,84.4 223.7,83.9 227.9,82.9 232.0,82.2 236.1,81.2 240.2,80.4 244.4,79.5 248.5,79.3 252.6,78.7 256.7,77.8 260.8,76.8 265.0,76.1 269.1,75.8 273.2,75.3 277.3,74.9 281.5,73.8 285.6,72.8 289.7,72.0 293.8,71.1 297.9,70.6 302.1,70.4 306.2,70.0 310.3,69.3 314.4,68.8 318.5,68.4 322.7,68.0 326.8,67.7 330.9,67.2 335.0,66.9 339.2,66.6 343.3,66.4 347.4,65.4 351.5,64.9 355.6,64.7 359.8,64.4 363.9,64.2 368.0,64.2 372.1,80.1 376.3,78.6 380.4,77.2 384.5,75.7 388.6,71.3 392.7,68.3 396.9,65.0 401.0,63.8 405.1,62.5 409.2,60.2 413.4,57.8 417.5,56.0 421.6,55.3 425.7,54.7 429.8,53.0 434.0,51.7 438.1,50.9 442.2,49.8 446.3,49.4 450.5,49.2 454.6,48.3 458.7,46.8 462.8,45.8 466.9,44.7 471.1,43.5 475.2,42.9 479.3,42.5 483.4,41.5 487.6,40.5 491.7,39.7 495.8,38.9 499.9,38.6 504.0,38.4 508.2,37.9 512.3,37.1 516.4,36.5 520.5,35.9 524.7,35.5 528.8,35.0 532.9,34.5 537.0,34.1 541.1,33.8 545.3,33.4 549.4,32.5 553.5,31.9 557.6,31.2 561.8,30.8 565.9,30.3 570.0,30.0 570.0,30.0,120" />
  
  <!-- Linea principale -->
  <polyline fill="none" stroke="#0366d6" stroke-width="2.5" stroke-linecap="round" stroke-linejoin="round" points="30.0,120.0 34.1,118.7 38.2,117.4 42.4,116.2 46.5,115.9 50.6,115.3 54.7,113.8 58.9,112.8 63.0,112.2 67.1,110.7 71.2,109.9 75.3,109.2 79.5,108.8 83.6,108.1 87.7,107.1 91.8,106.0 96.0,105.2 100.1,104.6 104.2,104.2 108.3,103.6 112.4,102.8 116.6,102.1 120.7,101.7 124.8,101.1 128.9,98.7 133.1,98.0 137.2,97.1 141.3,96.2 145.4,95.3 149.5,94.6 153.7,94.0 157.8,93.7 161.9,93.0 166.0,91.8 170.2,90.9 174.3,90.2 178.4,89.4 182.5,89.2 186.6,89.0 190.8,88.6 194.9,87.8 199.0,87.4 203.1,87.0 207.3,86.2 211.4,84.9 215.5,84.6 219.6,84.4 223.7,83.9 227.9,82.9 232.0,82.2 236.1,81.2 240.2,80.4 244.4,79.5 248.5,79.3 252.6,78.7 256.7,77.8 260.8,76.8 265.0,76.1 269.1,75.8 273.2,75.3 277.3,74.9 281.5,73.8 285.6,72.8 289.7,72.0 293.8,71.1 297.9,70.6 302.1,70.4 306.2,70.0 310.3,69.3 314.4,68.8 318.5,68.4 322.7,68.0 326.8,67.7 330.9,67.2 335.0,66.9 339.2,66.6 343.3,66.4 347.4,65.4 351.5,64.9 355.6,64.7 359.8,64.4 363.9,64.2 368.0,64.2 372.1,80.1 376.3,78.6 380.4,77.2 384.5,75.7 388.6,71.3 392.7,68.3 396.9,65.0 401.0,63.8 405.1,62.5 409.2,60.2 413.4,57.8 417.5,56.0 421.6,55.3 425.7,54.7 429.8,53.0 434.0,51.7 438.1,50.9 442.2,49.8 446.3,49.4 450.5,49.2 454.6,48.3 458.7,46.8 462.8,45.8 466.9,44.7 471.1,43.5 475.2,42.9 479.3,42.5 483.4,41.5 487.6,40.5 491.7,39.7 495.8,38.9 499.9,38.6 504.0,38.4 508.2,37.9 512.3,37.1 516.4,36.5 520.5,35.9 524.7,35.5 528.8,35.0 532.9,34.5 537.0,34.1 541.1,33.8 545.3,33.4 549.4,32.5 553.5,31.9 557.6,31.2 561.8,30.8 565.9,30.3 570.0,30.0" />
  
  <!-- Punto finale luminoso -->
  <circle cx="570.0" cy="30.0" r="4" fill="#ffffff" stroke="#0366d6" stroke-width="2.5" />
</svg>