<svg width="600" height="150" viewBox="0 0 600 150" xmlns="http://www.w3.org/2000/svg">
  <defs>
    <filter id="shadow2" x="-2%" y="-2%" width="104%" height="108%">
      <feDropShadow dx="0" dy="2" stdDeviation="3" flood-opacity="0.1" />
    </filter>
    <linearGradient id="fillGrad" x1="0" y1="0" x2="0" y2="1">
      <stop offset="0%" stop-color="#0366d6" stop-opacity="0.3"/>
      <stop offset="100%" stop-color="#0366d6" stop-opacity="0.02"/>
    </linearGradient>
  </defs>
  <rect width="600" height="150" rx="12" fill="#ffffff" filter="url(#shadow2)" stroke="#e1e4e8" stroke-width="1"/>
  <text x="20" y="24" fill="#2b3137" font-family="-apple-system,BlinkMacSystemFont,'Segoe UI',Helvetica,Arial,sans-serif" font-size="14" font-weight="600">📈 Download Growth (Actual: 87.1k)</text>
  
  <!-- Area sotto la linea -->
  <polygon fill="url(#fillGrad)" points="30.0,120.0,120 30.0,120.0 31.3,119.5 32.7,119.0 34.0,118.5 35.4,118.4 36.7,118.1 38.1,117.5 39.4,117.1 40.8,116.9 42.1,116.3 43.5,116.0 44.8,115.7 46.2,115.5 47.5,115.2 48.9,114.8 50.2,114.4 51.5,114.1 52.9,113.9 54.2,113.7 55.6,113.4 56.9,113.1 58.3,112.8 59.6,112.7 61.0,112.4 62.3,111.5 63.7,111.2 65.0,110.9 66.4,110.5 67.7,110.2 69.1,109.9 70.4,109.6 71.7,109.5 73.1,109.2 74.4,108.8 75.8,108.4 77.1,108.1 78.5,107.8 79.8,107.7 81.2,107.6 82.5,107.5 83.9,107.2 85.2,107.0 86.6,106.9 87.9,106.5 89.3,106.0 90.6,105.9 91.9,105.8 93.3,105.6 94.6,105.2 96.0,104.9 97.3,104.5 98.7,104.2 100.0,103.8 101.4,103.8 102.7,103.5 104.1,103.2 105.4,102.8 106.8,102.5 108.1,102.4 109.5,102.2 110.8,102.0 112.1,101.6 113.5,101.2 114.8,100.8 116.2,100.5 117.5,100.3 118.9,100.2 120.2,100.1 121.6,99.8 122.9,99.6 124.3,99.4 125.6,99.3 127.0,99.1 128.3,98.9 129.7,98.8 131.0,98.7 132.3,98.6 133.7,98.2 135.0,98.0 136.4,98.0 137.7,97.8 139.1,97.7 140.4,97.7 141.8,104.1 143.1,103.5 144.5,102.9 145.8,102.3 147.2,100.6 148.5,99.4 149.9,98.1 151.2,97.6 152.5,97.1 153.9,96.2 155.2,95.2 156.6,94.5 157.9,94.2 159.3,94.0 160.6,93.3 162.0,92.7 163.3,92.4 164.7,92.0 166.0,91.8 167.4,91.8 168.7,91.4 170.0,90.8 171.4,90.4 172.7,90.0 174.1,89.5 175.4,89.3 176.8,89.1 178.1,88.7 179.5,88.3 180.8,87.9 182.2,87.7 183.5,87.5 184.9,87.5 186.2,87.2 187.6,86.9 188.9,86.7 190.2,86.5 191.6,86.3 192.9,86.1 194.3,85.9 195.6,85.7 197.0,85.6 198.3,85.4 199.7,85.1 201.0,84.9 202.4,84.6 203.7,84.4 205.1,84.2 206.4,84.1 207.8,84.0 209.1,83.8 210.4,83.3 211.8,83.0 213.1,82.6 214.5,82.5 215.8,82.5 217.2,82.3 218.5,82.1 219.9,81.8 221.2,81.6 222.6,81.3 223.9,81.1 225.3,81.1 226.6,80.9 228.0,80.8 229.3,80.7 230.6,80.5 232.0,80.3 233.3,80.0 234.7,79.9 236.0,79.8 237.4,79.7 238.7,79.6 240.1,79.4 241.4,79.2 242.8,78.9 244.1,78.8 245.5,78.5 246.8,78.4 248.2,78.3 249.5,78.2 250.8,77.9 252.2,77.6 253.5,77.4 254.9,77.2 256.2,76.9 257.6,76.8 258.9,76.7 260.3,76.6 261.6,76.4 263.0,76.3 264.3,76.1 265.7,75.9 267.0,75.8 268.4,75.6 269.7,75.5 271.0,75.4 272.4,75.3 273.7,75.1 275.1,74.9 276.4,74.7 277.8,74.5 279.1,74.4 280.5,74.3 281.8,74.2 283.2,74.1 284.5,73.9 285.9,73.8 287.2,73.5 288.6,73.2 289.9,73.0 291.2,72.9 292.6,72.8 293.9,72.7 295.3,72.6 296.6,72.3 298.0,72.2 299.3,72.1 300.7,71.9 302.0,71.8 303.4,71.6 304.7,71.5 306.1,71.4 307.4,71.1 308.8,71.0 310.1,70.8 311.4,70.6 312.8,70.5 314.1,70.4 315.5,70.4 316.8,70.2 318.2,70.1 319.5,69.9 320.9,69.7 322.2,69.6 323.6,69.5 324.9,69.4 326.3,69.2 327.6,69.1 329.0,68.9 330.3,68.7 331.6,68.5 333.0,68.4 334.3,68.3 335.7,68.2 337.0,68.1 338.4,68.0 339.7,67.9 341.1,67.7 342.4,67.5 343.8,67.4 345.1,67.2 346.5,67.1 347.8,67.0 349.2,66.9 350.5,66.7 351.8,66.6 353.2,66.5 354.5,66.4 355.9,66.2 357.2,66.0 358.6,65.9 359.9,65.8 361.3,65.7 362.6,65.6 364.0,65.5 365.3,65.4 366.7,65.3 368.0,65.2 369.4,65.1 370.7,64.8 372.0,64.6 373.4,68.7 374.7,67.9 376.1,66.4 377.4,65.8 378.8,65.0 380.1,64.1 381.5,63.6 382.8,63.3 384.2,62.7 385.5,61.8 386.9,61.1 388.2,60.9 389.6,60.6 390.9,60.3 392.2,59.8 393.6,59.4 394.9,58.9 396.3,58.7 397.6,58.2 399.0,58.0 400.3,57.6 401.7,57.4 403.0,57.2 404.4,57.0 405.7,56.5 407.1,56.2 408.4,55.8 409.8,55.2 411.1,54.9 412.4,54.7 413.8,54.5 415.1,54.3 416.5,54.0 417.8,53.6 419.2,53.3 420.5,52.5 421.9,51.8 423.2,51.5 424.6,51.4 425.9,51.1 427.3,50.6 428.6,50.3 430.0,50.0 431.3,49.7 432.6,49.4 434.0,49.1 435.3,48.8 436.7,48.4 438.0,48.2 439.4,48.0 440.7,47.9 442.1,47.5 443.4,47.2 444.8,47.0 446.1,46.9 447.5,46.7 448.8,46.5 450.1,46.3 451.5,46.1 452.8,45.9 454.2,45.8 455.5,45.6 456.9,45.4 458.2,45.2 459.6,44.8 460.9,44.5 462.3,44.2 463.6,44.1 465.0,43.9 466.3,43.7 467.7,43.6 469.0,43.4 470.3,43.2 471.7,43.1 473.0,43.0 474.4,42.8 475.7,42.7 477.1,42.4 478.4,42.3 479.8,42.1 481.1,41.9 482.5,41.6 483.8,41.2 485.2,41.0 486.5,40.8 487.9,40.6 489.2,40.4 490.5,40.2 491.9,39.9 493.2,39.7 494.6,39.7 495.9,39.5 497.3,39.3 498.6,39.1 500.0,38.9 501.3,38.8 502.7,38.6 504.0,38.3 505.4,38.2 506.7,37.9 508.1,37.7 509.4,37.4 510.7,37.2 512.1,37.0 513.4,36.9 514.8,36.7 516.1,36.6 517.5,36.4 518.8,36.2 520.2,36.0 521.5,35.9 522.9,35.7 524.2,35.6 525.6,35.4 526.9,35.3 528.3,35.1 529.6,35.0 530.9,34.9 532.3,34.7 533.6,34.6 535.0,34.4 536.3,34.2 537.7,34.1 539.0,34.0 540.4,33.8 541.7,33.5 543.1,33.4 544.4,33.3 545.8,33.2 547.1,32.9 548.5,32.7 549.8,32.4 551.1,32.3 552.5,32.3 553.8,32.2 555.2,32.0 556.5,31.9 557.9,31.6 559.2,31.3 560.6,31.3 561.9,31.0 563.3,30.9 564.6,30.8 566.0,30.6 567.3,30.4 568.7,30.2 570.0,30.0 570.0,30.0,120" />
  
  <!-- Linea principale -->
  <polyline fill="none" stroke="#0366d6" stroke-width="2.5" stroke-linecap="round" stroke-linejoin="round" points="30.0,120.0 31.3,119.5 32.7,119.0 34.0,118.5 35.4,118.4 36.7,118.1 38.1,117.5 39.4,117.1 40.8,116.9 42.1,116.3 43.5,116.0 44.8,115.7 46.2,115.5 47.5,115.2 48.9,114.8 50.2,114.4 51.5,114.1 52.9,113.9 54.2,113.7 55.6,113.4 56.9,113.1 58.3,112.8 59.6,112.7 61.0,112.4 62.3,111.5 63.7,111.2 65.0,110.9 66.4,110.5 67.7,110.2 69.1,109.9 70.4,109.6 71.7,109.5 73.1,109.2 74.4,108.8 75.8,108.4 77.1,108.1 78.5,107.8 79.8,107.7 81.2,107.6 82.5,107.5 83.9,107.2 85.2,107.0 86.6,106.9 87.9,106.5 89.3,106.0 90.6,105.9 91.9,105.8 93.3,105.6 94.6,105.2 96.0,104.9 97.3,104.5 98.7,104.2 100.0,103.8 101.4,103.8 102.7,103.5 104.1,103.2 105.4,102.8 106.8,102.5 108.1,102.4 109.5,102.2 110.8,102.0 112.1,101.6 113.5,101.2 114.8,100.8 116.2,100.5 117.5,100.3 118.9,100.2 120.2,100.1 121.6,99.8 122.9,99.6 124.3,99.4 125.6,99.3 127.0,99.1 128.3,98.9 129.7,98.8 131.0,98.7 132.3,98.6 133.7,98.2 135.0,98.0 136.4,98.0 137.7,97.8 139.1,97.7 140.4,97.7 141.8,104.1 143.1,103.5 144.5,102.9 145.8,102.3 147.2,100.6 148.5,99.4 149.9,98.1 151.2,97.6 152.5,97.1 153.9,96.2 155.2,95.2 156.6,94.5 157.9,94.2 159.3,94.0 160.6,93.3 162.0,92.7 163.3,92.4 164.7,92.0 166.0,91.8 167.4,91.8 168.7,91.4 170.0,90.8 171.4,90.4 172.7,90.0 174.1,89.5 175.4,89.3 176.8,89.1 178.1,88.7 179.5,88.3 180.8,87.9 182.2,87.7 183.5,87.5 184.9,87.5 186.2,87.2 187.6,86.9 188.9,86.7 190.2,86.5 191.6,86.3 192.9,86.1 194.3,85.9 195.6,85.7 197.0,85.6 198.3,85.4 199.7,85.1 201.0,84.9 202.4,84.6 203.7,84.4 205.1,84.2 206.4,84.1 207.8,84.0 209.1,83.8 210.4,83.3 211.8,83.0 213.1,82.6 214.5,82.5 215.8,82.5 217.2,82.3 218.5,82.1 219.9,81.8 221.2,81.6 222.6,81.3 223.9,81.1 225.3,81.1 226.6,80.9 228.0,80.8 229.3,80.7 230.6,80.5 232.0,80.3 233.3,80.0 234.7,79.9 236.0,79.8 237.4,79.7 238.7,79.6 240.1,79.4 241.4,79.2 242.8,78.9 244.1,78.8 245.5,78.5 246.8,78.4 248.2,78.3 249.5,78.2 250.8,77.9 252.2,77.6 253.5,77.4 254.9,77.2 256.2,76.9 257.6,76.8 258.9,76.7 260.3,76.6 261.6,76.4 263.0,76.3 264.3,76.1 265.7,75.9 267.0,75.8 268.4,75.6 269.7,75.5 271.0,75.4 272.4,75.3 273.7,75.1 275.1,74.9 276.4,74.7 277.8,74.5 279.1,74.4 280.5,74.3 281.8,74.2 283.2,74.1 284.5,73.9 285.9,73.8 287.2,73.5 288.6,73.2 289.9,73.0 291.2,72.9 292.6,72.8 293.9,72.7 295.3,72.6 296.6,72.3 298.0,72.2 299.3,72.1 300.7,71.9 302.0,71.8 303.4,71.6 304.7,71.5 306.1,71.4 307.4,71.1 308.8,71.0 310.1,70.8 311.4,70.6 312.8,70.5 314.1,70.4 315.5,70.4 316.8,70.2 318.2,70.1 319.5,69.9 320.9,69.7 322.2,69.6 323.6,69.5 324.9,69.4 326.3,69.2 327.6,69.1 329.0,68.9 330.3,68.7 331.6,68.5 333.0,68.4 334.3,68.3 335.7,68.2 337.0,68.1 338.4,68.0 339.7,67.9 341.1,67.7 342.4,67.5 343.8,67.4 345.1,67.2 346.5,67.1 347.8,67.0 349.2,66.9 350.5,66.7 351.8,66.6 353.2,66.5 354.5,66.4 355.9,66.2 357.2,66.0 358.6,65.9 359.9,65.8 361.3,65.7 362.6,65.6 364.0,65.5 365.3,65.4 366.7,65.3 368.0,65.2 369.4,65.1 370.7,64.8 372.0,64.6 373.4,68.7 374.7,67.9 376.1,66.4 377.4,65.8 378.8,65.0 380.1,64.1 381.5,63.6 382.8,63.3 384.2,62.7 385.5,61.8 386.9,61.1 388.2,60.9 389.6,60.6 390.9,60.3 392.2,59.8 393.6,59.4 394.9,58.9 396.3,58.7 397.6,58.2 399.0,58.0 400.3,57.6 401.7,57.4 403.0,57.2 404.4,57.0 405.7,56.5 407.1,56.2 408.4,55.8 409.8,55.2 411.1,54.9 412.4,54.7 413.8,54.5 415.1,54.3 416.5,54.0 417.8,53.6 419.2,53.3 420.5,52.5 421.9,51.8 423.2,51.5 424.6,51.4 425.9,51.1 427.3,50.6 428.6,50.3 430.0,50.0 431.3,49.7 432.6,49.4 434.0,49.1 435.3,48.8 436.7,48.4 438.0,48.2 439.4,48.0 440.7,47.9 442.1,47.5 443.4,47.2 444.8,47.0 446.1,46.9 447.5,46.7 448.8,46.5 450.1,46.3 451.5,46.1 452.8,45.9 454.2,45.8 455.5,45.6 456.9,45.4 458.2,45.2 459.6,44.8 460.9,44.5 462.3,44.2 463.6,44.1 465.0,43.9 466.3,43.7 467.7,43.6 469.0,43.4 470.3,43.2 471.7,43.1 473.0,43.0 474.4,42.8 475.7,42.7 477.1,42.4 478.4,42.3 479.8,42.1 481.1,41.9 482.5,41.6 483.8,41.2 485.2,41.0 486.5,40.8 487.9,40.6 489.2,40.4 490.5,40.2 491.9,39.9 493.2,39.7 494.6,39.7 495.9,39.5 497.3,39.3 498.6,39.1 500.0,38.9 501.3,38.8 502.7,38.6 504.0,38.3 505.4,38.2 506.7,37.9 508.1,37.7 509.4,37.4 510.7,37.2 512.1,37.0 513.4,36.9 514.8,36.7 516.1,36.6 517.5,36.4 518.8,36.2 520.2,36.0 521.5,35.9 522.9,35.7 524.2,35.6 525.6,35.4 526.9,35.3 528.3,35.1 529.6,35.0 530.9,34.9 532.3,34.7 533.6,34.6 535.0,34.4 536.3,34.2 537.7,34.1 539.0,34.0 540.4,33.8 541.7,33.5 543.1,33.4 544.4,33.3 545.8,33.2 547.1,32.9 548.5,32.7 549.8,32.4 551.1,32.3 552.5,32.3 553.8,32.2 555.2,32.0 556.5,31.9 557.9,31.6 559.2,31.3 560.6,31.3 561.9,31.0 563.3,30.9 564.6,30.8 566.0,30.6 567.3,30.4 568.7,30.2 570.0,30.0" />
  
  <!-- Punto finale luminoso -->
  <circle cx="570.0" cy="30.0" r="4" fill="#ffffff" stroke="#0366d6" stroke-width="2.5" />
</svg>