<svg width="600" height="150" viewBox="0 0 600 150" xmlns="http://www.w3.org/2000/svg">
  <defs>
    <filter id="shadow2" x="-2%" y="-2%" width="104%" height="108%">
      <feDropShadow dx="0" dy="2" stdDeviation="3" flood-opacity="0.1" />
    </filter>
    <linearGradient id="fillGrad" x1="0" y1="0" x2="0" y2="1">
      <stop offset="0%" stop-color="#0366d6" stop-opacity="0.3"/>
      <stop offset="100%" stop-color="#0366d6" stop-opacity="0.02"/>
    </linearGradient>
  </defs>
  <rect width="600" height="150" rx="12" fill="#ffffff" filter="url(#shadow2)" stroke="#e1e4e8" stroke-width="1"/>
  <text x="20" y="24" fill="#2b3137" font-family="-apple-system,BlinkMacSystemFont,'Segoe UI',Helvetica,Arial,sans-serif" font-size="14" font-weight="600">📈 Download Growth (Actual: 75.0k)</text>
  
  <!-- Area sotto la linea -->
  <polygon fill="url(#fillGrad)" points="30.0,120.0,120 30.0,120.0 34.1,118.8 38.2,117.4 42.3,116.2 46.4,115.9 50.5,115.3 54.5,113.8 58.6,112.9 62.7,112.2 66.8,110.7 70.9,110.0 75.0,109.2 79.1,108.8 83.2,108.1 87.3,107.1 91.4,106.1 95.5,105.2 99.5,104.7 103.6,104.3 107.7,103.6 111.8,102.8 115.9,102.1 120.0,101.8 124.1,101.1 128.2,98.8 132.3,98.1 136.4,97.2 140.5,96.3 144.5,95.4 148.6,94.7 152.7,94.1 156.8,93.8 160.9,93.1 165.0,92.0 169.1,91.0 173.2,90.3 177.3,89.5 181.4,89.3 185.5,89.1 189.5,88.7 193.6,87.9 197.7,87.5 201.8,87.2 205.9,86.3 210.0,85.1 214.1,84.7 218.2,84.5 222.3,84.0 226.4,83.0 230.5,82.3 234.5,81.3 238.6,80.6 242.7,79.6 246.8,79.5 250.9,78.9 255.0,78.0 259.1,77.0 263.2,76.3 267.3,76.0 271.4,75.5 275.5,75.1 279.5,74.0 283.6,73.0 287.7,72.2 291.8,71.3 295.9,70.8 300.0,70.6 304.1,70.2 308.2,69.5 312.3,69.0 316.4,68.6 320.5,68.3 324.5,67.9 328.6,67.4 332.7,67.1 336.8,66.9 340.9,66.6 345.0,65.7 349.1,65.1 353.2,64.9 357.3,64.6 361.4,64.4 365.5,64.4 369.5,80.3 373.6,78.8 377.7,77.4 381.8,75.9 385.9,71.5 390.0,68.5 394.1,65.3 398.2,64.1 402.3,62.7 406.4,60.5 410.5,58.1 414.5,56.3 418.6,55.6 422.7,55.0 426.8,53.2 430.9,52.0 435.0,51.1 439.1,50.1 443.2,49.7 447.3,49.5 451.4,48.6 455.5,47.1 459.5,46.1 463.6,45.0 467.7,43.8 471.8,43.2 475.9,42.8 480.0,41.8 484.1,40.9 488.2,40.0 492.3,39.3 496.4,39.0 500.5,38.7 504.5,38.2 508.6,37.4 512.7,36.8 516.8,36.3 520.9,35.8 525.0,35.3 529.1,34.9 533.2,34.5 537.3,34.1 541.4,33.7 545.5,32.9 549.5,32.3 553.6,31.6 557.7,31.1 561.8,30.7 565.9,30.4 570.0,30.0 570.0,30.0,120" />
  
  <!-- Linea principale -->
  <polyline fill="none" stroke="#0366d6" stroke-width="2.5" stroke-linecap="round" stroke-linejoin="round" points="30.0,120.0 34.1,118.8 38.2,117.4 42.3,116.2 46.4,115.9 50.5,115.3 54.5,113.8 58.6,112.9 62.7,112.2 66.8,110.7 70.9,110.0 75.0,109.2 79.1,108.8 83.2,108.1 87.3,107.1 91.4,106.1 95.5,105.2 99.5,104.7 103.6,104.3 107.7,103.6 111.8,102.8 115.9,102.1 120.0,101.8 124.1,101.1 128.2,98.8 132.3,98.1 136.4,97.2 140.5,96.3 144.5,95.4 148.6,94.7 152.7,94.1 156.8,93.8 160.9,93.1 165.0,92.0 169.1,91.0 173.2,90.3 177.3,89.5 181.4,89.3 185.5,89.1 189.5,88.7 193.6,87.9 197.7,87.5 201.8,87.2 205.9,86.3 210.0,85.1 214.1,84.7 218.2,84.5 222.3,84.0 226.4,83.0 230.5,82.3 234.5,81.3 238.6,80.6 242.7,79.6 246.8,79.5 250.9,78.9 255.0,78.0 259.1,77.0 263.2,76.3 267.3,76.0 271.4,75.5 275.5,75.1 279.5,74.0 283.6,73.0 287.7,72.2 291.8,71.3 295.9,70.8 300.0,70.6 304.1,70.2 308.2,69.5 312.3,69.0 316.4,68.6 320.5,68.3 324.5,67.9 328.6,67.4 332.7,67.1 336.8,66.9 340.9,66.6 345.0,65.7 349.1,65.1 353.2,64.9 357.3,64.6 361.4,64.4 365.5,64.4 369.5,80.3 373.6,78.8 377.7,77.4 381.8,75.9 385.9,71.5 390.0,68.5 394.1,65.3 398.2,64.1 402.3,62.7 406.4,60.5 410.5,58.1 414.5,56.3 418.6,55.6 422.7,55.0 426.8,53.2 430.9,52.0 435.0,51.1 439.1,50.1 443.2,49.7 447.3,49.5 451.4,48.6 455.5,47.1 459.5,46.1 463.6,45.0 467.7,43.8 471.8,43.2 475.9,42.8 480.0,41.8 484.1,40.9 488.2,40.0 492.3,39.3 496.4,39.0 500.5,38.7 504.5,38.2 508.6,37.4 512.7,36.8 516.8,36.3 520.9,35.8 525.0,35.3 529.1,34.9 533.2,34.5 537.3,34.1 541.4,33.7 545.5,32.9 549.5,32.3 553.6,31.6 557.7,31.1 561.8,30.7 565.9,30.4 570.0,30.0" />
  
  <!-- Punto finale luminoso -->
  <circle cx="570.0" cy="30.0" r="4" fill="#ffffff" stroke="#0366d6" stroke-width="2.5" />
</svg>