<svg width="600" height="150" viewBox="0 0 600 150" xmlns="http://www.w3.org/2000/svg">
  <defs>
    <filter id="shadow2" x="-2%" y="-2%" width="104%" height="108%">
      <feDropShadow dx="0" dy="2" stdDeviation="3" flood-opacity="0.1" />
    </filter>
    <linearGradient id="fillGrad" x1="0" y1="0" x2="0" y2="1">
      <stop offset="0%" stop-color="#0366d6" stop-opacity="0.3"/>
      <stop offset="100%" stop-color="#0366d6" stop-opacity="0.02"/>
    </linearGradient>
  </defs>
  <rect width="600" height="150" rx="12" fill="#ffffff" filter="url(#shadow2)" stroke="#e1e4e8" stroke-width="1"/>
  <text x="20" y="24" fill="#2b3137" font-family="-apple-system,BlinkMacSystemFont,'Segoe UI',Helvetica,Arial,sans-serif" font-size="14" font-weight="600">📈 Download Growth (Actual: 74.8k)</text>
  
  <!-- Area sotto la linea -->
  <polygon fill="url(#fillGrad)" points="30.0,120.0,120 30.0,120.0 34.3,118.7 38.5,117.3 42.8,116.1 47.0,115.8 51.3,115.2 55.5,113.7 59.8,112.7 64.0,112.0 68.3,110.5 72.5,109.7 76.8,109.0 81.0,108.5 85.3,107.8 89.5,106.8 93.8,105.7 98.0,104.9 102.3,104.3 106.5,103.9 110.8,103.2 115.0,102.4 119.3,101.7 123.5,101.3 127.8,100.7 132.0,98.3 136.3,97.5 140.6,96.6 144.8,95.6 149.1,94.8 153.3,94.0 157.6,93.5 161.8,93.1 166.1,92.4 170.3,91.2 174.6,90.2 178.8,89.5 183.1,88.7 187.3,88.5 191.6,88.3 195.8,87.9 200.1,87.1 204.3,86.7 208.6,86.3 212.8,85.4 217.1,84.1 221.3,83.8 225.6,83.6 229.8,83.1 234.1,82.1 238.3,81.4 242.6,80.3 246.9,79.5 251.1,78.6 255.4,78.4 259.6,77.8 263.9,76.9 268.1,75.9 272.4,75.2 276.6,74.8 280.9,74.3 285.1,73.9 289.4,72.8 293.6,71.8 297.9,70.9 302.1,70.0 306.4,69.6 310.6,69.3 314.9,68.9 319.1,68.2 323.4,67.7 327.6,67.3 331.9,66.9 336.1,66.6 340.4,66.1 344.6,65.7 348.9,65.5 353.1,65.2 357.4,64.3 361.7,63.7 365.9,63.5 370.2,63.2 374.4,63.0 378.7,63.0 382.9,79.3 387.2,77.7 391.4,76.2 395.7,74.7 399.9,70.3 404.2,67.2 408.4,63.9 412.7,62.6 416.9,61.2 421.2,58.9 425.4,56.5 429.7,54.6 433.9,53.9 438.2,53.3 442.4,51.5 446.7,50.2 450.9,49.4 455.2,48.3 459.4,47.9 463.7,47.7 468.0,46.8 472.2,45.2 476.5,44.1 480.7,43.1 485.0,41.8 489.2,41.2 493.5,40.8 497.7,39.8 502.0,38.8 506.2,37.9 510.5,37.2 514.7,36.9 519.0,36.6 523.2,36.1 527.5,35.3 531.7,34.7 536.0,34.1 540.2,33.6 544.5,33.1 548.7,32.7 553.0,32.3 557.2,31.9 561.5,31.5 565.7,30.6 570.0,30.0 570.0,30.0,120" />
  
  <!-- Linea principale -->
  <polyline fill="none" stroke="#0366d6" stroke-width="2.5" stroke-linecap="round" stroke-linejoin="round" points="30.0,120.0 34.3,118.7 38.5,117.3 42.8,116.1 47.0,115.8 51.3,115.2 55.5,113.7 59.8,112.7 64.0,112.0 68.3,110.5 72.5,109.7 76.8,109.0 81.0,108.5 85.3,107.8 89.5,106.8 93.8,105.7 98.0,104.9 102.3,104.3 106.5,103.9 110.8,103.2 115.0,102.4 119.3,101.7 123.5,101.3 127.8,100.7 132.0,98.3 136.3,97.5 140.6,96.6 144.8,95.6 149.1,94.8 153.3,94.0 157.6,93.5 161.8,93.1 166.1,92.4 170.3,91.2 174.6,90.2 178.8,89.5 183.1,88.7 187.3,88.5 191.6,88.3 195.8,87.9 200.1,87.1 204.3,86.7 208.6,86.3 212.8,85.4 217.1,84.1 221.3,83.8 225.6,83.6 229.8,83.1 234.1,82.1 238.3,81.4 242.6,80.3 246.9,79.5 251.1,78.6 255.4,78.4 259.6,77.8 263.9,76.9 268.1,75.9 272.4,75.2 276.6,74.8 280.9,74.3 285.1,73.9 289.4,72.8 293.6,71.8 297.9,70.9 302.1,70.0 306.4,69.6 310.6,69.3 314.9,68.9 319.1,68.2 323.4,67.7 327.6,67.3 331.9,66.9 336.1,66.6 340.4,66.1 344.6,65.7 348.9,65.5 353.1,65.2 357.4,64.3 361.7,63.7 365.9,63.5 370.2,63.2 374.4,63.0 378.7,63.0 382.9,79.3 387.2,77.7 391.4,76.2 395.7,74.7 399.9,70.3 404.2,67.2 408.4,63.9 412.7,62.6 416.9,61.2 421.2,58.9 425.4,56.5 429.7,54.6 433.9,53.9 438.2,53.3 442.4,51.5 446.7,50.2 450.9,49.4 455.2,48.3 459.4,47.9 463.7,47.7 468.0,46.8 472.2,45.2 476.5,44.1 480.7,43.1 485.0,41.8 489.2,41.2 493.5,40.8 497.7,39.8 502.0,38.8 506.2,37.9 510.5,37.2 514.7,36.9 519.0,36.6 523.2,36.1 527.5,35.3 531.7,34.7 536.0,34.1 540.2,33.6 544.5,33.1 548.7,32.7 553.0,32.3 557.2,31.9 561.5,31.5 565.7,30.6 570.0,30.0" />
  
  <!-- Punto finale luminoso -->
  <circle cx="570.0" cy="30.0" r="4" fill="#ffffff" stroke="#0366d6" stroke-width="2.5" />
</svg>