<svg width="600" height="150" viewBox="0 0 600 150" xmlns="http://www.w3.org/2000/svg">
  <defs>
    <filter id="shadow2" x="-2%" y="-2%" width="104%" height="108%">
      <feDropShadow dx="0" dy="2" stdDeviation="3" flood-opacity="0.1" />
    </filter>
    <linearGradient id="fillGrad" x1="0" y1="0" x2="0" y2="1">
      <stop offset="0%" stop-color="#0366d6" stop-opacity="0.3"/>
      <stop offset="100%" stop-color="#0366d6" stop-opacity="0.02"/>
    </linearGradient>
  </defs>
  <rect width="600" height="150" rx="12" fill="#ffffff" filter="url(#shadow2)" stroke="#e1e4e8" stroke-width="1"/>
  <text x="20" y="24" fill="#2b3137" font-family="-apple-system,BlinkMacSystemFont,'Segoe UI',Helvetica,Arial,sans-serif" font-size="14" font-weight="600">📈 Download Growth (Actual: 70.4k)</text>
  
  <!-- Area sotto la linea -->
  <polygon fill="url(#fillGrad)" points="30.0,120.0,120 30.0,120.0 40.6,117.2 51.2,114.1 61.8,111.4 72.4,110.7 82.9,109.2 93.5,105.9 104.1,103.7 114.7,102.3 125.3,98.9 135.9,97.2 146.5,95.4 157.1,94.5 167.6,92.9 178.2,90.6 188.8,88.2 199.4,86.3 210.0,85.0 220.6,84.2 231.2,82.6 241.8,80.8 252.4,79.3 262.9,78.5 273.5,77.0 284.1,71.6 294.7,70.0 305.3,67.9 315.9,65.8 326.5,63.9 337.1,62.2 347.6,61.0 358.2,60.1 368.8,58.6 379.4,56.0 390.0,53.8 400.6,52.2 411.2,50.4 421.8,49.9 432.4,49.5 442.9,48.6 453.5,46.8 464.1,45.8 474.7,45.1 485.3,43.1 495.9,40.2 506.5,39.5 517.1,39.0 527.6,37.9 538.2,35.6 548.8,34.1 559.4,31.7 570.0,30.0 570.0,30.0,120" />
  
  <!-- Linea principale -->
  <polyline fill="none" stroke="#0366d6" stroke-width="2.5" stroke-linecap="round" stroke-linejoin="round" points="30.0,120.0 40.6,117.2 51.2,114.1 61.8,111.4 72.4,110.7 82.9,109.2 93.5,105.9 104.1,103.7 114.7,102.3 125.3,98.9 135.9,97.2 146.5,95.4 157.1,94.5 167.6,92.9 178.2,90.6 188.8,88.2 199.4,86.3 210.0,85.0 220.6,84.2 231.2,82.6 241.8,80.8 252.4,79.3 262.9,78.5 273.5,77.0 284.1,71.6 294.7,70.0 305.3,67.9 315.9,65.8 326.5,63.9 337.1,62.2 347.6,61.0 358.2,60.1 368.8,58.6 379.4,56.0 390.0,53.8 400.6,52.2 411.2,50.4 421.8,49.9 432.4,49.5 442.9,48.6 453.5,46.8 464.1,45.8 474.7,45.1 485.3,43.1 495.9,40.2 506.5,39.5 517.1,39.0 527.6,37.9 538.2,35.6 548.8,34.1 559.4,31.7 570.0,30.0" />
  
  <!-- Punto finale luminoso -->
  <circle cx="570.0" cy="30.0" r="4" fill="#ffffff" stroke="#0366d6" stroke-width="2.5" />
</svg>