<svg width="600" height="150" viewBox="0 0 600 150" xmlns="http://www.w3.org/2000/svg">
  <defs>
    <filter id="shadow2" x="-2%" y="-2%" width="104%" height="108%">
      <feDropShadow dx="0" dy="2" stdDeviation="3" flood-opacity="0.1" />
    </filter>
    <linearGradient id="fillGrad" x1="0" y1="0" x2="0" y2="1">
      <stop offset="0%" stop-color="#0366d6" stop-opacity="0.3"/>
      <stop offset="100%" stop-color="#0366d6" stop-opacity="0.02"/>
    </linearGradient>
  </defs>
  <rect width="600" height="150" rx="12" fill="#ffffff" filter="url(#shadow2)" stroke="#e1e4e8" stroke-width="1"/>
  <text x="20" y="24" fill="#2b3137" font-family="-apple-system,BlinkMacSystemFont,'Segoe UI',Helvetica,Arial,sans-serif" font-size="14" font-weight="600">📈 Download Growth (Actual: 74.6k)</text>
  
  <!-- Area sotto la linea -->
  <polygon fill="url(#fillGrad)" points="30.0,120.0,120 30.0,120.0 34.4,118.7 38.7,117.3 43.1,116.0 47.4,115.7 51.8,115.1 56.1,113.5 60.5,112.5 64.8,111.9 69.2,110.3 73.5,109.5 77.9,108.7 82.3,108.3 86.6,107.6 91.0,106.5 95.3,105.4 99.7,104.5 104.0,103.9 108.4,103.5 112.7,102.8 117.1,102.0 121.5,101.3 125.8,100.9 130.2,100.2 134.5,97.8 138.9,97.0 143.2,96.1 147.6,95.1 151.9,94.3 156.3,93.4 160.6,92.9 165.0,92.5 169.4,91.8 173.7,90.6 178.1,89.6 182.4,88.9 186.8,88.1 191.1,87.8 195.5,87.6 199.8,87.2 204.2,86.4 208.5,85.9 212.9,85.6 217.3,84.7 221.6,83.4 226.0,83.1 230.3,82.8 234.7,82.3 239.0,81.2 243.4,80.5 247.7,79.5 252.1,78.7 256.5,77.7 260.8,77.5 265.2,76.9 269.5,76.0 273.9,74.9 278.2,74.2 282.6,73.9 286.9,73.4 291.3,72.9 295.6,71.8 300.0,70.8 304.4,69.9 308.7,69.0 313.1,68.5 317.4,68.2 321.8,67.8 326.1,67.1 330.5,66.6 334.8,66.1 339.2,65.8 343.5,65.4 347.9,64.9 352.3,64.5 356.6,64.3 361.0,64.1 365.3,63.1 369.7,62.5 374.0,62.3 378.4,62.0 382.7,61.8 387.1,61.8 391.5,78.4 395.8,76.8 400.2,75.3 404.5,73.8 408.9,69.2 413.2,66.1 417.6,62.6 421.9,61.4 426.3,60.0 430.6,57.6 435.0,55.1 439.4,53.2 443.7,52.5 448.1,51.8 452.4,50.0 456.8,48.7 461.1,47.8 465.5,46.8 469.8,46.3 474.2,46.1 478.5,45.2 482.9,43.6 487.3,42.5 491.6,41.4 496.0,40.1 500.3,39.5 504.7,39.1 509.0,38.0 513.4,37.1 517.7,36.1 522.1,35.4 526.5,35.1 530.8,34.8 535.2,34.3 539.5,33.5 543.9,32.8 548.2,32.2 552.6,31.8 556.9,31.3 561.3,30.8 565.6,30.4 570.0,30.0 570.0,30.0,120" />
  
  <!-- Linea principale -->
  <polyline fill="none" stroke="#0366d6" stroke-width="2.5" stroke-linecap="round" stroke-linejoin="round" points="30.0,120.0 34.4,118.7 38.7,117.3 43.1,116.0 47.4,115.7 51.8,115.1 56.1,113.5 60.5,112.5 64.8,111.9 69.2,110.3 73.5,109.5 77.9,108.7 82.3,108.3 86.6,107.6 91.0,106.5 95.3,105.4 99.7,104.5 104.0,103.9 108.4,103.5 112.7,102.8 117.1,102.0 121.5,101.3 125.8,100.9 130.2,100.2 134.5,97.8 138.9,97.0 143.2,96.1 147.6,95.1 151.9,94.3 156.3,93.4 160.6,92.9 165.0,92.5 169.4,91.8 173.7,90.6 178.1,89.6 182.4,88.9 186.8,88.1 191.1,87.8 195.5,87.6 199.8,87.2 204.2,86.4 208.5,85.9 212.9,85.6 217.3,84.7 221.6,83.4 226.0,83.1 230.3,82.8 234.7,82.3 239.0,81.2 243.4,80.5 247.7,79.5 252.1,78.7 256.5,77.7 260.8,77.5 265.2,76.9 269.5,76.0 273.9,74.9 278.2,74.2 282.6,73.9 286.9,73.4 291.3,72.9 295.6,71.8 300.0,70.8 304.4,69.9 308.7,69.0 313.1,68.5 317.4,68.2 321.8,67.8 326.1,67.1 330.5,66.6 334.8,66.1 339.2,65.8 343.5,65.4 347.9,64.9 352.3,64.5 356.6,64.3 361.0,64.1 365.3,63.1 369.7,62.5 374.0,62.3 378.4,62.0 382.7,61.8 387.1,61.8 391.5,78.4 395.8,76.8 400.2,75.3 404.5,73.8 408.9,69.2 413.2,66.1 417.6,62.6 421.9,61.4 426.3,60.0 430.6,57.6 435.0,55.1 439.4,53.2 443.7,52.5 448.1,51.8 452.4,50.0 456.8,48.7 461.1,47.8 465.5,46.8 469.8,46.3 474.2,46.1 478.5,45.2 482.9,43.6 487.3,42.5 491.6,41.4 496.0,40.1 500.3,39.5 504.7,39.1 509.0,38.0 513.4,37.1 517.7,36.1 522.1,35.4 526.5,35.1 530.8,34.8 535.2,34.3 539.5,33.5 543.9,32.8 548.2,32.2 552.6,31.8 556.9,31.3 561.3,30.8 565.6,30.4 570.0,30.0" />
  
  <!-- Punto finale luminoso -->
  <circle cx="570.0" cy="30.0" r="4" fill="#ffffff" stroke="#0366d6" stroke-width="2.5" />
</svg>