<svg width="600" height="150" viewBox="0 0 600 150" xmlns="http://www.w3.org/2000/svg">
  <defs>
    <filter id="shadow2" x="-2%" y="-2%" width="104%" height="108%">
      <feDropShadow dx="0" dy="2" stdDeviation="3" flood-opacity="0.1" />
    </filter>
    <linearGradient id="fillGrad" x1="0" y1="0" x2="0" y2="1">
      <stop offset="0%" stop-color="#0366d6" stop-opacity="0.3"/>
      <stop offset="100%" stop-color="#0366d6" stop-opacity="0.02"/>
    </linearGradient>
  </defs>
  <rect width="600" height="150" rx="12" fill="#ffffff" filter="url(#shadow2)" stroke="#e1e4e8" stroke-width="1"/>
  <text x="20" y="24" fill="#2b3137" font-family="-apple-system,BlinkMacSystemFont,'Segoe UI',Helvetica,Arial,sans-serif" font-size="14" font-weight="600">📈 Download Growth (Actual: 85.9k)</text>
  
  <!-- Area sotto la linea -->
  <polygon fill="url(#fillGrad)" points="30.0,120.0,120 30.0,120.0 31.5,119.5 32.9,118.9 34.4,118.4 35.9,118.3 37.3,118.0 38.8,117.4 40.3,117.0 41.7,116.7 43.2,116.1 44.7,115.7 46.1,115.4 47.6,115.2 49.1,114.9 50.5,114.5 52.0,114.1 53.5,113.7 54.9,113.5 56.4,113.3 57.9,113.0 59.3,112.7 60.8,112.4 62.3,112.2 63.8,112.0 65.2,111.0 66.7,110.7 68.2,110.3 69.6,109.9 71.1,109.5 72.6,109.2 74.0,109.0 75.5,108.8 77.0,108.5 78.4,108.1 79.9,107.6 81.4,107.3 82.8,107.0 84.3,106.9 85.8,106.8 87.2,106.7 88.7,106.3 90.2,106.1 91.6,106.0 93.1,105.6 94.6,105.1 96.0,105.0 97.5,104.9 99.0,104.7 100.4,104.2 101.9,104.0 103.4,103.5 104.8,103.2 106.3,102.8 107.8,102.7 109.2,102.5 110.7,102.1 112.2,101.7 113.6,101.4 115.1,101.2 116.6,101.0 118.0,100.9 119.5,100.4 121.0,100.0 122.4,99.6 123.9,99.2 125.4,99.1 126.8,98.9 128.3,98.8 129.8,98.5 131.2,98.3 132.7,98.1 134.2,97.9 135.7,97.8 137.1,97.6 138.6,97.5 140.1,97.4 141.5,97.3 143.0,96.8 144.5,96.6 145.9,96.5 147.4,96.4 148.9,96.3 150.3,96.3 151.8,103.1 153.3,102.4 154.7,101.8 156.2,101.2 157.7,99.4 159.1,98.1 160.6,96.7 162.1,96.2 163.5,95.6 165.0,94.6 166.5,93.6 167.9,92.8 169.4,92.6 170.9,92.3 172.3,91.5 173.8,91.0 175.3,90.7 176.7,90.2 178.2,90.0 179.7,90.0 181.1,89.6 182.6,88.9 184.1,88.5 185.5,88.0 187.0,87.5 188.5,87.3 189.9,87.1 191.4,86.7 192.9,86.3 194.3,85.9 195.8,85.6 197.3,85.5 198.8,85.4 200.2,85.1 201.7,84.8 203.2,84.6 204.6,84.3 206.1,84.1 207.6,83.9 209.0,83.7 210.5,83.6 212.0,83.4 213.4,83.2 214.9,82.9 216.4,82.6 217.8,82.3 219.3,82.1 220.8,81.9 222.2,81.8 223.7,81.6 225.2,81.5 226.6,81.0 228.1,80.7 229.6,80.3 231.0,80.1 232.5,80.1 234.0,79.9 235.4,79.7 236.9,79.4 238.4,79.2 239.8,78.9 241.3,78.7 242.8,78.6 244.2,78.4 245.7,78.3 247.2,78.1 248.6,77.9 250.1,77.8 251.6,77.5 253.0,77.3 254.5,77.2 256.0,77.1 257.4,77.0 258.9,76.8 260.4,76.6 261.8,76.3 263.3,76.1 264.8,75.9 266.2,75.7 267.7,75.7 269.2,75.5 270.7,75.2 272.1,74.9 273.6,74.7 275.1,74.5 276.5,74.1 278.0,74.0 279.5,73.9 280.9,73.8 282.4,73.6 283.9,73.5 285.3,73.3 286.8,73.1 288.3,72.9 289.7,72.8 291.2,72.6 292.7,72.5 294.1,72.4 295.6,72.2 297.1,72.0 298.5,71.9 300.0,71.6 301.5,71.5 302.9,71.4 304.4,71.2 305.9,71.1 307.3,71.0 308.8,70.8 310.3,70.5 311.7,70.2 313.2,70.0 314.7,69.9 316.1,69.8 317.6,69.7 319.1,69.5 320.5,69.3 322.0,69.1 323.5,69.0 324.9,68.8 326.4,68.7 327.9,68.5 329.3,68.4 330.8,68.3 332.3,68.0 333.8,67.8 335.2,67.6 336.7,67.4 338.2,67.3 339.6,67.2 341.1,67.2 342.6,67.0 344.0,66.9 345.5,66.7 347.0,66.5 348.4,66.3 349.9,66.2 351.4,66.1 352.8,66.0 354.3,65.8 355.8,65.6 357.2,65.4 358.7,65.2 360.2,65.1 361.6,64.9 363.1,64.8 364.6,64.8 366.0,64.7 367.5,64.6 369.0,64.4 370.4,64.2 371.9,64.0 373.4,63.9 374.8,63.8 376.3,63.6 377.8,63.5 379.2,63.3 380.7,63.2 382.2,63.1 383.6,62.9 385.1,62.7 386.6,62.6 388.0,62.4 389.5,62.3 391.0,62.3 392.4,62.1 393.9,62.0 395.4,61.9 396.8,61.8 398.3,61.7 399.8,61.6 401.2,61.3 402.7,61.0 404.2,65.5 405.7,64.6 407.1,62.9 408.6,62.3 410.1,61.5 411.5,60.6 413.0,60.0 414.5,59.7 415.9,59.1 417.4,58.1 418.9,57.4 420.3,57.2 421.8,56.8 423.3,56.5 424.7,56.0 426.2,55.5 427.7,55.0 429.1,54.7 430.6,54.2 432.1,54.0 433.5,53.7 435.0,53.4 436.5,53.2 437.9,53.0 439.4,52.5 440.9,52.1 442.3,51.7 443.8,51.1 445.3,50.7 446.7,50.5 448.2,50.4 449.7,50.1 451.1,49.7 452.6,49.4 454.1,49.1 455.5,48.2 457.0,47.5 458.5,47.1 459.9,47.0 461.4,46.7 462.9,46.2 464.3,45.8 465.8,45.5 467.3,45.2 468.8,44.9 470.2,44.6 471.7,44.3 473.2,43.9 474.6,43.6 476.1,43.4 477.6,43.3 479.0,42.8 480.5,42.6 482.0,42.3 483.4,42.2 484.9,42.0 486.4,41.8 487.8,41.6 489.3,41.4 490.8,41.2 492.2,41.0 493.7,40.9 495.2,40.6 496.6,40.4 498.1,40.0 499.6,39.7 501.0,39.4 502.5,39.2 504.0,39.0 505.4,38.9 506.9,38.7 508.4,38.5 509.8,38.3 511.3,38.2 512.8,38.1 514.2,37.9 515.7,37.7 517.2,37.4 518.6,37.3 520.1,37.1 521.6,36.9 523.0,36.5 524.5,36.2 526.0,36.0 527.4,35.8 528.9,35.5 530.4,35.3 531.8,35.1 533.3,34.8 534.8,34.6 536.2,34.5 537.7,34.4 539.2,34.1 540.7,33.9 542.1,33.7 543.6,33.6 545.1,33.3 546.5,33.1 548.0,32.9 549.5,32.6 550.9,32.5 552.4,32.2 553.9,31.9 555.3,31.7 556.8,31.6 558.3,31.4 559.7,31.3 561.2,31.1 562.7,30.9 564.1,30.6 565.6,30.5 567.1,30.3 568.5,30.2 570.0,30.0 570.0,30.0,120" />
  
  <!-- Linea principale -->
  <polyline fill="none" stroke="#0366d6" stroke-width="2.5" stroke-linecap="round" stroke-linejoin="round" points="30.0,120.0 31.5,119.5 32.9,118.9 34.4,118.4 35.9,118.3 37.3,118.0 38.8,117.4 40.3,117.0 41.7,116.7 43.2,116.1 44.7,115.7 46.1,115.4 47.6,115.2 49.1,114.9 50.5,114.5 52.0,114.1 53.5,113.7 54.9,113.5 56.4,113.3 57.9,113.0 59.3,112.7 60.8,112.4 62.3,112.2 63.8,112.0 65.2,111.0 66.7,110.7 68.2,110.3 69.6,109.9 71.1,109.5 72.6,109.2 74.0,109.0 75.5,108.8 77.0,108.5 78.4,108.1 79.9,107.6 81.4,107.3 82.8,107.0 84.3,106.9 85.8,106.8 87.2,106.7 88.7,106.3 90.2,106.1 91.6,106.0 93.1,105.6 94.6,105.1 96.0,105.0 97.5,104.9 99.0,104.7 100.4,104.2 101.9,104.0 103.4,103.5 104.8,103.2 106.3,102.8 107.8,102.7 109.2,102.5 110.7,102.1 112.2,101.7 113.6,101.4 115.1,101.2 116.6,101.0 118.0,100.9 119.5,100.4 121.0,100.0 122.4,99.6 123.9,99.2 125.4,99.1 126.8,98.9 128.3,98.8 129.8,98.5 131.2,98.3 132.7,98.1 134.2,97.9 135.7,97.8 137.1,97.6 138.6,97.5 140.1,97.4 141.5,97.3 143.0,96.8 144.5,96.6 145.9,96.5 147.4,96.4 148.9,96.3 150.3,96.3 151.8,103.1 153.3,102.4 154.7,101.8 156.2,101.2 157.7,99.4 159.1,98.1 160.6,96.7 162.1,96.2 163.5,95.6 165.0,94.6 166.5,93.6 167.9,92.8 169.4,92.6 170.9,92.3 172.3,91.5 173.8,91.0 175.3,90.7 176.7,90.2 178.2,90.0 179.7,90.0 181.1,89.6 182.6,88.9 184.1,88.5 185.5,88.0 187.0,87.5 188.5,87.3 189.9,87.1 191.4,86.7 192.9,86.3 194.3,85.9 195.8,85.6 197.3,85.5 198.8,85.4 200.2,85.1 201.7,84.8 203.2,84.6 204.6,84.3 206.1,84.1 207.6,83.9 209.0,83.7 210.5,83.6 212.0,83.4 213.4,83.2 214.9,82.9 216.4,82.6 217.8,82.3 219.3,82.1 220.8,81.9 222.2,81.8 223.7,81.6 225.2,81.5 226.6,81.0 228.1,80.7 229.6,80.3 231.0,80.1 232.5,80.1 234.0,79.9 235.4,79.7 236.9,79.4 238.4,79.2 239.8,78.9 241.3,78.7 242.8,78.6 244.2,78.4 245.7,78.3 247.2,78.1 248.6,77.9 250.1,77.8 251.6,77.5 253.0,77.3 254.5,77.2 256.0,77.1 257.4,77.0 258.9,76.8 260.4,76.6 261.8,76.3 263.3,76.1 264.8,75.9 266.2,75.7 267.7,75.7 269.2,75.5 270.7,75.2 272.1,74.9 273.6,74.7 275.1,74.5 276.5,74.1 278.0,74.0 279.5,73.9 280.9,73.8 282.4,73.6 283.9,73.5 285.3,73.3 286.8,73.1 288.3,72.9 289.7,72.8 291.2,72.6 292.7,72.5 294.1,72.4 295.6,72.2 297.1,72.0 298.5,71.9 300.0,71.6 301.5,71.5 302.9,71.4 304.4,71.2 305.9,71.1 307.3,71.0 308.8,70.8 310.3,70.5 311.7,70.2 313.2,70.0 314.7,69.9 316.1,69.8 317.6,69.7 319.1,69.5 320.5,69.3 322.0,69.1 323.5,69.0 324.9,68.8 326.4,68.7 327.9,68.5 329.3,68.4 330.8,68.3 332.3,68.0 333.8,67.8 335.2,67.6 336.7,67.4 338.2,67.3 339.6,67.2 341.1,67.2 342.6,67.0 344.0,66.9 345.5,66.7 347.0,66.5 348.4,66.3 349.9,66.2 351.4,66.1 352.8,66.0 354.3,65.8 355.8,65.6 357.2,65.4 358.7,65.2 360.2,65.1 361.6,64.9 363.1,64.8 364.6,64.8 366.0,64.7 367.5,64.6 369.0,64.4 370.4,64.2 371.9,64.0 373.4,63.9 374.8,63.8 376.3,63.6 377.8,63.5 379.2,63.3 380.7,63.2 382.2,63.1 383.6,62.9 385.1,62.7 386.6,62.6 388.0,62.4 389.5,62.3 391.0,62.3 392.4,62.1 393.9,62.0 395.4,61.9 396.8,61.8 398.3,61.7 399.8,61.6 401.2,61.3 402.7,61.0 404.2,65.5 405.7,64.6 407.1,62.9 408.6,62.3 410.1,61.5 411.5,60.6 413.0,60.0 414.5,59.7 415.9,59.1 417.4,58.1 418.9,57.4 420.3,57.2 421.8,56.8 423.3,56.5 424.7,56.0 426.2,55.5 427.7,55.0 429.1,54.7 430.6,54.2 432.1,54.0 433.5,53.7 435.0,53.4 436.5,53.2 437.9,53.0 439.4,52.5 440.9,52.1 442.3,51.7 443.8,51.1 445.3,50.7 446.7,50.5 448.2,50.4 449.7,50.1 451.1,49.7 452.6,49.4 454.1,49.1 455.5,48.2 457.0,47.5 458.5,47.1 459.9,47.0 461.4,46.7 462.9,46.2 464.3,45.8 465.8,45.5 467.3,45.2 468.8,44.9 470.2,44.6 471.7,44.3 473.2,43.9 474.6,43.6 476.1,43.4 477.6,43.3 479.0,42.8 480.5,42.6 482.0,42.3 483.4,42.2 484.9,42.0 486.4,41.8 487.8,41.6 489.3,41.4 490.8,41.2 492.2,41.0 493.7,40.9 495.2,40.6 496.6,40.4 498.1,40.0 499.6,39.7 501.0,39.4 502.5,39.2 504.0,39.0 505.4,38.9 506.9,38.7 508.4,38.5 509.8,38.3 511.3,38.2 512.8,38.1 514.2,37.9 515.7,37.7 517.2,37.4 518.6,37.3 520.1,37.1 521.6,36.9 523.0,36.5 524.5,36.2 526.0,36.0 527.4,35.8 528.9,35.5 530.4,35.3 531.8,35.1 533.3,34.8 534.8,34.6 536.2,34.5 537.7,34.4 539.2,34.1 540.7,33.9 542.1,33.7 543.6,33.6 545.1,33.3 546.5,33.1 548.0,32.9 549.5,32.6 550.9,32.5 552.4,32.2 553.9,31.9 555.3,31.7 556.8,31.6 558.3,31.4 559.7,31.3 561.2,31.1 562.7,30.9 564.1,30.6 565.6,30.5 567.1,30.3 568.5,30.2 570.0,30.0" />
  
  <!-- Punto finale luminoso -->
  <circle cx="570.0" cy="30.0" r="4" fill="#ffffff" stroke="#0366d6" stroke-width="2.5" />
</svg>