<svg width="600" height="150" viewBox="0 0 600 150" xmlns="http://www.w3.org/2000/svg">
  <defs>
    <filter id="shadow2" x="-2%" y="-2%" width="104%" height="108%">
      <feDropShadow dx="0" dy="2" stdDeviation="3" flood-opacity="0.1" />
    </filter>
    <linearGradient id="fillGrad" x1="0" y1="0" x2="0" y2="1">
      <stop offset="0%" stop-color="#0366d6" stop-opacity="0.3"/>
      <stop offset="100%" stop-color="#0366d6" stop-opacity="0.02"/>
    </linearGradient>
  </defs>
  <rect width="600" height="150" rx="12" fill="#ffffff" filter="url(#shadow2)" stroke="#e1e4e8" stroke-width="1"/>
  <text x="20" y="24" fill="#2b3137" font-family="-apple-system,BlinkMacSystemFont,'Segoe UI',Helvetica,Arial,sans-serif" font-size="14" font-weight="600">📈 Download Growth (Actual: 77.1k)</text>
  
  <!-- Area sotto la linea -->
  <polygon fill="url(#fillGrad)" points="30.0,120.0,120 30.0,120.0 32.9,119.0 35.8,117.9 38.8,117.0 41.7,116.8 44.6,116.3 47.5,115.1 50.4,114.4 53.4,113.8 56.3,112.7 59.2,112.1 62.1,111.5 65.0,111.1 67.9,110.6 70.9,109.8 73.8,109.0 76.7,108.3 79.6,107.9 82.5,107.6 85.5,107.0 88.4,106.4 91.3,105.9 94.2,105.6 97.1,105.1 100.1,103.2 103.0,102.7 105.9,101.9 108.8,101.2 111.7,100.6 114.6,99.9 117.6,99.5 120.5,99.2 123.4,98.7 126.3,97.8 129.2,97.0 132.2,96.5 135.1,95.9 138.0,95.7 140.9,95.5 143.8,95.2 146.8,94.6 149.7,94.3 152.6,94.0 155.5,93.3 158.4,92.3 161.4,92.1 164.3,91.9 167.2,91.5 170.1,90.7 173.0,90.2 175.9,89.4 178.9,88.8 181.8,88.1 184.7,87.9 187.6,87.5 190.5,86.7 193.5,86.0 196.4,85.4 199.3,85.2 202.2,84.8 205.1,84.4 208.1,83.6 211.0,82.8 213.9,82.1 216.8,81.5 219.7,81.1 222.6,80.9 225.6,80.6 228.5,80.0 231.4,79.7 234.3,79.3 237.2,79.1 240.2,78.8 243.1,78.4 246.0,78.1 248.9,78.0 251.8,77.8 254.8,77.0 257.7,76.6 260.6,76.4 263.5,76.2 266.4,76.0 269.4,76.0 272.3,88.6 275.2,87.4 278.1,86.3 281.0,85.1 283.9,81.7 286.9,79.3 289.8,76.7 292.7,75.7 295.6,74.7 298.5,72.9 301.5,71.0 304.4,69.6 307.3,69.0 310.2,68.5 313.1,67.2 316.1,66.2 319.0,65.5 321.9,64.7 324.8,64.4 327.7,64.2 330.6,63.5 333.6,62.3 336.5,61.5 339.4,60.6 342.3,59.7 345.2,59.2 348.2,58.9 351.1,58.1 354.0,57.4 356.9,56.7 359.8,56.1 362.8,55.9 365.7,55.7 368.6,55.3 371.5,54.6 374.4,54.2 377.4,53.7 380.3,53.4 383.2,53.0 386.1,52.7 389.0,52.3 391.9,52.0 394.9,51.7 397.8,51.1 400.7,50.6 403.6,50.0 406.5,49.7 409.5,49.3 412.4,49.1 415.3,48.8 418.2,48.5 421.1,47.6 424.1,47.0 427.0,46.2 429.9,45.9 432.8,45.8 435.7,45.5 438.6,45.1 441.6,44.6 444.5,44.2 447.4,43.6 450.3,43.2 453.2,43.1 456.2,42.8 459.1,42.5 462.0,42.3 464.9,41.9 467.8,41.6 470.8,41.0 473.7,40.8 476.6,40.6 479.5,40.4 482.4,40.2 485.4,39.7 488.3,39.3 491.2,38.9 494.1,38.5 497.0,38.1 499.9,37.8 502.9,37.6 505.8,37.4 508.7,36.8 511.6,36.3 514.5,35.9 517.5,35.5 520.4,34.8 523.3,34.7 526.2,34.4 529.1,34.3 532.1,33.9 535.0,33.6 537.9,33.2 540.8,32.9 543.7,32.6 546.6,32.4 549.6,32.1 552.5,31.8 555.4,31.7 558.3,31.3 561.2,30.8 564.2,30.6 567.1,30.2 570.0,30.0 570.0,30.0,120" />
  
  <!-- Linea principale -->
  <polyline fill="none" stroke="#0366d6" stroke-width="2.5" stroke-linecap="round" stroke-linejoin="round" points="30.0,120.0 32.9,119.0 35.8,117.9 38.8,117.0 41.7,116.8 44.6,116.3 47.5,115.1 50.4,114.4 53.4,113.8 56.3,112.7 59.2,112.1 62.1,111.5 65.0,111.1 67.9,110.6 70.9,109.8 73.8,109.0 76.7,108.3 79.6,107.9 82.5,107.6 85.5,107.0 88.4,106.4 91.3,105.9 94.2,105.6 97.1,105.1 100.1,103.2 103.0,102.7 105.9,101.9 108.8,101.2 111.7,100.6 114.6,99.9 117.6,99.5 120.5,99.2 123.4,98.7 126.3,97.8 129.2,97.0 132.2,96.5 135.1,95.9 138.0,95.7 140.9,95.5 143.8,95.2 146.8,94.6 149.7,94.3 152.6,94.0 155.5,93.3 158.4,92.3 161.4,92.1 164.3,91.9 167.2,91.5 170.1,90.7 173.0,90.2 175.9,89.4 178.9,88.8 181.8,88.1 184.7,87.9 187.6,87.5 190.5,86.7 193.5,86.0 196.4,85.4 199.3,85.2 202.2,84.8 205.1,84.4 208.1,83.6 211.0,82.8 213.9,82.1 216.8,81.5 219.7,81.1 222.6,80.9 225.6,80.6 228.5,80.0 231.4,79.7 234.3,79.3 237.2,79.1 240.2,78.8 243.1,78.4 246.0,78.1 248.9,78.0 251.8,77.8 254.8,77.0 257.7,76.6 260.6,76.4 263.5,76.2 266.4,76.0 269.4,76.0 272.3,88.6 275.2,87.4 278.1,86.3 281.0,85.1 283.9,81.7 286.9,79.3 289.8,76.7 292.7,75.7 295.6,74.7 298.5,72.9 301.5,71.0 304.4,69.6 307.3,69.0 310.2,68.5 313.1,67.2 316.1,66.2 319.0,65.5 321.9,64.7 324.8,64.4 327.7,64.2 330.6,63.5 333.6,62.3 336.5,61.5 339.4,60.6 342.3,59.7 345.2,59.2 348.2,58.9 351.1,58.1 354.0,57.4 356.9,56.7 359.8,56.1 362.8,55.9 365.7,55.7 368.6,55.3 371.5,54.6 374.4,54.2 377.4,53.7 380.3,53.4 383.2,53.0 386.1,52.7 389.0,52.3 391.9,52.0 394.9,51.7 397.8,51.1 400.7,50.6 403.6,50.0 406.5,49.7 409.5,49.3 412.4,49.1 415.3,48.8 418.2,48.5 421.1,47.6 424.1,47.0 427.0,46.2 429.9,45.9 432.8,45.8 435.7,45.5 438.6,45.1 441.6,44.6 444.5,44.2 447.4,43.6 450.3,43.2 453.2,43.1 456.2,42.8 459.1,42.5 462.0,42.3 464.9,41.9 467.8,41.6 470.8,41.0 473.7,40.8 476.6,40.6 479.5,40.4 482.4,40.2 485.4,39.7 488.3,39.3 491.2,38.9 494.1,38.5 497.0,38.1 499.9,37.8 502.9,37.6 505.8,37.4 508.7,36.8 511.6,36.3 514.5,35.9 517.5,35.5 520.4,34.8 523.3,34.7 526.2,34.4 529.1,34.3 532.1,33.9 535.0,33.6 537.9,33.2 540.8,32.9 543.7,32.6 546.6,32.4 549.6,32.1 552.5,31.8 555.4,31.7 558.3,31.3 561.2,30.8 564.2,30.6 567.1,30.2 570.0,30.0" />
  
  <!-- Punto finale luminoso -->
  <circle cx="570.0" cy="30.0" r="4" fill="#ffffff" stroke="#0366d6" stroke-width="2.5" />
</svg>