<svg width="600" height="150" viewBox="0 0 600 150" xmlns="http://www.w3.org/2000/svg">
  <defs>
    <filter id="shadow2" x="-2%" y="-2%" width="104%" height="108%">
      <feDropShadow dx="0" dy="2" stdDeviation="3" flood-opacity="0.1" />
    </filter>
    <linearGradient id="fillGrad" x1="0" y1="0" x2="0" y2="1">
      <stop offset="0%" stop-color="#0366d6" stop-opacity="0.3"/>
      <stop offset="100%" stop-color="#0366d6" stop-opacity="0.02"/>
    </linearGradient>
  </defs>
  <rect width="600" height="150" rx="12" fill="#ffffff" filter="url(#shadow2)" stroke="#e1e4e8" stroke-width="1"/>
  <text x="20" y="24" fill="#2b3137" font-family="-apple-system,BlinkMacSystemFont,'Segoe UI',Helvetica,Arial,sans-serif" font-size="14" font-weight="600">📈 Download Growth (Actual: 84.5k)</text>
  
  <!-- Area sotto la linea -->
  <polygon fill="url(#fillGrad)" points="30.0,120.0,120 30.0,120.0 31.6,119.4 33.2,118.8 34.8,118.3 36.4,118.1 38.0,117.8 39.6,117.2 41.2,116.7 42.9,116.4 44.5,115.7 46.1,115.4 47.7,115.1 49.3,114.9 50.9,114.5 52.5,114.1 54.1,113.6 55.7,113.2 57.3,113.0 58.9,112.8 60.5,112.5 62.1,112.1 63.8,111.8 65.4,111.6 67.0,111.3 68.6,110.3 70.2,109.9 71.8,109.5 73.4,109.1 75.0,108.7 76.6,108.4 78.2,108.1 79.8,107.9 81.4,107.6 83.0,107.1 84.6,106.7 86.2,106.4 87.9,106.0 89.5,105.9 91.1,105.8 92.7,105.6 94.3,105.3 95.9,105.1 97.5,104.9 99.1,104.5 100.7,103.9 102.3,103.8 103.9,103.7 105.5,103.5 107.1,103.0 108.8,102.7 110.4,102.2 112.0,101.9 113.6,101.5 115.2,101.4 116.8,101.1 118.4,100.7 120.0,100.2 121.6,99.9 123.2,99.8 124.8,99.5 126.4,99.4 128.0,98.9 129.6,98.4 131.2,98.0 132.9,97.6 134.5,97.4 136.1,97.3 137.7,97.1 139.3,96.8 140.9,96.6 142.5,96.4 144.1,96.2 145.7,96.1 147.3,95.8 148.9,95.7 150.5,95.6 152.1,95.5 153.8,95.0 155.4,94.8 157.0,94.7 158.6,94.5 160.2,94.5 161.8,94.5 163.4,101.8 165.0,101.0 166.6,100.4 168.2,99.7 169.8,97.7 171.4,96.3 173.0,94.9 174.6,94.3 176.2,93.7 177.9,92.6 179.5,91.5 181.1,90.7 182.7,90.4 184.3,90.1 185.9,89.3 187.5,88.7 189.1,88.4 190.7,87.9 192.3,87.7 193.9,87.6 195.5,87.2 197.1,86.5 198.8,86.0 200.4,85.5 202.0,85.0 203.6,84.7 205.2,84.5 206.8,84.1 208.4,83.6 210.0,83.2 211.6,82.9 213.2,82.8 214.8,82.7 216.4,82.4 218.0,82.0 219.6,81.8 221.2,81.5 222.9,81.3 224.5,81.1 226.1,80.9 227.7,80.7 229.3,80.5 230.9,80.3 232.5,80.0 234.1,79.7 235.7,79.4 237.3,79.2 238.9,78.9 240.5,78.8 242.1,78.6 243.8,78.5 245.4,77.9 247.0,77.6 248.6,77.1 250.2,77.0 251.8,76.9 253.4,76.7 255.0,76.5 256.6,76.2 258.2,76.0 259.8,75.6 261.4,75.4 263.0,75.3 264.6,75.2 266.2,75.0 267.9,74.9 269.5,74.6 271.1,74.5 272.7,74.1 274.3,74.0 275.9,73.9 277.5,73.7 279.1,73.6 280.7,73.4 282.3,73.2 283.9,72.9 285.5,72.7 287.1,72.4 288.8,72.3 290.4,72.2 292.0,72.0 293.6,71.7 295.2,71.4 296.8,71.2 298.4,70.9 300.0,70.5 301.6,70.4 303.2,70.3 304.8,70.2 306.4,70.0 308.0,69.8 309.6,69.6 311.2,69.4 312.9,69.3 314.5,69.1 316.1,68.9 317.7,68.8 319.3,68.7 320.9,68.5 322.5,68.2 324.1,68.1 325.7,67.8 327.3,67.7 328.9,67.6 330.5,67.4 332.1,67.3 333.8,67.2 335.4,67.0 337.0,66.7 338.6,66.3 340.2,66.1 341.8,65.9 343.4,65.9 345.0,65.8 346.6,65.6 348.2,65.3 349.8,65.1 351.4,65.0 353.0,64.8 354.6,64.7 356.2,64.4 357.9,64.3 359.5,64.2 361.1,63.9 362.7,63.8 364.3,63.5 365.9,63.3 367.5,63.2 369.1,63.1 370.7,63.0 372.3,62.9 373.9,62.7 375.5,62.5 377.1,62.3 378.8,62.1 380.4,62.0 382.0,61.9 383.6,61.7 385.2,61.6 386.8,61.4 388.4,61.1 390.0,60.9 391.6,60.8 393.2,60.6 394.8,60.5 396.4,60.4 398.0,60.3 399.6,60.2 401.2,60.1 402.9,59.8 404.5,59.6 406.1,59.5 407.7,59.4 409.3,59.2 410.9,59.0 412.5,58.9 414.1,58.7 415.7,58.6 417.3,58.4 418.9,58.3 420.5,58.1 422.1,57.9 423.8,57.8 425.4,57.7 427.0,57.6 428.6,57.5 430.2,57.3 431.8,57.2 433.4,57.1 435.0,57.0 436.6,56.7 438.2,56.4 439.8,61.2 441.4,60.3 443.0,58.5 444.6,57.8 446.2,56.9 447.9,55.9 449.5,55.3 451.1,55.0 452.7,54.3 454.3,53.2 455.9,52.5 457.5,52.2 459.1,51.8 460.7,51.5 462.3,51.0 463.9,50.5 465.5,49.9 467.1,49.6 468.8,49.1 470.4,48.8 472.0,48.5 473.6,48.2 475.2,48.0 476.8,47.7 478.4,47.2 480.0,46.8 481.6,46.3 483.2,45.7 484.8,45.3 486.4,45.1 488.0,44.9 489.6,44.6 491.2,44.2 492.9,43.8 494.5,43.5 496.1,42.6 497.7,41.8 499.3,41.4 500.9,41.3 502.5,40.9 504.1,40.4 505.7,40.0 507.3,39.7 508.9,39.3 510.5,39.0 512.1,38.6 513.8,38.3 515.4,37.9 517.0,37.6 518.6,37.4 520.2,37.2 521.8,36.8 523.4,36.5 525.0,36.3 526.6,36.1 528.2,35.9 529.8,35.6 531.4,35.4 533.0,35.2 534.6,35.0 536.2,34.8 537.9,34.7 539.5,34.4 541.1,34.1 542.7,33.8 544.3,33.4 545.9,33.1 547.5,32.9 549.1,32.7 550.7,32.5 552.3,32.3 553.9,32.1 555.5,31.9 557.1,31.8 558.8,31.6 560.4,31.4 562.0,31.3 563.6,30.9 565.2,30.8 566.8,30.6 568.4,30.4 570.0,30.0 570.0,30.0,120" />
  
  <!-- Linea principale -->
  <polyline fill="none" stroke="#0366d6" stroke-width="2.5" stroke-linecap="round" stroke-linejoin="round" points="30.0,120.0 31.6,119.4 33.2,118.8 34.8,118.3 36.4,118.1 38.0,117.8 39.6,117.2 41.2,116.7 42.9,116.4 44.5,115.7 46.1,115.4 47.7,115.1 49.3,114.9 50.9,114.5 52.5,114.1 54.1,113.6 55.7,113.2 57.3,113.0 58.9,112.8 60.5,112.5 62.1,112.1 63.8,111.8 65.4,111.6 67.0,111.3 68.6,110.3 70.2,109.9 71.8,109.5 73.4,109.1 75.0,108.7 76.6,108.4 78.2,108.1 79.8,107.9 81.4,107.6 83.0,107.1 84.6,106.7 86.2,106.4 87.9,106.0 89.5,105.9 91.1,105.8 92.7,105.6 94.3,105.3 95.9,105.1 97.5,104.9 99.1,104.5 100.7,103.9 102.3,103.8 103.9,103.7 105.5,103.5 107.1,103.0 108.8,102.7 110.4,102.2 112.0,101.9 113.6,101.5 115.2,101.4 116.8,101.1 118.4,100.7 120.0,100.2 121.6,99.9 123.2,99.8 124.8,99.5 126.4,99.4 128.0,98.9 129.6,98.4 131.2,98.0 132.9,97.6 134.5,97.4 136.1,97.3 137.7,97.1 139.3,96.8 140.9,96.6 142.5,96.4 144.1,96.2 145.7,96.1 147.3,95.8 148.9,95.7 150.5,95.6 152.1,95.5 153.8,95.0 155.4,94.8 157.0,94.7 158.6,94.5 160.2,94.5 161.8,94.5 163.4,101.8 165.0,101.0 166.6,100.4 168.2,99.7 169.8,97.7 171.4,96.3 173.0,94.9 174.6,94.3 176.2,93.7 177.9,92.6 179.5,91.5 181.1,90.7 182.7,90.4 184.3,90.1 185.9,89.3 187.5,88.7 189.1,88.4 190.7,87.9 192.3,87.7 193.9,87.6 195.5,87.2 197.1,86.5 198.8,86.0 200.4,85.5 202.0,85.0 203.6,84.7 205.2,84.5 206.8,84.1 208.4,83.6 210.0,83.2 211.6,82.9 213.2,82.8 214.8,82.7 216.4,82.4 218.0,82.0 219.6,81.8 221.2,81.5 222.9,81.3 224.5,81.1 226.1,80.9 227.7,80.7 229.3,80.5 230.9,80.3 232.5,80.0 234.1,79.7 235.7,79.4 237.3,79.2 238.9,78.9 240.5,78.8 242.1,78.6 243.8,78.5 245.4,77.9 247.0,77.6 248.6,77.1 250.2,77.0 251.8,76.9 253.4,76.7 255.0,76.5 256.6,76.2 258.2,76.0 259.8,75.6 261.4,75.4 263.0,75.3 264.6,75.2 266.2,75.0 267.9,74.9 269.5,74.6 271.1,74.5 272.7,74.1 274.3,74.0 275.9,73.9 277.5,73.7 279.1,73.6 280.7,73.4 282.3,73.2 283.9,72.9 285.5,72.7 287.1,72.4 288.8,72.3 290.4,72.2 292.0,72.0 293.6,71.7 295.2,71.4 296.8,71.2 298.4,70.9 300.0,70.5 301.6,70.4 303.2,70.3 304.8,70.2 306.4,70.0 308.0,69.8 309.6,69.6 311.2,69.4 312.9,69.3 314.5,69.1 316.1,68.9 317.7,68.8 319.3,68.7 320.9,68.5 322.5,68.2 324.1,68.1 325.7,67.8 327.3,67.7 328.9,67.6 330.5,67.4 332.1,67.3 333.8,67.2 335.4,67.0 337.0,66.7 338.6,66.3 340.2,66.1 341.8,65.9 343.4,65.9 345.0,65.8 346.6,65.6 348.2,65.3 349.8,65.1 351.4,65.0 353.0,64.8 354.6,64.7 356.2,64.4 357.9,64.3 359.5,64.2 361.1,63.9 362.7,63.8 364.3,63.5 365.9,63.3 367.5,63.2 369.1,63.1 370.7,63.0 372.3,62.9 373.9,62.7 375.5,62.5 377.1,62.3 378.8,62.1 380.4,62.0 382.0,61.9 383.6,61.7 385.2,61.6 386.8,61.4 388.4,61.1 390.0,60.9 391.6,60.8 393.2,60.6 394.8,60.5 396.4,60.4 398.0,60.3 399.6,60.2 401.2,60.1 402.9,59.8 404.5,59.6 406.1,59.5 407.7,59.4 409.3,59.2 410.9,59.0 412.5,58.9 414.1,58.7 415.7,58.6 417.3,58.4 418.9,58.3 420.5,58.1 422.1,57.9 423.8,57.8 425.4,57.7 427.0,57.6 428.6,57.5 430.2,57.3 431.8,57.2 433.4,57.1 435.0,57.0 436.6,56.7 438.2,56.4 439.8,61.2 441.4,60.3 443.0,58.5 444.6,57.8 446.2,56.9 447.9,55.9 449.5,55.3 451.1,55.0 452.7,54.3 454.3,53.2 455.9,52.5 457.5,52.2 459.1,51.8 460.7,51.5 462.3,51.0 463.9,50.5 465.5,49.9 467.1,49.6 468.8,49.1 470.4,48.8 472.0,48.5 473.6,48.2 475.2,48.0 476.8,47.7 478.4,47.2 480.0,46.8 481.6,46.3 483.2,45.7 484.8,45.3 486.4,45.1 488.0,44.9 489.6,44.6 491.2,44.2 492.9,43.8 494.5,43.5 496.1,42.6 497.7,41.8 499.3,41.4 500.9,41.3 502.5,40.9 504.1,40.4 505.7,40.0 507.3,39.7 508.9,39.3 510.5,39.0 512.1,38.6 513.8,38.3 515.4,37.9 517.0,37.6 518.6,37.4 520.2,37.2 521.8,36.8 523.4,36.5 525.0,36.3 526.6,36.1 528.2,35.9 529.8,35.6 531.4,35.4 533.0,35.2 534.6,35.0 536.2,34.8 537.9,34.7 539.5,34.4 541.1,34.1 542.7,33.8 544.3,33.4 545.9,33.1 547.5,32.9 549.1,32.7 550.7,32.5 552.3,32.3 553.9,32.1 555.5,31.9 557.1,31.8 558.8,31.6 560.4,31.4 562.0,31.3 563.6,30.9 565.2,30.8 566.8,30.6 568.4,30.4 570.0,30.0" />
  
  <!-- Punto finale luminoso -->
  <circle cx="570.0" cy="30.0" r="4" fill="#ffffff" stroke="#0366d6" stroke-width="2.5" />
</svg>