<svg width="600" height="150" viewBox="0 0 600 150" xmlns="http://www.w3.org/2000/svg">
  <defs>
    <filter id="shadow2" x="-2%" y="-2%" width="104%" height="108%">
      <feDropShadow dx="0" dy="2" stdDeviation="3" flood-opacity="0.1" />
    </filter>
    <linearGradient id="fillGrad" x1="0" y1="0" x2="0" y2="1">
      <stop offset="0%" stop-color="#0366d6" stop-opacity="0.3"/>
      <stop offset="100%" stop-color="#0366d6" stop-opacity="0.02"/>
    </linearGradient>
  </defs>
  <rect width="600" height="150" rx="12" fill="#ffffff" filter="url(#shadow2)" stroke="#e1e4e8" stroke-width="1"/>
  <text x="20" y="24" fill="#2b3137" font-family="-apple-system,BlinkMacSystemFont,'Segoe UI',Helvetica,Arial,sans-serif" font-size="14" font-weight="600">📈 Download Growth (Actual: 74.9k)</text>
  
  <!-- Area sotto la linea -->
  <polygon fill="url(#fillGrad)" points="30.0,120.0,120 30.0,120.0 34.2,118.7 38.4,117.4 42.6,116.2 46.7,115.9 50.9,115.2 55.1,113.8 59.3,112.8 63.5,112.1 67.7,110.6 71.9,109.9 76.0,109.1 80.2,108.7 84.4,108.0 88.6,107.0 92.8,105.9 97.0,105.0 101.2,104.5 105.3,104.1 109.5,103.4 113.7,102.6 117.9,101.9 122.1,101.6 126.3,100.9 130.5,98.5 134.7,97.8 138.8,96.9 143.0,95.9 147.2,95.1 151.4,94.3 155.6,93.8 159.8,93.4 164.0,92.8 168.1,91.6 172.3,90.6 176.5,89.9 180.7,89.1 184.9,88.9 189.1,88.7 193.3,88.3 197.4,87.5 201.6,87.1 205.8,86.8 210.0,85.9 214.2,84.6 218.4,84.3 222.6,84.1 226.7,83.6 230.9,82.5 235.1,81.9 239.3,80.8 243.5,80.1 247.7,79.1 251.9,78.9 256.0,78.4 260.2,77.4 264.4,76.5 268.6,75.7 272.8,75.4 277.0,74.9 281.2,74.5 285.3,73.4 289.5,72.4 293.7,71.5 297.9,70.7 302.1,70.2 306.3,69.9 310.5,69.6 314.7,68.8 318.8,68.4 323.0,67.9 327.2,67.6 331.4,67.3 335.6,66.7 339.8,66.4 344.0,66.2 348.1,65.9 352.3,65.0 356.5,64.4 360.7,64.2 364.9,63.9 369.1,63.7 373.3,63.7 377.4,79.8 381.6,78.2 385.8,76.8 390.0,75.3 394.2,70.9 398.4,67.9 402.6,64.6 406.7,63.4 410.9,62.0 415.1,59.7 419.3,57.3 423.5,55.5 427.7,54.8 431.9,54.1 436.0,52.4 440.2,51.1 444.4,50.3 448.6,49.2 452.8,48.8 457.0,48.6 461.2,47.7 465.3,46.2 469.5,45.1 473.7,44.0 477.9,42.8 482.1,42.2 486.3,41.8 490.5,40.8 494.7,39.8 498.8,38.9 503.0,38.2 507.2,37.9 511.4,37.7 515.6,37.1 519.8,36.3 524.0,35.8 528.1,35.2 532.3,34.7 536.5,34.2 540.7,33.8 544.9,33.4 549.1,33.0 553.3,32.6 557.4,31.8 561.6,31.1 565.8,30.4 570.0,30.0 570.0,30.0,120" />
  
  <!-- Linea principale -->
  <polyline fill="none" stroke="#0366d6" stroke-width="2.5" stroke-linecap="round" stroke-linejoin="round" points="30.0,120.0 34.2,118.7 38.4,117.4 42.6,116.2 46.7,115.9 50.9,115.2 55.1,113.8 59.3,112.8 63.5,112.1 67.7,110.6 71.9,109.9 76.0,109.1 80.2,108.7 84.4,108.0 88.6,107.0 92.8,105.9 97.0,105.0 101.2,104.5 105.3,104.1 109.5,103.4 113.7,102.6 117.9,101.9 122.1,101.6 126.3,100.9 130.5,98.5 134.7,97.8 138.8,96.9 143.0,95.9 147.2,95.1 151.4,94.3 155.6,93.8 159.8,93.4 164.0,92.8 168.1,91.6 172.3,90.6 176.5,89.9 180.7,89.1 184.9,88.9 189.1,88.7 193.3,88.3 197.4,87.5 201.6,87.1 205.8,86.8 210.0,85.9 214.2,84.6 218.4,84.3 222.6,84.1 226.7,83.6 230.9,82.5 235.1,81.9 239.3,80.8 243.5,80.1 247.7,79.1 251.9,78.9 256.0,78.4 260.2,77.4 264.4,76.5 268.6,75.7 272.8,75.4 277.0,74.9 281.2,74.5 285.3,73.4 289.5,72.4 293.7,71.5 297.9,70.7 302.1,70.2 306.3,69.9 310.5,69.6 314.7,68.8 318.8,68.4 323.0,67.9 327.2,67.6 331.4,67.3 335.6,66.7 339.8,66.4 344.0,66.2 348.1,65.9 352.3,65.0 356.5,64.4 360.7,64.2 364.9,63.9 369.1,63.7 373.3,63.7 377.4,79.8 381.6,78.2 385.8,76.8 390.0,75.3 394.2,70.9 398.4,67.9 402.6,64.6 406.7,63.4 410.9,62.0 415.1,59.7 419.3,57.3 423.5,55.5 427.7,54.8 431.9,54.1 436.0,52.4 440.2,51.1 444.4,50.3 448.6,49.2 452.8,48.8 457.0,48.6 461.2,47.7 465.3,46.2 469.5,45.1 473.7,44.0 477.9,42.8 482.1,42.2 486.3,41.8 490.5,40.8 494.7,39.8 498.8,38.9 503.0,38.2 507.2,37.9 511.4,37.7 515.6,37.1 519.8,36.3 524.0,35.8 528.1,35.2 532.3,34.7 536.5,34.2 540.7,33.8 544.9,33.4 549.1,33.0 553.3,32.6 557.4,31.8 561.6,31.1 565.8,30.4 570.0,30.0" />
  
  <!-- Punto finale luminoso -->
  <circle cx="570.0" cy="30.0" r="4" fill="#ffffff" stroke="#0366d6" stroke-width="2.5" />
</svg>