<svg width="600" height="150" viewBox="0 0 600 150" xmlns="http://www.w3.org/2000/svg">
  <defs>
    <filter id="shadow2" x="-2%" y="-2%" width="104%" height="108%">
      <feDropShadow dx="0" dy="2" stdDeviation="3" flood-opacity="0.1" />
    </filter>
    <linearGradient id="fillGrad" x1="0" y1="0" x2="0" y2="1">
      <stop offset="0%" stop-color="#0366d6" stop-opacity="0.3"/>
      <stop offset="100%" stop-color="#0366d6" stop-opacity="0.02"/>
    </linearGradient>
  </defs>
  <rect width="600" height="150" rx="12" fill="#ffffff" filter="url(#shadow2)" stroke="#e1e4e8" stroke-width="1"/>
  <text x="20" y="24" fill="#2b3137" font-family="-apple-system,BlinkMacSystemFont,'Segoe UI',Helvetica,Arial,sans-serif" font-size="14" font-weight="600">📈 Download Growth (Actual: 71.3k)</text>
  
  <!-- Area sotto la linea -->
  <polygon fill="url(#fillGrad)" points="30.0,120.0,120 30.0,120.0 38.1,117.7 46.1,115.3 54.2,113.2 62.2,112.6 70.3,111.5 78.4,108.9 86.4,107.1 94.5,105.9 102.5,103.3 110.6,101.9 118.7,100.6 126.7,99.8 134.8,98.6 142.8,96.7 150.9,94.8 159.0,93.3 167.0,92.3 175.1,91.6 183.1,90.4 191.2,89.0 199.3,87.7 207.3,87.1 215.4,85.9 223.4,81.7 231.5,80.4 239.6,78.7 247.6,77.1 255.7,75.6 263.7,74.2 271.8,73.3 279.9,72.6 287.9,71.4 296.0,69.3 304.0,67.6 312.1,66.3 320.1,64.9 328.2,64.5 336.3,64.2 344.3,63.4 352.4,62.1 360.4,61.3 368.5,60.7 376.6,59.1 384.6,56.8 392.7,56.3 400.7,55.9 408.8,55.0 416.9,53.2 424.9,52.0 433.0,50.1 441.0,48.7 449.1,47.1 457.2,46.7 465.2,45.7 473.3,44.0 481.3,42.3 489.4,41.0 497.5,40.4 505.5,39.6 513.6,38.8 521.6,36.9 529.7,35.1 537.8,33.5 545.8,32.0 553.9,31.2 561.9,30.7 570.0,30.0 570.0,30.0,120" />
  
  <!-- Linea principale -->
  <polyline fill="none" stroke="#0366d6" stroke-width="2.5" stroke-linecap="round" stroke-linejoin="round" points="30.0,120.0 38.1,117.7 46.1,115.3 54.2,113.2 62.2,112.6 70.3,111.5 78.4,108.9 86.4,107.1 94.5,105.9 102.5,103.3 110.6,101.9 118.7,100.6 126.7,99.8 134.8,98.6 142.8,96.7 150.9,94.8 159.0,93.3 167.0,92.3 175.1,91.6 183.1,90.4 191.2,89.0 199.3,87.7 207.3,87.1 215.4,85.9 223.4,81.7 231.5,80.4 239.6,78.7 247.6,77.1 255.7,75.6 263.7,74.2 271.8,73.3 279.9,72.6 287.9,71.4 296.0,69.3 304.0,67.6 312.1,66.3 320.1,64.9 328.2,64.5 336.3,64.2 344.3,63.4 352.4,62.1 360.4,61.3 368.5,60.7 376.6,59.1 384.6,56.8 392.7,56.3 400.7,55.9 408.8,55.0 416.9,53.2 424.9,52.0 433.0,50.1 441.0,48.7 449.1,47.1 457.2,46.7 465.2,45.7 473.3,44.0 481.3,42.3 489.4,41.0 497.5,40.4 505.5,39.6 513.6,38.8 521.6,36.9 529.7,35.1 537.8,33.5 545.8,32.0 553.9,31.2 561.9,30.7 570.0,30.0" />
  
  <!-- Punto finale luminoso -->
  <circle cx="570.0" cy="30.0" r="4" fill="#ffffff" stroke="#0366d6" stroke-width="2.5" />
</svg>