<svg width="600" height="150" viewBox="0 0 600 150" xmlns="http://www.w3.org/2000/svg">
  <defs>
    <filter id="shadow2" x="-2%" y="-2%" width="104%" height="108%">
      <feDropShadow dx="0" dy="2" stdDeviation="3" flood-opacity="0.1" />
    </filter>
    <linearGradient id="fillGrad" x1="0" y1="0" x2="0" y2="1">
      <stop offset="0%" stop-color="#0366d6" stop-opacity="0.3"/>
      <stop offset="100%" stop-color="#0366d6" stop-opacity="0.02"/>
    </linearGradient>
  </defs>
  <rect width="600" height="150" rx="12" fill="#ffffff" filter="url(#shadow2)" stroke="#e1e4e8" stroke-width="1"/>
  <text x="20" y="24" fill="#2b3137" font-family="-apple-system,BlinkMacSystemFont,'Segoe UI',Helvetica,Arial,sans-serif" font-size="14" font-weight="600">📈 Download Growth (Actual: 83.3k)</text>
  
  <!-- Area sotto la linea -->
  <polygon fill="url(#fillGrad)" points="30.0,120.0,120 30.0,120.0 31.7,119.4 33.5,118.7 35.2,118.1 37.0,118.0 38.7,117.7 40.5,117.0 42.2,116.5 43.9,116.2 45.7,115.4 47.4,115.1 49.2,114.7 50.9,114.5 52.6,114.2 54.4,113.7 56.1,113.1 57.9,112.7 59.6,112.5 61.4,112.3 63.1,111.9 64.8,111.6 66.6,111.2 68.3,111.1 70.1,110.7 71.8,109.6 73.5,109.2 75.3,108.8 77.0,108.3 78.8,107.9 80.5,107.5 82.3,107.3 84.0,107.1 85.7,106.8 87.5,106.2 89.2,105.7 91.0,105.4 92.7,105.0 94.5,104.9 96.2,104.8 97.9,104.6 99.7,104.2 101.4,104.0 103.2,103.9 104.9,103.4 106.6,102.8 108.4,102.7 110.1,102.5 111.9,102.3 113.6,101.8 115.4,101.5 117.1,101.0 118.8,100.6 120.6,100.1 122.3,100.1 124.1,99.8 125.8,99.3 127.5,98.9 129.3,98.5 131.0,98.3 132.8,98.1 134.5,97.9 136.3,97.4 138.0,96.9 139.7,96.5 141.5,96.0 143.2,95.8 145.0,95.7 146.7,95.5 148.5,95.2 150.2,94.9 151.9,94.7 153.7,94.5 155.4,94.4 157.2,94.1 158.9,94.0 160.6,93.9 162.4,93.7 164.1,93.3 165.9,93.0 167.6,92.9 169.4,92.8 171.1,92.7 172.8,92.7 174.6,100.5 176.3,99.7 178.1,99.0 179.8,98.3 181.5,96.2 183.3,94.7 185.0,93.1 186.8,92.5 188.5,91.8 190.3,90.7 192.0,89.5 193.7,88.7 195.5,88.3 197.2,88.0 199.0,87.2 200.7,86.5 202.5,86.1 204.2,85.6 205.9,85.4 207.7,85.3 209.4,84.9 211.2,84.1 212.9,83.6 214.6,83.1 216.4,82.5 218.1,82.2 219.9,82.0 221.6,81.5 223.4,81.1 225.1,80.6 226.8,80.3 228.6,80.1 230.3,80.0 232.1,79.8 233.8,79.4 235.5,79.1 237.3,78.8 239.0,78.6 240.8,78.4 242.5,78.1 244.3,77.9 246.0,77.8 247.7,77.5 249.5,77.1 251.2,76.8 253.0,76.5 254.7,76.3 256.5,76.1 258.2,75.9 259.9,75.7 261.7,75.5 263.4,75.0 265.2,74.6 266.9,74.1 268.6,73.9 270.4,73.9 272.1,73.7 273.9,73.4 275.6,73.1 277.4,72.9 279.1,72.5 280.8,72.3 282.6,72.2 284.3,72.0 286.1,71.8 287.8,71.7 289.5,71.4 291.3,71.3 293.0,70.9 294.8,70.8 296.5,70.6 298.3,70.5 300.0,70.4 301.7,70.1 303.5,69.9 305.2,69.6 307.0,69.3 308.7,69.1 310.5,68.9 312.2,68.8 313.9,68.6 315.7,68.3 317.4,68.0 319.2,67.7 320.9,67.5 322.6,67.0 324.4,66.9 326.1,66.8 327.9,66.7 329.6,66.5 331.4,66.3 333.1,66.1 334.8,65.9 336.6,65.7 338.3,65.5 340.1,65.3 341.8,65.2 343.5,65.1 345.3,64.9 347.0,64.6 348.8,64.4 350.5,64.2 352.3,64.1 354.0,63.9 355.7,63.7 357.5,63.6 359.2,63.4 361.0,63.2 362.7,62.9 364.5,62.5 366.2,62.3 367.9,62.1 369.7,62.0 371.4,62.0 373.2,61.7 374.9,61.4 376.6,61.3 378.4,61.2 380.1,60.9 381.9,60.8 383.6,60.5 385.4,60.4 387.1,60.3 388.8,60.0 390.6,59.8 392.3,59.5 394.1,59.3 395.8,59.2 397.5,59.1 399.3,59.0 401.0,58.8 402.8,58.7 404.5,58.5 406.3,58.3 408.0,58.1 409.7,57.9 411.5,57.8 413.2,57.6 415.0,57.5 416.7,57.2 418.5,57.0 420.2,56.8 421.9,56.6 423.7,56.4 425.4,56.3 427.2,56.2 428.9,56.1 430.6,56.0 432.4,55.8 434.1,55.5 435.9,55.4 437.6,55.2 439.4,55.1 441.1,54.9 442.8,54.8 444.6,54.5 446.3,54.4 448.1,54.3 449.8,54.1 451.5,53.9 453.3,53.7 455.0,53.5 456.8,53.4 458.5,53.3 460.3,53.2 462.0,53.1 463.7,52.9 465.5,52.8 467.2,52.7 469.0,52.6 470.7,52.2 472.5,51.9 474.2,57.0 475.9,56.0 477.7,54.1 479.4,53.4 481.2,52.5 482.9,51.4 484.6,50.8 486.4,50.4 488.1,49.6 489.9,48.5 491.6,47.7 493.4,47.4 495.1,47.0 496.8,46.7 498.6,46.1 500.3,45.6 502.1,45.0 503.8,44.7 505.5,44.1 507.3,43.8 509.0,43.4 510.8,43.2 512.5,42.9 514.3,42.6 516.0,42.0 517.7,41.7 519.5,41.2 521.2,40.5 523.0,40.0 524.7,39.8 526.5,39.6 528.2,39.3 529.9,38.9 531.7,38.5 533.4,38.1 535.2,37.1 536.9,36.3 538.6,35.9 540.4,35.7 542.1,35.4 543.9,34.8 545.6,34.4 547.4,34.0 549.1,33.6 550.8,33.3 552.6,32.9 554.3,32.6 556.1,32.1 557.8,31.8 559.5,31.6 561.3,31.4 563.0,30.9 564.8,30.6 566.5,30.4 568.3,30.2 570.0,30.0 570.0,30.0,120" />
  
  <!-- Linea principale -->
  <polyline fill="none" stroke="#0366d6" stroke-width="2.5" stroke-linecap="round" stroke-linejoin="round" points="30.0,120.0 31.7,119.4 33.5,118.7 35.2,118.1 37.0,118.0 38.7,117.7 40.5,117.0 42.2,116.5 43.9,116.2 45.7,115.4 47.4,115.1 49.2,114.7 50.9,114.5 52.6,114.2 54.4,113.7 56.1,113.1 57.9,112.7 59.6,112.5 61.4,112.3 63.1,111.9 64.8,111.6 66.6,111.2 68.3,111.1 70.1,110.7 71.8,109.6 73.5,109.2 75.3,108.8 77.0,108.3 78.8,107.9 80.5,107.5 82.3,107.3 84.0,107.1 85.7,106.8 87.5,106.2 89.2,105.7 91.0,105.4 92.7,105.0 94.5,104.9 96.2,104.8 97.9,104.6 99.7,104.2 101.4,104.0 103.2,103.9 104.9,103.4 106.6,102.8 108.4,102.7 110.1,102.5 111.9,102.3 113.6,101.8 115.4,101.5 117.1,101.0 118.8,100.6 120.6,100.1 122.3,100.1 124.1,99.8 125.8,99.3 127.5,98.9 129.3,98.5 131.0,98.3 132.8,98.1 134.5,97.9 136.3,97.4 138.0,96.9 139.7,96.5 141.5,96.0 143.2,95.8 145.0,95.7 146.7,95.5 148.5,95.2 150.2,94.9 151.9,94.7 153.7,94.5 155.4,94.4 157.2,94.1 158.9,94.0 160.6,93.9 162.4,93.7 164.1,93.3 165.9,93.0 167.6,92.9 169.4,92.8 171.1,92.7 172.8,92.7 174.6,100.5 176.3,99.7 178.1,99.0 179.8,98.3 181.5,96.2 183.3,94.7 185.0,93.1 186.8,92.5 188.5,91.8 190.3,90.7 192.0,89.5 193.7,88.7 195.5,88.3 197.2,88.0 199.0,87.2 200.7,86.5 202.5,86.1 204.2,85.6 205.9,85.4 207.7,85.3 209.4,84.9 211.2,84.1 212.9,83.6 214.6,83.1 216.4,82.5 218.1,82.2 219.9,82.0 221.6,81.5 223.4,81.1 225.1,80.6 226.8,80.3 228.6,80.1 230.3,80.0 232.1,79.8 233.8,79.4 235.5,79.1 237.3,78.8 239.0,78.6 240.8,78.4 242.5,78.1 244.3,77.9 246.0,77.8 247.7,77.5 249.5,77.1 251.2,76.8 253.0,76.5 254.7,76.3 256.5,76.1 258.2,75.9 259.9,75.7 261.7,75.5 263.4,75.0 265.2,74.6 266.9,74.1 268.6,73.9 270.4,73.9 272.1,73.7 273.9,73.4 275.6,73.1 277.4,72.9 279.1,72.5 280.8,72.3 282.6,72.2 284.3,72.0 286.1,71.8 287.8,71.7 289.5,71.4 291.3,71.3 293.0,70.9 294.8,70.8 296.5,70.6 298.3,70.5 300.0,70.4 301.7,70.1 303.5,69.9 305.2,69.6 307.0,69.3 308.7,69.1 310.5,68.9 312.2,68.8 313.9,68.6 315.7,68.3 317.4,68.0 319.2,67.7 320.9,67.5 322.6,67.0 324.4,66.9 326.1,66.8 327.9,66.7 329.6,66.5 331.4,66.3 333.1,66.1 334.8,65.9 336.6,65.7 338.3,65.5 340.1,65.3 341.8,65.2 343.5,65.1 345.3,64.9 347.0,64.6 348.8,64.4 350.5,64.2 352.3,64.1 354.0,63.9 355.7,63.7 357.5,63.6 359.2,63.4 361.0,63.2 362.7,62.9 364.5,62.5 366.2,62.3 367.9,62.1 369.7,62.0 371.4,62.0 373.2,61.7 374.9,61.4 376.6,61.3 378.4,61.2 380.1,60.9 381.9,60.8 383.6,60.5 385.4,60.4 387.1,60.3 388.8,60.0 390.6,59.8 392.3,59.5 394.1,59.3 395.8,59.2 397.5,59.1 399.3,59.0 401.0,58.8 402.8,58.7 404.5,58.5 406.3,58.3 408.0,58.1 409.7,57.9 411.5,57.8 413.2,57.6 415.0,57.5 416.7,57.2 418.5,57.0 420.2,56.8 421.9,56.6 423.7,56.4 425.4,56.3 427.2,56.2 428.9,56.1 430.6,56.0 432.4,55.8 434.1,55.5 435.9,55.4 437.6,55.2 439.4,55.1 441.1,54.9 442.8,54.8 444.6,54.5 446.3,54.4 448.1,54.3 449.8,54.1 451.5,53.9 453.3,53.7 455.0,53.5 456.8,53.4 458.5,53.3 460.3,53.2 462.0,53.1 463.7,52.9 465.5,52.8 467.2,52.7 469.0,52.6 470.7,52.2 472.5,51.9 474.2,57.0 475.9,56.0 477.7,54.1 479.4,53.4 481.2,52.5 482.9,51.4 484.6,50.8 486.4,50.4 488.1,49.6 489.9,48.5 491.6,47.7 493.4,47.4 495.1,47.0 496.8,46.7 498.6,46.1 500.3,45.6 502.1,45.0 503.8,44.7 505.5,44.1 507.3,43.8 509.0,43.4 510.8,43.2 512.5,42.9 514.3,42.6 516.0,42.0 517.7,41.7 519.5,41.2 521.2,40.5 523.0,40.0 524.7,39.8 526.5,39.6 528.2,39.3 529.9,38.9 531.7,38.5 533.4,38.1 535.2,37.1 536.9,36.3 538.6,35.9 540.4,35.7 542.1,35.4 543.9,34.8 545.6,34.4 547.4,34.0 549.1,33.6 550.8,33.3 552.6,32.9 554.3,32.6 556.1,32.1 557.8,31.8 559.5,31.6 561.3,31.4 563.0,30.9 564.8,30.6 566.5,30.4 568.3,30.2 570.0,30.0" />
  
  <!-- Punto finale luminoso -->
  <circle cx="570.0" cy="30.0" r="4" fill="#ffffff" stroke="#0366d6" stroke-width="2.5" />
</svg>