<svg width="600" height="150" viewBox="0 0 600 150" xmlns="http://www.w3.org/2000/svg">
  <defs>
    <filter id="shadow2" x="-2%" y="-2%" width="104%" height="108%">
      <feDropShadow dx="0" dy="2" stdDeviation="3" flood-opacity="0.1" />
    </filter>
    <linearGradient id="fillGrad" x1="0" y1="0" x2="0" y2="1">
      <stop offset="0%" stop-color="#0366d6" stop-opacity="0.3"/>
      <stop offset="100%" stop-color="#0366d6" stop-opacity="0.02"/>
    </linearGradient>
  </defs>
  <rect width="600" height="150" rx="12" fill="#ffffff" filter="url(#shadow2)" stroke="#e1e4e8" stroke-width="1"/>
  <text x="20" y="24" fill="#2b3137" font-family="-apple-system,BlinkMacSystemFont,'Segoe UI',Helvetica,Arial,sans-serif" font-size="14" font-weight="600">📈 Download Growth (Actual: 74.6k)</text>
  
  <!-- Area sotto la linea -->
  <polygon fill="url(#fillGrad)" points="30.0,120.0,120 30.0,120.0 34.4,118.7 38.8,117.3 43.2,116.0 47.6,115.7 52.0,115.0 56.3,113.5 60.7,112.5 65.1,111.8 69.5,110.2 73.9,109.5 78.3,108.7 82.7,108.2 87.1,107.5 91.5,106.5 95.9,105.3 100.2,104.5 104.6,103.9 109.0,103.5 113.4,102.8 117.8,101.9 122.2,101.2 126.6,100.9 131.0,100.2 135.4,97.7 139.8,97.0 144.1,96.0 148.5,95.0 152.9,94.2 157.3,93.3 161.7,92.8 166.1,92.4 170.5,91.7 174.9,90.5 179.3,89.5 183.7,88.8 188.0,87.9 192.4,87.7 196.8,87.5 201.2,87.1 205.6,86.3 210.0,85.8 214.4,85.5 218.8,84.6 223.2,83.2 227.6,82.9 232.0,82.7 236.3,82.1 240.7,81.1 245.1,80.4 249.5,79.3 253.9,78.5 258.3,77.5 262.7,77.3 267.1,76.7 271.5,75.8 275.9,74.8 280.2,74.0 284.6,73.7 289.0,73.2 293.4,72.7 297.8,71.6 302.2,70.6 306.6,69.7 311.0,68.7 315.4,68.3 319.8,68.0 324.1,67.6 328.5,66.8 332.9,66.3 337.3,65.9 341.7,65.5 346.1,65.2 350.5,64.7 354.9,64.3 359.3,64.1 363.7,63.8 368.0,62.8 372.4,62.3 376.8,62.1 381.2,61.7 385.6,61.5 390.0,61.5 394.4,78.2 398.8,76.6 403.2,75.1 407.6,73.6 412.0,69.0 416.3,65.8 420.7,62.4 425.1,61.1 429.5,59.7 433.9,57.4 438.3,54.8 442.7,52.9 447.1,52.2 451.5,51.6 455.9,49.7 460.2,48.4 464.6,47.5 469.0,46.5 473.4,46.0 477.8,45.8 482.2,44.9 486.6,43.3 491.0,42.2 495.4,41.1 499.8,39.8 504.1,39.2 508.5,38.8 512.9,37.7 517.3,36.7 521.7,35.8 526.1,35.1 530.5,34.7 534.9,34.5 539.3,33.9 543.7,33.1 548.0,32.5 552.4,31.9 556.8,31.4 561.2,30.9 565.6,30.4 570.0,30.0 570.0,30.0,120" />
  
  <!-- Linea principale -->
  <polyline fill="none" stroke="#0366d6" stroke-width="2.5" stroke-linecap="round" stroke-linejoin="round" points="30.0,120.0 34.4,118.7 38.8,117.3 43.2,116.0 47.6,115.7 52.0,115.0 56.3,113.5 60.7,112.5 65.1,111.8 69.5,110.2 73.9,109.5 78.3,108.7 82.7,108.2 87.1,107.5 91.5,106.5 95.9,105.3 100.2,104.5 104.6,103.9 109.0,103.5 113.4,102.8 117.8,101.9 122.2,101.2 126.6,100.9 131.0,100.2 135.4,97.7 139.8,97.0 144.1,96.0 148.5,95.0 152.9,94.2 157.3,93.3 161.7,92.8 166.1,92.4 170.5,91.7 174.9,90.5 179.3,89.5 183.7,88.8 188.0,87.9 192.4,87.7 196.8,87.5 201.2,87.1 205.6,86.3 210.0,85.8 214.4,85.5 218.8,84.6 223.2,83.2 227.6,82.9 232.0,82.7 236.3,82.1 240.7,81.1 245.1,80.4 249.5,79.3 253.9,78.5 258.3,77.5 262.7,77.3 267.1,76.7 271.5,75.8 275.9,74.8 280.2,74.0 284.6,73.7 289.0,73.2 293.4,72.7 297.8,71.6 302.2,70.6 306.6,69.7 311.0,68.7 315.4,68.3 319.8,68.0 324.1,67.6 328.5,66.8 332.9,66.3 337.3,65.9 341.7,65.5 346.1,65.2 350.5,64.7 354.9,64.3 359.3,64.1 363.7,63.8 368.0,62.8 372.4,62.3 376.8,62.1 381.2,61.7 385.6,61.5 390.0,61.5 394.4,78.2 398.8,76.6 403.2,75.1 407.6,73.6 412.0,69.0 416.3,65.8 420.7,62.4 425.1,61.1 429.5,59.7 433.9,57.4 438.3,54.8 442.7,52.9 447.1,52.2 451.5,51.6 455.9,49.7 460.2,48.4 464.6,47.5 469.0,46.5 473.4,46.0 477.8,45.8 482.2,44.9 486.6,43.3 491.0,42.2 495.4,41.1 499.8,39.8 504.1,39.2 508.5,38.8 512.9,37.7 517.3,36.7 521.7,35.8 526.1,35.1 530.5,34.7 534.9,34.5 539.3,33.9 543.7,33.1 548.0,32.5 552.4,31.9 556.8,31.4 561.2,30.9 565.6,30.4 570.0,30.0" />
  
  <!-- Punto finale luminoso -->
  <circle cx="570.0" cy="30.0" r="4" fill="#ffffff" stroke="#0366d6" stroke-width="2.5" />
</svg>