<svg width="600" height="150" viewBox="0 0 600 150" xmlns="http://www.w3.org/2000/svg">
  <defs>
    <filter id="shadow2" x="-2%" y="-2%" width="104%" height="108%">
      <feDropShadow dx="0" dy="2" stdDeviation="3" flood-opacity="0.1" />
    </filter>
    <linearGradient id="fillGrad" x1="0" y1="0" x2="0" y2="1">
      <stop offset="0%" stop-color="#0366d6" stop-opacity="0.3"/>
      <stop offset="100%" stop-color="#0366d6" stop-opacity="0.02"/>
    </linearGradient>
  </defs>
  <rect width="600" height="150" rx="12" fill="#ffffff" filter="url(#shadow2)" stroke="#e1e4e8" stroke-width="1"/>
  <text x="20" y="24" fill="#2b3137" font-family="-apple-system,BlinkMacSystemFont,'Segoe UI',Helvetica,Arial,sans-serif" font-size="14" font-weight="600">📈 Download Growth (Actual: 86.7k)</text>
  
  <!-- Area sotto la linea -->
  <polygon fill="url(#fillGrad)" points="30.0,120.0,120 30.0,120.0 31.4,119.5 32.8,118.9 34.1,118.5 35.5,118.3 36.9,118.1 38.3,117.5 39.7,117.1 41.0,116.8 42.4,116.2 43.8,115.9 45.2,115.6 46.6,115.4 48.0,115.1 49.3,114.7 50.7,114.3 52.1,114.0 53.5,113.7 54.9,113.6 56.2,113.3 57.6,113.0 59.0,112.7 60.4,112.6 61.8,112.3 63.1,111.3 64.5,111.0 65.9,110.7 67.3,110.3 68.7,110.0 70.1,109.6 71.4,109.4 72.8,109.3 74.2,109.0 75.6,108.5 77.0,108.1 78.3,107.9 79.7,107.5 81.1,107.4 82.5,107.4 83.9,107.2 85.2,106.9 86.6,106.7 88.0,106.6 89.4,106.2 90.8,105.7 92.1,105.6 93.5,105.5 94.9,105.3 96.3,104.9 97.7,104.6 99.1,104.2 100.4,103.9 101.8,103.5 103.2,103.4 104.6,103.2 106.0,102.8 107.3,102.4 108.7,102.1 110.1,102.0 111.5,101.8 112.9,101.6 114.2,101.2 115.6,100.8 117.0,100.4 118.4,100.1 119.8,99.9 121.2,99.8 122.5,99.6 123.9,99.3 125.3,99.1 126.7,99.0 128.1,98.8 129.4,98.7 130.8,98.5 132.2,98.4 133.6,98.3 135.0,98.2 136.3,97.8 137.7,97.6 139.1,97.5 140.5,97.3 141.9,97.3 143.2,97.3 144.6,103.8 146.0,103.1 147.4,102.6 148.8,102.0 150.2,100.2 151.5,98.9 152.9,97.6 154.3,97.1 155.7,96.6 157.1,95.7 158.4,94.7 159.8,93.9 161.2,93.7 162.6,93.4 164.0,92.7 165.3,92.2 166.7,91.8 168.1,91.4 169.5,91.2 170.9,91.2 172.3,90.8 173.6,90.2 175.0,89.8 176.4,89.3 177.8,88.8 179.2,88.6 180.5,88.4 181.9,88.0 183.3,87.6 184.7,87.3 186.1,87.0 187.4,86.9 188.8,86.8 190.2,86.5 191.6,86.2 193.0,86.0 194.3,85.8 195.7,85.6 197.1,85.4 198.5,85.2 199.9,85.0 201.3,84.9 202.6,84.7 204.0,84.4 205.4,84.1 206.8,83.8 208.2,83.7 209.5,83.5 210.9,83.3 212.3,83.2 213.7,83.0 215.1,82.6 216.4,82.2 217.8,81.9 219.2,81.7 220.6,81.7 222.0,81.5 223.4,81.3 224.7,81.0 226.1,80.8 227.5,80.5 228.9,80.3 230.3,80.2 231.6,80.1 233.0,80.0 234.4,79.8 235.8,79.6 237.2,79.5 238.5,79.2 239.9,79.1 241.3,79.0 242.7,78.8 244.1,78.7 245.4,78.5 246.8,78.3 248.2,78.1 249.6,77.9 251.0,77.7 252.4,77.5 253.7,77.4 255.1,77.3 256.5,77.0 257.9,76.7 259.3,76.5 260.6,76.3 262.0,76.0 263.4,75.9 264.8,75.8 266.2,75.7 267.5,75.5 268.9,75.3 270.3,75.1 271.7,75.0 273.1,74.8 274.5,74.7 275.8,74.5 277.2,74.4 278.6,74.3 280.0,74.2 281.4,73.9 282.7,73.8 284.1,73.6 285.5,73.5 286.9,73.4 288.3,73.2 289.6,73.1 291.0,73.0 292.4,72.8 293.8,72.5 295.2,72.2 296.5,72.0 297.9,71.9 299.3,71.8 300.7,71.7 302.1,71.6 303.5,71.3 304.8,71.2 306.2,71.1 307.6,70.9 309.0,70.7 310.4,70.6 311.7,70.4 313.1,70.3 314.5,70.1 315.9,69.9 317.3,69.7 318.6,69.5 320.0,69.4 321.4,69.4 322.8,69.3 324.2,69.1 325.5,69.0 326.9,68.8 328.3,68.7 329.7,68.5 331.1,68.4 332.5,68.3 333.8,68.1 335.2,68.0 336.6,67.8 338.0,67.6 339.4,67.4 340.7,67.3 342.1,67.2 343.5,67.1 344.9,67.0 346.3,66.9 347.6,66.8 349.0,66.6 350.4,66.4 351.8,66.3 353.2,66.1 354.6,66.0 355.9,65.9 357.3,65.8 358.7,65.6 360.1,65.5 361.5,65.4 362.8,65.2 364.2,65.0 365.6,64.9 367.0,64.7 368.4,64.7 369.7,64.6 371.1,64.5 372.5,64.3 373.9,64.2 375.3,64.1 376.6,64.1 378.0,63.9 379.4,63.6 380.8,63.4 382.2,67.7 383.6,66.8 384.9,65.2 386.3,64.6 387.7,63.9 389.1,62.9 390.5,62.5 391.8,62.1 393.2,61.5 394.6,60.6 396.0,59.9 397.4,59.7 398.7,59.3 400.1,59.0 401.5,58.6 402.9,58.1 404.3,57.6 405.7,57.4 407.0,56.9 408.4,56.7 409.8,56.3 411.2,56.1 412.6,55.9 413.9,55.7 415.3,55.2 416.7,54.9 418.1,54.4 419.5,53.9 420.8,53.5 422.2,53.3 423.6,53.2 425.0,52.9 426.4,52.6 427.7,52.2 429.1,51.9 430.5,51.1 431.9,50.4 433.3,50.1 434.7,49.9 436.0,49.6 437.4,49.2 438.8,48.8 440.2,48.5 441.6,48.2 442.9,47.9 444.3,47.6 445.7,47.3 447.1,46.9 448.5,46.7 449.8,46.5 451.2,46.3 452.6,45.9 454.0,45.7 455.4,45.5 456.8,45.3 458.1,45.2 459.5,44.9 460.9,44.7 462.3,44.5 463.7,44.4 465.0,44.2 466.4,44.0 467.8,43.8 469.2,43.6 470.6,43.2 471.9,42.9 473.3,42.6 474.7,42.5 476.1,42.3 477.5,42.1 478.8,41.9 480.2,41.8 481.6,41.6 483.0,41.5 484.4,41.4 485.8,41.2 487.1,41.0 488.5,40.7 489.9,40.6 491.3,40.4 492.7,40.2 494.0,39.9 495.4,39.5 496.8,39.3 498.2,39.1 499.6,38.9 500.9,38.7 502.3,38.5 503.7,38.2 505.1,38.0 506.5,37.9 507.9,37.8 509.2,37.6 510.6,37.3 512.0,37.2 513.4,37.1 514.8,36.8 516.1,36.6 517.5,36.4 518.9,36.1 520.3,36.0 521.7,35.7 523.0,35.4 524.4,35.3 525.8,35.2 527.2,35.0 528.6,34.8 529.9,34.6 531.3,34.4 532.7,34.2 534.1,34.1 535.5,33.9 536.9,33.8 538.2,33.6 539.6,33.5 541.0,33.3 542.4,33.2 543.8,33.1 545.1,32.9 546.5,32.8 547.9,32.6 549.3,32.4 550.7,32.3 552.0,32.1 553.4,31.9 554.8,31.7 556.2,31.6 557.6,31.5 559.0,31.3 560.3,31.1 561.7,30.9 563.1,30.6 564.5,30.5 565.9,30.4 567.2,30.3 568.6,30.1 570.0,30.0 570.0,30.0,120" />
  
  <!-- Linea principale -->
  <polyline fill="none" stroke="#0366d6" stroke-width="2.5" stroke-linecap="round" stroke-linejoin="round" points="30.0,120.0 31.4,119.5 32.8,118.9 34.1,118.5 35.5,118.3 36.9,118.1 38.3,117.5 39.7,117.1 41.0,116.8 42.4,116.2 43.8,115.9 45.2,115.6 46.6,115.4 48.0,115.1 49.3,114.7 50.7,114.3 52.1,114.0 53.5,113.7 54.9,113.6 56.2,113.3 57.6,113.0 59.0,112.7 60.4,112.6 61.8,112.3 63.1,111.3 64.5,111.0 65.9,110.7 67.3,110.3 68.7,110.0 70.1,109.6 71.4,109.4 72.8,109.3 74.2,109.0 75.6,108.5 77.0,108.1 78.3,107.9 79.7,107.5 81.1,107.4 82.5,107.4 83.9,107.2 85.2,106.9 86.6,106.7 88.0,106.6 89.4,106.2 90.8,105.7 92.1,105.6 93.5,105.5 94.9,105.3 96.3,104.9 97.7,104.6 99.1,104.2 100.4,103.9 101.8,103.5 103.2,103.4 104.6,103.2 106.0,102.8 107.3,102.4 108.7,102.1 110.1,102.0 111.5,101.8 112.9,101.6 114.2,101.2 115.6,100.8 117.0,100.4 118.4,100.1 119.8,99.9 121.2,99.8 122.5,99.6 123.9,99.3 125.3,99.1 126.7,99.0 128.1,98.8 129.4,98.7 130.8,98.5 132.2,98.4 133.6,98.3 135.0,98.2 136.3,97.8 137.7,97.6 139.1,97.5 140.5,97.3 141.9,97.3 143.2,97.3 144.6,103.8 146.0,103.1 147.4,102.6 148.8,102.0 150.2,100.2 151.5,98.9 152.9,97.6 154.3,97.1 155.7,96.6 157.1,95.7 158.4,94.7 159.8,93.9 161.2,93.7 162.6,93.4 164.0,92.7 165.3,92.2 166.7,91.8 168.1,91.4 169.5,91.2 170.9,91.2 172.3,90.8 173.6,90.2 175.0,89.8 176.4,89.3 177.8,88.8 179.2,88.6 180.5,88.4 181.9,88.0 183.3,87.6 184.7,87.3 186.1,87.0 187.4,86.9 188.8,86.8 190.2,86.5 191.6,86.2 193.0,86.0 194.3,85.8 195.7,85.6 197.1,85.4 198.5,85.2 199.9,85.0 201.3,84.9 202.6,84.7 204.0,84.4 205.4,84.1 206.8,83.8 208.2,83.7 209.5,83.5 210.9,83.3 212.3,83.2 213.7,83.0 215.1,82.6 216.4,82.2 217.8,81.9 219.2,81.7 220.6,81.7 222.0,81.5 223.4,81.3 224.7,81.0 226.1,80.8 227.5,80.5 228.9,80.3 230.3,80.2 231.6,80.1 233.0,80.0 234.4,79.8 235.8,79.6 237.2,79.5 238.5,79.2 239.9,79.1 241.3,79.0 242.7,78.8 244.1,78.7 245.4,78.5 246.8,78.3 248.2,78.1 249.6,77.9 251.0,77.7 252.4,77.5 253.7,77.4 255.1,77.3 256.5,77.0 257.9,76.7 259.3,76.5 260.6,76.3 262.0,76.0 263.4,75.9 264.8,75.8 266.2,75.7 267.5,75.5 268.9,75.3 270.3,75.1 271.7,75.0 273.1,74.8 274.5,74.7 275.8,74.5 277.2,74.4 278.6,74.3 280.0,74.2 281.4,73.9 282.7,73.8 284.1,73.6 285.5,73.5 286.9,73.4 288.3,73.2 289.6,73.1 291.0,73.0 292.4,72.8 293.8,72.5 295.2,72.2 296.5,72.0 297.9,71.9 299.3,71.8 300.7,71.7 302.1,71.6 303.5,71.3 304.8,71.2 306.2,71.1 307.6,70.9 309.0,70.7 310.4,70.6 311.7,70.4 313.1,70.3 314.5,70.1 315.9,69.9 317.3,69.7 318.6,69.5 320.0,69.4 321.4,69.4 322.8,69.3 324.2,69.1 325.5,69.0 326.9,68.8 328.3,68.7 329.7,68.5 331.1,68.4 332.5,68.3 333.8,68.1 335.2,68.0 336.6,67.8 338.0,67.6 339.4,67.4 340.7,67.3 342.1,67.2 343.5,67.1 344.9,67.0 346.3,66.9 347.6,66.8 349.0,66.6 350.4,66.4 351.8,66.3 353.2,66.1 354.6,66.0 355.9,65.9 357.3,65.8 358.7,65.6 360.1,65.5 361.5,65.4 362.8,65.2 364.2,65.0 365.6,64.9 367.0,64.7 368.4,64.7 369.7,64.6 371.1,64.5 372.5,64.3 373.9,64.2 375.3,64.1 376.6,64.1 378.0,63.9 379.4,63.6 380.8,63.4 382.2,67.7 383.6,66.8 384.9,65.2 386.3,64.6 387.7,63.9 389.1,62.9 390.5,62.5 391.8,62.1 393.2,61.5 394.6,60.6 396.0,59.9 397.4,59.7 398.7,59.3 400.1,59.0 401.5,58.6 402.9,58.1 404.3,57.6 405.7,57.4 407.0,56.9 408.4,56.7 409.8,56.3 411.2,56.1 412.6,55.9 413.9,55.7 415.3,55.2 416.7,54.9 418.1,54.4 419.5,53.9 420.8,53.5 422.2,53.3 423.6,53.2 425.0,52.9 426.4,52.6 427.7,52.2 429.1,51.9 430.5,51.1 431.9,50.4 433.3,50.1 434.7,49.9 436.0,49.6 437.4,49.2 438.8,48.8 440.2,48.5 441.6,48.2 442.9,47.9 444.3,47.6 445.7,47.3 447.1,46.9 448.5,46.7 449.8,46.5 451.2,46.3 452.6,45.9 454.0,45.7 455.4,45.5 456.8,45.3 458.1,45.2 459.5,44.9 460.9,44.7 462.3,44.5 463.7,44.4 465.0,44.2 466.4,44.0 467.8,43.8 469.2,43.6 470.6,43.2 471.9,42.9 473.3,42.6 474.7,42.5 476.1,42.3 477.5,42.1 478.8,41.9 480.2,41.8 481.6,41.6 483.0,41.5 484.4,41.4 485.8,41.2 487.1,41.0 488.5,40.7 489.9,40.6 491.3,40.4 492.7,40.2 494.0,39.9 495.4,39.5 496.8,39.3 498.2,39.1 499.6,38.9 500.9,38.7 502.3,38.5 503.7,38.2 505.1,38.0 506.5,37.9 507.9,37.8 509.2,37.6 510.6,37.3 512.0,37.2 513.4,37.1 514.8,36.8 516.1,36.6 517.5,36.4 518.9,36.1 520.3,36.0 521.7,35.7 523.0,35.4 524.4,35.3 525.8,35.2 527.2,35.0 528.6,34.8 529.9,34.6 531.3,34.4 532.7,34.2 534.1,34.1 535.5,33.9 536.9,33.8 538.2,33.6 539.6,33.5 541.0,33.3 542.4,33.2 543.8,33.1 545.1,32.9 546.5,32.8 547.9,32.6 549.3,32.4 550.7,32.3 552.0,32.1 553.4,31.9 554.8,31.7 556.2,31.6 557.6,31.5 559.0,31.3 560.3,31.1 561.7,30.9 563.1,30.6 564.5,30.5 565.9,30.4 567.2,30.3 568.6,30.1 570.0,30.0" />
  
  <!-- Punto finale luminoso -->
  <circle cx="570.0" cy="30.0" r="4" fill="#ffffff" stroke="#0366d6" stroke-width="2.5" />
</svg>