<svg width="600" height="150" viewBox="0 0 600 150" xmlns="http://www.w3.org/2000/svg">
  <defs>
    <filter id="shadow2" x="-2%" y="-2%" width="104%" height="108%">
      <feDropShadow dx="0" dy="2" stdDeviation="3" flood-opacity="0.1" />
    </filter>
    <linearGradient id="fillGrad" x1="0" y1="0" x2="0" y2="1">
      <stop offset="0%" stop-color="#0366d6" stop-opacity="0.3"/>
      <stop offset="100%" stop-color="#0366d6" stop-opacity="0.02"/>
    </linearGradient>
  </defs>
  <rect width="600" height="150" rx="12" fill="#ffffff" filter="url(#shadow2)" stroke="#e1e4e8" stroke-width="1"/>
  <text x="20" y="24" fill="#2b3137" font-family="-apple-system,BlinkMacSystemFont,'Segoe UI',Helvetica,Arial,sans-serif" font-size="14" font-weight="600">📈 Download Growth (Actual: 86.4k)</text>
  
  <!-- Area sotto la linea -->
  <polygon fill="url(#fillGrad)" points="30.0,120.0,120 30.0,120.0 31.4,119.5 32.8,118.9 34.2,118.4 35.6,118.3 37.0,118.0 38.4,117.4 39.8,117.0 41.2,116.8 42.7,116.2 44.1,115.9 45.5,115.5 46.9,115.4 48.3,115.1 49.7,114.7 51.1,114.2 52.5,113.9 53.9,113.7 55.3,113.5 56.7,113.2 58.1,112.9 59.5,112.6 60.9,112.5 62.3,112.2 63.8,111.2 65.2,110.9 66.6,110.6 68.0,110.2 69.4,109.8 70.8,109.5 72.2,109.3 73.6,109.1 75.0,108.9 76.4,108.4 77.8,108.0 79.2,107.7 80.6,107.4 82.0,107.3 83.4,107.2 84.8,107.0 86.2,106.7 87.7,106.5 89.1,106.4 90.5,106.1 91.9,105.5 93.3,105.4 94.7,105.3 96.1,105.1 97.5,104.7 98.9,104.4 100.3,104.0 101.7,103.7 103.1,103.3 104.5,103.2 105.9,103.0 107.3,102.6 108.8,102.2 110.2,101.9 111.6,101.8 113.0,101.6 114.4,101.4 115.8,101.0 117.2,100.6 118.6,100.2 120.0,99.8 121.4,99.7 122.8,99.5 124.2,99.4 125.6,99.1 127.0,98.9 128.4,98.7 129.8,98.6 131.2,98.5 132.7,98.2 134.1,98.1 135.5,98.0 136.9,97.9 138.3,97.5 139.7,97.3 141.1,97.2 142.5,97.1 143.9,97.0 145.3,97.0 146.7,103.6 148.1,102.9 149.5,102.3 150.9,101.7 152.3,99.9 153.8,98.7 155.2,97.4 156.6,96.9 158.0,96.3 159.4,95.4 160.8,94.4 162.2,93.6 163.6,93.3 165.0,93.1 166.4,92.4 167.8,91.8 169.2,91.5 170.6,91.1 172.0,90.9 173.4,90.8 174.8,90.4 176.2,89.8 177.7,89.4 179.1,89.0 180.5,88.5 181.9,88.2 183.3,88.1 184.7,87.6 186.1,87.2 187.5,86.9 188.9,86.6 190.3,86.5 191.7,86.4 193.1,86.1 194.5,85.8 195.9,85.6 197.3,85.3 198.8,85.2 200.2,85.0 201.6,84.8 203.0,84.6 204.4,84.5 205.8,84.3 207.2,83.9 208.6,83.7 210.0,83.4 211.4,83.2 212.8,83.0 214.2,82.9 215.6,82.8 217.0,82.6 218.4,82.1 219.8,81.8 221.2,81.4 222.7,81.2 224.1,81.2 225.5,81.0 226.9,80.8 228.3,80.6 229.7,80.3 231.1,80.0 232.5,79.9 233.9,79.8 235.3,79.6 236.7,79.5 238.1,79.3 239.5,79.2 240.9,79.0 242.3,78.7 243.8,78.6 245.2,78.5 246.6,78.3 248.0,78.3 249.4,78.0 250.8,77.8 252.2,77.6 253.6,77.4 255.0,77.2 256.4,77.0 257.8,76.9 259.2,76.8 260.6,76.5 262.0,76.2 263.4,76.0 264.8,75.8 266.2,75.4 267.7,75.4 269.1,75.2 270.5,75.2 271.9,75.0 273.3,74.8 274.7,74.6 276.1,74.5 277.5,74.3 278.9,74.2 280.3,74.0 281.7,73.9 283.1,73.8 284.5,73.6 285.9,73.4 287.3,73.2 288.8,73.0 290.2,72.9 291.6,72.8 293.0,72.6 294.4,72.5 295.8,72.4 297.2,72.3 298.6,72.0 300.0,71.7 301.4,71.5 302.8,71.3 304.2,71.2 305.6,71.2 307.0,71.0 308.4,70.7 309.8,70.6 311.2,70.5 312.7,70.3 314.1,70.2 315.5,70.0 316.9,69.9 318.3,69.7 319.7,69.5 321.1,69.3 322.5,69.1 323.9,68.9 325.3,68.8 326.7,68.8 328.1,68.7 329.5,68.5 330.9,68.4 332.3,68.2 333.8,68.1 335.2,67.9 336.6,67.8 338.0,67.7 339.4,67.5 340.8,67.4 342.2,67.2 343.6,67.0 345.0,66.8 346.4,66.6 347.8,66.5 349.2,66.4 350.6,66.3 352.0,66.3 353.4,66.2 354.8,66.0 356.2,65.8 357.7,65.6 359.1,65.5 360.5,65.4 361.9,65.2 363.3,65.1 364.7,64.9 366.1,64.8 367.5,64.7 368.9,64.6 370.3,64.4 371.7,64.2 373.1,64.1 374.5,64.0 375.9,63.9 377.3,63.8 378.8,63.7 380.2,63.6 381.6,63.4 383.0,63.4 384.4,63.3 385.8,62.9 387.2,62.7 388.6,67.0 390.0,66.2 391.4,64.6 392.8,63.9 394.2,63.2 395.6,62.3 397.0,61.8 398.4,61.4 399.8,60.8 401.2,59.9 402.7,59.2 404.1,59.0 405.5,58.6 406.9,58.3 408.3,57.8 409.7,57.4 411.1,56.9 412.5,56.6 413.9,56.1 415.3,55.9 416.7,55.6 418.1,55.4 419.5,55.1 420.9,54.9 422.3,54.4 423.8,54.1 425.2,53.7 426.6,53.1 428.0,52.7 429.4,52.5 430.8,52.4 432.2,52.1 433.6,51.8 435.0,51.4 436.4,51.1 437.8,50.3 439.2,49.6 440.6,49.2 442.0,49.1 443.4,48.8 444.8,48.3 446.2,47.9 447.7,47.6 449.1,47.3 450.5,47.0 451.9,46.7 453.3,46.4 454.7,46.0 456.1,45.8 457.5,45.7 458.9,45.5 460.3,45.1 461.7,44.8 463.1,44.6 464.5,44.5 465.9,44.3 467.3,44.0 468.8,43.9 470.2,43.6 471.6,43.5 473.0,43.3 474.4,43.1 475.8,42.9 477.2,42.7 478.6,42.3 480.0,42.0 481.4,41.7 482.8,41.5 484.2,41.4 485.6,41.2 487.0,41.0 488.4,40.8 489.8,40.7 491.2,40.6 492.7,40.4 494.1,40.2 495.5,40.1 496.9,39.8 498.3,39.7 499.7,39.5 501.1,39.3 502.5,38.9 503.9,38.6 505.3,38.4 506.7,38.2 508.1,38.0 509.5,37.7 510.9,37.5 512.3,37.3 513.8,37.1 515.2,37.0 516.6,36.8 518.0,36.6 519.4,36.4 520.8,36.2 522.2,36.1 523.6,35.8 525.0,35.6 526.4,35.4 527.8,35.1 529.2,35.0 530.6,34.7 532.0,34.4 533.4,34.3 534.8,34.2 536.2,34.0 537.7,33.8 539.1,33.6 540.5,33.4 541.9,33.2 543.3,33.1 544.7,32.9 546.1,32.8 547.5,32.6 548.9,32.5 550.3,32.3 551.7,32.2 553.1,32.1 554.5,31.9 555.9,31.7 557.3,31.6 558.8,31.4 560.2,31.3 561.6,31.1 563.0,30.9 564.4,30.7 565.8,30.6 567.2,30.4 568.6,30.3 570.0,30.0 570.0,30.0,120" />
  
  <!-- Linea principale -->
  <polyline fill="none" stroke="#0366d6" stroke-width="2.5" stroke-linecap="round" stroke-linejoin="round" points="30.0,120.0 31.4,119.5 32.8,118.9 34.2,118.4 35.6,118.3 37.0,118.0 38.4,117.4 39.8,117.0 41.2,116.8 42.7,116.2 44.1,115.9 45.5,115.5 46.9,115.4 48.3,115.1 49.7,114.7 51.1,114.2 52.5,113.9 53.9,113.7 55.3,113.5 56.7,113.2 58.1,112.9 59.5,112.6 60.9,112.5 62.3,112.2 63.8,111.2 65.2,110.9 66.6,110.6 68.0,110.2 69.4,109.8 70.8,109.5 72.2,109.3 73.6,109.1 75.0,108.9 76.4,108.4 77.8,108.0 79.2,107.7 80.6,107.4 82.0,107.3 83.4,107.2 84.8,107.0 86.2,106.7 87.7,106.5 89.1,106.4 90.5,106.1 91.9,105.5 93.3,105.4 94.7,105.3 96.1,105.1 97.5,104.7 98.9,104.4 100.3,104.0 101.7,103.7 103.1,103.3 104.5,103.2 105.9,103.0 107.3,102.6 108.8,102.2 110.2,101.9 111.6,101.8 113.0,101.6 114.4,101.4 115.8,101.0 117.2,100.6 118.6,100.2 120.0,99.8 121.4,99.7 122.8,99.5 124.2,99.4 125.6,99.1 127.0,98.9 128.4,98.7 129.8,98.6 131.2,98.5 132.7,98.2 134.1,98.1 135.5,98.0 136.9,97.9 138.3,97.5 139.7,97.3 141.1,97.2 142.5,97.1 143.9,97.0 145.3,97.0 146.7,103.6 148.1,102.9 149.5,102.3 150.9,101.7 152.3,99.9 153.8,98.7 155.2,97.4 156.6,96.9 158.0,96.3 159.4,95.4 160.8,94.4 162.2,93.6 163.6,93.3 165.0,93.1 166.4,92.4 167.8,91.8 169.2,91.5 170.6,91.1 172.0,90.9 173.4,90.8 174.8,90.4 176.2,89.8 177.7,89.4 179.1,89.0 180.5,88.5 181.9,88.2 183.3,88.1 184.7,87.6 186.1,87.2 187.5,86.9 188.9,86.6 190.3,86.5 191.7,86.4 193.1,86.1 194.5,85.8 195.9,85.6 197.3,85.3 198.8,85.2 200.2,85.0 201.6,84.8 203.0,84.6 204.4,84.5 205.8,84.3 207.2,83.9 208.6,83.7 210.0,83.4 211.4,83.2 212.8,83.0 214.2,82.9 215.6,82.8 217.0,82.6 218.4,82.1 219.8,81.8 221.2,81.4 222.7,81.2 224.1,81.2 225.5,81.0 226.9,80.8 228.3,80.6 229.7,80.3 231.1,80.0 232.5,79.9 233.9,79.8 235.3,79.6 236.7,79.5 238.1,79.3 239.5,79.2 240.9,79.0 242.3,78.7 243.8,78.6 245.2,78.5 246.6,78.3 248.0,78.3 249.4,78.0 250.8,77.8 252.2,77.6 253.6,77.4 255.0,77.2 256.4,77.0 257.8,76.9 259.2,76.8 260.6,76.5 262.0,76.2 263.4,76.0 264.8,75.8 266.2,75.4 267.7,75.4 269.1,75.2 270.5,75.2 271.9,75.0 273.3,74.8 274.7,74.6 276.1,74.5 277.5,74.3 278.9,74.2 280.3,74.0 281.7,73.9 283.1,73.8 284.5,73.6 285.9,73.4 287.3,73.2 288.8,73.0 290.2,72.9 291.6,72.8 293.0,72.6 294.4,72.5 295.8,72.4 297.2,72.3 298.6,72.0 300.0,71.7 301.4,71.5 302.8,71.3 304.2,71.2 305.6,71.2 307.0,71.0 308.4,70.7 309.8,70.6 311.2,70.5 312.7,70.3 314.1,70.2 315.5,70.0 316.9,69.9 318.3,69.7 319.7,69.5 321.1,69.3 322.5,69.1 323.9,68.9 325.3,68.8 326.7,68.8 328.1,68.7 329.5,68.5 330.9,68.4 332.3,68.2 333.8,68.1 335.2,67.9 336.6,67.8 338.0,67.7 339.4,67.5 340.8,67.4 342.2,67.2 343.6,67.0 345.0,66.8 346.4,66.6 347.8,66.5 349.2,66.4 350.6,66.3 352.0,66.3 353.4,66.2 354.8,66.0 356.2,65.8 357.7,65.6 359.1,65.5 360.5,65.4 361.9,65.2 363.3,65.1 364.7,64.9 366.1,64.8 367.5,64.7 368.9,64.6 370.3,64.4 371.7,64.2 373.1,64.1 374.5,64.0 375.9,63.9 377.3,63.8 378.8,63.7 380.2,63.6 381.6,63.4 383.0,63.4 384.4,63.3 385.8,62.9 387.2,62.7 388.6,67.0 390.0,66.2 391.4,64.6 392.8,63.9 394.2,63.2 395.6,62.3 397.0,61.8 398.4,61.4 399.8,60.8 401.2,59.9 402.7,59.2 404.1,59.0 405.5,58.6 406.9,58.3 408.3,57.8 409.7,57.4 411.1,56.9 412.5,56.6 413.9,56.1 415.3,55.9 416.7,55.6 418.1,55.4 419.5,55.1 420.9,54.9 422.3,54.4 423.8,54.1 425.2,53.7 426.6,53.1 428.0,52.7 429.4,52.5 430.8,52.4 432.2,52.1 433.6,51.8 435.0,51.4 436.4,51.1 437.8,50.3 439.2,49.6 440.6,49.2 442.0,49.1 443.4,48.8 444.8,48.3 446.2,47.9 447.7,47.6 449.1,47.3 450.5,47.0 451.9,46.7 453.3,46.4 454.7,46.0 456.1,45.8 457.5,45.7 458.9,45.5 460.3,45.1 461.7,44.8 463.1,44.6 464.5,44.5 465.9,44.3 467.3,44.0 468.8,43.9 470.2,43.6 471.6,43.5 473.0,43.3 474.4,43.1 475.8,42.9 477.2,42.7 478.6,42.3 480.0,42.0 481.4,41.7 482.8,41.5 484.2,41.4 485.6,41.2 487.0,41.0 488.4,40.8 489.8,40.7 491.2,40.6 492.7,40.4 494.1,40.2 495.5,40.1 496.9,39.8 498.3,39.7 499.7,39.5 501.1,39.3 502.5,38.9 503.9,38.6 505.3,38.4 506.7,38.2 508.1,38.0 509.5,37.7 510.9,37.5 512.3,37.3 513.8,37.1 515.2,37.0 516.6,36.8 518.0,36.6 519.4,36.4 520.8,36.2 522.2,36.1 523.6,35.8 525.0,35.6 526.4,35.4 527.8,35.1 529.2,35.0 530.6,34.7 532.0,34.4 533.4,34.3 534.8,34.2 536.2,34.0 537.7,33.8 539.1,33.6 540.5,33.4 541.9,33.2 543.3,33.1 544.7,32.9 546.1,32.8 547.5,32.6 548.9,32.5 550.3,32.3 551.7,32.2 553.1,32.1 554.5,31.9 555.9,31.7 557.3,31.6 558.8,31.4 560.2,31.3 561.6,31.1 563.0,30.9 564.4,30.7 565.8,30.6 567.2,30.4 568.6,30.3 570.0,30.0" />
  
  <!-- Punto finale luminoso -->
  <circle cx="570.0" cy="30.0" r="4" fill="#ffffff" stroke="#0366d6" stroke-width="2.5" />
</svg>