<svg width="600" height="150" viewBox="0 0 600 150" xmlns="http://www.w3.org/2000/svg">
  <defs>
    <filter id="shadow2" x="-2%" y="-2%" width="104%" height="108%">
      <feDropShadow dx="0" dy="2" stdDeviation="3" flood-opacity="0.1" />
    </filter>
    <linearGradient id="fillGrad" x1="0" y1="0" x2="0" y2="1">
      <stop offset="0%" stop-color="#0366d6" stop-opacity="0.3"/>
      <stop offset="100%" stop-color="#0366d6" stop-opacity="0.02"/>
    </linearGradient>
  </defs>
  <rect width="600" height="150" rx="12" fill="#ffffff" filter="url(#shadow2)" stroke="#e1e4e8" stroke-width="1"/>
  <text x="20" y="24" fill="#2b3137" font-family="-apple-system,BlinkMacSystemFont,'Segoe UI',Helvetica,Arial,sans-serif" font-size="14" font-weight="600">📈 Download Growth (Actual: 77.2k)</text>
  
  <!-- Area sotto la linea -->
  <polygon fill="url(#fillGrad)" points="30.0,120.0,120 30.0,120.0 32.9,119.0 35.8,118.0 38.7,117.0 41.6,116.8 44.4,116.3 47.3,115.2 50.2,114.4 53.1,113.9 56.0,112.7 58.9,112.1 61.8,111.5 64.7,111.2 67.5,110.7 70.4,109.9 73.3,109.0 76.2,108.4 79.1,108.0 82.0,107.6 84.9,107.1 87.8,106.5 90.6,106.0 93.5,105.7 96.4,105.2 99.3,103.3 102.2,102.8 105.1,102.0 108.0,101.3 110.9,100.7 113.7,100.1 116.6,99.7 119.5,99.4 122.4,98.8 125.3,97.9 128.2,97.2 131.1,96.6 134.0,96.0 136.8,95.9 139.7,95.7 142.6,95.4 145.5,94.8 148.4,94.4 151.3,94.2 154.2,93.5 157.1,92.5 159.9,92.3 162.8,92.1 165.7,91.7 168.6,90.9 171.5,90.4 174.4,89.6 177.3,89.0 180.2,88.3 183.0,88.1 185.9,87.7 188.8,86.9 191.7,86.2 194.6,85.6 197.5,85.4 200.4,85.0 203.3,84.7 206.1,83.8 209.0,83.1 211.9,82.4 214.8,81.7 217.7,81.3 220.6,81.1 223.5,80.8 226.4,80.3 229.3,79.9 232.1,79.6 235.0,79.3 237.9,79.0 240.8,78.6 243.7,78.4 246.6,78.2 249.5,78.0 252.4,77.3 255.2,76.8 258.1,76.7 261.0,76.4 263.9,76.3 266.8,76.3 269.7,88.8 272.6,87.6 275.5,86.5 278.3,85.3 281.2,81.9 284.1,79.5 287.0,77.0 289.9,76.0 292.8,74.9 295.7,73.2 298.6,71.3 301.4,69.9 304.3,69.4 307.2,68.8 310.1,67.5 313.0,66.5 315.9,65.8 318.8,65.0 321.7,64.7 324.5,64.6 327.4,63.8 330.3,62.7 333.2,61.8 336.1,61.0 339.0,60.1 341.9,59.6 344.8,59.3 347.6,58.5 350.5,57.8 353.4,57.1 356.3,56.5 359.2,56.3 362.1,56.1 365.0,55.7 367.9,55.0 370.7,54.6 373.6,54.1 376.5,53.8 379.4,53.4 382.3,53.1 385.2,52.7 388.1,52.4 391.0,52.1 393.9,51.5 396.7,51.0 399.6,50.4 402.5,50.1 405.4,49.7 408.3,49.5 411.2,49.2 414.1,48.9 417.0,48.0 419.8,47.4 422.7,46.6 425.6,46.4 428.5,46.3 431.4,45.9 434.3,45.5 437.2,45.1 440.1,44.6 442.9,44.1 445.8,43.7 448.7,43.5 451.6,43.2 454.5,43.0 457.4,42.7 460.3,42.4 463.2,42.1 466.0,41.5 468.9,41.3 471.8,41.1 474.7,40.8 477.6,40.7 480.5,40.2 483.4,39.8 486.3,39.4 489.1,39.0 492.0,38.6 494.9,38.3 497.8,38.1 500.7,37.9 503.6,37.3 506.5,36.8 509.4,36.4 512.2,36.0 515.1,35.3 518.0,35.2 520.9,35.0 523.8,34.8 526.7,34.4 529.6,34.1 532.5,33.7 535.3,33.5 538.2,33.1 541.1,32.9 544.0,32.6 546.9,32.4 549.8,32.2 552.7,31.9 555.6,31.4 558.4,31.1 561.3,30.7 564.2,30.5 567.1,30.3 570.0,30.0 570.0,30.0,120" />
  
  <!-- Linea principale -->
  <polyline fill="none" stroke="#0366d6" stroke-width="2.5" stroke-linecap="round" stroke-linejoin="round" points="30.0,120.0 32.9,119.0 35.8,118.0 38.7,117.0 41.6,116.8 44.4,116.3 47.3,115.2 50.2,114.4 53.1,113.9 56.0,112.7 58.9,112.1 61.8,111.5 64.7,111.2 67.5,110.7 70.4,109.9 73.3,109.0 76.2,108.4 79.1,108.0 82.0,107.6 84.9,107.1 87.8,106.5 90.6,106.0 93.5,105.7 96.4,105.2 99.3,103.3 102.2,102.8 105.1,102.0 108.0,101.3 110.9,100.7 113.7,100.1 116.6,99.7 119.5,99.4 122.4,98.8 125.3,97.9 128.2,97.2 131.1,96.6 134.0,96.0 136.8,95.9 139.7,95.7 142.6,95.4 145.5,94.8 148.4,94.4 151.3,94.2 154.2,93.5 157.1,92.5 159.9,92.3 162.8,92.1 165.7,91.7 168.6,90.9 171.5,90.4 174.4,89.6 177.3,89.0 180.2,88.3 183.0,88.1 185.9,87.7 188.8,86.9 191.7,86.2 194.6,85.6 197.5,85.4 200.4,85.0 203.3,84.7 206.1,83.8 209.0,83.1 211.9,82.4 214.8,81.7 217.7,81.3 220.6,81.1 223.5,80.8 226.4,80.3 229.3,79.9 232.1,79.6 235.0,79.3 237.9,79.0 240.8,78.6 243.7,78.4 246.6,78.2 249.5,78.0 252.4,77.3 255.2,76.8 258.1,76.7 261.0,76.4 263.9,76.3 266.8,76.3 269.7,88.8 272.6,87.6 275.5,86.5 278.3,85.3 281.2,81.9 284.1,79.5 287.0,77.0 289.9,76.0 292.8,74.9 295.7,73.2 298.6,71.3 301.4,69.9 304.3,69.4 307.2,68.8 310.1,67.5 313.0,66.5 315.9,65.8 318.8,65.0 321.7,64.7 324.5,64.6 327.4,63.8 330.3,62.7 333.2,61.8 336.1,61.0 339.0,60.1 341.9,59.6 344.8,59.3 347.6,58.5 350.5,57.8 353.4,57.1 356.3,56.5 359.2,56.3 362.1,56.1 365.0,55.7 367.9,55.0 370.7,54.6 373.6,54.1 376.5,53.8 379.4,53.4 382.3,53.1 385.2,52.7 388.1,52.4 391.0,52.1 393.9,51.5 396.7,51.0 399.6,50.4 402.5,50.1 405.4,49.7 408.3,49.5 411.2,49.2 414.1,48.9 417.0,48.0 419.8,47.4 422.7,46.6 425.6,46.4 428.5,46.3 431.4,45.9 434.3,45.5 437.2,45.1 440.1,44.6 442.9,44.1 445.8,43.7 448.7,43.5 451.6,43.2 454.5,43.0 457.4,42.7 460.3,42.4 463.2,42.1 466.0,41.5 468.9,41.3 471.8,41.1 474.7,40.8 477.6,40.7 480.5,40.2 483.4,39.8 486.3,39.4 489.1,39.0 492.0,38.6 494.9,38.3 497.8,38.1 500.7,37.9 503.6,37.3 506.5,36.8 509.4,36.4 512.2,36.0 515.1,35.3 518.0,35.2 520.9,35.0 523.8,34.8 526.7,34.4 529.6,34.1 532.5,33.7 535.3,33.5 538.2,33.1 541.1,32.9 544.0,32.6 546.9,32.4 549.8,32.2 552.7,31.9 555.6,31.4 558.4,31.1 561.3,30.7 564.2,30.5 567.1,30.3 570.0,30.0" />
  
  <!-- Punto finale luminoso -->
  <circle cx="570.0" cy="30.0" r="4" fill="#ffffff" stroke="#0366d6" stroke-width="2.5" />
</svg>