<svg width="600" height="150" viewBox="0 0 600 150" xmlns="http://www.w3.org/2000/svg">
  <defs>
    <filter id="shadow2" x="-2%" y="-2%" width="104%" height="108%">
      <feDropShadow dx="0" dy="2" stdDeviation="3" flood-opacity="0.1" />
    </filter>
    <linearGradient id="fillGrad" x1="0" y1="0" x2="0" y2="1">
      <stop offset="0%" stop-color="#0366d6" stop-opacity="0.3"/>
      <stop offset="100%" stop-color="#0366d6" stop-opacity="0.02"/>
    </linearGradient>
  </defs>
  <rect width="600" height="150" rx="12" fill="#ffffff" filter="url(#shadow2)" stroke="#e1e4e8" stroke-width="1"/>
  <text x="20" y="24" fill="#2b3137" font-family="-apple-system,BlinkMacSystemFont,'Segoe UI',Helvetica,Arial,sans-serif" font-size="14" font-weight="600">📈 Download Growth (Actual: 73.2k)</text>
  
  <!-- Area sotto la linea -->
  <polygon fill="url(#fillGrad)" points="30.0,120.0,120 30.0,120.0 35.3,118.4 40.6,116.7 45.9,115.2 51.2,114.8 56.5,114.0 61.8,112.1 67.1,110.9 72.4,110.1 77.6,108.2 82.9,107.2 88.2,106.3 93.5,105.7 98.8,104.8 104.1,103.6 109.4,102.2 114.7,101.2 120.0,100.4 125.3,99.9 130.6,99.1 135.9,98.1 141.2,97.2 146.5,96.8 151.8,95.9 157.1,92.9 162.4,92.0 167.6,90.9 172.9,89.7 178.2,88.6 183.5,87.6 188.8,87.0 194.1,86.5 199.4,85.7 204.7,84.2 210.0,82.9 215.3,82.1 220.6,81.1 225.9,80.8 231.2,80.5 236.5,80.0 241.8,79.1 247.1,78.5 252.4,78.1 257.6,77.0 262.9,75.4 268.2,75.0 273.5,74.7 278.8,74.0 284.1,72.8 289.4,71.9 294.7,70.6 300.0,69.6 305.3,68.5 310.6,68.2 315.9,67.5 321.2,66.3 326.5,65.1 331.8,64.2 337.1,63.8 342.4,63.2 347.6,62.6 352.9,61.3 358.2,60.0 363.5,58.9 368.8,57.8 374.1,57.2 379.4,56.9 384.7,56.4 390.0,55.5 395.3,54.9 400.6,54.4 405.9,53.9 411.2,53.5 416.5,52.9 421.8,52.4 427.1,52.1 432.4,51.8 437.6,50.6 442.9,49.9 448.2,49.7 453.5,49.3 458.8,49.0 464.1,49.0 469.4,69.3 474.7,67.3 480.0,65.5 485.3,63.7 490.6,58.1 495.9,54.3 501.2,50.1 506.5,48.6 511.8,46.8 517.1,44.0 522.4,40.9 527.6,38.6 532.9,37.8 538.2,36.9 543.5,34.7 548.8,33.1 554.1,32.1 559.4,30.8 564.7,30.2 570.0,30.0 570.0,30.0,120" />
  
  <!-- Linea principale -->
  <polyline fill="none" stroke="#0366d6" stroke-width="2.5" stroke-linecap="round" stroke-linejoin="round" points="30.0,120.0 35.3,118.4 40.6,116.7 45.9,115.2 51.2,114.8 56.5,114.0 61.8,112.1 67.1,110.9 72.4,110.1 77.6,108.2 82.9,107.2 88.2,106.3 93.5,105.7 98.8,104.8 104.1,103.6 109.4,102.2 114.7,101.2 120.0,100.4 125.3,99.9 130.6,99.1 135.9,98.1 141.2,97.2 146.5,96.8 151.8,95.9 157.1,92.9 162.4,92.0 167.6,90.9 172.9,89.7 178.2,88.6 183.5,87.6 188.8,87.0 194.1,86.5 199.4,85.7 204.7,84.2 210.0,82.9 215.3,82.1 220.6,81.1 225.9,80.8 231.2,80.5 236.5,80.0 241.8,79.1 247.1,78.5 252.4,78.1 257.6,77.0 262.9,75.4 268.2,75.0 273.5,74.7 278.8,74.0 284.1,72.8 289.4,71.9 294.7,70.6 300.0,69.6 305.3,68.5 310.6,68.2 315.9,67.5 321.2,66.3 326.5,65.1 331.8,64.2 337.1,63.8 342.4,63.2 347.6,62.6 352.9,61.3 358.2,60.0 363.5,58.9 368.8,57.8 374.1,57.2 379.4,56.9 384.7,56.4 390.0,55.5 395.3,54.9 400.6,54.4 405.9,53.9 411.2,53.5 416.5,52.9 421.8,52.4 427.1,52.1 432.4,51.8 437.6,50.6 442.9,49.9 448.2,49.7 453.5,49.3 458.8,49.0 464.1,49.0 469.4,69.3 474.7,67.3 480.0,65.5 485.3,63.7 490.6,58.1 495.9,54.3 501.2,50.1 506.5,48.6 511.8,46.8 517.1,44.0 522.4,40.9 527.6,38.6 532.9,37.8 538.2,36.9 543.5,34.7 548.8,33.1 554.1,32.1 559.4,30.8 564.7,30.2 570.0,30.0" />
  
  <!-- Punto finale luminoso -->
  <circle cx="570.0" cy="30.0" r="4" fill="#ffffff" stroke="#0366d6" stroke-width="2.5" />
</svg>