<svg width="600" height="150" viewBox="0 0 600 150" xmlns="http://www.w3.org/2000/svg">
  <defs>
    <filter id="shadow2" x="-2%" y="-2%" width="104%" height="108%">
      <feDropShadow dx="0" dy="2" stdDeviation="3" flood-opacity="0.1" />
    </filter>
    <linearGradient id="fillGrad" x1="0" y1="0" x2="0" y2="1">
      <stop offset="0%" stop-color="#0366d6" stop-opacity="0.3"/>
      <stop offset="100%" stop-color="#0366d6" stop-opacity="0.02"/>
    </linearGradient>
  </defs>
  <rect width="600" height="150" rx="12" fill="#ffffff" filter="url(#shadow2)" stroke="#e1e4e8" stroke-width="1"/>
  <text x="20" y="24" fill="#2b3137" font-family="-apple-system,BlinkMacSystemFont,'Segoe UI',Helvetica,Arial,sans-serif" font-size="14" font-weight="600">📈 Download Growth (Actual: 72.0k)</text>
  
  <!-- Area sotto la linea -->
  <polygon fill="url(#fillGrad)" points="30.0,120.0,120 30.0,120.0 35.9,118.0 41.9,115.9 47.8,114.1 53.7,113.6 59.7,112.6 65.6,110.3 71.5,108.8 77.5,107.8 83.4,105.4 89.3,104.3 95.3,103.1 101.2,102.4 107.1,101.4 113.1,99.8 119.0,98.1 124.9,96.8 130.9,95.9 136.8,95.3 142.7,94.3 148.7,93.0 154.6,92.0 160.5,91.4 166.5,90.4 172.4,86.7 178.4,85.6 184.3,84.1 190.2,82.7 196.2,81.4 202.1,80.2 208.0,79.4 214.0,78.8 219.9,77.8 225.8,76.0 231.8,74.4 237.7,73.4 243.6,72.1 249.6,71.8 255.5,71.5 261.4,70.8 267.4,69.6 273.3,68.9 279.2,68.4 285.2,67.1 291.1,65.1 297.0,64.6 303.0,64.3 308.9,63.5 314.8,61.9 320.8,60.9 326.7,59.2 332.6,58.1 338.6,56.6 344.5,56.3 350.4,55.4 356.4,54.0 362.3,52.5 368.2,51.4 374.2,50.8 380.1,50.1 386.0,49.4 392.0,47.8 397.9,46.2 403.8,44.9 409.8,43.5 415.7,42.8 421.6,42.4 427.6,41.8 433.5,40.7 439.5,39.9 445.4,39.3 451.3,38.7 457.3,38.2 463.2,37.4 469.1,36.9 475.1,36.5 481.0,36.2 486.9,34.6 492.9,33.8 498.8,33.5 504.7,33.0 510.7,32.7 516.6,32.7 522.5,57.7 528.5,55.2 534.4,53.0 540.3,50.7 546.3,43.9 552.2,39.1 558.1,34.0 564.1,32.1 570.0,30.0 570.0,30.0,120" />
  
  <!-- Linea principale -->
  <polyline fill="none" stroke="#0366d6" stroke-width="2.5" stroke-linecap="round" stroke-linejoin="round" points="30.0,120.0 35.9,118.0 41.9,115.9 47.8,114.1 53.7,113.6 59.7,112.6 65.6,110.3 71.5,108.8 77.5,107.8 83.4,105.4 89.3,104.3 95.3,103.1 101.2,102.4 107.1,101.4 113.1,99.8 119.0,98.1 124.9,96.8 130.9,95.9 136.8,95.3 142.7,94.3 148.7,93.0 154.6,92.0 160.5,91.4 166.5,90.4 172.4,86.7 178.4,85.6 184.3,84.1 190.2,82.7 196.2,81.4 202.1,80.2 208.0,79.4 214.0,78.8 219.9,77.8 225.8,76.0 231.8,74.4 237.7,73.4 243.6,72.1 249.6,71.8 255.5,71.5 261.4,70.8 267.4,69.6 273.3,68.9 279.2,68.4 285.2,67.1 291.1,65.1 297.0,64.6 303.0,64.3 308.9,63.5 314.8,61.9 320.8,60.9 326.7,59.2 332.6,58.1 338.6,56.6 344.5,56.3 350.4,55.4 356.4,54.0 362.3,52.5 368.2,51.4 374.2,50.8 380.1,50.1 386.0,49.4 392.0,47.8 397.9,46.2 403.8,44.9 409.8,43.5 415.7,42.8 421.6,42.4 427.6,41.8 433.5,40.7 439.5,39.9 445.4,39.3 451.3,38.7 457.3,38.2 463.2,37.4 469.1,36.9 475.1,36.5 481.0,36.2 486.9,34.6 492.9,33.8 498.8,33.5 504.7,33.0 510.7,32.7 516.6,32.7 522.5,57.7 528.5,55.2 534.4,53.0 540.3,50.7 546.3,43.9 552.2,39.1 558.1,34.0 564.1,32.1 570.0,30.0" />
  
  <!-- Punto finale luminoso -->
  <circle cx="570.0" cy="30.0" r="4" fill="#ffffff" stroke="#0366d6" stroke-width="2.5" />
</svg>