<svg width="600" height="150" viewBox="0 0 600 150" xmlns="http://www.w3.org/2000/svg">
  <defs>
    <filter id="shadow2" x="-2%" y="-2%" width="104%" height="108%">
      <feDropShadow dx="0" dy="2" stdDeviation="3" flood-opacity="0.1" />
    </filter>
    <linearGradient id="fillGrad" x1="0" y1="0" x2="0" y2="1">
      <stop offset="0%" stop-color="#0366d6" stop-opacity="0.3"/>
      <stop offset="100%" stop-color="#0366d6" stop-opacity="0.02"/>
    </linearGradient>
  </defs>
  <rect width="600" height="150" rx="12" fill="#ffffff" filter="url(#shadow2)" stroke="#e1e4e8" stroke-width="1"/>
  <text x="20" y="24" fill="#2b3137" font-family="-apple-system,BlinkMacSystemFont,'Segoe UI',Helvetica,Arial,sans-serif" font-size="14" font-weight="600">📈 Download Growth (Actual: 72.7k)</text>
  
  <!-- Area sotto la linea -->
  <polygon fill="url(#fillGrad)" points="30.0,120.0,120 30.0,120.0 35.7,118.3 41.4,116.4 47.1,114.7 52.7,114.3 58.4,113.4 64.1,111.4 69.8,110.0 75.5,109.1 81.2,107.0 86.8,106.0 92.5,105.0 98.2,104.4 103.9,103.4 109.6,102.0 115.3,100.5 120.9,99.4 126.6,98.6 132.3,98.0 138.0,97.1 143.7,96.0 149.4,95.0 155.1,94.6 160.7,93.6 166.4,90.4 172.1,89.4 177.8,88.1 183.5,86.8 189.2,85.7 194.8,84.6 200.5,83.9 206.2,83.3 211.9,82.4 217.6,80.8 223.3,79.4 228.9,78.5 234.6,77.4 240.3,77.1 246.0,76.8 251.7,76.3 257.4,75.2 263.1,74.6 268.7,74.1 274.4,72.9 280.1,71.2 285.8,70.7 291.5,70.4 297.2,69.7 302.8,68.3 308.5,67.4 314.2,65.9 319.9,64.9 325.6,63.6 331.3,63.3 336.9,62.6 342.6,61.2 348.3,59.9 354.0,58.9 359.7,58.5 365.4,57.8 371.1,57.2 376.7,55.7 382.4,54.4 388.1,53.1 393.8,51.9 399.5,51.3 405.2,50.9 410.8,50.4 416.5,49.4 422.2,48.7 427.9,48.2 433.6,47.7 439.3,47.2 444.9,46.5 450.6,46.0 456.3,45.7 462.0,45.4 467.7,44.1 473.4,43.3 479.1,43.1 484.7,42.6 490.4,42.3 496.1,42.3 501.8,64.5 507.5,62.4 513.2,60.4 518.8,58.3 524.5,52.3 530.2,48.0 535.9,43.5 541.6,41.8 547.3,39.9 552.9,36.8 558.6,33.4 564.3,30.9 570.0,30.0 570.0,30.0,120" />
  
  <!-- Linea principale -->
  <polyline fill="none" stroke="#0366d6" stroke-width="2.5" stroke-linecap="round" stroke-linejoin="round" points="30.0,120.0 35.7,118.3 41.4,116.4 47.1,114.7 52.7,114.3 58.4,113.4 64.1,111.4 69.8,110.0 75.5,109.1 81.2,107.0 86.8,106.0 92.5,105.0 98.2,104.4 103.9,103.4 109.6,102.0 115.3,100.5 120.9,99.4 126.6,98.6 132.3,98.0 138.0,97.1 143.7,96.0 149.4,95.0 155.1,94.6 160.7,93.6 166.4,90.4 172.1,89.4 177.8,88.1 183.5,86.8 189.2,85.7 194.8,84.6 200.5,83.9 206.2,83.3 211.9,82.4 217.6,80.8 223.3,79.4 228.9,78.5 234.6,77.4 240.3,77.1 246.0,76.8 251.7,76.3 257.4,75.2 263.1,74.6 268.7,74.1 274.4,72.9 280.1,71.2 285.8,70.7 291.5,70.4 297.2,69.7 302.8,68.3 308.5,67.4 314.2,65.9 319.9,64.9 325.6,63.6 331.3,63.3 336.9,62.6 342.6,61.2 348.3,59.9 354.0,58.9 359.7,58.5 365.4,57.8 371.1,57.2 376.7,55.7 382.4,54.4 388.1,53.1 393.8,51.9 399.5,51.3 405.2,50.9 410.8,50.4 416.5,49.4 422.2,48.7 427.9,48.2 433.6,47.7 439.3,47.2 444.9,46.5 450.6,46.0 456.3,45.7 462.0,45.4 467.7,44.1 473.4,43.3 479.1,43.1 484.7,42.6 490.4,42.3 496.1,42.3 501.8,64.5 507.5,62.4 513.2,60.4 518.8,58.3 524.5,52.3 530.2,48.0 535.9,43.5 541.6,41.8 547.3,39.9 552.9,36.8 558.6,33.4 564.3,30.9 570.0,30.0" />
  
  <!-- Punto finale luminoso -->
  <circle cx="570.0" cy="30.0" r="4" fill="#ffffff" stroke="#0366d6" stroke-width="2.5" />
</svg>