<svg width="600" height="150" viewBox="0 0 600 150" xmlns="http://www.w3.org/2000/svg">
  <defs>
    <filter id="shadow2" x="-2%" y="-2%" width="104%" height="108%">
      <feDropShadow dx="0" dy="2" stdDeviation="3" flood-opacity="0.1" />
    </filter>
    <linearGradient id="fillGrad" x1="0" y1="0" x2="0" y2="1">
      <stop offset="0%" stop-color="#0366d6" stop-opacity="0.3"/>
      <stop offset="100%" stop-color="#0366d6" stop-opacity="0.02"/>
    </linearGradient>
  </defs>
  <rect width="600" height="150" rx="12" fill="#ffffff" filter="url(#shadow2)" stroke="#e1e4e8" stroke-width="1"/>
  <text x="20" y="24" fill="#2b3137" font-family="-apple-system,BlinkMacSystemFont,'Segoe UI',Helvetica,Arial,sans-serif" font-size="14" font-weight="600">📈 Download Growth (Actual: 80.1k)</text>
  
  <!-- Area sotto la linea -->
  <polygon fill="url(#fillGrad)" points="30.0,120.0,120 30.0,120.0 32.0,119.2 34.1,118.4 36.1,117.7 38.2,117.5 40.2,117.1 42.2,116.2 44.3,115.6 46.3,115.2 48.3,114.3 50.4,113.9 52.4,113.4 54.5,113.1 56.5,112.7 58.5,112.1 60.6,111.5 62.6,111.0 64.6,110.6 66.7,110.4 68.7,110.0 70.8,109.5 72.8,109.1 74.8,108.9 76.9,108.5 78.9,107.0 80.9,106.6 83.0,106.0 85.0,105.5 87.1,105.0 89.1,104.5 91.1,104.2 93.2,103.9 95.2,103.5 97.2,102.8 99.3,102.2 101.3,101.8 103.4,101.3 105.4,101.2 107.4,101.1 109.5,100.8 111.5,100.4 113.5,100.1 115.6,99.9 117.6,99.4 119.7,98.6 121.7,98.4 123.7,98.3 125.8,98.0 127.8,97.4 129.8,96.9 131.9,96.3 133.9,95.9 136.0,95.3 138.0,95.2 140.0,94.8 142.1,94.3 144.1,93.7 146.2,93.2 148.2,93.0 150.2,92.7 152.3,92.5 154.3,91.8 156.3,91.2 158.4,90.7 160.4,90.2 162.5,89.9 164.5,89.7 166.5,89.5 168.6,89.1 170.6,88.8 172.6,88.5 174.7,88.3 176.7,88.1 178.8,87.8 180.8,87.6 182.8,87.5 184.9,87.3 186.9,86.7 188.9,86.4 191.0,86.3 193.0,86.1 195.1,86.0 197.1,86.0 199.1,95.7 201.2,94.7 203.2,93.9 205.2,93.0 207.3,90.3 209.3,88.5 211.4,86.5 213.4,85.8 215.4,84.9 217.5,83.6 219.5,82.1 221.5,81.0 223.6,80.6 225.6,80.2 227.7,79.1 229.7,78.3 231.7,77.8 233.8,77.2 235.8,77.0 237.8,76.8 239.9,76.3 241.9,75.4 244.0,74.7 246.0,74.1 248.0,73.3 250.1,73.0 252.1,72.7 254.2,72.1 256.2,71.5 258.2,71.0 260.3,70.6 262.3,70.4 264.3,70.2 266.4,69.9 268.4,69.4 270.5,69.1 272.5,68.7 274.5,68.4 276.6,68.2 278.6,67.9 280.6,67.6 282.7,67.4 284.7,67.2 286.8,66.7 288.8,66.3 290.8,65.8 292.9,65.6 294.9,65.3 296.9,65.1 299.0,64.9 301.0,64.6 303.1,63.9 305.1,63.5 307.1,62.9 309.2,62.7 311.2,62.6 313.2,62.3 315.3,62.0 317.3,61.7 319.4,61.3 321.4,60.9 323.4,60.6 325.5,60.5 327.5,60.2 329.5,60.0 331.6,59.8 333.6,59.6 335.7,59.3 337.7,58.9 339.7,58.7 341.8,58.6 343.8,58.4 345.8,58.2 347.9,57.9 349.9,57.6 352.0,57.2 354.0,56.9 356.0,56.6 358.1,56.4 360.1,56.3 362.2,56.1 364.2,55.6 366.2,55.2 368.3,54.9 370.3,54.6 372.3,54.1 374.4,54.0 376.4,53.8 378.5,53.6 380.5,53.4 382.5,53.1 384.6,52.8 386.6,52.6 388.6,52.4 390.7,52.2 392.7,51.9 394.8,51.8 396.8,51.6 398.8,51.4 400.9,51.0 402.9,50.8 404.9,50.5 407.0,50.4 409.0,50.2 411.1,49.9 413.1,49.8 415.1,49.6 417.2,49.4 419.2,48.9 421.2,48.5 423.3,48.2 425.3,48.0 427.4,47.9 429.4,47.8 431.4,47.5 433.5,47.1 435.5,46.9 437.5,46.7 439.6,46.5 441.6,46.2 443.7,46.0 445.7,45.8 447.7,45.6 449.8,45.3 451.8,45.0 453.8,44.7 455.9,44.4 457.9,44.3 460.0,44.2 462.0,44.1 464.0,43.9 466.1,43.7 468.1,43.4 470.2,43.2 472.2,42.9 474.2,42.7 476.3,42.6 478.3,42.4 480.3,42.2 482.4,41.9 484.4,41.5 486.5,41.3 488.5,41.1 490.5,40.9 492.6,40.7 494.6,40.6 496.6,40.5 498.7,40.3 500.7,40.1 502.8,39.8 504.8,39.6 506.8,39.3 508.9,39.2 510.9,39.0 512.9,38.8 515.0,38.5 517.0,38.4 519.1,38.2 521.1,38.0 523.1,37.7 525.2,37.5 527.2,37.3 529.2,37.2 531.3,37.0 533.3,36.8 535.4,36.7 537.4,36.5 539.4,36.3 541.5,36.2 543.5,36.0 545.5,35.6 547.6,35.3 549.6,41.6 551.7,40.4 553.7,38.0 555.7,37.1 557.8,36.0 559.8,34.6 561.8,33.8 563.9,33.3 565.9,32.4 568.0,31.0 570.0,30.0 570.0,30.0,120" />
  
  <!-- Linea principale -->
  <polyline fill="none" stroke="#0366d6" stroke-width="2.5" stroke-linecap="round" stroke-linejoin="round" points="30.0,120.0 32.0,119.2 34.1,118.4 36.1,117.7 38.2,117.5 40.2,117.1 42.2,116.2 44.3,115.6 46.3,115.2 48.3,114.3 50.4,113.9 52.4,113.4 54.5,113.1 56.5,112.7 58.5,112.1 60.6,111.5 62.6,111.0 64.6,110.6 66.7,110.4 68.7,110.0 70.8,109.5 72.8,109.1 74.8,108.9 76.9,108.5 78.9,107.0 80.9,106.6 83.0,106.0 85.0,105.5 87.1,105.0 89.1,104.5 91.1,104.2 93.2,103.9 95.2,103.5 97.2,102.8 99.3,102.2 101.3,101.8 103.4,101.3 105.4,101.2 107.4,101.1 109.5,100.8 111.5,100.4 113.5,100.1 115.6,99.9 117.6,99.4 119.7,98.6 121.7,98.4 123.7,98.3 125.8,98.0 127.8,97.4 129.8,96.9 131.9,96.3 133.9,95.9 136.0,95.3 138.0,95.2 140.0,94.8 142.1,94.3 144.1,93.7 146.2,93.2 148.2,93.0 150.2,92.7 152.3,92.5 154.3,91.8 156.3,91.2 158.4,90.7 160.4,90.2 162.5,89.9 164.5,89.7 166.5,89.5 168.6,89.1 170.6,88.8 172.6,88.5 174.7,88.3 176.7,88.1 178.8,87.8 180.8,87.6 182.8,87.5 184.9,87.3 186.9,86.7 188.9,86.4 191.0,86.3 193.0,86.1 195.1,86.0 197.1,86.0 199.1,95.7 201.2,94.7 203.2,93.9 205.2,93.0 207.3,90.3 209.3,88.5 211.4,86.5 213.4,85.8 215.4,84.9 217.5,83.6 219.5,82.1 221.5,81.0 223.6,80.6 225.6,80.2 227.7,79.1 229.7,78.3 231.7,77.8 233.8,77.2 235.8,77.0 237.8,76.8 239.9,76.3 241.9,75.4 244.0,74.7 246.0,74.1 248.0,73.3 250.1,73.0 252.1,72.7 254.2,72.1 256.2,71.5 258.2,71.0 260.3,70.6 262.3,70.4 264.3,70.2 266.4,69.9 268.4,69.4 270.5,69.1 272.5,68.7 274.5,68.4 276.6,68.2 278.6,67.9 280.6,67.6 282.7,67.4 284.7,67.2 286.8,66.7 288.8,66.3 290.8,65.8 292.9,65.6 294.9,65.3 296.9,65.1 299.0,64.9 301.0,64.6 303.1,63.9 305.1,63.5 307.1,62.9 309.2,62.7 311.2,62.6 313.2,62.3 315.3,62.0 317.3,61.7 319.4,61.3 321.4,60.9 323.4,60.6 325.5,60.5 327.5,60.2 329.5,60.0 331.6,59.8 333.6,59.6 335.7,59.3 337.7,58.9 339.7,58.7 341.8,58.6 343.8,58.4 345.8,58.2 347.9,57.9 349.9,57.6 352.0,57.2 354.0,56.9 356.0,56.6 358.1,56.4 360.1,56.3 362.2,56.1 364.2,55.6 366.2,55.2 368.3,54.9 370.3,54.6 372.3,54.1 374.4,54.0 376.4,53.8 378.5,53.6 380.5,53.4 382.5,53.1 384.6,52.8 386.6,52.6 388.6,52.4 390.7,52.2 392.7,51.9 394.8,51.8 396.8,51.6 398.8,51.4 400.9,51.0 402.9,50.8 404.9,50.5 407.0,50.4 409.0,50.2 411.1,49.9 413.1,49.8 415.1,49.6 417.2,49.4 419.2,48.9 421.2,48.5 423.3,48.2 425.3,48.0 427.4,47.9 429.4,47.8 431.4,47.5 433.5,47.1 435.5,46.9 437.5,46.7 439.6,46.5 441.6,46.2 443.7,46.0 445.7,45.8 447.7,45.6 449.8,45.3 451.8,45.0 453.8,44.7 455.9,44.4 457.9,44.3 460.0,44.2 462.0,44.1 464.0,43.9 466.1,43.7 468.1,43.4 470.2,43.2 472.2,42.9 474.2,42.7 476.3,42.6 478.3,42.4 480.3,42.2 482.4,41.9 484.4,41.5 486.5,41.3 488.5,41.1 490.5,40.9 492.6,40.7 494.6,40.6 496.6,40.5 498.7,40.3 500.7,40.1 502.8,39.8 504.8,39.6 506.8,39.3 508.9,39.2 510.9,39.0 512.9,38.8 515.0,38.5 517.0,38.4 519.1,38.2 521.1,38.0 523.1,37.7 525.2,37.5 527.2,37.3 529.2,37.2 531.3,37.0 533.3,36.8 535.4,36.7 537.4,36.5 539.4,36.3 541.5,36.2 543.5,36.0 545.5,35.6 547.6,35.3 549.6,41.6 551.7,40.4 553.7,38.0 555.7,37.1 557.8,36.0 559.8,34.6 561.8,33.8 563.9,33.3 565.9,32.4 568.0,31.0 570.0,30.0" />
  
  <!-- Punto finale luminoso -->
  <circle cx="570.0" cy="30.0" r="4" fill="#ffffff" stroke="#0366d6" stroke-width="2.5" />
</svg>