<svg width="600" height="150" viewBox="0 0 600 150" xmlns="http://www.w3.org/2000/svg">
  <defs>
    <filter id="shadow2" x="-2%" y="-2%" width="104%" height="108%">
      <feDropShadow dx="0" dy="2" stdDeviation="3" flood-opacity="0.1" />
    </filter>
    <linearGradient id="fillGrad" x1="0" y1="0" x2="0" y2="1">
      <stop offset="0%" stop-color="#0366d6" stop-opacity="0.3"/>
      <stop offset="100%" stop-color="#0366d6" stop-opacity="0.02"/>
    </linearGradient>
  </defs>
  <rect width="600" height="150" rx="12" fill="#ffffff" filter="url(#shadow2)" stroke="#e1e4e8" stroke-width="1"/>
  <text x="20" y="24" fill="#2b3137" font-family="-apple-system,BlinkMacSystemFont,'Segoe UI',Helvetica,Arial,sans-serif" font-size="14" font-weight="600">📈 Download Growth (Actual: 84.0k)</text>
  
  <!-- Area sotto la linea -->
  <polygon fill="url(#fillGrad)" points="30.0,120.0,120 30.0,120.0 31.7,119.4 33.3,118.8 35.0,118.2 36.7,118.1 38.3,117.8 40.0,117.1 41.7,116.6 43.3,116.3 45.0,115.6 46.7,115.3 48.3,114.9 50.0,114.7 51.7,114.4 53.3,113.9 55.0,113.4 56.7,113.0 58.3,112.8 60.0,112.6 61.7,112.3 63.3,111.9 65.0,111.6 66.7,111.4 68.3,111.1 70.0,110.0 71.7,109.6 73.3,109.2 75.0,108.8 76.7,108.4 78.3,108.0 80.0,107.8 81.7,107.6 83.3,107.3 85.0,106.7 86.7,106.3 88.3,106.0 90.0,105.6 91.7,105.5 93.3,105.4 95.0,105.2 96.7,104.8 98.3,104.6 100.0,104.5 101.7,104.1 103.3,103.5 105.0,103.3 106.7,103.2 108.3,103.0 110.0,102.5 111.7,102.2 113.3,101.7 115.0,101.4 116.7,100.9 118.3,100.8 120.0,100.6 121.7,100.1 123.3,99.7 125.0,99.3 126.7,99.2 128.3,99.0 130.0,98.8 131.7,98.3 133.3,97.8 135.0,97.4 136.7,97.0 138.3,96.8 140.0,96.6 141.7,96.5 143.3,96.1 145.0,95.9 146.7,95.7 148.3,95.5 150.0,95.4 151.7,95.1 153.3,95.0 155.0,94.9 156.7,94.8 158.3,94.3 160.0,94.1 161.7,94.0 163.3,93.8 165.0,93.7 166.7,93.7 168.3,101.2 170.0,100.5 171.7,99.8 173.3,99.1 175.0,97.1 176.7,95.7 178.3,94.1 180.0,93.6 181.7,92.9 183.3,91.9 185.0,90.7 186.7,89.9 188.3,89.6 190.0,89.3 191.7,88.4 193.3,87.8 195.0,87.5 196.7,87.0 198.3,86.8 200.0,86.7 201.7,86.2 203.3,85.5 205.0,85.0 206.7,84.5 208.3,84.0 210.0,83.7 211.7,83.5 213.3,83.0 215.0,82.6 216.7,82.2 218.3,81.8 220.0,81.7 221.7,81.6 223.3,81.3 225.0,81.0 226.7,80.7 228.3,80.4 230.0,80.2 231.7,80.0 233.3,79.8 235.0,79.6 236.7,79.4 238.3,79.2 240.0,78.8 241.7,78.5 243.3,78.2 245.0,78.0 246.7,77.8 248.3,77.6 250.0,77.5 251.7,77.3 253.3,76.7 255.0,76.4 256.7,75.9 258.3,75.7 260.0,75.7 261.7,75.5 263.3,75.2 265.0,75.0 266.7,74.7 268.3,74.4 270.0,74.1 271.7,74.0 273.3,73.9 275.0,73.7 276.7,73.6 278.3,73.3 280.0,73.2 281.7,72.8 283.3,72.7 285.0,72.6 286.7,72.4 288.3,72.3 290.0,72.0 291.7,71.8 293.3,71.5 295.0,71.3 296.7,71.1 298.3,70.9 300.0,70.8 301.7,70.6 303.3,70.3 305.0,70.0 306.7,69.8 308.3,69.5 310.0,69.1 311.7,69.0 313.3,68.9 315.0,68.8 316.7,68.6 318.3,68.4 320.0,68.2 321.7,68.0 323.3,67.8 325.0,67.6 326.7,67.5 328.3,67.3 330.0,67.2 331.7,67.0 333.3,66.7 335.0,66.6 336.7,66.4 338.3,66.2 340.0,66.1 341.7,65.9 343.3,65.8 345.0,65.6 346.7,65.5 348.3,65.1 350.0,64.8 351.7,64.6 353.3,64.4 355.0,64.3 356.7,64.2 358.3,64.0 360.0,63.7 361.7,63.6 363.3,63.5 365.0,63.2 366.7,63.1 368.3,62.8 370.0,62.7 371.7,62.6 373.3,62.3 375.0,62.1 376.7,61.9 378.3,61.6 380.0,61.5 381.7,61.5 383.3,61.4 385.0,61.2 386.7,61.1 388.3,60.9 390.0,60.7 391.7,60.5 393.3,60.4 395.0,60.2 396.7,60.1 398.3,59.9 400.0,59.7 401.7,59.4 403.3,59.2 405.0,59.1 406.7,58.9 408.3,58.8 410.0,58.7 411.7,58.6 413.3,58.5 415.0,58.3 416.7,58.1 418.3,57.9 420.0,57.7 421.7,57.6 423.3,57.5 425.0,57.3 426.7,57.1 428.3,57.0 430.0,56.8 431.7,56.7 433.3,56.5 435.0,56.3 436.7,56.1 438.3,56.0 440.0,55.9 441.7,55.8 443.3,55.7 445.0,55.5 446.7,55.4 448.3,55.3 450.0,55.2 451.7,54.8 453.3,54.6 455.0,59.5 456.7,58.5 458.3,56.7 460.0,56.0 461.7,55.1 463.3,54.1 465.0,53.5 466.7,53.1 468.3,52.4 470.0,51.3 471.7,50.5 473.3,50.3 475.0,49.9 476.7,49.6 478.3,49.0 480.0,48.5 481.7,47.9 483.3,47.6 485.0,47.1 486.7,46.8 488.3,46.4 490.0,46.2 491.7,45.9 493.3,45.6 495.0,45.1 496.7,44.7 498.3,44.2 500.0,43.6 501.7,43.2 503.3,42.9 505.0,42.8 506.7,42.5 508.3,42.1 510.0,41.7 511.7,41.3 513.3,40.3 515.0,39.5 516.7,39.2 518.3,39.0 520.0,38.7 521.7,38.1 523.3,37.7 525.0,37.4 526.7,37.0 528.3,36.7 530.0,36.3 531.7,36.0 533.3,35.5 535.0,35.3 536.7,35.1 538.3,34.9 540.0,34.4 541.7,34.1 543.3,33.9 545.0,33.7 546.7,33.5 548.3,33.2 550.0,33.0 551.7,32.8 553.3,32.6 555.0,32.4 556.7,32.2 558.3,31.9 560.0,31.7 561.7,31.3 563.3,30.9 565.0,30.6 566.7,30.4 568.3,30.2 570.0,30.0 570.0,30.0,120" />
  
  <!-- Linea principale -->
  <polyline fill="none" stroke="#0366d6" stroke-width="2.5" stroke-linecap="round" stroke-linejoin="round" points="30.0,120.0 31.7,119.4 33.3,118.8 35.0,118.2 36.7,118.1 38.3,117.8 40.0,117.1 41.7,116.6 43.3,116.3 45.0,115.6 46.7,115.3 48.3,114.9 50.0,114.7 51.7,114.4 53.3,113.9 55.0,113.4 56.7,113.0 58.3,112.8 60.0,112.6 61.7,112.3 63.3,111.9 65.0,111.6 66.7,111.4 68.3,111.1 70.0,110.0 71.7,109.6 73.3,109.2 75.0,108.8 76.7,108.4 78.3,108.0 80.0,107.8 81.7,107.6 83.3,107.3 85.0,106.7 86.7,106.3 88.3,106.0 90.0,105.6 91.7,105.5 93.3,105.4 95.0,105.2 96.7,104.8 98.3,104.6 100.0,104.5 101.7,104.1 103.3,103.5 105.0,103.3 106.7,103.2 108.3,103.0 110.0,102.5 111.7,102.2 113.3,101.7 115.0,101.4 116.7,100.9 118.3,100.8 120.0,100.6 121.7,100.1 123.3,99.7 125.0,99.3 126.7,99.2 128.3,99.0 130.0,98.8 131.7,98.3 133.3,97.8 135.0,97.4 136.7,97.0 138.3,96.8 140.0,96.6 141.7,96.5 143.3,96.1 145.0,95.9 146.7,95.7 148.3,95.5 150.0,95.4 151.7,95.1 153.3,95.0 155.0,94.9 156.7,94.8 158.3,94.3 160.0,94.1 161.7,94.0 163.3,93.8 165.0,93.7 166.7,93.7 168.3,101.2 170.0,100.5 171.7,99.8 173.3,99.1 175.0,97.1 176.7,95.7 178.3,94.1 180.0,93.6 181.7,92.9 183.3,91.9 185.0,90.7 186.7,89.9 188.3,89.6 190.0,89.3 191.7,88.4 193.3,87.8 195.0,87.5 196.7,87.0 198.3,86.8 200.0,86.7 201.7,86.2 203.3,85.5 205.0,85.0 206.7,84.5 208.3,84.0 210.0,83.7 211.7,83.5 213.3,83.0 215.0,82.6 216.7,82.2 218.3,81.8 220.0,81.7 221.7,81.6 223.3,81.3 225.0,81.0 226.7,80.7 228.3,80.4 230.0,80.2 231.7,80.0 233.3,79.8 235.0,79.6 236.7,79.4 238.3,79.2 240.0,78.8 241.7,78.5 243.3,78.2 245.0,78.0 246.7,77.8 248.3,77.6 250.0,77.5 251.7,77.3 253.3,76.7 255.0,76.4 256.7,75.9 258.3,75.7 260.0,75.7 261.7,75.5 263.3,75.2 265.0,75.0 266.7,74.7 268.3,74.4 270.0,74.1 271.7,74.0 273.3,73.9 275.0,73.7 276.7,73.6 278.3,73.3 280.0,73.2 281.7,72.8 283.3,72.7 285.0,72.6 286.7,72.4 288.3,72.3 290.0,72.0 291.7,71.8 293.3,71.5 295.0,71.3 296.7,71.1 298.3,70.9 300.0,70.8 301.7,70.6 303.3,70.3 305.0,70.0 306.7,69.8 308.3,69.5 310.0,69.1 311.7,69.0 313.3,68.9 315.0,68.8 316.7,68.6 318.3,68.4 320.0,68.2 321.7,68.0 323.3,67.8 325.0,67.6 326.7,67.5 328.3,67.3 330.0,67.2 331.7,67.0 333.3,66.7 335.0,66.6 336.7,66.4 338.3,66.2 340.0,66.1 341.7,65.9 343.3,65.8 345.0,65.6 346.7,65.5 348.3,65.1 350.0,64.8 351.7,64.6 353.3,64.4 355.0,64.3 356.7,64.2 358.3,64.0 360.0,63.7 361.7,63.6 363.3,63.5 365.0,63.2 366.7,63.1 368.3,62.8 370.0,62.7 371.7,62.6 373.3,62.3 375.0,62.1 376.7,61.9 378.3,61.6 380.0,61.5 381.7,61.5 383.3,61.4 385.0,61.2 386.7,61.1 388.3,60.9 390.0,60.7 391.7,60.5 393.3,60.4 395.0,60.2 396.7,60.1 398.3,59.9 400.0,59.7 401.7,59.4 403.3,59.2 405.0,59.1 406.7,58.9 408.3,58.8 410.0,58.7 411.7,58.6 413.3,58.5 415.0,58.3 416.7,58.1 418.3,57.9 420.0,57.7 421.7,57.6 423.3,57.5 425.0,57.3 426.7,57.1 428.3,57.0 430.0,56.8 431.7,56.7 433.3,56.5 435.0,56.3 436.7,56.1 438.3,56.0 440.0,55.9 441.7,55.8 443.3,55.7 445.0,55.5 446.7,55.4 448.3,55.3 450.0,55.2 451.7,54.8 453.3,54.6 455.0,59.5 456.7,58.5 458.3,56.7 460.0,56.0 461.7,55.1 463.3,54.1 465.0,53.5 466.7,53.1 468.3,52.4 470.0,51.3 471.7,50.5 473.3,50.3 475.0,49.9 476.7,49.6 478.3,49.0 480.0,48.5 481.7,47.9 483.3,47.6 485.0,47.1 486.7,46.8 488.3,46.4 490.0,46.2 491.7,45.9 493.3,45.6 495.0,45.1 496.7,44.7 498.3,44.2 500.0,43.6 501.7,43.2 503.3,42.9 505.0,42.8 506.7,42.5 508.3,42.1 510.0,41.7 511.7,41.3 513.3,40.3 515.0,39.5 516.7,39.2 518.3,39.0 520.0,38.7 521.7,38.1 523.3,37.7 525.0,37.4 526.7,37.0 528.3,36.7 530.0,36.3 531.7,36.0 533.3,35.5 535.0,35.3 536.7,35.1 538.3,34.9 540.0,34.4 541.7,34.1 543.3,33.9 545.0,33.7 546.7,33.5 548.3,33.2 550.0,33.0 551.7,32.8 553.3,32.6 555.0,32.4 556.7,32.2 558.3,31.9 560.0,31.7 561.7,31.3 563.3,30.9 565.0,30.6 566.7,30.4 568.3,30.2 570.0,30.0" />
  
  <!-- Punto finale luminoso -->
  <circle cx="570.0" cy="30.0" r="4" fill="#ffffff" stroke="#0366d6" stroke-width="2.5" />
</svg>