<svg width="600" height="150" viewBox="0 0 600 150" xmlns="http://www.w3.org/2000/svg">
  <defs>
    <filter id="shadow2" x="-2%" y="-2%" width="104%" height="108%">
      <feDropShadow dx="0" dy="2" stdDeviation="3" flood-opacity="0.1" />
    </filter>
    <linearGradient id="fillGrad" x1="0" y1="0" x2="0" y2="1">
      <stop offset="0%" stop-color="#0366d6" stop-opacity="0.3"/>
      <stop offset="100%" stop-color="#0366d6" stop-opacity="0.02"/>
    </linearGradient>
  </defs>
  <rect width="600" height="150" rx="12" fill="#ffffff" filter="url(#shadow2)" stroke="#e1e4e8" stroke-width="1"/>
  <text x="20" y="24" fill="#2b3137" font-family="-apple-system,BlinkMacSystemFont,'Segoe UI',Helvetica,Arial,sans-serif" font-size="14" font-weight="600">📈 Download Growth (Actual: 74.7k)</text>
  
  <!-- Area sotto la linea -->
  <polygon fill="url(#fillGrad)" points="30.0,120.0,120 30.0,120.0 34.3,118.7 38.6,117.3 42.9,116.1 47.1,115.8 51.4,115.1 55.7,113.6 60.0,112.6 64.3,112.0 68.6,110.4 72.9,109.7 77.1,108.9 81.4,108.4 85.7,107.7 90.0,106.7 94.3,105.6 98.6,104.8 102.9,104.2 107.1,103.8 111.4,103.1 115.7,102.3 120.0,101.6 124.3,101.2 128.6,100.5 132.9,98.1 137.1,97.4 141.4,96.4 145.7,95.5 150.0,94.6 154.3,93.8 158.6,93.3 162.9,92.9 167.1,92.2 171.4,91.0 175.7,90.0 180.0,89.3 184.3,88.5 188.6,88.3 192.9,88.1 197.1,87.7 201.4,86.9 205.7,86.4 210.0,86.1 214.3,85.2 218.6,83.9 222.9,83.6 227.1,83.3 231.4,82.8 235.7,81.8 240.0,81.1 244.3,80.0 248.6,79.3 252.9,78.3 257.1,78.1 261.4,77.5 265.7,76.6 270.0,75.6 274.3,74.9 278.6,74.5 282.9,74.0 287.1,73.6 291.4,72.5 295.7,71.5 300.0,70.6 304.3,69.7 308.6,69.2 312.9,68.9 317.1,68.6 321.4,67.8 325.7,67.3 330.0,66.9 334.3,66.5 338.6,66.2 342.9,65.7 347.1,65.3 351.4,65.1 355.7,64.9 360.0,63.9 364.3,63.3 368.6,63.1 372.9,62.8 377.1,62.6 381.4,62.6 385.7,79.0 390.0,77.4 394.3,75.9 398.6,74.4 402.9,69.9 407.1,66.8 411.4,63.5 415.7,62.2 420.0,60.8 424.3,58.5 428.6,56.0 432.9,54.2 437.1,53.5 441.4,52.8 445.7,51.0 450.0,49.7 454.3,48.9 458.6,47.8 462.9,47.4 467.1,47.2 471.4,46.2 475.7,44.7 480.0,43.6 484.3,42.5 488.6,41.3 492.9,40.7 497.1,40.3 501.4,39.2 505.7,38.2 510.0,37.3 514.3,36.6 518.6,36.3 522.9,36.0 527.1,35.5 531.4,34.7 535.7,34.1 540.0,33.5 544.3,33.0 548.6,32.5 552.9,32.1 557.1,31.6 561.4,31.3 565.7,30.9 570.0,30.0 570.0,30.0,120" />
  
  <!-- Linea principale -->
  <polyline fill="none" stroke="#0366d6" stroke-width="2.5" stroke-linecap="round" stroke-linejoin="round" points="30.0,120.0 34.3,118.7 38.6,117.3 42.9,116.1 47.1,115.8 51.4,115.1 55.7,113.6 60.0,112.6 64.3,112.0 68.6,110.4 72.9,109.7 77.1,108.9 81.4,108.4 85.7,107.7 90.0,106.7 94.3,105.6 98.6,104.8 102.9,104.2 107.1,103.8 111.4,103.1 115.7,102.3 120.0,101.6 124.3,101.2 128.6,100.5 132.9,98.1 137.1,97.4 141.4,96.4 145.7,95.5 150.0,94.6 154.3,93.8 158.6,93.3 162.9,92.9 167.1,92.2 171.4,91.0 175.7,90.0 180.0,89.3 184.3,88.5 188.6,88.3 192.9,88.1 197.1,87.7 201.4,86.9 205.7,86.4 210.0,86.1 214.3,85.2 218.6,83.9 222.9,83.6 227.1,83.3 231.4,82.8 235.7,81.8 240.0,81.1 244.3,80.0 248.6,79.3 252.9,78.3 257.1,78.1 261.4,77.5 265.7,76.6 270.0,75.6 274.3,74.9 278.6,74.5 282.9,74.0 287.1,73.6 291.4,72.5 295.7,71.5 300.0,70.6 304.3,69.7 308.6,69.2 312.9,68.9 317.1,68.6 321.4,67.8 325.7,67.3 330.0,66.9 334.3,66.5 338.6,66.2 342.9,65.7 347.1,65.3 351.4,65.1 355.7,64.9 360.0,63.9 364.3,63.3 368.6,63.1 372.9,62.8 377.1,62.6 381.4,62.6 385.7,79.0 390.0,77.4 394.3,75.9 398.6,74.4 402.9,69.9 407.1,66.8 411.4,63.5 415.7,62.2 420.0,60.8 424.3,58.5 428.6,56.0 432.9,54.2 437.1,53.5 441.4,52.8 445.7,51.0 450.0,49.7 454.3,48.9 458.6,47.8 462.9,47.4 467.1,47.2 471.4,46.2 475.7,44.7 480.0,43.6 484.3,42.5 488.6,41.3 492.9,40.7 497.1,40.3 501.4,39.2 505.7,38.2 510.0,37.3 514.3,36.6 518.6,36.3 522.9,36.0 527.1,35.5 531.4,34.7 535.7,34.1 540.0,33.5 544.3,33.0 548.6,32.5 552.9,32.1 557.1,31.6 561.4,31.3 565.7,30.9 570.0,30.0" />
  
  <!-- Punto finale luminoso -->
  <circle cx="570.0" cy="30.0" r="4" fill="#ffffff" stroke="#0366d6" stroke-width="2.5" />
</svg>