<svg width="600" height="150" viewBox="0 0 600 150" xmlns="http://www.w3.org/2000/svg">
  <defs>
    <filter id="shadow2" x="-2%" y="-2%" width="104%" height="108%">
      <feDropShadow dx="0" dy="2" stdDeviation="3" flood-opacity="0.1" />
    </filter>
    <linearGradient id="fillGrad" x1="0" y1="0" x2="0" y2="1">
      <stop offset="0%" stop-color="#0366d6" stop-opacity="0.3"/>
      <stop offset="100%" stop-color="#0366d6" stop-opacity="0.02"/>
    </linearGradient>
  </defs>
  <rect width="600" height="150" rx="12" fill="#ffffff" filter="url(#shadow2)" stroke="#e1e4e8" stroke-width="1"/>
  <text x="20" y="24" fill="#2b3137" font-family="-apple-system,BlinkMacSystemFont,'Segoe UI',Helvetica,Arial,sans-serif" font-size="14" font-weight="600">📈 Download Growth (Actual: 75.3k)</text>
  
  <!-- Area sotto la linea -->
  <polygon fill="url(#fillGrad)" points="30.0,120.0,120 30.0,120.0 33.9,118.8 37.8,117.5 41.7,116.4 45.7,116.1 49.6,115.5 53.5,114.1 57.4,113.2 61.3,112.5 65.2,111.1 69.1,110.4 73.0,109.7 77.0,109.3 80.9,108.6 84.8,107.6 88.7,106.6 92.6,105.8 96.5,105.3 100.4,104.9 104.3,104.3 108.3,103.5 112.2,102.9 116.1,102.5 120.0,101.9 123.9,99.6 127.8,99.0 131.7,98.1 135.7,97.2 139.6,96.4 143.5,95.7 147.4,95.2 151.3,94.8 155.2,94.2 159.1,93.1 163.0,92.1 167.0,91.5 170.9,90.7 174.8,90.5 178.7,90.3 182.6,89.9 186.5,89.2 190.4,88.8 194.3,88.5 198.3,87.7 202.2,86.4 206.1,86.2 210.0,85.9 213.9,85.5 217.8,84.5 221.7,83.8 225.7,82.9 229.6,82.1 233.5,81.3 237.4,81.1 241.3,80.5 245.2,79.6 249.1,78.7 253.0,78.0 257.0,77.7 260.9,77.3 264.8,76.9 268.7,75.8 272.6,74.9 276.5,74.1 280.4,73.2 284.3,72.8 288.3,72.5 292.2,72.2 296.1,71.5 300.0,71.0 303.9,70.6 307.8,70.3 311.7,70.0 315.7,69.5 319.6,69.2 323.5,69.0 327.4,68.7 331.3,67.8 335.2,67.3 339.1,67.1 343.0,66.8 347.0,66.6 350.9,66.6 354.8,81.9 358.7,80.4 362.6,79.1 366.5,77.6 370.4,73.5 374.3,70.6 378.3,67.5 382.2,66.3 386.1,65.0 390.0,62.9 393.9,60.5 397.8,58.8 401.7,58.2 405.7,57.6 409.6,55.9 413.5,54.7 417.4,53.9 421.3,52.9 425.2,52.5 429.1,52.3 433.0,51.4 437.0,50.0 440.9,49.0 444.8,48.0 448.7,46.8 452.6,46.3 456.5,45.9 460.4,44.9 464.3,44.0 468.3,43.2 472.2,42.5 476.1,42.2 480.0,42.0 483.9,41.4 487.8,40.7 491.7,40.1 495.7,39.6 499.6,39.2 503.5,38.7 507.4,38.3 511.3,37.9 515.2,37.5 519.1,37.1 523.0,36.4 527.0,35.8 530.9,35.1 534.8,34.7 538.7,34.2 542.6,33.9 546.5,33.6 550.4,33.2 554.3,32.1 558.3,31.4 562.2,30.5 566.1,30.1 570.0,30.0 570.0,30.0,120" />
  
  <!-- Linea principale -->
  <polyline fill="none" stroke="#0366d6" stroke-width="2.5" stroke-linecap="round" stroke-linejoin="round" points="30.0,120.0 33.9,118.8 37.8,117.5 41.7,116.4 45.7,116.1 49.6,115.5 53.5,114.1 57.4,113.2 61.3,112.5 65.2,111.1 69.1,110.4 73.0,109.7 77.0,109.3 80.9,108.6 84.8,107.6 88.7,106.6 92.6,105.8 96.5,105.3 100.4,104.9 104.3,104.3 108.3,103.5 112.2,102.9 116.1,102.5 120.0,101.9 123.9,99.6 127.8,99.0 131.7,98.1 135.7,97.2 139.6,96.4 143.5,95.7 147.4,95.2 151.3,94.8 155.2,94.2 159.1,93.1 163.0,92.1 167.0,91.5 170.9,90.7 174.8,90.5 178.7,90.3 182.6,89.9 186.5,89.2 190.4,88.8 194.3,88.5 198.3,87.7 202.2,86.4 206.1,86.2 210.0,85.9 213.9,85.5 217.8,84.5 221.7,83.8 225.7,82.9 229.6,82.1 233.5,81.3 237.4,81.1 241.3,80.5 245.2,79.6 249.1,78.7 253.0,78.0 257.0,77.7 260.9,77.3 264.8,76.9 268.7,75.8 272.6,74.9 276.5,74.1 280.4,73.2 284.3,72.8 288.3,72.5 292.2,72.2 296.1,71.5 300.0,71.0 303.9,70.6 307.8,70.3 311.7,70.0 315.7,69.5 319.6,69.2 323.5,69.0 327.4,68.7 331.3,67.8 335.2,67.3 339.1,67.1 343.0,66.8 347.0,66.6 350.9,66.6 354.8,81.9 358.7,80.4 362.6,79.1 366.5,77.6 370.4,73.5 374.3,70.6 378.3,67.5 382.2,66.3 386.1,65.0 390.0,62.9 393.9,60.5 397.8,58.8 401.7,58.2 405.7,57.6 409.6,55.9 413.5,54.7 417.4,53.9 421.3,52.9 425.2,52.5 429.1,52.3 433.0,51.4 437.0,50.0 440.9,49.0 444.8,48.0 448.7,46.8 452.6,46.3 456.5,45.9 460.4,44.9 464.3,44.0 468.3,43.2 472.2,42.5 476.1,42.2 480.0,42.0 483.9,41.4 487.8,40.7 491.7,40.1 495.7,39.6 499.6,39.2 503.5,38.7 507.4,38.3 511.3,37.9 515.2,37.5 519.1,37.1 523.0,36.4 527.0,35.8 530.9,35.1 534.8,34.7 538.7,34.2 542.6,33.9 546.5,33.6 550.4,33.2 554.3,32.1 558.3,31.4 562.2,30.5 566.1,30.1 570.0,30.0" />
  
  <!-- Punto finale luminoso -->
  <circle cx="570.0" cy="30.0" r="4" fill="#ffffff" stroke="#0366d6" stroke-width="2.5" />
</svg>