<svg width="600" height="150" viewBox="0 0 600 150" xmlns="http://www.w3.org/2000/svg">
  <defs>
    <filter id="shadow2" x="-2%" y="-2%" width="104%" height="108%">
      <feDropShadow dx="0" dy="2" stdDeviation="3" flood-opacity="0.1" />
    </filter>
    <linearGradient id="fillGrad" x1="0" y1="0" x2="0" y2="1">
      <stop offset="0%" stop-color="#0366d6" stop-opacity="0.3"/>
      <stop offset="100%" stop-color="#0366d6" stop-opacity="0.02"/>
    </linearGradient>
  </defs>
  <rect width="600" height="150" rx="12" fill="#ffffff" filter="url(#shadow2)" stroke="#e1e4e8" stroke-width="1"/>
  <text x="20" y="24" fill="#2b3137" font-family="-apple-system,BlinkMacSystemFont,'Segoe UI',Helvetica,Arial,sans-serif" font-size="14" font-weight="600">📈 Download Growth (Actual: 78.2k)</text>
  
  <!-- Area sotto la linea -->
  <polygon fill="url(#fillGrad)" points="30.0,120.0,120 30.0,120.0 32.5,119.1 35.0,118.1 37.5,117.3 40.0,117.1 42.4,116.6 44.9,115.6 47.4,114.9 49.9,114.4 52.4,113.4 54.9,112.8 57.4,112.3 59.9,112.0 62.4,111.5 64.8,110.8 67.3,110.0 69.8,109.4 72.3,109.1 74.8,108.8 77.3,108.3 79.8,107.7 82.3,107.2 84.7,107.0 87.2,106.5 89.7,104.8 92.2,104.3 94.7,103.7 97.2,103.0 99.7,102.4 102.2,101.9 104.7,101.5 107.1,101.2 109.6,100.8 112.1,100.0 114.6,99.3 117.1,98.8 119.6,98.2 122.1,98.1 124.6,97.9 127.1,97.6 129.5,97.1 132.0,96.8 134.5,96.5 137.0,95.9 139.5,95.0 142.0,94.8 144.5,94.6 147.0,94.3 149.4,93.6 151.9,93.1 154.4,92.3 156.9,91.8 159.4,91.2 161.9,91.0 164.4,90.6 166.9,90.0 169.4,89.3 171.8,88.8 174.3,88.5 176.8,88.2 179.3,87.9 181.8,87.1 184.3,86.4 186.8,85.8 189.3,85.2 191.8,84.9 194.2,84.7 196.7,84.4 199.2,83.9 201.7,83.6 204.2,83.3 206.7,83.0 209.2,82.8 211.7,82.4 214.1,82.2 216.6,82.0 219.1,81.8 221.6,81.2 224.1,80.8 226.6,80.6 229.1,80.4 231.6,80.3 234.1,80.3 236.5,91.6 239.0,90.5 241.5,89.5 244.0,88.5 246.5,85.4 249.0,83.2 251.5,80.9 254.0,80.0 256.5,79.0 258.9,77.5 261.4,75.7 263.9,74.4 266.4,74.0 268.9,73.5 271.4,72.3 273.9,71.4 276.4,70.8 278.8,70.1 281.3,69.7 283.8,69.6 286.3,69.0 288.8,67.9 291.3,67.1 293.8,66.4 296.3,65.5 298.8,65.1 301.2,64.8 303.7,64.1 306.2,63.4 308.7,62.8 311.2,62.3 313.7,62.1 316.2,61.9 318.7,61.5 321.2,61.0 323.6,60.5 326.1,60.1 328.6,59.8 331.1,59.5 333.6,59.2 336.1,58.9 338.6,58.6 341.1,58.3 343.5,57.7 346.0,57.3 348.5,56.8 351.0,56.5 353.5,56.1 356.0,55.9 358.5,55.7 361.0,55.4 363.5,54.6 365.9,54.0 368.4,53.3 370.9,53.1 373.4,53.0 375.9,52.7 378.4,52.3 380.9,51.9 383.4,51.5 385.9,51.0 388.3,50.7 390.8,50.5 393.3,50.2 395.8,50.0 398.3,49.8 400.8,49.4 403.3,49.2 405.8,48.7 408.2,48.4 410.7,48.3 413.2,48.0 415.7,47.9 418.2,47.5 420.7,47.1 423.2,46.7 425.7,46.4 428.2,46.0 430.6,45.8 433.1,45.6 435.6,45.4 438.1,44.8 440.6,44.4 443.1,44.0 445.6,43.7 448.1,43.0 450.6,42.9 453.0,42.7 455.5,42.5 458.0,42.2 460.5,41.9 463.0,41.6 465.5,41.4 468.0,41.1 470.5,40.8 472.9,40.6 475.4,40.3 477.9,40.2 480.4,39.9 482.9,39.4 485.4,39.2 487.9,38.9 490.4,38.7 492.9,38.5 495.3,38.2 497.8,38.0 500.3,37.8 502.8,37.5 505.3,37.0 507.8,36.5 510.3,36.2 512.8,35.9 515.3,35.8 517.7,35.7 520.2,35.3 522.7,34.9 525.2,34.7 527.7,34.5 530.2,34.2 532.7,33.9 535.2,33.6 537.6,33.4 540.1,33.2 542.6,32.8 545.1,32.5 547.6,32.1 550.1,31.8 552.6,31.6 555.1,31.5 557.6,31.4 560.0,31.1 562.5,30.9 565.0,30.6 567.5,30.3 570.0,30.0 570.0,30.0,120" />
  
  <!-- Linea principale -->
  <polyline fill="none" stroke="#0366d6" stroke-width="2.5" stroke-linecap="round" stroke-linejoin="round" points="30.0,120.0 32.5,119.1 35.0,118.1 37.5,117.3 40.0,117.1 42.4,116.6 44.9,115.6 47.4,114.9 49.9,114.4 52.4,113.4 54.9,112.8 57.4,112.3 59.9,112.0 62.4,111.5 64.8,110.8 67.3,110.0 69.8,109.4 72.3,109.1 74.8,108.8 77.3,108.3 79.8,107.7 82.3,107.2 84.7,107.0 87.2,106.5 89.7,104.8 92.2,104.3 94.7,103.7 97.2,103.0 99.7,102.4 102.2,101.9 104.7,101.5 107.1,101.2 109.6,100.8 112.1,100.0 114.6,99.3 117.1,98.8 119.6,98.2 122.1,98.1 124.6,97.9 127.1,97.6 129.5,97.1 132.0,96.8 134.5,96.5 137.0,95.9 139.5,95.0 142.0,94.8 144.5,94.6 147.0,94.3 149.4,93.6 151.9,93.1 154.4,92.3 156.9,91.8 159.4,91.2 161.9,91.0 164.4,90.6 166.9,90.0 169.4,89.3 171.8,88.8 174.3,88.5 176.8,88.2 179.3,87.9 181.8,87.1 184.3,86.4 186.8,85.8 189.3,85.2 191.8,84.9 194.2,84.7 196.7,84.4 199.2,83.9 201.7,83.6 204.2,83.3 206.7,83.0 209.2,82.8 211.7,82.4 214.1,82.2 216.6,82.0 219.1,81.8 221.6,81.2 224.1,80.8 226.6,80.6 229.1,80.4 231.6,80.3 234.1,80.3 236.5,91.6 239.0,90.5 241.5,89.5 244.0,88.5 246.5,85.4 249.0,83.2 251.5,80.9 254.0,80.0 256.5,79.0 258.9,77.5 261.4,75.7 263.9,74.4 266.4,74.0 268.9,73.5 271.4,72.3 273.9,71.4 276.4,70.8 278.8,70.1 281.3,69.7 283.8,69.6 286.3,69.0 288.8,67.9 291.3,67.1 293.8,66.4 296.3,65.5 298.8,65.1 301.2,64.8 303.7,64.1 306.2,63.4 308.7,62.8 311.2,62.3 313.7,62.1 316.2,61.9 318.7,61.5 321.2,61.0 323.6,60.5 326.1,60.1 328.6,59.8 331.1,59.5 333.6,59.2 336.1,58.9 338.6,58.6 341.1,58.3 343.5,57.7 346.0,57.3 348.5,56.8 351.0,56.5 353.5,56.1 356.0,55.9 358.5,55.7 361.0,55.4 363.5,54.6 365.9,54.0 368.4,53.3 370.9,53.1 373.4,53.0 375.9,52.7 378.4,52.3 380.9,51.9 383.4,51.5 385.9,51.0 388.3,50.7 390.8,50.5 393.3,50.2 395.8,50.0 398.3,49.8 400.8,49.4 403.3,49.2 405.8,48.7 408.2,48.4 410.7,48.3 413.2,48.0 415.7,47.9 418.2,47.5 420.7,47.1 423.2,46.7 425.7,46.4 428.2,46.0 430.6,45.8 433.1,45.6 435.6,45.4 438.1,44.8 440.6,44.4 443.1,44.0 445.6,43.7 448.1,43.0 450.6,42.9 453.0,42.7 455.5,42.5 458.0,42.2 460.5,41.9 463.0,41.6 465.5,41.4 468.0,41.1 470.5,40.8 472.9,40.6 475.4,40.3 477.9,40.2 480.4,39.9 482.9,39.4 485.4,39.2 487.9,38.9 490.4,38.7 492.9,38.5 495.3,38.2 497.8,38.0 500.3,37.8 502.8,37.5 505.3,37.0 507.8,36.5 510.3,36.2 512.8,35.9 515.3,35.8 517.7,35.7 520.2,35.3 522.7,34.9 525.2,34.7 527.7,34.5 530.2,34.2 532.7,33.9 535.2,33.6 537.6,33.4 540.1,33.2 542.6,32.8 545.1,32.5 547.6,32.1 550.1,31.8 552.6,31.6 555.1,31.5 557.6,31.4 560.0,31.1 562.5,30.9 565.0,30.6 567.5,30.3 570.0,30.0" />
  
  <!-- Punto finale luminoso -->
  <circle cx="570.0" cy="30.0" r="4" fill="#ffffff" stroke="#0366d6" stroke-width="2.5" />
</svg>