<svg width="600" height="150" viewBox="0 0 600 150" xmlns="http://www.w3.org/2000/svg">
  <defs>
    <filter id="shadow2" x="-2%" y="-2%" width="104%" height="108%">
      <feDropShadow dx="0" dy="2" stdDeviation="3" flood-opacity="0.1" />
    </filter>
    <linearGradient id="fillGrad" x1="0" y1="0" x2="0" y2="1">
      <stop offset="0%" stop-color="#0366d6" stop-opacity="0.3"/>
      <stop offset="100%" stop-color="#0366d6" stop-opacity="0.02"/>
    </linearGradient>
  </defs>
  <rect width="600" height="150" rx="12" fill="#ffffff" filter="url(#shadow2)" stroke="#e1e4e8" stroke-width="1"/>
  <text x="20" y="24" fill="#2b3137" font-family="-apple-system,BlinkMacSystemFont,'Segoe UI',Helvetica,Arial,sans-serif" font-size="14" font-weight="600">📈 Download Growth (Actual: 80.9k)</text>
  
  <!-- Area sotto la linea -->
  <polygon fill="url(#fillGrad)" points="30.0,120.0,120 30.0,120.0 32.0,119.3 33.9,118.5 35.9,117.8 37.9,117.6 39.8,117.3 41.8,116.4 43.7,115.9 45.7,115.5 47.7,114.6 49.6,114.2 51.6,113.8 53.6,113.5 55.5,113.1 57.5,112.6 59.5,111.9 61.4,111.5 63.4,111.1 65.3,110.9 67.3,110.5 69.3,110.1 71.2,109.7 73.2,109.5 75.2,109.1 77.1,107.7 79.1,107.3 81.1,106.8 83.0,106.3 85.0,105.8 86.9,105.4 88.9,105.1 90.9,104.8 92.8,104.5 94.8,103.8 96.8,103.2 98.7,102.8 100.7,102.4 102.7,102.3 104.6,102.1 106.6,101.9 108.5,101.5 110.5,101.2 112.5,101.0 114.4,100.5 116.4,99.8 118.4,99.6 120.3,99.5 122.3,99.2 124.3,98.6 126.2,98.2 128.2,97.6 130.1,97.2 132.1,96.7 134.1,96.6 136.0,96.2 138.0,95.7 140.0,95.1 141.9,94.7 143.9,94.5 145.9,94.3 147.8,94.0 149.8,93.4 151.7,92.8 153.7,92.3 155.7,91.8 157.6,91.6 159.6,91.4 161.6,91.2 163.5,90.8 165.5,90.5 167.5,90.3 169.4,90.1 171.4,89.9 173.3,89.6 175.3,89.4 177.3,89.3 179.2,89.1 181.2,88.6 183.2,88.3 185.1,88.2 187.1,88.0 189.1,87.9 191.0,87.9 193.0,97.1 194.9,96.2 196.9,95.3 198.9,94.5 200.8,92.0 202.8,90.2 204.8,88.4 206.7,87.7 208.7,86.9 210.7,85.6 212.6,84.2 214.6,83.2 216.5,82.8 218.5,82.4 220.5,81.4 222.4,80.7 224.4,80.2 226.4,79.6 228.3,79.4 230.3,79.3 232.3,78.7 234.2,77.9 236.2,77.3 238.1,76.6 240.1,75.9 242.1,75.6 244.0,75.4 246.0,74.8 248.0,74.2 249.9,73.7 251.9,73.3 253.9,73.1 255.8,73.0 257.8,72.7 259.7,72.3 261.7,71.9 263.7,71.6 265.6,71.3 267.6,71.1 269.6,70.8 271.5,70.6 273.5,70.3 275.5,70.1 277.4,69.6 279.4,69.3 281.3,68.9 283.3,68.6 285.3,68.4 287.2,68.2 289.2,68.0 291.2,67.7 293.1,67.1 295.1,66.6 297.1,66.1 299.0,65.9 301.0,65.8 302.9,65.5 304.9,65.3 306.9,64.9 308.8,64.6 310.8,64.2 312.8,63.9 314.7,63.8 316.7,63.6 318.7,63.4 320.6,63.2 322.6,62.9 324.5,62.7 326.5,62.3 328.5,62.1 330.4,62.0 332.4,61.8 334.4,61.7 336.3,61.3 338.3,61.1 340.3,60.7 342.2,60.5 344.2,60.2 346.1,60.0 348.1,59.8 350.1,59.6 352.0,59.2 354.0,58.8 356.0,58.6 357.9,58.3 359.9,57.8 361.9,57.6 363.8,57.5 365.8,57.4 367.7,57.1 369.7,56.9 371.7,56.6 373.6,56.4 375.6,56.2 377.6,56.0 379.5,55.7 381.5,55.6 383.5,55.5 385.4,55.2 387.4,54.8 389.3,54.7 391.3,54.4 393.3,54.2 395.2,54.1 397.2,53.8 399.2,53.7 401.1,53.5 403.1,53.3 405.1,52.9 407.0,52.5 409.0,52.2 410.9,52.0 412.9,51.9 414.9,51.8 416.8,51.5 418.8,51.2 420.8,51.0 422.7,50.8 424.7,50.6 426.7,50.4 428.6,50.1 430.6,50.0 432.5,49.8 434.5,49.5 436.5,49.2 438.4,48.9 440.4,48.6 442.4,48.5 444.3,48.4 446.3,48.3 448.3,48.1 450.2,47.9 452.2,47.7 454.1,47.5 456.1,47.2 458.1,47.1 460.0,46.9 462.0,46.7 464.0,46.5 465.9,46.2 467.9,45.9 469.9,45.7 471.8,45.5 473.8,45.3 475.7,45.2 477.7,45.0 479.7,44.9 481.6,44.8 483.6,44.6 485.6,44.3 487.5,44.1 489.5,43.8 491.5,43.7 493.4,43.5 495.4,43.3 497.3,43.1 499.3,42.9 501.3,42.8 503.2,42.6 505.2,42.3 507.2,42.1 509.1,41.9 511.1,41.8 513.1,41.7 515.0,41.5 517.0,41.3 518.9,41.1 520.9,41.0 522.9,40.9 524.8,40.7 526.8,40.3 528.8,40.0 530.7,46.0 532.7,44.8 534.7,42.6 536.6,41.7 538.6,40.7 540.5,39.4 542.5,38.7 544.5,38.2 546.4,37.3 548.4,36.0 550.4,35.0 552.3,34.7 554.3,34.2 556.3,33.8 558.2,33.2 560.2,32.5 562.1,31.8 564.1,31.5 566.1,30.8 568.0,30.5 570.0,30.0 570.0,30.0,120" />
  
  <!-- Linea principale -->
  <polyline fill="none" stroke="#0366d6" stroke-width="2.5" stroke-linecap="round" stroke-linejoin="round" points="30.0,120.0 32.0,119.3 33.9,118.5 35.9,117.8 37.9,117.6 39.8,117.3 41.8,116.4 43.7,115.9 45.7,115.5 47.7,114.6 49.6,114.2 51.6,113.8 53.6,113.5 55.5,113.1 57.5,112.6 59.5,111.9 61.4,111.5 63.4,111.1 65.3,110.9 67.3,110.5 69.3,110.1 71.2,109.7 73.2,109.5 75.2,109.1 77.1,107.7 79.1,107.3 81.1,106.8 83.0,106.3 85.0,105.8 86.9,105.4 88.9,105.1 90.9,104.8 92.8,104.5 94.8,103.8 96.8,103.2 98.7,102.8 100.7,102.4 102.7,102.3 104.6,102.1 106.6,101.9 108.5,101.5 110.5,101.2 112.5,101.0 114.4,100.5 116.4,99.8 118.4,99.6 120.3,99.5 122.3,99.2 124.3,98.6 126.2,98.2 128.2,97.6 130.1,97.2 132.1,96.7 134.1,96.6 136.0,96.2 138.0,95.7 140.0,95.1 141.9,94.7 143.9,94.5 145.9,94.3 147.8,94.0 149.8,93.4 151.7,92.8 153.7,92.3 155.7,91.8 157.6,91.6 159.6,91.4 161.6,91.2 163.5,90.8 165.5,90.5 167.5,90.3 169.4,90.1 171.4,89.9 173.3,89.6 175.3,89.4 177.3,89.3 179.2,89.1 181.2,88.6 183.2,88.3 185.1,88.2 187.1,88.0 189.1,87.9 191.0,87.9 193.0,97.1 194.9,96.2 196.9,95.3 198.9,94.5 200.8,92.0 202.8,90.2 204.8,88.4 206.7,87.7 208.7,86.9 210.7,85.6 212.6,84.2 214.6,83.2 216.5,82.8 218.5,82.4 220.5,81.4 222.4,80.7 224.4,80.2 226.4,79.6 228.3,79.4 230.3,79.3 232.3,78.7 234.2,77.9 236.2,77.3 238.1,76.6 240.1,75.9 242.1,75.6 244.0,75.4 246.0,74.8 248.0,74.2 249.9,73.7 251.9,73.3 253.9,73.1 255.8,73.0 257.8,72.7 259.7,72.3 261.7,71.9 263.7,71.6 265.6,71.3 267.6,71.1 269.6,70.8 271.5,70.6 273.5,70.3 275.5,70.1 277.4,69.6 279.4,69.3 281.3,68.9 283.3,68.6 285.3,68.4 287.2,68.2 289.2,68.0 291.2,67.7 293.1,67.1 295.1,66.6 297.1,66.1 299.0,65.9 301.0,65.8 302.9,65.5 304.9,65.3 306.9,64.9 308.8,64.6 310.8,64.2 312.8,63.9 314.7,63.8 316.7,63.6 318.7,63.4 320.6,63.2 322.6,62.9 324.5,62.7 326.5,62.3 328.5,62.1 330.4,62.0 332.4,61.8 334.4,61.7 336.3,61.3 338.3,61.1 340.3,60.7 342.2,60.5 344.2,60.2 346.1,60.0 348.1,59.8 350.1,59.6 352.0,59.2 354.0,58.8 356.0,58.6 357.9,58.3 359.9,57.8 361.9,57.6 363.8,57.5 365.8,57.4 367.7,57.1 369.7,56.9 371.7,56.6 373.6,56.4 375.6,56.2 377.6,56.0 379.5,55.7 381.5,55.6 383.5,55.5 385.4,55.2 387.4,54.8 389.3,54.7 391.3,54.4 393.3,54.2 395.2,54.1 397.2,53.8 399.2,53.7 401.1,53.5 403.1,53.3 405.1,52.9 407.0,52.5 409.0,52.2 410.9,52.0 412.9,51.9 414.9,51.8 416.8,51.5 418.8,51.2 420.8,51.0 422.7,50.8 424.7,50.6 426.7,50.4 428.6,50.1 430.6,50.0 432.5,49.8 434.5,49.5 436.5,49.2 438.4,48.9 440.4,48.6 442.4,48.5 444.3,48.4 446.3,48.3 448.3,48.1 450.2,47.9 452.2,47.7 454.1,47.5 456.1,47.2 458.1,47.1 460.0,46.9 462.0,46.7 464.0,46.5 465.9,46.2 467.9,45.9 469.9,45.7 471.8,45.5 473.8,45.3 475.7,45.2 477.7,45.0 479.7,44.9 481.6,44.8 483.6,44.6 485.6,44.3 487.5,44.1 489.5,43.8 491.5,43.7 493.4,43.5 495.4,43.3 497.3,43.1 499.3,42.9 501.3,42.8 503.2,42.6 505.2,42.3 507.2,42.1 509.1,41.9 511.1,41.8 513.1,41.7 515.0,41.5 517.0,41.3 518.9,41.1 520.9,41.0 522.9,40.9 524.8,40.7 526.8,40.3 528.8,40.0 530.7,46.0 532.7,44.8 534.7,42.6 536.6,41.7 538.6,40.7 540.5,39.4 542.5,38.7 544.5,38.2 546.4,37.3 548.4,36.0 550.4,35.0 552.3,34.7 554.3,34.2 556.3,33.8 558.2,33.2 560.2,32.5 562.1,31.8 564.1,31.5 566.1,30.8 568.0,30.5 570.0,30.0" />
  
  <!-- Punto finale luminoso -->
  <circle cx="570.0" cy="30.0" r="4" fill="#ffffff" stroke="#0366d6" stroke-width="2.5" />
</svg>