<svg width="600" height="150" viewBox="0 0 600 150" xmlns="http://www.w3.org/2000/svg">
  <defs>
    <filter id="shadow2" x="-2%" y="-2%" width="104%" height="108%">
      <feDropShadow dx="0" dy="2" stdDeviation="3" flood-opacity="0.1" />
    </filter>
    <linearGradient id="fillGrad" x1="0" y1="0" x2="0" y2="1">
      <stop offset="0%" stop-color="#0366d6" stop-opacity="0.3"/>
      <stop offset="100%" stop-color="#0366d6" stop-opacity="0.02"/>
    </linearGradient>
  </defs>
  <rect width="600" height="150" rx="12" fill="#ffffff" filter="url(#shadow2)" stroke="#e1e4e8" stroke-width="1"/>
  <text x="20" y="24" fill="#2b3137" font-family="-apple-system,BlinkMacSystemFont,'Segoe UI',Helvetica,Arial,sans-serif" font-size="14" font-weight="600">📈 Download Growth (Actual: 77.4k)</text>
  
  <!-- Area sotto la linea -->
  <polygon fill="url(#fillGrad)" points="30.0,120.0,120 30.0,120.0 32.8,119.0 35.6,118.0 38.4,117.1 41.2,116.9 44.0,116.4 46.8,115.3 49.6,114.5 52.4,114.0 55.2,112.9 58.0,112.3 60.8,111.7 63.6,111.4 66.4,110.9 69.2,110.1 72.0,109.3 74.8,108.7 77.6,108.2 80.4,107.9 83.2,107.4 86.0,106.8 88.8,106.3 91.6,106.0 94.4,105.5 97.2,103.7 99.9,103.2 102.7,102.5 105.5,101.8 108.3,101.1 111.1,100.6 113.9,100.2 116.7,99.9 119.5,99.4 122.3,98.5 125.1,97.7 127.9,97.2 130.7,96.6 133.5,96.4 136.3,96.3 139.1,96.0 141.9,95.4 144.7,95.1 147.5,94.8 150.3,94.1 153.1,93.2 155.9,92.9 158.7,92.8 161.5,92.4 164.3,91.6 167.1,91.1 169.9,90.3 172.7,89.7 175.5,89.0 178.3,88.9 181.1,88.5 183.9,87.7 186.7,87.0 189.5,86.5 192.3,86.2 195.1,85.8 197.9,85.5 200.7,84.7 203.5,84.0 206.3,83.3 209.1,82.6 211.9,82.3 214.7,82.1 217.5,81.8 220.3,81.2 223.1,80.9 225.9,80.5 228.7,80.3 231.5,80.0 234.2,79.6 237.0,79.4 239.8,79.2 242.6,79.0 245.4,78.3 248.2,77.9 251.0,77.7 253.8,77.5 256.6,77.3 259.4,77.3 262.2,89.5 265.0,88.3 267.8,87.3 270.6,86.1 273.4,82.8 276.2,80.5 279.0,78.0 281.8,77.1 284.6,76.0 287.4,74.3 290.2,72.5 293.0,71.1 295.8,70.6 298.6,70.1 301.4,68.8 304.2,67.8 307.0,67.2 309.8,66.4 312.6,66.0 315.4,65.9 318.2,65.2 321.0,64.1 323.8,63.3 326.6,62.4 329.4,61.5 332.2,61.1 335.0,60.8 337.8,60.0 340.6,59.3 343.4,58.6 346.2,58.0 349.0,57.8 351.8,57.6 354.6,57.2 357.4,56.6 360.2,56.2 363.0,55.7 365.8,55.4 368.5,55.0 371.3,54.7 374.1,54.4 376.9,54.1 379.7,53.8 382.5,53.1 385.3,52.7 388.1,52.1 390.9,51.8 393.7,51.4 396.5,51.2 399.3,50.9 402.1,50.6 404.9,49.7 407.7,49.2 410.5,48.4 413.3,48.1 416.1,48.1 418.9,47.7 421.7,47.3 424.5,46.9 427.3,46.5 430.1,45.9 432.9,45.5 435.7,45.4 438.5,45.1 441.3,44.9 444.1,44.6 446.9,44.2 449.7,43.9 452.5,43.4 455.3,43.2 458.1,43.0 460.9,42.7 463.7,42.6 466.5,42.1 469.3,41.8 472.1,41.3 474.9,41.0 477.7,40.6 480.5,40.3 483.3,40.1 486.1,39.9 488.9,39.3 491.7,38.8 494.5,38.4 497.3,38.0 500.1,37.4 502.8,37.2 505.6,37.0 508.4,36.8 511.2,36.5 514.0,36.2 516.8,35.8 519.6,35.6 522.4,35.3 525.2,35.0 528.0,34.7 530.8,34.5 533.6,34.3 536.4,34.0 539.2,33.5 542.0,33.3 544.8,32.9 547.6,32.7 550.4,32.5 553.2,32.2 556.0,32.0 558.8,31.8 561.6,31.5 564.4,30.9 567.2,30.4 570.0,30.0 570.0,30.0,120" />
  
  <!-- Linea principale -->
  <polyline fill="none" stroke="#0366d6" stroke-width="2.5" stroke-linecap="round" stroke-linejoin="round" points="30.0,120.0 32.8,119.0 35.6,118.0 38.4,117.1 41.2,116.9 44.0,116.4 46.8,115.3 49.6,114.5 52.4,114.0 55.2,112.9 58.0,112.3 60.8,111.7 63.6,111.4 66.4,110.9 69.2,110.1 72.0,109.3 74.8,108.7 77.6,108.2 80.4,107.9 83.2,107.4 86.0,106.8 88.8,106.3 91.6,106.0 94.4,105.5 97.2,103.7 99.9,103.2 102.7,102.5 105.5,101.8 108.3,101.1 111.1,100.6 113.9,100.2 116.7,99.9 119.5,99.4 122.3,98.5 125.1,97.7 127.9,97.2 130.7,96.6 133.5,96.4 136.3,96.3 139.1,96.0 141.9,95.4 144.7,95.1 147.5,94.8 150.3,94.1 153.1,93.2 155.9,92.9 158.7,92.8 161.5,92.4 164.3,91.6 167.1,91.1 169.9,90.3 172.7,89.7 175.5,89.0 178.3,88.9 181.1,88.5 183.9,87.7 186.7,87.0 189.5,86.5 192.3,86.2 195.1,85.8 197.9,85.5 200.7,84.7 203.5,84.0 206.3,83.3 209.1,82.6 211.9,82.3 214.7,82.1 217.5,81.8 220.3,81.2 223.1,80.9 225.9,80.5 228.7,80.3 231.5,80.0 234.2,79.6 237.0,79.4 239.8,79.2 242.6,79.0 245.4,78.3 248.2,77.9 251.0,77.7 253.8,77.5 256.6,77.3 259.4,77.3 262.2,89.5 265.0,88.3 267.8,87.3 270.6,86.1 273.4,82.8 276.2,80.5 279.0,78.0 281.8,77.1 284.6,76.0 287.4,74.3 290.2,72.5 293.0,71.1 295.8,70.6 298.6,70.1 301.4,68.8 304.2,67.8 307.0,67.2 309.8,66.4 312.6,66.0 315.4,65.9 318.2,65.2 321.0,64.1 323.8,63.3 326.6,62.4 329.4,61.5 332.2,61.1 335.0,60.8 337.8,60.0 340.6,59.3 343.4,58.6 346.2,58.0 349.0,57.8 351.8,57.6 354.6,57.2 357.4,56.6 360.2,56.2 363.0,55.7 365.8,55.4 368.5,55.0 371.3,54.7 374.1,54.4 376.9,54.1 379.7,53.8 382.5,53.1 385.3,52.7 388.1,52.1 390.9,51.8 393.7,51.4 396.5,51.2 399.3,50.9 402.1,50.6 404.9,49.7 407.7,49.2 410.5,48.4 413.3,48.1 416.1,48.1 418.9,47.7 421.7,47.3 424.5,46.9 427.3,46.5 430.1,45.9 432.9,45.5 435.7,45.4 438.5,45.1 441.3,44.9 444.1,44.6 446.9,44.2 449.7,43.9 452.5,43.4 455.3,43.2 458.1,43.0 460.9,42.7 463.7,42.6 466.5,42.1 469.3,41.8 472.1,41.3 474.9,41.0 477.7,40.6 480.5,40.3 483.3,40.1 486.1,39.9 488.9,39.3 491.7,38.8 494.5,38.4 497.3,38.0 500.1,37.4 502.8,37.2 505.6,37.0 508.4,36.8 511.2,36.5 514.0,36.2 516.8,35.8 519.6,35.6 522.4,35.3 525.2,35.0 528.0,34.7 530.8,34.5 533.6,34.3 536.4,34.0 539.2,33.5 542.0,33.3 544.8,32.9 547.6,32.7 550.4,32.5 553.2,32.2 556.0,32.0 558.8,31.8 561.6,31.5 564.4,30.9 567.2,30.4 570.0,30.0" />
  
  <!-- Punto finale luminoso -->
  <circle cx="570.0" cy="30.0" r="4" fill="#ffffff" stroke="#0366d6" stroke-width="2.5" />
</svg>