<svg width="600" height="150" viewBox="0 0 600 150" xmlns="http://www.w3.org/2000/svg">
  <defs>
    <filter id="shadow2" x="-2%" y="-2%" width="104%" height="108%">
      <feDropShadow dx="0" dy="2" stdDeviation="3" flood-opacity="0.1" />
    </filter>
    <linearGradient id="fillGrad" x1="0" y1="0" x2="0" y2="1">
      <stop offset="0%" stop-color="#0366d6" stop-opacity="0.3"/>
      <stop offset="100%" stop-color="#0366d6" stop-opacity="0.02"/>
    </linearGradient>
  </defs>
  <rect width="600" height="150" rx="12" fill="#ffffff" filter="url(#shadow2)" stroke="#e1e4e8" stroke-width="1"/>
  <text x="20" y="24" fill="#2b3137" font-family="-apple-system,BlinkMacSystemFont,'Segoe UI',Helvetica,Arial,sans-serif" font-size="14" font-weight="600">📈 Download Growth (Actual: 76.9k)</text>
  
  <!-- Area sotto la linea -->
  <polygon fill="url(#fillGrad)" points="30.0,120.0,120 30.0,120.0 33.0,119.0 36.0,117.9 39.0,117.0 41.9,116.7 44.9,116.2 47.9,115.1 50.9,114.3 53.9,113.8 56.9,112.6 59.8,112.0 62.8,111.4 65.8,111.0 68.8,110.5 71.8,109.7 74.8,108.8 77.7,108.1 80.7,107.7 83.7,107.4 86.7,106.8 89.7,106.2 92.7,105.7 95.6,105.4 98.6,104.9 101.6,103.0 104.6,102.4 107.6,101.7 110.6,100.9 113.5,100.3 116.5,99.6 119.5,99.2 122.5,98.9 125.5,98.4 128.5,97.5 131.4,96.7 134.4,96.2 137.4,95.5 140.4,95.3 143.4,95.2 146.4,94.9 149.3,94.3 152.3,93.9 155.3,93.6 158.3,92.9 161.3,91.9 164.3,91.7 167.2,91.5 170.2,91.1 173.2,90.3 176.2,89.8 179.2,88.9 182.2,88.3 185.1,87.6 188.1,87.4 191.1,87.0 194.1,86.2 197.1,85.5 200.1,84.9 203.0,84.6 206.0,84.3 209.0,83.9 212.0,83.1 215.0,82.3 218.0,81.6 220.9,80.9 223.9,80.5 226.9,80.3 229.9,80.0 232.9,79.4 235.9,79.0 238.8,78.7 241.8,78.4 244.8,78.2 247.8,77.8 250.8,77.5 253.8,77.3 256.7,77.1 259.7,76.4 262.7,75.9 265.7,75.8 268.7,75.5 271.7,75.4 274.6,75.4 277.6,88.1 280.6,86.9 283.6,85.7 286.6,84.6 289.6,81.1 292.5,78.7 295.5,76.0 298.5,75.1 301.5,74.0 304.5,72.2 307.5,70.2 310.4,68.8 313.4,68.3 316.4,67.8 319.4,66.4 322.4,65.4 325.4,64.7 328.3,63.9 331.3,63.5 334.3,63.4 337.3,62.7 340.3,61.5 343.3,60.6 346.2,59.8 349.2,58.8 352.2,58.3 355.2,58.0 358.2,57.2 361.2,56.4 364.1,55.7 367.1,55.2 370.1,54.9 373.1,54.7 376.1,54.3 379.1,53.7 382.0,53.2 385.0,52.7 388.0,52.4 391.0,52.0 394.0,51.6 397.0,51.3 399.9,51.0 402.9,50.7 405.9,50.0 408.9,49.5 411.9,49.0 414.9,48.6 417.8,48.3 420.8,48.0 423.8,47.7 426.8,47.4 429.8,46.5 432.8,45.9 435.7,45.1 438.7,44.8 441.7,44.7 444.7,44.4 447.7,44.0 450.7,43.5 453.6,43.0 456.6,42.5 459.6,42.1 462.6,41.9 465.6,41.6 468.6,41.4 471.5,41.1 474.5,40.7 477.5,40.4 480.5,39.9 483.5,39.6 486.5,39.4 489.4,39.2 492.4,39.0 495.4,38.5 498.4,38.1 501.4,37.7 504.4,37.3 507.3,36.9 510.3,36.6 513.3,36.4 516.3,36.1 519.3,35.6 522.3,35.0 525.2,34.6 528.2,34.2 531.2,33.5 534.2,33.4 537.2,33.2 540.2,33.0 543.1,32.6 546.1,32.3 549.1,31.9 552.1,31.6 555.1,31.3 558.1,31.0 561.0,30.7 564.0,30.5 567.0,30.3 570.0,30.0 570.0,30.0,120" />
  
  <!-- Linea principale -->
  <polyline fill="none" stroke="#0366d6" stroke-width="2.5" stroke-linecap="round" stroke-linejoin="round" points="30.0,120.0 33.0,119.0 36.0,117.9 39.0,117.0 41.9,116.7 44.9,116.2 47.9,115.1 50.9,114.3 53.9,113.8 56.9,112.6 59.8,112.0 62.8,111.4 65.8,111.0 68.8,110.5 71.8,109.7 74.8,108.8 77.7,108.1 80.7,107.7 83.7,107.4 86.7,106.8 89.7,106.2 92.7,105.7 95.6,105.4 98.6,104.9 101.6,103.0 104.6,102.4 107.6,101.7 110.6,100.9 113.5,100.3 116.5,99.6 119.5,99.2 122.5,98.9 125.5,98.4 128.5,97.5 131.4,96.7 134.4,96.2 137.4,95.5 140.4,95.3 143.4,95.2 146.4,94.9 149.3,94.3 152.3,93.9 155.3,93.6 158.3,92.9 161.3,91.9 164.3,91.7 167.2,91.5 170.2,91.1 173.2,90.3 176.2,89.8 179.2,88.9 182.2,88.3 185.1,87.6 188.1,87.4 191.1,87.0 194.1,86.2 197.1,85.5 200.1,84.9 203.0,84.6 206.0,84.3 209.0,83.9 212.0,83.1 215.0,82.3 218.0,81.6 220.9,80.9 223.9,80.5 226.9,80.3 229.9,80.0 232.9,79.4 235.9,79.0 238.8,78.7 241.8,78.4 244.8,78.2 247.8,77.8 250.8,77.5 253.8,77.3 256.7,77.1 259.7,76.4 262.7,75.9 265.7,75.8 268.7,75.5 271.7,75.4 274.6,75.4 277.6,88.1 280.6,86.9 283.6,85.7 286.6,84.6 289.6,81.1 292.5,78.7 295.5,76.0 298.5,75.1 301.5,74.0 304.5,72.2 307.5,70.2 310.4,68.8 313.4,68.3 316.4,67.8 319.4,66.4 322.4,65.4 325.4,64.7 328.3,63.9 331.3,63.5 334.3,63.4 337.3,62.7 340.3,61.5 343.3,60.6 346.2,59.8 349.2,58.8 352.2,58.3 355.2,58.0 358.2,57.2 361.2,56.4 364.1,55.7 367.1,55.2 370.1,54.9 373.1,54.7 376.1,54.3 379.1,53.7 382.0,53.2 385.0,52.7 388.0,52.4 391.0,52.0 394.0,51.6 397.0,51.3 399.9,51.0 402.9,50.7 405.9,50.0 408.9,49.5 411.9,49.0 414.9,48.6 417.8,48.3 420.8,48.0 423.8,47.7 426.8,47.4 429.8,46.5 432.8,45.9 435.7,45.1 438.7,44.8 441.7,44.7 444.7,44.4 447.7,44.0 450.7,43.5 453.6,43.0 456.6,42.5 459.6,42.1 462.6,41.9 465.6,41.6 468.6,41.4 471.5,41.1 474.5,40.7 477.5,40.4 480.5,39.9 483.5,39.6 486.5,39.4 489.4,39.2 492.4,39.0 495.4,38.5 498.4,38.1 501.4,37.7 504.4,37.3 507.3,36.9 510.3,36.6 513.3,36.4 516.3,36.1 519.3,35.6 522.3,35.0 525.2,34.6 528.2,34.2 531.2,33.5 534.2,33.4 537.2,33.2 540.2,33.0 543.1,32.6 546.1,32.3 549.1,31.9 552.1,31.6 555.1,31.3 558.1,31.0 561.0,30.7 564.0,30.5 567.0,30.3 570.0,30.0" />
  
  <!-- Punto finale luminoso -->
  <circle cx="570.0" cy="30.0" r="4" fill="#ffffff" stroke="#0366d6" stroke-width="2.5" />
</svg>