<svg width="600" height="150" viewBox="0 0 600 150" xmlns="http://www.w3.org/2000/svg">
  <defs>
    <filter id="shadow2" x="-2%" y="-2%" width="104%" height="108%">
      <feDropShadow dx="0" dy="2" stdDeviation="3" flood-opacity="0.1" />
    </filter>
    <linearGradient id="fillGrad" x1="0" y1="0" x2="0" y2="1">
      <stop offset="0%" stop-color="#0366d6" stop-opacity="0.3"/>
      <stop offset="100%" stop-color="#0366d6" stop-opacity="0.02"/>
    </linearGradient>
  </defs>
  <rect width="600" height="150" rx="12" fill="#ffffff" filter="url(#shadow2)" stroke="#e1e4e8" stroke-width="1"/>
  <text x="20" y="24" fill="#2b3137" font-family="-apple-system,BlinkMacSystemFont,'Segoe UI',Helvetica,Arial,sans-serif" font-size="14" font-weight="600">📈 Download Growth (Actual: 87.5k)</text>
  
  <!-- Area sotto la linea -->
  <polygon fill="url(#fillGrad)" points="30.0,120.0,120 30.0,120.0 31.3,119.5 32.6,119.0 34.0,118.5 35.3,118.4 36.6,118.1 37.9,117.6 39.2,117.2 40.5,116.9 41.9,116.4 43.2,116.1 44.5,115.8 45.8,115.6 47.1,115.3 48.4,114.9 49.8,114.5 51.1,114.2 52.4,114.0 53.7,113.8 55.0,113.6 56.3,113.3 57.7,113.0 59.0,112.9 60.3,112.6 61.6,111.7 62.9,111.4 64.2,111.0 65.6,110.7 66.9,110.4 68.2,110.0 69.5,109.8 70.8,109.7 72.1,109.4 73.5,109.0 74.8,108.6 76.1,108.3 77.4,108.0 78.7,107.9 80.0,107.9 81.4,107.7 82.7,107.4 84.0,107.2 85.3,107.1 86.6,106.8 88.0,106.3 89.3,106.2 90.6,106.1 91.9,105.9 93.2,105.5 94.5,105.2 95.9,104.8 97.2,104.5 98.5,104.1 99.8,104.1 101.1,103.9 102.4,103.5 103.8,103.1 105.1,102.8 106.4,102.7 107.7,102.5 109.0,102.4 110.3,101.9 111.7,101.6 113.0,101.2 114.3,100.9 115.6,100.7 116.9,100.6 118.2,100.4 119.6,100.2 120.9,100.0 122.2,99.8 123.5,99.7 124.8,99.5 126.1,99.3 127.5,99.2 128.8,99.1 130.1,99.0 131.4,98.7 132.7,98.4 134.0,98.4 135.4,98.2 136.7,98.2 138.0,98.2 139.3,104.4 140.6,103.8 142.0,103.2 143.3,102.7 144.6,101.0 145.9,99.8 147.2,98.5 148.5,98.0 149.9,97.5 151.2,96.6 152.5,95.7 153.8,95.0 155.1,94.7 156.4,94.5 157.8,93.8 159.1,93.3 160.4,93.0 161.7,92.6 163.0,92.4 164.3,92.3 165.7,92.0 167.0,91.4 168.3,91.0 169.6,90.5 170.9,90.1 172.2,89.8 173.6,89.7 174.9,89.3 176.2,88.9 177.5,88.6 178.8,88.3 180.1,88.2 181.5,88.1 182.8,87.9 184.1,87.6 185.4,87.3 186.7,87.1 188.0,86.9 189.4,86.7 190.7,86.6 192.0,86.4 193.3,86.3 194.6,86.1 196.0,85.8 197.3,85.5 198.6,85.3 199.9,85.1 201.2,84.9 202.5,84.8 203.9,84.6 205.2,84.5 206.5,84.0 207.8,83.7 209.1,83.4 210.4,83.2 211.8,83.2 213.1,83.0 214.4,82.8 215.7,82.6 217.0,82.4 218.3,82.1 219.7,81.9 221.0,81.8 222.3,81.7 223.6,81.5 224.9,81.4 226.2,81.2 227.6,81.1 228.9,80.8 230.2,80.7 231.5,80.6 232.8,80.5 234.1,80.4 235.5,80.1 236.8,80.0 238.1,79.7 239.4,79.5 240.7,79.3 242.0,79.2 243.4,79.1 244.7,79.0 246.0,78.7 247.3,78.4 248.6,78.3 250.0,78.1 251.3,77.7 252.6,77.6 253.9,77.5 255.2,77.4 256.5,77.3 257.9,77.1 259.2,76.9 260.5,76.8 261.8,76.6 263.1,76.5 264.4,76.3 265.8,76.2 267.1,76.2 268.4,76.0 269.7,75.7 271.0,75.6 272.3,75.4 273.7,75.3 275.0,75.2 276.3,75.1 277.6,74.9 278.9,74.8 280.2,74.7 281.6,74.4 282.9,74.1 284.2,73.9 285.5,73.8 286.8,73.7 288.1,73.7 289.5,73.5 290.8,73.2 292.1,73.1 293.4,73.0 294.7,72.8 296.0,72.7 297.4,72.5 298.7,72.4 300.0,72.3 301.3,72.1 302.6,71.9 304.0,71.7 305.3,71.5 306.6,71.4 307.9,71.4 309.2,71.3 310.5,71.2 311.9,71.0 313.2,70.9 314.5,70.7 315.8,70.5 317.1,70.4 318.4,70.3 319.8,70.2 321.1,70.1 322.4,69.9 323.7,69.7 325.0,69.5 326.3,69.4 327.7,69.2 329.0,69.2 330.3,69.1 331.6,69.0 332.9,68.9 334.2,68.8 335.6,68.5 336.9,68.4 338.2,68.3 339.5,68.2 340.8,68.0 342.1,67.9 343.5,67.7 344.8,67.6 346.1,67.5 347.4,67.4 348.7,67.2 350.0,67.1 351.4,66.9 352.7,66.9 354.0,66.8 355.3,66.7 356.6,66.6 358.0,66.4 359.3,66.3 360.6,66.3 361.9,66.1 363.2,65.8 364.5,65.6 365.9,69.7 367.2,68.9 368.5,67.4 369.8,66.8 371.1,66.1 372.4,65.2 373.8,64.7 375.1,64.4 376.4,63.8 377.7,62.9 379.0,62.3 380.3,62.1 381.7,61.7 383.0,61.5 384.3,61.0 385.6,60.6 386.9,60.1 388.2,59.8 389.6,59.4 390.9,59.2 392.2,58.8 393.5,58.7 394.8,58.4 396.1,58.2 397.5,57.7 398.8,57.4 400.1,57.0 401.4,56.5 402.7,56.1 404.0,56.0 405.4,55.8 406.7,55.6 408.0,55.2 409.3,54.9 410.6,54.6 412.0,53.8 413.3,53.1 414.6,52.8 415.9,52.7 417.2,52.4 418.5,52.0 419.9,51.6 421.2,51.3 422.5,51.0 423.8,50.7 425.1,50.5 426.4,50.2 427.8,49.8 429.1,49.6 430.4,49.4 431.7,49.3 433.0,48.9 434.3,48.6 435.7,48.4 437.0,48.3 438.3,48.1 439.6,47.9 440.9,47.7 442.2,47.5 443.6,47.4 444.9,47.2 446.2,47.1 447.5,46.8 448.8,46.6 450.1,46.3 451.5,45.9 452.8,45.7 454.1,45.5 455.4,45.4 456.7,45.2 458.0,45.0 459.4,44.9 460.7,44.7 462.0,44.6 463.3,44.5 464.6,44.3 466.0,44.2 467.3,43.9 468.6,43.8 469.9,43.6 471.2,43.4 472.5,43.1 473.9,42.7 475.2,42.5 476.5,42.3 477.8,42.1 479.1,41.9 480.4,41.7 481.8,41.5 483.1,41.3 484.4,41.2 485.7,41.1 487.0,40.9 488.3,40.6 489.7,40.5 491.0,40.4 492.3,40.1 493.6,39.9 494.9,39.7 496.2,39.5 497.6,39.3 498.9,39.0 500.2,38.8 501.5,38.6 502.8,38.5 504.1,38.3 505.5,38.2 506.8,38.0 508.1,37.8 509.4,37.6 510.7,37.5 512.0,37.4 513.4,37.2 514.7,37.0 516.0,36.9 517.3,36.8 518.6,36.6 520.0,36.5 521.3,36.4 522.6,36.2 523.9,36.0 525.2,35.9 526.5,35.8 527.9,35.6 529.2,35.4 530.5,35.2 531.8,35.1 533.1,35.0 534.4,34.8 535.8,34.6 537.1,34.4 538.4,34.1 539.7,34.0 541.0,33.9 542.3,33.9 543.7,33.7 545.0,33.6 546.3,33.3 547.6,33.0 548.9,33.0 550.2,32.7 551.6,32.6 552.9,32.5 554.2,32.3 555.5,32.2 556.8,31.9 558.1,31.7 559.5,31.6 560.8,31.4 562.1,31.2 563.4,31.0 564.7,30.7 566.0,30.6 567.4,30.5 568.7,30.2 570.0,30.0 570.0,30.0,120" />
  
  <!-- Linea principale -->
  <polyline fill="none" stroke="#0366d6" stroke-width="2.5" stroke-linecap="round" stroke-linejoin="round" points="30.0,120.0 31.3,119.5 32.6,119.0 34.0,118.5 35.3,118.4 36.6,118.1 37.9,117.6 39.2,117.2 40.5,116.9 41.9,116.4 43.2,116.1 44.5,115.8 45.8,115.6 47.1,115.3 48.4,114.9 49.8,114.5 51.1,114.2 52.4,114.0 53.7,113.8 55.0,113.6 56.3,113.3 57.7,113.0 59.0,112.9 60.3,112.6 61.6,111.7 62.9,111.4 64.2,111.0 65.6,110.7 66.9,110.4 68.2,110.0 69.5,109.8 70.8,109.7 72.1,109.4 73.5,109.0 74.8,108.6 76.1,108.3 77.4,108.0 78.7,107.9 80.0,107.9 81.4,107.7 82.7,107.4 84.0,107.2 85.3,107.1 86.6,106.8 88.0,106.3 89.3,106.2 90.6,106.1 91.9,105.9 93.2,105.5 94.5,105.2 95.9,104.8 97.2,104.5 98.5,104.1 99.8,104.1 101.1,103.9 102.4,103.5 103.8,103.1 105.1,102.8 106.4,102.7 107.7,102.5 109.0,102.4 110.3,101.9 111.7,101.6 113.0,101.2 114.3,100.9 115.6,100.7 116.9,100.6 118.2,100.4 119.6,100.2 120.9,100.0 122.2,99.8 123.5,99.7 124.8,99.5 126.1,99.3 127.5,99.2 128.8,99.1 130.1,99.0 131.4,98.7 132.7,98.4 134.0,98.4 135.4,98.2 136.7,98.2 138.0,98.2 139.3,104.4 140.6,103.8 142.0,103.2 143.3,102.7 144.6,101.0 145.9,99.8 147.2,98.5 148.5,98.0 149.9,97.5 151.2,96.6 152.5,95.7 153.8,95.0 155.1,94.7 156.4,94.5 157.8,93.8 159.1,93.3 160.4,93.0 161.7,92.6 163.0,92.4 164.3,92.3 165.7,92.0 167.0,91.4 168.3,91.0 169.6,90.5 170.9,90.1 172.2,89.8 173.6,89.7 174.9,89.3 176.2,88.9 177.5,88.6 178.8,88.3 180.1,88.2 181.5,88.1 182.8,87.9 184.1,87.6 185.4,87.3 186.7,87.1 188.0,86.9 189.4,86.7 190.7,86.6 192.0,86.4 193.3,86.3 194.6,86.1 196.0,85.8 197.3,85.5 198.6,85.3 199.9,85.1 201.2,84.9 202.5,84.8 203.9,84.6 205.2,84.5 206.5,84.0 207.8,83.7 209.1,83.4 210.4,83.2 211.8,83.2 213.1,83.0 214.4,82.8 215.7,82.6 217.0,82.4 218.3,82.1 219.7,81.9 221.0,81.8 222.3,81.7 223.6,81.5 224.9,81.4 226.2,81.2 227.6,81.1 228.9,80.8 230.2,80.7 231.5,80.6 232.8,80.5 234.1,80.4 235.5,80.1 236.8,80.0 238.1,79.7 239.4,79.5 240.7,79.3 242.0,79.2 243.4,79.1 244.7,79.0 246.0,78.7 247.3,78.4 248.6,78.3 250.0,78.1 251.3,77.7 252.6,77.6 253.9,77.5 255.2,77.4 256.5,77.3 257.9,77.1 259.2,76.9 260.5,76.8 261.8,76.6 263.1,76.5 264.4,76.3 265.8,76.2 267.1,76.2 268.4,76.0 269.7,75.7 271.0,75.6 272.3,75.4 273.7,75.3 275.0,75.2 276.3,75.1 277.6,74.9 278.9,74.8 280.2,74.7 281.6,74.4 282.9,74.1 284.2,73.9 285.5,73.8 286.8,73.7 288.1,73.7 289.5,73.5 290.8,73.2 292.1,73.1 293.4,73.0 294.7,72.8 296.0,72.7 297.4,72.5 298.7,72.4 300.0,72.3 301.3,72.1 302.6,71.9 304.0,71.7 305.3,71.5 306.6,71.4 307.9,71.4 309.2,71.3 310.5,71.2 311.9,71.0 313.2,70.9 314.5,70.7 315.8,70.5 317.1,70.4 318.4,70.3 319.8,70.2 321.1,70.1 322.4,69.9 323.7,69.7 325.0,69.5 326.3,69.4 327.7,69.2 329.0,69.2 330.3,69.1 331.6,69.0 332.9,68.9 334.2,68.8 335.6,68.5 336.9,68.4 338.2,68.3 339.5,68.2 340.8,68.0 342.1,67.9 343.5,67.7 344.8,67.6 346.1,67.5 347.4,67.4 348.7,67.2 350.0,67.1 351.4,66.9 352.7,66.9 354.0,66.8 355.3,66.7 356.6,66.6 358.0,66.4 359.3,66.3 360.6,66.3 361.9,66.1 363.2,65.8 364.5,65.6 365.9,69.7 367.2,68.9 368.5,67.4 369.8,66.8 371.1,66.1 372.4,65.2 373.8,64.7 375.1,64.4 376.4,63.8 377.7,62.9 379.0,62.3 380.3,62.1 381.7,61.7 383.0,61.5 384.3,61.0 385.6,60.6 386.9,60.1 388.2,59.8 389.6,59.4 390.9,59.2 392.2,58.8 393.5,58.7 394.8,58.4 396.1,58.2 397.5,57.7 398.8,57.4 400.1,57.0 401.4,56.5 402.7,56.1 404.0,56.0 405.4,55.8 406.7,55.6 408.0,55.2 409.3,54.9 410.6,54.6 412.0,53.8 413.3,53.1 414.6,52.8 415.9,52.7 417.2,52.4 418.5,52.0 419.9,51.6 421.2,51.3 422.5,51.0 423.8,50.7 425.1,50.5 426.4,50.2 427.8,49.8 429.1,49.6 430.4,49.4 431.7,49.3 433.0,48.9 434.3,48.6 435.7,48.4 437.0,48.3 438.3,48.1 439.6,47.9 440.9,47.7 442.2,47.5 443.6,47.4 444.9,47.2 446.2,47.1 447.5,46.8 448.8,46.6 450.1,46.3 451.5,45.9 452.8,45.7 454.1,45.5 455.4,45.4 456.7,45.2 458.0,45.0 459.4,44.9 460.7,44.7 462.0,44.6 463.3,44.5 464.6,44.3 466.0,44.2 467.3,43.9 468.6,43.8 469.9,43.6 471.2,43.4 472.5,43.1 473.9,42.7 475.2,42.5 476.5,42.3 477.8,42.1 479.1,41.9 480.4,41.7 481.8,41.5 483.1,41.3 484.4,41.2 485.7,41.1 487.0,40.9 488.3,40.6 489.7,40.5 491.0,40.4 492.3,40.1 493.6,39.9 494.9,39.7 496.2,39.5 497.6,39.3 498.9,39.0 500.2,38.8 501.5,38.6 502.8,38.5 504.1,38.3 505.5,38.2 506.8,38.0 508.1,37.8 509.4,37.6 510.7,37.5 512.0,37.4 513.4,37.2 514.7,37.0 516.0,36.9 517.3,36.8 518.6,36.6 520.0,36.5 521.3,36.4 522.6,36.2 523.9,36.0 525.2,35.9 526.5,35.8 527.9,35.6 529.2,35.4 530.5,35.2 531.8,35.1 533.1,35.0 534.4,34.8 535.8,34.6 537.1,34.4 538.4,34.1 539.7,34.0 541.0,33.9 542.3,33.9 543.7,33.7 545.0,33.6 546.3,33.3 547.6,33.0 548.9,33.0 550.2,32.7 551.6,32.6 552.9,32.5 554.2,32.3 555.5,32.2 556.8,31.9 558.1,31.7 559.5,31.6 560.8,31.4 562.1,31.2 563.4,31.0 564.7,30.7 566.0,30.6 567.4,30.5 568.7,30.2 570.0,30.0" />
  
  <!-- Punto finale luminoso -->
  <circle cx="570.0" cy="30.0" r="4" fill="#ffffff" stroke="#0366d6" stroke-width="2.5" />
</svg>