<svg width="600" height="150" viewBox="0 0 600 150" xmlns="http://www.w3.org/2000/svg">
  <defs>
    <filter id="shadow2" x="-2%" y="-2%" width="104%" height="108%">
      <feDropShadow dx="0" dy="2" stdDeviation="3" flood-opacity="0.1" />
    </filter>
    <linearGradient id="fillGrad" x1="0" y1="0" x2="0" y2="1">
      <stop offset="0%" stop-color="#0366d6" stop-opacity="0.3"/>
      <stop offset="100%" stop-color="#0366d6" stop-opacity="0.02"/>
    </linearGradient>
  </defs>
  <rect width="600" height="150" rx="12" fill="#ffffff" filter="url(#shadow2)" stroke="#e1e4e8" stroke-width="1"/>
  <text x="20" y="24" fill="#2b3137" font-family="-apple-system,BlinkMacSystemFont,'Segoe UI',Helvetica,Arial,sans-serif" font-size="14" font-weight="600">📈 Download Growth (Actual: 87.3k)</text>
  
  <!-- Area sotto la linea -->
  <polygon fill="url(#fillGrad)" points="30.0,120.0,120 30.0,120.0 31.3,119.5 32.7,119.0 34.0,118.5 35.3,118.4 36.6,118.1 38.0,117.6 39.3,117.2 40.6,116.9 41.9,116.3 43.3,116.0 44.6,115.7 45.9,115.6 47.2,115.3 48.6,114.9 49.9,114.5 51.2,114.2 52.6,113.9 53.9,113.8 55.2,113.5 56.5,113.2 57.9,112.9 59.2,112.8 60.5,112.5 61.8,111.6 63.2,111.3 64.5,111.0 65.8,110.6 67.1,110.3 68.5,110.0 69.8,109.8 71.1,109.6 72.5,109.4 73.8,108.9 75.1,108.5 76.4,108.3 77.8,107.9 79.1,107.9 80.4,107.8 81.7,107.6 83.1,107.3 84.4,107.1 85.7,107.0 87.1,106.7 88.4,106.2 89.7,106.1 91.0,106.0 92.4,105.8 93.7,105.4 95.0,105.1 96.3,104.7 97.7,104.4 99.0,104.0 100.3,104.0 101.6,103.7 103.0,103.4 104.3,103.0 105.6,102.7 107.0,102.6 108.3,102.4 109.6,102.2 110.9,101.8 112.3,101.4 113.6,101.1 114.9,100.7 116.2,100.6 117.6,100.4 118.9,100.3 120.2,100.0 121.5,99.8 122.9,99.7 124.2,99.5 125.5,99.4 126.9,99.2 128.2,99.1 129.5,99.0 130.8,98.9 132.2,98.5 133.5,98.3 134.8,98.2 136.1,98.1 137.5,98.0 138.8,98.0 140.1,104.3 141.4,103.7 142.8,103.1 144.1,102.5 145.4,100.8 146.8,99.6 148.1,98.4 149.4,97.9 150.7,97.3 152.1,96.5 153.4,95.5 154.7,94.8 156.0,94.5 157.4,94.3 158.7,93.6 160.0,93.1 161.4,92.8 162.7,92.4 164.0,92.2 165.3,92.1 166.7,91.8 168.0,91.2 169.3,90.8 170.6,90.3 172.0,89.9 173.3,89.6 174.6,89.5 175.9,89.1 177.3,88.7 178.6,88.3 179.9,88.1 181.3,87.9 182.6,87.9 183.9,87.6 185.2,87.3 186.6,87.1 187.9,86.9 189.2,86.7 190.5,86.5 191.9,86.3 193.2,86.2 194.5,86.0 195.8,85.9 197.2,85.5 198.5,85.3 199.8,85.0 201.2,84.9 202.5,84.7 203.8,84.5 205.1,84.4 206.5,84.2 207.8,83.8 209.1,83.5 210.4,83.1 211.8,83.0 213.1,82.9 214.4,82.7 215.7,82.5 217.1,82.3 218.4,82.1 219.7,81.8 221.1,81.6 222.4,81.5 223.7,81.4 225.0,81.3 226.4,81.1 227.7,81.0 229.0,80.8 230.3,80.5 231.7,80.4 233.0,80.3 234.3,80.2 235.7,80.1 237.0,79.9 238.3,79.7 239.6,79.5 241.0,79.3 242.3,79.1 243.6,78.9 244.9,78.8 246.3,78.7 247.6,78.4 248.9,78.1 250.2,78.0 251.6,77.8 252.9,77.4 254.2,77.3 255.6,77.2 256.9,77.1 258.2,77.0 259.5,76.8 260.9,76.6 262.2,76.5 263.5,76.3 264.8,76.2 266.2,76.0 267.5,75.9 268.8,75.8 270.1,75.7 271.5,75.4 272.8,75.3 274.1,75.1 275.5,75.0 276.8,74.9 278.1,74.7 279.4,74.6 280.8,74.5 282.1,74.4 283.4,74.1 284.7,73.8 286.1,73.6 287.4,73.5 288.7,73.4 290.0,73.3 291.4,73.1 292.7,72.9 294.0,72.8 295.4,72.7 296.7,72.5 298.0,72.4 299.3,72.2 300.7,72.1 302.0,72.0 303.3,71.7 304.6,71.6 306.0,71.4 307.3,71.2 308.6,71.1 310.0,71.0 311.3,71.0 312.6,70.8 313.9,70.7 315.3,70.5 316.6,70.4 317.9,70.2 319.2,70.1 320.6,70.0 321.9,69.8 323.2,69.7 324.5,69.5 325.9,69.3 327.2,69.2 328.5,69.0 329.9,68.9 331.2,68.8 332.5,68.7 333.8,68.6 335.2,68.5 336.5,68.4 337.8,68.2 339.1,68.0 340.5,67.9 341.8,67.8 343.1,67.7 344.4,67.5 345.8,67.4 347.1,67.3 348.4,67.1 349.8,67.0 351.1,66.8 352.4,66.7 353.7,66.6 355.1,66.5 356.4,66.4 357.7,66.3 359.0,66.2 360.4,66.0 361.7,65.9 363.0,65.9 364.3,65.8 365.7,65.5 367.0,65.3 368.3,69.4 369.7,68.6 371.0,67.0 372.3,66.4 373.6,65.7 375.0,64.8 376.3,64.3 377.6,64.0 378.9,63.4 380.3,62.5 381.6,61.9 382.9,61.7 384.3,61.3 385.6,61.0 386.9,60.6 388.2,60.2 389.6,59.6 390.9,59.4 392.2,59.0 393.5,58.7 394.9,58.4 396.2,58.2 397.5,58.0 398.8,57.8 400.2,57.3 401.5,57.0 402.8,56.6 404.2,56.0 405.5,55.7 406.8,55.5 408.1,55.4 409.5,55.1 410.8,54.8 412.1,54.4 413.4,54.2 414.8,53.3 416.1,52.7 417.4,52.4 418.7,52.2 420.1,51.9 421.4,51.5 422.7,51.1 424.1,50.8 425.4,50.6 426.7,50.3 428.0,50.0 429.4,49.7 430.7,49.3 432.0,49.1 433.3,48.9 434.7,48.8 436.0,48.4 437.3,48.1 438.6,47.9 440.0,47.8 441.3,47.6 442.6,47.4 444.0,47.2 445.3,47.0 446.6,46.8 447.9,46.7 449.3,46.5 450.6,46.3 451.9,46.1 453.2,45.8 454.6,45.4 455.9,45.2 457.2,45.0 458.6,44.8 459.9,44.7 461.2,44.5 462.5,44.3 463.9,44.2 465.2,44.1 466.5,43.9 467.8,43.7 469.2,43.6 470.5,43.3 471.8,43.2 473.1,43.1 474.5,42.8 475.8,42.5 477.1,42.2 478.5,42.0 479.8,41.8 481.1,41.6 482.4,41.4 483.8,41.1 485.1,40.9 486.4,40.7 487.7,40.6 489.1,40.5 490.4,40.3 491.7,40.1 493.0,39.9 494.4,39.8 495.7,39.6 497.0,39.3 498.4,39.2 499.7,38.9 501.0,38.7 502.3,38.4 503.7,38.2 505.0,38.1 506.3,37.9 507.6,37.8 509.0,37.6 510.3,37.4 511.6,37.3 512.9,37.0 514.3,36.9 515.6,36.8 516.9,36.6 518.3,36.5 519.6,36.3 520.9,36.2 522.2,36.0 523.6,36.0 524.9,35.8 526.2,35.6 527.5,35.5 528.9,35.3 530.2,35.2 531.5,35.0 532.9,34.8 534.2,34.6 535.5,34.5 536.8,34.4 538.2,34.2 539.5,34.0 540.8,33.8 542.1,33.5 543.5,33.4 544.8,33.3 546.1,33.3 547.4,33.1 548.8,33.0 550.1,32.7 551.4,32.4 552.8,32.3 554.1,32.1 555.4,32.0 556.7,31.9 558.1,31.7 559.4,31.5 560.7,31.3 562.0,31.1 563.4,31.0 564.7,30.8 566.0,30.6 567.3,30.4 568.7,30.1 570.0,30.0 570.0,30.0,120" />
  
  <!-- Linea principale -->
  <polyline fill="none" stroke="#0366d6" stroke-width="2.5" stroke-linecap="round" stroke-linejoin="round" points="30.0,120.0 31.3,119.5 32.7,119.0 34.0,118.5 35.3,118.4 36.6,118.1 38.0,117.6 39.3,117.2 40.6,116.9 41.9,116.3 43.3,116.0 44.6,115.7 45.9,115.6 47.2,115.3 48.6,114.9 49.9,114.5 51.2,114.2 52.6,113.9 53.9,113.8 55.2,113.5 56.5,113.2 57.9,112.9 59.2,112.8 60.5,112.5 61.8,111.6 63.2,111.3 64.5,111.0 65.8,110.6 67.1,110.3 68.5,110.0 69.8,109.8 71.1,109.6 72.5,109.4 73.8,108.9 75.1,108.5 76.4,108.3 77.8,107.9 79.1,107.9 80.4,107.8 81.7,107.6 83.1,107.3 84.4,107.1 85.7,107.0 87.1,106.7 88.4,106.2 89.7,106.1 91.0,106.0 92.4,105.8 93.7,105.4 95.0,105.1 96.3,104.7 97.7,104.4 99.0,104.0 100.3,104.0 101.6,103.7 103.0,103.4 104.3,103.0 105.6,102.7 107.0,102.6 108.3,102.4 109.6,102.2 110.9,101.8 112.3,101.4 113.6,101.1 114.9,100.7 116.2,100.6 117.6,100.4 118.9,100.3 120.2,100.0 121.5,99.8 122.9,99.7 124.2,99.5 125.5,99.4 126.9,99.2 128.2,99.1 129.5,99.0 130.8,98.9 132.2,98.5 133.5,98.3 134.8,98.2 136.1,98.1 137.5,98.0 138.8,98.0 140.1,104.3 141.4,103.7 142.8,103.1 144.1,102.5 145.4,100.8 146.8,99.6 148.1,98.4 149.4,97.9 150.7,97.3 152.1,96.5 153.4,95.5 154.7,94.8 156.0,94.5 157.4,94.3 158.7,93.6 160.0,93.1 161.4,92.8 162.7,92.4 164.0,92.2 165.3,92.1 166.7,91.8 168.0,91.2 169.3,90.8 170.6,90.3 172.0,89.9 173.3,89.6 174.6,89.5 175.9,89.1 177.3,88.7 178.6,88.3 179.9,88.1 181.3,87.9 182.6,87.9 183.9,87.6 185.2,87.3 186.6,87.1 187.9,86.9 189.2,86.7 190.5,86.5 191.9,86.3 193.2,86.2 194.5,86.0 195.8,85.9 197.2,85.5 198.5,85.3 199.8,85.0 201.2,84.9 202.5,84.7 203.8,84.5 205.1,84.4 206.5,84.2 207.8,83.8 209.1,83.5 210.4,83.1 211.8,83.0 213.1,82.9 214.4,82.7 215.7,82.5 217.1,82.3 218.4,82.1 219.7,81.8 221.1,81.6 222.4,81.5 223.7,81.4 225.0,81.3 226.4,81.1 227.7,81.0 229.0,80.8 230.3,80.5 231.7,80.4 233.0,80.3 234.3,80.2 235.7,80.1 237.0,79.9 238.3,79.7 239.6,79.5 241.0,79.3 242.3,79.1 243.6,78.9 244.9,78.8 246.3,78.7 247.6,78.4 248.9,78.1 250.2,78.0 251.6,77.8 252.9,77.4 254.2,77.3 255.6,77.2 256.9,77.1 258.2,77.0 259.5,76.8 260.9,76.6 262.2,76.5 263.5,76.3 264.8,76.2 266.2,76.0 267.5,75.9 268.8,75.8 270.1,75.7 271.5,75.4 272.8,75.3 274.1,75.1 275.5,75.0 276.8,74.9 278.1,74.7 279.4,74.6 280.8,74.5 282.1,74.4 283.4,74.1 284.7,73.8 286.1,73.6 287.4,73.5 288.7,73.4 290.0,73.3 291.4,73.1 292.7,72.9 294.0,72.8 295.4,72.7 296.7,72.5 298.0,72.4 299.3,72.2 300.7,72.1 302.0,72.0 303.3,71.7 304.6,71.6 306.0,71.4 307.3,71.2 308.6,71.1 310.0,71.0 311.3,71.0 312.6,70.8 313.9,70.7 315.3,70.5 316.6,70.4 317.9,70.2 319.2,70.1 320.6,70.0 321.9,69.8 323.2,69.7 324.5,69.5 325.9,69.3 327.2,69.2 328.5,69.0 329.9,68.9 331.2,68.8 332.5,68.7 333.8,68.6 335.2,68.5 336.5,68.4 337.8,68.2 339.1,68.0 340.5,67.9 341.8,67.8 343.1,67.7 344.4,67.5 345.8,67.4 347.1,67.3 348.4,67.1 349.8,67.0 351.1,66.8 352.4,66.7 353.7,66.6 355.1,66.5 356.4,66.4 357.7,66.3 359.0,66.2 360.4,66.0 361.7,65.9 363.0,65.9 364.3,65.8 365.7,65.5 367.0,65.3 368.3,69.4 369.7,68.6 371.0,67.0 372.3,66.4 373.6,65.7 375.0,64.8 376.3,64.3 377.6,64.0 378.9,63.4 380.3,62.5 381.6,61.9 382.9,61.7 384.3,61.3 385.6,61.0 386.9,60.6 388.2,60.2 389.6,59.6 390.9,59.4 392.2,59.0 393.5,58.7 394.9,58.4 396.2,58.2 397.5,58.0 398.8,57.8 400.2,57.3 401.5,57.0 402.8,56.6 404.2,56.0 405.5,55.7 406.8,55.5 408.1,55.4 409.5,55.1 410.8,54.8 412.1,54.4 413.4,54.2 414.8,53.3 416.1,52.7 417.4,52.4 418.7,52.2 420.1,51.9 421.4,51.5 422.7,51.1 424.1,50.8 425.4,50.6 426.7,50.3 428.0,50.0 429.4,49.7 430.7,49.3 432.0,49.1 433.3,48.9 434.7,48.8 436.0,48.4 437.3,48.1 438.6,47.9 440.0,47.8 441.3,47.6 442.6,47.4 444.0,47.2 445.3,47.0 446.6,46.8 447.9,46.7 449.3,46.5 450.6,46.3 451.9,46.1 453.2,45.8 454.6,45.4 455.9,45.2 457.2,45.0 458.6,44.8 459.9,44.7 461.2,44.5 462.5,44.3 463.9,44.2 465.2,44.1 466.5,43.9 467.8,43.7 469.2,43.6 470.5,43.3 471.8,43.2 473.1,43.1 474.5,42.8 475.8,42.5 477.1,42.2 478.5,42.0 479.8,41.8 481.1,41.6 482.4,41.4 483.8,41.1 485.1,40.9 486.4,40.7 487.7,40.6 489.1,40.5 490.4,40.3 491.7,40.1 493.0,39.9 494.4,39.8 495.7,39.6 497.0,39.3 498.4,39.2 499.7,38.9 501.0,38.7 502.3,38.4 503.7,38.2 505.0,38.1 506.3,37.9 507.6,37.8 509.0,37.6 510.3,37.4 511.6,37.3 512.9,37.0 514.3,36.9 515.6,36.8 516.9,36.6 518.3,36.5 519.6,36.3 520.9,36.2 522.2,36.0 523.6,36.0 524.9,35.8 526.2,35.6 527.5,35.5 528.9,35.3 530.2,35.2 531.5,35.0 532.9,34.8 534.2,34.6 535.5,34.5 536.8,34.4 538.2,34.2 539.5,34.0 540.8,33.8 542.1,33.5 543.5,33.4 544.8,33.3 546.1,33.3 547.4,33.1 548.8,33.0 550.1,32.7 551.4,32.4 552.8,32.3 554.1,32.1 555.4,32.0 556.7,31.9 558.1,31.7 559.4,31.5 560.7,31.3 562.0,31.1 563.4,31.0 564.7,30.8 566.0,30.6 567.3,30.4 568.7,30.1 570.0,30.0" />
  
  <!-- Punto finale luminoso -->
  <circle cx="570.0" cy="30.0" r="4" fill="#ffffff" stroke="#0366d6" stroke-width="2.5" />
</svg>