<svg width="600" height="150" viewBox="0 0 600 150" xmlns="http://www.w3.org/2000/svg">
  <defs>
    <filter id="shadow2" x="-2%" y="-2%" width="104%" height="108%">
      <feDropShadow dx="0" dy="2" stdDeviation="3" flood-opacity="0.1" />
    </filter>
    <linearGradient id="fillGrad" x1="0" y1="0" x2="0" y2="1">
      <stop offset="0%" stop-color="#0366d6" stop-opacity="0.3"/>
      <stop offset="100%" stop-color="#0366d6" stop-opacity="0.02"/>
    </linearGradient>
  </defs>
  <rect width="600" height="150" rx="12" fill="#ffffff" filter="url(#shadow2)" stroke="#e1e4e8" stroke-width="1"/>
  <text x="20" y="24" fill="#2b3137" font-family="-apple-system,BlinkMacSystemFont,'Segoe UI',Helvetica,Arial,sans-serif" font-size="14" font-weight="600">📈 Download Growth (Actual: 76.6k)</text>
  
  <!-- Area sotto la linea -->
  <polygon fill="url(#fillGrad)" points="30.0,120.0,120 30.0,120.0 33.2,119.0 36.4,117.8 39.5,116.9 42.7,116.6 45.9,116.1 49.1,114.9 52.2,114.1 55.4,113.5 58.6,112.3 61.8,111.7 64.9,111.0 68.1,110.7 71.3,110.1 74.5,109.3 77.6,108.4 80.8,107.7 84.0,107.3 87.2,106.9 90.4,106.4 93.5,105.7 96.7,105.1 99.9,104.9 103.1,104.3 106.2,102.4 109.4,101.8 112.6,101.0 115.8,100.2 118.9,99.6 122.1,98.9 125.3,98.5 128.5,98.2 131.6,97.6 134.8,96.7 138.0,95.8 141.2,95.3 144.4,94.6 147.5,94.4 150.7,94.3 153.9,93.9 157.1,93.3 160.2,92.9 163.4,92.7 166.6,92.0 169.8,90.9 172.9,90.7 176.1,90.5 179.3,90.0 182.5,89.2 185.6,88.7 188.8,87.8 192.0,87.2 195.2,86.4 198.4,86.3 201.5,85.8 204.7,85.0 207.9,84.2 211.1,83.6 214.2,83.4 217.4,83.0 220.6,82.6 223.8,81.7 226.9,80.9 230.1,80.2 233.3,79.5 236.5,79.1 239.6,78.9 242.8,78.6 246.0,78.0 249.2,77.6 252.4,77.2 255.5,76.9 258.7,76.7 261.9,76.2 265.1,76.0 268.2,75.8 271.4,75.6 274.6,74.8 277.8,74.3 280.9,74.2 284.1,73.9 287.3,73.7 290.5,73.7 293.6,87.0 296.8,85.7 300.0,84.5 303.2,83.3 306.4,79.7 309.5,77.2 312.7,74.4 315.9,73.4 319.1,72.3 322.2,70.5 325.4,68.4 328.6,67.0 331.8,66.4 334.9,65.9 338.1,64.4 341.3,63.4 344.5,62.7 347.6,61.8 350.8,61.5 354.0,61.3 357.2,60.6 360.4,59.3 363.5,58.5 366.7,57.6 369.9,56.6 373.1,56.1 376.2,55.7 379.4,54.9 382.6,54.1 385.8,53.4 388.9,52.8 392.1,52.5 395.3,52.4 398.5,51.9 401.6,51.3 404.8,50.8 408.0,50.3 411.2,49.9 414.4,49.5 417.5,49.2 420.7,48.8 423.9,48.5 427.1,48.2 430.2,47.5 433.4,47.0 436.6,46.4 439.8,46.0 442.9,45.6 446.1,45.4 449.3,45.1 452.5,44.8 455.6,43.8 458.8,43.2 462.0,42.4 465.2,42.1 468.4,42.0 471.5,41.6 474.7,41.2 477.9,40.7 481.1,40.2 484.2,39.6 487.4,39.3 490.6,39.1 493.8,38.8 496.9,38.5 500.1,38.2 503.3,37.9 506.5,37.5 509.6,37.0 512.8,36.7 516.0,36.5 519.2,36.2 522.4,36.0 525.5,35.5 528.7,35.1 531.9,34.7 535.1,34.3 538.2,33.9 541.4,33.6 544.6,33.4 547.8,33.1 550.9,32.5 554.1,31.9 557.3,31.5 560.5,31.1 563.6,30.4 566.8,30.2 570.0,30.0 570.0,30.0,120" />
  
  <!-- Linea principale -->
  <polyline fill="none" stroke="#0366d6" stroke-width="2.5" stroke-linecap="round" stroke-linejoin="round" points="30.0,120.0 33.2,119.0 36.4,117.8 39.5,116.9 42.7,116.6 45.9,116.1 49.1,114.9 52.2,114.1 55.4,113.5 58.6,112.3 61.8,111.7 64.9,111.0 68.1,110.7 71.3,110.1 74.5,109.3 77.6,108.4 80.8,107.7 84.0,107.3 87.2,106.9 90.4,106.4 93.5,105.7 96.7,105.1 99.9,104.9 103.1,104.3 106.2,102.4 109.4,101.8 112.6,101.0 115.8,100.2 118.9,99.6 122.1,98.9 125.3,98.5 128.5,98.2 131.6,97.6 134.8,96.7 138.0,95.8 141.2,95.3 144.4,94.6 147.5,94.4 150.7,94.3 153.9,93.9 157.1,93.3 160.2,92.9 163.4,92.7 166.6,92.0 169.8,90.9 172.9,90.7 176.1,90.5 179.3,90.0 182.5,89.2 185.6,88.7 188.8,87.8 192.0,87.2 195.2,86.4 198.4,86.3 201.5,85.8 204.7,85.0 207.9,84.2 211.1,83.6 214.2,83.4 217.4,83.0 220.6,82.6 223.8,81.7 226.9,80.9 230.1,80.2 233.3,79.5 236.5,79.1 239.6,78.9 242.8,78.6 246.0,78.0 249.2,77.6 252.4,77.2 255.5,76.9 258.7,76.7 261.9,76.2 265.1,76.0 268.2,75.8 271.4,75.6 274.6,74.8 277.8,74.3 280.9,74.2 284.1,73.9 287.3,73.7 290.5,73.7 293.6,87.0 296.8,85.7 300.0,84.5 303.2,83.3 306.4,79.7 309.5,77.2 312.7,74.4 315.9,73.4 319.1,72.3 322.2,70.5 325.4,68.4 328.6,67.0 331.8,66.4 334.9,65.9 338.1,64.4 341.3,63.4 344.5,62.7 347.6,61.8 350.8,61.5 354.0,61.3 357.2,60.6 360.4,59.3 363.5,58.5 366.7,57.6 369.9,56.6 373.1,56.1 376.2,55.7 379.4,54.9 382.6,54.1 385.8,53.4 388.9,52.8 392.1,52.5 395.3,52.4 398.5,51.9 401.6,51.3 404.8,50.8 408.0,50.3 411.2,49.9 414.4,49.5 417.5,49.2 420.7,48.8 423.9,48.5 427.1,48.2 430.2,47.5 433.4,47.0 436.6,46.4 439.8,46.0 442.9,45.6 446.1,45.4 449.3,45.1 452.5,44.8 455.6,43.8 458.8,43.2 462.0,42.4 465.2,42.1 468.4,42.0 471.5,41.6 474.7,41.2 477.9,40.7 481.1,40.2 484.2,39.6 487.4,39.3 490.6,39.1 493.8,38.8 496.9,38.5 500.1,38.2 503.3,37.9 506.5,37.5 509.6,37.0 512.8,36.7 516.0,36.5 519.2,36.2 522.4,36.0 525.5,35.5 528.7,35.1 531.9,34.7 535.1,34.3 538.2,33.9 541.4,33.6 544.6,33.4 547.8,33.1 550.9,32.5 554.1,31.9 557.3,31.5 560.5,31.1 563.6,30.4 566.8,30.2 570.0,30.0" />
  
  <!-- Punto finale luminoso -->
  <circle cx="570.0" cy="30.0" r="4" fill="#ffffff" stroke="#0366d6" stroke-width="2.5" />
</svg>