<svg width="600" height="150" viewBox="0 0 600 150" xmlns="http://www.w3.org/2000/svg">
  <defs>
    <filter id="shadow2" x="-2%" y="-2%" width="104%" height="108%">
      <feDropShadow dx="0" dy="2" stdDeviation="3" flood-opacity="0.1" />
    </filter>
    <linearGradient id="fillGrad" x1="0" y1="0" x2="0" y2="1">
      <stop offset="0%" stop-color="#0366d6" stop-opacity="0.3"/>
      <stop offset="100%" stop-color="#0366d6" stop-opacity="0.02"/>
    </linearGradient>
  </defs>
  <rect width="600" height="150" rx="12" fill="#ffffff" filter="url(#shadow2)" stroke="#e1e4e8" stroke-width="1"/>
  <text x="20" y="24" fill="#2b3137" font-family="-apple-system,BlinkMacSystemFont,'Segoe UI',Helvetica,Arial,sans-serif" font-size="14" font-weight="600">📈 Download Growth (Actual: 76.2k)</text>
  
  <!-- Area sotto la linea -->
  <polygon fill="url(#fillGrad)" points="30.0,120.0,120 30.0,120.0 33.4,118.9 36.8,117.7 40.1,116.7 43.5,116.4 46.9,115.9 50.2,114.6 53.6,113.8 57.0,113.2 60.4,111.9 63.8,111.3 67.1,110.6 70.5,110.3 73.9,109.7 77.2,108.8 80.6,107.9 84.0,107.2 87.4,106.7 90.8,106.3 94.1,105.8 97.5,105.1 100.9,104.5 104.2,104.2 107.6,103.6 111.0,101.6 114.4,101.0 117.8,100.2 121.1,99.3 124.5,98.6 127.9,98.0 131.2,97.5 134.6,97.2 138.0,96.6 141.4,95.6 144.8,94.8 148.1,94.2 151.5,93.5 154.9,93.3 158.2,93.1 161.6,92.8 165.0,92.1 168.4,91.7 171.8,91.5 175.1,90.7 178.5,89.6 181.9,89.3 185.2,89.1 188.6,88.7 192.0,87.8 195.4,87.3 198.8,86.4 202.1,85.7 205.5,84.9 208.9,84.7 212.2,84.3 215.6,83.4 219.0,82.6 222.4,82.0 225.8,81.7 229.1,81.3 232.5,80.9 235.9,80.0 239.2,79.2 242.6,78.4 246.0,77.6 249.4,77.3 252.8,77.0 256.1,76.7 259.5,76.1 262.9,75.7 266.2,75.3 269.6,75.0 273.0,74.7 276.4,74.3 279.8,74.0 283.1,73.8 286.5,73.6 289.9,72.7 293.2,72.3 296.6,72.1 300.0,71.8 303.4,71.7 306.8,71.7 310.1,85.5 313.5,84.1 316.9,82.9 320.2,81.6 323.6,77.9 327.0,75.2 330.4,72.4 333.8,71.4 337.1,70.2 340.5,68.2 343.9,66.1 347.2,64.6 350.6,64.0 354.0,63.4 357.4,61.9 360.8,60.8 364.1,60.1 367.5,59.2 370.9,58.9 374.2,58.7 377.6,57.9 381.0,56.6 384.4,55.7 387.8,54.8 391.1,53.7 394.5,53.2 397.9,52.9 401.2,52.0 404.6,51.2 408.0,50.4 411.4,49.8 414.8,49.5 418.1,49.3 421.5,48.9 424.9,48.2 428.2,47.7 431.6,47.2 435.0,46.8 438.4,46.4 441.8,46.0 445.1,45.6 448.5,45.3 451.9,45.0 455.2,44.2 458.6,43.7 462.0,43.1 465.4,42.7 468.8,42.3 472.1,42.1 475.5,41.7 478.9,41.4 482.2,40.4 485.6,39.7 489.0,38.9 492.4,38.6 495.8,38.5 499.1,38.1 502.5,37.7 505.9,37.1 509.2,36.7 512.6,36.0 516.0,35.6 519.4,35.4 522.8,35.1 526.1,34.9 529.5,34.6 532.9,34.2 536.2,33.8 539.6,33.2 543.0,33.0 546.4,32.8 549.8,32.5 553.1,32.3 556.5,31.8 559.9,31.3 563.2,30.9 566.6,30.4 570.0,30.0 570.0,30.0,120" />
  
  <!-- Linea principale -->
  <polyline fill="none" stroke="#0366d6" stroke-width="2.5" stroke-linecap="round" stroke-linejoin="round" points="30.0,120.0 33.4,118.9 36.8,117.7 40.1,116.7 43.5,116.4 46.9,115.9 50.2,114.6 53.6,113.8 57.0,113.2 60.4,111.9 63.8,111.3 67.1,110.6 70.5,110.3 73.9,109.7 77.2,108.8 80.6,107.9 84.0,107.2 87.4,106.7 90.8,106.3 94.1,105.8 97.5,105.1 100.9,104.5 104.2,104.2 107.6,103.6 111.0,101.6 114.4,101.0 117.8,100.2 121.1,99.3 124.5,98.6 127.9,98.0 131.2,97.5 134.6,97.2 138.0,96.6 141.4,95.6 144.8,94.8 148.1,94.2 151.5,93.5 154.9,93.3 158.2,93.1 161.6,92.8 165.0,92.1 168.4,91.7 171.8,91.5 175.1,90.7 178.5,89.6 181.9,89.3 185.2,89.1 188.6,88.7 192.0,87.8 195.4,87.3 198.8,86.4 202.1,85.7 205.5,84.9 208.9,84.7 212.2,84.3 215.6,83.4 219.0,82.6 222.4,82.0 225.8,81.7 229.1,81.3 232.5,80.9 235.9,80.0 239.2,79.2 242.6,78.4 246.0,77.6 249.4,77.3 252.8,77.0 256.1,76.7 259.5,76.1 262.9,75.7 266.2,75.3 269.6,75.0 273.0,74.7 276.4,74.3 279.8,74.0 283.1,73.8 286.5,73.6 289.9,72.7 293.2,72.3 296.6,72.1 300.0,71.8 303.4,71.7 306.8,71.7 310.1,85.5 313.5,84.1 316.9,82.9 320.2,81.6 323.6,77.9 327.0,75.2 330.4,72.4 333.8,71.4 337.1,70.2 340.5,68.2 343.9,66.1 347.2,64.6 350.6,64.0 354.0,63.4 357.4,61.9 360.8,60.8 364.1,60.1 367.5,59.2 370.9,58.9 374.2,58.7 377.6,57.9 381.0,56.6 384.4,55.7 387.8,54.8 391.1,53.7 394.5,53.2 397.9,52.9 401.2,52.0 404.6,51.2 408.0,50.4 411.4,49.8 414.8,49.5 418.1,49.3 421.5,48.9 424.9,48.2 428.2,47.7 431.6,47.2 435.0,46.8 438.4,46.4 441.8,46.0 445.1,45.6 448.5,45.3 451.9,45.0 455.2,44.2 458.6,43.7 462.0,43.1 465.4,42.7 468.8,42.3 472.1,42.1 475.5,41.7 478.9,41.4 482.2,40.4 485.6,39.7 489.0,38.9 492.4,38.6 495.8,38.5 499.1,38.1 502.5,37.7 505.9,37.1 509.2,36.7 512.6,36.0 516.0,35.6 519.4,35.4 522.8,35.1 526.1,34.9 529.5,34.6 532.9,34.2 536.2,33.8 539.6,33.2 543.0,33.0 546.4,32.8 549.8,32.5 553.1,32.3 556.5,31.8 559.9,31.3 563.2,30.9 566.6,30.4 570.0,30.0" />
  
  <!-- Punto finale luminoso -->
  <circle cx="570.0" cy="30.0" r="4" fill="#ffffff" stroke="#0366d6" stroke-width="2.5" />
</svg>