<svg width="600" height="150" viewBox="0 0 600 150" xmlns="http://www.w3.org/2000/svg">
  <defs>
    <filter id="shadow2" x="-2%" y="-2%" width="104%" height="108%">
      <feDropShadow dx="0" dy="2" stdDeviation="3" flood-opacity="0.1" />
    </filter>
    <linearGradient id="fillGrad" x1="0" y1="0" x2="0" y2="1">
      <stop offset="0%" stop-color="#0366d6" stop-opacity="0.3"/>
      <stop offset="100%" stop-color="#0366d6" stop-opacity="0.02"/>
    </linearGradient>
  </defs>
  <rect width="600" height="150" rx="12" fill="#ffffff" filter="url(#shadow2)" stroke="#e1e4e8" stroke-width="1"/>
  <text x="20" y="24" fill="#2b3137" font-family="-apple-system,BlinkMacSystemFont,'Segoe UI',Helvetica,Arial,sans-serif" font-size="14" font-weight="600">📈 Download Growth (Actual: 80.9k)</text>
  
  <!-- Area sotto la linea -->
  <polygon fill="url(#fillGrad)" points="30.0,120.0,120 30.0,120.0 32.0,119.3 33.9,118.5 35.9,117.8 37.8,117.6 39.8,117.3 41.7,116.4 43.7,115.9 45.7,115.5 47.6,114.7 49.6,114.2 51.5,113.8 53.5,113.6 55.4,113.2 57.4,112.6 59.3,112.0 61.3,111.5 63.3,111.2 65.2,110.9 67.2,110.6 69.1,110.1 71.1,109.7 73.0,109.5 75.0,109.1 77.0,107.8 78.9,107.4 80.9,106.8 82.8,106.3 84.8,105.8 86.7,105.4 88.7,105.1 90.7,104.9 92.6,104.5 94.6,103.8 96.5,103.3 98.5,102.9 100.4,102.4 102.4,102.3 104.3,102.2 106.3,102.0 108.3,101.5 110.2,101.3 112.2,101.1 114.1,100.6 116.1,99.9 118.0,99.7 120.0,99.6 122.0,99.3 123.9,98.7 125.9,98.3 127.8,97.7 129.8,97.3 131.7,96.7 133.7,96.6 135.7,96.3 137.6,95.8 139.6,95.2 141.5,94.8 143.5,94.6 145.4,94.4 147.4,94.1 149.3,93.5 151.3,92.9 153.3,92.4 155.2,91.9 157.2,91.7 159.1,91.5 161.1,91.3 163.0,90.9 165.0,90.6 167.0,90.4 168.9,90.2 170.9,90.0 172.8,89.7 174.8,89.5 176.7,89.4 178.7,89.2 180.7,88.7 182.6,88.4 184.6,88.3 186.5,88.1 188.5,88.0 190.4,88.0 192.4,97.1 194.3,96.2 196.3,95.4 198.3,94.6 200.2,92.1 202.2,90.3 204.1,88.5 206.1,87.8 208.0,87.0 210.0,85.7 212.0,84.3 213.9,83.3 215.9,82.9 217.8,82.5 219.8,81.5 221.7,80.8 223.7,80.3 225.7,79.7 227.6,79.5 229.6,79.4 231.5,78.9 233.5,78.0 235.4,77.4 237.4,76.8 239.3,76.1 241.3,75.8 243.3,75.5 245.2,74.9 247.2,74.4 249.1,73.9 251.1,73.5 253.0,73.3 255.0,73.2 257.0,72.9 258.9,72.4 260.9,72.1 262.8,71.7 264.8,71.5 266.7,71.2 268.7,71.0 270.7,70.7 272.6,70.5 274.6,70.3 276.5,69.8 278.5,69.4 280.4,69.0 282.4,68.8 284.3,68.5 286.3,68.3 288.3,68.1 290.2,67.9 292.2,67.2 294.1,66.8 296.1,66.3 298.0,66.0 300.0,66.0 302.0,65.7 303.9,65.4 305.9,65.1 307.8,64.8 309.8,64.4 311.7,64.1 313.7,64.0 315.7,63.8 317.6,63.6 319.6,63.4 321.5,63.1 323.5,62.9 325.4,62.5 327.4,62.3 329.3,62.2 331.3,62.0 333.3,61.9 335.2,61.5 337.2,61.2 339.1,60.9 341.1,60.7 343.0,60.4 345.0,60.2 347.0,60.0 348.9,59.8 350.9,59.4 352.8,59.0 354.8,58.8 356.7,58.5 358.7,58.0 360.7,57.8 362.6,57.7 364.6,57.6 366.5,57.3 368.5,57.1 370.4,56.8 372.4,56.6 374.3,56.4 376.3,56.2 378.3,55.9 380.2,55.8 382.2,55.7 384.1,55.4 386.1,55.1 388.0,54.9 390.0,54.6 392.0,54.5 393.9,54.3 395.9,54.1 397.8,53.9 399.8,53.7 401.7,53.5 403.7,53.1 405.7,52.7 407.6,52.4 409.6,52.2 411.5,52.1 413.5,52.0 415.4,51.8 417.4,51.4 419.3,51.2 421.3,51.1 423.3,50.8 425.2,50.6 427.2,50.3 429.1,50.2 431.1,50.0 433.0,49.7 435.0,49.5 437.0,49.1 438.9,48.9 440.9,48.7 442.8,48.7 444.8,48.6 446.7,48.4 448.7,48.1 450.7,47.9 452.6,47.7 454.6,47.4 456.5,47.3 458.5,47.1 460.4,46.9 462.4,46.8 464.3,46.5 466.3,46.2 468.3,45.9 470.2,45.7 472.2,45.5 474.1,45.4 476.1,45.3 478.0,45.2 480.0,45.0 482.0,44.8 483.9,44.5 485.9,44.3 487.8,44.1 489.8,44.0 491.7,43.8 493.7,43.6 495.7,43.3 497.6,43.2 499.6,43.0 501.5,42.8 503.5,42.6 505.4,42.4 507.4,42.1 509.3,42.0 511.3,41.9 513.3,41.7 515.2,41.6 517.2,41.4 519.1,41.2 521.1,41.2 523.0,41.0 525.0,40.6 527.0,40.3 528.9,46.2 530.9,45.1 532.8,42.8 534.8,41.9 536.7,40.9 538.7,39.6 540.7,38.9 542.6,38.4 544.6,37.6 546.5,36.3 548.5,35.3 550.4,35.0 552.4,34.5 554.3,34.1 556.3,33.4 558.3,32.8 560.2,32.1 562.2,31.7 564.1,31.1 566.1,30.7 568.0,30.3 570.0,30.0 570.0,30.0,120" />
  
  <!-- Linea principale -->
  <polyline fill="none" stroke="#0366d6" stroke-width="2.5" stroke-linecap="round" stroke-linejoin="round" points="30.0,120.0 32.0,119.3 33.9,118.5 35.9,117.8 37.8,117.6 39.8,117.3 41.7,116.4 43.7,115.9 45.7,115.5 47.6,114.7 49.6,114.2 51.5,113.8 53.5,113.6 55.4,113.2 57.4,112.6 59.3,112.0 61.3,111.5 63.3,111.2 65.2,110.9 67.2,110.6 69.1,110.1 71.1,109.7 73.0,109.5 75.0,109.1 77.0,107.8 78.9,107.4 80.9,106.8 82.8,106.3 84.8,105.8 86.7,105.4 88.7,105.1 90.7,104.9 92.6,104.5 94.6,103.8 96.5,103.3 98.5,102.9 100.4,102.4 102.4,102.3 104.3,102.2 106.3,102.0 108.3,101.5 110.2,101.3 112.2,101.1 114.1,100.6 116.1,99.9 118.0,99.7 120.0,99.6 122.0,99.3 123.9,98.7 125.9,98.3 127.8,97.7 129.8,97.3 131.7,96.7 133.7,96.6 135.7,96.3 137.6,95.8 139.6,95.2 141.5,94.8 143.5,94.6 145.4,94.4 147.4,94.1 149.3,93.5 151.3,92.9 153.3,92.4 155.2,91.9 157.2,91.7 159.1,91.5 161.1,91.3 163.0,90.9 165.0,90.6 167.0,90.4 168.9,90.2 170.9,90.0 172.8,89.7 174.8,89.5 176.7,89.4 178.7,89.2 180.7,88.7 182.6,88.4 184.6,88.3 186.5,88.1 188.5,88.0 190.4,88.0 192.4,97.1 194.3,96.2 196.3,95.4 198.3,94.6 200.2,92.1 202.2,90.3 204.1,88.5 206.1,87.8 208.0,87.0 210.0,85.7 212.0,84.3 213.9,83.3 215.9,82.9 217.8,82.5 219.8,81.5 221.7,80.8 223.7,80.3 225.7,79.7 227.6,79.5 229.6,79.4 231.5,78.9 233.5,78.0 235.4,77.4 237.4,76.8 239.3,76.1 241.3,75.8 243.3,75.5 245.2,74.9 247.2,74.4 249.1,73.9 251.1,73.5 253.0,73.3 255.0,73.2 257.0,72.9 258.9,72.4 260.9,72.1 262.8,71.7 264.8,71.5 266.7,71.2 268.7,71.0 270.7,70.7 272.6,70.5 274.6,70.3 276.5,69.8 278.5,69.4 280.4,69.0 282.4,68.8 284.3,68.5 286.3,68.3 288.3,68.1 290.2,67.9 292.2,67.2 294.1,66.8 296.1,66.3 298.0,66.0 300.0,66.0 302.0,65.7 303.9,65.4 305.9,65.1 307.8,64.8 309.8,64.4 311.7,64.1 313.7,64.0 315.7,63.8 317.6,63.6 319.6,63.4 321.5,63.1 323.5,62.9 325.4,62.5 327.4,62.3 329.3,62.2 331.3,62.0 333.3,61.9 335.2,61.5 337.2,61.2 339.1,60.9 341.1,60.7 343.0,60.4 345.0,60.2 347.0,60.0 348.9,59.8 350.9,59.4 352.8,59.0 354.8,58.8 356.7,58.5 358.7,58.0 360.7,57.8 362.6,57.7 364.6,57.6 366.5,57.3 368.5,57.1 370.4,56.8 372.4,56.6 374.3,56.4 376.3,56.2 378.3,55.9 380.2,55.8 382.2,55.7 384.1,55.4 386.1,55.1 388.0,54.9 390.0,54.6 392.0,54.5 393.9,54.3 395.9,54.1 397.8,53.9 399.8,53.7 401.7,53.5 403.7,53.1 405.7,52.7 407.6,52.4 409.6,52.2 411.5,52.1 413.5,52.0 415.4,51.8 417.4,51.4 419.3,51.2 421.3,51.1 423.3,50.8 425.2,50.6 427.2,50.3 429.1,50.2 431.1,50.0 433.0,49.7 435.0,49.5 437.0,49.1 438.9,48.9 440.9,48.7 442.8,48.7 444.8,48.6 446.7,48.4 448.7,48.1 450.7,47.9 452.6,47.7 454.6,47.4 456.5,47.3 458.5,47.1 460.4,46.9 462.4,46.8 464.3,46.5 466.3,46.2 468.3,45.9 470.2,45.7 472.2,45.5 474.1,45.4 476.1,45.3 478.0,45.2 480.0,45.0 482.0,44.8 483.9,44.5 485.9,44.3 487.8,44.1 489.8,44.0 491.7,43.8 493.7,43.6 495.7,43.3 497.6,43.2 499.6,43.0 501.5,42.8 503.5,42.6 505.4,42.4 507.4,42.1 509.3,42.0 511.3,41.9 513.3,41.7 515.2,41.6 517.2,41.4 519.1,41.2 521.1,41.2 523.0,41.0 525.0,40.6 527.0,40.3 528.9,46.2 530.9,45.1 532.8,42.8 534.8,41.9 536.7,40.9 538.7,39.6 540.7,38.9 542.6,38.4 544.6,37.6 546.5,36.3 548.5,35.3 550.4,35.0 552.4,34.5 554.3,34.1 556.3,33.4 558.3,32.8 560.2,32.1 562.2,31.7 564.1,31.1 566.1,30.7 568.0,30.3 570.0,30.0" />
  
  <!-- Punto finale luminoso -->
  <circle cx="570.0" cy="30.0" r="4" fill="#ffffff" stroke="#0366d6" stroke-width="2.5" />
</svg>