<svg width="600" height="150" viewBox="0 0 600 150" xmlns="http://www.w3.org/2000/svg">
  <defs>
    <filter id="shadow2" x="-2%" y="-2%" width="104%" height="108%">
      <feDropShadow dx="0" dy="2" stdDeviation="3" flood-opacity="0.1" />
    </filter>
    <linearGradient id="fillGrad" x1="0" y1="0" x2="0" y2="1">
      <stop offset="0%" stop-color="#0366d6" stop-opacity="0.3"/>
      <stop offset="100%" stop-color="#0366d6" stop-opacity="0.02"/>
    </linearGradient>
  </defs>
  <rect width="600" height="150" rx="12" fill="#ffffff" filter="url(#shadow2)" stroke="#e1e4e8" stroke-width="1"/>
  <text x="20" y="24" fill="#2b3137" font-family="-apple-system,BlinkMacSystemFont,'Segoe UI',Helvetica,Arial,sans-serif" font-size="14" font-weight="600">📈 Download Growth (Actual: 85.5k)</text>
  
  <!-- Area sotto la linea -->
  <polygon fill="url(#fillGrad)" points="30.0,120.0,120 30.0,120.0 31.5,119.5 33.0,118.9 34.5,118.4 36.0,118.2 37.5,118.0 39.1,117.3 40.6,116.9 42.1,116.6 43.6,116.0 45.1,115.7 46.6,115.3 48.1,115.1 49.6,114.8 51.1,114.4 52.6,113.9 54.1,113.6 55.6,113.3 57.2,113.2 58.7,112.9 60.2,112.5 61.7,112.2 63.2,112.1 64.7,111.8 66.2,110.8 67.7,110.5 69.2,110.1 70.7,109.7 72.2,109.3 73.7,109.0 75.3,108.8 76.8,108.6 78.3,108.3 79.8,107.8 81.3,107.4 82.8,107.1 84.3,106.8 85.8,106.7 87.3,106.6 88.8,106.4 90.3,106.1 91.8,105.9 93.4,105.7 94.9,105.4 96.4,104.8 97.9,104.7 99.4,104.6 100.9,104.4 102.4,103.9 103.9,103.6 105.4,103.2 106.9,102.9 108.4,102.5 109.9,102.4 111.5,102.1 113.0,101.7 114.5,101.3 116.0,101.0 117.5,100.9 119.0,100.7 120.5,100.5 122.0,100.0 123.5,99.6 125.0,99.2 126.5,98.8 128.0,98.6 129.6,98.5 131.1,98.4 132.6,98.1 134.1,97.8 135.6,97.7 137.1,97.5 138.6,97.4 140.1,97.2 141.6,97.0 143.1,96.9 144.6,96.8 146.1,96.4 147.7,96.2 149.2,96.1 150.7,95.9 152.2,95.9 153.7,95.9 155.2,102.8 156.7,102.1 158.2,101.5 159.7,100.8 161.2,98.9 162.7,97.6 164.2,96.2 165.8,95.7 167.3,95.1 168.8,94.1 170.3,93.1 171.8,92.3 173.3,92.0 174.8,91.7 176.3,91.0 177.8,90.4 179.3,90.1 180.8,89.6 182.3,89.5 183.9,89.4 185.4,89.0 186.9,88.3 188.4,87.9 189.9,87.4 191.4,86.9 192.9,86.6 194.4,86.5 195.9,86.0 197.4,85.6 198.9,85.2 200.4,84.9 202.0,84.8 203.5,84.7 205.0,84.5 206.5,84.1 208.0,83.9 209.5,83.6 211.0,83.4 212.5,83.2 214.0,83.0 215.5,82.8 217.0,82.7 218.5,82.5 220.1,82.2 221.6,81.9 223.1,81.6 224.6,81.4 226.1,81.2 227.6,81.1 229.1,80.9 230.6,80.7 232.1,80.2 233.6,79.9 235.1,79.5 236.6,79.3 238.2,79.3 239.7,79.1 241.2,78.9 242.7,78.6 244.2,78.4 245.7,78.1 247.2,77.9 248.7,77.8 250.2,77.6 251.7,77.5 253.2,77.3 254.7,77.1 256.3,77.0 257.8,76.7 259.3,76.5 260.8,76.4 262.3,76.3 263.8,76.2 265.3,75.9 266.8,75.7 268.3,75.5 269.8,75.3 271.3,75.0 272.8,74.9 274.4,74.8 275.9,74.6 277.4,74.3 278.9,74.0 280.4,73.8 281.9,73.6 283.4,73.2 284.9,73.1 286.4,73.0 287.9,72.9 289.4,72.7 290.9,72.6 292.5,72.4 294.0,72.2 295.5,72.0 297.0,71.9 298.5,71.7 300.0,71.6 301.5,71.5 303.0,71.3 304.5,71.0 306.0,70.9 307.5,70.7 309.1,70.6 310.6,70.4 312.1,70.3 313.6,70.2 315.1,70.0 316.6,69.9 318.1,69.6 319.6,69.3 321.1,69.1 322.6,68.9 324.1,68.8 325.6,68.7 327.2,68.5 328.7,68.3 330.2,68.1 331.7,68.0 333.2,67.8 334.7,67.7 336.2,67.5 337.7,67.4 339.2,67.2 340.7,67.0 342.2,66.8 343.7,66.6 345.3,66.4 346.8,66.3 348.3,66.2 349.8,66.1 351.3,66.0 352.8,65.8 354.3,65.7 355.8,65.5 357.3,65.3 358.8,65.2 360.3,65.1 361.8,64.9 363.4,64.8 364.9,64.6 366.4,64.3 367.9,64.2 369.4,64.0 370.9,63.9 372.4,63.8 373.9,63.7 375.4,63.6 376.9,63.5 378.4,63.3 379.9,63.1 381.5,62.9 383.0,62.8 384.5,62.7 386.0,62.5 387.5,62.4 389.0,62.2 390.5,62.1 392.0,61.9 393.5,61.8 395.0,61.6 396.5,61.5 398.0,61.3 399.6,61.2 401.1,61.1 402.6,61.0 404.1,60.9 405.6,60.7 407.1,60.6 408.6,60.6 410.1,60.4 411.6,60.1 413.1,59.9 414.6,64.4 416.1,63.5 417.7,61.8 419.2,61.2 420.7,60.4 422.2,59.4 423.7,58.9 425.2,58.5 426.7,57.9 428.2,56.9 429.7,56.1 431.2,55.9 432.7,55.6 434.2,55.3 435.8,54.7 437.3,54.3 438.8,53.7 440.3,53.5 441.8,53.0 443.3,52.7 444.8,52.4 446.3,52.1 447.8,51.9 449.3,51.7 450.8,51.1 452.3,50.8 453.9,50.4 455.4,49.8 456.9,49.4 458.4,49.2 459.9,49.0 461.4,48.8 462.9,48.4 464.4,48.0 465.9,47.7 467.4,46.8 468.9,46.1 470.4,45.7 472.0,45.5 473.5,45.2 475.0,44.8 476.5,44.4 478.0,44.0 479.5,43.7 481.0,43.4 482.5,43.1 484.0,42.8 485.5,42.4 487.0,42.1 488.5,42.0 490.1,41.8 491.6,41.3 493.1,41.1 494.6,40.8 496.1,40.7 497.6,40.5 499.1,40.2 500.6,40.1 502.1,39.8 503.6,39.7 505.1,39.5 506.6,39.3 508.2,39.0 509.7,38.8 511.2,38.5 512.7,38.1 514.2,37.8 515.7,37.6 517.2,37.4 518.7,37.3 520.2,37.1 521.7,36.9 523.2,36.7 524.7,36.6 526.3,36.5 527.8,36.2 529.3,36.1 530.8,35.8 532.3,35.7 533.8,35.5 535.3,35.3 536.8,34.9 538.3,34.5 539.8,34.3 541.3,34.1 542.8,33.9 544.4,33.6 545.9,33.4 547.4,33.1 548.9,32.9 550.4,32.8 551.9,32.7 553.4,32.5 554.9,32.2 556.4,32.0 557.9,31.9 559.4,31.7 560.9,31.4 562.5,31.2 564.0,30.9 565.5,30.8 567.0,30.4 568.5,30.2 570.0,30.0 570.0,30.0,120" />
  
  <!-- Linea principale -->
  <polyline fill="none" stroke="#0366d6" stroke-width="2.5" stroke-linecap="round" stroke-linejoin="round" points="30.0,120.0 31.5,119.5 33.0,118.9 34.5,118.4 36.0,118.2 37.5,118.0 39.1,117.3 40.6,116.9 42.1,116.6 43.6,116.0 45.1,115.7 46.6,115.3 48.1,115.1 49.6,114.8 51.1,114.4 52.6,113.9 54.1,113.6 55.6,113.3 57.2,113.2 58.7,112.9 60.2,112.5 61.7,112.2 63.2,112.1 64.7,111.8 66.2,110.8 67.7,110.5 69.2,110.1 70.7,109.7 72.2,109.3 73.7,109.0 75.3,108.8 76.8,108.6 78.3,108.3 79.8,107.8 81.3,107.4 82.8,107.1 84.3,106.8 85.8,106.7 87.3,106.6 88.8,106.4 90.3,106.1 91.8,105.9 93.4,105.7 94.9,105.4 96.4,104.8 97.9,104.7 99.4,104.6 100.9,104.4 102.4,103.9 103.9,103.6 105.4,103.2 106.9,102.9 108.4,102.5 109.9,102.4 111.5,102.1 113.0,101.7 114.5,101.3 116.0,101.0 117.5,100.9 119.0,100.7 120.5,100.5 122.0,100.0 123.5,99.6 125.0,99.2 126.5,98.8 128.0,98.6 129.6,98.5 131.1,98.4 132.6,98.1 134.1,97.8 135.6,97.7 137.1,97.5 138.6,97.4 140.1,97.2 141.6,97.0 143.1,96.9 144.6,96.8 146.1,96.4 147.7,96.2 149.2,96.1 150.7,95.9 152.2,95.9 153.7,95.9 155.2,102.8 156.7,102.1 158.2,101.5 159.7,100.8 161.2,98.9 162.7,97.6 164.2,96.2 165.8,95.7 167.3,95.1 168.8,94.1 170.3,93.1 171.8,92.3 173.3,92.0 174.8,91.7 176.3,91.0 177.8,90.4 179.3,90.1 180.8,89.6 182.3,89.5 183.9,89.4 185.4,89.0 186.9,88.3 188.4,87.9 189.9,87.4 191.4,86.9 192.9,86.6 194.4,86.5 195.9,86.0 197.4,85.6 198.9,85.2 200.4,84.9 202.0,84.8 203.5,84.7 205.0,84.5 206.5,84.1 208.0,83.9 209.5,83.6 211.0,83.4 212.5,83.2 214.0,83.0 215.5,82.8 217.0,82.7 218.5,82.5 220.1,82.2 221.6,81.9 223.1,81.6 224.6,81.4 226.1,81.2 227.6,81.1 229.1,80.9 230.6,80.7 232.1,80.2 233.6,79.9 235.1,79.5 236.6,79.3 238.2,79.3 239.7,79.1 241.2,78.9 242.7,78.6 244.2,78.4 245.7,78.1 247.2,77.9 248.7,77.8 250.2,77.6 251.7,77.5 253.2,77.3 254.7,77.1 256.3,77.0 257.8,76.7 259.3,76.5 260.8,76.4 262.3,76.3 263.8,76.2 265.3,75.9 266.8,75.7 268.3,75.5 269.8,75.3 271.3,75.0 272.8,74.9 274.4,74.8 275.9,74.6 277.4,74.3 278.9,74.0 280.4,73.8 281.9,73.6 283.4,73.2 284.9,73.1 286.4,73.0 287.9,72.9 289.4,72.7 290.9,72.6 292.5,72.4 294.0,72.2 295.5,72.0 297.0,71.9 298.5,71.7 300.0,71.6 301.5,71.5 303.0,71.3 304.5,71.0 306.0,70.9 307.5,70.7 309.1,70.6 310.6,70.4 312.1,70.3 313.6,70.2 315.1,70.0 316.6,69.9 318.1,69.6 319.6,69.3 321.1,69.1 322.6,68.9 324.1,68.8 325.6,68.7 327.2,68.5 328.7,68.3 330.2,68.1 331.7,68.0 333.2,67.8 334.7,67.7 336.2,67.5 337.7,67.4 339.2,67.2 340.7,67.0 342.2,66.8 343.7,66.6 345.3,66.4 346.8,66.3 348.3,66.2 349.8,66.1 351.3,66.0 352.8,65.8 354.3,65.7 355.8,65.5 357.3,65.3 358.8,65.2 360.3,65.1 361.8,64.9 363.4,64.8 364.9,64.6 366.4,64.3 367.9,64.2 369.4,64.0 370.9,63.9 372.4,63.8 373.9,63.7 375.4,63.6 376.9,63.5 378.4,63.3 379.9,63.1 381.5,62.9 383.0,62.8 384.5,62.7 386.0,62.5 387.5,62.4 389.0,62.2 390.5,62.1 392.0,61.9 393.5,61.8 395.0,61.6 396.5,61.5 398.0,61.3 399.6,61.2 401.1,61.1 402.6,61.0 404.1,60.9 405.6,60.7 407.1,60.6 408.6,60.6 410.1,60.4 411.6,60.1 413.1,59.9 414.6,64.4 416.1,63.5 417.7,61.8 419.2,61.2 420.7,60.4 422.2,59.4 423.7,58.9 425.2,58.5 426.7,57.9 428.2,56.9 429.7,56.1 431.2,55.9 432.7,55.6 434.2,55.3 435.8,54.7 437.3,54.3 438.8,53.7 440.3,53.5 441.8,53.0 443.3,52.7 444.8,52.4 446.3,52.1 447.8,51.9 449.3,51.7 450.8,51.1 452.3,50.8 453.9,50.4 455.4,49.8 456.9,49.4 458.4,49.2 459.9,49.0 461.4,48.8 462.9,48.4 464.4,48.0 465.9,47.7 467.4,46.8 468.9,46.1 470.4,45.7 472.0,45.5 473.5,45.2 475.0,44.8 476.5,44.4 478.0,44.0 479.5,43.7 481.0,43.4 482.5,43.1 484.0,42.8 485.5,42.4 487.0,42.1 488.5,42.0 490.1,41.8 491.6,41.3 493.1,41.1 494.6,40.8 496.1,40.7 497.6,40.5 499.1,40.2 500.6,40.1 502.1,39.8 503.6,39.7 505.1,39.5 506.6,39.3 508.2,39.0 509.7,38.8 511.2,38.5 512.7,38.1 514.2,37.8 515.7,37.6 517.2,37.4 518.7,37.3 520.2,37.1 521.7,36.9 523.2,36.7 524.7,36.6 526.3,36.5 527.8,36.2 529.3,36.1 530.8,35.8 532.3,35.7 533.8,35.5 535.3,35.3 536.8,34.9 538.3,34.5 539.8,34.3 541.3,34.1 542.8,33.9 544.4,33.6 545.9,33.4 547.4,33.1 548.9,32.9 550.4,32.8 551.9,32.7 553.4,32.5 554.9,32.2 556.4,32.0 557.9,31.9 559.4,31.7 560.9,31.4 562.5,31.2 564.0,30.9 565.5,30.8 567.0,30.4 568.5,30.2 570.0,30.0" />
  
  <!-- Punto finale luminoso -->
  <circle cx="570.0" cy="30.0" r="4" fill="#ffffff" stroke="#0366d6" stroke-width="2.5" />
</svg>