<svg width="600" height="150" viewBox="0 0 600 150" xmlns="http://www.w3.org/2000/svg">
  <defs>
    <filter id="shadow2" x="-2%" y="-2%" width="104%" height="108%">
      <feDropShadow dx="0" dy="2" stdDeviation="3" flood-opacity="0.1" />
    </filter>
    <linearGradient id="fillGrad" x1="0" y1="0" x2="0" y2="1">
      <stop offset="0%" stop-color="#0366d6" stop-opacity="0.3"/>
      <stop offset="100%" stop-color="#0366d6" stop-opacity="0.02"/>
    </linearGradient>
  </defs>
  <rect width="600" height="150" rx="12" fill="#ffffff" filter="url(#shadow2)" stroke="#e1e4e8" stroke-width="1"/>
  <text x="20" y="24" fill="#2b3137" font-family="-apple-system,BlinkMacSystemFont,'Segoe UI',Helvetica,Arial,sans-serif" font-size="14" font-weight="600">📈 Download Growth (Actual: 83.9k)</text>
  
  <!-- Area sotto la linea -->
  <polygon fill="url(#fillGrad)" points="30.0,120.0,120 30.0,120.0 31.7,119.4 33.4,118.8 35.0,118.2 36.7,118.1 38.4,117.8 40.1,117.1 41.7,116.6 43.4,116.3 45.1,115.6 46.8,115.2 48.4,114.9 50.1,114.7 51.8,114.4 53.5,113.9 55.2,113.4 56.8,113.0 58.5,112.7 60.2,112.5 61.9,112.2 63.5,111.9 65.2,111.5 66.9,111.4 68.6,111.0 70.2,109.9 71.9,109.6 73.6,109.2 75.3,108.7 77.0,108.3 78.6,108.0 80.3,107.7 82.0,107.5 83.7,107.2 85.3,106.7 87.0,106.2 88.7,105.9 90.4,105.5 92.0,105.4 93.7,105.3 95.4,105.1 97.1,104.8 98.8,104.6 100.4,104.4 102.1,104.0 103.8,103.4 105.5,103.3 107.1,103.2 108.8,102.9 110.5,102.4 112.2,102.1 113.9,101.6 115.5,101.3 117.2,100.8 118.9,100.8 120.6,100.5 122.2,100.0 123.9,99.6 125.6,99.3 127.3,99.1 128.9,98.9 130.6,98.7 132.3,98.2 134.0,97.7 135.7,97.3 137.3,96.9 139.0,96.7 140.7,96.5 142.4,96.4 144.0,96.0 145.7,95.8 147.4,95.6 149.1,95.4 150.7,95.3 152.4,95.0 154.1,94.9 155.8,94.8 157.5,94.7 159.1,94.2 160.8,93.9 162.5,93.9 164.2,93.7 165.8,93.6 167.5,93.6 169.2,101.2 170.9,100.4 172.5,99.8 174.2,99.0 175.9,97.0 177.6,95.6 179.3,94.0 180.9,93.4 182.6,92.8 184.3,91.7 186.0,90.6 187.6,89.7 189.3,89.4 191.0,89.1 192.7,88.3 194.3,87.7 196.0,87.3 197.7,86.8 199.4,86.6 201.1,86.5 202.7,86.1 204.4,85.4 206.1,84.9 207.8,84.4 209.4,83.8 211.1,83.6 212.8,83.3 214.5,82.9 216.1,82.4 217.8,82.0 219.5,81.7 221.2,81.5 222.9,81.4 224.5,81.2 226.2,80.8 227.9,80.5 229.6,80.2 231.2,80.0 232.9,79.8 234.6,79.6 236.3,79.4 238.0,79.2 239.6,79.0 241.3,78.6 243.0,78.3 244.7,78.0 246.3,77.8 248.0,77.6 249.7,77.4 251.4,77.3 253.0,77.1 254.7,76.5 256.4,76.2 258.1,75.7 259.8,75.5 261.4,75.5 263.1,75.3 264.8,75.0 266.5,74.8 268.1,74.5 269.8,74.2 271.5,73.9 273.2,73.8 274.8,73.7 276.5,73.5 278.2,73.4 279.9,73.1 281.6,73.0 283.2,72.6 284.9,72.5 286.6,72.4 288.3,72.2 289.9,72.1 291.6,71.8 293.3,71.6 295.0,71.3 296.6,71.1 298.3,70.9 300.0,70.7 301.7,70.6 303.4,70.4 305.0,70.1 306.7,69.8 308.4,69.5 310.1,69.3 311.7,68.9 313.4,68.8 315.1,68.7 316.8,68.6 318.4,68.3 320.1,68.2 321.8,67.9 323.5,67.8 325.2,67.6 326.8,67.4 328.5,67.2 330.2,67.1 331.9,67.0 333.5,66.8 335.2,66.5 336.9,66.4 338.6,66.1 340.2,66.0 341.9,65.9 343.6,65.7 345.3,65.6 347.0,65.4 348.6,65.2 350.3,64.9 352.0,64.5 353.7,64.3 355.3,64.1 357.0,64.1 358.7,64.0 360.4,63.8 362.0,63.5 363.7,63.3 365.4,63.2 367.1,63.0 368.8,62.8 370.4,62.6 372.1,62.5 373.8,62.4 375.5,62.1 377.1,61.9 378.8,61.6 380.5,61.4 382.2,61.3 383.9,61.2 385.5,61.2 387.2,61.0 388.9,60.8 390.6,60.6 392.2,60.4 393.9,60.2 395.6,60.1 397.3,60.0 398.9,59.8 400.6,59.7 402.3,59.4 404.0,59.2 405.7,59.0 407.3,58.8 409.0,58.7 410.7,58.6 412.4,58.4 414.0,58.3 415.7,58.2 417.4,58.1 419.1,57.8 420.7,57.6 422.4,57.5 424.1,57.4 425.8,57.2 427.5,57.0 429.1,56.8 430.8,56.7 432.5,56.6 434.2,56.4 435.8,56.2 437.5,56.0 439.2,55.9 440.9,55.8 442.5,55.7 444.2,55.5 445.9,55.4 447.6,55.2 449.3,55.1 450.9,55.1 452.6,54.9 454.3,54.6 456.0,54.3 457.6,59.2 459.3,58.3 461.0,56.4 462.7,55.7 464.3,54.8 466.0,53.8 467.7,53.2 469.4,52.8 471.1,52.1 472.7,51.0 474.4,50.2 476.1,50.0 477.8,49.6 479.4,49.2 481.1,48.7 482.8,48.2 484.5,47.6 486.1,47.3 487.8,46.7 489.5,46.5 491.2,46.1 492.9,45.9 494.5,45.6 496.2,45.3 497.9,44.8 499.6,44.4 501.2,43.9 502.9,43.2 504.6,42.8 506.3,42.6 508.0,42.4 509.6,42.1 511.3,41.7 513.0,41.3 514.7,41.0 516.3,40.0 518.0,39.2 519.7,38.8 521.4,38.6 523.0,38.3 524.7,37.8 526.4,37.3 528.1,37.0 529.8,36.7 531.4,36.3 533.1,36.0 534.8,35.6 536.5,35.2 538.1,34.9 539.8,34.7 541.5,34.5 543.2,34.0 544.8,33.7 546.5,33.5 548.2,33.3 549.9,33.1 551.6,32.8 553.2,32.6 554.9,32.4 556.6,32.2 558.3,32.0 559.9,31.8 561.6,31.5 563.3,31.3 565.0,30.9 566.6,30.5 568.3,30.2 570.0,30.0 570.0,30.0,120" />
  
  <!-- Linea principale -->
  <polyline fill="none" stroke="#0366d6" stroke-width="2.5" stroke-linecap="round" stroke-linejoin="round" points="30.0,120.0 31.7,119.4 33.4,118.8 35.0,118.2 36.7,118.1 38.4,117.8 40.1,117.1 41.7,116.6 43.4,116.3 45.1,115.6 46.8,115.2 48.4,114.9 50.1,114.7 51.8,114.4 53.5,113.9 55.2,113.4 56.8,113.0 58.5,112.7 60.2,112.5 61.9,112.2 63.5,111.9 65.2,111.5 66.9,111.4 68.6,111.0 70.2,109.9 71.9,109.6 73.6,109.2 75.3,108.7 77.0,108.3 78.6,108.0 80.3,107.7 82.0,107.5 83.7,107.2 85.3,106.7 87.0,106.2 88.7,105.9 90.4,105.5 92.0,105.4 93.7,105.3 95.4,105.1 97.1,104.8 98.8,104.6 100.4,104.4 102.1,104.0 103.8,103.4 105.5,103.3 107.1,103.2 108.8,102.9 110.5,102.4 112.2,102.1 113.9,101.6 115.5,101.3 117.2,100.8 118.9,100.8 120.6,100.5 122.2,100.0 123.9,99.6 125.6,99.3 127.3,99.1 128.9,98.9 130.6,98.7 132.3,98.2 134.0,97.7 135.7,97.3 137.3,96.9 139.0,96.7 140.7,96.5 142.4,96.4 144.0,96.0 145.7,95.8 147.4,95.6 149.1,95.4 150.7,95.3 152.4,95.0 154.1,94.9 155.8,94.8 157.5,94.7 159.1,94.2 160.8,93.9 162.5,93.9 164.2,93.7 165.8,93.6 167.5,93.6 169.2,101.2 170.9,100.4 172.5,99.8 174.2,99.0 175.9,97.0 177.6,95.6 179.3,94.0 180.9,93.4 182.6,92.8 184.3,91.7 186.0,90.6 187.6,89.7 189.3,89.4 191.0,89.1 192.7,88.3 194.3,87.7 196.0,87.3 197.7,86.8 199.4,86.6 201.1,86.5 202.7,86.1 204.4,85.4 206.1,84.9 207.8,84.4 209.4,83.8 211.1,83.6 212.8,83.3 214.5,82.9 216.1,82.4 217.8,82.0 219.5,81.7 221.2,81.5 222.9,81.4 224.5,81.2 226.2,80.8 227.9,80.5 229.6,80.2 231.2,80.0 232.9,79.8 234.6,79.6 236.3,79.4 238.0,79.2 239.6,79.0 241.3,78.6 243.0,78.3 244.7,78.0 246.3,77.8 248.0,77.6 249.7,77.4 251.4,77.3 253.0,77.1 254.7,76.5 256.4,76.2 258.1,75.7 259.8,75.5 261.4,75.5 263.1,75.3 264.8,75.0 266.5,74.8 268.1,74.5 269.8,74.2 271.5,73.9 273.2,73.8 274.8,73.7 276.5,73.5 278.2,73.4 279.9,73.1 281.6,73.0 283.2,72.6 284.9,72.5 286.6,72.4 288.3,72.2 289.9,72.1 291.6,71.8 293.3,71.6 295.0,71.3 296.6,71.1 298.3,70.9 300.0,70.7 301.7,70.6 303.4,70.4 305.0,70.1 306.7,69.8 308.4,69.5 310.1,69.3 311.7,68.9 313.4,68.8 315.1,68.7 316.8,68.6 318.4,68.3 320.1,68.2 321.8,67.9 323.5,67.8 325.2,67.6 326.8,67.4 328.5,67.2 330.2,67.1 331.9,67.0 333.5,66.8 335.2,66.5 336.9,66.4 338.6,66.1 340.2,66.0 341.9,65.9 343.6,65.7 345.3,65.6 347.0,65.4 348.6,65.2 350.3,64.9 352.0,64.5 353.7,64.3 355.3,64.1 357.0,64.1 358.7,64.0 360.4,63.8 362.0,63.5 363.7,63.3 365.4,63.2 367.1,63.0 368.8,62.8 370.4,62.6 372.1,62.5 373.8,62.4 375.5,62.1 377.1,61.9 378.8,61.6 380.5,61.4 382.2,61.3 383.9,61.2 385.5,61.2 387.2,61.0 388.9,60.8 390.6,60.6 392.2,60.4 393.9,60.2 395.6,60.1 397.3,60.0 398.9,59.8 400.6,59.7 402.3,59.4 404.0,59.2 405.7,59.0 407.3,58.8 409.0,58.7 410.7,58.6 412.4,58.4 414.0,58.3 415.7,58.2 417.4,58.1 419.1,57.8 420.7,57.6 422.4,57.5 424.1,57.4 425.8,57.2 427.5,57.0 429.1,56.8 430.8,56.7 432.5,56.6 434.2,56.4 435.8,56.2 437.5,56.0 439.2,55.9 440.9,55.8 442.5,55.7 444.2,55.5 445.9,55.4 447.6,55.2 449.3,55.1 450.9,55.1 452.6,54.9 454.3,54.6 456.0,54.3 457.6,59.2 459.3,58.3 461.0,56.4 462.7,55.7 464.3,54.8 466.0,53.8 467.7,53.2 469.4,52.8 471.1,52.1 472.7,51.0 474.4,50.2 476.1,50.0 477.8,49.6 479.4,49.2 481.1,48.7 482.8,48.2 484.5,47.6 486.1,47.3 487.8,46.7 489.5,46.5 491.2,46.1 492.9,45.9 494.5,45.6 496.2,45.3 497.9,44.8 499.6,44.4 501.2,43.9 502.9,43.2 504.6,42.8 506.3,42.6 508.0,42.4 509.6,42.1 511.3,41.7 513.0,41.3 514.7,41.0 516.3,40.0 518.0,39.2 519.7,38.8 521.4,38.6 523.0,38.3 524.7,37.8 526.4,37.3 528.1,37.0 529.8,36.7 531.4,36.3 533.1,36.0 534.8,35.6 536.5,35.2 538.1,34.9 539.8,34.7 541.5,34.5 543.2,34.0 544.8,33.7 546.5,33.5 548.2,33.3 549.9,33.1 551.6,32.8 553.2,32.6 554.9,32.4 556.6,32.2 558.3,32.0 559.9,31.8 561.6,31.5 563.3,31.3 565.0,30.9 566.6,30.5 568.3,30.2 570.0,30.0" />
  
  <!-- Punto finale luminoso -->
  <circle cx="570.0" cy="30.0" r="4" fill="#ffffff" stroke="#0366d6" stroke-width="2.5" />
</svg>