<svg width="600" height="150" viewBox="0 0 600 150" xmlns="http://www.w3.org/2000/svg">
  <defs>
    <filter id="shadow2" x="-2%" y="-2%" width="104%" height="108%">
      <feDropShadow dx="0" dy="2" stdDeviation="3" flood-opacity="0.1" />
    </filter>
    <linearGradient id="fillGrad" x1="0" y1="0" x2="0" y2="1">
      <stop offset="0%" stop-color="#0366d6" stop-opacity="0.3"/>
      <stop offset="100%" stop-color="#0366d6" stop-opacity="0.02"/>
    </linearGradient>
  </defs>
  <rect width="600" height="150" rx="12" fill="#ffffff" filter="url(#shadow2)" stroke="#e1e4e8" stroke-width="1"/>
  <text x="20" y="24" fill="#2b3137" font-family="-apple-system,BlinkMacSystemFont,'Segoe UI',Helvetica,Arial,sans-serif" font-size="14" font-weight="600">📈 Download Growth (Actual: 88.1k)</text>
  
  <!-- Area sotto la linea -->
  <polygon fill="url(#fillGrad)" points="30.0,120.0,120 30.0,120.0 31.3,119.5 32.5,119.0 33.8,118.6 35.1,118.4 36.3,118.2 37.6,117.7 38.9,117.3 40.1,117.0 41.4,116.5 42.6,116.2 43.9,115.9 45.2,115.7 46.4,115.5 47.7,115.1 49.0,114.7 50.2,114.4 51.5,114.2 52.8,114.0 54.0,113.8 55.3,113.5 56.6,113.2 57.8,113.1 59.1,112.8 60.4,111.9 61.6,111.7 62.9,111.3 64.1,111.0 65.4,110.6 66.7,110.3 67.9,110.2 69.2,110.0 70.5,109.8 71.7,109.3 73.0,108.9 74.3,108.7 75.5,108.4 76.8,108.3 78.1,108.2 79.3,108.1 80.6,107.8 81.9,107.6 83.1,107.5 84.4,107.2 85.6,106.7 86.9,106.6 88.2,106.5 89.4,106.3 90.7,105.9 92.0,105.7 93.2,105.3 94.5,105.0 95.8,104.6 97.0,104.6 98.3,104.3 99.6,104.0 100.8,103.6 102.1,103.3 103.3,103.2 104.6,103.0 105.9,102.9 107.1,102.5 108.4,102.1 109.7,101.8 110.9,101.4 112.2,101.3 113.5,101.2 114.7,101.0 116.0,100.8 117.3,100.6 118.5,100.4 119.8,100.3 121.1,100.2 122.3,100.0 123.6,99.8 124.8,99.8 126.1,99.7 127.4,99.3 128.6,99.1 129.9,99.0 131.2,98.9 132.4,98.8 133.7,98.8 135.0,104.9 136.2,104.3 137.5,103.8 138.8,103.2 140.0,101.5 141.3,100.4 142.6,99.1 143.8,98.7 145.1,98.2 146.3,97.3 147.6,96.4 148.9,95.7 150.1,95.5 151.4,95.2 152.7,94.6 153.9,94.1 155.2,93.8 156.5,93.4 157.7,93.2 159.0,93.1 160.3,92.8 161.5,92.2 162.8,91.8 164.1,91.4 165.3,91.0 166.6,90.7 167.8,90.6 169.1,90.2 170.4,89.8 171.6,89.5 172.9,89.2 174.2,89.1 175.4,89.0 176.7,88.8 178.0,88.5 179.2,88.3 180.5,88.1 181.8,87.9 183.0,87.7 184.3,87.6 185.6,87.4 186.8,87.3 188.1,87.1 189.3,86.8 190.6,86.6 191.9,86.3 193.1,86.1 194.4,86.0 195.7,85.8 196.9,85.7 198.2,85.6 199.5,85.1 200.7,84.8 202.0,84.5 203.3,84.3 204.5,84.3 205.8,84.1 207.0,83.9 208.3,83.7 209.6,83.5 210.8,83.2 212.1,83.0 213.4,83.0 214.6,82.8 215.9,82.7 217.2,82.6 218.4,82.4 219.7,82.2 221.0,82.0 222.2,81.9 223.5,81.8 224.8,81.6 226.0,81.6 227.3,81.3 228.5,81.2 229.8,80.9 231.1,80.8 232.3,80.6 233.6,80.4 234.9,80.3 236.1,80.2 237.4,79.9 238.7,79.7 239.9,79.5 241.2,79.3 242.5,79.0 243.7,78.9 245.0,78.8 246.3,78.7 247.5,78.5 248.8,78.4 250.0,78.2 251.3,78.1 252.6,77.9 253.8,77.8 255.1,77.7 256.4,77.5 257.6,77.5 258.9,77.3 260.2,77.1 261.4,77.0 262.7,76.8 264.0,76.7 265.2,76.5 266.5,76.4 267.8,76.3 269.0,76.2 270.3,76.0 271.5,75.8 272.8,75.5 274.1,75.3 275.3,75.2 276.6,75.1 277.9,75.1 279.1,74.9 280.4,74.6 281.7,74.5 282.9,74.4 284.2,74.2 285.5,74.1 286.7,73.9 288.0,73.8 289.3,73.7 290.5,73.5 291.8,73.4 293.0,73.2 294.3,73.0 295.6,72.9 296.8,72.8 298.1,72.8 299.4,72.6 300.6,72.5 301.9,72.3 303.2,72.2 304.4,72.0 305.7,71.9 307.0,71.8 308.2,71.7 309.5,71.6 310.7,71.4 312.0,71.2 313.3,71.0 314.5,70.9 315.8,70.8 317.1,70.7 318.3,70.6 319.6,70.5 320.9,70.4 322.1,70.3 323.4,70.1 324.7,70.0 325.9,69.8 327.2,69.7 328.5,69.6 329.7,69.5 331.0,69.3 332.2,69.2 333.5,69.1 334.8,69.0 336.0,68.8 337.3,68.7 338.6,68.5 339.8,68.5 341.1,68.4 342.4,68.3 343.6,68.2 344.9,68.0 346.2,67.9 347.4,67.9 348.7,67.8 350.0,67.5 351.2,67.3 352.5,71.2 353.7,70.5 355.0,69.0 356.3,68.4 357.5,67.7 358.8,66.9 360.1,66.4 361.3,66.1 362.6,65.5 363.9,64.7 365.1,64.0 366.4,63.8 367.7,63.5 368.9,63.2 370.2,62.8 371.5,62.4 372.7,61.9 374.0,61.7 375.2,61.2 376.5,61.0 377.8,60.7 379.0,60.5 380.3,60.3 381.6,60.1 382.8,59.6 384.1,59.3 385.4,58.9 386.6,58.4 387.9,58.1 389.2,57.9 390.4,57.7 391.7,57.5 393.0,57.2 394.2,56.9 395.5,56.6 396.7,55.8 398.0,55.2 399.3,54.9 400.5,54.7 401.8,54.4 403.1,54.0 404.3,53.7 405.6,53.4 406.9,53.1 408.1,52.8 409.4,52.6 410.7,52.3 411.9,51.9 413.2,51.7 414.4,51.6 415.7,51.4 417.0,51.0 418.2,50.8 419.5,50.6 420.8,50.4 422.0,50.3 423.3,50.0 424.6,49.9 425.8,49.7 427.1,49.5 428.4,49.4 429.6,49.2 430.9,49.0 432.2,48.8 433.4,48.5 434.7,48.2 435.9,47.9 437.2,47.8 438.5,47.6 439.7,47.5 441.0,47.3 442.3,47.1 443.5,47.0 444.8,46.9 446.1,46.7 447.3,46.6 448.6,46.4 449.9,46.2 451.1,46.0 452.4,45.9 453.7,45.7 454.9,45.4 456.2,45.0 457.4,44.9 458.7,44.7 460.0,44.5 461.2,44.3 462.5,44.1 463.8,43.8 465.0,43.6 466.3,43.6 467.6,43.4 468.8,43.2 470.1,43.0 471.4,42.8 472.6,42.8 473.9,42.5 475.2,42.3 476.4,42.1 477.7,41.9 478.9,41.7 480.2,41.5 481.5,41.2 482.7,41.1 484.0,41.0 485.3,40.8 486.5,40.7 487.8,40.5 489.1,40.3 490.3,40.1 491.6,40.0 492.9,39.8 494.1,39.7 495.4,39.5 496.7,39.4 497.9,39.3 499.2,39.1 500.4,39.1 501.7,38.9 503.0,38.7 504.2,38.6 505.5,38.4 506.8,38.3 508.0,38.2 509.3,38.0 510.6,37.8 511.8,37.7 513.1,37.5 514.4,37.4 515.6,37.1 516.9,37.0 518.1,36.7 519.4,36.6 520.7,36.5 521.9,36.5 523.2,36.3 524.5,36.2 525.7,35.9 527.0,35.7 528.3,35.6 529.5,35.4 530.8,35.3 532.1,35.2 533.3,35.0 534.6,34.8 535.9,34.6 537.1,34.4 538.4,34.3 539.6,34.0 540.9,33.8 542.2,33.7 543.4,33.4 544.7,33.3 546.0,33.2 547.2,32.9 548.5,32.7 549.8,32.5 551.0,32.4 552.3,32.3 553.6,32.1 554.8,31.9 556.1,31.7 557.4,31.6 558.6,31.5 559.9,31.2 561.1,31.0 562.4,30.9 563.7,30.7 564.9,30.6 566.2,30.5 567.5,30.3 568.7,30.2 570.0,30.0 570.0,30.0,120" />
  
  <!-- Linea principale -->
  <polyline fill="none" stroke="#0366d6" stroke-width="2.5" stroke-linecap="round" stroke-linejoin="round" points="30.0,120.0 31.3,119.5 32.5,119.0 33.8,118.6 35.1,118.4 36.3,118.2 37.6,117.7 38.9,117.3 40.1,117.0 41.4,116.5 42.6,116.2 43.9,115.9 45.2,115.7 46.4,115.5 47.7,115.1 49.0,114.7 50.2,114.4 51.5,114.2 52.8,114.0 54.0,113.8 55.3,113.5 56.6,113.2 57.8,113.1 59.1,112.8 60.4,111.9 61.6,111.7 62.9,111.3 64.1,111.0 65.4,110.6 66.7,110.3 67.9,110.2 69.2,110.0 70.5,109.8 71.7,109.3 73.0,108.9 74.3,108.7 75.5,108.4 76.8,108.3 78.1,108.2 79.3,108.1 80.6,107.8 81.9,107.6 83.1,107.5 84.4,107.2 85.6,106.7 86.9,106.6 88.2,106.5 89.4,106.3 90.7,105.9 92.0,105.7 93.2,105.3 94.5,105.0 95.8,104.6 97.0,104.6 98.3,104.3 99.6,104.0 100.8,103.6 102.1,103.3 103.3,103.2 104.6,103.0 105.9,102.9 107.1,102.5 108.4,102.1 109.7,101.8 110.9,101.4 112.2,101.3 113.5,101.2 114.7,101.0 116.0,100.8 117.3,100.6 118.5,100.4 119.8,100.3 121.1,100.2 122.3,100.0 123.6,99.8 124.8,99.8 126.1,99.7 127.4,99.3 128.6,99.1 129.9,99.0 131.2,98.9 132.4,98.8 133.7,98.8 135.0,104.9 136.2,104.3 137.5,103.8 138.8,103.2 140.0,101.5 141.3,100.4 142.6,99.1 143.8,98.7 145.1,98.2 146.3,97.3 147.6,96.4 148.9,95.7 150.1,95.5 151.4,95.2 152.7,94.6 153.9,94.1 155.2,93.8 156.5,93.4 157.7,93.2 159.0,93.1 160.3,92.8 161.5,92.2 162.8,91.8 164.1,91.4 165.3,91.0 166.6,90.7 167.8,90.6 169.1,90.2 170.4,89.8 171.6,89.5 172.9,89.2 174.2,89.1 175.4,89.0 176.7,88.8 178.0,88.5 179.2,88.3 180.5,88.1 181.8,87.9 183.0,87.7 184.3,87.6 185.6,87.4 186.8,87.3 188.1,87.1 189.3,86.8 190.6,86.6 191.9,86.3 193.1,86.1 194.4,86.0 195.7,85.8 196.9,85.7 198.2,85.6 199.5,85.1 200.7,84.8 202.0,84.5 203.3,84.3 204.5,84.3 205.8,84.1 207.0,83.9 208.3,83.7 209.6,83.5 210.8,83.2 212.1,83.0 213.4,83.0 214.6,82.8 215.9,82.7 217.2,82.6 218.4,82.4 219.7,82.2 221.0,82.0 222.2,81.9 223.5,81.8 224.8,81.6 226.0,81.6 227.3,81.3 228.5,81.2 229.8,80.9 231.1,80.8 232.3,80.6 233.6,80.4 234.9,80.3 236.1,80.2 237.4,79.9 238.7,79.7 239.9,79.5 241.2,79.3 242.5,79.0 243.7,78.9 245.0,78.8 246.3,78.7 247.5,78.5 248.8,78.4 250.0,78.2 251.3,78.1 252.6,77.9 253.8,77.8 255.1,77.7 256.4,77.5 257.6,77.5 258.9,77.3 260.2,77.1 261.4,77.0 262.7,76.8 264.0,76.7 265.2,76.5 266.5,76.4 267.8,76.3 269.0,76.2 270.3,76.0 271.5,75.8 272.8,75.5 274.1,75.3 275.3,75.2 276.6,75.1 277.9,75.1 279.1,74.9 280.4,74.6 281.7,74.5 282.9,74.4 284.2,74.2 285.5,74.1 286.7,73.9 288.0,73.8 289.3,73.7 290.5,73.5 291.8,73.4 293.0,73.2 294.3,73.0 295.6,72.9 296.8,72.8 298.1,72.8 299.4,72.6 300.6,72.5 301.9,72.3 303.2,72.2 304.4,72.0 305.7,71.9 307.0,71.8 308.2,71.7 309.5,71.6 310.7,71.4 312.0,71.2 313.3,71.0 314.5,70.9 315.8,70.8 317.1,70.7 318.3,70.6 319.6,70.5 320.9,70.4 322.1,70.3 323.4,70.1 324.7,70.0 325.9,69.8 327.2,69.7 328.5,69.6 329.7,69.5 331.0,69.3 332.2,69.2 333.5,69.1 334.8,69.0 336.0,68.8 337.3,68.7 338.6,68.5 339.8,68.5 341.1,68.4 342.4,68.3 343.6,68.2 344.9,68.0 346.2,67.9 347.4,67.9 348.7,67.8 350.0,67.5 351.2,67.3 352.5,71.2 353.7,70.5 355.0,69.0 356.3,68.4 357.5,67.7 358.8,66.9 360.1,66.4 361.3,66.1 362.6,65.5 363.9,64.7 365.1,64.0 366.4,63.8 367.7,63.5 368.9,63.2 370.2,62.8 371.5,62.4 372.7,61.9 374.0,61.7 375.2,61.2 376.5,61.0 377.8,60.7 379.0,60.5 380.3,60.3 381.6,60.1 382.8,59.6 384.1,59.3 385.4,58.9 386.6,58.4 387.9,58.1 389.2,57.9 390.4,57.7 391.7,57.5 393.0,57.2 394.2,56.9 395.5,56.6 396.7,55.8 398.0,55.2 399.3,54.9 400.5,54.7 401.8,54.4 403.1,54.0 404.3,53.7 405.6,53.4 406.9,53.1 408.1,52.8 409.4,52.6 410.7,52.3 411.9,51.9 413.2,51.7 414.4,51.6 415.7,51.4 417.0,51.0 418.2,50.8 419.5,50.6 420.8,50.4 422.0,50.3 423.3,50.0 424.6,49.9 425.8,49.7 427.1,49.5 428.4,49.4 429.6,49.2 430.9,49.0 432.2,48.8 433.4,48.5 434.7,48.2 435.9,47.9 437.2,47.8 438.5,47.6 439.7,47.5 441.0,47.3 442.3,47.1 443.5,47.0 444.8,46.9 446.1,46.7 447.3,46.6 448.6,46.4 449.9,46.2 451.1,46.0 452.4,45.9 453.7,45.7 454.9,45.4 456.2,45.0 457.4,44.9 458.7,44.7 460.0,44.5 461.2,44.3 462.5,44.1 463.8,43.8 465.0,43.6 466.3,43.6 467.6,43.4 468.8,43.2 470.1,43.0 471.4,42.8 472.6,42.8 473.9,42.5 475.2,42.3 476.4,42.1 477.7,41.9 478.9,41.7 480.2,41.5 481.5,41.2 482.7,41.1 484.0,41.0 485.3,40.8 486.5,40.7 487.8,40.5 489.1,40.3 490.3,40.1 491.6,40.0 492.9,39.8 494.1,39.7 495.4,39.5 496.7,39.4 497.9,39.3 499.2,39.1 500.4,39.1 501.7,38.9 503.0,38.7 504.2,38.6 505.5,38.4 506.8,38.3 508.0,38.2 509.3,38.0 510.6,37.8 511.8,37.7 513.1,37.5 514.4,37.4 515.6,37.1 516.9,37.0 518.1,36.7 519.4,36.6 520.7,36.5 521.9,36.5 523.2,36.3 524.5,36.2 525.7,35.9 527.0,35.7 528.3,35.6 529.5,35.4 530.8,35.3 532.1,35.2 533.3,35.0 534.6,34.8 535.9,34.6 537.1,34.4 538.4,34.3 539.6,34.0 540.9,33.8 542.2,33.7 543.4,33.4 544.7,33.3 546.0,33.2 547.2,32.9 548.5,32.7 549.8,32.5 551.0,32.4 552.3,32.3 553.6,32.1 554.8,31.9 556.1,31.7 557.4,31.6 558.6,31.5 559.9,31.2 561.1,31.0 562.4,30.9 563.7,30.7 564.9,30.6 566.2,30.5 567.5,30.3 568.7,30.2 570.0,30.0" />
  
  <!-- Punto finale luminoso -->
  <circle cx="570.0" cy="30.0" r="4" fill="#ffffff" stroke="#0366d6" stroke-width="2.5" />
</svg>