<svg width="600" height="150" viewBox="0 0 600 150" xmlns="http://www.w3.org/2000/svg">
  <defs>
    <filter id="shadow2" x="-2%" y="-2%" width="104%" height="108%">
      <feDropShadow dx="0" dy="2" stdDeviation="3" flood-opacity="0.1" />
    </filter>
    <linearGradient id="fillGrad" x1="0" y1="0" x2="0" y2="1">
      <stop offset="0%" stop-color="#0366d6" stop-opacity="0.3"/>
      <stop offset="100%" stop-color="#0366d6" stop-opacity="0.02"/>
    </linearGradient>
  </defs>
  <rect width="600" height="150" rx="12" fill="#ffffff" filter="url(#shadow2)" stroke="#e1e4e8" stroke-width="1"/>
  <text x="20" y="24" fill="#2b3137" font-family="-apple-system,BlinkMacSystemFont,'Segoe UI',Helvetica,Arial,sans-serif" font-size="14" font-weight="600">📈 Download Growth (Actual: 85.9k)</text>
  
  <!-- Area sotto la linea -->
  <polygon fill="url(#fillGrad)" points="30.0,120.0,120 30.0,120.0 31.5,119.5 32.9,118.9 34.4,118.4 35.8,118.3 37.3,118.0 38.8,117.4 40.2,117.0 41.7,116.7 43.1,116.1 44.6,115.7 46.1,115.4 47.5,115.2 49.0,115.0 50.4,114.5 51.9,114.1 53.4,113.7 54.8,113.5 56.3,113.3 57.7,113.0 59.2,112.7 60.6,112.4 62.1,112.3 63.6,112.0 65.0,111.0 66.5,110.7 67.9,110.3 69.4,109.9 70.9,109.6 72.3,109.2 73.8,109.0 75.2,108.9 76.7,108.6 78.2,108.1 79.6,107.7 81.1,107.4 82.5,107.1 84.0,107.0 85.5,106.9 86.9,106.7 88.4,106.4 89.8,106.2 91.3,106.1 92.8,105.7 94.2,105.2 95.7,105.0 97.1,104.9 98.6,104.7 100.1,104.3 101.5,104.0 103.0,103.6 104.4,103.3 105.9,102.9 107.4,102.8 108.8,102.5 110.3,102.1 111.7,101.7 113.2,101.4 114.6,101.3 116.1,101.1 117.6,100.9 119.0,100.5 120.5,100.1 121.9,99.7 123.4,99.3 124.9,99.1 126.3,99.0 127.8,98.8 129.2,98.5 130.7,98.3 132.2,98.2 133.6,98.0 135.1,97.9 136.5,97.7 138.0,97.5 139.5,97.4 140.9,97.3 142.4,96.9 143.8,96.7 145.3,96.6 146.8,96.5 148.2,96.4 149.7,96.4 151.1,103.1 152.6,102.5 154.1,101.9 155.5,101.3 157.0,99.4 158.4,98.1 159.9,96.8 161.4,96.2 162.8,95.7 164.3,94.7 165.7,93.7 167.2,92.9 168.6,92.7 170.1,92.4 171.6,91.6 173.0,91.1 174.5,90.8 175.9,90.3 177.4,90.1 178.9,90.1 180.3,89.7 181.8,89.0 183.2,88.6 184.7,88.1 186.2,87.6 187.6,87.4 189.1,87.2 190.5,86.8 192.0,86.4 193.5,86.0 194.9,85.7 196.4,85.6 197.8,85.5 199.3,85.3 200.8,84.9 202.2,84.7 203.7,84.4 205.1,84.2 206.6,84.0 208.1,83.9 209.5,83.7 211.0,83.5 212.4,83.3 213.9,83.0 215.4,82.7 216.8,82.4 218.3,82.3 219.7,82.1 221.2,81.9 222.6,81.8 224.1,81.6 225.6,81.1 227.0,80.8 228.5,80.4 229.9,80.2 231.4,80.2 232.9,80.0 234.3,79.8 235.8,79.5 237.2,79.3 238.7,79.0 240.2,78.8 241.6,78.7 243.1,78.6 244.5,78.4 246.0,78.3 247.5,78.1 248.9,77.9 250.4,77.6 251.8,77.5 253.3,77.4 254.8,77.3 256.2,77.2 257.7,76.9 259.1,76.7 260.6,76.5 262.1,76.3 263.5,76.0 265.0,75.9 266.4,75.8 267.9,75.6 269.4,75.3 270.8,75.1 272.3,74.9 273.7,74.6 275.2,74.3 276.6,74.2 278.1,74.1 279.6,74.0 281.0,73.8 282.5,73.6 283.9,73.4 285.4,73.3 286.9,73.1 288.3,73.0 289.8,72.8 291.2,72.7 292.7,72.6 294.2,72.4 295.6,72.1 297.1,72.0 298.5,71.8 300.0,71.7 301.5,71.6 302.9,71.4 304.4,71.3 305.8,71.2 307.3,71.0 308.8,70.7 310.2,70.4 311.7,70.2 313.1,70.0 314.6,70.0 316.1,69.9 317.5,69.7 319.0,69.4 320.4,69.3 321.9,69.2 323.4,69.0 324.8,68.8 326.3,68.7 327.7,68.5 329.2,68.4 330.6,68.2 332.1,68.0 333.6,67.8 335.0,67.6 336.5,67.5 337.9,67.4 339.4,67.4 340.9,67.2 342.3,67.0 343.8,66.9 345.2,66.7 346.7,66.5 348.2,66.4 349.6,66.3 351.1,66.2 352.5,66.0 354.0,65.8 355.5,65.6 356.9,65.4 358.4,65.2 359.8,65.1 361.3,65.0 362.8,64.9 364.2,64.8 365.7,64.7 367.1,64.6 368.6,64.4 370.1,64.2 371.5,64.1 373.0,64.0 374.4,63.8 375.9,63.7 377.4,63.5 378.8,63.4 380.3,63.3 381.7,63.1 383.2,62.9 384.6,62.8 386.1,62.6 387.6,62.5 389.0,62.5 390.5,62.3 391.9,62.2 393.4,62.1 394.9,61.9 396.3,61.9 397.8,61.8 399.2,61.5 400.7,61.2 402.2,65.6 403.6,64.8 405.1,63.1 406.5,62.5 408.0,61.7 409.5,60.8 410.9,60.2 412.4,59.9 413.8,59.3 415.3,58.3 416.8,57.6 418.2,57.4 419.7,57.0 421.1,56.7 422.6,56.2 424.1,55.7 425.5,55.2 427.0,55.0 428.4,54.5 429.9,54.2 431.4,53.9 432.8,53.7 434.3,53.4 435.7,53.2 437.2,52.7 438.6,52.4 440.1,51.9 441.6,51.3 443.0,51.0 444.5,50.8 445.9,50.6 447.4,50.4 448.9,50.0 450.3,49.6 451.8,49.3 453.2,48.4 454.7,47.7 456.2,47.4 457.6,47.2 459.1,46.9 460.5,46.4 462.0,46.1 463.5,45.8 464.9,45.4 466.4,45.1 467.8,44.8 469.3,44.5 470.8,44.1 472.2,43.9 473.7,43.7 475.1,43.5 476.6,43.1 478.1,42.8 479.5,42.6 481.0,42.5 482.4,42.3 483.9,42.0 485.4,41.9 486.8,41.6 488.3,41.5 489.7,41.3 491.2,41.1 492.6,40.8 494.1,40.6 495.6,40.3 497.0,39.9 498.5,39.6 499.9,39.5 501.4,39.3 502.9,39.1 504.3,38.9 505.8,38.8 507.2,38.6 508.7,38.5 510.2,38.3 511.6,38.1 513.1,38.0 514.5,37.7 516.0,37.6 517.5,37.4 518.9,37.2 520.4,36.8 521.8,36.4 523.3,36.2 524.8,36.0 526.2,35.8 527.7,35.6 529.1,35.3 530.6,35.1 532.1,34.9 533.5,34.8 535.0,34.7 536.4,34.4 537.9,34.2 539.4,34.0 540.8,33.9 542.3,33.6 543.7,33.4 545.2,33.2 546.6,32.9 548.1,32.8 549.6,32.4 551.0,32.2 552.5,32.0 553.9,31.9 555.4,31.7 556.9,31.6 558.3,31.4 559.8,31.2 561.2,30.9 562.7,30.8 564.2,30.6 565.6,30.5 567.1,30.3 568.5,30.2 570.0,30.0 570.0,30.0,120" />
  
  <!-- Linea principale -->
  <polyline fill="none" stroke="#0366d6" stroke-width="2.5" stroke-linecap="round" stroke-linejoin="round" points="30.0,120.0 31.5,119.5 32.9,118.9 34.4,118.4 35.8,118.3 37.3,118.0 38.8,117.4 40.2,117.0 41.7,116.7 43.1,116.1 44.6,115.7 46.1,115.4 47.5,115.2 49.0,115.0 50.4,114.5 51.9,114.1 53.4,113.7 54.8,113.5 56.3,113.3 57.7,113.0 59.2,112.7 60.6,112.4 62.1,112.3 63.6,112.0 65.0,111.0 66.5,110.7 67.9,110.3 69.4,109.9 70.9,109.6 72.3,109.2 73.8,109.0 75.2,108.9 76.7,108.6 78.2,108.1 79.6,107.7 81.1,107.4 82.5,107.1 84.0,107.0 85.5,106.9 86.9,106.7 88.4,106.4 89.8,106.2 91.3,106.1 92.8,105.7 94.2,105.2 95.7,105.0 97.1,104.9 98.6,104.7 100.1,104.3 101.5,104.0 103.0,103.6 104.4,103.3 105.9,102.9 107.4,102.8 108.8,102.5 110.3,102.1 111.7,101.7 113.2,101.4 114.6,101.3 116.1,101.1 117.6,100.9 119.0,100.5 120.5,100.1 121.9,99.7 123.4,99.3 124.9,99.1 126.3,99.0 127.8,98.8 129.2,98.5 130.7,98.3 132.2,98.2 133.6,98.0 135.1,97.9 136.5,97.7 138.0,97.5 139.5,97.4 140.9,97.3 142.4,96.9 143.8,96.7 145.3,96.6 146.8,96.5 148.2,96.4 149.7,96.4 151.1,103.1 152.6,102.5 154.1,101.9 155.5,101.3 157.0,99.4 158.4,98.1 159.9,96.8 161.4,96.2 162.8,95.7 164.3,94.7 165.7,93.7 167.2,92.9 168.6,92.7 170.1,92.4 171.6,91.6 173.0,91.1 174.5,90.8 175.9,90.3 177.4,90.1 178.9,90.1 180.3,89.7 181.8,89.0 183.2,88.6 184.7,88.1 186.2,87.6 187.6,87.4 189.1,87.2 190.5,86.8 192.0,86.4 193.5,86.0 194.9,85.7 196.4,85.6 197.8,85.5 199.3,85.3 200.8,84.9 202.2,84.7 203.7,84.4 205.1,84.2 206.6,84.0 208.1,83.9 209.5,83.7 211.0,83.5 212.4,83.3 213.9,83.0 215.4,82.7 216.8,82.4 218.3,82.3 219.7,82.1 221.2,81.9 222.6,81.8 224.1,81.6 225.6,81.1 227.0,80.8 228.5,80.4 229.9,80.2 231.4,80.2 232.9,80.0 234.3,79.8 235.8,79.5 237.2,79.3 238.7,79.0 240.2,78.8 241.6,78.7 243.1,78.6 244.5,78.4 246.0,78.3 247.5,78.1 248.9,77.9 250.4,77.6 251.8,77.5 253.3,77.4 254.8,77.3 256.2,77.2 257.7,76.9 259.1,76.7 260.6,76.5 262.1,76.3 263.5,76.0 265.0,75.9 266.4,75.8 267.9,75.6 269.4,75.3 270.8,75.1 272.3,74.9 273.7,74.6 275.2,74.3 276.6,74.2 278.1,74.1 279.6,74.0 281.0,73.8 282.5,73.6 283.9,73.4 285.4,73.3 286.9,73.1 288.3,73.0 289.8,72.8 291.2,72.7 292.7,72.6 294.2,72.4 295.6,72.1 297.1,72.0 298.5,71.8 300.0,71.7 301.5,71.6 302.9,71.4 304.4,71.3 305.8,71.2 307.3,71.0 308.8,70.7 310.2,70.4 311.7,70.2 313.1,70.0 314.6,70.0 316.1,69.9 317.5,69.7 319.0,69.4 320.4,69.3 321.9,69.2 323.4,69.0 324.8,68.8 326.3,68.7 327.7,68.5 329.2,68.4 330.6,68.2 332.1,68.0 333.6,67.8 335.0,67.6 336.5,67.5 337.9,67.4 339.4,67.4 340.9,67.2 342.3,67.0 343.8,66.9 345.2,66.7 346.7,66.5 348.2,66.4 349.6,66.3 351.1,66.2 352.5,66.0 354.0,65.8 355.5,65.6 356.9,65.4 358.4,65.2 359.8,65.1 361.3,65.0 362.8,64.9 364.2,64.8 365.7,64.7 367.1,64.6 368.6,64.4 370.1,64.2 371.5,64.1 373.0,64.0 374.4,63.8 375.9,63.7 377.4,63.5 378.8,63.4 380.3,63.3 381.7,63.1 383.2,62.9 384.6,62.8 386.1,62.6 387.6,62.5 389.0,62.5 390.5,62.3 391.9,62.2 393.4,62.1 394.9,61.9 396.3,61.9 397.8,61.8 399.2,61.5 400.7,61.2 402.2,65.6 403.6,64.8 405.1,63.1 406.5,62.5 408.0,61.7 409.5,60.8 410.9,60.2 412.4,59.9 413.8,59.3 415.3,58.3 416.8,57.6 418.2,57.4 419.7,57.0 421.1,56.7 422.6,56.2 424.1,55.7 425.5,55.2 427.0,55.0 428.4,54.5 429.9,54.2 431.4,53.9 432.8,53.7 434.3,53.4 435.7,53.2 437.2,52.7 438.6,52.4 440.1,51.9 441.6,51.3 443.0,51.0 444.5,50.8 445.9,50.6 447.4,50.4 448.9,50.0 450.3,49.6 451.8,49.3 453.2,48.4 454.7,47.7 456.2,47.4 457.6,47.2 459.1,46.9 460.5,46.4 462.0,46.1 463.5,45.8 464.9,45.4 466.4,45.1 467.8,44.8 469.3,44.5 470.8,44.1 472.2,43.9 473.7,43.7 475.1,43.5 476.6,43.1 478.1,42.8 479.5,42.6 481.0,42.5 482.4,42.3 483.9,42.0 485.4,41.9 486.8,41.6 488.3,41.5 489.7,41.3 491.2,41.1 492.6,40.8 494.1,40.6 495.6,40.3 497.0,39.9 498.5,39.6 499.9,39.5 501.4,39.3 502.9,39.1 504.3,38.9 505.8,38.8 507.2,38.6 508.7,38.5 510.2,38.3 511.6,38.1 513.1,38.0 514.5,37.7 516.0,37.6 517.5,37.4 518.9,37.2 520.4,36.8 521.8,36.4 523.3,36.2 524.8,36.0 526.2,35.8 527.7,35.6 529.1,35.3 530.6,35.1 532.1,34.9 533.5,34.8 535.0,34.7 536.4,34.4 537.9,34.2 539.4,34.0 540.8,33.9 542.3,33.6 543.7,33.4 545.2,33.2 546.6,32.9 548.1,32.8 549.6,32.4 551.0,32.2 552.5,32.0 553.9,31.9 555.4,31.7 556.9,31.6 558.3,31.4 559.8,31.2 561.2,30.9 562.7,30.8 564.2,30.6 565.6,30.5 567.1,30.3 568.5,30.2 570.0,30.0" />
  
  <!-- Punto finale luminoso -->
  <circle cx="570.0" cy="30.0" r="4" fill="#ffffff" stroke="#0366d6" stroke-width="2.5" />
</svg>