<svg width="600" height="150" viewBox="0 0 600 150" xmlns="http://www.w3.org/2000/svg">
  <defs>
    <filter id="shadow2" x="-2%" y="-2%" width="104%" height="108%">
      <feDropShadow dx="0" dy="2" stdDeviation="3" flood-opacity="0.1" />
    </filter>
    <linearGradient id="fillGrad" x1="0" y1="0" x2="0" y2="1">
      <stop offset="0%" stop-color="#0366d6" stop-opacity="0.3"/>
      <stop offset="100%" stop-color="#0366d6" stop-opacity="0.02"/>
    </linearGradient>
  </defs>
  <rect width="600" height="150" rx="12" fill="#ffffff" filter="url(#shadow2)" stroke="#e1e4e8" stroke-width="1"/>
  <text x="20" y="24" fill="#2b3137" font-family="-apple-system,BlinkMacSystemFont,'Segoe UI',Helvetica,Arial,sans-serif" font-size="14" font-weight="600">📈 Download Growth (Actual: 81.0k)</text>
  
  <!-- Area sotto la linea -->
  <polygon fill="url(#fillGrad)" points="30.0,120.0,120 30.0,120.0 31.9,119.3 33.9,118.5 35.8,117.8 37.8,117.7 39.7,117.3 41.7,116.5 43.6,115.9 45.6,115.5 47.5,114.7 49.5,114.3 51.4,113.8 53.4,113.6 55.3,113.2 57.3,112.6 59.2,112.0 61.2,111.5 63.1,111.2 65.1,111.0 67.0,110.6 69.0,110.1 70.9,109.8 72.9,109.6 74.8,109.2 76.8,107.8 78.7,107.4 80.7,106.9 82.6,106.4 84.6,105.9 86.5,105.5 88.5,105.2 90.4,104.9 92.4,104.6 94.3,103.9 96.3,103.3 98.2,103.0 100.2,102.5 102.1,102.4 104.1,102.3 106.0,102.0 108.0,101.6 109.9,101.3 111.9,101.2 113.8,100.7 115.8,99.9 117.7,99.8 119.7,99.6 121.6,99.3 123.6,98.8 125.5,98.4 127.5,97.8 129.4,97.4 131.4,96.8 133.3,96.7 135.3,96.4 137.2,95.9 139.2,95.3 141.1,94.9 143.1,94.7 145.0,94.5 147.0,94.2 148.9,93.6 150.9,93.0 152.8,92.5 154.8,92.0 156.7,91.8 158.7,91.6 160.6,91.4 162.6,91.0 164.5,90.7 166.5,90.5 168.4,90.3 170.4,90.1 172.3,89.8 174.3,89.6 176.2,89.5 178.2,89.4 180.1,88.8 182.1,88.5 184.0,88.4 186.0,88.2 187.9,88.1 189.9,88.1 191.8,97.2 193.8,96.3 195.7,95.5 197.7,94.7 199.6,92.2 201.6,90.4 203.5,88.6 205.5,87.9 207.4,87.1 209.4,85.8 211.3,84.4 213.2,83.4 215.2,83.0 217.1,82.7 219.1,81.7 221.0,80.9 223.0,80.5 224.9,79.9 226.9,79.6 228.8,79.5 230.8,79.0 232.7,78.2 234.7,77.6 236.6,76.9 238.6,76.3 240.5,75.9 242.5,75.7 244.4,75.1 246.4,74.6 248.3,74.1 250.3,73.7 252.2,73.5 254.2,73.3 256.1,73.0 258.1,72.6 260.0,72.3 262.0,71.9 263.9,71.7 265.9,71.4 267.8,71.1 269.8,70.9 271.7,70.7 273.7,70.5 275.6,70.0 277.6,69.6 279.5,69.2 281.5,69.0 283.4,68.7 285.4,68.5 287.3,68.3 289.3,68.1 291.2,67.5 293.2,67.0 295.1,66.5 297.1,66.2 299.0,66.2 301.0,65.9 302.9,65.6 304.9,65.3 306.8,65.0 308.8,64.6 310.7,64.3 312.7,64.2 314.6,64.0 316.6,63.8 318.5,63.6 320.5,63.3 322.4,63.1 324.4,62.7 326.3,62.5 328.3,62.4 330.2,62.2 332.2,62.1 334.1,61.7 336.1,61.5 338.0,61.2 340.0,60.9 341.9,60.6 343.9,60.4 345.8,60.3 347.8,60.1 349.7,59.6 351.7,59.3 353.6,59.0 355.6,58.7 357.5,58.2 359.5,58.1 361.4,57.9 363.4,57.8 365.3,57.5 367.3,57.3 369.2,57.0 371.2,56.8 373.1,56.6 375.1,56.4 377.0,56.2 379.0,56.0 380.9,55.9 382.9,55.7 384.8,55.3 386.8,55.1 388.7,54.8 390.6,54.7 392.6,54.5 394.5,54.3 396.5,54.2 398.4,54.0 400.4,53.8 402.3,53.4 404.3,52.9 406.2,52.7 408.2,52.5 410.1,52.4 412.1,52.3 414.0,52.0 416.0,51.6 417.9,51.5 419.9,51.3 421.8,51.1 423.8,50.9 425.7,50.6 427.7,50.4 429.6,50.3 431.6,50.0 433.5,49.7 435.5,49.4 437.4,49.1 439.4,49.0 441.3,48.9 443.3,48.8 445.2,48.6 447.2,48.4 449.1,48.2 451.1,48.0 453.0,47.7 455.0,47.6 456.9,47.4 458.9,47.2 460.8,47.0 462.8,46.7 464.7,46.4 466.7,46.2 468.6,46.0 470.6,45.8 472.5,45.7 474.5,45.6 476.4,45.4 478.4,45.3 480.3,45.1 482.3,44.8 484.2,44.6 486.2,44.4 488.1,44.2 490.1,44.1 492.0,43.9 494.0,43.6 495.9,43.5 497.9,43.3 499.8,43.1 501.8,42.9 503.7,42.7 505.7,42.4 507.6,42.3 509.6,42.2 511.5,42.0 513.5,41.9 515.4,41.7 517.4,41.5 519.3,41.5 521.3,41.3 523.2,40.9 525.2,40.6 527.1,46.5 529.1,45.4 531.0,43.1 533.0,42.2 534.9,41.2 536.9,39.9 538.8,39.2 540.8,38.7 542.7,37.9 544.7,36.6 546.6,35.6 548.6,35.3 550.5,34.8 552.5,34.5 554.4,33.8 556.4,33.1 558.3,32.4 560.3,32.1 562.2,31.4 564.2,31.1 566.1,30.6 568.1,30.3 570.0,30.0 570.0,30.0,120" />
  
  <!-- Linea principale -->
  <polyline fill="none" stroke="#0366d6" stroke-width="2.5" stroke-linecap="round" stroke-linejoin="round" points="30.0,120.0 31.9,119.3 33.9,118.5 35.8,117.8 37.8,117.7 39.7,117.3 41.7,116.5 43.6,115.9 45.6,115.5 47.5,114.7 49.5,114.3 51.4,113.8 53.4,113.6 55.3,113.2 57.3,112.6 59.2,112.0 61.2,111.5 63.1,111.2 65.1,111.0 67.0,110.6 69.0,110.1 70.9,109.8 72.9,109.6 74.8,109.2 76.8,107.8 78.7,107.4 80.7,106.9 82.6,106.4 84.6,105.9 86.5,105.5 88.5,105.2 90.4,104.9 92.4,104.6 94.3,103.9 96.3,103.3 98.2,103.0 100.2,102.5 102.1,102.4 104.1,102.3 106.0,102.0 108.0,101.6 109.9,101.3 111.9,101.2 113.8,100.7 115.8,99.9 117.7,99.8 119.7,99.6 121.6,99.3 123.6,98.8 125.5,98.4 127.5,97.8 129.4,97.4 131.4,96.8 133.3,96.7 135.3,96.4 137.2,95.9 139.2,95.3 141.1,94.9 143.1,94.7 145.0,94.5 147.0,94.2 148.9,93.6 150.9,93.0 152.8,92.5 154.8,92.0 156.7,91.8 158.7,91.6 160.6,91.4 162.6,91.0 164.5,90.7 166.5,90.5 168.4,90.3 170.4,90.1 172.3,89.8 174.3,89.6 176.2,89.5 178.2,89.4 180.1,88.8 182.1,88.5 184.0,88.4 186.0,88.2 187.9,88.1 189.9,88.1 191.8,97.2 193.8,96.3 195.7,95.5 197.7,94.7 199.6,92.2 201.6,90.4 203.5,88.6 205.5,87.9 207.4,87.1 209.4,85.8 211.3,84.4 213.2,83.4 215.2,83.0 217.1,82.7 219.1,81.7 221.0,80.9 223.0,80.5 224.9,79.9 226.9,79.6 228.8,79.5 230.8,79.0 232.7,78.2 234.7,77.6 236.6,76.9 238.6,76.3 240.5,75.9 242.5,75.7 244.4,75.1 246.4,74.6 248.3,74.1 250.3,73.7 252.2,73.5 254.2,73.3 256.1,73.0 258.1,72.6 260.0,72.3 262.0,71.9 263.9,71.7 265.9,71.4 267.8,71.1 269.8,70.9 271.7,70.7 273.7,70.5 275.6,70.0 277.6,69.6 279.5,69.2 281.5,69.0 283.4,68.7 285.4,68.5 287.3,68.3 289.3,68.1 291.2,67.5 293.2,67.0 295.1,66.5 297.1,66.2 299.0,66.2 301.0,65.9 302.9,65.6 304.9,65.3 306.8,65.0 308.8,64.6 310.7,64.3 312.7,64.2 314.6,64.0 316.6,63.8 318.5,63.6 320.5,63.3 322.4,63.1 324.4,62.7 326.3,62.5 328.3,62.4 330.2,62.2 332.2,62.1 334.1,61.7 336.1,61.5 338.0,61.2 340.0,60.9 341.9,60.6 343.9,60.4 345.8,60.3 347.8,60.1 349.7,59.6 351.7,59.3 353.6,59.0 355.6,58.7 357.5,58.2 359.5,58.1 361.4,57.9 363.4,57.8 365.3,57.5 367.3,57.3 369.2,57.0 371.2,56.8 373.1,56.6 375.1,56.4 377.0,56.2 379.0,56.0 380.9,55.9 382.9,55.7 384.8,55.3 386.8,55.1 388.7,54.8 390.6,54.7 392.6,54.5 394.5,54.3 396.5,54.2 398.4,54.0 400.4,53.8 402.3,53.4 404.3,52.9 406.2,52.7 408.2,52.5 410.1,52.4 412.1,52.3 414.0,52.0 416.0,51.6 417.9,51.5 419.9,51.3 421.8,51.1 423.8,50.9 425.7,50.6 427.7,50.4 429.6,50.3 431.6,50.0 433.5,49.7 435.5,49.4 437.4,49.1 439.4,49.0 441.3,48.9 443.3,48.8 445.2,48.6 447.2,48.4 449.1,48.2 451.1,48.0 453.0,47.7 455.0,47.6 456.9,47.4 458.9,47.2 460.8,47.0 462.8,46.7 464.7,46.4 466.7,46.2 468.6,46.0 470.6,45.8 472.5,45.7 474.5,45.6 476.4,45.4 478.4,45.3 480.3,45.1 482.3,44.8 484.2,44.6 486.2,44.4 488.1,44.2 490.1,44.1 492.0,43.9 494.0,43.6 495.9,43.5 497.9,43.3 499.8,43.1 501.8,42.9 503.7,42.7 505.7,42.4 507.6,42.3 509.6,42.2 511.5,42.0 513.5,41.9 515.4,41.7 517.4,41.5 519.3,41.5 521.3,41.3 523.2,40.9 525.2,40.6 527.1,46.5 529.1,45.4 531.0,43.1 533.0,42.2 534.9,41.2 536.9,39.9 538.8,39.2 540.8,38.7 542.7,37.9 544.7,36.6 546.6,35.6 548.6,35.3 550.5,34.8 552.5,34.5 554.4,33.8 556.4,33.1 558.3,32.4 560.3,32.1 562.2,31.4 564.2,31.1 566.1,30.6 568.1,30.3 570.0,30.0" />
  
  <!-- Punto finale luminoso -->
  <circle cx="570.0" cy="30.0" r="4" fill="#ffffff" stroke="#0366d6" stroke-width="2.5" />
</svg>