<svg width="600" height="150" viewBox="0 0 600 150" xmlns="http://www.w3.org/2000/svg">
  <defs>
    <filter id="shadow2" x="-2%" y="-2%" width="104%" height="108%">
      <feDropShadow dx="0" dy="2" stdDeviation="3" flood-opacity="0.1" />
    </filter>
    <linearGradient id="fillGrad" x1="0" y1="0" x2="0" y2="1">
      <stop offset="0%" stop-color="#0366d6" stop-opacity="0.3"/>
      <stop offset="100%" stop-color="#0366d6" stop-opacity="0.02"/>
    </linearGradient>
  </defs>
  <rect width="600" height="150" rx="12" fill="#ffffff" filter="url(#shadow2)" stroke="#e1e4e8" stroke-width="1"/>
  <text x="20" y="24" fill="#2b3137" font-family="-apple-system,BlinkMacSystemFont,'Segoe UI',Helvetica,Arial,sans-serif" font-size="14" font-weight="600">📈 Download Growth (Actual: 74.2k)</text>
  
  <!-- Area sotto la linea -->
  <polygon fill="url(#fillGrad)" points="30.0,120.0,120 30.0,120.0 34.7,118.6 39.3,117.1 44.0,115.8 48.6,115.5 53.3,114.8 57.9,113.2 62.6,112.2 67.2,111.4 71.9,109.8 76.6,109.0 81.2,108.2 85.9,107.7 90.5,106.9 95.2,105.8 99.8,104.7 104.5,103.8 109.1,103.2 113.8,102.7 118.4,102.0 123.1,101.1 127.8,100.4 132.4,100.0 137.1,99.3 141.7,96.7 146.4,95.9 151.0,94.9 155.7,93.9 160.3,93.0 165.0,92.1 169.7,91.6 174.3,91.1 179.0,90.4 183.6,89.2 188.3,88.1 192.9,87.3 197.6,86.5 202.2,86.2 206.9,86.0 211.6,85.6 216.2,84.7 220.9,84.2 225.5,83.9 230.2,82.9 234.8,81.6 239.5,81.2 244.1,81.0 248.8,80.4 253.4,79.3 258.1,78.6 262.8,77.4 267.4,76.6 272.1,75.6 276.7,75.4 281.4,74.8 286.0,73.8 290.7,72.7 295.3,71.9 300.0,71.6 304.7,71.0 309.3,70.6 314.0,69.4 318.6,68.3 323.3,67.4 327.9,66.4 332.6,65.9 337.2,65.6 341.9,65.2 346.6,64.4 351.2,63.9 355.9,63.5 360.5,63.1 365.2,62.7 369.8,62.2 374.5,61.8 379.1,61.5 383.8,61.3 388.4,60.2 393.1,59.6 397.8,59.4 402.4,59.1 407.1,58.9 411.7,58.9 416.4,76.3 421.0,74.6 425.7,73.1 430.3,71.5 435.0,66.7 439.7,63.4 444.3,59.8 449.0,58.5 453.6,57.0 458.3,54.5 462.9,51.9 467.6,49.9 472.2,49.2 476.9,48.5 481.6,46.5 486.2,45.1 490.9,44.3 495.5,43.1 500.2,42.7 504.8,42.5 509.5,41.5 514.1,39.8 518.8,38.7 523.4,37.5 528.1,36.2 532.8,35.5 537.4,35.1 542.1,34.0 546.7,32.9 551.4,32.0 556.0,31.2 560.7,30.8 565.3,30.6 570.0,30.0 570.0,30.0,120" />
  
  <!-- Linea principale -->
  <polyline fill="none" stroke="#0366d6" stroke-width="2.5" stroke-linecap="round" stroke-linejoin="round" points="30.0,120.0 34.7,118.6 39.3,117.1 44.0,115.8 48.6,115.5 53.3,114.8 57.9,113.2 62.6,112.2 67.2,111.4 71.9,109.8 76.6,109.0 81.2,108.2 85.9,107.7 90.5,106.9 95.2,105.8 99.8,104.7 104.5,103.8 109.1,103.2 113.8,102.7 118.4,102.0 123.1,101.1 127.8,100.4 132.4,100.0 137.1,99.3 141.7,96.7 146.4,95.9 151.0,94.9 155.7,93.9 160.3,93.0 165.0,92.1 169.7,91.6 174.3,91.1 179.0,90.4 183.6,89.2 188.3,88.1 192.9,87.3 197.6,86.5 202.2,86.2 206.9,86.0 211.6,85.6 216.2,84.7 220.9,84.2 225.5,83.9 230.2,82.9 234.8,81.6 239.5,81.2 244.1,81.0 248.8,80.4 253.4,79.3 258.1,78.6 262.8,77.4 267.4,76.6 272.1,75.6 276.7,75.4 281.4,74.8 286.0,73.8 290.7,72.7 295.3,71.9 300.0,71.6 304.7,71.0 309.3,70.6 314.0,69.4 318.6,68.3 323.3,67.4 327.9,66.4 332.6,65.9 337.2,65.6 341.9,65.2 346.6,64.4 351.2,63.9 355.9,63.5 360.5,63.1 365.2,62.7 369.8,62.2 374.5,61.8 379.1,61.5 383.8,61.3 388.4,60.2 393.1,59.6 397.8,59.4 402.4,59.1 407.1,58.9 411.7,58.9 416.4,76.3 421.0,74.6 425.7,73.1 430.3,71.5 435.0,66.7 439.7,63.4 444.3,59.8 449.0,58.5 453.6,57.0 458.3,54.5 462.9,51.9 467.6,49.9 472.2,49.2 476.9,48.5 481.6,46.5 486.2,45.1 490.9,44.3 495.5,43.1 500.2,42.7 504.8,42.5 509.5,41.5 514.1,39.8 518.8,38.7 523.4,37.5 528.1,36.2 532.8,35.5 537.4,35.1 542.1,34.0 546.7,32.9 551.4,32.0 556.0,31.2 560.7,30.8 565.3,30.6 570.0,30.0" />
  
  <!-- Punto finale luminoso -->
  <circle cx="570.0" cy="30.0" r="4" fill="#ffffff" stroke="#0366d6" stroke-width="2.5" />
</svg>