<svg width="600" height="150" viewBox="0 0 600 150" xmlns="http://www.w3.org/2000/svg">
  <defs>
    <filter id="shadow2" x="-2%" y="-2%" width="104%" height="108%">
      <feDropShadow dx="0" dy="2" stdDeviation="3" flood-opacity="0.1" />
    </filter>
    <linearGradient id="fillGrad" x1="0" y1="0" x2="0" y2="1">
      <stop offset="0%" stop-color="#0366d6" stop-opacity="0.3"/>
      <stop offset="100%" stop-color="#0366d6" stop-opacity="0.02"/>
    </linearGradient>
  </defs>
  <rect width="600" height="150" rx="12" fill="#ffffff" filter="url(#shadow2)" stroke="#e1e4e8" stroke-width="1"/>
  <text x="20" y="24" fill="#2b3137" font-family="-apple-system,BlinkMacSystemFont,'Segoe UI',Helvetica,Arial,sans-serif" font-size="14" font-weight="600">📈 Download Growth (Actual: 81.8k)</text>
  
  <!-- Area sotto la linea -->
  <polygon fill="url(#fillGrad)" points="30.0,120.0,120 30.0,120.0 31.9,119.3 33.8,118.6 35.6,117.9 37.5,117.8 39.4,117.4 41.2,116.7 43.1,116.1 45.0,115.8 46.9,115.0 48.8,114.6 50.6,114.2 52.5,113.9 54.4,113.6 56.2,113.0 58.1,112.4 60.0,112.0 61.9,111.7 63.8,111.5 65.6,111.1 67.5,110.7 69.4,110.3 71.2,110.1 73.1,109.8 75.0,108.5 76.9,108.1 78.8,107.6 80.6,107.1 82.5,106.7 84.4,106.2 86.2,106.0 88.1,105.8 90.0,105.4 91.9,104.8 93.8,104.2 95.6,103.9 97.5,103.4 99.4,103.3 101.2,103.2 103.1,103.0 105.0,102.6 106.9,102.3 108.8,102.2 110.6,101.7 112.5,101.0 114.4,100.9 116.2,100.7 118.1,100.5 120.0,99.9 121.9,99.6 123.8,99.0 125.6,98.6 127.5,98.1 129.4,98.0 131.2,97.7 133.1,97.2 135.0,96.7 136.9,96.3 138.8,96.1 140.6,95.8 142.5,95.6 144.4,95.0 146.2,94.5 148.1,94.0 150.0,93.5 151.9,93.3 153.8,93.2 155.6,93.0 157.5,92.6 159.4,92.3 161.2,92.1 163.1,91.9 165.0,91.7 166.9,91.4 168.8,91.3 170.6,91.1 172.5,91.0 174.4,90.5 176.2,90.2 178.1,90.1 180.0,89.9 181.9,89.8 183.8,89.8 185.6,98.4 187.5,97.6 189.4,96.8 191.2,96.0 193.1,93.7 195.0,92.0 196.9,90.3 198.8,89.6 200.6,88.9 202.5,87.7 204.4,86.4 206.2,85.4 208.1,85.0 210.0,84.7 211.9,83.7 213.8,83.0 215.6,82.6 217.5,82.1 219.4,81.8 221.2,81.7 223.1,81.2 225.0,80.4 226.9,79.8 228.8,79.3 230.6,78.6 232.5,78.3 234.4,78.1 236.2,77.5 238.1,77.0 240.0,76.5 241.9,76.2 243.8,76.0 245.6,75.9 247.5,75.6 249.4,75.1 251.2,74.8 253.1,74.5 255.0,74.3 256.9,74.0 258.8,73.8 260.6,73.6 262.5,73.4 264.4,73.1 266.2,72.7 268.1,72.4 270.0,72.0 271.9,71.7 273.8,71.5 275.6,71.3 277.5,71.1 279.4,70.9 281.2,70.3 283.1,69.9 285.0,69.4 286.9,69.1 288.8,69.1 290.6,68.9 292.5,68.6 294.4,68.3 296.2,68.0 298.1,67.6 300.0,67.3 301.9,67.2 303.8,67.0 305.6,66.8 307.5,66.7 309.4,66.4 311.2,66.2 313.1,65.8 315.0,65.6 316.9,65.5 318.8,65.3 320.6,65.2 322.5,64.9 324.4,64.6 326.2,64.3 328.1,64.1 330.0,63.8 331.9,63.6 333.8,63.5 335.6,63.3 337.5,62.9 339.4,62.5 341.2,62.3 343.1,62.0 345.0,61.5 346.9,61.4 348.8,61.3 350.6,61.2 352.5,60.9 354.4,60.7 356.2,60.4 358.1,60.3 360.0,60.0 361.9,59.9 363.8,59.6 365.6,59.5 367.5,59.4 369.4,59.1 371.2,58.8 373.1,58.6 375.0,58.4 376.9,58.2 378.8,58.1 380.6,57.9 382.5,57.7 384.4,57.6 386.2,57.3 388.1,57.0 390.0,56.6 391.9,56.3 393.8,56.1 395.6,56.0 397.5,55.9 399.4,55.7 401.2,55.3 403.1,55.2 405.0,55.0 406.9,54.8 408.8,54.6 410.6,54.3 412.5,54.2 414.4,54.1 416.2,53.8 418.1,53.5 420.0,53.2 421.9,53.0 423.8,52.9 425.6,52.8 427.5,52.7 429.4,52.5 431.2,52.3 433.1,52.1 435.0,51.9 436.9,51.6 438.8,51.5 440.6,51.3 442.5,51.2 444.4,51.0 446.2,50.7 448.1,50.4 450.0,50.2 451.9,50.0 453.8,49.8 455.6,49.7 457.5,49.6 459.4,49.5 461.2,49.3 463.1,49.2 465.0,48.8 466.9,48.7 468.8,48.5 470.6,48.3 472.5,48.2 474.4,48.0 476.2,47.7 478.1,47.6 480.0,47.4 481.9,47.3 483.8,47.0 485.6,46.8 487.5,46.6 489.4,46.5 491.2,46.4 493.1,46.3 495.0,46.1 496.9,45.9 498.8,45.8 500.6,45.7 502.5,45.5 504.4,45.1 506.2,44.9 508.1,50.5 510.0,49.4 511.9,47.3 513.8,46.4 515.6,45.5 517.5,44.2 519.4,43.6 521.2,43.1 523.1,42.3 525.0,41.1 526.9,40.2 528.8,39.9 530.6,39.4 532.5,39.1 534.4,38.4 536.2,37.8 538.1,37.2 540.0,36.8 541.9,36.2 543.8,35.9 545.6,35.5 547.5,35.2 549.4,34.9 551.2,34.6 553.1,33.9 555.0,33.5 556.9,33.0 558.8,32.2 560.6,31.7 562.5,31.5 564.4,31.3 566.2,30.9 568.1,30.5 570.0,30.0 570.0,30.0,120" />
  
  <!-- Linea principale -->
  <polyline fill="none" stroke="#0366d6" stroke-width="2.5" stroke-linecap="round" stroke-linejoin="round" points="30.0,120.0 31.9,119.3 33.8,118.6 35.6,117.9 37.5,117.8 39.4,117.4 41.2,116.7 43.1,116.1 45.0,115.8 46.9,115.0 48.8,114.6 50.6,114.2 52.5,113.9 54.4,113.6 56.2,113.0 58.1,112.4 60.0,112.0 61.9,111.7 63.8,111.5 65.6,111.1 67.5,110.7 69.4,110.3 71.2,110.1 73.1,109.8 75.0,108.5 76.9,108.1 78.8,107.6 80.6,107.1 82.5,106.7 84.4,106.2 86.2,106.0 88.1,105.8 90.0,105.4 91.9,104.8 93.8,104.2 95.6,103.9 97.5,103.4 99.4,103.3 101.2,103.2 103.1,103.0 105.0,102.6 106.9,102.3 108.8,102.2 110.6,101.7 112.5,101.0 114.4,100.9 116.2,100.7 118.1,100.5 120.0,99.9 121.9,99.6 123.8,99.0 125.6,98.6 127.5,98.1 129.4,98.0 131.2,97.7 133.1,97.2 135.0,96.7 136.9,96.3 138.8,96.1 140.6,95.8 142.5,95.6 144.4,95.0 146.2,94.5 148.1,94.0 150.0,93.5 151.9,93.3 153.8,93.2 155.6,93.0 157.5,92.6 159.4,92.3 161.2,92.1 163.1,91.9 165.0,91.7 166.9,91.4 168.8,91.3 170.6,91.1 172.5,91.0 174.4,90.5 176.2,90.2 178.1,90.1 180.0,89.9 181.9,89.8 183.8,89.8 185.6,98.4 187.5,97.6 189.4,96.8 191.2,96.0 193.1,93.7 195.0,92.0 196.9,90.3 198.8,89.6 200.6,88.9 202.5,87.7 204.4,86.4 206.2,85.4 208.1,85.0 210.0,84.7 211.9,83.7 213.8,83.0 215.6,82.6 217.5,82.1 219.4,81.8 221.2,81.7 223.1,81.2 225.0,80.4 226.9,79.8 228.8,79.3 230.6,78.6 232.5,78.3 234.4,78.1 236.2,77.5 238.1,77.0 240.0,76.5 241.9,76.2 243.8,76.0 245.6,75.9 247.5,75.6 249.4,75.1 251.2,74.8 253.1,74.5 255.0,74.3 256.9,74.0 258.8,73.8 260.6,73.6 262.5,73.4 264.4,73.1 266.2,72.7 268.1,72.4 270.0,72.0 271.9,71.7 273.8,71.5 275.6,71.3 277.5,71.1 279.4,70.9 281.2,70.3 283.1,69.9 285.0,69.4 286.9,69.1 288.8,69.1 290.6,68.9 292.5,68.6 294.4,68.3 296.2,68.0 298.1,67.6 300.0,67.3 301.9,67.2 303.8,67.0 305.6,66.8 307.5,66.7 309.4,66.4 311.2,66.2 313.1,65.8 315.0,65.6 316.9,65.5 318.8,65.3 320.6,65.2 322.5,64.9 324.4,64.6 326.2,64.3 328.1,64.1 330.0,63.8 331.9,63.6 333.8,63.5 335.6,63.3 337.5,62.9 339.4,62.5 341.2,62.3 343.1,62.0 345.0,61.5 346.9,61.4 348.8,61.3 350.6,61.2 352.5,60.9 354.4,60.7 356.2,60.4 358.1,60.3 360.0,60.0 361.9,59.9 363.8,59.6 365.6,59.5 367.5,59.4 369.4,59.1 371.2,58.8 373.1,58.6 375.0,58.4 376.9,58.2 378.8,58.1 380.6,57.9 382.5,57.7 384.4,57.6 386.2,57.3 388.1,57.0 390.0,56.6 391.9,56.3 393.8,56.1 395.6,56.0 397.5,55.9 399.4,55.7 401.2,55.3 403.1,55.2 405.0,55.0 406.9,54.8 408.8,54.6 410.6,54.3 412.5,54.2 414.4,54.1 416.2,53.8 418.1,53.5 420.0,53.2 421.9,53.0 423.8,52.9 425.6,52.8 427.5,52.7 429.4,52.5 431.2,52.3 433.1,52.1 435.0,51.9 436.9,51.6 438.8,51.5 440.6,51.3 442.5,51.2 444.4,51.0 446.2,50.7 448.1,50.4 450.0,50.2 451.9,50.0 453.8,49.8 455.6,49.7 457.5,49.6 459.4,49.5 461.2,49.3 463.1,49.2 465.0,48.8 466.9,48.7 468.8,48.5 470.6,48.3 472.5,48.2 474.4,48.0 476.2,47.7 478.1,47.6 480.0,47.4 481.9,47.3 483.8,47.0 485.6,46.8 487.5,46.6 489.4,46.5 491.2,46.4 493.1,46.3 495.0,46.1 496.9,45.9 498.8,45.8 500.6,45.7 502.5,45.5 504.4,45.1 506.2,44.9 508.1,50.5 510.0,49.4 511.9,47.3 513.8,46.4 515.6,45.5 517.5,44.2 519.4,43.6 521.2,43.1 523.1,42.3 525.0,41.1 526.9,40.2 528.8,39.9 530.6,39.4 532.5,39.1 534.4,38.4 536.2,37.8 538.1,37.2 540.0,36.8 541.9,36.2 543.8,35.9 545.6,35.5 547.5,35.2 549.4,34.9 551.2,34.6 553.1,33.9 555.0,33.5 556.9,33.0 558.8,32.2 560.6,31.7 562.5,31.5 564.4,31.3 566.2,30.9 568.1,30.5 570.0,30.0" />
  
  <!-- Punto finale luminoso -->
  <circle cx="570.0" cy="30.0" r="4" fill="#ffffff" stroke="#0366d6" stroke-width="2.5" />
</svg>