<svg width="600" height="150" viewBox="0 0 600 150" xmlns="http://www.w3.org/2000/svg">
  <defs>
    <filter id="shadow2" x="-2%" y="-2%" width="104%" height="108%">
      <feDropShadow dx="0" dy="2" stdDeviation="3" flood-opacity="0.1" />
    </filter>
    <linearGradient id="fillGrad" x1="0" y1="0" x2="0" y2="1">
      <stop offset="0%" stop-color="#0366d6" stop-opacity="0.3"/>
      <stop offset="100%" stop-color="#0366d6" stop-opacity="0.02"/>
    </linearGradient>
  </defs>
  <rect width="600" height="150" rx="12" fill="#ffffff" filter="url(#shadow2)" stroke="#e1e4e8" stroke-width="1"/>
  <text x="20" y="24" fill="#2b3137" font-family="-apple-system,BlinkMacSystemFont,'Segoe UI',Helvetica,Arial,sans-serif" font-size="14" font-weight="600">📈 Download Growth (Actual: 75.3k)</text>
  
  <!-- Area sotto la linea -->
  <polygon fill="url(#fillGrad)" points="30.0,120.0,120 30.0,120.0 33.9,118.8 37.9,117.5 41.8,116.4 45.8,116.1 49.7,115.5 53.6,114.1 57.6,113.1 61.5,112.5 65.5,111.1 69.4,110.4 73.4,109.7 77.3,109.2 81.2,108.6 85.2,107.6 89.1,106.6 93.1,105.8 97.0,105.3 100.9,104.9 104.9,104.3 108.8,103.5 112.8,102.8 116.7,102.5 120.7,101.9 124.6,99.6 128.5,98.9 132.5,98.1 136.4,97.2 140.4,96.4 144.3,95.6 148.2,95.2 152.2,94.8 156.1,94.1 160.1,93.0 164.0,92.1 168.0,91.5 171.9,90.7 175.8,90.5 179.8,90.3 183.7,89.9 187.7,89.2 191.6,88.8 195.5,88.4 199.5,87.6 203.4,86.4 207.4,86.1 211.3,85.9 215.3,85.4 219.2,84.5 223.1,83.8 227.1,82.8 231.0,82.1 235.0,81.2 238.9,81.0 242.8,80.5 246.8,79.6 250.7,78.7 254.7,78.0 258.6,77.7 262.6,77.2 266.5,76.8 270.4,75.8 274.4,74.9 278.3,74.0 282.3,73.2 286.2,72.8 290.1,72.5 294.1,72.1 298.0,71.5 302.0,71.0 305.9,70.6 309.9,70.3 313.8,70.0 317.7,69.5 321.7,69.1 325.6,68.9 329.6,68.7 333.5,67.8 337.4,67.3 341.4,67.1 345.3,66.8 349.3,66.6 353.2,66.6 357.2,81.9 361.1,80.4 365.0,79.0 369.0,77.6 372.9,73.4 376.9,70.5 380.8,67.4 384.7,66.2 388.7,64.9 392.6,62.8 396.6,60.5 400.5,58.7 404.5,58.1 408.4,57.5 412.3,55.8 416.3,54.6 420.2,53.8 424.2,52.8 428.1,52.4 432.0,52.3 436.0,51.4 439.9,50.0 443.9,48.9 447.8,47.9 451.8,46.8 455.7,46.2 459.6,45.8 463.6,44.8 467.5,43.9 471.5,43.1 475.4,42.4 479.3,42.1 483.3,41.9 487.2,41.4 491.2,40.6 495.1,40.1 499.1,39.5 503.0,39.1 506.9,38.6 510.9,38.2 514.8,37.8 518.8,37.5 522.7,37.1 526.6,36.3 530.6,35.7 534.5,35.0 538.5,34.6 542.4,34.1 546.4,33.8 550.3,33.5 554.2,33.1 558.2,32.0 562.1,31.3 566.1,30.4 570.0,30.0 570.0,30.0,120" />
  
  <!-- Linea principale -->
  <polyline fill="none" stroke="#0366d6" stroke-width="2.5" stroke-linecap="round" stroke-linejoin="round" points="30.0,120.0 33.9,118.8 37.9,117.5 41.8,116.4 45.8,116.1 49.7,115.5 53.6,114.1 57.6,113.1 61.5,112.5 65.5,111.1 69.4,110.4 73.4,109.7 77.3,109.2 81.2,108.6 85.2,107.6 89.1,106.6 93.1,105.8 97.0,105.3 100.9,104.9 104.9,104.3 108.8,103.5 112.8,102.8 116.7,102.5 120.7,101.9 124.6,99.6 128.5,98.9 132.5,98.1 136.4,97.2 140.4,96.4 144.3,95.6 148.2,95.2 152.2,94.8 156.1,94.1 160.1,93.0 164.0,92.1 168.0,91.5 171.9,90.7 175.8,90.5 179.8,90.3 183.7,89.9 187.7,89.2 191.6,88.8 195.5,88.4 199.5,87.6 203.4,86.4 207.4,86.1 211.3,85.9 215.3,85.4 219.2,84.5 223.1,83.8 227.1,82.8 231.0,82.1 235.0,81.2 238.9,81.0 242.8,80.5 246.8,79.6 250.7,78.7 254.7,78.0 258.6,77.7 262.6,77.2 266.5,76.8 270.4,75.8 274.4,74.9 278.3,74.0 282.3,73.2 286.2,72.8 290.1,72.5 294.1,72.1 298.0,71.5 302.0,71.0 305.9,70.6 309.9,70.3 313.8,70.0 317.7,69.5 321.7,69.1 325.6,68.9 329.6,68.7 333.5,67.8 337.4,67.3 341.4,67.1 345.3,66.8 349.3,66.6 353.2,66.6 357.2,81.9 361.1,80.4 365.0,79.0 369.0,77.6 372.9,73.4 376.9,70.5 380.8,67.4 384.7,66.2 388.7,64.9 392.6,62.8 396.6,60.5 400.5,58.7 404.5,58.1 408.4,57.5 412.3,55.8 416.3,54.6 420.2,53.8 424.2,52.8 428.1,52.4 432.0,52.3 436.0,51.4 439.9,50.0 443.9,48.9 447.8,47.9 451.8,46.8 455.7,46.2 459.6,45.8 463.6,44.8 467.5,43.9 471.5,43.1 475.4,42.4 479.3,42.1 483.3,41.9 487.2,41.4 491.2,40.6 495.1,40.1 499.1,39.5 503.0,39.1 506.9,38.6 510.9,38.2 514.8,37.8 518.8,37.5 522.7,37.1 526.6,36.3 530.6,35.7 534.5,35.0 538.5,34.6 542.4,34.1 546.4,33.8 550.3,33.5 554.2,33.1 558.2,32.0 562.1,31.3 566.1,30.4 570.0,30.0" />
  
  <!-- Punto finale luminoso -->
  <circle cx="570.0" cy="30.0" r="4" fill="#ffffff" stroke="#0366d6" stroke-width="2.5" />
</svg>