<svg width="600" height="150" viewBox="0 0 600 150" xmlns="http://www.w3.org/2000/svg">
  <defs>
    <filter id="shadow2" x="-2%" y="-2%" width="104%" height="108%">
      <feDropShadow dx="0" dy="2" stdDeviation="3" flood-opacity="0.1" />
    </filter>
    <linearGradient id="fillGrad" x1="0" y1="0" x2="0" y2="1">
      <stop offset="0%" stop-color="#0366d6" stop-opacity="0.3"/>
      <stop offset="100%" stop-color="#0366d6" stop-opacity="0.02"/>
    </linearGradient>
  </defs>
  <rect width="600" height="150" rx="12" fill="#ffffff" filter="url(#shadow2)" stroke="#e1e4e8" stroke-width="1"/>
  <text x="20" y="24" fill="#2b3137" font-family="-apple-system,BlinkMacSystemFont,'Segoe UI',Helvetica,Arial,sans-serif" font-size="14" font-weight="600">📈 Download Growth (Actual: 71.3k)</text>
  
  <!-- Area sotto la linea -->
  <polygon fill="url(#fillGrad)" points="30.0,120.0,120 30.0,120.0 38.3,117.7 46.6,115.2 54.9,113.1 63.2,112.5 71.5,111.4 79.8,108.7 88.2,106.9 96.5,105.8 104.8,103.0 113.1,101.7 121.4,100.3 129.7,99.5 138.0,98.3 146.3,96.4 154.6,94.5 162.9,93.0 171.2,92.0 179.5,91.2 187.8,90.0 196.2,88.6 204.5,87.3 212.8,86.7 221.1,85.5 229.4,81.2 237.7,79.9 246.0,78.2 254.3,76.5 262.6,75.0 270.9,73.6 279.2,72.7 287.5,72.0 295.8,70.8 304.2,68.7 312.5,66.9 320.8,65.6 329.1,64.2 337.4,63.8 345.7,63.4 354.0,62.7 362.3,61.3 370.6,60.5 378.9,59.9 387.2,58.3 395.5,56.0 403.8,55.5 412.2,55.0 420.5,54.1 428.8,52.3 437.1,51.1 445.4,49.2 453.7,47.8 462.0,46.1 470.3,45.8 478.6,44.7 486.9,43.0 495.2,41.3 503.5,40.0 511.8,39.4 520.2,38.5 528.5,37.7 536.8,35.8 545.1,34.0 553.4,32.4 561.7,30.8 570.0,30.0 570.0,30.0,120" />
  
  <!-- Linea principale -->
  <polyline fill="none" stroke="#0366d6" stroke-width="2.5" stroke-linecap="round" stroke-linejoin="round" points="30.0,120.0 38.3,117.7 46.6,115.2 54.9,113.1 63.2,112.5 71.5,111.4 79.8,108.7 88.2,106.9 96.5,105.8 104.8,103.0 113.1,101.7 121.4,100.3 129.7,99.5 138.0,98.3 146.3,96.4 154.6,94.5 162.9,93.0 171.2,92.0 179.5,91.2 187.8,90.0 196.2,88.6 204.5,87.3 212.8,86.7 221.1,85.5 229.4,81.2 237.7,79.9 246.0,78.2 254.3,76.5 262.6,75.0 270.9,73.6 279.2,72.7 287.5,72.0 295.8,70.8 304.2,68.7 312.5,66.9 320.8,65.6 329.1,64.2 337.4,63.8 345.7,63.4 354.0,62.7 362.3,61.3 370.6,60.5 378.9,59.9 387.2,58.3 395.5,56.0 403.8,55.5 412.2,55.0 420.5,54.1 428.8,52.3 437.1,51.1 445.4,49.2 453.7,47.8 462.0,46.1 470.3,45.8 478.6,44.7 486.9,43.0 495.2,41.3 503.5,40.0 511.8,39.4 520.2,38.5 528.5,37.7 536.8,35.8 545.1,34.0 553.4,32.4 561.7,30.8 570.0,30.0" />
  
  <!-- Punto finale luminoso -->
  <circle cx="570.0" cy="30.0" r="4" fill="#ffffff" stroke="#0366d6" stroke-width="2.5" />
</svg>