<svg width="600" height="150" viewBox="0 0 600 150" xmlns="http://www.w3.org/2000/svg">
  <defs>
    <filter id="shadow2" x="-2%" y="-2%" width="104%" height="108%">
      <feDropShadow dx="0" dy="2" stdDeviation="3" flood-opacity="0.1" />
    </filter>
    <linearGradient id="fillGrad" x1="0" y1="0" x2="0" y2="1">
      <stop offset="0%" stop-color="#0366d6" stop-opacity="0.3"/>
      <stop offset="100%" stop-color="#0366d6" stop-opacity="0.02"/>
    </linearGradient>
  </defs>
  <rect width="600" height="150" rx="12" fill="#ffffff" filter="url(#shadow2)" stroke="#e1e4e8" stroke-width="1"/>
  <text x="20" y="24" fill="#2b3137" font-family="-apple-system,BlinkMacSystemFont,'Segoe UI',Helvetica,Arial,sans-serif" font-size="14" font-weight="600">📈 Download Growth (Actual: 82.3k)</text>
  
  <!-- Area sotto la linea -->
  <polygon fill="url(#fillGrad)" points="30.0,120.0,120 30.0,120.0 31.8,119.3 33.7,118.6 35.5,118.0 37.4,117.9 39.2,117.5 41.1,116.8 42.9,116.3 44.7,115.9 46.6,115.1 48.4,114.7 50.3,114.4 52.1,114.1 54.0,113.8 55.8,113.2 57.6,112.7 59.5,112.2 61.3,112.0 63.2,111.8 65.0,111.4 66.9,111.0 68.7,110.6 70.5,110.4 72.4,110.1 74.2,108.9 76.1,108.5 77.9,108.0 79.8,107.5 81.6,107.1 83.4,106.7 85.3,106.4 87.1,106.2 89.0,105.9 90.8,105.3 92.7,104.8 94.5,104.4 96.3,104.0 98.2,103.9 100.0,103.8 101.9,103.6 103.7,103.2 105.6,102.9 107.4,102.8 109.2,102.3 111.1,101.6 112.9,101.5 114.8,101.4 116.6,101.1 118.5,100.6 120.3,100.2 122.2,99.7 124.0,99.3 125.8,98.8 127.7,98.7 129.5,98.4 131.4,97.9 133.2,97.4 135.1,97.0 136.9,96.9 138.7,96.6 140.6,96.4 142.4,95.8 144.3,95.3 146.1,94.9 148.0,94.4 149.8,94.2 151.6,94.0 153.5,93.8 155.3,93.5 157.2,93.2 159.0,93.0 160.9,92.8 162.7,92.7 164.5,92.4 166.4,92.2 168.2,92.1 170.1,92.0 171.9,91.5 173.8,91.2 175.6,91.1 177.4,90.9 179.3,90.8 181.1,90.8 183.0,99.2 184.8,98.3 186.7,97.6 188.5,96.8 190.3,94.6 192.2,93.0 194.0,91.3 195.9,90.6 197.7,89.9 199.6,88.7 201.4,87.5 203.2,86.5 205.1,86.2 206.9,85.8 208.8,84.9 210.6,84.3 212.5,83.8 214.3,83.3 216.1,83.1 218.0,83.0 219.8,82.5 221.7,81.7 223.5,81.2 225.4,80.6 227.2,80.0 229.0,79.7 230.9,79.5 232.7,78.9 234.6,78.4 236.4,78.0 238.3,77.6 240.1,77.4 241.9,77.3 243.8,77.0 245.6,76.6 247.5,76.3 249.3,76.0 251.2,75.8 253.0,75.5 254.8,75.3 256.7,75.1 258.5,74.9 260.4,74.7 262.2,74.2 264.1,73.9 265.9,73.6 267.7,73.3 269.6,73.1 271.4,72.9 273.3,72.7 275.1,72.5 277.0,71.9 278.8,71.5 280.6,71.0 282.5,70.8 284.3,70.8 286.2,70.5 288.0,70.3 289.9,70.0 291.7,69.7 293.5,69.3 295.4,69.1 297.2,68.9 299.1,68.7 300.9,68.6 302.8,68.4 304.6,68.2 306.5,68.0 308.3,67.6 310.1,67.4 312.0,67.3 313.8,67.1 315.7,67.0 317.5,66.7 319.4,66.5 321.2,66.2 323.0,65.9 324.9,65.6 326.7,65.5 328.6,65.3 330.4,65.2 332.3,64.8 334.1,64.4 335.9,64.2 337.8,63.9 339.6,63.5 341.5,63.4 343.3,63.2 345.2,63.1 347.0,62.9 348.8,62.7 350.7,62.4 352.5,62.2 354.4,62.0 356.2,61.8 358.1,61.6 359.9,61.5 361.7,61.4 363.6,61.1 365.4,60.8 367.3,60.7 369.1,60.4 371.0,60.3 372.8,60.1 374.6,59.9 376.5,59.8 378.3,59.6 380.2,59.4 382.0,59.1 383.9,58.7 385.7,58.4 387.5,58.2 389.4,58.1 391.2,58.0 393.1,57.8 394.9,57.5 396.8,57.3 398.6,57.2 400.4,56.9 402.3,56.7 404.1,56.5 406.0,56.4 407.8,56.2 409.7,55.9 411.5,55.7 413.3,55.4 415.2,55.2 417.0,55.1 418.9,55.0 420.7,54.9 422.6,54.7 424.4,54.5 426.2,54.3 428.1,54.1 429.9,53.9 431.8,53.7 433.6,53.6 435.5,53.4 437.3,53.3 439.1,53.0 441.0,52.7 442.8,52.5 444.7,52.3 446.5,52.1 448.4,52.0 450.2,51.9 452.0,51.8 453.9,51.7 455.7,51.5 457.6,51.2 459.4,51.0 461.3,50.8 463.1,50.7 464.9,50.5 466.8,50.3 468.6,50.1 470.5,50.0 472.3,49.8 474.2,49.7 476.0,49.4 477.8,49.2 479.7,49.0 481.5,48.9 483.4,48.8 485.2,48.7 487.1,48.5 488.9,48.4 490.8,48.2 492.6,48.2 494.4,48.0 496.3,47.6 498.1,47.3 500.0,52.8 501.8,51.7 503.7,49.7 505.5,48.9 507.3,47.9 509.2,46.7 511.0,46.1 512.9,45.7 514.7,44.9 516.6,43.7 518.4,42.8 520.2,42.5 522.1,42.1 523.9,41.7 525.8,41.1 527.6,40.5 529.5,39.9 531.3,39.6 533.1,39.0 535.0,38.7 536.8,38.2 538.7,38.0 540.5,37.7 542.4,37.4 544.2,36.8 546.0,36.4 547.9,35.8 549.7,35.1 551.6,34.6 553.4,34.4 555.3,34.2 557.1,33.9 558.9,33.4 560.8,33.0 562.6,32.6 564.5,31.5 566.3,30.6 568.2,30.2 570.0,30.0 570.0,30.0,120" />
  
  <!-- Linea principale -->
  <polyline fill="none" stroke="#0366d6" stroke-width="2.5" stroke-linecap="round" stroke-linejoin="round" points="30.0,120.0 31.8,119.3 33.7,118.6 35.5,118.0 37.4,117.9 39.2,117.5 41.1,116.8 42.9,116.3 44.7,115.9 46.6,115.1 48.4,114.7 50.3,114.4 52.1,114.1 54.0,113.8 55.8,113.2 57.6,112.7 59.5,112.2 61.3,112.0 63.2,111.8 65.0,111.4 66.9,111.0 68.7,110.6 70.5,110.4 72.4,110.1 74.2,108.9 76.1,108.5 77.9,108.0 79.8,107.5 81.6,107.1 83.4,106.7 85.3,106.4 87.1,106.2 89.0,105.9 90.8,105.3 92.7,104.8 94.5,104.4 96.3,104.0 98.2,103.9 100.0,103.8 101.9,103.6 103.7,103.2 105.6,102.9 107.4,102.8 109.2,102.3 111.1,101.6 112.9,101.5 114.8,101.4 116.6,101.1 118.5,100.6 120.3,100.2 122.2,99.7 124.0,99.3 125.8,98.8 127.7,98.7 129.5,98.4 131.4,97.9 133.2,97.4 135.1,97.0 136.9,96.9 138.7,96.6 140.6,96.4 142.4,95.8 144.3,95.3 146.1,94.9 148.0,94.4 149.8,94.2 151.6,94.0 153.5,93.8 155.3,93.5 157.2,93.2 159.0,93.0 160.9,92.8 162.7,92.7 164.5,92.4 166.4,92.2 168.2,92.1 170.1,92.0 171.9,91.5 173.8,91.2 175.6,91.1 177.4,90.9 179.3,90.8 181.1,90.8 183.0,99.2 184.8,98.3 186.7,97.6 188.5,96.8 190.3,94.6 192.2,93.0 194.0,91.3 195.9,90.6 197.7,89.9 199.6,88.7 201.4,87.5 203.2,86.5 205.1,86.2 206.9,85.8 208.8,84.9 210.6,84.3 212.5,83.8 214.3,83.3 216.1,83.1 218.0,83.0 219.8,82.5 221.7,81.7 223.5,81.2 225.4,80.6 227.2,80.0 229.0,79.7 230.9,79.5 232.7,78.9 234.6,78.4 236.4,78.0 238.3,77.6 240.1,77.4 241.9,77.3 243.8,77.0 245.6,76.6 247.5,76.3 249.3,76.0 251.2,75.8 253.0,75.5 254.8,75.3 256.7,75.1 258.5,74.9 260.4,74.7 262.2,74.2 264.1,73.9 265.9,73.6 267.7,73.3 269.6,73.1 271.4,72.9 273.3,72.7 275.1,72.5 277.0,71.9 278.8,71.5 280.6,71.0 282.5,70.8 284.3,70.8 286.2,70.5 288.0,70.3 289.9,70.0 291.7,69.7 293.5,69.3 295.4,69.1 297.2,68.9 299.1,68.7 300.9,68.6 302.8,68.4 304.6,68.2 306.5,68.0 308.3,67.6 310.1,67.4 312.0,67.3 313.8,67.1 315.7,67.0 317.5,66.7 319.4,66.5 321.2,66.2 323.0,65.9 324.9,65.6 326.7,65.5 328.6,65.3 330.4,65.2 332.3,64.8 334.1,64.4 335.9,64.2 337.8,63.9 339.6,63.5 341.5,63.4 343.3,63.2 345.2,63.1 347.0,62.9 348.8,62.7 350.7,62.4 352.5,62.2 354.4,62.0 356.2,61.8 358.1,61.6 359.9,61.5 361.7,61.4 363.6,61.1 365.4,60.8 367.3,60.7 369.1,60.4 371.0,60.3 372.8,60.1 374.6,59.9 376.5,59.8 378.3,59.6 380.2,59.4 382.0,59.1 383.9,58.7 385.7,58.4 387.5,58.2 389.4,58.1 391.2,58.0 393.1,57.8 394.9,57.5 396.8,57.3 398.6,57.2 400.4,56.9 402.3,56.7 404.1,56.5 406.0,56.4 407.8,56.2 409.7,55.9 411.5,55.7 413.3,55.4 415.2,55.2 417.0,55.1 418.9,55.0 420.7,54.9 422.6,54.7 424.4,54.5 426.2,54.3 428.1,54.1 429.9,53.9 431.8,53.7 433.6,53.6 435.5,53.4 437.3,53.3 439.1,53.0 441.0,52.7 442.8,52.5 444.7,52.3 446.5,52.1 448.4,52.0 450.2,51.9 452.0,51.8 453.9,51.7 455.7,51.5 457.6,51.2 459.4,51.0 461.3,50.8 463.1,50.7 464.9,50.5 466.8,50.3 468.6,50.1 470.5,50.0 472.3,49.8 474.2,49.7 476.0,49.4 477.8,49.2 479.7,49.0 481.5,48.9 483.4,48.8 485.2,48.7 487.1,48.5 488.9,48.4 490.8,48.2 492.6,48.2 494.4,48.0 496.3,47.6 498.1,47.3 500.0,52.8 501.8,51.7 503.7,49.7 505.5,48.9 507.3,47.9 509.2,46.7 511.0,46.1 512.9,45.7 514.7,44.9 516.6,43.7 518.4,42.8 520.2,42.5 522.1,42.1 523.9,41.7 525.8,41.1 527.6,40.5 529.5,39.9 531.3,39.6 533.1,39.0 535.0,38.7 536.8,38.2 538.7,38.0 540.5,37.7 542.4,37.4 544.2,36.8 546.0,36.4 547.9,35.8 549.7,35.1 551.6,34.6 553.4,34.4 555.3,34.2 557.1,33.9 558.9,33.4 560.8,33.0 562.6,32.6 564.5,31.5 566.3,30.6 568.2,30.2 570.0,30.0" />
  
  <!-- Punto finale luminoso -->
  <circle cx="570.0" cy="30.0" r="4" fill="#ffffff" stroke="#0366d6" stroke-width="2.5" />
</svg>