<svg width="600" height="150" viewBox="0 0 600 150" xmlns="http://www.w3.org/2000/svg">
  <defs>
    <filter id="shadow2" x="-2%" y="-2%" width="104%" height="108%">
      <feDropShadow dx="0" dy="2" stdDeviation="3" flood-opacity="0.1" />
    </filter>
    <linearGradient id="fillGrad" x1="0" y1="0" x2="0" y2="1">
      <stop offset="0%" stop-color="#0366d6" stop-opacity="0.3"/>
      <stop offset="100%" stop-color="#0366d6" stop-opacity="0.02"/>
    </linearGradient>
  </defs>
  <rect width="600" height="150" rx="12" fill="#ffffff" filter="url(#shadow2)" stroke="#e1e4e8" stroke-width="1"/>
  <text x="20" y="24" fill="#2b3137" font-family="-apple-system,BlinkMacSystemFont,'Segoe UI',Helvetica,Arial,sans-serif" font-size="14" font-weight="600">📈 Download Growth (Actual: 70.9k)</text>
  
  <!-- Area sotto la linea -->
  <polygon fill="url(#fillGrad)" points="30.0,120.0,120 30.0,120.0 39.2,117.5 48.3,114.7 57.5,112.4 66.6,111.7 75.8,110.5 84.9,107.5 94.1,105.6 103.2,104.3 112.4,101.3 121.5,99.8 130.7,98.2 139.8,97.4 149.0,96.0 158.1,94.0 167.3,91.8 176.4,90.1 185.6,89.0 194.7,88.2 203.9,86.9 213.1,85.3 222.2,83.9 231.4,83.2 240.5,81.9 249.7,77.1 258.8,75.7 268.0,73.8 277.1,72.0 286.3,70.3 295.4,68.8 304.6,67.7 313.7,66.9 322.9,65.6 332.0,63.3 341.2,61.3 350.3,60.0 359.5,58.4 368.6,57.9 377.8,57.5 386.9,56.7 396.1,55.2 405.3,54.3 414.4,53.6 423.6,51.9 432.7,49.3 441.9,48.7 451.0,48.2 460.2,47.2 469.3,45.2 478.5,43.9 487.6,41.8 496.8,40.3 505.9,38.4 515.1,38.0 524.2,36.9 533.4,35.0 542.5,33.1 551.7,31.6 560.8,31.0 570.0,30.0 570.0,30.0,120" />
  
  <!-- Linea principale -->
  <polyline fill="none" stroke="#0366d6" stroke-width="2.5" stroke-linecap="round" stroke-linejoin="round" points="30.0,120.0 39.2,117.5 48.3,114.7 57.5,112.4 66.6,111.7 75.8,110.5 84.9,107.5 94.1,105.6 103.2,104.3 112.4,101.3 121.5,99.8 130.7,98.2 139.8,97.4 149.0,96.0 158.1,94.0 167.3,91.8 176.4,90.1 185.6,89.0 194.7,88.2 203.9,86.9 213.1,85.3 222.2,83.9 231.4,83.2 240.5,81.9 249.7,77.1 258.8,75.7 268.0,73.8 277.1,72.0 286.3,70.3 295.4,68.8 304.6,67.7 313.7,66.9 322.9,65.6 332.0,63.3 341.2,61.3 350.3,60.0 359.5,58.4 368.6,57.9 377.8,57.5 386.9,56.7 396.1,55.2 405.3,54.3 414.4,53.6 423.6,51.9 432.7,49.3 441.9,48.7 451.0,48.2 460.2,47.2 469.3,45.2 478.5,43.9 487.6,41.8 496.8,40.3 505.9,38.4 515.1,38.0 524.2,36.9 533.4,35.0 542.5,33.1 551.7,31.6 560.8,31.0 570.0,30.0" />
  
  <!-- Punto finale luminoso -->
  <circle cx="570.0" cy="30.0" r="4" fill="#ffffff" stroke="#0366d6" stroke-width="2.5" />
</svg>