<svg width="600" height="150" viewBox="0 0 600 150" xmlns="http://www.w3.org/2000/svg">
  <defs>
    <filter id="shadow2" x="-2%" y="-2%" width="104%" height="108%">
      <feDropShadow dx="0" dy="2" stdDeviation="3" flood-opacity="0.1" />
    </filter>
    <linearGradient id="fillGrad" x1="0" y1="0" x2="0" y2="1">
      <stop offset="0%" stop-color="#0366d6" stop-opacity="0.3"/>
      <stop offset="100%" stop-color="#0366d6" stop-opacity="0.02"/>
    </linearGradient>
  </defs>
  <rect width="600" height="150" rx="12" fill="#ffffff" filter="url(#shadow2)" stroke="#e1e4e8" stroke-width="1"/>
  <text x="20" y="24" fill="#2b3137" font-family="-apple-system,BlinkMacSystemFont,'Segoe UI',Helvetica,Arial,sans-serif" font-size="14" font-weight="600">📈 Download Growth (Actual: 87.1k)</text>
  
  <!-- Area sotto la linea -->
  <polygon fill="url(#fillGrad)" points="30.0,120.0,120 30.0,120.0 31.3,119.5 32.7,119.0 34.0,118.5 35.4,118.4 36.7,118.1 38.1,117.5 39.4,117.1 40.7,116.9 42.1,116.3 43.4,116.0 44.8,115.7 46.1,115.5 47.5,115.3 48.8,114.9 50.1,114.4 51.5,114.1 52.8,113.9 54.2,113.7 55.5,113.4 56.9,113.1 58.2,112.9 59.6,112.7 60.9,112.5 62.2,111.5 63.6,111.2 64.9,110.9 66.3,110.5 67.6,110.2 69.0,109.9 70.3,109.7 71.6,109.5 73.0,109.2 74.3,108.8 75.7,108.4 77.0,108.1 78.4,107.8 79.7,107.7 81.0,107.6 82.4,107.5 83.7,107.2 85.1,107.0 86.4,106.9 87.8,106.5 89.1,106.0 90.4,105.9 91.8,105.8 93.1,105.6 94.5,105.2 95.8,104.9 97.2,104.5 98.5,104.2 99.9,103.9 101.2,103.8 102.5,103.6 103.9,103.2 105.2,102.8 106.6,102.5 107.9,102.4 109.3,102.2 110.6,102.0 111.9,101.6 113.3,101.2 114.6,100.9 116.0,100.5 117.3,100.3 118.7,100.2 120.0,100.1 121.3,99.8 122.7,99.6 124.0,99.4 125.4,99.3 126.7,99.2 128.1,99.0 129.4,98.8 130.7,98.7 132.1,98.6 133.4,98.3 134.8,98.0 136.1,98.0 137.5,97.8 138.8,97.8 140.1,97.8 141.5,104.1 142.8,103.5 144.2,102.9 145.5,102.3 146.9,100.6 148.2,99.4 149.6,98.1 150.9,97.6 152.2,97.1 153.6,96.2 154.9,95.2 156.3,94.5 157.6,94.2 159.0,94.0 160.3,93.3 161.6,92.8 163.0,92.5 164.3,92.0 165.7,91.9 167.0,91.8 168.4,91.4 169.7,90.8 171.0,90.4 172.4,90.0 173.7,89.5 175.1,89.3 176.4,89.1 177.8,88.7 179.1,88.3 180.4,88.0 181.8,87.7 183.1,87.6 184.5,87.5 185.8,87.3 187.2,87.0 188.5,86.7 189.9,86.5 191.2,86.3 192.5,86.1 193.9,86.0 195.2,85.8 196.6,85.6 197.9,85.5 199.3,85.1 200.6,84.9 201.9,84.6 203.3,84.5 204.6,84.3 206.0,84.1 207.3,84.0 208.7,83.8 210.0,83.4 211.3,83.1 212.7,82.7 214.0,82.5 215.4,82.5 216.7,82.3 218.1,82.1 219.4,81.9 220.7,81.7 222.1,81.4 223.4,81.2 224.8,81.1 226.1,81.0 227.5,80.8 228.8,80.7 230.1,80.5 231.5,80.4 232.8,80.1 234.2,80.0 235.5,79.9 236.9,79.7 238.2,79.6 239.6,79.4 240.9,79.2 242.2,79.0 243.6,78.8 244.9,78.6 246.3,78.5 247.6,78.4 249.0,78.2 250.3,77.9 251.6,77.7 253.0,77.5 254.3,77.3 255.7,76.9 257.0,76.8 258.4,76.7 259.7,76.6 261.0,76.5 262.4,76.3 263.7,76.1 265.1,76.0 266.4,75.8 267.8,75.7 269.1,75.5 270.4,75.4 271.8,75.3 273.1,75.2 274.5,74.9 275.8,74.8 277.2,74.6 278.5,74.5 279.9,74.4 281.2,74.2 282.5,74.1 283.9,74.0 285.2,73.8 286.6,73.6 287.9,73.3 289.3,73.1 290.6,72.9 291.9,72.9 293.3,72.8 294.6,72.6 296.0,72.4 297.3,72.2 298.7,72.1 300.0,72.0 301.3,71.8 302.7,71.6 304.0,71.5 305.4,71.4 306.7,71.2 308.1,71.0 309.4,70.8 310.7,70.6 312.1,70.5 313.4,70.5 314.8,70.4 316.1,70.3 317.5,70.1 318.8,70.0 320.1,69.8 321.5,69.6 322.8,69.5 324.2,69.4 325.5,69.3 326.9,69.2 328.2,68.9 329.6,68.7 330.9,68.6 332.2,68.4 333.6,68.3 334.9,68.2 336.3,68.1 337.6,68.0 339.0,67.9 340.3,67.8 341.6,67.6 343.0,67.4 344.3,67.3 345.7,67.2 347.0,67.1 348.4,66.9 349.7,66.8 351.0,66.7 352.4,66.5 353.7,66.4 355.1,66.2 356.4,66.1 357.8,65.9 359.1,65.9 360.4,65.8 361.8,65.7 363.1,65.6 364.5,65.4 365.8,65.3 367.2,65.3 368.5,65.1 369.9,64.8 371.2,64.6 372.5,68.8 373.9,68.0 375.2,66.4 376.6,65.8 377.9,65.1 379.3,64.2 380.6,63.7 381.9,63.4 383.3,62.8 384.6,61.9 386.0,61.2 387.3,61.0 388.7,60.7 390.0,60.4 391.3,59.9 392.7,59.5 394.0,59.0 395.4,58.7 396.7,58.3 398.1,58.0 399.4,57.7 400.7,57.5 402.1,57.3 403.4,57.1 404.8,56.6 406.1,56.3 407.5,55.9 408.8,55.3 410.1,55.0 411.5,54.8 412.8,54.6 414.2,54.4 415.5,54.0 416.9,53.7 418.2,53.4 419.6,52.6 420.9,51.9 422.2,51.6 423.6,51.4 424.9,51.2 426.3,50.7 427.6,50.3 429.0,50.1 430.3,49.8 431.6,49.5 433.0,49.2 434.3,48.9 435.7,48.5 437.0,48.3 438.4,48.1 439.7,47.9 441.0,47.6 442.4,47.3 443.7,47.1 445.1,47.0 446.4,46.8 447.8,46.5 449.1,46.4 450.4,46.2 451.8,46.0 453.1,45.9 454.5,45.7 455.8,45.4 457.2,45.2 458.5,44.9 459.9,44.6 461.2,44.3 462.5,44.2 463.9,44.0 465.2,43.8 466.6,43.6 467.9,43.5 469.3,43.3 470.6,43.2 471.9,43.1 473.3,42.9 474.6,42.8 476.0,42.5 477.3,42.3 478.7,42.2 480.0,42.0 481.3,41.6 482.7,41.3 484.0,41.1 485.4,40.9 486.7,40.7 488.1,40.5 489.4,40.2 490.7,40.0 492.1,39.8 493.4,39.7 494.8,39.6 496.1,39.4 497.5,39.1 498.8,39.0 500.1,38.9 501.5,38.6 502.8,38.4 504.2,38.2 505.5,38.0 506.9,37.8 508.2,37.5 509.6,37.3 510.9,37.1 512.2,37.0 513.6,36.8 514.9,36.7 516.3,36.5 517.6,36.3 519.0,36.1 520.3,36.0 521.6,35.8 523.0,35.7 524.3,35.5 525.7,35.4 527.0,35.2 528.4,35.1 529.7,35.0 531.0,34.8 532.4,34.7 533.7,34.5 535.1,34.3 536.4,34.2 537.8,34.1 539.1,33.9 540.4,33.6 541.8,33.5 543.1,33.4 544.5,33.3 545.8,33.0 547.2,32.8 548.5,32.5 549.9,32.4 551.2,32.3 552.5,32.3 553.9,32.1 555.2,32.0 556.6,31.7 557.9,31.4 559.3,31.3 560.6,31.1 561.9,31.0 563.3,30.9 564.6,30.7 566.0,30.5 567.3,30.3 568.7,30.1 570.0,30.0 570.0,30.0,120" />
  
  <!-- Linea principale -->
  <polyline fill="none" stroke="#0366d6" stroke-width="2.5" stroke-linecap="round" stroke-linejoin="round" points="30.0,120.0 31.3,119.5 32.7,119.0 34.0,118.5 35.4,118.4 36.7,118.1 38.1,117.5 39.4,117.1 40.7,116.9 42.1,116.3 43.4,116.0 44.8,115.7 46.1,115.5 47.5,115.3 48.8,114.9 50.1,114.4 51.5,114.1 52.8,113.9 54.2,113.7 55.5,113.4 56.9,113.1 58.2,112.9 59.6,112.7 60.9,112.5 62.2,111.5 63.6,111.2 64.9,110.9 66.3,110.5 67.6,110.2 69.0,109.9 70.3,109.7 71.6,109.5 73.0,109.2 74.3,108.8 75.7,108.4 77.0,108.1 78.4,107.8 79.7,107.7 81.0,107.6 82.4,107.5 83.7,107.2 85.1,107.0 86.4,106.9 87.8,106.5 89.1,106.0 90.4,105.9 91.8,105.8 93.1,105.6 94.5,105.2 95.8,104.9 97.2,104.5 98.5,104.2 99.9,103.9 101.2,103.8 102.5,103.6 103.9,103.2 105.2,102.8 106.6,102.5 107.9,102.4 109.3,102.2 110.6,102.0 111.9,101.6 113.3,101.2 114.6,100.9 116.0,100.5 117.3,100.3 118.7,100.2 120.0,100.1 121.3,99.8 122.7,99.6 124.0,99.4 125.4,99.3 126.7,99.2 128.1,99.0 129.4,98.8 130.7,98.7 132.1,98.6 133.4,98.3 134.8,98.0 136.1,98.0 137.5,97.8 138.8,97.8 140.1,97.8 141.5,104.1 142.8,103.5 144.2,102.9 145.5,102.3 146.9,100.6 148.2,99.4 149.6,98.1 150.9,97.6 152.2,97.1 153.6,96.2 154.9,95.2 156.3,94.5 157.6,94.2 159.0,94.0 160.3,93.3 161.6,92.8 163.0,92.5 164.3,92.0 165.7,91.9 167.0,91.8 168.4,91.4 169.7,90.8 171.0,90.4 172.4,90.0 173.7,89.5 175.1,89.3 176.4,89.1 177.8,88.7 179.1,88.3 180.4,88.0 181.8,87.7 183.1,87.6 184.5,87.5 185.8,87.3 187.2,87.0 188.5,86.7 189.9,86.5 191.2,86.3 192.5,86.1 193.9,86.0 195.2,85.8 196.6,85.6 197.9,85.5 199.3,85.1 200.6,84.9 201.9,84.6 203.3,84.5 204.6,84.3 206.0,84.1 207.3,84.0 208.7,83.8 210.0,83.4 211.3,83.1 212.7,82.7 214.0,82.5 215.4,82.5 216.7,82.3 218.1,82.1 219.4,81.9 220.7,81.7 222.1,81.4 223.4,81.2 224.8,81.1 226.1,81.0 227.5,80.8 228.8,80.7 230.1,80.5 231.5,80.4 232.8,80.1 234.2,80.0 235.5,79.9 236.9,79.7 238.2,79.6 239.6,79.4 240.9,79.2 242.2,79.0 243.6,78.8 244.9,78.6 246.3,78.5 247.6,78.4 249.0,78.2 250.3,77.9 251.6,77.7 253.0,77.5 254.3,77.3 255.7,76.9 257.0,76.8 258.4,76.7 259.7,76.6 261.0,76.5 262.4,76.3 263.7,76.1 265.1,76.0 266.4,75.8 267.8,75.7 269.1,75.5 270.4,75.4 271.8,75.3 273.1,75.2 274.5,74.9 275.8,74.8 277.2,74.6 278.5,74.5 279.9,74.4 281.2,74.2 282.5,74.1 283.9,74.0 285.2,73.8 286.6,73.6 287.9,73.3 289.3,73.1 290.6,72.9 291.9,72.9 293.3,72.8 294.6,72.6 296.0,72.4 297.3,72.2 298.7,72.1 300.0,72.0 301.3,71.8 302.7,71.6 304.0,71.5 305.4,71.4 306.7,71.2 308.1,71.0 309.4,70.8 310.7,70.6 312.1,70.5 313.4,70.5 314.8,70.4 316.1,70.3 317.5,70.1 318.8,70.0 320.1,69.8 321.5,69.6 322.8,69.5 324.2,69.4 325.5,69.3 326.9,69.2 328.2,68.9 329.6,68.7 330.9,68.6 332.2,68.4 333.6,68.3 334.9,68.2 336.3,68.1 337.6,68.0 339.0,67.9 340.3,67.8 341.6,67.6 343.0,67.4 344.3,67.3 345.7,67.2 347.0,67.1 348.4,66.9 349.7,66.8 351.0,66.7 352.4,66.5 353.7,66.4 355.1,66.2 356.4,66.1 357.8,65.9 359.1,65.9 360.4,65.8 361.8,65.7 363.1,65.6 364.5,65.4 365.8,65.3 367.2,65.3 368.5,65.1 369.9,64.8 371.2,64.6 372.5,68.8 373.9,68.0 375.2,66.4 376.6,65.8 377.9,65.1 379.3,64.2 380.6,63.7 381.9,63.4 383.3,62.8 384.6,61.9 386.0,61.2 387.3,61.0 388.7,60.7 390.0,60.4 391.3,59.9 392.7,59.5 394.0,59.0 395.4,58.7 396.7,58.3 398.1,58.0 399.4,57.7 400.7,57.5 402.1,57.3 403.4,57.1 404.8,56.6 406.1,56.3 407.5,55.9 408.8,55.3 410.1,55.0 411.5,54.8 412.8,54.6 414.2,54.4 415.5,54.0 416.9,53.7 418.2,53.4 419.6,52.6 420.9,51.9 422.2,51.6 423.6,51.4 424.9,51.2 426.3,50.7 427.6,50.3 429.0,50.1 430.3,49.8 431.6,49.5 433.0,49.2 434.3,48.9 435.7,48.5 437.0,48.3 438.4,48.1 439.7,47.9 441.0,47.6 442.4,47.3 443.7,47.1 445.1,47.0 446.4,46.8 447.8,46.5 449.1,46.4 450.4,46.2 451.8,46.0 453.1,45.9 454.5,45.7 455.8,45.4 457.2,45.2 458.5,44.9 459.9,44.6 461.2,44.3 462.5,44.2 463.9,44.0 465.2,43.8 466.6,43.6 467.9,43.5 469.3,43.3 470.6,43.2 471.9,43.1 473.3,42.9 474.6,42.8 476.0,42.5 477.3,42.3 478.7,42.2 480.0,42.0 481.3,41.6 482.7,41.3 484.0,41.1 485.4,40.9 486.7,40.7 488.1,40.5 489.4,40.2 490.7,40.0 492.1,39.8 493.4,39.7 494.8,39.6 496.1,39.4 497.5,39.1 498.8,39.0 500.1,38.9 501.5,38.6 502.8,38.4 504.2,38.2 505.5,38.0 506.9,37.8 508.2,37.5 509.6,37.3 510.9,37.1 512.2,37.0 513.6,36.8 514.9,36.7 516.3,36.5 517.6,36.3 519.0,36.1 520.3,36.0 521.6,35.8 523.0,35.7 524.3,35.5 525.7,35.4 527.0,35.2 528.4,35.1 529.7,35.0 531.0,34.8 532.4,34.7 533.7,34.5 535.1,34.3 536.4,34.2 537.8,34.1 539.1,33.9 540.4,33.6 541.8,33.5 543.1,33.4 544.5,33.3 545.8,33.0 547.2,32.8 548.5,32.5 549.9,32.4 551.2,32.3 552.5,32.3 553.9,32.1 555.2,32.0 556.6,31.7 557.9,31.4 559.3,31.3 560.6,31.1 561.9,31.0 563.3,30.9 564.6,30.7 566.0,30.5 567.3,30.3 568.7,30.1 570.0,30.0" />
  
  <!-- Punto finale luminoso -->
  <circle cx="570.0" cy="30.0" r="4" fill="#ffffff" stroke="#0366d6" stroke-width="2.5" />
</svg>