<svg width="600" height="150" viewBox="0 0 600 150" xmlns="http://www.w3.org/2000/svg">
  <defs>
    <filter id="shadow2" x="-2%" y="-2%" width="104%" height="108%">
      <feDropShadow dx="0" dy="2" stdDeviation="3" flood-opacity="0.1" />
    </filter>
    <linearGradient id="fillGrad" x1="0" y1="0" x2="0" y2="1">
      <stop offset="0%" stop-color="#0366d6" stop-opacity="0.3"/>
      <stop offset="100%" stop-color="#0366d6" stop-opacity="0.02"/>
    </linearGradient>
  </defs>
  <rect width="600" height="150" rx="12" fill="#ffffff" filter="url(#shadow2)" stroke="#e1e4e8" stroke-width="1"/>
  <text x="20" y="24" fill="#2b3137" font-family="-apple-system,BlinkMacSystemFont,'Segoe UI',Helvetica,Arial,sans-serif" font-size="14" font-weight="600">📈 Download Growth (Actual: 118.5k)</text>
  
  <!-- Area sotto la linea -->
  <polygon fill="url(#fillGrad)" points="30.0,69.2,120 30.0,69.2 30.6,69.1 31.1,69.1 31.7,69.0 32.3,69.0 32.8,68.9 33.4,68.8 34.0,68.7 34.5,68.7 35.1,68.6 35.7,68.5 36.2,68.5 36.8,68.5 37.4,68.4 37.9,68.4 38.5,68.3 39.1,68.2 39.7,68.2 40.2,68.2 40.8,68.1 41.4,68.1 41.9,68.0 42.5,68.0 43.1,67.9 43.6,67.8 44.2,67.7 44.8,67.7 45.3,67.6 45.9,67.6 46.5,67.5 47.0,67.5 47.6,67.4 48.2,67.4 48.7,67.3 49.3,67.2 49.9,67.2 50.4,67.1 51.0,67.1 51.6,67.1 52.1,67.1 52.7,67.0 53.3,67.0 53.8,67.0 54.4,66.9 55.0,66.8 55.6,66.8 56.1,66.8 56.7,66.8 57.3,66.7 57.8,66.7 58.4,66.6 59.0,66.5 59.5,66.5 60.1,66.5 60.7,66.4 61.2,66.4 61.8,66.3 62.4,66.2 62.9,66.2 63.5,66.2 64.1,66.2 64.6,66.1 65.2,66.0 65.8,66.0 66.3,65.9 66.9,65.9 67.5,65.9 68.0,65.8 68.6,65.8 69.2,65.7 69.7,65.7 70.3,65.7 70.9,65.7 71.5,65.6 72.0,65.6 72.6,65.6 73.2,65.6 73.7,65.5 74.3,65.5 74.9,65.5 75.4,65.4 76.0,65.4 76.6,65.4 77.1,66.5 77.7,66.4 78.3,66.3 78.8,66.2 79.4,65.9 80.0,65.7 80.5,65.5 81.1,65.4 81.7,65.3 82.2,65.2 82.8,65.0 83.4,64.9 83.9,64.8 84.5,64.8 85.1,64.7 85.6,64.6 86.2,64.5 86.8,64.5 87.4,64.4 87.9,64.4 88.5,64.4 89.1,64.3 89.6,64.2 90.2,64.1 90.8,64.0 91.3,64.0 91.9,64.0 92.5,63.9 93.0,63.8 93.6,63.8 94.2,63.7 94.7,63.7 95.3,63.7 95.9,63.6 96.4,63.6 97.0,63.6 97.6,63.5 98.1,63.5 98.7,63.5 99.3,63.4 99.8,63.4 100.4,63.4 101.0,63.3 101.5,63.3 102.1,63.2 102.7,63.2 103.2,63.2 103.8,63.1 104.4,63.1 105.0,63.1 105.5,63.1 106.1,63.0 106.7,62.9 107.2,62.9 107.8,62.8 108.4,62.8 108.9,62.8 109.5,62.8 110.1,62.7 110.6,62.7 111.2,62.6 111.8,62.6 112.3,62.6 112.9,62.6 113.5,62.5 114.0,62.5 114.6,62.5 115.2,62.5 115.7,62.4 116.3,62.4 116.9,62.4 117.4,62.4 118.0,62.3 118.6,62.3 119.1,62.3 119.7,62.2 120.3,62.2 120.9,62.2 121.4,62.1 122.0,62.1 122.6,62.1 123.1,62.1 123.7,62.0 124.3,62.0 124.8,61.9 125.4,61.9 126.0,61.9 126.5,61.8 127.1,61.8 127.7,61.8 128.2,61.8 128.8,61.7 129.4,61.7 129.9,61.7 130.5,61.7 131.1,61.6 131.6,61.6 132.2,61.6 132.8,61.6 133.3,61.5 133.9,61.5 134.5,61.5 135.0,61.5 135.6,61.4 136.2,61.4 136.8,61.4 137.3,61.4 137.9,61.4 138.5,61.3 139.0,61.3 139.6,61.2 140.2,61.2 140.7,61.2 141.3,61.2 141.9,61.1 142.4,61.1 143.0,61.1 143.6,61.1 144.1,61.0 144.7,61.0 145.3,61.0 145.8,61.0 146.4,60.9 147.0,60.9 147.5,60.9 148.1,60.8 148.7,60.8 149.2,60.8 149.8,60.8 150.4,60.8 150.9,60.7 151.5,60.7 152.1,60.7 152.6,60.7 153.2,60.6 153.8,60.6 154.4,60.6 154.9,60.6 155.5,60.6 156.1,60.5 156.6,60.5 157.2,60.5 157.8,60.4 158.3,60.4 158.9,60.4 159.5,60.4 160.0,60.4 160.6,60.3 161.2,60.3 161.7,60.3 162.3,60.3 162.9,60.2 163.4,60.2 164.0,60.2 164.6,60.2 165.1,60.1 165.7,60.1 166.3,60.1 166.8,60.1 167.4,60.1 168.0,60.0 168.5,60.0 169.1,60.0 169.7,60.0 170.3,60.0 170.8,59.9 171.4,59.9 172.0,59.9 172.5,59.9 173.1,59.9 173.7,59.8 174.2,59.8 174.8,60.5 175.4,60.4 175.9,60.1 176.5,60.0 177.1,59.9 177.6,59.7 178.2,59.6 178.8,59.6 179.3,59.5 179.9,59.3 180.5,59.2 181.0,59.2 181.6,59.1 182.2,59.1 182.7,59.0 183.3,58.9 183.9,58.8 184.4,58.8 185.0,58.7 185.6,58.7 186.2,58.6 186.7,58.6 187.3,58.5 187.9,58.5 188.4,58.4 189.0,58.4 189.6,58.3 190.1,58.2 190.7,58.1 191.3,58.1 191.8,58.1 192.4,58.0 193.0,58.0 193.5,57.9 194.1,57.9 194.7,57.7 195.2,57.6 195.8,57.6 196.4,57.5 196.9,57.5 197.5,57.4 198.1,57.3 198.6,57.3 199.2,57.2 199.8,57.2 200.3,57.1 200.9,57.1 201.5,57.0 202.1,57.0 202.6,57.0 203.2,56.9 203.8,56.9 204.3,56.8 204.9,56.8 205.5,56.8 206.0,56.7 206.6,56.7 207.2,56.7 207.7,56.6 208.3,56.6 208.9,56.6 209.4,56.6 210.0,56.5 210.6,56.5 211.1,56.4 211.7,56.4 212.3,56.3 212.8,56.3 213.4,56.3 214.0,56.2 214.5,56.2 215.1,56.2 215.7,56.1 216.2,56.1 216.8,56.1 217.4,56.1 217.9,56.1 218.5,56.0 219.1,56.0 219.7,56.0 220.2,55.9 220.8,55.9 221.4,55.8 221.9,55.8 222.5,55.7 223.1,55.7 223.6,55.7 224.2,55.6 224.8,55.6 225.3,55.6 225.9,55.5 226.5,55.5 227.0,55.5 227.6,55.4 228.2,55.4 228.7,55.4 229.3,55.4 229.9,55.3 230.4,55.3 231.0,55.2 231.6,55.2 232.1,55.2 232.7,55.1 233.3,55.1 233.8,55.1 234.4,55.0 235.0,55.0 235.6,55.0 236.1,55.0 236.7,54.9 237.3,54.9 237.8,54.9 238.4,54.8 239.0,54.8 239.5,54.8 240.1,54.8 240.7,54.7 241.2,54.7 241.8,54.7 242.4,54.7 242.9,54.6 243.5,54.6 244.1,54.6 244.6,54.6 245.2,54.5 245.8,54.5 246.3,54.5 246.9,54.5 247.5,54.4 248.0,54.4 248.6,54.4 249.2,54.3 249.7,54.3 250.3,54.3 250.9,54.3 251.5,54.2 252.0,54.2 252.6,54.2 253.2,54.1 253.7,54.1 254.3,54.1 254.9,54.1 255.4,54.0 256.0,54.0 256.6,54.0 257.1,53.9 257.7,53.9 258.3,53.9 258.8,53.8 259.4,53.8 260.0,53.8 260.5,53.7 261.1,53.7 261.7,53.7 262.2,53.6 262.8,53.6 263.4,53.6 263.9,53.5 264.5,53.5 265.1,53.5 265.6,53.5 266.2,53.4 266.8,53.4 267.4,53.4 267.9,53.3 268.5,53.3 269.1,53.3 269.6,53.2 270.2,53.2 270.8,53.2 271.3,53.2 271.9,53.1 272.5,53.1 273.0,53.1 273.6,53.1 274.2,53.1 274.7,53.0 275.3,53.0 275.9,53.0 276.4,53.0 277.0,52.9 277.6,52.9 278.1,52.9 278.7,52.9 279.3,52.8 279.8,52.8 280.4,52.8 281.0,52.8 281.5,52.8 282.1,55.1 282.7,54.8 283.2,54.7 283.8,54.5 284.4,54.4 285.0,54.3 285.5,54.2 286.1,54.0 286.7,53.9 287.2,53.8 287.8,53.7 288.4,53.6 288.9,53.5 289.5,53.4 290.1,53.4 290.6,53.3 291.2,53.2 291.8,53.1 292.3,53.1 292.9,53.0 293.5,52.9 294.0,52.8 294.6,52.8 295.2,52.8 295.7,52.7 296.3,52.6 296.9,52.6 297.4,52.6 298.0,52.6 298.6,52.6 299.1,52.6 299.7,52.6 300.3,52.6 300.9,52.5 301.4,52.5 302.0,52.4 302.6,52.4 303.1,52.3 303.7,52.3 304.3,52.3 304.8,52.2 305.4,52.2 306.0,52.1 306.5,52.1 307.1,52.1 307.7,52.0 308.2,52.0 308.8,51.9 309.4,51.9 309.9,51.9 310.5,51.8 311.1,51.8 311.6,51.8 312.2,51.8 312.8,51.7 313.3,51.7 313.9,51.6 314.5,51.6 315.0,51.5 315.6,51.5 316.2,51.5 316.8,51.5 317.3,51.4 317.9,51.4 318.5,51.4 319.0,51.3 319.6,51.3 320.2,51.3 320.7,51.3 321.3,51.2 321.9,51.2 322.4,51.2 323.0,51.1 323.6,51.1 324.1,51.1 324.7,51.0 325.3,51.0 325.8,51.0 326.4,51.0 327.0,50.9 327.5,50.9 328.1,50.9 328.7,50.8 329.2,50.8 329.8,50.8 330.4,50.8 330.9,50.7 331.5,50.7 332.1,50.7 332.6,50.7 333.2,50.6 333.8,50.6 334.4,50.6 334.9,50.6 335.5,50.6 336.1,50.5 336.6,50.5 337.2,50.5 337.8,50.4 338.3,50.4 338.9,50.4 339.5,50.4 340.0,50.3 340.6,50.3 341.2,50.3 341.7,50.2 342.3,50.2 342.9,50.2 343.4,50.2 344.0,50.1 344.6,50.1 345.1,50.1 345.7,50.1 346.3,50.0 346.8,50.0 347.4,50.0 348.0,49.9 348.5,49.8 349.1,49.8 349.7,49.8 350.3,49.8 350.8,49.7 351.4,49.7 352.0,49.7 352.5,49.7 353.1,49.6 353.7,49.6 354.2,49.6 354.8,49.6 355.4,49.6 355.9,49.6 356.5,49.5 357.1,49.5 357.6,49.5 358.2,49.5 358.8,49.5 359.3,49.5 359.9,49.5 360.5,49.5 361.0,49.4 361.6,49.4 362.2,49.4 362.7,49.4 363.3,49.3 363.9,49.3 364.4,49.3 365.0,49.3 365.6,49.3 366.2,49.3 366.7,49.3 367.3,49.2 367.9,49.2 368.4,49.2 369.0,49.2 369.6,49.2 370.1,49.1 370.7,49.1 371.3,49.1 371.8,49.1 372.4,49.1 373.0,49.1 373.5,49.1 374.1,49.0 374.7,49.0 375.2,49.0 375.8,49.0 376.4,49.0 376.9,49.0 377.5,49.0 378.1,49.0 378.6,48.9 379.2,48.9 379.8,48.9 380.3,48.9 380.9,48.9 381.5,48.9 382.1,49.5 382.6,49.4 383.2,49.2 383.8,49.1 384.3,49.0 384.9,48.9 385.5,48.8 386.0,48.7 386.6,48.5 387.2,48.4 387.7,48.4 388.3,48.3 388.9,48.2 389.4,48.2 390.0,48.1 390.6,48.1 391.1,48.1 391.7,48.0 392.3,48.0 392.8,47.9 393.4,47.9 394.0,47.8 394.5,47.7 395.1,47.7 395.7,47.7 396.2,47.6 396.8,47.6 397.4,47.6 397.9,47.5 398.5,47.5 399.1,47.5 399.7,47.4 400.2,47.4 400.8,47.3 401.4,47.3 401.9,47.2 402.5,47.2 403.1,47.2 403.6,47.1 404.2,47.1 404.8,47.1 405.3,47.0 405.9,47.0 406.5,47.0 407.0,46.9 407.6,46.9 408.2,46.8 408.7,46.8 409.3,46.8 409.9,46.7 410.4,46.7 411.0,46.7 411.6,46.7 412.1,46.7 412.7,46.6 413.3,46.6 413.8,46.6 414.4,46.5 415.0,46.5 415.6,46.5 416.1,46.4 416.7,46.4 417.3,46.4 417.8,46.4 418.4,46.3 419.0,46.3 419.5,46.3 420.1,46.3 420.7,120.0 421.2,46.2 421.8,46.1 422.4,46.1 422.9,46.1 423.5,46.1 424.1,46.0 424.6,46.0 425.2,46.0 425.8,46.0 426.3,45.9 426.9,45.9 427.5,45.8 428.0,45.8 428.6,45.7 429.2,45.7 429.7,45.7 430.3,45.6 430.9,45.6 431.5,45.6 432.0,45.6 432.6,45.5 433.2,45.5 433.7,45.4 434.3,45.4 434.9,45.4 435.4,45.3 436.0,45.3 436.6,45.2 437.1,45.2 437.7,45.2 438.3,45.2 438.8,45.1 439.4,45.1 440.0,45.1 440.5,45.0 441.1,45.0 441.7,44.9 442.2,44.9 442.8,44.9 443.4,44.8 443.9,44.8 444.5,44.8 445.1,44.8 445.6,44.8 446.2,44.7 446.8,44.7 447.4,44.7 447.9,44.6 448.5,44.6 449.1,44.6 449.6,44.5 450.2,44.5 450.8,44.5 451.3,44.5 451.9,44.5 452.5,44.4 453.0,44.4 453.6,44.4 454.2,44.4 454.7,44.4 455.3,44.2 455.9,44.0 456.4,43.9 457.0,43.8 457.6,43.7 458.1,43.6 458.7,43.6 459.3,43.5 459.8,43.4 460.4,43.2 461.0,43.1 461.5,43.2 462.1,43.0 462.7,42.8 463.2,42.7 463.8,42.6 464.4,42.5 465.0,42.4 465.5,42.3 466.1,42.2 466.7,42.2 467.2,42.1 467.8,42.0 468.4,41.8 468.9,41.8 469.5,41.7 470.1,41.6 470.6,41.6 471.2,41.5 471.8,41.5 472.3,41.4 472.9,41.4 473.5,41.3 474.0,41.3 474.6,41.2 475.2,41.1 475.7,41.0 476.3,41.0 476.9,40.9 477.4,40.9 478.0,40.8 478.6,40.8 479.1,40.7 479.7,40.7 480.3,40.7 480.9,41.0 481.4,40.8 482.0,40.6 482.6,40.4 483.1,40.2 483.7,39.9 484.3,39.5 484.8,41.0 485.4,40.2 486.0,39.8 486.5,39.7 487.1,39.4 487.7,39.2 488.2,39.0 488.8,38.9 489.4,38.8 489.9,38.6 490.5,38.3 491.1,38.2 491.6,38.1 492.2,37.9 492.8,37.8 493.3,37.6 493.9,37.2 494.5,37.1 495.0,37.0 495.6,36.9 496.2,36.8 496.8,36.7 497.3,36.6 497.9,36.6 498.5,36.6 499.0,36.5 499.6,36.4 500.2,36.4 500.7,36.3 501.3,36.3 501.9,36.3 502.4,36.2 503.0,36.1 503.6,36.1 504.1,36.0 504.7,36.0 505.3,35.9 505.8,35.9 506.4,35.8 507.0,35.7 507.5,35.7 508.1,35.7 508.7,35.6 509.2,35.6 509.8,35.5 510.4,35.5 510.9,35.5 511.5,35.4 512.1,35.4 512.6,35.4 513.2,35.3 513.8,35.3 514.4,35.2 514.9,35.2 515.5,35.2 516.1,35.1 516.6,35.1 517.2,35.1 517.8,35.0 518.3,35.0 518.9,34.9 519.5,34.9 520.0,34.8 520.6,34.8 521.2,34.7 521.7,34.6 522.3,34.6 522.9,34.6 523.4,34.6 524.0,34.5 524.6,34.5 525.1,34.4 525.7,34.4 526.3,34.4 526.8,34.3 527.4,34.3 528.0,34.3 528.5,34.2 529.1,34.2 529.7,34.1 530.3,34.1 530.8,34.1 531.4,36.3 532.0,35.8 532.5,35.7 533.1,35.5 533.7,35.4 534.2,35.3 534.8,35.1 535.4,35.0 535.9,34.8 536.5,34.8 537.1,34.7 537.6,34.7 538.2,34.7 538.8,34.6 539.3,34.4 539.9,34.3 540.5,34.2 541.0,34.2 541.6,34.1 542.2,34.1 542.7,34.0 543.3,33.8 543.9,33.7 544.4,33.6 545.0,33.6 545.6,33.5 546.2,33.4 546.7,33.3 547.3,33.2 547.9,33.2 548.4,33.1 549.0,33.0 549.6,32.9 550.1,32.9 550.7,32.8 551.3,32.8 551.8,32.7 552.4,32.7 553.0,32.6 553.5,32.5 554.1,32.5 554.7,32.4 555.2,32.4 555.8,32.3 556.4,32.2 556.9,32.8 557.5,32.8 558.1,32.7 558.6,32.5 559.2,32.1 559.8,31.9 560.3,31.7 560.9,31.6 561.5,31.6 562.1,31.5 562.6,31.4 563.2,31.2 563.8,31.0 564.3,30.9 564.9,30.8 565.5,30.8 566.0,30.8 566.6,30.6 567.2,30.5 567.7,30.3 568.3,30.2 568.9,30.2 569.4,30.1 570.0,30.0 570.0,30.0,120" />
  
  <!-- Linea principale -->
  <polyline fill="none" stroke="#0366d6" stroke-width="2.5" stroke-linecap="round" stroke-linejoin="round" points="30.0,69.2 30.6,69.1 31.1,69.1 31.7,69.0 32.3,69.0 32.8,68.9 33.4,68.8 34.0,68.7 34.5,68.7 35.1,68.6 35.7,68.5 36.2,68.5 36.8,68.5 37.4,68.4 37.9,68.4 38.5,68.3 39.1,68.2 39.7,68.2 40.2,68.2 40.8,68.1 41.4,68.1 41.9,68.0 42.5,68.0 43.1,67.9 43.6,67.8 44.2,67.7 44.8,67.7 45.3,67.6 45.9,67.6 46.5,67.5 47.0,67.5 47.6,67.4 48.2,67.4 48.7,67.3 49.3,67.2 49.9,67.2 50.4,67.1 51.0,67.1 51.6,67.1 52.1,67.1 52.7,67.0 53.3,67.0 53.8,67.0 54.4,66.9 55.0,66.8 55.6,66.8 56.1,66.8 56.7,66.8 57.3,66.7 57.8,66.7 58.4,66.6 59.0,66.5 59.5,66.5 60.1,66.5 60.7,66.4 61.2,66.4 61.8,66.3 62.4,66.2 62.9,66.2 63.5,66.2 64.1,66.2 64.6,66.1 65.2,66.0 65.8,66.0 66.3,65.9 66.9,65.9 67.5,65.9 68.0,65.8 68.6,65.8 69.2,65.7 69.7,65.7 70.3,65.7 70.9,65.7 71.5,65.6 72.0,65.6 72.6,65.6 73.2,65.6 73.7,65.5 74.3,65.5 74.9,65.5 75.4,65.4 76.0,65.4 76.6,65.4 77.1,66.5 77.7,66.4 78.3,66.3 78.8,66.2 79.4,65.9 80.0,65.7 80.5,65.5 81.1,65.4 81.7,65.3 82.2,65.2 82.8,65.0 83.4,64.9 83.9,64.8 84.5,64.8 85.1,64.7 85.6,64.6 86.2,64.5 86.8,64.5 87.4,64.4 87.9,64.4 88.5,64.4 89.1,64.3 89.6,64.2 90.2,64.1 90.8,64.0 91.3,64.0 91.9,64.0 92.5,63.9 93.0,63.8 93.6,63.8 94.2,63.7 94.7,63.7 95.3,63.7 95.9,63.6 96.4,63.6 97.0,63.6 97.6,63.5 98.1,63.5 98.7,63.5 99.3,63.4 99.8,63.4 100.4,63.4 101.0,63.3 101.5,63.3 102.1,63.2 102.7,63.2 103.2,63.2 103.8,63.1 104.4,63.1 105.0,63.1 105.5,63.1 106.1,63.0 106.7,62.9 107.2,62.9 107.8,62.8 108.4,62.8 108.9,62.8 109.5,62.8 110.1,62.7 110.6,62.7 111.2,62.6 111.8,62.6 112.3,62.6 112.9,62.6 113.5,62.5 114.0,62.5 114.6,62.5 115.2,62.5 115.7,62.4 116.3,62.4 116.9,62.4 117.4,62.4 118.0,62.3 118.6,62.3 119.1,62.3 119.7,62.2 120.3,62.2 120.9,62.2 121.4,62.1 122.0,62.1 122.6,62.1 123.1,62.1 123.7,62.0 124.3,62.0 124.8,61.9 125.4,61.9 126.0,61.9 126.5,61.8 127.1,61.8 127.7,61.8 128.2,61.8 128.8,61.7 129.4,61.7 129.9,61.7 130.5,61.7 131.1,61.6 131.6,61.6 132.2,61.6 132.8,61.6 133.3,61.5 133.9,61.5 134.5,61.5 135.0,61.5 135.6,61.4 136.2,61.4 136.8,61.4 137.3,61.4 137.9,61.4 138.5,61.3 139.0,61.3 139.6,61.2 140.2,61.2 140.7,61.2 141.3,61.2 141.9,61.1 142.4,61.1 143.0,61.1 143.6,61.1 144.1,61.0 144.7,61.0 145.3,61.0 145.8,61.0 146.4,60.9 147.0,60.9 147.5,60.9 148.1,60.8 148.7,60.8 149.2,60.8 149.8,60.8 150.4,60.8 150.9,60.7 151.5,60.7 152.1,60.7 152.6,60.7 153.2,60.6 153.8,60.6 154.4,60.6 154.9,60.6 155.5,60.6 156.1,60.5 156.6,60.5 157.2,60.5 157.8,60.4 158.3,60.4 158.9,60.4 159.5,60.4 160.0,60.4 160.6,60.3 161.2,60.3 161.7,60.3 162.3,60.3 162.9,60.2 163.4,60.2 164.0,60.2 164.6,60.2 165.1,60.1 165.7,60.1 166.3,60.1 166.8,60.1 167.4,60.1 168.0,60.0 168.5,60.0 169.1,60.0 169.7,60.0 170.3,60.0 170.8,59.9 171.4,59.9 172.0,59.9 172.5,59.9 173.1,59.9 173.7,59.8 174.2,59.8 174.8,60.5 175.4,60.4 175.9,60.1 176.5,60.0 177.1,59.9 177.6,59.7 178.2,59.6 178.8,59.6 179.3,59.5 179.9,59.3 180.5,59.2 181.0,59.2 181.6,59.1 182.2,59.1 182.7,59.0 183.3,58.9 183.9,58.8 184.4,58.8 185.0,58.7 185.6,58.7 186.2,58.6 186.7,58.6 187.3,58.5 187.9,58.5 188.4,58.4 189.0,58.4 189.6,58.3 190.1,58.2 190.7,58.1 191.3,58.1 191.8,58.1 192.4,58.0 193.0,58.0 193.5,57.9 194.1,57.9 194.7,57.7 195.2,57.6 195.8,57.6 196.4,57.5 196.9,57.5 197.5,57.4 198.1,57.3 198.6,57.3 199.2,57.2 199.8,57.2 200.3,57.1 200.9,57.1 201.5,57.0 202.1,57.0 202.6,57.0 203.2,56.9 203.8,56.9 204.3,56.8 204.9,56.8 205.5,56.8 206.0,56.7 206.6,56.7 207.2,56.7 207.7,56.6 208.3,56.6 208.9,56.6 209.4,56.6 210.0,56.5 210.6,56.5 211.1,56.4 211.7,56.4 212.3,56.3 212.8,56.3 213.4,56.3 214.0,56.2 214.5,56.2 215.1,56.2 215.7,56.1 216.2,56.1 216.8,56.1 217.4,56.1 217.9,56.1 218.5,56.0 219.1,56.0 219.7,56.0 220.2,55.9 220.8,55.9 221.4,55.8 221.9,55.8 222.5,55.7 223.1,55.7 223.6,55.7 224.2,55.6 224.8,55.6 225.3,55.6 225.9,55.5 226.5,55.5 227.0,55.5 227.6,55.4 228.2,55.4 228.7,55.4 229.3,55.4 229.9,55.3 230.4,55.3 231.0,55.2 231.6,55.2 232.1,55.2 232.7,55.1 233.3,55.1 233.8,55.1 234.4,55.0 235.0,55.0 235.6,55.0 236.1,55.0 236.7,54.9 237.3,54.9 237.8,54.9 238.4,54.8 239.0,54.8 239.5,54.8 240.1,54.8 240.7,54.7 241.2,54.7 241.8,54.7 242.4,54.7 242.9,54.6 243.5,54.6 244.1,54.6 244.6,54.6 245.2,54.5 245.8,54.5 246.3,54.5 246.9,54.5 247.5,54.4 248.0,54.4 248.6,54.4 249.2,54.3 249.7,54.3 250.3,54.3 250.9,54.3 251.5,54.2 252.0,54.2 252.6,54.2 253.2,54.1 253.7,54.1 254.3,54.1 254.9,54.1 255.4,54.0 256.0,54.0 256.6,54.0 257.1,53.9 257.7,53.9 258.3,53.9 258.8,53.8 259.4,53.8 260.0,53.8 260.5,53.7 261.1,53.7 261.7,53.7 262.2,53.6 262.8,53.6 263.4,53.6 263.9,53.5 264.5,53.5 265.1,53.5 265.6,53.5 266.2,53.4 266.8,53.4 267.4,53.4 267.9,53.3 268.5,53.3 269.1,53.3 269.6,53.2 270.2,53.2 270.8,53.2 271.3,53.2 271.9,53.1 272.5,53.1 273.0,53.1 273.6,53.1 274.2,53.1 274.7,53.0 275.3,53.0 275.9,53.0 276.4,53.0 277.0,52.9 277.6,52.9 278.1,52.9 278.7,52.9 279.3,52.8 279.8,52.8 280.4,52.8 281.0,52.8 281.5,52.8 282.1,55.1 282.7,54.8 283.2,54.7 283.8,54.5 284.4,54.4 285.0,54.3 285.5,54.2 286.1,54.0 286.7,53.9 287.2,53.8 287.8,53.7 288.4,53.6 288.9,53.5 289.5,53.4 290.1,53.4 290.6,53.3 291.2,53.2 291.8,53.1 292.3,53.1 292.9,53.0 293.5,52.9 294.0,52.8 294.6,52.8 295.2,52.8 295.7,52.7 296.3,52.6 296.9,52.6 297.4,52.6 298.0,52.6 298.6,52.6 299.1,52.6 299.7,52.6 300.3,52.6 300.9,52.5 301.4,52.5 302.0,52.4 302.6,52.4 303.1,52.3 303.7,52.3 304.3,52.3 304.8,52.2 305.4,52.2 306.0,52.1 306.5,52.1 307.1,52.1 307.7,52.0 308.2,52.0 308.8,51.9 309.4,51.9 309.9,51.9 310.5,51.8 311.1,51.8 311.6,51.8 312.2,51.8 312.8,51.7 313.3,51.7 313.9,51.6 314.5,51.6 315.0,51.5 315.6,51.5 316.2,51.5 316.8,51.5 317.3,51.4 317.9,51.4 318.5,51.4 319.0,51.3 319.6,51.3 320.2,51.3 320.7,51.3 321.3,51.2 321.9,51.2 322.4,51.2 323.0,51.1 323.6,51.1 324.1,51.1 324.7,51.0 325.3,51.0 325.8,51.0 326.4,51.0 327.0,50.9 327.5,50.9 328.1,50.9 328.7,50.8 329.2,50.8 329.8,50.8 330.4,50.8 330.9,50.7 331.5,50.7 332.1,50.7 332.6,50.7 333.2,50.6 333.8,50.6 334.4,50.6 334.9,50.6 335.5,50.6 336.1,50.5 336.6,50.5 337.2,50.5 337.8,50.4 338.3,50.4 338.9,50.4 339.5,50.4 340.0,50.3 340.6,50.3 341.2,50.3 341.7,50.2 342.3,50.2 342.9,50.2 343.4,50.2 344.0,50.1 344.6,50.1 345.1,50.1 345.7,50.1 346.3,50.0 346.8,50.0 347.4,50.0 348.0,49.9 348.5,49.8 349.1,49.8 349.7,49.8 350.3,49.8 350.8,49.7 351.4,49.7 352.0,49.7 352.5,49.7 353.1,49.6 353.7,49.6 354.2,49.6 354.8,49.6 355.4,49.6 355.9,49.6 356.5,49.5 357.1,49.5 357.6,49.5 358.2,49.5 358.8,49.5 359.3,49.5 359.9,49.5 360.5,49.5 361.0,49.4 361.6,49.4 362.2,49.4 362.7,49.4 363.3,49.3 363.9,49.3 364.4,49.3 365.0,49.3 365.6,49.3 366.2,49.3 366.7,49.3 367.3,49.2 367.9,49.2 368.4,49.2 369.0,49.2 369.6,49.2 370.1,49.1 370.7,49.1 371.3,49.1 371.8,49.1 372.4,49.1 373.0,49.1 373.5,49.1 374.1,49.0 374.7,49.0 375.2,49.0 375.8,49.0 376.4,49.0 376.9,49.0 377.5,49.0 378.1,49.0 378.6,48.9 379.2,48.9 379.8,48.9 380.3,48.9 380.9,48.9 381.5,48.9 382.1,49.5 382.6,49.4 383.2,49.2 383.8,49.1 384.3,49.0 384.9,48.9 385.5,48.8 386.0,48.7 386.6,48.5 387.2,48.4 387.7,48.4 388.3,48.3 388.9,48.2 389.4,48.2 390.0,48.1 390.6,48.1 391.1,48.1 391.7,48.0 392.3,48.0 392.8,47.9 393.4,47.9 394.0,47.8 394.5,47.7 395.1,47.7 395.7,47.7 396.2,47.6 396.8,47.6 397.4,47.6 397.9,47.5 398.5,47.5 399.1,47.5 399.7,47.4 400.2,47.4 400.8,47.3 401.4,47.3 401.9,47.2 402.5,47.2 403.1,47.2 403.6,47.1 404.2,47.1 404.8,47.1 405.3,47.0 405.9,47.0 406.5,47.0 407.0,46.9 407.6,46.9 408.2,46.8 408.7,46.8 409.3,46.8 409.9,46.7 410.4,46.7 411.0,46.7 411.6,46.7 412.1,46.7 412.7,46.6 413.3,46.6 413.8,46.6 414.4,46.5 415.0,46.5 415.6,46.5 416.1,46.4 416.7,46.4 417.3,46.4 417.8,46.4 418.4,46.3 419.0,46.3 419.5,46.3 420.1,46.3 420.7,120.0 421.2,46.2 421.8,46.1 422.4,46.1 422.9,46.1 423.5,46.1 424.1,46.0 424.6,46.0 425.2,46.0 425.8,46.0 426.3,45.9 426.9,45.9 427.5,45.8 428.0,45.8 428.6,45.7 429.2,45.7 429.7,45.7 430.3,45.6 430.9,45.6 431.5,45.6 432.0,45.6 432.6,45.5 433.2,45.5 433.7,45.4 434.3,45.4 434.9,45.4 435.4,45.3 436.0,45.3 436.6,45.2 437.1,45.2 437.7,45.2 438.3,45.2 438.8,45.1 439.4,45.1 440.0,45.1 440.5,45.0 441.1,45.0 441.7,44.9 442.2,44.9 442.8,44.9 443.4,44.8 443.9,44.8 444.5,44.8 445.1,44.8 445.6,44.8 446.2,44.7 446.8,44.7 447.4,44.7 447.9,44.6 448.5,44.6 449.1,44.6 449.6,44.5 450.2,44.5 450.8,44.5 451.3,44.5 451.9,44.5 452.5,44.4 453.0,44.4 453.6,44.4 454.2,44.4 454.7,44.4 455.3,44.2 455.9,44.0 456.4,43.9 457.0,43.8 457.6,43.7 458.1,43.6 458.7,43.6 459.3,43.5 459.8,43.4 460.4,43.2 461.0,43.1 461.5,43.2 462.1,43.0 462.7,42.8 463.2,42.7 463.8,42.6 464.4,42.5 465.0,42.4 465.5,42.3 466.1,42.2 466.7,42.2 467.2,42.1 467.8,42.0 468.4,41.8 468.9,41.8 469.5,41.7 470.1,41.6 470.6,41.6 471.2,41.5 471.8,41.5 472.3,41.4 472.9,41.4 473.5,41.3 474.0,41.3 474.6,41.2 475.2,41.1 475.7,41.0 476.3,41.0 476.9,40.9 477.4,40.9 478.0,40.8 478.6,40.8 479.1,40.7 479.7,40.7 480.3,40.7 480.9,41.0 481.4,40.8 482.0,40.6 482.6,40.4 483.1,40.2 483.7,39.9 484.3,39.5 484.8,41.0 485.4,40.2 486.0,39.8 486.5,39.7 487.1,39.4 487.7,39.2 488.2,39.0 488.8,38.9 489.4,38.8 489.9,38.6 490.5,38.3 491.1,38.2 491.6,38.1 492.2,37.9 492.8,37.8 493.3,37.6 493.9,37.2 494.5,37.1 495.0,37.0 495.6,36.9 496.2,36.8 496.8,36.7 497.3,36.6 497.9,36.6 498.5,36.6 499.0,36.5 499.6,36.4 500.2,36.4 500.7,36.3 501.3,36.3 501.9,36.3 502.4,36.2 503.0,36.1 503.6,36.1 504.1,36.0 504.7,36.0 505.3,35.9 505.8,35.9 506.4,35.8 507.0,35.7 507.5,35.7 508.1,35.7 508.7,35.6 509.2,35.6 509.8,35.5 510.4,35.5 510.9,35.5 511.5,35.4 512.1,35.4 512.6,35.4 513.2,35.3 513.8,35.3 514.4,35.2 514.9,35.2 515.5,35.2 516.1,35.1 516.6,35.1 517.2,35.1 517.8,35.0 518.3,35.0 518.9,34.9 519.5,34.9 520.0,34.8 520.6,34.8 521.2,34.7 521.7,34.6 522.3,34.6 522.9,34.6 523.4,34.6 524.0,34.5 524.6,34.5 525.1,34.4 525.7,34.4 526.3,34.4 526.8,34.3 527.4,34.3 528.0,34.3 528.5,34.2 529.1,34.2 529.7,34.1 530.3,34.1 530.8,34.1 531.4,36.3 532.0,35.8 532.5,35.7 533.1,35.5 533.7,35.4 534.2,35.3 534.8,35.1 535.4,35.0 535.9,34.8 536.5,34.8 537.1,34.7 537.6,34.7 538.2,34.7 538.8,34.6 539.3,34.4 539.9,34.3 540.5,34.2 541.0,34.2 541.6,34.1 542.2,34.1 542.7,34.0 543.3,33.8 543.9,33.7 544.4,33.6 545.0,33.6 545.6,33.5 546.2,33.4 546.7,33.3 547.3,33.2 547.9,33.2 548.4,33.1 549.0,33.0 549.6,32.9 550.1,32.9 550.7,32.8 551.3,32.8 551.8,32.7 552.4,32.7 553.0,32.6 553.5,32.5 554.1,32.5 554.7,32.4 555.2,32.4 555.8,32.3 556.4,32.2 556.9,32.8 557.5,32.8 558.1,32.7 558.6,32.5 559.2,32.1 559.8,31.9 560.3,31.7 560.9,31.6 561.5,31.6 562.1,31.5 562.6,31.4 563.2,31.2 563.8,31.0 564.3,30.9 564.9,30.8 565.5,30.8 566.0,30.8 566.6,30.6 567.2,30.5 567.7,30.3 568.3,30.2 568.9,30.2 569.4,30.1 570.0,30.0" />
  
  <!-- Punto finale luminoso -->
  <circle cx="570.0" cy="30.0" r="4" fill="#ffffff" stroke="#0366d6" stroke-width="2.5" />
</svg>