<svg width="600" height="150" viewBox="0 0 600 150" xmlns="http://www.w3.org/2000/svg">
  <defs>
    <filter id="shadow2" x="-2%" y="-2%" width="104%" height="108%">
      <feDropShadow dx="0" dy="2" stdDeviation="3" flood-opacity="0.1" />
    </filter>
    <linearGradient id="fillGrad" x1="0" y1="0" x2="0" y2="1">
      <stop offset="0%" stop-color="#0366d6" stop-opacity="0.3"/>
      <stop offset="100%" stop-color="#0366d6" stop-opacity="0.02"/>
    </linearGradient>
  </defs>
  <rect width="600" height="150" rx="12" fill="#ffffff" filter="url(#shadow2)" stroke="#e1e4e8" stroke-width="1"/>
  <text x="20" y="24" fill="#2b3137" font-family="-apple-system,BlinkMacSystemFont,'Segoe UI',Helvetica,Arial,sans-serif" font-size="14" font-weight="600">📈 Download Growth (Actual: 86.1k)</text>
  
  <!-- Area sotto la linea -->
  <polygon fill="url(#fillGrad)" points="30.0,120.0,120 30.0,120.0 31.4,119.5 32.9,118.9 34.3,118.4 35.7,118.3 37.2,118.0 38.6,117.4 40.1,117.0 41.5,116.7 42.9,116.1 44.4,115.8 45.8,115.5 47.2,115.3 48.7,115.0 50.1,114.6 51.5,114.1 53.0,113.8 54.4,113.6 55.9,113.4 57.3,113.1 58.7,112.8 60.2,112.5 61.6,112.4 63.0,112.1 64.5,111.1 65.9,110.8 67.3,110.4 68.8,110.0 70.2,109.7 71.6,109.3 73.1,109.1 74.5,109.0 76.0,108.7 77.4,108.2 78.8,107.8 80.3,107.5 81.7,107.2 83.1,107.1 84.6,107.0 86.0,106.8 87.4,106.5 88.9,106.3 90.3,106.2 91.8,105.8 93.2,105.3 94.6,105.2 96.1,105.1 97.5,104.9 98.9,104.5 100.4,104.2 101.8,103.7 103.2,103.4 104.7,103.0 106.1,103.0 107.6,102.7 109.0,102.3 110.4,101.9 111.9,101.6 113.3,101.5 114.7,101.3 116.2,101.1 117.6,100.7 119.0,100.3 120.5,99.9 121.9,99.5 123.4,99.3 124.8,99.2 126.2,99.1 127.7,98.8 129.1,98.6 130.5,98.4 132.0,98.3 133.4,98.1 134.8,97.9 136.3,97.8 137.7,97.7 139.1,97.6 140.6,97.2 142.0,96.9 143.5,96.9 144.9,96.7 146.3,96.6 147.8,96.6 149.2,103.3 150.6,102.7 152.1,102.1 153.5,101.5 154.9,99.6 156.4,98.4 157.8,97.0 159.3,96.5 160.7,95.9 162.1,95.0 163.6,94.0 165.0,93.2 166.4,92.9 167.9,92.7 169.3,91.9 170.7,91.4 172.2,91.1 173.6,90.6 175.1,90.5 176.5,90.4 177.9,90.0 179.4,89.4 180.8,88.9 182.2,88.5 183.7,88.0 185.1,87.7 186.5,87.6 188.0,87.1 189.4,86.7 190.9,86.4 192.3,86.1 193.7,85.9 195.2,85.8 196.6,85.6 198.0,85.3 199.5,85.0 200.9,84.8 202.3,84.6 203.8,84.4 205.2,84.2 206.6,84.1 208.1,83.9 209.5,83.7 211.0,83.4 212.4,83.1 213.8,82.8 215.3,82.7 216.7,82.5 218.1,82.3 219.6,82.2 221.0,82.0 222.4,81.5 223.9,81.2 225.3,80.8 226.8,80.6 228.2,80.6 229.6,80.4 231.1,80.2 232.5,80.0 233.9,79.7 235.4,79.4 236.8,79.2 238.2,79.1 239.7,79.0 241.1,78.8 242.6,78.7 244.0,78.5 245.4,78.4 246.9,78.1 248.3,77.9 249.7,77.8 251.2,77.7 252.6,77.6 254.0,77.4 255.5,77.2 256.9,76.9 258.4,76.7 259.8,76.5 261.2,76.4 262.7,76.3 264.1,76.1 265.5,75.8 267.0,75.5 268.4,75.3 269.8,75.1 271.3,74.8 272.7,74.7 274.1,74.6 275.6,74.5 277.0,74.3 278.5,74.1 279.9,73.9 281.3,73.8 282.8,73.6 284.2,73.4 285.6,73.3 287.1,73.2 288.5,73.1 289.9,72.9 291.4,72.6 292.8,72.5 294.3,72.3 295.7,72.2 297.1,72.1 298.6,71.9 300.0,71.8 301.4,71.7 302.9,71.5 304.3,71.2 305.7,70.9 307.2,70.7 308.6,70.5 310.1,70.5 311.5,70.4 312.9,70.2 314.4,69.9 315.8,69.8 317.2,69.7 318.7,69.5 320.1,69.4 321.5,69.2 323.0,69.1 324.4,69.0 325.9,68.7 327.3,68.6 328.7,68.3 330.2,68.1 331.6,68.0 333.0,68.0 334.5,67.9 335.9,67.7 337.3,67.6 338.8,67.4 340.2,67.3 341.6,67.1 343.1,67.0 344.5,66.9 346.0,66.7 347.4,66.6 348.8,66.4 350.3,66.1 351.7,66.0 353.1,65.8 354.6,65.7 356.0,65.6 357.4,65.5 358.9,65.4 360.3,65.3 361.8,65.2 363.2,64.9 364.6,64.8 366.1,64.6 367.5,64.5 368.9,64.4 370.4,64.3 371.8,64.1 373.2,64.0 374.7,63.8 376.1,63.7 377.6,63.5 379.0,63.4 380.4,63.2 381.9,63.1 383.3,63.0 384.7,62.9 386.2,62.8 387.6,62.7 389.0,62.5 390.5,62.5 391.9,62.4 393.4,62.1 394.8,61.8 396.2,66.2 397.7,65.4 399.1,63.7 400.5,63.1 402.0,62.3 403.4,61.4 404.8,60.9 406.3,60.5 407.7,59.9 409.1,58.9 410.6,58.2 412.0,58.0 413.5,57.7 414.9,57.4 416.3,56.9 417.8,56.4 419.2,55.9 420.6,55.6 422.1,55.1 423.5,54.9 424.9,54.6 426.4,54.4 427.8,54.1 429.3,53.9 430.7,53.4 432.1,53.1 433.6,52.6 435.0,52.0 436.4,51.7 437.9,51.5 439.3,51.3 440.7,51.1 442.2,50.7 443.6,50.3 445.1,50.1 446.5,49.2 447.9,48.5 449.4,48.1 450.8,48.0 452.2,47.7 453.7,47.2 455.1,46.8 456.5,46.5 458.0,46.2 459.4,45.9 460.9,45.6 462.3,45.3 463.7,44.9 465.2,44.7 466.6,44.5 468.0,44.3 469.5,43.9 470.9,43.6 472.3,43.4 473.8,43.3 475.2,43.1 476.6,42.8 478.1,42.7 479.5,42.5 481.0,42.3 482.4,42.1 483.8,41.9 485.3,41.7 486.7,41.5 488.1,41.1 489.6,40.7 491.0,40.5 492.4,40.3 493.9,40.1 495.3,40.0 496.8,39.8 498.2,39.6 499.6,39.4 501.1,39.3 502.5,39.2 503.9,39.0 505.4,38.9 506.8,38.5 508.2,38.4 509.7,38.2 511.1,38.0 512.6,37.7 514.0,37.3 515.4,37.1 516.9,36.9 518.3,36.7 519.7,36.4 521.2,36.2 522.6,36.0 524.0,35.8 525.5,35.7 526.9,35.5 528.4,35.3 529.8,35.1 531.2,34.9 532.7,34.8 534.1,34.5 535.5,34.3 537.0,34.1 538.4,33.8 539.8,33.7 541.3,33.4 542.7,33.1 544.1,32.9 545.6,32.8 547.0,32.6 548.5,32.5 549.9,32.3 551.3,32.1 552.8,31.8 554.2,31.7 555.6,31.6 557.1,31.4 558.5,31.2 559.9,31.1 561.4,30.9 562.8,30.8 564.3,30.7 565.7,30.5 567.1,30.4 568.6,30.2 570.0,30.0 570.0,30.0,120" />
  
  <!-- Linea principale -->
  <polyline fill="none" stroke="#0366d6" stroke-width="2.5" stroke-linecap="round" stroke-linejoin="round" points="30.0,120.0 31.4,119.5 32.9,118.9 34.3,118.4 35.7,118.3 37.2,118.0 38.6,117.4 40.1,117.0 41.5,116.7 42.9,116.1 44.4,115.8 45.8,115.5 47.2,115.3 48.7,115.0 50.1,114.6 51.5,114.1 53.0,113.8 54.4,113.6 55.9,113.4 57.3,113.1 58.7,112.8 60.2,112.5 61.6,112.4 63.0,112.1 64.5,111.1 65.9,110.8 67.3,110.4 68.8,110.0 70.2,109.7 71.6,109.3 73.1,109.1 74.5,109.0 76.0,108.7 77.4,108.2 78.8,107.8 80.3,107.5 81.7,107.2 83.1,107.1 84.6,107.0 86.0,106.8 87.4,106.5 88.9,106.3 90.3,106.2 91.8,105.8 93.2,105.3 94.6,105.2 96.1,105.1 97.5,104.9 98.9,104.5 100.4,104.2 101.8,103.7 103.2,103.4 104.7,103.0 106.1,103.0 107.6,102.7 109.0,102.3 110.4,101.9 111.9,101.6 113.3,101.5 114.7,101.3 116.2,101.1 117.6,100.7 119.0,100.3 120.5,99.9 121.9,99.5 123.4,99.3 124.8,99.2 126.2,99.1 127.7,98.8 129.1,98.6 130.5,98.4 132.0,98.3 133.4,98.1 134.8,97.9 136.3,97.8 137.7,97.7 139.1,97.6 140.6,97.2 142.0,96.9 143.5,96.9 144.9,96.7 146.3,96.6 147.8,96.6 149.2,103.3 150.6,102.7 152.1,102.1 153.5,101.5 154.9,99.6 156.4,98.4 157.8,97.0 159.3,96.5 160.7,95.9 162.1,95.0 163.6,94.0 165.0,93.2 166.4,92.9 167.9,92.7 169.3,91.9 170.7,91.4 172.2,91.1 173.6,90.6 175.1,90.5 176.5,90.4 177.9,90.0 179.4,89.4 180.8,88.9 182.2,88.5 183.7,88.0 185.1,87.7 186.5,87.6 188.0,87.1 189.4,86.7 190.9,86.4 192.3,86.1 193.7,85.9 195.2,85.8 196.6,85.6 198.0,85.3 199.5,85.0 200.9,84.8 202.3,84.6 203.8,84.4 205.2,84.2 206.6,84.1 208.1,83.9 209.5,83.7 211.0,83.4 212.4,83.1 213.8,82.8 215.3,82.7 216.7,82.5 218.1,82.3 219.6,82.2 221.0,82.0 222.4,81.5 223.9,81.2 225.3,80.8 226.8,80.6 228.2,80.6 229.6,80.4 231.1,80.2 232.5,80.0 233.9,79.7 235.4,79.4 236.8,79.2 238.2,79.1 239.7,79.0 241.1,78.8 242.6,78.7 244.0,78.5 245.4,78.4 246.9,78.1 248.3,77.9 249.7,77.8 251.2,77.7 252.6,77.6 254.0,77.4 255.5,77.2 256.9,76.9 258.4,76.7 259.8,76.5 261.2,76.4 262.7,76.3 264.1,76.1 265.5,75.8 267.0,75.5 268.4,75.3 269.8,75.1 271.3,74.8 272.7,74.7 274.1,74.6 275.6,74.5 277.0,74.3 278.5,74.1 279.9,73.9 281.3,73.8 282.8,73.6 284.2,73.4 285.6,73.3 287.1,73.2 288.5,73.1 289.9,72.9 291.4,72.6 292.8,72.5 294.3,72.3 295.7,72.2 297.1,72.1 298.6,71.9 300.0,71.8 301.4,71.7 302.9,71.5 304.3,71.2 305.7,70.9 307.2,70.7 308.6,70.5 310.1,70.5 311.5,70.4 312.9,70.2 314.4,69.9 315.8,69.8 317.2,69.7 318.7,69.5 320.1,69.4 321.5,69.2 323.0,69.1 324.4,69.0 325.9,68.7 327.3,68.6 328.7,68.3 330.2,68.1 331.6,68.0 333.0,68.0 334.5,67.9 335.9,67.7 337.3,67.6 338.8,67.4 340.2,67.3 341.6,67.1 343.1,67.0 344.5,66.9 346.0,66.7 347.4,66.6 348.8,66.4 350.3,66.1 351.7,66.0 353.1,65.8 354.6,65.7 356.0,65.6 357.4,65.5 358.9,65.4 360.3,65.3 361.8,65.2 363.2,64.9 364.6,64.8 366.1,64.6 367.5,64.5 368.9,64.4 370.4,64.3 371.8,64.1 373.2,64.0 374.7,63.8 376.1,63.7 377.6,63.5 379.0,63.4 380.4,63.2 381.9,63.1 383.3,63.0 384.7,62.9 386.2,62.8 387.6,62.7 389.0,62.5 390.5,62.5 391.9,62.4 393.4,62.1 394.8,61.8 396.2,66.2 397.7,65.4 399.1,63.7 400.5,63.1 402.0,62.3 403.4,61.4 404.8,60.9 406.3,60.5 407.7,59.9 409.1,58.9 410.6,58.2 412.0,58.0 413.5,57.7 414.9,57.4 416.3,56.9 417.8,56.4 419.2,55.9 420.6,55.6 422.1,55.1 423.5,54.9 424.9,54.6 426.4,54.4 427.8,54.1 429.3,53.9 430.7,53.4 432.1,53.1 433.6,52.6 435.0,52.0 436.4,51.7 437.9,51.5 439.3,51.3 440.7,51.1 442.2,50.7 443.6,50.3 445.1,50.1 446.5,49.2 447.9,48.5 449.4,48.1 450.8,48.0 452.2,47.7 453.7,47.2 455.1,46.8 456.5,46.5 458.0,46.2 459.4,45.9 460.9,45.6 462.3,45.3 463.7,44.9 465.2,44.7 466.6,44.5 468.0,44.3 469.5,43.9 470.9,43.6 472.3,43.4 473.8,43.3 475.2,43.1 476.6,42.8 478.1,42.7 479.5,42.5 481.0,42.3 482.4,42.1 483.8,41.9 485.3,41.7 486.7,41.5 488.1,41.1 489.6,40.7 491.0,40.5 492.4,40.3 493.9,40.1 495.3,40.0 496.8,39.8 498.2,39.6 499.6,39.4 501.1,39.3 502.5,39.2 503.9,39.0 505.4,38.9 506.8,38.5 508.2,38.4 509.7,38.2 511.1,38.0 512.6,37.7 514.0,37.3 515.4,37.1 516.9,36.9 518.3,36.7 519.7,36.4 521.2,36.2 522.6,36.0 524.0,35.8 525.5,35.7 526.9,35.5 528.4,35.3 529.8,35.1 531.2,34.9 532.7,34.8 534.1,34.5 535.5,34.3 537.0,34.1 538.4,33.8 539.8,33.7 541.3,33.4 542.7,33.1 544.1,32.9 545.6,32.8 547.0,32.6 548.5,32.5 549.9,32.3 551.3,32.1 552.8,31.8 554.2,31.7 555.6,31.6 557.1,31.4 558.5,31.2 559.9,31.1 561.4,30.9 562.8,30.8 564.3,30.7 565.7,30.5 567.1,30.4 568.6,30.2 570.0,30.0" />
  
  <!-- Punto finale luminoso -->
  <circle cx="570.0" cy="30.0" r="4" fill="#ffffff" stroke="#0366d6" stroke-width="2.5" />
</svg>