<svg width="600" height="150" viewBox="0 0 600 150" xmlns="http://www.w3.org/2000/svg">
  <defs>
    <filter id="shadow2" x="-2%" y="-2%" width="104%" height="108%">
      <feDropShadow dx="0" dy="2" stdDeviation="3" flood-opacity="0.1" />
    </filter>
    <linearGradient id="fillGrad" x1="0" y1="0" x2="0" y2="1">
      <stop offset="0%" stop-color="#0366d6" stop-opacity="0.3"/>
      <stop offset="100%" stop-color="#0366d6" stop-opacity="0.02"/>
    </linearGradient>
  </defs>
  <rect width="600" height="150" rx="12" fill="#ffffff" filter="url(#shadow2)" stroke="#e1e4e8" stroke-width="1"/>
  <text x="20" y="24" fill="#2b3137" font-family="-apple-system,BlinkMacSystemFont,'Segoe UI',Helvetica,Arial,sans-serif" font-size="14" font-weight="600">📈 Download Growth (Actual: 71.9k)</text>
  
  <!-- Area sotto la linea -->
  <polygon fill="url(#fillGrad)" points="30.0,120.0,120 30.0,120.0 36.1,118.0 42.3,115.8 48.4,113.9 54.5,113.4 60.7,112.4 66.8,110.0 73.0,108.5 79.1,107.4 85.2,105.0 91.4,103.8 97.5,102.6 103.6,101.9 109.8,100.8 115.9,99.2 122.0,97.4 128.2,96.1 134.3,95.2 140.5,94.6 146.6,93.5 152.7,92.2 158.9,91.1 165.0,90.5 171.1,89.5 177.3,85.7 183.4,84.5 189.5,83.0 195.7,81.5 201.8,80.2 208.0,79.0 214.1,78.1 220.2,77.5 226.4,76.4 232.5,74.6 238.6,73.0 244.8,71.9 250.9,70.6 257.0,70.3 263.2,70.0 269.3,69.3 275.5,68.1 281.6,67.4 287.7,66.8 293.9,65.5 300.0,63.4 306.1,62.9 312.3,62.5 318.4,61.7 324.5,60.1 330.7,59.0 336.8,57.3 343.0,56.1 349.1,54.6 355.2,54.3 361.4,53.4 367.5,51.9 373.6,50.4 379.8,49.2 385.9,48.7 392.0,47.9 398.2,47.2 404.3,45.5 410.5,43.9 416.6,42.5 422.7,41.1 428.9,40.4 435.0,40.0 441.1,39.3 447.3,38.2 453.4,37.4 459.5,36.8 465.7,36.2 471.8,35.7 478.0,34.8 484.1,34.3 490.2,33.9 496.4,33.5 502.5,32.0 508.6,31.1 514.8,30.8 520.9,30.3 527.0,30.0 533.2,30.0 539.3,55.7 545.5,53.2 551.6,50.9 557.7,48.5 563.9,41.5 570.0,36.6 570.0,36.6,120" />
  
  <!-- Linea principale -->
  <polyline fill="none" stroke="#0366d6" stroke-width="2.5" stroke-linecap="round" stroke-linejoin="round" points="30.0,120.0 36.1,118.0 42.3,115.8 48.4,113.9 54.5,113.4 60.7,112.4 66.8,110.0 73.0,108.5 79.1,107.4 85.2,105.0 91.4,103.8 97.5,102.6 103.6,101.9 109.8,100.8 115.9,99.2 122.0,97.4 128.2,96.1 134.3,95.2 140.5,94.6 146.6,93.5 152.7,92.2 158.9,91.1 165.0,90.5 171.1,89.5 177.3,85.7 183.4,84.5 189.5,83.0 195.7,81.5 201.8,80.2 208.0,79.0 214.1,78.1 220.2,77.5 226.4,76.4 232.5,74.6 238.6,73.0 244.8,71.9 250.9,70.6 257.0,70.3 263.2,70.0 269.3,69.3 275.5,68.1 281.6,67.4 287.7,66.8 293.9,65.5 300.0,63.4 306.1,62.9 312.3,62.5 318.4,61.7 324.5,60.1 330.7,59.0 336.8,57.3 343.0,56.1 349.1,54.6 355.2,54.3 361.4,53.4 367.5,51.9 373.6,50.4 379.8,49.2 385.9,48.7 392.0,47.9 398.2,47.2 404.3,45.5 410.5,43.9 416.6,42.5 422.7,41.1 428.9,40.4 435.0,40.0 441.1,39.3 447.3,38.2 453.4,37.4 459.5,36.8 465.7,36.2 471.8,35.7 478.0,34.8 484.1,34.3 490.2,33.9 496.4,33.5 502.5,32.0 508.6,31.1 514.8,30.8 520.9,30.3 527.0,30.0 533.2,30.0 539.3,55.7 545.5,53.2 551.6,50.9 557.7,48.5 563.9,41.5 570.0,36.6" />
  
  <!-- Punto finale luminoso -->
  <circle cx="570.0" cy="36.6" r="4" fill="#ffffff" stroke="#0366d6" stroke-width="2.5" />
</svg>