<svg width="600" height="150" viewBox="0 0 600 150" xmlns="http://www.w3.org/2000/svg">
  <defs>
    <filter id="shadow2" x="-2%" y="-2%" width="104%" height="108%">
      <feDropShadow dx="0" dy="2" stdDeviation="3" flood-opacity="0.1" />
    </filter>
    <linearGradient id="fillGrad" x1="0" y1="0" x2="0" y2="1">
      <stop offset="0%" stop-color="#0366d6" stop-opacity="0.3"/>
      <stop offset="100%" stop-color="#0366d6" stop-opacity="0.02"/>
    </linearGradient>
  </defs>
  <rect width="600" height="150" rx="12" fill="#ffffff" filter="url(#shadow2)" stroke="#e1e4e8" stroke-width="1"/>
  <text x="20" y="24" fill="#2b3137" font-family="-apple-system,BlinkMacSystemFont,'Segoe UI',Helvetica,Arial,sans-serif" font-size="14" font-weight="600">📈 Download Growth (Actual: 75.8k)</text>
  
  <!-- Area sotto la linea -->
  <polygon fill="url(#fillGrad)" points="30.0,120.0,120 30.0,120.0 33.6,118.9 37.2,117.6 40.8,116.6 44.4,116.3 48.0,115.7 51.6,114.4 55.2,113.5 58.8,112.9 62.4,111.6 66.0,110.9 69.6,110.2 73.2,109.8 76.8,109.2 80.4,108.3 84.0,107.3 87.6,106.6 91.2,106.1 94.8,105.7 98.4,105.1 102.0,104.4 105.6,103.8 109.2,103.5 112.8,102.9 116.4,100.7 120.0,100.1 123.6,99.3 127.2,98.4 130.8,97.7 134.4,97.0 138.0,96.5 141.6,96.2 145.2,95.6 148.8,94.5 152.4,93.6 156.0,93.0 159.6,92.3 163.2,92.1 166.8,91.9 170.4,91.6 174.0,90.9 177.6,90.5 181.2,90.2 184.8,89.4 188.4,88.3 192.0,88.0 195.6,87.8 199.2,87.3 202.8,86.4 206.4,85.8 210.0,84.9 213.6,84.2 217.2,83.3 220.8,83.2 224.4,82.7 228.0,81.8 231.6,81.0 235.2,80.3 238.8,80.0 242.4,79.6 246.0,79.2 249.6,78.2 253.2,77.3 256.8,76.5 260.4,75.8 264.0,75.4 267.6,75.1 271.2,74.8 274.8,74.1 278.4,73.7 282.0,73.3 285.6,73.0 289.2,72.7 292.8,72.2 296.4,71.9 300.0,71.7 303.6,71.5 307.2,70.6 310.8,70.2 314.4,70.0 318.0,69.7 321.6,69.5 325.2,69.5 328.8,84.0 332.4,82.5 336.0,81.3 339.6,79.9 343.2,76.0 346.8,73.2 350.4,70.3 354.0,69.2 357.6,68.0 361.2,65.9 364.8,63.7 368.4,62.1 372.0,61.5 375.6,60.9 379.2,59.4 382.8,58.2 386.4,57.5 390.0,56.5 393.6,56.1 397.2,56.0 400.8,55.1 404.4,53.8 408.0,52.8 411.6,51.9 415.2,50.8 418.8,50.3 422.4,49.9 426.0,49.0 429.6,48.1 433.2,47.3 436.8,46.7 440.4,46.4 444.0,46.2 447.6,45.7 451.2,45.0 454.8,44.5 458.4,43.9 462.0,43.5 465.6,43.1 469.2,42.7 472.8,42.3 476.4,42.0 480.0,41.6 483.6,40.9 487.2,40.3 490.8,39.7 494.4,39.3 498.0,38.9 501.6,38.6 505.2,38.3 508.8,37.9 512.4,36.9 516.0,36.2 519.6,35.3 523.2,35.0 526.8,34.9 530.4,34.5 534.0,34.0 537.6,33.5 541.2,33.0 544.8,32.3 548.4,31.9 552.0,31.7 555.6,31.4 559.2,31.1 562.8,30.8 566.4,30.4 570.0,30.0 570.0,30.0,120" />
  
  <!-- Linea principale -->
  <polyline fill="none" stroke="#0366d6" stroke-width="2.5" stroke-linecap="round" stroke-linejoin="round" points="30.0,120.0 33.6,118.9 37.2,117.6 40.8,116.6 44.4,116.3 48.0,115.7 51.6,114.4 55.2,113.5 58.8,112.9 62.4,111.6 66.0,110.9 69.6,110.2 73.2,109.8 76.8,109.2 80.4,108.3 84.0,107.3 87.6,106.6 91.2,106.1 94.8,105.7 98.4,105.1 102.0,104.4 105.6,103.8 109.2,103.5 112.8,102.9 116.4,100.7 120.0,100.1 123.6,99.3 127.2,98.4 130.8,97.7 134.4,97.0 138.0,96.5 141.6,96.2 145.2,95.6 148.8,94.5 152.4,93.6 156.0,93.0 159.6,92.3 163.2,92.1 166.8,91.9 170.4,91.6 174.0,90.9 177.6,90.5 181.2,90.2 184.8,89.4 188.4,88.3 192.0,88.0 195.6,87.8 199.2,87.3 202.8,86.4 206.4,85.8 210.0,84.9 213.6,84.2 217.2,83.3 220.8,83.2 224.4,82.7 228.0,81.8 231.6,81.0 235.2,80.3 238.8,80.0 242.4,79.6 246.0,79.2 249.6,78.2 253.2,77.3 256.8,76.5 260.4,75.8 264.0,75.4 267.6,75.1 271.2,74.8 274.8,74.1 278.4,73.7 282.0,73.3 285.6,73.0 289.2,72.7 292.8,72.2 296.4,71.9 300.0,71.7 303.6,71.5 307.2,70.6 310.8,70.2 314.4,70.0 318.0,69.7 321.6,69.5 325.2,69.5 328.8,84.0 332.4,82.5 336.0,81.3 339.6,79.9 343.2,76.0 346.8,73.2 350.4,70.3 354.0,69.2 357.6,68.0 361.2,65.9 364.8,63.7 368.4,62.1 372.0,61.5 375.6,60.9 379.2,59.4 382.8,58.2 386.4,57.5 390.0,56.5 393.6,56.1 397.2,56.0 400.8,55.1 404.4,53.8 408.0,52.8 411.6,51.9 415.2,50.8 418.8,50.3 422.4,49.9 426.0,49.0 429.6,48.1 433.2,47.3 436.8,46.7 440.4,46.4 444.0,46.2 447.6,45.7 451.2,45.0 454.8,44.5 458.4,43.9 462.0,43.5 465.6,43.1 469.2,42.7 472.8,42.3 476.4,42.0 480.0,41.6 483.6,40.9 487.2,40.3 490.8,39.7 494.4,39.3 498.0,38.9 501.6,38.6 505.2,38.3 508.8,37.9 512.4,36.9 516.0,36.2 519.6,35.3 523.2,35.0 526.8,34.9 530.4,34.5 534.0,34.0 537.6,33.5 541.2,33.0 544.8,32.3 548.4,31.9 552.0,31.7 555.6,31.4 559.2,31.1 562.8,30.8 566.4,30.4 570.0,30.0" />
  
  <!-- Punto finale luminoso -->
  <circle cx="570.0" cy="30.0" r="4" fill="#ffffff" stroke="#0366d6" stroke-width="2.5" />
</svg>