<svg width="600" height="150" viewBox="0 0 600 150" xmlns="http://www.w3.org/2000/svg">
  <defs>
    <filter id="shadow2" x="-2%" y="-2%" width="104%" height="108%">
      <feDropShadow dx="0" dy="2" stdDeviation="3" flood-opacity="0.1" />
    </filter>
    <linearGradient id="fillGrad" x1="0" y1="0" x2="0" y2="1">
      <stop offset="0%" stop-color="#0366d6" stop-opacity="0.3"/>
      <stop offset="100%" stop-color="#0366d6" stop-opacity="0.02"/>
    </linearGradient>
  </defs>
  <rect width="600" height="150" rx="12" fill="#ffffff" filter="url(#shadow2)" stroke="#e1e4e8" stroke-width="1"/>
  <text x="20" y="24" fill="#2b3137" font-family="-apple-system,BlinkMacSystemFont,'Segoe UI',Helvetica,Arial,sans-serif" font-size="14" font-weight="600">📈 Download Growth (Actual: 85.4k)</text>
  
  <!-- Area sotto la linea -->
  <polygon fill="url(#fillGrad)" points="30.0,120.0,120 30.0,120.0 31.5,119.5 33.0,118.9 34.6,118.3 36.1,118.2 37.6,117.9 39.1,117.3 40.6,116.9 42.1,116.6 43.7,116.0 45.2,115.6 46.7,115.3 48.2,115.1 49.7,114.8 51.2,114.4 52.8,113.9 54.3,113.6 55.8,113.3 57.3,113.1 58.8,112.9 60.3,112.5 61.9,112.2 63.4,112.1 64.9,111.8 66.4,110.7 67.9,110.4 69.4,110.0 71.0,109.6 72.5,109.3 74.0,108.9 75.5,108.7 77.0,108.5 78.5,108.3 80.1,107.8 81.6,107.3 83.1,107.0 84.6,106.7 86.1,106.6 87.6,106.5 89.2,106.3 90.7,106.0 92.2,105.8 93.7,105.7 95.2,105.3 96.7,104.7 98.3,104.6 99.8,104.5 101.3,104.3 102.8,103.9 104.3,103.6 105.8,103.1 107.4,102.8 108.9,102.4 110.4,102.3 111.9,102.1 113.4,101.6 114.9,101.2 116.5,100.9 118.0,100.8 119.5,100.6 121.0,100.4 122.5,99.9 124.0,99.5 125.6,99.1 127.1,98.7 128.6,98.5 130.1,98.4 131.6,98.3 133.1,97.9 134.7,97.7 136.2,97.6 137.7,97.4 139.2,97.3 140.7,97.0 142.2,96.9 143.8,96.8 145.3,96.7 146.8,96.3 148.3,96.0 149.8,96.0 151.3,95.8 152.9,95.7 154.4,95.7 155.9,102.7 157.4,102.0 158.9,101.4 160.4,100.7 162.0,98.8 163.5,97.5 165.0,96.1 166.5,95.6 168.0,95.0 169.6,94.0 171.1,93.0 172.6,92.2 174.1,91.9 175.6,91.6 177.1,90.8 178.7,90.3 180.2,89.9 181.7,89.5 183.2,89.3 184.7,89.2 186.2,88.8 187.8,88.2 189.3,87.7 190.8,87.3 192.3,86.7 193.8,86.5 195.3,86.3 196.9,85.9 198.4,85.4 199.9,85.1 201.4,84.8 202.9,84.6 204.4,84.5 206.0,84.3 207.5,83.9 209.0,83.7 210.5,83.4 212.0,83.2 213.5,83.0 215.1,82.8 216.6,82.7 218.1,82.5 219.6,82.3 221.1,82.0 222.6,81.7 224.2,81.4 225.7,81.2 227.2,81.0 228.7,80.9 230.2,80.7 231.7,80.5 233.3,80.0 234.8,79.7 236.3,79.3 237.8,79.1 239.3,79.1 240.8,78.9 242.4,78.7 243.9,78.4 245.4,78.2 246.9,77.9 248.4,77.6 249.9,77.6 251.5,77.4 253.0,77.3 254.5,77.1 256.0,76.9 257.5,76.7 259.0,76.4 260.6,76.3 262.1,76.2 263.6,76.1 265.1,76.0 266.6,75.7 268.1,75.5 269.7,75.3 271.2,75.0 272.7,74.8 274.2,74.7 275.7,74.6 277.2,74.4 278.8,74.1 280.3,73.8 281.8,73.6 283.3,73.4 284.8,73.0 286.3,72.9 287.9,72.8 289.4,72.7 290.9,72.5 292.4,72.3 293.9,72.1 295.4,72.0 297.0,71.8 298.5,71.6 300.0,71.5 301.5,71.4 303.0,71.3 304.6,71.1 306.1,70.8 307.6,70.7 309.1,70.5 310.6,70.3 312.1,70.2 313.7,70.0 315.2,69.9 316.7,69.8 318.2,69.6 319.7,69.3 321.2,69.0 322.8,68.8 324.3,68.6 325.8,68.6 327.3,68.5 328.8,68.3 330.3,68.0 331.9,67.9 333.4,67.8 334.9,67.6 336.4,67.4 337.9,67.2 339.4,67.1 341.0,67.0 342.5,66.7 344.0,66.6 345.5,66.3 347.0,66.1 348.5,66.0 350.1,66.0 351.6,65.9 353.1,65.7 354.6,65.6 356.1,65.4 357.6,65.2 359.2,65.0 360.7,64.9 362.2,64.8 363.7,64.7 365.2,64.5 366.7,64.3 368.3,64.1 369.8,63.9 371.3,63.7 372.8,63.6 374.3,63.5 375.8,63.4 377.4,63.3 378.9,63.2 380.4,63.0 381.9,62.8 383.4,62.7 384.9,62.5 386.5,62.4 388.0,62.2 389.5,62.1 391.0,61.9 392.5,61.8 394.0,61.7 395.6,61.5 397.1,61.3 398.6,61.2 400.1,61.0 401.6,60.9 403.1,60.8 404.7,60.7 406.2,60.6 407.7,60.5 409.2,60.3 410.7,60.3 412.2,60.1 413.8,59.8 415.3,59.6 416.8,64.1 418.3,63.2 419.8,61.5 421.3,60.9 422.9,60.1 424.4,59.1 425.9,58.6 427.4,58.2 428.9,57.6 430.4,56.6 432.0,55.8 433.5,55.6 435.0,55.2 436.5,54.9 438.0,54.4 439.6,54.0 441.1,53.4 442.6,53.1 444.1,52.6 445.6,52.4 447.1,52.0 448.7,51.8 450.2,51.6 451.7,51.3 453.2,50.8 454.7,50.5 456.2,50.0 457.8,49.4 459.3,49.0 460.8,48.8 462.3,48.7 463.8,48.4 465.3,48.0 466.9,47.6 468.4,47.3 469.9,46.4 471.4,45.7 472.9,45.4 474.4,45.2 476.0,44.9 477.5,44.4 479.0,44.0 480.5,43.7 482.0,43.4 483.5,43.0 485.1,42.7 486.6,42.4 488.1,42.0 489.6,41.7 491.1,41.6 492.6,41.4 494.2,41.0 495.7,40.7 497.2,40.4 498.7,40.3 500.2,40.1 501.7,39.8 503.3,39.7 504.8,39.5 506.3,39.3 507.8,39.1 509.3,38.9 510.8,38.6 512.4,38.4 513.9,38.1 515.4,37.7 516.9,37.4 518.4,37.2 519.9,37.0 521.5,36.9 523.0,36.7 524.5,36.5 526.0,36.3 527.5,36.2 529.0,36.1 530.6,35.8 532.1,35.7 533.6,35.4 535.1,35.3 536.6,35.1 538.1,34.8 539.7,34.5 541.2,34.1 542.7,33.9 544.2,33.7 545.7,33.5 547.2,33.2 548.8,33.0 550.3,32.7 551.8,32.5 553.3,32.4 554.8,32.3 556.3,32.0 557.9,31.8 559.4,31.6 560.9,31.5 562.4,31.2 563.9,31.0 565.4,30.8 567.0,30.5 568.5,30.3 570.0,30.0 570.0,30.0,120" />
  
  <!-- Linea principale -->
  <polyline fill="none" stroke="#0366d6" stroke-width="2.5" stroke-linecap="round" stroke-linejoin="round" points="30.0,120.0 31.5,119.5 33.0,118.9 34.6,118.3 36.1,118.2 37.6,117.9 39.1,117.3 40.6,116.9 42.1,116.6 43.7,116.0 45.2,115.6 46.7,115.3 48.2,115.1 49.7,114.8 51.2,114.4 52.8,113.9 54.3,113.6 55.8,113.3 57.3,113.1 58.8,112.9 60.3,112.5 61.9,112.2 63.4,112.1 64.9,111.8 66.4,110.7 67.9,110.4 69.4,110.0 71.0,109.6 72.5,109.3 74.0,108.9 75.5,108.7 77.0,108.5 78.5,108.3 80.1,107.8 81.6,107.3 83.1,107.0 84.6,106.7 86.1,106.6 87.6,106.5 89.2,106.3 90.7,106.0 92.2,105.8 93.7,105.7 95.2,105.3 96.7,104.7 98.3,104.6 99.8,104.5 101.3,104.3 102.8,103.9 104.3,103.6 105.8,103.1 107.4,102.8 108.9,102.4 110.4,102.3 111.9,102.1 113.4,101.6 114.9,101.2 116.5,100.9 118.0,100.8 119.5,100.6 121.0,100.4 122.5,99.9 124.0,99.5 125.6,99.1 127.1,98.7 128.6,98.5 130.1,98.4 131.6,98.3 133.1,97.9 134.7,97.7 136.2,97.6 137.7,97.4 139.2,97.3 140.7,97.0 142.2,96.9 143.8,96.8 145.3,96.7 146.8,96.3 148.3,96.0 149.8,96.0 151.3,95.8 152.9,95.7 154.4,95.7 155.9,102.7 157.4,102.0 158.9,101.4 160.4,100.7 162.0,98.8 163.5,97.5 165.0,96.1 166.5,95.6 168.0,95.0 169.6,94.0 171.1,93.0 172.6,92.2 174.1,91.9 175.6,91.6 177.1,90.8 178.7,90.3 180.2,89.9 181.7,89.5 183.2,89.3 184.7,89.2 186.2,88.8 187.8,88.2 189.3,87.7 190.8,87.3 192.3,86.7 193.8,86.5 195.3,86.3 196.9,85.9 198.4,85.4 199.9,85.1 201.4,84.8 202.9,84.6 204.4,84.5 206.0,84.3 207.5,83.9 209.0,83.7 210.5,83.4 212.0,83.2 213.5,83.0 215.1,82.8 216.6,82.7 218.1,82.5 219.6,82.3 221.1,82.0 222.6,81.7 224.2,81.4 225.7,81.2 227.2,81.0 228.7,80.9 230.2,80.7 231.7,80.5 233.3,80.0 234.8,79.7 236.3,79.3 237.8,79.1 239.3,79.1 240.8,78.9 242.4,78.7 243.9,78.4 245.4,78.2 246.9,77.9 248.4,77.6 249.9,77.6 251.5,77.4 253.0,77.3 254.5,77.1 256.0,76.9 257.5,76.7 259.0,76.4 260.6,76.3 262.1,76.2 263.6,76.1 265.1,76.0 266.6,75.7 268.1,75.5 269.7,75.3 271.2,75.0 272.7,74.8 274.2,74.7 275.7,74.6 277.2,74.4 278.8,74.1 280.3,73.8 281.8,73.6 283.3,73.4 284.8,73.0 286.3,72.9 287.9,72.8 289.4,72.7 290.9,72.5 292.4,72.3 293.9,72.1 295.4,72.0 297.0,71.8 298.5,71.6 300.0,71.5 301.5,71.4 303.0,71.3 304.6,71.1 306.1,70.8 307.6,70.7 309.1,70.5 310.6,70.3 312.1,70.2 313.7,70.0 315.2,69.9 316.7,69.8 318.2,69.6 319.7,69.3 321.2,69.0 322.8,68.8 324.3,68.6 325.8,68.6 327.3,68.5 328.8,68.3 330.3,68.0 331.9,67.9 333.4,67.8 334.9,67.6 336.4,67.4 337.9,67.2 339.4,67.1 341.0,67.0 342.5,66.7 344.0,66.6 345.5,66.3 347.0,66.1 348.5,66.0 350.1,66.0 351.6,65.9 353.1,65.7 354.6,65.6 356.1,65.4 357.6,65.2 359.2,65.0 360.7,64.9 362.2,64.8 363.7,64.7 365.2,64.5 366.7,64.3 368.3,64.1 369.8,63.9 371.3,63.7 372.8,63.6 374.3,63.5 375.8,63.4 377.4,63.3 378.9,63.2 380.4,63.0 381.9,62.8 383.4,62.7 384.9,62.5 386.5,62.4 388.0,62.2 389.5,62.1 391.0,61.9 392.5,61.8 394.0,61.7 395.6,61.5 397.1,61.3 398.6,61.2 400.1,61.0 401.6,60.9 403.1,60.8 404.7,60.7 406.2,60.6 407.7,60.5 409.2,60.3 410.7,60.3 412.2,60.1 413.8,59.8 415.3,59.6 416.8,64.1 418.3,63.2 419.8,61.5 421.3,60.9 422.9,60.1 424.4,59.1 425.9,58.6 427.4,58.2 428.9,57.6 430.4,56.6 432.0,55.8 433.5,55.6 435.0,55.2 436.5,54.9 438.0,54.4 439.6,54.0 441.1,53.4 442.6,53.1 444.1,52.6 445.6,52.4 447.1,52.0 448.7,51.8 450.2,51.6 451.7,51.3 453.2,50.8 454.7,50.5 456.2,50.0 457.8,49.4 459.3,49.0 460.8,48.8 462.3,48.7 463.8,48.4 465.3,48.0 466.9,47.6 468.4,47.3 469.9,46.4 471.4,45.7 472.9,45.4 474.4,45.2 476.0,44.9 477.5,44.4 479.0,44.0 480.5,43.7 482.0,43.4 483.5,43.0 485.1,42.7 486.6,42.4 488.1,42.0 489.6,41.7 491.1,41.6 492.6,41.4 494.2,41.0 495.7,40.7 497.2,40.4 498.7,40.3 500.2,40.1 501.7,39.8 503.3,39.7 504.8,39.5 506.3,39.3 507.8,39.1 509.3,38.9 510.8,38.6 512.4,38.4 513.9,38.1 515.4,37.7 516.9,37.4 518.4,37.2 519.9,37.0 521.5,36.9 523.0,36.7 524.5,36.5 526.0,36.3 527.5,36.2 529.0,36.1 530.6,35.8 532.1,35.7 533.6,35.4 535.1,35.3 536.6,35.1 538.1,34.8 539.7,34.5 541.2,34.1 542.7,33.9 544.2,33.7 545.7,33.5 547.2,33.2 548.8,33.0 550.3,32.7 551.8,32.5 553.3,32.4 554.8,32.3 556.3,32.0 557.9,31.8 559.4,31.6 560.9,31.5 562.4,31.2 563.9,31.0 565.4,30.8 567.0,30.5 568.5,30.3 570.0,30.0" />
  
  <!-- Punto finale luminoso -->
  <circle cx="570.0" cy="30.0" r="4" fill="#ffffff" stroke="#0366d6" stroke-width="2.5" />
</svg>