<svg width="600" height="150" viewBox="0 0 600 150" xmlns="http://www.w3.org/2000/svg">
  <defs>
    <filter id="shadow2" x="-2%" y="-2%" width="104%" height="108%">
      <feDropShadow dx="0" dy="2" stdDeviation="3" flood-opacity="0.1" />
    </filter>
    <linearGradient id="fillGrad" x1="0" y1="0" x2="0" y2="1">
      <stop offset="0%" stop-color="#0366d6" stop-opacity="0.3"/>
      <stop offset="100%" stop-color="#0366d6" stop-opacity="0.02"/>
    </linearGradient>
  </defs>
  <rect width="600" height="150" rx="12" fill="#ffffff" filter="url(#shadow2)" stroke="#e1e4e8" stroke-width="1"/>
  <text x="20" y="24" fill="#2b3137" font-family="-apple-system,BlinkMacSystemFont,'Segoe UI',Helvetica,Arial,sans-serif" font-size="14" font-weight="600">📈 Download Growth (Actual: 87.2k)</text>
  
  <!-- Area sotto la linea -->
  <polygon fill="url(#fillGrad)" points="30.0,120.0,120 30.0,120.0 31.3,119.5 32.7,119.0 34.0,118.5 35.3,118.4 36.7,118.1 38.0,117.6 39.3,117.2 40.7,116.9 42.0,116.3 43.3,116.0 44.7,115.7 46.0,115.6 47.3,115.3 48.7,114.9 50.0,114.5 51.3,114.1 52.7,113.9 54.0,113.8 55.3,113.5 56.7,113.2 58.0,112.9 59.3,112.8 60.7,112.5 62.0,111.6 63.3,111.3 64.7,110.9 66.0,110.6 67.3,110.2 68.7,109.9 70.0,109.7 71.3,109.6 72.7,109.3 74.0,108.9 75.3,108.5 76.7,108.2 78.0,107.9 79.3,107.8 80.7,107.7 82.0,107.6 83.3,107.3 84.7,107.1 86.0,107.0 87.3,106.6 88.7,106.1 90.0,106.0 91.3,105.9 92.7,105.7 94.0,105.3 95.3,105.0 96.7,104.6 98.0,104.3 99.3,104.0 100.7,103.9 102.0,103.7 103.3,103.3 104.7,102.9 106.0,102.6 107.3,102.5 108.7,102.3 110.0,102.2 111.3,101.7 112.7,101.3 114.0,101.0 115.3,100.6 116.7,100.5 118.0,100.4 119.3,100.2 120.7,99.9 122.0,99.7 123.3,99.6 124.7,99.4 126.0,99.3 127.3,99.1 128.7,99.0 130.0,98.9 131.3,98.8 132.7,98.4 134.0,98.2 135.3,98.1 136.7,98.0 138.0,97.9 139.3,97.9 140.7,104.2 142.0,103.6 143.3,103.1 144.7,102.5 146.0,100.8 147.3,99.5 148.7,98.3 150.0,97.8 151.3,97.2 152.7,96.4 154.0,95.4 155.3,94.7 156.7,94.4 158.0,94.2 159.3,93.5 160.7,93.0 162.0,92.6 163.3,92.2 164.7,92.1 166.0,92.0 167.3,91.6 168.7,91.0 170.0,90.6 171.3,90.2 172.7,89.7 174.0,89.5 175.3,89.3 176.7,88.9 178.0,88.6 179.3,88.2 180.7,87.9 182.0,87.8 183.3,87.7 184.7,87.5 186.0,87.2 187.3,87.0 188.7,86.7 190.0,86.5 191.3,86.4 192.7,86.2 194.0,86.0 195.3,85.9 196.7,85.7 198.0,85.4 199.3,85.1 200.7,84.9 202.0,84.7 203.3,84.5 204.7,84.4 206.0,84.2 207.3,84.1 208.7,83.6 210.0,83.3 211.3,83.0 212.7,82.8 214.0,82.8 215.3,82.6 216.7,82.4 218.0,82.1 219.3,81.9 220.7,81.6 222.0,81.5 223.3,81.4 224.7,81.2 226.0,81.1 227.3,81.0 228.7,80.8 230.0,80.6 231.3,80.4 232.7,80.2 234.0,80.1 235.3,80.0 236.7,79.9 238.0,79.7 239.3,79.5 240.7,79.3 242.0,79.1 243.3,78.9 244.7,78.7 246.0,78.7 247.3,78.5 248.7,78.2 250.0,78.0 251.3,77.8 252.7,77.6 254.0,77.2 255.3,77.2 256.7,77.0 258.0,77.0 259.3,76.8 260.7,76.6 262.0,76.4 263.3,76.3 264.7,76.1 266.0,76.0 267.3,75.8 268.7,75.7 270.0,75.7 271.3,75.5 272.7,75.2 274.0,75.1 275.3,74.9 276.7,74.8 278.0,74.7 279.3,74.5 280.7,74.4 282.0,74.3 283.3,74.2 284.7,73.9 286.0,73.6 287.3,73.4 288.7,73.3 290.0,73.2 291.3,73.1 292.7,73.0 294.0,72.7 295.3,72.6 296.7,72.5 298.0,72.3 299.3,72.2 300.7,72.0 302.0,71.9 303.3,71.8 304.7,71.5 306.0,71.4 307.3,71.2 308.7,71.0 310.0,70.9 311.3,70.8 312.7,70.8 314.0,70.6 315.3,70.5 316.7,70.3 318.0,70.2 319.3,70.0 320.7,69.9 322.0,69.8 323.3,69.6 324.7,69.5 326.0,69.3 327.3,69.1 328.7,68.9 330.0,68.8 331.3,68.7 332.7,68.6 334.0,68.5 335.3,68.4 336.7,68.3 338.0,68.2 339.3,67.9 340.7,67.8 342.0,67.7 343.3,67.6 344.7,67.4 346.0,67.3 347.3,67.1 348.7,67.0 350.0,66.9 351.3,66.8 352.7,66.6 354.0,66.5 355.3,66.3 356.7,66.3 358.0,66.2 359.3,66.1 360.7,65.9 362.0,65.8 363.3,65.7 364.7,65.7 366.0,65.5 367.3,65.2 368.7,65.0 370.0,69.2 371.3,68.4 372.7,66.8 374.0,66.2 375.3,65.5 376.7,64.6 378.0,64.1 379.3,63.8 380.7,63.2 382.0,62.3 383.3,61.6 384.7,61.4 386.0,61.1 387.3,60.8 388.7,60.3 390.0,59.9 391.3,59.4 392.7,59.2 394.0,58.7 395.3,58.5 396.7,58.2 398.0,58.0 399.3,57.7 400.7,57.5 402.0,57.0 403.3,56.7 404.7,56.3 406.0,55.8 407.3,55.4 408.7,55.2 410.0,55.1 411.3,54.9 412.7,54.5 414.0,54.2 415.3,53.9 416.7,53.0 418.0,52.4 419.3,52.1 420.7,51.9 422.0,51.6 423.3,51.2 424.7,50.8 426.0,50.5 427.3,50.3 428.7,50.0 430.0,49.7 431.3,49.4 432.7,49.0 434.0,48.8 435.3,48.6 436.7,48.5 438.0,48.1 439.3,47.8 440.7,47.6 442.0,47.5 443.3,47.3 444.7,47.1 446.0,46.9 447.3,46.7 448.7,46.5 450.0,46.4 451.3,46.2 452.7,46.0 454.0,45.8 455.3,45.5 456.7,45.1 458.0,44.8 459.3,44.7 460.7,44.5 462.0,44.4 463.3,44.2 464.7,44.0 466.0,43.9 467.3,43.8 468.7,43.6 470.0,43.4 471.3,43.3 472.7,43.0 474.0,42.9 475.3,42.7 476.7,42.5 478.0,42.2 479.3,41.8 480.7,41.7 482.0,41.5 483.3,41.3 484.7,41.0 486.0,40.8 487.3,40.6 488.7,40.4 490.0,40.3 491.3,40.2 492.7,40.0 494.0,39.7 495.3,39.6 496.7,39.5 498.0,39.2 499.3,39.0 500.7,38.8 502.0,38.6 503.3,38.4 504.7,38.1 506.0,37.9 507.3,37.7 508.7,37.6 510.0,37.4 511.3,37.3 512.7,37.1 514.0,36.9 515.3,36.7 516.7,36.6 518.0,36.4 519.3,36.3 520.7,36.1 522.0,36.0 523.3,35.8 524.7,35.7 526.0,35.6 527.3,35.4 528.7,35.3 530.0,35.1 531.3,34.9 532.7,34.8 534.0,34.7 535.3,34.5 536.7,34.3 538.0,34.1 539.3,34.0 540.7,33.9 542.0,33.6 543.3,33.4 544.7,33.2 546.0,33.1 547.3,33.0 548.7,32.9 550.0,32.7 551.3,32.6 552.7,32.4 554.0,32.1 555.3,32.0 556.7,31.7 558.0,31.7 559.3,31.5 560.7,31.3 562.0,31.2 563.3,30.9 564.7,30.7 566.0,30.6 567.3,30.4 568.7,30.2 570.0,30.0 570.0,30.0,120" />
  
  <!-- Linea principale -->
  <polyline fill="none" stroke="#0366d6" stroke-width="2.5" stroke-linecap="round" stroke-linejoin="round" points="30.0,120.0 31.3,119.5 32.7,119.0 34.0,118.5 35.3,118.4 36.7,118.1 38.0,117.6 39.3,117.2 40.7,116.9 42.0,116.3 43.3,116.0 44.7,115.7 46.0,115.6 47.3,115.3 48.7,114.9 50.0,114.5 51.3,114.1 52.7,113.9 54.0,113.8 55.3,113.5 56.7,113.2 58.0,112.9 59.3,112.8 60.7,112.5 62.0,111.6 63.3,111.3 64.7,110.9 66.0,110.6 67.3,110.2 68.7,109.9 70.0,109.7 71.3,109.6 72.7,109.3 74.0,108.9 75.3,108.5 76.7,108.2 78.0,107.9 79.3,107.8 80.7,107.7 82.0,107.6 83.3,107.3 84.7,107.1 86.0,107.0 87.3,106.6 88.7,106.1 90.0,106.0 91.3,105.9 92.7,105.7 94.0,105.3 95.3,105.0 96.7,104.6 98.0,104.3 99.3,104.0 100.7,103.9 102.0,103.7 103.3,103.3 104.7,102.9 106.0,102.6 107.3,102.5 108.7,102.3 110.0,102.2 111.3,101.7 112.7,101.3 114.0,101.0 115.3,100.6 116.7,100.5 118.0,100.4 119.3,100.2 120.7,99.9 122.0,99.7 123.3,99.6 124.7,99.4 126.0,99.3 127.3,99.1 128.7,99.0 130.0,98.9 131.3,98.8 132.7,98.4 134.0,98.2 135.3,98.1 136.7,98.0 138.0,97.9 139.3,97.9 140.7,104.2 142.0,103.6 143.3,103.1 144.7,102.5 146.0,100.8 147.3,99.5 148.7,98.3 150.0,97.8 151.3,97.2 152.7,96.4 154.0,95.4 155.3,94.7 156.7,94.4 158.0,94.2 159.3,93.5 160.7,93.0 162.0,92.6 163.3,92.2 164.7,92.1 166.0,92.0 167.3,91.6 168.7,91.0 170.0,90.6 171.3,90.2 172.7,89.7 174.0,89.5 175.3,89.3 176.7,88.9 178.0,88.6 179.3,88.2 180.7,87.9 182.0,87.8 183.3,87.7 184.7,87.5 186.0,87.2 187.3,87.0 188.7,86.7 190.0,86.5 191.3,86.4 192.7,86.2 194.0,86.0 195.3,85.9 196.7,85.7 198.0,85.4 199.3,85.1 200.7,84.9 202.0,84.7 203.3,84.5 204.7,84.4 206.0,84.2 207.3,84.1 208.7,83.6 210.0,83.3 211.3,83.0 212.7,82.8 214.0,82.8 215.3,82.6 216.7,82.4 218.0,82.1 219.3,81.9 220.7,81.6 222.0,81.5 223.3,81.4 224.7,81.2 226.0,81.1 227.3,81.0 228.7,80.8 230.0,80.6 231.3,80.4 232.7,80.2 234.0,80.1 235.3,80.0 236.7,79.9 238.0,79.7 239.3,79.5 240.7,79.3 242.0,79.1 243.3,78.9 244.7,78.7 246.0,78.7 247.3,78.5 248.7,78.2 250.0,78.0 251.3,77.8 252.7,77.6 254.0,77.2 255.3,77.2 256.7,77.0 258.0,77.0 259.3,76.8 260.7,76.6 262.0,76.4 263.3,76.3 264.7,76.1 266.0,76.0 267.3,75.8 268.7,75.7 270.0,75.7 271.3,75.5 272.7,75.2 274.0,75.1 275.3,74.9 276.7,74.8 278.0,74.7 279.3,74.5 280.7,74.4 282.0,74.3 283.3,74.2 284.7,73.9 286.0,73.6 287.3,73.4 288.7,73.3 290.0,73.2 291.3,73.1 292.7,73.0 294.0,72.7 295.3,72.6 296.7,72.5 298.0,72.3 299.3,72.2 300.7,72.0 302.0,71.9 303.3,71.8 304.7,71.5 306.0,71.4 307.3,71.2 308.7,71.0 310.0,70.9 311.3,70.8 312.7,70.8 314.0,70.6 315.3,70.5 316.7,70.3 318.0,70.2 319.3,70.0 320.7,69.9 322.0,69.8 323.3,69.6 324.7,69.5 326.0,69.3 327.3,69.1 328.7,68.9 330.0,68.8 331.3,68.7 332.7,68.6 334.0,68.5 335.3,68.4 336.7,68.3 338.0,68.2 339.3,67.9 340.7,67.8 342.0,67.7 343.3,67.6 344.7,67.4 346.0,67.3 347.3,67.1 348.7,67.0 350.0,66.9 351.3,66.8 352.7,66.6 354.0,66.5 355.3,66.3 356.7,66.3 358.0,66.2 359.3,66.1 360.7,65.9 362.0,65.8 363.3,65.7 364.7,65.7 366.0,65.5 367.3,65.2 368.7,65.0 370.0,69.2 371.3,68.4 372.7,66.8 374.0,66.2 375.3,65.5 376.7,64.6 378.0,64.1 379.3,63.8 380.7,63.2 382.0,62.3 383.3,61.6 384.7,61.4 386.0,61.1 387.3,60.8 388.7,60.3 390.0,59.9 391.3,59.4 392.7,59.2 394.0,58.7 395.3,58.5 396.7,58.2 398.0,58.0 399.3,57.7 400.7,57.5 402.0,57.0 403.3,56.7 404.7,56.3 406.0,55.8 407.3,55.4 408.7,55.2 410.0,55.1 411.3,54.9 412.7,54.5 414.0,54.2 415.3,53.9 416.7,53.0 418.0,52.4 419.3,52.1 420.7,51.9 422.0,51.6 423.3,51.2 424.7,50.8 426.0,50.5 427.3,50.3 428.7,50.0 430.0,49.7 431.3,49.4 432.7,49.0 434.0,48.8 435.3,48.6 436.7,48.5 438.0,48.1 439.3,47.8 440.7,47.6 442.0,47.5 443.3,47.3 444.7,47.1 446.0,46.9 447.3,46.7 448.7,46.5 450.0,46.4 451.3,46.2 452.7,46.0 454.0,45.8 455.3,45.5 456.7,45.1 458.0,44.8 459.3,44.7 460.7,44.5 462.0,44.4 463.3,44.2 464.7,44.0 466.0,43.9 467.3,43.8 468.7,43.6 470.0,43.4 471.3,43.3 472.7,43.0 474.0,42.9 475.3,42.7 476.7,42.5 478.0,42.2 479.3,41.8 480.7,41.7 482.0,41.5 483.3,41.3 484.7,41.0 486.0,40.8 487.3,40.6 488.7,40.4 490.0,40.3 491.3,40.2 492.7,40.0 494.0,39.7 495.3,39.6 496.7,39.5 498.0,39.2 499.3,39.0 500.7,38.8 502.0,38.6 503.3,38.4 504.7,38.1 506.0,37.9 507.3,37.7 508.7,37.6 510.0,37.4 511.3,37.3 512.7,37.1 514.0,36.9 515.3,36.7 516.7,36.6 518.0,36.4 519.3,36.3 520.7,36.1 522.0,36.0 523.3,35.8 524.7,35.7 526.0,35.6 527.3,35.4 528.7,35.3 530.0,35.1 531.3,34.9 532.7,34.8 534.0,34.7 535.3,34.5 536.7,34.3 538.0,34.1 539.3,34.0 540.7,33.9 542.0,33.6 543.3,33.4 544.7,33.2 546.0,33.1 547.3,33.0 548.7,32.9 550.0,32.7 551.3,32.6 552.7,32.4 554.0,32.1 555.3,32.0 556.7,31.7 558.0,31.7 559.3,31.5 560.7,31.3 562.0,31.2 563.3,30.9 564.7,30.7 566.0,30.6 567.3,30.4 568.7,30.2 570.0,30.0" />
  
  <!-- Punto finale luminoso -->
  <circle cx="570.0" cy="30.0" r="4" fill="#ffffff" stroke="#0366d6" stroke-width="2.5" />
</svg>