<svg width="600" height="150" viewBox="0 0 600 150" xmlns="http://www.w3.org/2000/svg">
  <defs>
    <filter id="shadow2" x="-2%" y="-2%" width="104%" height="108%">
      <feDropShadow dx="0" dy="2" stdDeviation="3" flood-opacity="0.1" />
    </filter>
    <linearGradient id="fillGrad" x1="0" y1="0" x2="0" y2="1">
      <stop offset="0%" stop-color="#0366d6" stop-opacity="0.3"/>
      <stop offset="100%" stop-color="#0366d6" stop-opacity="0.02"/>
    </linearGradient>
  </defs>
  <rect width="600" height="150" rx="12" fill="#ffffff" filter="url(#shadow2)" stroke="#e1e4e8" stroke-width="1"/>
  <text x="20" y="24" fill="#2b3137" font-family="-apple-system,BlinkMacSystemFont,'Segoe UI',Helvetica,Arial,sans-serif" font-size="14" font-weight="600">📈 Download Growth (Actual: 70.8k)</text>
  
  <!-- Area sotto la linea -->
  <polygon fill="url(#fillGrad)" points="30.0,120.0,120 30.0,120.0 39.3,117.5 48.6,114.7 57.9,112.3 67.2,111.6 76.6,110.4 85.9,107.4 95.2,105.4 104.5,104.1 113.8,101.1 123.1,99.5 132.4,98.0 141.7,97.1 151.0,95.7 160.3,93.7 169.7,91.5 179.0,89.8 188.3,88.7 197.6,87.9 206.9,86.5 216.2,84.9 225.5,83.5 234.8,82.8 244.1,81.5 253.4,76.7 262.8,75.2 272.1,73.3 281.4,71.5 290.7,69.8 300.0,68.2 309.3,67.2 318.6,66.4 327.9,65.0 337.2,62.7 346.6,60.7 355.9,59.3 365.2,57.7 374.5,57.2 383.8,56.8 393.1,56.0 402.4,54.5 411.7,53.6 421.0,52.9 430.3,51.1 439.7,48.6 449.0,47.9 458.3,47.5 467.6,46.4 476.9,44.4 486.2,43.0 495.5,40.9 504.8,39.4 514.1,37.5 523.4,37.1 532.8,36.0 542.1,34.1 551.4,32.1 560.7,30.7 570.0,30.0 570.0,30.0,120" />
  
  <!-- Linea principale -->
  <polyline fill="none" stroke="#0366d6" stroke-width="2.5" stroke-linecap="round" stroke-linejoin="round" points="30.0,120.0 39.3,117.5 48.6,114.7 57.9,112.3 67.2,111.6 76.6,110.4 85.9,107.4 95.2,105.4 104.5,104.1 113.8,101.1 123.1,99.5 132.4,98.0 141.7,97.1 151.0,95.7 160.3,93.7 169.7,91.5 179.0,89.8 188.3,88.7 197.6,87.9 206.9,86.5 216.2,84.9 225.5,83.5 234.8,82.8 244.1,81.5 253.4,76.7 262.8,75.2 272.1,73.3 281.4,71.5 290.7,69.8 300.0,68.2 309.3,67.2 318.6,66.4 327.9,65.0 337.2,62.7 346.6,60.7 355.9,59.3 365.2,57.7 374.5,57.2 383.8,56.8 393.1,56.0 402.4,54.5 411.7,53.6 421.0,52.9 430.3,51.1 439.7,48.6 449.0,47.9 458.3,47.5 467.6,46.4 476.9,44.4 486.2,43.0 495.5,40.9 504.8,39.4 514.1,37.5 523.4,37.1 532.8,36.0 542.1,34.1 551.4,32.1 560.7,30.7 570.0,30.0" />
  
  <!-- Punto finale luminoso -->
  <circle cx="570.0" cy="30.0" r="4" fill="#ffffff" stroke="#0366d6" stroke-width="2.5" />
</svg>