<svg width="600" height="150" viewBox="0 0 600 150" xmlns="http://www.w3.org/2000/svg">
  <defs>
    <filter id="shadow2" x="-2%" y="-2%" width="104%" height="108%">
      <feDropShadow dx="0" dy="2" stdDeviation="3" flood-opacity="0.1" />
    </filter>
    <linearGradient id="fillGrad" x1="0" y1="0" x2="0" y2="1">
      <stop offset="0%" stop-color="#0366d6" stop-opacity="0.3"/>
      <stop offset="100%" stop-color="#0366d6" stop-opacity="0.02"/>
    </linearGradient>
  </defs>
  <rect width="600" height="150" rx="12" fill="#ffffff" filter="url(#shadow2)" stroke="#e1e4e8" stroke-width="1"/>
  <text x="20" y="24" fill="#2b3137" font-family="-apple-system,BlinkMacSystemFont,'Segoe UI',Helvetica,Arial,sans-serif" font-size="14" font-weight="600">📈 Download Growth (Actual: 88.0k)</text>
  
  <!-- Area sotto la linea -->
  <polygon fill="url(#fillGrad)" points="30.0,120.0,120 30.0,120.0 31.3,119.5 32.5,119.0 33.8,118.6 35.1,118.4 36.4,118.2 37.6,117.6 38.9,117.3 40.2,117.0 41.4,116.5 42.7,116.2 44.0,115.9 45.2,115.7 46.5,115.5 47.8,115.1 49.1,114.7 50.3,114.4 51.6,114.1 52.9,114.0 54.1,113.7 55.4,113.4 56.7,113.2 58.0,113.0 59.2,112.8 60.5,111.9 61.8,111.6 63.0,111.3 64.3,110.9 65.6,110.6 66.8,110.3 68.1,110.1 69.4,110.0 70.7,109.7 71.9,109.3 73.2,108.9 74.5,108.7 75.7,108.3 77.0,108.3 78.3,108.2 79.6,108.0 80.8,107.7 82.1,107.6 83.4,107.5 84.6,107.1 85.9,106.6 87.2,106.5 88.4,106.4 89.7,106.2 91.0,105.9 92.3,105.6 93.5,105.2 94.8,104.9 96.1,104.6 97.3,104.5 98.6,104.3 99.9,103.9 101.2,103.6 102.4,103.3 103.7,103.2 105.0,103.0 106.2,102.8 107.5,102.4 108.8,102.0 110.0,101.7 111.3,101.4 112.6,101.2 113.9,101.1 115.1,101.0 116.4,100.7 117.7,100.5 118.9,100.3 120.2,100.2 121.5,100.1 122.8,99.9 124.0,99.8 125.3,99.7 126.6,99.6 127.8,99.2 129.1,99.0 130.4,99.0 131.6,98.8 132.9,98.8 134.2,98.8 135.5,104.8 136.7,104.2 138.0,103.7 139.3,103.1 140.5,101.5 141.8,100.3 143.1,99.1 144.4,98.6 145.6,98.1 146.9,97.2 148.2,96.3 149.4,95.6 150.7,95.4 152.0,95.1 153.2,94.5 154.5,94.0 155.8,93.7 157.1,93.3 158.3,93.1 159.6,93.1 160.9,92.7 162.1,92.1 163.4,91.7 164.7,91.3 166.0,90.9 167.2,90.6 168.5,90.5 169.8,90.1 171.0,89.7 172.3,89.4 173.6,89.1 174.8,89.0 176.1,88.9 177.4,88.7 178.7,88.4 179.9,88.2 181.2,88.0 182.5,87.8 183.7,87.6 185.0,87.5 186.3,87.3 187.6,87.2 188.8,87.0 190.1,86.7 191.4,86.5 192.6,86.2 193.9,86.0 195.2,85.8 196.4,85.7 197.7,85.6 199.0,85.4 200.3,85.0 201.5,84.7 202.8,84.3 204.1,84.2 205.3,84.2 206.6,84.0 207.9,83.8 209.2,83.6 210.4,83.4 211.7,83.1 213.0,82.9 214.2,82.8 215.5,82.7 216.8,82.6 218.0,82.4 219.3,82.3 220.6,82.1 221.9,81.9 223.1,81.7 224.4,81.6 225.7,81.5 226.9,81.4 228.2,81.2 229.5,81.0 230.8,80.8 232.0,80.6 233.3,80.4 234.6,80.3 235.8,80.2 237.1,80.1 238.4,79.8 239.6,79.6 240.9,79.4 242.2,79.2 243.5,78.8 244.7,78.8 246.0,78.7 247.3,78.6 248.5,78.4 249.8,78.3 251.1,78.1 252.4,77.9 253.6,77.8 254.9,77.7 256.2,77.5 257.4,77.4 258.7,77.3 260.0,77.2 261.2,76.9 262.5,76.8 263.8,76.6 265.1,76.5 266.3,76.4 267.6,76.3 268.9,76.2 270.1,76.0 271.4,75.9 272.7,75.6 274.0,75.3 275.2,75.2 276.5,75.0 277.8,75.0 279.0,74.9 280.3,74.7 281.6,74.5 282.8,74.4 284.1,74.3 285.4,74.1 286.7,74.0 287.9,73.8 289.2,73.7 290.5,73.6 291.7,73.4 293.0,73.2 294.3,73.0 295.6,72.8 296.8,72.7 298.1,72.7 299.4,72.6 300.6,72.5 301.9,72.3 303.2,72.2 304.4,72.0 305.7,71.9 307.0,71.8 308.3,71.7 309.5,71.5 310.8,71.4 312.1,71.2 313.3,71.0 314.6,70.9 315.9,70.7 317.2,70.6 318.4,70.5 319.7,70.4 321.0,70.4 322.2,70.3 323.5,70.1 324.8,69.9 326.0,69.8 327.3,69.6 328.6,69.6 329.9,69.4 331.1,69.3 332.4,69.1 333.7,69.0 334.9,68.9 336.2,68.8 337.5,68.6 338.8,68.5 340.0,68.3 341.3,68.3 342.6,68.2 343.8,68.1 345.1,68.0 346.4,67.9 347.6,67.7 348.9,67.7 350.2,67.6 351.5,67.3 352.7,67.1 354.0,71.1 355.3,70.3 356.5,68.8 357.8,68.2 359.1,67.5 360.4,66.7 361.6,66.2 362.9,65.9 364.2,65.3 365.4,64.5 366.7,63.8 368.0,63.6 369.2,63.3 370.5,63.0 371.8,62.6 373.1,62.2 374.3,61.7 375.6,61.5 376.9,61.0 378.1,60.8 379.4,60.5 380.7,60.3 382.0,60.1 383.2,59.9 384.5,59.4 385.8,59.1 387.0,58.7 388.3,58.2 389.6,57.9 390.8,57.7 392.1,57.5 393.4,57.3 394.7,57.0 395.9,56.6 397.2,56.4 398.5,55.6 399.7,54.9 401.0,54.6 402.3,54.5 403.6,54.2 404.8,53.8 406.1,53.4 407.4,53.2 408.6,52.9 409.9,52.6 411.2,52.3 412.4,52.0 413.7,51.7 415.0,51.5 416.3,51.3 417.5,51.1 418.8,50.8 420.1,50.5 421.3,50.3 422.6,50.2 423.9,50.1 425.2,49.8 426.4,49.7 427.7,49.5 429.0,49.3 430.2,49.1 431.5,49.0 432.8,48.7 434.0,48.6 435.3,48.3 436.6,47.9 437.9,47.7 439.1,47.5 440.4,47.4 441.7,47.2 442.9,47.0 444.2,46.9 445.5,46.7 446.8,46.6 448.0,46.5 449.3,46.3 450.6,46.2 451.8,45.9 453.1,45.8 454.4,45.6 455.6,45.4 456.9,45.1 458.2,44.8 459.5,44.6 460.7,44.4 462.0,44.2 463.3,44.0 464.5,43.8 465.8,43.6 467.1,43.4 468.4,43.3 469.6,43.2 470.9,43.0 472.2,42.7 473.4,42.6 474.7,42.5 476.0,42.3 477.2,42.0 478.5,41.9 479.8,41.6 481.1,41.5 482.3,41.2 483.6,41.0 484.9,40.8 486.1,40.7 487.4,40.5 488.7,40.4 490.0,40.2 491.2,40.0 492.5,39.8 493.8,39.7 495.0,39.6 496.3,39.4 497.6,39.3 498.8,39.1 500.1,39.0 501.4,38.9 502.7,38.8 503.9,38.6 505.2,38.5 506.5,38.3 507.7,38.1 509.0,38.0 510.3,37.9 511.6,37.7 512.8,37.5 514.1,37.4 515.4,37.2 516.6,37.1 517.9,36.9 519.2,36.7 520.4,36.4 521.7,36.3 523.0,36.2 524.3,36.2 525.5,36.0 526.8,35.9 528.1,35.7 529.3,35.4 530.6,35.3 531.9,35.1 533.2,35.0 534.4,34.9 535.7,34.7 537.0,34.5 538.2,34.3 539.5,34.1 540.8,34.0 542.0,33.8 543.3,33.6 544.6,33.4 545.9,33.1 547.1,33.0 548.4,32.9 549.7,32.6 550.9,32.4 552.2,32.2 553.5,32.1 554.8,32.0 556.0,31.8 557.3,31.6 558.6,31.4 559.8,31.3 561.1,31.2 562.4,30.9 563.6,30.7 564.9,30.6 566.2,30.4 567.5,30.3 568.7,30.2 570.0,30.0 570.0,30.0,120" />
  
  <!-- Linea principale -->
  <polyline fill="none" stroke="#0366d6" stroke-width="2.5" stroke-linecap="round" stroke-linejoin="round" points="30.0,120.0 31.3,119.5 32.5,119.0 33.8,118.6 35.1,118.4 36.4,118.2 37.6,117.6 38.9,117.3 40.2,117.0 41.4,116.5 42.7,116.2 44.0,115.9 45.2,115.7 46.5,115.5 47.8,115.1 49.1,114.7 50.3,114.4 51.6,114.1 52.9,114.0 54.1,113.7 55.4,113.4 56.7,113.2 58.0,113.0 59.2,112.8 60.5,111.9 61.8,111.6 63.0,111.3 64.3,110.9 65.6,110.6 66.8,110.3 68.1,110.1 69.4,110.0 70.7,109.7 71.9,109.3 73.2,108.9 74.5,108.7 75.7,108.3 77.0,108.3 78.3,108.2 79.6,108.0 80.8,107.7 82.1,107.6 83.4,107.5 84.6,107.1 85.9,106.6 87.2,106.5 88.4,106.4 89.7,106.2 91.0,105.9 92.3,105.6 93.5,105.2 94.8,104.9 96.1,104.6 97.3,104.5 98.6,104.3 99.9,103.9 101.2,103.6 102.4,103.3 103.7,103.2 105.0,103.0 106.2,102.8 107.5,102.4 108.8,102.0 110.0,101.7 111.3,101.4 112.6,101.2 113.9,101.1 115.1,101.0 116.4,100.7 117.7,100.5 118.9,100.3 120.2,100.2 121.5,100.1 122.8,99.9 124.0,99.8 125.3,99.7 126.6,99.6 127.8,99.2 129.1,99.0 130.4,99.0 131.6,98.8 132.9,98.8 134.2,98.8 135.5,104.8 136.7,104.2 138.0,103.7 139.3,103.1 140.5,101.5 141.8,100.3 143.1,99.1 144.4,98.6 145.6,98.1 146.9,97.2 148.2,96.3 149.4,95.6 150.7,95.4 152.0,95.1 153.2,94.5 154.5,94.0 155.8,93.7 157.1,93.3 158.3,93.1 159.6,93.1 160.9,92.7 162.1,92.1 163.4,91.7 164.7,91.3 166.0,90.9 167.2,90.6 168.5,90.5 169.8,90.1 171.0,89.7 172.3,89.4 173.6,89.1 174.8,89.0 176.1,88.9 177.4,88.7 178.7,88.4 179.9,88.2 181.2,88.0 182.5,87.8 183.7,87.6 185.0,87.5 186.3,87.3 187.6,87.2 188.8,87.0 190.1,86.7 191.4,86.5 192.6,86.2 193.9,86.0 195.2,85.8 196.4,85.7 197.7,85.6 199.0,85.4 200.3,85.0 201.5,84.7 202.8,84.3 204.1,84.2 205.3,84.2 206.6,84.0 207.9,83.8 209.2,83.6 210.4,83.4 211.7,83.1 213.0,82.9 214.2,82.8 215.5,82.7 216.8,82.6 218.0,82.4 219.3,82.3 220.6,82.1 221.9,81.9 223.1,81.7 224.4,81.6 225.7,81.5 226.9,81.4 228.2,81.2 229.5,81.0 230.8,80.8 232.0,80.6 233.3,80.4 234.6,80.3 235.8,80.2 237.1,80.1 238.4,79.8 239.6,79.6 240.9,79.4 242.2,79.2 243.5,78.8 244.7,78.8 246.0,78.7 247.3,78.6 248.5,78.4 249.8,78.3 251.1,78.1 252.4,77.9 253.6,77.8 254.9,77.7 256.2,77.5 257.4,77.4 258.7,77.3 260.0,77.2 261.2,76.9 262.5,76.8 263.8,76.6 265.1,76.5 266.3,76.4 267.6,76.3 268.9,76.2 270.1,76.0 271.4,75.9 272.7,75.6 274.0,75.3 275.2,75.2 276.5,75.0 277.8,75.0 279.0,74.9 280.3,74.7 281.6,74.5 282.8,74.4 284.1,74.3 285.4,74.1 286.7,74.0 287.9,73.8 289.2,73.7 290.5,73.6 291.7,73.4 293.0,73.2 294.3,73.0 295.6,72.8 296.8,72.7 298.1,72.7 299.4,72.6 300.6,72.5 301.9,72.3 303.2,72.2 304.4,72.0 305.7,71.9 307.0,71.8 308.3,71.7 309.5,71.5 310.8,71.4 312.1,71.2 313.3,71.0 314.6,70.9 315.9,70.7 317.2,70.6 318.4,70.5 319.7,70.4 321.0,70.4 322.2,70.3 323.5,70.1 324.8,69.9 326.0,69.8 327.3,69.6 328.6,69.6 329.9,69.4 331.1,69.3 332.4,69.1 333.7,69.0 334.9,68.9 336.2,68.8 337.5,68.6 338.8,68.5 340.0,68.3 341.3,68.3 342.6,68.2 343.8,68.1 345.1,68.0 346.4,67.9 347.6,67.7 348.9,67.7 350.2,67.6 351.5,67.3 352.7,67.1 354.0,71.1 355.3,70.3 356.5,68.8 357.8,68.2 359.1,67.5 360.4,66.7 361.6,66.2 362.9,65.9 364.2,65.3 365.4,64.5 366.7,63.8 368.0,63.6 369.2,63.3 370.5,63.0 371.8,62.6 373.1,62.2 374.3,61.7 375.6,61.5 376.9,61.0 378.1,60.8 379.4,60.5 380.7,60.3 382.0,60.1 383.2,59.9 384.5,59.4 385.8,59.1 387.0,58.7 388.3,58.2 389.6,57.9 390.8,57.7 392.1,57.5 393.4,57.3 394.7,57.0 395.9,56.6 397.2,56.4 398.5,55.6 399.7,54.9 401.0,54.6 402.3,54.5 403.6,54.2 404.8,53.8 406.1,53.4 407.4,53.2 408.6,52.9 409.9,52.6 411.2,52.3 412.4,52.0 413.7,51.7 415.0,51.5 416.3,51.3 417.5,51.1 418.8,50.8 420.1,50.5 421.3,50.3 422.6,50.2 423.9,50.1 425.2,49.8 426.4,49.7 427.7,49.5 429.0,49.3 430.2,49.1 431.5,49.0 432.8,48.7 434.0,48.6 435.3,48.3 436.6,47.9 437.9,47.7 439.1,47.5 440.4,47.4 441.7,47.2 442.9,47.0 444.2,46.9 445.5,46.7 446.8,46.6 448.0,46.5 449.3,46.3 450.6,46.2 451.8,45.9 453.1,45.8 454.4,45.6 455.6,45.4 456.9,45.1 458.2,44.8 459.5,44.6 460.7,44.4 462.0,44.2 463.3,44.0 464.5,43.8 465.8,43.6 467.1,43.4 468.4,43.3 469.6,43.2 470.9,43.0 472.2,42.7 473.4,42.6 474.7,42.5 476.0,42.3 477.2,42.0 478.5,41.9 479.8,41.6 481.1,41.5 482.3,41.2 483.6,41.0 484.9,40.8 486.1,40.7 487.4,40.5 488.7,40.4 490.0,40.2 491.2,40.0 492.5,39.8 493.8,39.7 495.0,39.6 496.3,39.4 497.6,39.3 498.8,39.1 500.1,39.0 501.4,38.9 502.7,38.8 503.9,38.6 505.2,38.5 506.5,38.3 507.7,38.1 509.0,38.0 510.3,37.9 511.6,37.7 512.8,37.5 514.1,37.4 515.4,37.2 516.6,37.1 517.9,36.9 519.2,36.7 520.4,36.4 521.7,36.3 523.0,36.2 524.3,36.2 525.5,36.0 526.8,35.9 528.1,35.7 529.3,35.4 530.6,35.3 531.9,35.1 533.2,35.0 534.4,34.9 535.7,34.7 537.0,34.5 538.2,34.3 539.5,34.1 540.8,34.0 542.0,33.8 543.3,33.6 544.6,33.4 545.9,33.1 547.1,33.0 548.4,32.9 549.7,32.6 550.9,32.4 552.2,32.2 553.5,32.1 554.8,32.0 556.0,31.8 557.3,31.6 558.6,31.4 559.8,31.3 561.1,31.2 562.4,30.9 563.6,30.7 564.9,30.6 566.2,30.4 567.5,30.3 568.7,30.2 570.0,30.0" />
  
  <!-- Punto finale luminoso -->
  <circle cx="570.0" cy="30.0" r="4" fill="#ffffff" stroke="#0366d6" stroke-width="2.5" />
</svg>