<svg width="600" height="150" viewBox="0 0 600 150" xmlns="http://www.w3.org/2000/svg">
  <defs>
    <filter id="shadow2" x="-2%" y="-2%" width="104%" height="108%">
      <feDropShadow dx="0" dy="2" stdDeviation="3" flood-opacity="0.1" />
    </filter>
    <linearGradient id="fillGrad" x1="0" y1="0" x2="0" y2="1">
      <stop offset="0%" stop-color="#0366d6" stop-opacity="0.3"/>
      <stop offset="100%" stop-color="#0366d6" stop-opacity="0.02"/>
    </linearGradient>
  </defs>
  <rect width="600" height="150" rx="12" fill="#ffffff" filter="url(#shadow2)" stroke="#e1e4e8" stroke-width="1"/>
  <text x="20" y="24" fill="#2b3137" font-family="-apple-system,BlinkMacSystemFont,'Segoe UI',Helvetica,Arial,sans-serif" font-size="14" font-weight="600">📈 Download Growth (Actual: 70.3k)</text>
  
  <!-- Area sotto la linea -->
  <polygon fill="url(#fillGrad)" points="30.0,120.0,120 30.0,120.0 40.8,117.1 51.6,113.9 62.4,111.2 73.2,110.5 84.0,109.0 94.8,105.7 105.6,103.4 116.4,101.9 127.2,98.4 138.0,96.7 148.8,95.0 159.6,94.0 170.4,92.4 181.2,90.1 192.0,87.6 202.8,85.7 213.6,84.4 224.4,83.5 235.2,81.9 246.0,80.1 256.8,78.5 267.6,77.7 278.4,76.1 289.2,70.7 300.0,69.0 310.8,66.9 321.6,64.8 332.4,62.9 343.2,61.1 354.0,59.9 364.8,59.0 375.6,57.4 386.4,54.8 397.2,52.5 408.0,50.9 418.8,49.1 429.6,48.6 440.4,48.1 451.2,47.2 462.0,45.4 472.8,44.4 483.6,43.6 494.4,41.6 505.2,38.7 516.0,38.0 526.8,37.5 537.6,36.3 548.4,34.0 559.2,32.4 570.0,30.0 570.0,30.0,120" />
  
  <!-- Linea principale -->
  <polyline fill="none" stroke="#0366d6" stroke-width="2.5" stroke-linecap="round" stroke-linejoin="round" points="30.0,120.0 40.8,117.1 51.6,113.9 62.4,111.2 73.2,110.5 84.0,109.0 94.8,105.7 105.6,103.4 116.4,101.9 127.2,98.4 138.0,96.7 148.8,95.0 159.6,94.0 170.4,92.4 181.2,90.1 192.0,87.6 202.8,85.7 213.6,84.4 224.4,83.5 235.2,81.9 246.0,80.1 256.8,78.5 267.6,77.7 278.4,76.1 289.2,70.7 300.0,69.0 310.8,66.9 321.6,64.8 332.4,62.9 343.2,61.1 354.0,59.9 364.8,59.0 375.6,57.4 386.4,54.8 397.2,52.5 408.0,50.9 418.8,49.1 429.6,48.6 440.4,48.1 451.2,47.2 462.0,45.4 472.8,44.4 483.6,43.6 494.4,41.6 505.2,38.7 516.0,38.0 526.8,37.5 537.6,36.3 548.4,34.0 559.2,32.4 570.0,30.0" />
  
  <!-- Punto finale luminoso -->
  <circle cx="570.0" cy="30.0" r="4" fill="#ffffff" stroke="#0366d6" stroke-width="2.5" />
</svg>