<svg width="600" height="150" viewBox="0 0 600 150" xmlns="http://www.w3.org/2000/svg">
  <defs>
    <filter id="shadow2" x="-2%" y="-2%" width="104%" height="108%">
      <feDropShadow dx="0" dy="2" stdDeviation="3" flood-opacity="0.1" />
    </filter>
    <linearGradient id="fillGrad" x1="0" y1="0" x2="0" y2="1">
      <stop offset="0%" stop-color="#0366d6" stop-opacity="0.3"/>
      <stop offset="100%" stop-color="#0366d6" stop-opacity="0.02"/>
    </linearGradient>
  </defs>
  <rect width="600" height="150" rx="12" fill="#ffffff" filter="url(#shadow2)" stroke="#e1e4e8" stroke-width="1"/>
  <text x="20" y="24" fill="#2b3137" font-family="-apple-system,BlinkMacSystemFont,'Segoe UI',Helvetica,Arial,sans-serif" font-size="14" font-weight="600">📈 Download Growth (Actual: 72.6k)</text>
  
  <!-- Area sotto la linea -->
  <polygon fill="url(#fillGrad)" points="30.0,120.0,120 30.0,120.0 35.7,118.2 41.5,116.3 47.2,114.7 53.0,114.2 58.7,113.3 64.5,111.3 70.2,109.9 76.0,109.0 81.7,106.9 87.4,105.9 93.2,104.8 98.9,104.2 104.7,103.2 110.4,101.8 116.2,100.3 121.9,99.2 127.7,98.4 133.4,97.8 139.1,96.9 144.9,95.8 150.6,94.8 156.4,94.3 162.1,93.4 167.9,90.1 173.6,89.1 179.4,87.8 185.1,86.5 190.9,85.3 196.6,84.2 202.3,83.5 208.1,82.9 213.8,82.0 219.6,80.4 225.3,79.0 231.1,78.1 236.8,77.0 242.6,76.6 248.3,76.4 254.0,75.8 259.8,74.7 265.5,74.1 271.3,73.6 277.0,72.4 282.8,70.6 288.5,70.2 294.3,69.9 300.0,69.2 305.7,67.8 311.5,66.8 317.2,65.4 323.0,64.3 328.7,63.0 334.5,62.7 340.2,62.0 346.0,60.6 351.7,59.3 357.4,58.3 363.2,57.8 368.9,57.1 374.7,56.5 380.4,55.1 386.2,53.7 391.9,52.4 397.7,51.2 403.4,50.6 409.1,50.2 414.9,49.7 420.6,48.7 426.4,48.0 432.1,47.4 437.9,46.9 443.6,46.5 449.4,45.7 455.1,45.3 460.9,45.0 466.6,44.6 472.3,43.3 478.1,42.5 483.8,42.3 489.6,41.8 495.3,41.5 501.1,41.5 506.8,63.9 512.6,61.7 518.3,59.8 524.0,57.7 529.8,51.6 535.5,47.3 541.3,42.7 547.0,41.0 552.8,39.1 558.5,35.9 564.3,32.5 570.0,30.0 570.0,30.0,120" />
  
  <!-- Linea principale -->
  <polyline fill="none" stroke="#0366d6" stroke-width="2.5" stroke-linecap="round" stroke-linejoin="round" points="30.0,120.0 35.7,118.2 41.5,116.3 47.2,114.7 53.0,114.2 58.7,113.3 64.5,111.3 70.2,109.9 76.0,109.0 81.7,106.9 87.4,105.9 93.2,104.8 98.9,104.2 104.7,103.2 110.4,101.8 116.2,100.3 121.9,99.2 127.7,98.4 133.4,97.8 139.1,96.9 144.9,95.8 150.6,94.8 156.4,94.3 162.1,93.4 167.9,90.1 173.6,89.1 179.4,87.8 185.1,86.5 190.9,85.3 196.6,84.2 202.3,83.5 208.1,82.9 213.8,82.0 219.6,80.4 225.3,79.0 231.1,78.1 236.8,77.0 242.6,76.6 248.3,76.4 254.0,75.8 259.8,74.7 265.5,74.1 271.3,73.6 277.0,72.4 282.8,70.6 288.5,70.2 294.3,69.9 300.0,69.2 305.7,67.8 311.5,66.8 317.2,65.4 323.0,64.3 328.7,63.0 334.5,62.7 340.2,62.0 346.0,60.6 351.7,59.3 357.4,58.3 363.2,57.8 368.9,57.1 374.7,56.5 380.4,55.1 386.2,53.7 391.9,52.4 397.7,51.2 403.4,50.6 409.1,50.2 414.9,49.7 420.6,48.7 426.4,48.0 432.1,47.4 437.9,46.9 443.6,46.5 449.4,45.7 455.1,45.3 460.9,45.0 466.6,44.6 472.3,43.3 478.1,42.5 483.8,42.3 489.6,41.8 495.3,41.5 501.1,41.5 506.8,63.9 512.6,61.7 518.3,59.8 524.0,57.7 529.8,51.6 535.5,47.3 541.3,42.7 547.0,41.0 552.8,39.1 558.5,35.9 564.3,32.5 570.0,30.0" />
  
  <!-- Punto finale luminoso -->
  <circle cx="570.0" cy="30.0" r="4" fill="#ffffff" stroke="#0366d6" stroke-width="2.5" />
</svg>