<svg width="600" height="150" viewBox="0 0 600 150" xmlns="http://www.w3.org/2000/svg">
  <defs>
    <filter id="shadow2" x="-2%" y="-2%" width="104%" height="108%">
      <feDropShadow dx="0" dy="2" stdDeviation="3" flood-opacity="0.1" />
    </filter>
    <linearGradient id="fillGrad" x1="0" y1="0" x2="0" y2="1">
      <stop offset="0%" stop-color="#0366d6" stop-opacity="0.3"/>
      <stop offset="100%" stop-color="#0366d6" stop-opacity="0.02"/>
    </linearGradient>
  </defs>
  <rect width="600" height="150" rx="12" fill="#ffffff" filter="url(#shadow2)" stroke="#e1e4e8" stroke-width="1"/>
  <text x="20" y="24" fill="#2b3137" font-family="-apple-system,BlinkMacSystemFont,'Segoe UI',Helvetica,Arial,sans-serif" font-size="14" font-weight="600">📈 Download Growth (Actual: 75.6k)</text>
  
  <!-- Area sotto la linea -->
  <polygon fill="url(#fillGrad)" points="30.0,120.0,120 30.0,120.0 33.7,118.8 37.4,117.6 41.2,116.5 44.9,116.2 48.6,115.6 52.3,114.3 56.1,113.4 59.8,112.8 63.5,111.4 67.2,110.7 71.0,110.0 74.7,109.6 78.4,109.0 82.1,108.1 85.9,107.1 89.6,106.3 93.3,105.8 97.0,105.5 100.8,104.8 104.5,104.1 108.2,103.5 111.9,103.2 115.7,102.5 119.4,100.4 123.1,99.7 126.8,98.9 130.6,98.0 134.3,97.3 138.0,96.5 141.7,96.1 145.4,95.7 149.2,95.1 152.9,94.0 156.6,93.1 160.3,92.5 164.1,91.8 167.8,91.6 171.5,91.4 175.2,91.0 179.0,90.3 182.7,89.9 186.4,89.6 190.1,88.8 193.9,87.6 197.6,87.4 201.3,87.2 205.0,86.7 208.8,85.8 212.5,85.1 216.2,84.2 219.9,83.5 223.7,82.6 227.4,82.5 231.1,82.0 234.8,81.1 238.6,80.2 242.3,79.5 246.0,79.2 249.7,78.8 253.4,78.4 257.2,77.4 260.9,76.5 264.6,75.7 268.3,74.9 272.1,74.5 275.8,74.3 279.5,73.9 283.2,73.2 287.0,72.8 290.7,72.4 294.4,72.1 298.1,71.8 301.9,71.3 305.6,71.0 309.3,70.8 313.0,70.6 316.8,69.7 320.5,69.2 324.2,69.0 327.9,68.7 331.7,68.6 335.4,68.6 339.1,83.3 342.8,81.8 346.6,80.5 350.3,79.2 354.0,75.1 357.7,72.3 361.4,69.3 365.2,68.2 368.9,67.0 372.6,64.9 376.3,62.7 380.1,61.0 383.8,60.4 387.5,59.8 391.2,58.2 395.0,57.0 398.7,56.3 402.4,55.3 406.1,54.9 409.9,54.8 413.6,53.9 417.3,52.5 421.0,51.6 424.8,50.6 428.5,49.5 432.2,48.9 435.9,48.5 439.7,47.6 443.4,46.7 447.1,45.9 450.8,45.3 454.6,45.0 458.3,44.8 462.0,44.3 465.7,43.5 469.4,43.0 473.2,42.5 476.9,42.1 480.6,41.6 484.3,41.2 488.1,40.8 491.8,40.5 495.5,40.1 499.2,39.4 503.0,38.8 506.7,38.1 510.4,37.8 514.1,37.3 517.9,37.0 521.6,36.7 525.3,36.3 529.0,35.3 532.8,34.6 536.5,33.7 540.2,33.3 543.9,33.2 547.7,32.8 551.4,32.4 555.1,31.8 558.8,31.3 562.6,30.6 566.3,30.2 570.0,30.0 570.0,30.0,120" />
  
  <!-- Linea principale -->
  <polyline fill="none" stroke="#0366d6" stroke-width="2.5" stroke-linecap="round" stroke-linejoin="round" points="30.0,120.0 33.7,118.8 37.4,117.6 41.2,116.5 44.9,116.2 48.6,115.6 52.3,114.3 56.1,113.4 59.8,112.8 63.5,111.4 67.2,110.7 71.0,110.0 74.7,109.6 78.4,109.0 82.1,108.1 85.9,107.1 89.6,106.3 93.3,105.8 97.0,105.5 100.8,104.8 104.5,104.1 108.2,103.5 111.9,103.2 115.7,102.5 119.4,100.4 123.1,99.7 126.8,98.9 130.6,98.0 134.3,97.3 138.0,96.5 141.7,96.1 145.4,95.7 149.2,95.1 152.9,94.0 156.6,93.1 160.3,92.5 164.1,91.8 167.8,91.6 171.5,91.4 175.2,91.0 179.0,90.3 182.7,89.9 186.4,89.6 190.1,88.8 193.9,87.6 197.6,87.4 201.3,87.2 205.0,86.7 208.8,85.8 212.5,85.1 216.2,84.2 219.9,83.5 223.7,82.6 227.4,82.5 231.1,82.0 234.8,81.1 238.6,80.2 242.3,79.5 246.0,79.2 249.7,78.8 253.4,78.4 257.2,77.4 260.9,76.5 264.6,75.7 268.3,74.9 272.1,74.5 275.8,74.3 279.5,73.9 283.2,73.2 287.0,72.8 290.7,72.4 294.4,72.1 298.1,71.8 301.9,71.3 305.6,71.0 309.3,70.8 313.0,70.6 316.8,69.7 320.5,69.2 324.2,69.0 327.9,68.7 331.7,68.6 335.4,68.6 339.1,83.3 342.8,81.8 346.6,80.5 350.3,79.2 354.0,75.1 357.7,72.3 361.4,69.3 365.2,68.2 368.9,67.0 372.6,64.9 376.3,62.7 380.1,61.0 383.8,60.4 387.5,59.8 391.2,58.2 395.0,57.0 398.7,56.3 402.4,55.3 406.1,54.9 409.9,54.8 413.6,53.9 417.3,52.5 421.0,51.6 424.8,50.6 428.5,49.5 432.2,48.9 435.9,48.5 439.7,47.6 443.4,46.7 447.1,45.9 450.8,45.3 454.6,45.0 458.3,44.8 462.0,44.3 465.7,43.5 469.4,43.0 473.2,42.5 476.9,42.1 480.6,41.6 484.3,41.2 488.1,40.8 491.8,40.5 495.5,40.1 499.2,39.4 503.0,38.8 506.7,38.1 510.4,37.8 514.1,37.3 517.9,37.0 521.6,36.7 525.3,36.3 529.0,35.3 532.8,34.6 536.5,33.7 540.2,33.3 543.9,33.2 547.7,32.8 551.4,32.4 555.1,31.8 558.8,31.3 562.6,30.6 566.3,30.2 570.0,30.0" />
  
  <!-- Punto finale luminoso -->
  <circle cx="570.0" cy="30.0" r="4" fill="#ffffff" stroke="#0366d6" stroke-width="2.5" />
</svg>