<svg width="600" height="150" viewBox="0 0 600 150" xmlns="http://www.w3.org/2000/svg">
  <defs>
    <filter id="shadow2" x="-2%" y="-2%" width="104%" height="108%">
      <feDropShadow dx="0" dy="2" stdDeviation="3" flood-opacity="0.1" />
    </filter>
    <linearGradient id="fillGrad" x1="0" y1="0" x2="0" y2="1">
      <stop offset="0%" stop-color="#0366d6" stop-opacity="0.3"/>
      <stop offset="100%" stop-color="#0366d6" stop-opacity="0.02"/>
    </linearGradient>
  </defs>
  <rect width="600" height="150" rx="12" fill="#ffffff" filter="url(#shadow2)" stroke="#e1e4e8" stroke-width="1"/>
  <text x="20" y="24" fill="#2b3137" font-family="-apple-system,BlinkMacSystemFont,'Segoe UI',Helvetica,Arial,sans-serif" font-size="14" font-weight="600">📈 Download Growth (Actual: 86.6k)</text>
  
  <!-- Area sotto la linea -->
  <polygon fill="url(#fillGrad)" points="30.0,120.0,120 30.0,120.0 31.4,119.5 32.8,118.9 34.2,118.4 35.6,118.3 37.0,118.1 38.4,117.5 39.7,117.1 41.1,116.8 42.5,116.2 43.9,115.9 45.3,115.6 46.7,115.4 48.1,115.1 49.5,114.7 50.9,114.3 52.3,113.9 53.7,113.7 55.1,113.5 56.4,113.3 57.8,112.9 59.2,112.7 60.6,112.5 62.0,112.3 63.4,111.3 64.8,111.0 66.2,110.6 67.6,110.2 69.0,109.9 70.4,109.6 71.8,109.4 73.1,109.2 74.5,109.0 75.9,108.5 77.3,108.1 78.7,107.8 80.1,107.5 81.5,107.4 82.9,107.3 84.3,107.1 85.7,106.8 87.1,106.6 88.5,106.5 89.8,106.2 91.2,105.6 92.6,105.5 94.0,105.4 95.4,105.2 96.8,104.8 98.2,104.5 99.6,104.1 101.0,103.8 102.4,103.4 103.8,103.3 105.2,103.1 106.5,102.7 107.9,102.3 109.3,102.0 110.7,101.9 112.1,101.7 113.5,101.5 114.9,101.1 116.3,100.7 117.7,100.3 119.1,100.0 120.5,99.8 121.9,99.7 123.2,99.5 124.6,99.2 126.0,99.1 127.4,98.9 128.8,98.7 130.2,98.6 131.6,98.4 133.0,98.3 134.4,98.2 135.8,98.1 137.2,97.7 138.6,97.5 139.9,97.4 141.3,97.2 142.7,97.2 144.1,97.2 145.5,103.7 146.9,103.1 148.3,102.5 149.7,101.9 151.1,100.1 152.5,98.9 153.9,97.5 155.3,97.0 156.6,96.5 158.0,95.5 159.4,94.6 160.8,93.8 162.2,93.5 163.6,93.3 165.0,92.6 166.4,92.0 167.8,91.7 169.2,91.3 170.6,91.1 172.0,91.0 173.4,90.7 174.7,90.1 176.1,89.6 177.5,89.2 178.9,88.7 180.3,88.5 181.7,88.3 183.1,87.9 184.5,87.5 185.9,87.1 187.3,86.8 188.7,86.7 190.1,86.6 191.4,86.4 192.8,86.1 194.2,85.8 195.6,85.6 197.0,85.4 198.4,85.2 199.8,85.0 201.2,84.9 202.6,84.7 204.0,84.5 205.4,84.2 206.8,84.0 208.1,83.7 209.5,83.5 210.9,83.3 212.3,83.2 213.7,83.0 215.1,82.9 216.5,82.4 217.9,82.1 219.3,81.7 220.7,81.5 222.1,81.5 223.5,81.3 224.8,81.1 226.2,80.9 227.6,80.6 229.0,80.3 230.4,80.1 231.8,80.1 233.2,79.9 234.6,79.8 236.0,79.6 237.4,79.5 238.8,79.3 240.2,79.0 241.5,78.9 242.9,78.8 244.3,78.6 245.7,78.6 247.1,78.3 248.5,78.1 249.9,77.9 251.3,77.7 252.7,77.5 254.1,77.3 255.5,77.2 256.9,77.1 258.2,76.8 259.6,76.5 261.0,76.3 262.4,76.1 263.8,75.8 265.2,75.7 266.6,75.6 268.0,75.5 269.4,75.3 270.8,75.1 272.2,74.9 273.6,74.8 274.9,74.6 276.3,74.5 277.7,74.3 279.1,74.2 280.5,74.1 281.9,74.0 283.3,73.7 284.7,73.6 286.1,73.4 287.5,73.3 288.9,73.1 290.3,73.0 291.6,72.9 293.0,72.8 294.4,72.6 295.8,72.3 297.2,72.0 298.6,71.8 300.0,71.7 301.4,71.6 302.8,71.5 304.2,71.3 305.6,71.1 307.0,71.0 308.4,70.9 309.7,70.7 311.1,70.5 312.5,70.3 313.9,70.2 315.3,70.1 316.7,69.9 318.1,69.7 319.5,69.5 320.9,69.3 322.3,69.2 323.7,69.1 325.1,69.1 326.4,68.9 327.8,68.8 329.2,68.6 330.6,68.5 332.0,68.3 333.4,68.2 334.8,68.1 336.2,67.9 337.6,67.8 339.0,67.6 340.4,67.4 341.8,67.2 343.1,67.0 344.5,66.9 345.9,66.8 347.3,66.7 348.7,66.6 350.1,66.5 351.5,66.4 352.9,66.2 354.3,66.0 355.7,65.9 357.1,65.8 358.5,65.7 359.8,65.5 361.2,65.3 362.6,65.2 364.0,65.1 365.4,65.0 366.8,64.8 368.2,64.7 369.6,64.5 371.0,64.4 372.4,64.3 373.8,64.2 375.2,64.1 376.5,64.0 377.9,63.8 379.3,63.8 380.7,63.7 382.1,63.4 383.5,63.2 384.9,67.4 386.3,66.6 387.7,65.0 389.1,64.4 390.5,63.6 391.9,62.7 393.2,62.2 394.6,61.9 396.0,61.2 397.4,60.3 398.8,59.6 400.2,59.4 401.6,59.1 403.0,58.8 404.4,58.3 405.8,57.8 407.2,57.3 408.6,57.1 409.9,56.6 411.3,56.4 412.7,56.0 414.1,55.8 415.5,55.6 416.9,55.4 418.3,54.9 419.7,54.6 421.1,54.2 422.5,53.6 423.9,53.2 425.3,53.0 426.6,52.9 428.0,52.6 429.4,52.3 430.8,51.9 432.2,51.6 433.6,50.8 435.0,50.1 436.4,49.8 437.8,49.6 439.2,49.3 440.6,48.9 442.0,48.5 443.4,48.2 444.7,47.9 446.1,47.6 447.5,47.3 448.9,47.0 450.3,46.6 451.7,46.4 453.1,46.2 454.5,46.0 455.9,45.6 457.3,45.4 458.7,45.1 460.1,45.0 461.4,44.8 462.8,44.6 464.2,44.4 465.6,44.2 467.0,44.0 468.4,43.9 469.8,43.7 471.2,43.4 472.6,43.2 474.0,42.9 475.4,42.5 476.8,42.3 478.1,42.1 479.5,41.9 480.9,41.8 482.3,41.6 483.7,41.4 485.1,41.3 486.5,41.2 487.9,41.0 489.3,40.8 490.7,40.7 492.1,40.4 493.5,40.3 494.8,40.1 496.2,39.9 497.6,39.5 499.0,39.2 500.4,39.0 501.8,38.8 503.2,38.6 504.6,38.3 506.0,38.1 507.4,37.9 508.8,37.7 510.2,37.6 511.5,37.4 512.9,37.2 514.3,37.0 515.7,36.8 517.1,36.7 518.5,36.5 519.9,36.2 521.3,36.1 522.7,35.8 524.1,35.6 525.5,35.3 526.9,35.1 528.2,34.9 529.6,34.8 531.0,34.6 532.4,34.5 533.8,34.3 535.2,34.1 536.6,33.8 538.0,33.7 539.4,33.6 540.8,33.4 542.2,33.2 543.6,33.1 544.9,32.9 546.3,32.8 547.7,32.7 549.1,32.5 550.5,32.4 551.9,32.2 553.3,32.0 554.7,31.9 556.1,31.8 557.5,31.5 558.9,31.3 560.3,31.2 561.6,31.1 563.0,30.9 564.4,30.7 565.8,30.5 567.2,30.2 568.6,30.1 570.0,30.0 570.0,30.0,120" />
  
  <!-- Linea principale -->
  <polyline fill="none" stroke="#0366d6" stroke-width="2.5" stroke-linecap="round" stroke-linejoin="round" points="30.0,120.0 31.4,119.5 32.8,118.9 34.2,118.4 35.6,118.3 37.0,118.1 38.4,117.5 39.7,117.1 41.1,116.8 42.5,116.2 43.9,115.9 45.3,115.6 46.7,115.4 48.1,115.1 49.5,114.7 50.9,114.3 52.3,113.9 53.7,113.7 55.1,113.5 56.4,113.3 57.8,112.9 59.2,112.7 60.6,112.5 62.0,112.3 63.4,111.3 64.8,111.0 66.2,110.6 67.6,110.2 69.0,109.9 70.4,109.6 71.8,109.4 73.1,109.2 74.5,109.0 75.9,108.5 77.3,108.1 78.7,107.8 80.1,107.5 81.5,107.4 82.9,107.3 84.3,107.1 85.7,106.8 87.1,106.6 88.5,106.5 89.8,106.2 91.2,105.6 92.6,105.5 94.0,105.4 95.4,105.2 96.8,104.8 98.2,104.5 99.6,104.1 101.0,103.8 102.4,103.4 103.8,103.3 105.2,103.1 106.5,102.7 107.9,102.3 109.3,102.0 110.7,101.9 112.1,101.7 113.5,101.5 114.9,101.1 116.3,100.7 117.7,100.3 119.1,100.0 120.5,99.8 121.9,99.7 123.2,99.5 124.6,99.2 126.0,99.1 127.4,98.9 128.8,98.7 130.2,98.6 131.6,98.4 133.0,98.3 134.4,98.2 135.8,98.1 137.2,97.7 138.6,97.5 139.9,97.4 141.3,97.2 142.7,97.2 144.1,97.2 145.5,103.7 146.9,103.1 148.3,102.5 149.7,101.9 151.1,100.1 152.5,98.9 153.9,97.5 155.3,97.0 156.6,96.5 158.0,95.5 159.4,94.6 160.8,93.8 162.2,93.5 163.6,93.3 165.0,92.6 166.4,92.0 167.8,91.7 169.2,91.3 170.6,91.1 172.0,91.0 173.4,90.7 174.7,90.1 176.1,89.6 177.5,89.2 178.9,88.7 180.3,88.5 181.7,88.3 183.1,87.9 184.5,87.5 185.9,87.1 187.3,86.8 188.7,86.7 190.1,86.6 191.4,86.4 192.8,86.1 194.2,85.8 195.6,85.6 197.0,85.4 198.4,85.2 199.8,85.0 201.2,84.9 202.6,84.7 204.0,84.5 205.4,84.2 206.8,84.0 208.1,83.7 209.5,83.5 210.9,83.3 212.3,83.2 213.7,83.0 215.1,82.9 216.5,82.4 217.9,82.1 219.3,81.7 220.7,81.5 222.1,81.5 223.5,81.3 224.8,81.1 226.2,80.9 227.6,80.6 229.0,80.3 230.4,80.1 231.8,80.1 233.2,79.9 234.6,79.8 236.0,79.6 237.4,79.5 238.8,79.3 240.2,79.0 241.5,78.9 242.9,78.8 244.3,78.6 245.7,78.6 247.1,78.3 248.5,78.1 249.9,77.9 251.3,77.7 252.7,77.5 254.1,77.3 255.5,77.2 256.9,77.1 258.2,76.8 259.6,76.5 261.0,76.3 262.4,76.1 263.8,75.8 265.2,75.7 266.6,75.6 268.0,75.5 269.4,75.3 270.8,75.1 272.2,74.9 273.6,74.8 274.9,74.6 276.3,74.5 277.7,74.3 279.1,74.2 280.5,74.1 281.9,74.0 283.3,73.7 284.7,73.6 286.1,73.4 287.5,73.3 288.9,73.1 290.3,73.0 291.6,72.9 293.0,72.8 294.4,72.6 295.8,72.3 297.2,72.0 298.6,71.8 300.0,71.7 301.4,71.6 302.8,71.5 304.2,71.3 305.6,71.1 307.0,71.0 308.4,70.9 309.7,70.7 311.1,70.5 312.5,70.3 313.9,70.2 315.3,70.1 316.7,69.9 318.1,69.7 319.5,69.5 320.9,69.3 322.3,69.2 323.7,69.1 325.1,69.1 326.4,68.9 327.8,68.8 329.2,68.6 330.6,68.5 332.0,68.3 333.4,68.2 334.8,68.1 336.2,67.9 337.6,67.8 339.0,67.6 340.4,67.4 341.8,67.2 343.1,67.0 344.5,66.9 345.9,66.8 347.3,66.7 348.7,66.6 350.1,66.5 351.5,66.4 352.9,66.2 354.3,66.0 355.7,65.9 357.1,65.8 358.5,65.7 359.8,65.5 361.2,65.3 362.6,65.2 364.0,65.1 365.4,65.0 366.8,64.8 368.2,64.7 369.6,64.5 371.0,64.4 372.4,64.3 373.8,64.2 375.2,64.1 376.5,64.0 377.9,63.8 379.3,63.8 380.7,63.7 382.1,63.4 383.5,63.2 384.9,67.4 386.3,66.6 387.7,65.0 389.1,64.4 390.5,63.6 391.9,62.7 393.2,62.2 394.6,61.9 396.0,61.2 397.4,60.3 398.8,59.6 400.2,59.4 401.6,59.1 403.0,58.8 404.4,58.3 405.8,57.8 407.2,57.3 408.6,57.1 409.9,56.6 411.3,56.4 412.7,56.0 414.1,55.8 415.5,55.6 416.9,55.4 418.3,54.9 419.7,54.6 421.1,54.2 422.5,53.6 423.9,53.2 425.3,53.0 426.6,52.9 428.0,52.6 429.4,52.3 430.8,51.9 432.2,51.6 433.6,50.8 435.0,50.1 436.4,49.8 437.8,49.6 439.2,49.3 440.6,48.9 442.0,48.5 443.4,48.2 444.7,47.9 446.1,47.6 447.5,47.3 448.9,47.0 450.3,46.6 451.7,46.4 453.1,46.2 454.5,46.0 455.9,45.6 457.3,45.4 458.7,45.1 460.1,45.0 461.4,44.8 462.8,44.6 464.2,44.4 465.6,44.2 467.0,44.0 468.4,43.9 469.8,43.7 471.2,43.4 472.6,43.2 474.0,42.9 475.4,42.5 476.8,42.3 478.1,42.1 479.5,41.9 480.9,41.8 482.3,41.6 483.7,41.4 485.1,41.3 486.5,41.2 487.9,41.0 489.3,40.8 490.7,40.7 492.1,40.4 493.5,40.3 494.8,40.1 496.2,39.9 497.6,39.5 499.0,39.2 500.4,39.0 501.8,38.8 503.2,38.6 504.6,38.3 506.0,38.1 507.4,37.9 508.8,37.7 510.2,37.6 511.5,37.4 512.9,37.2 514.3,37.0 515.7,36.8 517.1,36.7 518.5,36.5 519.9,36.2 521.3,36.1 522.7,35.8 524.1,35.6 525.5,35.3 526.9,35.1 528.2,34.9 529.6,34.8 531.0,34.6 532.4,34.5 533.8,34.3 535.2,34.1 536.6,33.8 538.0,33.7 539.4,33.6 540.8,33.4 542.2,33.2 543.6,33.1 544.9,32.9 546.3,32.8 547.7,32.7 549.1,32.5 550.5,32.4 551.9,32.2 553.3,32.0 554.7,31.9 556.1,31.8 557.5,31.5 558.9,31.3 560.3,31.2 561.6,31.1 563.0,30.9 564.4,30.7 565.8,30.5 567.2,30.2 568.6,30.1 570.0,30.0" />
  
  <!-- Punto finale luminoso -->
  <circle cx="570.0" cy="30.0" r="4" fill="#ffffff" stroke="#0366d6" stroke-width="2.5" />
</svg>