<svg width="600" height="150" viewBox="0 0 600 150" xmlns="http://www.w3.org/2000/svg">
  <defs>
    <filter id="shadow2" x="-2%" y="-2%" width="104%" height="108%">
      <feDropShadow dx="0" dy="2" stdDeviation="3" flood-opacity="0.1" />
    </filter>
    <linearGradient id="fillGrad" x1="0" y1="0" x2="0" y2="1">
      <stop offset="0%" stop-color="#0366d6" stop-opacity="0.3"/>
      <stop offset="100%" stop-color="#0366d6" stop-opacity="0.02"/>
    </linearGradient>
  </defs>
  <rect width="600" height="150" rx="12" fill="#ffffff" filter="url(#shadow2)" stroke="#e1e4e8" stroke-width="1"/>
  <text x="20" y="24" fill="#2b3137" font-family="-apple-system,BlinkMacSystemFont,'Segoe UI',Helvetica,Arial,sans-serif" font-size="14" font-weight="600">📈 Download Growth (Actual: 76.1k)</text>
  
  <!-- Area sotto la linea -->
  <polygon fill="url(#fillGrad)" points="30.0,120.0,120 30.0,120.0 33.4,118.9 36.8,117.7 40.2,116.7 43.6,116.4 47.0,115.9 50.4,114.6 53.8,113.8 57.2,113.2 60.6,111.9 64.0,111.3 67.4,110.6 70.8,110.2 74.2,109.6 77.5,108.8 80.9,107.8 84.3,107.1 87.7,106.6 91.1,106.3 94.5,105.7 97.9,105.0 101.3,104.4 104.7,104.1 108.1,103.5 111.5,101.5 114.9,100.9 118.3,100.1 121.7,99.2 125.1,98.5 128.5,97.9 131.9,97.4 135.3,97.1 138.7,96.5 142.1,95.5 145.5,94.6 148.9,94.1 152.3,93.4 155.7,93.2 159.1,93.0 162.5,92.6 165.8,92.0 169.2,91.6 172.6,91.3 176.0,90.6 179.4,89.5 182.8,89.2 186.2,89.0 189.6,88.6 193.0,87.7 196.4,87.1 199.8,86.2 203.2,85.5 206.6,84.7 210.0,84.6 213.4,84.1 216.8,83.3 220.2,82.4 223.6,81.8 227.0,81.5 230.4,81.1 233.8,80.7 237.2,79.8 240.6,79.0 244.0,78.2 247.4,77.4 250.8,77.0 254.2,76.8 257.5,76.5 260.9,75.9 264.3,75.4 267.7,75.1 271.1,74.8 274.5,74.5 277.9,74.0 281.3,73.8 284.7,73.6 288.1,73.3 291.5,72.5 294.9,72.0 298.3,71.9 301.7,71.6 305.1,71.4 308.5,71.4 311.9,85.3 315.3,84.0 318.7,82.7 322.1,81.4 325.5,77.7 328.9,75.0 332.3,72.2 335.7,71.1 339.1,69.9 342.5,68.0 345.8,65.9 349.2,64.3 352.6,63.7 356.0,63.2 359.4,61.6 362.8,60.5 366.2,59.8 369.6,58.9 373.0,58.6 376.4,58.4 379.8,57.6 383.2,56.3 386.6,55.4 390.0,54.4 393.4,53.4 396.8,52.9 400.2,52.5 403.6,51.6 407.0,50.8 410.4,50.1 413.8,49.5 417.2,49.2 420.6,49.0 424.0,48.5 427.4,47.8 430.8,47.3 434.2,46.8 437.5,46.4 440.9,46.0 444.3,45.6 447.7,45.3 451.1,44.9 454.5,44.6 457.9,43.9 461.3,43.3 464.7,42.7 468.1,42.3 471.5,41.9 474.9,41.7 478.3,41.3 481.7,41.0 485.1,40.0 488.5,39.3 491.9,38.5 495.3,38.2 498.7,38.1 502.1,37.7 505.5,37.3 508.9,36.7 512.3,36.3 515.7,35.6 519.1,35.2 522.5,35.0 525.8,34.7 529.2,34.4 532.6,34.2 536.0,33.7 539.4,33.4 542.8,32.8 546.2,32.5 549.6,32.3 553.0,32.0 556.4,31.8 559.8,31.3 563.2,30.9 566.6,30.4 570.0,30.0 570.0,30.0,120" />
  
  <!-- Linea principale -->
  <polyline fill="none" stroke="#0366d6" stroke-width="2.5" stroke-linecap="round" stroke-linejoin="round" points="30.0,120.0 33.4,118.9 36.8,117.7 40.2,116.7 43.6,116.4 47.0,115.9 50.4,114.6 53.8,113.8 57.2,113.2 60.6,111.9 64.0,111.3 67.4,110.6 70.8,110.2 74.2,109.6 77.5,108.8 80.9,107.8 84.3,107.1 87.7,106.6 91.1,106.3 94.5,105.7 97.9,105.0 101.3,104.4 104.7,104.1 108.1,103.5 111.5,101.5 114.9,100.9 118.3,100.1 121.7,99.2 125.1,98.5 128.5,97.9 131.9,97.4 135.3,97.1 138.7,96.5 142.1,95.5 145.5,94.6 148.9,94.1 152.3,93.4 155.7,93.2 159.1,93.0 162.5,92.6 165.8,92.0 169.2,91.6 172.6,91.3 176.0,90.6 179.4,89.5 182.8,89.2 186.2,89.0 189.6,88.6 193.0,87.7 196.4,87.1 199.8,86.2 203.2,85.5 206.6,84.7 210.0,84.6 213.4,84.1 216.8,83.3 220.2,82.4 223.6,81.8 227.0,81.5 230.4,81.1 233.8,80.7 237.2,79.8 240.6,79.0 244.0,78.2 247.4,77.4 250.8,77.0 254.2,76.8 257.5,76.5 260.9,75.9 264.3,75.4 267.7,75.1 271.1,74.8 274.5,74.5 277.9,74.0 281.3,73.8 284.7,73.6 288.1,73.3 291.5,72.5 294.9,72.0 298.3,71.9 301.7,71.6 305.1,71.4 308.5,71.4 311.9,85.3 315.3,84.0 318.7,82.7 322.1,81.4 325.5,77.7 328.9,75.0 332.3,72.2 335.7,71.1 339.1,69.9 342.5,68.0 345.8,65.9 349.2,64.3 352.6,63.7 356.0,63.2 359.4,61.6 362.8,60.5 366.2,59.8 369.6,58.9 373.0,58.6 376.4,58.4 379.8,57.6 383.2,56.3 386.6,55.4 390.0,54.4 393.4,53.4 396.8,52.9 400.2,52.5 403.6,51.6 407.0,50.8 410.4,50.1 413.8,49.5 417.2,49.2 420.6,49.0 424.0,48.5 427.4,47.8 430.8,47.3 434.2,46.8 437.5,46.4 440.9,46.0 444.3,45.6 447.7,45.3 451.1,44.9 454.5,44.6 457.9,43.9 461.3,43.3 464.7,42.7 468.1,42.3 471.5,41.9 474.9,41.7 478.3,41.3 481.7,41.0 485.1,40.0 488.5,39.3 491.9,38.5 495.3,38.2 498.7,38.1 502.1,37.7 505.5,37.3 508.9,36.7 512.3,36.3 515.7,35.6 519.1,35.2 522.5,35.0 525.8,34.7 529.2,34.4 532.6,34.2 536.0,33.7 539.4,33.4 542.8,32.8 546.2,32.5 549.6,32.3 553.0,32.0 556.4,31.8 559.8,31.3 563.2,30.9 566.6,30.4 570.0,30.0" />
  
  <!-- Punto finale luminoso -->
  <circle cx="570.0" cy="30.0" r="4" fill="#ffffff" stroke="#0366d6" stroke-width="2.5" />
</svg>