<svg width="600" height="150" viewBox="0 0 600 150" xmlns="http://www.w3.org/2000/svg">
  <defs>
    <filter id="shadow2" x="-2%" y="-2%" width="104%" height="108%">
      <feDropShadow dx="0" dy="2" stdDeviation="3" flood-opacity="0.1" />
    </filter>
    <linearGradient id="fillGrad" x1="0" y1="0" x2="0" y2="1">
      <stop offset="0%" stop-color="#0366d6" stop-opacity="0.3"/>
      <stop offset="100%" stop-color="#0366d6" stop-opacity="0.02"/>
    </linearGradient>
  </defs>
  <rect width="600" height="150" rx="12" fill="#ffffff" filter="url(#shadow2)" stroke="#e1e4e8" stroke-width="1"/>
  <text x="20" y="24" fill="#2b3137" font-family="-apple-system,BlinkMacSystemFont,'Segoe UI',Helvetica,Arial,sans-serif" font-size="14" font-weight="600">📈 Download Growth (Actual: 78.1k)</text>
  
  <!-- Area sotto la linea -->
  <polygon fill="url(#fillGrad)" points="30.0,120.0,120 30.0,120.0 32.5,119.1 35.0,118.1 37.5,117.3 40.0,117.1 42.6,116.6 45.1,115.6 47.6,114.9 50.1,114.4 52.6,113.3 55.1,112.8 57.6,112.3 60.1,111.9 62.7,111.5 65.2,110.7 67.7,110.0 70.2,109.4 72.7,109.0 75.2,108.7 77.7,108.2 80.2,107.7 82.7,107.2 85.3,106.9 87.8,106.4 90.3,104.7 92.8,104.2 95.3,103.6 97.8,102.9 100.3,102.3 102.8,101.8 105.3,101.4 107.9,101.1 110.4,100.6 112.9,99.8 115.4,99.1 117.9,98.6 120.4,98.1 122.9,97.9 125.4,97.8 128.0,97.5 130.5,96.9 133.0,96.6 135.5,96.4 138.0,95.8 140.5,94.9 143.0,94.6 145.5,94.5 148.0,94.1 150.6,93.4 153.1,92.9 155.6,92.2 158.1,91.6 160.6,91.0 163.1,90.8 165.6,90.4 168.1,89.8 170.7,89.1 173.2,88.6 175.7,88.3 178.2,88.0 180.7,87.7 183.2,86.9 185.7,86.2 188.2,85.6 190.7,85.0 193.3,84.6 195.8,84.4 198.3,84.2 200.8,83.7 203.3,83.3 205.8,83.0 208.3,82.8 210.8,82.5 213.3,82.2 215.9,81.9 218.4,81.8 220.9,81.6 223.4,80.9 225.9,80.5 228.4,80.4 230.9,80.2 233.4,80.0 236.0,80.0 238.5,91.4 241.0,90.3 243.5,89.3 246.0,88.2 248.5,85.1 251.0,83.0 253.5,80.6 256.0,79.8 258.6,78.8 261.1,77.2 263.6,75.4 266.1,74.1 268.6,73.7 271.1,73.2 273.6,72.0 276.1,71.0 278.7,70.5 281.2,69.7 283.7,69.4 286.2,69.3 288.7,68.6 291.2,67.6 293.7,66.8 296.2,66.0 298.7,65.2 301.3,64.8 303.8,64.5 306.3,63.7 308.8,63.1 311.3,62.4 313.8,61.9 316.3,61.7 318.8,61.5 321.3,61.1 323.9,60.6 326.4,60.2 328.9,59.7 331.4,59.4 333.9,59.1 336.4,58.8 338.9,58.5 341.4,58.2 344.0,57.9 346.5,57.3 349.0,56.9 351.5,56.4 354.0,56.1 356.5,55.7 359.0,55.5 361.5,55.2 364.0,55.0 366.6,54.1 369.1,53.6 371.6,52.9 374.1,52.6 376.6,52.6 379.1,52.2 381.6,51.9 384.1,51.4 386.7,51.0 389.2,50.5 391.7,50.2 394.2,50.0 396.7,49.8 399.2,49.6 401.7,49.3 404.2,49.0 406.7,48.7 409.3,48.2 411.8,48.0 414.3,47.8 416.8,47.6 419.3,47.4 421.8,47.0 424.3,46.6 426.8,46.2 429.3,45.9 431.9,45.5 434.4,45.3 436.9,45.1 439.4,44.9 441.9,44.4 444.4,43.9 446.9,43.5 449.4,43.2 452.0,42.5 454.5,42.4 457.0,42.2 459.5,42.0 462.0,41.7 464.5,41.4 467.0,41.1 469.5,40.8 472.0,40.5 474.6,40.3 477.1,40.0 479.6,39.8 482.1,39.7 484.6,39.4 487.1,38.9 489.6,38.7 492.1,38.3 494.7,38.2 497.2,37.9 499.7,37.7 502.2,37.5 504.7,37.3 507.2,37.0 509.7,36.5 512.2,36.0 514.7,35.6 517.3,35.3 519.8,35.2 522.3,35.1 524.8,34.8 527.3,34.3 529.8,34.1 532.3,33.9 534.8,33.6 537.3,33.3 539.9,33.0 542.4,32.8 544.9,32.6 547.4,32.2 549.9,31.9 552.4,31.5 554.9,31.2 557.4,31.0 560.0,30.9 562.5,30.8 565.0,30.5 567.5,30.3 570.0,30.0 570.0,30.0,120" />
  
  <!-- Linea principale -->
  <polyline fill="none" stroke="#0366d6" stroke-width="2.5" stroke-linecap="round" stroke-linejoin="round" points="30.0,120.0 32.5,119.1 35.0,118.1 37.5,117.3 40.0,117.1 42.6,116.6 45.1,115.6 47.6,114.9 50.1,114.4 52.6,113.3 55.1,112.8 57.6,112.3 60.1,111.9 62.7,111.5 65.2,110.7 67.7,110.0 70.2,109.4 72.7,109.0 75.2,108.7 77.7,108.2 80.2,107.7 82.7,107.2 85.3,106.9 87.8,106.4 90.3,104.7 92.8,104.2 95.3,103.6 97.8,102.9 100.3,102.3 102.8,101.8 105.3,101.4 107.9,101.1 110.4,100.6 112.9,99.8 115.4,99.1 117.9,98.6 120.4,98.1 122.9,97.9 125.4,97.8 128.0,97.5 130.5,96.9 133.0,96.6 135.5,96.4 138.0,95.8 140.5,94.9 143.0,94.6 145.5,94.5 148.0,94.1 150.6,93.4 153.1,92.9 155.6,92.2 158.1,91.6 160.6,91.0 163.1,90.8 165.6,90.4 168.1,89.8 170.7,89.1 173.2,88.6 175.7,88.3 178.2,88.0 180.7,87.7 183.2,86.9 185.7,86.2 188.2,85.6 190.7,85.0 193.3,84.6 195.8,84.4 198.3,84.2 200.8,83.7 203.3,83.3 205.8,83.0 208.3,82.8 210.8,82.5 213.3,82.2 215.9,81.9 218.4,81.8 220.9,81.6 223.4,80.9 225.9,80.5 228.4,80.4 230.9,80.2 233.4,80.0 236.0,80.0 238.5,91.4 241.0,90.3 243.5,89.3 246.0,88.2 248.5,85.1 251.0,83.0 253.5,80.6 256.0,79.8 258.6,78.8 261.1,77.2 263.6,75.4 266.1,74.1 268.6,73.7 271.1,73.2 273.6,72.0 276.1,71.0 278.7,70.5 281.2,69.7 283.7,69.4 286.2,69.3 288.7,68.6 291.2,67.6 293.7,66.8 296.2,66.0 298.7,65.2 301.3,64.8 303.8,64.5 306.3,63.7 308.8,63.1 311.3,62.4 313.8,61.9 316.3,61.7 318.8,61.5 321.3,61.1 323.9,60.6 326.4,60.2 328.9,59.7 331.4,59.4 333.9,59.1 336.4,58.8 338.9,58.5 341.4,58.2 344.0,57.9 346.5,57.3 349.0,56.9 351.5,56.4 354.0,56.1 356.5,55.7 359.0,55.5 361.5,55.2 364.0,55.0 366.6,54.1 369.1,53.6 371.6,52.9 374.1,52.6 376.6,52.6 379.1,52.2 381.6,51.9 384.1,51.4 386.7,51.0 389.2,50.5 391.7,50.2 394.2,50.0 396.7,49.8 399.2,49.6 401.7,49.3 404.2,49.0 406.7,48.7 409.3,48.2 411.8,48.0 414.3,47.8 416.8,47.6 419.3,47.4 421.8,47.0 424.3,46.6 426.8,46.2 429.3,45.9 431.9,45.5 434.4,45.3 436.9,45.1 439.4,44.9 441.9,44.4 444.4,43.9 446.9,43.5 449.4,43.2 452.0,42.5 454.5,42.4 457.0,42.2 459.5,42.0 462.0,41.7 464.5,41.4 467.0,41.1 469.5,40.8 472.0,40.5 474.6,40.3 477.1,40.0 479.6,39.8 482.1,39.7 484.6,39.4 487.1,38.9 489.6,38.7 492.1,38.3 494.7,38.2 497.2,37.9 499.7,37.7 502.2,37.5 504.7,37.3 507.2,37.0 509.7,36.5 512.2,36.0 514.7,35.6 517.3,35.3 519.8,35.2 522.3,35.1 524.8,34.8 527.3,34.3 529.8,34.1 532.3,33.9 534.8,33.6 537.3,33.3 539.9,33.0 542.4,32.8 544.9,32.6 547.4,32.2 549.9,31.9 552.4,31.5 554.9,31.2 557.4,31.0 560.0,30.9 562.5,30.8 565.0,30.5 567.5,30.3 570.0,30.0" />
  
  <!-- Punto finale luminoso -->
  <circle cx="570.0" cy="30.0" r="4" fill="#ffffff" stroke="#0366d6" stroke-width="2.5" />
</svg>