<svg width="600" height="150" viewBox="0 0 600 150" xmlns="http://www.w3.org/2000/svg">
  <defs>
    <filter id="shadow2" x="-2%" y="-2%" width="104%" height="108%">
      <feDropShadow dx="0" dy="2" stdDeviation="3" flood-opacity="0.1" />
    </filter>
    <linearGradient id="fillGrad" x1="0" y1="0" x2="0" y2="1">
      <stop offset="0%" stop-color="#0366d6" stop-opacity="0.3"/>
      <stop offset="100%" stop-color="#0366d6" stop-opacity="0.02"/>
    </linearGradient>
  </defs>
  <rect width="600" height="150" rx="12" fill="#ffffff" filter="url(#shadow2)" stroke="#e1e4e8" stroke-width="1"/>
  <text x="20" y="24" fill="#2b3137" font-family="-apple-system,BlinkMacSystemFont,'Segoe UI',Helvetica,Arial,sans-serif" font-size="14" font-weight="600">📈 Download Growth (Actual: 69.0k)</text>
  
  <!-- Area sotto la linea -->
  <polygon fill="url(#fillGrad)" points="30.0,120.0,120 30.0,120.0 50.0,115.3 70.0,110.1 90.0,105.7 110.0,104.5 130.0,102.1 150.0,96.6 170.0,93.0 190.0,90.5 210.0,84.9 230.0,82.1 250.0,79.2 270.0,77.6 290.0,75.0 310.0,71.2 330.0,67.2 350.0,64.1 370.0,62.0 390.0,60.5 410.0,57.9 430.0,55.0 450.0,52.3 470.0,51.1 490.0,48.5 510.0,39.7 530.0,37.0 550.0,33.5 570.0,30.0 570.0,30.0,120" />
  
  <!-- Linea principale -->
  <polyline fill="none" stroke="#0366d6" stroke-width="2.5" stroke-linecap="round" stroke-linejoin="round" points="30.0,120.0 50.0,115.3 70.0,110.1 90.0,105.7 110.0,104.5 130.0,102.1 150.0,96.6 170.0,93.0 190.0,90.5 210.0,84.9 230.0,82.1 250.0,79.2 270.0,77.6 290.0,75.0 310.0,71.2 330.0,67.2 350.0,64.1 370.0,62.0 390.0,60.5 410.0,57.9 430.0,55.0 450.0,52.3 470.0,51.1 490.0,48.5 510.0,39.7 530.0,37.0 550.0,33.5 570.0,30.0" />
  
  <!-- Punto finale luminoso -->
  <circle cx="570.0" cy="30.0" r="4" fill="#ffffff" stroke="#0366d6" stroke-width="2.5" />
</svg>