<svg width="600" height="150" viewBox="0 0 600 150" xmlns="http://www.w3.org/2000/svg">
  <defs>
    <filter id="shadow2" x="-2%" y="-2%" width="104%" height="108%">
      <feDropShadow dx="0" dy="2" stdDeviation="3" flood-opacity="0.1" />
    </filter>
    <linearGradient id="fillGrad" x1="0" y1="0" x2="0" y2="1">
      <stop offset="0%" stop-color="#0366d6" stop-opacity="0.3"/>
      <stop offset="100%" stop-color="#0366d6" stop-opacity="0.02"/>
    </linearGradient>
  </defs>
  <rect width="600" height="150" rx="12" fill="#ffffff" filter="url(#shadow2)" stroke="#e1e4e8" stroke-width="1"/>
  <text x="20" y="24" fill="#2b3137" font-family="-apple-system,BlinkMacSystemFont,'Segoe UI',Helvetica,Arial,sans-serif" font-size="14" font-weight="600">📈 Download Growth (Actual: 82.0k)</text>
  
  <!-- Area sotto la linea -->
  <polygon fill="url(#fillGrad)" points="30.0,120.0,120 30.0,120.0 31.9,119.3 33.7,118.6 35.6,118.0 37.4,117.8 39.3,117.5 41.2,116.7 43.0,116.2 44.9,115.8 46.8,115.1 48.6,114.7 50.5,114.3 52.3,114.0 54.2,113.7 56.1,113.1 57.9,112.6 59.8,112.1 61.7,111.8 63.5,111.6 65.4,111.3 67.2,110.8 69.1,110.5 71.0,110.3 72.8,109.9 74.7,108.7 76.6,108.3 78.4,107.8 80.3,107.3 82.1,106.9 84.0,106.5 85.9,106.2 87.7,106.0 89.6,105.6 91.4,105.0 93.3,104.5 95.2,104.1 97.0,103.7 98.9,103.6 100.8,103.5 102.6,103.3 104.5,102.9 106.3,102.6 108.2,102.5 110.1,102.0 111.9,101.3 113.8,101.2 115.7,101.1 117.5,100.8 119.4,100.2 121.2,99.9 123.1,99.3 125.0,98.9 126.8,98.4 128.7,98.3 130.6,98.1 132.4,97.6 134.3,97.0 136.1,96.7 138.0,96.5 139.9,96.2 141.7,96.0 143.6,95.4 145.4,94.9 147.3,94.5 149.2,94.0 151.0,93.8 152.9,93.6 154.8,93.4 156.6,93.0 158.5,92.8 160.3,92.6 162.2,92.4 164.1,92.2 165.9,91.9 167.8,91.7 169.7,91.6 171.5,91.5 173.4,91.0 175.2,90.7 177.1,90.6 179.0,90.4 180.8,90.3 182.7,90.3 184.6,98.8 186.4,98.0 188.3,97.2 190.1,96.4 192.0,94.1 193.9,92.5 195.7,90.8 197.6,90.1 199.4,89.4 201.3,88.2 203.2,86.9 205.0,86.0 206.9,85.6 208.8,85.3 210.6,84.3 212.5,83.7 214.3,83.2 216.2,82.7 218.1,82.5 219.9,82.4 221.8,81.9 223.7,81.1 225.5,80.5 227.4,79.9 229.2,79.3 231.1,79.0 233.0,78.8 234.8,78.2 236.7,77.7 238.6,77.3 240.4,76.9 242.3,76.7 244.1,76.6 246.0,76.3 247.9,75.9 249.7,75.6 251.6,75.3 253.4,75.0 255.3,74.8 257.2,74.6 259.0,74.3 260.9,74.1 262.8,73.9 264.6,73.5 266.5,73.1 268.3,72.8 270.2,72.5 272.1,72.3 273.9,72.1 275.8,71.9 277.7,71.7 279.5,71.1 281.4,70.7 283.2,70.2 285.1,70.0 287.0,69.9 288.8,69.7 290.7,69.4 292.6,69.1 294.4,68.8 296.3,68.4 298.1,68.2 300.0,68.1 301.9,67.9 303.7,67.7 305.6,67.5 307.4,67.3 309.3,67.1 311.2,66.7 313.0,66.5 314.9,66.4 316.8,66.2 318.6,66.1 320.5,65.8 322.3,65.6 324.2,65.3 326.1,65.0 327.9,64.7 329.8,64.5 331.7,64.4 333.5,64.2 335.4,63.9 337.2,63.5 339.1,63.2 341.0,63.0 342.8,62.5 344.7,62.4 346.6,62.3 348.4,62.1 350.3,61.9 352.1,61.7 354.0,61.4 355.9,61.3 357.7,61.0 359.6,60.9 361.4,60.6 363.3,60.5 365.2,60.4 367.0,60.2 368.9,59.8 370.8,59.7 372.6,59.4 374.5,59.3 376.3,59.1 378.2,58.9 380.1,58.8 381.9,58.6 383.8,58.4 385.7,58.0 387.5,57.6 389.4,57.4 391.2,57.2 393.1,57.1 395.0,57.0 396.8,56.8 398.7,56.4 400.6,56.2 402.4,56.1 404.3,55.9 406.1,55.7 408.0,55.4 409.9,55.3 411.7,55.2 413.6,54.9 415.4,54.6 417.3,54.3 419.2,54.1 421.0,54.0 422.9,53.9 424.8,53.8 426.6,53.6 428.5,53.4 430.3,53.2 432.2,53.0 434.1,52.8 435.9,52.6 437.8,52.5 439.7,52.3 441.5,52.1 443.4,51.9 445.2,51.6 447.1,51.4 449.0,51.2 450.8,51.0 452.7,50.9 454.6,50.8 456.4,50.6 458.3,50.5 460.1,50.3 462.0,50.0 463.9,49.9 465.7,49.7 467.6,49.5 469.4,49.4 471.3,49.2 473.2,48.9 475.0,48.8 476.9,48.6 478.8,48.5 480.6,48.2 482.5,48.1 484.3,47.9 486.2,47.7 488.1,47.6 489.9,47.5 491.8,47.3 493.7,47.2 495.5,47.0 497.4,47.0 499.2,46.8 501.1,46.4 503.0,46.1 504.8,51.7 506.7,50.6 508.6,48.5 510.4,47.7 512.3,46.7 514.1,45.5 516.0,44.9 517.9,44.4 519.7,43.6 521.6,42.4 523.4,41.5 525.3,41.2 527.2,40.8 529.0,40.4 530.9,39.8 532.8,39.2 534.6,38.5 536.5,38.2 538.3,37.6 540.2,37.3 542.1,36.9 543.9,36.6 545.8,36.3 547.7,36.0 549.5,35.4 551.4,35.0 553.2,34.4 555.1,33.7 557.0,33.2 558.8,33.0 560.7,32.7 562.6,32.4 564.4,31.9 566.3,31.5 568.1,31.1 570.0,30.0 570.0,30.0,120" />
  
  <!-- Linea principale -->
  <polyline fill="none" stroke="#0366d6" stroke-width="2.5" stroke-linecap="round" stroke-linejoin="round" points="30.0,120.0 31.9,119.3 33.7,118.6 35.6,118.0 37.4,117.8 39.3,117.5 41.2,116.7 43.0,116.2 44.9,115.8 46.8,115.1 48.6,114.7 50.5,114.3 52.3,114.0 54.2,113.7 56.1,113.1 57.9,112.6 59.8,112.1 61.7,111.8 63.5,111.6 65.4,111.3 67.2,110.8 69.1,110.5 71.0,110.3 72.8,109.9 74.7,108.7 76.6,108.3 78.4,107.8 80.3,107.3 82.1,106.9 84.0,106.5 85.9,106.2 87.7,106.0 89.6,105.6 91.4,105.0 93.3,104.5 95.2,104.1 97.0,103.7 98.9,103.6 100.8,103.5 102.6,103.3 104.5,102.9 106.3,102.6 108.2,102.5 110.1,102.0 111.9,101.3 113.8,101.2 115.7,101.1 117.5,100.8 119.4,100.2 121.2,99.9 123.1,99.3 125.0,98.9 126.8,98.4 128.7,98.3 130.6,98.1 132.4,97.6 134.3,97.0 136.1,96.7 138.0,96.5 139.9,96.2 141.7,96.0 143.6,95.4 145.4,94.9 147.3,94.5 149.2,94.0 151.0,93.8 152.9,93.6 154.8,93.4 156.6,93.0 158.5,92.8 160.3,92.6 162.2,92.4 164.1,92.2 165.9,91.9 167.8,91.7 169.7,91.6 171.5,91.5 173.4,91.0 175.2,90.7 177.1,90.6 179.0,90.4 180.8,90.3 182.7,90.3 184.6,98.8 186.4,98.0 188.3,97.2 190.1,96.4 192.0,94.1 193.9,92.5 195.7,90.8 197.6,90.1 199.4,89.4 201.3,88.2 203.2,86.9 205.0,86.0 206.9,85.6 208.8,85.3 210.6,84.3 212.5,83.7 214.3,83.2 216.2,82.7 218.1,82.5 219.9,82.4 221.8,81.9 223.7,81.1 225.5,80.5 227.4,79.9 229.2,79.3 231.1,79.0 233.0,78.8 234.8,78.2 236.7,77.7 238.6,77.3 240.4,76.9 242.3,76.7 244.1,76.6 246.0,76.3 247.9,75.9 249.7,75.6 251.6,75.3 253.4,75.0 255.3,74.8 257.2,74.6 259.0,74.3 260.9,74.1 262.8,73.9 264.6,73.5 266.5,73.1 268.3,72.8 270.2,72.5 272.1,72.3 273.9,72.1 275.8,71.9 277.7,71.7 279.5,71.1 281.4,70.7 283.2,70.2 285.1,70.0 287.0,69.9 288.8,69.7 290.7,69.4 292.6,69.1 294.4,68.8 296.3,68.4 298.1,68.2 300.0,68.1 301.9,67.9 303.7,67.7 305.6,67.5 307.4,67.3 309.3,67.1 311.2,66.7 313.0,66.5 314.9,66.4 316.8,66.2 318.6,66.1 320.5,65.8 322.3,65.6 324.2,65.3 326.1,65.0 327.9,64.7 329.8,64.5 331.7,64.4 333.5,64.2 335.4,63.9 337.2,63.5 339.1,63.2 341.0,63.0 342.8,62.5 344.7,62.4 346.6,62.3 348.4,62.1 350.3,61.9 352.1,61.7 354.0,61.4 355.9,61.3 357.7,61.0 359.6,60.9 361.4,60.6 363.3,60.5 365.2,60.4 367.0,60.2 368.9,59.8 370.8,59.7 372.6,59.4 374.5,59.3 376.3,59.1 378.2,58.9 380.1,58.8 381.9,58.6 383.8,58.4 385.7,58.0 387.5,57.6 389.4,57.4 391.2,57.2 393.1,57.1 395.0,57.0 396.8,56.8 398.7,56.4 400.6,56.2 402.4,56.1 404.3,55.9 406.1,55.7 408.0,55.4 409.9,55.3 411.7,55.2 413.6,54.9 415.4,54.6 417.3,54.3 419.2,54.1 421.0,54.0 422.9,53.9 424.8,53.8 426.6,53.6 428.5,53.4 430.3,53.2 432.2,53.0 434.1,52.8 435.9,52.6 437.8,52.5 439.7,52.3 441.5,52.1 443.4,51.9 445.2,51.6 447.1,51.4 449.0,51.2 450.8,51.0 452.7,50.9 454.6,50.8 456.4,50.6 458.3,50.5 460.1,50.3 462.0,50.0 463.9,49.9 465.7,49.7 467.6,49.5 469.4,49.4 471.3,49.2 473.2,48.9 475.0,48.8 476.9,48.6 478.8,48.5 480.6,48.2 482.5,48.1 484.3,47.9 486.2,47.7 488.1,47.6 489.9,47.5 491.8,47.3 493.7,47.2 495.5,47.0 497.4,47.0 499.2,46.8 501.1,46.4 503.0,46.1 504.8,51.7 506.7,50.6 508.6,48.5 510.4,47.7 512.3,46.7 514.1,45.5 516.0,44.9 517.9,44.4 519.7,43.6 521.6,42.4 523.4,41.5 525.3,41.2 527.2,40.8 529.0,40.4 530.9,39.8 532.8,39.2 534.6,38.5 536.5,38.2 538.3,37.6 540.2,37.3 542.1,36.9 543.9,36.6 545.8,36.3 547.7,36.0 549.5,35.4 551.4,35.0 553.2,34.4 555.1,33.7 557.0,33.2 558.8,33.0 560.7,32.7 562.6,32.4 564.4,31.9 566.3,31.5 568.1,31.1 570.0,30.0" />
  
  <!-- Punto finale luminoso -->
  <circle cx="570.0" cy="30.0" r="4" fill="#ffffff" stroke="#0366d6" stroke-width="2.5" />
</svg>