<svg width="600" height="150" viewBox="0 0 600 150" xmlns="http://www.w3.org/2000/svg">
  <defs>
    <filter id="shadow2" x="-2%" y="-2%" width="104%" height="108%">
      <feDropShadow dx="0" dy="2" stdDeviation="3" flood-opacity="0.1" />
    </filter>
    <linearGradient id="fillGrad" x1="0" y1="0" x2="0" y2="1">
      <stop offset="0%" stop-color="#0366d6" stop-opacity="0.3"/>
      <stop offset="100%" stop-color="#0366d6" stop-opacity="0.02"/>
    </linearGradient>
  </defs>
  <rect width="600" height="150" rx="12" fill="#ffffff" filter="url(#shadow2)" stroke="#e1e4e8" stroke-width="1"/>
  <text x="20" y="24" fill="#2b3137" font-family="-apple-system,BlinkMacSystemFont,'Segoe UI',Helvetica,Arial,sans-serif" font-size="14" font-weight="600">📈 Download Growth (Actual: 78.7k)</text>
  
  <!-- Area sotto la linea -->
  <polygon fill="url(#fillGrad)" points="30.0,120.0,120 30.0,120.0 32.3,119.2 34.6,118.2 36.9,117.4 39.2,117.2 41.5,116.8 43.8,115.8 46.1,115.1 48.4,114.7 50.7,113.7 53.0,113.2 55.3,112.7 57.6,112.4 59.9,111.9 62.2,111.2 64.5,110.5 66.8,109.9 69.1,109.6 71.4,109.3 73.7,108.8 76.0,108.3 78.3,107.8 80.6,107.6 82.9,107.1 85.1,105.5 87.4,105.1 89.7,104.4 92.0,103.8 94.3,103.2 96.6,102.7 98.9,102.4 101.2,102.1 103.5,101.7 105.8,100.9 108.1,100.2 110.4,99.8 112.7,99.2 115.0,99.1 117.3,98.9 119.6,98.7 121.9,98.1 124.2,97.8 126.5,97.6 128.8,97.0 131.1,96.2 133.4,96.0 135.7,95.8 138.0,95.5 140.3,94.8 142.6,94.3 144.9,93.6 147.2,93.1 149.5,92.5 151.8,92.3 154.1,92.0 156.4,91.3 158.7,90.7 161.0,90.2 163.3,90.0 165.6,89.6 167.9,89.4 170.2,88.6 172.5,88.0 174.8,87.4 177.1,86.8 179.4,86.5 181.7,86.3 184.0,86.0 186.3,85.5 188.6,85.2 190.9,84.9 193.1,84.7 195.4,84.5 197.7,84.1 200.0,83.9 202.3,83.8 204.6,83.6 206.9,82.9 209.2,82.6 211.5,82.5 213.8,82.2 216.1,82.1 218.4,82.1 220.7,92.9 223.0,91.9 225.3,90.9 227.6,89.9 229.9,87.0 232.2,84.9 234.5,82.7 236.8,81.9 239.1,80.9 241.4,79.4 243.7,77.8 246.0,76.5 248.3,76.1 250.6,75.6 252.9,74.5 255.2,73.6 257.5,73.0 259.8,72.3 262.1,72.1 264.4,71.9 266.7,71.3 269.0,70.3 271.3,69.6 273.6,68.8 275.9,68.0 278.2,67.6 280.5,67.3 282.8,66.7 285.1,66.0 287.4,65.4 289.7,64.9 292.0,64.7 294.3,64.6 296.6,64.2 298.9,63.7 301.1,63.3 303.4,62.9 305.7,62.6 308.0,62.3 310.3,62.0 312.6,61.7 314.9,61.4 317.2,61.1 319.5,60.6 321.8,60.2 324.1,59.7 326.4,59.4 328.7,59.1 331.0,58.9 333.3,58.6 335.6,58.4 337.9,57.6 340.2,57.0 342.5,56.4 344.8,56.1 347.1,56.1 349.4,55.8 351.7,55.4 354.0,55.0 356.3,54.6 358.6,54.2 360.9,53.8 363.2,53.7 365.5,53.4 367.8,53.2 370.1,53.0 372.4,52.7 374.7,52.4 377.0,51.9 379.3,51.7 381.6,51.6 383.9,51.3 386.2,51.2 388.5,50.8 390.8,50.5 393.1,50.1 395.4,49.8 397.7,49.4 400.0,49.2 402.3,49.0 404.6,48.8 406.9,48.3 409.1,47.8 411.4,47.5 413.7,47.2 416.0,46.6 418.3,46.4 420.6,46.3 422.9,46.1 425.2,45.8 427.5,45.5 429.8,45.2 432.1,45.0 434.4,44.7 436.7,44.5 439.0,44.2 441.3,44.0 443.6,43.9 445.9,43.6 448.2,43.1 450.5,42.9 452.8,42.6 455.1,42.4 457.4,42.2 459.7,42.0 462.0,41.8 464.3,41.6 466.6,41.3 468.9,40.8 471.2,40.3 473.5,40.0 475.8,39.8 478.1,39.7 480.4,39.5 482.7,39.2 485.0,38.8 487.3,38.6 489.6,38.4 491.9,38.1 494.2,37.9 496.5,37.5 498.8,37.4 501.1,37.2 503.4,36.8 505.7,36.5 508.0,36.1 510.3,35.8 512.6,35.7 514.9,35.6 517.1,35.5 519.4,35.2 521.7,35.0 524.0,34.7 526.3,34.4 528.6,34.1 530.9,33.9 533.2,33.8 535.5,33.5 537.8,33.3 540.1,33.0 542.4,32.6 544.7,32.3 547.0,32.1 549.3,31.9 551.6,31.7 553.9,31.6 556.2,31.4 558.5,31.3 560.8,31.0 563.1,30.6 565.4,30.4 567.7,30.2 570.0,30.0 570.0,30.0,120" />
  
  <!-- Linea principale -->
  <polyline fill="none" stroke="#0366d6" stroke-width="2.5" stroke-linecap="round" stroke-linejoin="round" points="30.0,120.0 32.3,119.2 34.6,118.2 36.9,117.4 39.2,117.2 41.5,116.8 43.8,115.8 46.1,115.1 48.4,114.7 50.7,113.7 53.0,113.2 55.3,112.7 57.6,112.4 59.9,111.9 62.2,111.2 64.5,110.5 66.8,109.9 69.1,109.6 71.4,109.3 73.7,108.8 76.0,108.3 78.3,107.8 80.6,107.6 82.9,107.1 85.1,105.5 87.4,105.1 89.7,104.4 92.0,103.8 94.3,103.2 96.6,102.7 98.9,102.4 101.2,102.1 103.5,101.7 105.8,100.9 108.1,100.2 110.4,99.8 112.7,99.2 115.0,99.1 117.3,98.9 119.6,98.7 121.9,98.1 124.2,97.8 126.5,97.6 128.8,97.0 131.1,96.2 133.4,96.0 135.7,95.8 138.0,95.5 140.3,94.8 142.6,94.3 144.9,93.6 147.2,93.1 149.5,92.5 151.8,92.3 154.1,92.0 156.4,91.3 158.7,90.7 161.0,90.2 163.3,90.0 165.6,89.6 167.9,89.4 170.2,88.6 172.5,88.0 174.8,87.4 177.1,86.8 179.4,86.5 181.7,86.3 184.0,86.0 186.3,85.5 188.6,85.2 190.9,84.9 193.1,84.7 195.4,84.5 197.7,84.1 200.0,83.9 202.3,83.8 204.6,83.6 206.9,82.9 209.2,82.6 211.5,82.5 213.8,82.2 216.1,82.1 218.4,82.1 220.7,92.9 223.0,91.9 225.3,90.9 227.6,89.9 229.9,87.0 232.2,84.9 234.5,82.7 236.8,81.9 239.1,80.9 241.4,79.4 243.7,77.8 246.0,76.5 248.3,76.1 250.6,75.6 252.9,74.5 255.2,73.6 257.5,73.0 259.8,72.3 262.1,72.1 264.4,71.9 266.7,71.3 269.0,70.3 271.3,69.6 273.6,68.8 275.9,68.0 278.2,67.6 280.5,67.3 282.8,66.7 285.1,66.0 287.4,65.4 289.7,64.9 292.0,64.7 294.3,64.6 296.6,64.2 298.9,63.7 301.1,63.3 303.4,62.9 305.7,62.6 308.0,62.3 310.3,62.0 312.6,61.7 314.9,61.4 317.2,61.1 319.5,60.6 321.8,60.2 324.1,59.7 326.4,59.4 328.7,59.1 331.0,58.9 333.3,58.6 335.6,58.4 337.9,57.6 340.2,57.0 342.5,56.4 344.8,56.1 347.1,56.1 349.4,55.8 351.7,55.4 354.0,55.0 356.3,54.6 358.6,54.2 360.9,53.8 363.2,53.7 365.5,53.4 367.8,53.2 370.1,53.0 372.4,52.7 374.7,52.4 377.0,51.9 379.3,51.7 381.6,51.6 383.9,51.3 386.2,51.2 388.5,50.8 390.8,50.5 393.1,50.1 395.4,49.8 397.7,49.4 400.0,49.2 402.3,49.0 404.6,48.8 406.9,48.3 409.1,47.8 411.4,47.5 413.7,47.2 416.0,46.6 418.3,46.4 420.6,46.3 422.9,46.1 425.2,45.8 427.5,45.5 429.8,45.2 432.1,45.0 434.4,44.7 436.7,44.5 439.0,44.2 441.3,44.0 443.6,43.9 445.9,43.6 448.2,43.1 450.5,42.9 452.8,42.6 455.1,42.4 457.4,42.2 459.7,42.0 462.0,41.8 464.3,41.6 466.6,41.3 468.9,40.8 471.2,40.3 473.5,40.0 475.8,39.8 478.1,39.7 480.4,39.5 482.7,39.2 485.0,38.8 487.3,38.6 489.6,38.4 491.9,38.1 494.2,37.9 496.5,37.5 498.8,37.4 501.1,37.2 503.4,36.8 505.7,36.5 508.0,36.1 510.3,35.8 512.6,35.7 514.9,35.6 517.1,35.5 519.4,35.2 521.7,35.0 524.0,34.7 526.3,34.4 528.6,34.1 530.9,33.9 533.2,33.8 535.5,33.5 537.8,33.3 540.1,33.0 542.4,32.6 544.7,32.3 547.0,32.1 549.3,31.9 551.6,31.7 553.9,31.6 556.2,31.4 558.5,31.3 560.8,31.0 563.1,30.6 565.4,30.4 567.7,30.2 570.0,30.0" />
  
  <!-- Punto finale luminoso -->
  <circle cx="570.0" cy="30.0" r="4" fill="#ffffff" stroke="#0366d6" stroke-width="2.5" />
</svg>