<svg width="600" height="150" viewBox="0 0 600 150" xmlns="http://www.w3.org/2000/svg">
  <defs>
    <filter id="shadow2" x="-2%" y="-2%" width="104%" height="108%">
      <feDropShadow dx="0" dy="2" stdDeviation="3" flood-opacity="0.1" />
    </filter>
    <linearGradient id="fillGrad" x1="0" y1="0" x2="0" y2="1">
      <stop offset="0%" stop-color="#0366d6" stop-opacity="0.3"/>
      <stop offset="100%" stop-color="#0366d6" stop-opacity="0.02"/>
    </linearGradient>
  </defs>
  <rect width="600" height="150" rx="12" fill="#ffffff" filter="url(#shadow2)" stroke="#e1e4e8" stroke-width="1"/>
  <text x="20" y="24" fill="#2b3137" font-family="-apple-system,BlinkMacSystemFont,'Segoe UI',Helvetica,Arial,sans-serif" font-size="14" font-weight="600">📈 Download Growth (Actual: 75.9k)</text>
  
  <!-- Area sotto la linea -->
  <polygon fill="url(#fillGrad)" points="30.0,120.0,120 30.0,120.0 33.5,118.9 37.0,117.7 40.5,116.6 44.0,116.3 47.5,115.8 51.0,114.5 54.5,113.6 58.1,113.0 61.6,111.7 65.1,111.0 68.6,110.4 72.1,110.0 75.6,109.4 79.1,108.5 82.6,107.5 86.1,106.8 89.6,106.3 93.1,106.0 96.6,105.4 100.1,104.7 103.6,104.0 107.1,103.7 110.6,103.1 114.2,101.0 117.7,100.4 121.2,99.6 124.7,98.8 128.2,98.0 131.7,97.3 135.2,96.9 138.7,96.5 142.2,96.0 145.7,94.9 149.2,94.1 152.7,93.5 156.2,92.7 159.7,92.5 163.2,92.4 166.8,92.0 170.3,91.3 173.8,90.9 177.3,90.6 180.8,89.9 184.3,88.8 187.8,88.5 191.3,88.3 194.8,87.8 198.3,86.9 201.8,86.3 205.3,85.4 208.8,84.7 212.3,83.9 215.8,83.7 219.4,83.3 222.9,82.4 226.4,81.6 229.9,80.9 233.4,80.6 236.9,80.2 240.4,79.8 243.9,78.9 247.4,78.0 250.9,77.2 254.4,76.4 257.9,76.0 261.4,75.8 264.9,75.5 268.4,74.8 271.9,74.4 275.5,74.0 279.0,73.7 282.5,73.4 286.0,73.0 289.5,72.7 293.0,72.5 296.5,72.3 300.0,71.4 303.5,70.9 307.0,70.8 310.5,70.5 314.0,70.3 317.5,70.3 321.0,84.5 324.5,83.1 328.1,81.9 331.6,80.5 335.1,76.7 338.6,74.0 342.1,71.1 345.6,70.0 349.1,68.8 352.6,66.8 356.1,64.6 359.6,63.0 363.1,62.4 366.6,61.8 370.1,60.3 373.6,59.2 377.1,58.4 380.6,57.5 384.2,57.1 387.7,57.0 391.2,56.2 394.7,54.8 398.2,53.9 401.7,52.9 405.2,51.9 408.7,51.4 412.2,51.0 415.7,50.1 419.2,49.2 422.7,48.4 426.2,47.8 429.7,47.5 433.2,47.3 436.8,46.8 440.3,46.2 443.8,45.6 447.3,45.1 450.8,44.7 454.3,44.3 457.8,43.9 461.3,43.5 464.8,43.2 468.3,42.8 471.8,42.1 475.3,41.6 478.8,40.9 482.3,40.6 485.8,40.1 489.4,39.9 492.9,39.5 496.4,39.2 499.9,38.2 503.4,37.5 506.9,36.6 510.4,36.3 513.9,36.2 517.4,35.8 520.9,35.3 524.4,34.8 527.9,34.3 531.4,33.7 534.9,33.3 538.4,33.1 541.9,32.7 545.5,32.5 549.0,32.2 552.5,31.8 556.0,31.4 559.5,30.8 563.0,30.5 566.5,30.3 570.0,30.0 570.0,30.0,120" />
  
  <!-- Linea principale -->
  <polyline fill="none" stroke="#0366d6" stroke-width="2.5" stroke-linecap="round" stroke-linejoin="round" points="30.0,120.0 33.5,118.9 37.0,117.7 40.5,116.6 44.0,116.3 47.5,115.8 51.0,114.5 54.5,113.6 58.1,113.0 61.6,111.7 65.1,111.0 68.6,110.4 72.1,110.0 75.6,109.4 79.1,108.5 82.6,107.5 86.1,106.8 89.6,106.3 93.1,106.0 96.6,105.4 100.1,104.7 103.6,104.0 107.1,103.7 110.6,103.1 114.2,101.0 117.7,100.4 121.2,99.6 124.7,98.8 128.2,98.0 131.7,97.3 135.2,96.9 138.7,96.5 142.2,96.0 145.7,94.9 149.2,94.1 152.7,93.5 156.2,92.7 159.7,92.5 163.2,92.4 166.8,92.0 170.3,91.3 173.8,90.9 177.3,90.6 180.8,89.9 184.3,88.8 187.8,88.5 191.3,88.3 194.8,87.8 198.3,86.9 201.8,86.3 205.3,85.4 208.8,84.7 212.3,83.9 215.8,83.7 219.4,83.3 222.9,82.4 226.4,81.6 229.9,80.9 233.4,80.6 236.9,80.2 240.4,79.8 243.9,78.9 247.4,78.0 250.9,77.2 254.4,76.4 257.9,76.0 261.4,75.8 264.9,75.5 268.4,74.8 271.9,74.4 275.5,74.0 279.0,73.7 282.5,73.4 286.0,73.0 289.5,72.7 293.0,72.5 296.5,72.3 300.0,71.4 303.5,70.9 307.0,70.8 310.5,70.5 314.0,70.3 317.5,70.3 321.0,84.5 324.5,83.1 328.1,81.9 331.6,80.5 335.1,76.7 338.6,74.0 342.1,71.1 345.6,70.0 349.1,68.8 352.6,66.8 356.1,64.6 359.6,63.0 363.1,62.4 366.6,61.8 370.1,60.3 373.6,59.2 377.1,58.4 380.6,57.5 384.2,57.1 387.7,57.0 391.2,56.2 394.7,54.8 398.2,53.9 401.7,52.9 405.2,51.9 408.7,51.4 412.2,51.0 415.7,50.1 419.2,49.2 422.7,48.4 426.2,47.8 429.7,47.5 433.2,47.3 436.8,46.8 440.3,46.2 443.8,45.6 447.3,45.1 450.8,44.7 454.3,44.3 457.8,43.9 461.3,43.5 464.8,43.2 468.3,42.8 471.8,42.1 475.3,41.6 478.8,40.9 482.3,40.6 485.8,40.1 489.4,39.9 492.9,39.5 496.4,39.2 499.9,38.2 503.4,37.5 506.9,36.6 510.4,36.3 513.9,36.2 517.4,35.8 520.9,35.3 524.4,34.8 527.9,34.3 531.4,33.7 534.9,33.3 538.4,33.1 541.9,32.7 545.5,32.5 549.0,32.2 552.5,31.8 556.0,31.4 559.5,30.8 563.0,30.5 566.5,30.3 570.0,30.0" />
  
  <!-- Punto finale luminoso -->
  <circle cx="570.0" cy="30.0" r="4" fill="#ffffff" stroke="#0366d6" stroke-width="2.5" />
</svg>