<svg width="600" height="150" viewBox="0 0 600 150" xmlns="http://www.w3.org/2000/svg">
  <defs>
    <filter id="shadow2" x="-2%" y="-2%" width="104%" height="108%">
      <feDropShadow dx="0" dy="2" stdDeviation="3" flood-opacity="0.1" />
    </filter>
    <linearGradient id="fillGrad" x1="0" y1="0" x2="0" y2="1">
      <stop offset="0%" stop-color="#0366d6" stop-opacity="0.3"/>
      <stop offset="100%" stop-color="#0366d6" stop-opacity="0.02"/>
    </linearGradient>
  </defs>
  <rect width="600" height="150" rx="12" fill="#ffffff" filter="url(#shadow2)" stroke="#e1e4e8" stroke-width="1"/>
  <text x="20" y="24" fill="#2b3137" font-family="-apple-system,BlinkMacSystemFont,'Segoe UI',Helvetica,Arial,sans-serif" font-size="14" font-weight="600">📈 Download Growth (Actual: 79.1k)</text>
  
  <!-- Area sotto la linea -->
  <polygon fill="url(#fillGrad)" points="30.0,120.0,120 30.0,120.0 32.2,119.2 34.3,118.3 36.5,117.5 38.7,117.3 40.8,116.9 43.0,115.9 45.2,115.3 47.3,114.9 49.5,113.9 51.7,113.4 53.9,112.9 56.0,112.6 58.2,112.2 60.4,111.5 62.5,110.8 64.7,110.3 66.9,109.9 69.0,109.6 71.2,109.2 73.4,108.7 75.5,108.2 77.7,108.0 79.9,107.6 82.0,106.0 84.2,105.5 86.4,104.9 88.6,104.3 90.7,103.8 92.9,103.3 95.1,102.9 97.2,102.7 99.4,102.3 101.6,101.5 103.7,100.9 105.9,100.4 108.1,99.9 110.2,99.7 112.4,99.6 114.6,99.3 116.7,98.8 118.9,98.6 121.1,98.3 123.3,97.8 125.4,96.9 127.6,96.7 129.8,96.6 131.9,96.3 134.1,95.6 136.3,95.2 138.4,94.5 140.6,94.0 142.8,93.4 144.9,93.2 147.1,92.9 149.3,92.3 151.4,91.6 153.6,91.2 155.8,90.9 158.0,90.6 160.1,90.4 162.3,89.7 164.5,89.0 166.6,88.4 168.8,87.9 171.0,87.6 173.1,87.4 175.3,87.1 177.5,86.7 179.6,86.4 181.8,86.1 184.0,85.9 186.1,85.6 188.3,85.3 190.5,85.1 192.7,84.9 194.8,84.8 197.0,84.1 199.2,83.8 201.3,83.7 203.5,83.5 205.7,83.3 207.8,83.3 210.0,93.8 212.2,92.8 214.3,91.9 216.5,90.9 218.7,88.0 220.8,86.0 223.0,83.9 225.2,83.1 227.3,82.2 229.5,80.7 231.7,79.1 233.9,78.0 236.0,77.5 238.2,77.1 240.4,75.9 242.5,75.1 244.7,74.6 246.9,73.9 249.0,73.6 251.2,73.5 253.4,72.9 255.5,71.9 257.7,71.2 259.9,70.5 262.0,69.7 264.2,69.3 266.4,69.1 268.6,68.4 270.7,67.8 272.9,67.2 275.1,66.7 277.2,66.5 279.4,66.4 281.6,66.0 283.7,65.5 285.9,65.1 288.1,64.7 290.2,64.4 292.4,64.1 294.6,63.8 296.7,63.6 298.9,63.3 301.1,63.1 303.3,62.5 305.4,62.1 307.6,61.6 309.8,61.4 311.9,61.1 314.1,60.9 316.3,60.6 318.4,60.4 320.6,59.6 322.8,59.1 324.9,58.5 327.1,58.2 329.3,58.1 331.4,57.9 333.6,57.5 335.8,57.1 338.0,56.8 340.1,56.3 342.3,56.0 344.5,55.8 346.6,55.6 348.8,55.4 351.0,55.2 353.1,54.9 355.3,54.6 357.5,54.2 359.6,53.9 361.8,53.8 364.0,53.6 366.1,53.4 368.3,53.0 370.5,52.7 372.7,52.4 374.8,52.0 377.0,51.7 379.2,51.5 381.3,51.3 383.5,51.1 385.7,50.6 387.8,50.2 390.0,49.9 392.2,49.5 394.3,49.0 396.5,48.8 398.7,48.7 400.8,48.5 403.0,48.2 405.2,47.9 407.3,47.6 409.5,47.4 411.7,47.1 413.9,46.9 416.0,46.7 418.2,46.5 420.4,46.3 422.5,46.1 424.7,45.6 426.9,45.5 429.0,45.1 431.2,45.0 433.4,44.7 435.5,44.5 437.7,44.3 439.9,44.1 442.0,43.9 444.2,43.4 446.4,42.9 448.6,42.6 450.7,42.4 452.9,42.3 455.1,42.2 457.2,41.9 459.4,41.4 461.6,41.2 463.7,41.1 465.9,40.8 468.1,40.5 470.2,40.2 472.4,40.1 474.6,39.9 476.7,39.5 478.9,39.2 481.1,38.9 483.3,38.6 485.4,38.4 487.6,38.3 489.8,38.2 491.9,38.0 494.1,37.7 496.3,37.5 498.4,37.2 500.6,36.9 502.8,36.7 504.9,36.6 507.1,36.3 509.3,36.1 511.4,35.8 513.6,35.5 515.8,35.2 518.0,34.9 520.1,34.7 522.3,34.6 524.5,34.5 526.6,34.3 528.8,34.1 531.0,33.9 533.1,33.5 535.3,33.3 537.5,33.1 539.6,32.9 541.8,32.7 544.0,32.5 546.1,32.2 548.3,32.0 550.5,31.8 552.7,31.6 554.8,31.3 557.0,31.1 559.2,30.9 561.3,30.7 563.5,30.6 565.7,30.4 567.8,30.2 570.0,30.0 570.0,30.0,120" />
  
  <!-- Linea principale -->
  <polyline fill="none" stroke="#0366d6" stroke-width="2.5" stroke-linecap="round" stroke-linejoin="round" points="30.0,120.0 32.2,119.2 34.3,118.3 36.5,117.5 38.7,117.3 40.8,116.9 43.0,115.9 45.2,115.3 47.3,114.9 49.5,113.9 51.7,113.4 53.9,112.9 56.0,112.6 58.2,112.2 60.4,111.5 62.5,110.8 64.7,110.3 66.9,109.9 69.0,109.6 71.2,109.2 73.4,108.7 75.5,108.2 77.7,108.0 79.9,107.6 82.0,106.0 84.2,105.5 86.4,104.9 88.6,104.3 90.7,103.8 92.9,103.3 95.1,102.9 97.2,102.7 99.4,102.3 101.6,101.5 103.7,100.9 105.9,100.4 108.1,99.9 110.2,99.7 112.4,99.6 114.6,99.3 116.7,98.8 118.9,98.6 121.1,98.3 123.3,97.8 125.4,96.9 127.6,96.7 129.8,96.6 131.9,96.3 134.1,95.6 136.3,95.2 138.4,94.5 140.6,94.0 142.8,93.4 144.9,93.2 147.1,92.9 149.3,92.3 151.4,91.6 153.6,91.2 155.8,90.9 158.0,90.6 160.1,90.4 162.3,89.7 164.5,89.0 166.6,88.4 168.8,87.9 171.0,87.6 173.1,87.4 175.3,87.1 177.5,86.7 179.6,86.4 181.8,86.1 184.0,85.9 186.1,85.6 188.3,85.3 190.5,85.1 192.7,84.9 194.8,84.8 197.0,84.1 199.2,83.8 201.3,83.7 203.5,83.5 205.7,83.3 207.8,83.3 210.0,93.8 212.2,92.8 214.3,91.9 216.5,90.9 218.7,88.0 220.8,86.0 223.0,83.9 225.2,83.1 227.3,82.2 229.5,80.7 231.7,79.1 233.9,78.0 236.0,77.5 238.2,77.1 240.4,75.9 242.5,75.1 244.7,74.6 246.9,73.9 249.0,73.6 251.2,73.5 253.4,72.9 255.5,71.9 257.7,71.2 259.9,70.5 262.0,69.7 264.2,69.3 266.4,69.1 268.6,68.4 270.7,67.8 272.9,67.2 275.1,66.7 277.2,66.5 279.4,66.4 281.6,66.0 283.7,65.5 285.9,65.1 288.1,64.7 290.2,64.4 292.4,64.1 294.6,63.8 296.7,63.6 298.9,63.3 301.1,63.1 303.3,62.5 305.4,62.1 307.6,61.6 309.8,61.4 311.9,61.1 314.1,60.9 316.3,60.6 318.4,60.4 320.6,59.6 322.8,59.1 324.9,58.5 327.1,58.2 329.3,58.1 331.4,57.9 333.6,57.5 335.8,57.1 338.0,56.8 340.1,56.3 342.3,56.0 344.5,55.8 346.6,55.6 348.8,55.4 351.0,55.2 353.1,54.9 355.3,54.6 357.5,54.2 359.6,53.9 361.8,53.8 364.0,53.6 366.1,53.4 368.3,53.0 370.5,52.7 372.7,52.4 374.8,52.0 377.0,51.7 379.2,51.5 381.3,51.3 383.5,51.1 385.7,50.6 387.8,50.2 390.0,49.9 392.2,49.5 394.3,49.0 396.5,48.8 398.7,48.7 400.8,48.5 403.0,48.2 405.2,47.9 407.3,47.6 409.5,47.4 411.7,47.1 413.9,46.9 416.0,46.7 418.2,46.5 420.4,46.3 422.5,46.1 424.7,45.6 426.9,45.5 429.0,45.1 431.2,45.0 433.4,44.7 435.5,44.5 437.7,44.3 439.9,44.1 442.0,43.9 444.2,43.4 446.4,42.9 448.6,42.6 450.7,42.4 452.9,42.3 455.1,42.2 457.2,41.9 459.4,41.4 461.6,41.2 463.7,41.1 465.9,40.8 468.1,40.5 470.2,40.2 472.4,40.1 474.6,39.9 476.7,39.5 478.9,39.2 481.1,38.9 483.3,38.6 485.4,38.4 487.6,38.3 489.8,38.2 491.9,38.0 494.1,37.7 496.3,37.5 498.4,37.2 500.6,36.9 502.8,36.7 504.9,36.6 507.1,36.3 509.3,36.1 511.4,35.8 513.6,35.5 515.8,35.2 518.0,34.9 520.1,34.7 522.3,34.6 524.5,34.5 526.6,34.3 528.8,34.1 531.0,33.9 533.1,33.5 535.3,33.3 537.5,33.1 539.6,32.9 541.8,32.7 544.0,32.5 546.1,32.2 548.3,32.0 550.5,31.8 552.7,31.6 554.8,31.3 557.0,31.1 559.2,30.9 561.3,30.7 563.5,30.6 565.7,30.4 567.8,30.2 570.0,30.0" />
  
  <!-- Punto finale luminoso -->
  <circle cx="570.0" cy="30.0" r="4" fill="#ffffff" stroke="#0366d6" stroke-width="2.5" />
</svg>