<svg width="600" height="150" viewBox="0 0 600 150" xmlns="http://www.w3.org/2000/svg">
  <defs>
    <filter id="shadow2" x="-2%" y="-2%" width="104%" height="108%">
      <feDropShadow dx="0" dy="2" stdDeviation="3" flood-opacity="0.1" />
    </filter>
    <linearGradient id="fillGrad" x1="0" y1="0" x2="0" y2="1">
      <stop offset="0%" stop-color="#0366d6" stop-opacity="0.3"/>
      <stop offset="100%" stop-color="#0366d6" stop-opacity="0.02"/>
    </linearGradient>
  </defs>
  <rect width="600" height="150" rx="12" fill="#ffffff" filter="url(#shadow2)" stroke="#e1e4e8" stroke-width="1"/>
  <text x="20" y="24" fill="#2b3137" font-family="-apple-system,BlinkMacSystemFont,'Segoe UI',Helvetica,Arial,sans-serif" font-size="14" font-weight="600">📈 Download Growth (Actual: 83.3k)</text>
  
  <!-- Area sotto la linea -->
  <polygon fill="url(#fillGrad)" points="30.0,120.0,120 30.0,120.0 31.8,119.4 33.5,118.7 35.3,118.1 37.0,118.0 38.8,117.7 40.5,117.0 42.3,116.5 44.0,116.2 45.8,115.4 47.5,115.1 49.3,114.7 51.0,114.5 52.8,114.1 54.5,113.6 56.3,113.1 58.1,112.7 59.8,112.4 61.6,112.2 63.3,111.9 65.1,111.5 66.8,111.2 68.6,111.0 70.3,110.7 72.1,109.5 73.8,109.2 75.6,108.7 77.3,108.3 79.1,107.9 80.8,107.5 82.6,107.2 84.4,107.0 86.1,106.7 87.9,106.2 89.6,105.7 91.4,105.3 93.1,104.9 94.9,104.8 96.6,104.7 98.4,104.5 100.1,104.2 101.9,103.9 103.6,103.8 105.4,103.4 107.1,102.7 108.9,102.6 110.6,102.5 112.4,102.2 114.2,101.7 115.9,101.4 117.7,100.9 119.4,100.5 121.2,100.1 122.9,100.0 124.7,99.7 126.4,99.2 128.2,98.8 129.9,98.4 131.7,98.3 133.4,98.0 135.2,97.8 136.9,97.3 138.7,96.8 140.5,96.4 142.2,95.9 144.0,95.7 145.7,95.6 147.5,95.4 149.2,95.1 151.0,94.8 152.7,94.6 154.5,94.4 156.2,94.3 158.0,94.0 159.7,93.9 161.5,93.8 163.2,93.6 165.0,93.2 166.8,92.9 168.5,92.8 170.3,92.6 172.0,92.6 173.8,92.6 175.5,100.4 177.3,99.6 179.0,98.9 180.8,98.2 182.5,96.1 184.3,94.6 186.0,93.0 187.8,92.4 189.5,91.7 191.3,90.6 193.1,89.4 194.8,88.5 196.6,88.2 198.3,87.9 200.1,87.0 201.8,86.4 203.6,86.0 205.3,85.5 207.1,85.3 208.8,85.2 210.6,84.7 212.3,84.0 214.1,83.5 215.8,83.0 217.6,82.4 219.4,82.1 221.1,81.9 222.9,81.4 224.6,80.9 226.4,80.5 228.1,80.1 229.9,80.0 231.6,79.9 233.4,79.6 235.1,79.2 236.9,78.9 238.6,78.6 240.4,78.4 242.1,78.2 243.9,78.0 245.6,77.8 247.4,77.6 249.2,77.4 250.9,77.0 252.7,76.7 254.4,76.3 256.2,76.1 257.9,75.9 259.7,75.7 261.4,75.6 263.2,75.4 264.9,74.8 266.7,74.4 268.4,73.9 270.2,73.8 271.9,73.7 273.7,73.5 275.5,73.2 277.2,72.9 279.0,72.7 280.7,72.3 282.5,72.1 284.2,72.0 286.0,71.8 287.7,71.6 289.5,71.5 291.2,71.3 293.0,71.1 294.7,70.7 296.5,70.6 298.2,70.5 300.0,70.3 301.8,70.2 303.5,69.9 305.3,69.7 307.0,69.4 308.8,69.1 310.5,68.9 312.3,68.7 314.0,68.6 315.8,68.4 317.5,68.1 319.3,67.8 321.0,67.5 322.8,67.3 324.5,66.8 326.3,66.7 328.1,66.6 329.8,66.5 331.6,66.3 333.3,66.1 335.1,65.8 336.8,65.7 338.6,65.5 340.3,65.3 342.1,65.1 343.8,65.0 345.6,64.9 347.3,64.7 349.1,64.3 350.8,64.2 352.6,63.9 354.4,63.8 356.1,63.7 357.9,63.5 359.6,63.4 361.4,63.2 363.1,63.0 364.9,62.7 366.6,62.3 368.4,62.1 370.1,61.9 371.9,61.8 373.6,61.7 375.4,61.5 377.1,61.2 378.9,61.0 380.6,60.9 382.4,60.7 384.2,60.5 385.9,60.3 387.7,60.2 389.4,60.0 391.2,59.8 392.9,59.5 394.7,59.3 396.4,59.0 398.2,58.9 399.9,58.9 401.7,58.8 403.4,58.6 405.2,58.4 406.9,58.2 408.7,58.0 410.5,57.8 412.2,57.7 414.0,57.6 415.7,57.4 417.5,57.2 419.2,57.0 421.0,56.7 422.7,56.5 424.5,56.3 426.2,56.2 428.0,56.1 429.7,56.0 431.5,55.9 433.2,55.7 435.0,55.6 436.8,55.3 438.5,55.1 440.3,54.9 442.0,54.8 443.8,54.7 445.5,54.5 447.3,54.3 449.0,54.1 450.8,54.0 452.5,53.8 454.3,53.6 456.0,53.5 457.8,53.3 459.5,53.2 461.3,53.1 463.1,52.9 464.8,52.8 466.6,52.6 468.3,52.5 470.1,52.4 471.8,52.3 473.6,51.9 475.3,51.7 477.1,56.8 478.8,55.8 480.6,53.9 482.3,53.1 484.1,52.2 485.8,51.1 487.6,50.5 489.4,50.1 491.1,49.4 492.9,48.3 494.6,47.4 496.4,47.2 498.1,46.7 499.9,46.4 501.6,45.8 503.4,45.3 505.1,44.7 506.9,44.4 508.6,43.8 510.4,43.5 512.1,43.1 513.9,42.9 515.6,42.6 517.4,42.3 519.2,41.7 520.9,41.4 522.7,40.8 524.4,40.1 526.2,39.7 527.9,39.5 529.7,39.3 531.4,39.0 533.2,38.6 534.9,38.2 536.7,37.8 538.4,36.8 540.2,35.9 541.9,35.6 543.7,35.4 545.5,35.0 547.2,34.5 549.0,34.0 550.7,33.7 552.5,33.3 554.2,32.9 556.0,32.6 557.7,32.2 559.5,31.8 561.2,31.5 563.0,31.3 564.7,31.1 566.5,30.6 568.2,30.3 570.0,30.0 570.0,30.0,120" />
  
  <!-- Linea principale -->
  <polyline fill="none" stroke="#0366d6" stroke-width="2.5" stroke-linecap="round" stroke-linejoin="round" points="30.0,120.0 31.8,119.4 33.5,118.7 35.3,118.1 37.0,118.0 38.8,117.7 40.5,117.0 42.3,116.5 44.0,116.2 45.8,115.4 47.5,115.1 49.3,114.7 51.0,114.5 52.8,114.1 54.5,113.6 56.3,113.1 58.1,112.7 59.8,112.4 61.6,112.2 63.3,111.9 65.1,111.5 66.8,111.2 68.6,111.0 70.3,110.7 72.1,109.5 73.8,109.2 75.6,108.7 77.3,108.3 79.1,107.9 80.8,107.5 82.6,107.2 84.4,107.0 86.1,106.7 87.9,106.2 89.6,105.7 91.4,105.3 93.1,104.9 94.9,104.8 96.6,104.7 98.4,104.5 100.1,104.2 101.9,103.9 103.6,103.8 105.4,103.4 107.1,102.7 108.9,102.6 110.6,102.5 112.4,102.2 114.2,101.7 115.9,101.4 117.7,100.9 119.4,100.5 121.2,100.1 122.9,100.0 124.7,99.7 126.4,99.2 128.2,98.8 129.9,98.4 131.7,98.3 133.4,98.0 135.2,97.8 136.9,97.3 138.7,96.8 140.5,96.4 142.2,95.9 144.0,95.7 145.7,95.6 147.5,95.4 149.2,95.1 151.0,94.8 152.7,94.6 154.5,94.4 156.2,94.3 158.0,94.0 159.7,93.9 161.5,93.8 163.2,93.6 165.0,93.2 166.8,92.9 168.5,92.8 170.3,92.6 172.0,92.6 173.8,92.6 175.5,100.4 177.3,99.6 179.0,98.9 180.8,98.2 182.5,96.1 184.3,94.6 186.0,93.0 187.8,92.4 189.5,91.7 191.3,90.6 193.1,89.4 194.8,88.5 196.6,88.2 198.3,87.9 200.1,87.0 201.8,86.4 203.6,86.0 205.3,85.5 207.1,85.3 208.8,85.2 210.6,84.7 212.3,84.0 214.1,83.5 215.8,83.0 217.6,82.4 219.4,82.1 221.1,81.9 222.9,81.4 224.6,80.9 226.4,80.5 228.1,80.1 229.9,80.0 231.6,79.9 233.4,79.6 235.1,79.2 236.9,78.9 238.6,78.6 240.4,78.4 242.1,78.2 243.9,78.0 245.6,77.8 247.4,77.6 249.2,77.4 250.9,77.0 252.7,76.7 254.4,76.3 256.2,76.1 257.9,75.9 259.7,75.7 261.4,75.6 263.2,75.4 264.9,74.8 266.7,74.4 268.4,73.9 270.2,73.8 271.9,73.7 273.7,73.5 275.5,73.2 277.2,72.9 279.0,72.7 280.7,72.3 282.5,72.1 284.2,72.0 286.0,71.8 287.7,71.6 289.5,71.5 291.2,71.3 293.0,71.1 294.7,70.7 296.5,70.6 298.2,70.5 300.0,70.3 301.8,70.2 303.5,69.9 305.3,69.7 307.0,69.4 308.8,69.1 310.5,68.9 312.3,68.7 314.0,68.6 315.8,68.4 317.5,68.1 319.3,67.8 321.0,67.5 322.8,67.3 324.5,66.8 326.3,66.7 328.1,66.6 329.8,66.5 331.6,66.3 333.3,66.1 335.1,65.8 336.8,65.7 338.6,65.5 340.3,65.3 342.1,65.1 343.8,65.0 345.6,64.9 347.3,64.7 349.1,64.3 350.8,64.2 352.6,63.9 354.4,63.8 356.1,63.7 357.9,63.5 359.6,63.4 361.4,63.2 363.1,63.0 364.9,62.7 366.6,62.3 368.4,62.1 370.1,61.9 371.9,61.8 373.6,61.7 375.4,61.5 377.1,61.2 378.9,61.0 380.6,60.9 382.4,60.7 384.2,60.5 385.9,60.3 387.7,60.2 389.4,60.0 391.2,59.8 392.9,59.5 394.7,59.3 396.4,59.0 398.2,58.9 399.9,58.9 401.7,58.8 403.4,58.6 405.2,58.4 406.9,58.2 408.7,58.0 410.5,57.8 412.2,57.7 414.0,57.6 415.7,57.4 417.5,57.2 419.2,57.0 421.0,56.7 422.7,56.5 424.5,56.3 426.2,56.2 428.0,56.1 429.7,56.0 431.5,55.9 433.2,55.7 435.0,55.6 436.8,55.3 438.5,55.1 440.3,54.9 442.0,54.8 443.8,54.7 445.5,54.5 447.3,54.3 449.0,54.1 450.8,54.0 452.5,53.8 454.3,53.6 456.0,53.5 457.8,53.3 459.5,53.2 461.3,53.1 463.1,52.9 464.8,52.8 466.6,52.6 468.3,52.5 470.1,52.4 471.8,52.3 473.6,51.9 475.3,51.7 477.1,56.8 478.8,55.8 480.6,53.9 482.3,53.1 484.1,52.2 485.8,51.1 487.6,50.5 489.4,50.1 491.1,49.4 492.9,48.3 494.6,47.4 496.4,47.2 498.1,46.7 499.9,46.4 501.6,45.8 503.4,45.3 505.1,44.7 506.9,44.4 508.6,43.8 510.4,43.5 512.1,43.1 513.9,42.9 515.6,42.6 517.4,42.3 519.2,41.7 520.9,41.4 522.7,40.8 524.4,40.1 526.2,39.7 527.9,39.5 529.7,39.3 531.4,39.0 533.2,38.6 534.9,38.2 536.7,37.8 538.4,36.8 540.2,35.9 541.9,35.6 543.7,35.4 545.5,35.0 547.2,34.5 549.0,34.0 550.7,33.7 552.5,33.3 554.2,32.9 556.0,32.6 557.7,32.2 559.5,31.8 561.2,31.5 563.0,31.3 564.7,31.1 566.5,30.6 568.2,30.3 570.0,30.0" />
  
  <!-- Punto finale luminoso -->
  <circle cx="570.0" cy="30.0" r="4" fill="#ffffff" stroke="#0366d6" stroke-width="2.5" />
</svg>