<svg width="600" height="150" viewBox="0 0 600 150" xmlns="http://www.w3.org/2000/svg">
  <defs>
    <filter id="shadow2" x="-2%" y="-2%" width="104%" height="108%">
      <feDropShadow dx="0" dy="2" stdDeviation="3" flood-opacity="0.1" />
    </filter>
    <linearGradient id="fillGrad" x1="0" y1="0" x2="0" y2="1">
      <stop offset="0%" stop-color="#0366d6" stop-opacity="0.3"/>
      <stop offset="100%" stop-color="#0366d6" stop-opacity="0.02"/>
    </linearGradient>
  </defs>
  <rect width="600" height="150" rx="12" fill="#ffffff" filter="url(#shadow2)" stroke="#e1e4e8" stroke-width="1"/>
  <text x="20" y="24" fill="#2b3137" font-family="-apple-system,BlinkMacSystemFont,'Segoe UI',Helvetica,Arial,sans-serif" font-size="14" font-weight="600">📈 Download Growth (Actual: 72.7k)</text>
  
  <!-- Area sotto la linea -->
  <polygon fill="url(#fillGrad)" points="30.0,120.0,120 30.0,120.0 35.6,118.3 41.2,116.4 46.9,114.8 52.5,114.3 58.1,113.5 63.8,111.5 69.4,110.1 75.0,109.2 80.6,107.2 86.2,106.1 91.9,105.1 97.5,104.5 103.1,103.6 108.8,102.2 114.4,100.7 120.0,99.6 125.6,98.8 131.2,98.3 136.9,97.3 142.5,96.2 148.1,95.3 153.8,94.8 159.4,93.9 165.0,90.7 170.6,89.7 176.2,88.4 181.9,87.1 187.5,86.0 193.1,84.9 198.8,84.2 204.4,83.7 210.0,82.8 215.6,81.2 221.2,79.8 226.9,78.9 232.5,77.8 238.1,77.5 243.8,77.2 249.4,76.7 255.0,75.6 260.6,75.0 266.2,74.6 271.9,73.4 277.5,71.6 283.1,71.2 288.8,70.9 294.4,70.2 300.0,68.8 305.6,67.9 311.2,66.5 316.9,65.4 322.5,64.2 328.1,63.9 333.8,63.1 339.4,61.8 345.0,60.5 350.6,59.5 356.2,59.1 361.9,58.4 367.5,57.8 373.1,56.4 378.8,55.0 384.4,53.8 390.0,52.6 395.6,52.0 401.2,51.6 406.9,51.1 412.5,50.1 418.1,49.4 423.8,48.9 429.4,48.4 435.0,47.9 440.6,47.2 446.2,46.8 451.9,46.5 457.5,46.1 463.1,44.8 468.8,44.1 474.4,43.8 480.0,43.4 485.6,43.1 491.2,43.1 496.9,65.1 502.5,62.9 508.1,61.0 513.8,58.9 519.4,53.0 525.0,48.8 530.6,44.3 536.2,42.6 541.9,40.7 547.5,37.6 553.1,34.3 558.8,31.8 564.4,30.9 570.0,30.0 570.0,30.0,120" />
  
  <!-- Linea principale -->
  <polyline fill="none" stroke="#0366d6" stroke-width="2.5" stroke-linecap="round" stroke-linejoin="round" points="30.0,120.0 35.6,118.3 41.2,116.4 46.9,114.8 52.5,114.3 58.1,113.5 63.8,111.5 69.4,110.1 75.0,109.2 80.6,107.2 86.2,106.1 91.9,105.1 97.5,104.5 103.1,103.6 108.8,102.2 114.4,100.7 120.0,99.6 125.6,98.8 131.2,98.3 136.9,97.3 142.5,96.2 148.1,95.3 153.8,94.8 159.4,93.9 165.0,90.7 170.6,89.7 176.2,88.4 181.9,87.1 187.5,86.0 193.1,84.9 198.8,84.2 204.4,83.7 210.0,82.8 215.6,81.2 221.2,79.8 226.9,78.9 232.5,77.8 238.1,77.5 243.8,77.2 249.4,76.7 255.0,75.6 260.6,75.0 266.2,74.6 271.9,73.4 277.5,71.6 283.1,71.2 288.8,70.9 294.4,70.2 300.0,68.8 305.6,67.9 311.2,66.5 316.9,65.4 322.5,64.2 328.1,63.9 333.8,63.1 339.4,61.8 345.0,60.5 350.6,59.5 356.2,59.1 361.9,58.4 367.5,57.8 373.1,56.4 378.8,55.0 384.4,53.8 390.0,52.6 395.6,52.0 401.2,51.6 406.9,51.1 412.5,50.1 418.1,49.4 423.8,48.9 429.4,48.4 435.0,47.9 440.6,47.2 446.2,46.8 451.9,46.5 457.5,46.1 463.1,44.8 468.8,44.1 474.4,43.8 480.0,43.4 485.6,43.1 491.2,43.1 496.9,65.1 502.5,62.9 508.1,61.0 513.8,58.9 519.4,53.0 525.0,48.8 530.6,44.3 536.2,42.6 541.9,40.7 547.5,37.6 553.1,34.3 558.8,31.8 564.4,30.9 570.0,30.0" />
  
  <!-- Punto finale luminoso -->
  <circle cx="570.0" cy="30.0" r="4" fill="#ffffff" stroke="#0366d6" stroke-width="2.5" />
</svg>