<svg width="600" height="150" viewBox="0 0 600 150" xmlns="http://www.w3.org/2000/svg">
  <defs>
    <filter id="shadow2" x="-2%" y="-2%" width="104%" height="108%">
      <feDropShadow dx="0" dy="2" stdDeviation="3" flood-opacity="0.1" />
    </filter>
    <linearGradient id="fillGrad" x1="0" y1="0" x2="0" y2="1">
      <stop offset="0%" stop-color="#0366d6" stop-opacity="0.3"/>
      <stop offset="100%" stop-color="#0366d6" stop-opacity="0.02"/>
    </linearGradient>
  </defs>
  <rect width="600" height="150" rx="12" fill="#ffffff" filter="url(#shadow2)" stroke="#e1e4e8" stroke-width="1"/>
  <text x="20" y="24" fill="#2b3137" font-family="-apple-system,BlinkMacSystemFont,'Segoe UI',Helvetica,Arial,sans-serif" font-size="14" font-weight="600">📈 Download Growth (Actual: 77.6k)</text>
  
  <!-- Area sotto la linea -->
  <polygon fill="url(#fillGrad)" points="30.0,120.0,120 30.0,120.0 32.7,119.1 35.4,118.0 38.1,117.1 40.9,116.9 43.6,116.4 46.3,115.4 49.0,114.6 51.7,114.1 54.4,113.0 57.1,112.5 59.8,111.9 62.6,111.6 65.3,111.1 68.0,110.3 70.7,109.5 73.4,108.9 76.1,108.5 78.8,108.2 81.6,107.7 84.3,107.1 87.0,106.5 89.7,106.3 92.4,105.8 95.1,104.0 97.8,103.5 100.6,102.8 103.3,102.1 106.0,101.5 108.7,100.9 111.4,100.5 114.1,100.2 116.8,99.7 119.5,98.9 122.3,98.1 125.0,97.6 127.7,97.0 130.4,96.9 133.1,96.7 135.8,96.4 138.5,95.8 141.3,95.5 144.0,95.3 146.7,94.6 149.4,93.7 152.1,93.4 154.8,93.2 157.5,92.9 160.3,92.1 163.0,91.6 165.7,90.8 168.4,90.3 171.1,89.6 173.8,89.4 176.5,89.0 179.2,88.3 182.0,87.6 184.7,87.1 187.4,86.8 190.1,86.4 192.8,86.1 195.5,85.3 198.2,84.6 201.0,83.9 203.7,83.3 206.4,82.9 209.1,82.7 211.8,82.5 214.5,81.9 217.2,81.6 219.9,81.2 222.7,81.0 225.4,80.7 228.1,80.4 230.8,80.1 233.5,79.9 236.2,79.8 238.9,79.0 241.7,78.6 244.4,78.5 247.1,78.2 249.8,78.1 252.5,78.1 255.2,90.1 257.9,88.9 260.7,87.8 263.4,86.7 266.1,83.5 268.8,81.2 271.5,78.7 274.2,77.8 276.9,76.8 279.6,75.1 282.4,73.3 285.1,72.0 287.8,71.5 290.5,71.0 293.2,69.7 295.9,68.7 298.6,68.1 301.4,67.3 304.1,67.0 306.8,66.9 309.5,66.2 312.2,65.1 314.9,64.3 317.6,63.5 320.4,62.5 323.1,62.1 325.8,61.8 328.5,61.0 331.2,60.3 333.9,59.7 336.6,59.1 339.3,58.9 342.1,58.7 344.8,58.3 347.5,57.7 350.2,57.3 352.9,56.9 355.6,56.5 358.3,56.2 361.1,55.8 363.8,55.5 366.5,55.3 369.2,54.9 371.9,54.3 374.6,53.9 377.3,53.3 380.1,53.0 382.8,52.7 385.5,52.4 388.2,52.1 390.9,51.9 393.6,51.0 396.3,50.4 399.0,49.7 401.8,49.4 404.5,49.3 407.2,49.0 409.9,48.6 412.6,48.2 415.3,47.8 418.0,47.2 420.8,46.9 423.5,46.7 426.2,46.4 428.9,46.2 431.6,45.9 434.3,45.6 437.0,45.3 439.7,44.8 442.5,44.5 445.2,44.4 447.9,44.1 450.6,44.0 453.3,43.5 456.0,43.1 458.7,42.7 461.5,42.4 464.2,42.0 466.9,41.7 469.6,41.5 472.3,41.3 475.0,40.7 477.7,40.2 480.5,39.9 483.2,39.5 485.9,38.8 488.6,38.7 491.3,38.5 494.0,38.3 496.7,38.0 499.4,37.7 502.2,37.3 504.9,37.1 507.6,36.8 510.3,36.5 513.0,36.2 515.7,36.0 518.4,35.8 521.2,35.5 523.9,35.0 526.6,34.8 529.3,34.4 532.0,34.3 534.7,34.0 537.4,33.7 540.2,33.5 542.9,33.3 545.6,33.0 548.3,32.5 551.0,31.9 553.7,31.6 556.4,31.3 559.1,31.2 561.9,31.1 564.6,30.7 567.3,30.2 570.0,30.0 570.0,30.0,120" />
  
  <!-- Linea principale -->
  <polyline fill="none" stroke="#0366d6" stroke-width="2.5" stroke-linecap="round" stroke-linejoin="round" points="30.0,120.0 32.7,119.1 35.4,118.0 38.1,117.1 40.9,116.9 43.6,116.4 46.3,115.4 49.0,114.6 51.7,114.1 54.4,113.0 57.1,112.5 59.8,111.9 62.6,111.6 65.3,111.1 68.0,110.3 70.7,109.5 73.4,108.9 76.1,108.5 78.8,108.2 81.6,107.7 84.3,107.1 87.0,106.5 89.7,106.3 92.4,105.8 95.1,104.0 97.8,103.5 100.6,102.8 103.3,102.1 106.0,101.5 108.7,100.9 111.4,100.5 114.1,100.2 116.8,99.7 119.5,98.9 122.3,98.1 125.0,97.6 127.7,97.0 130.4,96.9 133.1,96.7 135.8,96.4 138.5,95.8 141.3,95.5 144.0,95.3 146.7,94.6 149.4,93.7 152.1,93.4 154.8,93.2 157.5,92.9 160.3,92.1 163.0,91.6 165.7,90.8 168.4,90.3 171.1,89.6 173.8,89.4 176.5,89.0 179.2,88.3 182.0,87.6 184.7,87.1 187.4,86.8 190.1,86.4 192.8,86.1 195.5,85.3 198.2,84.6 201.0,83.9 203.7,83.3 206.4,82.9 209.1,82.7 211.8,82.5 214.5,81.9 217.2,81.6 219.9,81.2 222.7,81.0 225.4,80.7 228.1,80.4 230.8,80.1 233.5,79.9 236.2,79.8 238.9,79.0 241.7,78.6 244.4,78.5 247.1,78.2 249.8,78.1 252.5,78.1 255.2,90.1 257.9,88.9 260.7,87.8 263.4,86.7 266.1,83.5 268.8,81.2 271.5,78.7 274.2,77.8 276.9,76.8 279.6,75.1 282.4,73.3 285.1,72.0 287.8,71.5 290.5,71.0 293.2,69.7 295.9,68.7 298.6,68.1 301.4,67.3 304.1,67.0 306.8,66.9 309.5,66.2 312.2,65.1 314.9,64.3 317.6,63.5 320.4,62.5 323.1,62.1 325.8,61.8 328.5,61.0 331.2,60.3 333.9,59.7 336.6,59.1 339.3,58.9 342.1,58.7 344.8,58.3 347.5,57.7 350.2,57.3 352.9,56.9 355.6,56.5 358.3,56.2 361.1,55.8 363.8,55.5 366.5,55.3 369.2,54.9 371.9,54.3 374.6,53.9 377.3,53.3 380.1,53.0 382.8,52.7 385.5,52.4 388.2,52.1 390.9,51.9 393.6,51.0 396.3,50.4 399.0,49.7 401.8,49.4 404.5,49.3 407.2,49.0 409.9,48.6 412.6,48.2 415.3,47.8 418.0,47.2 420.8,46.9 423.5,46.7 426.2,46.4 428.9,46.2 431.6,45.9 434.3,45.6 437.0,45.3 439.7,44.8 442.5,44.5 445.2,44.4 447.9,44.1 450.6,44.0 453.3,43.5 456.0,43.1 458.7,42.7 461.5,42.4 464.2,42.0 466.9,41.7 469.6,41.5 472.3,41.3 475.0,40.7 477.7,40.2 480.5,39.9 483.2,39.5 485.9,38.8 488.6,38.7 491.3,38.5 494.0,38.3 496.7,38.0 499.4,37.7 502.2,37.3 504.9,37.1 507.6,36.8 510.3,36.5 513.0,36.2 515.7,36.0 518.4,35.8 521.2,35.5 523.9,35.0 526.6,34.8 529.3,34.4 532.0,34.3 534.7,34.0 537.4,33.7 540.2,33.5 542.9,33.3 545.6,33.0 548.3,32.5 551.0,31.9 553.7,31.6 556.4,31.3 559.1,31.2 561.9,31.1 564.6,30.7 567.3,30.2 570.0,30.0" />
  
  <!-- Punto finale luminoso -->
  <circle cx="570.0" cy="30.0" r="4" fill="#ffffff" stroke="#0366d6" stroke-width="2.5" />
</svg>