<svg width="600" height="150" viewBox="0 0 600 150" xmlns="http://www.w3.org/2000/svg">
  <defs>
    <filter id="shadow2" x="-2%" y="-2%" width="104%" height="108%">
      <feDropShadow dx="0" dy="2" stdDeviation="3" flood-opacity="0.1" />
    </filter>
    <linearGradient id="fillGrad" x1="0" y1="0" x2="0" y2="1">
      <stop offset="0%" stop-color="#0366d6" stop-opacity="0.3"/>
      <stop offset="100%" stop-color="#0366d6" stop-opacity="0.02"/>
    </linearGradient>
  </defs>
  <rect width="600" height="150" rx="12" fill="#ffffff" filter="url(#shadow2)" stroke="#e1e4e8" stroke-width="1"/>
  <text x="20" y="24" fill="#2b3137" font-family="-apple-system,BlinkMacSystemFont,'Segoe UI',Helvetica,Arial,sans-serif" font-size="14" font-weight="600">📈 Download Growth (Actual: 78.3k)</text>
  
  <!-- Area sotto la linea -->
  <polygon fill="url(#fillGrad)" points="30.0,120.0,120 30.0,120.0 32.4,119.1 34.9,118.2 37.3,117.3 39.8,117.1 42.2,116.7 44.7,115.6 47.1,115.0 49.5,114.5 52.0,113.4 54.4,112.9 56.9,112.4 59.3,112.1 61.8,111.6 64.2,110.9 66.7,110.1 69.1,109.5 71.5,109.2 74.0,108.9 76.4,108.4 78.9,107.8 81.3,107.4 83.8,107.1 86.2,106.6 88.6,105.0 91.1,104.5 93.5,103.8 96.0,103.2 98.4,102.6 100.9,102.1 103.3,101.7 105.7,101.4 108.2,101.0 110.6,100.1 113.1,99.4 115.5,99.0 118.0,98.4 120.4,98.3 122.9,98.1 125.3,97.8 127.7,97.3 130.2,97.0 132.6,96.8 135.1,96.1 137.5,95.2 140.0,95.0 142.4,94.9 144.8,94.5 147.3,93.8 149.7,93.3 152.2,92.6 154.6,92.1 157.1,91.4 159.5,91.3 161.9,90.9 164.4,90.2 166.8,89.6 169.3,89.0 171.7,88.8 174.2,88.5 176.6,88.2 179.0,87.4 181.5,86.7 183.9,86.1 186.4,85.5 188.8,85.2 191.3,85.0 193.7,84.7 196.2,84.2 198.6,83.9 201.0,83.6 203.5,83.4 205.9,83.1 208.4,82.8 210.8,82.5 213.3,82.4 215.7,82.2 218.1,81.5 220.6,81.1 223.0,81.0 225.5,80.8 227.9,80.6 230.4,80.6 232.8,91.9 235.2,90.8 237.7,89.8 240.1,88.8 242.6,85.7 245.0,83.5 247.5,81.2 249.9,80.4 252.4,79.4 254.8,77.8 257.2,76.1 259.7,74.9 262.1,74.4 264.6,73.9 267.0,72.7 269.5,71.8 271.9,71.2 274.3,70.5 276.8,70.2 279.2,70.1 281.7,69.4 284.1,68.4 286.6,67.6 289.0,66.9 291.4,66.0 293.9,65.6 296.3,65.3 298.8,64.6 301.2,64.0 303.7,63.3 306.1,62.8 308.6,62.6 311.0,62.4 313.4,62.1 315.9,61.5 318.3,61.1 320.8,60.7 323.2,60.4 325.7,60.0 328.1,59.7 330.5,59.4 333.0,59.2 335.4,58.9 337.9,58.3 340.3,57.9 342.8,57.4 345.2,57.1 347.6,56.7 350.1,56.5 352.5,56.3 355.0,56.0 357.4,55.2 359.9,54.6 362.3,54.0 364.8,53.7 367.2,53.6 369.6,53.3 372.1,52.9 374.5,52.5 377.0,52.1 379.4,51.6 381.9,51.3 384.3,51.1 386.7,50.9 389.2,50.7 391.6,50.4 394.1,50.1 396.5,49.8 399.0,49.3 401.4,49.1 403.8,49.0 406.3,48.7 408.7,48.6 411.2,48.1 413.6,47.8 416.1,47.4 418.5,47.1 421.0,46.7 423.4,46.5 425.8,46.3 428.3,46.0 430.7,45.5 433.2,45.1 435.6,44.7 438.1,44.4 440.5,43.8 442.9,43.6 445.4,43.4 447.8,43.3 450.3,42.9 452.7,42.7 455.2,42.3 457.6,42.1 460.0,41.8 462.5,41.6 464.9,41.3 467.4,41.1 469.8,40.9 472.3,40.6 474.7,40.2 477.1,40.0 479.6,39.6 482.0,39.5 484.5,39.2 486.9,39.0 489.4,38.8 491.8,38.6 494.3,38.3 496.7,37.8 499.1,37.3 501.6,37.0 504.0,36.7 506.5,36.6 508.9,36.5 511.4,36.1 513.8,35.7 516.2,35.5 518.7,35.3 521.1,35.0 523.6,34.7 526.0,34.4 528.5,34.2 530.9,34.0 533.3,33.6 535.8,33.3 538.2,32.9 540.7,32.6 543.1,32.4 545.6,32.3 548.0,32.2 550.5,32.0 552.9,31.7 555.3,31.4 557.8,31.1 560.2,30.8 562.7,30.6 565.1,30.5 567.6,30.2 570.0,30.0 570.0,30.0,120" />
  
  <!-- Linea principale -->
  <polyline fill="none" stroke="#0366d6" stroke-width="2.5" stroke-linecap="round" stroke-linejoin="round" points="30.0,120.0 32.4,119.1 34.9,118.2 37.3,117.3 39.8,117.1 42.2,116.7 44.7,115.6 47.1,115.0 49.5,114.5 52.0,113.4 54.4,112.9 56.9,112.4 59.3,112.1 61.8,111.6 64.2,110.9 66.7,110.1 69.1,109.5 71.5,109.2 74.0,108.9 76.4,108.4 78.9,107.8 81.3,107.4 83.8,107.1 86.2,106.6 88.6,105.0 91.1,104.5 93.5,103.8 96.0,103.2 98.4,102.6 100.9,102.1 103.3,101.7 105.7,101.4 108.2,101.0 110.6,100.1 113.1,99.4 115.5,99.0 118.0,98.4 120.4,98.3 122.9,98.1 125.3,97.8 127.7,97.3 130.2,97.0 132.6,96.8 135.1,96.1 137.5,95.2 140.0,95.0 142.4,94.9 144.8,94.5 147.3,93.8 149.7,93.3 152.2,92.6 154.6,92.1 157.1,91.4 159.5,91.3 161.9,90.9 164.4,90.2 166.8,89.6 169.3,89.0 171.7,88.8 174.2,88.5 176.6,88.2 179.0,87.4 181.5,86.7 183.9,86.1 186.4,85.5 188.8,85.2 191.3,85.0 193.7,84.7 196.2,84.2 198.6,83.9 201.0,83.6 203.5,83.4 205.9,83.1 208.4,82.8 210.8,82.5 213.3,82.4 215.7,82.2 218.1,81.5 220.6,81.1 223.0,81.0 225.5,80.8 227.9,80.6 230.4,80.6 232.8,91.9 235.2,90.8 237.7,89.8 240.1,88.8 242.6,85.7 245.0,83.5 247.5,81.2 249.9,80.4 252.4,79.4 254.8,77.8 257.2,76.1 259.7,74.9 262.1,74.4 264.6,73.9 267.0,72.7 269.5,71.8 271.9,71.2 274.3,70.5 276.8,70.2 279.2,70.1 281.7,69.4 284.1,68.4 286.6,67.6 289.0,66.9 291.4,66.0 293.9,65.6 296.3,65.3 298.8,64.6 301.2,64.0 303.7,63.3 306.1,62.8 308.6,62.6 311.0,62.4 313.4,62.1 315.9,61.5 318.3,61.1 320.8,60.7 323.2,60.4 325.7,60.0 328.1,59.7 330.5,59.4 333.0,59.2 335.4,58.9 337.9,58.3 340.3,57.9 342.8,57.4 345.2,57.1 347.6,56.7 350.1,56.5 352.5,56.3 355.0,56.0 357.4,55.2 359.9,54.6 362.3,54.0 364.8,53.7 367.2,53.6 369.6,53.3 372.1,52.9 374.5,52.5 377.0,52.1 379.4,51.6 381.9,51.3 384.3,51.1 386.7,50.9 389.2,50.7 391.6,50.4 394.1,50.1 396.5,49.8 399.0,49.3 401.4,49.1 403.8,49.0 406.3,48.7 408.7,48.6 411.2,48.1 413.6,47.8 416.1,47.4 418.5,47.1 421.0,46.7 423.4,46.5 425.8,46.3 428.3,46.0 430.7,45.5 433.2,45.1 435.6,44.7 438.1,44.4 440.5,43.8 442.9,43.6 445.4,43.4 447.8,43.3 450.3,42.9 452.7,42.7 455.2,42.3 457.6,42.1 460.0,41.8 462.5,41.6 464.9,41.3 467.4,41.1 469.8,40.9 472.3,40.6 474.7,40.2 477.1,40.0 479.6,39.6 482.0,39.5 484.5,39.2 486.9,39.0 489.4,38.8 491.8,38.6 494.3,38.3 496.7,37.8 499.1,37.3 501.6,37.0 504.0,36.7 506.5,36.6 508.9,36.5 511.4,36.1 513.8,35.7 516.2,35.5 518.7,35.3 521.1,35.0 523.6,34.7 526.0,34.4 528.5,34.2 530.9,34.0 533.3,33.6 535.8,33.3 538.2,32.9 540.7,32.6 543.1,32.4 545.6,32.3 548.0,32.2 550.5,32.0 552.9,31.7 555.3,31.4 557.8,31.1 560.2,30.8 562.7,30.6 565.1,30.5 567.6,30.2 570.0,30.0" />
  
  <!-- Punto finale luminoso -->
  <circle cx="570.0" cy="30.0" r="4" fill="#ffffff" stroke="#0366d6" stroke-width="2.5" />
</svg>