<svg width="600" height="150" viewBox="0 0 600 150" xmlns="http://www.w3.org/2000/svg">
  <defs>
    <filter id="shadow2" x="-2%" y="-2%" width="104%" height="108%">
      <feDropShadow dx="0" dy="2" stdDeviation="3" flood-opacity="0.1" />
    </filter>
    <linearGradient id="fillGrad" x1="0" y1="0" x2="0" y2="1">
      <stop offset="0%" stop-color="#0366d6" stop-opacity="0.3"/>
      <stop offset="100%" stop-color="#0366d6" stop-opacity="0.02"/>
    </linearGradient>
  </defs>
  <rect width="600" height="150" rx="12" fill="#ffffff" filter="url(#shadow2)" stroke="#e1e4e8" stroke-width="1"/>
  <text x="20" y="24" fill="#2b3137" font-family="-apple-system,BlinkMacSystemFont,'Segoe UI',Helvetica,Arial,sans-serif" font-size="14" font-weight="600">📈 Download Growth (Actual: 78.2k)</text>
  
  <!-- Area sotto la linea -->
  <polygon fill="url(#fillGrad)" points="30.0,120.0,120 30.0,120.0 32.5,119.1 35.0,118.1 37.4,117.3 39.9,117.1 42.4,116.6 44.9,115.6 47.3,114.9 49.8,114.5 52.3,113.4 54.8,112.9 57.2,112.3 59.7,112.0 62.2,111.5 64.7,110.8 67.2,110.1 69.6,109.5 72.1,109.1 74.6,108.8 77.1,108.3 79.5,107.8 82.0,107.3 84.5,107.0 87.0,106.6 89.4,104.9 91.9,104.4 94.4,103.7 96.9,103.1 99.4,102.5 101.8,101.9 104.3,101.6 106.8,101.3 109.3,100.8 111.7,100.0 114.2,99.3 116.7,98.8 119.2,98.3 121.7,98.1 124.1,98.0 126.6,97.7 129.1,97.1 131.6,96.8 134.0,96.6 136.5,96.0 139.0,95.1 141.5,94.9 143.9,94.7 146.4,94.3 148.9,93.6 151.4,93.1 153.9,92.4 156.3,91.9 158.8,91.2 161.3,91.1 163.8,90.7 166.2,90.0 168.7,89.3 171.2,88.8 173.7,88.6 176.1,88.3 178.6,88.0 181.1,87.2 183.6,86.5 186.1,85.9 188.5,85.3 191.0,84.9 193.5,84.7 196.0,84.5 198.4,84.0 200.9,83.6 203.4,83.3 205.9,83.1 208.3,82.9 210.8,82.5 213.3,82.3 215.8,82.1 218.3,81.9 220.7,81.2 223.2,80.9 225.7,80.7 228.2,80.5 230.6,80.4 233.1,80.4 235.6,91.7 238.1,90.6 240.6,89.6 243.0,88.5 245.5,85.4 248.0,83.3 250.5,81.0 252.9,80.1 255.4,79.1 257.9,77.5 260.4,75.8 262.8,74.5 265.3,74.1 267.8,73.6 270.3,72.4 272.8,71.5 275.2,70.9 277.7,70.2 280.2,69.9 282.7,69.7 285.1,69.1 287.6,68.0 290.1,67.3 292.6,66.5 295.0,65.6 297.5,65.2 300.0,64.9 302.5,64.2 305.0,63.5 307.4,62.9 309.9,62.4 312.4,62.2 314.9,62.0 317.3,61.6 319.8,61.1 322.3,60.7 324.8,60.3 327.2,59.9 329.7,59.6 332.2,59.3 334.7,59.0 337.2,58.7 339.6,58.4 342.1,57.9 344.6,57.4 347.1,56.9 349.5,56.6 352.0,56.3 354.5,56.1 357.0,55.8 359.4,55.5 361.9,54.7 364.4,54.2 366.9,53.5 369.4,53.2 371.8,53.1 374.3,52.8 376.8,52.5 379.3,52.0 381.7,51.6 384.2,51.1 386.7,50.8 389.2,50.6 391.7,50.4 394.1,50.2 396.6,49.9 399.1,49.6 401.6,49.3 404.0,48.8 406.5,48.6 409.0,48.4 411.5,48.2 413.9,48.1 416.4,47.6 418.9,47.3 421.4,46.9 423.9,46.5 426.3,46.2 428.8,45.9 431.3,45.8 433.8,45.5 436.2,45.0 438.7,44.5 441.2,44.2 443.7,43.8 446.1,43.2 448.6,43.1 451.1,42.9 453.6,42.7 456.1,42.4 458.5,42.1 461.0,41.8 463.5,41.5 466.0,41.2 468.4,41.0 470.9,40.7 473.4,40.5 475.9,40.4 478.3,40.1 480.8,39.6 483.3,39.4 485.8,39.0 488.3,38.9 490.7,38.6 493.2,38.4 495.7,38.2 498.2,38.0 500.6,37.7 503.1,37.2 505.6,36.7 508.1,36.4 510.6,36.1 513.0,36.0 515.5,35.8 518.0,35.5 520.5,35.1 522.9,34.8 525.4,34.7 527.9,34.3 530.4,34.1 532.8,33.8 535.3,33.6 537.8,33.4 540.3,33.0 542.8,32.7 545.2,32.3 547.7,32.0 550.2,31.8 552.7,31.7 555.1,31.6 557.6,31.3 560.1,31.1 562.6,30.8 565.0,30.5 567.5,30.2 570.0,30.0 570.0,30.0,120" />
  
  <!-- Linea principale -->
  <polyline fill="none" stroke="#0366d6" stroke-width="2.5" stroke-linecap="round" stroke-linejoin="round" points="30.0,120.0 32.5,119.1 35.0,118.1 37.4,117.3 39.9,117.1 42.4,116.6 44.9,115.6 47.3,114.9 49.8,114.5 52.3,113.4 54.8,112.9 57.2,112.3 59.7,112.0 62.2,111.5 64.7,110.8 67.2,110.1 69.6,109.5 72.1,109.1 74.6,108.8 77.1,108.3 79.5,107.8 82.0,107.3 84.5,107.0 87.0,106.6 89.4,104.9 91.9,104.4 94.4,103.7 96.9,103.1 99.4,102.5 101.8,101.9 104.3,101.6 106.8,101.3 109.3,100.8 111.7,100.0 114.2,99.3 116.7,98.8 119.2,98.3 121.7,98.1 124.1,98.0 126.6,97.7 129.1,97.1 131.6,96.8 134.0,96.6 136.5,96.0 139.0,95.1 141.5,94.9 143.9,94.7 146.4,94.3 148.9,93.6 151.4,93.1 153.9,92.4 156.3,91.9 158.8,91.2 161.3,91.1 163.8,90.7 166.2,90.0 168.7,89.3 171.2,88.8 173.7,88.6 176.1,88.3 178.6,88.0 181.1,87.2 183.6,86.5 186.1,85.9 188.5,85.3 191.0,84.9 193.5,84.7 196.0,84.5 198.4,84.0 200.9,83.6 203.4,83.3 205.9,83.1 208.3,82.9 210.8,82.5 213.3,82.3 215.8,82.1 218.3,81.9 220.7,81.2 223.2,80.9 225.7,80.7 228.2,80.5 230.6,80.4 233.1,80.4 235.6,91.7 238.1,90.6 240.6,89.6 243.0,88.5 245.5,85.4 248.0,83.3 250.5,81.0 252.9,80.1 255.4,79.1 257.9,77.5 260.4,75.8 262.8,74.5 265.3,74.1 267.8,73.6 270.3,72.4 272.8,71.5 275.2,70.9 277.7,70.2 280.2,69.9 282.7,69.7 285.1,69.1 287.6,68.0 290.1,67.3 292.6,66.5 295.0,65.6 297.5,65.2 300.0,64.9 302.5,64.2 305.0,63.5 307.4,62.9 309.9,62.4 312.4,62.2 314.9,62.0 317.3,61.6 319.8,61.1 322.3,60.7 324.8,60.3 327.2,59.9 329.7,59.6 332.2,59.3 334.7,59.0 337.2,58.7 339.6,58.4 342.1,57.9 344.6,57.4 347.1,56.9 349.5,56.6 352.0,56.3 354.5,56.1 357.0,55.8 359.4,55.5 361.9,54.7 364.4,54.2 366.9,53.5 369.4,53.2 371.8,53.1 374.3,52.8 376.8,52.5 379.3,52.0 381.7,51.6 384.2,51.1 386.7,50.8 389.2,50.6 391.7,50.4 394.1,50.2 396.6,49.9 399.1,49.6 401.6,49.3 404.0,48.8 406.5,48.6 409.0,48.4 411.5,48.2 413.9,48.1 416.4,47.6 418.9,47.3 421.4,46.9 423.9,46.5 426.3,46.2 428.8,45.9 431.3,45.8 433.8,45.5 436.2,45.0 438.7,44.5 441.2,44.2 443.7,43.8 446.1,43.2 448.6,43.1 451.1,42.9 453.6,42.7 456.1,42.4 458.5,42.1 461.0,41.8 463.5,41.5 466.0,41.2 468.4,41.0 470.9,40.7 473.4,40.5 475.9,40.4 478.3,40.1 480.8,39.6 483.3,39.4 485.8,39.0 488.3,38.9 490.7,38.6 493.2,38.4 495.7,38.2 498.2,38.0 500.6,37.7 503.1,37.2 505.6,36.7 508.1,36.4 510.6,36.1 513.0,36.0 515.5,35.8 518.0,35.5 520.5,35.1 522.9,34.8 525.4,34.7 527.9,34.3 530.4,34.1 532.8,33.8 535.3,33.6 537.8,33.4 540.3,33.0 542.8,32.7 545.2,32.3 547.7,32.0 550.2,31.8 552.7,31.7 555.1,31.6 557.6,31.3 560.1,31.1 562.6,30.8 565.0,30.5 567.5,30.2 570.0,30.0" />
  
  <!-- Punto finale luminoso -->
  <circle cx="570.0" cy="30.0" r="4" fill="#ffffff" stroke="#0366d6" stroke-width="2.5" />
</svg>