<svg width="600" height="150" viewBox="0 0 600 150" xmlns="http://www.w3.org/2000/svg">
  <defs>
    <filter id="shadow2" x="-2%" y="-2%" width="104%" height="108%">
      <feDropShadow dx="0" dy="2" stdDeviation="3" flood-opacity="0.1" />
    </filter>
    <linearGradient id="fillGrad" x1="0" y1="0" x2="0" y2="1">
      <stop offset="0%" stop-color="#0366d6" stop-opacity="0.3"/>
      <stop offset="100%" stop-color="#0366d6" stop-opacity="0.02"/>
    </linearGradient>
  </defs>
  <rect width="600" height="150" rx="12" fill="#ffffff" filter="url(#shadow2)" stroke="#e1e4e8" stroke-width="1"/>
  <text x="20" y="24" fill="#2b3137" font-family="-apple-system,BlinkMacSystemFont,'Segoe UI',Helvetica,Arial,sans-serif" font-size="14" font-weight="600">📈 Download Growth (Actual: 78.9k)</text>
  
  <!-- Area sotto la linea -->
  <polygon fill="url(#fillGrad)" points="30.0,120.0,120 30.0,120.0 32.2,119.2 34.5,118.3 36.7,117.5 39.0,117.2 41.2,116.8 43.4,115.9 45.7,115.2 47.9,114.8 50.2,113.8 52.4,113.3 54.6,112.8 56.9,112.5 59.1,112.0 61.4,111.4 63.6,110.6 65.9,110.1 68.1,109.7 70.3,109.4 72.6,109.0 74.8,108.5 77.1,108.0 79.3,107.8 81.5,107.3 83.8,105.8 86.0,105.3 88.3,104.7 90.5,104.0 92.7,103.5 95.0,103.0 97.2,102.6 99.5,102.4 101.7,101.9 103.9,101.2 106.2,100.5 108.4,100.1 110.7,99.5 112.9,99.4 115.1,99.2 117.4,99.0 119.6,98.5 121.9,98.2 124.1,97.9 126.3,97.4 128.6,96.5 130.8,96.3 133.1,96.2 135.3,95.8 137.6,95.1 139.8,94.7 142.0,94.0 144.3,93.5 146.5,92.9 148.8,92.8 151.0,92.4 153.2,91.8 155.5,91.1 157.7,90.6 160.0,90.4 162.2,90.1 164.4,89.8 166.7,89.1 168.9,88.4 171.2,87.9 173.4,87.3 175.6,87.0 177.9,86.8 180.1,86.5 182.4,86.1 184.6,85.7 186.8,85.5 189.1,85.2 191.3,85.0 193.6,84.7 195.8,84.4 198.0,84.3 200.3,84.1 202.5,83.5 204.8,83.1 207.0,83.0 209.3,82.8 211.5,82.7 213.7,82.7 216.0,93.3 218.2,92.3 220.5,91.3 222.7,90.4 224.9,87.4 227.2,85.4 229.4,83.2 231.7,82.4 233.9,81.5 236.1,80.0 238.4,78.4 240.6,77.2 242.9,76.7 245.1,76.3 247.3,75.1 249.6,74.3 251.8,73.7 254.1,73.0 256.3,72.8 258.5,72.6 260.8,72.0 263.0,71.0 265.3,70.3 267.5,69.6 269.8,68.8 272.0,68.4 274.2,68.1 276.5,67.4 278.7,66.8 281.0,66.2 283.2,65.8 285.4,65.5 287.7,65.4 289.9,65.0 292.2,64.5 294.4,64.1 296.6,63.7 298.9,63.4 301.1,63.1 303.4,62.8 305.6,62.5 307.8,62.3 310.1,62.0 312.3,61.5 314.6,61.1 316.8,60.6 319.0,60.3 321.3,60.0 323.5,59.8 325.8,59.5 328.0,59.3 330.2,58.5 332.5,58.0 334.7,57.3 337.0,57.1 339.2,57.0 341.5,56.7 343.7,56.4 345.9,56.0 348.2,55.6 350.4,55.1 352.7,54.8 354.9,54.7 357.1,54.4 359.4,54.2 361.6,54.0 363.9,53.7 366.1,53.4 368.3,53.0 370.6,52.7 372.8,52.6 375.1,52.4 377.3,52.2 379.5,51.8 381.8,51.5 384.0,51.1 386.3,50.8 388.5,50.5 390.7,50.2 393.0,50.1 395.2,49.8 397.5,49.4 399.7,48.9 402.0,48.6 404.2,48.3 406.4,47.7 408.7,47.5 410.9,47.3 413.2,47.2 415.4,46.9 417.6,46.6 419.9,46.3 422.1,46.1 424.4,45.8 426.6,45.6 428.8,45.3 431.1,45.1 433.3,45.0 435.6,44.7 437.8,44.3 440.0,44.1 442.3,43.7 444.5,43.6 446.8,43.4 449.0,43.1 451.2,42.9 453.5,42.7 455.7,42.5 458.0,42.0 460.2,41.5 462.4,41.2 464.7,40.9 466.9,40.8 469.2,40.7 471.4,40.4 473.7,40.0 475.9,39.8 478.1,39.6 480.4,39.3 482.6,39.1 484.9,38.8 487.1,38.6 489.3,38.4 491.6,38.0 493.8,37.8 496.1,37.4 498.3,37.1 500.5,36.9 502.8,36.8 505.0,36.7 507.3,36.5 509.5,36.2 511.7,36.0 514.0,35.7 516.2,35.4 518.5,35.2 520.7,35.0 522.9,34.8 525.2,34.6 527.4,34.3 529.7,33.9 531.9,33.6 534.1,33.4 536.4,33.2 538.6,33.0 540.9,32.9 543.1,32.7 545.4,32.6 547.6,32.3 549.8,32.0 552.1,31.7 554.3,31.5 556.6,31.3 558.8,31.1 561.0,30.9 563.3,30.6 565.5,30.4 567.8,30.2 570.0,30.0 570.0,30.0,120" />
  
  <!-- Linea principale -->
  <polyline fill="none" stroke="#0366d6" stroke-width="2.5" stroke-linecap="round" stroke-linejoin="round" points="30.0,120.0 32.2,119.2 34.5,118.3 36.7,117.5 39.0,117.2 41.2,116.8 43.4,115.9 45.7,115.2 47.9,114.8 50.2,113.8 52.4,113.3 54.6,112.8 56.9,112.5 59.1,112.0 61.4,111.4 63.6,110.6 65.9,110.1 68.1,109.7 70.3,109.4 72.6,109.0 74.8,108.5 77.1,108.0 79.3,107.8 81.5,107.3 83.8,105.8 86.0,105.3 88.3,104.7 90.5,104.0 92.7,103.5 95.0,103.0 97.2,102.6 99.5,102.4 101.7,101.9 103.9,101.2 106.2,100.5 108.4,100.1 110.7,99.5 112.9,99.4 115.1,99.2 117.4,99.0 119.6,98.5 121.9,98.2 124.1,97.9 126.3,97.4 128.6,96.5 130.8,96.3 133.1,96.2 135.3,95.8 137.6,95.1 139.8,94.7 142.0,94.0 144.3,93.5 146.5,92.9 148.8,92.8 151.0,92.4 153.2,91.8 155.5,91.1 157.7,90.6 160.0,90.4 162.2,90.1 164.4,89.8 166.7,89.1 168.9,88.4 171.2,87.9 173.4,87.3 175.6,87.0 177.9,86.8 180.1,86.5 182.4,86.1 184.6,85.7 186.8,85.5 189.1,85.2 191.3,85.0 193.6,84.7 195.8,84.4 198.0,84.3 200.3,84.1 202.5,83.5 204.8,83.1 207.0,83.0 209.3,82.8 211.5,82.7 213.7,82.7 216.0,93.3 218.2,92.3 220.5,91.3 222.7,90.4 224.9,87.4 227.2,85.4 229.4,83.2 231.7,82.4 233.9,81.5 236.1,80.0 238.4,78.4 240.6,77.2 242.9,76.7 245.1,76.3 247.3,75.1 249.6,74.3 251.8,73.7 254.1,73.0 256.3,72.8 258.5,72.6 260.8,72.0 263.0,71.0 265.3,70.3 267.5,69.6 269.8,68.8 272.0,68.4 274.2,68.1 276.5,67.4 278.7,66.8 281.0,66.2 283.2,65.8 285.4,65.5 287.7,65.4 289.9,65.0 292.2,64.5 294.4,64.1 296.6,63.7 298.9,63.4 301.1,63.1 303.4,62.8 305.6,62.5 307.8,62.3 310.1,62.0 312.3,61.5 314.6,61.1 316.8,60.6 319.0,60.3 321.3,60.0 323.5,59.8 325.8,59.5 328.0,59.3 330.2,58.5 332.5,58.0 334.7,57.3 337.0,57.1 339.2,57.0 341.5,56.7 343.7,56.4 345.9,56.0 348.2,55.6 350.4,55.1 352.7,54.8 354.9,54.7 357.1,54.4 359.4,54.2 361.6,54.0 363.9,53.7 366.1,53.4 368.3,53.0 370.6,52.7 372.8,52.6 375.1,52.4 377.3,52.2 379.5,51.8 381.8,51.5 384.0,51.1 386.3,50.8 388.5,50.5 390.7,50.2 393.0,50.1 395.2,49.8 397.5,49.4 399.7,48.9 402.0,48.6 404.2,48.3 406.4,47.7 408.7,47.5 410.9,47.3 413.2,47.2 415.4,46.9 417.6,46.6 419.9,46.3 422.1,46.1 424.4,45.8 426.6,45.6 428.8,45.3 431.1,45.1 433.3,45.0 435.6,44.7 437.8,44.3 440.0,44.1 442.3,43.7 444.5,43.6 446.8,43.4 449.0,43.1 451.2,42.9 453.5,42.7 455.7,42.5 458.0,42.0 460.2,41.5 462.4,41.2 464.7,40.9 466.9,40.8 469.2,40.7 471.4,40.4 473.7,40.0 475.9,39.8 478.1,39.6 480.4,39.3 482.6,39.1 484.9,38.8 487.1,38.6 489.3,38.4 491.6,38.0 493.8,37.8 496.1,37.4 498.3,37.1 500.5,36.9 502.8,36.8 505.0,36.7 507.3,36.5 509.5,36.2 511.7,36.0 514.0,35.7 516.2,35.4 518.5,35.2 520.7,35.0 522.9,34.8 525.2,34.6 527.4,34.3 529.7,33.9 531.9,33.6 534.1,33.4 536.4,33.2 538.6,33.0 540.9,32.9 543.1,32.7 545.4,32.6 547.6,32.3 549.8,32.0 552.1,31.7 554.3,31.5 556.6,31.3 558.8,31.1 561.0,30.9 563.3,30.6 565.5,30.4 567.8,30.2 570.0,30.0" />
  
  <!-- Punto finale luminoso -->
  <circle cx="570.0" cy="30.0" r="4" fill="#ffffff" stroke="#0366d6" stroke-width="2.5" />
</svg>