<svg width="600" height="150" viewBox="0 0 600 150" xmlns="http://www.w3.org/2000/svg">
  <defs>
    <filter id="shadow2" x="-2%" y="-2%" width="104%" height="108%">
      <feDropShadow dx="0" dy="2" stdDeviation="3" flood-opacity="0.1" />
    </filter>
    <linearGradient id="fillGrad" x1="0" y1="0" x2="0" y2="1">
      <stop offset="0%" stop-color="#0366d6" stop-opacity="0.3"/>
      <stop offset="100%" stop-color="#0366d6" stop-opacity="0.02"/>
    </linearGradient>
  </defs>
  <rect width="600" height="150" rx="12" fill="#ffffff" filter="url(#shadow2)" stroke="#e1e4e8" stroke-width="1"/>
  <text x="20" y="24" fill="#2b3137" font-family="-apple-system,BlinkMacSystemFont,'Segoe UI',Helvetica,Arial,sans-serif" font-size="14" font-weight="600">📈 Download Growth (Actual: 81.4k)</text>
  
  <!-- Area sotto la linea -->
  <polygon fill="url(#fillGrad)" points="30.0,120.0,120 30.0,120.0 31.9,119.3 33.8,118.6 35.7,117.9 37.7,117.7 39.6,117.4 41.5,116.6 43.4,116.0 45.3,115.7 47.2,114.8 49.1,114.4 51.1,114.0 53.0,113.8 54.9,113.4 56.8,112.8 58.7,112.2 60.6,111.8 62.6,111.5 64.5,111.3 66.4,110.9 68.3,110.4 70.2,110.1 72.1,109.9 74.0,109.5 76.0,108.2 77.9,107.8 79.8,107.3 81.7,106.8 83.6,106.3 85.5,105.9 87.4,105.6 89.4,105.4 91.3,105.0 93.2,104.4 95.1,103.8 97.0,103.5 98.9,103.0 100.9,102.9 102.8,102.8 104.7,102.6 106.6,102.2 108.5,101.9 110.4,101.7 112.3,101.3 114.3,100.5 116.2,100.4 118.1,100.2 120.0,100.0 121.9,99.4 123.8,99.0 125.7,98.5 127.7,98.1 129.6,97.5 131.5,97.4 133.4,97.1 135.3,96.6 137.2,96.1 139.1,95.7 141.1,95.5 143.0,95.2 144.9,95.0 146.8,94.4 148.7,93.9 150.6,93.4 152.6,92.9 154.5,92.6 156.4,92.5 158.3,92.3 160.2,91.9 162.1,91.6 164.0,91.4 166.0,91.2 167.9,91.0 169.8,90.7 171.7,90.5 173.6,90.4 175.5,90.3 177.4,89.8 179.4,89.5 181.3,89.4 183.2,89.2 185.1,89.1 187.0,89.1 188.9,97.9 190.9,97.0 192.8,96.3 194.7,95.4 196.6,93.0 198.5,91.3 200.4,89.5 202.3,88.9 204.3,88.1 206.2,86.9 208.1,85.5 210.0,84.5 211.9,84.2 213.8,83.8 215.7,82.8 217.7,82.1 219.6,81.7 221.5,81.1 223.4,80.9 225.3,80.8 227.2,80.3 229.1,79.4 231.1,78.8 233.0,78.3 234.9,77.6 236.8,77.3 238.7,77.0 240.6,76.5 242.6,75.9 244.5,75.5 246.4,75.1 248.3,74.9 250.2,74.8 252.1,74.5 254.0,74.0 256.0,73.7 257.9,73.4 259.8,73.1 261.7,72.9 263.6,72.6 265.5,72.4 267.4,72.2 269.4,72.0 271.3,71.5 273.2,71.2 275.1,70.8 277.0,70.5 278.9,70.3 280.9,70.1 282.8,69.9 284.7,69.7 286.6,69.0 288.5,68.6 290.4,68.1 292.3,67.9 294.3,67.8 296.2,67.6 298.1,67.3 300.0,67.0 301.9,66.7 303.8,66.3 305.7,66.0 307.7,65.9 309.6,65.7 311.5,65.5 313.4,65.3 315.3,65.1 317.2,64.8 319.1,64.5 321.1,64.3 323.0,64.2 324.9,64.0 326.8,63.9 328.7,63.5 330.6,63.3 332.6,62.9 334.5,62.7 336.4,62.4 338.3,62.2 340.2,62.1 342.1,61.9 344.0,61.5 346.0,61.1 347.9,60.8 349.8,60.6 351.7,60.1 353.6,60.0 355.5,59.8 357.4,59.7 359.4,59.4 361.3,59.2 363.2,59.0 365.1,58.8 367.0,58.5 368.9,58.4 370.9,58.1 372.8,58.0 374.7,57.9 376.6,57.6 378.5,57.3 380.4,57.1 382.3,56.8 384.3,56.7 386.2,56.5 388.1,56.3 390.0,56.2 391.9,56.0 393.8,55.8 395.7,55.4 397.7,55.0 399.6,54.7 401.5,54.5 403.4,54.4 405.3,54.3 407.2,54.1 409.1,53.7 411.1,53.6 413.0,53.4 414.9,53.2 416.8,53.0 418.7,52.7 420.6,52.6 422.6,52.4 424.5,52.1 426.4,51.9 428.3,51.6 430.2,51.3 432.1,51.2 434.0,51.1 436.0,51.0 437.9,50.8 439.8,50.6 441.7,50.4 443.6,50.2 445.5,49.9 447.4,49.8 449.4,49.6 451.3,49.4 453.2,49.3 455.1,49.0 457.0,48.7 458.9,48.5 460.9,48.2 462.8,48.1 464.7,48.0 466.6,47.8 468.5,47.7 470.4,47.6 472.3,47.4 474.3,47.1 476.2,46.9 478.1,46.7 480.0,46.5 481.9,46.4 483.8,46.2 485.7,45.9 487.7,45.8 489.6,45.6 491.5,45.4 493.4,45.2 495.3,45.0 497.2,44.8 499.1,44.7 501.1,44.6 503.0,44.4 504.9,44.3 506.8,44.1 508.7,43.9 510.6,43.9 512.6,43.7 514.5,43.3 516.4,43.0 518.3,48.8 520.2,47.6 522.1,45.4 524.0,44.6 526.0,43.6 527.9,42.4 529.8,41.7 531.7,41.2 533.6,40.4 535.5,39.1 537.4,38.2 539.4,37.9 541.3,37.4 543.2,37.1 545.1,36.4 547.0,35.8 548.9,35.1 550.9,34.8 552.8,34.1 554.7,33.8 556.6,33.3 558.5,33.1 560.4,32.7 562.3,32.4 564.3,31.8 566.2,31.4 568.1,30.8 570.0,30.0 570.0,30.0,120" />
  
  <!-- Linea principale -->
  <polyline fill="none" stroke="#0366d6" stroke-width="2.5" stroke-linecap="round" stroke-linejoin="round" points="30.0,120.0 31.9,119.3 33.8,118.6 35.7,117.9 37.7,117.7 39.6,117.4 41.5,116.6 43.4,116.0 45.3,115.7 47.2,114.8 49.1,114.4 51.1,114.0 53.0,113.8 54.9,113.4 56.8,112.8 58.7,112.2 60.6,111.8 62.6,111.5 64.5,111.3 66.4,110.9 68.3,110.4 70.2,110.1 72.1,109.9 74.0,109.5 76.0,108.2 77.9,107.8 79.8,107.3 81.7,106.8 83.6,106.3 85.5,105.9 87.4,105.6 89.4,105.4 91.3,105.0 93.2,104.4 95.1,103.8 97.0,103.5 98.9,103.0 100.9,102.9 102.8,102.8 104.7,102.6 106.6,102.2 108.5,101.9 110.4,101.7 112.3,101.3 114.3,100.5 116.2,100.4 118.1,100.2 120.0,100.0 121.9,99.4 123.8,99.0 125.7,98.5 127.7,98.1 129.6,97.5 131.5,97.4 133.4,97.1 135.3,96.6 137.2,96.1 139.1,95.7 141.1,95.5 143.0,95.2 144.9,95.0 146.8,94.4 148.7,93.9 150.6,93.4 152.6,92.9 154.5,92.6 156.4,92.5 158.3,92.3 160.2,91.9 162.1,91.6 164.0,91.4 166.0,91.2 167.9,91.0 169.8,90.7 171.7,90.5 173.6,90.4 175.5,90.3 177.4,89.8 179.4,89.5 181.3,89.4 183.2,89.2 185.1,89.1 187.0,89.1 188.9,97.9 190.9,97.0 192.8,96.3 194.7,95.4 196.6,93.0 198.5,91.3 200.4,89.5 202.3,88.9 204.3,88.1 206.2,86.9 208.1,85.5 210.0,84.5 211.9,84.2 213.8,83.8 215.7,82.8 217.7,82.1 219.6,81.7 221.5,81.1 223.4,80.9 225.3,80.8 227.2,80.3 229.1,79.4 231.1,78.8 233.0,78.3 234.9,77.6 236.8,77.3 238.7,77.0 240.6,76.5 242.6,75.9 244.5,75.5 246.4,75.1 248.3,74.9 250.2,74.8 252.1,74.5 254.0,74.0 256.0,73.7 257.9,73.4 259.8,73.1 261.7,72.9 263.6,72.6 265.5,72.4 267.4,72.2 269.4,72.0 271.3,71.5 273.2,71.2 275.1,70.8 277.0,70.5 278.9,70.3 280.9,70.1 282.8,69.9 284.7,69.7 286.6,69.0 288.5,68.6 290.4,68.1 292.3,67.9 294.3,67.8 296.2,67.6 298.1,67.3 300.0,67.0 301.9,66.7 303.8,66.3 305.7,66.0 307.7,65.9 309.6,65.7 311.5,65.5 313.4,65.3 315.3,65.1 317.2,64.8 319.1,64.5 321.1,64.3 323.0,64.2 324.9,64.0 326.8,63.9 328.7,63.5 330.6,63.3 332.6,62.9 334.5,62.7 336.4,62.4 338.3,62.2 340.2,62.1 342.1,61.9 344.0,61.5 346.0,61.1 347.9,60.8 349.8,60.6 351.7,60.1 353.6,60.0 355.5,59.8 357.4,59.7 359.4,59.4 361.3,59.2 363.2,59.0 365.1,58.8 367.0,58.5 368.9,58.4 370.9,58.1 372.8,58.0 374.7,57.9 376.6,57.6 378.5,57.3 380.4,57.1 382.3,56.8 384.3,56.7 386.2,56.5 388.1,56.3 390.0,56.2 391.9,56.0 393.8,55.8 395.7,55.4 397.7,55.0 399.6,54.7 401.5,54.5 403.4,54.4 405.3,54.3 407.2,54.1 409.1,53.7 411.1,53.6 413.0,53.4 414.9,53.2 416.8,53.0 418.7,52.7 420.6,52.6 422.6,52.4 424.5,52.1 426.4,51.9 428.3,51.6 430.2,51.3 432.1,51.2 434.0,51.1 436.0,51.0 437.9,50.8 439.8,50.6 441.7,50.4 443.6,50.2 445.5,49.9 447.4,49.8 449.4,49.6 451.3,49.4 453.2,49.3 455.1,49.0 457.0,48.7 458.9,48.5 460.9,48.2 462.8,48.1 464.7,48.0 466.6,47.8 468.5,47.7 470.4,47.6 472.3,47.4 474.3,47.1 476.2,46.9 478.1,46.7 480.0,46.5 481.9,46.4 483.8,46.2 485.7,45.9 487.7,45.8 489.6,45.6 491.5,45.4 493.4,45.2 495.3,45.0 497.2,44.8 499.1,44.7 501.1,44.6 503.0,44.4 504.9,44.3 506.8,44.1 508.7,43.9 510.6,43.9 512.6,43.7 514.5,43.3 516.4,43.0 518.3,48.8 520.2,47.6 522.1,45.4 524.0,44.6 526.0,43.6 527.9,42.4 529.8,41.7 531.7,41.2 533.6,40.4 535.5,39.1 537.4,38.2 539.4,37.9 541.3,37.4 543.2,37.1 545.1,36.4 547.0,35.8 548.9,35.1 550.9,34.8 552.8,34.1 554.7,33.8 556.6,33.3 558.5,33.1 560.4,32.7 562.3,32.4 564.3,31.8 566.2,31.4 568.1,30.8 570.0,30.0" />
  
  <!-- Punto finale luminoso -->
  <circle cx="570.0" cy="30.0" r="4" fill="#ffffff" stroke="#0366d6" stroke-width="2.5" />
</svg>