<svg width="600" height="150" viewBox="0 0 600 150" xmlns="http://www.w3.org/2000/svg">
  <defs>
    <filter id="shadow2" x="-2%" y="-2%" width="104%" height="108%">
      <feDropShadow dx="0" dy="2" stdDeviation="3" flood-opacity="0.1" />
    </filter>
    <linearGradient id="fillGrad" x1="0" y1="0" x2="0" y2="1">
      <stop offset="0%" stop-color="#0366d6" stop-opacity="0.3"/>
      <stop offset="100%" stop-color="#0366d6" stop-opacity="0.02"/>
    </linearGradient>
  </defs>
  <rect width="600" height="150" rx="12" fill="#ffffff" filter="url(#shadow2)" stroke="#e1e4e8" stroke-width="1"/>
  <text x="20" y="24" fill="#2b3137" font-family="-apple-system,BlinkMacSystemFont,'Segoe UI',Helvetica,Arial,sans-serif" font-size="14" font-weight="600">📈 Download Growth (Actual: 71.3k)</text>
  
  <!-- Area sotto la linea -->
  <polygon fill="url(#fillGrad)" points="30.0,120.0,120 30.0,120.0 38.2,117.7 46.4,115.3 54.5,113.1 62.7,112.5 70.9,111.4 79.1,108.8 87.3,107.0 95.5,105.8 103.6,103.1 111.8,101.8 120.0,100.4 128.2,99.6 136.4,98.4 144.5,96.6 152.7,94.6 160.9,93.1 169.1,92.1 177.3,91.4 185.5,90.2 193.6,88.7 201.8,87.5 210.0,86.9 218.2,85.7 226.4,81.4 234.5,80.1 242.7,78.4 250.9,76.8 259.1,75.3 267.3,73.9 275.5,72.9 283.6,72.2 291.8,71.0 300.0,68.9 308.2,67.2 316.4,65.9 324.5,64.5 332.7,64.1 340.9,63.7 349.1,63.0 357.3,61.6 365.5,60.8 373.6,60.2 381.8,58.7 390.0,56.4 398.2,55.8 406.4,55.4 414.5,54.5 422.7,52.6 430.9,51.4 439.1,49.5 447.3,48.2 455.5,46.5 463.6,46.2 471.8,45.2 480.0,43.5 488.2,41.7 496.4,40.4 504.5,39.8 512.7,39.0 520.9,38.2 529.1,36.3 537.3,34.5 545.5,32.9 553.6,31.3 561.8,30.5 570.0,30.0 570.0,30.0,120" />
  
  <!-- Linea principale -->
  <polyline fill="none" stroke="#0366d6" stroke-width="2.5" stroke-linecap="round" stroke-linejoin="round" points="30.0,120.0 38.2,117.7 46.4,115.3 54.5,113.1 62.7,112.5 70.9,111.4 79.1,108.8 87.3,107.0 95.5,105.8 103.6,103.1 111.8,101.8 120.0,100.4 128.2,99.6 136.4,98.4 144.5,96.6 152.7,94.6 160.9,93.1 169.1,92.1 177.3,91.4 185.5,90.2 193.6,88.7 201.8,87.5 210.0,86.9 218.2,85.7 226.4,81.4 234.5,80.1 242.7,78.4 250.9,76.8 259.1,75.3 267.3,73.9 275.5,72.9 283.6,72.2 291.8,71.0 300.0,68.9 308.2,67.2 316.4,65.9 324.5,64.5 332.7,64.1 340.9,63.7 349.1,63.0 357.3,61.6 365.5,60.8 373.6,60.2 381.8,58.7 390.0,56.4 398.2,55.8 406.4,55.4 414.5,54.5 422.7,52.6 430.9,51.4 439.1,49.5 447.3,48.2 455.5,46.5 463.6,46.2 471.8,45.2 480.0,43.5 488.2,41.7 496.4,40.4 504.5,39.8 512.7,39.0 520.9,38.2 529.1,36.3 537.3,34.5 545.5,32.9 553.6,31.3 561.8,30.5 570.0,30.0" />
  
  <!-- Punto finale luminoso -->
  <circle cx="570.0" cy="30.0" r="4" fill="#ffffff" stroke="#0366d6" stroke-width="2.5" />
</svg>