<svg width="600" height="150" viewBox="0 0 600 150" xmlns="http://www.w3.org/2000/svg">
  <defs>
    <filter id="shadow2" x="-2%" y="-2%" width="104%" height="108%">
      <feDropShadow dx="0" dy="2" stdDeviation="3" flood-opacity="0.1" />
    </filter>
    <linearGradient id="fillGrad" x1="0" y1="0" x2="0" y2="1">
      <stop offset="0%" stop-color="#0366d6" stop-opacity="0.3"/>
      <stop offset="100%" stop-color="#0366d6" stop-opacity="0.02"/>
    </linearGradient>
  </defs>
  <rect width="600" height="150" rx="12" fill="#ffffff" filter="url(#shadow2)" stroke="#e1e4e8" stroke-width="1"/>
  <text x="20" y="24" fill="#2b3137" font-family="-apple-system,BlinkMacSystemFont,'Segoe UI',Helvetica,Arial,sans-serif" font-size="14" font-weight="600">📈 Download Growth (Actual: 88.2k)</text>
  
  <!-- Area sotto la linea -->
  <polygon fill="url(#fillGrad)" points="30.0,120.0,120 30.0,120.0 31.3,119.5 32.5,119.0 33.8,118.6 35.0,118.4 36.3,118.2 37.5,117.7 38.8,117.3 40.0,117.0 41.3,116.5 42.6,116.2 43.8,115.9 45.1,115.8 46.3,115.5 47.6,115.1 48.8,114.7 50.1,114.4 51.3,114.2 52.6,114.0 53.9,113.8 55.1,113.5 56.4,113.2 57.6,113.1 58.9,112.8 60.1,111.9 61.4,111.7 62.7,111.3 63.9,111.0 65.2,110.7 66.4,110.4 67.7,110.2 68.9,110.0 70.2,109.8 71.4,109.3 72.7,109.0 74.0,108.7 75.2,108.4 76.5,108.3 77.7,108.3 79.0,108.1 80.2,107.8 81.5,107.7 82.7,107.5 84.0,107.2 85.3,106.7 86.5,106.6 87.8,106.5 89.0,106.3 90.3,106.0 91.5,105.7 92.8,105.3 94.0,105.0 95.3,104.7 96.6,104.6 97.8,104.4 99.1,104.0 100.3,103.7 101.6,103.4 102.8,103.3 104.1,103.1 105.3,102.9 106.6,102.5 107.9,102.2 109.1,101.8 110.4,101.5 111.6,101.3 112.9,101.2 114.1,101.1 115.4,100.8 116.7,100.6 117.9,100.5 119.2,100.3 120.4,100.2 121.7,100.0 122.9,99.9 124.2,99.8 125.4,99.7 126.7,99.4 128.0,99.2 129.2,99.1 130.5,99.0 131.7,98.9 133.0,98.9 134.2,104.9 135.5,104.3 136.7,103.8 138.0,103.2 139.3,101.6 140.5,100.4 141.8,99.2 143.0,98.8 144.3,98.2 145.5,97.4 146.8,96.5 148.0,95.8 149.3,95.5 150.6,95.3 151.8,94.6 153.1,94.2 154.3,93.8 155.6,93.5 156.8,93.3 158.1,93.2 159.3,92.9 160.6,92.3 161.9,91.9 163.1,91.5 164.4,91.1 165.6,90.8 166.9,90.7 168.1,90.3 169.4,89.9 170.7,89.6 171.9,89.3 173.2,89.2 174.4,89.1 175.7,88.9 176.9,88.6 178.2,88.4 179.4,88.2 180.7,88.0 182.0,87.8 183.2,87.7 184.5,87.5 185.7,87.4 187.0,87.2 188.2,86.9 189.5,86.7 190.7,86.4 192.0,86.3 193.3,86.1 194.5,86.0 195.8,85.8 197.0,85.7 198.3,85.2 199.5,84.9 200.8,84.6 202.0,84.4 203.3,84.4 204.6,84.2 205.8,84.0 207.1,83.8 208.3,83.6 209.6,83.3 210.8,83.2 212.1,83.1 213.3,82.9 214.6,82.8 215.9,82.7 217.1,82.5 218.4,82.4 219.6,82.1 220.9,82.0 222.1,81.9 223.4,81.8 224.7,81.7 225.9,81.5 227.2,81.3 228.4,81.1 229.7,80.9 230.9,80.7 232.2,80.6 233.4,80.5 234.7,80.3 236.0,80.1 237.2,79.8 238.5,79.6 239.7,79.4 241.0,79.1 242.2,79.0 243.5,78.9 244.7,78.8 246.0,78.7 247.3,78.5 248.5,78.4 249.8,78.2 251.0,78.1 252.3,77.9 253.5,77.8 254.8,77.7 256.0,77.6 257.3,77.4 258.6,77.2 259.8,77.1 261.1,76.9 262.3,76.8 263.6,76.7 264.8,76.5 266.1,76.4 267.3,76.3 268.6,76.2 269.9,75.9 271.1,75.6 272.4,75.5 273.6,75.3 274.9,75.3 276.1,75.2 277.4,75.0 278.7,74.8 279.9,74.7 281.2,74.6 282.4,74.4 283.7,74.3 284.9,74.1 286.2,74.0 287.4,73.9 288.7,73.7 290.0,73.5 291.2,73.3 292.5,73.1 293.7,73.0 295.0,73.0 296.2,72.9 297.5,72.8 298.7,72.6 300.0,72.5 301.3,72.3 302.5,72.2 303.8,72.1 305.0,72.0 306.3,71.9 307.5,71.7 308.8,71.5 310.0,71.3 311.3,71.2 312.6,71.0 313.8,70.9 315.1,70.8 316.3,70.8 317.6,70.7 318.8,70.6 320.1,70.5 321.3,70.2 322.6,70.1 323.9,70.0 325.1,69.9 326.4,69.8 327.6,69.6 328.9,69.5 330.1,69.4 331.4,69.3 332.7,69.1 333.9,69.0 335.2,68.8 336.4,68.7 337.7,68.6 338.9,68.5 340.2,68.4 341.4,68.3 342.7,68.2 344.0,68.1 345.2,68.1 346.5,67.9 347.7,67.6 349.0,67.5 350.2,71.4 351.5,70.6 352.7,69.1 354.0,68.6 355.3,67.9 356.5,67.0 357.8,66.6 359.0,66.2 360.3,65.7 361.5,64.8 362.8,64.2 364.0,64.0 365.3,63.7 366.6,63.4 367.8,63.0 369.1,62.5 370.3,62.1 371.6,61.8 372.8,61.4 374.1,61.2 375.3,60.9 376.6,60.7 377.9,60.5 379.1,60.3 380.4,59.8 381.6,59.5 382.9,59.1 384.1,58.6 385.4,58.3 386.7,58.1 387.9,57.9 389.2,57.7 390.4,57.4 391.7,57.1 392.9,56.8 394.2,56.0 395.4,55.4 396.7,55.1 398.0,54.9 399.2,54.6 400.5,54.2 401.7,53.9 403.0,53.6 404.2,53.3 405.5,53.0 406.7,52.8 408.0,52.5 409.3,52.1 410.5,51.9 411.8,51.8 413.0,51.6 414.3,51.2 415.5,51.0 416.8,50.8 418.0,50.7 419.3,50.5 420.6,50.3 421.8,50.1 423.1,49.9 424.3,49.8 425.6,49.6 426.8,49.5 428.1,49.2 429.3,49.0 430.6,48.7 431.9,48.4 433.1,48.1 434.4,48.0 435.6,47.8 436.9,47.7 438.1,47.5 439.4,47.4 440.7,47.2 441.9,47.1 443.2,47.0 444.4,46.8 445.7,46.7 446.9,46.4 448.2,46.3 449.4,46.1 450.7,45.9 452.0,45.6 453.2,45.3 454.5,45.1 455.7,44.9 457.0,44.7 458.2,44.5 459.5,44.3 460.7,44.1 462.0,43.9 463.3,43.8 464.5,43.7 465.8,43.5 467.0,43.2 468.3,43.1 469.5,43.0 470.8,42.8 472.0,42.5 473.3,42.4 474.6,42.1 475.8,42.0 477.1,41.7 478.3,41.5 479.6,41.3 480.8,41.2 482.1,41.1 483.3,40.9 484.6,40.7 485.9,40.6 487.1,40.3 488.4,40.2 489.6,40.1 490.9,40.0 492.1,39.8 493.4,39.7 494.7,39.5 495.9,39.4 497.2,39.3 498.4,39.1 499.7,39.0 500.9,38.8 502.2,38.7 503.4,38.6 504.7,38.4 506.0,38.2 507.2,38.0 508.5,37.9 509.7,37.8 511.0,37.7 512.2,37.4 513.5,37.2 514.7,37.0 516.0,36.9 517.3,36.8 518.5,36.7 519.8,36.5 521.0,36.4 522.3,36.2 523.5,35.9 524.8,35.8 526.0,35.6 527.3,35.5 528.6,35.4 529.8,35.2 531.1,35.1 532.3,34.9 533.6,34.7 534.8,34.6 536.1,34.3 537.3,34.1 538.6,34.0 539.9,33.7 541.1,33.6 542.4,33.4 543.6,33.2 544.9,33.0 546.1,32.8 547.4,32.7 548.7,32.5 549.9,32.4 551.2,32.2 552.4,32.0 553.7,31.9 554.9,31.8 556.2,31.5 557.4,31.3 558.7,31.2 560.0,31.0 561.2,30.8 562.5,30.8 563.7,30.6 565.0,30.4 566.2,30.3 567.5,30.2 568.7,30.1 570.0,30.0 570.0,30.0,120" />
  
  <!-- Linea principale -->
  <polyline fill="none" stroke="#0366d6" stroke-width="2.5" stroke-linecap="round" stroke-linejoin="round" points="30.0,120.0 31.3,119.5 32.5,119.0 33.8,118.6 35.0,118.4 36.3,118.2 37.5,117.7 38.8,117.3 40.0,117.0 41.3,116.5 42.6,116.2 43.8,115.9 45.1,115.8 46.3,115.5 47.6,115.1 48.8,114.7 50.1,114.4 51.3,114.2 52.6,114.0 53.9,113.8 55.1,113.5 56.4,113.2 57.6,113.1 58.9,112.8 60.1,111.9 61.4,111.7 62.7,111.3 63.9,111.0 65.2,110.7 66.4,110.4 67.7,110.2 68.9,110.0 70.2,109.8 71.4,109.3 72.7,109.0 74.0,108.7 75.2,108.4 76.5,108.3 77.7,108.3 79.0,108.1 80.2,107.8 81.5,107.7 82.7,107.5 84.0,107.2 85.3,106.7 86.5,106.6 87.8,106.5 89.0,106.3 90.3,106.0 91.5,105.7 92.8,105.3 94.0,105.0 95.3,104.7 96.6,104.6 97.8,104.4 99.1,104.0 100.3,103.7 101.6,103.4 102.8,103.3 104.1,103.1 105.3,102.9 106.6,102.5 107.9,102.2 109.1,101.8 110.4,101.5 111.6,101.3 112.9,101.2 114.1,101.1 115.4,100.8 116.7,100.6 117.9,100.5 119.2,100.3 120.4,100.2 121.7,100.0 122.9,99.9 124.2,99.8 125.4,99.7 126.7,99.4 128.0,99.2 129.2,99.1 130.5,99.0 131.7,98.9 133.0,98.9 134.2,104.9 135.5,104.3 136.7,103.8 138.0,103.2 139.3,101.6 140.5,100.4 141.8,99.2 143.0,98.8 144.3,98.2 145.5,97.4 146.8,96.5 148.0,95.8 149.3,95.5 150.6,95.3 151.8,94.6 153.1,94.2 154.3,93.8 155.6,93.5 156.8,93.3 158.1,93.2 159.3,92.9 160.6,92.3 161.9,91.9 163.1,91.5 164.4,91.1 165.6,90.8 166.9,90.7 168.1,90.3 169.4,89.9 170.7,89.6 171.9,89.3 173.2,89.2 174.4,89.1 175.7,88.9 176.9,88.6 178.2,88.4 179.4,88.2 180.7,88.0 182.0,87.8 183.2,87.7 184.5,87.5 185.7,87.4 187.0,87.2 188.2,86.9 189.5,86.7 190.7,86.4 192.0,86.3 193.3,86.1 194.5,86.0 195.8,85.8 197.0,85.7 198.3,85.2 199.5,84.9 200.8,84.6 202.0,84.4 203.3,84.4 204.6,84.2 205.8,84.0 207.1,83.8 208.3,83.6 209.6,83.3 210.8,83.2 212.1,83.1 213.3,82.9 214.6,82.8 215.9,82.7 217.1,82.5 218.4,82.4 219.6,82.1 220.9,82.0 222.1,81.9 223.4,81.8 224.7,81.7 225.9,81.5 227.2,81.3 228.4,81.1 229.7,80.9 230.9,80.7 232.2,80.6 233.4,80.5 234.7,80.3 236.0,80.1 237.2,79.8 238.5,79.6 239.7,79.4 241.0,79.1 242.2,79.0 243.5,78.9 244.7,78.8 246.0,78.7 247.3,78.5 248.5,78.4 249.8,78.2 251.0,78.1 252.3,77.9 253.5,77.8 254.8,77.7 256.0,77.6 257.3,77.4 258.6,77.2 259.8,77.1 261.1,76.9 262.3,76.8 263.6,76.7 264.8,76.5 266.1,76.4 267.3,76.3 268.6,76.2 269.9,75.9 271.1,75.6 272.4,75.5 273.6,75.3 274.9,75.3 276.1,75.2 277.4,75.0 278.7,74.8 279.9,74.7 281.2,74.6 282.4,74.4 283.7,74.3 284.9,74.1 286.2,74.0 287.4,73.9 288.7,73.7 290.0,73.5 291.2,73.3 292.5,73.1 293.7,73.0 295.0,73.0 296.2,72.9 297.5,72.8 298.7,72.6 300.0,72.5 301.3,72.3 302.5,72.2 303.8,72.1 305.0,72.0 306.3,71.9 307.5,71.7 308.8,71.5 310.0,71.3 311.3,71.2 312.6,71.0 313.8,70.9 315.1,70.8 316.3,70.8 317.6,70.7 318.8,70.6 320.1,70.5 321.3,70.2 322.6,70.1 323.9,70.0 325.1,69.9 326.4,69.8 327.6,69.6 328.9,69.5 330.1,69.4 331.4,69.3 332.7,69.1 333.9,69.0 335.2,68.8 336.4,68.7 337.7,68.6 338.9,68.5 340.2,68.4 341.4,68.3 342.7,68.2 344.0,68.1 345.2,68.1 346.5,67.9 347.7,67.6 349.0,67.5 350.2,71.4 351.5,70.6 352.7,69.1 354.0,68.6 355.3,67.9 356.5,67.0 357.8,66.6 359.0,66.2 360.3,65.7 361.5,64.8 362.8,64.2 364.0,64.0 365.3,63.7 366.6,63.4 367.8,63.0 369.1,62.5 370.3,62.1 371.6,61.8 372.8,61.4 374.1,61.2 375.3,60.9 376.6,60.7 377.9,60.5 379.1,60.3 380.4,59.8 381.6,59.5 382.9,59.1 384.1,58.6 385.4,58.3 386.7,58.1 387.9,57.9 389.2,57.7 390.4,57.4 391.7,57.1 392.9,56.8 394.2,56.0 395.4,55.4 396.7,55.1 398.0,54.9 399.2,54.6 400.5,54.2 401.7,53.9 403.0,53.6 404.2,53.3 405.5,53.0 406.7,52.8 408.0,52.5 409.3,52.1 410.5,51.9 411.8,51.8 413.0,51.6 414.3,51.2 415.5,51.0 416.8,50.8 418.0,50.7 419.3,50.5 420.6,50.3 421.8,50.1 423.1,49.9 424.3,49.8 425.6,49.6 426.8,49.5 428.1,49.2 429.3,49.0 430.6,48.7 431.9,48.4 433.1,48.1 434.4,48.0 435.6,47.8 436.9,47.7 438.1,47.5 439.4,47.4 440.7,47.2 441.9,47.1 443.2,47.0 444.4,46.8 445.7,46.7 446.9,46.4 448.2,46.3 449.4,46.1 450.7,45.9 452.0,45.6 453.2,45.3 454.5,45.1 455.7,44.9 457.0,44.7 458.2,44.5 459.5,44.3 460.7,44.1 462.0,43.9 463.3,43.8 464.5,43.7 465.8,43.5 467.0,43.2 468.3,43.1 469.5,43.0 470.8,42.8 472.0,42.5 473.3,42.4 474.6,42.1 475.8,42.0 477.1,41.7 478.3,41.5 479.6,41.3 480.8,41.2 482.1,41.1 483.3,40.9 484.6,40.7 485.9,40.6 487.1,40.3 488.4,40.2 489.6,40.1 490.9,40.0 492.1,39.8 493.4,39.7 494.7,39.5 495.9,39.4 497.2,39.3 498.4,39.1 499.7,39.0 500.9,38.8 502.2,38.7 503.4,38.6 504.7,38.4 506.0,38.2 507.2,38.0 508.5,37.9 509.7,37.8 511.0,37.7 512.2,37.4 513.5,37.2 514.7,37.0 516.0,36.9 517.3,36.8 518.5,36.7 519.8,36.5 521.0,36.4 522.3,36.2 523.5,35.9 524.8,35.8 526.0,35.6 527.3,35.5 528.6,35.4 529.8,35.2 531.1,35.1 532.3,34.9 533.6,34.7 534.8,34.6 536.1,34.3 537.3,34.1 538.6,34.0 539.9,33.7 541.1,33.6 542.4,33.4 543.6,33.2 544.9,33.0 546.1,32.8 547.4,32.7 548.7,32.5 549.9,32.4 551.2,32.2 552.4,32.0 553.7,31.9 554.9,31.8 556.2,31.5 557.4,31.3 558.7,31.2 560.0,31.0 561.2,30.8 562.5,30.8 563.7,30.6 565.0,30.4 566.2,30.3 567.5,30.2 568.7,30.1 570.0,30.0" />
  
  <!-- Punto finale luminoso -->
  <circle cx="570.0" cy="30.0" r="4" fill="#ffffff" stroke="#0366d6" stroke-width="2.5" />
</svg>