<svg width="600" height="150" viewBox="0 0 600 150" xmlns="http://www.w3.org/2000/svg">
  <defs>
    <filter id="shadow2" x="-2%" y="-2%" width="104%" height="108%">
      <feDropShadow dx="0" dy="2" stdDeviation="3" flood-opacity="0.1" />
    </filter>
    <linearGradient id="fillGrad" x1="0" y1="0" x2="0" y2="1">
      <stop offset="0%" stop-color="#0366d6" stop-opacity="0.3"/>
      <stop offset="100%" stop-color="#0366d6" stop-opacity="0.02"/>
    </linearGradient>
  </defs>
  <rect width="600" height="150" rx="12" fill="#ffffff" filter="url(#shadow2)" stroke="#e1e4e8" stroke-width="1"/>
  <text x="20" y="24" fill="#2b3137" font-family="-apple-system,BlinkMacSystemFont,'Segoe UI',Helvetica,Arial,sans-serif" font-size="14" font-weight="600">📈 Download Growth (Actual: 72.2k)</text>
  
  <!-- Area sotto la linea -->
  <polygon fill="url(#fillGrad)" points="30.0,120.0,120 30.0,120.0 35.9,118.1 41.7,116.1 47.6,114.3 53.5,113.8 59.3,112.9 65.2,110.7 71.1,109.2 77.0,108.2 82.8,106.0 88.7,104.9 94.6,103.7 100.4,103.1 106.3,102.1 112.2,100.5 118.0,98.9 123.9,97.7 129.8,96.8 135.7,96.3 141.5,95.2 147.4,94.0 153.3,93.0 159.1,92.5 165.0,91.5 170.9,87.9 176.7,86.9 182.6,85.5 188.5,84.1 194.3,82.9 200.2,81.7 206.1,80.9 212.0,80.3 217.8,79.3 223.7,77.6 229.6,76.1 235.4,75.1 241.3,73.9 247.2,73.6 253.0,73.3 258.9,72.7 264.8,71.5 270.7,70.9 276.5,70.4 282.4,69.1 288.3,67.2 294.1,66.7 300.0,66.3 305.9,65.6 311.7,64.1 317.6,63.1 323.5,61.5 329.3,60.4 335.2,59.0 341.1,58.7 347.0,57.9 352.8,56.4 358.7,55.0 364.6,53.9 370.4,53.4 376.3,52.7 382.2,52.1 388.0,50.5 393.9,49.0 399.8,47.7 405.7,46.3 411.5,45.7 417.4,45.3 423.3,44.7 429.1,43.6 435.0,42.9 440.9,42.3 446.7,41.8 452.6,41.3 458.5,40.5 464.3,40.0 470.2,39.7 476.1,39.3 482.0,37.8 487.8,37.0 493.7,36.8 499.6,36.3 505.4,36.0 511.3,36.0 517.2,60.0 523.0,57.6 528.9,55.5 534.8,53.3 540.7,46.7 546.5,42.2 552.4,37.2 558.3,35.4 564.1,33.4 570.0,30.0 570.0,30.0,120" />
  
  <!-- Linea principale -->
  <polyline fill="none" stroke="#0366d6" stroke-width="2.5" stroke-linecap="round" stroke-linejoin="round" points="30.0,120.0 35.9,118.1 41.7,116.1 47.6,114.3 53.5,113.8 59.3,112.9 65.2,110.7 71.1,109.2 77.0,108.2 82.8,106.0 88.7,104.9 94.6,103.7 100.4,103.1 106.3,102.1 112.2,100.5 118.0,98.9 123.9,97.7 129.8,96.8 135.7,96.3 141.5,95.2 147.4,94.0 153.3,93.0 159.1,92.5 165.0,91.5 170.9,87.9 176.7,86.9 182.6,85.5 188.5,84.1 194.3,82.9 200.2,81.7 206.1,80.9 212.0,80.3 217.8,79.3 223.7,77.6 229.6,76.1 235.4,75.1 241.3,73.9 247.2,73.6 253.0,73.3 258.9,72.7 264.8,71.5 270.7,70.9 276.5,70.4 282.4,69.1 288.3,67.2 294.1,66.7 300.0,66.3 305.9,65.6 311.7,64.1 317.6,63.1 323.5,61.5 329.3,60.4 335.2,59.0 341.1,58.7 347.0,57.9 352.8,56.4 358.7,55.0 364.6,53.9 370.4,53.4 376.3,52.7 382.2,52.1 388.0,50.5 393.9,49.0 399.8,47.7 405.7,46.3 411.5,45.7 417.4,45.3 423.3,44.7 429.1,43.6 435.0,42.9 440.9,42.3 446.7,41.8 452.6,41.3 458.5,40.5 464.3,40.0 470.2,39.7 476.1,39.3 482.0,37.8 487.8,37.0 493.7,36.8 499.6,36.3 505.4,36.0 511.3,36.0 517.2,60.0 523.0,57.6 528.9,55.5 534.8,53.3 540.7,46.7 546.5,42.2 552.4,37.2 558.3,35.4 564.1,33.4 570.0,30.0" />
  
  <!-- Punto finale luminoso -->
  <circle cx="570.0" cy="30.0" r="4" fill="#ffffff" stroke="#0366d6" stroke-width="2.5" />
</svg>