<svg width="600" height="150" viewBox="0 0 600 150" xmlns="http://www.w3.org/2000/svg">
  <defs>
    <filter id="shadow2" x="-2%" y="-2%" width="104%" height="108%">
      <feDropShadow dx="0" dy="2" stdDeviation="3" flood-opacity="0.1" />
    </filter>
    <linearGradient id="fillGrad" x1="0" y1="0" x2="0" y2="1">
      <stop offset="0%" stop-color="#0366d6" stop-opacity="0.3"/>
      <stop offset="100%" stop-color="#0366d6" stop-opacity="0.02"/>
    </linearGradient>
  </defs>
  <rect width="600" height="150" rx="12" fill="#ffffff" filter="url(#shadow2)" stroke="#e1e4e8" stroke-width="1"/>
  <text x="20" y="24" fill="#2b3137" font-family="-apple-system,BlinkMacSystemFont,'Segoe UI',Helvetica,Arial,sans-serif" font-size="14" font-weight="600">📈 Download Growth (Actual: 75.6k)</text>
  
  <!-- Area sotto la linea -->
  <polygon fill="url(#fillGrad)" points="30.0,120.0,120 30.0,120.0 33.8,118.8 37.5,117.6 41.2,116.5 45.0,116.2 48.8,115.6 52.5,114.3 56.2,113.4 60.0,112.8 63.8,111.4 67.5,110.7 71.2,110.0 75.0,109.6 78.8,109.0 82.5,108.1 86.2,107.1 90.0,106.3 93.8,105.8 97.5,105.4 101.2,104.8 105.0,104.1 108.8,103.4 112.5,103.1 116.2,102.5 120.0,100.3 123.8,99.7 127.5,98.8 131.2,98.0 135.0,97.2 138.8,96.5 142.5,96.0 146.2,95.7 150.0,95.0 153.8,94.0 157.5,93.1 161.2,92.5 165.0,91.7 168.8,91.5 172.5,91.3 176.2,91.0 180.0,90.3 183.8,89.8 187.5,89.5 191.2,88.8 195.0,87.6 198.8,87.3 202.5,87.1 206.2,86.6 210.0,85.7 213.8,85.1 217.5,84.1 221.2,83.4 225.0,82.6 228.8,82.4 232.5,81.9 236.2,81.0 240.0,80.1 243.8,79.5 247.5,79.2 251.2,78.7 255.0,78.3 258.8,77.3 262.5,76.4 266.2,75.6 270.0,74.8 273.8,74.4 277.5,74.1 281.2,73.8 285.0,73.1 288.8,72.7 292.5,72.3 296.2,72.0 300.0,71.7 303.8,71.2 307.5,70.9 311.2,70.7 315.0,70.5 318.8,69.6 322.5,69.1 326.2,68.9 330.0,68.6 333.8,68.4 337.5,68.4 341.2,83.2 345.0,81.7 348.8,80.4 352.5,79.1 356.2,75.0 360.0,72.2 363.8,69.2 367.5,68.1 371.2,66.8 375.0,64.8 378.8,62.5 382.5,60.9 386.2,60.3 390.0,59.7 393.8,58.0 397.5,56.9 401.2,56.1 405.0,55.2 408.8,54.8 412.5,54.6 416.2,53.8 420.0,52.4 423.8,51.4 427.5,50.4 431.2,49.3 435.0,48.8 438.8,48.4 442.5,47.4 446.2,46.6 450.0,45.8 453.8,45.1 457.5,44.8 461.2,44.6 465.0,44.1 468.8,43.4 472.5,42.8 476.2,42.3 480.0,41.9 483.8,41.5 487.5,41.0 491.2,40.7 495.0,40.3 498.8,39.9 502.5,39.2 506.2,38.6 510.0,37.9 513.8,37.6 517.5,37.1 521.2,36.8 525.0,36.5 528.8,36.1 532.5,35.1 536.2,34.4 540.0,33.5 543.8,33.1 547.5,33.0 551.2,32.6 555.0,32.2 558.8,31.6 562.5,31.1 566.2,30.4 570.0,30.0 570.0,30.0,120" />
  
  <!-- Linea principale -->
  <polyline fill="none" stroke="#0366d6" stroke-width="2.5" stroke-linecap="round" stroke-linejoin="round" points="30.0,120.0 33.8,118.8 37.5,117.6 41.2,116.5 45.0,116.2 48.8,115.6 52.5,114.3 56.2,113.4 60.0,112.8 63.8,111.4 67.5,110.7 71.2,110.0 75.0,109.6 78.8,109.0 82.5,108.1 86.2,107.1 90.0,106.3 93.8,105.8 97.5,105.4 101.2,104.8 105.0,104.1 108.8,103.4 112.5,103.1 116.2,102.5 120.0,100.3 123.8,99.7 127.5,98.8 131.2,98.0 135.0,97.2 138.8,96.5 142.5,96.0 146.2,95.7 150.0,95.0 153.8,94.0 157.5,93.1 161.2,92.5 165.0,91.7 168.8,91.5 172.5,91.3 176.2,91.0 180.0,90.3 183.8,89.8 187.5,89.5 191.2,88.8 195.0,87.6 198.8,87.3 202.5,87.1 206.2,86.6 210.0,85.7 213.8,85.1 217.5,84.1 221.2,83.4 225.0,82.6 228.8,82.4 232.5,81.9 236.2,81.0 240.0,80.1 243.8,79.5 247.5,79.2 251.2,78.7 255.0,78.3 258.8,77.3 262.5,76.4 266.2,75.6 270.0,74.8 273.8,74.4 277.5,74.1 281.2,73.8 285.0,73.1 288.8,72.7 292.5,72.3 296.2,72.0 300.0,71.7 303.8,71.2 307.5,70.9 311.2,70.7 315.0,70.5 318.8,69.6 322.5,69.1 326.2,68.9 330.0,68.6 333.8,68.4 337.5,68.4 341.2,83.2 345.0,81.7 348.8,80.4 352.5,79.1 356.2,75.0 360.0,72.2 363.8,69.2 367.5,68.1 371.2,66.8 375.0,64.8 378.8,62.5 382.5,60.9 386.2,60.3 390.0,59.7 393.8,58.0 397.5,56.9 401.2,56.1 405.0,55.2 408.8,54.8 412.5,54.6 416.2,53.8 420.0,52.4 423.8,51.4 427.5,50.4 431.2,49.3 435.0,48.8 438.8,48.4 442.5,47.4 446.2,46.6 450.0,45.8 453.8,45.1 457.5,44.8 461.2,44.6 465.0,44.1 468.8,43.4 472.5,42.8 476.2,42.3 480.0,41.9 483.8,41.5 487.5,41.0 491.2,40.7 495.0,40.3 498.8,39.9 502.5,39.2 506.2,38.6 510.0,37.9 513.8,37.6 517.5,37.1 521.2,36.8 525.0,36.5 528.8,36.1 532.5,35.1 536.2,34.4 540.0,33.5 543.8,33.1 547.5,33.0 551.2,32.6 555.0,32.2 558.8,31.6 562.5,31.1 566.2,30.4 570.0,30.0" />
  
  <!-- Punto finale luminoso -->
  <circle cx="570.0" cy="30.0" r="4" fill="#ffffff" stroke="#0366d6" stroke-width="2.5" />
</svg>