<svg width="600" height="150" viewBox="0 0 600 150" xmlns="http://www.w3.org/2000/svg">
  <defs>
    <filter id="shadow2" x="-2%" y="-2%" width="104%" height="108%">
      <feDropShadow dx="0" dy="2" stdDeviation="3" flood-opacity="0.1" />
    </filter>
    <linearGradient id="fillGrad" x1="0" y1="0" x2="0" y2="1">
      <stop offset="0%" stop-color="#0366d6" stop-opacity="0.3"/>
      <stop offset="100%" stop-color="#0366d6" stop-opacity="0.02"/>
    </linearGradient>
  </defs>
  <rect width="600" height="150" rx="12" fill="#ffffff" filter="url(#shadow2)" stroke="#e1e4e8" stroke-width="1"/>
  <text x="20" y="24" fill="#2b3137" font-family="-apple-system,BlinkMacSystemFont,'Segoe UI',Helvetica,Arial,sans-serif" font-size="14" font-weight="600">📈 Download Growth (Actual: 87.5k)</text>
  
  <!-- Area sotto la linea -->
  <polygon fill="url(#fillGrad)" points="30.0,120.0,120 30.0,120.0 31.3,119.5 32.6,119.0 33.9,118.5 35.2,118.4 36.6,118.2 37.9,117.6 39.2,117.2 40.5,117.0 41.8,116.4 43.1,116.1 44.4,115.8 45.7,115.6 47.0,115.4 48.3,115.0 49.7,114.5 51.0,114.2 52.3,114.0 53.6,113.8 54.9,113.6 56.2,113.3 57.5,113.0 58.8,112.9 60.1,112.6 61.5,111.7 62.8,111.4 64.1,111.1 65.4,110.7 66.7,110.4 68.0,110.1 69.3,109.9 70.6,109.7 71.9,109.5 73.3,109.0 74.6,108.6 75.9,108.4 77.2,108.1 78.5,108.0 79.8,107.9 81.1,107.7 82.4,107.4 83.7,107.3 85.0,107.1 86.4,106.8 87.7,106.3 89.0,106.2 90.3,106.1 91.6,105.9 92.9,105.5 94.2,105.3 95.5,104.9 96.8,104.6 98.2,104.2 99.5,104.1 100.8,103.9 102.1,103.5 103.4,103.2 104.7,102.9 106.0,102.8 107.3,102.6 108.6,102.4 110.0,102.0 111.3,101.6 112.6,101.3 113.9,100.9 115.2,100.8 116.5,100.6 117.8,100.5 119.1,100.2 120.4,100.0 121.7,99.9 123.1,99.7 124.4,99.6 125.7,99.4 127.0,99.3 128.3,99.2 129.6,99.1 130.9,98.7 132.2,98.5 133.5,98.4 134.9,98.3 136.2,98.2 137.5,98.2 138.8,104.5 140.1,103.8 141.4,103.3 142.7,102.7 144.0,101.0 145.3,99.8 146.7,98.6 148.0,98.1 149.3,97.6 150.6,96.7 151.9,95.7 153.2,95.0 154.5,94.8 155.8,94.5 157.1,93.9 158.4,93.4 159.8,93.0 161.1,92.6 162.4,92.5 163.7,92.4 165.0,92.0 166.3,91.5 167.6,91.0 168.9,90.6 170.2,90.2 171.6,89.9 172.9,89.8 174.2,89.4 175.5,89.0 176.8,88.7 178.1,88.4 179.4,88.3 180.7,88.2 182.0,88.0 183.3,87.7 184.7,87.4 186.0,87.2 187.3,87.0 188.6,86.8 189.9,86.7 191.2,86.5 192.5,86.4 193.8,86.2 195.1,85.9 196.5,85.6 197.8,85.4 199.1,85.2 200.4,85.0 201.7,84.9 203.0,84.8 204.3,84.6 205.6,84.2 206.9,83.9 208.3,83.5 209.6,83.3 210.9,83.3 212.2,83.1 213.5,82.9 214.8,82.7 216.1,82.5 217.4,82.2 218.7,82.0 220.0,81.9 221.4,81.8 222.7,81.7 224.0,81.5 225.3,81.4 226.6,81.2 227.9,80.9 229.2,80.8 230.5,80.7 231.8,80.6 233.2,80.5 234.5,80.3 235.8,80.1 237.1,79.9 238.4,79.7 239.7,79.5 241.0,79.3 242.3,79.2 243.6,79.1 245.0,78.8 246.3,78.6 247.6,78.4 248.9,78.2 250.2,77.8 251.5,77.8 252.8,77.7 254.1,77.6 255.4,77.4 256.7,77.2 258.1,77.1 259.4,76.9 260.7,76.8 262.0,76.6 263.3,76.5 264.6,76.4 265.9,76.3 267.2,76.1 268.5,75.9 269.9,75.8 271.2,75.6 272.5,75.5 273.8,75.3 275.1,75.2 276.4,75.1 277.7,75.0 279.0,74.8 280.3,74.6 281.7,74.3 283.0,74.1 284.3,73.9 285.6,73.9 286.9,73.8 288.2,73.6 289.5,73.4 290.8,73.3 292.1,73.2 293.4,73.0 294.8,72.8 296.1,72.7 297.4,72.6 298.7,72.5 300.0,72.2 301.3,72.1 302.6,71.9 303.9,71.7 305.2,71.6 306.6,71.5 307.9,71.5 309.2,71.3 310.5,71.2 311.8,71.0 313.1,70.9 314.4,70.7 315.7,70.6 317.0,70.5 318.3,70.4 319.7,70.2 321.0,70.0 322.3,69.8 323.6,69.7 324.9,69.5 326.2,69.4 327.5,69.3 328.8,69.2 330.1,69.1 331.5,69.0 332.8,68.9 334.1,68.7 335.4,68.6 336.7,68.4 338.0,68.3 339.3,68.2 340.6,68.1 341.9,67.9 343.3,67.8 344.6,67.7 345.9,67.5 347.2,67.4 348.5,67.2 349.8,67.1 351.1,67.0 352.4,66.9 353.7,66.8 355.0,66.7 356.4,66.6 357.7,66.5 359.0,66.4 360.3,66.3 361.6,66.0 362.9,65.8 364.2,69.9 365.5,69.1 366.8,67.6 368.2,67.0 369.5,66.3 370.8,65.4 372.1,64.9 373.4,64.6 374.7,64.0 376.0,63.1 377.3,62.4 378.6,62.2 380.0,61.9 381.3,61.6 382.6,61.2 383.9,60.8 385.2,60.3 386.5,60.0 387.8,59.6 389.1,59.3 390.4,59.0 391.7,58.8 393.1,58.6 394.4,58.4 395.7,57.9 397.0,57.6 398.3,57.2 399.6,56.7 400.9,56.3 402.2,56.2 403.5,56.0 404.9,55.8 406.2,55.4 407.5,55.1 408.8,54.8 410.1,54.0 411.4,53.4 412.7,53.1 414.0,52.9 415.3,52.6 416.7,52.2 418.0,51.8 419.3,51.5 420.6,51.3 421.9,51.0 423.2,50.7 424.5,50.4 425.8,50.0 427.1,49.8 428.4,49.7 429.8,49.5 431.1,49.1 432.4,48.9 433.7,48.6 435.0,48.5 436.3,48.4 437.6,48.1 438.9,48.0 440.2,47.8 441.6,47.6 442.9,47.4 444.2,47.3 445.5,47.0 446.8,46.8 448.1,46.5 449.4,46.2 450.7,45.9 452.0,45.8 453.3,45.6 454.7,45.4 456.0,45.3 457.3,45.1 458.6,44.9 459.9,44.8 461.2,44.7 462.5,44.5 463.8,44.4 465.1,44.1 466.5,44.0 467.8,43.8 469.1,43.6 470.4,43.3 471.7,43.0 473.0,42.8 474.3,42.6 475.6,42.4 476.9,42.1 478.3,41.9 479.6,41.7 480.9,41.5 482.2,41.4 483.5,41.3 484.8,41.1 486.1,40.9 487.4,40.7 488.7,40.6 490.0,40.4 491.4,40.1 492.7,40.0 494.0,39.7 495.3,39.6 496.6,39.3 497.9,39.0 499.2,38.9 500.5,38.8 501.8,38.6 503.2,38.5 504.5,38.3 505.8,38.1 507.1,37.9 508.4,37.8 509.7,37.6 511.0,37.5 512.3,37.3 513.6,37.2 515.0,37.0 516.3,36.9 517.6,36.8 518.9,36.6 520.2,36.5 521.5,36.3 522.8,36.2 524.1,36.0 525.4,35.9 526.7,35.7 528.1,35.5 529.4,35.4 530.7,35.2 532.0,35.1 533.3,34.8 534.6,34.7 535.9,34.4 537.2,34.3 538.5,34.2 539.9,34.1 541.2,34.0 542.5,33.8 543.8,33.6 545.1,33.3 546.4,33.2 547.7,33.0 549.0,32.9 550.3,32.8 551.7,32.6 553.0,32.4 554.3,32.2 555.6,32.0 556.9,31.9 558.2,31.7 559.5,31.5 560.8,31.3 562.1,31.0 563.4,30.9 564.8,30.7 566.1,30.5 567.4,30.3 568.7,30.1 570.0,30.0 570.0,30.0,120" />
  
  <!-- Linea principale -->
  <polyline fill="none" stroke="#0366d6" stroke-width="2.5" stroke-linecap="round" stroke-linejoin="round" points="30.0,120.0 31.3,119.5 32.6,119.0 33.9,118.5 35.2,118.4 36.6,118.2 37.9,117.6 39.2,117.2 40.5,117.0 41.8,116.4 43.1,116.1 44.4,115.8 45.7,115.6 47.0,115.4 48.3,115.0 49.7,114.5 51.0,114.2 52.3,114.0 53.6,113.8 54.9,113.6 56.2,113.3 57.5,113.0 58.8,112.9 60.1,112.6 61.5,111.7 62.8,111.4 64.1,111.1 65.4,110.7 66.7,110.4 68.0,110.1 69.3,109.9 70.6,109.7 71.9,109.5 73.3,109.0 74.6,108.6 75.9,108.4 77.2,108.1 78.5,108.0 79.8,107.9 81.1,107.7 82.4,107.4 83.7,107.3 85.0,107.1 86.4,106.8 87.7,106.3 89.0,106.2 90.3,106.1 91.6,105.9 92.9,105.5 94.2,105.3 95.5,104.9 96.8,104.6 98.2,104.2 99.5,104.1 100.8,103.9 102.1,103.5 103.4,103.2 104.7,102.9 106.0,102.8 107.3,102.6 108.6,102.4 110.0,102.0 111.3,101.6 112.6,101.3 113.9,100.9 115.2,100.8 116.5,100.6 117.8,100.5 119.1,100.2 120.4,100.0 121.7,99.9 123.1,99.7 124.4,99.6 125.7,99.4 127.0,99.3 128.3,99.2 129.6,99.1 130.9,98.7 132.2,98.5 133.5,98.4 134.9,98.3 136.2,98.2 137.5,98.2 138.8,104.5 140.1,103.8 141.4,103.3 142.7,102.7 144.0,101.0 145.3,99.8 146.7,98.6 148.0,98.1 149.3,97.6 150.6,96.7 151.9,95.7 153.2,95.0 154.5,94.8 155.8,94.5 157.1,93.9 158.4,93.4 159.8,93.0 161.1,92.6 162.4,92.5 163.7,92.4 165.0,92.0 166.3,91.5 167.6,91.0 168.9,90.6 170.2,90.2 171.6,89.9 172.9,89.8 174.2,89.4 175.5,89.0 176.8,88.7 178.1,88.4 179.4,88.3 180.7,88.2 182.0,88.0 183.3,87.7 184.7,87.4 186.0,87.2 187.3,87.0 188.6,86.8 189.9,86.7 191.2,86.5 192.5,86.4 193.8,86.2 195.1,85.9 196.5,85.6 197.8,85.4 199.1,85.2 200.4,85.0 201.7,84.9 203.0,84.8 204.3,84.6 205.6,84.2 206.9,83.9 208.3,83.5 209.6,83.3 210.9,83.3 212.2,83.1 213.5,82.9 214.8,82.7 216.1,82.5 217.4,82.2 218.7,82.0 220.0,81.9 221.4,81.8 222.7,81.7 224.0,81.5 225.3,81.4 226.6,81.2 227.9,80.9 229.2,80.8 230.5,80.7 231.8,80.6 233.2,80.5 234.5,80.3 235.8,80.1 237.1,79.9 238.4,79.7 239.7,79.5 241.0,79.3 242.3,79.2 243.6,79.1 245.0,78.8 246.3,78.6 247.6,78.4 248.9,78.2 250.2,77.8 251.5,77.8 252.8,77.7 254.1,77.6 255.4,77.4 256.7,77.2 258.1,77.1 259.4,76.9 260.7,76.8 262.0,76.6 263.3,76.5 264.6,76.4 265.9,76.3 267.2,76.1 268.5,75.9 269.9,75.8 271.2,75.6 272.5,75.5 273.8,75.3 275.1,75.2 276.4,75.1 277.7,75.0 279.0,74.8 280.3,74.6 281.7,74.3 283.0,74.1 284.3,73.9 285.6,73.9 286.9,73.8 288.2,73.6 289.5,73.4 290.8,73.3 292.1,73.2 293.4,73.0 294.8,72.8 296.1,72.7 297.4,72.6 298.7,72.5 300.0,72.2 301.3,72.1 302.6,71.9 303.9,71.7 305.2,71.6 306.6,71.5 307.9,71.5 309.2,71.3 310.5,71.2 311.8,71.0 313.1,70.9 314.4,70.7 315.7,70.6 317.0,70.5 318.3,70.4 319.7,70.2 321.0,70.0 322.3,69.8 323.6,69.7 324.9,69.5 326.2,69.4 327.5,69.3 328.8,69.2 330.1,69.1 331.5,69.0 332.8,68.9 334.1,68.7 335.4,68.6 336.7,68.4 338.0,68.3 339.3,68.2 340.6,68.1 341.9,67.9 343.3,67.8 344.6,67.7 345.9,67.5 347.2,67.4 348.5,67.2 349.8,67.1 351.1,67.0 352.4,66.9 353.7,66.8 355.0,66.7 356.4,66.6 357.7,66.5 359.0,66.4 360.3,66.3 361.6,66.0 362.9,65.8 364.2,69.9 365.5,69.1 366.8,67.6 368.2,67.0 369.5,66.3 370.8,65.4 372.1,64.9 373.4,64.6 374.7,64.0 376.0,63.1 377.3,62.4 378.6,62.2 380.0,61.9 381.3,61.6 382.6,61.2 383.9,60.8 385.2,60.3 386.5,60.0 387.8,59.6 389.1,59.3 390.4,59.0 391.7,58.8 393.1,58.6 394.4,58.4 395.7,57.9 397.0,57.6 398.3,57.2 399.6,56.7 400.9,56.3 402.2,56.2 403.5,56.0 404.9,55.8 406.2,55.4 407.5,55.1 408.8,54.8 410.1,54.0 411.4,53.4 412.7,53.1 414.0,52.9 415.3,52.6 416.7,52.2 418.0,51.8 419.3,51.5 420.6,51.3 421.9,51.0 423.2,50.7 424.5,50.4 425.8,50.0 427.1,49.8 428.4,49.7 429.8,49.5 431.1,49.1 432.4,48.9 433.7,48.6 435.0,48.5 436.3,48.4 437.6,48.1 438.9,48.0 440.2,47.8 441.6,47.6 442.9,47.4 444.2,47.3 445.5,47.0 446.8,46.8 448.1,46.5 449.4,46.2 450.7,45.9 452.0,45.8 453.3,45.6 454.7,45.4 456.0,45.3 457.3,45.1 458.6,44.9 459.9,44.8 461.2,44.7 462.5,44.5 463.8,44.4 465.1,44.1 466.5,44.0 467.8,43.8 469.1,43.6 470.4,43.3 471.7,43.0 473.0,42.8 474.3,42.6 475.6,42.4 476.9,42.1 478.3,41.9 479.6,41.7 480.9,41.5 482.2,41.4 483.5,41.3 484.8,41.1 486.1,40.9 487.4,40.7 488.7,40.6 490.0,40.4 491.4,40.1 492.7,40.0 494.0,39.7 495.3,39.6 496.6,39.3 497.9,39.0 499.2,38.9 500.5,38.8 501.8,38.6 503.2,38.5 504.5,38.3 505.8,38.1 507.1,37.9 508.4,37.8 509.7,37.6 511.0,37.5 512.3,37.3 513.6,37.2 515.0,37.0 516.3,36.9 517.6,36.8 518.9,36.6 520.2,36.5 521.5,36.3 522.8,36.2 524.1,36.0 525.4,35.9 526.7,35.7 528.1,35.5 529.4,35.4 530.7,35.2 532.0,35.1 533.3,34.8 534.6,34.7 535.9,34.4 537.2,34.3 538.5,34.2 539.9,34.1 541.2,34.0 542.5,33.8 543.8,33.6 545.1,33.3 546.4,33.2 547.7,33.0 549.0,32.9 550.3,32.8 551.7,32.6 553.0,32.4 554.3,32.2 555.6,32.0 556.9,31.9 558.2,31.7 559.5,31.5 560.8,31.3 562.1,31.0 563.4,30.9 564.8,30.7 566.1,30.5 567.4,30.3 568.7,30.1 570.0,30.0" />
  
  <!-- Punto finale luminoso -->
  <circle cx="570.0" cy="30.0" r="4" fill="#ffffff" stroke="#0366d6" stroke-width="2.5" />
</svg>