<svg width="600" height="150" viewBox="0 0 600 150" xmlns="http://www.w3.org/2000/svg">
  <defs>
    <filter id="shadow2" x="-2%" y="-2%" width="104%" height="108%">
      <feDropShadow dx="0" dy="2" stdDeviation="3" flood-opacity="0.1" />
    </filter>
    <linearGradient id="fillGrad" x1="0" y1="0" x2="0" y2="1">
      <stop offset="0%" stop-color="#0366d6" stop-opacity="0.3"/>
      <stop offset="100%" stop-color="#0366d6" stop-opacity="0.02"/>
    </linearGradient>
  </defs>
  <rect width="600" height="150" rx="12" fill="#ffffff" filter="url(#shadow2)" stroke="#e1e4e8" stroke-width="1"/>
  <text x="20" y="24" fill="#2b3137" font-family="-apple-system,BlinkMacSystemFont,'Segoe UI',Helvetica,Arial,sans-serif" font-size="14" font-weight="600">📈 Download Growth (Actual: 85.7k)</text>
  
  <!-- Area sotto la linea -->
  <polygon fill="url(#fillGrad)" points="30.0,120.0,120 30.0,120.0 31.5,119.5 33.0,118.9 34.5,118.4 36.0,118.2 37.4,118.0 38.9,117.3 40.4,116.9 41.9,116.7 43.4,116.0 44.9,115.7 46.4,115.4 47.9,115.2 49.3,114.9 50.8,114.5 52.3,114.0 53.8,113.6 55.3,113.4 56.8,113.2 58.3,113.0 59.8,112.6 61.2,112.3 62.7,112.2 64.2,111.9 65.7,110.9 67.2,110.6 68.7,110.2 70.2,109.8 71.7,109.4 73.1,109.1 74.6,108.9 76.1,108.7 77.6,108.4 79.1,107.9 80.6,107.5 82.1,107.2 83.6,106.9 85.0,106.8 86.5,106.7 88.0,106.5 89.5,106.2 91.0,106.0 92.5,105.9 94.0,105.5 95.5,105.0 96.9,104.8 98.4,104.7 99.9,104.5 101.4,104.1 102.9,103.8 104.4,103.4 105.9,103.0 107.4,102.6 108.8,102.6 110.3,102.3 111.8,101.9 113.3,101.5 114.8,101.2 116.3,101.1 117.8,100.9 119.3,100.7 120.7,100.2 122.2,99.8 123.7,99.4 125.2,99.0 126.7,98.9 128.2,98.7 129.7,98.6 131.2,98.3 132.6,98.1 134.1,97.9 135.6,97.7 137.1,97.6 138.6,97.4 140.1,97.2 141.6,97.1 143.1,97.0 144.5,96.6 146.0,96.4 147.5,96.3 149.0,96.2 150.5,96.1 152.0,96.1 153.5,102.9 155.0,102.3 156.4,101.7 157.9,101.0 159.4,99.2 160.9,97.9 162.4,96.5 163.9,95.9 165.4,95.3 166.9,94.4 168.3,93.3 169.8,92.6 171.3,92.3 172.8,92.0 174.3,91.3 175.8,90.7 177.3,90.4 178.8,89.9 180.2,89.8 181.7,89.7 183.2,89.3 184.7,88.6 186.2,88.2 187.7,87.7 189.2,87.2 190.7,87.0 192.1,86.8 193.6,86.3 195.1,85.9 196.6,85.6 198.1,85.3 199.6,85.1 201.1,85.0 202.6,84.8 204.0,84.5 205.5,84.2 207.0,84.0 208.5,83.8 210.0,83.6 211.5,83.4 213.0,83.2 214.5,83.0 216.0,82.9 217.4,82.5 218.9,82.3 220.4,81.9 221.9,81.8 223.4,81.6 224.9,81.4 226.4,81.3 227.9,81.1 229.3,80.6 230.8,80.3 232.3,79.9 233.8,79.7 235.3,79.7 236.8,79.5 238.3,79.3 239.8,79.0 241.2,78.8 242.7,78.5 244.2,78.3 245.7,78.2 247.2,78.0 248.7,77.9 250.2,77.7 251.7,77.5 253.1,77.4 254.6,77.1 256.1,76.9 257.6,76.8 259.1,76.7 260.6,76.6 262.1,76.3 263.6,76.1 265.0,75.9 266.5,75.7 268.0,75.5 269.5,75.3 271.0,75.2 272.5,75.1 274.0,74.8 275.5,74.5 276.9,74.3 278.4,74.1 279.9,73.7 281.4,73.6 282.9,73.5 284.4,73.4 285.9,73.2 287.4,73.0 288.8,72.8 290.3,72.7 291.8,72.5 293.3,72.3 294.8,72.2 296.3,72.1 297.8,72.0 299.3,71.8 300.7,71.5 302.2,71.4 303.7,71.2 305.2,71.1 306.7,70.9 308.2,70.8 309.7,70.7 311.2,70.5 312.6,70.4 314.1,70.1 315.6,69.7 317.1,69.5 318.6,69.4 320.1,69.3 321.6,69.2 323.1,69.0 324.5,68.8 326.0,68.6 327.5,68.5 329.0,68.3 330.5,68.2 332.0,68.0 333.5,67.9 335.0,67.8 336.4,67.5 337.9,67.3 339.4,67.1 340.9,66.9 342.4,66.8 343.9,66.7 345.4,66.7 346.9,66.5 348.3,66.4 349.8,66.2 351.3,66.0 352.8,65.8 354.3,65.7 355.8,65.6 357.3,65.5 358.8,65.3 360.2,65.1 361.7,64.9 363.2,64.7 364.7,64.5 366.2,64.4 367.7,64.3 369.2,64.2 370.7,64.1 372.1,64.0 373.6,63.9 375.1,63.6 376.6,63.5 378.1,63.3 379.6,63.2 381.1,63.1 382.6,62.9 384.0,62.8 385.5,62.6 387.0,62.5 388.5,62.4 390.0,62.2 391.5,62.0 393.0,61.9 394.5,61.8 396.0,61.7 397.4,61.6 398.9,61.5 400.4,61.3 401.9,61.2 403.4,61.1 404.9,61.0 406.4,60.7 407.9,60.5 409.3,64.9 410.8,64.1 412.3,62.4 413.8,61.7 415.3,61.0 416.8,60.0 418.3,59.5 419.8,59.1 421.2,58.5 422.7,57.5 424.2,56.8 425.7,56.5 427.2,56.2 428.7,55.9 430.2,55.4 431.7,54.9 433.1,54.4 434.6,54.1 436.1,53.6 437.6,53.4 439.1,53.0 440.6,52.8 442.1,52.5 443.6,52.3 445.0,51.8 446.5,51.5 448.0,51.0 449.5,50.4 451.0,50.1 452.5,49.9 454.0,49.7 455.5,49.4 456.9,49.1 458.4,48.7 459.9,48.4 461.4,47.5 462.9,46.8 464.4,46.4 465.9,46.3 467.4,46.0 468.8,45.5 470.3,45.1 471.8,44.8 473.3,44.5 474.8,44.1 476.3,43.8 477.8,43.5 479.3,43.1 480.7,42.9 482.2,42.7 483.7,42.5 485.2,42.1 486.7,41.8 488.2,41.6 489.7,41.5 491.2,41.3 492.6,41.0 494.1,40.8 495.6,40.6 497.1,40.4 498.6,40.3 500.1,40.1 501.6,39.8 503.1,39.6 504.5,39.3 506.0,38.9 507.5,38.6 509.0,38.4 510.5,38.2 512.0,38.1 513.5,37.9 515.0,37.7 516.4,37.5 517.9,37.4 519.4,37.3 520.9,37.1 522.4,36.9 523.9,36.6 525.4,36.5 526.9,36.3 528.3,36.1 529.8,35.7 531.3,35.3 532.8,35.1 534.3,34.9 535.8,34.7 537.3,34.5 538.8,34.2 540.2,34.0 541.7,33.8 543.2,33.7 544.7,33.5 546.2,33.3 547.7,33.0 549.2,32.9 550.7,32.8 552.1,32.5 553.6,32.3 555.1,32.1 556.6,31.8 558.1,31.6 559.6,31.3 561.1,31.1 562.6,30.9 564.0,30.8 565.5,30.6 567.0,30.4 568.5,30.2 570.0,30.0 570.0,30.0,120" />
  
  <!-- Linea principale -->
  <polyline fill="none" stroke="#0366d6" stroke-width="2.5" stroke-linecap="round" stroke-linejoin="round" points="30.0,120.0 31.5,119.5 33.0,118.9 34.5,118.4 36.0,118.2 37.4,118.0 38.9,117.3 40.4,116.9 41.9,116.7 43.4,116.0 44.9,115.7 46.4,115.4 47.9,115.2 49.3,114.9 50.8,114.5 52.3,114.0 53.8,113.6 55.3,113.4 56.8,113.2 58.3,113.0 59.8,112.6 61.2,112.3 62.7,112.2 64.2,111.9 65.7,110.9 67.2,110.6 68.7,110.2 70.2,109.8 71.7,109.4 73.1,109.1 74.6,108.9 76.1,108.7 77.6,108.4 79.1,107.9 80.6,107.5 82.1,107.2 83.6,106.9 85.0,106.8 86.5,106.7 88.0,106.5 89.5,106.2 91.0,106.0 92.5,105.9 94.0,105.5 95.5,105.0 96.9,104.8 98.4,104.7 99.9,104.5 101.4,104.1 102.9,103.8 104.4,103.4 105.9,103.0 107.4,102.6 108.8,102.6 110.3,102.3 111.8,101.9 113.3,101.5 114.8,101.2 116.3,101.1 117.8,100.9 119.3,100.7 120.7,100.2 122.2,99.8 123.7,99.4 125.2,99.0 126.7,98.9 128.2,98.7 129.7,98.6 131.2,98.3 132.6,98.1 134.1,97.9 135.6,97.7 137.1,97.6 138.6,97.4 140.1,97.2 141.6,97.1 143.1,97.0 144.5,96.6 146.0,96.4 147.5,96.3 149.0,96.2 150.5,96.1 152.0,96.1 153.5,102.9 155.0,102.3 156.4,101.7 157.9,101.0 159.4,99.2 160.9,97.9 162.4,96.5 163.9,95.9 165.4,95.3 166.9,94.4 168.3,93.3 169.8,92.6 171.3,92.3 172.8,92.0 174.3,91.3 175.8,90.7 177.3,90.4 178.8,89.9 180.2,89.8 181.7,89.7 183.2,89.3 184.7,88.6 186.2,88.2 187.7,87.7 189.2,87.2 190.7,87.0 192.1,86.8 193.6,86.3 195.1,85.9 196.6,85.6 198.1,85.3 199.6,85.1 201.1,85.0 202.6,84.8 204.0,84.5 205.5,84.2 207.0,84.0 208.5,83.8 210.0,83.6 211.5,83.4 213.0,83.2 214.5,83.0 216.0,82.9 217.4,82.5 218.9,82.3 220.4,81.9 221.9,81.8 223.4,81.6 224.9,81.4 226.4,81.3 227.9,81.1 229.3,80.6 230.8,80.3 232.3,79.9 233.8,79.7 235.3,79.7 236.8,79.5 238.3,79.3 239.8,79.0 241.2,78.8 242.7,78.5 244.2,78.3 245.7,78.2 247.2,78.0 248.7,77.9 250.2,77.7 251.7,77.5 253.1,77.4 254.6,77.1 256.1,76.9 257.6,76.8 259.1,76.7 260.6,76.6 262.1,76.3 263.6,76.1 265.0,75.9 266.5,75.7 268.0,75.5 269.5,75.3 271.0,75.2 272.5,75.1 274.0,74.8 275.5,74.5 276.9,74.3 278.4,74.1 279.9,73.7 281.4,73.6 282.9,73.5 284.4,73.4 285.9,73.2 287.4,73.0 288.8,72.8 290.3,72.7 291.8,72.5 293.3,72.3 294.8,72.2 296.3,72.1 297.8,72.0 299.3,71.8 300.7,71.5 302.2,71.4 303.7,71.2 305.2,71.1 306.7,70.9 308.2,70.8 309.7,70.7 311.2,70.5 312.6,70.4 314.1,70.1 315.6,69.7 317.1,69.5 318.6,69.4 320.1,69.3 321.6,69.2 323.1,69.0 324.5,68.8 326.0,68.6 327.5,68.5 329.0,68.3 330.5,68.2 332.0,68.0 333.5,67.9 335.0,67.8 336.4,67.5 337.9,67.3 339.4,67.1 340.9,66.9 342.4,66.8 343.9,66.7 345.4,66.7 346.9,66.5 348.3,66.4 349.8,66.2 351.3,66.0 352.8,65.8 354.3,65.7 355.8,65.6 357.3,65.5 358.8,65.3 360.2,65.1 361.7,64.9 363.2,64.7 364.7,64.5 366.2,64.4 367.7,64.3 369.2,64.2 370.7,64.1 372.1,64.0 373.6,63.9 375.1,63.6 376.6,63.5 378.1,63.3 379.6,63.2 381.1,63.1 382.6,62.9 384.0,62.8 385.5,62.6 387.0,62.5 388.5,62.4 390.0,62.2 391.5,62.0 393.0,61.9 394.5,61.8 396.0,61.7 397.4,61.6 398.9,61.5 400.4,61.3 401.9,61.2 403.4,61.1 404.9,61.0 406.4,60.7 407.9,60.5 409.3,64.9 410.8,64.1 412.3,62.4 413.8,61.7 415.3,61.0 416.8,60.0 418.3,59.5 419.8,59.1 421.2,58.5 422.7,57.5 424.2,56.8 425.7,56.5 427.2,56.2 428.7,55.9 430.2,55.4 431.7,54.9 433.1,54.4 434.6,54.1 436.1,53.6 437.6,53.4 439.1,53.0 440.6,52.8 442.1,52.5 443.6,52.3 445.0,51.8 446.5,51.5 448.0,51.0 449.5,50.4 451.0,50.1 452.5,49.9 454.0,49.7 455.5,49.4 456.9,49.1 458.4,48.7 459.9,48.4 461.4,47.5 462.9,46.8 464.4,46.4 465.9,46.3 467.4,46.0 468.8,45.5 470.3,45.1 471.8,44.8 473.3,44.5 474.8,44.1 476.3,43.8 477.8,43.5 479.3,43.1 480.7,42.9 482.2,42.7 483.7,42.5 485.2,42.1 486.7,41.8 488.2,41.6 489.7,41.5 491.2,41.3 492.6,41.0 494.1,40.8 495.6,40.6 497.1,40.4 498.6,40.3 500.1,40.1 501.6,39.8 503.1,39.6 504.5,39.3 506.0,38.9 507.5,38.6 509.0,38.4 510.5,38.2 512.0,38.1 513.5,37.9 515.0,37.7 516.4,37.5 517.9,37.4 519.4,37.3 520.9,37.1 522.4,36.9 523.9,36.6 525.4,36.5 526.9,36.3 528.3,36.1 529.8,35.7 531.3,35.3 532.8,35.1 534.3,34.9 535.8,34.7 537.3,34.5 538.8,34.2 540.2,34.0 541.7,33.8 543.2,33.7 544.7,33.5 546.2,33.3 547.7,33.0 549.2,32.9 550.7,32.8 552.1,32.5 553.6,32.3 555.1,32.1 556.6,31.8 558.1,31.6 559.6,31.3 561.1,31.1 562.6,30.9 564.0,30.8 565.5,30.6 567.0,30.4 568.5,30.2 570.0,30.0" />
  
  <!-- Punto finale luminoso -->
  <circle cx="570.0" cy="30.0" r="4" fill="#ffffff" stroke="#0366d6" stroke-width="2.5" />
</svg>