<svg width="600" height="150" viewBox="0 0 600 150" xmlns="http://www.w3.org/2000/svg">
  <defs>
    <filter id="shadow2" x="-2%" y="-2%" width="104%" height="108%">
      <feDropShadow dx="0" dy="2" stdDeviation="3" flood-opacity="0.1" />
    </filter>
    <linearGradient id="fillGrad" x1="0" y1="0" x2="0" y2="1">
      <stop offset="0%" stop-color="#0366d6" stop-opacity="0.3"/>
      <stop offset="100%" stop-color="#0366d6" stop-opacity="0.02"/>
    </linearGradient>
  </defs>
  <rect width="600" height="150" rx="12" fill="#ffffff" filter="url(#shadow2)" stroke="#e1e4e8" stroke-width="1"/>
  <text x="20" y="24" fill="#2b3137" font-family="-apple-system,BlinkMacSystemFont,'Segoe UI',Helvetica,Arial,sans-serif" font-size="14" font-weight="600">📈 Download Growth (Actual: 78.2k)</text>
  
  <!-- Area sotto la linea -->
  <polygon fill="url(#fillGrad)" points="30.0,120.0,120 30.0,120.0 32.5,119.1 34.9,118.1 37.4,117.3 39.9,117.1 42.3,116.6 44.8,115.6 47.3,114.9 49.7,114.5 52.2,113.4 54.7,112.9 57.1,112.3 59.6,112.0 62.1,111.6 64.5,110.8 67.0,110.1 69.5,109.5 71.9,109.1 74.4,108.8 76.8,108.3 79.3,107.8 81.8,107.3 84.2,107.1 86.7,106.6 89.2,104.9 91.6,104.4 94.1,103.8 96.6,103.1 99.0,102.5 101.5,102.0 104.0,101.6 106.4,101.3 108.9,100.9 111.4,100.0 113.8,99.3 116.3,98.9 118.8,98.3 121.2,98.1 123.7,98.0 126.2,97.7 128.6,97.2 131.1,96.9 133.6,96.6 136.0,96.0 138.5,95.1 141.0,94.9 143.4,94.7 145.9,94.4 148.4,93.7 150.8,93.2 153.3,92.5 155.8,91.9 158.2,91.3 160.7,91.1 163.2,90.7 165.6,90.1 168.1,89.4 170.5,88.9 173.0,88.7 175.5,88.3 177.9,88.0 180.4,87.3 182.9,86.6 185.3,85.9 187.8,85.3 190.3,85.0 192.7,84.8 195.2,84.6 197.7,84.0 200.1,83.7 202.6,83.4 205.1,83.2 207.5,82.9 210.0,82.6 212.5,82.3 214.9,82.2 217.4,82.0 219.9,81.3 222.3,80.9 224.8,80.8 227.3,80.6 229.7,80.4 232.2,80.4 234.7,91.7 237.1,90.6 239.6,89.6 242.1,88.6 244.5,85.5 247.0,83.4 249.5,81.0 251.9,80.2 254.4,79.2 256.8,77.6 259.3,75.9 261.8,74.6 264.2,74.2 266.7,73.7 269.2,72.5 271.6,71.6 274.1,71.0 276.6,70.3 279.0,70.0 281.5,69.8 284.0,69.2 286.4,68.1 288.9,67.4 291.4,66.6 293.8,65.8 296.3,65.4 298.8,65.1 301.2,64.3 303.7,63.7 306.2,63.0 308.6,62.5 311.1,62.3 313.6,62.2 316.0,61.8 318.5,61.2 321.0,60.8 323.4,60.4 325.9,60.1 328.4,59.7 330.8,59.4 333.3,59.1 335.8,58.9 338.2,58.6 340.7,58.0 343.2,57.6 345.6,57.0 348.1,56.8 350.5,56.4 353.0,56.2 355.5,55.9 357.9,55.7 360.4,54.8 362.9,54.3 365.3,53.6 367.8,53.3 370.3,53.3 372.7,53.0 375.2,52.6 377.7,52.2 380.1,51.8 382.6,51.3 385.1,51.0 387.5,50.8 390.0,50.5 392.5,50.3 394.9,50.1 397.4,49.7 399.9,49.5 402.3,49.0 404.8,48.7 407.3,48.6 409.7,48.4 412.2,48.2 414.7,47.8 417.1,47.4 419.6,47.0 422.1,46.7 424.5,46.3 427.0,46.1 429.5,45.9 431.9,45.7 434.4,45.2 436.8,44.7 439.3,44.4 441.8,44.0 444.2,43.4 446.7,43.2 449.2,43.0 451.6,42.9 454.1,42.5 456.6,42.3 459.0,41.9 461.5,41.7 464.0,41.4 466.4,41.2 468.9,40.9 471.4,40.7 473.8,40.5 476.3,40.2 478.8,39.8 481.2,39.6 483.7,39.2 486.2,39.0 488.6,38.8 491.1,38.6 493.6,38.4 496.0,38.2 498.5,37.9 501.0,37.4 503.4,36.9 505.9,36.5 508.4,36.3 510.8,36.1 513.3,36.0 515.8,35.7 518.2,35.2 520.7,35.0 523.2,34.9 525.6,34.5 528.1,34.3 530.5,33.9 533.0,33.8 535.5,33.6 537.9,33.2 540.4,32.9 542.9,32.5 545.3,32.1 547.8,32.0 550.3,31.9 552.7,31.8 555.2,31.5 557.7,31.3 560.1,31.0 562.6,30.7 565.1,30.4 567.5,30.2 570.0,30.0 570.0,30.0,120" />
  
  <!-- Linea principale -->
  <polyline fill="none" stroke="#0366d6" stroke-width="2.5" stroke-linecap="round" stroke-linejoin="round" points="30.0,120.0 32.5,119.1 34.9,118.1 37.4,117.3 39.9,117.1 42.3,116.6 44.8,115.6 47.3,114.9 49.7,114.5 52.2,113.4 54.7,112.9 57.1,112.3 59.6,112.0 62.1,111.6 64.5,110.8 67.0,110.1 69.5,109.5 71.9,109.1 74.4,108.8 76.8,108.3 79.3,107.8 81.8,107.3 84.2,107.1 86.7,106.6 89.2,104.9 91.6,104.4 94.1,103.8 96.6,103.1 99.0,102.5 101.5,102.0 104.0,101.6 106.4,101.3 108.9,100.9 111.4,100.0 113.8,99.3 116.3,98.9 118.8,98.3 121.2,98.1 123.7,98.0 126.2,97.7 128.6,97.2 131.1,96.9 133.6,96.6 136.0,96.0 138.5,95.1 141.0,94.9 143.4,94.7 145.9,94.4 148.4,93.7 150.8,93.2 153.3,92.5 155.8,91.9 158.2,91.3 160.7,91.1 163.2,90.7 165.6,90.1 168.1,89.4 170.5,88.9 173.0,88.7 175.5,88.3 177.9,88.0 180.4,87.3 182.9,86.6 185.3,85.9 187.8,85.3 190.3,85.0 192.7,84.8 195.2,84.6 197.7,84.0 200.1,83.7 202.6,83.4 205.1,83.2 207.5,82.9 210.0,82.6 212.5,82.3 214.9,82.2 217.4,82.0 219.9,81.3 222.3,80.9 224.8,80.8 227.3,80.6 229.7,80.4 232.2,80.4 234.7,91.7 237.1,90.6 239.6,89.6 242.1,88.6 244.5,85.5 247.0,83.4 249.5,81.0 251.9,80.2 254.4,79.2 256.8,77.6 259.3,75.9 261.8,74.6 264.2,74.2 266.7,73.7 269.2,72.5 271.6,71.6 274.1,71.0 276.6,70.3 279.0,70.0 281.5,69.8 284.0,69.2 286.4,68.1 288.9,67.4 291.4,66.6 293.8,65.8 296.3,65.4 298.8,65.1 301.2,64.3 303.7,63.7 306.2,63.0 308.6,62.5 311.1,62.3 313.6,62.2 316.0,61.8 318.5,61.2 321.0,60.8 323.4,60.4 325.9,60.1 328.4,59.7 330.8,59.4 333.3,59.1 335.8,58.9 338.2,58.6 340.7,58.0 343.2,57.6 345.6,57.0 348.1,56.8 350.5,56.4 353.0,56.2 355.5,55.9 357.9,55.7 360.4,54.8 362.9,54.3 365.3,53.6 367.8,53.3 370.3,53.3 372.7,53.0 375.2,52.6 377.7,52.2 380.1,51.8 382.6,51.3 385.1,51.0 387.5,50.8 390.0,50.5 392.5,50.3 394.9,50.1 397.4,49.7 399.9,49.5 402.3,49.0 404.8,48.7 407.3,48.6 409.7,48.4 412.2,48.2 414.7,47.8 417.1,47.4 419.6,47.0 422.1,46.7 424.5,46.3 427.0,46.1 429.5,45.9 431.9,45.7 434.4,45.2 436.8,44.7 439.3,44.4 441.8,44.0 444.2,43.4 446.7,43.2 449.2,43.0 451.6,42.9 454.1,42.5 456.6,42.3 459.0,41.9 461.5,41.7 464.0,41.4 466.4,41.2 468.9,40.9 471.4,40.7 473.8,40.5 476.3,40.2 478.8,39.8 481.2,39.6 483.7,39.2 486.2,39.0 488.6,38.8 491.1,38.6 493.6,38.4 496.0,38.2 498.5,37.9 501.0,37.4 503.4,36.9 505.9,36.5 508.4,36.3 510.8,36.1 513.3,36.0 515.8,35.7 518.2,35.2 520.7,35.0 523.2,34.9 525.6,34.5 528.1,34.3 530.5,33.9 533.0,33.8 535.5,33.6 537.9,33.2 540.4,32.9 542.9,32.5 545.3,32.1 547.8,32.0 550.3,31.9 552.7,31.8 555.2,31.5 557.7,31.3 560.1,31.0 562.6,30.7 565.1,30.4 567.5,30.2 570.0,30.0" />
  
  <!-- Punto finale luminoso -->
  <circle cx="570.0" cy="30.0" r="4" fill="#ffffff" stroke="#0366d6" stroke-width="2.5" />
</svg>