<svg width="600" height="150" viewBox="0 0 600 150" xmlns="http://www.w3.org/2000/svg">
  <defs>
    <filter id="shadow2" x="-2%" y="-2%" width="104%" height="108%">
      <feDropShadow dx="0" dy="2" stdDeviation="3" flood-opacity="0.1" />
    </filter>
    <linearGradient id="fillGrad" x1="0" y1="0" x2="0" y2="1">
      <stop offset="0%" stop-color="#0366d6" stop-opacity="0.3"/>
      <stop offset="100%" stop-color="#0366d6" stop-opacity="0.02"/>
    </linearGradient>
  </defs>
  <rect width="600" height="150" rx="12" fill="#ffffff" filter="url(#shadow2)" stroke="#e1e4e8" stroke-width="1"/>
  <text x="20" y="24" fill="#2b3137" font-family="-apple-system,BlinkMacSystemFont,'Segoe UI',Helvetica,Arial,sans-serif" font-size="14" font-weight="600">📈 Download Growth (Actual: 75.1k)</text>
  
  <!-- Area sotto la linea -->
  <polygon fill="url(#fillGrad)" points="30.0,120.0,120 30.0,120.0 34.0,118.8 38.1,117.4 42.1,116.3 46.1,116.0 50.1,115.4 54.2,113.9 58.2,113.0 62.2,112.4 66.3,110.9 70.3,110.2 74.3,109.4 78.4,109.0 82.4,108.3 86.4,107.3 90.4,106.3 94.5,105.5 98.5,104.9 102.5,104.6 106.6,103.9 110.6,103.1 114.6,102.4 118.7,102.1 122.7,101.5 126.7,99.2 130.7,98.5 134.8,97.6 138.8,96.6 142.8,95.9 146.9,95.1 150.9,94.6 154.9,94.2 159.0,93.6 163.0,92.4 167.0,91.5 171.0,90.8 175.1,90.0 179.1,89.8 183.1,89.6 187.2,89.2 191.2,88.5 195.2,88.0 199.3,87.7 203.3,86.9 207.3,85.6 211.3,85.3 215.4,85.1 219.4,84.6 223.4,83.6 227.5,83.0 231.5,82.0 235.5,81.2 239.6,80.3 243.6,80.1 247.6,79.6 251.6,78.7 255.7,77.7 259.7,77.0 263.7,76.7 267.8,76.2 271.8,75.8 275.8,74.8 279.9,73.8 283.9,73.0 287.9,72.1 291.9,71.7 296.0,71.4 300.0,71.0 304.0,70.3 308.1,69.9 312.1,69.5 316.1,69.1 320.1,68.8 324.2,68.3 328.2,68.0 332.2,67.8 336.3,67.5 340.3,66.6 344.3,66.0 348.4,65.9 352.4,65.5 356.4,65.4 360.4,65.4 364.5,81.0 368.5,79.4 372.5,78.1 376.6,76.6 380.6,72.4 384.6,69.4 388.7,66.2 392.7,65.0 396.7,63.7 400.7,61.5 404.8,59.1 408.8,57.3 412.8,56.7 416.9,56.1 420.9,54.3 424.9,53.1 429.0,52.3 433.0,51.3 437.0,50.9 441.0,50.7 445.1,49.8 449.1,48.3 453.1,47.3 457.2,46.3 461.2,45.1 465.2,44.5 469.3,44.1 473.3,43.1 477.3,42.2 481.3,41.3 485.4,40.6 489.4,40.3 493.4,40.1 497.5,39.6 501.5,38.8 505.5,38.2 509.6,37.7 513.6,37.2 517.6,36.8 521.6,36.3 525.7,35.9 529.7,35.6 533.7,35.2 537.8,34.3 541.8,33.7 545.8,33.0 549.9,32.6 553.9,32.2 557.9,31.9 561.9,31.5 566.0,31.1 570.0,30.0 570.0,30.0,120" />
  
  <!-- Linea principale -->
  <polyline fill="none" stroke="#0366d6" stroke-width="2.5" stroke-linecap="round" stroke-linejoin="round" points="30.0,120.0 34.0,118.8 38.1,117.4 42.1,116.3 46.1,116.0 50.1,115.4 54.2,113.9 58.2,113.0 62.2,112.4 66.3,110.9 70.3,110.2 74.3,109.4 78.4,109.0 82.4,108.3 86.4,107.3 90.4,106.3 94.5,105.5 98.5,104.9 102.5,104.6 106.6,103.9 110.6,103.1 114.6,102.4 118.7,102.1 122.7,101.5 126.7,99.2 130.7,98.5 134.8,97.6 138.8,96.6 142.8,95.9 146.9,95.1 150.9,94.6 154.9,94.2 159.0,93.6 163.0,92.4 167.0,91.5 171.0,90.8 175.1,90.0 179.1,89.8 183.1,89.6 187.2,89.2 191.2,88.5 195.2,88.0 199.3,87.7 203.3,86.9 207.3,85.6 211.3,85.3 215.4,85.1 219.4,84.6 223.4,83.6 227.5,83.0 231.5,82.0 235.5,81.2 239.6,80.3 243.6,80.1 247.6,79.6 251.6,78.7 255.7,77.7 259.7,77.0 263.7,76.7 267.8,76.2 271.8,75.8 275.8,74.8 279.9,73.8 283.9,73.0 287.9,72.1 291.9,71.7 296.0,71.4 300.0,71.0 304.0,70.3 308.1,69.9 312.1,69.5 316.1,69.1 320.1,68.8 324.2,68.3 328.2,68.0 332.2,67.8 336.3,67.5 340.3,66.6 344.3,66.0 348.4,65.9 352.4,65.5 356.4,65.4 360.4,65.4 364.5,81.0 368.5,79.4 372.5,78.1 376.6,76.6 380.6,72.4 384.6,69.4 388.7,66.2 392.7,65.0 396.7,63.7 400.7,61.5 404.8,59.1 408.8,57.3 412.8,56.7 416.9,56.1 420.9,54.3 424.9,53.1 429.0,52.3 433.0,51.3 437.0,50.9 441.0,50.7 445.1,49.8 449.1,48.3 453.1,47.3 457.2,46.3 461.2,45.1 465.2,44.5 469.3,44.1 473.3,43.1 477.3,42.2 481.3,41.3 485.4,40.6 489.4,40.3 493.4,40.1 497.5,39.6 501.5,38.8 505.5,38.2 509.6,37.7 513.6,37.2 517.6,36.8 521.6,36.3 525.7,35.9 529.7,35.6 533.7,35.2 537.8,34.3 541.8,33.7 545.8,33.0 549.9,32.6 553.9,32.2 557.9,31.9 561.9,31.5 566.0,31.1 570.0,30.0" />
  
  <!-- Punto finale luminoso -->
  <circle cx="570.0" cy="30.0" r="4" fill="#ffffff" stroke="#0366d6" stroke-width="2.5" />
</svg>