<svg width="600" height="150" viewBox="0 0 600 150" xmlns="http://www.w3.org/2000/svg">
  <defs>
    <filter id="shadow2" x="-2%" y="-2%" width="104%" height="108%">
      <feDropShadow dx="0" dy="2" stdDeviation="3" flood-opacity="0.1" />
    </filter>
    <linearGradient id="fillGrad" x1="0" y1="0" x2="0" y2="1">
      <stop offset="0%" stop-color="#0366d6" stop-opacity="0.3"/>
      <stop offset="100%" stop-color="#0366d6" stop-opacity="0.02"/>
    </linearGradient>
  </defs>
  <rect width="600" height="150" rx="12" fill="#ffffff" filter="url(#shadow2)" stroke="#e1e4e8" stroke-width="1"/>
  <text x="20" y="24" fill="#2b3137" font-family="-apple-system,BlinkMacSystemFont,'Segoe UI',Helvetica,Arial,sans-serif" font-size="14" font-weight="600">📈 Download Growth (Actual: 78.9k)</text>
  
  <!-- Area sotto la linea -->
  <polygon fill="url(#fillGrad)" points="30.0,120.0,120 30.0,120.0 32.2,119.2 34.5,118.2 36.8,117.5 39.0,117.2 41.2,116.8 43.5,115.8 45.8,115.2 48.0,114.8 50.2,113.8 52.5,113.3 54.8,112.8 57.0,112.5 59.2,112.0 61.5,111.3 63.8,110.6 66.0,110.1 68.2,109.7 70.5,109.4 72.8,109.0 75.0,108.4 77.2,108.0 79.5,107.7 81.8,107.3 84.0,105.7 86.2,105.2 88.5,104.6 90.8,104.0 93.0,103.5 95.2,102.9 97.5,102.6 99.8,102.3 102.0,101.9 104.2,101.1 106.5,100.5 108.8,100.0 111.0,99.5 113.2,99.3 115.5,99.2 117.8,98.9 120.0,98.4 122.2,98.1 124.5,97.9 126.8,97.3 129.0,96.5 131.2,96.3 133.5,96.1 135.8,95.8 138.0,95.1 140.2,94.6 142.5,93.9 144.8,93.4 147.0,92.8 149.2,92.7 151.5,92.3 153.8,91.7 156.0,91.0 158.2,90.6 160.5,90.3 162.8,90.0 165.0,89.7 167.2,89.0 169.5,88.4 171.8,87.8 174.0,87.2 176.2,86.9 178.5,86.7 180.8,86.5 183.0,86.0 185.2,85.7 187.5,85.4 189.8,85.1 192.0,84.9 194.2,84.6 196.5,84.4 198.8,84.2 201.0,84.0 203.2,83.4 205.5,83.0 207.8,82.9 210.0,82.7 212.2,82.6 214.5,82.6 216.8,93.3 219.0,92.2 221.2,91.3 223.5,90.3 225.8,87.4 228.0,85.3 230.2,83.1 232.5,82.3 234.8,81.4 237.0,79.9 239.2,78.3 241.5,77.1 243.8,76.6 246.0,76.2 248.2,75.0 250.5,74.2 252.8,73.6 255.0,72.9 257.2,72.6 259.5,72.5 261.8,71.9 264.0,70.9 266.2,70.2 268.5,69.5 270.8,68.7 273.0,68.3 275.2,68.0 277.5,67.3 279.8,66.7 282.0,66.1 284.2,65.6 286.5,65.4 288.8,65.3 291.0,64.9 293.2,64.4 295.5,64.0 297.8,63.6 300.0,63.3 302.2,63.0 304.5,62.7 306.8,62.4 309.0,62.2 311.2,61.9 313.5,61.3 315.8,60.9 318.0,60.4 320.2,60.1 322.5,59.8 324.8,59.6 327.0,59.4 329.2,59.1 331.5,58.3 333.8,57.8 336.0,57.2 338.2,56.9 340.5,56.9 342.8,56.6 345.0,56.2 347.2,55.8 349.5,55.5 351.8,55.0 354.0,54.7 356.2,54.5 358.5,54.3 360.8,54.1 363.0,53.8 365.2,53.5 367.5,53.3 369.8,52.8 372.0,52.6 374.2,52.4 376.5,52.2 378.8,52.1 381.0,51.7 383.2,51.3 385.5,51.0 387.8,50.6 390.0,50.3 392.2,50.0 394.5,49.9 396.8,49.7 399.0,49.2 401.2,48.7 403.5,48.4 405.8,48.1 408.0,47.5 410.2,47.4 412.5,47.2 414.8,47.0 417.0,46.7 419.2,46.4 421.5,46.1 423.8,45.9 426.0,45.6 428.2,45.4 430.5,45.1 432.8,44.9 435.0,44.8 437.2,44.5 439.5,44.1 441.8,43.9 444.0,43.6 446.2,43.4 448.5,43.2 450.8,42.9 453.0,42.8 455.2,42.5 457.5,42.3 459.8,41.8 462.0,41.3 464.2,41.0 466.5,40.8 468.8,40.6 471.0,40.5 473.2,40.2 475.5,39.8 477.8,39.6 480.0,39.4 482.2,39.1 484.5,38.9 486.8,38.6 489.0,38.4 491.2,38.2 493.5,37.8 495.8,37.6 498.0,37.2 500.2,36.9 502.5,36.7 504.8,36.6 507.0,36.5 509.2,36.3 511.5,36.0 513.8,35.7 516.0,35.5 518.2,35.2 520.5,35.0 522.8,34.8 525.0,34.6 527.2,34.4 529.5,34.1 531.8,33.7 534.0,33.4 536.2,33.2 538.5,33.0 540.8,32.8 543.0,32.7 545.2,32.5 547.5,32.4 549.8,32.1 552.0,31.7 554.2,31.5 556.5,31.3 558.8,31.1 561.0,30.9 563.2,30.7 565.5,30.4 567.8,30.2 570.0,30.0 570.0,30.0,120" />
  
  <!-- Linea principale -->
  <polyline fill="none" stroke="#0366d6" stroke-width="2.5" stroke-linecap="round" stroke-linejoin="round" points="30.0,120.0 32.2,119.2 34.5,118.2 36.8,117.5 39.0,117.2 41.2,116.8 43.5,115.8 45.8,115.2 48.0,114.8 50.2,113.8 52.5,113.3 54.8,112.8 57.0,112.5 59.2,112.0 61.5,111.3 63.8,110.6 66.0,110.1 68.2,109.7 70.5,109.4 72.8,109.0 75.0,108.4 77.2,108.0 79.5,107.7 81.8,107.3 84.0,105.7 86.2,105.2 88.5,104.6 90.8,104.0 93.0,103.5 95.2,102.9 97.5,102.6 99.8,102.3 102.0,101.9 104.2,101.1 106.5,100.5 108.8,100.0 111.0,99.5 113.2,99.3 115.5,99.2 117.8,98.9 120.0,98.4 122.2,98.1 124.5,97.9 126.8,97.3 129.0,96.5 131.2,96.3 133.5,96.1 135.8,95.8 138.0,95.1 140.2,94.6 142.5,93.9 144.8,93.4 147.0,92.8 149.2,92.7 151.5,92.3 153.8,91.7 156.0,91.0 158.2,90.6 160.5,90.3 162.8,90.0 165.0,89.7 167.2,89.0 169.5,88.4 171.8,87.8 174.0,87.2 176.2,86.9 178.5,86.7 180.8,86.5 183.0,86.0 185.2,85.7 187.5,85.4 189.8,85.1 192.0,84.9 194.2,84.6 196.5,84.4 198.8,84.2 201.0,84.0 203.2,83.4 205.5,83.0 207.8,82.9 210.0,82.7 212.2,82.6 214.5,82.6 216.8,93.3 219.0,92.2 221.2,91.3 223.5,90.3 225.8,87.4 228.0,85.3 230.2,83.1 232.5,82.3 234.8,81.4 237.0,79.9 239.2,78.3 241.5,77.1 243.8,76.6 246.0,76.2 248.2,75.0 250.5,74.2 252.8,73.6 255.0,72.9 257.2,72.6 259.5,72.5 261.8,71.9 264.0,70.9 266.2,70.2 268.5,69.5 270.8,68.7 273.0,68.3 275.2,68.0 277.5,67.3 279.8,66.7 282.0,66.1 284.2,65.6 286.5,65.4 288.8,65.3 291.0,64.9 293.2,64.4 295.5,64.0 297.8,63.6 300.0,63.3 302.2,63.0 304.5,62.7 306.8,62.4 309.0,62.2 311.2,61.9 313.5,61.3 315.8,60.9 318.0,60.4 320.2,60.1 322.5,59.8 324.8,59.6 327.0,59.4 329.2,59.1 331.5,58.3 333.8,57.8 336.0,57.2 338.2,56.9 340.5,56.9 342.8,56.6 345.0,56.2 347.2,55.8 349.5,55.5 351.8,55.0 354.0,54.7 356.2,54.5 358.5,54.3 360.8,54.1 363.0,53.8 365.2,53.5 367.5,53.3 369.8,52.8 372.0,52.6 374.2,52.4 376.5,52.2 378.8,52.1 381.0,51.7 383.2,51.3 385.5,51.0 387.8,50.6 390.0,50.3 392.2,50.0 394.5,49.9 396.8,49.7 399.0,49.2 401.2,48.7 403.5,48.4 405.8,48.1 408.0,47.5 410.2,47.4 412.5,47.2 414.8,47.0 417.0,46.7 419.2,46.4 421.5,46.1 423.8,45.9 426.0,45.6 428.2,45.4 430.5,45.1 432.8,44.9 435.0,44.8 437.2,44.5 439.5,44.1 441.8,43.9 444.0,43.6 446.2,43.4 448.5,43.2 450.8,42.9 453.0,42.8 455.2,42.5 457.5,42.3 459.8,41.8 462.0,41.3 464.2,41.0 466.5,40.8 468.8,40.6 471.0,40.5 473.2,40.2 475.5,39.8 477.8,39.6 480.0,39.4 482.2,39.1 484.5,38.9 486.8,38.6 489.0,38.4 491.2,38.2 493.5,37.8 495.8,37.6 498.0,37.2 500.2,36.9 502.5,36.7 504.8,36.6 507.0,36.5 509.2,36.3 511.5,36.0 513.8,35.7 516.0,35.5 518.2,35.2 520.5,35.0 522.8,34.8 525.0,34.6 527.2,34.4 529.5,34.1 531.8,33.7 534.0,33.4 536.2,33.2 538.5,33.0 540.8,32.8 543.0,32.7 545.2,32.5 547.5,32.4 549.8,32.1 552.0,31.7 554.2,31.5 556.5,31.3 558.8,31.1 561.0,30.9 563.2,30.7 565.5,30.4 567.8,30.2 570.0,30.0" />
  
  <!-- Punto finale luminoso -->
  <circle cx="570.0" cy="30.0" r="4" fill="#ffffff" stroke="#0366d6" stroke-width="2.5" />
</svg>