<svg width="600" height="150" viewBox="0 0 600 150" xmlns="http://www.w3.org/2000/svg">
  <defs>
    <filter id="shadow2" x="-2%" y="-2%" width="104%" height="108%">
      <feDropShadow dx="0" dy="2" stdDeviation="3" flood-opacity="0.1" />
    </filter>
    <linearGradient id="fillGrad" x1="0" y1="0" x2="0" y2="1">
      <stop offset="0%" stop-color="#0366d6" stop-opacity="0.3"/>
      <stop offset="100%" stop-color="#0366d6" stop-opacity="0.02"/>
    </linearGradient>
  </defs>
  <rect width="600" height="150" rx="12" fill="#ffffff" filter="url(#shadow2)" stroke="#e1e4e8" stroke-width="1"/>
  <text x="20" y="24" fill="#2b3137" font-family="-apple-system,BlinkMacSystemFont,'Segoe UI',Helvetica,Arial,sans-serif" font-size="14" font-weight="600">📈 Download Growth (Actual: 86.5k)</text>
  
  <!-- Area sotto la linea -->
  <polygon fill="url(#fillGrad)" points="30.0,120.0,120 30.0,120.0 31.4,119.5 32.8,118.9 34.2,118.4 35.6,118.3 37.0,118.1 38.4,117.5 39.8,117.1 41.2,116.8 42.6,116.2 44.0,115.9 45.4,115.6 46.8,115.4 48.2,115.1 49.6,114.7 51.0,114.2 52.4,113.9 53.8,113.7 55.2,113.5 56.6,113.2 58.1,112.9 59.5,112.6 60.9,112.5 62.3,112.2 63.7,111.2 65.1,111.0 66.5,110.6 67.9,110.2 69.3,109.9 70.7,109.5 72.1,109.3 73.5,109.2 74.9,108.9 76.3,108.4 77.7,108.0 79.1,107.7 80.5,107.4 81.9,107.3 83.3,107.2 84.7,107.1 86.1,106.8 87.5,106.6 88.9,106.4 90.3,106.1 91.7,105.6 93.1,105.4 94.5,105.3 95.9,105.1 97.3,104.7 98.7,104.4 100.1,104.0 101.5,103.7 102.9,103.3 104.3,103.3 105.7,103.0 107.1,102.6 108.5,102.2 109.9,101.9 111.4,101.8 112.8,101.6 114.2,101.4 115.6,101.0 117.0,100.6 118.4,100.2 119.8,99.9 121.2,99.7 122.6,99.6 124.0,99.4 125.4,99.1 126.8,98.9 128.2,98.8 129.6,98.6 131.0,98.5 132.4,98.3 133.8,98.1 135.2,98.1 136.6,98.0 138.0,97.6 139.4,97.3 140.8,97.3 142.2,97.1 143.6,97.0 145.0,97.0 146.4,103.6 147.8,103.0 149.2,102.4 150.6,101.8 152.0,100.0 153.4,98.7 154.8,97.4 156.2,96.9 157.6,96.3 159.0,95.4 160.4,94.4 161.8,93.7 163.2,93.4 164.6,93.1 166.1,92.4 167.5,91.9 168.9,91.6 170.3,91.1 171.7,91.0 173.1,90.9 174.5,90.5 175.9,89.9 177.3,89.5 178.7,89.0 180.1,88.5 181.5,88.3 182.9,88.1 184.3,87.7 185.7,87.3 187.1,86.9 188.5,86.7 189.9,86.5 191.3,86.4 192.7,86.2 194.1,85.9 195.5,85.6 196.9,85.4 198.3,85.2 199.7,85.0 201.1,84.8 202.5,84.7 203.9,84.5 205.3,84.4 206.7,84.0 208.1,83.8 209.5,83.5 210.9,83.3 212.3,83.1 213.7,83.0 215.1,82.8 216.5,82.7 217.9,82.2 219.4,81.9 220.8,81.5 222.2,81.3 223.6,81.3 225.0,81.1 226.4,80.9 227.8,80.6 229.2,80.4 230.6,80.1 232.0,79.9 233.4,79.8 234.8,79.7 236.2,79.6 237.6,79.4 239.0,79.2 240.4,79.1 241.8,78.8 243.2,78.7 244.6,78.6 246.0,78.4 247.4,78.3 248.8,78.1 250.2,77.9 251.6,77.7 253.0,77.5 254.4,77.3 255.8,77.1 257.2,77.0 258.6,76.9 260.0,76.6 261.4,76.3 262.8,76.1 264.2,75.9 265.6,75.5 267.0,75.5 268.4,75.3 269.8,75.2 271.2,75.1 272.6,74.9 274.1,74.7 275.5,74.6 276.9,74.4 278.3,74.3 279.7,74.1 281.1,74.0 282.5,73.9 283.9,73.7 285.3,73.4 286.7,73.3 288.1,73.1 289.5,73.0 290.9,72.9 292.3,72.7 293.7,72.6 295.1,72.5 296.5,72.3 297.9,72.1 299.3,71.8 300.7,71.6 302.1,71.4 303.5,71.3 304.9,71.3 306.3,71.1 307.7,70.8 309.1,70.7 310.5,70.6 311.9,70.4 313.3,70.3 314.7,70.1 316.1,70.0 317.5,69.8 318.9,69.6 320.3,69.4 321.7,69.2 323.1,69.0 324.5,68.9 325.9,68.9 327.4,68.8 328.8,68.6 330.2,68.5 331.6,68.3 333.0,68.2 334.4,68.0 335.8,67.9 337.2,67.8 338.6,67.6 340.0,67.5 341.4,67.3 342.8,67.1 344.2,66.9 345.6,66.8 347.0,66.6 348.4,66.5 349.8,66.5 351.2,66.4 352.6,66.3 354.0,66.1 355.4,65.9 356.8,65.7 358.2,65.6 359.6,65.5 361.0,65.4 362.4,65.2 363.8,65.0 365.2,64.9 366.6,64.8 368.0,64.7 369.4,64.5 370.8,64.4 372.2,64.2 373.6,64.1 375.0,64.0 376.4,63.9 377.8,63.8 379.2,63.7 380.6,63.5 382.1,63.5 383.5,63.4 384.9,63.1 386.3,62.9 387.7,67.1 389.1,66.3 390.5,64.7 391.9,64.1 393.3,63.3 394.7,62.4 396.1,61.9 397.5,61.5 398.9,60.9 400.3,60.0 401.7,59.3 403.1,59.1 404.5,58.7 405.9,58.4 407.3,58.0 408.7,57.5 410.1,57.0 411.5,56.7 412.9,56.3 414.3,56.0 415.7,55.7 417.1,55.5 418.5,55.2 419.9,55.0 421.3,54.5 422.7,54.2 424.1,53.8 425.5,53.2 426.9,52.9 428.3,52.7 429.7,52.5 431.1,52.3 432.5,51.9 433.9,51.5 435.4,51.3 436.8,50.4 438.2,49.7 439.6,49.4 441.0,49.2 442.4,48.9 443.8,48.5 445.2,48.1 446.6,47.8 448.0,47.5 449.4,47.2 450.8,46.9 452.2,46.6 453.6,46.2 455.0,46.0 456.4,45.8 457.8,45.6 459.2,45.2 460.6,45.0 462.0,44.7 463.4,44.6 464.8,44.4 466.2,44.2 467.6,44.0 469.0,43.8 470.4,43.6 471.8,43.5 473.2,43.3 474.6,43.0 476.0,42.8 477.4,42.5 478.8,42.1 480.2,41.8 481.6,41.7 483.0,41.5 484.4,41.4 485.8,41.2 487.2,41.0 488.6,40.8 490.1,40.7 491.5,40.6 492.9,40.4 494.3,40.3 495.7,40.0 497.1,39.8 498.5,39.7 499.9,39.4 501.3,39.1 502.7,38.7 504.1,38.5 505.5,38.4 506.9,38.1 508.3,37.9 509.7,37.7 511.1,37.4 512.5,37.2 513.9,37.1 515.3,37.0 516.7,36.8 518.1,36.5 519.5,36.4 520.9,36.3 522.3,36.0 523.7,35.8 525.1,35.6 526.5,35.3 527.9,35.2 529.3,34.9 530.7,34.6 532.1,34.4 533.5,34.3 534.9,34.1 536.3,34.0 537.7,33.8 539.1,33.6 540.5,33.4 541.9,33.3 543.4,33.1 544.8,33.0 546.2,32.8 547.6,32.6 549.0,32.5 550.4,32.3 551.8,32.2 553.2,32.1 554.6,31.9 556.0,31.7 557.4,31.6 558.8,31.4 560.2,31.3 561.6,31.1 563.0,30.8 564.4,30.7 565.8,30.6 567.2,30.4 568.6,30.2 570.0,30.0 570.0,30.0,120" />
  
  <!-- Linea principale -->
  <polyline fill="none" stroke="#0366d6" stroke-width="2.5" stroke-linecap="round" stroke-linejoin="round" points="30.0,120.0 31.4,119.5 32.8,118.9 34.2,118.4 35.6,118.3 37.0,118.1 38.4,117.5 39.8,117.1 41.2,116.8 42.6,116.2 44.0,115.9 45.4,115.6 46.8,115.4 48.2,115.1 49.6,114.7 51.0,114.2 52.4,113.9 53.8,113.7 55.2,113.5 56.6,113.2 58.1,112.9 59.5,112.6 60.9,112.5 62.3,112.2 63.7,111.2 65.1,111.0 66.5,110.6 67.9,110.2 69.3,109.9 70.7,109.5 72.1,109.3 73.5,109.2 74.9,108.9 76.3,108.4 77.7,108.0 79.1,107.7 80.5,107.4 81.9,107.3 83.3,107.2 84.7,107.1 86.1,106.8 87.5,106.6 88.9,106.4 90.3,106.1 91.7,105.6 93.1,105.4 94.5,105.3 95.9,105.1 97.3,104.7 98.7,104.4 100.1,104.0 101.5,103.7 102.9,103.3 104.3,103.3 105.7,103.0 107.1,102.6 108.5,102.2 109.9,101.9 111.4,101.8 112.8,101.6 114.2,101.4 115.6,101.0 117.0,100.6 118.4,100.2 119.8,99.9 121.2,99.7 122.6,99.6 124.0,99.4 125.4,99.1 126.8,98.9 128.2,98.8 129.6,98.6 131.0,98.5 132.4,98.3 133.8,98.1 135.2,98.1 136.6,98.0 138.0,97.6 139.4,97.3 140.8,97.3 142.2,97.1 143.6,97.0 145.0,97.0 146.4,103.6 147.8,103.0 149.2,102.4 150.6,101.8 152.0,100.0 153.4,98.7 154.8,97.4 156.2,96.9 157.6,96.3 159.0,95.4 160.4,94.4 161.8,93.7 163.2,93.4 164.6,93.1 166.1,92.4 167.5,91.9 168.9,91.6 170.3,91.1 171.7,91.0 173.1,90.9 174.5,90.5 175.9,89.9 177.3,89.5 178.7,89.0 180.1,88.5 181.5,88.3 182.9,88.1 184.3,87.7 185.7,87.3 187.1,86.9 188.5,86.7 189.9,86.5 191.3,86.4 192.7,86.2 194.1,85.9 195.5,85.6 196.9,85.4 198.3,85.2 199.7,85.0 201.1,84.8 202.5,84.7 203.9,84.5 205.3,84.4 206.7,84.0 208.1,83.8 209.5,83.5 210.9,83.3 212.3,83.1 213.7,83.0 215.1,82.8 216.5,82.7 217.9,82.2 219.4,81.9 220.8,81.5 222.2,81.3 223.6,81.3 225.0,81.1 226.4,80.9 227.8,80.6 229.2,80.4 230.6,80.1 232.0,79.9 233.4,79.8 234.8,79.7 236.2,79.6 237.6,79.4 239.0,79.2 240.4,79.1 241.8,78.8 243.2,78.7 244.6,78.6 246.0,78.4 247.4,78.3 248.8,78.1 250.2,77.9 251.6,77.7 253.0,77.5 254.4,77.3 255.8,77.1 257.2,77.0 258.6,76.9 260.0,76.6 261.4,76.3 262.8,76.1 264.2,75.9 265.6,75.5 267.0,75.5 268.4,75.3 269.8,75.2 271.2,75.1 272.6,74.9 274.1,74.7 275.5,74.6 276.9,74.4 278.3,74.3 279.7,74.1 281.1,74.0 282.5,73.9 283.9,73.7 285.3,73.4 286.7,73.3 288.1,73.1 289.5,73.0 290.9,72.9 292.3,72.7 293.7,72.6 295.1,72.5 296.5,72.3 297.9,72.1 299.3,71.8 300.7,71.6 302.1,71.4 303.5,71.3 304.9,71.3 306.3,71.1 307.7,70.8 309.1,70.7 310.5,70.6 311.9,70.4 313.3,70.3 314.7,70.1 316.1,70.0 317.5,69.8 318.9,69.6 320.3,69.4 321.7,69.2 323.1,69.0 324.5,68.9 325.9,68.9 327.4,68.8 328.8,68.6 330.2,68.5 331.6,68.3 333.0,68.2 334.4,68.0 335.8,67.9 337.2,67.8 338.6,67.6 340.0,67.5 341.4,67.3 342.8,67.1 344.2,66.9 345.6,66.8 347.0,66.6 348.4,66.5 349.8,66.5 351.2,66.4 352.6,66.3 354.0,66.1 355.4,65.9 356.8,65.7 358.2,65.6 359.6,65.5 361.0,65.4 362.4,65.2 363.8,65.0 365.2,64.9 366.6,64.8 368.0,64.7 369.4,64.5 370.8,64.4 372.2,64.2 373.6,64.1 375.0,64.0 376.4,63.9 377.8,63.8 379.2,63.7 380.6,63.5 382.1,63.5 383.5,63.4 384.9,63.1 386.3,62.9 387.7,67.1 389.1,66.3 390.5,64.7 391.9,64.1 393.3,63.3 394.7,62.4 396.1,61.9 397.5,61.5 398.9,60.9 400.3,60.0 401.7,59.3 403.1,59.1 404.5,58.7 405.9,58.4 407.3,58.0 408.7,57.5 410.1,57.0 411.5,56.7 412.9,56.3 414.3,56.0 415.7,55.7 417.1,55.5 418.5,55.2 419.9,55.0 421.3,54.5 422.7,54.2 424.1,53.8 425.5,53.2 426.9,52.9 428.3,52.7 429.7,52.5 431.1,52.3 432.5,51.9 433.9,51.5 435.4,51.3 436.8,50.4 438.2,49.7 439.6,49.4 441.0,49.2 442.4,48.9 443.8,48.5 445.2,48.1 446.6,47.8 448.0,47.5 449.4,47.2 450.8,46.9 452.2,46.6 453.6,46.2 455.0,46.0 456.4,45.8 457.8,45.6 459.2,45.2 460.6,45.0 462.0,44.7 463.4,44.6 464.8,44.4 466.2,44.2 467.6,44.0 469.0,43.8 470.4,43.6 471.8,43.5 473.2,43.3 474.6,43.0 476.0,42.8 477.4,42.5 478.8,42.1 480.2,41.8 481.6,41.7 483.0,41.5 484.4,41.4 485.8,41.2 487.2,41.0 488.6,40.8 490.1,40.7 491.5,40.6 492.9,40.4 494.3,40.3 495.7,40.0 497.1,39.8 498.5,39.7 499.9,39.4 501.3,39.1 502.7,38.7 504.1,38.5 505.5,38.4 506.9,38.1 508.3,37.9 509.7,37.7 511.1,37.4 512.5,37.2 513.9,37.1 515.3,37.0 516.7,36.8 518.1,36.5 519.5,36.4 520.9,36.3 522.3,36.0 523.7,35.8 525.1,35.6 526.5,35.3 527.9,35.2 529.3,34.9 530.7,34.6 532.1,34.4 533.5,34.3 534.9,34.1 536.3,34.0 537.7,33.8 539.1,33.6 540.5,33.4 541.9,33.3 543.4,33.1 544.8,33.0 546.2,32.8 547.6,32.6 549.0,32.5 550.4,32.3 551.8,32.2 553.2,32.1 554.6,31.9 556.0,31.7 557.4,31.6 558.8,31.4 560.2,31.3 561.6,31.1 563.0,30.8 564.4,30.7 565.8,30.6 567.2,30.4 568.6,30.2 570.0,30.0" />
  
  <!-- Punto finale luminoso -->
  <circle cx="570.0" cy="30.0" r="4" fill="#ffffff" stroke="#0366d6" stroke-width="2.5" />
</svg>