<svg width="600" height="150" viewBox="0 0 600 150" xmlns="http://www.w3.org/2000/svg">
  <defs>
    <filter id="shadow2" x="-2%" y="-2%" width="104%" height="108%">
      <feDropShadow dx="0" dy="2" stdDeviation="3" flood-opacity="0.1" />
    </filter>
    <linearGradient id="fillGrad" x1="0" y1="0" x2="0" y2="1">
      <stop offset="0%" stop-color="#0366d6" stop-opacity="0.3"/>
      <stop offset="100%" stop-color="#0366d6" stop-opacity="0.02"/>
    </linearGradient>
  </defs>
  <rect width="600" height="150" rx="12" fill="#ffffff" filter="url(#shadow2)" stroke="#e1e4e8" stroke-width="1"/>
  <text x="20" y="24" fill="#2b3137" font-family="-apple-system,BlinkMacSystemFont,'Segoe UI',Helvetica,Arial,sans-serif" font-size="14" font-weight="600">📈 Download Growth (Actual: 85.5k)</text>
  
  <!-- Area sotto la linea -->
  <polygon fill="url(#fillGrad)" points="30.0,120.0,120 30.0,120.0 31.5,119.5 33.0,118.9 34.5,118.4 36.0,118.2 37.5,118.0 39.0,117.3 40.5,116.9 42.0,116.6 43.5,116.0 45.0,115.7 46.5,115.3 48.1,115.1 49.6,114.9 51.1,114.4 52.6,114.0 54.1,113.6 55.6,113.4 57.1,113.2 58.6,112.9 60.1,112.6 61.6,112.3 63.1,112.1 64.6,111.8 66.1,110.8 67.6,110.5 69.1,110.1 70.6,109.7 72.1,109.3 73.6,109.0 75.1,108.8 76.6,108.6 78.1,108.3 79.6,107.8 81.1,107.4 82.6,107.1 84.2,106.8 85.7,106.7 87.2,106.6 88.7,106.4 90.2,106.1 91.7,105.9 93.2,105.8 94.7,105.4 96.2,104.8 97.7,104.7 99.2,104.6 100.7,104.4 102.2,104.0 103.7,103.7 105.2,103.2 106.7,102.9 108.2,102.5 109.7,102.4 111.2,102.2 112.7,101.8 114.2,101.3 115.7,101.0 117.2,100.9 118.7,100.7 120.3,100.5 121.8,100.0 123.3,99.6 124.8,99.2 126.3,98.9 127.8,98.7 129.3,98.6 130.8,98.4 132.3,98.1 133.8,97.9 135.3,97.7 136.8,97.5 138.3,97.4 139.8,97.2 141.3,97.0 142.8,96.9 144.3,96.8 145.8,96.4 147.3,96.2 148.8,96.1 150.3,96.0 151.8,95.9 153.3,95.9 154.8,102.8 156.4,102.1 157.9,101.5 159.4,100.9 160.9,99.0 162.4,97.7 163.9,96.3 165.4,95.7 166.9,95.1 168.4,94.2 169.9,93.1 171.4,92.4 172.9,92.1 174.4,91.8 175.9,91.0 177.4,90.5 178.9,90.1 180.4,89.7 181.9,89.5 183.4,89.4 184.9,89.0 186.4,88.4 187.9,87.9 189.4,87.5 190.9,86.9 192.5,86.7 194.0,86.5 195.5,86.1 197.0,85.7 198.5,85.3 200.0,85.0 201.5,84.8 203.0,84.7 204.5,84.5 206.0,84.2 207.5,83.9 209.0,83.7 210.5,83.5 212.0,83.3 213.5,83.1 215.0,82.9 216.5,82.7 218.0,82.6 219.5,82.2 221.0,81.9 222.5,81.6 224.0,81.4 225.5,81.2 227.0,81.1 228.6,81.0 230.1,80.8 231.6,80.3 233.1,80.0 234.6,79.5 236.1,79.4 237.6,79.3 239.1,79.1 240.6,78.9 242.1,78.7 243.6,78.4 245.1,78.1 246.6,77.9 248.1,77.8 249.6,77.7 251.1,77.5 252.6,77.4 254.1,77.2 255.6,77.0 257.1,76.7 258.6,76.6 260.1,76.5 261.6,76.3 263.1,76.2 264.7,76.0 266.2,75.8 267.7,75.5 269.2,75.3 270.7,75.1 272.2,74.9 273.7,74.8 275.2,74.7 276.7,74.4 278.2,74.1 279.7,73.9 281.2,73.7 282.7,73.3 284.2,73.2 285.7,73.1 287.2,73.0 288.7,72.8 290.2,72.6 291.7,72.4 293.2,72.3 294.7,72.1 296.2,71.9 297.7,71.8 299.2,71.7 300.8,71.6 302.3,71.4 303.8,71.1 305.3,71.0 306.8,70.8 308.3,70.7 309.8,70.5 311.3,70.4 312.8,70.2 314.3,70.1 315.8,69.9 317.3,69.6 318.8,69.3 320.3,69.1 321.8,69.0 323.3,68.9 324.8,68.8 326.3,68.6 327.8,68.3 329.3,68.2 330.8,68.1 332.3,67.9 333.8,67.7 335.3,67.5 336.9,67.4 338.4,67.3 339.9,67.1 341.4,66.9 342.9,66.7 344.4,66.4 345.9,66.4 347.4,66.3 348.9,66.2 350.4,66.1 351.9,65.9 353.4,65.7 354.9,65.6 356.4,65.4 357.9,65.3 359.4,65.1 360.9,65.0 362.4,64.9 363.9,64.6 365.4,64.4 366.9,64.2 368.4,64.1 369.9,63.9 371.4,63.8 373.0,63.8 374.5,63.7 376.0,63.5 377.5,63.4 379.0,63.2 380.5,63.0 382.0,62.8 383.5,62.7 385.0,62.6 386.5,62.5 388.0,62.3 389.5,62.1 391.0,62.0 392.5,61.9 394.0,61.7 395.5,61.5 397.0,61.4 398.5,61.3 400.0,61.2 401.5,61.1 403.0,61.0 404.5,60.8 406.0,60.7 407.5,60.7 409.1,60.5 410.6,60.2 412.1,60.0 413.6,64.5 415.1,63.6 416.6,61.9 418.1,61.2 419.6,60.5 421.1,59.5 422.6,59.0 424.1,58.6 425.6,57.9 427.1,57.0 428.6,56.2 430.1,56.0 431.6,55.6 433.1,55.3 434.6,54.8 436.1,54.4 437.6,53.8 439.1,53.6 440.6,53.1 442.1,52.8 443.6,52.5 445.2,52.2 446.7,52.0 448.2,51.7 449.7,51.2 451.2,50.9 452.7,50.5 454.2,49.8 455.7,49.5 457.2,49.3 458.7,49.1 460.2,48.9 461.7,48.5 463.2,48.1 464.7,47.8 466.2,46.9 467.7,46.2 469.2,45.8 470.7,45.6 472.2,45.3 473.7,44.9 475.2,44.5 476.7,44.1 478.2,43.8 479.7,43.5 481.3,43.2 482.8,42.9 484.3,42.5 485.8,42.2 487.3,42.1 488.8,41.9 490.3,41.4 491.8,41.2 493.3,40.9 494.8,40.8 496.3,40.6 497.8,40.3 499.3,40.2 500.8,40.0 502.3,39.8 503.8,39.6 505.3,39.4 506.8,39.1 508.3,38.9 509.8,38.6 511.3,38.2 512.8,37.9 514.3,37.8 515.8,37.6 517.4,37.4 518.9,37.2 520.4,37.0 521.9,36.8 523.4,36.7 524.9,36.6 526.4,36.4 527.9,36.2 529.4,35.9 530.9,35.8 532.4,35.6 533.9,35.4 535.4,35.0 536.9,34.6 538.4,34.4 539.9,34.2 541.4,34.0 542.9,33.7 544.4,33.5 545.9,33.2 547.4,33.1 548.9,33.0 550.4,32.8 551.9,32.6 553.5,32.3 555.0,32.1 556.5,32.0 558.0,31.8 559.5,31.5 561.0,31.3 562.5,31.0 564.0,30.9 565.5,30.6 567.0,30.3 568.5,30.1 570.0,30.0 570.0,30.0,120" />
  
  <!-- Linea principale -->
  <polyline fill="none" stroke="#0366d6" stroke-width="2.5" stroke-linecap="round" stroke-linejoin="round" points="30.0,120.0 31.5,119.5 33.0,118.9 34.5,118.4 36.0,118.2 37.5,118.0 39.0,117.3 40.5,116.9 42.0,116.6 43.5,116.0 45.0,115.7 46.5,115.3 48.1,115.1 49.6,114.9 51.1,114.4 52.6,114.0 54.1,113.6 55.6,113.4 57.1,113.2 58.6,112.9 60.1,112.6 61.6,112.3 63.1,112.1 64.6,111.8 66.1,110.8 67.6,110.5 69.1,110.1 70.6,109.7 72.1,109.3 73.6,109.0 75.1,108.8 76.6,108.6 78.1,108.3 79.6,107.8 81.1,107.4 82.6,107.1 84.2,106.8 85.7,106.7 87.2,106.6 88.7,106.4 90.2,106.1 91.7,105.9 93.2,105.8 94.7,105.4 96.2,104.8 97.7,104.7 99.2,104.6 100.7,104.4 102.2,104.0 103.7,103.7 105.2,103.2 106.7,102.9 108.2,102.5 109.7,102.4 111.2,102.2 112.7,101.8 114.2,101.3 115.7,101.0 117.2,100.9 118.7,100.7 120.3,100.5 121.8,100.0 123.3,99.6 124.8,99.2 126.3,98.9 127.8,98.7 129.3,98.6 130.8,98.4 132.3,98.1 133.8,97.9 135.3,97.7 136.8,97.5 138.3,97.4 139.8,97.2 141.3,97.0 142.8,96.9 144.3,96.8 145.8,96.4 147.3,96.2 148.8,96.1 150.3,96.0 151.8,95.9 153.3,95.9 154.8,102.8 156.4,102.1 157.9,101.5 159.4,100.9 160.9,99.0 162.4,97.7 163.9,96.3 165.4,95.7 166.9,95.1 168.4,94.2 169.9,93.1 171.4,92.4 172.9,92.1 174.4,91.8 175.9,91.0 177.4,90.5 178.9,90.1 180.4,89.7 181.9,89.5 183.4,89.4 184.9,89.0 186.4,88.4 187.9,87.9 189.4,87.5 190.9,86.9 192.5,86.7 194.0,86.5 195.5,86.1 197.0,85.7 198.5,85.3 200.0,85.0 201.5,84.8 203.0,84.7 204.5,84.5 206.0,84.2 207.5,83.9 209.0,83.7 210.5,83.5 212.0,83.3 213.5,83.1 215.0,82.9 216.5,82.7 218.0,82.6 219.5,82.2 221.0,81.9 222.5,81.6 224.0,81.4 225.5,81.2 227.0,81.1 228.6,81.0 230.1,80.8 231.6,80.3 233.1,80.0 234.6,79.5 236.1,79.4 237.6,79.3 239.1,79.1 240.6,78.9 242.1,78.7 243.6,78.4 245.1,78.1 246.6,77.9 248.1,77.8 249.6,77.7 251.1,77.5 252.6,77.4 254.1,77.2 255.6,77.0 257.1,76.7 258.6,76.6 260.1,76.5 261.6,76.3 263.1,76.2 264.7,76.0 266.2,75.8 267.7,75.5 269.2,75.3 270.7,75.1 272.2,74.9 273.7,74.8 275.2,74.7 276.7,74.4 278.2,74.1 279.7,73.9 281.2,73.7 282.7,73.3 284.2,73.2 285.7,73.1 287.2,73.0 288.7,72.8 290.2,72.6 291.7,72.4 293.2,72.3 294.7,72.1 296.2,71.9 297.7,71.8 299.2,71.7 300.8,71.6 302.3,71.4 303.8,71.1 305.3,71.0 306.8,70.8 308.3,70.7 309.8,70.5 311.3,70.4 312.8,70.2 314.3,70.1 315.8,69.9 317.3,69.6 318.8,69.3 320.3,69.1 321.8,69.0 323.3,68.9 324.8,68.8 326.3,68.6 327.8,68.3 329.3,68.2 330.8,68.1 332.3,67.9 333.8,67.7 335.3,67.5 336.9,67.4 338.4,67.3 339.9,67.1 341.4,66.9 342.9,66.7 344.4,66.4 345.9,66.4 347.4,66.3 348.9,66.2 350.4,66.1 351.9,65.9 353.4,65.7 354.9,65.6 356.4,65.4 357.9,65.3 359.4,65.1 360.9,65.0 362.4,64.9 363.9,64.6 365.4,64.4 366.9,64.2 368.4,64.1 369.9,63.9 371.4,63.8 373.0,63.8 374.5,63.7 376.0,63.5 377.5,63.4 379.0,63.2 380.5,63.0 382.0,62.8 383.5,62.7 385.0,62.6 386.5,62.5 388.0,62.3 389.5,62.1 391.0,62.0 392.5,61.9 394.0,61.7 395.5,61.5 397.0,61.4 398.5,61.3 400.0,61.2 401.5,61.1 403.0,61.0 404.5,60.8 406.0,60.7 407.5,60.7 409.1,60.5 410.6,60.2 412.1,60.0 413.6,64.5 415.1,63.6 416.6,61.9 418.1,61.2 419.6,60.5 421.1,59.5 422.6,59.0 424.1,58.6 425.6,57.9 427.1,57.0 428.6,56.2 430.1,56.0 431.6,55.6 433.1,55.3 434.6,54.8 436.1,54.4 437.6,53.8 439.1,53.6 440.6,53.1 442.1,52.8 443.6,52.5 445.2,52.2 446.7,52.0 448.2,51.7 449.7,51.2 451.2,50.9 452.7,50.5 454.2,49.8 455.7,49.5 457.2,49.3 458.7,49.1 460.2,48.9 461.7,48.5 463.2,48.1 464.7,47.8 466.2,46.9 467.7,46.2 469.2,45.8 470.7,45.6 472.2,45.3 473.7,44.9 475.2,44.5 476.7,44.1 478.2,43.8 479.7,43.5 481.3,43.2 482.8,42.9 484.3,42.5 485.8,42.2 487.3,42.1 488.8,41.9 490.3,41.4 491.8,41.2 493.3,40.9 494.8,40.8 496.3,40.6 497.8,40.3 499.3,40.2 500.8,40.0 502.3,39.8 503.8,39.6 505.3,39.4 506.8,39.1 508.3,38.9 509.8,38.6 511.3,38.2 512.8,37.9 514.3,37.8 515.8,37.6 517.4,37.4 518.9,37.2 520.4,37.0 521.9,36.8 523.4,36.7 524.9,36.6 526.4,36.4 527.9,36.2 529.4,35.9 530.9,35.8 532.4,35.6 533.9,35.4 535.4,35.0 536.9,34.6 538.4,34.4 539.9,34.2 541.4,34.0 542.9,33.7 544.4,33.5 545.9,33.2 547.4,33.1 548.9,33.0 550.4,32.8 551.9,32.6 553.5,32.3 555.0,32.1 556.5,32.0 558.0,31.8 559.5,31.5 561.0,31.3 562.5,31.0 564.0,30.9 565.5,30.6 567.0,30.3 568.5,30.1 570.0,30.0" />
  
  <!-- Punto finale luminoso -->
  <circle cx="570.0" cy="30.0" r="4" fill="#ffffff" stroke="#0366d6" stroke-width="2.5" />
</svg>