<svg width="600" height="150" viewBox="0 0 600 150" xmlns="http://www.w3.org/2000/svg">
  <defs>
    <filter id="shadow2" x="-2%" y="-2%" width="104%" height="108%">
      <feDropShadow dx="0" dy="2" stdDeviation="3" flood-opacity="0.1" />
    </filter>
    <linearGradient id="fillGrad" x1="0" y1="0" x2="0" y2="1">
      <stop offset="0%" stop-color="#0366d6" stop-opacity="0.3"/>
      <stop offset="100%" stop-color="#0366d6" stop-opacity="0.02"/>
    </linearGradient>
  </defs>
  <rect width="600" height="150" rx="12" fill="#ffffff" filter="url(#shadow2)" stroke="#e1e4e8" stroke-width="1"/>
  <text x="20" y="24" fill="#2b3137" font-family="-apple-system,BlinkMacSystemFont,'Segoe UI',Helvetica,Arial,sans-serif" font-size="14" font-weight="600">📈 Download Growth (Actual: 85.8k)</text>
  
  <!-- Area sotto la linea -->
  <polygon fill="url(#fillGrad)" points="30.0,120.0,120 30.0,120.0 31.5,119.5 32.9,118.9 34.4,118.4 35.9,118.3 37.4,118.0 38.8,117.4 40.3,117.0 41.8,116.7 43.2,116.0 44.7,115.7 46.2,115.4 47.7,115.2 49.1,114.9 50.6,114.5 52.1,114.0 53.5,113.7 55.0,113.5 56.5,113.3 58.0,113.0 59.4,112.7 60.9,112.4 62.4,112.2 63.8,111.9 65.3,110.9 66.8,110.6 68.3,110.3 69.7,109.9 71.2,109.5 72.7,109.2 74.1,109.0 75.6,108.8 77.1,108.5 78.6,108.0 80.0,107.6 81.5,107.3 83.0,107.0 84.4,106.9 85.9,106.8 87.4,106.6 88.9,106.3 90.3,106.1 91.8,106.0 93.3,105.6 94.7,105.1 96.2,104.9 97.7,104.8 99.2,104.6 100.6,104.2 102.1,103.9 103.6,103.5 105.0,103.2 106.5,102.8 108.0,102.7 109.5,102.4 110.9,102.0 112.4,101.6 113.9,101.3 115.3,101.2 116.8,101.0 118.3,100.8 119.8,100.4 121.2,99.9 122.7,99.6 124.2,99.2 125.6,99.0 127.1,98.9 128.6,98.7 130.1,98.4 131.5,98.2 133.0,98.0 134.5,97.9 135.9,97.8 137.4,97.5 138.9,97.4 140.4,97.3 141.8,97.2 143.3,96.8 144.8,96.6 146.2,96.5 147.7,96.3 149.2,96.3 150.7,96.3 152.1,103.1 153.6,102.4 155.1,101.8 156.5,101.2 158.0,99.3 159.5,98.0 161.0,96.6 162.4,96.1 163.9,95.5 165.4,94.6 166.8,93.5 168.3,92.8 169.8,92.5 171.3,92.2 172.7,91.5 174.2,90.9 175.7,90.6 177.1,90.2 178.6,90.0 180.1,89.9 181.6,89.5 183.0,88.9 184.5,88.4 186.0,88.0 187.4,87.5 188.9,87.2 190.4,87.0 191.9,86.6 193.3,86.2 194.8,85.8 196.3,85.5 197.7,85.4 199.2,85.3 200.7,85.1 202.2,84.7 203.6,84.5 205.1,84.2 206.6,84.0 208.0,83.8 209.5,83.7 211.0,83.5 212.5,83.3 213.9,83.1 215.4,82.8 216.9,82.5 218.3,82.2 219.8,82.1 221.3,81.8 222.8,81.7 224.2,81.6 225.7,81.4 227.2,80.9 228.6,80.6 230.1,80.2 231.6,80.0 233.1,80.0 234.5,79.8 236.0,79.6 237.5,79.3 238.9,79.1 240.4,78.8 241.9,78.6 243.4,78.5 244.8,78.3 246.3,78.2 247.8,78.0 249.2,77.9 250.7,77.7 252.2,77.4 253.7,77.3 255.1,77.2 256.6,77.0 258.1,76.9 259.5,76.7 261.0,76.5 262.5,76.2 264.0,76.0 265.4,75.8 266.9,75.7 268.4,75.6 269.8,75.4 271.3,75.1 272.8,74.8 274.3,74.6 275.7,74.4 277.2,74.0 278.7,73.9 280.1,73.8 281.6,73.7 283.1,73.5 284.6,73.4 286.0,73.2 287.5,73.0 289.0,72.8 290.4,72.7 291.9,72.5 293.4,72.4 294.9,72.3 296.3,72.1 297.8,71.9 299.3,71.8 300.7,71.5 302.2,71.4 303.7,71.3 305.1,71.1 306.6,71.0 308.1,70.9 309.6,70.7 311.0,70.4 312.5,70.1 314.0,69.9 315.4,69.8 316.9,69.7 318.4,69.6 319.9,69.4 321.3,69.1 322.8,69.0 324.3,68.9 325.7,68.7 327.2,68.6 328.7,68.4 330.2,68.3 331.6,68.1 333.1,67.9 334.6,67.7 336.0,67.5 337.5,67.3 339.0,67.2 340.5,67.1 341.9,67.1 343.4,66.9 344.9,66.8 346.3,66.6 347.8,66.4 349.3,66.2 350.8,66.1 352.2,66.0 353.7,65.9 355.2,65.7 356.6,65.5 358.1,65.3 359.6,65.1 361.1,64.9 362.5,64.8 364.0,64.7 365.5,64.6 366.9,64.5 368.4,64.4 369.9,64.3 371.4,64.0 372.8,63.9 374.3,63.7 375.8,63.6 377.2,63.5 378.7,63.4 380.2,63.2 381.7,63.1 383.1,62.9 384.6,62.8 386.1,62.6 387.5,62.5 389.0,62.3 390.5,62.2 392.0,62.1 393.4,62.0 394.9,61.9 396.4,61.8 397.8,61.6 399.3,61.6 400.8,61.4 402.3,61.1 403.7,60.9 405.2,65.3 406.7,64.5 408.1,62.8 409.6,62.2 411.1,61.4 412.6,60.4 414.0,59.9 415.5,59.6 417.0,58.9 418.4,58.0 419.9,57.2 421.4,57.0 422.9,56.7 424.3,56.4 425.8,55.9 427.3,55.4 428.7,54.8 430.2,54.6 431.7,54.1 433.2,53.9 434.6,53.5 436.1,53.3 437.6,53.0 439.0,52.8 440.5,52.3 442.0,52.0 443.5,51.6 444.9,50.9 446.4,50.6 447.9,50.4 449.3,50.2 450.8,50.0 452.3,49.6 453.8,49.2 455.2,48.9 456.7,48.0 458.2,47.3 459.6,47.0 461.1,46.8 462.6,46.5 464.1,46.0 465.5,45.6 467.0,45.3 468.5,45.0 469.9,44.7 471.4,44.4 472.9,44.1 474.4,43.7 475.8,43.4 477.3,43.3 478.8,43.1 480.2,42.7 481.7,42.4 483.2,42.2 484.7,42.0 486.1,41.9 487.6,41.6 489.1,41.4 490.5,41.2 492.0,41.0 493.5,40.9 495.0,40.7 496.4,40.4 497.9,40.2 499.4,39.9 500.8,39.5 502.3,39.2 503.8,39.0 505.3,38.8 506.7,38.7 508.2,38.5 509.7,38.3 511.1,38.1 512.6,38.0 514.1,37.9 515.6,37.7 517.0,37.6 518.5,37.2 520.0,37.1 521.4,36.9 522.9,36.7 524.4,36.4 525.9,36.0 527.3,35.8 528.8,35.6 530.3,35.4 531.7,35.1 533.2,34.9 534.7,34.6 536.2,34.4 537.6,34.3 539.1,34.2 540.6,34.0 542.0,33.7 543.5,33.5 545.0,33.4 546.5,33.2 547.9,32.9 549.4,32.7 550.9,32.4 552.3,32.3 553.8,32.0 555.3,31.7 556.8,31.5 558.2,31.4 559.7,31.2 561.2,31.1 562.6,30.9 564.1,30.7 565.6,30.4 567.1,30.3 568.5,30.2 570.0,30.0 570.0,30.0,120" />
  
  <!-- Linea principale -->
  <polyline fill="none" stroke="#0366d6" stroke-width="2.5" stroke-linecap="round" stroke-linejoin="round" points="30.0,120.0 31.5,119.5 32.9,118.9 34.4,118.4 35.9,118.3 37.4,118.0 38.8,117.4 40.3,117.0 41.8,116.7 43.2,116.0 44.7,115.7 46.2,115.4 47.7,115.2 49.1,114.9 50.6,114.5 52.1,114.0 53.5,113.7 55.0,113.5 56.5,113.3 58.0,113.0 59.4,112.7 60.9,112.4 62.4,112.2 63.8,111.9 65.3,110.9 66.8,110.6 68.3,110.3 69.7,109.9 71.2,109.5 72.7,109.2 74.1,109.0 75.6,108.8 77.1,108.5 78.6,108.0 80.0,107.6 81.5,107.3 83.0,107.0 84.4,106.9 85.9,106.8 87.4,106.6 88.9,106.3 90.3,106.1 91.8,106.0 93.3,105.6 94.7,105.1 96.2,104.9 97.7,104.8 99.2,104.6 100.6,104.2 102.1,103.9 103.6,103.5 105.0,103.2 106.5,102.8 108.0,102.7 109.5,102.4 110.9,102.0 112.4,101.6 113.9,101.3 115.3,101.2 116.8,101.0 118.3,100.8 119.8,100.4 121.2,99.9 122.7,99.6 124.2,99.2 125.6,99.0 127.1,98.9 128.6,98.7 130.1,98.4 131.5,98.2 133.0,98.0 134.5,97.9 135.9,97.8 137.4,97.5 138.9,97.4 140.4,97.3 141.8,97.2 143.3,96.8 144.8,96.6 146.2,96.5 147.7,96.3 149.2,96.3 150.7,96.3 152.1,103.1 153.6,102.4 155.1,101.8 156.5,101.2 158.0,99.3 159.5,98.0 161.0,96.6 162.4,96.1 163.9,95.5 165.4,94.6 166.8,93.5 168.3,92.8 169.8,92.5 171.3,92.2 172.7,91.5 174.2,90.9 175.7,90.6 177.1,90.2 178.6,90.0 180.1,89.9 181.6,89.5 183.0,88.9 184.5,88.4 186.0,88.0 187.4,87.5 188.9,87.2 190.4,87.0 191.9,86.6 193.3,86.2 194.8,85.8 196.3,85.5 197.7,85.4 199.2,85.3 200.7,85.1 202.2,84.7 203.6,84.5 205.1,84.2 206.6,84.0 208.0,83.8 209.5,83.7 211.0,83.5 212.5,83.3 213.9,83.1 215.4,82.8 216.9,82.5 218.3,82.2 219.8,82.1 221.3,81.8 222.8,81.7 224.2,81.6 225.7,81.4 227.2,80.9 228.6,80.6 230.1,80.2 231.6,80.0 233.1,80.0 234.5,79.8 236.0,79.6 237.5,79.3 238.9,79.1 240.4,78.8 241.9,78.6 243.4,78.5 244.8,78.3 246.3,78.2 247.8,78.0 249.2,77.9 250.7,77.7 252.2,77.4 253.7,77.3 255.1,77.2 256.6,77.0 258.1,76.9 259.5,76.7 261.0,76.5 262.5,76.2 264.0,76.0 265.4,75.8 266.9,75.7 268.4,75.6 269.8,75.4 271.3,75.1 272.8,74.8 274.3,74.6 275.7,74.4 277.2,74.0 278.7,73.9 280.1,73.8 281.6,73.7 283.1,73.5 284.6,73.4 286.0,73.2 287.5,73.0 289.0,72.8 290.4,72.7 291.9,72.5 293.4,72.4 294.9,72.3 296.3,72.1 297.8,71.9 299.3,71.8 300.7,71.5 302.2,71.4 303.7,71.3 305.1,71.1 306.6,71.0 308.1,70.9 309.6,70.7 311.0,70.4 312.5,70.1 314.0,69.9 315.4,69.8 316.9,69.7 318.4,69.6 319.9,69.4 321.3,69.1 322.8,69.0 324.3,68.9 325.7,68.7 327.2,68.6 328.7,68.4 330.2,68.3 331.6,68.1 333.1,67.9 334.6,67.7 336.0,67.5 337.5,67.3 339.0,67.2 340.5,67.1 341.9,67.1 343.4,66.9 344.9,66.8 346.3,66.6 347.8,66.4 349.3,66.2 350.8,66.1 352.2,66.0 353.7,65.9 355.2,65.7 356.6,65.5 358.1,65.3 359.6,65.1 361.1,64.9 362.5,64.8 364.0,64.7 365.5,64.6 366.9,64.5 368.4,64.4 369.9,64.3 371.4,64.0 372.8,63.9 374.3,63.7 375.8,63.6 377.2,63.5 378.7,63.4 380.2,63.2 381.7,63.1 383.1,62.9 384.6,62.8 386.1,62.6 387.5,62.5 389.0,62.3 390.5,62.2 392.0,62.1 393.4,62.0 394.9,61.9 396.4,61.8 397.8,61.6 399.3,61.6 400.8,61.4 402.3,61.1 403.7,60.9 405.2,65.3 406.7,64.5 408.1,62.8 409.6,62.2 411.1,61.4 412.6,60.4 414.0,59.9 415.5,59.6 417.0,58.9 418.4,58.0 419.9,57.2 421.4,57.0 422.9,56.7 424.3,56.4 425.8,55.9 427.3,55.4 428.7,54.8 430.2,54.6 431.7,54.1 433.2,53.9 434.6,53.5 436.1,53.3 437.6,53.0 439.0,52.8 440.5,52.3 442.0,52.0 443.5,51.6 444.9,50.9 446.4,50.6 447.9,50.4 449.3,50.2 450.8,50.0 452.3,49.6 453.8,49.2 455.2,48.9 456.7,48.0 458.2,47.3 459.6,47.0 461.1,46.8 462.6,46.5 464.1,46.0 465.5,45.6 467.0,45.3 468.5,45.0 469.9,44.7 471.4,44.4 472.9,44.1 474.4,43.7 475.8,43.4 477.3,43.3 478.8,43.1 480.2,42.7 481.7,42.4 483.2,42.2 484.7,42.0 486.1,41.9 487.6,41.6 489.1,41.4 490.5,41.2 492.0,41.0 493.5,40.9 495.0,40.7 496.4,40.4 497.9,40.2 499.4,39.9 500.8,39.5 502.3,39.2 503.8,39.0 505.3,38.8 506.7,38.7 508.2,38.5 509.7,38.3 511.1,38.1 512.6,38.0 514.1,37.9 515.6,37.7 517.0,37.6 518.5,37.2 520.0,37.1 521.4,36.9 522.9,36.7 524.4,36.4 525.9,36.0 527.3,35.8 528.8,35.6 530.3,35.4 531.7,35.1 533.2,34.9 534.7,34.6 536.2,34.4 537.6,34.3 539.1,34.2 540.6,34.0 542.0,33.7 543.5,33.5 545.0,33.4 546.5,33.2 547.9,32.9 549.4,32.7 550.9,32.4 552.3,32.3 553.8,32.0 555.3,31.7 556.8,31.5 558.2,31.4 559.7,31.2 561.2,31.1 562.6,30.9 564.1,30.7 565.6,30.4 567.1,30.3 568.5,30.2 570.0,30.0" />
  
  <!-- Punto finale luminoso -->
  <circle cx="570.0" cy="30.0" r="4" fill="#ffffff" stroke="#0366d6" stroke-width="2.5" />
</svg>