<svg width="600" height="150" viewBox="0 0 600 150" xmlns="http://www.w3.org/2000/svg">
  <defs>
    <filter id="shadow2" x="-2%" y="-2%" width="104%" height="108%">
      <feDropShadow dx="0" dy="2" stdDeviation="3" flood-opacity="0.1" />
    </filter>
    <linearGradient id="fillGrad" x1="0" y1="0" x2="0" y2="1">
      <stop offset="0%" stop-color="#0366d6" stop-opacity="0.3"/>
      <stop offset="100%" stop-color="#0366d6" stop-opacity="0.02"/>
    </linearGradient>
  </defs>
  <rect width="600" height="150" rx="12" fill="#ffffff" filter="url(#shadow2)" stroke="#e1e4e8" stroke-width="1"/>
  <text x="20" y="24" fill="#2b3137" font-family="-apple-system,BlinkMacSystemFont,'Segoe UI',Helvetica,Arial,sans-serif" font-size="14" font-weight="600">📈 Download Growth (Actual: 84.7k)</text>
  
  <!-- Area sotto la linea -->
  <polygon fill="url(#fillGrad)" points="30.0,120.0,120 30.0,120.0 31.6,119.4 33.2,118.8 34.8,118.3 36.3,118.1 37.9,117.9 39.5,117.2 41.1,116.8 42.7,116.5 44.3,115.8 45.8,115.5 47.4,115.1 49.0,114.9 50.6,114.6 52.2,114.2 53.8,113.7 55.3,113.3 56.9,113.1 58.5,112.9 60.1,112.6 61.7,112.2 63.3,111.9 64.8,111.8 66.4,111.5 68.0,110.4 69.6,110.1 71.2,109.7 72.8,109.2 74.3,108.9 75.9,108.5 77.5,108.3 79.1,108.1 80.7,107.8 82.3,107.3 83.8,106.9 85.4,106.6 87.0,106.2 88.6,106.1 90.2,106.0 91.8,105.8 93.3,105.5 94.9,105.3 96.5,105.1 98.1,104.8 99.7,104.2 101.3,104.0 102.8,103.9 104.4,103.7 106.0,103.3 107.6,103.0 109.2,102.5 110.8,102.1 112.3,101.7 113.9,101.6 115.5,101.4 117.1,101.0 118.7,100.5 120.3,100.2 121.8,100.1 123.4,99.9 125.0,99.7 126.6,99.2 128.2,98.7 129.8,98.3 131.3,97.9 132.9,97.7 134.5,97.6 136.1,97.5 137.7,97.1 139.3,96.9 140.9,96.7 142.4,96.6 144.0,96.4 145.6,96.2 147.2,96.0 148.8,95.9 150.4,95.8 151.9,95.4 153.5,95.2 155.1,95.1 156.7,94.9 158.3,94.8 159.9,94.8 161.4,102.0 163.0,101.3 164.6,100.7 166.2,100.0 167.8,98.1 169.4,96.7 170.9,95.2 172.5,94.7 174.1,94.1 175.7,93.1 177.3,92.0 178.9,91.2 180.4,90.8 182.0,90.6 183.6,89.8 185.2,89.2 186.8,88.8 188.4,88.4 189.9,88.2 191.5,88.1 193.1,87.7 194.7,87.0 196.3,86.5 197.9,86.0 199.4,85.5 201.0,85.2 202.6,85.1 204.2,84.6 205.8,84.2 207.4,83.8 208.9,83.5 210.5,83.3 212.1,83.2 213.7,83.0 215.3,82.6 216.9,82.3 218.4,82.1 220.0,81.9 221.6,81.7 223.2,81.5 224.8,81.3 226.4,81.1 227.9,80.9 229.5,80.6 231.1,80.3 232.7,80.0 234.3,79.8 235.9,79.6 237.4,79.4 239.0,79.3 240.6,79.1 242.2,78.6 243.8,78.2 245.4,77.8 247.0,77.6 248.5,77.6 250.1,77.4 251.7,77.1 253.3,76.9 254.9,76.6 256.5,76.3 258.0,76.1 259.6,76.0 261.2,75.8 262.8,75.7 264.4,75.5 266.0,75.3 267.5,75.1 269.1,74.8 270.7,74.7 272.3,74.6 273.9,74.4 275.5,74.3 277.0,74.1 278.6,73.8 280.2,73.6 281.8,73.4 283.4,73.1 285.0,73.0 286.5,72.9 288.1,72.7 289.7,72.4 291.3,72.1 292.9,71.9 294.5,71.7 296.0,71.3 297.6,71.2 299.2,71.0 300.8,70.9 302.4,70.7 304.0,70.6 305.5,70.4 307.1,70.2 308.7,70.0 310.3,69.9 311.9,69.7 313.5,69.6 315.0,69.5 316.6,69.3 318.2,69.0 319.8,68.9 321.4,68.6 323.0,68.5 324.5,68.4 326.1,68.2 327.7,68.1 329.3,67.9 330.9,67.8 332.5,67.5 334.0,67.1 335.6,66.9 337.2,66.7 338.8,66.7 340.4,66.6 342.0,66.4 343.5,66.1 345.1,66.0 346.7,65.8 348.3,65.6 349.9,65.5 351.5,65.3 353.0,65.2 354.6,65.0 356.2,64.8 357.8,64.6 359.4,64.3 361.0,64.1 362.6,64.0 364.1,64.0 365.7,63.9 367.3,63.7 368.9,63.6 370.5,63.4 372.1,63.2 373.6,63.0 375.2,62.9 376.8,62.8 378.4,62.6 380.0,62.5 381.6,62.2 383.1,62.0 384.7,61.8 386.3,61.6 387.9,61.5 389.5,61.4 391.1,61.3 392.6,61.2 394.2,61.1 395.8,60.9 397.4,60.7 399.0,60.5 400.6,60.4 402.1,60.3 403.7,60.1 405.3,60.0 406.9,59.8 408.5,59.6 410.1,59.5 411.6,59.4 413.2,59.2 414.8,59.0 416.4,58.8 418.0,58.8 419.6,58.7 421.1,58.5 422.7,58.4 424.3,58.3 425.9,58.1 427.5,58.1 429.1,57.9 430.6,57.6 432.2,57.4 433.8,62.1 435.4,61.1 437.0,59.4 438.6,58.7 440.1,57.9 441.7,56.8 443.3,56.3 444.9,55.9 446.5,55.3 448.1,54.2 449.6,53.5 451.2,53.2 452.8,52.9 454.4,52.5 456.0,52.0 457.6,51.5 459.1,50.9 460.7,50.7 462.3,50.1 463.9,49.9 465.5,49.5 467.1,49.3 468.7,49.0 470.2,48.8 471.8,48.3 473.4,47.9 475.0,47.4 476.6,46.8 478.2,46.4 479.7,46.2 481.3,46.0 482.9,45.8 484.5,45.4 486.1,45.0 487.7,44.7 489.2,43.7 490.8,43.0 492.4,42.6 494.0,42.4 495.6,42.1 497.2,41.6 498.7,41.2 500.3,40.9 501.9,40.5 503.5,40.2 505.1,39.9 506.7,39.5 508.2,39.1 509.8,38.8 511.4,38.7 513.0,38.5 514.6,38.0 516.2,37.7 517.7,37.5 519.3,37.4 520.9,37.2 522.5,36.9 524.1,36.7 525.7,36.5 527.2,36.3 528.8,36.1 530.4,35.9 532.0,35.6 533.6,35.4 535.2,35.1 536.7,34.6 538.3,34.3 539.9,34.2 541.5,34.0 543.1,33.8 544.7,33.6 546.2,33.4 547.8,33.2 549.4,33.1 551.0,33.0 552.6,32.7 554.2,32.6 555.7,32.3 557.3,32.1 558.9,31.9 560.5,31.7 562.1,31.3 563.7,30.9 565.2,30.7 566.8,30.5 568.4,30.3 570.0,30.0 570.0,30.0,120" />
  
  <!-- Linea principale -->
  <polyline fill="none" stroke="#0366d6" stroke-width="2.5" stroke-linecap="round" stroke-linejoin="round" points="30.0,120.0 31.6,119.4 33.2,118.8 34.8,118.3 36.3,118.1 37.9,117.9 39.5,117.2 41.1,116.8 42.7,116.5 44.3,115.8 45.8,115.5 47.4,115.1 49.0,114.9 50.6,114.6 52.2,114.2 53.8,113.7 55.3,113.3 56.9,113.1 58.5,112.9 60.1,112.6 61.7,112.2 63.3,111.9 64.8,111.8 66.4,111.5 68.0,110.4 69.6,110.1 71.2,109.7 72.8,109.2 74.3,108.9 75.9,108.5 77.5,108.3 79.1,108.1 80.7,107.8 82.3,107.3 83.8,106.9 85.4,106.6 87.0,106.2 88.6,106.1 90.2,106.0 91.8,105.8 93.3,105.5 94.9,105.3 96.5,105.1 98.1,104.8 99.7,104.2 101.3,104.0 102.8,103.9 104.4,103.7 106.0,103.3 107.6,103.0 109.2,102.5 110.8,102.1 112.3,101.7 113.9,101.6 115.5,101.4 117.1,101.0 118.7,100.5 120.3,100.2 121.8,100.1 123.4,99.9 125.0,99.7 126.6,99.2 128.2,98.7 129.8,98.3 131.3,97.9 132.9,97.7 134.5,97.6 136.1,97.5 137.7,97.1 139.3,96.9 140.9,96.7 142.4,96.6 144.0,96.4 145.6,96.2 147.2,96.0 148.8,95.9 150.4,95.8 151.9,95.4 153.5,95.2 155.1,95.1 156.7,94.9 158.3,94.8 159.9,94.8 161.4,102.0 163.0,101.3 164.6,100.7 166.2,100.0 167.8,98.1 169.4,96.7 170.9,95.2 172.5,94.7 174.1,94.1 175.7,93.1 177.3,92.0 178.9,91.2 180.4,90.8 182.0,90.6 183.6,89.8 185.2,89.2 186.8,88.8 188.4,88.4 189.9,88.2 191.5,88.1 193.1,87.7 194.7,87.0 196.3,86.5 197.9,86.0 199.4,85.5 201.0,85.2 202.6,85.1 204.2,84.6 205.8,84.2 207.4,83.8 208.9,83.5 210.5,83.3 212.1,83.2 213.7,83.0 215.3,82.6 216.9,82.3 218.4,82.1 220.0,81.9 221.6,81.7 223.2,81.5 224.8,81.3 226.4,81.1 227.9,80.9 229.5,80.6 231.1,80.3 232.7,80.0 234.3,79.8 235.9,79.6 237.4,79.4 239.0,79.3 240.6,79.1 242.2,78.6 243.8,78.2 245.4,77.8 247.0,77.6 248.5,77.6 250.1,77.4 251.7,77.1 253.3,76.9 254.9,76.6 256.5,76.3 258.0,76.1 259.6,76.0 261.2,75.8 262.8,75.7 264.4,75.5 266.0,75.3 267.5,75.1 269.1,74.8 270.7,74.7 272.3,74.6 273.9,74.4 275.5,74.3 277.0,74.1 278.6,73.8 280.2,73.6 281.8,73.4 283.4,73.1 285.0,73.0 286.5,72.9 288.1,72.7 289.7,72.4 291.3,72.1 292.9,71.9 294.5,71.7 296.0,71.3 297.6,71.2 299.2,71.0 300.8,70.9 302.4,70.7 304.0,70.6 305.5,70.4 307.1,70.2 308.7,70.0 310.3,69.9 311.9,69.7 313.5,69.6 315.0,69.5 316.6,69.3 318.2,69.0 319.8,68.9 321.4,68.6 323.0,68.5 324.5,68.4 326.1,68.2 327.7,68.1 329.3,67.9 330.9,67.8 332.5,67.5 334.0,67.1 335.6,66.9 337.2,66.7 338.8,66.7 340.4,66.6 342.0,66.4 343.5,66.1 345.1,66.0 346.7,65.8 348.3,65.6 349.9,65.5 351.5,65.3 353.0,65.2 354.6,65.0 356.2,64.8 357.8,64.6 359.4,64.3 361.0,64.1 362.6,64.0 364.1,64.0 365.7,63.9 367.3,63.7 368.9,63.6 370.5,63.4 372.1,63.2 373.6,63.0 375.2,62.9 376.8,62.8 378.4,62.6 380.0,62.5 381.6,62.2 383.1,62.0 384.7,61.8 386.3,61.6 387.9,61.5 389.5,61.4 391.1,61.3 392.6,61.2 394.2,61.1 395.8,60.9 397.4,60.7 399.0,60.5 400.6,60.4 402.1,60.3 403.7,60.1 405.3,60.0 406.9,59.8 408.5,59.6 410.1,59.5 411.6,59.4 413.2,59.2 414.8,59.0 416.4,58.8 418.0,58.8 419.6,58.7 421.1,58.5 422.7,58.4 424.3,58.3 425.9,58.1 427.5,58.1 429.1,57.9 430.6,57.6 432.2,57.4 433.8,62.1 435.4,61.1 437.0,59.4 438.6,58.7 440.1,57.9 441.7,56.8 443.3,56.3 444.9,55.9 446.5,55.3 448.1,54.2 449.6,53.5 451.2,53.2 452.8,52.9 454.4,52.5 456.0,52.0 457.6,51.5 459.1,50.9 460.7,50.7 462.3,50.1 463.9,49.9 465.5,49.5 467.1,49.3 468.7,49.0 470.2,48.8 471.8,48.3 473.4,47.9 475.0,47.4 476.6,46.8 478.2,46.4 479.7,46.2 481.3,46.0 482.9,45.8 484.5,45.4 486.1,45.0 487.7,44.7 489.2,43.7 490.8,43.0 492.4,42.6 494.0,42.4 495.6,42.1 497.2,41.6 498.7,41.2 500.3,40.9 501.9,40.5 503.5,40.2 505.1,39.9 506.7,39.5 508.2,39.1 509.8,38.8 511.4,38.7 513.0,38.5 514.6,38.0 516.2,37.7 517.7,37.5 519.3,37.4 520.9,37.2 522.5,36.9 524.1,36.7 525.7,36.5 527.2,36.3 528.8,36.1 530.4,35.9 532.0,35.6 533.6,35.4 535.2,35.1 536.7,34.6 538.3,34.3 539.9,34.2 541.5,34.0 543.1,33.8 544.7,33.6 546.2,33.4 547.8,33.2 549.4,33.1 551.0,33.0 552.6,32.7 554.2,32.6 555.7,32.3 557.3,32.1 558.9,31.9 560.5,31.7 562.1,31.3 563.7,30.9 565.2,30.7 566.8,30.5 568.4,30.3 570.0,30.0" />
  
  <!-- Punto finale luminoso -->
  <circle cx="570.0" cy="30.0" r="4" fill="#ffffff" stroke="#0366d6" stroke-width="2.5" />
</svg>