<svg width="600" height="150" viewBox="0 0 600 150" xmlns="http://www.w3.org/2000/svg">
  <defs>
    <filter id="shadow2" x="-2%" y="-2%" width="104%" height="108%">
      <feDropShadow dx="0" dy="2" stdDeviation="3" flood-opacity="0.1" />
    </filter>
    <linearGradient id="fillGrad" x1="0" y1="0" x2="0" y2="1">
      <stop offset="0%" stop-color="#0366d6" stop-opacity="0.3"/>
      <stop offset="100%" stop-color="#0366d6" stop-opacity="0.02"/>
    </linearGradient>
  </defs>
  <rect width="600" height="150" rx="12" fill="#ffffff" filter="url(#shadow2)" stroke="#e1e4e8" stroke-width="1"/>
  <text x="20" y="24" fill="#2b3137" font-family="-apple-system,BlinkMacSystemFont,'Segoe UI',Helvetica,Arial,sans-serif" font-size="14" font-weight="600">📈 Download Growth (Actual: 70.6k)</text>
  
  <!-- Area sotto la linea -->
  <polygon fill="url(#fillGrad)" points="30.0,120.0,120 30.0,120.0 40.0,117.3 50.0,114.3 60.0,111.7 70.0,111.0 80.0,109.7 90.0,106.5 100.0,104.4 110.0,103.0 120.0,99.7 130.0,98.1 140.0,96.4 150.0,95.5 160.0,94.0 170.0,91.8 180.0,89.5 190.0,87.7 200.0,86.5 210.0,85.6 220.0,84.1 230.0,82.4 240.0,80.9 250.0,80.2 260.0,78.7 270.0,73.6 280.0,72.0 290.0,70.0 300.0,68.0 310.0,66.2 320.0,64.5 330.0,63.4 340.0,62.5 350.0,61.1 360.0,58.6 370.0,56.5 380.0,55.0 390.0,53.3 400.0,52.8 410.0,52.3 420.0,51.5 430.0,49.8 440.0,48.8 450.0,48.1 460.0,46.2 470.0,43.5 480.0,42.8 490.0,42.3 500.0,41.2 510.0,39.0 520.0,37.6 530.0,35.3 540.0,33.7 550.0,31.6 560.0,31.2 570.0,30.0 570.0,30.0,120" />
  
  <!-- Linea principale -->
  <polyline fill="none" stroke="#0366d6" stroke-width="2.5" stroke-linecap="round" stroke-linejoin="round" points="30.0,120.0 40.0,117.3 50.0,114.3 60.0,111.7 70.0,111.0 80.0,109.7 90.0,106.5 100.0,104.4 110.0,103.0 120.0,99.7 130.0,98.1 140.0,96.4 150.0,95.5 160.0,94.0 170.0,91.8 180.0,89.5 190.0,87.7 200.0,86.5 210.0,85.6 220.0,84.1 230.0,82.4 240.0,80.9 250.0,80.2 260.0,78.7 270.0,73.6 280.0,72.0 290.0,70.0 300.0,68.0 310.0,66.2 320.0,64.5 330.0,63.4 340.0,62.5 350.0,61.1 360.0,58.6 370.0,56.5 380.0,55.0 390.0,53.3 400.0,52.8 410.0,52.3 420.0,51.5 430.0,49.8 440.0,48.8 450.0,48.1 460.0,46.2 470.0,43.5 480.0,42.8 490.0,42.3 500.0,41.2 510.0,39.0 520.0,37.6 530.0,35.3 540.0,33.7 550.0,31.6 560.0,31.2 570.0,30.0" />
  
  <!-- Punto finale luminoso -->
  <circle cx="570.0" cy="30.0" r="4" fill="#ffffff" stroke="#0366d6" stroke-width="2.5" />
</svg>