<svg width="600" height="150" viewBox="0 0 600 150" xmlns="http://www.w3.org/2000/svg">
  <defs>
    <filter id="shadow2" x="-2%" y="-2%" width="104%" height="108%">
      <feDropShadow dx="0" dy="2" stdDeviation="3" flood-opacity="0.1" />
    </filter>
    <linearGradient id="fillGrad" x1="0" y1="0" x2="0" y2="1">
      <stop offset="0%" stop-color="#0366d6" stop-opacity="0.3"/>
      <stop offset="100%" stop-color="#0366d6" stop-opacity="0.02"/>
    </linearGradient>
  </defs>
  <rect width="600" height="150" rx="12" fill="#ffffff" filter="url(#shadow2)" stroke="#e1e4e8" stroke-width="1"/>
  <text x="20" y="24" fill="#2b3137" font-family="-apple-system,BlinkMacSystemFont,'Segoe UI',Helvetica,Arial,sans-serif" font-size="14" font-weight="600">📈 Download Growth (Actual: 78.8k)</text>
  
  <!-- Area sotto la linea -->
  <polygon fill="url(#fillGrad)" points="30.0,120.0,120 30.0,120.0 32.3,119.2 34.6,118.2 36.8,117.4 39.1,117.2 41.4,116.8 43.7,115.8 45.9,115.2 48.2,114.7 50.5,113.7 52.8,113.2 55.1,112.7 57.3,112.4 59.6,111.9 61.9,111.3 64.2,110.5 66.5,110.0 68.7,109.6 71.0,109.3 73.3,108.9 75.6,108.4 77.8,107.9 80.1,107.7 82.4,107.2 84.7,105.6 87.0,105.1 89.2,104.5 91.5,103.9 93.8,103.3 96.1,102.8 98.4,102.5 100.6,102.2 102.9,101.7 105.2,101.0 107.5,100.3 109.7,99.9 112.0,99.3 114.3,99.2 116.6,99.0 118.9,98.8 121.1,98.2 123.4,97.9 125.7,97.7 128.0,97.1 130.3,96.3 132.5,96.1 134.8,95.9 137.1,95.6 139.4,94.9 141.6,94.5 143.9,93.7 146.2,93.2 148.5,92.6 150.8,92.5 153.0,92.1 155.3,91.5 157.6,90.8 159.9,90.3 162.2,90.1 164.4,89.8 166.7,89.5 169.0,88.8 171.3,88.1 173.5,87.5 175.8,86.9 178.1,86.6 180.4,86.5 182.7,86.2 184.9,85.7 187.2,85.4 189.5,85.1 191.8,84.9 194.1,84.7 196.3,84.3 198.6,84.1 200.9,83.9 203.2,83.8 205.4,83.1 207.7,82.8 210.0,82.6 212.3,82.4 214.6,82.3 216.8,82.3 219.1,93.1 221.4,92.0 223.7,91.1 225.9,90.1 228.2,87.1 230.5,85.1 232.8,82.9 235.1,82.0 237.3,81.1 239.6,79.6 241.9,78.0 244.2,76.8 246.5,76.3 248.7,75.9 251.0,74.7 253.3,73.8 255.6,73.3 257.8,72.6 260.1,72.3 262.4,72.2 264.7,71.6 267.0,70.5 269.2,69.8 271.5,69.1 273.8,68.3 276.1,67.9 278.4,67.6 280.6,66.9 282.9,66.3 285.2,65.7 287.5,65.2 289.7,65.0 292.0,64.9 294.3,64.5 296.6,64.0 298.9,63.6 301.1,63.2 303.4,62.9 305.7,62.6 308.0,62.3 310.3,62.0 312.5,61.7 314.8,61.4 317.1,60.9 319.4,60.5 321.6,60.0 323.9,59.7 326.2,59.4 328.5,59.2 330.8,58.9 333.0,58.7 335.3,57.9 337.6,57.4 339.9,56.7 342.2,56.5 344.4,56.4 346.7,56.1 349.0,55.8 351.3,55.3 353.5,55.0 355.8,54.5 358.1,54.2 360.4,54.0 362.7,53.8 364.9,53.6 367.2,53.3 369.5,53.0 371.8,52.8 374.1,52.3 376.3,52.1 378.6,51.9 380.9,51.7 383.2,51.6 385.4,51.1 387.7,50.8 390.0,50.4 392.3,50.1 394.6,49.8 396.8,49.5 399.1,49.4 401.4,49.1 403.7,48.7 405.9,48.2 408.2,47.9 410.5,47.5 412.8,47.0 415.1,46.8 417.3,46.6 419.6,46.5 421.9,46.2 424.2,45.9 426.5,45.6 428.7,45.4 431.0,45.1 433.3,44.8 435.6,44.6 437.8,44.4 440.1,44.3 442.4,44.0 444.7,43.5 447.0,43.3 449.2,43.0 451.5,42.8 453.8,42.6 456.1,42.4 458.4,42.2 460.6,42.0 462.9,41.7 465.2,41.3 467.5,40.7 469.7,40.4 472.0,40.2 474.3,40.1 476.6,39.9 478.9,39.6 481.1,39.2 483.4,39.0 485.7,38.8 488.0,38.5 490.3,38.3 492.5,38.0 494.8,37.8 497.1,37.6 499.4,37.2 501.6,36.9 503.9,36.6 506.2,36.2 508.5,36.1 510.8,36.0 513.0,35.9 515.3,35.6 517.6,35.4 519.9,35.1 522.2,34.9 524.4,34.6 526.7,34.4 529.0,34.2 531.3,34.0 533.5,33.8 535.8,33.4 538.1,33.1 540.4,32.8 542.7,32.5 544.9,32.3 547.2,32.2 549.5,32.0 551.8,31.9 554.1,31.7 556.3,31.5 558.6,31.1 560.9,30.9 563.2,30.6 565.4,30.5 567.7,30.2 570.0,30.0 570.0,30.0,120" />
  
  <!-- Linea principale -->
  <polyline fill="none" stroke="#0366d6" stroke-width="2.5" stroke-linecap="round" stroke-linejoin="round" points="30.0,120.0 32.3,119.2 34.6,118.2 36.8,117.4 39.1,117.2 41.4,116.8 43.7,115.8 45.9,115.2 48.2,114.7 50.5,113.7 52.8,113.2 55.1,112.7 57.3,112.4 59.6,111.9 61.9,111.3 64.2,110.5 66.5,110.0 68.7,109.6 71.0,109.3 73.3,108.9 75.6,108.4 77.8,107.9 80.1,107.7 82.4,107.2 84.7,105.6 87.0,105.1 89.2,104.5 91.5,103.9 93.8,103.3 96.1,102.8 98.4,102.5 100.6,102.2 102.9,101.7 105.2,101.0 107.5,100.3 109.7,99.9 112.0,99.3 114.3,99.2 116.6,99.0 118.9,98.8 121.1,98.2 123.4,97.9 125.7,97.7 128.0,97.1 130.3,96.3 132.5,96.1 134.8,95.9 137.1,95.6 139.4,94.9 141.6,94.5 143.9,93.7 146.2,93.2 148.5,92.6 150.8,92.5 153.0,92.1 155.3,91.5 157.6,90.8 159.9,90.3 162.2,90.1 164.4,89.8 166.7,89.5 169.0,88.8 171.3,88.1 173.5,87.5 175.8,86.9 178.1,86.6 180.4,86.5 182.7,86.2 184.9,85.7 187.2,85.4 189.5,85.1 191.8,84.9 194.1,84.7 196.3,84.3 198.6,84.1 200.9,83.9 203.2,83.8 205.4,83.1 207.7,82.8 210.0,82.6 212.3,82.4 214.6,82.3 216.8,82.3 219.1,93.1 221.4,92.0 223.7,91.1 225.9,90.1 228.2,87.1 230.5,85.1 232.8,82.9 235.1,82.0 237.3,81.1 239.6,79.6 241.9,78.0 244.2,76.8 246.5,76.3 248.7,75.9 251.0,74.7 253.3,73.8 255.6,73.3 257.8,72.6 260.1,72.3 262.4,72.2 264.7,71.6 267.0,70.5 269.2,69.8 271.5,69.1 273.8,68.3 276.1,67.9 278.4,67.6 280.6,66.9 282.9,66.3 285.2,65.7 287.5,65.2 289.7,65.0 292.0,64.9 294.3,64.5 296.6,64.0 298.9,63.6 301.1,63.2 303.4,62.9 305.7,62.6 308.0,62.3 310.3,62.0 312.5,61.7 314.8,61.4 317.1,60.9 319.4,60.5 321.6,60.0 323.9,59.7 326.2,59.4 328.5,59.2 330.8,58.9 333.0,58.7 335.3,57.9 337.6,57.4 339.9,56.7 342.2,56.5 344.4,56.4 346.7,56.1 349.0,55.8 351.3,55.3 353.5,55.0 355.8,54.5 358.1,54.2 360.4,54.0 362.7,53.8 364.9,53.6 367.2,53.3 369.5,53.0 371.8,52.8 374.1,52.3 376.3,52.1 378.6,51.9 380.9,51.7 383.2,51.6 385.4,51.1 387.7,50.8 390.0,50.4 392.3,50.1 394.6,49.8 396.8,49.5 399.1,49.4 401.4,49.1 403.7,48.7 405.9,48.2 408.2,47.9 410.5,47.5 412.8,47.0 415.1,46.8 417.3,46.6 419.6,46.5 421.9,46.2 424.2,45.9 426.5,45.6 428.7,45.4 431.0,45.1 433.3,44.8 435.6,44.6 437.8,44.4 440.1,44.3 442.4,44.0 444.7,43.5 447.0,43.3 449.2,43.0 451.5,42.8 453.8,42.6 456.1,42.4 458.4,42.2 460.6,42.0 462.9,41.7 465.2,41.3 467.5,40.7 469.7,40.4 472.0,40.2 474.3,40.1 476.6,39.9 478.9,39.6 481.1,39.2 483.4,39.0 485.7,38.8 488.0,38.5 490.3,38.3 492.5,38.0 494.8,37.8 497.1,37.6 499.4,37.2 501.6,36.9 503.9,36.6 506.2,36.2 508.5,36.1 510.8,36.0 513.0,35.9 515.3,35.6 517.6,35.4 519.9,35.1 522.2,34.9 524.4,34.6 526.7,34.4 529.0,34.2 531.3,34.0 533.5,33.8 535.8,33.4 538.1,33.1 540.4,32.8 542.7,32.5 544.9,32.3 547.2,32.2 549.5,32.0 551.8,31.9 554.1,31.7 556.3,31.5 558.6,31.1 560.9,30.9 563.2,30.6 565.4,30.5 567.7,30.2 570.0,30.0" />
  
  <!-- Punto finale luminoso -->
  <circle cx="570.0" cy="30.0" r="4" fill="#ffffff" stroke="#0366d6" stroke-width="2.5" />
</svg>