<svg width="600" height="150" viewBox="0 0 600 150" xmlns="http://www.w3.org/2000/svg">
  <defs>
    <filter id="shadow2" x="-2%" y="-2%" width="104%" height="108%">
      <feDropShadow dx="0" dy="2" stdDeviation="3" flood-opacity="0.1" />
    </filter>
    <linearGradient id="fillGrad" x1="0" y1="0" x2="0" y2="1">
      <stop offset="0%" stop-color="#0366d6" stop-opacity="0.3"/>
      <stop offset="100%" stop-color="#0366d6" stop-opacity="0.02"/>
    </linearGradient>
  </defs>
  <rect width="600" height="150" rx="12" fill="#ffffff" filter="url(#shadow2)" stroke="#e1e4e8" stroke-width="1"/>
  <text x="20" y="24" fill="#2b3137" font-family="-apple-system,BlinkMacSystemFont,'Segoe UI',Helvetica,Arial,sans-serif" font-size="14" font-weight="600">📈 Download Growth (Actual: 84.1k)</text>
  
  <!-- Area sotto la linea -->
  <polygon fill="url(#fillGrad)" points="30.0,120.0,120 30.0,120.0 31.7,119.4 33.3,118.8 35.0,118.2 36.6,118.1 38.3,117.8 39.9,117.1 41.6,116.7 43.2,116.3 44.9,115.6 46.5,115.3 48.2,114.9 49.8,114.7 51.5,114.4 53.1,114.0 54.8,113.5 56.4,113.1 58.1,112.8 59.7,112.6 61.4,112.3 63.0,111.9 64.7,111.6 66.3,111.5 68.0,111.1 69.6,110.0 71.3,109.7 72.9,109.3 74.6,108.8 76.2,108.5 77.9,108.1 79.5,107.9 81.2,107.7 82.8,107.4 84.5,106.8 86.1,106.4 87.8,106.1 89.4,105.7 91.1,105.6 92.8,105.5 94.4,105.3 96.1,104.9 97.7,104.7 99.4,104.6 101.0,104.2 102.7,103.6 104.3,103.4 106.0,103.3 107.6,103.1 109.3,102.6 110.9,102.3 112.6,101.8 114.2,101.5 115.9,101.1 117.5,101.0 119.2,100.7 120.8,100.3 122.5,99.8 124.1,99.5 125.8,99.3 127.4,99.1 129.1,98.9 130.7,98.4 132.4,97.9 134.0,97.5 135.7,97.1 137.3,96.9 139.0,96.8 140.6,96.6 142.3,96.3 143.9,96.1 145.6,95.9 147.2,95.7 148.9,95.6 150.6,95.3 152.2,95.2 153.9,95.1 155.5,94.9 157.2,94.5 158.8,94.2 160.5,94.2 162.1,94.0 163.8,93.9 165.4,93.9 167.1,101.4 168.7,100.6 170.4,100.0 172.0,99.3 173.7,97.2 175.3,95.8 177.0,94.3 178.6,93.7 180.3,93.1 181.9,92.1 183.6,90.9 185.2,90.1 186.9,89.8 188.5,89.5 190.2,88.6 191.8,88.1 193.5,87.7 195.1,87.2 196.8,87.0 198.4,86.9 200.1,86.5 201.7,85.8 203.4,85.3 205.0,84.8 206.7,84.2 208.3,84.0 210.0,83.8 211.7,83.3 213.3,82.8 215.0,82.4 216.6,82.1 218.3,81.9 219.9,81.8 221.6,81.6 223.2,81.2 224.9,80.9 226.5,80.7 228.2,80.5 229.8,80.2 231.5,80.0 233.1,79.8 234.8,79.7 236.4,79.5 238.1,79.1 239.7,78.8 241.4,78.5 243.0,78.3 244.7,78.1 246.3,77.9 248.0,77.7 249.6,77.6 251.3,77.0 252.9,76.7 254.6,76.2 256.2,76.0 257.9,76.0 259.5,75.8 261.2,75.5 262.8,75.3 264.5,75.0 266.1,74.7 267.8,74.5 269.4,74.3 271.1,74.2 272.8,74.0 274.4,73.9 276.1,73.7 277.7,73.5 279.4,73.2 281.0,73.0 282.7,72.9 284.3,72.7 286.0,72.6 287.6,72.4 289.3,72.1 290.9,71.9 292.6,71.6 294.2,71.4 295.9,71.2 297.5,71.1 299.2,71.0 300.8,70.6 302.5,70.3 304.1,70.1 305.8,69.9 307.4,69.5 309.1,69.4 310.7,69.2 312.4,69.1 314.0,68.9 315.7,68.7 317.3,68.5 319.0,68.3 320.6,68.2 322.3,68.0 323.9,67.8 325.6,67.7 327.2,67.6 328.9,67.4 330.6,67.1 332.2,67.0 333.9,66.7 335.5,66.6 337.2,66.5 338.8,66.3 340.5,66.2 342.1,66.0 343.8,65.8 345.4,65.5 347.1,65.2 348.7,64.9 350.4,64.8 352.0,64.7 353.7,64.6 355.3,64.4 357.0,64.1 358.6,63.9 360.3,63.8 361.9,63.6 363.6,63.4 365.2,63.2 366.9,63.1 368.5,63.0 370.2,62.7 371.8,62.5 373.5,62.3 375.1,62.0 376.8,61.9 378.4,61.9 380.1,61.8 381.7,61.6 383.4,61.5 385.0,61.3 386.7,61.1 388.3,60.9 390.0,60.8 391.7,60.6 393.3,60.5 395.0,60.3 396.6,60.1 398.3,59.8 399.9,59.7 401.6,59.5 403.2,59.3 404.9,59.2 406.5,59.1 408.2,59.0 409.8,58.9 411.5,58.7 413.1,58.5 414.8,58.3 416.4,58.2 418.1,58.0 419.7,57.9 421.4,57.7 423.0,57.5 424.7,57.4 426.3,57.3 428.0,57.1 429.6,56.9 431.3,56.7 432.9,56.6 434.6,56.5 436.2,56.4 437.9,56.2 439.5,56.1 441.2,56.0 442.8,55.8 444.5,55.8 446.1,55.6 447.8,55.3 449.4,55.0 451.1,59.9 452.8,59.0 454.4,57.1 456.1,56.4 457.7,55.6 459.4,54.5 461.0,53.9 462.7,53.5 464.3,52.8 466.0,51.8 467.6,51.0 469.3,50.8 470.9,50.4 472.6,50.0 474.2,49.5 475.9,49.0 477.5,48.4 479.2,48.1 480.8,47.5 482.5,47.3 484.1,46.9 485.8,46.7 487.4,46.4 489.1,46.1 490.7,45.6 492.4,45.2 494.0,44.7 495.7,44.1 497.3,43.7 499.0,43.5 500.6,43.3 502.3,43.0 503.9,42.6 505.6,42.2 507.2,41.9 508.9,40.9 510.6,40.1 512.2,39.7 513.9,39.5 515.5,39.2 517.2,38.7 518.8,38.2 520.5,37.9 522.1,37.6 523.8,37.2 525.4,36.9 527.1,36.5 528.7,36.1 530.4,35.8 532.0,35.7 533.7,35.4 535.3,35.0 537.0,34.7 538.6,34.4 540.3,34.3 541.9,34.1 543.6,33.8 545.2,33.6 546.9,33.4 548.5,33.2 550.2,33.0 551.8,32.8 553.5,32.5 555.1,32.3 556.8,31.9 558.4,31.5 560.1,31.2 561.7,31.0 563.4,30.8 565.0,30.6 566.7,30.4 568.3,30.2 570.0,30.0 570.0,30.0,120" />
  
  <!-- Linea principale -->
  <polyline fill="none" stroke="#0366d6" stroke-width="2.5" stroke-linecap="round" stroke-linejoin="round" points="30.0,120.0 31.7,119.4 33.3,118.8 35.0,118.2 36.6,118.1 38.3,117.8 39.9,117.1 41.6,116.7 43.2,116.3 44.9,115.6 46.5,115.3 48.2,114.9 49.8,114.7 51.5,114.4 53.1,114.0 54.8,113.5 56.4,113.1 58.1,112.8 59.7,112.6 61.4,112.3 63.0,111.9 64.7,111.6 66.3,111.5 68.0,111.1 69.6,110.0 71.3,109.7 72.9,109.3 74.6,108.8 76.2,108.5 77.9,108.1 79.5,107.9 81.2,107.7 82.8,107.4 84.5,106.8 86.1,106.4 87.8,106.1 89.4,105.7 91.1,105.6 92.8,105.5 94.4,105.3 96.1,104.9 97.7,104.7 99.4,104.6 101.0,104.2 102.7,103.6 104.3,103.4 106.0,103.3 107.6,103.1 109.3,102.6 110.9,102.3 112.6,101.8 114.2,101.5 115.9,101.1 117.5,101.0 119.2,100.7 120.8,100.3 122.5,99.8 124.1,99.5 125.8,99.3 127.4,99.1 129.1,98.9 130.7,98.4 132.4,97.9 134.0,97.5 135.7,97.1 137.3,96.9 139.0,96.8 140.6,96.6 142.3,96.3 143.9,96.1 145.6,95.9 147.2,95.7 148.9,95.6 150.6,95.3 152.2,95.2 153.9,95.1 155.5,94.9 157.2,94.5 158.8,94.2 160.5,94.2 162.1,94.0 163.8,93.9 165.4,93.9 167.1,101.4 168.7,100.6 170.4,100.0 172.0,99.3 173.7,97.2 175.3,95.8 177.0,94.3 178.6,93.7 180.3,93.1 181.9,92.1 183.6,90.9 185.2,90.1 186.9,89.8 188.5,89.5 190.2,88.6 191.8,88.1 193.5,87.7 195.1,87.2 196.8,87.0 198.4,86.9 200.1,86.5 201.7,85.8 203.4,85.3 205.0,84.8 206.7,84.2 208.3,84.0 210.0,83.8 211.7,83.3 213.3,82.8 215.0,82.4 216.6,82.1 218.3,81.9 219.9,81.8 221.6,81.6 223.2,81.2 224.9,80.9 226.5,80.7 228.2,80.5 229.8,80.2 231.5,80.0 233.1,79.8 234.8,79.7 236.4,79.5 238.1,79.1 239.7,78.8 241.4,78.5 243.0,78.3 244.7,78.1 246.3,77.9 248.0,77.7 249.6,77.6 251.3,77.0 252.9,76.7 254.6,76.2 256.2,76.0 257.9,76.0 259.5,75.8 261.2,75.5 262.8,75.3 264.5,75.0 266.1,74.7 267.8,74.5 269.4,74.3 271.1,74.2 272.8,74.0 274.4,73.9 276.1,73.7 277.7,73.5 279.4,73.2 281.0,73.0 282.7,72.9 284.3,72.7 286.0,72.6 287.6,72.4 289.3,72.1 290.9,71.9 292.6,71.6 294.2,71.4 295.9,71.2 297.5,71.1 299.2,71.0 300.8,70.6 302.5,70.3 304.1,70.1 305.8,69.9 307.4,69.5 309.1,69.4 310.7,69.2 312.4,69.1 314.0,68.9 315.7,68.7 317.3,68.5 319.0,68.3 320.6,68.2 322.3,68.0 323.9,67.8 325.6,67.7 327.2,67.6 328.9,67.4 330.6,67.1 332.2,67.0 333.9,66.7 335.5,66.6 337.2,66.5 338.8,66.3 340.5,66.2 342.1,66.0 343.8,65.8 345.4,65.5 347.1,65.2 348.7,64.9 350.4,64.8 352.0,64.7 353.7,64.6 355.3,64.4 357.0,64.1 358.6,63.9 360.3,63.8 361.9,63.6 363.6,63.4 365.2,63.2 366.9,63.1 368.5,63.0 370.2,62.7 371.8,62.5 373.5,62.3 375.1,62.0 376.8,61.9 378.4,61.9 380.1,61.8 381.7,61.6 383.4,61.5 385.0,61.3 386.7,61.1 388.3,60.9 390.0,60.8 391.7,60.6 393.3,60.5 395.0,60.3 396.6,60.1 398.3,59.8 399.9,59.7 401.6,59.5 403.2,59.3 404.9,59.2 406.5,59.1 408.2,59.0 409.8,58.9 411.5,58.7 413.1,58.5 414.8,58.3 416.4,58.2 418.1,58.0 419.7,57.9 421.4,57.7 423.0,57.5 424.7,57.4 426.3,57.3 428.0,57.1 429.6,56.9 431.3,56.7 432.9,56.6 434.6,56.5 436.2,56.4 437.9,56.2 439.5,56.1 441.2,56.0 442.8,55.8 444.5,55.8 446.1,55.6 447.8,55.3 449.4,55.0 451.1,59.9 452.8,59.0 454.4,57.1 456.1,56.4 457.7,55.6 459.4,54.5 461.0,53.9 462.7,53.5 464.3,52.8 466.0,51.8 467.6,51.0 469.3,50.8 470.9,50.4 472.6,50.0 474.2,49.5 475.9,49.0 477.5,48.4 479.2,48.1 480.8,47.5 482.5,47.3 484.1,46.9 485.8,46.7 487.4,46.4 489.1,46.1 490.7,45.6 492.4,45.2 494.0,44.7 495.7,44.1 497.3,43.7 499.0,43.5 500.6,43.3 502.3,43.0 503.9,42.6 505.6,42.2 507.2,41.9 508.9,40.9 510.6,40.1 512.2,39.7 513.9,39.5 515.5,39.2 517.2,38.7 518.8,38.2 520.5,37.9 522.1,37.6 523.8,37.2 525.4,36.9 527.1,36.5 528.7,36.1 530.4,35.8 532.0,35.7 533.7,35.4 535.3,35.0 537.0,34.7 538.6,34.4 540.3,34.3 541.9,34.1 543.6,33.8 545.2,33.6 546.9,33.4 548.5,33.2 550.2,33.0 551.8,32.8 553.5,32.5 555.1,32.3 556.8,31.9 558.4,31.5 560.1,31.2 561.7,31.0 563.4,30.8 565.0,30.6 566.7,30.4 568.3,30.2 570.0,30.0" />
  
  <!-- Punto finale luminoso -->
  <circle cx="570.0" cy="30.0" r="4" fill="#ffffff" stroke="#0366d6" stroke-width="2.5" />
</svg>