<svg width="600" height="150" viewBox="0 0 600 150" xmlns="http://www.w3.org/2000/svg">
  <defs>
    <filter id="shadow2" x="-2%" y="-2%" width="104%" height="108%">
      <feDropShadow dx="0" dy="2" stdDeviation="3" flood-opacity="0.1" />
    </filter>
    <linearGradient id="fillGrad" x1="0" y1="0" x2="0" y2="1">
      <stop offset="0%" stop-color="#0366d6" stop-opacity="0.3"/>
      <stop offset="100%" stop-color="#0366d6" stop-opacity="0.02"/>
    </linearGradient>
  </defs>
  <rect width="600" height="150" rx="12" fill="#ffffff" filter="url(#shadow2)" stroke="#e1e4e8" stroke-width="1"/>
  <text x="20" y="24" fill="#2b3137" font-family="-apple-system,BlinkMacSystemFont,'Segoe UI',Helvetica,Arial,sans-serif" font-size="14" font-weight="600">📈 Download Growth (Actual: 68.4k)</text>
  
  <!-- Area sotto la linea -->
  <polygon fill="url(#fillGrad)" points="30.0,120.0,120 30.0,120.0 57.0,113.5 84.0,106.4 111.0,100.2 138.0,98.5 165.0,95.3 192.0,87.7 219.0,82.6 246.0,79.2 273.0,71.4 300.0,67.5 327.0,63.6 354.0,61.3 381.0,57.8 408.0,52.5 435.0,46.9 462.0,42.6 489.0,39.7 516.0,37.6 543.0,34.1 570.0,30.0 570.0,30.0,120" />
  
  <!-- Linea principale -->
  <polyline fill="none" stroke="#0366d6" stroke-width="2.5" stroke-linecap="round" stroke-linejoin="round" points="30.0,120.0 57.0,113.5 84.0,106.4 111.0,100.2 138.0,98.5 165.0,95.3 192.0,87.7 219.0,82.6 246.0,79.2 273.0,71.4 300.0,67.5 327.0,63.6 354.0,61.3 381.0,57.8 408.0,52.5 435.0,46.9 462.0,42.6 489.0,39.7 516.0,37.6 543.0,34.1 570.0,30.0" />
  
  <!-- Punto finale luminoso -->
  <circle cx="570.0" cy="30.0" r="4" fill="#ffffff" stroke="#0366d6" stroke-width="2.5" />
</svg>