<svg width="600" height="150" viewBox="0 0 600 150" xmlns="http://www.w3.org/2000/svg">
  <defs>
    <filter id="shadow2" x="-2%" y="-2%" width="104%" height="108%">
      <feDropShadow dx="0" dy="2" stdDeviation="3" flood-opacity="0.1" />
    </filter>
    <linearGradient id="fillGrad" x1="0" y1="0" x2="0" y2="1">
      <stop offset="0%" stop-color="#0366d6" stop-opacity="0.3"/>
      <stop offset="100%" stop-color="#0366d6" stop-opacity="0.02"/>
    </linearGradient>
  </defs>
  <rect width="600" height="150" rx="12" fill="#ffffff" filter="url(#shadow2)" stroke="#e1e4e8" stroke-width="1"/>
  <text x="20" y="24" fill="#2b3137" font-family="-apple-system,BlinkMacSystemFont,'Segoe UI',Helvetica,Arial,sans-serif" font-size="14" font-weight="600">📈 Download Growth (Actual: 76.7k)</text>
  
  <!-- Area sotto la linea -->
  <polygon fill="url(#fillGrad)" points="30.0,120.0,120 30.0,120.0 33.1,119.0 36.2,117.9 39.4,116.9 42.5,116.6 45.6,116.1 48.7,114.9 51.8,114.1 55.0,113.6 58.1,112.4 61.2,111.7 64.3,111.1 67.5,110.8 70.6,110.2 73.7,109.4 76.8,108.5 79.9,107.8 83.1,107.4 86.2,107.1 89.3,106.5 92.4,105.9 95.5,105.3 98.7,105.0 101.8,104.5 104.9,102.5 108.0,101.9 111.2,101.2 114.3,100.4 117.4,99.8 120.5,99.1 123.6,98.7 126.8,98.4 129.9,97.8 133.0,96.9 136.1,96.1 139.2,95.5 142.4,94.9 145.5,94.7 148.6,94.5 151.7,94.2 154.9,93.6 158.0,93.2 161.1,92.9 164.2,92.2 167.3,91.2 170.5,90.9 173.6,90.8 176.7,90.3 179.8,89.5 182.9,89.0 186.1,88.1 189.2,87.5 192.3,86.7 195.4,86.6 198.6,86.1 201.7,85.4 204.8,84.6 207.9,84.0 211.0,83.7 214.2,83.3 217.3,83.0 220.4,82.1 223.5,81.3 226.6,80.6 229.8,79.9 232.9,79.5 236.0,79.3 239.1,79.0 242.3,78.4 245.4,78.0 248.5,77.6 251.6,77.4 254.7,77.1 257.9,76.7 261.0,76.4 264.1,76.2 267.2,76.0 270.3,75.2 273.5,74.8 276.6,74.6 279.7,74.4 282.8,74.2 286.0,74.2 289.1,87.3 292.2,86.0 295.3,84.9 298.4,83.6 301.6,80.1 304.7,77.6 307.8,74.9 310.9,73.9 314.0,72.8 317.2,70.9 320.3,68.9 323.4,67.5 326.5,66.9 329.7,66.4 332.8,65.0 335.9,63.9 339.0,63.3 342.1,62.4 345.3,62.1 348.4,61.9 351.5,61.2 354.6,59.9 357.7,59.1 360.9,58.2 364.0,57.2 367.1,56.7 370.2,56.4 373.4,55.5 376.5,54.8 379.6,54.0 382.7,53.5 385.8,53.2 389.0,53.0 392.1,52.6 395.2,51.9 398.3,51.5 401.4,51.0 404.6,50.6 407.7,50.2 410.8,49.9 413.9,49.5 417.1,49.2 420.2,48.9 423.3,48.2 426.4,47.7 429.5,47.1 432.7,46.8 435.8,46.4 438.9,46.1 442.0,45.8 445.1,45.5 448.3,44.6 451.4,43.9 454.5,43.1 457.6,42.8 460.8,42.7 463.9,42.4 467.0,42.0 470.1,41.5 473.2,41.0 476.4,40.4 479.5,40.0 482.6,39.9 485.7,39.6 488.8,39.3 492.0,39.0 495.1,38.7 498.2,38.3 501.3,37.8 504.5,37.5 507.6,37.3 510.7,37.0 513.8,36.9 516.9,36.4 520.1,36.0 523.2,35.5 526.3,35.1 529.4,34.7 532.5,34.4 535.7,34.2 538.8,33.9 541.9,33.3 545.0,32.8 548.2,32.4 551.3,32.0 554.4,31.3 557.5,31.1 560.6,30.9 563.8,30.7 566.9,30.3 570.0,30.0 570.0,30.0,120" />
  
  <!-- Linea principale -->
  <polyline fill="none" stroke="#0366d6" stroke-width="2.5" stroke-linecap="round" stroke-linejoin="round" points="30.0,120.0 33.1,119.0 36.2,117.9 39.4,116.9 42.5,116.6 45.6,116.1 48.7,114.9 51.8,114.1 55.0,113.6 58.1,112.4 61.2,111.7 64.3,111.1 67.5,110.8 70.6,110.2 73.7,109.4 76.8,108.5 79.9,107.8 83.1,107.4 86.2,107.1 89.3,106.5 92.4,105.9 95.5,105.3 98.7,105.0 101.8,104.5 104.9,102.5 108.0,101.9 111.2,101.2 114.3,100.4 117.4,99.8 120.5,99.1 123.6,98.7 126.8,98.4 129.9,97.8 133.0,96.9 136.1,96.1 139.2,95.5 142.4,94.9 145.5,94.7 148.6,94.5 151.7,94.2 154.9,93.6 158.0,93.2 161.1,92.9 164.2,92.2 167.3,91.2 170.5,90.9 173.6,90.8 176.7,90.3 179.8,89.5 182.9,89.0 186.1,88.1 189.2,87.5 192.3,86.7 195.4,86.6 198.6,86.1 201.7,85.4 204.8,84.6 207.9,84.0 211.0,83.7 214.2,83.3 217.3,83.0 220.4,82.1 223.5,81.3 226.6,80.6 229.8,79.9 232.9,79.5 236.0,79.3 239.1,79.0 242.3,78.4 245.4,78.0 248.5,77.6 251.6,77.4 254.7,77.1 257.9,76.7 261.0,76.4 264.1,76.2 267.2,76.0 270.3,75.2 273.5,74.8 276.6,74.6 279.7,74.4 282.8,74.2 286.0,74.2 289.1,87.3 292.2,86.0 295.3,84.9 298.4,83.6 301.6,80.1 304.7,77.6 307.8,74.9 310.9,73.9 314.0,72.8 317.2,70.9 320.3,68.9 323.4,67.5 326.5,66.9 329.7,66.4 332.8,65.0 335.9,63.9 339.0,63.3 342.1,62.4 345.3,62.1 348.4,61.9 351.5,61.2 354.6,59.9 357.7,59.1 360.9,58.2 364.0,57.2 367.1,56.7 370.2,56.4 373.4,55.5 376.5,54.8 379.6,54.0 382.7,53.5 385.8,53.2 389.0,53.0 392.1,52.6 395.2,51.9 398.3,51.5 401.4,51.0 404.6,50.6 407.7,50.2 410.8,49.9 413.9,49.5 417.1,49.2 420.2,48.9 423.3,48.2 426.4,47.7 429.5,47.1 432.7,46.8 435.8,46.4 438.9,46.1 442.0,45.8 445.1,45.5 448.3,44.6 451.4,43.9 454.5,43.1 457.6,42.8 460.8,42.7 463.9,42.4 467.0,42.0 470.1,41.5 473.2,41.0 476.4,40.4 479.5,40.0 482.6,39.9 485.7,39.6 488.8,39.3 492.0,39.0 495.1,38.7 498.2,38.3 501.3,37.8 504.5,37.5 507.6,37.3 510.7,37.0 513.8,36.9 516.9,36.4 520.1,36.0 523.2,35.5 526.3,35.1 529.4,34.7 532.5,34.4 535.7,34.2 538.8,33.9 541.9,33.3 545.0,32.8 548.2,32.4 551.3,32.0 554.4,31.3 557.5,31.1 560.6,30.9 563.8,30.7 566.9,30.3 570.0,30.0" />
  
  <!-- Punto finale luminoso -->
  <circle cx="570.0" cy="30.0" r="4" fill="#ffffff" stroke="#0366d6" stroke-width="2.5" />
</svg>