<svg width="600" height="150" viewBox="0 0 600 150" xmlns="http://www.w3.org/2000/svg">
  <defs>
    <filter id="shadow2" x="-2%" y="-2%" width="104%" height="108%">
      <feDropShadow dx="0" dy="2" stdDeviation="3" flood-opacity="0.1" />
    </filter>
    <linearGradient id="fillGrad" x1="0" y1="0" x2="0" y2="1">
      <stop offset="0%" stop-color="#0366d6" stop-opacity="0.3"/>
      <stop offset="100%" stop-color="#0366d6" stop-opacity="0.02"/>
    </linearGradient>
  </defs>
  <rect width="600" height="150" rx="12" fill="#ffffff" filter="url(#shadow2)" stroke="#e1e4e8" stroke-width="1"/>
  <text x="20" y="24" fill="#2b3137" font-family="-apple-system,BlinkMacSystemFont,'Segoe UI',Helvetica,Arial,sans-serif" font-size="14" font-weight="600">📈 Download Growth (Actual: 81.5k)</text>
  
  <!-- Area sotto la linea -->
  <polygon fill="url(#fillGrad)" points="30.0,120.0,120 30.0,120.0 31.9,119.3 33.8,118.6 35.7,117.9 37.6,117.7 39.5,117.4 41.4,116.6 43.3,116.1 45.2,115.7 47.1,114.9 49.0,114.5 50.9,114.1 52.8,113.8 54.7,113.4 56.6,112.9 58.5,112.3 60.4,111.9 62.3,111.5 64.2,111.3 66.1,111.0 68.0,110.5 69.9,110.1 71.8,110.0 73.7,109.6 75.6,108.3 77.5,107.9 79.4,107.4 81.3,106.9 83.2,106.4 85.1,106.0 87.0,105.7 88.9,105.5 90.8,105.1 92.7,104.5 94.6,104.0 96.5,103.6 98.5,103.2 100.4,103.0 102.3,102.9 104.2,102.7 106.1,102.3 108.0,102.1 109.9,101.9 111.8,101.4 113.7,100.7 115.6,100.5 117.5,100.4 119.4,100.1 121.3,99.6 123.2,99.2 125.1,98.6 127.0,98.2 128.9,97.7 130.8,97.6 132.7,97.3 134.6,96.8 136.5,96.3 138.4,95.9 140.3,95.7 142.2,95.4 144.1,95.2 146.0,94.6 147.9,94.1 149.8,93.6 151.7,93.1 153.6,92.9 155.5,92.7 157.4,92.5 159.3,92.1 161.2,91.8 163.1,91.6 165.0,91.4 166.9,91.3 168.8,91.0 170.7,90.8 172.6,90.7 174.5,90.5 176.4,90.0 178.3,89.7 180.2,89.6 182.1,89.4 184.0,89.3 185.9,89.3 187.8,98.1 189.7,97.2 191.6,96.5 193.5,95.6 195.4,93.2 197.3,91.6 199.2,89.8 201.1,89.1 203.0,88.4 204.9,87.1 206.8,85.8 208.7,84.8 210.6,84.4 212.5,84.1 214.4,83.1 216.3,82.4 218.2,82.0 220.1,81.4 222.0,81.2 223.9,81.1 225.8,80.6 227.7,79.8 229.6,79.2 231.5,78.6 233.5,77.9 235.4,77.6 237.3,77.4 239.2,76.8 241.1,76.3 243.0,75.8 244.9,75.4 246.8,75.3 248.7,75.1 250.6,74.8 252.5,74.4 254.4,74.1 256.3,73.8 258.2,73.5 260.1,73.3 262.0,73.0 263.9,72.8 265.8,72.6 267.7,72.4 269.6,71.9 271.5,71.6 273.4,71.2 275.3,70.9 277.2,70.7 279.1,70.5 281.0,70.3 282.9,70.1 284.8,69.5 286.7,69.0 288.6,68.5 290.5,68.3 292.4,68.2 294.3,68.0 296.2,67.7 298.1,67.4 300.0,67.1 301.9,66.7 303.8,66.4 305.7,66.3 307.6,66.1 309.5,65.9 311.4,65.8 313.3,65.5 315.2,65.3 317.1,64.9 319.0,64.7 320.9,64.6 322.8,64.4 324.7,64.3 326.6,64.0 328.5,63.7 330.4,63.4 332.3,63.1 334.2,62.9 336.1,62.7 338.0,62.5 339.9,62.3 341.8,61.9 343.7,61.6 345.6,61.3 347.5,61.0 349.4,60.6 351.3,60.5 353.2,60.3 355.1,60.2 357.0,59.9 358.9,59.7 360.8,59.4 362.7,59.3 364.6,59.0 366.5,58.8 368.5,58.6 370.4,58.5 372.3,58.4 374.2,58.1 376.1,57.8 378.0,57.6 379.9,57.3 381.8,57.2 383.7,57.0 385.6,56.8 387.5,56.7 389.4,56.5 391.3,56.3 393.2,55.9 395.1,55.5 397.0,55.3 398.9,55.0 400.8,55.0 402.7,54.9 404.6,54.6 406.5,54.2 408.4,54.1 410.3,54.0 412.2,53.7 414.1,53.5 416.0,53.2 417.9,53.1 419.8,53.0 421.7,52.6 423.6,52.4 425.5,52.1 427.4,51.8 429.3,51.7 431.2,51.6 433.1,51.6 435.0,51.4 436.9,51.2 438.8,50.9 440.7,50.7 442.6,50.5 444.5,50.3 446.4,50.2 448.3,50.0 450.2,49.8 452.1,49.5 454.0,49.3 455.9,49.0 457.8,48.8 459.7,48.7 461.6,48.5 463.5,48.4 465.4,48.3 467.3,48.2 469.2,48.0 471.1,47.7 473.0,47.5 474.9,47.3 476.8,47.1 478.7,47.0 480.6,46.8 482.5,46.5 484.4,46.4 486.3,46.2 488.2,46.0 490.1,45.8 492.0,45.6 493.9,45.4 495.8,45.3 497.7,45.2 499.6,45.0 501.5,44.9 503.5,44.7 505.4,44.5 507.3,44.5 509.2,44.3 511.1,43.9 513.0,43.6 514.9,49.3 516.8,48.2 518.7,46.0 520.6,45.2 522.5,44.2 524.4,43.0 526.3,42.3 528.2,41.8 530.1,41.0 532.0,39.8 533.9,38.9 535.8,38.6 537.7,38.1 539.6,37.7 541.5,37.1 543.4,36.5 545.3,35.8 547.2,35.4 549.1,34.8 551.0,34.5 552.9,34.0 554.8,33.8 556.7,33.4 558.6,33.1 560.5,32.5 562.4,32.1 564.3,31.5 566.2,30.7 568.1,30.3 570.0,30.0 570.0,30.0,120" />
  
  <!-- Linea principale -->
  <polyline fill="none" stroke="#0366d6" stroke-width="2.5" stroke-linecap="round" stroke-linejoin="round" points="30.0,120.0 31.9,119.3 33.8,118.6 35.7,117.9 37.6,117.7 39.5,117.4 41.4,116.6 43.3,116.1 45.2,115.7 47.1,114.9 49.0,114.5 50.9,114.1 52.8,113.8 54.7,113.4 56.6,112.9 58.5,112.3 60.4,111.9 62.3,111.5 64.2,111.3 66.1,111.0 68.0,110.5 69.9,110.1 71.8,110.0 73.7,109.6 75.6,108.3 77.5,107.9 79.4,107.4 81.3,106.9 83.2,106.4 85.1,106.0 87.0,105.7 88.9,105.5 90.8,105.1 92.7,104.5 94.6,104.0 96.5,103.6 98.5,103.2 100.4,103.0 102.3,102.9 104.2,102.7 106.1,102.3 108.0,102.1 109.9,101.9 111.8,101.4 113.7,100.7 115.6,100.5 117.5,100.4 119.4,100.1 121.3,99.6 123.2,99.2 125.1,98.6 127.0,98.2 128.9,97.7 130.8,97.6 132.7,97.3 134.6,96.8 136.5,96.3 138.4,95.9 140.3,95.7 142.2,95.4 144.1,95.2 146.0,94.6 147.9,94.1 149.8,93.6 151.7,93.1 153.6,92.9 155.5,92.7 157.4,92.5 159.3,92.1 161.2,91.8 163.1,91.6 165.0,91.4 166.9,91.3 168.8,91.0 170.7,90.8 172.6,90.7 174.5,90.5 176.4,90.0 178.3,89.7 180.2,89.6 182.1,89.4 184.0,89.3 185.9,89.3 187.8,98.1 189.7,97.2 191.6,96.5 193.5,95.6 195.4,93.2 197.3,91.6 199.2,89.8 201.1,89.1 203.0,88.4 204.9,87.1 206.8,85.8 208.7,84.8 210.6,84.4 212.5,84.1 214.4,83.1 216.3,82.4 218.2,82.0 220.1,81.4 222.0,81.2 223.9,81.1 225.8,80.6 227.7,79.8 229.6,79.2 231.5,78.6 233.5,77.9 235.4,77.6 237.3,77.4 239.2,76.8 241.1,76.3 243.0,75.8 244.9,75.4 246.8,75.3 248.7,75.1 250.6,74.8 252.5,74.4 254.4,74.1 256.3,73.8 258.2,73.5 260.1,73.3 262.0,73.0 263.9,72.8 265.8,72.6 267.7,72.4 269.6,71.9 271.5,71.6 273.4,71.2 275.3,70.9 277.2,70.7 279.1,70.5 281.0,70.3 282.9,70.1 284.8,69.5 286.7,69.0 288.6,68.5 290.5,68.3 292.4,68.2 294.3,68.0 296.2,67.7 298.1,67.4 300.0,67.1 301.9,66.7 303.8,66.4 305.7,66.3 307.6,66.1 309.5,65.9 311.4,65.8 313.3,65.5 315.2,65.3 317.1,64.9 319.0,64.7 320.9,64.6 322.8,64.4 324.7,64.3 326.6,64.0 328.5,63.7 330.4,63.4 332.3,63.1 334.2,62.9 336.1,62.7 338.0,62.5 339.9,62.3 341.8,61.9 343.7,61.6 345.6,61.3 347.5,61.0 349.4,60.6 351.3,60.5 353.2,60.3 355.1,60.2 357.0,59.9 358.9,59.7 360.8,59.4 362.7,59.3 364.6,59.0 366.5,58.8 368.5,58.6 370.4,58.5 372.3,58.4 374.2,58.1 376.1,57.8 378.0,57.6 379.9,57.3 381.8,57.2 383.7,57.0 385.6,56.8 387.5,56.7 389.4,56.5 391.3,56.3 393.2,55.9 395.1,55.5 397.0,55.3 398.9,55.0 400.8,55.0 402.7,54.9 404.6,54.6 406.5,54.2 408.4,54.1 410.3,54.0 412.2,53.7 414.1,53.5 416.0,53.2 417.9,53.1 419.8,53.0 421.7,52.6 423.6,52.4 425.5,52.1 427.4,51.8 429.3,51.7 431.2,51.6 433.1,51.6 435.0,51.4 436.9,51.2 438.8,50.9 440.7,50.7 442.6,50.5 444.5,50.3 446.4,50.2 448.3,50.0 450.2,49.8 452.1,49.5 454.0,49.3 455.9,49.0 457.8,48.8 459.7,48.7 461.6,48.5 463.5,48.4 465.4,48.3 467.3,48.2 469.2,48.0 471.1,47.7 473.0,47.5 474.9,47.3 476.8,47.1 478.7,47.0 480.6,46.8 482.5,46.5 484.4,46.4 486.3,46.2 488.2,46.0 490.1,45.8 492.0,45.6 493.9,45.4 495.8,45.3 497.7,45.2 499.6,45.0 501.5,44.9 503.5,44.7 505.4,44.5 507.3,44.5 509.2,44.3 511.1,43.9 513.0,43.6 514.9,49.3 516.8,48.2 518.7,46.0 520.6,45.2 522.5,44.2 524.4,43.0 526.3,42.3 528.2,41.8 530.1,41.0 532.0,39.8 533.9,38.9 535.8,38.6 537.7,38.1 539.6,37.7 541.5,37.1 543.4,36.5 545.3,35.8 547.2,35.4 549.1,34.8 551.0,34.5 552.9,34.0 554.8,33.8 556.7,33.4 558.6,33.1 560.5,32.5 562.4,32.1 564.3,31.5 566.2,30.7 568.1,30.3 570.0,30.0" />
  
  <!-- Punto finale luminoso -->
  <circle cx="570.0" cy="30.0" r="4" fill="#ffffff" stroke="#0366d6" stroke-width="2.5" />
</svg>