<svg width="600" height="150" viewBox="0 0 600 150" xmlns="http://www.w3.org/2000/svg">
  <defs>
    <filter id="shadow2" x="-2%" y="-2%" width="104%" height="108%">
      <feDropShadow dx="0" dy="2" stdDeviation="3" flood-opacity="0.1" />
    </filter>
    <linearGradient id="fillGrad" x1="0" y1="0" x2="0" y2="1">
      <stop offset="0%" stop-color="#0366d6" stop-opacity="0.3"/>
      <stop offset="100%" stop-color="#0366d6" stop-opacity="0.02"/>
    </linearGradient>
  </defs>
  <rect width="600" height="150" rx="12" fill="#ffffff" filter="url(#shadow2)" stroke="#e1e4e8" stroke-width="1"/>
  <text x="20" y="24" fill="#2b3137" font-family="-apple-system,BlinkMacSystemFont,'Segoe UI',Helvetica,Arial,sans-serif" font-size="14" font-weight="600">📈 Download Growth (Actual: 71.6k)</text>
  
  <!-- Area sotto la linea -->
  <polygon fill="url(#fillGrad)" points="30.0,120.0,120 30.0,120.0 37.4,117.9 44.8,115.5 52.2,113.5 59.6,113.0 67.0,111.9 74.4,109.5 81.8,107.8 89.2,106.7 96.6,104.1 104.0,102.9 111.4,101.6 118.8,100.8 126.2,99.7 133.6,98.0 141.0,96.1 148.4,94.7 155.8,93.8 163.2,93.1 170.5,92.0 177.9,90.6 185.3,89.4 192.7,88.9 200.1,87.7 207.5,83.7 214.9,82.5 222.3,80.9 229.7,79.4 237.1,78.0 244.5,76.6 251.9,75.8 259.3,75.1 266.7,74.0 274.1,72.0 281.5,70.3 288.9,69.2 296.3,67.8 303.7,67.5 311.1,67.1 318.5,66.4 325.9,65.1 333.3,64.4 340.7,63.8 348.1,62.3 355.5,60.2 362.9,59.7 370.3,59.3 377.7,58.4 385.1,56.7 392.5,55.6 399.9,53.8 407.3,52.5 414.7,50.9 422.1,50.6 429.5,49.6 436.8,48.0 444.2,46.4 451.6,45.2 459.0,44.6 466.4,43.8 473.8,43.1 481.2,41.3 488.6,39.6 496.0,38.1 503.4,36.6 510.8,35.9 518.2,35.4 525.6,34.8 533.0,33.5 540.4,32.7 547.8,32.0 555.2,31.4 562.6,30.9 570.0,30.0 570.0,30.0,120" />
  
  <!-- Linea principale -->
  <polyline fill="none" stroke="#0366d6" stroke-width="2.5" stroke-linecap="round" stroke-linejoin="round" points="30.0,120.0 37.4,117.9 44.8,115.5 52.2,113.5 59.6,113.0 67.0,111.9 74.4,109.5 81.8,107.8 89.2,106.7 96.6,104.1 104.0,102.9 111.4,101.6 118.8,100.8 126.2,99.7 133.6,98.0 141.0,96.1 148.4,94.7 155.8,93.8 163.2,93.1 170.5,92.0 177.9,90.6 185.3,89.4 192.7,88.9 200.1,87.7 207.5,83.7 214.9,82.5 222.3,80.9 229.7,79.4 237.1,78.0 244.5,76.6 251.9,75.8 259.3,75.1 266.7,74.0 274.1,72.0 281.5,70.3 288.9,69.2 296.3,67.8 303.7,67.5 311.1,67.1 318.5,66.4 325.9,65.1 333.3,64.4 340.7,63.8 348.1,62.3 355.5,60.2 362.9,59.7 370.3,59.3 377.7,58.4 385.1,56.7 392.5,55.6 399.9,53.8 407.3,52.5 414.7,50.9 422.1,50.6 429.5,49.6 436.8,48.0 444.2,46.4 451.6,45.2 459.0,44.6 466.4,43.8 473.8,43.1 481.2,41.3 488.6,39.6 496.0,38.1 503.4,36.6 510.8,35.9 518.2,35.4 525.6,34.8 533.0,33.5 540.4,32.7 547.8,32.0 555.2,31.4 562.6,30.9 570.0,30.0" />
  
  <!-- Punto finale luminoso -->
  <circle cx="570.0" cy="30.0" r="4" fill="#ffffff" stroke="#0366d6" stroke-width="2.5" />
</svg>