<svg width="600" height="150" viewBox="0 0 600 150" xmlns="http://www.w3.org/2000/svg">
  <defs>
    <filter id="shadow2" x="-2%" y="-2%" width="104%" height="108%">
      <feDropShadow dx="0" dy="2" stdDeviation="3" flood-opacity="0.1" />
    </filter>
    <linearGradient id="fillGrad" x1="0" y1="0" x2="0" y2="1">
      <stop offset="0%" stop-color="#0366d6" stop-opacity="0.3"/>
      <stop offset="100%" stop-color="#0366d6" stop-opacity="0.02"/>
    </linearGradient>
  </defs>
  <rect width="600" height="150" rx="12" fill="#ffffff" filter="url(#shadow2)" stroke="#e1e4e8" stroke-width="1"/>
  <text x="20" y="24" fill="#2b3137" font-family="-apple-system,BlinkMacSystemFont,'Segoe UI',Helvetica,Arial,sans-serif" font-size="14" font-weight="600">📈 Download Growth (Actual: 76.5k)</text>
  
  <!-- Area sotto la linea -->
  <polygon fill="url(#fillGrad)" points="30.0,120.0,120 30.0,120.0 33.2,119.0 36.4,117.8 39.6,116.8 42.9,116.6 46.1,116.1 49.3,114.8 52.5,114.0 55.7,113.5 58.9,112.3 62.1,111.6 65.4,111.0 68.6,110.6 71.8,110.1 75.0,109.2 78.2,108.3 81.4,107.7 84.6,107.2 87.9,106.9 91.1,106.3 94.3,105.7 97.5,105.1 100.7,104.8 103.9,104.2 107.1,102.3 110.4,101.7 113.6,100.9 116.8,100.1 120.0,99.5 123.2,98.8 126.4,98.4 129.6,98.1 132.9,97.5 136.1,96.6 139.3,95.7 142.5,95.2 145.7,94.5 148.9,94.3 152.1,94.2 155.4,93.8 158.6,93.2 161.8,92.8 165.0,92.6 168.2,91.8 171.4,90.8 174.6,90.5 177.9,90.3 181.1,89.9 184.3,89.1 187.5,88.5 190.7,87.7 193.9,87.0 197.1,86.3 200.4,86.1 203.6,85.6 206.8,84.9 210.0,84.1 213.2,83.5 216.4,83.2 219.6,82.8 222.9,82.4 226.1,81.6 229.3,80.7 232.5,80.0 235.7,79.3 238.9,78.9 242.1,78.7 245.4,78.4 248.6,77.8 251.8,77.4 255.0,77.0 258.2,76.7 261.4,76.5 264.6,76.0 267.9,75.8 271.1,75.6 274.3,75.4 277.5,74.6 280.7,74.1 283.9,74.0 287.1,73.7 290.4,73.5 293.6,73.5 296.8,86.8 300.0,85.5 303.2,84.3 306.4,83.1 309.6,79.5 312.9,77.0 316.1,74.2 319.3,73.2 322.5,72.1 325.7,70.2 328.9,68.2 332.1,66.7 335.4,66.2 338.6,65.6 341.8,64.2 345.0,63.1 348.2,62.4 351.4,61.6 354.6,61.2 357.9,61.1 361.1,60.3 364.3,59.1 367.5,58.2 370.7,57.3 373.9,56.3 377.1,55.8 380.4,55.5 383.6,54.6 386.8,53.8 390.0,53.1 393.2,52.5 396.4,52.2 399.6,52.1 402.9,51.6 406.1,51.0 409.3,50.5 412.5,50.0 415.7,49.6 418.9,49.2 422.1,48.8 425.4,48.5 428.6,48.2 431.8,47.9 435.0,47.2 438.2,46.7 441.4,46.1 444.6,45.7 447.9,45.3 451.1,45.1 454.3,44.8 457.5,44.4 460.7,43.5 463.9,42.8 467.1,42.0 470.4,41.7 473.6,41.6 476.8,41.3 480.0,40.8 483.2,40.3 486.4,39.9 489.6,39.3 492.9,38.9 496.1,38.7 499.3,38.4 502.5,38.1 505.7,37.9 508.9,37.5 512.1,37.2 515.4,36.6 518.6,36.3 521.8,36.1 525.0,35.8 528.2,35.7 531.4,35.2 534.6,34.8 537.9,34.3 541.1,33.9 544.3,33.5 547.5,33.2 550.7,33.0 553.9,32.7 557.1,32.1 560.4,31.6 563.6,31.2 566.8,30.7 570.0,30.0 570.0,30.0,120" />
  
  <!-- Linea principale -->
  <polyline fill="none" stroke="#0366d6" stroke-width="2.5" stroke-linecap="round" stroke-linejoin="round" points="30.0,120.0 33.2,119.0 36.4,117.8 39.6,116.8 42.9,116.6 46.1,116.1 49.3,114.8 52.5,114.0 55.7,113.5 58.9,112.3 62.1,111.6 65.4,111.0 68.6,110.6 71.8,110.1 75.0,109.2 78.2,108.3 81.4,107.7 84.6,107.2 87.9,106.9 91.1,106.3 94.3,105.7 97.5,105.1 100.7,104.8 103.9,104.2 107.1,102.3 110.4,101.7 113.6,100.9 116.8,100.1 120.0,99.5 123.2,98.8 126.4,98.4 129.6,98.1 132.9,97.5 136.1,96.6 139.3,95.7 142.5,95.2 145.7,94.5 148.9,94.3 152.1,94.2 155.4,93.8 158.6,93.2 161.8,92.8 165.0,92.6 168.2,91.8 171.4,90.8 174.6,90.5 177.9,90.3 181.1,89.9 184.3,89.1 187.5,88.5 190.7,87.7 193.9,87.0 197.1,86.3 200.4,86.1 203.6,85.6 206.8,84.9 210.0,84.1 213.2,83.5 216.4,83.2 219.6,82.8 222.9,82.4 226.1,81.6 229.3,80.7 232.5,80.0 235.7,79.3 238.9,78.9 242.1,78.7 245.4,78.4 248.6,77.8 251.8,77.4 255.0,77.0 258.2,76.7 261.4,76.5 264.6,76.0 267.9,75.8 271.1,75.6 274.3,75.4 277.5,74.6 280.7,74.1 283.9,74.0 287.1,73.7 290.4,73.5 293.6,73.5 296.8,86.8 300.0,85.5 303.2,84.3 306.4,83.1 309.6,79.5 312.9,77.0 316.1,74.2 319.3,73.2 322.5,72.1 325.7,70.2 328.9,68.2 332.1,66.7 335.4,66.2 338.6,65.6 341.8,64.2 345.0,63.1 348.2,62.4 351.4,61.6 354.6,61.2 357.9,61.1 361.1,60.3 364.3,59.1 367.5,58.2 370.7,57.3 373.9,56.3 377.1,55.8 380.4,55.5 383.6,54.6 386.8,53.8 390.0,53.1 393.2,52.5 396.4,52.2 399.6,52.1 402.9,51.6 406.1,51.0 409.3,50.5 412.5,50.0 415.7,49.6 418.9,49.2 422.1,48.8 425.4,48.5 428.6,48.2 431.8,47.9 435.0,47.2 438.2,46.7 441.4,46.1 444.6,45.7 447.9,45.3 451.1,45.1 454.3,44.8 457.5,44.4 460.7,43.5 463.9,42.8 467.1,42.0 470.4,41.7 473.6,41.6 476.8,41.3 480.0,40.8 483.2,40.3 486.4,39.9 489.6,39.3 492.9,38.9 496.1,38.7 499.3,38.4 502.5,38.1 505.7,37.9 508.9,37.5 512.1,37.2 515.4,36.6 518.6,36.3 521.8,36.1 525.0,35.8 528.2,35.7 531.4,35.2 534.6,34.8 537.9,34.3 541.1,33.9 544.3,33.5 547.5,33.2 550.7,33.0 553.9,32.7 557.1,32.1 560.4,31.6 563.6,31.2 566.8,30.7 570.0,30.0" />
  
  <!-- Punto finale luminoso -->
  <circle cx="570.0" cy="30.0" r="4" fill="#ffffff" stroke="#0366d6" stroke-width="2.5" />
</svg>