<svg width="600" height="150" viewBox="0 0 600 150" xmlns="http://www.w3.org/2000/svg">
  <defs>
    <filter id="shadow2" x="-2%" y="-2%" width="104%" height="108%">
      <feDropShadow dx="0" dy="2" stdDeviation="3" flood-opacity="0.1" />
    </filter>
    <linearGradient id="fillGrad" x1="0" y1="0" x2="0" y2="1">
      <stop offset="0%" stop-color="#0366d6" stop-opacity="0.3"/>
      <stop offset="100%" stop-color="#0366d6" stop-opacity="0.02"/>
    </linearGradient>
  </defs>
  <rect width="600" height="150" rx="12" fill="#ffffff" filter="url(#shadow2)" stroke="#e1e4e8" stroke-width="1"/>
  <text x="20" y="24" fill="#2b3137" font-family="-apple-system,BlinkMacSystemFont,'Segoe UI',Helvetica,Arial,sans-serif" font-size="14" font-weight="600">📈 Download Growth (Actual: 77.6k)</text>
  
  <!-- Area sotto la linea -->
  <polygon fill="url(#fillGrad)" points="30.0,120.0,120 30.0,120.0 32.7,119.1 35.4,118.0 38.1,117.2 40.8,116.9 43.5,116.5 46.2,115.4 48.9,114.6 51.6,114.2 54.3,113.0 57.0,112.5 59.7,111.9 62.4,111.6 65.1,111.1 67.8,110.3 70.5,109.5 73.2,108.9 75.9,108.5 78.6,108.2 81.3,107.7 84.0,107.1 86.7,106.6 89.4,106.3 92.1,105.8 94.8,104.0 97.5,103.5 100.2,102.8 102.9,102.1 105.6,101.5 108.3,100.9 111.0,100.6 113.7,100.3 116.4,99.8 119.1,98.9 121.8,98.2 124.5,97.7 127.2,97.1 129.9,96.9 132.6,96.8 135.3,96.4 138.0,95.9 140.7,95.5 143.4,95.3 146.1,94.7 148.8,93.7 151.5,93.5 154.2,93.3 156.9,92.9 159.6,92.2 162.3,91.7 165.0,90.9 167.7,90.3 170.4,89.6 173.1,89.5 175.8,89.1 178.5,88.4 181.2,87.7 183.9,87.1 186.6,86.9 189.3,86.5 192.0,86.2 194.7,85.4 197.4,84.7 200.1,84.0 202.8,83.4 205.5,83.0 208.2,82.8 210.9,82.5 213.6,82.0 216.3,81.6 219.0,81.3 221.7,81.1 224.4,80.8 227.1,80.4 229.8,80.2 232.5,80.0 235.2,79.8 237.9,79.1 240.6,78.7 243.3,78.6 246.0,78.3 248.7,78.2 251.4,78.2 254.1,90.1 256.8,89.0 259.5,87.9 262.2,86.8 264.9,83.5 267.6,81.3 270.3,78.8 273.0,77.9 275.7,76.9 278.4,75.2 281.1,73.4 283.8,72.1 286.5,71.6 289.2,71.1 291.9,69.8 294.6,68.8 297.3,68.2 300.0,67.4 302.7,67.1 305.4,67.0 308.1,66.3 310.8,65.2 313.5,64.4 316.2,63.6 318.9,62.7 321.6,62.2 324.3,61.9 327.0,61.1 329.7,60.5 332.4,59.8 335.1,59.3 337.8,59.0 340.5,58.9 343.2,58.4 345.9,57.9 348.6,57.4 351.3,57.0 354.0,56.6 356.7,56.3 359.4,56.0 362.1,55.7 364.8,55.4 367.5,55.1 370.2,54.5 372.9,54.0 375.6,53.5 378.3,53.1 381.0,52.8 383.7,52.6 386.4,52.3 389.1,52.0 391.8,51.1 394.5,50.6 397.2,49.8 399.9,49.5 402.6,49.5 405.3,49.1 408.0,48.8 410.7,48.3 413.4,47.9 416.1,47.4 418.8,47.0 421.5,46.8 424.2,46.6 426.9,46.3 429.6,46.1 432.3,45.7 435.0,45.4 437.7,44.9 440.4,44.7 443.1,44.5 445.8,44.3 448.5,44.1 451.2,43.7 453.9,43.3 456.6,42.9 459.3,42.5 462.0,42.1 464.7,41.9 467.4,41.7 470.1,41.4 472.8,40.9 475.5,40.4 478.2,40.0 480.9,39.7 483.6,39.0 486.3,38.9 489.0,38.6 491.7,38.5 494.4,38.1 497.1,37.8 499.8,37.5 502.5,37.2 505.2,36.9 507.9,36.7 510.6,36.4 513.3,36.2 516.0,36.0 518.7,35.7 521.4,35.2 524.1,35.0 526.8,34.6 529.5,34.4 532.2,34.2 534.9,33.9 537.6,33.7 540.3,33.5 543.0,33.2 545.7,32.7 548.4,32.1 551.1,31.8 553.8,31.5 556.5,31.4 559.2,31.2 561.9,30.9 564.6,30.4 567.3,30.2 570.0,30.0 570.0,30.0,120" />
  
  <!-- Linea principale -->
  <polyline fill="none" stroke="#0366d6" stroke-width="2.5" stroke-linecap="round" stroke-linejoin="round" points="30.0,120.0 32.7,119.1 35.4,118.0 38.1,117.2 40.8,116.9 43.5,116.5 46.2,115.4 48.9,114.6 51.6,114.2 54.3,113.0 57.0,112.5 59.7,111.9 62.4,111.6 65.1,111.1 67.8,110.3 70.5,109.5 73.2,108.9 75.9,108.5 78.6,108.2 81.3,107.7 84.0,107.1 86.7,106.6 89.4,106.3 92.1,105.8 94.8,104.0 97.5,103.5 100.2,102.8 102.9,102.1 105.6,101.5 108.3,100.9 111.0,100.6 113.7,100.3 116.4,99.8 119.1,98.9 121.8,98.2 124.5,97.7 127.2,97.1 129.9,96.9 132.6,96.8 135.3,96.4 138.0,95.9 140.7,95.5 143.4,95.3 146.1,94.7 148.8,93.7 151.5,93.5 154.2,93.3 156.9,92.9 159.6,92.2 162.3,91.7 165.0,90.9 167.7,90.3 170.4,89.6 173.1,89.5 175.8,89.1 178.5,88.4 181.2,87.7 183.9,87.1 186.6,86.9 189.3,86.5 192.0,86.2 194.7,85.4 197.4,84.7 200.1,84.0 202.8,83.4 205.5,83.0 208.2,82.8 210.9,82.5 213.6,82.0 216.3,81.6 219.0,81.3 221.7,81.1 224.4,80.8 227.1,80.4 229.8,80.2 232.5,80.0 235.2,79.8 237.9,79.1 240.6,78.7 243.3,78.6 246.0,78.3 248.7,78.2 251.4,78.2 254.1,90.1 256.8,89.0 259.5,87.9 262.2,86.8 264.9,83.5 267.6,81.3 270.3,78.8 273.0,77.9 275.7,76.9 278.4,75.2 281.1,73.4 283.8,72.1 286.5,71.6 289.2,71.1 291.9,69.8 294.6,68.8 297.3,68.2 300.0,67.4 302.7,67.1 305.4,67.0 308.1,66.3 310.8,65.2 313.5,64.4 316.2,63.6 318.9,62.7 321.6,62.2 324.3,61.9 327.0,61.1 329.7,60.5 332.4,59.8 335.1,59.3 337.8,59.0 340.5,58.9 343.2,58.4 345.9,57.9 348.6,57.4 351.3,57.0 354.0,56.6 356.7,56.3 359.4,56.0 362.1,55.7 364.8,55.4 367.5,55.1 370.2,54.5 372.9,54.0 375.6,53.5 378.3,53.1 381.0,52.8 383.7,52.6 386.4,52.3 389.1,52.0 391.8,51.1 394.5,50.6 397.2,49.8 399.9,49.5 402.6,49.5 405.3,49.1 408.0,48.8 410.7,48.3 413.4,47.9 416.1,47.4 418.8,47.0 421.5,46.8 424.2,46.6 426.9,46.3 429.6,46.1 432.3,45.7 435.0,45.4 437.7,44.9 440.4,44.7 443.1,44.5 445.8,44.3 448.5,44.1 451.2,43.7 453.9,43.3 456.6,42.9 459.3,42.5 462.0,42.1 464.7,41.9 467.4,41.7 470.1,41.4 472.8,40.9 475.5,40.4 478.2,40.0 480.9,39.7 483.6,39.0 486.3,38.9 489.0,38.6 491.7,38.5 494.4,38.1 497.1,37.8 499.8,37.5 502.5,37.2 505.2,36.9 507.9,36.7 510.6,36.4 513.3,36.2 516.0,36.0 518.7,35.7 521.4,35.2 524.1,35.0 526.8,34.6 529.5,34.4 532.2,34.2 534.9,33.9 537.6,33.7 540.3,33.5 543.0,33.2 545.7,32.7 548.4,32.1 551.1,31.8 553.8,31.5 556.5,31.4 559.2,31.2 561.9,30.9 564.6,30.4 567.3,30.2 570.0,30.0" />
  
  <!-- Punto finale luminoso -->
  <circle cx="570.0" cy="30.0" r="4" fill="#ffffff" stroke="#0366d6" stroke-width="2.5" />
</svg>