<svg width="600" height="150" viewBox="0 0 600 150" xmlns="http://www.w3.org/2000/svg">
  <defs>
    <filter id="shadow2" x="-2%" y="-2%" width="104%" height="108%">
      <feDropShadow dx="0" dy="2" stdDeviation="3" flood-opacity="0.1" />
    </filter>
    <linearGradient id="fillGrad" x1="0" y1="0" x2="0" y2="1">
      <stop offset="0%" stop-color="#0366d6" stop-opacity="0.3"/>
      <stop offset="100%" stop-color="#0366d6" stop-opacity="0.02"/>
    </linearGradient>
  </defs>
  <rect width="600" height="150" rx="12" fill="#ffffff" filter="url(#shadow2)" stroke="#e1e4e8" stroke-width="1"/>
  <text x="20" y="24" fill="#2b3137" font-family="-apple-system,BlinkMacSystemFont,'Segoe UI',Helvetica,Arial,sans-serif" font-size="14" font-weight="600">📈 Download Growth (Actual: 84.2k)</text>
  
  <!-- Area sotto la linea -->
  <polygon fill="url(#fillGrad)" points="30.0,120.0,120 30.0,120.0 31.6,119.4 33.3,118.8 34.9,118.2 36.6,118.1 38.2,117.8 39.8,117.1 41.5,116.7 43.1,116.4 44.8,115.7 46.4,115.3 48.1,115.0 49.7,114.8 51.3,114.4 53.0,114.0 54.6,113.5 56.3,113.1 57.9,112.8 59.5,112.6 61.2,112.3 62.8,112.0 64.5,111.6 66.1,111.5 67.8,111.2 69.4,110.1 71.0,109.7 72.7,109.3 74.3,108.9 76.0,108.5 77.6,108.1 79.2,107.9 80.9,107.7 82.5,107.4 84.2,106.9 85.8,106.4 87.4,106.1 89.1,105.7 90.7,105.6 92.4,105.5 94.0,105.3 95.7,105.0 97.3,104.8 98.9,104.6 100.6,104.2 102.2,103.6 103.9,103.5 105.5,103.4 107.1,103.2 108.8,102.7 110.4,102.4 112.1,101.9 113.7,101.5 115.3,101.1 117.0,101.0 118.6,100.8 120.3,100.3 121.9,99.9 123.6,99.5 125.2,99.4 126.8,99.2 128.5,99.0 130.1,98.5 131.8,98.0 133.4,97.6 135.0,97.2 136.7,97.0 138.3,96.9 140.0,96.7 141.6,96.4 143.3,96.1 144.9,95.9 146.5,95.8 148.2,95.6 149.8,95.4 151.5,95.2 153.1,95.1 154.7,95.0 156.4,94.6 158.0,94.3 159.7,94.2 161.3,94.1 162.9,94.0 164.6,94.0 166.2,101.4 167.9,100.7 169.5,100.0 171.2,99.3 172.8,97.3 174.4,95.9 176.1,94.4 177.7,93.8 179.4,93.2 181.0,92.1 182.6,91.0 184.3,90.2 185.9,89.9 187.6,89.6 189.2,88.7 190.9,88.2 192.5,87.8 194.1,87.3 195.8,87.1 197.4,87.0 199.1,86.6 200.7,85.9 202.3,85.4 204.0,84.9 205.6,84.3 207.3,84.1 208.9,83.9 210.5,83.4 212.2,83.0 213.8,82.5 215.5,82.2 217.1,82.1 218.8,82.0 220.4,81.7 222.0,81.3 223.7,81.1 225.3,80.8 227.0,80.6 228.6,80.4 230.2,80.2 231.9,80.0 233.5,79.8 235.2,79.6 236.8,79.2 238.4,78.9 240.1,78.6 241.7,78.4 243.4,78.2 245.0,78.0 246.7,77.9 248.3,77.7 249.9,77.2 251.6,76.8 253.2,76.4 254.9,76.2 256.5,76.1 258.1,75.9 259.8,75.7 261.4,75.4 263.1,75.1 264.7,74.8 266.4,74.6 268.0,74.5 269.6,74.3 271.3,74.2 272.9,74.0 274.6,73.8 276.2,73.6 277.8,73.3 279.5,73.1 281.1,73.0 282.8,72.9 284.4,72.8 286.0,72.5 287.7,72.3 289.3,72.0 291.0,71.8 292.6,71.6 294.3,71.4 295.9,71.3 297.5,71.1 299.2,70.8 300.8,70.5 302.5,70.3 304.1,70.0 305.7,69.6 307.4,69.5 309.0,69.4 310.7,69.3 312.3,69.1 314.0,68.9 315.6,68.7 317.2,68.5 318.9,68.3 320.5,68.2 322.2,68.0 323.8,67.8 325.4,67.8 327.1,67.6 328.7,67.3 330.4,67.1 332.0,66.9 333.6,66.8 335.3,66.6 336.9,66.4 338.6,66.3 340.2,66.2 341.9,66.0 343.5,65.7 345.1,65.3 346.8,65.1 348.4,64.9 350.1,64.9 351.7,64.8 353.3,64.6 355.0,64.3 356.6,64.1 358.3,64.0 359.9,63.8 361.6,63.6 363.2,63.4 364.8,63.3 366.5,63.2 368.1,62.9 369.8,62.7 371.4,62.5 373.0,62.2 374.7,62.1 376.3,62.1 378.0,62.0 379.6,61.8 381.2,61.6 382.9,61.5 384.5,61.3 386.2,61.1 387.8,60.9 389.5,60.8 391.1,60.7 392.7,60.5 394.4,60.3 396.0,60.0 397.7,59.8 399.3,59.7 400.9,59.5 402.6,59.4 404.2,59.3 405.9,59.2 407.5,59.1 409.1,58.9 410.8,58.7 412.4,58.5 414.1,58.3 415.7,58.2 417.4,58.1 419.0,57.9 420.6,57.7 422.3,57.6 423.9,57.5 425.6,57.3 427.2,57.1 428.8,56.9 430.5,56.8 432.1,56.7 433.8,56.6 435.4,56.4 437.1,56.3 438.7,56.2 440.3,56.0 442.0,56.0 443.6,55.8 445.3,55.5 446.9,55.2 448.5,60.1 450.2,59.1 451.8,57.3 453.5,56.6 455.1,55.8 456.7,54.7 458.4,54.1 460.0,53.8 461.7,53.1 463.3,52.0 465.0,51.2 466.6,51.0 468.2,50.6 469.9,50.3 471.5,49.7 473.2,49.2 474.8,48.6 476.4,48.3 478.1,47.8 479.7,47.5 481.4,47.1 483.0,46.9 484.7,46.6 486.3,46.4 487.9,45.8 489.6,45.5 491.2,45.0 492.9,44.3 494.5,43.9 496.1,43.7 497.8,43.5 499.4,43.2 501.1,42.8 502.7,42.4 504.3,42.1 506.0,41.1 507.6,40.3 509.3,40.0 510.9,39.8 512.6,39.5 514.2,38.9 515.8,38.5 517.5,38.2 519.1,37.8 520.8,37.5 522.4,37.1 524.0,36.8 525.7,36.4 527.3,36.1 529.0,35.9 530.6,35.7 532.2,35.3 533.9,35.0 535.5,34.7 537.2,34.6 538.8,34.4 540.5,34.1 542.1,33.9 543.7,33.7 545.4,33.4 547.0,33.3 548.7,33.1 550.3,32.8 551.9,32.6 553.6,32.2 555.2,31.7 556.9,31.4 558.5,31.3 560.2,31.1 561.8,30.9 563.4,30.7 565.1,30.5 566.7,30.3 568.4,30.2 570.0,30.0 570.0,30.0,120" />
  
  <!-- Linea principale -->
  <polyline fill="none" stroke="#0366d6" stroke-width="2.5" stroke-linecap="round" stroke-linejoin="round" points="30.0,120.0 31.6,119.4 33.3,118.8 34.9,118.2 36.6,118.1 38.2,117.8 39.8,117.1 41.5,116.7 43.1,116.4 44.8,115.7 46.4,115.3 48.1,115.0 49.7,114.8 51.3,114.4 53.0,114.0 54.6,113.5 56.3,113.1 57.9,112.8 59.5,112.6 61.2,112.3 62.8,112.0 64.5,111.6 66.1,111.5 67.8,111.2 69.4,110.1 71.0,109.7 72.7,109.3 74.3,108.9 76.0,108.5 77.6,108.1 79.2,107.9 80.9,107.7 82.5,107.4 84.2,106.9 85.8,106.4 87.4,106.1 89.1,105.7 90.7,105.6 92.4,105.5 94.0,105.3 95.7,105.0 97.3,104.8 98.9,104.6 100.6,104.2 102.2,103.6 103.9,103.5 105.5,103.4 107.1,103.2 108.8,102.7 110.4,102.4 112.1,101.9 113.7,101.5 115.3,101.1 117.0,101.0 118.6,100.8 120.3,100.3 121.9,99.9 123.6,99.5 125.2,99.4 126.8,99.2 128.5,99.0 130.1,98.5 131.8,98.0 133.4,97.6 135.0,97.2 136.7,97.0 138.3,96.9 140.0,96.7 141.6,96.4 143.3,96.1 144.9,95.9 146.5,95.8 148.2,95.6 149.8,95.4 151.5,95.2 153.1,95.1 154.7,95.0 156.4,94.6 158.0,94.3 159.7,94.2 161.3,94.1 162.9,94.0 164.6,94.0 166.2,101.4 167.9,100.7 169.5,100.0 171.2,99.3 172.8,97.3 174.4,95.9 176.1,94.4 177.7,93.8 179.4,93.2 181.0,92.1 182.6,91.0 184.3,90.2 185.9,89.9 187.6,89.6 189.2,88.7 190.9,88.2 192.5,87.8 194.1,87.3 195.8,87.1 197.4,87.0 199.1,86.6 200.7,85.9 202.3,85.4 204.0,84.9 205.6,84.3 207.3,84.1 208.9,83.9 210.5,83.4 212.2,83.0 213.8,82.5 215.5,82.2 217.1,82.1 218.8,82.0 220.4,81.7 222.0,81.3 223.7,81.1 225.3,80.8 227.0,80.6 228.6,80.4 230.2,80.2 231.9,80.0 233.5,79.8 235.2,79.6 236.8,79.2 238.4,78.9 240.1,78.6 241.7,78.4 243.4,78.2 245.0,78.0 246.7,77.9 248.3,77.7 249.9,77.2 251.6,76.8 253.2,76.4 254.9,76.2 256.5,76.1 258.1,75.9 259.8,75.7 261.4,75.4 263.1,75.1 264.7,74.8 266.4,74.6 268.0,74.5 269.6,74.3 271.3,74.2 272.9,74.0 274.6,73.8 276.2,73.6 277.8,73.3 279.5,73.1 281.1,73.0 282.8,72.9 284.4,72.8 286.0,72.5 287.7,72.3 289.3,72.0 291.0,71.8 292.6,71.6 294.3,71.4 295.9,71.3 297.5,71.1 299.2,70.8 300.8,70.5 302.5,70.3 304.1,70.0 305.7,69.6 307.4,69.5 309.0,69.4 310.7,69.3 312.3,69.1 314.0,68.9 315.6,68.7 317.2,68.5 318.9,68.3 320.5,68.2 322.2,68.0 323.8,67.8 325.4,67.8 327.1,67.6 328.7,67.3 330.4,67.1 332.0,66.9 333.6,66.8 335.3,66.6 336.9,66.4 338.6,66.3 340.2,66.2 341.9,66.0 343.5,65.7 345.1,65.3 346.8,65.1 348.4,64.9 350.1,64.9 351.7,64.8 353.3,64.6 355.0,64.3 356.6,64.1 358.3,64.0 359.9,63.8 361.6,63.6 363.2,63.4 364.8,63.3 366.5,63.2 368.1,62.9 369.8,62.7 371.4,62.5 373.0,62.2 374.7,62.1 376.3,62.1 378.0,62.0 379.6,61.8 381.2,61.6 382.9,61.5 384.5,61.3 386.2,61.1 387.8,60.9 389.5,60.8 391.1,60.7 392.7,60.5 394.4,60.3 396.0,60.0 397.7,59.8 399.3,59.7 400.9,59.5 402.6,59.4 404.2,59.3 405.9,59.2 407.5,59.1 409.1,58.9 410.8,58.7 412.4,58.5 414.1,58.3 415.7,58.2 417.4,58.1 419.0,57.9 420.6,57.7 422.3,57.6 423.9,57.5 425.6,57.3 427.2,57.1 428.8,56.9 430.5,56.8 432.1,56.7 433.8,56.6 435.4,56.4 437.1,56.3 438.7,56.2 440.3,56.0 442.0,56.0 443.6,55.8 445.3,55.5 446.9,55.2 448.5,60.1 450.2,59.1 451.8,57.3 453.5,56.6 455.1,55.8 456.7,54.7 458.4,54.1 460.0,53.8 461.7,53.1 463.3,52.0 465.0,51.2 466.6,51.0 468.2,50.6 469.9,50.3 471.5,49.7 473.2,49.2 474.8,48.6 476.4,48.3 478.1,47.8 479.7,47.5 481.4,47.1 483.0,46.9 484.7,46.6 486.3,46.4 487.9,45.8 489.6,45.5 491.2,45.0 492.9,44.3 494.5,43.9 496.1,43.7 497.8,43.5 499.4,43.2 501.1,42.8 502.7,42.4 504.3,42.1 506.0,41.1 507.6,40.3 509.3,40.0 510.9,39.8 512.6,39.5 514.2,38.9 515.8,38.5 517.5,38.2 519.1,37.8 520.8,37.5 522.4,37.1 524.0,36.8 525.7,36.4 527.3,36.1 529.0,35.9 530.6,35.7 532.2,35.3 533.9,35.0 535.5,34.7 537.2,34.6 538.8,34.4 540.5,34.1 542.1,33.9 543.7,33.7 545.4,33.4 547.0,33.3 548.7,33.1 550.3,32.8 551.9,32.6 553.6,32.2 555.2,31.7 556.9,31.4 558.5,31.3 560.2,31.1 561.8,30.9 563.4,30.7 565.1,30.5 566.7,30.3 568.4,30.2 570.0,30.0" />
  
  <!-- Punto finale luminoso -->
  <circle cx="570.0" cy="30.0" r="4" fill="#ffffff" stroke="#0366d6" stroke-width="2.5" />
</svg>