<svg width="600" height="150" viewBox="0 0 600 150" xmlns="http://www.w3.org/2000/svg">
  <defs>
    <filter id="shadow2" x="-2%" y="-2%" width="104%" height="108%">
      <feDropShadow dx="0" dy="2" stdDeviation="3" flood-opacity="0.1" />
    </filter>
    <linearGradient id="fillGrad" x1="0" y1="0" x2="0" y2="1">
      <stop offset="0%" stop-color="#0366d6" stop-opacity="0.3"/>
      <stop offset="100%" stop-color="#0366d6" stop-opacity="0.02"/>
    </linearGradient>
  </defs>
  <rect width="600" height="150" rx="12" fill="#ffffff" filter="url(#shadow2)" stroke="#e1e4e8" stroke-width="1"/>
  <text x="20" y="24" fill="#2b3137" font-family="-apple-system,BlinkMacSystemFont,'Segoe UI',Helvetica,Arial,sans-serif" font-size="14" font-weight="600">📈 Download Growth (Actual: 84.7k)</text>
  
  <!-- Area sotto la linea -->
  <polygon fill="url(#fillGrad)" points="30.0,120.0,120 30.0,120.0 31.6,119.4 33.2,118.8 34.8,118.3 36.4,118.1 37.9,117.9 39.5,117.2 41.1,116.8 42.7,116.5 44.3,115.8 45.9,115.5 47.5,115.1 49.1,114.9 50.6,114.6 52.2,114.2 53.8,113.7 55.4,113.3 57.0,113.0 58.6,112.9 60.2,112.6 61.8,112.2 63.4,111.9 64.9,111.7 66.5,111.4 68.1,110.4 69.7,110.1 71.3,109.6 72.9,109.2 74.5,108.8 76.1,108.5 77.6,108.3 79.2,108.1 80.8,107.8 82.4,107.3 84.0,106.8 85.6,106.5 87.2,106.2 88.8,106.1 90.4,106.0 91.9,105.8 93.5,105.4 95.1,105.2 96.7,105.1 98.3,104.7 99.9,104.1 101.5,104.0 103.1,103.9 104.6,103.7 106.2,103.2 107.8,102.9 109.4,102.4 111.0,102.1 112.6,101.7 114.2,101.6 115.8,101.3 117.4,100.9 118.9,100.5 120.5,100.2 122.1,100.0 123.7,99.8 125.3,99.6 126.9,99.1 128.5,98.7 130.1,98.3 131.6,97.9 133.2,97.7 134.8,97.6 136.4,97.4 138.0,97.1 139.6,96.8 141.2,96.7 142.8,96.5 144.4,96.4 145.9,96.1 147.5,96.0 149.1,95.9 150.7,95.8 152.3,95.3 153.9,95.1 155.5,95.0 157.1,94.9 158.6,94.8 160.2,94.8 161.8,102.0 163.4,101.3 165.0,100.6 166.6,100.0 168.2,98.0 169.8,96.6 171.4,95.2 172.9,94.6 174.5,94.0 176.1,93.0 177.7,91.9 179.3,91.1 180.9,90.8 182.5,90.5 184.1,89.7 185.6,89.1 187.2,88.7 188.8,88.3 190.4,88.1 192.0,88.0 193.6,87.6 195.2,86.9 196.8,86.4 198.4,85.9 199.9,85.4 201.5,85.1 203.1,84.9 204.7,84.5 206.3,84.1 207.9,83.7 209.5,83.3 211.1,83.2 212.6,83.1 214.2,82.9 215.8,82.5 217.4,82.2 219.0,82.0 220.6,81.8 222.2,81.6 223.8,81.4 225.4,81.2 226.9,81.0 228.5,80.8 230.1,80.4 231.7,80.2 233.3,79.8 234.9,79.7 236.5,79.4 238.1,79.3 239.6,79.1 241.2,79.0 242.8,78.4 244.4,78.1 246.0,77.7 247.6,77.5 249.2,77.4 250.8,77.2 252.4,77.0 253.9,76.7 255.5,76.5 257.1,76.2 258.7,76.0 260.3,75.9 261.9,75.7 263.5,75.5 265.1,75.4 266.6,75.2 268.2,75.0 269.8,74.7 271.4,74.5 273.0,74.4 274.6,74.3 276.2,74.2 277.8,73.9 279.4,73.7 280.9,73.5 282.5,73.2 284.1,73.0 285.7,72.8 287.3,72.7 288.9,72.6 290.5,72.3 292.1,72.0 293.6,71.7 295.2,71.5 296.8,71.1 298.4,71.0 300.0,70.9 301.6,70.8 303.2,70.6 304.8,70.4 306.4,70.2 307.9,70.0 309.5,69.9 311.1,69.7 312.7,69.5 314.3,69.4 315.9,69.3 317.5,69.1 319.1,68.8 320.6,68.7 322.2,68.5 323.8,68.4 325.4,68.2 327.0,68.0 328.6,67.9 330.2,67.8 331.8,67.6 333.4,67.3 334.9,67.0 336.5,66.8 338.1,66.6 339.7,66.5 341.3,66.4 342.9,66.2 344.5,65.9 346.1,65.8 347.6,65.7 349.2,65.5 350.8,65.3 352.4,65.1 354.0,65.0 355.6,64.9 357.2,64.6 358.8,64.4 360.4,64.2 361.9,64.0 363.5,63.9 365.1,63.8 366.7,63.7 368.3,63.5 369.9,63.4 371.5,63.2 373.1,63.0 374.6,62.8 376.2,62.7 377.8,62.6 379.4,62.4 381.0,62.3 382.6,62.1 384.2,61.8 385.8,61.6 387.4,61.5 388.9,61.3 390.5,61.2 392.1,61.1 393.7,61.0 395.3,60.9 396.9,60.8 398.5,60.5 400.1,60.4 401.6,60.2 403.2,60.1 404.8,59.9 406.4,59.8 408.0,59.6 409.6,59.5 411.2,59.3 412.8,59.2 414.4,59.0 415.9,58.8 417.5,58.7 419.1,58.6 420.7,58.5 422.3,58.3 423.9,58.2 425.5,58.1 427.1,57.9 428.6,57.9 430.2,57.7 431.8,57.4 433.4,57.2 435.0,61.9 436.6,61.0 438.2,59.2 439.8,58.5 441.4,57.7 442.9,56.7 444.5,56.1 446.1,55.7 447.7,55.1 449.3,54.0 450.9,53.3 452.5,53.0 454.1,52.6 455.6,52.3 457.2,51.8 458.8,51.3 460.4,50.7 462.0,50.5 463.6,49.9 465.2,49.7 466.8,49.3 468.4,49.1 469.9,48.8 471.5,48.6 473.1,48.0 474.7,47.7 476.3,47.2 477.9,46.6 479.5,46.2 481.1,46.0 482.6,45.8 484.2,45.5 485.8,45.1 487.4,44.7 489.0,44.4 490.6,43.5 492.2,42.7 493.8,42.4 495.4,42.2 496.9,41.9 498.5,41.4 500.1,40.9 501.7,40.6 503.3,40.3 504.9,39.9 506.5,39.6 508.1,39.3 509.6,38.9 511.2,38.6 512.8,38.4 514.4,38.2 516.0,37.8 517.6,37.5 519.2,37.3 520.8,37.1 522.4,36.9 523.9,36.6 525.5,36.5 527.1,36.2 528.7,36.0 530.3,35.8 531.9,35.7 533.5,35.4 535.1,35.2 536.6,34.8 538.2,34.4 539.8,34.1 541.4,33.9 543.0,33.7 544.6,33.6 546.2,33.3 547.8,33.1 549.4,33.0 550.9,32.8 552.5,32.7 554.1,32.5 555.7,32.3 557.3,32.0 558.9,31.9 560.5,31.7 562.1,31.4 563.6,31.1 565.2,30.7 566.8,30.5 568.4,30.2 570.0,30.0 570.0,30.0,120" />
  
  <!-- Linea principale -->
  <polyline fill="none" stroke="#0366d6" stroke-width="2.5" stroke-linecap="round" stroke-linejoin="round" points="30.0,120.0 31.6,119.4 33.2,118.8 34.8,118.3 36.4,118.1 37.9,117.9 39.5,117.2 41.1,116.8 42.7,116.5 44.3,115.8 45.9,115.5 47.5,115.1 49.1,114.9 50.6,114.6 52.2,114.2 53.8,113.7 55.4,113.3 57.0,113.0 58.6,112.9 60.2,112.6 61.8,112.2 63.4,111.9 64.9,111.7 66.5,111.4 68.1,110.4 69.7,110.1 71.3,109.6 72.9,109.2 74.5,108.8 76.1,108.5 77.6,108.3 79.2,108.1 80.8,107.8 82.4,107.3 84.0,106.8 85.6,106.5 87.2,106.2 88.8,106.1 90.4,106.0 91.9,105.8 93.5,105.4 95.1,105.2 96.7,105.1 98.3,104.7 99.9,104.1 101.5,104.0 103.1,103.9 104.6,103.7 106.2,103.2 107.8,102.9 109.4,102.4 111.0,102.1 112.6,101.7 114.2,101.6 115.8,101.3 117.4,100.9 118.9,100.5 120.5,100.2 122.1,100.0 123.7,99.8 125.3,99.6 126.9,99.1 128.5,98.7 130.1,98.3 131.6,97.9 133.2,97.7 134.8,97.6 136.4,97.4 138.0,97.1 139.6,96.8 141.2,96.7 142.8,96.5 144.4,96.4 145.9,96.1 147.5,96.0 149.1,95.9 150.7,95.8 152.3,95.3 153.9,95.1 155.5,95.0 157.1,94.9 158.6,94.8 160.2,94.8 161.8,102.0 163.4,101.3 165.0,100.6 166.6,100.0 168.2,98.0 169.8,96.6 171.4,95.2 172.9,94.6 174.5,94.0 176.1,93.0 177.7,91.9 179.3,91.1 180.9,90.8 182.5,90.5 184.1,89.7 185.6,89.1 187.2,88.7 188.8,88.3 190.4,88.1 192.0,88.0 193.6,87.6 195.2,86.9 196.8,86.4 198.4,85.9 199.9,85.4 201.5,85.1 203.1,84.9 204.7,84.5 206.3,84.1 207.9,83.7 209.5,83.3 211.1,83.2 212.6,83.1 214.2,82.9 215.8,82.5 217.4,82.2 219.0,82.0 220.6,81.8 222.2,81.6 223.8,81.4 225.4,81.2 226.9,81.0 228.5,80.8 230.1,80.4 231.7,80.2 233.3,79.8 234.9,79.7 236.5,79.4 238.1,79.3 239.6,79.1 241.2,79.0 242.8,78.4 244.4,78.1 246.0,77.7 247.6,77.5 249.2,77.4 250.8,77.2 252.4,77.0 253.9,76.7 255.5,76.5 257.1,76.2 258.7,76.0 260.3,75.9 261.9,75.7 263.5,75.5 265.1,75.4 266.6,75.2 268.2,75.0 269.8,74.7 271.4,74.5 273.0,74.4 274.6,74.3 276.2,74.2 277.8,73.9 279.4,73.7 280.9,73.5 282.5,73.2 284.1,73.0 285.7,72.8 287.3,72.7 288.9,72.6 290.5,72.3 292.1,72.0 293.6,71.7 295.2,71.5 296.8,71.1 298.4,71.0 300.0,70.9 301.6,70.8 303.2,70.6 304.8,70.4 306.4,70.2 307.9,70.0 309.5,69.9 311.1,69.7 312.7,69.5 314.3,69.4 315.9,69.3 317.5,69.1 319.1,68.8 320.6,68.7 322.2,68.5 323.8,68.4 325.4,68.2 327.0,68.0 328.6,67.9 330.2,67.8 331.8,67.6 333.4,67.3 334.9,67.0 336.5,66.8 338.1,66.6 339.7,66.5 341.3,66.4 342.9,66.2 344.5,65.9 346.1,65.8 347.6,65.7 349.2,65.5 350.8,65.3 352.4,65.1 354.0,65.0 355.6,64.9 357.2,64.6 358.8,64.4 360.4,64.2 361.9,64.0 363.5,63.9 365.1,63.8 366.7,63.7 368.3,63.5 369.9,63.4 371.5,63.2 373.1,63.0 374.6,62.8 376.2,62.7 377.8,62.6 379.4,62.4 381.0,62.3 382.6,62.1 384.2,61.8 385.8,61.6 387.4,61.5 388.9,61.3 390.5,61.2 392.1,61.1 393.7,61.0 395.3,60.9 396.9,60.8 398.5,60.5 400.1,60.4 401.6,60.2 403.2,60.1 404.8,59.9 406.4,59.8 408.0,59.6 409.6,59.5 411.2,59.3 412.8,59.2 414.4,59.0 415.9,58.8 417.5,58.7 419.1,58.6 420.7,58.5 422.3,58.3 423.9,58.2 425.5,58.1 427.1,57.9 428.6,57.9 430.2,57.7 431.8,57.4 433.4,57.2 435.0,61.9 436.6,61.0 438.2,59.2 439.8,58.5 441.4,57.7 442.9,56.7 444.5,56.1 446.1,55.7 447.7,55.1 449.3,54.0 450.9,53.3 452.5,53.0 454.1,52.6 455.6,52.3 457.2,51.8 458.8,51.3 460.4,50.7 462.0,50.5 463.6,49.9 465.2,49.7 466.8,49.3 468.4,49.1 469.9,48.8 471.5,48.6 473.1,48.0 474.7,47.7 476.3,47.2 477.9,46.6 479.5,46.2 481.1,46.0 482.6,45.8 484.2,45.5 485.8,45.1 487.4,44.7 489.0,44.4 490.6,43.5 492.2,42.7 493.8,42.4 495.4,42.2 496.9,41.9 498.5,41.4 500.1,40.9 501.7,40.6 503.3,40.3 504.9,39.9 506.5,39.6 508.1,39.3 509.6,38.9 511.2,38.6 512.8,38.4 514.4,38.2 516.0,37.8 517.6,37.5 519.2,37.3 520.8,37.1 522.4,36.9 523.9,36.6 525.5,36.5 527.1,36.2 528.7,36.0 530.3,35.8 531.9,35.7 533.5,35.4 535.1,35.2 536.6,34.8 538.2,34.4 539.8,34.1 541.4,33.9 543.0,33.7 544.6,33.6 546.2,33.3 547.8,33.1 549.4,33.0 550.9,32.8 552.5,32.7 554.1,32.5 555.7,32.3 557.3,32.0 558.9,31.9 560.5,31.7 562.1,31.4 563.6,31.1 565.2,30.7 566.8,30.5 568.4,30.2 570.0,30.0" />
  
  <!-- Punto finale luminoso -->
  <circle cx="570.0" cy="30.0" r="4" fill="#ffffff" stroke="#0366d6" stroke-width="2.5" />
</svg>