<svg width="600" height="150" viewBox="0 0 600 150" xmlns="http://www.w3.org/2000/svg">
  <defs>
    <filter id="shadow2" x="-2%" y="-2%" width="104%" height="108%">
      <feDropShadow dx="0" dy="2" stdDeviation="3" flood-opacity="0.1" />
    </filter>
    <linearGradient id="fillGrad" x1="0" y1="0" x2="0" y2="1">
      <stop offset="0%" stop-color="#0366d6" stop-opacity="0.3"/>
      <stop offset="100%" stop-color="#0366d6" stop-opacity="0.02"/>
    </linearGradient>
  </defs>
  <rect width="600" height="150" rx="12" fill="#ffffff" filter="url(#shadow2)" stroke="#e1e4e8" stroke-width="1"/>
  <text x="20" y="24" fill="#2b3137" font-family="-apple-system,BlinkMacSystemFont,'Segoe UI',Helvetica,Arial,sans-serif" font-size="14" font-weight="600">📈 Download Growth (Actual: 75.7k)</text>
  
  <!-- Area sotto la linea -->
  <polygon fill="url(#fillGrad)" points="30.0,120.0,120 30.0,120.0 33.6,118.9 37.3,117.6 40.9,116.5 44.6,116.2 48.2,115.7 51.9,114.4 55.5,113.5 59.2,112.9 62.8,111.5 66.5,110.8 70.1,110.1 73.8,109.7 77.4,109.1 81.1,108.2 84.7,107.2 88.4,106.5 92.0,106.0 95.7,105.6 99.3,105.0 103.0,104.3 106.6,103.6 110.3,103.3 113.9,102.7 117.6,100.6 121.2,99.9 124.9,99.1 128.5,98.2 132.2,97.5 135.8,96.8 139.5,96.3 143.1,96.0 146.8,95.4 150.4,94.3 154.1,93.4 157.7,92.8 161.4,92.1 165.0,91.9 168.6,91.7 172.3,91.3 175.9,90.6 179.6,90.2 183.2,89.9 186.9,89.1 190.5,88.0 194.2,87.7 197.8,87.5 201.5,87.0 205.1,86.1 208.8,85.5 212.4,84.6 216.1,83.9 219.7,83.0 223.4,82.9 227.0,82.3 230.7,81.5 234.3,80.6 238.0,80.0 241.6,79.7 245.3,79.2 248.9,78.8 252.6,77.9 256.2,77.0 259.9,76.2 263.5,75.4 267.2,75.0 270.8,74.7 274.5,74.4 278.1,73.7 281.8,73.3 285.4,72.9 289.1,72.6 292.7,72.3 296.4,71.8 300.0,71.5 303.6,71.3 307.3,71.1 310.9,70.2 314.6,69.7 318.2,69.6 321.9,69.3 325.5,69.1 329.2,69.1 332.8,83.6 336.5,82.2 340.1,80.9 343.8,79.6 347.4,75.6 351.1,72.8 354.7,69.9 358.4,68.8 362.0,67.5 365.7,65.5 369.3,63.2 373.0,61.6 376.6,61.0 380.3,60.4 383.9,58.8 387.6,57.7 391.2,56.9 394.9,56.0 398.5,55.6 402.2,55.4 405.8,54.6 409.5,53.2 413.1,52.3 416.8,51.3 420.4,50.2 424.1,49.7 427.7,49.3 431.4,48.3 435.0,47.5 438.6,46.7 442.3,46.0 445.9,45.7 449.6,45.5 453.2,45.0 456.9,44.3 460.5,43.8 464.2,43.3 467.8,42.9 471.5,42.4 475.1,42.0 478.8,41.6 482.4,41.3 486.1,40.9 489.7,40.2 493.4,39.6 497.0,39.0 500.7,38.6 504.3,38.2 508.0,37.9 511.6,37.5 515.3,37.2 518.9,36.1 522.6,35.4 526.2,34.6 529.9,34.2 533.5,34.1 537.2,33.7 540.8,33.3 544.5,32.7 548.1,32.2 551.8,31.5 555.4,31.1 559.1,30.9 562.7,30.6 566.4,30.3 570.0,30.0 570.0,30.0,120" />
  
  <!-- Linea principale -->
  <polyline fill="none" stroke="#0366d6" stroke-width="2.5" stroke-linecap="round" stroke-linejoin="round" points="30.0,120.0 33.6,118.9 37.3,117.6 40.9,116.5 44.6,116.2 48.2,115.7 51.9,114.4 55.5,113.5 59.2,112.9 62.8,111.5 66.5,110.8 70.1,110.1 73.8,109.7 77.4,109.1 81.1,108.2 84.7,107.2 88.4,106.5 92.0,106.0 95.7,105.6 99.3,105.0 103.0,104.3 106.6,103.6 110.3,103.3 113.9,102.7 117.6,100.6 121.2,99.9 124.9,99.1 128.5,98.2 132.2,97.5 135.8,96.8 139.5,96.3 143.1,96.0 146.8,95.4 150.4,94.3 154.1,93.4 157.7,92.8 161.4,92.1 165.0,91.9 168.6,91.7 172.3,91.3 175.9,90.6 179.6,90.2 183.2,89.9 186.9,89.1 190.5,88.0 194.2,87.7 197.8,87.5 201.5,87.0 205.1,86.1 208.8,85.5 212.4,84.6 216.1,83.9 219.7,83.0 223.4,82.9 227.0,82.3 230.7,81.5 234.3,80.6 238.0,80.0 241.6,79.7 245.3,79.2 248.9,78.8 252.6,77.9 256.2,77.0 259.9,76.2 263.5,75.4 267.2,75.0 270.8,74.7 274.5,74.4 278.1,73.7 281.8,73.3 285.4,72.9 289.1,72.6 292.7,72.3 296.4,71.8 300.0,71.5 303.6,71.3 307.3,71.1 310.9,70.2 314.6,69.7 318.2,69.6 321.9,69.3 325.5,69.1 329.2,69.1 332.8,83.6 336.5,82.2 340.1,80.9 343.8,79.6 347.4,75.6 351.1,72.8 354.7,69.9 358.4,68.8 362.0,67.5 365.7,65.5 369.3,63.2 373.0,61.6 376.6,61.0 380.3,60.4 383.9,58.8 387.6,57.7 391.2,56.9 394.9,56.0 398.5,55.6 402.2,55.4 405.8,54.6 409.5,53.2 413.1,52.3 416.8,51.3 420.4,50.2 424.1,49.7 427.7,49.3 431.4,48.3 435.0,47.5 438.6,46.7 442.3,46.0 445.9,45.7 449.6,45.5 453.2,45.0 456.9,44.3 460.5,43.8 464.2,43.3 467.8,42.9 471.5,42.4 475.1,42.0 478.8,41.6 482.4,41.3 486.1,40.9 489.7,40.2 493.4,39.6 497.0,39.0 500.7,38.6 504.3,38.2 508.0,37.9 511.6,37.5 515.3,37.2 518.9,36.1 522.6,35.4 526.2,34.6 529.9,34.2 533.5,34.1 537.2,33.7 540.8,33.3 544.5,32.7 548.1,32.2 551.8,31.5 555.4,31.1 559.1,30.9 562.7,30.6 566.4,30.3 570.0,30.0" />
  
  <!-- Punto finale luminoso -->
  <circle cx="570.0" cy="30.0" r="4" fill="#ffffff" stroke="#0366d6" stroke-width="2.5" />
</svg>