<svg width="600" height="150" viewBox="0 0 600 150" xmlns="http://www.w3.org/2000/svg">
  <defs>
    <filter id="shadow2" x="-2%" y="-2%" width="104%" height="108%">
      <feDropShadow dx="0" dy="2" stdDeviation="3" flood-opacity="0.1" />
    </filter>
    <linearGradient id="fillGrad" x1="0" y1="0" x2="0" y2="1">
      <stop offset="0%" stop-color="#0366d6" stop-opacity="0.3"/>
      <stop offset="100%" stop-color="#0366d6" stop-opacity="0.02"/>
    </linearGradient>
  </defs>
  <rect width="600" height="150" rx="12" fill="#ffffff" filter="url(#shadow2)" stroke="#e1e4e8" stroke-width="1"/>
  <text x="20" y="24" fill="#2b3137" font-family="-apple-system,BlinkMacSystemFont,'Segoe UI',Helvetica,Arial,sans-serif" font-size="14" font-weight="600">📈 Download Growth (Actual: 85.9k)</text>
  
  <!-- Area sotto la linea -->
  <polygon fill="url(#fillGrad)" points="30.0,120.0,120 30.0,120.0 31.5,119.5 32.9,118.9 34.4,118.4 35.9,118.3 37.3,118.0 38.8,117.4 40.2,117.0 41.7,116.7 43.2,116.1 44.6,115.7 46.1,115.4 47.6,115.2 49.0,114.9 50.5,114.5 52.0,114.1 53.4,113.7 54.9,113.5 56.3,113.3 57.8,113.0 59.3,112.7 60.7,112.4 62.2,112.3 63.7,112.0 65.1,111.0 66.6,110.7 68.0,110.3 69.5,109.9 71.0,109.5 72.4,109.2 73.9,109.0 75.4,108.8 76.8,108.6 78.3,108.1 79.8,107.7 81.2,107.4 82.7,107.0 84.1,106.9 85.6,106.9 87.1,106.7 88.5,106.4 90.0,106.2 91.5,106.0 92.9,105.7 94.4,105.1 95.9,105.0 97.3,104.9 98.8,104.7 100.2,104.3 101.7,104.0 103.2,103.5 104.6,103.2 106.1,102.8 107.6,102.7 109.0,102.5 110.5,102.1 112.0,101.7 113.4,101.4 114.9,101.3 116.3,101.1 117.8,100.9 119.3,100.4 120.7,100.0 122.2,99.6 123.7,99.3 125.1,99.1 126.6,99.0 128.0,98.8 129.5,98.5 131.0,98.3 132.4,98.1 133.9,98.0 135.4,97.8 136.8,97.6 138.3,97.5 139.8,97.4 141.2,97.3 142.7,96.9 144.1,96.7 145.6,96.6 147.1,96.4 148.5,96.4 150.0,96.4 151.5,103.1 152.9,102.4 154.4,101.9 155.9,101.2 157.3,99.4 158.8,98.1 160.2,96.7 161.7,96.2 163.2,95.6 164.6,94.7 166.1,93.6 167.6,92.9 169.0,92.6 170.5,92.3 172.0,91.6 173.4,91.0 174.9,90.7 176.3,90.3 177.8,90.1 179.3,90.0 180.7,89.6 182.2,89.0 183.7,88.5 185.1,88.1 186.6,87.6 188.0,87.3 189.5,87.2 191.0,86.7 192.4,86.3 193.9,86.0 195.4,85.7 196.8,85.5 198.3,85.4 199.8,85.2 201.2,84.9 202.7,84.6 204.1,84.4 205.6,84.2 207.1,84.0 208.5,83.8 210.0,83.6 211.5,83.5 212.9,83.3 214.4,82.9 215.9,82.7 217.3,82.4 218.8,82.2 220.2,82.0 221.7,81.9 223.2,81.7 224.6,81.5 226.1,81.1 227.6,80.7 229.0,80.3 230.5,80.2 232.0,80.1 233.4,79.9 234.9,79.7 236.3,79.5 237.8,79.2 239.3,78.9 240.7,78.7 242.2,78.6 243.7,78.5 245.1,78.3 246.6,78.2 248.0,78.0 249.5,77.8 251.0,77.5 252.4,77.4 253.9,77.3 255.4,77.2 256.8,77.1 258.3,76.8 259.8,76.6 261.2,76.4 262.7,76.2 264.1,76.0 265.6,75.8 267.1,75.7 268.5,75.6 270.0,75.3 271.5,75.0 272.9,74.8 274.4,74.6 275.9,74.2 277.3,74.1 278.8,74.0 280.2,73.9 281.7,73.7 283.2,73.5 284.6,73.3 286.1,73.2 287.6,73.0 289.0,72.9 290.5,72.7 292.0,72.6 293.4,72.5 294.9,72.3 296.3,72.0 297.8,71.9 299.3,71.7 300.7,71.6 302.2,71.5 303.7,71.3 305.1,71.2 306.6,71.1 308.0,70.9 309.5,70.6 311.0,70.3 312.4,70.1 313.9,69.9 315.4,69.9 316.8,69.8 318.3,69.6 319.8,69.3 321.2,69.2 322.7,69.1 324.1,68.9 325.6,68.7 327.1,68.6 328.5,68.4 330.0,68.3 331.5,68.1 332.9,67.9 334.4,67.7 335.9,67.5 337.3,67.4 338.8,67.3 340.2,67.3 341.7,67.1 343.2,66.9 344.6,66.8 346.1,66.6 347.6,66.4 349.0,66.3 350.5,66.2 352.0,66.1 353.4,65.9 354.9,65.7 356.3,65.5 357.8,65.3 359.3,65.1 360.7,65.0 362.2,64.9 363.7,64.8 365.1,64.7 366.6,64.6 368.0,64.5 369.5,64.2 371.0,64.1 372.4,64.0 373.9,63.9 375.4,63.7 376.8,63.6 378.3,63.4 379.8,63.3 381.2,63.1 382.7,63.0 384.1,62.8 385.6,62.7 387.1,62.5 388.5,62.4 390.0,62.3 391.5,62.2 392.9,62.1 394.4,62.0 395.9,61.8 397.3,61.8 398.8,61.7 400.2,61.3 401.7,61.1 403.2,65.5 404.6,64.7 406.1,63.0 407.6,62.4 409.0,61.6 410.5,60.6 412.0,60.1 413.4,59.8 414.9,59.1 416.3,58.2 417.8,57.5 419.3,57.2 420.7,56.9 422.2,56.6 423.7,56.1 425.1,55.6 426.6,55.1 428.0,54.8 429.5,54.3 431.0,54.1 432.4,53.8 433.9,53.5 435.4,53.3 436.8,53.1 438.3,52.6 439.8,52.2 441.2,51.8 442.7,51.2 444.1,50.8 445.6,50.6 447.1,50.5 448.5,50.2 450.0,49.8 451.5,49.5 452.9,49.2 454.4,48.3 455.9,47.6 457.3,47.3 458.8,47.1 460.2,46.8 461.7,46.3 463.2,45.9 464.6,45.6 466.1,45.3 467.6,45.0 469.0,44.7 470.5,44.4 472.0,44.0 473.4,43.7 474.9,43.6 476.3,43.4 477.8,43.0 479.3,42.7 480.7,42.5 482.2,42.3 483.7,42.1 485.1,41.9 486.6,41.7 488.0,41.5 489.5,41.3 491.0,41.1 492.4,41.0 493.9,40.7 495.4,40.5 496.8,40.2 498.3,39.8 499.8,39.5 501.2,39.3 502.7,39.1 504.1,39.0 505.6,38.8 507.1,38.6 508.5,38.4 510.0,38.3 511.5,38.2 512.9,38.0 514.4,37.9 515.9,37.5 517.3,37.4 518.8,37.2 520.2,37.0 521.7,36.7 523.2,36.3 524.6,36.1 526.1,35.9 527.6,35.7 529.0,35.4 530.5,35.2 532.0,34.9 533.4,34.7 534.9,34.6 536.3,34.5 537.8,34.3 539.3,34.0 540.7,33.8 542.2,33.7 543.7,33.5 545.1,33.2 546.6,33.0 548.0,32.8 549.5,32.6 551.0,32.3 552.4,32.0 553.9,31.9 555.4,31.7 556.8,31.5 558.3,31.4 559.8,31.2 561.2,31.0 562.7,30.8 564.1,30.6 565.6,30.5 567.1,30.3 568.5,30.1 570.0,30.0 570.0,30.0,120" />
  
  <!-- Linea principale -->
  <polyline fill="none" stroke="#0366d6" stroke-width="2.5" stroke-linecap="round" stroke-linejoin="round" points="30.0,120.0 31.5,119.5 32.9,118.9 34.4,118.4 35.9,118.3 37.3,118.0 38.8,117.4 40.2,117.0 41.7,116.7 43.2,116.1 44.6,115.7 46.1,115.4 47.6,115.2 49.0,114.9 50.5,114.5 52.0,114.1 53.4,113.7 54.9,113.5 56.3,113.3 57.8,113.0 59.3,112.7 60.7,112.4 62.2,112.3 63.7,112.0 65.1,111.0 66.6,110.7 68.0,110.3 69.5,109.9 71.0,109.5 72.4,109.2 73.9,109.0 75.4,108.8 76.8,108.6 78.3,108.1 79.8,107.7 81.2,107.4 82.7,107.0 84.1,106.9 85.6,106.9 87.1,106.7 88.5,106.4 90.0,106.2 91.5,106.0 92.9,105.7 94.4,105.1 95.9,105.0 97.3,104.9 98.8,104.7 100.2,104.3 101.7,104.0 103.2,103.5 104.6,103.2 106.1,102.8 107.6,102.7 109.0,102.5 110.5,102.1 112.0,101.7 113.4,101.4 114.9,101.3 116.3,101.1 117.8,100.9 119.3,100.4 120.7,100.0 122.2,99.6 123.7,99.3 125.1,99.1 126.6,99.0 128.0,98.8 129.5,98.5 131.0,98.3 132.4,98.1 133.9,98.0 135.4,97.8 136.8,97.6 138.3,97.5 139.8,97.4 141.2,97.3 142.7,96.9 144.1,96.7 145.6,96.6 147.1,96.4 148.5,96.4 150.0,96.4 151.5,103.1 152.9,102.4 154.4,101.9 155.9,101.2 157.3,99.4 158.8,98.1 160.2,96.7 161.7,96.2 163.2,95.6 164.6,94.7 166.1,93.6 167.6,92.9 169.0,92.6 170.5,92.3 172.0,91.6 173.4,91.0 174.9,90.7 176.3,90.3 177.8,90.1 179.3,90.0 180.7,89.6 182.2,89.0 183.7,88.5 185.1,88.1 186.6,87.6 188.0,87.3 189.5,87.2 191.0,86.7 192.4,86.3 193.9,86.0 195.4,85.7 196.8,85.5 198.3,85.4 199.8,85.2 201.2,84.9 202.7,84.6 204.1,84.4 205.6,84.2 207.1,84.0 208.5,83.8 210.0,83.6 211.5,83.5 212.9,83.3 214.4,82.9 215.9,82.7 217.3,82.4 218.8,82.2 220.2,82.0 221.7,81.9 223.2,81.7 224.6,81.5 226.1,81.1 227.6,80.7 229.0,80.3 230.5,80.2 232.0,80.1 233.4,79.9 234.9,79.7 236.3,79.5 237.8,79.2 239.3,78.9 240.7,78.7 242.2,78.6 243.7,78.5 245.1,78.3 246.6,78.2 248.0,78.0 249.5,77.8 251.0,77.5 252.4,77.4 253.9,77.3 255.4,77.2 256.8,77.1 258.3,76.8 259.8,76.6 261.2,76.4 262.7,76.2 264.1,76.0 265.6,75.8 267.1,75.7 268.5,75.6 270.0,75.3 271.5,75.0 272.9,74.8 274.4,74.6 275.9,74.2 277.3,74.1 278.8,74.0 280.2,73.9 281.7,73.7 283.2,73.5 284.6,73.3 286.1,73.2 287.6,73.0 289.0,72.9 290.5,72.7 292.0,72.6 293.4,72.5 294.9,72.3 296.3,72.0 297.8,71.9 299.3,71.7 300.7,71.6 302.2,71.5 303.7,71.3 305.1,71.2 306.6,71.1 308.0,70.9 309.5,70.6 311.0,70.3 312.4,70.1 313.9,69.9 315.4,69.9 316.8,69.8 318.3,69.6 319.8,69.3 321.2,69.2 322.7,69.1 324.1,68.9 325.6,68.7 327.1,68.6 328.5,68.4 330.0,68.3 331.5,68.1 332.9,67.9 334.4,67.7 335.9,67.5 337.3,67.4 338.8,67.3 340.2,67.3 341.7,67.1 343.2,66.9 344.6,66.8 346.1,66.6 347.6,66.4 349.0,66.3 350.5,66.2 352.0,66.1 353.4,65.9 354.9,65.7 356.3,65.5 357.8,65.3 359.3,65.1 360.7,65.0 362.2,64.9 363.7,64.8 365.1,64.7 366.6,64.6 368.0,64.5 369.5,64.2 371.0,64.1 372.4,64.0 373.9,63.9 375.4,63.7 376.8,63.6 378.3,63.4 379.8,63.3 381.2,63.1 382.7,63.0 384.1,62.8 385.6,62.7 387.1,62.5 388.5,62.4 390.0,62.3 391.5,62.2 392.9,62.1 394.4,62.0 395.9,61.8 397.3,61.8 398.8,61.7 400.2,61.3 401.7,61.1 403.2,65.5 404.6,64.7 406.1,63.0 407.6,62.4 409.0,61.6 410.5,60.6 412.0,60.1 413.4,59.8 414.9,59.1 416.3,58.2 417.8,57.5 419.3,57.2 420.7,56.9 422.2,56.6 423.7,56.1 425.1,55.6 426.6,55.1 428.0,54.8 429.5,54.3 431.0,54.1 432.4,53.8 433.9,53.5 435.4,53.3 436.8,53.1 438.3,52.6 439.8,52.2 441.2,51.8 442.7,51.2 444.1,50.8 445.6,50.6 447.1,50.5 448.5,50.2 450.0,49.8 451.5,49.5 452.9,49.2 454.4,48.3 455.9,47.6 457.3,47.3 458.8,47.1 460.2,46.8 461.7,46.3 463.2,45.9 464.6,45.6 466.1,45.3 467.6,45.0 469.0,44.7 470.5,44.4 472.0,44.0 473.4,43.7 474.9,43.6 476.3,43.4 477.8,43.0 479.3,42.7 480.7,42.5 482.2,42.3 483.7,42.1 485.1,41.9 486.6,41.7 488.0,41.5 489.5,41.3 491.0,41.1 492.4,41.0 493.9,40.7 495.4,40.5 496.8,40.2 498.3,39.8 499.8,39.5 501.2,39.3 502.7,39.1 504.1,39.0 505.6,38.8 507.1,38.6 508.5,38.4 510.0,38.3 511.5,38.2 512.9,38.0 514.4,37.9 515.9,37.5 517.3,37.4 518.8,37.2 520.2,37.0 521.7,36.7 523.2,36.3 524.6,36.1 526.1,35.9 527.6,35.7 529.0,35.4 530.5,35.2 532.0,34.9 533.4,34.7 534.9,34.6 536.3,34.5 537.8,34.3 539.3,34.0 540.7,33.8 542.2,33.7 543.7,33.5 545.1,33.2 546.6,33.0 548.0,32.8 549.5,32.6 551.0,32.3 552.4,32.0 553.9,31.9 555.4,31.7 556.8,31.5 558.3,31.4 559.8,31.2 561.2,31.0 562.7,30.8 564.1,30.6 565.6,30.5 567.1,30.3 568.5,30.1 570.0,30.0" />
  
  <!-- Punto finale luminoso -->
  <circle cx="570.0" cy="30.0" r="4" fill="#ffffff" stroke="#0366d6" stroke-width="2.5" />
</svg>