<svg width="600" height="150" viewBox="0 0 600 150" xmlns="http://www.w3.org/2000/svg">
  <defs>
    <filter id="shadow2" x="-2%" y="-2%" width="104%" height="108%">
      <feDropShadow dx="0" dy="2" stdDeviation="3" flood-opacity="0.1" />
    </filter>
    <linearGradient id="fillGrad" x1="0" y1="0" x2="0" y2="1">
      <stop offset="0%" stop-color="#0366d6" stop-opacity="0.3"/>
      <stop offset="100%" stop-color="#0366d6" stop-opacity="0.02"/>
    </linearGradient>
  </defs>
  <rect width="600" height="150" rx="12" fill="#ffffff" filter="url(#shadow2)" stroke="#e1e4e8" stroke-width="1"/>
  <text x="20" y="24" fill="#2b3137" font-family="-apple-system,BlinkMacSystemFont,'Segoe UI',Helvetica,Arial,sans-serif" font-size="14" font-weight="600">📈 Download Growth (Actual: 73.7k)</text>
  
  <!-- Area sotto la linea -->
  <polygon fill="url(#fillGrad)" points="30.0,120.0,120 30.0,120.0 35.0,118.5 40.1,116.9 45.1,115.5 50.2,115.2 55.2,114.4 60.3,112.7 65.3,111.6 70.4,110.8 75.4,109.1 80.5,108.2 85.5,107.3 90.6,106.8 95.6,106.0 100.7,104.8 105.7,103.5 110.7,102.6 115.8,101.9 120.8,101.5 125.9,100.7 130.9,99.7 136.0,98.9 141.0,98.5 146.1,97.7 151.1,95.0 156.2,94.1 161.2,93.0 166.3,92.0 171.3,91.0 176.4,90.1 181.4,89.5 186.4,89.0 191.5,88.2 196.5,86.9 201.6,85.7 206.6,84.9 211.7,84.0 216.7,83.7 221.8,83.5 226.8,83.0 231.9,82.1 236.9,81.6 242.0,81.2 247.0,80.2 252.1,78.7 257.1,78.4 262.1,78.1 267.2,77.5 272.2,76.3 277.3,75.5 282.3,74.3 287.4,73.4 292.4,72.3 297.5,72.1 302.5,71.5 307.6,70.4 312.6,69.2 317.7,68.4 322.7,68.0 327.8,67.4 332.8,66.9 337.9,65.7 342.9,64.5 347.9,63.5 353.0,62.5 358.0,61.9 363.1,61.6 368.1,61.2 373.2,60.3 378.2,59.8 383.3,59.3 388.3,58.9 393.4,58.5 398.4,57.9 403.5,57.5 408.5,57.2 413.6,57.0 418.6,55.8 423.6,55.2 428.7,55.0 433.7,54.6 438.8,54.4 443.8,54.4 448.9,73.1 453.9,71.3 459.0,69.6 464.0,67.9 469.1,62.8 474.1,59.2 479.2,55.4 484.2,53.9 489.3,52.3 494.3,49.7 499.3,46.8 504.4,44.7 509.4,44.0 514.5,43.2 519.5,41.1 524.6,39.6 529.6,38.7 534.7,37.5 539.7,37.0 544.8,36.8 549.8,35.7 554.9,33.9 559.9,32.7 565.0,31.4 570.0,30.0 570.0,30.0,120" />
  
  <!-- Linea principale -->
  <polyline fill="none" stroke="#0366d6" stroke-width="2.5" stroke-linecap="round" stroke-linejoin="round" points="30.0,120.0 35.0,118.5 40.1,116.9 45.1,115.5 50.2,115.2 55.2,114.4 60.3,112.7 65.3,111.6 70.4,110.8 75.4,109.1 80.5,108.2 85.5,107.3 90.6,106.8 95.6,106.0 100.7,104.8 105.7,103.5 110.7,102.6 115.8,101.9 120.8,101.5 125.9,100.7 130.9,99.7 136.0,98.9 141.0,98.5 146.1,97.7 151.1,95.0 156.2,94.1 161.2,93.0 166.3,92.0 171.3,91.0 176.4,90.1 181.4,89.5 186.4,89.0 191.5,88.2 196.5,86.9 201.6,85.7 206.6,84.9 211.7,84.0 216.7,83.7 221.8,83.5 226.8,83.0 231.9,82.1 236.9,81.6 242.0,81.2 247.0,80.2 252.1,78.7 257.1,78.4 262.1,78.1 267.2,77.5 272.2,76.3 277.3,75.5 282.3,74.3 287.4,73.4 292.4,72.3 297.5,72.1 302.5,71.5 307.6,70.4 312.6,69.2 317.7,68.4 322.7,68.0 327.8,67.4 332.8,66.9 337.9,65.7 342.9,64.5 347.9,63.5 353.0,62.5 358.0,61.9 363.1,61.6 368.1,61.2 373.2,60.3 378.2,59.8 383.3,59.3 388.3,58.9 393.4,58.5 398.4,57.9 403.5,57.5 408.5,57.2 413.6,57.0 418.6,55.8 423.6,55.2 428.7,55.0 433.7,54.6 438.8,54.4 443.8,54.4 448.9,73.1 453.9,71.3 459.0,69.6 464.0,67.9 469.1,62.8 474.1,59.2 479.2,55.4 484.2,53.9 489.3,52.3 494.3,49.7 499.3,46.8 504.4,44.7 509.4,44.0 514.5,43.2 519.5,41.1 524.6,39.6 529.6,38.7 534.7,37.5 539.7,37.0 544.8,36.8 549.8,35.7 554.9,33.9 559.9,32.7 565.0,31.4 570.0,30.0" />
  
  <!-- Punto finale luminoso -->
  <circle cx="570.0" cy="30.0" r="4" fill="#ffffff" stroke="#0366d6" stroke-width="2.5" />
</svg>