<svg width="600" height="150" viewBox="0 0 600 150" xmlns="http://www.w3.org/2000/svg">
  <defs>
    <filter id="shadow2" x="-2%" y="-2%" width="104%" height="108%">
      <feDropShadow dx="0" dy="2" stdDeviation="3" flood-opacity="0.1" />
    </filter>
    <linearGradient id="fillGrad" x1="0" y1="0" x2="0" y2="1">
      <stop offset="0%" stop-color="#0366d6" stop-opacity="0.3"/>
      <stop offset="100%" stop-color="#0366d6" stop-opacity="0.02"/>
    </linearGradient>
  </defs>
  <rect width="600" height="150" rx="12" fill="#ffffff" filter="url(#shadow2)" stroke="#e1e4e8" stroke-width="1"/>
  <text x="20" y="24" fill="#2b3137" font-family="-apple-system,BlinkMacSystemFont,'Segoe UI',Helvetica,Arial,sans-serif" font-size="14" font-weight="600">📈 Download Growth (Actual: 81.2k)</text>
  
  <!-- Area sotto la linea -->
  <polygon fill="url(#fillGrad)" points="30.0,120.0,120 30.0,120.0 31.9,119.3 33.9,118.5 35.8,117.9 37.7,117.7 39.6,117.3 41.6,116.5 43.5,116.0 45.4,115.6 47.4,114.8 49.3,114.3 51.2,113.9 53.1,113.7 55.1,113.3 57.0,112.7 58.9,112.1 60.9,111.7 62.8,111.3 64.7,111.1 66.6,110.7 68.6,110.3 70.5,109.9 72.4,109.7 74.4,109.3 76.3,108.0 78.2,107.6 80.1,107.1 82.1,106.6 84.0,106.1 85.9,105.7 87.9,105.4 89.8,105.2 91.7,104.8 93.6,104.2 95.6,103.6 97.5,103.2 99.4,102.8 101.4,102.6 103.3,102.5 105.2,102.3 107.1,101.9 109.1,101.6 111.0,101.4 112.9,101.0 114.9,100.2 116.8,100.1 118.7,99.9 120.6,99.7 122.6,99.1 124.5,98.7 126.4,98.1 128.4,97.7 130.3,97.2 132.2,97.1 134.1,96.8 136.1,96.2 138.0,95.7 139.9,95.3 141.9,95.1 143.8,94.8 145.7,94.6 147.6,94.0 149.6,93.5 151.5,93.0 153.4,92.5 155.4,92.2 157.3,92.1 159.2,91.9 161.1,91.5 163.1,91.2 165.0,90.9 166.9,90.8 168.9,90.6 170.8,90.3 172.7,90.1 174.6,90.0 176.6,89.8 178.5,89.3 180.4,89.0 182.4,88.9 184.3,88.7 186.2,88.6 188.1,88.6 190.1,97.6 192.0,96.7 193.9,95.9 195.9,95.1 197.8,92.6 199.7,90.9 201.6,89.1 203.6,88.4 205.5,87.6 207.4,86.4 209.4,85.0 211.3,84.0 213.2,83.6 215.1,83.2 217.1,82.3 219.0,81.5 220.9,81.1 222.9,80.5 224.8,80.3 226.7,80.2 228.6,79.6 230.6,78.8 232.5,78.2 234.4,77.6 236.4,76.9 238.3,76.6 240.2,76.4 242.1,75.8 244.1,75.3 246.0,74.8 247.9,74.4 249.9,74.2 251.8,74.1 253.7,73.8 255.6,73.3 257.6,73.0 259.5,72.7 261.4,72.4 263.4,72.1 265.3,71.9 267.2,71.7 269.1,71.5 271.1,71.2 273.0,70.8 274.9,70.4 276.9,70.0 278.8,69.8 280.7,69.5 282.6,69.3 284.6,69.1 286.5,68.9 288.4,68.3 290.4,67.8 292.3,67.3 294.2,67.1 296.1,67.0 298.1,66.8 300.0,66.5 301.9,66.1 303.9,65.8 305.8,65.4 307.7,65.2 309.6,65.0 311.6,64.8 313.5,64.7 315.4,64.5 317.4,64.2 319.3,64.0 321.2,63.6 323.1,63.4 325.1,63.3 327.0,63.1 328.9,63.0 330.9,62.6 332.8,62.4 334.7,62.1 336.6,61.8 338.6,61.5 340.5,61.3 342.4,61.2 344.4,61.0 346.3,60.6 348.2,60.2 350.1,59.9 352.1,59.6 354.0,59.2 355.9,59.0 357.9,58.9 359.8,58.8 361.7,58.5 363.6,58.3 365.6,58.0 367.5,57.8 369.4,57.6 371.4,57.4 373.3,57.2 375.2,57.0 377.1,56.9 379.1,56.7 381.0,56.3 382.9,56.1 384.9,55.9 386.8,55.7 388.7,55.5 390.6,55.3 392.6,55.2 394.5,55.0 396.4,54.8 398.4,54.4 400.3,54.0 402.2,53.7 404.1,53.5 406.1,53.4 408.0,53.3 409.9,53.1 411.9,52.7 413.8,52.5 415.7,52.4 417.6,52.1 419.6,51.9 421.5,51.7 423.4,51.5 425.4,51.4 427.3,51.0 429.2,50.8 431.1,50.5 433.1,50.2 435.0,50.1 436.9,50.0 438.9,49.9 440.8,49.7 442.7,49.5 444.6,49.3 446.6,49.1 448.5,48.8 450.4,48.7 452.4,48.5 454.3,48.3 456.2,48.2 458.1,47.9 460.1,47.6 462.0,47.4 463.9,47.1 465.9,47.0 467.8,46.8 469.7,46.7 471.6,46.6 473.6,46.5 475.5,46.3 477.4,45.9 479.4,45.8 481.3,45.5 483.2,45.4 485.1,45.2 487.1,45.0 489.0,44.8 490.9,44.6 492.9,44.5 494.8,44.3 496.7,44.1 498.6,43.9 500.6,43.6 502.5,43.5 504.4,43.4 506.4,43.2 508.3,43.1 510.2,42.9 512.1,42.7 514.1,42.7 516.0,42.5 517.9,42.1 519.9,41.8 521.8,47.7 523.7,46.5 525.6,44.3 527.6,43.4 529.5,42.4 531.4,41.2 533.4,40.5 535.3,40.0 537.2,39.2 539.1,37.9 541.1,36.9 543.0,36.6 544.9,36.2 546.9,35.8 548.8,35.1 550.7,34.5 552.6,33.8 554.6,33.4 556.5,32.8 558.4,32.5 560.4,32.0 562.3,31.7 564.2,31.4 566.1,31.1 568.1,30.4 570.0,30.0 570.0,30.0,120" />
  
  <!-- Linea principale -->
  <polyline fill="none" stroke="#0366d6" stroke-width="2.5" stroke-linecap="round" stroke-linejoin="round" points="30.0,120.0 31.9,119.3 33.9,118.5 35.8,117.9 37.7,117.7 39.6,117.3 41.6,116.5 43.5,116.0 45.4,115.6 47.4,114.8 49.3,114.3 51.2,113.9 53.1,113.7 55.1,113.3 57.0,112.7 58.9,112.1 60.9,111.7 62.8,111.3 64.7,111.1 66.6,110.7 68.6,110.3 70.5,109.9 72.4,109.7 74.4,109.3 76.3,108.0 78.2,107.6 80.1,107.1 82.1,106.6 84.0,106.1 85.9,105.7 87.9,105.4 89.8,105.2 91.7,104.8 93.6,104.2 95.6,103.6 97.5,103.2 99.4,102.8 101.4,102.6 103.3,102.5 105.2,102.3 107.1,101.9 109.1,101.6 111.0,101.4 112.9,101.0 114.9,100.2 116.8,100.1 118.7,99.9 120.6,99.7 122.6,99.1 124.5,98.7 126.4,98.1 128.4,97.7 130.3,97.2 132.2,97.1 134.1,96.8 136.1,96.2 138.0,95.7 139.9,95.3 141.9,95.1 143.8,94.8 145.7,94.6 147.6,94.0 149.6,93.5 151.5,93.0 153.4,92.5 155.4,92.2 157.3,92.1 159.2,91.9 161.1,91.5 163.1,91.2 165.0,90.9 166.9,90.8 168.9,90.6 170.8,90.3 172.7,90.1 174.6,90.0 176.6,89.8 178.5,89.3 180.4,89.0 182.4,88.9 184.3,88.7 186.2,88.6 188.1,88.6 190.1,97.6 192.0,96.7 193.9,95.9 195.9,95.1 197.8,92.6 199.7,90.9 201.6,89.1 203.6,88.4 205.5,87.6 207.4,86.4 209.4,85.0 211.3,84.0 213.2,83.6 215.1,83.2 217.1,82.3 219.0,81.5 220.9,81.1 222.9,80.5 224.8,80.3 226.7,80.2 228.6,79.6 230.6,78.8 232.5,78.2 234.4,77.6 236.4,76.9 238.3,76.6 240.2,76.4 242.1,75.8 244.1,75.3 246.0,74.8 247.9,74.4 249.9,74.2 251.8,74.1 253.7,73.8 255.6,73.3 257.6,73.0 259.5,72.7 261.4,72.4 263.4,72.1 265.3,71.9 267.2,71.7 269.1,71.5 271.1,71.2 273.0,70.8 274.9,70.4 276.9,70.0 278.8,69.8 280.7,69.5 282.6,69.3 284.6,69.1 286.5,68.9 288.4,68.3 290.4,67.8 292.3,67.3 294.2,67.1 296.1,67.0 298.1,66.8 300.0,66.5 301.9,66.1 303.9,65.8 305.8,65.4 307.7,65.2 309.6,65.0 311.6,64.8 313.5,64.7 315.4,64.5 317.4,64.2 319.3,64.0 321.2,63.6 323.1,63.4 325.1,63.3 327.0,63.1 328.9,63.0 330.9,62.6 332.8,62.4 334.7,62.1 336.6,61.8 338.6,61.5 340.5,61.3 342.4,61.2 344.4,61.0 346.3,60.6 348.2,60.2 350.1,59.9 352.1,59.6 354.0,59.2 355.9,59.0 357.9,58.9 359.8,58.8 361.7,58.5 363.6,58.3 365.6,58.0 367.5,57.8 369.4,57.6 371.4,57.4 373.3,57.2 375.2,57.0 377.1,56.9 379.1,56.7 381.0,56.3 382.9,56.1 384.9,55.9 386.8,55.7 388.7,55.5 390.6,55.3 392.6,55.2 394.5,55.0 396.4,54.8 398.4,54.4 400.3,54.0 402.2,53.7 404.1,53.5 406.1,53.4 408.0,53.3 409.9,53.1 411.9,52.7 413.8,52.5 415.7,52.4 417.6,52.1 419.6,51.9 421.5,51.7 423.4,51.5 425.4,51.4 427.3,51.0 429.2,50.8 431.1,50.5 433.1,50.2 435.0,50.1 436.9,50.0 438.9,49.9 440.8,49.7 442.7,49.5 444.6,49.3 446.6,49.1 448.5,48.8 450.4,48.7 452.4,48.5 454.3,48.3 456.2,48.2 458.1,47.9 460.1,47.6 462.0,47.4 463.9,47.1 465.9,47.0 467.8,46.8 469.7,46.7 471.6,46.6 473.6,46.5 475.5,46.3 477.4,45.9 479.4,45.8 481.3,45.5 483.2,45.4 485.1,45.2 487.1,45.0 489.0,44.8 490.9,44.6 492.9,44.5 494.8,44.3 496.7,44.1 498.6,43.9 500.6,43.6 502.5,43.5 504.4,43.4 506.4,43.2 508.3,43.1 510.2,42.9 512.1,42.7 514.1,42.7 516.0,42.5 517.9,42.1 519.9,41.8 521.8,47.7 523.7,46.5 525.6,44.3 527.6,43.4 529.5,42.4 531.4,41.2 533.4,40.5 535.3,40.0 537.2,39.2 539.1,37.9 541.1,36.9 543.0,36.6 544.9,36.2 546.9,35.8 548.8,35.1 550.7,34.5 552.6,33.8 554.6,33.4 556.5,32.8 558.4,32.5 560.4,32.0 562.3,31.7 564.2,31.4 566.1,31.1 568.1,30.4 570.0,30.0" />
  
  <!-- Punto finale luminoso -->
  <circle cx="570.0" cy="30.0" r="4" fill="#ffffff" stroke="#0366d6" stroke-width="2.5" />
</svg>