<svg width="600" height="150" viewBox="0 0 600 150" xmlns="http://www.w3.org/2000/svg">
  <defs>
    <filter id="shadow2" x="-2%" y="-2%" width="104%" height="108%">
      <feDropShadow dx="0" dy="2" stdDeviation="3" flood-opacity="0.1" />
    </filter>
    <linearGradient id="fillGrad" x1="0" y1="0" x2="0" y2="1">
      <stop offset="0%" stop-color="#0366d6" stop-opacity="0.3"/>
      <stop offset="100%" stop-color="#0366d6" stop-opacity="0.02"/>
    </linearGradient>
  </defs>
  <rect width="600" height="150" rx="12" fill="#ffffff" filter="url(#shadow2)" stroke="#e1e4e8" stroke-width="1"/>
  <text x="20" y="24" fill="#2b3137" font-family="-apple-system,BlinkMacSystemFont,'Segoe UI',Helvetica,Arial,sans-serif" font-size="14" font-weight="600">📈 Download Growth (Actual: 79.2k)</text>
  
  <!-- Area sotto la linea -->
  <polygon fill="url(#fillGrad)" points="30.0,120.0,120 30.0,120.0 32.2,119.2 34.3,118.3 36.5,117.5 38.6,117.3 40.8,116.9 43.0,115.9 45.1,115.3 47.3,114.9 49.4,113.9 51.6,113.4 53.8,112.9 55.9,112.6 58.1,112.2 60.2,111.5 62.4,110.8 64.6,110.3 66.7,109.9 68.9,109.7 71.0,109.2 73.2,108.7 75.4,108.2 77.5,108.0 79.7,107.6 81.8,106.0 84.0,105.6 86.2,105.0 88.3,104.4 90.5,103.8 92.6,103.3 94.8,103.0 97.0,102.7 99.1,102.3 101.3,101.5 103.4,100.9 105.6,100.5 107.8,99.9 109.9,99.8 112.1,99.7 114.2,99.4 116.4,98.9 118.6,98.6 120.7,98.4 122.9,97.8 125.0,97.0 127.2,96.8 129.4,96.6 131.5,96.3 133.7,95.6 135.8,95.2 138.0,94.5 140.2,94.0 142.3,93.4 144.5,93.3 146.6,92.9 148.8,92.3 151.0,91.7 153.1,91.2 155.3,91.0 157.4,90.7 159.6,90.4 161.8,89.7 163.9,89.1 166.1,88.5 168.2,87.9 170.4,87.6 172.6,87.5 174.7,87.2 176.9,86.7 179.0,86.4 181.2,86.2 183.4,85.9 185.5,85.7 187.7,85.4 189.8,85.2 192.0,85.0 194.2,84.9 196.3,84.2 198.5,83.9 200.6,83.8 202.8,83.5 205.0,83.4 207.1,83.4 209.3,93.9 211.4,92.8 213.6,91.9 215.8,90.9 217.9,88.1 220.1,86.1 222.2,84.0 224.4,83.2 226.6,82.3 228.7,80.8 230.9,79.2 233.0,78.0 235.2,77.6 237.4,77.2 239.5,76.0 241.7,75.2 243.8,74.7 246.0,74.0 248.2,73.7 250.3,73.6 252.5,73.0 254.6,72.0 256.8,71.3 259.0,70.6 261.1,69.8 263.3,69.4 265.4,69.2 267.6,68.5 269.8,67.9 271.9,67.3 274.1,66.8 276.2,66.6 278.4,66.5 280.6,66.1 282.7,65.6 284.9,65.2 287.0,64.9 289.2,64.6 291.4,64.3 293.5,64.0 295.7,63.7 297.8,63.4 300.0,63.2 302.2,62.6 304.3,62.2 306.5,61.8 308.6,61.5 310.8,61.2 313.0,61.0 315.1,60.7 317.3,60.5 319.4,59.7 321.6,59.2 323.8,58.6 325.9,58.3 328.1,58.3 330.2,58.0 332.4,57.7 334.6,57.3 336.7,56.9 338.9,56.4 341.0,56.1 343.2,56.0 345.4,55.7 347.5,55.5 349.7,55.3 351.8,55.0 354.0,54.8 356.2,54.3 358.3,54.1 360.5,53.9 362.6,53.7 364.8,53.6 367.0,53.2 369.1,52.9 371.3,52.5 373.4,52.2 375.6,51.9 377.8,51.6 379.9,51.5 382.1,51.2 384.2,50.8 386.4,50.3 388.6,50.0 390.7,49.7 392.9,49.1 395.0,49.0 397.2,48.8 399.4,48.6 401.5,48.4 403.7,48.1 405.8,47.8 408.0,47.6 410.2,47.3 412.3,47.1 414.5,46.8 416.6,46.6 418.8,46.5 421.0,46.2 423.1,45.8 425.3,45.6 427.4,45.3 429.6,45.1 431.8,44.9 433.9,44.7 436.1,44.5 438.2,44.3 440.4,44.0 442.6,43.6 444.7,43.1 446.9,42.8 449.0,42.5 451.2,42.4 453.4,42.3 455.5,42.0 457.7,41.6 459.8,41.4 462.0,41.2 464.2,40.9 466.3,40.7 468.5,40.4 470.6,40.2 472.8,40.0 475.0,39.7 477.1,39.4 479.3,39.0 481.4,38.7 483.6,38.6 485.8,38.5 487.9,38.4 490.1,38.1 492.2,37.9 494.4,37.6 496.6,37.4 498.7,37.1 500.9,36.9 503.0,36.7 505.2,36.5 507.4,36.3 509.5,36.0 511.7,35.6 513.8,35.4 516.0,35.1 518.2,34.9 520.3,34.8 522.5,34.6 524.6,34.5 526.8,34.3 529.0,34.1 531.1,33.7 533.3,33.5 535.4,33.3 537.6,33.1 539.8,32.9 541.9,32.7 544.1,32.4 546.2,32.2 548.4,32.0 550.6,31.8 552.7,31.5 554.9,31.3 557.0,31.0 559.2,30.9 561.4,30.8 563.5,30.6 565.7,30.4 567.8,30.2 570.0,30.0 570.0,30.0,120" />
  
  <!-- Linea principale -->
  <polyline fill="none" stroke="#0366d6" stroke-width="2.5" stroke-linecap="round" stroke-linejoin="round" points="30.0,120.0 32.2,119.2 34.3,118.3 36.5,117.5 38.6,117.3 40.8,116.9 43.0,115.9 45.1,115.3 47.3,114.9 49.4,113.9 51.6,113.4 53.8,112.9 55.9,112.6 58.1,112.2 60.2,111.5 62.4,110.8 64.6,110.3 66.7,109.9 68.9,109.7 71.0,109.2 73.2,108.7 75.4,108.2 77.5,108.0 79.7,107.6 81.8,106.0 84.0,105.6 86.2,105.0 88.3,104.4 90.5,103.8 92.6,103.3 94.8,103.0 97.0,102.7 99.1,102.3 101.3,101.5 103.4,100.9 105.6,100.5 107.8,99.9 109.9,99.8 112.1,99.7 114.2,99.4 116.4,98.9 118.6,98.6 120.7,98.4 122.9,97.8 125.0,97.0 127.2,96.8 129.4,96.6 131.5,96.3 133.7,95.6 135.8,95.2 138.0,94.5 140.2,94.0 142.3,93.4 144.5,93.3 146.6,92.9 148.8,92.3 151.0,91.7 153.1,91.2 155.3,91.0 157.4,90.7 159.6,90.4 161.8,89.7 163.9,89.1 166.1,88.5 168.2,87.9 170.4,87.6 172.6,87.5 174.7,87.2 176.9,86.7 179.0,86.4 181.2,86.2 183.4,85.9 185.5,85.7 187.7,85.4 189.8,85.2 192.0,85.0 194.2,84.9 196.3,84.2 198.5,83.9 200.6,83.8 202.8,83.5 205.0,83.4 207.1,83.4 209.3,93.9 211.4,92.8 213.6,91.9 215.8,90.9 217.9,88.1 220.1,86.1 222.2,84.0 224.4,83.2 226.6,82.3 228.7,80.8 230.9,79.2 233.0,78.0 235.2,77.6 237.4,77.2 239.5,76.0 241.7,75.2 243.8,74.7 246.0,74.0 248.2,73.7 250.3,73.6 252.5,73.0 254.6,72.0 256.8,71.3 259.0,70.6 261.1,69.8 263.3,69.4 265.4,69.2 267.6,68.5 269.8,67.9 271.9,67.3 274.1,66.8 276.2,66.6 278.4,66.5 280.6,66.1 282.7,65.6 284.9,65.2 287.0,64.9 289.2,64.6 291.4,64.3 293.5,64.0 295.7,63.7 297.8,63.4 300.0,63.2 302.2,62.6 304.3,62.2 306.5,61.8 308.6,61.5 310.8,61.2 313.0,61.0 315.1,60.7 317.3,60.5 319.4,59.7 321.6,59.2 323.8,58.6 325.9,58.3 328.1,58.3 330.2,58.0 332.4,57.7 334.6,57.3 336.7,56.9 338.9,56.4 341.0,56.1 343.2,56.0 345.4,55.7 347.5,55.5 349.7,55.3 351.8,55.0 354.0,54.8 356.2,54.3 358.3,54.1 360.5,53.9 362.6,53.7 364.8,53.6 367.0,53.2 369.1,52.9 371.3,52.5 373.4,52.2 375.6,51.9 377.8,51.6 379.9,51.5 382.1,51.2 384.2,50.8 386.4,50.3 388.6,50.0 390.7,49.7 392.9,49.1 395.0,49.0 397.2,48.8 399.4,48.6 401.5,48.4 403.7,48.1 405.8,47.8 408.0,47.6 410.2,47.3 412.3,47.1 414.5,46.8 416.6,46.6 418.8,46.5 421.0,46.2 423.1,45.8 425.3,45.6 427.4,45.3 429.6,45.1 431.8,44.9 433.9,44.7 436.1,44.5 438.2,44.3 440.4,44.0 442.6,43.6 444.7,43.1 446.9,42.8 449.0,42.5 451.2,42.4 453.4,42.3 455.5,42.0 457.7,41.6 459.8,41.4 462.0,41.2 464.2,40.9 466.3,40.7 468.5,40.4 470.6,40.2 472.8,40.0 475.0,39.7 477.1,39.4 479.3,39.0 481.4,38.7 483.6,38.6 485.8,38.5 487.9,38.4 490.1,38.1 492.2,37.9 494.4,37.6 496.6,37.4 498.7,37.1 500.9,36.9 503.0,36.7 505.2,36.5 507.4,36.3 509.5,36.0 511.7,35.6 513.8,35.4 516.0,35.1 518.2,34.9 520.3,34.8 522.5,34.6 524.6,34.5 526.8,34.3 529.0,34.1 531.1,33.7 533.3,33.5 535.4,33.3 537.6,33.1 539.8,32.9 541.9,32.7 544.1,32.4 546.2,32.2 548.4,32.0 550.6,31.8 552.7,31.5 554.9,31.3 557.0,31.0 559.2,30.9 561.4,30.8 563.5,30.6 565.7,30.4 567.8,30.2 570.0,30.0" />
  
  <!-- Punto finale luminoso -->
  <circle cx="570.0" cy="30.0" r="4" fill="#ffffff" stroke="#0366d6" stroke-width="2.5" />
</svg>