<svg width="600" height="150" viewBox="0 0 600 150" xmlns="http://www.w3.org/2000/svg">
  <defs>
    <filter id="shadow2" x="-2%" y="-2%" width="104%" height="108%">
      <feDropShadow dx="0" dy="2" stdDeviation="3" flood-opacity="0.1" />
    </filter>
    <linearGradient id="fillGrad" x1="0" y1="0" x2="0" y2="1">
      <stop offset="0%" stop-color="#0366d6" stop-opacity="0.3"/>
      <stop offset="100%" stop-color="#0366d6" stop-opacity="0.02"/>
    </linearGradient>
  </defs>
  <rect width="600" height="150" rx="12" fill="#ffffff" filter="url(#shadow2)" stroke="#e1e4e8" stroke-width="1"/>
  <text x="20" y="24" fill="#2b3137" font-family="-apple-system,BlinkMacSystemFont,'Segoe UI',Helvetica,Arial,sans-serif" font-size="14" font-weight="600">📈 Download Growth (Actual: 88.1k)</text>
  
  <!-- Area sotto la linea -->
  <polygon fill="url(#fillGrad)" points="30.0,120.0,120 30.0,120.0 31.3,119.5 32.5,119.0 33.8,118.6 35.1,118.4 36.3,118.2 37.6,117.6 38.9,117.3 40.1,117.0 41.4,116.5 42.7,116.2 43.9,115.9 45.2,115.7 46.5,115.5 47.7,115.1 49.0,114.7 50.3,114.4 51.5,114.2 52.8,114.0 54.1,113.8 55.4,113.4 56.6,113.2 57.9,113.1 59.2,112.8 60.4,111.9 61.7,111.6 63.0,111.3 64.2,110.9 65.5,110.6 66.8,110.3 68.0,110.1 69.3,110.0 70.6,109.7 71.8,109.3 73.1,108.9 74.4,108.7 75.6,108.4 76.9,108.3 78.2,108.2 79.4,108.1 80.7,107.8 82.0,107.6 83.2,107.5 84.5,107.1 85.8,106.7 87.0,106.5 88.3,106.5 89.6,106.3 90.8,105.9 92.1,105.6 93.4,105.2 94.6,104.9 95.9,104.6 97.2,104.5 98.5,104.3 99.7,104.0 101.0,103.6 102.3,103.3 103.5,103.2 104.8,103.0 106.1,102.9 107.3,102.4 108.6,102.1 109.9,101.7 111.1,101.4 112.4,101.2 113.7,101.1 114.9,101.0 116.2,100.7 117.5,100.5 118.7,100.4 120.0,100.3 121.3,100.1 122.5,99.9 123.8,99.8 125.1,99.7 126.3,99.6 127.6,99.3 128.9,99.1 130.1,99.0 131.4,98.9 132.7,98.8 133.9,98.8 135.2,104.9 136.5,104.3 137.7,103.7 139.0,103.2 140.3,101.5 141.5,100.4 142.8,99.1 144.1,98.7 145.4,98.1 146.6,97.3 147.9,96.4 149.2,95.7 150.4,95.4 151.7,95.2 153.0,94.5 154.2,94.0 155.5,93.7 156.8,93.3 158.0,93.2 159.3,93.1 160.6,92.7 161.8,92.2 163.1,91.8 164.4,91.4 165.6,90.9 166.9,90.7 168.2,90.5 169.4,90.1 170.7,89.8 172.0,89.5 173.2,89.2 174.5,89.1 175.8,89.0 177.0,88.8 178.3,88.5 179.6,88.3 180.8,88.0 182.1,87.9 183.4,87.7 184.6,87.5 185.9,87.4 187.2,87.2 188.5,87.1 189.7,86.7 191.0,86.5 192.3,86.2 193.5,86.1 194.8,85.9 196.1,85.8 197.3,85.6 198.6,85.5 199.9,85.1 201.1,84.8 202.4,84.4 203.7,84.3 204.9,84.2 206.2,84.1 207.5,83.9 208.7,83.6 210.0,83.4 211.3,83.2 212.5,83.0 213.8,82.9 215.1,82.8 216.3,82.6 217.6,82.5 218.9,82.3 220.1,82.2 221.4,81.9 222.7,81.8 223.9,81.7 225.2,81.6 226.5,81.5 227.7,81.3 229.0,81.1 230.3,80.9 231.5,80.7 232.8,80.5 234.1,80.4 235.4,80.3 236.6,80.1 237.9,79.9 239.2,79.6 240.4,79.4 241.7,79.2 243.0,78.9 244.2,78.8 245.5,78.7 246.8,78.6 248.0,78.5 249.3,78.3 250.6,78.1 251.8,78.0 253.1,77.9 254.4,77.7 255.6,77.6 256.9,77.5 258.2,77.4 259.4,77.2 260.7,77.0 262.0,76.9 263.2,76.7 264.5,76.6 265.8,76.5 267.0,76.3 268.3,76.2 269.6,76.1 270.8,76.0 272.1,75.7 273.4,75.4 274.6,75.2 275.9,75.1 277.2,75.0 278.5,75.0 279.7,74.8 281.0,74.5 282.3,74.4 283.5,74.3 284.8,74.2 286.1,74.0 287.3,73.9 288.6,73.8 289.9,73.7 291.1,73.4 292.4,73.3 293.7,73.1 294.9,72.9 296.2,72.8 297.5,72.8 298.7,72.7 300.0,72.5 301.3,72.4 302.5,72.3 303.8,72.1 305.1,71.9 306.3,71.8 307.6,71.7 308.9,71.6 310.1,71.5 311.4,71.3 312.7,71.1 313.9,70.9 315.2,70.8 316.5,70.7 317.7,70.6 319.0,70.5 320.3,70.4 321.5,70.3 322.8,70.2 324.1,70.0 325.4,69.9 326.6,69.7 327.9,69.6 329.2,69.5 330.4,69.4 331.7,69.2 333.0,69.1 334.2,69.0 335.5,68.9 336.8,68.7 338.0,68.6 339.3,68.4 340.6,68.4 341.8,68.3 343.1,68.2 344.4,68.1 345.6,67.9 346.9,67.8 348.2,67.8 349.4,67.7 350.7,67.4 352.0,67.2 353.2,71.2 354.5,70.4 355.8,68.9 357.0,68.3 358.3,67.6 359.6,66.8 360.8,66.3 362.1,66.0 363.4,65.4 364.6,64.6 365.9,63.9 367.2,63.7 368.5,63.4 369.7,63.1 371.0,62.7 372.3,62.3 373.5,61.8 374.8,61.5 376.1,61.1 377.3,60.9 378.6,60.6 379.9,60.4 381.1,60.2 382.4,60.0 383.7,59.5 384.9,59.2 386.2,58.8 387.5,58.3 388.7,58.0 390.0,57.8 391.3,57.6 392.5,57.4 393.8,57.1 395.1,56.7 396.3,56.5 397.6,55.7 398.9,55.0 400.1,54.8 401.4,54.6 402.7,54.3 403.9,53.9 405.2,53.5 406.5,53.3 407.7,53.0 409.0,52.7 410.3,52.4 411.5,52.2 412.8,51.8 414.1,51.6 415.4,51.4 416.6,51.3 417.9,50.9 419.2,50.7 420.4,50.4 421.7,50.3 423.0,50.2 424.2,49.9 425.5,49.8 426.8,49.6 428.0,49.4 429.3,49.3 430.6,49.1 431.8,48.9 433.1,48.7 434.4,48.4 435.6,48.0 436.9,47.8 438.2,47.6 439.4,47.5 440.7,47.3 442.0,47.2 443.2,47.0 444.5,46.8 445.8,46.7 447.0,46.6 448.3,46.4 449.6,46.3 450.8,46.0 452.1,45.9 453.4,45.8 454.6,45.6 455.9,45.2 457.2,44.9 458.5,44.7 459.7,44.6 461.0,44.3 462.3,44.1 463.5,43.9 464.8,43.7 466.1,43.5 467.3,43.4 468.6,43.3 469.9,43.1 471.1,42.9 472.4,42.7 473.7,42.6 474.9,42.4 476.2,42.2 477.5,42.0 478.7,41.7 480.0,41.6 481.3,41.3 482.5,41.1 483.8,40.9 485.1,40.8 486.3,40.7 487.6,40.5 488.9,40.3 490.1,40.2 491.4,40.0 492.7,39.8 493.9,39.7 495.2,39.6 496.5,39.4 497.7,39.3 499.0,39.1 500.3,39.0 501.5,38.9 502.8,38.7 504.1,38.6 505.4,38.4 506.6,38.3 507.9,38.2 509.2,38.0 510.4,37.8 511.7,37.6 513.0,37.5 514.2,37.4 515.5,37.2 516.8,37.0 518.0,36.8 519.3,36.6 520.6,36.5 521.8,36.4 523.1,36.3 524.4,36.1 525.6,36.0 526.9,35.8 528.2,35.5 529.4,35.4 530.7,35.2 532.0,35.1 533.2,35.0 534.5,34.8 535.8,34.6 537.0,34.4 538.3,34.2 539.6,34.1 540.8,33.9 542.1,33.7 543.4,33.5 544.6,33.3 545.9,33.2 547.2,33.0 548.5,32.8 549.7,32.6 551.0,32.4 552.3,32.3 553.5,32.1 554.8,31.9 556.1,31.8 557.3,31.6 558.6,31.5 559.9,31.3 561.1,31.0 562.4,30.9 563.7,30.7 564.9,30.6 566.2,30.4 567.5,30.3 568.7,30.1 570.0,30.0 570.0,30.0,120" />
  
  <!-- Linea principale -->
  <polyline fill="none" stroke="#0366d6" stroke-width="2.5" stroke-linecap="round" stroke-linejoin="round" points="30.0,120.0 31.3,119.5 32.5,119.0 33.8,118.6 35.1,118.4 36.3,118.2 37.6,117.6 38.9,117.3 40.1,117.0 41.4,116.5 42.7,116.2 43.9,115.9 45.2,115.7 46.5,115.5 47.7,115.1 49.0,114.7 50.3,114.4 51.5,114.2 52.8,114.0 54.1,113.8 55.4,113.4 56.6,113.2 57.9,113.1 59.2,112.8 60.4,111.9 61.7,111.6 63.0,111.3 64.2,110.9 65.5,110.6 66.8,110.3 68.0,110.1 69.3,110.0 70.6,109.7 71.8,109.3 73.1,108.9 74.4,108.7 75.6,108.4 76.9,108.3 78.2,108.2 79.4,108.1 80.7,107.8 82.0,107.6 83.2,107.5 84.5,107.1 85.8,106.7 87.0,106.5 88.3,106.5 89.6,106.3 90.8,105.9 92.1,105.6 93.4,105.2 94.6,104.9 95.9,104.6 97.2,104.5 98.5,104.3 99.7,104.0 101.0,103.6 102.3,103.3 103.5,103.2 104.8,103.0 106.1,102.9 107.3,102.4 108.6,102.1 109.9,101.7 111.1,101.4 112.4,101.2 113.7,101.1 114.9,101.0 116.2,100.7 117.5,100.5 118.7,100.4 120.0,100.3 121.3,100.1 122.5,99.9 123.8,99.8 125.1,99.7 126.3,99.6 127.6,99.3 128.9,99.1 130.1,99.0 131.4,98.9 132.7,98.8 133.9,98.8 135.2,104.9 136.5,104.3 137.7,103.7 139.0,103.2 140.3,101.5 141.5,100.4 142.8,99.1 144.1,98.7 145.4,98.1 146.6,97.3 147.9,96.4 149.2,95.7 150.4,95.4 151.7,95.2 153.0,94.5 154.2,94.0 155.5,93.7 156.8,93.3 158.0,93.2 159.3,93.1 160.6,92.7 161.8,92.2 163.1,91.8 164.4,91.4 165.6,90.9 166.9,90.7 168.2,90.5 169.4,90.1 170.7,89.8 172.0,89.5 173.2,89.2 174.5,89.1 175.8,89.0 177.0,88.8 178.3,88.5 179.6,88.3 180.8,88.0 182.1,87.9 183.4,87.7 184.6,87.5 185.9,87.4 187.2,87.2 188.5,87.1 189.7,86.7 191.0,86.5 192.3,86.2 193.5,86.1 194.8,85.9 196.1,85.8 197.3,85.6 198.6,85.5 199.9,85.1 201.1,84.8 202.4,84.4 203.7,84.3 204.9,84.2 206.2,84.1 207.5,83.9 208.7,83.6 210.0,83.4 211.3,83.2 212.5,83.0 213.8,82.9 215.1,82.8 216.3,82.6 217.6,82.5 218.9,82.3 220.1,82.2 221.4,81.9 222.7,81.8 223.9,81.7 225.2,81.6 226.5,81.5 227.7,81.3 229.0,81.1 230.3,80.9 231.5,80.7 232.8,80.5 234.1,80.4 235.4,80.3 236.6,80.1 237.9,79.9 239.2,79.6 240.4,79.4 241.7,79.2 243.0,78.9 244.2,78.8 245.5,78.7 246.8,78.6 248.0,78.5 249.3,78.3 250.6,78.1 251.8,78.0 253.1,77.9 254.4,77.7 255.6,77.6 256.9,77.5 258.2,77.4 259.4,77.2 260.7,77.0 262.0,76.9 263.2,76.7 264.5,76.6 265.8,76.5 267.0,76.3 268.3,76.2 269.6,76.1 270.8,76.0 272.1,75.7 273.4,75.4 274.6,75.2 275.9,75.1 277.2,75.0 278.5,75.0 279.7,74.8 281.0,74.5 282.3,74.4 283.5,74.3 284.8,74.2 286.1,74.0 287.3,73.9 288.6,73.8 289.9,73.7 291.1,73.4 292.4,73.3 293.7,73.1 294.9,72.9 296.2,72.8 297.5,72.8 298.7,72.7 300.0,72.5 301.3,72.4 302.5,72.3 303.8,72.1 305.1,71.9 306.3,71.8 307.6,71.7 308.9,71.6 310.1,71.5 311.4,71.3 312.7,71.1 313.9,70.9 315.2,70.8 316.5,70.7 317.7,70.6 319.0,70.5 320.3,70.4 321.5,70.3 322.8,70.2 324.1,70.0 325.4,69.9 326.6,69.7 327.9,69.6 329.2,69.5 330.4,69.4 331.7,69.2 333.0,69.1 334.2,69.0 335.5,68.9 336.8,68.7 338.0,68.6 339.3,68.4 340.6,68.4 341.8,68.3 343.1,68.2 344.4,68.1 345.6,67.9 346.9,67.8 348.2,67.8 349.4,67.7 350.7,67.4 352.0,67.2 353.2,71.2 354.5,70.4 355.8,68.9 357.0,68.3 358.3,67.6 359.6,66.8 360.8,66.3 362.1,66.0 363.4,65.4 364.6,64.6 365.9,63.9 367.2,63.7 368.5,63.4 369.7,63.1 371.0,62.7 372.3,62.3 373.5,61.8 374.8,61.5 376.1,61.1 377.3,60.9 378.6,60.6 379.9,60.4 381.1,60.2 382.4,60.0 383.7,59.5 384.9,59.2 386.2,58.8 387.5,58.3 388.7,58.0 390.0,57.8 391.3,57.6 392.5,57.4 393.8,57.1 395.1,56.7 396.3,56.5 397.6,55.7 398.9,55.0 400.1,54.8 401.4,54.6 402.7,54.3 403.9,53.9 405.2,53.5 406.5,53.3 407.7,53.0 409.0,52.7 410.3,52.4 411.5,52.2 412.8,51.8 414.1,51.6 415.4,51.4 416.6,51.3 417.9,50.9 419.2,50.7 420.4,50.4 421.7,50.3 423.0,50.2 424.2,49.9 425.5,49.8 426.8,49.6 428.0,49.4 429.3,49.3 430.6,49.1 431.8,48.9 433.1,48.7 434.4,48.4 435.6,48.0 436.9,47.8 438.2,47.6 439.4,47.5 440.7,47.3 442.0,47.2 443.2,47.0 444.5,46.8 445.8,46.7 447.0,46.6 448.3,46.4 449.6,46.3 450.8,46.0 452.1,45.9 453.4,45.8 454.6,45.6 455.9,45.2 457.2,44.9 458.5,44.7 459.7,44.6 461.0,44.3 462.3,44.1 463.5,43.9 464.8,43.7 466.1,43.5 467.3,43.4 468.6,43.3 469.9,43.1 471.1,42.9 472.4,42.7 473.7,42.6 474.9,42.4 476.2,42.2 477.5,42.0 478.7,41.7 480.0,41.6 481.3,41.3 482.5,41.1 483.8,40.9 485.1,40.8 486.3,40.7 487.6,40.5 488.9,40.3 490.1,40.2 491.4,40.0 492.7,39.8 493.9,39.7 495.2,39.6 496.5,39.4 497.7,39.3 499.0,39.1 500.3,39.0 501.5,38.9 502.8,38.7 504.1,38.6 505.4,38.4 506.6,38.3 507.9,38.2 509.2,38.0 510.4,37.8 511.7,37.6 513.0,37.5 514.2,37.4 515.5,37.2 516.8,37.0 518.0,36.8 519.3,36.6 520.6,36.5 521.8,36.4 523.1,36.3 524.4,36.1 525.6,36.0 526.9,35.8 528.2,35.5 529.4,35.4 530.7,35.2 532.0,35.1 533.2,35.0 534.5,34.8 535.8,34.6 537.0,34.4 538.3,34.2 539.6,34.1 540.8,33.9 542.1,33.7 543.4,33.5 544.6,33.3 545.9,33.2 547.2,33.0 548.5,32.8 549.7,32.6 551.0,32.4 552.3,32.3 553.5,32.1 554.8,31.9 556.1,31.8 557.3,31.6 558.6,31.5 559.9,31.3 561.1,31.0 562.4,30.9 563.7,30.7 564.9,30.6 566.2,30.4 567.5,30.3 568.7,30.1 570.0,30.0" />
  
  <!-- Punto finale luminoso -->
  <circle cx="570.0" cy="30.0" r="4" fill="#ffffff" stroke="#0366d6" stroke-width="2.5" />
</svg>