<svg width="600" height="150" viewBox="0 0 600 150" xmlns="http://www.w3.org/2000/svg">
  <defs>
    <filter id="shadow2" x="-2%" y="-2%" width="104%" height="108%">
      <feDropShadow dx="0" dy="2" stdDeviation="3" flood-opacity="0.1" />
    </filter>
    <linearGradient id="fillGrad" x1="0" y1="0" x2="0" y2="1">
      <stop offset="0%" stop-color="#0366d6" stop-opacity="0.3"/>
      <stop offset="100%" stop-color="#0366d6" stop-opacity="0.02"/>
    </linearGradient>
  </defs>
  <rect width="600" height="150" rx="12" fill="#ffffff" filter="url(#shadow2)" stroke="#e1e4e8" stroke-width="1"/>
  <text x="20" y="24" fill="#2b3137" font-family="-apple-system,BlinkMacSystemFont,'Segoe UI',Helvetica,Arial,sans-serif" font-size="14" font-weight="600">📈 Download Growth (Actual: 84.6k)</text>
  
  <!-- Area sotto la linea -->
  <polygon fill="url(#fillGrad)" points="30.0,120.0,120 30.0,120.0 31.6,119.4 33.2,118.8 34.8,118.3 36.4,118.1 38.0,117.8 39.6,117.2 41.2,116.7 42.8,116.4 44.4,115.8 46.0,115.4 47.6,115.1 49.2,114.9 50.8,114.6 52.4,114.1 54.0,113.6 55.6,113.2 57.2,113.0 58.8,112.8 60.4,112.5 62.0,112.1 63.6,111.8 65.3,111.7 66.9,111.4 68.5,110.3 70.1,110.0 71.7,109.6 73.3,109.1 74.9,108.8 76.5,108.4 78.1,108.2 79.7,108.0 81.3,107.7 82.9,107.2 84.5,106.7 86.1,106.4 87.7,106.1 89.3,106.0 90.9,105.9 92.5,105.7 94.1,105.3 95.7,105.1 97.3,105.0 98.9,104.6 100.5,104.0 102.1,103.9 103.7,103.8 105.3,103.5 106.9,103.1 108.5,102.8 110.1,102.3 111.7,102.0 113.3,101.5 114.9,101.5 116.5,101.2 118.1,100.8 119.7,100.3 121.3,100.0 122.9,99.9 124.5,99.6 126.1,99.4 127.7,99.0 129.3,98.5 130.9,98.1 132.6,97.7 134.2,97.5 135.8,97.4 137.4,97.2 139.0,96.9 140.6,96.7 142.2,96.5 143.8,96.3 145.4,96.2 147.0,95.9 148.6,95.8 150.2,95.7 151.8,95.6 153.4,95.1 155.0,94.9 156.6,94.8 158.2,94.7 159.8,94.6 161.4,94.6 163.0,101.8 164.6,101.1 166.2,100.5 167.8,99.8 169.4,97.8 171.0,96.5 172.6,95.0 174.2,94.4 175.8,93.8 177.4,92.8 179.0,91.7 180.6,90.8 182.2,90.5 183.8,90.2 185.4,89.5 187.0,88.9 188.6,88.5 190.2,88.0 191.8,87.8 193.4,87.8 195.0,87.3 196.6,86.7 198.2,86.2 199.9,85.7 201.5,85.1 203.1,84.9 204.7,84.7 206.3,84.2 207.9,83.8 209.5,83.4 211.1,83.1 212.7,82.9 214.3,82.8 215.9,82.6 217.5,82.2 219.1,82.0 220.7,81.7 222.3,81.5 223.9,81.3 225.5,81.1 227.1,80.9 228.7,80.7 230.3,80.5 231.9,80.1 233.5,79.9 235.1,79.5 236.7,79.4 238.3,79.1 239.9,79.0 241.5,78.8 243.1,78.7 244.7,78.1 246.3,77.8 247.9,77.3 249.5,77.2 251.1,77.1 252.7,76.9 254.3,76.7 255.9,76.4 257.5,76.2 259.1,75.8 260.7,75.6 262.3,75.5 263.9,75.4 265.5,75.2 267.2,75.1 268.8,74.9 270.4,74.7 272.0,74.4 273.6,74.2 275.2,74.1 276.8,74.0 278.4,73.9 280.0,73.6 281.6,73.4 283.2,73.1 284.8,72.9 286.4,72.7 288.0,72.5 289.6,72.4 291.2,72.2 292.8,71.9 294.4,71.6 296.0,71.4 297.6,71.2 299.2,70.8 300.8,70.7 302.4,70.5 304.0,70.4 305.6,70.2 307.2,70.0 308.8,69.8 310.4,69.7 312.0,69.5 313.6,69.3 315.2,69.2 316.8,69.0 318.4,68.9 320.0,68.7 321.6,68.4 323.2,68.3 324.8,68.1 326.4,68.0 328.0,67.8 329.6,67.7 331.2,67.5 332.8,67.4 334.5,67.2 336.1,66.9 337.7,66.6 339.3,66.4 340.9,66.2 342.5,66.1 344.1,66.0 345.7,65.8 347.3,65.5 348.9,65.4 350.5,65.3 352.1,65.1 353.7,64.9 355.3,64.7 356.9,64.6 358.5,64.5 360.1,64.2 361.7,64.0 363.3,63.8 364.9,63.5 366.5,63.4 368.1,63.4 369.7,63.3 371.3,63.1 372.9,63.0 374.5,62.8 376.1,62.6 377.7,62.4 379.3,62.3 380.9,62.2 382.5,62.0 384.1,61.9 385.7,61.6 387.3,61.4 388.9,61.2 390.5,61.0 392.1,60.9 393.7,60.8 395.3,60.7 396.9,60.6 398.5,60.5 400.1,60.3 401.8,60.1 403.4,59.9 405.0,59.7 406.6,59.6 408.2,59.5 409.8,59.3 411.4,59.1 413.0,59.0 414.6,58.9 416.2,58.7 417.8,58.5 419.4,58.4 421.0,58.2 422.6,58.1 424.2,58.0 425.8,57.9 427.4,57.8 429.0,57.6 430.6,57.5 432.2,57.4 433.8,57.3 435.4,56.9 437.0,56.7 438.6,61.5 440.2,60.5 441.8,58.7 443.4,58.0 445.0,57.2 446.6,56.2 448.2,55.6 449.8,55.3 451.4,54.6 453.0,53.5 454.6,52.8 456.2,52.5 457.8,52.1 459.4,51.8 461.0,51.3 462.6,50.8 464.2,50.2 465.8,49.9 467.4,49.4 469.1,49.2 470.7,48.8 472.3,48.6 473.9,48.3 475.5,48.0 477.1,47.5 478.7,47.2 480.3,46.7 481.9,46.0 483.5,45.6 485.1,45.4 486.7,45.2 488.3,45.0 489.9,44.6 491.5,44.2 493.1,43.9 494.7,42.9 496.3,42.2 497.9,41.8 499.5,41.6 501.1,41.3 502.7,40.8 504.3,40.4 505.9,40.0 507.5,39.7 509.1,39.3 510.7,39.0 512.3,38.7 513.9,38.3 515.5,38.0 517.1,37.8 518.7,37.6 520.3,37.2 521.9,36.9 523.5,36.6 525.1,36.5 526.7,36.3 528.3,36.0 529.9,35.8 531.5,35.6 533.1,35.4 534.7,35.2 536.4,35.1 538.0,34.7 539.6,34.5 541.2,34.2 542.8,33.8 544.4,33.4 546.0,33.3 547.6,33.1 549.2,32.9 550.8,32.7 552.4,32.5 554.0,32.3 555.6,32.2 557.2,32.0 558.8,31.8 560.4,31.7 562.0,31.4 563.6,31.2 565.2,31.0 566.8,30.8 568.4,30.4 570.0,30.0 570.0,30.0,120" />
  
  <!-- Linea principale -->
  <polyline fill="none" stroke="#0366d6" stroke-width="2.5" stroke-linecap="round" stroke-linejoin="round" points="30.0,120.0 31.6,119.4 33.2,118.8 34.8,118.3 36.4,118.1 38.0,117.8 39.6,117.2 41.2,116.7 42.8,116.4 44.4,115.8 46.0,115.4 47.6,115.1 49.2,114.9 50.8,114.6 52.4,114.1 54.0,113.6 55.6,113.2 57.2,113.0 58.8,112.8 60.4,112.5 62.0,112.1 63.6,111.8 65.3,111.7 66.9,111.4 68.5,110.3 70.1,110.0 71.7,109.6 73.3,109.1 74.9,108.8 76.5,108.4 78.1,108.2 79.7,108.0 81.3,107.7 82.9,107.2 84.5,106.7 86.1,106.4 87.7,106.1 89.3,106.0 90.9,105.9 92.5,105.7 94.1,105.3 95.7,105.1 97.3,105.0 98.9,104.6 100.5,104.0 102.1,103.9 103.7,103.8 105.3,103.5 106.9,103.1 108.5,102.8 110.1,102.3 111.7,102.0 113.3,101.5 114.9,101.5 116.5,101.2 118.1,100.8 119.7,100.3 121.3,100.0 122.9,99.9 124.5,99.6 126.1,99.4 127.7,99.0 129.3,98.5 130.9,98.1 132.6,97.7 134.2,97.5 135.8,97.4 137.4,97.2 139.0,96.9 140.6,96.7 142.2,96.5 143.8,96.3 145.4,96.2 147.0,95.9 148.6,95.8 150.2,95.7 151.8,95.6 153.4,95.1 155.0,94.9 156.6,94.8 158.2,94.7 159.8,94.6 161.4,94.6 163.0,101.8 164.6,101.1 166.2,100.5 167.8,99.8 169.4,97.8 171.0,96.5 172.6,95.0 174.2,94.4 175.8,93.8 177.4,92.8 179.0,91.7 180.6,90.8 182.2,90.5 183.8,90.2 185.4,89.5 187.0,88.9 188.6,88.5 190.2,88.0 191.8,87.8 193.4,87.8 195.0,87.3 196.6,86.7 198.2,86.2 199.9,85.7 201.5,85.1 203.1,84.9 204.7,84.7 206.3,84.2 207.9,83.8 209.5,83.4 211.1,83.1 212.7,82.9 214.3,82.8 215.9,82.6 217.5,82.2 219.1,82.0 220.7,81.7 222.3,81.5 223.9,81.3 225.5,81.1 227.1,80.9 228.7,80.7 230.3,80.5 231.9,80.1 233.5,79.9 235.1,79.5 236.7,79.4 238.3,79.1 239.9,79.0 241.5,78.8 243.1,78.7 244.7,78.1 246.3,77.8 247.9,77.3 249.5,77.2 251.1,77.1 252.7,76.9 254.3,76.7 255.9,76.4 257.5,76.2 259.1,75.8 260.7,75.6 262.3,75.5 263.9,75.4 265.5,75.2 267.2,75.1 268.8,74.9 270.4,74.7 272.0,74.4 273.6,74.2 275.2,74.1 276.8,74.0 278.4,73.9 280.0,73.6 281.6,73.4 283.2,73.1 284.8,72.9 286.4,72.7 288.0,72.5 289.6,72.4 291.2,72.2 292.8,71.9 294.4,71.6 296.0,71.4 297.6,71.2 299.2,70.8 300.8,70.7 302.4,70.5 304.0,70.4 305.6,70.2 307.2,70.0 308.8,69.8 310.4,69.7 312.0,69.5 313.6,69.3 315.2,69.2 316.8,69.0 318.4,68.9 320.0,68.7 321.6,68.4 323.2,68.3 324.8,68.1 326.4,68.0 328.0,67.8 329.6,67.7 331.2,67.5 332.8,67.4 334.5,67.2 336.1,66.9 337.7,66.6 339.3,66.4 340.9,66.2 342.5,66.1 344.1,66.0 345.7,65.8 347.3,65.5 348.9,65.4 350.5,65.3 352.1,65.1 353.7,64.9 355.3,64.7 356.9,64.6 358.5,64.5 360.1,64.2 361.7,64.0 363.3,63.8 364.9,63.5 366.5,63.4 368.1,63.4 369.7,63.3 371.3,63.1 372.9,63.0 374.5,62.8 376.1,62.6 377.7,62.4 379.3,62.3 380.9,62.2 382.5,62.0 384.1,61.9 385.7,61.6 387.3,61.4 388.9,61.2 390.5,61.0 392.1,60.9 393.7,60.8 395.3,60.7 396.9,60.6 398.5,60.5 400.1,60.3 401.8,60.1 403.4,59.9 405.0,59.7 406.6,59.6 408.2,59.5 409.8,59.3 411.4,59.1 413.0,59.0 414.6,58.9 416.2,58.7 417.8,58.5 419.4,58.4 421.0,58.2 422.6,58.1 424.2,58.0 425.8,57.9 427.4,57.8 429.0,57.6 430.6,57.5 432.2,57.4 433.8,57.3 435.4,56.9 437.0,56.7 438.6,61.5 440.2,60.5 441.8,58.7 443.4,58.0 445.0,57.2 446.6,56.2 448.2,55.6 449.8,55.3 451.4,54.6 453.0,53.5 454.6,52.8 456.2,52.5 457.8,52.1 459.4,51.8 461.0,51.3 462.6,50.8 464.2,50.2 465.8,49.9 467.4,49.4 469.1,49.2 470.7,48.8 472.3,48.6 473.9,48.3 475.5,48.0 477.1,47.5 478.7,47.2 480.3,46.7 481.9,46.0 483.5,45.6 485.1,45.4 486.7,45.2 488.3,45.0 489.9,44.6 491.5,44.2 493.1,43.9 494.7,42.9 496.3,42.2 497.9,41.8 499.5,41.6 501.1,41.3 502.7,40.8 504.3,40.4 505.9,40.0 507.5,39.7 509.1,39.3 510.7,39.0 512.3,38.7 513.9,38.3 515.5,38.0 517.1,37.8 518.7,37.6 520.3,37.2 521.9,36.9 523.5,36.6 525.1,36.5 526.7,36.3 528.3,36.0 529.9,35.8 531.5,35.6 533.1,35.4 534.7,35.2 536.4,35.1 538.0,34.7 539.6,34.5 541.2,34.2 542.8,33.8 544.4,33.4 546.0,33.3 547.6,33.1 549.2,32.9 550.8,32.7 552.4,32.5 554.0,32.3 555.6,32.2 557.2,32.0 558.8,31.8 560.4,31.7 562.0,31.4 563.6,31.2 565.2,31.0 566.8,30.8 568.4,30.4 570.0,30.0" />
  
  <!-- Punto finale luminoso -->
  <circle cx="570.0" cy="30.0" r="4" fill="#ffffff" stroke="#0366d6" stroke-width="2.5" />
</svg>