<svg width="600" height="150" viewBox="0 0 600 150" xmlns="http://www.w3.org/2000/svg">
  <defs>
    <filter id="shadow2" x="-2%" y="-2%" width="104%" height="108%">
      <feDropShadow dx="0" dy="2" stdDeviation="3" flood-opacity="0.1" />
    </filter>
    <linearGradient id="fillGrad" x1="0" y1="0" x2="0" y2="1">
      <stop offset="0%" stop-color="#0366d6" stop-opacity="0.3"/>
      <stop offset="100%" stop-color="#0366d6" stop-opacity="0.02"/>
    </linearGradient>
  </defs>
  <rect width="600" height="150" rx="12" fill="#ffffff" filter="url(#shadow2)" stroke="#e1e4e8" stroke-width="1"/>
  <text x="20" y="24" fill="#2b3137" font-family="-apple-system,BlinkMacSystemFont,'Segoe UI',Helvetica,Arial,sans-serif" font-size="14" font-weight="600">📈 Download Growth (Actual: 87.0k)</text>
  
  <!-- Area sotto la linea -->
  <polygon fill="url(#fillGrad)" points="30.0,120.0,120 30.0,120.0 31.4,119.5 32.7,119.0 34.1,118.5 35.4,118.4 36.8,118.1 38.1,117.5 39.5,117.1 40.8,116.9 42.2,116.3 43.5,116.0 44.9,115.7 46.2,115.5 47.6,115.2 48.9,114.8 50.3,114.4 51.7,114.1 53.0,113.8 54.4,113.7 55.7,113.4 57.1,113.1 58.4,112.8 59.8,112.7 61.1,112.4 62.5,111.5 63.8,111.2 65.2,110.8 66.5,110.4 67.9,110.1 69.2,109.8 70.6,109.6 72.0,109.4 73.3,109.2 74.7,108.7 76.0,108.3 77.4,108.1 78.7,107.7 80.1,107.6 81.4,107.6 82.8,107.4 84.1,107.1 85.5,106.9 86.8,106.8 88.2,106.4 89.5,105.9 90.9,105.8 92.3,105.7 93.6,105.5 95.0,105.1 96.3,104.8 97.7,104.4 99.0,104.1 100.4,103.8 101.7,103.7 103.1,103.5 104.4,103.1 105.8,102.7 107.1,102.4 108.5,102.3 109.8,102.1 111.2,101.9 112.6,101.5 113.9,101.1 115.3,100.7 116.6,100.4 118.0,100.2 119.3,100.1 120.7,100.0 122.0,99.7 123.4,99.5 124.7,99.3 126.1,99.2 127.4,99.0 128.8,98.8 130.2,98.7 131.5,98.6 132.9,98.5 134.2,98.1 135.6,97.9 136.9,97.8 138.3,97.7 139.6,97.6 141.0,97.6 142.3,104.0 143.7,103.4 145.0,102.8 146.4,102.2 147.7,100.5 149.1,99.3 150.5,98.0 151.8,97.5 153.2,96.9 154.5,96.0 155.9,95.1 157.2,94.4 158.6,94.1 159.9,93.8 161.3,93.1 162.6,92.6 164.0,92.3 165.3,91.9 166.7,91.7 168.0,91.6 169.4,91.3 170.8,90.7 172.1,90.2 173.5,89.8 174.8,89.3 176.2,89.1 177.5,88.9 178.9,88.5 180.2,88.1 181.6,87.8 182.9,87.5 184.3,87.4 185.6,87.3 187.0,87.1 188.3,86.8 189.7,86.5 191.1,86.3 192.4,86.1 193.8,85.9 195.1,85.7 196.5,85.6 197.8,85.4 199.2,85.3 200.5,84.9 201.9,84.7 203.2,84.4 204.6,84.2 205.9,84.0 207.3,83.9 208.6,83.8 210.0,83.6 211.4,83.2 212.7,82.9 214.1,82.5 215.4,82.3 216.8,82.3 218.1,82.1 219.5,81.9 220.8,81.7 222.2,81.4 223.5,81.1 224.9,81.0 226.2,80.9 227.6,80.7 228.9,80.6 230.3,80.5 231.7,80.3 233.0,80.1 234.4,79.8 235.7,79.7 237.1,79.6 238.4,79.5 239.8,79.4 241.1,79.2 242.5,79.0 243.8,78.7 245.2,78.6 246.5,78.3 247.9,78.2 249.2,78.1 250.6,78.0 252.0,77.7 253.3,77.4 254.7,77.2 256.0,77.0 257.4,76.7 258.7,76.6 260.1,76.5 261.4,76.4 262.8,76.2 264.1,76.1 265.5,75.9 266.8,75.7 268.2,75.6 269.5,75.4 270.9,75.3 272.3,75.2 273.6,75.1 275.0,74.9 276.3,74.6 277.7,74.5 279.0,74.3 280.4,74.2 281.7,74.1 283.1,73.9 284.4,73.8 285.8,73.7 287.1,73.6 288.5,73.3 289.8,73.0 291.2,72.8 292.6,72.6 293.9,72.6 295.3,72.5 296.6,72.3 298.0,72.1 299.3,72.0 300.7,71.9 302.0,71.7 303.4,71.5 304.7,71.3 306.1,71.2 307.4,71.1 308.8,70.9 310.2,70.7 311.5,70.5 312.9,70.3 314.2,70.2 315.6,70.2 316.9,70.1 318.3,70.0 319.6,69.8 321.0,69.7 322.3,69.5 323.7,69.3 325.0,69.2 326.4,69.1 327.7,69.0 329.1,68.9 330.5,68.6 331.8,68.4 333.2,68.3 334.5,68.1 335.9,68.0 337.2,67.9 338.6,67.8 339.9,67.7 341.3,67.6 342.6,67.5 344.0,67.3 345.3,67.1 346.7,67.0 348.0,66.9 349.4,66.8 350.8,66.6 352.1,66.4 353.5,66.3 354.8,66.2 356.2,66.1 357.5,65.9 358.9,65.8 360.2,65.6 361.6,65.5 362.9,65.5 364.3,65.3 365.6,65.2 367.0,65.1 368.3,65.0 369.7,64.9 371.1,64.8 372.4,64.5 373.8,64.3 375.1,68.5 376.5,67.7 377.8,66.1 379.2,65.5 380.5,64.8 381.9,63.9 383.2,63.4 384.6,63.0 385.9,62.4 387.3,61.5 388.6,60.8 390.0,60.6 391.4,60.3 392.7,60.0 394.1,59.6 395.4,59.1 396.8,58.6 398.1,58.4 399.5,57.9 400.8,57.7 402.2,57.3 403.5,57.1 404.9,56.9 406.2,56.7 407.6,56.2 408.9,55.9 410.3,55.5 411.7,54.9 413.0,54.6 414.4,54.4 415.7,54.2 417.1,54.0 418.4,53.6 419.8,53.3 421.1,53.0 422.5,52.2 423.8,51.5 425.2,51.2 426.5,51.0 427.9,50.7 429.2,50.3 430.6,49.9 432.0,49.6 433.3,49.3 434.7,49.0 436.0,48.8 437.4,48.5 438.7,48.1 440.1,47.9 441.4,47.7 442.8,47.5 444.1,47.1 445.5,46.9 446.8,46.7 448.2,46.5 449.5,46.4 450.9,46.1 452.3,46.0 453.6,45.8 455.0,45.6 456.3,45.4 457.7,45.3 459.0,45.0 460.4,44.8 461.7,44.5 463.1,44.1 464.4,43.9 465.8,43.7 467.1,43.5 468.5,43.4 469.8,43.2 471.2,43.0 472.6,42.9 473.9,42.8 475.3,42.6 476.6,42.4 478.0,42.3 479.3,42.0 480.7,41.9 482.0,41.7 483.4,41.5 484.7,41.2 486.1,40.8 487.4,40.6 488.8,40.4 490.2,40.2 491.5,40.0 492.9,39.8 494.2,39.5 495.6,39.3 496.9,39.3 498.3,39.1 499.6,38.9 501.0,38.7 502.3,38.5 503.7,38.4 505.0,38.2 506.4,37.9 507.7,37.8 509.1,37.5 510.5,37.3 511.8,37.0 513.2,36.8 514.5,36.6 515.9,36.5 517.2,36.3 518.6,36.2 519.9,36.0 521.3,35.8 522.6,35.6 524.0,35.5 525.3,35.3 526.7,35.2 528.0,35.0 529.4,34.9 530.8,34.7 532.1,34.6 533.5,34.5 534.8,34.3 536.2,34.2 537.5,34.0 538.9,33.8 540.2,33.7 541.6,33.5 542.9,33.3 544.3,33.1 545.6,33.0 547.0,32.9 548.3,32.7 549.7,32.5 551.1,32.3 552.4,32.0 553.8,31.9 555.1,31.8 556.5,31.8 557.8,31.6 559.2,31.4 560.5,31.2 561.9,30.9 563.2,30.8 564.6,30.6 565.9,30.5 567.3,30.4 568.6,30.2 570.0,30.0 570.0,30.0,120" />
  
  <!-- Linea principale -->
  <polyline fill="none" stroke="#0366d6" stroke-width="2.5" stroke-linecap="round" stroke-linejoin="round" points="30.0,120.0 31.4,119.5 32.7,119.0 34.1,118.5 35.4,118.4 36.8,118.1 38.1,117.5 39.5,117.1 40.8,116.9 42.2,116.3 43.5,116.0 44.9,115.7 46.2,115.5 47.6,115.2 48.9,114.8 50.3,114.4 51.7,114.1 53.0,113.8 54.4,113.7 55.7,113.4 57.1,113.1 58.4,112.8 59.8,112.7 61.1,112.4 62.5,111.5 63.8,111.2 65.2,110.8 66.5,110.4 67.9,110.1 69.2,109.8 70.6,109.6 72.0,109.4 73.3,109.2 74.7,108.7 76.0,108.3 77.4,108.1 78.7,107.7 80.1,107.6 81.4,107.6 82.8,107.4 84.1,107.1 85.5,106.9 86.8,106.8 88.2,106.4 89.5,105.9 90.9,105.8 92.3,105.7 93.6,105.5 95.0,105.1 96.3,104.8 97.7,104.4 99.0,104.1 100.4,103.8 101.7,103.7 103.1,103.5 104.4,103.1 105.8,102.7 107.1,102.4 108.5,102.3 109.8,102.1 111.2,101.9 112.6,101.5 113.9,101.1 115.3,100.7 116.6,100.4 118.0,100.2 119.3,100.1 120.7,100.0 122.0,99.7 123.4,99.5 124.7,99.3 126.1,99.2 127.4,99.0 128.8,98.8 130.2,98.7 131.5,98.6 132.9,98.5 134.2,98.1 135.6,97.9 136.9,97.8 138.3,97.7 139.6,97.6 141.0,97.6 142.3,104.0 143.7,103.4 145.0,102.8 146.4,102.2 147.7,100.5 149.1,99.3 150.5,98.0 151.8,97.5 153.2,96.9 154.5,96.0 155.9,95.1 157.2,94.4 158.6,94.1 159.9,93.8 161.3,93.1 162.6,92.6 164.0,92.3 165.3,91.9 166.7,91.7 168.0,91.6 169.4,91.3 170.8,90.7 172.1,90.2 173.5,89.8 174.8,89.3 176.2,89.1 177.5,88.9 178.9,88.5 180.2,88.1 181.6,87.8 182.9,87.5 184.3,87.4 185.6,87.3 187.0,87.1 188.3,86.8 189.7,86.5 191.1,86.3 192.4,86.1 193.8,85.9 195.1,85.7 196.5,85.6 197.8,85.4 199.2,85.3 200.5,84.9 201.9,84.7 203.2,84.4 204.6,84.2 205.9,84.0 207.3,83.9 208.6,83.8 210.0,83.6 211.4,83.2 212.7,82.9 214.1,82.5 215.4,82.3 216.8,82.3 218.1,82.1 219.5,81.9 220.8,81.7 222.2,81.4 223.5,81.1 224.9,81.0 226.2,80.9 227.6,80.7 228.9,80.6 230.3,80.5 231.7,80.3 233.0,80.1 234.4,79.8 235.7,79.7 237.1,79.6 238.4,79.5 239.8,79.4 241.1,79.2 242.5,79.0 243.8,78.7 245.2,78.6 246.5,78.3 247.9,78.2 249.2,78.1 250.6,78.0 252.0,77.7 253.3,77.4 254.7,77.2 256.0,77.0 257.4,76.7 258.7,76.6 260.1,76.5 261.4,76.4 262.8,76.2 264.1,76.1 265.5,75.9 266.8,75.7 268.2,75.6 269.5,75.4 270.9,75.3 272.3,75.2 273.6,75.1 275.0,74.9 276.3,74.6 277.7,74.5 279.0,74.3 280.4,74.2 281.7,74.1 283.1,73.9 284.4,73.8 285.8,73.7 287.1,73.6 288.5,73.3 289.8,73.0 291.2,72.8 292.6,72.6 293.9,72.6 295.3,72.5 296.6,72.3 298.0,72.1 299.3,72.0 300.7,71.9 302.0,71.7 303.4,71.5 304.7,71.3 306.1,71.2 307.4,71.1 308.8,70.9 310.2,70.7 311.5,70.5 312.9,70.3 314.2,70.2 315.6,70.2 316.9,70.1 318.3,70.0 319.6,69.8 321.0,69.7 322.3,69.5 323.7,69.3 325.0,69.2 326.4,69.1 327.7,69.0 329.1,68.9 330.5,68.6 331.8,68.4 333.2,68.3 334.5,68.1 335.9,68.0 337.2,67.9 338.6,67.8 339.9,67.7 341.3,67.6 342.6,67.5 344.0,67.3 345.3,67.1 346.7,67.0 348.0,66.9 349.4,66.8 350.8,66.6 352.1,66.4 353.5,66.3 354.8,66.2 356.2,66.1 357.5,65.9 358.9,65.8 360.2,65.6 361.6,65.5 362.9,65.5 364.3,65.3 365.6,65.2 367.0,65.1 368.3,65.0 369.7,64.9 371.1,64.8 372.4,64.5 373.8,64.3 375.1,68.5 376.5,67.7 377.8,66.1 379.2,65.5 380.5,64.8 381.9,63.9 383.2,63.4 384.6,63.0 385.9,62.4 387.3,61.5 388.6,60.8 390.0,60.6 391.4,60.3 392.7,60.0 394.1,59.6 395.4,59.1 396.8,58.6 398.1,58.4 399.5,57.9 400.8,57.7 402.2,57.3 403.5,57.1 404.9,56.9 406.2,56.7 407.6,56.2 408.9,55.9 410.3,55.5 411.7,54.9 413.0,54.6 414.4,54.4 415.7,54.2 417.1,54.0 418.4,53.6 419.8,53.3 421.1,53.0 422.5,52.2 423.8,51.5 425.2,51.2 426.5,51.0 427.9,50.7 429.2,50.3 430.6,49.9 432.0,49.6 433.3,49.3 434.7,49.0 436.0,48.8 437.4,48.5 438.7,48.1 440.1,47.9 441.4,47.7 442.8,47.5 444.1,47.1 445.5,46.9 446.8,46.7 448.2,46.5 449.5,46.4 450.9,46.1 452.3,46.0 453.6,45.8 455.0,45.6 456.3,45.4 457.7,45.3 459.0,45.0 460.4,44.8 461.7,44.5 463.1,44.1 464.4,43.9 465.8,43.7 467.1,43.5 468.5,43.4 469.8,43.2 471.2,43.0 472.6,42.9 473.9,42.8 475.3,42.6 476.6,42.4 478.0,42.3 479.3,42.0 480.7,41.9 482.0,41.7 483.4,41.5 484.7,41.2 486.1,40.8 487.4,40.6 488.8,40.4 490.2,40.2 491.5,40.0 492.9,39.8 494.2,39.5 495.6,39.3 496.9,39.3 498.3,39.1 499.6,38.9 501.0,38.7 502.3,38.5 503.7,38.4 505.0,38.2 506.4,37.9 507.7,37.8 509.1,37.5 510.5,37.3 511.8,37.0 513.2,36.8 514.5,36.6 515.9,36.5 517.2,36.3 518.6,36.2 519.9,36.0 521.3,35.8 522.6,35.6 524.0,35.5 525.3,35.3 526.7,35.2 528.0,35.0 529.4,34.9 530.8,34.7 532.1,34.6 533.5,34.5 534.8,34.3 536.2,34.2 537.5,34.0 538.9,33.8 540.2,33.7 541.6,33.5 542.9,33.3 544.3,33.1 545.6,33.0 547.0,32.9 548.3,32.7 549.7,32.5 551.1,32.3 552.4,32.0 553.8,31.9 555.1,31.8 556.5,31.8 557.8,31.6 559.2,31.4 560.5,31.2 561.9,30.9 563.2,30.8 564.6,30.6 565.9,30.5 567.3,30.4 568.6,30.2 570.0,30.0" />
  
  <!-- Punto finale luminoso -->
  <circle cx="570.0" cy="30.0" r="4" fill="#ffffff" stroke="#0366d6" stroke-width="2.5" />
</svg>