<svg width="600" height="150" viewBox="0 0 600 150" xmlns="http://www.w3.org/2000/svg">
  <defs>
    <filter id="shadow2" x="-2%" y="-2%" width="104%" height="108%">
      <feDropShadow dx="0" dy="2" stdDeviation="3" flood-opacity="0.1" />
    </filter>
    <linearGradient id="fillGrad" x1="0" y1="0" x2="0" y2="1">
      <stop offset="0%" stop-color="#0366d6" stop-opacity="0.3"/>
      <stop offset="100%" stop-color="#0366d6" stop-opacity="0.02"/>
    </linearGradient>
  </defs>
  <rect width="600" height="150" rx="12" fill="#ffffff" filter="url(#shadow2)" stroke="#e1e4e8" stroke-width="1"/>
  <text x="20" y="24" fill="#2b3137" font-family="-apple-system,BlinkMacSystemFont,'Segoe UI',Helvetica,Arial,sans-serif" font-size="14" font-weight="600">📈 Download Growth (Actual: 71.9k)</text>
  
  <!-- Area sotto la linea -->
  <polygon fill="url(#fillGrad)" points="30.0,120.0,120 30.0,120.0 36.4,118.0 42.9,115.8 49.3,113.9 55.7,113.4 62.1,112.4 68.6,110.0 75.0,108.5 81.4,107.4 87.9,105.0 94.3,103.8 100.7,102.6 107.1,101.9 113.6,100.8 120.0,99.2 126.4,97.4 132.9,96.1 139.3,95.2 145.7,94.6 152.1,93.5 158.6,92.2 165.0,91.1 171.4,90.5 177.9,89.5 184.3,85.7 190.7,84.5 197.1,83.0 203.6,81.5 210.0,80.2 216.4,79.0 222.9,78.1 229.3,77.5 235.7,76.4 242.1,74.6 248.6,73.0 255.0,71.9 261.4,70.6 267.9,70.3 274.3,70.0 280.7,69.3 287.1,68.1 293.6,67.4 300.0,66.8 306.4,65.5 312.9,63.4 319.3,62.9 325.7,62.5 332.1,61.7 338.6,60.1 345.0,59.0 351.4,57.3 357.9,56.1 364.3,54.6 370.7,54.3 377.1,53.4 383.6,51.9 390.0,50.4 396.4,49.2 402.9,48.7 409.3,47.9 415.7,47.2 422.1,45.5 428.6,43.9 435.0,42.5 441.4,41.1 447.9,40.4 454.3,40.0 460.7,39.3 467.1,38.2 473.6,37.4 480.0,36.8 486.4,36.2 492.9,35.7 499.3,34.8 505.7,34.3 512.1,33.9 518.6,33.5 525.0,32.0 531.4,31.1 537.9,30.8 544.3,30.3 550.7,30.0 557.1,30.0 563.6,55.7 570.0,53.2 570.0,53.2,120" />
  
  <!-- Linea principale -->
  <polyline fill="none" stroke="#0366d6" stroke-width="2.5" stroke-linecap="round" stroke-linejoin="round" points="30.0,120.0 36.4,118.0 42.9,115.8 49.3,113.9 55.7,113.4 62.1,112.4 68.6,110.0 75.0,108.5 81.4,107.4 87.9,105.0 94.3,103.8 100.7,102.6 107.1,101.9 113.6,100.8 120.0,99.2 126.4,97.4 132.9,96.1 139.3,95.2 145.7,94.6 152.1,93.5 158.6,92.2 165.0,91.1 171.4,90.5 177.9,89.5 184.3,85.7 190.7,84.5 197.1,83.0 203.6,81.5 210.0,80.2 216.4,79.0 222.9,78.1 229.3,77.5 235.7,76.4 242.1,74.6 248.6,73.0 255.0,71.9 261.4,70.6 267.9,70.3 274.3,70.0 280.7,69.3 287.1,68.1 293.6,67.4 300.0,66.8 306.4,65.5 312.9,63.4 319.3,62.9 325.7,62.5 332.1,61.7 338.6,60.1 345.0,59.0 351.4,57.3 357.9,56.1 364.3,54.6 370.7,54.3 377.1,53.4 383.6,51.9 390.0,50.4 396.4,49.2 402.9,48.7 409.3,47.9 415.7,47.2 422.1,45.5 428.6,43.9 435.0,42.5 441.4,41.1 447.9,40.4 454.3,40.0 460.7,39.3 467.1,38.2 473.6,37.4 480.0,36.8 486.4,36.2 492.9,35.7 499.3,34.8 505.7,34.3 512.1,33.9 518.6,33.5 525.0,32.0 531.4,31.1 537.9,30.8 544.3,30.3 550.7,30.0 557.1,30.0 563.6,55.7 570.0,53.2" />
  
  <!-- Punto finale luminoso -->
  <circle cx="570.0" cy="53.2" r="4" fill="#ffffff" stroke="#0366d6" stroke-width="2.5" />
</svg>