<svg width="600" height="150" viewBox="0 0 600 150" xmlns="http://www.w3.org/2000/svg">
  <defs>
    <filter id="shadow2" x="-2%" y="-2%" width="104%" height="108%">
      <feDropShadow dx="0" dy="2" stdDeviation="3" flood-opacity="0.1" />
    </filter>
    <linearGradient id="fillGrad" x1="0" y1="0" x2="0" y2="1">
      <stop offset="0%" stop-color="#0366d6" stop-opacity="0.3"/>
      <stop offset="100%" stop-color="#0366d6" stop-opacity="0.02"/>
    </linearGradient>
  </defs>
  <rect width="600" height="150" rx="12" fill="#ffffff" filter="url(#shadow2)" stroke="#e1e4e8" stroke-width="1"/>
  <text x="20" y="24" fill="#2b3137" font-family="-apple-system,BlinkMacSystemFont,'Segoe UI',Helvetica,Arial,sans-serif" font-size="14" font-weight="600">📈 Download Growth (Actual: 70.9k)</text>
  
  <!-- Area sotto la linea -->
  <polygon fill="url(#fillGrad)" points="30.0,120.0,120 30.0,120.0 39.0,117.5 48.0,114.8 57.0,112.4 66.0,111.8 75.0,110.6 84.0,107.7 93.0,105.7 102.0,104.4 111.0,101.4 120.0,99.9 129.0,98.5 138.0,97.6 147.0,96.2 156.0,94.2 165.0,92.1 174.0,90.4 183.0,89.3 192.0,88.5 201.0,87.2 210.0,85.6 219.0,84.2 228.0,83.6 237.0,82.2 246.0,77.5 255.0,76.1 264.0,74.3 273.0,72.4 282.0,70.8 291.0,69.2 300.0,68.2 309.0,67.4 318.0,66.1 327.0,63.8 336.0,61.9 345.0,60.5 354.0,58.9 363.0,58.5 372.0,58.1 381.0,57.3 390.0,55.8 399.0,54.9 408.0,54.2 417.0,52.5 426.0,50.0 435.0,49.4 444.0,48.9 453.0,47.9 462.0,45.9 471.0,44.6 480.0,42.5 489.0,41.0 498.0,39.2 507.0,38.8 516.0,37.7 525.0,35.8 534.0,33.9 543.0,32.5 552.0,31.8 561.0,30.8 570.0,30.0 570.0,30.0,120" />
  
  <!-- Linea principale -->
  <polyline fill="none" stroke="#0366d6" stroke-width="2.5" stroke-linecap="round" stroke-linejoin="round" points="30.0,120.0 39.0,117.5 48.0,114.8 57.0,112.4 66.0,111.8 75.0,110.6 84.0,107.7 93.0,105.7 102.0,104.4 111.0,101.4 120.0,99.9 129.0,98.5 138.0,97.6 147.0,96.2 156.0,94.2 165.0,92.1 174.0,90.4 183.0,89.3 192.0,88.5 201.0,87.2 210.0,85.6 219.0,84.2 228.0,83.6 237.0,82.2 246.0,77.5 255.0,76.1 264.0,74.3 273.0,72.4 282.0,70.8 291.0,69.2 300.0,68.2 309.0,67.4 318.0,66.1 327.0,63.8 336.0,61.9 345.0,60.5 354.0,58.9 363.0,58.5 372.0,58.1 381.0,57.3 390.0,55.8 399.0,54.9 408.0,54.2 417.0,52.5 426.0,50.0 435.0,49.4 444.0,48.9 453.0,47.9 462.0,45.9 471.0,44.6 480.0,42.5 489.0,41.0 498.0,39.2 507.0,38.8 516.0,37.7 525.0,35.8 534.0,33.9 543.0,32.5 552.0,31.8 561.0,30.8 570.0,30.0" />
  
  <!-- Punto finale luminoso -->
  <circle cx="570.0" cy="30.0" r="4" fill="#ffffff" stroke="#0366d6" stroke-width="2.5" />
</svg>