<svg width="600" height="150" viewBox="0 0 600 150" xmlns="http://www.w3.org/2000/svg">
  <defs>
    <filter id="shadow2" x="-2%" y="-2%" width="104%" height="108%">
      <feDropShadow dx="0" dy="2" stdDeviation="3" flood-opacity="0.1" />
    </filter>
    <linearGradient id="fillGrad" x1="0" y1="0" x2="0" y2="1">
      <stop offset="0%" stop-color="#0366d6" stop-opacity="0.3"/>
      <stop offset="100%" stop-color="#0366d6" stop-opacity="0.02"/>
    </linearGradient>
  </defs>
  <rect width="600" height="150" rx="12" fill="#ffffff" filter="url(#shadow2)" stroke="#e1e4e8" stroke-width="1"/>
  <text x="20" y="24" fill="#2b3137" font-family="-apple-system,BlinkMacSystemFont,'Segoe UI',Helvetica,Arial,sans-serif" font-size="14" font-weight="600">📈 Download Growth (Actual: 76.6k)</text>
  
  <!-- Area sotto la linea -->
  <polygon fill="url(#fillGrad)" points="30.0,120.0,120 30.0,120.0 33.2,119.0 36.4,117.8 39.6,116.8 42.8,116.6 46.0,116.1 49.2,114.9 52.4,114.1 55.6,113.5 58.8,112.3 62.0,111.6 65.1,111.0 68.3,110.7 71.5,110.1 74.7,109.3 77.9,108.4 81.1,107.7 84.3,107.2 87.5,106.9 90.7,106.3 93.9,105.7 97.1,105.1 100.3,104.8 103.5,104.3 106.7,102.3 109.9,101.7 113.1,101.0 116.3,100.2 119.5,99.5 122.7,98.9 125.9,98.4 129.1,98.1 132.2,97.6 135.4,96.6 138.6,95.8 141.8,95.2 145.0,94.6 148.2,94.4 151.4,94.2 154.6,93.9 157.8,93.2 161.0,92.9 164.2,92.6 167.4,91.9 170.6,90.8 173.8,90.6 177.0,90.4 180.2,90.0 183.4,89.1 186.6,88.6 189.8,87.7 193.0,87.1 196.2,86.3 199.3,86.2 202.5,85.7 205.7,84.9 208.9,84.1 212.1,83.5 215.3,83.3 218.5,82.9 221.7,82.5 224.9,81.6 228.1,80.8 231.3,80.1 234.5,79.4 237.7,79.0 240.9,78.8 244.1,78.4 247.3,77.8 250.5,77.5 253.7,77.1 256.9,76.8 260.1,76.6 263.3,76.1 266.4,75.8 269.6,75.7 272.8,75.5 276.0,74.7 279.2,74.2 282.4,74.1 285.6,73.8 288.8,73.6 292.0,73.6 295.2,86.9 298.4,85.6 301.6,84.4 304.8,83.2 308.0,79.6 311.2,77.0 314.4,74.3 317.6,73.3 320.8,72.2 324.0,70.3 327.2,68.3 330.4,66.8 333.6,66.3 336.7,65.7 339.9,64.3 343.1,63.2 346.3,62.5 349.5,61.7 352.7,61.3 355.9,61.2 359.1,60.4 362.3,59.2 365.5,58.3 368.7,57.4 371.9,56.4 375.1,55.9 378.3,55.6 381.5,54.7 384.7,54.0 387.9,53.2 391.1,52.6 394.3,52.4 397.5,52.2 400.7,51.7 403.8,51.1 407.0,50.6 410.2,50.1 413.4,49.7 416.6,49.4 419.8,49.0 423.0,48.6 426.2,48.3 429.4,48.0 432.6,47.3 435.8,46.8 439.0,46.2 442.2,45.9 445.4,45.5 448.6,45.2 451.8,44.9 455.0,44.6 458.2,43.6 461.4,43.0 464.6,42.2 467.8,41.9 470.9,41.8 474.1,41.4 477.3,41.0 480.5,40.5 483.7,40.0 486.9,39.4 490.1,39.1 493.3,38.9 496.5,38.6 499.7,38.3 502.9,38.0 506.1,37.6 509.3,37.3 512.5,36.7 515.7,36.5 518.9,36.3 522.1,36.0 525.3,35.8 528.5,35.3 531.7,34.9 534.9,34.5 538.0,34.1 541.2,33.6 544.4,33.3 547.6,33.2 550.8,32.9 554.0,32.3 557.2,31.7 560.4,31.3 563.6,30.9 566.8,30.2 570.0,30.0 570.0,30.0,120" />
  
  <!-- Linea principale -->
  <polyline fill="none" stroke="#0366d6" stroke-width="2.5" stroke-linecap="round" stroke-linejoin="round" points="30.0,120.0 33.2,119.0 36.4,117.8 39.6,116.8 42.8,116.6 46.0,116.1 49.2,114.9 52.4,114.1 55.6,113.5 58.8,112.3 62.0,111.6 65.1,111.0 68.3,110.7 71.5,110.1 74.7,109.3 77.9,108.4 81.1,107.7 84.3,107.2 87.5,106.9 90.7,106.3 93.9,105.7 97.1,105.1 100.3,104.8 103.5,104.3 106.7,102.3 109.9,101.7 113.1,101.0 116.3,100.2 119.5,99.5 122.7,98.9 125.9,98.4 129.1,98.1 132.2,97.6 135.4,96.6 138.6,95.8 141.8,95.2 145.0,94.6 148.2,94.4 151.4,94.2 154.6,93.9 157.8,93.2 161.0,92.9 164.2,92.6 167.4,91.9 170.6,90.8 173.8,90.6 177.0,90.4 180.2,90.0 183.4,89.1 186.6,88.6 189.8,87.7 193.0,87.1 196.2,86.3 199.3,86.2 202.5,85.7 205.7,84.9 208.9,84.1 212.1,83.5 215.3,83.3 218.5,82.9 221.7,82.5 224.9,81.6 228.1,80.8 231.3,80.1 234.5,79.4 237.7,79.0 240.9,78.8 244.1,78.4 247.3,77.8 250.5,77.5 253.7,77.1 256.9,76.8 260.1,76.6 263.3,76.1 266.4,75.8 269.6,75.7 272.8,75.5 276.0,74.7 279.2,74.2 282.4,74.1 285.6,73.8 288.8,73.6 292.0,73.6 295.2,86.9 298.4,85.6 301.6,84.4 304.8,83.2 308.0,79.6 311.2,77.0 314.4,74.3 317.6,73.3 320.8,72.2 324.0,70.3 327.2,68.3 330.4,66.8 333.6,66.3 336.7,65.7 339.9,64.3 343.1,63.2 346.3,62.5 349.5,61.7 352.7,61.3 355.9,61.2 359.1,60.4 362.3,59.2 365.5,58.3 368.7,57.4 371.9,56.4 375.1,55.9 378.3,55.6 381.5,54.7 384.7,54.0 387.9,53.2 391.1,52.6 394.3,52.4 397.5,52.2 400.7,51.7 403.8,51.1 407.0,50.6 410.2,50.1 413.4,49.7 416.6,49.4 419.8,49.0 423.0,48.6 426.2,48.3 429.4,48.0 432.6,47.3 435.8,46.8 439.0,46.2 442.2,45.9 445.4,45.5 448.6,45.2 451.8,44.9 455.0,44.6 458.2,43.6 461.4,43.0 464.6,42.2 467.8,41.9 470.9,41.8 474.1,41.4 477.3,41.0 480.5,40.5 483.7,40.0 486.9,39.4 490.1,39.1 493.3,38.9 496.5,38.6 499.7,38.3 502.9,38.0 506.1,37.6 509.3,37.3 512.5,36.7 515.7,36.5 518.9,36.3 522.1,36.0 525.3,35.8 528.5,35.3 531.7,34.9 534.9,34.5 538.0,34.1 541.2,33.6 544.4,33.3 547.6,33.2 550.8,32.9 554.0,32.3 557.2,31.7 560.4,31.3 563.6,30.9 566.8,30.2 570.0,30.0" />
  
  <!-- Punto finale luminoso -->
  <circle cx="570.0" cy="30.0" r="4" fill="#ffffff" stroke="#0366d6" stroke-width="2.5" />
</svg>