<svg width="600" height="150" viewBox="0 0 600 150" xmlns="http://www.w3.org/2000/svg">
  <defs>
    <filter id="shadow2" x="-2%" y="-2%" width="104%" height="108%">
      <feDropShadow dx="0" dy="2" stdDeviation="3" flood-opacity="0.1" />
    </filter>
    <linearGradient id="fillGrad" x1="0" y1="0" x2="0" y2="1">
      <stop offset="0%" stop-color="#0366d6" stop-opacity="0.3"/>
      <stop offset="100%" stop-color="#0366d6" stop-opacity="0.02"/>
    </linearGradient>
  </defs>
  <rect width="600" height="150" rx="12" fill="#ffffff" filter="url(#shadow2)" stroke="#e1e4e8" stroke-width="1"/>
  <text x="20" y="24" fill="#2b3137" font-family="-apple-system,BlinkMacSystemFont,'Segoe UI',Helvetica,Arial,sans-serif" font-size="14" font-weight="600">📈 Download Growth (Actual: 74.8k)</text>
  
  <!-- Area sotto la linea -->
  <polygon fill="url(#fillGrad)" points="30.0,120.0,120 30.0,120.0 34.2,118.7 38.4,117.4 42.7,116.2 46.9,115.8 51.1,115.2 55.3,113.7 59.5,112.7 63.8,112.1 68.0,110.6 72.2,109.8 76.4,109.1 80.6,108.6 84.8,107.9 89.1,106.9 93.3,105.8 97.5,105.0 101.7,104.4 105.9,104.0 110.2,103.3 114.4,102.5 118.6,101.8 122.8,101.5 127.0,100.8 131.2,98.4 135.5,97.7 139.7,96.8 143.9,95.8 148.1,95.0 152.3,94.2 156.6,93.7 160.8,93.3 165.0,92.6 169.2,91.5 173.4,90.5 177.7,89.8 181.9,89.0 186.1,88.8 190.3,88.6 194.5,88.1 198.8,87.4 203.0,86.9 207.2,86.6 211.4,85.7 215.6,84.4 219.8,84.1 224.1,83.9 228.3,83.4 232.5,82.4 236.7,81.7 240.9,80.6 245.2,79.9 249.4,78.9 253.6,78.7 257.8,78.2 262.0,77.2 266.2,76.3 270.5,75.5 274.7,75.2 278.9,74.7 283.1,74.3 287.3,73.2 291.6,72.2 295.8,71.3 300.0,70.4 304.2,70.0 308.4,69.7 312.7,69.3 316.9,68.6 321.1,68.1 325.3,67.7 329.5,67.3 333.8,67.0 338.0,66.5 342.2,66.2 346.4,65.9 350.6,65.7 354.8,64.7 359.1,64.2 363.3,64.0 367.5,63.6 371.7,63.4 375.9,63.4 380.2,79.6 384.4,78.0 388.6,76.6 392.8,75.1 397.0,70.7 401.2,67.6 405.5,64.3 409.7,63.1 413.9,61.7 418.1,59.4 422.3,57.0 426.6,55.2 430.8,54.5 435.0,53.8 439.2,52.1 443.4,50.8 447.7,49.9 451.9,48.9 456.1,48.5 460.3,48.3 464.5,47.3 468.8,45.8 473.0,44.8 477.2,43.7 481.4,42.5 485.6,41.9 489.8,41.4 494.1,40.4 498.3,39.5 502.5,38.6 506.7,37.9 510.9,37.5 515.2,37.3 519.4,36.7 523.6,36.0 527.8,35.4 532.0,34.8 536.2,34.3 540.5,33.8 544.7,33.4 548.9,33.0 553.1,32.6 557.3,32.2 561.6,31.3 565.8,30.7 570.0,30.0 570.0,30.0,120" />
  
  <!-- Linea principale -->
  <polyline fill="none" stroke="#0366d6" stroke-width="2.5" stroke-linecap="round" stroke-linejoin="round" points="30.0,120.0 34.2,118.7 38.4,117.4 42.7,116.2 46.9,115.8 51.1,115.2 55.3,113.7 59.5,112.7 63.8,112.1 68.0,110.6 72.2,109.8 76.4,109.1 80.6,108.6 84.8,107.9 89.1,106.9 93.3,105.8 97.5,105.0 101.7,104.4 105.9,104.0 110.2,103.3 114.4,102.5 118.6,101.8 122.8,101.5 127.0,100.8 131.2,98.4 135.5,97.7 139.7,96.8 143.9,95.8 148.1,95.0 152.3,94.2 156.6,93.7 160.8,93.3 165.0,92.6 169.2,91.5 173.4,90.5 177.7,89.8 181.9,89.0 186.1,88.8 190.3,88.6 194.5,88.1 198.8,87.4 203.0,86.9 207.2,86.6 211.4,85.7 215.6,84.4 219.8,84.1 224.1,83.9 228.3,83.4 232.5,82.4 236.7,81.7 240.9,80.6 245.2,79.9 249.4,78.9 253.6,78.7 257.8,78.2 262.0,77.2 266.2,76.3 270.5,75.5 274.7,75.2 278.9,74.7 283.1,74.3 287.3,73.2 291.6,72.2 295.8,71.3 300.0,70.4 304.2,70.0 308.4,69.7 312.7,69.3 316.9,68.6 321.1,68.1 325.3,67.7 329.5,67.3 333.8,67.0 338.0,66.5 342.2,66.2 346.4,65.9 350.6,65.7 354.8,64.7 359.1,64.2 363.3,64.0 367.5,63.6 371.7,63.4 375.9,63.4 380.2,79.6 384.4,78.0 388.6,76.6 392.8,75.1 397.0,70.7 401.2,67.6 405.5,64.3 409.7,63.1 413.9,61.7 418.1,59.4 422.3,57.0 426.6,55.2 430.8,54.5 435.0,53.8 439.2,52.1 443.4,50.8 447.7,49.9 451.9,48.9 456.1,48.5 460.3,48.3 464.5,47.3 468.8,45.8 473.0,44.8 477.2,43.7 481.4,42.5 485.6,41.9 489.8,41.4 494.1,40.4 498.3,39.5 502.5,38.6 506.7,37.9 510.9,37.5 515.2,37.3 519.4,36.7 523.6,36.0 527.8,35.4 532.0,34.8 536.2,34.3 540.5,33.8 544.7,33.4 548.9,33.0 553.1,32.6 557.3,32.2 561.6,31.3 565.8,30.7 570.0,30.0" />
  
  <!-- Punto finale luminoso -->
  <circle cx="570.0" cy="30.0" r="4" fill="#ffffff" stroke="#0366d6" stroke-width="2.5" />
</svg>