<svg width="600" height="150" viewBox="0 0 600 150" xmlns="http://www.w3.org/2000/svg">
  <defs>
    <filter id="shadow2" x="-2%" y="-2%" width="104%" height="108%">
      <feDropShadow dx="0" dy="2" stdDeviation="3" flood-opacity="0.1" />
    </filter>
    <linearGradient id="fillGrad" x1="0" y1="0" x2="0" y2="1">
      <stop offset="0%" stop-color="#0366d6" stop-opacity="0.3"/>
      <stop offset="100%" stop-color="#0366d6" stop-opacity="0.02"/>
    </linearGradient>
  </defs>
  <rect width="600" height="150" rx="12" fill="#ffffff" filter="url(#shadow2)" stroke="#e1e4e8" stroke-width="1"/>
  <text x="20" y="24" fill="#2b3137" font-family="-apple-system,BlinkMacSystemFont,'Segoe UI',Helvetica,Arial,sans-serif" font-size="14" font-weight="600">📈 Download Growth (Actual: 84.3k)</text>
  
  <!-- Area sotto la linea -->
  <polygon fill="url(#fillGrad)" points="30.0,120.0,120 30.0,120.0 31.6,119.4 33.2,118.8 34.9,118.2 36.5,118.1 38.1,117.8 39.7,117.1 41.4,116.7 43.0,116.4 44.6,115.7 46.2,115.4 47.8,115.0 49.5,114.8 51.1,114.5 52.7,114.0 54.3,113.5 55.9,113.2 57.6,112.9 59.2,112.7 60.8,112.4 62.4,112.0 64.1,111.7 65.7,111.6 67.3,111.3 68.9,110.2 70.5,109.8 72.2,109.4 73.8,109.0 75.4,108.6 77.0,108.3 78.6,108.0 80.3,107.8 81.9,107.5 83.5,107.0 85.1,106.5 86.8,106.2 88.4,105.9 90.0,105.8 91.6,105.7 93.2,105.5 94.9,105.1 96.5,104.9 98.1,104.8 99.7,104.4 101.4,103.8 103.0,103.7 104.6,103.5 106.2,103.3 107.8,102.9 109.5,102.5 111.1,102.1 112.7,101.7 114.3,101.3 115.9,101.2 117.6,100.9 119.2,100.5 120.8,100.1 122.4,99.7 124.1,99.6 125.7,99.4 127.3,99.2 128.9,98.7 130.5,98.2 132.2,97.8 133.8,97.4 135.4,97.2 137.0,97.1 138.6,96.9 140.3,96.6 141.9,96.4 143.5,96.2 145.1,96.0 146.8,95.9 148.4,95.6 150.0,95.5 151.6,95.4 153.2,95.2 154.9,94.8 156.5,94.6 158.1,94.5 159.7,94.3 161.4,94.2 163.0,94.2 164.6,101.6 166.2,100.9 167.8,100.2 169.5,99.5 171.1,97.5 172.7,96.1 174.3,94.6 175.9,94.1 177.6,93.4 179.2,92.4 180.8,91.3 182.4,90.5 184.1,90.1 185.7,89.8 187.3,89.0 188.9,88.5 190.5,88.1 192.2,87.6 193.8,87.4 195.4,87.3 197.0,86.9 198.6,86.2 200.3,85.7 201.9,85.2 203.5,84.7 205.1,84.4 206.8,84.2 208.4,83.7 210.0,83.3 211.6,82.9 213.2,82.6 214.9,82.4 216.5,82.3 218.1,82.1 219.7,81.7 221.4,81.4 223.0,81.2 224.6,81.0 226.2,80.7 227.8,80.5 229.5,80.3 231.1,80.2 232.7,80.0 234.3,79.6 235.9,79.3 237.6,79.0 239.2,78.8 240.8,78.6 242.4,78.4 244.1,78.3 245.7,78.1 247.3,77.6 248.9,77.2 250.5,76.8 252.2,76.6 253.8,76.5 255.4,76.3 257.0,76.1 258.6,75.8 260.3,75.6 261.9,75.2 263.5,75.0 265.1,74.9 266.8,74.7 268.4,74.6 270.0,74.5 271.6,74.2 273.2,74.1 274.9,73.7 276.5,73.6 278.1,73.5 279.7,73.3 281.4,73.2 283.0,73.0 284.6,72.7 286.2,72.5 287.8,72.3 289.5,72.0 291.1,71.8 292.7,71.7 294.3,71.6 295.9,71.3 297.6,70.9 299.2,70.7 300.8,70.5 302.4,70.1 304.1,70.0 305.7,69.9 307.3,69.8 308.9,69.5 310.5,69.4 312.2,69.2 313.8,69.0 315.4,68.8 317.0,68.6 318.6,68.5 320.3,68.3 321.9,68.2 323.5,68.0 325.1,67.7 326.8,67.6 328.4,67.4 330.0,67.3 331.6,67.1 333.2,66.9 334.9,66.8 336.5,66.7 338.1,66.5 339.7,66.2 341.4,65.8 343.0,65.6 344.6,65.4 346.2,65.4 347.8,65.3 349.5,65.1 351.1,64.8 352.7,64.6 354.3,64.5 355.9,64.3 357.6,64.2 359.2,63.9 360.8,63.8 362.4,63.7 364.1,63.4 365.7,63.2 367.3,63.0 368.9,62.8 370.5,62.7 372.2,62.6 373.8,62.5 375.4,62.4 377.0,62.2 378.6,62.0 380.3,61.8 381.9,61.6 383.5,61.5 385.1,61.4 386.8,61.2 388.4,61.1 390.0,60.8 391.6,60.6 393.2,60.4 394.9,60.2 396.5,60.1 398.1,60.0 399.7,59.9 401.4,59.8 403.0,59.7 404.6,59.5 406.2,59.2 407.8,59.1 409.5,58.9 411.1,58.8 412.7,58.7 414.3,58.5 415.9,58.3 417.6,58.2 419.2,58.0 420.8,57.9 422.4,57.7 424.1,57.5 425.7,57.4 427.3,57.3 428.9,57.2 430.5,57.0 432.2,56.9 433.8,56.8 435.4,56.6 437.0,56.6 438.6,56.4 440.3,56.1 441.9,55.8 443.5,60.7 445.1,59.7 446.8,57.9 448.4,57.2 450.0,56.4 451.6,55.3 453.2,54.8 454.9,54.4 456.5,53.7 458.1,52.6 459.7,51.9 461.4,51.6 463.0,51.2 464.6,50.9 466.2,50.4 467.8,49.9 469.5,49.3 471.1,49.0 472.7,48.5 474.3,48.2 475.9,47.8 477.6,47.6 479.2,47.3 480.8,47.1 482.4,46.5 484.1,46.2 485.7,45.7 487.3,45.0 488.9,44.6 490.5,44.4 492.2,44.2 493.8,44.0 495.4,43.5 497.0,43.2 498.6,42.8 500.3,41.9 501.9,41.1 503.5,40.7 505.1,40.5 506.8,40.2 508.4,39.7 510.0,39.3 511.6,38.9 513.2,38.6 514.9,38.2 516.5,37.9 518.1,37.6 519.7,37.1 521.4,36.9 523.0,36.7 524.6,36.5 526.2,36.0 527.8,35.8 529.5,35.5 531.1,35.4 532.7,35.2 534.3,34.9 535.9,34.7 537.6,34.5 539.2,34.3 540.8,34.1 542.4,33.9 544.1,33.6 545.7,33.4 547.3,33.0 548.9,32.6 550.5,32.3 552.2,32.1 553.8,31.9 555.4,31.7 557.0,31.5 558.6,31.3 560.3,31.1 561.9,31.0 563.5,30.8 565.1,30.6 566.8,30.5 568.4,30.1 570.0,30.0 570.0,30.0,120" />
  
  <!-- Linea principale -->
  <polyline fill="none" stroke="#0366d6" stroke-width="2.5" stroke-linecap="round" stroke-linejoin="round" points="30.0,120.0 31.6,119.4 33.2,118.8 34.9,118.2 36.5,118.1 38.1,117.8 39.7,117.1 41.4,116.7 43.0,116.4 44.6,115.7 46.2,115.4 47.8,115.0 49.5,114.8 51.1,114.5 52.7,114.0 54.3,113.5 55.9,113.2 57.6,112.9 59.2,112.7 60.8,112.4 62.4,112.0 64.1,111.7 65.7,111.6 67.3,111.3 68.9,110.2 70.5,109.8 72.2,109.4 73.8,109.0 75.4,108.6 77.0,108.3 78.6,108.0 80.3,107.8 81.9,107.5 83.5,107.0 85.1,106.5 86.8,106.2 88.4,105.9 90.0,105.8 91.6,105.7 93.2,105.5 94.9,105.1 96.5,104.9 98.1,104.8 99.7,104.4 101.4,103.8 103.0,103.7 104.6,103.5 106.2,103.3 107.8,102.9 109.5,102.5 111.1,102.1 112.7,101.7 114.3,101.3 115.9,101.2 117.6,100.9 119.2,100.5 120.8,100.1 122.4,99.7 124.1,99.6 125.7,99.4 127.3,99.2 128.9,98.7 130.5,98.2 132.2,97.8 133.8,97.4 135.4,97.2 137.0,97.1 138.6,96.9 140.3,96.6 141.9,96.4 143.5,96.2 145.1,96.0 146.8,95.9 148.4,95.6 150.0,95.5 151.6,95.4 153.2,95.2 154.9,94.8 156.5,94.6 158.1,94.5 159.7,94.3 161.4,94.2 163.0,94.2 164.6,101.6 166.2,100.9 167.8,100.2 169.5,99.5 171.1,97.5 172.7,96.1 174.3,94.6 175.9,94.1 177.6,93.4 179.2,92.4 180.8,91.3 182.4,90.5 184.1,90.1 185.7,89.8 187.3,89.0 188.9,88.5 190.5,88.1 192.2,87.6 193.8,87.4 195.4,87.3 197.0,86.9 198.6,86.2 200.3,85.7 201.9,85.2 203.5,84.7 205.1,84.4 206.8,84.2 208.4,83.7 210.0,83.3 211.6,82.9 213.2,82.6 214.9,82.4 216.5,82.3 218.1,82.1 219.7,81.7 221.4,81.4 223.0,81.2 224.6,81.0 226.2,80.7 227.8,80.5 229.5,80.3 231.1,80.2 232.7,80.0 234.3,79.6 235.9,79.3 237.6,79.0 239.2,78.8 240.8,78.6 242.4,78.4 244.1,78.3 245.7,78.1 247.3,77.6 248.9,77.2 250.5,76.8 252.2,76.6 253.8,76.5 255.4,76.3 257.0,76.1 258.6,75.8 260.3,75.6 261.9,75.2 263.5,75.0 265.1,74.9 266.8,74.7 268.4,74.6 270.0,74.5 271.6,74.2 273.2,74.1 274.9,73.7 276.5,73.6 278.1,73.5 279.7,73.3 281.4,73.2 283.0,73.0 284.6,72.7 286.2,72.5 287.8,72.3 289.5,72.0 291.1,71.8 292.7,71.7 294.3,71.6 295.9,71.3 297.6,70.9 299.2,70.7 300.8,70.5 302.4,70.1 304.1,70.0 305.7,69.9 307.3,69.8 308.9,69.5 310.5,69.4 312.2,69.2 313.8,69.0 315.4,68.8 317.0,68.6 318.6,68.5 320.3,68.3 321.9,68.2 323.5,68.0 325.1,67.7 326.8,67.6 328.4,67.4 330.0,67.3 331.6,67.1 333.2,66.9 334.9,66.8 336.5,66.7 338.1,66.5 339.7,66.2 341.4,65.8 343.0,65.6 344.6,65.4 346.2,65.4 347.8,65.3 349.5,65.1 351.1,64.8 352.7,64.6 354.3,64.5 355.9,64.3 357.6,64.2 359.2,63.9 360.8,63.8 362.4,63.7 364.1,63.4 365.7,63.2 367.3,63.0 368.9,62.8 370.5,62.7 372.2,62.6 373.8,62.5 375.4,62.4 377.0,62.2 378.6,62.0 380.3,61.8 381.9,61.6 383.5,61.5 385.1,61.4 386.8,61.2 388.4,61.1 390.0,60.8 391.6,60.6 393.2,60.4 394.9,60.2 396.5,60.1 398.1,60.0 399.7,59.9 401.4,59.8 403.0,59.7 404.6,59.5 406.2,59.2 407.8,59.1 409.5,58.9 411.1,58.8 412.7,58.7 414.3,58.5 415.9,58.3 417.6,58.2 419.2,58.0 420.8,57.9 422.4,57.7 424.1,57.5 425.7,57.4 427.3,57.3 428.9,57.2 430.5,57.0 432.2,56.9 433.8,56.8 435.4,56.6 437.0,56.6 438.6,56.4 440.3,56.1 441.9,55.8 443.5,60.7 445.1,59.7 446.8,57.9 448.4,57.2 450.0,56.4 451.6,55.3 453.2,54.8 454.9,54.4 456.5,53.7 458.1,52.6 459.7,51.9 461.4,51.6 463.0,51.2 464.6,50.9 466.2,50.4 467.8,49.9 469.5,49.3 471.1,49.0 472.7,48.5 474.3,48.2 475.9,47.8 477.6,47.6 479.2,47.3 480.8,47.1 482.4,46.5 484.1,46.2 485.7,45.7 487.3,45.0 488.9,44.6 490.5,44.4 492.2,44.2 493.8,44.0 495.4,43.5 497.0,43.2 498.6,42.8 500.3,41.9 501.9,41.1 503.5,40.7 505.1,40.5 506.8,40.2 508.4,39.7 510.0,39.3 511.6,38.9 513.2,38.6 514.9,38.2 516.5,37.9 518.1,37.6 519.7,37.1 521.4,36.9 523.0,36.7 524.6,36.5 526.2,36.0 527.8,35.8 529.5,35.5 531.1,35.4 532.7,35.2 534.3,34.9 535.9,34.7 537.6,34.5 539.2,34.3 540.8,34.1 542.4,33.9 544.1,33.6 545.7,33.4 547.3,33.0 548.9,32.6 550.5,32.3 552.2,32.1 553.8,31.9 555.4,31.7 557.0,31.5 558.6,31.3 560.3,31.1 561.9,31.0 563.5,30.8 565.1,30.6 566.8,30.5 568.4,30.1 570.0,30.0" />
  
  <!-- Punto finale luminoso -->
  <circle cx="570.0" cy="30.0" r="4" fill="#ffffff" stroke="#0366d6" stroke-width="2.5" />
</svg>