<svg width="600" height="150" viewBox="0 0 600 150" xmlns="http://www.w3.org/2000/svg">
  <defs>
    <filter id="shadow2" x="-2%" y="-2%" width="104%" height="108%">
      <feDropShadow dx="0" dy="2" stdDeviation="3" flood-opacity="0.1" />
    </filter>
    <linearGradient id="fillGrad" x1="0" y1="0" x2="0" y2="1">
      <stop offset="0%" stop-color="#0366d6" stop-opacity="0.3"/>
      <stop offset="100%" stop-color="#0366d6" stop-opacity="0.02"/>
    </linearGradient>
  </defs>
  <rect width="600" height="150" rx="12" fill="#ffffff" filter="url(#shadow2)" stroke="#e1e4e8" stroke-width="1"/>
  <text x="20" y="24" fill="#2b3137" font-family="-apple-system,BlinkMacSystemFont,'Segoe UI',Helvetica,Arial,sans-serif" font-size="14" font-weight="600">📈 Download Growth (Actual: 86.8k)</text>
  
  <!-- Area sotto la linea -->
  <polygon fill="url(#fillGrad)" points="30.0,120.0,120 30.0,120.0 31.4,119.5 32.7,118.9 34.1,118.5 35.5,118.3 36.8,118.1 38.2,117.5 39.6,117.1 40.9,116.8 42.3,116.2 43.7,115.9 45.0,115.6 46.4,115.5 47.8,115.2 49.1,114.8 50.5,114.4 51.9,114.0 53.2,113.8 54.6,113.6 56.0,113.4 57.3,113.0 58.7,112.8 60.1,112.6 61.4,112.4 62.8,111.4 64.2,111.1 65.5,110.8 66.9,110.4 68.3,110.0 69.6,109.7 71.0,109.5 72.4,109.4 73.7,109.1 75.1,108.6 76.5,108.2 77.8,108.0 79.2,107.7 80.6,107.6 81.9,107.5 83.3,107.3 84.7,107.0 86.1,106.8 87.4,106.7 88.8,106.4 90.2,105.8 91.5,105.7 92.9,105.6 94.3,105.4 95.6,105.0 97.0,104.7 98.4,104.3 99.7,104.0 101.1,103.7 102.5,103.6 103.8,103.3 105.2,103.0 106.6,102.6 107.9,102.3 109.3,102.2 110.7,102.0 112.0,101.8 113.4,101.4 114.8,101.0 116.1,100.6 117.5,100.3 118.9,100.1 120.2,100.0 121.6,99.8 123.0,99.5 124.3,99.3 125.7,99.2 127.1,99.0 128.4,98.9 129.8,98.7 131.2,98.6 132.5,98.5 133.9,98.4 135.3,98.0 136.6,97.8 138.0,97.7 139.4,97.6 140.7,97.5 142.1,97.5 143.5,103.9 144.8,103.3 146.2,102.7 147.6,102.1 148.9,100.4 150.3,99.1 151.7,97.8 153.0,97.3 154.4,96.8 155.8,95.9 157.1,94.9 158.5,94.2 159.9,93.9 161.2,93.7 162.6,92.9 164.0,92.4 165.3,92.1 166.7,91.7 168.1,91.5 169.4,91.4 170.8,91.1 172.2,90.5 173.5,90.0 174.9,89.6 176.3,89.1 177.6,88.9 179.0,88.7 180.4,88.3 181.7,87.9 183.1,87.6 184.5,87.3 185.8,87.2 187.2,87.1 188.6,86.9 189.9,86.5 191.3,86.3 192.7,86.1 194.1,85.9 195.4,85.7 196.8,85.5 198.2,85.3 199.5,85.2 200.9,85.0 202.3,84.7 203.6,84.5 205.0,84.2 206.4,84.0 207.7,83.8 209.1,83.7 210.5,83.5 211.8,83.4 213.2,82.9 214.6,82.6 215.9,82.2 217.3,82.1 218.7,82.0 220.0,81.8 221.4,81.6 222.8,81.4 224.1,81.2 225.5,80.9 226.9,80.7 228.2,80.6 229.6,80.5 231.0,80.3 232.3,80.2 233.7,80.0 235.1,79.9 236.4,79.6 237.8,79.4 239.2,79.4 240.5,79.2 241.9,79.1 243.3,78.9 244.6,78.7 246.0,78.5 247.4,78.3 248.7,78.1 250.1,77.9 251.5,77.8 252.8,77.7 254.2,77.4 255.6,77.1 256.9,76.9 258.3,76.7 259.7,76.4 261.0,76.3 262.4,76.2 263.8,76.1 265.1,75.9 266.5,75.8 267.9,75.6 269.2,75.4 270.6,75.3 272.0,75.1 273.3,75.0 274.7,74.9 276.1,74.8 277.4,74.6 278.8,74.3 280.2,74.2 281.5,74.0 282.9,73.9 284.3,73.8 285.6,73.6 287.0,73.5 288.4,73.4 289.7,73.3 291.1,73.0 292.5,72.7 293.8,72.5 295.2,72.3 296.6,72.3 297.9,72.2 299.3,72.0 300.7,71.8 302.1,71.6 303.4,71.5 304.8,71.3 306.2,71.2 307.5,71.0 308.9,70.9 310.3,70.8 311.6,70.6 313.0,70.4 314.4,70.2 315.7,70.0 317.1,69.9 318.5,69.8 319.8,69.8 321.2,69.6 322.6,69.5 323.9,69.3 325.3,69.2 326.7,69.0 328.0,68.9 329.4,68.8 330.8,68.6 332.1,68.5 333.5,68.3 334.9,68.1 336.2,67.9 337.6,67.8 339.0,67.7 340.3,67.6 341.7,67.5 343.1,67.4 344.4,67.3 345.8,67.1 347.2,66.9 348.5,66.8 349.9,66.6 351.3,66.5 352.6,66.4 354.0,66.3 355.4,66.1 356.7,66.0 358.1,65.9 359.5,65.7 360.8,65.6 362.2,65.4 363.6,65.3 364.9,65.2 366.3,65.1 367.7,65.0 369.0,64.9 370.4,64.7 371.8,64.6 373.1,64.6 374.5,64.5 375.9,64.2 377.2,63.9 378.6,68.2 380.0,67.3 381.3,65.7 382.7,65.1 384.1,64.4 385.4,63.5 386.8,63.0 388.2,62.7 389.5,62.1 390.9,61.1 392.3,60.5 393.6,60.2 395.0,59.9 396.4,59.6 397.7,59.2 399.1,58.7 400.5,58.2 401.8,58.0 403.2,57.5 404.6,57.3 405.9,56.9 407.3,56.7 408.7,56.5 410.1,56.3 411.4,55.8 412.8,55.5 414.2,55.1 415.5,54.5 416.9,54.1 418.3,54.0 419.6,53.8 421.0,53.6 422.4,53.2 423.7,52.9 425.1,52.6 426.5,51.7 427.8,51.1 429.2,50.7 430.6,50.6 431.9,50.3 433.3,49.8 434.7,49.5 436.0,49.2 437.4,48.9 438.8,48.6 440.1,48.3 441.5,48.0 442.9,47.6 444.2,47.4 445.6,47.2 447.0,47.0 448.3,46.6 449.7,46.4 451.1,46.2 452.4,46.0 453.8,45.9 455.2,45.6 456.5,45.5 457.9,45.3 459.3,45.1 460.6,44.9 462.0,44.8 463.4,44.5 464.7,44.3 466.1,44.0 467.5,43.6 468.8,43.3 470.2,43.2 471.6,43.0 472.9,42.9 474.3,42.7 475.7,42.5 477.0,42.3 478.4,42.2 479.8,42.1 481.1,41.9 482.5,41.8 483.9,41.5 485.2,41.4 486.6,41.2 488.0,41.0 489.3,40.7 490.7,40.3 492.1,40.1 493.4,39.9 494.8,39.7 496.2,39.5 497.5,39.2 498.9,39.0 500.3,38.8 501.6,38.7 503.0,38.6 504.4,38.4 505.7,38.1 507.1,38.0 508.5,37.9 509.8,37.6 511.2,37.4 512.6,37.2 513.9,36.9 515.3,36.8 516.7,36.5 518.1,36.2 519.4,36.1 520.8,36.0 522.2,35.8 523.5,35.6 524.9,35.4 526.3,35.3 527.6,35.0 529.0,34.9 530.4,34.8 531.7,34.6 533.1,34.4 534.5,34.3 535.8,34.1 537.2,34.0 538.6,33.9 539.9,33.7 541.3,33.6 542.7,33.4 544.0,33.2 545.4,33.1 546.8,33.0 548.1,32.8 549.5,32.6 550.9,32.4 552.2,32.3 553.6,32.2 555.0,31.9 556.3,31.7 557.7,31.4 559.1,31.3 560.4,31.2 561.8,31.2 563.2,31.0 564.5,30.9 565.9,30.6 567.3,30.3 568.6,30.2 570.0,30.0 570.0,30.0,120" />
  
  <!-- Linea principale -->
  <polyline fill="none" stroke="#0366d6" stroke-width="2.5" stroke-linecap="round" stroke-linejoin="round" points="30.0,120.0 31.4,119.5 32.7,118.9 34.1,118.5 35.5,118.3 36.8,118.1 38.2,117.5 39.6,117.1 40.9,116.8 42.3,116.2 43.7,115.9 45.0,115.6 46.4,115.5 47.8,115.2 49.1,114.8 50.5,114.4 51.9,114.0 53.2,113.8 54.6,113.6 56.0,113.4 57.3,113.0 58.7,112.8 60.1,112.6 61.4,112.4 62.8,111.4 64.2,111.1 65.5,110.8 66.9,110.4 68.3,110.0 69.6,109.7 71.0,109.5 72.4,109.4 73.7,109.1 75.1,108.6 76.5,108.2 77.8,108.0 79.2,107.7 80.6,107.6 81.9,107.5 83.3,107.3 84.7,107.0 86.1,106.8 87.4,106.7 88.8,106.4 90.2,105.8 91.5,105.7 92.9,105.6 94.3,105.4 95.6,105.0 97.0,104.7 98.4,104.3 99.7,104.0 101.1,103.7 102.5,103.6 103.8,103.3 105.2,103.0 106.6,102.6 107.9,102.3 109.3,102.2 110.7,102.0 112.0,101.8 113.4,101.4 114.8,101.0 116.1,100.6 117.5,100.3 118.9,100.1 120.2,100.0 121.6,99.8 123.0,99.5 124.3,99.3 125.7,99.2 127.1,99.0 128.4,98.9 129.8,98.7 131.2,98.6 132.5,98.5 133.9,98.4 135.3,98.0 136.6,97.8 138.0,97.7 139.4,97.6 140.7,97.5 142.1,97.5 143.5,103.9 144.8,103.3 146.2,102.7 147.6,102.1 148.9,100.4 150.3,99.1 151.7,97.8 153.0,97.3 154.4,96.8 155.8,95.9 157.1,94.9 158.5,94.2 159.9,93.9 161.2,93.7 162.6,92.9 164.0,92.4 165.3,92.1 166.7,91.7 168.1,91.5 169.4,91.4 170.8,91.1 172.2,90.5 173.5,90.0 174.9,89.6 176.3,89.1 177.6,88.9 179.0,88.7 180.4,88.3 181.7,87.9 183.1,87.6 184.5,87.3 185.8,87.2 187.2,87.1 188.6,86.9 189.9,86.5 191.3,86.3 192.7,86.1 194.1,85.9 195.4,85.7 196.8,85.5 198.2,85.3 199.5,85.2 200.9,85.0 202.3,84.7 203.6,84.5 205.0,84.2 206.4,84.0 207.7,83.8 209.1,83.7 210.5,83.5 211.8,83.4 213.2,82.9 214.6,82.6 215.9,82.2 217.3,82.1 218.7,82.0 220.0,81.8 221.4,81.6 222.8,81.4 224.1,81.2 225.5,80.9 226.9,80.7 228.2,80.6 229.6,80.5 231.0,80.3 232.3,80.2 233.7,80.0 235.1,79.9 236.4,79.6 237.8,79.4 239.2,79.4 240.5,79.2 241.9,79.1 243.3,78.9 244.6,78.7 246.0,78.5 247.4,78.3 248.7,78.1 250.1,77.9 251.5,77.8 252.8,77.7 254.2,77.4 255.6,77.1 256.9,76.9 258.3,76.7 259.7,76.4 261.0,76.3 262.4,76.2 263.8,76.1 265.1,75.9 266.5,75.8 267.9,75.6 269.2,75.4 270.6,75.3 272.0,75.1 273.3,75.0 274.7,74.9 276.1,74.8 277.4,74.6 278.8,74.3 280.2,74.2 281.5,74.0 282.9,73.9 284.3,73.8 285.6,73.6 287.0,73.5 288.4,73.4 289.7,73.3 291.1,73.0 292.5,72.7 293.8,72.5 295.2,72.3 296.6,72.3 297.9,72.2 299.3,72.0 300.7,71.8 302.1,71.6 303.4,71.5 304.8,71.3 306.2,71.2 307.5,71.0 308.9,70.9 310.3,70.8 311.6,70.6 313.0,70.4 314.4,70.2 315.7,70.0 317.1,69.9 318.5,69.8 319.8,69.8 321.2,69.6 322.6,69.5 323.9,69.3 325.3,69.2 326.7,69.0 328.0,68.9 329.4,68.8 330.8,68.6 332.1,68.5 333.5,68.3 334.9,68.1 336.2,67.9 337.6,67.8 339.0,67.7 340.3,67.6 341.7,67.5 343.1,67.4 344.4,67.3 345.8,67.1 347.2,66.9 348.5,66.8 349.9,66.6 351.3,66.5 352.6,66.4 354.0,66.3 355.4,66.1 356.7,66.0 358.1,65.9 359.5,65.7 360.8,65.6 362.2,65.4 363.6,65.3 364.9,65.2 366.3,65.1 367.7,65.0 369.0,64.9 370.4,64.7 371.8,64.6 373.1,64.6 374.5,64.5 375.9,64.2 377.2,63.9 378.6,68.2 380.0,67.3 381.3,65.7 382.7,65.1 384.1,64.4 385.4,63.5 386.8,63.0 388.2,62.7 389.5,62.1 390.9,61.1 392.3,60.5 393.6,60.2 395.0,59.9 396.4,59.6 397.7,59.2 399.1,58.7 400.5,58.2 401.8,58.0 403.2,57.5 404.6,57.3 405.9,56.9 407.3,56.7 408.7,56.5 410.1,56.3 411.4,55.8 412.8,55.5 414.2,55.1 415.5,54.5 416.9,54.1 418.3,54.0 419.6,53.8 421.0,53.6 422.4,53.2 423.7,52.9 425.1,52.6 426.5,51.7 427.8,51.1 429.2,50.7 430.6,50.6 431.9,50.3 433.3,49.8 434.7,49.5 436.0,49.2 437.4,48.9 438.8,48.6 440.1,48.3 441.5,48.0 442.9,47.6 444.2,47.4 445.6,47.2 447.0,47.0 448.3,46.6 449.7,46.4 451.1,46.2 452.4,46.0 453.8,45.9 455.2,45.6 456.5,45.5 457.9,45.3 459.3,45.1 460.6,44.9 462.0,44.8 463.4,44.5 464.7,44.3 466.1,44.0 467.5,43.6 468.8,43.3 470.2,43.2 471.6,43.0 472.9,42.9 474.3,42.7 475.7,42.5 477.0,42.3 478.4,42.2 479.8,42.1 481.1,41.9 482.5,41.8 483.9,41.5 485.2,41.4 486.6,41.2 488.0,41.0 489.3,40.7 490.7,40.3 492.1,40.1 493.4,39.9 494.8,39.7 496.2,39.5 497.5,39.2 498.9,39.0 500.3,38.8 501.6,38.7 503.0,38.6 504.4,38.4 505.7,38.1 507.1,38.0 508.5,37.9 509.8,37.6 511.2,37.4 512.6,37.2 513.9,36.9 515.3,36.8 516.7,36.5 518.1,36.2 519.4,36.1 520.8,36.0 522.2,35.8 523.5,35.6 524.9,35.4 526.3,35.3 527.6,35.0 529.0,34.9 530.4,34.8 531.7,34.6 533.1,34.4 534.5,34.3 535.8,34.1 537.2,34.0 538.6,33.9 539.9,33.7 541.3,33.6 542.7,33.4 544.0,33.2 545.4,33.1 546.8,33.0 548.1,32.8 549.5,32.6 550.9,32.4 552.2,32.3 553.6,32.2 555.0,31.9 556.3,31.7 557.7,31.4 559.1,31.3 560.4,31.2 561.8,31.2 563.2,31.0 564.5,30.9 565.9,30.6 567.3,30.3 568.6,30.2 570.0,30.0" />
  
  <!-- Punto finale luminoso -->
  <circle cx="570.0" cy="30.0" r="4" fill="#ffffff" stroke="#0366d6" stroke-width="2.5" />
</svg>