<svg width="600" height="150" viewBox="0 0 600 150" xmlns="http://www.w3.org/2000/svg">
  <defs>
    <filter id="shadow2" x="-2%" y="-2%" width="104%" height="108%">
      <feDropShadow dx="0" dy="2" stdDeviation="3" flood-opacity="0.1" />
    </filter>
    <linearGradient id="fillGrad" x1="0" y1="0" x2="0" y2="1">
      <stop offset="0%" stop-color="#0366d6" stop-opacity="0.3"/>
      <stop offset="100%" stop-color="#0366d6" stop-opacity="0.02"/>
    </linearGradient>
  </defs>
  <rect width="600" height="150" rx="12" fill="#ffffff" filter="url(#shadow2)" stroke="#e1e4e8" stroke-width="1"/>
  <text x="20" y="24" fill="#2b3137" font-family="-apple-system,BlinkMacSystemFont,'Segoe UI',Helvetica,Arial,sans-serif" font-size="14" font-weight="600">📈 Download Growth (Actual: 78.5k)</text>
  
  <!-- Area sotto la linea -->
  <polygon fill="url(#fillGrad)" points="30.0,120.0,120 30.0,120.0 32.4,119.1 34.8,118.2 37.1,117.4 39.5,117.2 41.9,116.7 44.3,115.7 46.7,115.0 49.0,114.6 51.4,113.6 53.8,113.0 56.2,112.5 58.5,112.2 60.9,111.7 63.3,111.1 65.7,110.3 68.1,109.7 70.4,109.3 72.8,109.1 75.2,108.6 77.6,108.1 80.0,107.6 82.3,107.4 84.7,106.9 87.1,105.3 89.5,104.8 91.9,104.1 94.2,103.5 96.6,102.9 99.0,102.4 101.4,102.0 103.7,101.8 106.1,101.3 108.5,100.5 110.9,99.8 113.3,99.4 115.6,98.8 118.0,98.7 120.4,98.5 122.8,98.2 125.2,97.7 127.5,97.4 129.9,97.2 132.3,96.6 134.7,95.7 137.0,95.5 139.4,95.3 141.8,95.0 144.2,94.3 146.6,93.8 148.9,93.1 151.3,92.6 153.7,91.9 156.1,91.8 158.5,91.4 160.8,90.8 163.2,90.1 165.6,89.6 168.0,89.4 170.4,89.1 172.7,88.8 175.1,88.0 177.5,87.3 179.9,86.7 182.2,86.1 184.6,85.8 187.0,85.6 189.4,85.4 191.8,84.9 194.1,84.5 196.5,84.3 198.9,84.0 201.3,83.8 203.7,83.4 206.0,83.2 208.4,83.0 210.8,82.9 213.2,82.2 215.6,81.8 217.9,81.7 220.3,81.5 222.7,81.4 225.1,81.4 227.4,92.4 229.8,91.3 232.2,90.3 234.6,89.3 237.0,86.3 239.3,84.2 241.7,81.9 244.1,81.1 246.5,80.2 248.9,78.6 251.2,76.9 253.6,75.7 256.0,75.2 258.4,74.8 260.7,73.6 263.1,72.7 265.5,72.1 267.9,71.4 270.3,71.1 272.6,71.0 275.0,70.3 277.4,69.3 279.8,68.6 282.2,67.8 284.5,67.0 286.9,66.6 289.3,66.3 291.7,65.6 294.1,65.0 296.4,64.4 298.8,63.9 301.2,63.6 303.6,63.5 305.9,63.1 308.3,62.6 310.7,62.2 313.1,61.8 315.5,61.4 317.8,61.1 320.2,60.8 322.6,60.5 325.0,60.3 327.4,60.0 329.7,59.4 332.1,59.0 334.5,58.5 336.9,58.2 339.3,57.9 341.6,57.7 344.0,57.4 346.4,57.1 348.8,56.3 351.1,55.8 353.5,55.1 355.9,54.9 358.3,54.8 360.7,54.5 363.0,54.2 365.4,53.7 367.8,53.4 370.2,52.9 372.6,52.5 374.9,52.4 377.3,52.1 379.7,51.9 382.1,51.7 384.4,51.4 386.8,51.1 389.2,50.6 391.6,50.4 394.0,50.2 396.3,50.0 398.7,49.9 401.1,49.4 403.5,49.1 405.9,48.7 408.2,48.4 410.6,48.0 413.0,47.8 415.4,47.6 417.8,47.4 420.1,46.9 422.5,46.4 424.9,46.1 427.3,45.7 429.6,45.1 432.0,45.0 434.4,44.8 436.8,44.6 439.2,44.3 441.5,44.1 443.9,43.7 446.3,43.5 448.7,43.2 451.1,43.0 453.4,42.7 455.8,42.5 458.2,42.4 460.6,42.1 463.0,41.6 465.3,41.4 467.7,41.1 470.1,40.9 472.5,40.7 474.8,40.4 477.2,40.2 479.6,40.0 482.0,39.8 484.4,39.3 486.7,38.8 489.1,38.5 491.5,38.2 493.9,38.1 496.3,38.0 498.6,37.6 501.0,37.2 503.4,37.0 505.8,36.8 508.1,36.5 510.5,36.2 512.9,35.9 515.3,35.7 517.7,35.6 520.0,35.2 522.4,34.9 524.8,34.5 527.2,34.2 529.6,34.0 531.9,33.9 534.3,33.8 536.7,33.5 539.1,33.3 541.5,33.0 543.8,32.7 546.2,32.4 548.6,32.3 551.0,32.1 553.3,31.8 555.7,31.6 558.1,31.3 560.5,30.9 562.9,30.6 565.2,30.3 567.6,30.2 570.0,30.0 570.0,30.0,120" />
  
  <!-- Linea principale -->
  <polyline fill="none" stroke="#0366d6" stroke-width="2.5" stroke-linecap="round" stroke-linejoin="round" points="30.0,120.0 32.4,119.1 34.8,118.2 37.1,117.4 39.5,117.2 41.9,116.7 44.3,115.7 46.7,115.0 49.0,114.6 51.4,113.6 53.8,113.0 56.2,112.5 58.5,112.2 60.9,111.7 63.3,111.1 65.7,110.3 68.1,109.7 70.4,109.3 72.8,109.1 75.2,108.6 77.6,108.1 80.0,107.6 82.3,107.4 84.7,106.9 87.1,105.3 89.5,104.8 91.9,104.1 94.2,103.5 96.6,102.9 99.0,102.4 101.4,102.0 103.7,101.8 106.1,101.3 108.5,100.5 110.9,99.8 113.3,99.4 115.6,98.8 118.0,98.7 120.4,98.5 122.8,98.2 125.2,97.7 127.5,97.4 129.9,97.2 132.3,96.6 134.7,95.7 137.0,95.5 139.4,95.3 141.8,95.0 144.2,94.3 146.6,93.8 148.9,93.1 151.3,92.6 153.7,91.9 156.1,91.8 158.5,91.4 160.8,90.8 163.2,90.1 165.6,89.6 168.0,89.4 170.4,89.1 172.7,88.8 175.1,88.0 177.5,87.3 179.9,86.7 182.2,86.1 184.6,85.8 187.0,85.6 189.4,85.4 191.8,84.9 194.1,84.5 196.5,84.3 198.9,84.0 201.3,83.8 203.7,83.4 206.0,83.2 208.4,83.0 210.8,82.9 213.2,82.2 215.6,81.8 217.9,81.7 220.3,81.5 222.7,81.4 225.1,81.4 227.4,92.4 229.8,91.3 232.2,90.3 234.6,89.3 237.0,86.3 239.3,84.2 241.7,81.9 244.1,81.1 246.5,80.2 248.9,78.6 251.2,76.9 253.6,75.7 256.0,75.2 258.4,74.8 260.7,73.6 263.1,72.7 265.5,72.1 267.9,71.4 270.3,71.1 272.6,71.0 275.0,70.3 277.4,69.3 279.8,68.6 282.2,67.8 284.5,67.0 286.9,66.6 289.3,66.3 291.7,65.6 294.1,65.0 296.4,64.4 298.8,63.9 301.2,63.6 303.6,63.5 305.9,63.1 308.3,62.6 310.7,62.2 313.1,61.8 315.5,61.4 317.8,61.1 320.2,60.8 322.6,60.5 325.0,60.3 327.4,60.0 329.7,59.4 332.1,59.0 334.5,58.5 336.9,58.2 339.3,57.9 341.6,57.7 344.0,57.4 346.4,57.1 348.8,56.3 351.1,55.8 353.5,55.1 355.9,54.9 358.3,54.8 360.7,54.5 363.0,54.2 365.4,53.7 367.8,53.4 370.2,52.9 372.6,52.5 374.9,52.4 377.3,52.1 379.7,51.9 382.1,51.7 384.4,51.4 386.8,51.1 389.2,50.6 391.6,50.4 394.0,50.2 396.3,50.0 398.7,49.9 401.1,49.4 403.5,49.1 405.9,48.7 408.2,48.4 410.6,48.0 413.0,47.8 415.4,47.6 417.8,47.4 420.1,46.9 422.5,46.4 424.9,46.1 427.3,45.7 429.6,45.1 432.0,45.0 434.4,44.8 436.8,44.6 439.2,44.3 441.5,44.1 443.9,43.7 446.3,43.5 448.7,43.2 451.1,43.0 453.4,42.7 455.8,42.5 458.2,42.4 460.6,42.1 463.0,41.6 465.3,41.4 467.7,41.1 470.1,40.9 472.5,40.7 474.8,40.4 477.2,40.2 479.6,40.0 482.0,39.8 484.4,39.3 486.7,38.8 489.1,38.5 491.5,38.2 493.9,38.1 496.3,38.0 498.6,37.6 501.0,37.2 503.4,37.0 505.8,36.8 508.1,36.5 510.5,36.2 512.9,35.9 515.3,35.7 517.7,35.6 520.0,35.2 522.4,34.9 524.8,34.5 527.2,34.2 529.6,34.0 531.9,33.9 534.3,33.8 536.7,33.5 539.1,33.3 541.5,33.0 543.8,32.7 546.2,32.4 548.6,32.3 551.0,32.1 553.3,31.8 555.7,31.6 558.1,31.3 560.5,30.9 562.9,30.6 565.2,30.3 567.6,30.2 570.0,30.0" />
  
  <!-- Punto finale luminoso -->
  <circle cx="570.0" cy="30.0" r="4" fill="#ffffff" stroke="#0366d6" stroke-width="2.5" />
</svg>