<svg width="600" height="150" viewBox="0 0 600 150" xmlns="http://www.w3.org/2000/svg">
  <defs>
    <filter id="shadow2" x="-2%" y="-2%" width="104%" height="108%">
      <feDropShadow dx="0" dy="2" stdDeviation="3" flood-opacity="0.1" />
    </filter>
    <linearGradient id="fillGrad" x1="0" y1="0" x2="0" y2="1">
      <stop offset="0%" stop-color="#0366d6" stop-opacity="0.3"/>
      <stop offset="100%" stop-color="#0366d6" stop-opacity="0.02"/>
    </linearGradient>
  </defs>
  <rect width="600" height="150" rx="12" fill="#ffffff" filter="url(#shadow2)" stroke="#e1e4e8" stroke-width="1"/>
  <text x="20" y="24" fill="#2b3137" font-family="-apple-system,BlinkMacSystemFont,'Segoe UI',Helvetica,Arial,sans-serif" font-size="14" font-weight="600">📈 Download Growth (Actual: 78.5k)</text>
  
  <!-- Area sotto la linea -->
  <polygon fill="url(#fillGrad)" points="30.0,120.0,120 30.0,120.0 32.4,119.1 34.7,118.2 37.1,117.4 39.5,117.2 41.8,116.7 44.2,115.7 46.6,115.1 48.9,114.6 51.3,113.6 53.7,113.1 56.1,112.5 58.4,112.2 60.8,111.8 63.2,111.1 65.5,110.3 67.9,109.8 70.3,109.4 72.6,109.1 75.0,108.6 77.4,108.1 79.7,107.6 82.1,107.4 84.5,106.9 86.8,105.3 89.2,104.8 91.6,104.2 93.9,103.5 96.3,102.9 98.7,102.4 101.1,102.1 103.4,101.8 105.8,101.3 108.2,100.5 110.5,99.9 112.9,99.4 115.3,98.8 117.6,98.7 120.0,98.5 122.4,98.3 124.7,97.7 127.1,97.4 129.5,97.2 131.8,96.6 134.2,95.7 136.6,95.5 138.9,95.4 141.3,95.0 143.7,94.3 146.1,93.9 148.4,93.1 150.8,92.6 153.2,92.0 155.5,91.9 157.9,91.5 160.3,90.8 162.6,90.2 165.0,89.7 167.4,89.4 169.7,89.1 172.1,88.8 174.5,88.1 176.8,87.4 179.2,86.8 181.6,86.2 183.9,85.9 186.3,85.7 188.7,85.4 191.1,84.9 193.4,84.6 195.8,84.3 198.2,84.1 200.5,83.9 202.9,83.5 205.3,83.3 207.6,83.1 210.0,82.9 212.4,82.3 214.7,81.9 217.1,81.8 219.5,81.6 221.8,81.4 224.2,81.4 226.6,92.4 228.9,91.4 231.3,90.4 233.7,89.4 236.1,86.4 238.4,84.3 240.8,82.0 243.2,81.2 245.5,80.2 247.9,78.7 250.3,77.0 252.6,75.8 255.0,75.3 257.4,74.8 259.7,73.6 262.1,72.8 264.5,72.2 266.8,71.5 269.2,71.2 271.6,71.1 273.9,70.4 276.3,69.4 278.7,68.7 281.1,67.9 283.4,67.1 285.8,66.7 288.2,66.4 290.5,65.7 292.9,65.1 295.3,64.4 297.6,64.0 300.0,63.7 302.4,63.6 304.7,63.2 307.1,62.7 309.5,62.3 311.8,61.9 314.2,61.5 316.6,61.2 318.9,60.9 321.3,60.6 323.7,60.4 326.1,60.1 328.4,59.5 330.8,59.1 333.2,58.6 335.5,58.3 337.9,58.0 340.3,57.8 342.6,57.5 345.0,57.3 347.4,56.5 349.7,55.9 352.1,55.3 354.5,55.0 356.8,54.9 359.2,54.6 361.6,54.3 363.9,53.9 366.3,53.5 368.7,53.0 371.1,52.7 373.4,52.5 375.8,52.2 378.2,52.0 380.5,51.8 382.9,51.5 385.3,51.2 387.6,50.7 390.0,50.5 392.4,50.4 394.7,50.1 397.1,50.0 399.5,49.6 401.8,49.2 404.2,48.8 406.6,48.5 408.9,48.2 411.3,47.9 413.7,47.8 416.1,47.5 418.4,47.0 420.8,46.6 423.2,46.2 425.5,45.9 427.9,45.3 430.3,45.1 432.6,44.9 435.0,44.8 437.4,44.5 439.7,44.2 442.1,43.9 444.5,43.6 446.8,43.3 449.2,43.1 451.6,42.8 453.9,42.6 456.3,42.5 458.7,42.2 461.1,41.8 463.4,41.6 465.8,41.2 468.2,41.0 470.5,40.8 472.9,40.6 475.3,40.4 477.6,40.2 480.0,39.9 482.4,39.4 484.7,38.9 487.1,38.6 489.5,38.3 491.8,38.2 494.2,38.1 496.6,37.8 498.9,37.3 501.3,37.1 503.7,37.0 506.1,36.6 508.4,36.4 510.8,36.1 513.2,35.9 515.5,35.7 517.9,35.3 520.3,35.0 522.6,34.6 525.0,34.3 527.4,34.2 529.7,34.1 532.1,34.0 534.5,33.7 536.8,33.4 539.2,33.2 541.6,32.9 543.9,32.6 546.3,32.4 548.7,32.2 551.1,32.0 553.4,31.8 555.8,31.4 558.2,31.1 560.5,30.8 562.9,30.5 565.3,30.3 567.6,30.2 570.0,30.0 570.0,30.0,120" />
  
  <!-- Linea principale -->
  <polyline fill="none" stroke="#0366d6" stroke-width="2.5" stroke-linecap="round" stroke-linejoin="round" points="30.0,120.0 32.4,119.1 34.7,118.2 37.1,117.4 39.5,117.2 41.8,116.7 44.2,115.7 46.6,115.1 48.9,114.6 51.3,113.6 53.7,113.1 56.1,112.5 58.4,112.2 60.8,111.8 63.2,111.1 65.5,110.3 67.9,109.8 70.3,109.4 72.6,109.1 75.0,108.6 77.4,108.1 79.7,107.6 82.1,107.4 84.5,106.9 86.8,105.3 89.2,104.8 91.6,104.2 93.9,103.5 96.3,102.9 98.7,102.4 101.1,102.1 103.4,101.8 105.8,101.3 108.2,100.5 110.5,99.9 112.9,99.4 115.3,98.8 117.6,98.7 120.0,98.5 122.4,98.3 124.7,97.7 127.1,97.4 129.5,97.2 131.8,96.6 134.2,95.7 136.6,95.5 138.9,95.4 141.3,95.0 143.7,94.3 146.1,93.9 148.4,93.1 150.8,92.6 153.2,92.0 155.5,91.9 157.9,91.5 160.3,90.8 162.6,90.2 165.0,89.7 167.4,89.4 169.7,89.1 172.1,88.8 174.5,88.1 176.8,87.4 179.2,86.8 181.6,86.2 183.9,85.9 186.3,85.7 188.7,85.4 191.1,84.9 193.4,84.6 195.8,84.3 198.2,84.1 200.5,83.9 202.9,83.5 205.3,83.3 207.6,83.1 210.0,82.9 212.4,82.3 214.7,81.9 217.1,81.8 219.5,81.6 221.8,81.4 224.2,81.4 226.6,92.4 228.9,91.4 231.3,90.4 233.7,89.4 236.1,86.4 238.4,84.3 240.8,82.0 243.2,81.2 245.5,80.2 247.9,78.7 250.3,77.0 252.6,75.8 255.0,75.3 257.4,74.8 259.7,73.6 262.1,72.8 264.5,72.2 266.8,71.5 269.2,71.2 271.6,71.1 273.9,70.4 276.3,69.4 278.7,68.7 281.1,67.9 283.4,67.1 285.8,66.7 288.2,66.4 290.5,65.7 292.9,65.1 295.3,64.4 297.6,64.0 300.0,63.7 302.4,63.6 304.7,63.2 307.1,62.7 309.5,62.3 311.8,61.9 314.2,61.5 316.6,61.2 318.9,60.9 321.3,60.6 323.7,60.4 326.1,60.1 328.4,59.5 330.8,59.1 333.2,58.6 335.5,58.3 337.9,58.0 340.3,57.8 342.6,57.5 345.0,57.3 347.4,56.5 349.7,55.9 352.1,55.3 354.5,55.0 356.8,54.9 359.2,54.6 361.6,54.3 363.9,53.9 366.3,53.5 368.7,53.0 371.1,52.7 373.4,52.5 375.8,52.2 378.2,52.0 380.5,51.8 382.9,51.5 385.3,51.2 387.6,50.7 390.0,50.5 392.4,50.4 394.7,50.1 397.1,50.0 399.5,49.6 401.8,49.2 404.2,48.8 406.6,48.5 408.9,48.2 411.3,47.9 413.7,47.8 416.1,47.5 418.4,47.0 420.8,46.6 423.2,46.2 425.5,45.9 427.9,45.3 430.3,45.1 432.6,44.9 435.0,44.8 437.4,44.5 439.7,44.2 442.1,43.9 444.5,43.6 446.8,43.3 449.2,43.1 451.6,42.8 453.9,42.6 456.3,42.5 458.7,42.2 461.1,41.8 463.4,41.6 465.8,41.2 468.2,41.0 470.5,40.8 472.9,40.6 475.3,40.4 477.6,40.2 480.0,39.9 482.4,39.4 484.7,38.9 487.1,38.6 489.5,38.3 491.8,38.2 494.2,38.1 496.6,37.8 498.9,37.3 501.3,37.1 503.7,37.0 506.1,36.6 508.4,36.4 510.8,36.1 513.2,35.9 515.5,35.7 517.9,35.3 520.3,35.0 522.6,34.6 525.0,34.3 527.4,34.2 529.7,34.1 532.1,34.0 534.5,33.7 536.8,33.4 539.2,33.2 541.6,32.9 543.9,32.6 546.3,32.4 548.7,32.2 551.1,32.0 553.4,31.8 555.8,31.4 558.2,31.1 560.5,30.8 562.9,30.5 565.3,30.3 567.6,30.2 570.0,30.0" />
  
  <!-- Punto finale luminoso -->
  <circle cx="570.0" cy="30.0" r="4" fill="#ffffff" stroke="#0366d6" stroke-width="2.5" />
</svg>