<svg width="600" height="150" viewBox="0 0 600 150" xmlns="http://www.w3.org/2000/svg">
  <defs>
    <filter id="shadow2" x="-2%" y="-2%" width="104%" height="108%">
      <feDropShadow dx="0" dy="2" stdDeviation="3" flood-opacity="0.1" />
    </filter>
    <linearGradient id="fillGrad" x1="0" y1="0" x2="0" y2="1">
      <stop offset="0%" stop-color="#0366d6" stop-opacity="0.3"/>
      <stop offset="100%" stop-color="#0366d6" stop-opacity="0.02"/>
    </linearGradient>
  </defs>
  <rect width="600" height="150" rx="12" fill="#ffffff" filter="url(#shadow2)" stroke="#e1e4e8" stroke-width="1"/>
  <text x="20" y="24" fill="#2b3137" font-family="-apple-system,BlinkMacSystemFont,'Segoe UI',Helvetica,Arial,sans-serif" font-size="14" font-weight="600">📈 Download Growth (Actual: 81.6k)</text>
  
  <!-- Area sotto la linea -->
  <polygon fill="url(#fillGrad)" points="30.0,120.0,120 30.0,120.0 31.9,119.3 33.8,118.6 35.7,117.9 37.6,117.7 39.5,117.4 41.4,116.6 43.3,116.1 45.2,115.7 47.1,114.9 48.9,114.5 50.8,114.1 52.7,113.8 54.6,113.5 56.5,112.9 58.4,112.3 60.3,111.9 62.2,111.6 64.1,111.3 66.0,111.0 67.9,110.5 69.8,110.2 71.7,110.0 73.6,109.6 75.5,108.3 77.4,107.9 79.3,107.4 81.2,106.9 83.1,106.5 84.9,106.0 86.8,105.8 88.7,105.5 90.6,105.2 92.5,104.6 94.4,104.0 96.3,103.6 98.2,103.2 100.1,103.1 102.0,103.0 103.9,102.8 105.8,102.3 107.7,102.1 109.6,101.9 111.5,101.4 113.4,100.8 115.3,100.6 117.2,100.5 119.1,100.2 120.9,99.6 122.8,99.3 124.7,98.7 126.6,98.3 128.5,97.8 130.4,97.7 132.3,97.4 134.2,96.8 136.1,96.3 138.0,95.9 139.9,95.8 141.8,95.5 143.7,95.3 145.6,94.7 147.5,94.1 149.4,93.7 151.3,93.2 153.2,92.9 155.1,92.8 156.9,92.6 158.8,92.2 160.7,91.9 162.6,91.7 164.5,91.5 166.4,91.3 168.3,91.0 170.2,90.9 172.1,90.7 174.0,90.6 175.9,90.1 177.8,89.8 179.7,89.7 181.6,89.5 183.5,89.4 185.4,89.4 187.3,98.1 189.2,97.3 191.1,96.5 192.9,95.7 194.8,93.3 196.7,91.6 198.6,89.9 200.5,89.2 202.4,88.4 204.3,87.2 206.2,85.9 208.1,84.9 210.0,84.5 211.9,84.2 213.8,83.2 215.7,82.5 217.6,82.1 219.5,81.5 221.4,81.3 223.3,81.2 225.2,80.7 227.1,79.9 228.9,79.3 230.8,78.7 232.7,78.0 234.6,77.7 236.5,77.5 238.4,76.9 240.3,76.4 242.2,75.9 244.1,75.5 246.0,75.4 247.9,75.2 249.8,74.9 251.7,74.5 253.6,74.2 255.5,73.9 257.4,73.6 259.3,73.4 261.2,73.1 263.1,72.9 264.9,72.7 266.8,72.5 268.7,72.0 270.6,71.7 272.5,71.3 274.4,71.1 276.3,70.8 278.2,70.6 280.1,70.4 282.0,70.2 283.9,69.6 285.8,69.2 287.7,68.6 289.6,68.4 291.5,68.4 293.4,68.1 295.3,67.9 297.2,67.5 299.1,67.2 300.9,66.8 302.8,66.6 304.7,66.5 306.6,66.2 308.5,66.1 310.4,65.9 312.3,65.6 314.2,65.4 316.1,65.0 318.0,64.9 319.9,64.7 321.8,64.6 323.7,64.4 325.6,64.1 327.5,63.9 329.4,63.5 331.3,63.3 333.2,63.0 335.1,62.8 336.9,62.7 338.8,62.5 340.7,62.1 342.6,61.7 344.5,61.5 346.4,61.2 348.3,60.7 350.2,60.6 352.1,60.4 354.0,60.3 355.9,60.1 357.8,59.9 359.7,59.6 361.6,59.4 363.5,59.2 365.4,59.0 367.3,58.8 369.2,58.6 371.1,58.5 372.9,58.3 374.8,57.9 376.7,57.8 378.6,57.5 380.5,57.4 382.4,57.2 384.3,57.0 386.2,56.8 388.1,56.7 390.0,56.5 391.9,56.1 393.8,55.7 395.7,55.4 397.6,55.2 399.5,55.1 401.4,55.0 403.3,54.8 405.2,54.4 407.1,54.3 408.9,54.1 410.8,53.9 412.7,53.7 414.6,53.4 416.5,53.3 418.4,53.1 420.3,52.8 422.2,52.6 424.1,52.3 426.0,52.0 427.9,51.9 429.8,51.8 431.7,51.7 433.6,51.5 435.5,51.3 437.4,51.1 439.3,50.9 441.2,50.7 443.1,50.5 444.9,50.4 446.8,50.2 448.7,50.0 450.6,49.7 452.5,49.4 454.4,49.2 456.3,49.0 458.2,48.8 460.1,48.7 462.0,48.6 463.9,48.5 465.8,48.3 467.7,48.2 469.6,47.8 471.5,47.7 473.4,47.5 475.3,47.3 477.2,47.1 479.1,47.0 480.9,46.7 482.8,46.6 484.7,46.4 486.6,46.2 488.5,46.0 490.4,45.8 492.3,45.6 494.2,45.5 496.1,45.4 498.0,45.2 499.9,45.1 501.8,44.9 503.7,44.7 505.6,44.7 507.5,44.5 509.4,44.1 511.3,43.8 513.2,49.5 515.1,48.4 516.9,46.2 518.8,45.4 520.7,44.4 522.6,43.2 524.5,42.5 526.4,42.0 528.3,41.2 530.2,40.0 532.1,39.1 534.0,38.8 535.9,38.3 537.8,37.9 539.7,37.3 541.6,36.7 543.5,36.0 545.4,35.7 547.3,35.0 549.2,34.7 551.1,34.3 552.9,34.0 554.8,33.7 556.7,33.4 558.6,32.7 560.5,32.3 562.4,31.7 564.3,30.9 566.2,30.5 568.1,30.2 570.0,30.0 570.0,30.0,120" />
  
  <!-- Linea principale -->
  <polyline fill="none" stroke="#0366d6" stroke-width="2.5" stroke-linecap="round" stroke-linejoin="round" points="30.0,120.0 31.9,119.3 33.8,118.6 35.7,117.9 37.6,117.7 39.5,117.4 41.4,116.6 43.3,116.1 45.2,115.7 47.1,114.9 48.9,114.5 50.8,114.1 52.7,113.8 54.6,113.5 56.5,112.9 58.4,112.3 60.3,111.9 62.2,111.6 64.1,111.3 66.0,111.0 67.9,110.5 69.8,110.2 71.7,110.0 73.6,109.6 75.5,108.3 77.4,107.9 79.3,107.4 81.2,106.9 83.1,106.5 84.9,106.0 86.8,105.8 88.7,105.5 90.6,105.2 92.5,104.6 94.4,104.0 96.3,103.6 98.2,103.2 100.1,103.1 102.0,103.0 103.9,102.8 105.8,102.3 107.7,102.1 109.6,101.9 111.5,101.4 113.4,100.8 115.3,100.6 117.2,100.5 119.1,100.2 120.9,99.6 122.8,99.3 124.7,98.7 126.6,98.3 128.5,97.8 130.4,97.7 132.3,97.4 134.2,96.8 136.1,96.3 138.0,95.9 139.9,95.8 141.8,95.5 143.7,95.3 145.6,94.7 147.5,94.1 149.4,93.7 151.3,93.2 153.2,92.9 155.1,92.8 156.9,92.6 158.8,92.2 160.7,91.9 162.6,91.7 164.5,91.5 166.4,91.3 168.3,91.0 170.2,90.9 172.1,90.7 174.0,90.6 175.9,90.1 177.8,89.8 179.7,89.7 181.6,89.5 183.5,89.4 185.4,89.4 187.3,98.1 189.2,97.3 191.1,96.5 192.9,95.7 194.8,93.3 196.7,91.6 198.6,89.9 200.5,89.2 202.4,88.4 204.3,87.2 206.2,85.9 208.1,84.9 210.0,84.5 211.9,84.2 213.8,83.2 215.7,82.5 217.6,82.1 219.5,81.5 221.4,81.3 223.3,81.2 225.2,80.7 227.1,79.9 228.9,79.3 230.8,78.7 232.7,78.0 234.6,77.7 236.5,77.5 238.4,76.9 240.3,76.4 242.2,75.9 244.1,75.5 246.0,75.4 247.9,75.2 249.8,74.9 251.7,74.5 253.6,74.2 255.5,73.9 257.4,73.6 259.3,73.4 261.2,73.1 263.1,72.9 264.9,72.7 266.8,72.5 268.7,72.0 270.6,71.7 272.5,71.3 274.4,71.1 276.3,70.8 278.2,70.6 280.1,70.4 282.0,70.2 283.9,69.6 285.8,69.2 287.7,68.6 289.6,68.4 291.5,68.4 293.4,68.1 295.3,67.9 297.2,67.5 299.1,67.2 300.9,66.8 302.8,66.6 304.7,66.5 306.6,66.2 308.5,66.1 310.4,65.9 312.3,65.6 314.2,65.4 316.1,65.0 318.0,64.9 319.9,64.7 321.8,64.6 323.7,64.4 325.6,64.1 327.5,63.9 329.4,63.5 331.3,63.3 333.2,63.0 335.1,62.8 336.9,62.7 338.8,62.5 340.7,62.1 342.6,61.7 344.5,61.5 346.4,61.2 348.3,60.7 350.2,60.6 352.1,60.4 354.0,60.3 355.9,60.1 357.8,59.9 359.7,59.6 361.6,59.4 363.5,59.2 365.4,59.0 367.3,58.8 369.2,58.6 371.1,58.5 372.9,58.3 374.8,57.9 376.7,57.8 378.6,57.5 380.5,57.4 382.4,57.2 384.3,57.0 386.2,56.8 388.1,56.7 390.0,56.5 391.9,56.1 393.8,55.7 395.7,55.4 397.6,55.2 399.5,55.1 401.4,55.0 403.3,54.8 405.2,54.4 407.1,54.3 408.9,54.1 410.8,53.9 412.7,53.7 414.6,53.4 416.5,53.3 418.4,53.1 420.3,52.8 422.2,52.6 424.1,52.3 426.0,52.0 427.9,51.9 429.8,51.8 431.7,51.7 433.6,51.5 435.5,51.3 437.4,51.1 439.3,50.9 441.2,50.7 443.1,50.5 444.9,50.4 446.8,50.2 448.7,50.0 450.6,49.7 452.5,49.4 454.4,49.2 456.3,49.0 458.2,48.8 460.1,48.7 462.0,48.6 463.9,48.5 465.8,48.3 467.7,48.2 469.6,47.8 471.5,47.7 473.4,47.5 475.3,47.3 477.2,47.1 479.1,47.0 480.9,46.7 482.8,46.6 484.7,46.4 486.6,46.2 488.5,46.0 490.4,45.8 492.3,45.6 494.2,45.5 496.1,45.4 498.0,45.2 499.9,45.1 501.8,44.9 503.7,44.7 505.6,44.7 507.5,44.5 509.4,44.1 511.3,43.8 513.2,49.5 515.1,48.4 516.9,46.2 518.8,45.4 520.7,44.4 522.6,43.2 524.5,42.5 526.4,42.0 528.3,41.2 530.2,40.0 532.1,39.1 534.0,38.8 535.9,38.3 537.8,37.9 539.7,37.3 541.6,36.7 543.5,36.0 545.4,35.7 547.3,35.0 549.2,34.7 551.1,34.3 552.9,34.0 554.8,33.7 556.7,33.4 558.6,32.7 560.5,32.3 562.4,31.7 564.3,30.9 566.2,30.5 568.1,30.2 570.0,30.0" />
  
  <!-- Punto finale luminoso -->
  <circle cx="570.0" cy="30.0" r="4" fill="#ffffff" stroke="#0366d6" stroke-width="2.5" />
</svg>