<svg width="600" height="150" viewBox="0 0 600 150" xmlns="http://www.w3.org/2000/svg">
  <defs>
    <filter id="shadow2" x="-2%" y="-2%" width="104%" height="108%">
      <feDropShadow dx="0" dy="2" stdDeviation="3" flood-opacity="0.1" />
    </filter>
    <linearGradient id="fillGrad" x1="0" y1="0" x2="0" y2="1">
      <stop offset="0%" stop-color="#0366d6" stop-opacity="0.3"/>
      <stop offset="100%" stop-color="#0366d6" stop-opacity="0.02"/>
    </linearGradient>
  </defs>
  <rect width="600" height="150" rx="12" fill="#ffffff" filter="url(#shadow2)" stroke="#e1e4e8" stroke-width="1"/>
  <text x="20" y="24" fill="#2b3137" font-family="-apple-system,BlinkMacSystemFont,'Segoe UI',Helvetica,Arial,sans-serif" font-size="14" font-weight="600">📈 Download Growth (Actual: 76.0k)</text>
  
  <!-- Area sotto la linea -->
  <polygon fill="url(#fillGrad)" points="30.0,120.0,120 30.0,120.0 33.5,118.9 36.9,117.7 40.4,116.6 43.8,116.4 47.3,115.8 50.8,114.5 54.2,113.7 57.7,113.1 61.2,111.8 64.6,111.1 68.1,110.5 71.5,110.1 75.0,109.5 78.5,108.6 81.9,107.6 85.4,106.9 88.8,106.4 92.3,106.1 95.8,105.5 99.2,104.8 102.7,104.2 106.2,103.9 109.6,103.3 113.1,101.2 116.5,100.6 120.0,99.8 123.5,98.9 126.9,98.2 130.4,97.5 133.8,97.1 137.3,96.7 140.8,96.1 144.2,95.1 147.7,94.3 151.2,93.7 154.6,93.0 158.1,92.8 161.5,92.6 165.0,92.2 168.5,91.6 171.9,91.2 175.4,90.9 178.8,90.1 182.3,89.0 185.8,88.7 189.2,88.5 192.7,88.1 196.2,87.2 199.6,86.6 203.1,85.7 206.5,85.0 210.0,84.2 213.5,84.0 216.9,83.5 220.4,82.7 223.8,81.9 227.3,81.2 230.8,80.9 234.2,80.5 237.7,80.2 241.2,79.2 244.6,78.3 248.1,77.6 251.5,76.8 255.0,76.4 258.5,76.2 261.9,75.8 265.4,75.2 268.8,74.8 272.3,74.4 275.8,74.1 279.2,73.8 282.7,73.4 286.2,73.1 289.6,72.9 293.1,72.7 296.5,71.8 300.0,71.3 303.5,71.2 306.9,70.9 310.4,70.7 313.8,70.7 317.3,84.8 320.8,83.4 324.2,82.2 327.7,80.9 331.2,77.0 334.6,74.3 338.1,71.5 341.5,70.4 345.0,69.2 348.5,67.2 351.9,65.1 355.4,63.5 358.8,62.9 362.3,62.3 365.8,60.8 369.2,59.6 372.7,58.9 376.2,58.0 379.6,57.6 383.1,57.5 386.5,56.7 390.0,55.4 393.5,54.4 396.9,53.5 400.4,52.4 403.8,51.9 407.3,51.5 410.8,50.6 414.2,49.8 417.7,49.0 421.2,48.4 424.6,48.1 428.1,47.9 431.5,47.4 435.0,46.7 438.5,46.2 441.9,45.7 445.4,45.3 448.8,44.9 452.3,44.5 455.8,44.1 459.2,43.8 462.7,43.5 466.2,42.7 469.6,42.2 473.1,41.6 476.5,41.2 480.0,40.8 483.5,40.5 486.9,40.2 490.4,39.8 493.8,38.8 497.3,38.1 500.8,37.3 504.2,36.9 507.7,36.9 511.2,36.5 514.6,36.0 518.1,35.5 521.5,35.0 525.0,34.4 528.5,34.0 531.9,33.8 535.4,33.4 538.8,33.2 542.3,32.9 545.8,32.5 549.2,32.1 552.7,31.5 556.2,31.2 559.6,31.0 563.1,30.7 566.5,30.5 570.0,30.0 570.0,30.0,120" />
  
  <!-- Linea principale -->
  <polyline fill="none" stroke="#0366d6" stroke-width="2.5" stroke-linecap="round" stroke-linejoin="round" points="30.0,120.0 33.5,118.9 36.9,117.7 40.4,116.6 43.8,116.4 47.3,115.8 50.8,114.5 54.2,113.7 57.7,113.1 61.2,111.8 64.6,111.1 68.1,110.5 71.5,110.1 75.0,109.5 78.5,108.6 81.9,107.6 85.4,106.9 88.8,106.4 92.3,106.1 95.8,105.5 99.2,104.8 102.7,104.2 106.2,103.9 109.6,103.3 113.1,101.2 116.5,100.6 120.0,99.8 123.5,98.9 126.9,98.2 130.4,97.5 133.8,97.1 137.3,96.7 140.8,96.1 144.2,95.1 147.7,94.3 151.2,93.7 154.6,93.0 158.1,92.8 161.5,92.6 165.0,92.2 168.5,91.6 171.9,91.2 175.4,90.9 178.8,90.1 182.3,89.0 185.8,88.7 189.2,88.5 192.7,88.1 196.2,87.2 199.6,86.6 203.1,85.7 206.5,85.0 210.0,84.2 213.5,84.0 216.9,83.5 220.4,82.7 223.8,81.9 227.3,81.2 230.8,80.9 234.2,80.5 237.7,80.2 241.2,79.2 244.6,78.3 248.1,77.6 251.5,76.8 255.0,76.4 258.5,76.2 261.9,75.8 265.4,75.2 268.8,74.8 272.3,74.4 275.8,74.1 279.2,73.8 282.7,73.4 286.2,73.1 289.6,72.9 293.1,72.7 296.5,71.8 300.0,71.3 303.5,71.2 306.9,70.9 310.4,70.7 313.8,70.7 317.3,84.8 320.8,83.4 324.2,82.2 327.7,80.9 331.2,77.0 334.6,74.3 338.1,71.5 341.5,70.4 345.0,69.2 348.5,67.2 351.9,65.1 355.4,63.5 358.8,62.9 362.3,62.3 365.8,60.8 369.2,59.6 372.7,58.9 376.2,58.0 379.6,57.6 383.1,57.5 386.5,56.7 390.0,55.4 393.5,54.4 396.9,53.5 400.4,52.4 403.8,51.9 407.3,51.5 410.8,50.6 414.2,49.8 417.7,49.0 421.2,48.4 424.6,48.1 428.1,47.9 431.5,47.4 435.0,46.7 438.5,46.2 441.9,45.7 445.4,45.3 448.8,44.9 452.3,44.5 455.8,44.1 459.2,43.8 462.7,43.5 466.2,42.7 469.6,42.2 473.1,41.6 476.5,41.2 480.0,40.8 483.5,40.5 486.9,40.2 490.4,39.8 493.8,38.8 497.3,38.1 500.8,37.3 504.2,36.9 507.7,36.9 511.2,36.5 514.6,36.0 518.1,35.5 521.5,35.0 525.0,34.4 528.5,34.0 531.9,33.8 535.4,33.4 538.8,33.2 542.3,32.9 545.8,32.5 549.2,32.1 552.7,31.5 556.2,31.2 559.6,31.0 563.1,30.7 566.5,30.5 570.0,30.0" />
  
  <!-- Punto finale luminoso -->
  <circle cx="570.0" cy="30.0" r="4" fill="#ffffff" stroke="#0366d6" stroke-width="2.5" />
</svg>