<svg width="600" height="150" viewBox="0 0 600 150" xmlns="http://www.w3.org/2000/svg">
  <defs>
    <filter id="shadow2" x="-2%" y="-2%" width="104%" height="108%">
      <feDropShadow dx="0" dy="2" stdDeviation="3" flood-opacity="0.1" />
    </filter>
    <linearGradient id="fillGrad" x1="0" y1="0" x2="0" y2="1">
      <stop offset="0%" stop-color="#0366d6" stop-opacity="0.3"/>
      <stop offset="100%" stop-color="#0366d6" stop-opacity="0.02"/>
    </linearGradient>
  </defs>
  <rect width="600" height="150" rx="12" fill="#ffffff" filter="url(#shadow2)" stroke="#e1e4e8" stroke-width="1"/>
  <text x="20" y="24" fill="#2b3137" font-family="-apple-system,BlinkMacSystemFont,'Segoe UI',Helvetica,Arial,sans-serif" font-size="14" font-weight="600">📈 Download Growth (Actual: 71.9k)</text>
  
  <!-- Area sotto la linea -->
  <polygon fill="url(#fillGrad)" points="30.0,120.0,120 30.0,120.0 36.4,118.0 42.7,115.8 49.1,113.9 55.4,113.4 61.8,112.4 68.1,110.0 74.5,108.5 80.8,107.4 87.2,105.0 93.5,103.8 99.9,102.6 106.2,101.9 112.6,100.8 118.9,99.2 125.3,97.4 131.6,96.1 138.0,95.2 144.4,94.6 150.7,93.5 157.1,92.2 163.4,91.1 169.8,90.5 176.1,89.5 182.5,85.7 188.8,84.5 195.2,83.0 201.5,81.5 207.9,80.2 214.2,79.0 220.6,78.1 226.9,77.5 233.3,76.4 239.6,74.6 246.0,73.0 252.4,71.9 258.7,70.6 265.1,70.3 271.4,70.0 277.8,69.3 284.1,68.1 290.5,67.4 296.8,66.8 303.2,65.5 309.5,63.4 315.9,62.9 322.2,62.5 328.6,61.7 334.9,60.1 341.3,59.0 347.6,57.3 354.0,56.1 360.4,54.6 366.7,54.3 373.1,53.4 379.4,51.9 385.8,50.4 392.1,49.2 398.5,48.7 404.8,47.9 411.2,47.2 417.5,45.5 423.9,43.9 430.2,42.5 436.6,41.1 442.9,40.4 449.3,40.0 455.6,39.3 462.0,38.2 468.4,37.4 474.7,36.8 481.1,36.2 487.4,35.7 493.8,34.8 500.1,34.3 506.5,33.9 512.8,33.5 519.2,32.0 525.5,31.1 531.9,30.8 538.2,30.3 544.6,30.0 550.9,30.0 557.3,55.7 563.6,53.2 570.0,50.9 570.0,50.9,120" />
  
  <!-- Linea principale -->
  <polyline fill="none" stroke="#0366d6" stroke-width="2.5" stroke-linecap="round" stroke-linejoin="round" points="30.0,120.0 36.4,118.0 42.7,115.8 49.1,113.9 55.4,113.4 61.8,112.4 68.1,110.0 74.5,108.5 80.8,107.4 87.2,105.0 93.5,103.8 99.9,102.6 106.2,101.9 112.6,100.8 118.9,99.2 125.3,97.4 131.6,96.1 138.0,95.2 144.4,94.6 150.7,93.5 157.1,92.2 163.4,91.1 169.8,90.5 176.1,89.5 182.5,85.7 188.8,84.5 195.2,83.0 201.5,81.5 207.9,80.2 214.2,79.0 220.6,78.1 226.9,77.5 233.3,76.4 239.6,74.6 246.0,73.0 252.4,71.9 258.7,70.6 265.1,70.3 271.4,70.0 277.8,69.3 284.1,68.1 290.5,67.4 296.8,66.8 303.2,65.5 309.5,63.4 315.9,62.9 322.2,62.5 328.6,61.7 334.9,60.1 341.3,59.0 347.6,57.3 354.0,56.1 360.4,54.6 366.7,54.3 373.1,53.4 379.4,51.9 385.8,50.4 392.1,49.2 398.5,48.7 404.8,47.9 411.2,47.2 417.5,45.5 423.9,43.9 430.2,42.5 436.6,41.1 442.9,40.4 449.3,40.0 455.6,39.3 462.0,38.2 468.4,37.4 474.7,36.8 481.1,36.2 487.4,35.7 493.8,34.8 500.1,34.3 506.5,33.9 512.8,33.5 519.2,32.0 525.5,31.1 531.9,30.8 538.2,30.3 544.6,30.0 550.9,30.0 557.3,55.7 563.6,53.2 570.0,50.9" />
  
  <!-- Punto finale luminoso -->
  <circle cx="570.0" cy="50.9" r="4" fill="#ffffff" stroke="#0366d6" stroke-width="2.5" />
</svg>