<svg width="600" height="150" viewBox="0 0 600 150" xmlns="http://www.w3.org/2000/svg">
  <defs>
    <filter id="shadow2" x="-2%" y="-2%" width="104%" height="108%">
      <feDropShadow dx="0" dy="2" stdDeviation="3" flood-opacity="0.1" />
    </filter>
    <linearGradient id="fillGrad" x1="0" y1="0" x2="0" y2="1">
      <stop offset="0%" stop-color="#0366d6" stop-opacity="0.3"/>
      <stop offset="100%" stop-color="#0366d6" stop-opacity="0.02"/>
    </linearGradient>
  </defs>
  <rect width="600" height="150" rx="12" fill="#ffffff" filter="url(#shadow2)" stroke="#e1e4e8" stroke-width="1"/>
  <text x="20" y="24" fill="#2b3137" font-family="-apple-system,BlinkMacSystemFont,'Segoe UI',Helvetica,Arial,sans-serif" font-size="14" font-weight="600">📈 Download Growth (Actual: 69.8k)</text>
  
  <!-- Area sotto la linea -->
  <polygon fill="url(#fillGrad)" points="30.0,120.0,120 30.0,120.0 43.2,116.6 56.3,112.8 69.5,109.5 82.7,108.7 95.9,106.9 109.0,102.9 122.2,100.3 135.4,98.5 148.5,94.3 161.7,92.3 174.9,90.2 188.0,89.0 201.2,87.1 214.4,84.4 227.6,81.4 240.7,79.1 253.9,77.6 267.1,76.5 280.2,74.7 293.4,72.5 306.6,70.6 319.8,69.6 332.9,67.8 346.1,61.3 359.3,59.4 372.4,56.8 385.6,54.2 398.8,52.0 412.0,49.8 425.1,48.4 438.3,47.3 451.5,45.5 464.6,42.4 477.8,39.6 491.0,37.8 504.1,35.6 517.3,35.0 530.5,34.4 543.7,33.3 556.8,31.2 570.0,30.0 570.0,30.0,120" />
  
  <!-- Linea principale -->
  <polyline fill="none" stroke="#0366d6" stroke-width="2.5" stroke-linecap="round" stroke-linejoin="round" points="30.0,120.0 43.2,116.6 56.3,112.8 69.5,109.5 82.7,108.7 95.9,106.9 109.0,102.9 122.2,100.3 135.4,98.5 148.5,94.3 161.7,92.3 174.9,90.2 188.0,89.0 201.2,87.1 214.4,84.4 227.6,81.4 240.7,79.1 253.9,77.6 267.1,76.5 280.2,74.7 293.4,72.5 306.6,70.6 319.8,69.6 332.9,67.8 346.1,61.3 359.3,59.4 372.4,56.8 385.6,54.2 398.8,52.0 412.0,49.8 425.1,48.4 438.3,47.3 451.5,45.5 464.6,42.4 477.8,39.6 491.0,37.8 504.1,35.6 517.3,35.0 530.5,34.4 543.7,33.3 556.8,31.2 570.0,30.0" />
  
  <!-- Punto finale luminoso -->
  <circle cx="570.0" cy="30.0" r="4" fill="#ffffff" stroke="#0366d6" stroke-width="2.5" />
</svg>