<svg width="600" height="150" viewBox="0 0 600 150" xmlns="http://www.w3.org/2000/svg">
  <defs>
    <filter id="shadow2" x="-2%" y="-2%" width="104%" height="108%">
      <feDropShadow dx="0" dy="2" stdDeviation="3" flood-opacity="0.1" />
    </filter>
    <linearGradient id="fillGrad" x1="0" y1="0" x2="0" y2="1">
      <stop offset="0%" stop-color="#0366d6" stop-opacity="0.3"/>
      <stop offset="100%" stop-color="#0366d6" stop-opacity="0.02"/>
    </linearGradient>
  </defs>
  <rect width="600" height="150" rx="12" fill="#ffffff" filter="url(#shadow2)" stroke="#e1e4e8" stroke-width="1"/>
  <text x="20" y="24" fill="#2b3137" font-family="-apple-system,BlinkMacSystemFont,'Segoe UI',Helvetica,Arial,sans-serif" font-size="14" font-weight="600">📈 Download Growth (Actual: 78.9k)</text>
  
  <!-- Area sotto la linea -->
  <polygon fill="url(#fillGrad)" points="30.0,120.0,120 30.0,120.0 32.2,119.2 34.5,118.3 36.7,117.5 38.9,117.3 41.2,116.8 43.4,115.9 45.6,115.2 47.9,114.8 50.1,113.8 52.3,113.3 54.5,112.8 56.8,112.5 59.0,112.1 61.2,111.4 63.5,110.7 65.7,110.1 67.9,109.7 70.2,109.5 72.4,109.0 74.6,108.5 76.9,108.0 79.1,107.8 81.3,107.4 83.6,105.8 85.8,105.3 88.0,104.7 90.2,104.1 92.5,103.5 94.7,103.0 96.9,102.7 99.2,102.4 101.4,102.0 103.6,101.2 105.9,100.6 108.1,100.1 110.3,99.6 112.6,99.4 114.8,99.3 117.0,99.0 119.3,98.5 121.5,98.2 123.7,98.0 126.0,97.4 128.2,96.6 130.4,96.4 132.6,96.2 134.9,95.9 137.1,95.2 139.3,94.8 141.6,94.1 143.8,93.6 146.0,93.0 148.3,92.8 150.5,92.5 152.7,91.8 155.0,91.2 157.2,90.7 159.4,90.5 161.7,90.2 163.9,89.9 166.1,89.2 168.3,88.5 170.6,88.0 172.8,87.4 175.0,87.1 177.3,86.9 179.5,86.6 181.7,86.2 184.0,85.8 186.2,85.6 188.4,85.3 190.7,85.1 192.9,84.8 195.1,84.6 197.4,84.4 199.6,84.2 201.8,83.6 204.0,83.2 206.3,83.1 208.5,82.9 210.7,82.8 213.0,82.8 215.2,93.4 217.4,92.4 219.7,91.4 221.9,90.4 224.1,87.5 226.4,85.5 228.6,83.3 230.8,82.5 233.1,81.6 235.3,80.1 237.5,78.5 239.8,77.3 242.0,76.9 244.2,76.4 246.4,75.3 248.7,74.4 250.9,73.9 253.1,73.2 255.4,72.9 257.6,72.8 259.8,72.2 262.1,71.2 264.3,70.5 266.5,69.8 268.8,69.0 271.0,68.6 273.2,68.3 275.5,67.6 277.7,67.0 279.9,66.4 282.1,65.9 284.4,65.7 286.6,65.6 288.8,65.2 291.1,64.7 293.3,64.3 295.5,63.9 297.8,63.6 300.0,63.3 302.2,63.0 304.5,62.7 306.7,62.5 308.9,62.2 311.2,61.6 313.4,61.2 315.6,60.8 317.9,60.5 320.1,60.2 322.3,60.0 324.5,59.7 326.8,59.5 329.0,58.7 331.2,58.2 333.5,57.5 335.7,57.3 337.9,57.2 340.2,56.9 342.4,56.6 344.6,56.2 346.9,55.8 349.1,55.3 351.3,55.0 353.6,54.9 355.8,54.6 358.0,54.4 360.2,54.2 362.5,53.9 364.7,53.6 366.9,53.2 369.2,53.0 371.4,52.8 373.6,52.6 375.9,52.4 378.1,52.0 380.3,51.7 382.6,51.3 384.8,51.0 387.0,50.7 389.3,50.4 391.5,50.3 393.7,50.1 396.0,49.6 398.2,49.1 400.4,48.8 402.6,48.5 404.9,47.9 407.1,47.8 409.3,47.6 411.6,47.4 413.8,47.1 416.0,46.9 418.3,46.5 420.5,46.3 422.7,46.0 425.0,45.8 427.2,45.6 429.4,45.4 431.7,45.2 433.9,44.9 436.1,44.5 438.3,44.3 440.6,44.0 442.8,43.8 445.0,43.6 447.3,43.4 449.5,43.2 451.7,43.0 454.0,42.7 456.2,42.3 458.4,41.8 460.7,41.5 462.9,41.2 465.1,41.1 467.4,41.0 469.6,40.7 471.8,40.2 474.0,40.0 476.3,39.9 478.5,39.6 480.7,39.3 483.0,39.0 485.2,38.9 487.4,38.7 489.7,38.3 491.9,38.0 494.1,37.7 496.4,37.3 498.6,37.2 500.8,37.1 503.1,37.0 505.3,36.7 507.5,36.5 509.8,36.2 512.0,36.0 514.2,35.7 516.4,35.5 518.7,35.3 520.9,35.1 523.1,34.9 525.4,34.5 527.6,34.2 529.8,33.9 532.1,33.7 534.3,33.5 536.5,33.3 538.8,33.2 541.0,33.0 543.2,32.9 545.5,32.6 547.7,32.2 549.9,32.0 552.1,31.8 554.4,31.6 556.6,31.4 558.8,31.2 561.1,30.9 563.3,30.7 565.5,30.5 567.8,30.3 570.0,30.0 570.0,30.0,120" />
  
  <!-- Linea principale -->
  <polyline fill="none" stroke="#0366d6" stroke-width="2.5" stroke-linecap="round" stroke-linejoin="round" points="30.0,120.0 32.2,119.2 34.5,118.3 36.7,117.5 38.9,117.3 41.2,116.8 43.4,115.9 45.6,115.2 47.9,114.8 50.1,113.8 52.3,113.3 54.5,112.8 56.8,112.5 59.0,112.1 61.2,111.4 63.5,110.7 65.7,110.1 67.9,109.7 70.2,109.5 72.4,109.0 74.6,108.5 76.9,108.0 79.1,107.8 81.3,107.4 83.6,105.8 85.8,105.3 88.0,104.7 90.2,104.1 92.5,103.5 94.7,103.0 96.9,102.7 99.2,102.4 101.4,102.0 103.6,101.2 105.9,100.6 108.1,100.1 110.3,99.6 112.6,99.4 114.8,99.3 117.0,99.0 119.3,98.5 121.5,98.2 123.7,98.0 126.0,97.4 128.2,96.6 130.4,96.4 132.6,96.2 134.9,95.9 137.1,95.2 139.3,94.8 141.6,94.1 143.8,93.6 146.0,93.0 148.3,92.8 150.5,92.5 152.7,91.8 155.0,91.2 157.2,90.7 159.4,90.5 161.7,90.2 163.9,89.9 166.1,89.2 168.3,88.5 170.6,88.0 172.8,87.4 175.0,87.1 177.3,86.9 179.5,86.6 181.7,86.2 184.0,85.8 186.2,85.6 188.4,85.3 190.7,85.1 192.9,84.8 195.1,84.6 197.4,84.4 199.6,84.2 201.8,83.6 204.0,83.2 206.3,83.1 208.5,82.9 210.7,82.8 213.0,82.8 215.2,93.4 217.4,92.4 219.7,91.4 221.9,90.4 224.1,87.5 226.4,85.5 228.6,83.3 230.8,82.5 233.1,81.6 235.3,80.1 237.5,78.5 239.8,77.3 242.0,76.9 244.2,76.4 246.4,75.3 248.7,74.4 250.9,73.9 253.1,73.2 255.4,72.9 257.6,72.8 259.8,72.2 262.1,71.2 264.3,70.5 266.5,69.8 268.8,69.0 271.0,68.6 273.2,68.3 275.5,67.6 277.7,67.0 279.9,66.4 282.1,65.9 284.4,65.7 286.6,65.6 288.8,65.2 291.1,64.7 293.3,64.3 295.5,63.9 297.8,63.6 300.0,63.3 302.2,63.0 304.5,62.7 306.7,62.5 308.9,62.2 311.2,61.6 313.4,61.2 315.6,60.8 317.9,60.5 320.1,60.2 322.3,60.0 324.5,59.7 326.8,59.5 329.0,58.7 331.2,58.2 333.5,57.5 335.7,57.3 337.9,57.2 340.2,56.9 342.4,56.6 344.6,56.2 346.9,55.8 349.1,55.3 351.3,55.0 353.6,54.9 355.8,54.6 358.0,54.4 360.2,54.2 362.5,53.9 364.7,53.6 366.9,53.2 369.2,53.0 371.4,52.8 373.6,52.6 375.9,52.4 378.1,52.0 380.3,51.7 382.6,51.3 384.8,51.0 387.0,50.7 389.3,50.4 391.5,50.3 393.7,50.1 396.0,49.6 398.2,49.1 400.4,48.8 402.6,48.5 404.9,47.9 407.1,47.8 409.3,47.6 411.6,47.4 413.8,47.1 416.0,46.9 418.3,46.5 420.5,46.3 422.7,46.0 425.0,45.8 427.2,45.6 429.4,45.4 431.7,45.2 433.9,44.9 436.1,44.5 438.3,44.3 440.6,44.0 442.8,43.8 445.0,43.6 447.3,43.4 449.5,43.2 451.7,43.0 454.0,42.7 456.2,42.3 458.4,41.8 460.7,41.5 462.9,41.2 465.1,41.1 467.4,41.0 469.6,40.7 471.8,40.2 474.0,40.0 476.3,39.9 478.5,39.6 480.7,39.3 483.0,39.0 485.2,38.9 487.4,38.7 489.7,38.3 491.9,38.0 494.1,37.7 496.4,37.3 498.6,37.2 500.8,37.1 503.1,37.0 505.3,36.7 507.5,36.5 509.8,36.2 512.0,36.0 514.2,35.7 516.4,35.5 518.7,35.3 520.9,35.1 523.1,34.9 525.4,34.5 527.6,34.2 529.8,33.9 532.1,33.7 534.3,33.5 536.5,33.3 538.8,33.2 541.0,33.0 543.2,32.9 545.5,32.6 547.7,32.2 549.9,32.0 552.1,31.8 554.4,31.6 556.6,31.4 558.8,31.2 561.1,30.9 563.3,30.7 565.5,30.5 567.8,30.3 570.0,30.0" />
  
  <!-- Punto finale luminoso -->
  <circle cx="570.0" cy="30.0" r="4" fill="#ffffff" stroke="#0366d6" stroke-width="2.5" />
</svg>