<svg width="600" height="150" viewBox="0 0 600 150" xmlns="http://www.w3.org/2000/svg">
  <defs>
    <filter id="shadow2" x="-2%" y="-2%" width="104%" height="108%">
      <feDropShadow dx="0" dy="2" stdDeviation="3" flood-opacity="0.1" />
    </filter>
    <linearGradient id="fillGrad" x1="0" y1="0" x2="0" y2="1">
      <stop offset="0%" stop-color="#0366d6" stop-opacity="0.3"/>
      <stop offset="100%" stop-color="#0366d6" stop-opacity="0.02"/>
    </linearGradient>
  </defs>
  <rect width="600" height="150" rx="12" fill="#ffffff" filter="url(#shadow2)" stroke="#e1e4e8" stroke-width="1"/>
  <text x="20" y="24" fill="#2b3137" font-family="-apple-system,BlinkMacSystemFont,'Segoe UI',Helvetica,Arial,sans-serif" font-size="14" font-weight="600">📈 Download Growth (Actual: 79.3k)</text>
  
  <!-- Area sotto la linea -->
  <polygon fill="url(#fillGrad)" points="30.0,120.0,120 30.0,120.0 32.1,119.2 34.2,118.3 36.3,117.5 38.3,117.3 40.4,116.9 42.5,116.0 44.6,115.4 46.7,114.9 48.8,114.0 50.8,113.5 52.9,113.0 55.0,112.7 57.1,112.3 59.2,111.6 61.3,110.9 63.4,110.4 65.4,110.0 67.5,109.8 69.6,109.3 71.7,108.8 73.8,108.4 75.9,108.2 78.0,107.7 80.0,106.2 82.1,105.8 84.2,105.2 86.3,104.6 88.4,104.0 90.5,103.5 92.5,103.2 94.6,102.9 96.7,102.5 98.8,101.8 100.9,101.1 103.0,100.7 105.1,100.2 107.1,100.0 109.2,99.9 111.3,99.6 113.4,99.1 115.5,98.9 117.6,98.6 119.7,98.1 121.7,97.3 123.8,97.1 125.9,96.9 128.0,96.6 130.1,95.9 132.2,95.5 134.2,94.8 136.3,94.4 138.4,93.8 140.5,93.6 142.6,93.3 144.7,92.7 146.8,92.0 148.8,91.6 150.9,91.4 153.0,91.1 155.1,90.8 157.2,90.1 159.3,89.5 161.4,88.9 163.4,88.3 165.5,88.0 167.6,87.9 169.7,87.6 171.8,87.1 173.9,86.8 175.9,86.6 178.0,86.3 180.1,86.1 182.2,85.8 184.3,85.6 186.4,85.4 188.5,85.3 190.5,84.7 192.6,84.3 194.7,84.2 196.8,84.0 198.9,83.9 201.0,83.9 203.1,94.2 205.1,93.2 207.2,92.3 209.3,91.3 211.4,88.5 213.5,86.5 215.6,84.4 217.6,83.6 219.7,82.7 221.8,81.3 223.9,79.7 226.0,78.5 228.1,78.1 230.2,77.7 232.2,76.6 234.3,75.7 236.4,75.2 238.5,74.5 240.6,74.3 242.7,74.2 244.7,73.6 246.8,72.6 248.9,71.9 251.0,71.2 253.1,70.4 255.2,70.1 257.3,69.8 259.3,69.1 261.4,68.5 263.5,67.9 265.6,67.5 267.7,67.3 269.8,67.1 271.9,66.8 273.9,66.3 276.0,65.9 278.1,65.5 280.2,65.2 282.3,64.9 284.4,64.6 286.4,64.4 288.5,64.1 290.6,63.9 292.7,63.3 294.8,62.9 296.9,62.5 299.0,62.2 301.0,61.9 303.1,61.7 305.2,61.5 307.3,61.2 309.4,60.5 311.5,60.0 313.6,59.3 315.6,59.1 317.7,59.0 319.8,58.7 321.9,58.4 324.0,58.0 326.1,57.7 328.1,57.2 330.2,56.9 332.3,56.8 334.4,56.5 336.5,56.3 338.6,56.1 340.7,55.8 342.7,55.5 344.8,55.1 346.9,54.9 349.0,54.7 351.1,54.5 353.2,54.4 355.3,54.0 357.3,53.7 359.4,53.3 361.5,53.0 363.6,52.7 365.7,52.5 367.8,52.3 369.8,52.1 371.9,51.6 374.0,51.2 376.1,50.9 378.2,50.5 380.3,50.0 382.4,49.8 384.4,49.7 386.5,49.5 388.6,49.2 390.7,49.0 392.8,48.7 394.9,48.4 396.9,48.2 399.0,48.0 401.1,47.7 403.2,47.5 405.3,47.4 407.4,47.1 409.5,46.7 411.5,46.5 413.6,46.2 415.7,46.0 417.8,45.8 419.9,45.6 422.0,45.4 424.1,45.2 426.1,45.0 428.2,44.5 430.3,44.0 432.4,43.7 434.5,43.5 436.6,43.4 438.6,43.3 440.7,43.0 442.8,42.5 444.9,42.4 447.0,42.2 449.1,41.9 451.2,41.7 453.2,41.4 455.3,41.2 457.4,41.0 459.5,40.7 461.6,40.4 463.7,40.0 465.8,39.7 467.8,39.6 469.9,39.5 472.0,39.4 474.1,39.1 476.2,38.9 478.3,38.6 480.3,38.4 482.4,38.1 484.5,37.9 486.6,37.8 488.7,37.5 490.8,37.3 492.9,37.0 494.9,36.7 497.0,36.4 499.1,36.1 501.2,36.0 503.3,35.8 505.4,35.7 507.5,35.5 509.5,35.4 511.6,35.1 513.7,34.8 515.8,34.6 517.9,34.3 520.0,34.2 522.0,34.0 524.1,33.7 526.2,33.5 528.3,33.3 530.4,33.1 532.5,32.9 534.6,32.6 536.6,32.4 538.7,32.1 540.8,32.0 542.9,31.9 545.0,31.7 547.1,31.5 549.2,31.3 551.2,31.1 553.3,31.0 555.4,30.8 557.5,30.3 559.6,30.0 561.7,36.8 563.7,35.4 565.8,32.9 567.9,31.9 570.0,30.7 570.0,30.7,120" />
  
  <!-- Linea principale -->
  <polyline fill="none" stroke="#0366d6" stroke-width="2.5" stroke-linecap="round" stroke-linejoin="round" points="30.0,120.0 32.1,119.2 34.2,118.3 36.3,117.5 38.3,117.3 40.4,116.9 42.5,116.0 44.6,115.4 46.7,114.9 48.8,114.0 50.8,113.5 52.9,113.0 55.0,112.7 57.1,112.3 59.2,111.6 61.3,110.9 63.4,110.4 65.4,110.0 67.5,109.8 69.6,109.3 71.7,108.8 73.8,108.4 75.9,108.2 78.0,107.7 80.0,106.2 82.1,105.8 84.2,105.2 86.3,104.6 88.4,104.0 90.5,103.5 92.5,103.2 94.6,102.9 96.7,102.5 98.8,101.8 100.9,101.1 103.0,100.7 105.1,100.2 107.1,100.0 109.2,99.9 111.3,99.6 113.4,99.1 115.5,98.9 117.6,98.6 119.7,98.1 121.7,97.3 123.8,97.1 125.9,96.9 128.0,96.6 130.1,95.9 132.2,95.5 134.2,94.8 136.3,94.4 138.4,93.8 140.5,93.6 142.6,93.3 144.7,92.7 146.8,92.0 148.8,91.6 150.9,91.4 153.0,91.1 155.1,90.8 157.2,90.1 159.3,89.5 161.4,88.9 163.4,88.3 165.5,88.0 167.6,87.9 169.7,87.6 171.8,87.1 173.9,86.8 175.9,86.6 178.0,86.3 180.1,86.1 182.2,85.8 184.3,85.6 186.4,85.4 188.5,85.3 190.5,84.7 192.6,84.3 194.7,84.2 196.8,84.0 198.9,83.9 201.0,83.9 203.1,94.2 205.1,93.2 207.2,92.3 209.3,91.3 211.4,88.5 213.5,86.5 215.6,84.4 217.6,83.6 219.7,82.7 221.8,81.3 223.9,79.7 226.0,78.5 228.1,78.1 230.2,77.7 232.2,76.6 234.3,75.7 236.4,75.2 238.5,74.5 240.6,74.3 242.7,74.2 244.7,73.6 246.8,72.6 248.9,71.9 251.0,71.2 253.1,70.4 255.2,70.1 257.3,69.8 259.3,69.1 261.4,68.5 263.5,67.9 265.6,67.5 267.7,67.3 269.8,67.1 271.9,66.8 273.9,66.3 276.0,65.9 278.1,65.5 280.2,65.2 282.3,64.9 284.4,64.6 286.4,64.4 288.5,64.1 290.6,63.9 292.7,63.3 294.8,62.9 296.9,62.5 299.0,62.2 301.0,61.9 303.1,61.7 305.2,61.5 307.3,61.2 309.4,60.5 311.5,60.0 313.6,59.3 315.6,59.1 317.7,59.0 319.8,58.7 321.9,58.4 324.0,58.0 326.1,57.7 328.1,57.2 330.2,56.9 332.3,56.8 334.4,56.5 336.5,56.3 338.6,56.1 340.7,55.8 342.7,55.5 344.8,55.1 346.9,54.9 349.0,54.7 351.1,54.5 353.2,54.4 355.3,54.0 357.3,53.7 359.4,53.3 361.5,53.0 363.6,52.7 365.7,52.5 367.8,52.3 369.8,52.1 371.9,51.6 374.0,51.2 376.1,50.9 378.2,50.5 380.3,50.0 382.4,49.8 384.4,49.7 386.5,49.5 388.6,49.2 390.7,49.0 392.8,48.7 394.9,48.4 396.9,48.2 399.0,48.0 401.1,47.7 403.2,47.5 405.3,47.4 407.4,47.1 409.5,46.7 411.5,46.5 413.6,46.2 415.7,46.0 417.8,45.8 419.9,45.6 422.0,45.4 424.1,45.2 426.1,45.0 428.2,44.5 430.3,44.0 432.4,43.7 434.5,43.5 436.6,43.4 438.6,43.3 440.7,43.0 442.8,42.5 444.9,42.4 447.0,42.2 449.1,41.9 451.2,41.7 453.2,41.4 455.3,41.2 457.4,41.0 459.5,40.7 461.6,40.4 463.7,40.0 465.8,39.7 467.8,39.6 469.9,39.5 472.0,39.4 474.1,39.1 476.2,38.9 478.3,38.6 480.3,38.4 482.4,38.1 484.5,37.9 486.6,37.8 488.7,37.5 490.8,37.3 492.9,37.0 494.9,36.7 497.0,36.4 499.1,36.1 501.2,36.0 503.3,35.8 505.4,35.7 507.5,35.5 509.5,35.4 511.6,35.1 513.7,34.8 515.8,34.6 517.9,34.3 520.0,34.2 522.0,34.0 524.1,33.7 526.2,33.5 528.3,33.3 530.4,33.1 532.5,32.9 534.6,32.6 536.6,32.4 538.7,32.1 540.8,32.0 542.9,31.9 545.0,31.7 547.1,31.5 549.2,31.3 551.2,31.1 553.3,31.0 555.4,30.8 557.5,30.3 559.6,30.0 561.7,36.8 563.7,35.4 565.8,32.9 567.9,31.9 570.0,30.7" />
  
  <!-- Punto finale luminoso -->
  <circle cx="570.0" cy="30.7" r="4" fill="#ffffff" stroke="#0366d6" stroke-width="2.5" />
</svg>