<svg width="600" height="150" viewBox="0 0 600 150" xmlns="http://www.w3.org/2000/svg">
  <defs>
    <filter id="shadow2" x="-2%" y="-2%" width="104%" height="108%">
      <feDropShadow dx="0" dy="2" stdDeviation="3" flood-opacity="0.1" />
    </filter>
    <linearGradient id="fillGrad" x1="0" y1="0" x2="0" y2="1">
      <stop offset="0%" stop-color="#0366d6" stop-opacity="0.3"/>
      <stop offset="100%" stop-color="#0366d6" stop-opacity="0.02"/>
    </linearGradient>
  </defs>
  <rect width="600" height="150" rx="12" fill="#ffffff" filter="url(#shadow2)" stroke="#e1e4e8" stroke-width="1"/>
  <text x="20" y="24" fill="#2b3137" font-family="-apple-system,BlinkMacSystemFont,'Segoe UI',Helvetica,Arial,sans-serif" font-size="14" font-weight="600">📈 Download Growth (Actual: 82.9k)</text>
  
  <!-- Area sotto la linea -->
  <polygon fill="url(#fillGrad)" points="30.0,120.0,120 30.0,120.0 31.8,119.4 33.6,118.7 35.4,118.1 37.2,117.9 38.9,117.6 40.7,116.9 42.5,116.4 44.3,116.1 46.1,115.3 47.9,115.0 49.7,114.6 51.5,114.4 53.2,114.0 55.0,113.5 56.8,113.0 58.6,112.6 60.4,112.3 62.2,112.1 64.0,111.8 65.8,111.4 67.5,111.0 69.3,110.8 71.1,110.5 72.9,109.3 74.7,109.0 76.5,108.5 78.3,108.0 80.1,107.6 81.9,107.2 83.6,107.0 85.4,106.8 87.2,106.5 89.0,105.9 90.8,105.4 92.6,105.0 94.4,104.6 96.2,104.5 97.9,104.4 99.7,104.2 101.5,103.9 103.3,103.6 105.1,103.5 106.9,103.0 108.7,102.4 110.5,102.2 112.3,102.1 114.0,101.9 115.8,101.4 117.6,101.0 119.4,100.5 121.2,100.1 123.0,99.7 124.8,99.6 126.6,99.3 128.3,98.8 130.1,98.3 131.9,98.0 133.7,97.8 135.5,97.6 137.3,97.4 139.1,96.8 140.9,96.3 142.6,95.9 144.4,95.5 146.2,95.2 148.0,95.1 149.8,94.9 151.6,94.6 153.4,94.3 155.2,94.1 157.0,93.9 158.7,93.8 160.5,93.5 162.3,93.3 164.1,93.2 165.9,93.1 167.7,92.6 169.5,92.4 171.3,92.3 173.0,92.1 174.8,92.0 176.6,92.0 178.4,100.0 180.2,99.2 182.0,98.5 183.8,97.8 185.6,95.6 187.4,94.1 189.1,92.4 190.9,91.8 192.7,91.1 194.5,90.0 196.3,88.8 198.1,87.9 199.9,87.6 201.7,87.2 203.4,86.4 205.2,85.7 207.0,85.3 208.8,84.8 210.6,84.6 212.4,84.5 214.2,84.0 216.0,83.3 217.7,82.8 219.5,82.2 221.3,81.6 223.1,81.3 224.9,81.1 226.7,80.6 228.5,80.1 230.3,79.7 232.1,79.3 233.8,79.2 235.6,79.1 237.4,78.8 239.2,78.4 241.0,78.1 242.8,77.8 244.6,77.6 246.4,77.4 248.1,77.1 249.9,76.9 251.7,76.7 253.5,76.5 255.3,76.1 257.1,75.8 258.9,75.5 260.7,75.2 262.5,75.0 264.2,74.9 266.0,74.7 267.8,74.5 269.6,73.9 271.4,73.5 273.2,73.0 275.0,72.8 276.8,72.8 278.5,72.6 280.3,72.3 282.1,72.0 283.9,71.7 285.7,71.4 287.5,71.1 289.3,71.0 291.1,70.8 292.8,70.7 294.6,70.5 296.4,70.3 298.2,70.1 300.0,69.7 301.8,69.6 303.6,69.5 305.4,69.3 307.2,69.2 308.9,68.9 310.7,68.7 312.5,68.4 314.3,68.1 316.1,67.9 317.9,67.7 319.7,67.6 321.5,67.4 323.2,67.0 325.0,66.7 326.8,66.5 328.6,66.2 330.4,65.8 332.2,65.7 334.0,65.5 335.8,65.4 337.5,65.2 339.3,65.0 341.1,64.8 342.9,64.6 344.7,64.4 346.5,64.2 348.3,64.0 350.1,63.9 351.9,63.8 353.6,63.6 355.4,63.2 357.2,63.1 359.0,62.8 360.8,62.7 362.6,62.6 364.4,62.4 366.2,62.2 367.9,62.1 369.7,61.9 371.5,61.5 373.3,61.2 375.1,60.9 376.9,60.7 378.7,60.7 380.5,60.6 382.3,60.3 384.0,60.0 385.8,59.9 387.6,59.7 389.4,59.5 391.2,59.3 393.0,59.1 394.8,59.0 396.6,58.8 398.3,58.6 400.1,58.3 401.9,58.1 403.7,57.8 405.5,57.7 407.3,57.6 409.1,57.6 410.9,57.4 412.6,57.2 414.4,57.0 416.2,56.8 418.0,56.6 419.8,56.4 421.6,56.3 423.4,56.1 425.2,56.0 427.0,55.7 428.7,55.5 430.5,55.3 432.3,55.1 434.1,54.9 435.9,54.8 437.7,54.7 439.5,54.6 441.3,54.5 443.0,54.3 444.8,54.0 446.6,53.8 448.4,53.7 450.2,53.5 452.0,53.4 453.8,53.2 455.6,53.0 457.4,52.8 459.1,52.7 460.9,52.5 462.7,52.3 464.5,52.1 466.3,52.0 468.1,51.9 469.9,51.7 471.7,51.6 473.4,51.5 475.2,51.3 477.0,51.2 478.8,51.1 480.6,50.9 482.4,50.6 484.2,50.3 486.0,55.5 487.7,54.5 489.5,52.5 491.3,51.8 493.1,50.9 494.9,49.7 496.7,49.1 498.5,48.7 500.3,48.0 502.1,46.8 503.8,46.0 505.6,45.7 507.4,45.3 509.2,44.9 511.0,44.4 512.8,43.8 514.6,43.2 516.4,42.9 518.1,42.3 519.9,42.0 521.7,41.6 523.5,41.3 525.3,41.0 527.1,40.8 528.9,40.2 530.7,39.8 532.5,39.3 534.2,38.6 536.0,38.1 537.8,37.9 539.6,37.7 541.4,37.4 543.2,36.9 545.0,36.5 546.8,36.2 548.5,35.1 550.3,34.3 552.1,33.9 553.9,33.7 555.7,33.3 557.5,32.8 559.3,32.3 561.1,31.9 562.8,31.6 564.6,31.2 566.4,30.8 568.2,30.5 570.0,30.0 570.0,30.0,120" />
  
  <!-- Linea principale -->
  <polyline fill="none" stroke="#0366d6" stroke-width="2.5" stroke-linecap="round" stroke-linejoin="round" points="30.0,120.0 31.8,119.4 33.6,118.7 35.4,118.1 37.2,117.9 38.9,117.6 40.7,116.9 42.5,116.4 44.3,116.1 46.1,115.3 47.9,115.0 49.7,114.6 51.5,114.4 53.2,114.0 55.0,113.5 56.8,113.0 58.6,112.6 60.4,112.3 62.2,112.1 64.0,111.8 65.8,111.4 67.5,111.0 69.3,110.8 71.1,110.5 72.9,109.3 74.7,109.0 76.5,108.5 78.3,108.0 80.1,107.6 81.9,107.2 83.6,107.0 85.4,106.8 87.2,106.5 89.0,105.9 90.8,105.4 92.6,105.0 94.4,104.6 96.2,104.5 97.9,104.4 99.7,104.2 101.5,103.9 103.3,103.6 105.1,103.5 106.9,103.0 108.7,102.4 110.5,102.2 112.3,102.1 114.0,101.9 115.8,101.4 117.6,101.0 119.4,100.5 121.2,100.1 123.0,99.7 124.8,99.6 126.6,99.3 128.3,98.8 130.1,98.3 131.9,98.0 133.7,97.8 135.5,97.6 137.3,97.4 139.1,96.8 140.9,96.3 142.6,95.9 144.4,95.5 146.2,95.2 148.0,95.1 149.8,94.9 151.6,94.6 153.4,94.3 155.2,94.1 157.0,93.9 158.7,93.8 160.5,93.5 162.3,93.3 164.1,93.2 165.9,93.1 167.7,92.6 169.5,92.4 171.3,92.3 173.0,92.1 174.8,92.0 176.6,92.0 178.4,100.0 180.2,99.2 182.0,98.5 183.8,97.8 185.6,95.6 187.4,94.1 189.1,92.4 190.9,91.8 192.7,91.1 194.5,90.0 196.3,88.8 198.1,87.9 199.9,87.6 201.7,87.2 203.4,86.4 205.2,85.7 207.0,85.3 208.8,84.8 210.6,84.6 212.4,84.5 214.2,84.0 216.0,83.3 217.7,82.8 219.5,82.2 221.3,81.6 223.1,81.3 224.9,81.1 226.7,80.6 228.5,80.1 230.3,79.7 232.1,79.3 233.8,79.2 235.6,79.1 237.4,78.8 239.2,78.4 241.0,78.1 242.8,77.8 244.6,77.6 246.4,77.4 248.1,77.1 249.9,76.9 251.7,76.7 253.5,76.5 255.3,76.1 257.1,75.8 258.9,75.5 260.7,75.2 262.5,75.0 264.2,74.9 266.0,74.7 267.8,74.5 269.6,73.9 271.4,73.5 273.2,73.0 275.0,72.8 276.8,72.8 278.5,72.6 280.3,72.3 282.1,72.0 283.9,71.7 285.7,71.4 287.5,71.1 289.3,71.0 291.1,70.8 292.8,70.7 294.6,70.5 296.4,70.3 298.2,70.1 300.0,69.7 301.8,69.6 303.6,69.5 305.4,69.3 307.2,69.2 308.9,68.9 310.7,68.7 312.5,68.4 314.3,68.1 316.1,67.9 317.9,67.7 319.7,67.6 321.5,67.4 323.2,67.0 325.0,66.7 326.8,66.5 328.6,66.2 330.4,65.8 332.2,65.7 334.0,65.5 335.8,65.4 337.5,65.2 339.3,65.0 341.1,64.8 342.9,64.6 344.7,64.4 346.5,64.2 348.3,64.0 350.1,63.9 351.9,63.8 353.6,63.6 355.4,63.2 357.2,63.1 359.0,62.8 360.8,62.7 362.6,62.6 364.4,62.4 366.2,62.2 367.9,62.1 369.7,61.9 371.5,61.5 373.3,61.2 375.1,60.9 376.9,60.7 378.7,60.7 380.5,60.6 382.3,60.3 384.0,60.0 385.8,59.9 387.6,59.7 389.4,59.5 391.2,59.3 393.0,59.1 394.8,59.0 396.6,58.8 398.3,58.6 400.1,58.3 401.9,58.1 403.7,57.8 405.5,57.7 407.3,57.6 409.1,57.6 410.9,57.4 412.6,57.2 414.4,57.0 416.2,56.8 418.0,56.6 419.8,56.4 421.6,56.3 423.4,56.1 425.2,56.0 427.0,55.7 428.7,55.5 430.5,55.3 432.3,55.1 434.1,54.9 435.9,54.8 437.7,54.7 439.5,54.6 441.3,54.5 443.0,54.3 444.8,54.0 446.6,53.8 448.4,53.7 450.2,53.5 452.0,53.4 453.8,53.2 455.6,53.0 457.4,52.8 459.1,52.7 460.9,52.5 462.7,52.3 464.5,52.1 466.3,52.0 468.1,51.9 469.9,51.7 471.7,51.6 473.4,51.5 475.2,51.3 477.0,51.2 478.8,51.1 480.6,50.9 482.4,50.6 484.2,50.3 486.0,55.5 487.7,54.5 489.5,52.5 491.3,51.8 493.1,50.9 494.9,49.7 496.7,49.1 498.5,48.7 500.3,48.0 502.1,46.8 503.8,46.0 505.6,45.7 507.4,45.3 509.2,44.9 511.0,44.4 512.8,43.8 514.6,43.2 516.4,42.9 518.1,42.3 519.9,42.0 521.7,41.6 523.5,41.3 525.3,41.0 527.1,40.8 528.9,40.2 530.7,39.8 532.5,39.3 534.2,38.6 536.0,38.1 537.8,37.9 539.6,37.7 541.4,37.4 543.2,36.9 545.0,36.5 546.8,36.2 548.5,35.1 550.3,34.3 552.1,33.9 553.9,33.7 555.7,33.3 557.5,32.8 559.3,32.3 561.1,31.9 562.8,31.6 564.6,31.2 566.4,30.8 568.2,30.5 570.0,30.0" />
  
  <!-- Punto finale luminoso -->
  <circle cx="570.0" cy="30.0" r="4" fill="#ffffff" stroke="#0366d6" stroke-width="2.5" />
</svg>