<svg width="600" height="150" viewBox="0 0 600 150" xmlns="http://www.w3.org/2000/svg">
  <defs>
    <filter id="shadow2" x="-2%" y="-2%" width="104%" height="108%">
      <feDropShadow dx="0" dy="2" stdDeviation="3" flood-opacity="0.1" />
    </filter>
    <linearGradient id="fillGrad" x1="0" y1="0" x2="0" y2="1">
      <stop offset="0%" stop-color="#0366d6" stop-opacity="0.3"/>
      <stop offset="100%" stop-color="#0366d6" stop-opacity="0.02"/>
    </linearGradient>
  </defs>
  <rect width="600" height="150" rx="12" fill="#ffffff" filter="url(#shadow2)" stroke="#e1e4e8" stroke-width="1"/>
  <text x="20" y="24" fill="#2b3137" font-family="-apple-system,BlinkMacSystemFont,'Segoe UI',Helvetica,Arial,sans-serif" font-size="14" font-weight="600">📈 Download Growth (Actual: 85.6k)</text>
  
  <!-- Area sotto la linea -->
  <polygon fill="url(#fillGrad)" points="30.0,120.0,120 30.0,120.0 31.5,119.5 33.0,118.9 34.5,118.4 36.0,118.2 37.5,118.0 39.0,117.3 40.5,116.9 42.0,116.6 43.5,116.0 45.0,115.7 46.5,115.3 48.0,115.2 49.5,114.9 51.0,114.4 52.5,114.0 54.0,113.6 55.5,113.4 57.0,113.2 58.5,112.9 60.0,112.6 61.5,112.3 63.0,112.1 64.5,111.8 66.0,110.8 67.5,110.5 69.0,110.1 70.5,109.7 72.0,109.4 73.5,109.0 75.0,108.8 76.5,108.6 78.0,108.4 79.5,107.9 81.0,107.4 82.5,107.1 84.0,106.8 85.5,106.7 87.0,106.6 88.5,106.4 90.0,106.1 91.5,105.9 93.0,105.8 94.5,105.4 96.0,104.9 97.5,104.7 99.0,104.6 100.5,104.4 102.0,104.0 103.5,103.7 105.0,103.3 106.5,102.9 108.0,102.5 109.5,102.4 111.0,102.2 112.5,101.8 114.0,101.4 115.5,101.1 117.0,100.9 118.5,100.7 120.0,100.5 121.5,100.1 123.0,99.7 124.5,99.3 126.0,98.9 127.5,98.7 129.0,98.6 130.5,98.4 132.0,98.1 133.5,97.9 135.0,97.7 136.5,97.6 138.0,97.5 139.5,97.2 141.0,97.1 142.5,97.0 144.0,96.9 145.5,96.5 147.0,96.2 148.5,96.2 150.0,96.0 151.5,95.9 153.0,95.9 154.5,102.8 156.0,102.1 157.5,101.5 159.0,100.9 160.5,99.0 162.0,97.7 163.5,96.3 165.0,95.8 166.5,95.2 168.0,94.2 169.5,93.2 171.0,92.4 172.5,92.1 174.0,91.8 175.5,91.1 177.0,90.5 178.5,90.2 180.0,89.7 181.5,89.6 183.0,89.5 184.5,89.1 186.0,88.4 187.5,88.0 189.0,87.5 190.5,87.0 192.0,86.8 193.5,86.6 195.0,86.1 196.5,85.7 198.0,85.4 199.5,85.1 201.0,84.9 202.5,84.8 204.0,84.6 205.5,84.2 207.0,84.0 208.5,83.7 210.0,83.5 211.5,83.3 213.0,83.2 214.5,83.0 216.0,82.8 217.5,82.6 219.0,82.3 220.5,82.0 222.0,81.7 223.5,81.5 225.0,81.3 226.5,81.2 228.0,81.0 229.5,80.9 231.0,80.4 232.5,80.0 234.0,79.6 235.5,79.5 237.0,79.4 238.5,79.2 240.0,79.0 241.5,78.7 243.0,78.5 244.5,78.2 246.0,78.0 247.5,77.9 249.0,77.7 250.5,77.6 252.0,77.5 253.5,77.3 255.0,77.1 256.5,76.8 258.0,76.7 259.5,76.6 261.0,76.4 262.5,76.3 264.0,76.1 265.5,75.9 267.0,75.6 268.5,75.4 270.0,75.2 271.5,75.0 273.0,74.9 274.5,74.8 276.0,74.5 277.5,74.2 279.0,74.0 280.5,73.8 282.0,73.4 283.5,73.3 285.0,73.2 286.5,73.1 288.0,72.9 289.5,72.7 291.0,72.5 292.5,72.4 294.0,72.2 295.5,72.0 297.0,71.9 298.5,71.8 300.0,71.7 301.5,71.5 303.0,71.2 304.5,71.1 306.0,70.9 307.5,70.8 309.0,70.6 310.5,70.5 312.0,70.3 313.5,70.2 315.0,70.0 316.5,69.8 318.0,69.4 319.5,69.2 321.0,69.1 322.5,69.0 324.0,68.9 325.5,68.7 327.0,68.4 328.5,68.3 330.0,68.2 331.5,68.0 333.0,67.9 334.5,67.7 336.0,67.5 337.5,67.4 339.0,67.2 340.5,67.0 342.0,66.8 343.5,66.6 345.0,66.5 346.5,66.4 348.0,66.3 349.5,66.2 351.0,66.0 352.5,65.8 354.0,65.7 355.5,65.5 357.0,65.4 358.5,65.3 360.0,65.1 361.5,65.0 363.0,64.8 364.5,64.5 366.0,64.4 367.5,64.2 369.0,64.1 370.5,64.0 372.0,63.9 373.5,63.8 375.0,63.7 376.5,63.5 378.0,63.3 379.5,63.1 381.0,63.0 382.5,62.9 384.0,62.7 385.5,62.6 387.0,62.4 388.5,62.3 390.0,62.2 391.5,62.0 393.0,61.8 394.5,61.7 396.0,61.5 397.5,61.4 399.0,61.3 400.5,61.2 402.0,61.1 403.5,60.9 405.0,60.8 406.5,60.8 408.0,60.6 409.5,60.3 411.0,60.1 412.5,64.6 414.0,63.7 415.5,62.0 417.0,61.4 418.5,60.6 420.0,59.6 421.5,59.1 423.0,58.7 424.5,58.1 426.0,57.1 427.5,56.4 429.0,56.1 430.5,55.8 432.0,55.5 433.5,55.0 435.0,54.5 436.5,53.9 438.0,53.7 439.5,53.2 441.0,52.9 442.5,52.6 444.0,52.4 445.5,52.1 447.0,51.9 448.5,51.4 450.0,51.1 451.5,50.6 453.0,50.0 454.5,49.6 456.0,49.4 457.5,49.2 459.0,49.0 460.5,48.6 462.0,48.2 463.5,47.9 465.0,47.0 466.5,46.3 468.0,46.0 469.5,45.8 471.0,45.5 472.5,45.0 474.0,44.6 475.5,44.3 477.0,44.0 478.5,43.7 480.0,43.4 481.5,43.0 483.0,42.6 484.5,42.4 486.0,42.2 487.5,42.0 489.0,41.6 490.5,41.3 492.0,41.1 493.5,41.0 495.0,40.8 496.5,40.5 498.0,40.3 499.5,40.1 501.0,39.9 502.5,39.8 504.0,39.6 505.5,39.3 507.0,39.1 508.5,38.8 510.0,38.4 511.5,38.1 513.0,37.9 514.5,37.7 516.0,37.6 517.5,37.4 519.0,37.2 520.5,37.0 522.0,36.9 523.5,36.7 525.0,36.5 526.5,36.4 528.0,36.1 529.5,36.0 531.0,35.8 532.5,35.5 534.0,35.2 535.5,34.8 537.0,34.6 538.5,34.4 540.0,34.2 541.5,33.9 543.0,33.7 544.5,33.4 546.0,33.2 547.5,33.1 549.0,33.0 550.5,32.8 552.0,32.5 553.5,32.3 555.0,32.2 556.5,32.0 558.0,31.7 559.5,31.5 561.0,31.2 562.5,31.1 564.0,30.7 565.5,30.5 567.0,30.3 568.5,30.2 570.0,30.0 570.0,30.0,120" />
  
  <!-- Linea principale -->
  <polyline fill="none" stroke="#0366d6" stroke-width="2.5" stroke-linecap="round" stroke-linejoin="round" points="30.0,120.0 31.5,119.5 33.0,118.9 34.5,118.4 36.0,118.2 37.5,118.0 39.0,117.3 40.5,116.9 42.0,116.6 43.5,116.0 45.0,115.7 46.5,115.3 48.0,115.2 49.5,114.9 51.0,114.4 52.5,114.0 54.0,113.6 55.5,113.4 57.0,113.2 58.5,112.9 60.0,112.6 61.5,112.3 63.0,112.1 64.5,111.8 66.0,110.8 67.5,110.5 69.0,110.1 70.5,109.7 72.0,109.4 73.5,109.0 75.0,108.8 76.5,108.6 78.0,108.4 79.5,107.9 81.0,107.4 82.5,107.1 84.0,106.8 85.5,106.7 87.0,106.6 88.5,106.4 90.0,106.1 91.5,105.9 93.0,105.8 94.5,105.4 96.0,104.9 97.5,104.7 99.0,104.6 100.5,104.4 102.0,104.0 103.5,103.7 105.0,103.3 106.5,102.9 108.0,102.5 109.5,102.4 111.0,102.2 112.5,101.8 114.0,101.4 115.5,101.1 117.0,100.9 118.5,100.7 120.0,100.5 121.5,100.1 123.0,99.7 124.5,99.3 126.0,98.9 127.5,98.7 129.0,98.6 130.5,98.4 132.0,98.1 133.5,97.9 135.0,97.7 136.5,97.6 138.0,97.5 139.5,97.2 141.0,97.1 142.5,97.0 144.0,96.9 145.5,96.5 147.0,96.2 148.5,96.2 150.0,96.0 151.5,95.9 153.0,95.9 154.5,102.8 156.0,102.1 157.5,101.5 159.0,100.9 160.5,99.0 162.0,97.7 163.5,96.3 165.0,95.8 166.5,95.2 168.0,94.2 169.5,93.2 171.0,92.4 172.5,92.1 174.0,91.8 175.5,91.1 177.0,90.5 178.5,90.2 180.0,89.7 181.5,89.6 183.0,89.5 184.5,89.1 186.0,88.4 187.5,88.0 189.0,87.5 190.5,87.0 192.0,86.8 193.5,86.6 195.0,86.1 196.5,85.7 198.0,85.4 199.5,85.1 201.0,84.9 202.5,84.8 204.0,84.6 205.5,84.2 207.0,84.0 208.5,83.7 210.0,83.5 211.5,83.3 213.0,83.2 214.5,83.0 216.0,82.8 217.5,82.6 219.0,82.3 220.5,82.0 222.0,81.7 223.5,81.5 225.0,81.3 226.5,81.2 228.0,81.0 229.5,80.9 231.0,80.4 232.5,80.0 234.0,79.6 235.5,79.5 237.0,79.4 238.5,79.2 240.0,79.0 241.5,78.7 243.0,78.5 244.5,78.2 246.0,78.0 247.5,77.9 249.0,77.7 250.5,77.6 252.0,77.5 253.5,77.3 255.0,77.1 256.5,76.8 258.0,76.7 259.5,76.6 261.0,76.4 262.5,76.3 264.0,76.1 265.5,75.9 267.0,75.6 268.5,75.4 270.0,75.2 271.5,75.0 273.0,74.9 274.5,74.8 276.0,74.5 277.5,74.2 279.0,74.0 280.5,73.8 282.0,73.4 283.5,73.3 285.0,73.2 286.5,73.1 288.0,72.9 289.5,72.7 291.0,72.5 292.5,72.4 294.0,72.2 295.5,72.0 297.0,71.9 298.5,71.8 300.0,71.7 301.5,71.5 303.0,71.2 304.5,71.1 306.0,70.9 307.5,70.8 309.0,70.6 310.5,70.5 312.0,70.3 313.5,70.2 315.0,70.0 316.5,69.8 318.0,69.4 319.5,69.2 321.0,69.1 322.5,69.0 324.0,68.9 325.5,68.7 327.0,68.4 328.5,68.3 330.0,68.2 331.5,68.0 333.0,67.9 334.5,67.7 336.0,67.5 337.5,67.4 339.0,67.2 340.5,67.0 342.0,66.8 343.5,66.6 345.0,66.5 346.5,66.4 348.0,66.3 349.5,66.2 351.0,66.0 352.5,65.8 354.0,65.7 355.5,65.5 357.0,65.4 358.5,65.3 360.0,65.1 361.5,65.0 363.0,64.8 364.5,64.5 366.0,64.4 367.5,64.2 369.0,64.1 370.5,64.0 372.0,63.9 373.5,63.8 375.0,63.7 376.5,63.5 378.0,63.3 379.5,63.1 381.0,63.0 382.5,62.9 384.0,62.7 385.5,62.6 387.0,62.4 388.5,62.3 390.0,62.2 391.5,62.0 393.0,61.8 394.5,61.7 396.0,61.5 397.5,61.4 399.0,61.3 400.5,61.2 402.0,61.1 403.5,60.9 405.0,60.8 406.5,60.8 408.0,60.6 409.5,60.3 411.0,60.1 412.5,64.6 414.0,63.7 415.5,62.0 417.0,61.4 418.5,60.6 420.0,59.6 421.5,59.1 423.0,58.7 424.5,58.1 426.0,57.1 427.5,56.4 429.0,56.1 430.5,55.8 432.0,55.5 433.5,55.0 435.0,54.5 436.5,53.9 438.0,53.7 439.5,53.2 441.0,52.9 442.5,52.6 444.0,52.4 445.5,52.1 447.0,51.9 448.5,51.4 450.0,51.1 451.5,50.6 453.0,50.0 454.5,49.6 456.0,49.4 457.5,49.2 459.0,49.0 460.5,48.6 462.0,48.2 463.5,47.9 465.0,47.0 466.5,46.3 468.0,46.0 469.5,45.8 471.0,45.5 472.5,45.0 474.0,44.6 475.5,44.3 477.0,44.0 478.5,43.7 480.0,43.4 481.5,43.0 483.0,42.6 484.5,42.4 486.0,42.2 487.5,42.0 489.0,41.6 490.5,41.3 492.0,41.1 493.5,41.0 495.0,40.8 496.5,40.5 498.0,40.3 499.5,40.1 501.0,39.9 502.5,39.8 504.0,39.6 505.5,39.3 507.0,39.1 508.5,38.8 510.0,38.4 511.5,38.1 513.0,37.9 514.5,37.7 516.0,37.6 517.5,37.4 519.0,37.2 520.5,37.0 522.0,36.9 523.5,36.7 525.0,36.5 526.5,36.4 528.0,36.1 529.5,36.0 531.0,35.8 532.5,35.5 534.0,35.2 535.5,34.8 537.0,34.6 538.5,34.4 540.0,34.2 541.5,33.9 543.0,33.7 544.5,33.4 546.0,33.2 547.5,33.1 549.0,33.0 550.5,32.8 552.0,32.5 553.5,32.3 555.0,32.2 556.5,32.0 558.0,31.7 559.5,31.5 561.0,31.2 562.5,31.1 564.0,30.7 565.5,30.5 567.0,30.3 568.5,30.2 570.0,30.0" />
  
  <!-- Punto finale luminoso -->
  <circle cx="570.0" cy="30.0" r="4" fill="#ffffff" stroke="#0366d6" stroke-width="2.5" />
</svg>