<svg width="600" height="150" viewBox="0 0 600 150" xmlns="http://www.w3.org/2000/svg">
  <defs>
    <filter id="shadow2" x="-2%" y="-2%" width="104%" height="108%">
      <feDropShadow dx="0" dy="2" stdDeviation="3" flood-opacity="0.1" />
    </filter>
    <linearGradient id="fillGrad" x1="0" y1="0" x2="0" y2="1">
      <stop offset="0%" stop-color="#0366d6" stop-opacity="0.3"/>
      <stop offset="100%" stop-color="#0366d6" stop-opacity="0.02"/>
    </linearGradient>
  </defs>
  <rect width="600" height="150" rx="12" fill="#ffffff" filter="url(#shadow2)" stroke="#e1e4e8" stroke-width="1"/>
  <text x="20" y="24" fill="#2b3137" font-family="-apple-system,BlinkMacSystemFont,'Segoe UI',Helvetica,Arial,sans-serif" font-size="14" font-weight="600">📈 Download Growth (Actual: 71.8k)</text>
  
  <!-- Area sotto la linea -->
  <polygon fill="url(#fillGrad)" points="30.0,120.0,120 30.0,120.0 36.8,118.0 43.5,115.8 50.2,113.9 57.0,113.3 63.8,112.3 70.5,110.0 77.2,108.4 84.0,107.4 90.8,104.9 97.5,103.7 104.2,102.5 111.0,101.8 117.8,100.7 124.5,99.1 131.2,97.4 138.0,96.0 144.8,95.1 151.5,94.5 158.2,93.4 165.0,92.1 171.8,91.0 178.5,90.4 185.2,89.4 192.0,85.5 198.8,84.4 205.5,82.9 212.2,81.4 219.0,80.1 225.8,78.8 232.5,78.0 239.2,77.4 246.0,76.3 252.8,74.4 259.5,72.8 266.2,71.8 273.0,70.5 279.8,70.1 286.5,69.8 293.2,69.1 300.0,67.9 306.8,67.2 313.5,66.7 320.2,65.3 327.0,63.2 333.8,62.7 340.5,62.3 347.2,61.5 354.0,59.9 360.8,58.8 367.5,57.1 374.2,55.9 381.0,54.4 387.8,54.1 394.5,53.2 401.2,51.7 408.0,50.1 414.8,49.0 421.5,48.5 428.2,47.7 435.0,47.0 441.8,45.3 448.5,43.7 455.2,42.3 462.0,40.8 468.8,40.1 475.5,39.7 482.2,39.1 489.0,37.9 495.8,37.1 502.5,36.5 509.2,35.9 516.0,35.4 522.8,34.6 529.5,34.0 536.2,33.7 543.0,33.3 549.8,31.7 556.5,30.8 563.2,30.5 570.0,30.0 570.0,30.0,120" />
  
  <!-- Linea principale -->
  <polyline fill="none" stroke="#0366d6" stroke-width="2.5" stroke-linecap="round" stroke-linejoin="round" points="30.0,120.0 36.8,118.0 43.5,115.8 50.2,113.9 57.0,113.3 63.8,112.3 70.5,110.0 77.2,108.4 84.0,107.4 90.8,104.9 97.5,103.7 104.2,102.5 111.0,101.8 117.8,100.7 124.5,99.1 131.2,97.4 138.0,96.0 144.8,95.1 151.5,94.5 158.2,93.4 165.0,92.1 171.8,91.0 178.5,90.4 185.2,89.4 192.0,85.5 198.8,84.4 205.5,82.9 212.2,81.4 219.0,80.1 225.8,78.8 232.5,78.0 239.2,77.4 246.0,76.3 252.8,74.4 259.5,72.8 266.2,71.8 273.0,70.5 279.8,70.1 286.5,69.8 293.2,69.1 300.0,67.9 306.8,67.2 313.5,66.7 320.2,65.3 327.0,63.2 333.8,62.7 340.5,62.3 347.2,61.5 354.0,59.9 360.8,58.8 367.5,57.1 374.2,55.9 381.0,54.4 387.8,54.1 394.5,53.2 401.2,51.7 408.0,50.1 414.8,49.0 421.5,48.5 428.2,47.7 435.0,47.0 441.8,45.3 448.5,43.7 455.2,42.3 462.0,40.8 468.8,40.1 475.5,39.7 482.2,39.1 489.0,37.9 495.8,37.1 502.5,36.5 509.2,35.9 516.0,35.4 522.8,34.6 529.5,34.0 536.2,33.7 543.0,33.3 549.8,31.7 556.5,30.8 563.2,30.5 570.0,30.0" />
  
  <!-- Punto finale luminoso -->
  <circle cx="570.0" cy="30.0" r="4" fill="#ffffff" stroke="#0366d6" stroke-width="2.5" />
</svg>