<svg width="600" height="150" viewBox="0 0 600 150" xmlns="http://www.w3.org/2000/svg">
  <defs>
    <filter id="shadow2" x="-2%" y="-2%" width="104%" height="108%">
      <feDropShadow dx="0" dy="2" stdDeviation="3" flood-opacity="0.1" />
    </filter>
    <linearGradient id="fillGrad" x1="0" y1="0" x2="0" y2="1">
      <stop offset="0%" stop-color="#0366d6" stop-opacity="0.3"/>
      <stop offset="100%" stop-color="#0366d6" stop-opacity="0.02"/>
    </linearGradient>
  </defs>
  <rect width="600" height="150" rx="12" fill="#ffffff" filter="url(#shadow2)" stroke="#e1e4e8" stroke-width="1"/>
  <text x="20" y="24" fill="#2b3137" font-family="-apple-system,BlinkMacSystemFont,'Segoe UI',Helvetica,Arial,sans-serif" font-size="14" font-weight="600">📈 Download Growth (Actual: 76.3k)</text>
  
  <!-- Area sotto la linea -->
  <polygon fill="url(#fillGrad)" points="30.0,120.0,120 30.0,120.0 33.3,118.9 36.6,117.8 39.9,116.7 43.3,116.5 46.6,115.9 49.9,114.7 53.2,113.9 56.5,113.3 59.8,112.0 63.1,111.4 66.4,110.7 69.8,110.4 73.1,109.8 76.4,108.9 79.7,108.0 83.0,107.3 86.3,106.8 89.6,106.5 92.9,105.9 96.3,105.2 99.6,104.6 102.9,104.3 106.2,103.8 109.5,101.7 112.8,101.1 116.1,100.3 119.4,99.5 122.8,98.8 126.1,98.2 129.4,97.7 132.7,97.4 136.0,96.8 139.3,95.8 142.6,95.0 146.0,94.4 149.3,93.7 152.6,93.5 155.9,93.4 159.2,93.0 162.5,92.4 165.8,92.0 169.1,91.7 172.5,91.0 175.8,89.9 179.1,89.6 182.4,89.4 185.7,89.0 189.0,88.1 192.3,87.5 195.6,86.7 199.0,86.0 202.3,85.2 205.6,85.1 208.9,84.6 212.2,83.8 215.5,82.9 218.8,82.3 222.1,82.1 225.5,81.6 228.8,81.3 232.1,80.4 235.4,79.5 238.7,78.8 242.0,78.0 245.3,77.6 248.7,77.4 252.0,77.1 255.3,76.5 258.6,76.1 261.9,75.7 265.2,75.4 268.5,75.1 271.8,74.7 275.2,74.4 278.5,74.2 281.8,74.0 285.1,73.2 288.4,72.7 291.7,72.6 295.0,72.3 298.3,72.1 301.7,72.1 305.0,85.8 308.3,84.5 311.6,83.2 314.9,82.0 318.2,78.2 321.5,75.6 324.8,72.8 328.2,71.8 331.5,70.6 334.8,68.7 338.1,66.6 341.4,65.1 344.7,64.5 348.0,63.9 351.3,62.5 354.7,61.4 358.0,60.7 361.3,59.8 364.6,59.4 367.9,59.3 371.2,58.5 374.5,57.2 377.9,56.3 381.2,55.4 384.5,54.3 387.8,53.8 391.1,53.5 394.4,52.6 397.7,51.8 401.0,51.0 404.4,50.4 407.7,50.2 411.0,50.0 414.3,49.5 417.6,48.8 420.9,48.3 424.2,47.8 427.5,47.4 430.9,47.0 434.2,46.7 437.5,46.3 440.8,46.0 444.1,45.6 447.4,44.9 450.7,44.4 454.0,43.8 457.4,43.4 460.7,43.0 464.0,42.8 467.3,42.4 470.6,42.1 473.9,41.1 477.2,40.4 480.6,39.6 483.9,39.3 487.2,39.2 490.5,38.8 493.8,38.4 497.1,37.9 500.4,37.4 503.7,36.8 507.1,36.4 510.4,36.2 513.7,35.9 517.0,35.6 520.3,35.3 523.6,34.9 526.9,34.6 530.2,34.0 533.6,33.7 536.9,33.5 540.2,33.2 543.5,33.1 546.8,32.6 550.1,32.1 553.4,31.7 556.7,31.2 560.1,30.8 563.4,30.5 566.7,30.3 570.0,30.0 570.0,30.0,120" />
  
  <!-- Linea principale -->
  <polyline fill="none" stroke="#0366d6" stroke-width="2.5" stroke-linecap="round" stroke-linejoin="round" points="30.0,120.0 33.3,118.9 36.6,117.8 39.9,116.7 43.3,116.5 46.6,115.9 49.9,114.7 53.2,113.9 56.5,113.3 59.8,112.0 63.1,111.4 66.4,110.7 69.8,110.4 73.1,109.8 76.4,108.9 79.7,108.0 83.0,107.3 86.3,106.8 89.6,106.5 92.9,105.9 96.3,105.2 99.6,104.6 102.9,104.3 106.2,103.8 109.5,101.7 112.8,101.1 116.1,100.3 119.4,99.5 122.8,98.8 126.1,98.2 129.4,97.7 132.7,97.4 136.0,96.8 139.3,95.8 142.6,95.0 146.0,94.4 149.3,93.7 152.6,93.5 155.9,93.4 159.2,93.0 162.5,92.4 165.8,92.0 169.1,91.7 172.5,91.0 175.8,89.9 179.1,89.6 182.4,89.4 185.7,89.0 189.0,88.1 192.3,87.5 195.6,86.7 199.0,86.0 202.3,85.2 205.6,85.1 208.9,84.6 212.2,83.8 215.5,82.9 218.8,82.3 222.1,82.1 225.5,81.6 228.8,81.3 232.1,80.4 235.4,79.5 238.7,78.8 242.0,78.0 245.3,77.6 248.7,77.4 252.0,77.1 255.3,76.5 258.6,76.1 261.9,75.7 265.2,75.4 268.5,75.1 271.8,74.7 275.2,74.4 278.5,74.2 281.8,74.0 285.1,73.2 288.4,72.7 291.7,72.6 295.0,72.3 298.3,72.1 301.7,72.1 305.0,85.8 308.3,84.5 311.6,83.2 314.9,82.0 318.2,78.2 321.5,75.6 324.8,72.8 328.2,71.8 331.5,70.6 334.8,68.7 338.1,66.6 341.4,65.1 344.7,64.5 348.0,63.9 351.3,62.5 354.7,61.4 358.0,60.7 361.3,59.8 364.6,59.4 367.9,59.3 371.2,58.5 374.5,57.2 377.9,56.3 381.2,55.4 384.5,54.3 387.8,53.8 391.1,53.5 394.4,52.6 397.7,51.8 401.0,51.0 404.4,50.4 407.7,50.2 411.0,50.0 414.3,49.5 417.6,48.8 420.9,48.3 424.2,47.8 427.5,47.4 430.9,47.0 434.2,46.7 437.5,46.3 440.8,46.0 444.1,45.6 447.4,44.9 450.7,44.4 454.0,43.8 457.4,43.4 460.7,43.0 464.0,42.8 467.3,42.4 470.6,42.1 473.9,41.1 477.2,40.4 480.6,39.6 483.9,39.3 487.2,39.2 490.5,38.8 493.8,38.4 497.1,37.9 500.4,37.4 503.7,36.8 507.1,36.4 510.4,36.2 513.7,35.9 517.0,35.6 520.3,35.3 523.6,34.9 526.9,34.6 530.2,34.0 533.6,33.7 536.9,33.5 540.2,33.2 543.5,33.1 546.8,32.6 550.1,32.1 553.4,31.7 556.7,31.2 560.1,30.8 563.4,30.5 566.7,30.3 570.0,30.0" />
  
  <!-- Punto finale luminoso -->
  <circle cx="570.0" cy="30.0" r="4" fill="#ffffff" stroke="#0366d6" stroke-width="2.5" />
</svg>