<svg width="600" height="150" viewBox="0 0 600 150" xmlns="http://www.w3.org/2000/svg">
  <defs>
    <filter id="shadow2" x="-2%" y="-2%" width="104%" height="108%">
      <feDropShadow dx="0" dy="2" stdDeviation="3" flood-opacity="0.1" />
    </filter>
    <linearGradient id="fillGrad" x1="0" y1="0" x2="0" y2="1">
      <stop offset="0%" stop-color="#0366d6" stop-opacity="0.3"/>
      <stop offset="100%" stop-color="#0366d6" stop-opacity="0.02"/>
    </linearGradient>
  </defs>
  <rect width="600" height="150" rx="12" fill="#ffffff" filter="url(#shadow2)" stroke="#e1e4e8" stroke-width="1"/>
  <text x="20" y="24" fill="#2b3137" font-family="-apple-system,BlinkMacSystemFont,'Segoe UI',Helvetica,Arial,sans-serif" font-size="14" font-weight="600">📈 Download Growth (Actual: 79.5k)</text>
  
  <!-- Area sotto la linea -->
  <polygon fill="url(#fillGrad)" points="30.0,120.0,120 30.0,120.0 32.1,119.2 34.1,118.3 36.2,117.6 38.3,117.4 40.3,117.0 42.4,116.1 44.5,115.4 46.6,115.0 48.6,114.1 50.7,113.6 52.8,113.1 54.8,112.8 56.9,112.4 59.0,111.8 61.0,111.1 63.1,110.6 65.2,110.2 67.2,110.0 69.3,109.5 71.4,109.0 73.4,108.6 75.5,108.4 77.6,107.9 79.7,106.4 81.7,106.0 83.8,105.4 85.9,104.8 87.9,104.3 90.0,103.8 92.1,103.5 94.1,103.2 96.2,102.8 98.3,102.1 100.3,101.4 102.4,101.0 104.5,100.5 106.6,100.4 108.6,100.2 110.7,100.0 112.8,99.5 114.8,99.2 116.9,99.0 119.0,98.5 121.0,97.6 123.1,97.5 125.2,97.3 127.2,97.0 129.3,96.3 131.4,95.9 133.4,95.3 135.5,94.8 137.6,94.2 139.7,94.1 141.7,93.7 143.8,93.1 145.9,92.5 147.9,92.0 150.0,91.8 152.1,91.5 154.1,91.3 156.2,90.6 158.3,90.0 160.3,89.4 162.4,88.8 164.5,88.6 166.6,88.4 168.6,88.1 170.7,87.7 172.8,87.4 174.8,87.1 176.9,86.9 179.0,86.7 181.0,86.4 183.1,86.2 185.2,86.0 187.2,85.9 189.3,85.2 191.4,84.9 193.4,84.8 195.5,84.6 197.6,84.5 199.7,84.5 201.7,94.6 203.8,93.6 205.9,92.7 207.9,91.8 210.0,89.0 212.1,87.1 214.1,85.0 216.2,84.2 218.3,83.3 220.3,81.9 222.4,80.4 224.5,79.2 226.6,78.8 228.6,78.4 230.7,77.3 232.8,76.5 234.8,76.0 236.9,75.3 239.0,75.0 241.0,74.9 243.1,74.3 245.2,73.4 247.2,72.7 249.3,72.0 251.4,71.3 253.4,70.9 255.5,70.6 257.6,70.0 259.7,69.4 261.7,68.8 263.8,68.4 265.9,68.2 267.9,68.0 270.0,67.7 272.1,67.2 274.1,66.8 276.2,66.4 278.3,66.1 280.3,65.8 282.4,65.6 284.5,65.3 286.6,65.1 288.6,64.8 290.7,64.3 292.8,63.9 294.8,63.4 296.9,63.2 299.0,62.9 301.0,62.7 303.1,62.4 305.2,62.2 307.2,61.4 309.3,61.0 311.4,60.3 313.4,60.1 315.5,60.0 317.6,59.8 319.7,59.4 321.7,59.1 323.8,58.7 325.9,58.2 327.9,57.9 330.0,57.8 332.1,57.6 334.1,57.4 336.2,57.2 338.3,56.9 340.3,56.6 342.4,56.2 344.5,56.0 346.6,55.8 348.6,55.6 350.7,55.5 352.8,55.1 354.8,54.8 356.9,54.4 359.0,54.1 361.0,53.8 363.1,53.6 365.2,53.4 367.2,53.2 369.3,52.7 371.4,52.3 373.4,52.0 375.5,51.7 377.6,51.1 379.7,51.0 381.7,50.8 383.8,50.7 385.9,50.4 387.9,50.2 390.0,49.9 392.1,49.6 394.1,49.4 396.2,49.2 398.3,48.9 400.3,48.7 402.4,48.6 404.5,48.3 406.6,47.9 408.6,47.7 410.7,47.4 412.8,47.2 414.8,47.0 416.9,46.8 419.0,46.6 421.0,46.5 423.1,46.2 425.2,45.8 427.2,45.3 429.3,45.0 431.4,44.7 433.4,44.6 435.5,44.5 437.6,44.2 439.7,43.8 441.7,43.6 443.8,43.5 445.9,43.2 447.9,43.0 450.0,42.7 452.1,42.5 454.1,42.3 456.2,42.0 458.3,41.7 460.3,41.4 462.4,41.0 464.5,40.9 466.6,40.8 468.6,40.7 470.7,40.5 472.8,40.2 474.8,40.0 476.9,39.7 479.0,39.5 481.0,39.3 483.1,39.1 485.2,38.9 487.2,38.7 489.3,38.4 491.4,38.0 493.4,37.8 495.5,37.5 497.6,37.4 499.7,37.2 501.7,37.1 503.8,36.9 505.9,36.8 507.9,36.6 510.0,36.2 512.1,36.0 514.1,35.7 516.2,35.6 518.3,35.4 520.3,35.2 522.4,34.9 524.5,34.7 526.6,34.5 528.6,34.3 530.7,34.0 532.8,33.8 534.8,33.6 536.9,33.5 539.0,33.3 541.0,33.1 543.1,33.0 545.2,32.8 547.2,32.6 549.3,32.5 551.4,32.3 553.4,31.8 555.5,31.5 557.6,38.1 559.7,36.8 561.7,34.3 563.8,33.4 565.9,32.2 567.9,30.8 570.0,30.0 570.0,30.0,120" />
  
  <!-- Linea principale -->
  <polyline fill="none" stroke="#0366d6" stroke-width="2.5" stroke-linecap="round" stroke-linejoin="round" points="30.0,120.0 32.1,119.2 34.1,118.3 36.2,117.6 38.3,117.4 40.3,117.0 42.4,116.1 44.5,115.4 46.6,115.0 48.6,114.1 50.7,113.6 52.8,113.1 54.8,112.8 56.9,112.4 59.0,111.8 61.0,111.1 63.1,110.6 65.2,110.2 67.2,110.0 69.3,109.5 71.4,109.0 73.4,108.6 75.5,108.4 77.6,107.9 79.7,106.4 81.7,106.0 83.8,105.4 85.9,104.8 87.9,104.3 90.0,103.8 92.1,103.5 94.1,103.2 96.2,102.8 98.3,102.1 100.3,101.4 102.4,101.0 104.5,100.5 106.6,100.4 108.6,100.2 110.7,100.0 112.8,99.5 114.8,99.2 116.9,99.0 119.0,98.5 121.0,97.6 123.1,97.5 125.2,97.3 127.2,97.0 129.3,96.3 131.4,95.9 133.4,95.3 135.5,94.8 137.6,94.2 139.7,94.1 141.7,93.7 143.8,93.1 145.9,92.5 147.9,92.0 150.0,91.8 152.1,91.5 154.1,91.3 156.2,90.6 158.3,90.0 160.3,89.4 162.4,88.8 164.5,88.6 166.6,88.4 168.6,88.1 170.7,87.7 172.8,87.4 174.8,87.1 176.9,86.9 179.0,86.7 181.0,86.4 183.1,86.2 185.2,86.0 187.2,85.9 189.3,85.2 191.4,84.9 193.4,84.8 195.5,84.6 197.6,84.5 199.7,84.5 201.7,94.6 203.8,93.6 205.9,92.7 207.9,91.8 210.0,89.0 212.1,87.1 214.1,85.0 216.2,84.2 218.3,83.3 220.3,81.9 222.4,80.4 224.5,79.2 226.6,78.8 228.6,78.4 230.7,77.3 232.8,76.5 234.8,76.0 236.9,75.3 239.0,75.0 241.0,74.9 243.1,74.3 245.2,73.4 247.2,72.7 249.3,72.0 251.4,71.3 253.4,70.9 255.5,70.6 257.6,70.0 259.7,69.4 261.7,68.8 263.8,68.4 265.9,68.2 267.9,68.0 270.0,67.7 272.1,67.2 274.1,66.8 276.2,66.4 278.3,66.1 280.3,65.8 282.4,65.6 284.5,65.3 286.6,65.1 288.6,64.8 290.7,64.3 292.8,63.9 294.8,63.4 296.9,63.2 299.0,62.9 301.0,62.7 303.1,62.4 305.2,62.2 307.2,61.4 309.3,61.0 311.4,60.3 313.4,60.1 315.5,60.0 317.6,59.8 319.7,59.4 321.7,59.1 323.8,58.7 325.9,58.2 327.9,57.9 330.0,57.8 332.1,57.6 334.1,57.4 336.2,57.2 338.3,56.9 340.3,56.6 342.4,56.2 344.5,56.0 346.6,55.8 348.6,55.6 350.7,55.5 352.8,55.1 354.8,54.8 356.9,54.4 359.0,54.1 361.0,53.8 363.1,53.6 365.2,53.4 367.2,53.2 369.3,52.7 371.4,52.3 373.4,52.0 375.5,51.7 377.6,51.1 379.7,51.0 381.7,50.8 383.8,50.7 385.9,50.4 387.9,50.2 390.0,49.9 392.1,49.6 394.1,49.4 396.2,49.2 398.3,48.9 400.3,48.7 402.4,48.6 404.5,48.3 406.6,47.9 408.6,47.7 410.7,47.4 412.8,47.2 414.8,47.0 416.9,46.8 419.0,46.6 421.0,46.5 423.1,46.2 425.2,45.8 427.2,45.3 429.3,45.0 431.4,44.7 433.4,44.6 435.5,44.5 437.6,44.2 439.7,43.8 441.7,43.6 443.8,43.5 445.9,43.2 447.9,43.0 450.0,42.7 452.1,42.5 454.1,42.3 456.2,42.0 458.3,41.7 460.3,41.4 462.4,41.0 464.5,40.9 466.6,40.8 468.6,40.7 470.7,40.5 472.8,40.2 474.8,40.0 476.9,39.7 479.0,39.5 481.0,39.3 483.1,39.1 485.2,38.9 487.2,38.7 489.3,38.4 491.4,38.0 493.4,37.8 495.5,37.5 497.6,37.4 499.7,37.2 501.7,37.1 503.8,36.9 505.9,36.8 507.9,36.6 510.0,36.2 512.1,36.0 514.1,35.7 516.2,35.6 518.3,35.4 520.3,35.2 522.4,34.9 524.5,34.7 526.6,34.5 528.6,34.3 530.7,34.0 532.8,33.8 534.8,33.6 536.9,33.5 539.0,33.3 541.0,33.1 543.1,33.0 545.2,32.8 547.2,32.6 549.3,32.5 551.4,32.3 553.4,31.8 555.5,31.5 557.6,38.1 559.7,36.8 561.7,34.3 563.8,33.4 565.9,32.2 567.9,30.8 570.0,30.0" />
  
  <!-- Punto finale luminoso -->
  <circle cx="570.0" cy="30.0" r="4" fill="#ffffff" stroke="#0366d6" stroke-width="2.5" />
</svg>