<svg width="600" height="150" viewBox="0 0 600 150" xmlns="http://www.w3.org/2000/svg">
  <defs>
    <filter id="shadow2" x="-2%" y="-2%" width="104%" height="108%">
      <feDropShadow dx="0" dy="2" stdDeviation="3" flood-opacity="0.1" />
    </filter>
    <linearGradient id="fillGrad" x1="0" y1="0" x2="0" y2="1">
      <stop offset="0%" stop-color="#0366d6" stop-opacity="0.3"/>
      <stop offset="100%" stop-color="#0366d6" stop-opacity="0.02"/>
    </linearGradient>
  </defs>
  <rect width="600" height="150" rx="12" fill="#ffffff" filter="url(#shadow2)" stroke="#e1e4e8" stroke-width="1"/>
  <text x="20" y="24" fill="#2b3137" font-family="-apple-system,BlinkMacSystemFont,'Segoe UI',Helvetica,Arial,sans-serif" font-size="14" font-weight="600">📈 Download Growth (Actual: 71.5k)</text>
  
  <!-- Area sotto la linea -->
  <polygon fill="url(#fillGrad)" points="30.0,120.0,120 30.0,120.0 37.8,117.8 45.7,115.4 53.5,113.3 61.3,112.8 69.1,111.7 77.0,109.1 84.8,107.4 92.6,106.3 100.4,103.6 108.3,102.3 116.1,101.0 123.9,100.2 131.7,99.1 139.6,97.3 147.4,95.4 155.2,93.9 163.0,93.0 170.9,92.3 178.7,91.1 186.5,89.7 194.3,88.5 202.2,87.9 210.0,86.7 217.8,82.6 225.7,81.3 233.5,79.7 241.3,78.1 249.1,76.6 257.0,75.3 264.8,74.4 272.6,73.7 280.4,72.5 288.3,70.5 296.1,68.8 303.9,67.6 311.7,66.2 319.6,65.8 327.4,65.5 335.2,64.8 343.0,63.4 350.9,62.6 358.7,62.1 366.5,60.5 374.3,58.3 382.2,57.8 390.0,57.4 397.8,56.5 405.7,54.7 413.5,53.5 421.3,51.7 429.1,50.4 437.0,48.8 444.8,48.4 452.6,47.5 460.4,45.8 468.3,44.1 476.1,42.9 483.9,42.3 491.7,41.4 499.6,40.7 507.4,38.8 515.2,37.1 523.0,35.6 530.9,34.0 538.7,33.2 546.5,32.8 554.3,32.1 562.2,30.8 570.0,30.0 570.0,30.0,120" />
  
  <!-- Linea principale -->
  <polyline fill="none" stroke="#0366d6" stroke-width="2.5" stroke-linecap="round" stroke-linejoin="round" points="30.0,120.0 37.8,117.8 45.7,115.4 53.5,113.3 61.3,112.8 69.1,111.7 77.0,109.1 84.8,107.4 92.6,106.3 100.4,103.6 108.3,102.3 116.1,101.0 123.9,100.2 131.7,99.1 139.6,97.3 147.4,95.4 155.2,93.9 163.0,93.0 170.9,92.3 178.7,91.1 186.5,89.7 194.3,88.5 202.2,87.9 210.0,86.7 217.8,82.6 225.7,81.3 233.5,79.7 241.3,78.1 249.1,76.6 257.0,75.3 264.8,74.4 272.6,73.7 280.4,72.5 288.3,70.5 296.1,68.8 303.9,67.6 311.7,66.2 319.6,65.8 327.4,65.5 335.2,64.8 343.0,63.4 350.9,62.6 358.7,62.1 366.5,60.5 374.3,58.3 382.2,57.8 390.0,57.4 397.8,56.5 405.7,54.7 413.5,53.5 421.3,51.7 429.1,50.4 437.0,48.8 444.8,48.4 452.6,47.5 460.4,45.8 468.3,44.1 476.1,42.9 483.9,42.3 491.7,41.4 499.6,40.7 507.4,38.8 515.2,37.1 523.0,35.6 530.9,34.0 538.7,33.2 546.5,32.8 554.3,32.1 562.2,30.8 570.0,30.0" />
  
  <!-- Punto finale luminoso -->
  <circle cx="570.0" cy="30.0" r="4" fill="#ffffff" stroke="#0366d6" stroke-width="2.5" />
</svg>