<svg width="600" height="150" viewBox="0 0 600 150" xmlns="http://www.w3.org/2000/svg">
  <defs>
    <filter id="shadow2" x="-2%" y="-2%" width="104%" height="108%">
      <feDropShadow dx="0" dy="2" stdDeviation="3" flood-opacity="0.1" />
    </filter>
    <linearGradient id="fillGrad" x1="0" y1="0" x2="0" y2="1">
      <stop offset="0%" stop-color="#0366d6" stop-opacity="0.3"/>
      <stop offset="100%" stop-color="#0366d6" stop-opacity="0.02"/>
    </linearGradient>
  </defs>
  <rect width="600" height="150" rx="12" fill="#ffffff" filter="url(#shadow2)" stroke="#e1e4e8" stroke-width="1"/>
  <text x="20" y="24" fill="#2b3137" font-family="-apple-system,BlinkMacSystemFont,'Segoe UI',Helvetica,Arial,sans-serif" font-size="14" font-weight="600">📈 Download Growth (Actual: 76.4k)</text>
  
  <!-- Area sotto la linea -->
  <polygon fill="url(#fillGrad)" points="30.0,120.0,120 30.0,120.0 33.3,118.9 36.5,117.8 39.8,116.8 43.1,116.5 46.4,116.0 49.6,114.8 52.9,113.9 56.2,113.4 59.5,112.1 62.7,111.5 66.0,110.8 69.3,110.5 72.5,109.9 75.8,109.1 79.1,108.1 82.4,107.4 85.6,107.0 88.9,106.6 92.2,106.1 95.5,105.4 98.7,104.8 102.0,104.5 105.3,104.0 108.5,102.0 111.8,101.4 115.1,100.6 118.4,99.8 121.6,99.1 124.9,98.4 128.2,98.0 131.5,97.7 134.7,97.1 138.0,96.1 141.3,95.3 144.5,94.7 147.8,94.1 151.1,93.9 154.4,93.7 157.6,93.4 160.9,92.7 164.2,92.3 167.5,92.1 170.7,91.3 174.0,90.3 177.3,90.0 180.5,89.8 183.8,89.4 187.1,88.5 190.4,88.0 193.6,87.1 196.9,86.5 200.2,85.7 203.5,85.5 206.7,85.0 210.0,84.2 213.3,83.4 216.5,82.8 219.8,82.5 223.1,82.1 226.4,81.8 229.6,80.9 232.9,80.0 236.2,79.3 239.5,78.6 242.7,78.2 246.0,78.0 249.3,77.6 252.5,77.0 255.8,76.6 259.1,76.3 262.4,76.0 265.6,75.7 268.9,75.3 272.2,75.0 275.5,74.8 278.7,74.6 282.0,73.8 285.3,73.3 288.5,73.2 291.8,72.9 295.1,72.7 298.4,72.7 301.6,86.2 304.9,84.9 308.2,83.7 311.5,82.5 314.7,78.8 318.0,76.2 321.3,73.4 324.5,72.4 327.8,71.3 331.1,69.4 334.4,67.3 337.6,65.8 340.9,65.2 344.2,64.7 347.5,63.2 350.7,62.1 354.0,61.4 357.3,60.6 360.5,60.2 363.8,60.0 367.1,59.3 370.4,58.0 373.6,57.1 376.9,56.2 380.2,55.2 383.5,54.7 386.7,54.3 390.0,53.5 393.3,52.7 396.5,51.9 399.8,51.3 403.1,51.1 406.4,50.9 409.6,50.4 412.9,49.7 416.2,49.2 419.5,48.8 422.7,48.4 426.0,48.0 429.3,47.6 432.5,47.2 435.8,46.9 439.1,46.6 442.4,45.9 445.6,45.4 448.9,44.8 452.2,44.4 455.5,44.0 458.7,43.7 462.0,43.4 465.3,43.1 468.5,42.1 471.8,41.5 475.1,40.7 478.4,40.3 481.6,40.3 484.9,39.9 488.2,39.5 491.5,38.9 494.7,38.5 498.0,37.9 501.3,37.5 504.5,37.3 507.8,37.0 511.1,36.7 514.4,36.4 517.6,36.0 520.9,35.7 524.2,35.1 527.5,34.8 530.7,34.7 534.0,34.4 537.3,34.2 540.5,33.7 543.8,33.3 547.1,32.8 550.4,32.4 553.6,32.0 556.9,31.7 560.2,31.5 563.5,31.2 566.7,30.6 570.0,30.0 570.0,30.0,120" />
  
  <!-- Linea principale -->
  <polyline fill="none" stroke="#0366d6" stroke-width="2.5" stroke-linecap="round" stroke-linejoin="round" points="30.0,120.0 33.3,118.9 36.5,117.8 39.8,116.8 43.1,116.5 46.4,116.0 49.6,114.8 52.9,113.9 56.2,113.4 59.5,112.1 62.7,111.5 66.0,110.8 69.3,110.5 72.5,109.9 75.8,109.1 79.1,108.1 82.4,107.4 85.6,107.0 88.9,106.6 92.2,106.1 95.5,105.4 98.7,104.8 102.0,104.5 105.3,104.0 108.5,102.0 111.8,101.4 115.1,100.6 118.4,99.8 121.6,99.1 124.9,98.4 128.2,98.0 131.5,97.7 134.7,97.1 138.0,96.1 141.3,95.3 144.5,94.7 147.8,94.1 151.1,93.9 154.4,93.7 157.6,93.4 160.9,92.7 164.2,92.3 167.5,92.1 170.7,91.3 174.0,90.3 177.3,90.0 180.5,89.8 183.8,89.4 187.1,88.5 190.4,88.0 193.6,87.1 196.9,86.5 200.2,85.7 203.5,85.5 206.7,85.0 210.0,84.2 213.3,83.4 216.5,82.8 219.8,82.5 223.1,82.1 226.4,81.8 229.6,80.9 232.9,80.0 236.2,79.3 239.5,78.6 242.7,78.2 246.0,78.0 249.3,77.6 252.5,77.0 255.8,76.6 259.1,76.3 262.4,76.0 265.6,75.7 268.9,75.3 272.2,75.0 275.5,74.8 278.7,74.6 282.0,73.8 285.3,73.3 288.5,73.2 291.8,72.9 295.1,72.7 298.4,72.7 301.6,86.2 304.9,84.9 308.2,83.7 311.5,82.5 314.7,78.8 318.0,76.2 321.3,73.4 324.5,72.4 327.8,71.3 331.1,69.4 334.4,67.3 337.6,65.8 340.9,65.2 344.2,64.7 347.5,63.2 350.7,62.1 354.0,61.4 357.3,60.6 360.5,60.2 363.8,60.0 367.1,59.3 370.4,58.0 373.6,57.1 376.9,56.2 380.2,55.2 383.5,54.7 386.7,54.3 390.0,53.5 393.3,52.7 396.5,51.9 399.8,51.3 403.1,51.1 406.4,50.9 409.6,50.4 412.9,49.7 416.2,49.2 419.5,48.8 422.7,48.4 426.0,48.0 429.3,47.6 432.5,47.2 435.8,46.9 439.1,46.6 442.4,45.9 445.6,45.4 448.9,44.8 452.2,44.4 455.5,44.0 458.7,43.7 462.0,43.4 465.3,43.1 468.5,42.1 471.8,41.5 475.1,40.7 478.4,40.3 481.6,40.3 484.9,39.9 488.2,39.5 491.5,38.9 494.7,38.5 498.0,37.9 501.3,37.5 504.5,37.3 507.8,37.0 511.1,36.7 514.4,36.4 517.6,36.0 520.9,35.7 524.2,35.1 527.5,34.8 530.7,34.7 534.0,34.4 537.3,34.2 540.5,33.7 543.8,33.3 547.1,32.8 550.4,32.4 553.6,32.0 556.9,31.7 560.2,31.5 563.5,31.2 566.7,30.6 570.0,30.0" />
  
  <!-- Punto finale luminoso -->
  <circle cx="570.0" cy="30.0" r="4" fill="#ffffff" stroke="#0366d6" stroke-width="2.5" />
</svg>