<svg width="600" height="150" viewBox="0 0 600 150" xmlns="http://www.w3.org/2000/svg">
  <defs>
    <filter id="shadow2" x="-2%" y="-2%" width="104%" height="108%">
      <feDropShadow dx="0" dy="2" stdDeviation="3" flood-opacity="0.1" />
    </filter>
    <linearGradient id="fillGrad" x1="0" y1="0" x2="0" y2="1">
      <stop offset="0%" stop-color="#0366d6" stop-opacity="0.3"/>
      <stop offset="100%" stop-color="#0366d6" stop-opacity="0.02"/>
    </linearGradient>
  </defs>
  <rect width="600" height="150" rx="12" fill="#ffffff" filter="url(#shadow2)" stroke="#e1e4e8" stroke-width="1"/>
  <text x="20" y="24" fill="#2b3137" font-family="-apple-system,BlinkMacSystemFont,'Segoe UI',Helvetica,Arial,sans-serif" font-size="14" font-weight="600">📈 Download Growth (Actual: 70.7k)</text>
  
  <!-- Area sotto la linea -->
  <polygon fill="url(#fillGrad)" points="30.0,120.0,120 30.0,120.0 39.6,117.4 49.3,114.6 58.9,112.1 68.6,111.4 78.2,110.1 87.9,107.1 97.5,105.1 107.1,103.7 116.8,100.6 126.4,99.0 136.1,97.5 145.7,96.6 155.4,95.2 165.0,93.1 174.6,90.8 184.3,89.1 193.9,87.9 203.6,87.1 213.2,85.7 222.9,84.1 232.5,82.6 242.1,81.9 251.8,80.5 261.4,75.6 271.1,74.2 280.7,72.2 290.4,70.3 300.0,68.6 309.6,67.0 319.3,65.9 328.9,65.1 338.6,63.7 348.2,61.3 357.9,59.2 367.5,57.8 377.1,56.2 386.8,55.7 396.4,55.3 406.1,54.5 415.7,52.9 425.4,52.0 435.0,51.3 444.6,49.5 454.3,46.8 463.9,46.2 473.6,45.7 483.2,44.7 492.9,42.6 502.5,41.2 512.1,39.0 521.8,37.5 531.4,35.5 541.1,35.1 550.7,34.0 560.4,32.0 570.0,30.0 570.0,30.0,120" />
  
  <!-- Linea principale -->
  <polyline fill="none" stroke="#0366d6" stroke-width="2.5" stroke-linecap="round" stroke-linejoin="round" points="30.0,120.0 39.6,117.4 49.3,114.6 58.9,112.1 68.6,111.4 78.2,110.1 87.9,107.1 97.5,105.1 107.1,103.7 116.8,100.6 126.4,99.0 136.1,97.5 145.7,96.6 155.4,95.2 165.0,93.1 174.6,90.8 184.3,89.1 193.9,87.9 203.6,87.1 213.2,85.7 222.9,84.1 232.5,82.6 242.1,81.9 251.8,80.5 261.4,75.6 271.1,74.2 280.7,72.2 290.4,70.3 300.0,68.6 309.6,67.0 319.3,65.9 328.9,65.1 338.6,63.7 348.2,61.3 357.9,59.2 367.5,57.8 377.1,56.2 386.8,55.7 396.4,55.3 406.1,54.5 415.7,52.9 425.4,52.0 435.0,51.3 444.6,49.5 454.3,46.8 463.9,46.2 473.6,45.7 483.2,44.7 492.9,42.6 502.5,41.2 512.1,39.0 521.8,37.5 531.4,35.5 541.1,35.1 550.7,34.0 560.4,32.0 570.0,30.0" />
  
  <!-- Punto finale luminoso -->
  <circle cx="570.0" cy="30.0" r="4" fill="#ffffff" stroke="#0366d6" stroke-width="2.5" />
</svg>