<svg width="600" height="150" viewBox="0 0 600 150" xmlns="http://www.w3.org/2000/svg">
  <defs>
    <filter id="shadow2" x="-2%" y="-2%" width="104%" height="108%">
      <feDropShadow dx="0" dy="2" stdDeviation="3" flood-opacity="0.1" />
    </filter>
    <linearGradient id="fillGrad" x1="0" y1="0" x2="0" y2="1">
      <stop offset="0%" stop-color="#0366d6" stop-opacity="0.3"/>
      <stop offset="100%" stop-color="#0366d6" stop-opacity="0.02"/>
    </linearGradient>
  </defs>
  <rect width="600" height="150" rx="12" fill="#ffffff" filter="url(#shadow2)" stroke="#e1e4e8" stroke-width="1"/>
  <text x="20" y="24" fill="#2b3137" font-family="-apple-system,BlinkMacSystemFont,'Segoe UI',Helvetica,Arial,sans-serif" font-size="14" font-weight="600">📈 Download Growth (Actual: 86.3k)</text>
  
  <!-- Area sotto la linea -->
  <polygon fill="url(#fillGrad)" points="30.0,120.0,120 30.0,120.0 31.4,119.5 32.8,118.9 34.3,118.4 35.7,118.3 37.1,118.0 38.5,117.4 39.9,117.0 41.4,116.8 42.8,116.1 44.2,115.8 45.6,115.5 47.1,115.3 48.5,115.1 49.9,114.6 51.3,114.2 52.7,113.8 54.2,113.6 55.6,113.5 57.0,113.2 58.4,112.8 59.8,112.6 61.3,112.4 62.7,112.1 64.1,111.2 65.5,110.9 66.9,110.5 68.4,110.1 69.8,109.8 71.2,109.4 72.6,109.2 74.1,109.1 75.5,108.8 76.9,108.3 78.3,107.9 79.7,107.6 81.2,107.3 82.6,107.2 84.0,107.1 85.4,106.9 86.8,106.6 88.3,106.4 89.7,106.3 91.1,106.0 92.5,105.4 93.9,105.3 95.4,105.2 96.8,105.0 98.2,104.6 99.6,104.3 101.1,103.9 102.5,103.6 103.9,103.2 105.3,103.1 106.7,102.9 108.2,102.5 109.6,102.1 111.0,101.8 112.4,101.6 113.8,101.4 115.3,101.3 116.7,100.8 118.1,100.4 119.5,100.1 120.9,99.7 122.4,99.5 123.8,99.4 125.2,99.2 126.6,98.9 128.1,98.7 129.5,98.6 130.9,98.4 132.3,98.3 133.7,98.1 135.2,97.9 136.6,97.8 138.0,97.7 139.4,97.3 140.8,97.1 142.3,97.0 143.7,96.9 145.1,96.8 146.5,96.8 147.9,103.5 149.4,102.8 150.8,102.2 152.2,101.6 153.6,99.8 155.1,98.5 156.5,97.2 157.9,96.7 159.3,96.1 160.7,95.2 162.2,94.2 163.6,93.4 165.0,93.2 166.4,92.9 167.8,92.2 169.3,91.6 170.7,91.3 172.1,90.9 173.5,90.7 174.9,90.6 176.4,90.2 177.8,89.6 179.2,89.2 180.6,88.7 182.1,88.2 183.5,88.0 184.9,87.8 186.3,87.4 187.7,87.0 189.2,86.6 190.6,86.3 192.0,86.2 193.4,86.1 194.8,85.9 196.3,85.6 197.7,85.3 199.1,85.1 200.5,84.9 201.9,84.7 203.4,84.5 204.8,84.3 206.2,84.2 207.6,84.0 209.1,83.7 210.5,83.4 211.9,83.1 213.3,83.0 214.7,82.8 216.2,82.6 217.6,82.5 219.0,82.3 220.4,81.8 221.8,81.5 223.3,81.1 224.7,81.0 226.1,80.9 227.5,80.7 228.9,80.5 230.4,80.3 231.8,80.0 233.2,79.7 234.6,79.6 236.1,79.5 237.5,79.3 238.9,79.2 240.3,79.0 241.7,78.8 243.2,78.7 244.6,78.4 246.0,78.3 247.4,78.2 248.8,78.0 250.3,77.9 251.7,77.7 253.1,77.5 254.5,77.3 255.9,77.1 257.4,76.8 258.8,76.7 260.2,76.6 261.6,76.5 263.1,76.2 264.5,75.9 265.9,75.7 267.3,75.5 268.7,75.1 270.2,75.0 271.6,74.9 273.0,74.8 274.4,74.6 275.8,74.5 277.3,74.3 278.7,74.1 280.1,74.0 281.5,73.8 282.9,73.7 284.4,73.5 285.8,73.5 287.2,73.3 288.6,73.0 290.1,72.9 291.5,72.7 292.9,72.6 294.3,72.4 295.7,72.3 297.2,72.2 298.6,72.1 300.0,71.9 301.4,71.6 302.8,71.3 304.3,71.1 305.7,70.9 307.1,70.9 308.5,70.8 309.9,70.6 311.4,70.3 312.8,70.2 314.2,70.1 315.6,69.9 317.1,69.8 318.5,69.6 319.9,69.5 321.3,69.4 322.7,69.1 324.2,69.0 325.6,68.7 327.0,68.5 328.4,68.4 329.8,68.4 331.3,68.3 332.7,68.2 334.1,68.0 335.5,67.8 336.9,67.7 338.4,67.5 339.8,67.4 341.2,67.3 342.6,67.1 344.1,67.0 345.5,66.8 346.9,66.6 348.3,66.4 349.7,66.2 351.2,66.1 352.6,66.0 354.0,65.9 355.4,65.9 356.8,65.7 358.3,65.6 359.7,65.4 361.1,65.2 362.5,65.1 363.9,65.0 365.4,64.8 366.8,64.7 368.2,64.5 369.6,64.4 371.1,64.3 372.5,64.1 373.9,64.0 375.3,63.8 376.7,63.7 378.2,63.6 379.6,63.5 381.0,63.4 382.4,63.3 383.8,63.1 385.3,63.0 386.7,63.0 388.1,62.8 389.5,62.5 390.9,62.3 392.4,66.6 393.8,65.8 395.2,64.2 396.6,63.5 398.1,62.8 399.5,61.8 400.9,61.3 402.3,61.0 403.7,60.4 405.2,59.4 406.6,58.7 408.0,58.5 409.4,58.2 410.8,57.9 412.3,57.4 413.7,56.9 415.1,56.4 416.5,56.1 417.9,55.7 419.4,55.4 420.8,55.1 422.2,54.9 423.6,54.6 425.1,54.4 426.5,53.9 427.9,53.6 429.3,53.2 430.7,52.6 432.2,52.2 433.6,52.0 435.0,51.9 436.4,51.6 437.8,51.2 439.3,50.9 440.7,50.6 442.1,49.7 443.5,49.0 444.9,48.7 446.4,48.5 447.8,48.3 449.2,47.8 450.6,47.4 452.1,47.1 453.5,46.8 454.9,46.5 456.3,46.2 457.7,45.9 459.2,45.5 460.6,45.3 462.0,45.1 463.4,44.9 464.8,44.5 466.3,44.2 467.7,44.0 469.1,43.9 470.5,43.7 471.9,43.4 473.4,43.3 474.8,43.1 476.2,42.9 477.6,42.7 479.1,42.6 480.5,42.3 481.9,42.1 483.3,41.8 484.7,41.4 486.2,41.1 487.6,41.0 489.0,40.8 490.4,40.6 491.8,40.4 493.3,40.2 494.7,40.1 496.1,40.0 497.5,39.8 498.9,39.6 500.4,39.5 501.8,39.2 503.2,39.1 504.6,38.9 506.1,38.7 507.5,38.3 508.9,38.0 510.3,37.8 511.7,37.6 513.2,37.4 514.6,37.1 516.0,36.9 517.4,36.6 518.8,36.4 520.3,36.4 521.7,36.2 523.1,36.0 524.5,35.7 525.9,35.6 527.4,35.5 528.8,35.2 530.2,35.0 531.6,34.8 533.1,34.5 534.5,34.4 535.9,34.0 537.3,33.8 538.7,33.6 540.2,33.5 541.6,33.3 543.0,33.2 544.4,33.0 545.8,32.8 547.3,32.6 548.7,32.4 550.1,32.3 551.5,32.1 552.9,31.9 554.4,31.8 555.8,31.6 557.2,31.5 558.6,31.4 560.1,31.2 561.5,31.1 562.9,30.9 564.3,30.7 565.7,30.6 567.2,30.4 568.6,30.2 570.0,30.0 570.0,30.0,120" />
  
  <!-- Linea principale -->
  <polyline fill="none" stroke="#0366d6" stroke-width="2.5" stroke-linecap="round" stroke-linejoin="round" points="30.0,120.0 31.4,119.5 32.8,118.9 34.3,118.4 35.7,118.3 37.1,118.0 38.5,117.4 39.9,117.0 41.4,116.8 42.8,116.1 44.2,115.8 45.6,115.5 47.1,115.3 48.5,115.1 49.9,114.6 51.3,114.2 52.7,113.8 54.2,113.6 55.6,113.5 57.0,113.2 58.4,112.8 59.8,112.6 61.3,112.4 62.7,112.1 64.1,111.2 65.5,110.9 66.9,110.5 68.4,110.1 69.8,109.8 71.2,109.4 72.6,109.2 74.1,109.1 75.5,108.8 76.9,108.3 78.3,107.9 79.7,107.6 81.2,107.3 82.6,107.2 84.0,107.1 85.4,106.9 86.8,106.6 88.3,106.4 89.7,106.3 91.1,106.0 92.5,105.4 93.9,105.3 95.4,105.2 96.8,105.0 98.2,104.6 99.6,104.3 101.1,103.9 102.5,103.6 103.9,103.2 105.3,103.1 106.7,102.9 108.2,102.5 109.6,102.1 111.0,101.8 112.4,101.6 113.8,101.4 115.3,101.3 116.7,100.8 118.1,100.4 119.5,100.1 120.9,99.7 122.4,99.5 123.8,99.4 125.2,99.2 126.6,98.9 128.1,98.7 129.5,98.6 130.9,98.4 132.3,98.3 133.7,98.1 135.2,97.9 136.6,97.8 138.0,97.7 139.4,97.3 140.8,97.1 142.3,97.0 143.7,96.9 145.1,96.8 146.5,96.8 147.9,103.5 149.4,102.8 150.8,102.2 152.2,101.6 153.6,99.8 155.1,98.5 156.5,97.2 157.9,96.7 159.3,96.1 160.7,95.2 162.2,94.2 163.6,93.4 165.0,93.2 166.4,92.9 167.8,92.2 169.3,91.6 170.7,91.3 172.1,90.9 173.5,90.7 174.9,90.6 176.4,90.2 177.8,89.6 179.2,89.2 180.6,88.7 182.1,88.2 183.5,88.0 184.9,87.8 186.3,87.4 187.7,87.0 189.2,86.6 190.6,86.3 192.0,86.2 193.4,86.1 194.8,85.9 196.3,85.6 197.7,85.3 199.1,85.1 200.5,84.9 201.9,84.7 203.4,84.5 204.8,84.3 206.2,84.2 207.6,84.0 209.1,83.7 210.5,83.4 211.9,83.1 213.3,83.0 214.7,82.8 216.2,82.6 217.6,82.5 219.0,82.3 220.4,81.8 221.8,81.5 223.3,81.1 224.7,81.0 226.1,80.9 227.5,80.7 228.9,80.5 230.4,80.3 231.8,80.0 233.2,79.7 234.6,79.6 236.1,79.5 237.5,79.3 238.9,79.2 240.3,79.0 241.7,78.8 243.2,78.7 244.6,78.4 246.0,78.3 247.4,78.2 248.8,78.0 250.3,77.9 251.7,77.7 253.1,77.5 254.5,77.3 255.9,77.1 257.4,76.8 258.8,76.7 260.2,76.6 261.6,76.5 263.1,76.2 264.5,75.9 265.9,75.7 267.3,75.5 268.7,75.1 270.2,75.0 271.6,74.9 273.0,74.8 274.4,74.6 275.8,74.5 277.3,74.3 278.7,74.1 280.1,74.0 281.5,73.8 282.9,73.7 284.4,73.5 285.8,73.5 287.2,73.3 288.6,73.0 290.1,72.9 291.5,72.7 292.9,72.6 294.3,72.4 295.7,72.3 297.2,72.2 298.6,72.1 300.0,71.9 301.4,71.6 302.8,71.3 304.3,71.1 305.7,70.9 307.1,70.9 308.5,70.8 309.9,70.6 311.4,70.3 312.8,70.2 314.2,70.1 315.6,69.9 317.1,69.8 318.5,69.6 319.9,69.5 321.3,69.4 322.7,69.1 324.2,69.0 325.6,68.7 327.0,68.5 328.4,68.4 329.8,68.4 331.3,68.3 332.7,68.2 334.1,68.0 335.5,67.8 336.9,67.7 338.4,67.5 339.8,67.4 341.2,67.3 342.6,67.1 344.1,67.0 345.5,66.8 346.9,66.6 348.3,66.4 349.7,66.2 351.2,66.1 352.6,66.0 354.0,65.9 355.4,65.9 356.8,65.7 358.3,65.6 359.7,65.4 361.1,65.2 362.5,65.1 363.9,65.0 365.4,64.8 366.8,64.7 368.2,64.5 369.6,64.4 371.1,64.3 372.5,64.1 373.9,64.0 375.3,63.8 376.7,63.7 378.2,63.6 379.6,63.5 381.0,63.4 382.4,63.3 383.8,63.1 385.3,63.0 386.7,63.0 388.1,62.8 389.5,62.5 390.9,62.3 392.4,66.6 393.8,65.8 395.2,64.2 396.6,63.5 398.1,62.8 399.5,61.8 400.9,61.3 402.3,61.0 403.7,60.4 405.2,59.4 406.6,58.7 408.0,58.5 409.4,58.2 410.8,57.9 412.3,57.4 413.7,56.9 415.1,56.4 416.5,56.1 417.9,55.7 419.4,55.4 420.8,55.1 422.2,54.9 423.6,54.6 425.1,54.4 426.5,53.9 427.9,53.6 429.3,53.2 430.7,52.6 432.2,52.2 433.6,52.0 435.0,51.9 436.4,51.6 437.8,51.2 439.3,50.9 440.7,50.6 442.1,49.7 443.5,49.0 444.9,48.7 446.4,48.5 447.8,48.3 449.2,47.8 450.6,47.4 452.1,47.1 453.5,46.8 454.9,46.5 456.3,46.2 457.7,45.9 459.2,45.5 460.6,45.3 462.0,45.1 463.4,44.9 464.8,44.5 466.3,44.2 467.7,44.0 469.1,43.9 470.5,43.7 471.9,43.4 473.4,43.3 474.8,43.1 476.2,42.9 477.6,42.7 479.1,42.6 480.5,42.3 481.9,42.1 483.3,41.8 484.7,41.4 486.2,41.1 487.6,41.0 489.0,40.8 490.4,40.6 491.8,40.4 493.3,40.2 494.7,40.1 496.1,40.0 497.5,39.8 498.9,39.6 500.4,39.5 501.8,39.2 503.2,39.1 504.6,38.9 506.1,38.7 507.5,38.3 508.9,38.0 510.3,37.8 511.7,37.6 513.2,37.4 514.6,37.1 516.0,36.9 517.4,36.6 518.8,36.4 520.3,36.4 521.7,36.2 523.1,36.0 524.5,35.7 525.9,35.6 527.4,35.5 528.8,35.2 530.2,35.0 531.6,34.8 533.1,34.5 534.5,34.4 535.9,34.0 537.3,33.8 538.7,33.6 540.2,33.5 541.6,33.3 543.0,33.2 544.4,33.0 545.8,32.8 547.3,32.6 548.7,32.4 550.1,32.3 551.5,32.1 552.9,31.9 554.4,31.8 555.8,31.6 557.2,31.5 558.6,31.4 560.1,31.2 561.5,31.1 562.9,30.9 564.3,30.7 565.7,30.6 567.2,30.4 568.6,30.2 570.0,30.0" />
  
  <!-- Punto finale luminoso -->
  <circle cx="570.0" cy="30.0" r="4" fill="#ffffff" stroke="#0366d6" stroke-width="2.5" />
</svg>