<svg width="600" height="150" viewBox="0 0 600 150" xmlns="http://www.w3.org/2000/svg">
  <defs>
    <filter id="shadow2" x="-2%" y="-2%" width="104%" height="108%">
      <feDropShadow dx="0" dy="2" stdDeviation="3" flood-opacity="0.1" />
    </filter>
    <linearGradient id="fillGrad" x1="0" y1="0" x2="0" y2="1">
      <stop offset="0%" stop-color="#0366d6" stop-opacity="0.3"/>
      <stop offset="100%" stop-color="#0366d6" stop-opacity="0.02"/>
    </linearGradient>
  </defs>
  <rect width="600" height="150" rx="12" fill="#ffffff" filter="url(#shadow2)" stroke="#e1e4e8" stroke-width="1"/>
  <text x="20" y="24" fill="#2b3137" font-family="-apple-system,BlinkMacSystemFont,'Segoe UI',Helvetica,Arial,sans-serif" font-size="14" font-weight="600">📈 Download Growth (Actual: 80.1k)</text>
  
  <!-- Area sotto la linea -->
  <polygon fill="url(#fillGrad)" points="30.0,120.0,120 30.0,120.0 32.0,119.2 34.1,118.4 36.1,117.7 38.1,117.5 40.2,117.1 42.2,116.2 44.2,115.6 46.2,115.3 48.3,114.3 50.3,113.9 52.3,113.4 54.4,113.2 56.4,112.8 58.4,112.1 60.5,111.5 62.5,111.0 64.5,110.7 66.5,110.4 68.6,110.0 70.6,109.5 72.6,109.1 74.7,108.9 76.7,108.5 78.7,107.1 80.8,106.6 82.8,106.1 84.8,105.5 86.8,105.0 88.9,104.5 90.9,104.2 92.9,104.0 95.0,103.6 97.0,102.9 99.0,102.3 101.1,101.9 103.1,101.4 105.1,101.3 107.1,101.1 109.2,100.9 111.2,100.4 113.2,100.2 115.3,100.0 117.3,99.4 119.3,98.7 121.4,98.5 123.4,98.3 125.4,98.0 127.4,97.4 129.5,97.0 131.5,96.4 133.5,95.9 135.6,95.4 137.6,95.3 139.6,94.9 141.7,94.3 143.7,93.8 145.7,93.3 147.7,93.1 149.8,92.8 151.8,92.6 153.8,91.9 155.9,91.3 157.9,90.8 159.9,90.3 162.0,90.0 164.0,89.8 166.0,89.6 168.0,89.2 170.1,88.9 172.1,88.6 174.1,88.4 176.2,88.2 178.2,87.9 180.2,87.7 182.3,87.6 184.3,87.4 186.3,86.8 188.3,86.5 190.4,86.4 192.4,86.2 194.4,86.1 196.5,86.1 198.5,95.8 200.5,94.8 202.6,94.0 204.6,93.1 206.6,90.4 208.6,88.6 210.7,86.6 212.7,85.9 214.7,85.0 216.8,83.7 218.8,82.2 220.8,81.1 222.9,80.7 224.9,80.3 226.9,79.3 228.9,78.5 231.0,78.0 233.0,77.4 235.0,77.1 237.1,77.0 239.1,76.4 241.1,75.5 243.2,74.9 245.2,74.2 247.2,73.5 249.2,73.2 251.3,72.9 253.3,72.3 255.3,71.7 257.4,71.2 259.4,70.7 261.4,70.5 263.5,70.4 265.5,70.1 267.5,69.6 269.5,69.2 271.6,68.9 273.6,68.6 275.6,68.3 277.7,68.1 279.7,67.8 281.7,67.6 283.8,67.3 285.8,66.8 287.8,66.5 289.8,66.0 291.9,65.8 293.9,65.5 295.9,65.3 298.0,65.1 300.0,64.8 302.0,64.1 304.1,63.7 306.1,63.1 308.1,62.9 310.2,62.8 312.2,62.5 314.2,62.2 316.2,61.9 318.3,61.5 320.3,61.1 322.3,60.8 324.4,60.7 326.4,60.4 328.4,60.3 330.5,60.1 332.5,59.8 334.5,59.5 336.5,59.1 338.6,58.9 340.6,58.8 342.6,58.6 344.7,58.4 346.7,58.1 348.7,57.8 350.8,57.5 352.8,57.2 354.8,56.8 356.8,56.6 358.9,56.5 360.9,56.3 362.9,55.8 365.0,55.4 367.0,55.1 369.0,54.8 371.1,54.3 373.1,54.2 375.1,54.0 377.1,53.9 379.2,53.6 381.2,53.4 383.2,53.1 385.3,52.9 387.3,52.6 389.3,52.4 391.4,52.2 393.4,52.0 395.4,51.9 397.4,51.6 399.5,51.2 401.5,51.1 403.5,50.7 405.6,50.6 407.6,50.4 409.6,50.2 411.7,50.0 413.7,49.8 415.7,49.6 417.7,49.2 419.8,48.7 421.8,48.4 423.8,48.2 425.9,48.1 427.9,48.0 429.9,47.7 432.0,47.3 434.0,47.2 436.0,47.0 438.0,46.7 440.1,46.5 442.1,46.2 444.1,46.1 446.2,45.9 448.2,45.6 450.2,45.3 452.3,45.0 454.3,44.7 456.3,44.5 458.3,44.5 460.4,44.4 462.4,44.1 464.4,43.9 466.5,43.7 468.5,43.4 470.5,43.2 472.6,43.0 474.6,42.8 476.6,42.6 478.6,42.4 480.7,42.1 482.7,41.8 484.7,41.6 486.8,41.3 488.8,41.2 490.8,41.0 492.9,40.9 494.9,40.8 496.9,40.6 498.9,40.4 501.0,40.0 503.0,39.8 505.0,39.6 507.1,39.5 509.1,39.3 511.1,39.1 513.2,38.8 515.2,38.6 517.2,38.5 519.2,38.3 521.3,38.0 523.3,37.8 525.3,37.6 527.4,37.4 529.4,37.3 531.4,37.1 533.5,37.0 535.5,36.8 537.5,36.6 539.5,36.5 541.6,36.3 543.6,35.9 545.6,35.6 547.7,41.9 549.7,40.7 551.7,38.3 553.8,37.4 555.8,36.3 557.8,34.9 559.8,34.1 561.9,33.6 563.9,32.7 565.9,31.4 568.0,30.3 570.0,30.0 570.0,30.0,120" />
  
  <!-- Linea principale -->
  <polyline fill="none" stroke="#0366d6" stroke-width="2.5" stroke-linecap="round" stroke-linejoin="round" points="30.0,120.0 32.0,119.2 34.1,118.4 36.1,117.7 38.1,117.5 40.2,117.1 42.2,116.2 44.2,115.6 46.2,115.3 48.3,114.3 50.3,113.9 52.3,113.4 54.4,113.2 56.4,112.8 58.4,112.1 60.5,111.5 62.5,111.0 64.5,110.7 66.5,110.4 68.6,110.0 70.6,109.5 72.6,109.1 74.7,108.9 76.7,108.5 78.7,107.1 80.8,106.6 82.8,106.1 84.8,105.5 86.8,105.0 88.9,104.5 90.9,104.2 92.9,104.0 95.0,103.6 97.0,102.9 99.0,102.3 101.1,101.9 103.1,101.4 105.1,101.3 107.1,101.1 109.2,100.9 111.2,100.4 113.2,100.2 115.3,100.0 117.3,99.4 119.3,98.7 121.4,98.5 123.4,98.3 125.4,98.0 127.4,97.4 129.5,97.0 131.5,96.4 133.5,95.9 135.6,95.4 137.6,95.3 139.6,94.9 141.7,94.3 143.7,93.8 145.7,93.3 147.7,93.1 149.8,92.8 151.8,92.6 153.8,91.9 155.9,91.3 157.9,90.8 159.9,90.3 162.0,90.0 164.0,89.8 166.0,89.6 168.0,89.2 170.1,88.9 172.1,88.6 174.1,88.4 176.2,88.2 178.2,87.9 180.2,87.7 182.3,87.6 184.3,87.4 186.3,86.8 188.3,86.5 190.4,86.4 192.4,86.2 194.4,86.1 196.5,86.1 198.5,95.8 200.5,94.8 202.6,94.0 204.6,93.1 206.6,90.4 208.6,88.6 210.7,86.6 212.7,85.9 214.7,85.0 216.8,83.7 218.8,82.2 220.8,81.1 222.9,80.7 224.9,80.3 226.9,79.3 228.9,78.5 231.0,78.0 233.0,77.4 235.0,77.1 237.1,77.0 239.1,76.4 241.1,75.5 243.2,74.9 245.2,74.2 247.2,73.5 249.2,73.2 251.3,72.9 253.3,72.3 255.3,71.7 257.4,71.2 259.4,70.7 261.4,70.5 263.5,70.4 265.5,70.1 267.5,69.6 269.5,69.2 271.6,68.9 273.6,68.6 275.6,68.3 277.7,68.1 279.7,67.8 281.7,67.6 283.8,67.3 285.8,66.8 287.8,66.5 289.8,66.0 291.9,65.8 293.9,65.5 295.9,65.3 298.0,65.1 300.0,64.8 302.0,64.1 304.1,63.7 306.1,63.1 308.1,62.9 310.2,62.8 312.2,62.5 314.2,62.2 316.2,61.9 318.3,61.5 320.3,61.1 322.3,60.8 324.4,60.7 326.4,60.4 328.4,60.3 330.5,60.1 332.5,59.8 334.5,59.5 336.5,59.1 338.6,58.9 340.6,58.8 342.6,58.6 344.7,58.4 346.7,58.1 348.7,57.8 350.8,57.5 352.8,57.2 354.8,56.8 356.8,56.6 358.9,56.5 360.9,56.3 362.9,55.8 365.0,55.4 367.0,55.1 369.0,54.8 371.1,54.3 373.1,54.2 375.1,54.0 377.1,53.9 379.2,53.6 381.2,53.4 383.2,53.1 385.3,52.9 387.3,52.6 389.3,52.4 391.4,52.2 393.4,52.0 395.4,51.9 397.4,51.6 399.5,51.2 401.5,51.1 403.5,50.7 405.6,50.6 407.6,50.4 409.6,50.2 411.7,50.0 413.7,49.8 415.7,49.6 417.7,49.2 419.8,48.7 421.8,48.4 423.8,48.2 425.9,48.1 427.9,48.0 429.9,47.7 432.0,47.3 434.0,47.2 436.0,47.0 438.0,46.7 440.1,46.5 442.1,46.2 444.1,46.1 446.2,45.9 448.2,45.6 450.2,45.3 452.3,45.0 454.3,44.7 456.3,44.5 458.3,44.5 460.4,44.4 462.4,44.1 464.4,43.9 466.5,43.7 468.5,43.4 470.5,43.2 472.6,43.0 474.6,42.8 476.6,42.6 478.6,42.4 480.7,42.1 482.7,41.8 484.7,41.6 486.8,41.3 488.8,41.2 490.8,41.0 492.9,40.9 494.9,40.8 496.9,40.6 498.9,40.4 501.0,40.0 503.0,39.8 505.0,39.6 507.1,39.5 509.1,39.3 511.1,39.1 513.2,38.8 515.2,38.6 517.2,38.5 519.2,38.3 521.3,38.0 523.3,37.8 525.3,37.6 527.4,37.4 529.4,37.3 531.4,37.1 533.5,37.0 535.5,36.8 537.5,36.6 539.5,36.5 541.6,36.3 543.6,35.9 545.6,35.6 547.7,41.9 549.7,40.7 551.7,38.3 553.8,37.4 555.8,36.3 557.8,34.9 559.8,34.1 561.9,33.6 563.9,32.7 565.9,31.4 568.0,30.3 570.0,30.0" />
  
  <!-- Punto finale luminoso -->
  <circle cx="570.0" cy="30.0" r="4" fill="#ffffff" stroke="#0366d6" stroke-width="2.5" />
</svg>