<svg width="600" height="150" viewBox="0 0 600 150" xmlns="http://www.w3.org/2000/svg">
  <defs>
    <filter id="shadow2" x="-2%" y="-2%" width="104%" height="108%">
      <feDropShadow dx="0" dy="2" stdDeviation="3" flood-opacity="0.1" />
    </filter>
    <linearGradient id="fillGrad" x1="0" y1="0" x2="0" y2="1">
      <stop offset="0%" stop-color="#0366d6" stop-opacity="0.3"/>
      <stop offset="100%" stop-color="#0366d6" stop-opacity="0.02"/>
    </linearGradient>
  </defs>
  <rect width="600" height="150" rx="12" fill="#ffffff" filter="url(#shadow2)" stroke="#e1e4e8" stroke-width="1"/>
  <text x="20" y="24" fill="#2b3137" font-family="-apple-system,BlinkMacSystemFont,'Segoe UI',Helvetica,Arial,sans-serif" font-size="14" font-weight="600">📈 Download Growth (Actual: 70.6k)</text>
  
  <!-- Area sotto la linea -->
  <polygon fill="url(#fillGrad)" points="30.0,120.0,120 30.0,120.0 39.8,117.3 49.6,114.4 59.5,111.9 69.3,111.2 79.1,109.9 88.9,106.8 98.7,104.7 108.5,103.4 118.4,100.2 128.2,98.6 138.0,97.0 147.8,96.0 157.6,94.6 167.5,92.4 177.3,90.2 187.1,88.4 196.9,87.2 206.7,86.4 216.5,84.9 226.4,83.3 236.2,81.8 246.0,81.1 255.8,79.6 265.6,74.6 275.5,73.1 285.3,71.1 295.1,69.2 304.9,67.4 314.7,65.7 324.5,64.7 334.4,63.8 344.2,62.4 354.0,60.0 363.8,57.9 373.6,56.4 383.5,54.7 393.3,54.3 403.1,53.8 412.9,53.0 422.7,51.4 432.5,50.4 442.4,49.7 452.2,47.9 462.0,45.2 471.8,44.5 481.6,44.0 491.5,43.0 501.3,40.8 511.1,39.4 520.9,37.2 530.7,35.6 540.5,33.6 550.4,33.2 560.2,32.0 570.0,30.0 570.0,30.0,120" />
  
  <!-- Linea principale -->
  <polyline fill="none" stroke="#0366d6" stroke-width="2.5" stroke-linecap="round" stroke-linejoin="round" points="30.0,120.0 39.8,117.3 49.6,114.4 59.5,111.9 69.3,111.2 79.1,109.9 88.9,106.8 98.7,104.7 108.5,103.4 118.4,100.2 128.2,98.6 138.0,97.0 147.8,96.0 157.6,94.6 167.5,92.4 177.3,90.2 187.1,88.4 196.9,87.2 206.7,86.4 216.5,84.9 226.4,83.3 236.2,81.8 246.0,81.1 255.8,79.6 265.6,74.6 275.5,73.1 285.3,71.1 295.1,69.2 304.9,67.4 314.7,65.7 324.5,64.7 334.4,63.8 344.2,62.4 354.0,60.0 363.8,57.9 373.6,56.4 383.5,54.7 393.3,54.3 403.1,53.8 412.9,53.0 422.7,51.4 432.5,50.4 442.4,49.7 452.2,47.9 462.0,45.2 471.8,44.5 481.6,44.0 491.5,43.0 501.3,40.8 511.1,39.4 520.9,37.2 530.7,35.6 540.5,33.6 550.4,33.2 560.2,32.0 570.0,30.0" />
  
  <!-- Punto finale luminoso -->
  <circle cx="570.0" cy="30.0" r="4" fill="#ffffff" stroke="#0366d6" stroke-width="2.5" />
</svg>