<svg width="600" height="150" viewBox="0 0 600 150" xmlns="http://www.w3.org/2000/svg">
  <defs>
    <filter id="shadow2" x="-2%" y="-2%" width="104%" height="108%">
      <feDropShadow dx="0" dy="2" stdDeviation="3" flood-opacity="0.1" />
    </filter>
    <linearGradient id="fillGrad" x1="0" y1="0" x2="0" y2="1">
      <stop offset="0%" stop-color="#0366d6" stop-opacity="0.3"/>
      <stop offset="100%" stop-color="#0366d6" stop-opacity="0.02"/>
    </linearGradient>
  </defs>
  <rect width="600" height="150" rx="12" fill="#ffffff" filter="url(#shadow2)" stroke="#e1e4e8" stroke-width="1"/>
  <text x="20" y="24" fill="#2b3137" font-family="-apple-system,BlinkMacSystemFont,'Segoe UI',Helvetica,Arial,sans-serif" font-size="14" font-weight="600">📈 Download Growth (Actual: 81.8k)</text>
  
  <!-- Area sotto la linea -->
  <polygon fill="url(#fillGrad)" points="30.0,120.0,120 30.0,120.0 31.9,119.3 33.7,118.6 35.6,118.0 37.5,117.8 39.3,117.4 41.2,116.7 43.1,116.1 44.9,115.8 46.8,115.0 48.7,114.6 50.6,114.2 52.4,113.9 54.3,113.6 56.2,113.0 58.0,112.5 59.9,112.0 61.8,111.7 63.6,111.5 65.5,111.1 67.4,110.7 69.2,110.3 71.1,110.2 73.0,109.8 74.8,108.5 76.7,108.2 78.6,107.7 80.4,107.2 82.3,106.7 84.2,106.3 86.1,106.0 87.9,105.8 89.8,105.5 91.7,104.8 93.5,104.3 95.4,103.9 97.3,103.5 99.1,103.4 101.0,103.3 102.9,103.1 104.7,102.7 106.6,102.4 108.5,102.2 110.3,101.8 112.2,101.1 114.1,100.9 116.0,100.8 117.8,100.5 119.7,100.0 121.6,99.6 123.4,99.1 125.3,98.7 127.2,98.2 129.0,98.1 130.9,97.8 132.8,97.3 134.6,96.7 136.5,96.4 138.4,96.2 140.2,95.9 142.1,95.7 144.0,95.1 145.8,94.6 147.7,94.1 149.6,93.7 151.5,93.4 153.3,93.3 155.2,93.1 157.1,92.7 158.9,92.4 160.8,92.2 162.7,92.0 164.5,91.8 166.4,91.6 168.3,91.4 170.1,91.3 172.0,91.1 173.9,90.6 175.7,90.3 177.6,90.2 179.5,90.0 181.3,89.9 183.2,89.9 185.1,98.5 187.0,97.7 188.8,96.9 190.7,96.1 192.6,93.8 194.4,92.2 196.3,90.4 198.2,89.8 200.0,89.0 201.9,87.8 203.8,86.5 205.6,85.5 207.5,85.2 209.4,84.8 211.2,83.9 213.1,83.2 215.0,82.8 216.9,82.2 218.7,82.0 220.6,81.9 222.5,81.4 224.3,80.6 226.2,80.0 228.1,79.4 229.9,78.8 231.8,78.5 233.7,78.3 235.5,77.7 237.4,77.2 239.3,76.7 241.1,76.3 243.0,76.2 244.9,76.0 246.7,75.8 248.6,75.3 250.5,75.0 252.4,74.7 254.2,74.5 256.1,74.2 258.0,74.0 259.8,73.7 261.7,73.6 263.6,73.3 265.4,72.9 267.3,72.6 269.2,72.2 271.0,71.9 272.9,71.7 274.8,71.5 276.6,71.3 278.5,71.1 280.4,70.5 282.2,70.1 284.1,69.6 286.0,69.4 287.9,69.3 289.7,69.1 291.6,68.8 293.5,68.5 295.3,68.2 297.2,67.8 299.1,67.5 300.9,67.4 302.8,67.2 304.7,67.1 306.5,66.9 308.4,66.6 310.3,66.4 312.1,66.0 314.0,65.9 315.9,65.7 317.8,65.6 319.6,65.5 321.5,65.1 323.4,64.9 325.2,64.6 327.1,64.3 329.0,64.0 330.8,63.8 332.7,63.7 334.6,63.5 336.4,63.1 338.3,62.8 340.2,62.5 342.0,62.2 343.9,61.8 345.8,61.7 347.6,61.5 349.5,61.4 351.4,61.2 353.3,60.9 355.1,60.7 357.0,60.5 358.9,60.3 360.7,60.1 362.6,59.9 364.5,59.7 366.3,59.6 368.2,59.4 370.1,59.0 371.9,58.9 373.8,58.6 375.7,58.5 377.5,58.3 379.4,58.1 381.3,58.0 383.1,57.8 385.0,57.6 386.9,57.2 388.8,56.8 390.6,56.6 392.5,56.4 394.4,56.3 396.2,56.2 398.1,56.0 400.0,55.6 401.8,55.4 403.7,55.3 405.6,55.1 407.4,54.9 409.3,54.6 411.2,54.5 413.0,54.3 414.9,54.0 416.8,53.8 418.7,53.5 420.5,53.2 422.4,53.1 424.3,53.1 426.1,53.0 428.0,52.8 429.9,52.6 431.7,52.4 433.6,52.1 435.5,51.9 437.3,51.8 439.2,51.6 441.1,51.4 442.9,51.3 444.8,51.0 446.7,50.7 448.5,50.5 450.4,50.3 452.3,50.1 454.2,50.0 456.0,49.9 457.9,49.8 459.8,49.6 461.6,49.4 463.5,49.1 465.4,49.0 467.2,48.8 469.1,48.6 471.0,48.5 472.8,48.3 474.7,48.0 476.6,47.9 478.4,47.7 480.3,47.6 482.2,47.3 484.0,47.1 485.9,46.9 487.8,46.8 489.7,46.7 491.5,46.6 493.4,46.4 495.3,46.2 497.1,46.1 499.0,46.0 500.9,45.9 502.7,45.4 504.6,45.2 506.5,50.8 508.3,49.7 510.2,47.6 512.1,46.8 513.9,45.8 515.8,44.6 517.7,43.9 519.6,43.5 521.4,42.7 523.3,41.4 525.2,40.5 527.0,40.2 528.9,39.8 530.8,39.4 532.6,38.8 534.5,38.2 536.4,37.5 538.2,37.2 540.1,36.6 542.0,36.2 543.8,35.8 545.7,35.5 547.6,35.2 549.4,34.9 551.3,34.3 553.2,33.9 555.1,33.3 556.9,32.6 558.8,32.1 560.7,31.8 562.5,31.6 564.4,31.3 566.3,30.8 568.1,30.4 570.0,30.0 570.0,30.0,120" />
  
  <!-- Linea principale -->
  <polyline fill="none" stroke="#0366d6" stroke-width="2.5" stroke-linecap="round" stroke-linejoin="round" points="30.0,120.0 31.9,119.3 33.7,118.6 35.6,118.0 37.5,117.8 39.3,117.4 41.2,116.7 43.1,116.1 44.9,115.8 46.8,115.0 48.7,114.6 50.6,114.2 52.4,113.9 54.3,113.6 56.2,113.0 58.0,112.5 59.9,112.0 61.8,111.7 63.6,111.5 65.5,111.1 67.4,110.7 69.2,110.3 71.1,110.2 73.0,109.8 74.8,108.5 76.7,108.2 78.6,107.7 80.4,107.2 82.3,106.7 84.2,106.3 86.1,106.0 87.9,105.8 89.8,105.5 91.7,104.8 93.5,104.3 95.4,103.9 97.3,103.5 99.1,103.4 101.0,103.3 102.9,103.1 104.7,102.7 106.6,102.4 108.5,102.2 110.3,101.8 112.2,101.1 114.1,100.9 116.0,100.8 117.8,100.5 119.7,100.0 121.6,99.6 123.4,99.1 125.3,98.7 127.2,98.2 129.0,98.1 130.9,97.8 132.8,97.3 134.6,96.7 136.5,96.4 138.4,96.2 140.2,95.9 142.1,95.7 144.0,95.1 145.8,94.6 147.7,94.1 149.6,93.7 151.5,93.4 153.3,93.3 155.2,93.1 157.1,92.7 158.9,92.4 160.8,92.2 162.7,92.0 164.5,91.8 166.4,91.6 168.3,91.4 170.1,91.3 172.0,91.1 173.9,90.6 175.7,90.3 177.6,90.2 179.5,90.0 181.3,89.9 183.2,89.9 185.1,98.5 187.0,97.7 188.8,96.9 190.7,96.1 192.6,93.8 194.4,92.2 196.3,90.4 198.2,89.8 200.0,89.0 201.9,87.8 203.8,86.5 205.6,85.5 207.5,85.2 209.4,84.8 211.2,83.9 213.1,83.2 215.0,82.8 216.9,82.2 218.7,82.0 220.6,81.9 222.5,81.4 224.3,80.6 226.2,80.0 228.1,79.4 229.9,78.8 231.8,78.5 233.7,78.3 235.5,77.7 237.4,77.2 239.3,76.7 241.1,76.3 243.0,76.2 244.9,76.0 246.7,75.8 248.6,75.3 250.5,75.0 252.4,74.7 254.2,74.5 256.1,74.2 258.0,74.0 259.8,73.7 261.7,73.6 263.6,73.3 265.4,72.9 267.3,72.6 269.2,72.2 271.0,71.9 272.9,71.7 274.8,71.5 276.6,71.3 278.5,71.1 280.4,70.5 282.2,70.1 284.1,69.6 286.0,69.4 287.9,69.3 289.7,69.1 291.6,68.8 293.5,68.5 295.3,68.2 297.2,67.8 299.1,67.5 300.9,67.4 302.8,67.2 304.7,67.1 306.5,66.9 308.4,66.6 310.3,66.4 312.1,66.0 314.0,65.9 315.9,65.7 317.8,65.6 319.6,65.5 321.5,65.1 323.4,64.9 325.2,64.6 327.1,64.3 329.0,64.0 330.8,63.8 332.7,63.7 334.6,63.5 336.4,63.1 338.3,62.8 340.2,62.5 342.0,62.2 343.9,61.8 345.8,61.7 347.6,61.5 349.5,61.4 351.4,61.2 353.3,60.9 355.1,60.7 357.0,60.5 358.9,60.3 360.7,60.1 362.6,59.9 364.5,59.7 366.3,59.6 368.2,59.4 370.1,59.0 371.9,58.9 373.8,58.6 375.7,58.5 377.5,58.3 379.4,58.1 381.3,58.0 383.1,57.8 385.0,57.6 386.9,57.2 388.8,56.8 390.6,56.6 392.5,56.4 394.4,56.3 396.2,56.2 398.1,56.0 400.0,55.6 401.8,55.4 403.7,55.3 405.6,55.1 407.4,54.9 409.3,54.6 411.2,54.5 413.0,54.3 414.9,54.0 416.8,53.8 418.7,53.5 420.5,53.2 422.4,53.1 424.3,53.1 426.1,53.0 428.0,52.8 429.9,52.6 431.7,52.4 433.6,52.1 435.5,51.9 437.3,51.8 439.2,51.6 441.1,51.4 442.9,51.3 444.8,51.0 446.7,50.7 448.5,50.5 450.4,50.3 452.3,50.1 454.2,50.0 456.0,49.9 457.9,49.8 459.8,49.6 461.6,49.4 463.5,49.1 465.4,49.0 467.2,48.8 469.1,48.6 471.0,48.5 472.8,48.3 474.7,48.0 476.6,47.9 478.4,47.7 480.3,47.6 482.2,47.3 484.0,47.1 485.9,46.9 487.8,46.8 489.7,46.7 491.5,46.6 493.4,46.4 495.3,46.2 497.1,46.1 499.0,46.0 500.9,45.9 502.7,45.4 504.6,45.2 506.5,50.8 508.3,49.7 510.2,47.6 512.1,46.8 513.9,45.8 515.8,44.6 517.7,43.9 519.6,43.5 521.4,42.7 523.3,41.4 525.2,40.5 527.0,40.2 528.9,39.8 530.8,39.4 532.6,38.8 534.5,38.2 536.4,37.5 538.2,37.2 540.1,36.6 542.0,36.2 543.8,35.8 545.7,35.5 547.6,35.2 549.4,34.9 551.3,34.3 553.2,33.9 555.1,33.3 556.9,32.6 558.8,32.1 560.7,31.8 562.5,31.6 564.4,31.3 566.3,30.8 568.1,30.4 570.0,30.0" />
  
  <!-- Punto finale luminoso -->
  <circle cx="570.0" cy="30.0" r="4" fill="#ffffff" stroke="#0366d6" stroke-width="2.5" />
</svg>