<svg width="600" height="150" viewBox="0 0 600 150" xmlns="http://www.w3.org/2000/svg">
  <defs>
    <filter id="shadow2" x="-2%" y="-2%" width="104%" height="108%">
      <feDropShadow dx="0" dy="2" stdDeviation="3" flood-opacity="0.1" />
    </filter>
    <linearGradient id="fillGrad" x1="0" y1="0" x2="0" y2="1">
      <stop offset="0%" stop-color="#0366d6" stop-opacity="0.3"/>
      <stop offset="100%" stop-color="#0366d6" stop-opacity="0.02"/>
    </linearGradient>
  </defs>
  <rect width="600" height="150" rx="12" fill="#ffffff" filter="url(#shadow2)" stroke="#e1e4e8" stroke-width="1"/>
  <text x="20" y="24" fill="#2b3137" font-family="-apple-system,BlinkMacSystemFont,'Segoe UI',Helvetica,Arial,sans-serif" font-size="14" font-weight="600">📈 Download Growth (Actual: 68.5k)</text>
  
  <!-- Area sotto la linea -->
  <polygon fill="url(#fillGrad)" points="30.0,120.0,120 30.0,120.0 55.7,113.7 81.4,106.9 107.1,100.9 132.9,99.4 158.6,96.2 184.3,88.9 210.0,84.1 235.7,80.8 261.4,73.3 287.1,69.5 312.9,65.8 338.6,63.6 364.3,60.2 390.0,55.1 415.7,49.7 441.4,45.6 467.1,42.8 492.9,40.8 518.6,37.5 544.3,33.5 570.0,30.0 570.0,30.0,120" />
  
  <!-- Linea principale -->
  <polyline fill="none" stroke="#0366d6" stroke-width="2.5" stroke-linecap="round" stroke-linejoin="round" points="30.0,120.0 55.7,113.7 81.4,106.9 107.1,100.9 132.9,99.4 158.6,96.2 184.3,88.9 210.0,84.1 235.7,80.8 261.4,73.3 287.1,69.5 312.9,65.8 338.6,63.6 364.3,60.2 390.0,55.1 415.7,49.7 441.4,45.6 467.1,42.8 492.9,40.8 518.6,37.5 544.3,33.5 570.0,30.0" />
  
  <!-- Punto finale luminoso -->
  <circle cx="570.0" cy="30.0" r="4" fill="#ffffff" stroke="#0366d6" stroke-width="2.5" />
</svg>