<svg width="600" height="150" viewBox="0 0 600 150" xmlns="http://www.w3.org/2000/svg">
  <defs>
    <filter id="shadow2" x="-2%" y="-2%" width="104%" height="108%">
      <feDropShadow dx="0" dy="2" stdDeviation="3" flood-opacity="0.1" />
    </filter>
    <linearGradient id="fillGrad" x1="0" y1="0" x2="0" y2="1">
      <stop offset="0%" stop-color="#0366d6" stop-opacity="0.3"/>
      <stop offset="100%" stop-color="#0366d6" stop-opacity="0.02"/>
    </linearGradient>
  </defs>
  <rect width="600" height="150" rx="12" fill="#ffffff" filter="url(#shadow2)" stroke="#e1e4e8" stroke-width="1"/>
  <text x="20" y="24" fill="#2b3137" font-family="-apple-system,BlinkMacSystemFont,'Segoe UI',Helvetica,Arial,sans-serif" font-size="14" font-weight="600">📈 Download Growth (Actual: 73.8k)</text>
  
  <!-- Area sotto la linea -->
  <polygon fill="url(#fillGrad)" points="30.0,120.0,120 30.0,120.0 35.0,118.5 40.0,116.9 45.0,115.6 50.0,115.2 55.0,114.5 60.0,112.8 65.0,111.6 70.0,110.9 75.0,109.1 80.0,108.3 85.0,107.4 90.0,106.9 95.0,106.1 100.0,104.9 105.0,103.7 110.0,102.7 115.0,102.0 120.0,101.6 125.0,100.8 130.0,99.9 135.0,99.1 140.0,98.7 145.0,97.9 150.0,95.1 155.0,94.3 160.0,93.2 165.0,92.2 170.0,91.2 175.0,90.3 180.0,89.7 185.0,89.2 190.0,88.5 195.0,87.1 200.0,86.0 205.0,85.2 210.0,84.3 215.0,84.0 220.0,83.8 225.0,83.3 230.0,82.4 235.0,81.9 240.0,81.5 245.0,80.5 250.0,79.0 255.0,78.7 260.0,78.4 265.0,77.8 270.0,76.6 275.0,75.9 280.0,74.6 285.0,73.8 290.0,72.7 295.0,72.5 300.0,71.8 305.0,70.7 310.0,69.6 315.0,68.8 320.0,68.4 325.0,67.8 330.0,67.3 335.0,66.1 340.0,64.9 345.0,63.9 350.0,62.9 355.0,62.4 360.0,62.1 365.0,61.6 370.0,60.8 375.0,60.2 380.0,59.7 385.0,59.3 390.0,59.0 395.0,58.4 400.0,58.0 405.0,57.7 410.0,57.4 415.0,56.3 420.0,55.7 425.0,55.5 430.0,55.1 435.0,54.9 440.0,54.9 445.0,73.5 450.0,71.6 455.0,70.0 460.0,68.3 465.0,63.2 470.0,59.7 475.0,55.8 480.0,54.4 485.0,52.8 490.0,50.2 495.0,47.4 500.0,45.3 505.0,44.5 510.0,43.8 515.0,41.7 520.0,40.2 525.0,39.3 530.0,38.1 535.0,37.6 540.0,37.4 545.0,36.3 550.0,34.6 555.0,33.3 560.0,32.1 565.0,30.7 570.0,30.0 570.0,30.0,120" />
  
  <!-- Linea principale -->
  <polyline fill="none" stroke="#0366d6" stroke-width="2.5" stroke-linecap="round" stroke-linejoin="round" points="30.0,120.0 35.0,118.5 40.0,116.9 45.0,115.6 50.0,115.2 55.0,114.5 60.0,112.8 65.0,111.6 70.0,110.9 75.0,109.1 80.0,108.3 85.0,107.4 90.0,106.9 95.0,106.1 100.0,104.9 105.0,103.7 110.0,102.7 115.0,102.0 120.0,101.6 125.0,100.8 130.0,99.9 135.0,99.1 140.0,98.7 145.0,97.9 150.0,95.1 155.0,94.3 160.0,93.2 165.0,92.2 170.0,91.2 175.0,90.3 180.0,89.7 185.0,89.2 190.0,88.5 195.0,87.1 200.0,86.0 205.0,85.2 210.0,84.3 215.0,84.0 220.0,83.8 225.0,83.3 230.0,82.4 235.0,81.9 240.0,81.5 245.0,80.5 250.0,79.0 255.0,78.7 260.0,78.4 265.0,77.8 270.0,76.6 275.0,75.9 280.0,74.6 285.0,73.8 290.0,72.7 295.0,72.5 300.0,71.8 305.0,70.7 310.0,69.6 315.0,68.8 320.0,68.4 325.0,67.8 330.0,67.3 335.0,66.1 340.0,64.9 345.0,63.9 350.0,62.9 355.0,62.4 360.0,62.1 365.0,61.6 370.0,60.8 375.0,60.2 380.0,59.7 385.0,59.3 390.0,59.0 395.0,58.4 400.0,58.0 405.0,57.7 410.0,57.4 415.0,56.3 420.0,55.7 425.0,55.5 430.0,55.1 435.0,54.9 440.0,54.9 445.0,73.5 450.0,71.6 455.0,70.0 460.0,68.3 465.0,63.2 470.0,59.7 475.0,55.8 480.0,54.4 485.0,52.8 490.0,50.2 495.0,47.4 500.0,45.3 505.0,44.5 510.0,43.8 515.0,41.7 520.0,40.2 525.0,39.3 530.0,38.1 535.0,37.6 540.0,37.4 545.0,36.3 550.0,34.6 555.0,33.3 560.0,32.1 565.0,30.7 570.0,30.0" />
  
  <!-- Punto finale luminoso -->
  <circle cx="570.0" cy="30.0" r="4" fill="#ffffff" stroke="#0366d6" stroke-width="2.5" />
</svg>