<svg width="600" height="150" viewBox="0 0 600 150" xmlns="http://www.w3.org/2000/svg">
  <defs>
    <filter id="shadow2" x="-2%" y="-2%" width="104%" height="108%">
      <feDropShadow dx="0" dy="2" stdDeviation="3" flood-opacity="0.1" />
    </filter>
    <linearGradient id="fillGrad" x1="0" y1="0" x2="0" y2="1">
      <stop offset="0%" stop-color="#0366d6" stop-opacity="0.3"/>
      <stop offset="100%" stop-color="#0366d6" stop-opacity="0.02"/>
    </linearGradient>
  </defs>
  <rect width="600" height="150" rx="12" fill="#ffffff" filter="url(#shadow2)" stroke="#e1e4e8" stroke-width="1"/>
  <text x="20" y="24" fill="#2b3137" font-family="-apple-system,BlinkMacSystemFont,'Segoe UI',Helvetica,Arial,sans-serif" font-size="14" font-weight="600">📈 Download Growth (Actual: 68.9k)</text>
  
  <!-- Area sotto la linea -->
  <polygon fill="url(#fillGrad)" points="30.0,120.0,120 30.0,120.0 50.8,115.1 71.5,109.7 92.3,105.1 113.1,103.9 133.8,101.4 154.6,95.7 175.4,91.9 196.2,89.3 216.9,83.5 237.7,80.5 258.5,77.6 279.2,75.9 300.0,73.2 320.8,69.3 341.5,65.0 362.3,61.8 383.1,59.6 403.8,58.1 424.6,55.4 445.4,52.3 466.2,49.6 486.9,48.3 507.7,45.7 528.5,36.4 549.2,33.6 570.0,30.0 570.0,30.0,120" />
  
  <!-- Linea principale -->
  <polyline fill="none" stroke="#0366d6" stroke-width="2.5" stroke-linecap="round" stroke-linejoin="round" points="30.0,120.0 50.8,115.1 71.5,109.7 92.3,105.1 113.1,103.9 133.8,101.4 154.6,95.7 175.4,91.9 196.2,89.3 216.9,83.5 237.7,80.5 258.5,77.6 279.2,75.9 300.0,73.2 320.8,69.3 341.5,65.0 362.3,61.8 383.1,59.6 403.8,58.1 424.6,55.4 445.4,52.3 466.2,49.6 486.9,48.3 507.7,45.7 528.5,36.4 549.2,33.6 570.0,30.0" />
  
  <!-- Punto finale luminoso -->
  <circle cx="570.0" cy="30.0" r="4" fill="#ffffff" stroke="#0366d6" stroke-width="2.5" />
</svg>