<svg width="600" height="150" viewBox="0 0 600 150" xmlns="http://www.w3.org/2000/svg">
  <defs>
    <filter id="shadow2" x="-2%" y="-2%" width="104%" height="108%">
      <feDropShadow dx="0" dy="2" stdDeviation="3" flood-opacity="0.1" />
    </filter>
    <linearGradient id="fillGrad" x1="0" y1="0" x2="0" y2="1">
      <stop offset="0%" stop-color="#0366d6" stop-opacity="0.3"/>
      <stop offset="100%" stop-color="#0366d6" stop-opacity="0.02"/>
    </linearGradient>
  </defs>
  <rect width="600" height="150" rx="12" fill="#ffffff" filter="url(#shadow2)" stroke="#e1e4e8" stroke-width="1"/>
  <text x="20" y="24" fill="#2b3137" font-family="-apple-system,BlinkMacSystemFont,'Segoe UI',Helvetica,Arial,sans-serif" font-size="14" font-weight="600">📈 Download Growth (Actual: 76.9k)</text>
  
  <!-- Area sotto la linea -->
  <polygon fill="url(#fillGrad)" points="30.0,120.0,120 30.0,120.0 33.0,119.0 36.1,117.9 39.1,116.9 42.1,116.7 45.2,116.2 48.2,115.0 51.2,114.2 54.3,113.7 57.3,112.5 60.3,111.9 63.4,111.3 66.4,110.9 69.4,110.4 72.5,109.6 75.5,108.7 78.5,108.0 81.6,107.6 84.6,107.3 87.6,106.7 90.7,106.1 93.7,105.5 96.7,105.3 99.8,104.7 102.8,102.8 105.8,102.3 108.9,101.5 111.9,100.8 114.9,100.1 118.0,99.5 121.0,99.1 124.0,98.8 127.1,98.2 130.1,97.3 133.1,96.5 136.2,96.0 139.2,95.3 142.2,95.1 145.3,95.0 148.3,94.7 151.3,94.0 154.4,93.7 157.4,93.4 160.4,92.7 163.5,91.7 166.5,91.5 169.6,91.3 172.6,90.9 175.6,90.1 178.7,89.5 181.7,88.7 184.7,88.1 187.8,87.3 190.8,87.2 193.8,86.7 196.9,86.0 199.9,85.2 202.9,84.6 206.0,84.3 209.0,84.0 212.0,83.6 215.1,82.8 218.1,82.0 221.1,81.3 224.2,80.6 227.2,80.2 230.2,80.0 233.3,79.7 236.3,79.1 239.3,78.7 242.4,78.4 245.4,78.1 248.4,77.8 251.5,77.4 254.5,77.2 257.5,77.0 260.6,76.8 263.6,76.0 266.6,75.6 269.7,75.4 272.7,75.2 275.7,75.0 278.8,75.0 281.8,87.9 284.8,86.6 287.9,85.5 290.9,84.3 293.9,80.8 297.0,78.3 300.0,75.7 303.0,74.7 306.1,73.6 309.1,71.8 312.1,69.8 315.2,68.4 318.2,67.9 321.2,67.3 324.3,65.9 327.3,64.9 330.3,64.2 333.4,63.4 336.4,63.1 339.4,62.9 342.5,62.2 345.5,61.0 348.5,60.1 351.6,59.3 354.6,58.3 357.6,57.8 360.7,57.5 363.7,56.7 366.7,55.9 369.8,55.2 372.8,54.6 375.8,54.4 378.9,54.2 381.9,53.8 384.9,53.1 388.0,52.7 391.0,52.2 394.0,51.8 397.1,51.4 400.1,51.1 403.1,50.7 406.2,50.5 409.2,50.1 412.2,49.5 415.3,49.0 418.3,48.4 421.3,48.1 424.4,47.7 427.4,47.4 430.4,47.1 433.5,46.8 436.5,45.9 439.6,45.3 442.6,44.5 445.6,44.2 448.7,44.1 451.7,43.7 454.7,43.3 457.8,42.8 460.8,42.4 463.8,41.8 466.9,41.4 469.9,41.3 472.9,41.0 476.0,40.7 479.0,40.5 482.0,40.1 485.1,39.8 488.1,39.2 491.1,38.9 494.2,38.8 497.2,38.5 500.2,38.3 503.3,37.8 506.3,37.4 509.3,37.0 512.4,36.6 515.4,36.2 518.4,35.9 521.5,35.7 524.5,35.4 527.5,34.9 530.6,34.3 533.6,33.9 536.6,33.5 539.7,32.8 542.7,32.7 545.7,32.4 548.8,32.3 551.8,31.9 554.8,31.6 557.9,31.2 560.9,30.9 563.9,30.6 567.0,30.3 570.0,30.0 570.0,30.0,120" />
  
  <!-- Linea principale -->
  <polyline fill="none" stroke="#0366d6" stroke-width="2.5" stroke-linecap="round" stroke-linejoin="round" points="30.0,120.0 33.0,119.0 36.1,117.9 39.1,116.9 42.1,116.7 45.2,116.2 48.2,115.0 51.2,114.2 54.3,113.7 57.3,112.5 60.3,111.9 63.4,111.3 66.4,110.9 69.4,110.4 72.5,109.6 75.5,108.7 78.5,108.0 81.6,107.6 84.6,107.3 87.6,106.7 90.7,106.1 93.7,105.5 96.7,105.3 99.8,104.7 102.8,102.8 105.8,102.3 108.9,101.5 111.9,100.8 114.9,100.1 118.0,99.5 121.0,99.1 124.0,98.8 127.1,98.2 130.1,97.3 133.1,96.5 136.2,96.0 139.2,95.3 142.2,95.1 145.3,95.0 148.3,94.7 151.3,94.0 154.4,93.7 157.4,93.4 160.4,92.7 163.5,91.7 166.5,91.5 169.6,91.3 172.6,90.9 175.6,90.1 178.7,89.5 181.7,88.7 184.7,88.1 187.8,87.3 190.8,87.2 193.8,86.7 196.9,86.0 199.9,85.2 202.9,84.6 206.0,84.3 209.0,84.0 212.0,83.6 215.1,82.8 218.1,82.0 221.1,81.3 224.2,80.6 227.2,80.2 230.2,80.0 233.3,79.7 236.3,79.1 239.3,78.7 242.4,78.4 245.4,78.1 248.4,77.8 251.5,77.4 254.5,77.2 257.5,77.0 260.6,76.8 263.6,76.0 266.6,75.6 269.7,75.4 272.7,75.2 275.7,75.0 278.8,75.0 281.8,87.9 284.8,86.6 287.9,85.5 290.9,84.3 293.9,80.8 297.0,78.3 300.0,75.7 303.0,74.7 306.1,73.6 309.1,71.8 312.1,69.8 315.2,68.4 318.2,67.9 321.2,67.3 324.3,65.9 327.3,64.9 330.3,64.2 333.4,63.4 336.4,63.1 339.4,62.9 342.5,62.2 345.5,61.0 348.5,60.1 351.6,59.3 354.6,58.3 357.6,57.8 360.7,57.5 363.7,56.7 366.7,55.9 369.8,55.2 372.8,54.6 375.8,54.4 378.9,54.2 381.9,53.8 384.9,53.1 388.0,52.7 391.0,52.2 394.0,51.8 397.1,51.4 400.1,51.1 403.1,50.7 406.2,50.5 409.2,50.1 412.2,49.5 415.3,49.0 418.3,48.4 421.3,48.1 424.4,47.7 427.4,47.4 430.4,47.1 433.5,46.8 436.5,45.9 439.6,45.3 442.6,44.5 445.6,44.2 448.7,44.1 451.7,43.7 454.7,43.3 457.8,42.8 460.8,42.4 463.8,41.8 466.9,41.4 469.9,41.3 472.9,41.0 476.0,40.7 479.0,40.5 482.0,40.1 485.1,39.8 488.1,39.2 491.1,38.9 494.2,38.8 497.2,38.5 500.2,38.3 503.3,37.8 506.3,37.4 509.3,37.0 512.4,36.6 515.4,36.2 518.4,35.9 521.5,35.7 524.5,35.4 527.5,34.9 530.6,34.3 533.6,33.9 536.6,33.5 539.7,32.8 542.7,32.7 545.7,32.4 548.8,32.3 551.8,31.9 554.8,31.6 557.9,31.2 560.9,30.9 563.9,30.6 567.0,30.3 570.0,30.0" />
  
  <!-- Punto finale luminoso -->
  <circle cx="570.0" cy="30.0" r="4" fill="#ffffff" stroke="#0366d6" stroke-width="2.5" />
</svg>