<svg width="600" height="150" viewBox="0 0 600 150" xmlns="http://www.w3.org/2000/svg">
  <defs>
    <filter id="shadow2" x="-2%" y="-2%" width="104%" height="108%">
      <feDropShadow dx="0" dy="2" stdDeviation="3" flood-opacity="0.1" />
    </filter>
    <linearGradient id="fillGrad" x1="0" y1="0" x2="0" y2="1">
      <stop offset="0%" stop-color="#0366d6" stop-opacity="0.3"/>
      <stop offset="100%" stop-color="#0366d6" stop-opacity="0.02"/>
    </linearGradient>
  </defs>
  <rect width="600" height="150" rx="12" fill="#ffffff" filter="url(#shadow2)" stroke="#e1e4e8" stroke-width="1"/>
  <text x="20" y="24" fill="#2b3137" font-family="-apple-system,BlinkMacSystemFont,'Segoe UI',Helvetica,Arial,sans-serif" font-size="14" font-weight="600">📈 Download Growth (Actual: 87.2k)</text>
  
  <!-- Area sotto la linea -->
  <polygon fill="url(#fillGrad)" points="30.0,120.0,120 30.0,120.0 31.3,119.5 32.7,119.0 34.0,118.5 35.3,118.4 36.7,118.1 38.0,117.5 39.4,117.2 40.7,116.9 42.0,116.3 43.4,116.0 44.7,115.7 46.0,115.5 47.4,115.3 48.7,114.9 50.0,114.5 51.4,114.1 52.7,113.9 54.1,113.7 55.4,113.5 56.7,113.2 58.1,112.9 59.4,112.8 60.7,112.5 62.1,111.6 63.4,111.3 64.8,110.9 66.1,110.5 67.4,110.2 68.8,109.9 70.1,109.7 71.4,109.6 72.8,109.3 74.1,108.8 75.4,108.4 76.8,108.2 78.1,107.9 79.5,107.8 80.8,107.7 82.1,107.5 83.5,107.2 84.8,107.1 86.1,106.9 87.5,106.6 88.8,106.1 90.1,106.0 91.5,105.9 92.8,105.7 94.2,105.3 95.5,105.0 96.8,104.6 98.2,104.3 99.5,103.9 100.8,103.9 102.2,103.6 103.5,103.3 104.9,102.9 106.2,102.6 107.5,102.5 108.9,102.3 110.2,102.1 111.5,101.7 112.9,101.3 114.2,101.0 115.5,100.6 116.9,100.4 118.2,100.3 119.6,100.2 120.9,99.9 122.2,99.7 123.6,99.5 124.9,99.4 126.2,99.3 127.6,99.1 128.9,98.9 130.2,98.9 131.6,98.8 132.9,98.4 134.3,98.2 135.6,98.1 136.9,98.0 138.3,97.9 139.6,97.9 140.9,104.2 142.3,103.6 143.6,103.0 145.0,102.4 146.3,100.7 147.6,99.5 149.0,98.2 150.3,97.7 151.6,97.2 153.0,96.3 154.3,95.3 155.6,94.6 157.0,94.4 158.3,94.1 159.7,93.4 161.0,92.9 162.3,92.6 163.7,92.2 165.0,92.0 166.3,91.9 167.7,91.6 169.0,91.0 170.3,90.6 171.7,90.1 173.0,89.7 174.4,89.4 175.7,89.3 177.0,88.9 178.4,88.5 179.7,88.1 181.0,87.9 182.4,87.7 183.7,87.7 185.0,87.4 186.4,87.1 187.7,86.9 189.1,86.7 190.4,86.5 191.7,86.3 193.1,86.1 194.4,86.0 195.7,85.8 197.1,85.7 198.4,85.3 199.8,85.1 201.1,84.8 202.4,84.6 203.8,84.4 205.1,84.3 206.4,84.2 207.8,84.0 209.1,83.6 210.4,83.3 211.8,82.9 213.1,82.7 214.5,82.7 215.8,82.5 217.1,82.3 218.5,82.1 219.8,81.9 221.1,81.6 222.5,81.4 223.8,81.3 225.1,81.2 226.5,81.0 227.8,80.9 229.2,80.7 230.5,80.6 231.8,80.3 233.2,80.2 234.5,80.1 235.8,79.9 237.2,79.9 238.5,79.6 239.9,79.4 241.2,79.2 242.5,79.0 243.9,78.8 245.2,78.7 246.5,78.6 247.9,78.4 249.2,78.2 250.5,77.9 251.9,77.7 253.2,77.5 254.6,77.2 255.9,77.1 257.2,77.0 258.6,76.9 259.9,76.7 261.2,76.5 262.6,76.4 263.9,76.2 265.2,76.0 266.6,75.9 267.9,75.8 269.3,75.6 270.6,75.6 271.9,75.4 273.3,75.1 274.6,75.0 275.9,74.8 277.3,74.7 278.6,74.6 280.0,74.5 281.3,74.4 282.6,74.2 284.0,74.1 285.3,73.8 286.6,73.5 288.0,73.3 289.3,73.2 290.6,73.1 292.0,73.0 293.3,72.9 294.7,72.6 296.0,72.5 297.3,72.4 298.7,72.2 300.0,72.1 301.3,71.9 302.7,71.8 304.0,71.7 305.3,71.4 306.7,71.3 308.0,71.1 309.4,70.9 310.7,70.8 312.0,70.7 313.4,70.7 314.7,70.5 316.0,70.4 317.4,70.2 318.7,70.1 320.0,69.9 321.4,69.8 322.7,69.7 324.1,69.5 325.4,69.4 326.7,69.2 328.1,69.0 329.4,68.8 330.7,68.7 332.1,68.6 333.4,68.5 334.8,68.4 336.1,68.3 337.4,68.2 338.8,68.1 340.1,67.8 341.4,67.7 342.8,67.6 344.1,67.5 345.4,67.3 346.8,67.2 348.1,67.0 349.5,66.9 350.8,66.8 352.1,66.7 353.5,66.5 354.8,66.4 356.1,66.2 357.5,66.1 358.8,66.1 360.1,66.0 361.5,65.8 362.8,65.7 364.2,65.6 365.5,65.6 366.8,65.4 368.2,65.1 369.5,64.9 370.8,69.1 372.2,68.3 373.5,66.7 374.9,66.1 376.2,65.4 377.5,64.5 378.9,64.0 380.2,63.7 381.5,63.1 382.9,62.2 384.2,61.5 385.5,61.3 386.9,61.0 388.2,60.7 389.6,60.2 390.9,59.8 392.2,59.3 393.6,59.0 394.9,58.6 396.2,58.4 397.6,58.0 398.9,57.8 400.2,57.6 401.6,57.4 402.9,56.9 404.3,56.6 405.6,56.2 406.9,55.6 408.3,55.3 409.6,55.1 410.9,55.0 412.3,54.7 413.6,54.4 415.0,54.0 416.3,53.8 417.6,52.9 419.0,52.3 420.3,52.0 421.6,51.8 423.0,51.5 424.3,51.1 425.6,50.7 427.0,50.4 428.3,50.1 429.7,49.8 431.0,49.5 432.3,49.3 433.7,48.9 435.0,48.6 436.3,48.5 437.7,48.3 439.0,47.9 440.3,47.7 441.7,47.5 443.0,47.3 444.4,47.2 445.7,46.9 447.0,46.8 448.4,46.6 449.7,46.4 451.0,46.2 452.4,46.1 453.7,45.8 455.0,45.6 456.4,45.3 457.7,45.0 459.1,44.7 460.4,44.5 461.7,44.4 463.1,44.2 464.4,44.0 465.7,43.9 467.1,43.7 468.4,43.6 469.8,43.5 471.1,43.3 472.4,43.2 473.8,42.9 475.1,42.7 476.4,42.6 477.8,42.4 479.1,42.0 480.4,41.7 481.8,41.5 483.1,41.3 484.5,41.1 485.8,40.9 487.1,40.7 488.5,40.4 489.8,40.2 491.1,40.2 492.5,40.0 493.8,39.8 495.1,39.6 496.5,39.4 497.8,39.3 499.2,39.1 500.5,38.8 501.8,38.7 503.2,38.4 504.5,38.2 505.8,37.9 507.2,37.7 508.5,37.5 509.9,37.4 511.2,37.3 512.5,37.1 513.9,36.9 515.2,36.7 516.5,36.5 517.9,36.4 519.2,36.3 520.5,36.1 521.9,35.9 523.2,35.8 524.6,35.7 525.9,35.5 527.2,35.4 528.6,35.3 529.9,35.1 531.2,34.9 532.6,34.8 533.9,34.7 535.2,34.5 536.6,34.3 537.9,34.1 539.3,34.0 540.6,33.8 541.9,33.7 543.3,33.4 544.6,33.3 545.9,33.0 547.3,32.9 548.6,32.8 550.0,32.7 551.3,32.5 552.6,32.4 554.0,32.2 555.3,31.9 556.6,31.8 558.0,31.6 559.3,31.5 560.6,31.4 562.0,31.2 563.3,31.0 564.7,30.8 566.0,30.6 567.3,30.5 568.7,30.2 570.0,30.0 570.0,30.0,120" />
  
  <!-- Linea principale -->
  <polyline fill="none" stroke="#0366d6" stroke-width="2.5" stroke-linecap="round" stroke-linejoin="round" points="30.0,120.0 31.3,119.5 32.7,119.0 34.0,118.5 35.3,118.4 36.7,118.1 38.0,117.5 39.4,117.2 40.7,116.9 42.0,116.3 43.4,116.0 44.7,115.7 46.0,115.5 47.4,115.3 48.7,114.9 50.0,114.5 51.4,114.1 52.7,113.9 54.1,113.7 55.4,113.5 56.7,113.2 58.1,112.9 59.4,112.8 60.7,112.5 62.1,111.6 63.4,111.3 64.8,110.9 66.1,110.5 67.4,110.2 68.8,109.9 70.1,109.7 71.4,109.6 72.8,109.3 74.1,108.8 75.4,108.4 76.8,108.2 78.1,107.9 79.5,107.8 80.8,107.7 82.1,107.5 83.5,107.2 84.8,107.1 86.1,106.9 87.5,106.6 88.8,106.1 90.1,106.0 91.5,105.9 92.8,105.7 94.2,105.3 95.5,105.0 96.8,104.6 98.2,104.3 99.5,103.9 100.8,103.9 102.2,103.6 103.5,103.3 104.9,102.9 106.2,102.6 107.5,102.5 108.9,102.3 110.2,102.1 111.5,101.7 112.9,101.3 114.2,101.0 115.5,100.6 116.9,100.4 118.2,100.3 119.6,100.2 120.9,99.9 122.2,99.7 123.6,99.5 124.9,99.4 126.2,99.3 127.6,99.1 128.9,98.9 130.2,98.9 131.6,98.8 132.9,98.4 134.3,98.2 135.6,98.1 136.9,98.0 138.3,97.9 139.6,97.9 140.9,104.2 142.3,103.6 143.6,103.0 145.0,102.4 146.3,100.7 147.6,99.5 149.0,98.2 150.3,97.7 151.6,97.2 153.0,96.3 154.3,95.3 155.6,94.6 157.0,94.4 158.3,94.1 159.7,93.4 161.0,92.9 162.3,92.6 163.7,92.2 165.0,92.0 166.3,91.9 167.7,91.6 169.0,91.0 170.3,90.6 171.7,90.1 173.0,89.7 174.4,89.4 175.7,89.3 177.0,88.9 178.4,88.5 179.7,88.1 181.0,87.9 182.4,87.7 183.7,87.7 185.0,87.4 186.4,87.1 187.7,86.9 189.1,86.7 190.4,86.5 191.7,86.3 193.1,86.1 194.4,86.0 195.7,85.8 197.1,85.7 198.4,85.3 199.8,85.1 201.1,84.8 202.4,84.6 203.8,84.4 205.1,84.3 206.4,84.2 207.8,84.0 209.1,83.6 210.4,83.3 211.8,82.9 213.1,82.7 214.5,82.7 215.8,82.5 217.1,82.3 218.5,82.1 219.8,81.9 221.1,81.6 222.5,81.4 223.8,81.3 225.1,81.2 226.5,81.0 227.8,80.9 229.2,80.7 230.5,80.6 231.8,80.3 233.2,80.2 234.5,80.1 235.8,79.9 237.2,79.9 238.5,79.6 239.9,79.4 241.2,79.2 242.5,79.0 243.9,78.8 245.2,78.7 246.5,78.6 247.9,78.4 249.2,78.2 250.5,77.9 251.9,77.7 253.2,77.5 254.6,77.2 255.9,77.1 257.2,77.0 258.6,76.9 259.9,76.7 261.2,76.5 262.6,76.4 263.9,76.2 265.2,76.0 266.6,75.9 267.9,75.8 269.3,75.6 270.6,75.6 271.9,75.4 273.3,75.1 274.6,75.0 275.9,74.8 277.3,74.7 278.6,74.6 280.0,74.5 281.3,74.4 282.6,74.2 284.0,74.1 285.3,73.8 286.6,73.5 288.0,73.3 289.3,73.2 290.6,73.1 292.0,73.0 293.3,72.9 294.7,72.6 296.0,72.5 297.3,72.4 298.7,72.2 300.0,72.1 301.3,71.9 302.7,71.8 304.0,71.7 305.3,71.4 306.7,71.3 308.0,71.1 309.4,70.9 310.7,70.8 312.0,70.7 313.4,70.7 314.7,70.5 316.0,70.4 317.4,70.2 318.7,70.1 320.0,69.9 321.4,69.8 322.7,69.7 324.1,69.5 325.4,69.4 326.7,69.2 328.1,69.0 329.4,68.8 330.7,68.7 332.1,68.6 333.4,68.5 334.8,68.4 336.1,68.3 337.4,68.2 338.8,68.1 340.1,67.8 341.4,67.7 342.8,67.6 344.1,67.5 345.4,67.3 346.8,67.2 348.1,67.0 349.5,66.9 350.8,66.8 352.1,66.7 353.5,66.5 354.8,66.4 356.1,66.2 357.5,66.1 358.8,66.1 360.1,66.0 361.5,65.8 362.8,65.7 364.2,65.6 365.5,65.6 366.8,65.4 368.2,65.1 369.5,64.9 370.8,69.1 372.2,68.3 373.5,66.7 374.9,66.1 376.2,65.4 377.5,64.5 378.9,64.0 380.2,63.7 381.5,63.1 382.9,62.2 384.2,61.5 385.5,61.3 386.9,61.0 388.2,60.7 389.6,60.2 390.9,59.8 392.2,59.3 393.6,59.0 394.9,58.6 396.2,58.4 397.6,58.0 398.9,57.8 400.2,57.6 401.6,57.4 402.9,56.9 404.3,56.6 405.6,56.2 406.9,55.6 408.3,55.3 409.6,55.1 410.9,55.0 412.3,54.7 413.6,54.4 415.0,54.0 416.3,53.8 417.6,52.9 419.0,52.3 420.3,52.0 421.6,51.8 423.0,51.5 424.3,51.1 425.6,50.7 427.0,50.4 428.3,50.1 429.7,49.8 431.0,49.5 432.3,49.3 433.7,48.9 435.0,48.6 436.3,48.5 437.7,48.3 439.0,47.9 440.3,47.7 441.7,47.5 443.0,47.3 444.4,47.2 445.7,46.9 447.0,46.8 448.4,46.6 449.7,46.4 451.0,46.2 452.4,46.1 453.7,45.8 455.0,45.6 456.4,45.3 457.7,45.0 459.1,44.7 460.4,44.5 461.7,44.4 463.1,44.2 464.4,44.0 465.7,43.9 467.1,43.7 468.4,43.6 469.8,43.5 471.1,43.3 472.4,43.2 473.8,42.9 475.1,42.7 476.4,42.6 477.8,42.4 479.1,42.0 480.4,41.7 481.8,41.5 483.1,41.3 484.5,41.1 485.8,40.9 487.1,40.7 488.5,40.4 489.8,40.2 491.1,40.2 492.5,40.0 493.8,39.8 495.1,39.6 496.5,39.4 497.8,39.3 499.2,39.1 500.5,38.8 501.8,38.7 503.2,38.4 504.5,38.2 505.8,37.9 507.2,37.7 508.5,37.5 509.9,37.4 511.2,37.3 512.5,37.1 513.9,36.9 515.2,36.7 516.5,36.5 517.9,36.4 519.2,36.3 520.5,36.1 521.9,35.9 523.2,35.8 524.6,35.7 525.9,35.5 527.2,35.4 528.6,35.3 529.9,35.1 531.2,34.9 532.6,34.8 533.9,34.7 535.2,34.5 536.6,34.3 537.9,34.1 539.3,34.0 540.6,33.8 541.9,33.7 543.3,33.4 544.6,33.3 545.9,33.0 547.3,32.9 548.6,32.8 550.0,32.7 551.3,32.5 552.6,32.4 554.0,32.2 555.3,31.9 556.6,31.8 558.0,31.6 559.3,31.5 560.6,31.4 562.0,31.2 563.3,31.0 564.7,30.8 566.0,30.6 567.3,30.5 568.7,30.2 570.0,30.0" />
  
  <!-- Punto finale luminoso -->
  <circle cx="570.0" cy="30.0" r="4" fill="#ffffff" stroke="#0366d6" stroke-width="2.5" />
</svg>