<svg width="600" height="150" viewBox="0 0 600 150" xmlns="http://www.w3.org/2000/svg">
  <defs>
    <filter id="shadow2" x="-2%" y="-2%" width="104%" height="108%">
      <feDropShadow dx="0" dy="2" stdDeviation="3" flood-opacity="0.1" />
    </filter>
    <linearGradient id="fillGrad" x1="0" y1="0" x2="0" y2="1">
      <stop offset="0%" stop-color="#0366d6" stop-opacity="0.3"/>
      <stop offset="100%" stop-color="#0366d6" stop-opacity="0.02"/>
    </linearGradient>
  </defs>
  <rect width="600" height="150" rx="12" fill="#ffffff" filter="url(#shadow2)" stroke="#e1e4e8" stroke-width="1"/>
  <text x="20" y="24" fill="#2b3137" font-family="-apple-system,BlinkMacSystemFont,'Segoe UI',Helvetica,Arial,sans-serif" font-size="14" font-weight="600">📈 Download Growth (Actual: 87.6k)</text>
  
  <!-- Area sotto la linea -->
  <polygon fill="url(#fillGrad)" points="30.0,120.0,120 30.0,120.0 31.3,119.5 32.6,119.0 33.9,118.5 35.2,118.4 36.5,118.2 37.8,117.6 39.1,117.2 40.4,117.0 41.7,116.4 43.0,116.1 44.3,115.8 45.6,115.6 46.9,115.4 48.2,115.0 49.5,114.6 50.8,114.3 52.1,114.0 53.4,113.9 54.7,113.6 56.0,113.3 57.3,113.0 58.6,112.9 59.9,112.7 61.2,111.7 62.5,111.5 63.8,111.1 65.1,110.8 66.4,110.4 67.7,110.1 69.0,109.9 70.3,109.8 71.6,109.5 72.9,109.1 74.2,108.7 75.5,108.4 76.8,108.1 78.1,108.0 79.4,108.0 80.7,107.8 82.0,107.5 83.3,107.3 84.7,107.2 86.0,106.9 87.3,106.4 88.6,106.3 89.9,106.2 91.2,106.0 92.5,105.6 93.8,105.3 95.1,104.9 96.4,104.6 97.7,104.3 99.0,104.2 100.3,104.0 101.6,103.6 102.9,103.3 104.2,103.0 105.5,102.9 106.8,102.7 108.1,102.5 109.4,102.1 110.7,101.7 112.0,101.4 113.3,101.0 114.6,100.9 115.9,100.8 117.2,100.6 118.5,100.3 119.8,100.1 121.1,100.0 122.4,99.9 123.7,99.7 125.0,99.5 126.3,99.4 127.6,99.3 128.9,99.2 130.2,98.8 131.5,98.6 132.8,98.6 134.1,98.4 135.4,98.4 136.7,98.4 138.0,104.5 139.3,103.9 140.6,103.4 141.9,102.8 143.2,101.1 144.5,100.0 145.8,98.7 147.1,98.2 148.4,97.7 149.7,96.8 151.0,95.9 152.3,95.2 153.6,94.9 154.9,94.7 156.2,94.0 157.5,93.5 158.8,93.2 160.1,92.8 161.4,92.6 162.7,92.6 164.0,92.2 165.3,91.6 166.6,91.2 167.9,90.8 169.2,90.3 170.5,90.1 171.8,89.9 173.1,89.5 174.4,89.2 175.7,88.8 177.0,88.6 178.3,88.4 179.6,88.4 180.9,88.1 182.2,87.8 183.5,87.6 184.8,87.4 186.1,87.2 187.4,87.0 188.7,86.9 190.0,86.7 191.3,86.6 192.7,86.4 194.0,86.1 195.3,85.8 196.6,85.6 197.9,85.4 199.2,85.2 200.5,85.1 201.8,85.0 203.1,84.8 204.4,84.4 205.7,84.1 207.0,83.7 208.3,83.5 209.6,83.5 210.9,83.3 212.2,83.1 213.5,82.9 214.8,82.7 216.1,82.4 217.4,82.2 218.7,82.1 220.0,82.0 221.3,81.9 222.6,81.8 223.9,81.6 225.2,81.4 226.5,81.2 227.8,81.0 229.1,80.9 230.4,80.8 231.7,80.7 233.0,80.5 234.3,80.3 235.6,80.1 236.9,79.9 238.2,79.7 239.5,79.6 240.8,79.5 242.1,79.3 243.4,79.1 244.7,78.8 246.0,78.6 247.3,78.4 248.6,78.1 249.9,78.0 251.2,77.9 252.5,77.8 253.8,77.6 255.1,77.5 256.4,77.3 257.7,77.2 259.0,77.0 260.3,76.9 261.6,76.7 262.9,76.6 264.2,76.5 265.5,76.4 266.8,76.1 268.1,76.0 269.4,75.8 270.7,75.7 272.0,75.6 273.3,75.4 274.6,75.3 275.9,75.2 277.2,75.1 278.5,74.8 279.8,74.5 281.1,74.3 282.4,74.2 283.7,74.1 285.0,74.1 286.3,73.9 287.6,73.6 288.9,73.5 290.2,73.4 291.5,73.2 292.8,73.1 294.1,72.9 295.4,72.8 296.7,72.7 298.0,72.5 299.3,72.3 300.7,72.1 302.0,71.9 303.3,71.9 304.6,71.8 305.9,71.7 307.2,71.6 308.5,71.5 309.8,71.3 311.1,71.1 312.4,71.0 313.7,70.9 315.0,70.8 316.3,70.6 317.6,70.5 318.9,70.3 320.2,70.1 321.5,70.0 322.8,69.8 324.1,69.7 325.4,69.6 326.7,69.5 328.0,69.4 329.3,69.3 330.6,69.2 331.9,69.0 333.2,68.9 334.5,68.7 335.8,68.6 337.1,68.5 338.4,68.4 339.7,68.2 341.0,68.1 342.3,68.0 343.6,67.8 344.9,67.7 346.2,67.5 347.5,67.4 348.8,67.3 350.1,67.2 351.4,67.1 352.7,67.0 354.0,66.9 355.3,66.8 356.6,66.7 357.9,66.6 359.2,66.3 360.5,66.1 361.8,70.2 363.1,69.4 364.4,67.9 365.7,67.3 367.0,66.6 368.3,65.7 369.6,65.2 370.9,64.9 372.2,64.3 373.5,63.4 374.8,62.8 376.1,62.6 377.4,62.2 378.7,62.0 380.0,61.5 381.3,61.1 382.6,60.6 383.9,60.4 385.2,59.9 386.5,59.7 387.8,59.4 389.1,59.2 390.4,59.0 391.7,58.7 393.0,58.3 394.3,58.0 395.6,57.6 396.9,57.0 398.2,56.7 399.5,56.5 400.8,56.4 402.1,56.2 403.4,55.8 404.7,55.5 406.0,55.2 407.3,54.4 408.7,53.7 410.0,53.4 411.3,53.3 412.6,53.0 413.9,52.6 415.2,52.2 416.5,51.9 417.8,51.7 419.1,51.4 420.4,51.1 421.7,50.8 423.0,50.4 424.3,50.2 425.6,50.1 426.9,49.9 428.2,49.5 429.5,49.3 430.8,49.0 432.1,48.9 433.4,48.8 434.7,48.5 436.0,48.4 437.3,48.2 438.6,48.0 439.9,47.8 441.2,47.7 442.5,47.4 443.8,47.3 445.1,46.9 446.4,46.6 447.7,46.3 449.0,46.2 450.3,46.0 451.6,45.9 452.9,45.7 454.2,45.5 455.5,45.4 456.8,45.3 458.1,45.1 459.4,44.9 460.7,44.8 462.0,44.5 463.3,44.4 464.6,44.3 465.9,44.1 467.2,43.7 468.5,43.4 469.8,43.2 471.1,43.0 472.4,42.8 473.7,42.6 475.0,42.4 476.3,42.2 477.6,42.0 478.9,41.9 480.2,41.8 481.5,41.6 482.8,41.3 484.1,41.2 485.4,41.1 486.7,40.8 488.0,40.6 489.3,40.4 490.6,40.2 491.9,40.0 493.2,39.7 494.5,39.5 495.8,39.3 497.1,39.2 498.4,39.1 499.7,38.9 501.0,38.7 502.3,38.6 503.6,38.3 504.9,38.2 506.2,38.1 507.5,37.9 508.8,37.8 510.1,37.6 511.4,37.5 512.7,37.4 514.0,37.3 515.3,37.1 516.7,37.0 518.0,36.8 519.3,36.6 520.6,36.5 521.9,36.4 523.2,36.2 524.5,36.0 525.8,35.9 527.1,35.7 528.4,35.6 529.7,35.3 531.0,35.2 532.3,34.9 533.6,34.8 534.9,34.7 536.2,34.6 537.5,34.4 538.8,34.3 540.1,34.1 541.4,33.8 542.7,33.7 544.0,33.5 545.3,33.4 546.6,33.3 547.9,33.1 549.2,32.9 550.5,32.7 551.8,32.5 553.1,32.4 554.4,32.2 555.7,32.0 557.0,31.8 558.3,31.5 559.6,31.4 560.9,31.3 562.2,31.0 563.5,30.8 564.8,30.6 566.1,30.5 567.4,30.3 568.7,30.2 570.0,30.0 570.0,30.0,120" />
  
  <!-- Linea principale -->
  <polyline fill="none" stroke="#0366d6" stroke-width="2.5" stroke-linecap="round" stroke-linejoin="round" points="30.0,120.0 31.3,119.5 32.6,119.0 33.9,118.5 35.2,118.4 36.5,118.2 37.8,117.6 39.1,117.2 40.4,117.0 41.7,116.4 43.0,116.1 44.3,115.8 45.6,115.6 46.9,115.4 48.2,115.0 49.5,114.6 50.8,114.3 52.1,114.0 53.4,113.9 54.7,113.6 56.0,113.3 57.3,113.0 58.6,112.9 59.9,112.7 61.2,111.7 62.5,111.5 63.8,111.1 65.1,110.8 66.4,110.4 67.7,110.1 69.0,109.9 70.3,109.8 71.6,109.5 72.9,109.1 74.2,108.7 75.5,108.4 76.8,108.1 78.1,108.0 79.4,108.0 80.7,107.8 82.0,107.5 83.3,107.3 84.7,107.2 86.0,106.9 87.3,106.4 88.6,106.3 89.9,106.2 91.2,106.0 92.5,105.6 93.8,105.3 95.1,104.9 96.4,104.6 97.7,104.3 99.0,104.2 100.3,104.0 101.6,103.6 102.9,103.3 104.2,103.0 105.5,102.9 106.8,102.7 108.1,102.5 109.4,102.1 110.7,101.7 112.0,101.4 113.3,101.0 114.6,100.9 115.9,100.8 117.2,100.6 118.5,100.3 119.8,100.1 121.1,100.0 122.4,99.9 123.7,99.7 125.0,99.5 126.3,99.4 127.6,99.3 128.9,99.2 130.2,98.8 131.5,98.6 132.8,98.6 134.1,98.4 135.4,98.4 136.7,98.4 138.0,104.5 139.3,103.9 140.6,103.4 141.9,102.8 143.2,101.1 144.5,100.0 145.8,98.7 147.1,98.2 148.4,97.7 149.7,96.8 151.0,95.9 152.3,95.2 153.6,94.9 154.9,94.7 156.2,94.0 157.5,93.5 158.8,93.2 160.1,92.8 161.4,92.6 162.7,92.6 164.0,92.2 165.3,91.6 166.6,91.2 167.9,90.8 169.2,90.3 170.5,90.1 171.8,89.9 173.1,89.5 174.4,89.2 175.7,88.8 177.0,88.6 178.3,88.4 179.6,88.4 180.9,88.1 182.2,87.8 183.5,87.6 184.8,87.4 186.1,87.2 187.4,87.0 188.7,86.9 190.0,86.7 191.3,86.6 192.7,86.4 194.0,86.1 195.3,85.8 196.6,85.6 197.9,85.4 199.2,85.2 200.5,85.1 201.8,85.0 203.1,84.8 204.4,84.4 205.7,84.1 207.0,83.7 208.3,83.5 209.6,83.5 210.9,83.3 212.2,83.1 213.5,82.9 214.8,82.7 216.1,82.4 217.4,82.2 218.7,82.1 220.0,82.0 221.3,81.9 222.6,81.8 223.9,81.6 225.2,81.4 226.5,81.2 227.8,81.0 229.1,80.9 230.4,80.8 231.7,80.7 233.0,80.5 234.3,80.3 235.6,80.1 236.9,79.9 238.2,79.7 239.5,79.6 240.8,79.5 242.1,79.3 243.4,79.1 244.7,78.8 246.0,78.6 247.3,78.4 248.6,78.1 249.9,78.0 251.2,77.9 252.5,77.8 253.8,77.6 255.1,77.5 256.4,77.3 257.7,77.2 259.0,77.0 260.3,76.9 261.6,76.7 262.9,76.6 264.2,76.5 265.5,76.4 266.8,76.1 268.1,76.0 269.4,75.8 270.7,75.7 272.0,75.6 273.3,75.4 274.6,75.3 275.9,75.2 277.2,75.1 278.5,74.8 279.8,74.5 281.1,74.3 282.4,74.2 283.7,74.1 285.0,74.1 286.3,73.9 287.6,73.6 288.9,73.5 290.2,73.4 291.5,73.2 292.8,73.1 294.1,72.9 295.4,72.8 296.7,72.7 298.0,72.5 299.3,72.3 300.7,72.1 302.0,71.9 303.3,71.9 304.6,71.8 305.9,71.7 307.2,71.6 308.5,71.5 309.8,71.3 311.1,71.1 312.4,71.0 313.7,70.9 315.0,70.8 316.3,70.6 317.6,70.5 318.9,70.3 320.2,70.1 321.5,70.0 322.8,69.8 324.1,69.7 325.4,69.6 326.7,69.5 328.0,69.4 329.3,69.3 330.6,69.2 331.9,69.0 333.2,68.9 334.5,68.7 335.8,68.6 337.1,68.5 338.4,68.4 339.7,68.2 341.0,68.1 342.3,68.0 343.6,67.8 344.9,67.7 346.2,67.5 347.5,67.4 348.8,67.3 350.1,67.2 351.4,67.1 352.7,67.0 354.0,66.9 355.3,66.8 356.6,66.7 357.9,66.6 359.2,66.3 360.5,66.1 361.8,70.2 363.1,69.4 364.4,67.9 365.7,67.3 367.0,66.6 368.3,65.7 369.6,65.2 370.9,64.9 372.2,64.3 373.5,63.4 374.8,62.8 376.1,62.6 377.4,62.2 378.7,62.0 380.0,61.5 381.3,61.1 382.6,60.6 383.9,60.4 385.2,59.9 386.5,59.7 387.8,59.4 389.1,59.2 390.4,59.0 391.7,58.7 393.0,58.3 394.3,58.0 395.6,57.6 396.9,57.0 398.2,56.7 399.5,56.5 400.8,56.4 402.1,56.2 403.4,55.8 404.7,55.5 406.0,55.2 407.3,54.4 408.7,53.7 410.0,53.4 411.3,53.3 412.6,53.0 413.9,52.6 415.2,52.2 416.5,51.9 417.8,51.7 419.1,51.4 420.4,51.1 421.7,50.8 423.0,50.4 424.3,50.2 425.6,50.1 426.9,49.9 428.2,49.5 429.5,49.3 430.8,49.0 432.1,48.9 433.4,48.8 434.7,48.5 436.0,48.4 437.3,48.2 438.6,48.0 439.9,47.8 441.2,47.7 442.5,47.4 443.8,47.3 445.1,46.9 446.4,46.6 447.7,46.3 449.0,46.2 450.3,46.0 451.6,45.9 452.9,45.7 454.2,45.5 455.5,45.4 456.8,45.3 458.1,45.1 459.4,44.9 460.7,44.8 462.0,44.5 463.3,44.4 464.6,44.3 465.9,44.1 467.2,43.7 468.5,43.4 469.8,43.2 471.1,43.0 472.4,42.8 473.7,42.6 475.0,42.4 476.3,42.2 477.6,42.0 478.9,41.9 480.2,41.8 481.5,41.6 482.8,41.3 484.1,41.2 485.4,41.1 486.7,40.8 488.0,40.6 489.3,40.4 490.6,40.2 491.9,40.0 493.2,39.7 494.5,39.5 495.8,39.3 497.1,39.2 498.4,39.1 499.7,38.9 501.0,38.7 502.3,38.6 503.6,38.3 504.9,38.2 506.2,38.1 507.5,37.9 508.8,37.8 510.1,37.6 511.4,37.5 512.7,37.4 514.0,37.3 515.3,37.1 516.7,37.0 518.0,36.8 519.3,36.6 520.6,36.5 521.9,36.4 523.2,36.2 524.5,36.0 525.8,35.9 527.1,35.7 528.4,35.6 529.7,35.3 531.0,35.2 532.3,34.9 533.6,34.8 534.9,34.7 536.2,34.6 537.5,34.4 538.8,34.3 540.1,34.1 541.4,33.8 542.7,33.7 544.0,33.5 545.3,33.4 546.6,33.3 547.9,33.1 549.2,32.9 550.5,32.7 551.8,32.5 553.1,32.4 554.4,32.2 555.7,32.0 557.0,31.8 558.3,31.5 559.6,31.4 560.9,31.3 562.2,31.0 563.5,30.8 564.8,30.6 566.1,30.5 567.4,30.3 568.7,30.2 570.0,30.0" />
  
  <!-- Punto finale luminoso -->
  <circle cx="570.0" cy="30.0" r="4" fill="#ffffff" stroke="#0366d6" stroke-width="2.5" />
</svg>