<svg width="600" height="150" viewBox="0 0 600 150" xmlns="http://www.w3.org/2000/svg">
  <defs>
    <filter id="shadow2" x="-2%" y="-2%" width="104%" height="108%">
      <feDropShadow dx="0" dy="2" stdDeviation="3" flood-opacity="0.1" />
    </filter>
    <linearGradient id="fillGrad" x1="0" y1="0" x2="0" y2="1">
      <stop offset="0%" stop-color="#0366d6" stop-opacity="0.3"/>
      <stop offset="100%" stop-color="#0366d6" stop-opacity="0.02"/>
    </linearGradient>
  </defs>
  <rect width="600" height="150" rx="12" fill="#ffffff" filter="url(#shadow2)" stroke="#e1e4e8" stroke-width="1"/>
  <text x="20" y="24" fill="#2b3137" font-family="-apple-system,BlinkMacSystemFont,'Segoe UI',Helvetica,Arial,sans-serif" font-size="14" font-weight="600">📈 Download Growth (Actual: 82.2k)</text>
  
  <!-- Area sotto la linea -->
  <polygon fill="url(#fillGrad)" points="30.0,120.0,120 30.0,120.0 31.9,119.3 33.7,118.6 35.6,118.0 37.4,117.8 39.3,117.5 41.1,116.7 43.0,116.2 44.8,115.9 46.7,115.1 48.6,114.7 50.4,114.3 52.3,114.1 54.1,113.7 56.0,113.2 57.8,112.6 59.7,112.2 61.5,111.9 63.4,111.7 65.3,111.3 67.1,110.9 69.0,110.6 70.8,110.4 72.7,110.0 74.5,108.8 76.4,108.4 78.2,107.9 80.1,107.4 82.0,107.0 83.8,106.6 85.7,106.3 87.5,106.1 89.4,105.8 91.2,105.2 93.1,104.7 94.9,104.3 96.8,103.9 98.7,103.8 100.5,103.7 102.4,103.4 104.2,103.0 106.1,102.8 107.9,102.6 109.8,102.2 111.6,101.5 113.5,101.4 115.4,101.2 117.2,101.0 119.1,100.4 120.9,100.1 122.8,99.5 124.6,99.1 126.5,98.7 128.4,98.6 130.2,98.3 132.1,97.8 133.9,97.3 135.8,96.9 137.6,96.7 139.5,96.5 141.3,96.2 143.2,95.7 145.1,95.2 146.9,94.7 148.8,94.2 150.6,94.0 152.5,93.9 154.3,93.7 156.2,93.3 158.0,93.0 159.9,92.8 161.8,92.6 163.6,92.5 165.5,92.2 167.3,92.0 169.2,91.9 171.0,91.8 172.9,91.3 174.7,91.0 176.6,90.9 178.5,90.7 180.3,90.6 182.2,90.6 184.0,99.0 185.9,98.2 187.7,97.4 189.6,96.7 191.4,94.4 193.3,92.8 195.2,91.1 197.0,90.4 198.9,89.7 200.7,88.5 202.6,87.2 204.4,86.3 206.3,85.9 208.1,85.6 210.0,84.7 211.9,84.0 213.7,83.6 215.6,83.0 217.4,82.8 219.3,82.7 221.1,82.2 223.0,81.5 224.8,80.9 226.7,80.3 228.6,79.7 230.4,79.4 232.3,79.2 234.1,78.6 236.0,78.1 237.8,77.7 239.7,77.3 241.5,77.1 243.4,77.0 245.3,76.7 247.1,76.3 249.0,76.0 250.8,75.7 252.7,75.5 254.5,75.2 256.4,75.0 258.2,74.8 260.1,74.6 262.0,74.4 263.8,73.9 265.7,73.6 267.5,73.2 269.4,73.0 271.2,72.8 273.1,72.6 274.9,72.4 276.8,72.2 278.7,71.6 280.5,71.2 282.4,70.7 284.2,70.5 286.1,70.4 287.9,70.2 289.8,69.9 291.6,69.6 293.5,69.3 295.4,68.9 297.2,68.7 299.1,68.6 300.9,68.4 302.8,68.2 304.6,68.1 306.5,67.8 308.4,67.6 310.2,67.2 312.1,67.1 313.9,66.9 315.8,66.8 317.6,66.7 319.5,66.3 321.3,66.1 323.2,65.8 325.1,65.5 326.9,65.3 328.8,65.1 330.6,65.0 332.5,64.8 334.3,64.4 336.2,64.1 338.0,63.8 339.9,63.5 341.8,63.1 343.6,63.0 345.5,62.8 347.3,62.7 349.2,62.5 351.0,62.3 352.9,62.0 354.7,61.8 356.6,61.6 358.5,61.4 360.3,61.2 362.2,61.1 364.0,61.0 365.9,60.7 367.7,60.4 369.6,60.3 371.4,60.0 373.3,59.9 375.2,59.7 377.0,59.5 378.9,59.4 380.7,59.2 382.6,59.0 384.4,58.6 386.3,58.2 388.1,58.0 390.0,57.8 391.9,57.7 393.7,57.6 395.6,57.4 397.4,57.0 399.3,56.9 401.1,56.7 403.0,56.5 404.8,56.3 406.7,56.1 408.6,55.9 410.4,55.8 412.3,55.5 414.1,55.3 416.0,55.0 417.8,54.7 419.7,54.6 421.5,54.5 423.4,54.5 425.3,54.3 427.1,54.1 429.0,53.9 430.8,53.6 432.7,53.4 434.5,53.3 436.4,53.1 438.2,53.0 440.1,52.8 442.0,52.5 443.8,52.2 445.7,52.0 447.5,51.8 449.4,51.7 451.2,51.6 453.1,51.4 454.9,51.3 456.8,51.2 458.7,51.0 460.5,50.7 462.4,50.5 464.2,50.3 466.1,50.2 467.9,50.0 469.8,49.9 471.6,49.6 473.5,49.5 475.4,49.3 477.2,49.2 479.1,48.9 480.9,48.8 482.8,48.6 484.6,48.5 486.5,48.3 488.4,48.2 490.2,48.0 492.1,47.9 493.9,47.7 495.8,47.7 497.6,47.5 499.5,47.1 501.3,46.8 503.2,52.3 505.1,51.2 506.9,49.2 508.8,48.4 510.6,47.4 512.5,46.2 514.3,45.6 516.2,45.1 518.0,44.4 519.9,43.2 521.8,42.3 523.6,42.0 525.5,41.6 527.3,41.2 529.2,40.6 531.0,40.0 532.9,39.3 534.7,39.0 536.6,38.4 538.5,38.1 540.3,37.7 542.2,37.4 544.0,37.1 545.9,36.8 547.7,36.2 549.6,35.8 551.4,35.2 553.3,34.5 555.2,34.0 557.0,33.8 558.9,33.6 560.7,33.3 562.6,32.8 564.4,32.4 566.3,32.0 568.1,30.9 570.0,30.0 570.0,30.0,120" />
  
  <!-- Linea principale -->
  <polyline fill="none" stroke="#0366d6" stroke-width="2.5" stroke-linecap="round" stroke-linejoin="round" points="30.0,120.0 31.9,119.3 33.7,118.6 35.6,118.0 37.4,117.8 39.3,117.5 41.1,116.7 43.0,116.2 44.8,115.9 46.7,115.1 48.6,114.7 50.4,114.3 52.3,114.1 54.1,113.7 56.0,113.2 57.8,112.6 59.7,112.2 61.5,111.9 63.4,111.7 65.3,111.3 67.1,110.9 69.0,110.6 70.8,110.4 72.7,110.0 74.5,108.8 76.4,108.4 78.2,107.9 80.1,107.4 82.0,107.0 83.8,106.6 85.7,106.3 87.5,106.1 89.4,105.8 91.2,105.2 93.1,104.7 94.9,104.3 96.8,103.9 98.7,103.8 100.5,103.7 102.4,103.4 104.2,103.0 106.1,102.8 107.9,102.6 109.8,102.2 111.6,101.5 113.5,101.4 115.4,101.2 117.2,101.0 119.1,100.4 120.9,100.1 122.8,99.5 124.6,99.1 126.5,98.7 128.4,98.6 130.2,98.3 132.1,97.8 133.9,97.3 135.8,96.9 137.6,96.7 139.5,96.5 141.3,96.2 143.2,95.7 145.1,95.2 146.9,94.7 148.8,94.2 150.6,94.0 152.5,93.9 154.3,93.7 156.2,93.3 158.0,93.0 159.9,92.8 161.8,92.6 163.6,92.5 165.5,92.2 167.3,92.0 169.2,91.9 171.0,91.8 172.9,91.3 174.7,91.0 176.6,90.9 178.5,90.7 180.3,90.6 182.2,90.6 184.0,99.0 185.9,98.2 187.7,97.4 189.6,96.7 191.4,94.4 193.3,92.8 195.2,91.1 197.0,90.4 198.9,89.7 200.7,88.5 202.6,87.2 204.4,86.3 206.3,85.9 208.1,85.6 210.0,84.7 211.9,84.0 213.7,83.6 215.6,83.0 217.4,82.8 219.3,82.7 221.1,82.2 223.0,81.5 224.8,80.9 226.7,80.3 228.6,79.7 230.4,79.4 232.3,79.2 234.1,78.6 236.0,78.1 237.8,77.7 239.7,77.3 241.5,77.1 243.4,77.0 245.3,76.7 247.1,76.3 249.0,76.0 250.8,75.7 252.7,75.5 254.5,75.2 256.4,75.0 258.2,74.8 260.1,74.6 262.0,74.4 263.8,73.9 265.7,73.6 267.5,73.2 269.4,73.0 271.2,72.8 273.1,72.6 274.9,72.4 276.8,72.2 278.7,71.6 280.5,71.2 282.4,70.7 284.2,70.5 286.1,70.4 287.9,70.2 289.8,69.9 291.6,69.6 293.5,69.3 295.4,68.9 297.2,68.7 299.1,68.6 300.9,68.4 302.8,68.2 304.6,68.1 306.5,67.8 308.4,67.6 310.2,67.2 312.1,67.1 313.9,66.9 315.8,66.8 317.6,66.7 319.5,66.3 321.3,66.1 323.2,65.8 325.1,65.5 326.9,65.3 328.8,65.1 330.6,65.0 332.5,64.8 334.3,64.4 336.2,64.1 338.0,63.8 339.9,63.5 341.8,63.1 343.6,63.0 345.5,62.8 347.3,62.7 349.2,62.5 351.0,62.3 352.9,62.0 354.7,61.8 356.6,61.6 358.5,61.4 360.3,61.2 362.2,61.1 364.0,61.0 365.9,60.7 367.7,60.4 369.6,60.3 371.4,60.0 373.3,59.9 375.2,59.7 377.0,59.5 378.9,59.4 380.7,59.2 382.6,59.0 384.4,58.6 386.3,58.2 388.1,58.0 390.0,57.8 391.9,57.7 393.7,57.6 395.6,57.4 397.4,57.0 399.3,56.9 401.1,56.7 403.0,56.5 404.8,56.3 406.7,56.1 408.6,55.9 410.4,55.8 412.3,55.5 414.1,55.3 416.0,55.0 417.8,54.7 419.7,54.6 421.5,54.5 423.4,54.5 425.3,54.3 427.1,54.1 429.0,53.9 430.8,53.6 432.7,53.4 434.5,53.3 436.4,53.1 438.2,53.0 440.1,52.8 442.0,52.5 443.8,52.2 445.7,52.0 447.5,51.8 449.4,51.7 451.2,51.6 453.1,51.4 454.9,51.3 456.8,51.2 458.7,51.0 460.5,50.7 462.4,50.5 464.2,50.3 466.1,50.2 467.9,50.0 469.8,49.9 471.6,49.6 473.5,49.5 475.4,49.3 477.2,49.2 479.1,48.9 480.9,48.8 482.8,48.6 484.6,48.5 486.5,48.3 488.4,48.2 490.2,48.0 492.1,47.9 493.9,47.7 495.8,47.7 497.6,47.5 499.5,47.1 501.3,46.8 503.2,52.3 505.1,51.2 506.9,49.2 508.8,48.4 510.6,47.4 512.5,46.2 514.3,45.6 516.2,45.1 518.0,44.4 519.9,43.2 521.8,42.3 523.6,42.0 525.5,41.6 527.3,41.2 529.2,40.6 531.0,40.0 532.9,39.3 534.7,39.0 536.6,38.4 538.5,38.1 540.3,37.7 542.2,37.4 544.0,37.1 545.9,36.8 547.7,36.2 549.6,35.8 551.4,35.2 553.3,34.5 555.2,34.0 557.0,33.8 558.9,33.6 560.7,33.3 562.6,32.8 564.4,32.4 566.3,32.0 568.1,30.9 570.0,30.0" />
  
  <!-- Punto finale luminoso -->
  <circle cx="570.0" cy="30.0" r="4" fill="#ffffff" stroke="#0366d6" stroke-width="2.5" />
</svg>