<svg width="600" height="150" viewBox="0 0 600 150" xmlns="http://www.w3.org/2000/svg">
  <defs>
    <filter id="shadow2" x="-2%" y="-2%" width="104%" height="108%">
      <feDropShadow dx="0" dy="2" stdDeviation="3" flood-opacity="0.1" />
    </filter>
    <linearGradient id="fillGrad" x1="0" y1="0" x2="0" y2="1">
      <stop offset="0%" stop-color="#0366d6" stop-opacity="0.3"/>
      <stop offset="100%" stop-color="#0366d6" stop-opacity="0.02"/>
    </linearGradient>
  </defs>
  <rect width="600" height="150" rx="12" fill="#ffffff" filter="url(#shadow2)" stroke="#e1e4e8" stroke-width="1"/>
  <text x="20" y="24" fill="#2b3137" font-family="-apple-system,BlinkMacSystemFont,'Segoe UI',Helvetica,Arial,sans-serif" font-size="14" font-weight="600">📈 Download Growth (Actual: 79.3k)</text>
  
  <!-- Area sotto la linea -->
  <polygon fill="url(#fillGrad)" points="30.0,120.0,120 30.0,120.0 32.1,119.2 34.2,118.3 36.4,117.5 38.5,117.3 40.6,116.9 42.7,116.0 44.8,115.4 46.9,114.9 49.1,114.0 51.2,113.5 53.3,113.0 55.4,112.7 57.5,112.3 59.6,111.6 61.8,110.9 63.9,110.4 66.0,110.0 68.1,109.8 70.2,109.3 72.4,108.8 74.5,108.4 76.6,108.2 78.7,107.7 80.8,106.2 82.9,105.8 85.1,105.2 87.2,104.6 89.3,104.0 91.4,103.5 93.5,103.2 95.6,102.9 97.8,102.5 99.9,101.8 102.0,101.1 104.1,100.7 106.2,100.2 108.4,100.0 110.5,99.9 112.6,99.6 114.7,99.1 116.8,98.9 118.9,98.6 121.1,98.1 123.2,97.3 125.3,97.1 127.4,96.9 129.5,96.6 131.6,95.9 133.8,95.5 135.9,94.8 138.0,94.4 140.1,93.8 142.2,93.6 144.4,93.3 146.5,92.7 148.6,92.0 150.7,91.6 152.8,91.4 154.9,91.1 157.1,90.8 159.2,90.1 161.3,89.5 163.4,88.9 165.5,88.3 167.6,88.0 169.8,87.9 171.9,87.6 174.0,87.1 176.1,86.8 178.2,86.6 180.4,86.3 182.5,86.1 184.6,85.8 186.7,85.6 188.8,85.4 190.9,85.3 193.1,84.7 195.2,84.3 197.3,84.2 199.4,84.0 201.5,83.9 203.6,83.9 205.8,94.2 207.9,93.2 210.0,92.3 212.1,91.3 214.2,88.5 216.4,86.5 218.5,84.4 220.6,83.6 222.7,82.7 224.8,81.3 226.9,79.7 229.1,78.5 231.2,78.1 233.3,77.7 235.4,76.6 237.5,75.7 239.6,75.2 241.8,74.5 243.9,74.3 246.0,74.2 248.1,73.6 250.2,72.6 252.4,71.9 254.5,71.2 256.6,70.4 258.7,70.1 260.8,69.8 262.9,69.1 265.1,68.5 267.2,67.9 269.3,67.5 271.4,67.3 273.5,67.1 275.6,66.8 277.8,66.3 279.9,65.9 282.0,65.5 284.1,65.2 286.2,64.9 288.4,64.6 290.5,64.4 292.6,64.1 294.7,63.9 296.8,63.3 298.9,62.9 301.1,62.5 303.2,62.2 305.3,61.9 307.4,61.7 309.5,61.5 311.6,61.2 313.8,60.5 315.9,60.0 318.0,59.3 320.1,59.1 322.2,59.0 324.4,58.7 326.5,58.4 328.6,58.0 330.7,57.7 332.8,57.2 334.9,56.9 337.1,56.8 339.2,56.5 341.3,56.3 343.4,56.1 345.5,55.8 347.6,55.5 349.8,55.1 351.9,54.9 354.0,54.7 356.1,54.5 358.2,54.4 360.4,54.0 362.5,53.7 364.6,53.3 366.7,53.0 368.8,52.7 370.9,52.5 373.1,52.3 375.2,52.1 377.3,51.6 379.4,51.2 381.5,50.9 383.6,50.5 385.8,50.0 387.9,49.8 390.0,49.7 392.1,49.5 394.2,49.2 396.4,49.0 398.5,48.7 400.6,48.4 402.7,48.2 404.8,48.0 406.9,47.7 409.1,47.5 411.2,47.4 413.3,47.1 415.4,46.7 417.5,46.5 419.6,46.2 421.8,46.0 423.9,45.8 426.0,45.6 428.1,45.4 430.2,45.2 432.4,45.0 434.5,44.5 436.6,44.0 438.7,43.7 440.8,43.5 442.9,43.4 445.1,43.3 447.2,43.0 449.3,42.5 451.4,42.4 453.5,42.2 455.6,41.9 457.8,41.7 459.9,41.4 462.0,41.2 464.1,41.0 466.2,40.7 468.4,40.4 470.5,40.0 472.6,39.7 474.7,39.6 476.8,39.5 478.9,39.4 481.1,39.1 483.2,38.9 485.3,38.6 487.4,38.4 489.5,38.1 491.6,37.9 493.8,37.8 495.9,37.5 498.0,37.3 500.1,37.0 502.2,36.7 504.4,36.4 506.5,36.1 508.6,36.0 510.7,35.8 512.8,35.7 514.9,35.5 517.1,35.4 519.2,35.1 521.3,34.8 523.4,34.6 525.5,34.3 527.6,34.2 529.8,34.0 531.9,33.7 534.0,33.5 536.1,33.3 538.2,33.1 540.4,32.9 542.5,32.6 544.6,32.4 546.7,32.1 548.8,32.0 550.9,31.9 553.1,31.7 555.2,31.5 557.3,31.3 559.4,31.1 561.5,31.0 563.6,30.8 565.8,30.3 567.9,30.0 570.0,36.8 570.0,36.8,120" />
  
  <!-- Linea principale -->
  <polyline fill="none" stroke="#0366d6" stroke-width="2.5" stroke-linecap="round" stroke-linejoin="round" points="30.0,120.0 32.1,119.2 34.2,118.3 36.4,117.5 38.5,117.3 40.6,116.9 42.7,116.0 44.8,115.4 46.9,114.9 49.1,114.0 51.2,113.5 53.3,113.0 55.4,112.7 57.5,112.3 59.6,111.6 61.8,110.9 63.9,110.4 66.0,110.0 68.1,109.8 70.2,109.3 72.4,108.8 74.5,108.4 76.6,108.2 78.7,107.7 80.8,106.2 82.9,105.8 85.1,105.2 87.2,104.6 89.3,104.0 91.4,103.5 93.5,103.2 95.6,102.9 97.8,102.5 99.9,101.8 102.0,101.1 104.1,100.7 106.2,100.2 108.4,100.0 110.5,99.9 112.6,99.6 114.7,99.1 116.8,98.9 118.9,98.6 121.1,98.1 123.2,97.3 125.3,97.1 127.4,96.9 129.5,96.6 131.6,95.9 133.8,95.5 135.9,94.8 138.0,94.4 140.1,93.8 142.2,93.6 144.4,93.3 146.5,92.7 148.6,92.0 150.7,91.6 152.8,91.4 154.9,91.1 157.1,90.8 159.2,90.1 161.3,89.5 163.4,88.9 165.5,88.3 167.6,88.0 169.8,87.9 171.9,87.6 174.0,87.1 176.1,86.8 178.2,86.6 180.4,86.3 182.5,86.1 184.6,85.8 186.7,85.6 188.8,85.4 190.9,85.3 193.1,84.7 195.2,84.3 197.3,84.2 199.4,84.0 201.5,83.9 203.6,83.9 205.8,94.2 207.9,93.2 210.0,92.3 212.1,91.3 214.2,88.5 216.4,86.5 218.5,84.4 220.6,83.6 222.7,82.7 224.8,81.3 226.9,79.7 229.1,78.5 231.2,78.1 233.3,77.7 235.4,76.6 237.5,75.7 239.6,75.2 241.8,74.5 243.9,74.3 246.0,74.2 248.1,73.6 250.2,72.6 252.4,71.9 254.5,71.2 256.6,70.4 258.7,70.1 260.8,69.8 262.9,69.1 265.1,68.5 267.2,67.9 269.3,67.5 271.4,67.3 273.5,67.1 275.6,66.8 277.8,66.3 279.9,65.9 282.0,65.5 284.1,65.2 286.2,64.9 288.4,64.6 290.5,64.4 292.6,64.1 294.7,63.9 296.8,63.3 298.9,62.9 301.1,62.5 303.2,62.2 305.3,61.9 307.4,61.7 309.5,61.5 311.6,61.2 313.8,60.5 315.9,60.0 318.0,59.3 320.1,59.1 322.2,59.0 324.4,58.7 326.5,58.4 328.6,58.0 330.7,57.7 332.8,57.2 334.9,56.9 337.1,56.8 339.2,56.5 341.3,56.3 343.4,56.1 345.5,55.8 347.6,55.5 349.8,55.1 351.9,54.9 354.0,54.7 356.1,54.5 358.2,54.4 360.4,54.0 362.5,53.7 364.6,53.3 366.7,53.0 368.8,52.7 370.9,52.5 373.1,52.3 375.2,52.1 377.3,51.6 379.4,51.2 381.5,50.9 383.6,50.5 385.8,50.0 387.9,49.8 390.0,49.7 392.1,49.5 394.2,49.2 396.4,49.0 398.5,48.7 400.6,48.4 402.7,48.2 404.8,48.0 406.9,47.7 409.1,47.5 411.2,47.4 413.3,47.1 415.4,46.7 417.5,46.5 419.6,46.2 421.8,46.0 423.9,45.8 426.0,45.6 428.1,45.4 430.2,45.2 432.4,45.0 434.5,44.5 436.6,44.0 438.7,43.7 440.8,43.5 442.9,43.4 445.1,43.3 447.2,43.0 449.3,42.5 451.4,42.4 453.5,42.2 455.6,41.9 457.8,41.7 459.9,41.4 462.0,41.2 464.1,41.0 466.2,40.7 468.4,40.4 470.5,40.0 472.6,39.7 474.7,39.6 476.8,39.5 478.9,39.4 481.1,39.1 483.2,38.9 485.3,38.6 487.4,38.4 489.5,38.1 491.6,37.9 493.8,37.8 495.9,37.5 498.0,37.3 500.1,37.0 502.2,36.7 504.4,36.4 506.5,36.1 508.6,36.0 510.7,35.8 512.8,35.7 514.9,35.5 517.1,35.4 519.2,35.1 521.3,34.8 523.4,34.6 525.5,34.3 527.6,34.2 529.8,34.0 531.9,33.7 534.0,33.5 536.1,33.3 538.2,33.1 540.4,32.9 542.5,32.6 544.6,32.4 546.7,32.1 548.8,32.0 550.9,31.9 553.1,31.7 555.2,31.5 557.3,31.3 559.4,31.1 561.5,31.0 563.6,30.8 565.8,30.3 567.9,30.0 570.0,36.8" />
  
  <!-- Punto finale luminoso -->
  <circle cx="570.0" cy="36.8" r="4" fill="#ffffff" stroke="#0366d6" stroke-width="2.5" />
</svg>