<svg width="600" height="150" viewBox="0 0 600 150" xmlns="http://www.w3.org/2000/svg">
  <defs>
    <filter id="shadow2" x="-2%" y="-2%" width="104%" height="108%">
      <feDropShadow dx="0" dy="2" stdDeviation="3" flood-opacity="0.1" />
    </filter>
    <linearGradient id="fillGrad" x1="0" y1="0" x2="0" y2="1">
      <stop offset="0%" stop-color="#0366d6" stop-opacity="0.3"/>
      <stop offset="100%" stop-color="#0366d6" stop-opacity="0.02"/>
    </linearGradient>
  </defs>
  <rect width="600" height="150" rx="12" fill="#ffffff" filter="url(#shadow2)" stroke="#e1e4e8" stroke-width="1"/>
  <text x="20" y="24" fill="#2b3137" font-family="-apple-system,BlinkMacSystemFont,'Segoe UI',Helvetica,Arial,sans-serif" font-size="14" font-weight="600">📈 Download Growth (Actual: 84.4k)</text>
  
  <!-- Area sotto la linea -->
  <polygon fill="url(#fillGrad)" points="30.0,120.0,120 30.0,120.0 31.6,119.4 33.2,118.8 34.8,118.3 36.4,118.1 38.1,117.8 39.7,117.2 41.3,116.7 42.9,116.4 44.5,115.7 46.1,115.4 47.7,115.0 49.3,114.8 51.0,114.5 52.6,114.1 54.2,113.6 55.8,113.2 57.4,112.9 59.0,112.8 60.6,112.4 62.2,112.1 63.9,111.8 65.5,111.6 67.1,111.3 68.7,110.2 70.3,109.9 71.9,109.5 73.5,109.0 75.1,108.7 76.7,108.3 78.4,108.1 80.0,107.9 81.6,107.6 83.2,107.1 84.8,106.6 86.4,106.3 88.0,105.9 89.6,105.8 91.3,105.7 92.9,105.6 94.5,105.2 96.1,105.0 97.7,104.9 99.3,104.5 100.9,103.9 102.5,103.7 104.1,103.6 105.8,103.4 107.4,102.9 109.0,102.6 110.6,102.1 112.2,101.8 113.8,101.4 115.4,101.3 117.0,101.0 118.7,100.6 120.3,100.2 121.9,99.8 123.5,99.7 125.1,99.5 126.7,99.3 128.3,98.8 129.9,98.3 131.6,97.9 133.2,97.5 134.8,97.3 136.4,97.2 138.0,97.0 139.6,96.7 141.2,96.5 142.8,96.3 144.4,96.1 146.1,96.0 147.7,95.7 149.3,95.6 150.9,95.5 152.5,95.4 154.1,94.9 155.7,94.7 157.3,94.6 159.0,94.4 160.6,94.4 162.2,94.4 163.8,101.7 165.4,101.0 167.0,100.3 168.6,99.6 170.2,97.6 171.9,96.2 173.5,94.7 175.1,94.2 176.7,93.6 178.3,92.5 179.9,91.4 181.5,90.6 183.1,90.3 184.7,90.0 186.4,89.2 188.0,88.6 189.6,88.2 191.2,87.8 192.8,87.6 194.4,87.5 196.0,87.1 197.6,86.4 199.3,85.9 200.9,85.4 202.5,84.8 204.1,84.6 205.7,84.4 207.3,83.9 208.9,83.5 210.5,83.1 212.1,82.8 213.8,82.6 215.4,82.5 217.0,82.3 218.6,81.9 220.2,81.6 221.8,81.4 223.4,81.1 225.0,80.9 226.7,80.7 228.3,80.5 229.9,80.4 231.5,80.2 233.1,79.8 234.7,79.5 236.3,79.2 237.9,79.0 239.6,78.8 241.2,78.6 242.8,78.5 244.4,78.3 246.0,77.8 247.6,77.4 249.2,77.0 250.8,76.8 252.4,76.8 254.1,76.5 255.7,76.3 257.3,76.0 258.9,75.8 260.5,75.5 262.1,75.2 263.7,75.1 265.3,75.0 267.0,74.8 268.6,74.7 270.2,74.5 271.8,74.3 273.4,74.0 275.0,73.8 276.6,73.7 278.2,73.6 279.9,73.5 281.5,73.2 283.1,73.0 284.7,72.7 286.3,72.5 287.9,72.2 289.5,72.1 291.1,72.0 292.7,71.8 294.4,71.5 296.0,71.2 297.6,71.0 299.2,70.7 300.8,70.3 302.4,70.2 304.0,70.1 305.6,70.0 307.3,69.8 308.9,69.6 310.5,69.4 312.1,69.2 313.7,69.1 315.3,68.9 316.9,68.7 318.5,68.6 320.1,68.5 321.8,68.3 323.4,68.0 325.0,67.9 326.6,67.6 328.2,67.5 329.8,67.4 331.4,67.2 333.0,67.1 334.7,66.9 336.3,66.8 337.9,66.5 339.5,66.1 341.1,65.9 342.7,65.7 344.3,65.6 345.9,65.6 347.6,65.4 349.2,65.1 350.8,64.9 352.4,64.8 354.0,64.6 355.6,64.4 357.2,64.2 358.8,64.1 360.4,64.0 362.1,63.7 363.7,63.5 365.3,63.3 366.9,63.0 368.5,62.9 370.1,62.9 371.7,62.8 373.3,62.6 375.0,62.5 376.6,62.3 378.2,62.1 379.8,61.9 381.4,61.8 383.0,61.7 384.6,61.5 386.2,61.4 387.9,61.1 389.5,60.9 391.1,60.7 392.7,60.5 394.3,60.4 395.9,60.3 397.5,60.2 399.1,60.1 400.7,60.0 402.4,59.8 404.0,59.5 405.6,59.4 407.2,59.2 408.8,59.1 410.4,59.0 412.0,58.8 413.6,58.6 415.3,58.5 416.9,58.4 418.5,58.2 420.1,58.0 421.7,57.8 423.3,57.7 424.9,57.6 426.5,57.5 428.1,57.3 429.8,57.2 431.4,57.1 433.0,56.9 434.6,56.9 436.2,56.7 437.8,56.4 439.4,56.2 441.0,61.0 442.7,60.0 444.3,58.2 445.9,57.5 447.5,56.7 449.1,55.6 450.7,55.1 452.3,54.7 453.9,54.0 455.6,53.0 457.2,52.2 458.8,52.0 460.4,51.6 462.0,51.2 463.6,50.7 465.2,50.2 466.8,49.6 468.4,49.3 470.1,48.8 471.7,48.5 473.3,48.2 474.9,47.9 476.5,47.7 478.1,47.4 479.7,46.9 481.3,46.5 483.0,46.0 484.6,45.4 486.2,45.0 487.8,44.8 489.4,44.6 491.0,44.3 492.6,43.9 494.2,43.5 495.9,43.2 497.5,42.2 499.1,41.5 500.7,41.1 502.3,40.9 503.9,40.6 505.5,40.1 507.1,39.7 508.7,39.3 510.4,39.0 512.0,38.6 513.6,38.3 515.2,38.0 516.8,37.6 518.4,37.3 520.0,37.1 521.6,36.9 523.3,36.5 524.9,36.2 526.5,35.9 528.1,35.8 529.7,35.6 531.3,35.3 532.9,35.1 534.5,34.9 536.1,34.7 537.8,34.5 539.4,34.3 541.0,34.0 542.6,33.8 544.2,33.4 545.8,33.0 547.4,32.7 549.0,32.5 550.7,32.3 552.3,32.2 553.9,31.9 555.5,31.7 557.1,31.6 558.7,31.4 560.3,31.3 561.9,31.1 563.6,30.9 565.2,30.6 566.8,30.4 568.4,30.3 570.0,30.0 570.0,30.0,120" />
  
  <!-- Linea principale -->
  <polyline fill="none" stroke="#0366d6" stroke-width="2.5" stroke-linecap="round" stroke-linejoin="round" points="30.0,120.0 31.6,119.4 33.2,118.8 34.8,118.3 36.4,118.1 38.1,117.8 39.7,117.2 41.3,116.7 42.9,116.4 44.5,115.7 46.1,115.4 47.7,115.0 49.3,114.8 51.0,114.5 52.6,114.1 54.2,113.6 55.8,113.2 57.4,112.9 59.0,112.8 60.6,112.4 62.2,112.1 63.9,111.8 65.5,111.6 67.1,111.3 68.7,110.2 70.3,109.9 71.9,109.5 73.5,109.0 75.1,108.7 76.7,108.3 78.4,108.1 80.0,107.9 81.6,107.6 83.2,107.1 84.8,106.6 86.4,106.3 88.0,105.9 89.6,105.8 91.3,105.7 92.9,105.6 94.5,105.2 96.1,105.0 97.7,104.9 99.3,104.5 100.9,103.9 102.5,103.7 104.1,103.6 105.8,103.4 107.4,102.9 109.0,102.6 110.6,102.1 112.2,101.8 113.8,101.4 115.4,101.3 117.0,101.0 118.7,100.6 120.3,100.2 121.9,99.8 123.5,99.7 125.1,99.5 126.7,99.3 128.3,98.8 129.9,98.3 131.6,97.9 133.2,97.5 134.8,97.3 136.4,97.2 138.0,97.0 139.6,96.7 141.2,96.5 142.8,96.3 144.4,96.1 146.1,96.0 147.7,95.7 149.3,95.6 150.9,95.5 152.5,95.4 154.1,94.9 155.7,94.7 157.3,94.6 159.0,94.4 160.6,94.4 162.2,94.4 163.8,101.7 165.4,101.0 167.0,100.3 168.6,99.6 170.2,97.6 171.9,96.2 173.5,94.7 175.1,94.2 176.7,93.6 178.3,92.5 179.9,91.4 181.5,90.6 183.1,90.3 184.7,90.0 186.4,89.2 188.0,88.6 189.6,88.2 191.2,87.8 192.8,87.6 194.4,87.5 196.0,87.1 197.6,86.4 199.3,85.9 200.9,85.4 202.5,84.8 204.1,84.6 205.7,84.4 207.3,83.9 208.9,83.5 210.5,83.1 212.1,82.8 213.8,82.6 215.4,82.5 217.0,82.3 218.6,81.9 220.2,81.6 221.8,81.4 223.4,81.1 225.0,80.9 226.7,80.7 228.3,80.5 229.9,80.4 231.5,80.2 233.1,79.8 234.7,79.5 236.3,79.2 237.9,79.0 239.6,78.8 241.2,78.6 242.8,78.5 244.4,78.3 246.0,77.8 247.6,77.4 249.2,77.0 250.8,76.8 252.4,76.8 254.1,76.5 255.7,76.3 257.3,76.0 258.9,75.8 260.5,75.5 262.1,75.2 263.7,75.1 265.3,75.0 267.0,74.8 268.6,74.7 270.2,74.5 271.8,74.3 273.4,74.0 275.0,73.8 276.6,73.7 278.2,73.6 279.9,73.5 281.5,73.2 283.1,73.0 284.7,72.7 286.3,72.5 287.9,72.2 289.5,72.1 291.1,72.0 292.7,71.8 294.4,71.5 296.0,71.2 297.6,71.0 299.2,70.7 300.8,70.3 302.4,70.2 304.0,70.1 305.6,70.0 307.3,69.8 308.9,69.6 310.5,69.4 312.1,69.2 313.7,69.1 315.3,68.9 316.9,68.7 318.5,68.6 320.1,68.5 321.8,68.3 323.4,68.0 325.0,67.9 326.6,67.6 328.2,67.5 329.8,67.4 331.4,67.2 333.0,67.1 334.7,66.9 336.3,66.8 337.9,66.5 339.5,66.1 341.1,65.9 342.7,65.7 344.3,65.6 345.9,65.6 347.6,65.4 349.2,65.1 350.8,64.9 352.4,64.8 354.0,64.6 355.6,64.4 357.2,64.2 358.8,64.1 360.4,64.0 362.1,63.7 363.7,63.5 365.3,63.3 366.9,63.0 368.5,62.9 370.1,62.9 371.7,62.8 373.3,62.6 375.0,62.5 376.6,62.3 378.2,62.1 379.8,61.9 381.4,61.8 383.0,61.7 384.6,61.5 386.2,61.4 387.9,61.1 389.5,60.9 391.1,60.7 392.7,60.5 394.3,60.4 395.9,60.3 397.5,60.2 399.1,60.1 400.7,60.0 402.4,59.8 404.0,59.5 405.6,59.4 407.2,59.2 408.8,59.1 410.4,59.0 412.0,58.8 413.6,58.6 415.3,58.5 416.9,58.4 418.5,58.2 420.1,58.0 421.7,57.8 423.3,57.7 424.9,57.6 426.5,57.5 428.1,57.3 429.8,57.2 431.4,57.1 433.0,56.9 434.6,56.9 436.2,56.7 437.8,56.4 439.4,56.2 441.0,61.0 442.7,60.0 444.3,58.2 445.9,57.5 447.5,56.7 449.1,55.6 450.7,55.1 452.3,54.7 453.9,54.0 455.6,53.0 457.2,52.2 458.8,52.0 460.4,51.6 462.0,51.2 463.6,50.7 465.2,50.2 466.8,49.6 468.4,49.3 470.1,48.8 471.7,48.5 473.3,48.2 474.9,47.9 476.5,47.7 478.1,47.4 479.7,46.9 481.3,46.5 483.0,46.0 484.6,45.4 486.2,45.0 487.8,44.8 489.4,44.6 491.0,44.3 492.6,43.9 494.2,43.5 495.9,43.2 497.5,42.2 499.1,41.5 500.7,41.1 502.3,40.9 503.9,40.6 505.5,40.1 507.1,39.7 508.7,39.3 510.4,39.0 512.0,38.6 513.6,38.3 515.2,38.0 516.8,37.6 518.4,37.3 520.0,37.1 521.6,36.9 523.3,36.5 524.9,36.2 526.5,35.9 528.1,35.8 529.7,35.6 531.3,35.3 532.9,35.1 534.5,34.9 536.1,34.7 537.8,34.5 539.4,34.3 541.0,34.0 542.6,33.8 544.2,33.4 545.8,33.0 547.4,32.7 549.0,32.5 550.7,32.3 552.3,32.2 553.9,31.9 555.5,31.7 557.1,31.6 558.7,31.4 560.3,31.3 561.9,31.1 563.6,30.9 565.2,30.6 566.8,30.4 568.4,30.3 570.0,30.0" />
  
  <!-- Punto finale luminoso -->
  <circle cx="570.0" cy="30.0" r="4" fill="#ffffff" stroke="#0366d6" stroke-width="2.5" />
</svg>