<svg width="600" height="150" viewBox="0 0 600 150" xmlns="http://www.w3.org/2000/svg">
  <defs>
    <filter id="shadow2" x="-2%" y="-2%" width="104%" height="108%">
      <feDropShadow dx="0" dy="2" stdDeviation="3" flood-opacity="0.1" />
    </filter>
    <linearGradient id="fillGrad" x1="0" y1="0" x2="0" y2="1">
      <stop offset="0%" stop-color="#0366d6" stop-opacity="0.3"/>
      <stop offset="100%" stop-color="#0366d6" stop-opacity="0.02"/>
    </linearGradient>
  </defs>
  <rect width="600" height="150" rx="12" fill="#ffffff" filter="url(#shadow2)" stroke="#e1e4e8" stroke-width="1"/>
  <text x="20" y="24" fill="#2b3137" font-family="-apple-system,BlinkMacSystemFont,'Segoe UI',Helvetica,Arial,sans-serif" font-size="14" font-weight="600">📈 Download Growth (Actual: 80.4k)</text>
  
  <!-- Area sotto la linea -->
  <polygon fill="url(#fillGrad)" points="30.0,120.0,120 30.0,120.0 32.0,119.3 34.0,118.4 36.0,117.7 38.0,117.5 40.0,117.2 42.0,116.3 44.1,115.7 46.1,115.3 48.1,114.4 50.1,114.0 52.1,113.6 54.1,113.3 56.1,112.9 58.1,112.3 60.1,111.6 62.1,111.2 64.1,110.8 66.1,110.6 68.1,110.2 70.1,109.7 72.2,109.3 74.2,109.1 76.2,108.7 78.2,107.3 80.2,106.9 82.2,106.3 84.2,105.8 86.2,105.3 88.2,104.8 90.2,104.5 92.2,104.3 94.2,103.9 96.2,103.2 98.3,102.6 100.3,102.2 102.3,101.7 104.3,101.6 106.3,101.5 108.3,101.2 110.3,100.8 112.3,100.5 114.3,100.3 116.3,99.8 118.3,99.1 120.3,98.9 122.3,98.7 124.3,98.4 126.4,97.8 128.4,97.4 130.4,96.8 132.4,96.4 134.4,95.8 136.4,95.7 138.4,95.4 140.4,94.8 142.4,94.2 144.4,93.8 146.4,93.6 148.4,93.3 150.4,93.1 152.5,92.4 154.5,91.9 156.5,91.3 158.5,90.8 160.5,90.5 162.5,90.4 164.5,90.2 166.5,89.7 168.5,89.4 170.5,89.2 172.5,89.0 174.5,88.8 176.5,88.5 178.6,88.3 180.6,88.2 182.6,88.0 184.6,87.4 186.6,87.1 188.6,87.0 190.6,86.8 192.6,86.7 194.6,86.7 196.6,96.2 198.6,95.3 200.6,94.4 202.6,93.6 204.6,91.0 206.7,89.2 208.7,87.2 210.7,86.5 212.7,85.7 214.7,84.3 216.7,82.9 218.7,81.8 220.7,81.4 222.7,81.0 224.7,80.0 226.7,79.2 228.7,78.7 230.7,78.1 232.8,77.9 234.8,77.8 236.8,77.2 238.8,76.3 240.8,75.7 242.8,75.1 244.8,74.3 246.8,74.0 248.8,73.7 250.8,73.1 252.8,72.6 254.8,72.0 256.8,71.6 258.8,71.4 260.9,71.3 262.9,71.0 264.9,70.5 266.9,70.2 268.9,69.8 270.9,69.5 272.9,69.3 274.9,69.0 276.9,68.7 278.9,68.5 280.9,68.3 282.9,67.8 284.9,67.4 287.0,67.0 289.0,66.8 291.0,66.5 293.0,66.3 295.0,66.1 297.0,65.8 299.0,65.1 301.0,64.7 303.0,64.1 305.0,63.9 307.0,63.8 309.0,63.6 311.0,63.3 313.0,62.9 315.1,62.6 317.1,62.1 319.1,61.9 321.1,61.7 323.1,61.5 325.1,61.3 327.1,61.1 329.1,60.9 331.1,60.6 333.1,60.2 335.1,60.0 337.1,59.9 339.1,59.7 341.2,59.6 343.2,59.2 345.2,58.9 347.2,58.6 349.2,58.3 351.2,58.0 353.2,57.8 355.2,57.6 357.2,57.4 359.2,57.0 361.2,56.6 363.2,56.3 365.2,56.0 367.2,55.5 369.3,55.4 371.3,55.2 373.3,55.1 375.3,54.8 377.3,54.6 379.3,54.3 381.3,54.1 383.3,53.8 385.3,53.6 387.3,53.4 389.3,53.2 391.3,53.1 393.3,52.8 395.4,52.5 397.4,52.3 399.4,52.0 401.4,51.8 403.4,51.7 405.4,51.4 407.4,51.3 409.4,51.1 411.4,50.9 413.4,50.5 415.4,50.0 417.4,49.7 419.4,49.5 421.4,49.4 423.5,49.3 425.5,49.0 427.5,48.6 429.5,48.5 431.5,48.3 433.5,48.0 435.5,47.8 437.5,47.6 439.5,47.4 441.5,47.2 443.5,46.9 445.5,46.7 447.5,46.3 449.6,46.0 451.6,45.9 453.6,45.8 455.6,45.7 457.6,45.5 459.6,45.3 461.6,45.0 463.6,44.8 465.6,44.6 467.6,44.4 469.6,44.2 471.6,44.0 473.6,43.8 475.7,43.5 477.7,43.2 479.7,43.0 481.7,42.7 483.7,42.6 485.7,42.4 487.7,42.3 489.7,42.2 491.7,42.0 493.7,41.8 495.7,41.5 497.7,41.3 499.7,41.1 501.7,40.9 503.8,40.7 505.8,40.5 507.8,40.3 509.8,40.1 511.8,39.9 513.8,39.7 515.8,39.5 517.8,39.3 519.8,39.0 521.8,38.9 523.8,38.8 525.8,38.6 527.8,38.5 529.9,38.3 531.9,38.1 533.9,38.0 535.9,37.8 537.9,37.4 539.9,37.1 541.9,43.3 543.9,42.1 545.9,39.7 547.9,38.8 549.9,37.8 551.9,36.4 553.9,35.7 555.9,35.2 558.0,34.3 560.0,32.9 562.0,31.9 564.0,31.6 566.0,31.1 568.0,30.7 570.0,30.0 570.0,30.0,120" />
  
  <!-- Linea principale -->
  <polyline fill="none" stroke="#0366d6" stroke-width="2.5" stroke-linecap="round" stroke-linejoin="round" points="30.0,120.0 32.0,119.3 34.0,118.4 36.0,117.7 38.0,117.5 40.0,117.2 42.0,116.3 44.1,115.7 46.1,115.3 48.1,114.4 50.1,114.0 52.1,113.6 54.1,113.3 56.1,112.9 58.1,112.3 60.1,111.6 62.1,111.2 64.1,110.8 66.1,110.6 68.1,110.2 70.1,109.7 72.2,109.3 74.2,109.1 76.2,108.7 78.2,107.3 80.2,106.9 82.2,106.3 84.2,105.8 86.2,105.3 88.2,104.8 90.2,104.5 92.2,104.3 94.2,103.9 96.2,103.2 98.3,102.6 100.3,102.2 102.3,101.7 104.3,101.6 106.3,101.5 108.3,101.2 110.3,100.8 112.3,100.5 114.3,100.3 116.3,99.8 118.3,99.1 120.3,98.9 122.3,98.7 124.3,98.4 126.4,97.8 128.4,97.4 130.4,96.8 132.4,96.4 134.4,95.8 136.4,95.7 138.4,95.4 140.4,94.8 142.4,94.2 144.4,93.8 146.4,93.6 148.4,93.3 150.4,93.1 152.5,92.4 154.5,91.9 156.5,91.3 158.5,90.8 160.5,90.5 162.5,90.4 164.5,90.2 166.5,89.7 168.5,89.4 170.5,89.2 172.5,89.0 174.5,88.8 176.5,88.5 178.6,88.3 180.6,88.2 182.6,88.0 184.6,87.4 186.6,87.1 188.6,87.0 190.6,86.8 192.6,86.7 194.6,86.7 196.6,96.2 198.6,95.3 200.6,94.4 202.6,93.6 204.6,91.0 206.7,89.2 208.7,87.2 210.7,86.5 212.7,85.7 214.7,84.3 216.7,82.9 218.7,81.8 220.7,81.4 222.7,81.0 224.7,80.0 226.7,79.2 228.7,78.7 230.7,78.1 232.8,77.9 234.8,77.8 236.8,77.2 238.8,76.3 240.8,75.7 242.8,75.1 244.8,74.3 246.8,74.0 248.8,73.7 250.8,73.1 252.8,72.6 254.8,72.0 256.8,71.6 258.8,71.4 260.9,71.3 262.9,71.0 264.9,70.5 266.9,70.2 268.9,69.8 270.9,69.5 272.9,69.3 274.9,69.0 276.9,68.7 278.9,68.5 280.9,68.3 282.9,67.8 284.9,67.4 287.0,67.0 289.0,66.8 291.0,66.5 293.0,66.3 295.0,66.1 297.0,65.8 299.0,65.1 301.0,64.7 303.0,64.1 305.0,63.9 307.0,63.8 309.0,63.6 311.0,63.3 313.0,62.9 315.1,62.6 317.1,62.1 319.1,61.9 321.1,61.7 323.1,61.5 325.1,61.3 327.1,61.1 329.1,60.9 331.1,60.6 333.1,60.2 335.1,60.0 337.1,59.9 339.1,59.7 341.2,59.6 343.2,59.2 345.2,58.9 347.2,58.6 349.2,58.3 351.2,58.0 353.2,57.8 355.2,57.6 357.2,57.4 359.2,57.0 361.2,56.6 363.2,56.3 365.2,56.0 367.2,55.5 369.3,55.4 371.3,55.2 373.3,55.1 375.3,54.8 377.3,54.6 379.3,54.3 381.3,54.1 383.3,53.8 385.3,53.6 387.3,53.4 389.3,53.2 391.3,53.1 393.3,52.8 395.4,52.5 397.4,52.3 399.4,52.0 401.4,51.8 403.4,51.7 405.4,51.4 407.4,51.3 409.4,51.1 411.4,50.9 413.4,50.5 415.4,50.0 417.4,49.7 419.4,49.5 421.4,49.4 423.5,49.3 425.5,49.0 427.5,48.6 429.5,48.5 431.5,48.3 433.5,48.0 435.5,47.8 437.5,47.6 439.5,47.4 441.5,47.2 443.5,46.9 445.5,46.7 447.5,46.3 449.6,46.0 451.6,45.9 453.6,45.8 455.6,45.7 457.6,45.5 459.6,45.3 461.6,45.0 463.6,44.8 465.6,44.6 467.6,44.4 469.6,44.2 471.6,44.0 473.6,43.8 475.7,43.5 477.7,43.2 479.7,43.0 481.7,42.7 483.7,42.6 485.7,42.4 487.7,42.3 489.7,42.2 491.7,42.0 493.7,41.8 495.7,41.5 497.7,41.3 499.7,41.1 501.7,40.9 503.8,40.7 505.8,40.5 507.8,40.3 509.8,40.1 511.8,39.9 513.8,39.7 515.8,39.5 517.8,39.3 519.8,39.0 521.8,38.9 523.8,38.8 525.8,38.6 527.8,38.5 529.9,38.3 531.9,38.1 533.9,38.0 535.9,37.8 537.9,37.4 539.9,37.1 541.9,43.3 543.9,42.1 545.9,39.7 547.9,38.8 549.9,37.8 551.9,36.4 553.9,35.7 555.9,35.2 558.0,34.3 560.0,32.9 562.0,31.9 564.0,31.6 566.0,31.1 568.0,30.7 570.0,30.0" />
  
  <!-- Punto finale luminoso -->
  <circle cx="570.0" cy="30.0" r="4" fill="#ffffff" stroke="#0366d6" stroke-width="2.5" />
</svg>