<svg width="600" height="150" viewBox="0 0 600 150" xmlns="http://www.w3.org/2000/svg">
  <defs>
    <filter id="shadow2" x="-2%" y="-2%" width="104%" height="108%">
      <feDropShadow dx="0" dy="2" stdDeviation="3" flood-opacity="0.1" />
    </filter>
    <linearGradient id="fillGrad" x1="0" y1="0" x2="0" y2="1">
      <stop offset="0%" stop-color="#0366d6" stop-opacity="0.3"/>
      <stop offset="100%" stop-color="#0366d6" stop-opacity="0.02"/>
    </linearGradient>
  </defs>
  <rect width="600" height="150" rx="12" fill="#ffffff" filter="url(#shadow2)" stroke="#e1e4e8" stroke-width="1"/>
  <text x="20" y="24" fill="#2b3137" font-family="-apple-system,BlinkMacSystemFont,'Segoe UI',Helvetica,Arial,sans-serif" font-size="14" font-weight="600">📈 Download Growth (Actual: 75.9k)</text>
  
  <!-- Area sotto la linea -->
  <polygon fill="url(#fillGrad)" points="30.0,120.0,120 30.0,120.0 33.5,118.9 37.1,117.7 40.6,116.6 44.1,116.3 47.6,115.8 51.2,114.5 54.7,113.6 58.2,113.0 61.8,111.7 65.3,111.0 68.8,110.4 72.4,110.0 75.9,109.4 79.4,108.5 82.9,107.5 86.5,106.8 90.0,106.3 93.5,105.9 97.1,105.3 100.6,104.6 104.1,104.0 107.6,103.7 111.2,103.1 114.7,101.0 118.2,100.4 121.8,99.5 125.3,98.7 128.8,98.0 132.4,97.3 135.9,96.8 139.4,96.5 142.9,95.9 146.5,94.8 150.0,94.0 153.5,93.4 157.1,92.7 160.6,92.5 164.1,92.3 167.6,91.9 171.2,91.2 174.7,90.8 178.2,90.6 181.8,89.8 185.3,88.6 188.8,88.4 192.4,88.2 195.9,87.7 199.4,86.8 202.9,86.2 206.5,85.3 210.0,84.6 213.5,83.8 217.1,83.6 220.6,83.1 224.1,82.3 227.6,81.4 231.2,80.8 234.7,80.5 238.2,80.1 241.8,79.7 245.3,78.7 248.8,77.9 252.4,77.1 255.9,76.3 259.4,75.9 262.9,75.7 266.5,75.3 270.0,74.7 273.5,74.3 277.1,73.9 280.6,73.6 284.1,73.3 287.6,72.8 291.2,72.5 294.7,72.3 298.2,72.1 301.8,71.3 305.3,70.8 308.8,70.6 312.4,70.3 315.9,70.1 319.4,70.1 322.9,84.4 326.5,83.0 330.0,81.7 333.5,80.4 337.1,76.5 340.6,73.8 344.1,70.9 347.6,69.8 351.2,68.6 354.7,66.6 358.2,64.4 361.8,62.8 365.3,62.2 368.8,61.7 372.4,60.1 375.9,59.0 379.4,58.2 382.9,57.3 386.5,56.9 390.0,56.8 393.5,55.9 397.1,54.6 400.6,53.7 404.1,52.7 407.6,51.6 411.2,51.1 414.7,50.7 418.2,49.8 421.8,49.0 425.3,48.2 428.8,47.6 432.4,47.3 435.9,47.1 439.4,46.6 442.9,45.9 446.5,45.4 450.0,44.9 453.5,44.5 457.1,44.1 460.6,43.7 464.1,43.3 467.6,43.0 471.2,42.6 474.7,41.8 478.2,41.3 481.8,40.7 485.3,40.3 488.8,39.9 492.4,39.6 495.9,39.3 499.4,38.9 502.9,37.9 506.5,37.2 510.0,36.3 513.5,36.0 517.1,35.9 520.6,35.5 524.1,35.1 527.6,34.5 531.2,34.0 534.7,33.4 538.2,33.0 541.8,32.8 545.3,32.4 548.8,32.2 552.4,31.9 555.9,31.5 559.4,31.1 562.9,30.5 566.5,30.2 570.0,30.0 570.0,30.0,120" />
  
  <!-- Linea principale -->
  <polyline fill="none" stroke="#0366d6" stroke-width="2.5" stroke-linecap="round" stroke-linejoin="round" points="30.0,120.0 33.5,118.9 37.1,117.7 40.6,116.6 44.1,116.3 47.6,115.8 51.2,114.5 54.7,113.6 58.2,113.0 61.8,111.7 65.3,111.0 68.8,110.4 72.4,110.0 75.9,109.4 79.4,108.5 82.9,107.5 86.5,106.8 90.0,106.3 93.5,105.9 97.1,105.3 100.6,104.6 104.1,104.0 107.6,103.7 111.2,103.1 114.7,101.0 118.2,100.4 121.8,99.5 125.3,98.7 128.8,98.0 132.4,97.3 135.9,96.8 139.4,96.5 142.9,95.9 146.5,94.8 150.0,94.0 153.5,93.4 157.1,92.7 160.6,92.5 164.1,92.3 167.6,91.9 171.2,91.2 174.7,90.8 178.2,90.6 181.8,89.8 185.3,88.6 188.8,88.4 192.4,88.2 195.9,87.7 199.4,86.8 202.9,86.2 206.5,85.3 210.0,84.6 213.5,83.8 217.1,83.6 220.6,83.1 224.1,82.3 227.6,81.4 231.2,80.8 234.7,80.5 238.2,80.1 241.8,79.7 245.3,78.7 248.8,77.9 252.4,77.1 255.9,76.3 259.4,75.9 262.9,75.7 266.5,75.3 270.0,74.7 273.5,74.3 277.1,73.9 280.6,73.6 284.1,73.3 287.6,72.8 291.2,72.5 294.7,72.3 298.2,72.1 301.8,71.3 305.3,70.8 308.8,70.6 312.4,70.3 315.9,70.1 319.4,70.1 322.9,84.4 326.5,83.0 330.0,81.7 333.5,80.4 337.1,76.5 340.6,73.8 344.1,70.9 347.6,69.8 351.2,68.6 354.7,66.6 358.2,64.4 361.8,62.8 365.3,62.2 368.8,61.7 372.4,60.1 375.9,59.0 379.4,58.2 382.9,57.3 386.5,56.9 390.0,56.8 393.5,55.9 397.1,54.6 400.6,53.7 404.1,52.7 407.6,51.6 411.2,51.1 414.7,50.7 418.2,49.8 421.8,49.0 425.3,48.2 428.8,47.6 432.4,47.3 435.9,47.1 439.4,46.6 442.9,45.9 446.5,45.4 450.0,44.9 453.5,44.5 457.1,44.1 460.6,43.7 464.1,43.3 467.6,43.0 471.2,42.6 474.7,41.8 478.2,41.3 481.8,40.7 485.3,40.3 488.8,39.9 492.4,39.6 495.9,39.3 499.4,38.9 502.9,37.9 506.5,37.2 510.0,36.3 513.5,36.0 517.1,35.9 520.6,35.5 524.1,35.1 527.6,34.5 531.2,34.0 534.7,33.4 538.2,33.0 541.8,32.8 545.3,32.4 548.8,32.2 552.4,31.9 555.9,31.5 559.4,31.1 562.9,30.5 566.5,30.2 570.0,30.0" />
  
  <!-- Punto finale luminoso -->
  <circle cx="570.0" cy="30.0" r="4" fill="#ffffff" stroke="#0366d6" stroke-width="2.5" />
</svg>