<svg width="600" height="150" viewBox="0 0 600 150" xmlns="http://www.w3.org/2000/svg">
  <defs>
    <filter id="shadow2" x="-2%" y="-2%" width="104%" height="108%">
      <feDropShadow dx="0" dy="2" stdDeviation="3" flood-opacity="0.1" />
    </filter>
    <linearGradient id="fillGrad" x1="0" y1="0" x2="0" y2="1">
      <stop offset="0%" stop-color="#0366d6" stop-opacity="0.3"/>
      <stop offset="100%" stop-color="#0366d6" stop-opacity="0.02"/>
    </linearGradient>
  </defs>
  <rect width="600" height="150" rx="12" fill="#ffffff" filter="url(#shadow2)" stroke="#e1e4e8" stroke-width="1"/>
  <text x="20" y="24" fill="#2b3137" font-family="-apple-system,BlinkMacSystemFont,'Segoe UI',Helvetica,Arial,sans-serif" font-size="14" font-weight="600">📈 Download Growth (Actual: 78.1k)</text>
  
  <!-- Area sotto la linea -->
  <polygon fill="url(#fillGrad)" points="30.0,120.0,120 30.0,120.0 32.5,119.1 35.0,118.1 37.6,117.3 40.1,117.0 42.6,116.6 45.1,115.6 47.7,114.9 50.2,114.4 52.7,113.3 55.2,112.8 57.8,112.2 60.3,111.9 62.8,111.4 65.3,110.7 67.9,109.9 70.4,109.3 72.9,108.9 75.4,108.7 77.9,108.2 80.5,107.6 83.0,107.1 85.5,106.9 88.0,106.4 90.6,104.7 93.1,104.2 95.6,103.5 98.1,102.9 100.7,102.3 103.2,101.7 105.7,101.3 108.2,101.1 110.7,100.6 113.3,99.8 115.8,99.1 118.3,98.6 120.8,98.0 123.4,97.8 125.9,97.7 128.4,97.4 130.9,96.9 133.5,96.5 136.0,96.3 138.5,95.7 141.0,94.8 143.6,94.6 146.1,94.4 148.6,94.0 151.1,93.3 153.6,92.8 156.2,92.1 158.7,91.5 161.2,90.9 163.7,90.7 166.3,90.3 168.8,89.7 171.3,89.0 173.8,88.5 176.4,88.2 178.9,87.9 181.4,87.6 183.9,86.8 186.4,86.1 189.0,85.5 191.5,84.8 194.0,84.5 196.5,84.3 199.1,84.1 201.6,83.5 204.1,83.2 206.6,82.9 209.2,82.6 211.7,82.4 214.2,82.0 216.7,81.8 219.3,81.6 221.8,81.5 224.3,80.8 226.8,80.4 229.3,80.3 231.9,80.0 234.4,79.9 236.9,79.9 239.4,91.4 242.0,90.2 244.5,89.2 247.0,88.1 249.5,85.0 252.1,82.8 254.6,80.5 257.1,79.6 259.6,78.6 262.1,77.0 264.7,75.3 267.2,74.0 269.7,73.5 272.2,73.1 274.8,71.8 277.3,70.9 279.8,70.3 282.3,69.6 284.9,69.3 287.4,69.1 289.9,68.5 292.4,67.4 295.0,66.6 297.5,65.9 300.0,65.0 302.5,64.6 305.0,64.3 307.6,63.5 310.1,62.9 312.6,62.2 315.1,61.7 317.7,61.5 320.2,61.3 322.7,60.9 325.2,60.4 327.8,60.0 330.3,59.6 332.8,59.2 335.3,58.9 337.9,58.6 340.4,58.3 342.9,58.0 345.4,57.7 347.9,57.1 350.5,56.7 353.0,56.2 355.5,55.9 358.0,55.5 360.6,55.3 363.1,55.0 365.6,54.8 368.1,53.9 370.7,53.4 373.2,52.7 375.7,52.4 378.2,52.3 380.7,52.0 383.3,51.7 385.8,51.2 388.3,50.8 390.8,50.3 393.4,50.0 395.9,49.8 398.4,49.6 400.9,49.3 403.5,49.1 406.0,48.8 408.5,48.5 411.0,48.0 413.6,47.7 416.1,47.6 418.6,47.3 421.1,47.2 423.6,46.8 426.2,46.4 428.7,46.0 431.2,45.7 433.7,45.3 436.3,45.0 438.8,44.9 441.3,44.6 443.8,44.1 446.4,43.6 448.9,43.3 451.4,42.9 453.9,42.3 456.4,42.1 459.0,41.9 461.5,41.8 464.0,41.5 466.5,41.2 469.1,40.8 471.6,40.6 474.1,40.3 476.6,40.1 479.2,39.8 481.7,39.6 484.2,39.4 486.7,39.1 489.3,38.6 491.8,38.4 494.3,38.1 496.8,37.9 499.3,37.7 501.9,37.4 504.4,37.2 506.9,37.0 509.4,36.7 512.0,36.2 514.5,35.7 517.0,35.4 519.5,35.1 522.1,35.0 524.6,34.8 527.1,34.5 529.6,34.0 532.1,33.8 534.7,33.7 537.2,33.3 539.7,33.1 542.2,32.7 544.8,32.5 547.3,32.4 549.8,31.9 552.3,31.6 554.9,31.3 557.4,30.9 559.9,30.7 562.4,30.6 565.0,30.5 567.5,30.3 570.0,30.0 570.0,30.0,120" />
  
  <!-- Linea principale -->
  <polyline fill="none" stroke="#0366d6" stroke-width="2.5" stroke-linecap="round" stroke-linejoin="round" points="30.0,120.0 32.5,119.1 35.0,118.1 37.6,117.3 40.1,117.0 42.6,116.6 45.1,115.6 47.7,114.9 50.2,114.4 52.7,113.3 55.2,112.8 57.8,112.2 60.3,111.9 62.8,111.4 65.3,110.7 67.9,109.9 70.4,109.3 72.9,108.9 75.4,108.7 77.9,108.2 80.5,107.6 83.0,107.1 85.5,106.9 88.0,106.4 90.6,104.7 93.1,104.2 95.6,103.5 98.1,102.9 100.7,102.3 103.2,101.7 105.7,101.3 108.2,101.1 110.7,100.6 113.3,99.8 115.8,99.1 118.3,98.6 120.8,98.0 123.4,97.8 125.9,97.7 128.4,97.4 130.9,96.9 133.5,96.5 136.0,96.3 138.5,95.7 141.0,94.8 143.6,94.6 146.1,94.4 148.6,94.0 151.1,93.3 153.6,92.8 156.2,92.1 158.7,91.5 161.2,90.9 163.7,90.7 166.3,90.3 168.8,89.7 171.3,89.0 173.8,88.5 176.4,88.2 178.9,87.9 181.4,87.6 183.9,86.8 186.4,86.1 189.0,85.5 191.5,84.8 194.0,84.5 196.5,84.3 199.1,84.1 201.6,83.5 204.1,83.2 206.6,82.9 209.2,82.6 211.7,82.4 214.2,82.0 216.7,81.8 219.3,81.6 221.8,81.5 224.3,80.8 226.8,80.4 229.3,80.3 231.9,80.0 234.4,79.9 236.9,79.9 239.4,91.4 242.0,90.2 244.5,89.2 247.0,88.1 249.5,85.0 252.1,82.8 254.6,80.5 257.1,79.6 259.6,78.6 262.1,77.0 264.7,75.3 267.2,74.0 269.7,73.5 272.2,73.1 274.8,71.8 277.3,70.9 279.8,70.3 282.3,69.6 284.9,69.3 287.4,69.1 289.9,68.5 292.4,67.4 295.0,66.6 297.5,65.9 300.0,65.0 302.5,64.6 305.0,64.3 307.6,63.5 310.1,62.9 312.6,62.2 315.1,61.7 317.7,61.5 320.2,61.3 322.7,60.9 325.2,60.4 327.8,60.0 330.3,59.6 332.8,59.2 335.3,58.9 337.9,58.6 340.4,58.3 342.9,58.0 345.4,57.7 347.9,57.1 350.5,56.7 353.0,56.2 355.5,55.9 358.0,55.5 360.6,55.3 363.1,55.0 365.6,54.8 368.1,53.9 370.7,53.4 373.2,52.7 375.7,52.4 378.2,52.3 380.7,52.0 383.3,51.7 385.8,51.2 388.3,50.8 390.8,50.3 393.4,50.0 395.9,49.8 398.4,49.6 400.9,49.3 403.5,49.1 406.0,48.8 408.5,48.5 411.0,48.0 413.6,47.7 416.1,47.6 418.6,47.3 421.1,47.2 423.6,46.8 426.2,46.4 428.7,46.0 431.2,45.7 433.7,45.3 436.3,45.0 438.8,44.9 441.3,44.6 443.8,44.1 446.4,43.6 448.9,43.3 451.4,42.9 453.9,42.3 456.4,42.1 459.0,41.9 461.5,41.8 464.0,41.5 466.5,41.2 469.1,40.8 471.6,40.6 474.1,40.3 476.6,40.1 479.2,39.8 481.7,39.6 484.2,39.4 486.7,39.1 489.3,38.6 491.8,38.4 494.3,38.1 496.8,37.9 499.3,37.7 501.9,37.4 504.4,37.2 506.9,37.0 509.4,36.7 512.0,36.2 514.5,35.7 517.0,35.4 519.5,35.1 522.1,35.0 524.6,34.8 527.1,34.5 529.6,34.0 532.1,33.8 534.7,33.7 537.2,33.3 539.7,33.1 542.2,32.7 544.8,32.5 547.3,32.4 549.8,31.9 552.3,31.6 554.9,31.3 557.4,30.9 559.9,30.7 562.4,30.6 565.0,30.5 567.5,30.3 570.0,30.0" />
  
  <!-- Punto finale luminoso -->
  <circle cx="570.0" cy="30.0" r="4" fill="#ffffff" stroke="#0366d6" stroke-width="2.5" />
</svg>