<svg width="600" height="150" viewBox="0 0 600 150" xmlns="http://www.w3.org/2000/svg">
  <defs>
    <filter id="shadow2" x="-2%" y="-2%" width="104%" height="108%">
      <feDropShadow dx="0" dy="2" stdDeviation="3" flood-opacity="0.1" />
    </filter>
    <linearGradient id="fillGrad" x1="0" y1="0" x2="0" y2="1">
      <stop offset="0%" stop-color="#0366d6" stop-opacity="0.3"/>
      <stop offset="100%" stop-color="#0366d6" stop-opacity="0.02"/>
    </linearGradient>
  </defs>
  <rect width="600" height="150" rx="12" fill="#ffffff" filter="url(#shadow2)" stroke="#e1e4e8" stroke-width="1"/>
  <text x="20" y="24" fill="#2b3137" font-family="-apple-system,BlinkMacSystemFont,'Segoe UI',Helvetica,Arial,sans-serif" font-size="14" font-weight="600">📈 Download Growth (Actual: 80.7k)</text>
  
  <!-- Area sotto la linea -->
  <polygon fill="url(#fillGrad)" points="30.0,120.0,120 30.0,120.0 32.0,119.3 34.0,118.5 35.9,117.8 37.9,117.6 39.9,117.2 41.9,116.4 43.8,115.8 45.8,115.5 47.8,114.6 49.8,114.2 51.8,113.7 53.7,113.5 55.7,113.1 57.7,112.5 59.7,111.9 61.6,111.4 63.6,111.1 65.6,110.8 67.6,110.4 69.6,110.0 71.5,109.6 73.5,109.4 75.5,109.0 77.5,107.6 79.5,107.2 81.4,106.7 83.4,106.1 85.4,105.7 87.4,105.2 89.3,104.9 91.3,104.7 93.3,104.3 95.3,103.6 97.3,103.1 99.2,102.7 101.2,102.2 103.2,102.1 105.2,102.0 107.1,101.7 109.1,101.3 111.1,101.0 113.1,100.9 115.1,100.4 117.0,99.6 119.0,99.4 121.0,99.3 123.0,99.0 124.9,98.4 126.9,98.0 128.9,97.4 130.9,97.0 132.9,96.5 134.8,96.4 136.8,96.0 138.8,95.5 140.8,94.9 142.7,94.5 144.7,94.3 146.7,94.0 148.7,93.8 150.7,93.2 152.6,92.6 154.6,92.1 156.6,91.6 158.6,91.3 160.5,91.2 162.5,91.0 164.5,90.5 166.5,90.3 168.5,90.0 170.4,89.8 172.4,89.6 174.4,89.3 176.4,89.1 178.4,89.0 180.3,88.9 182.3,88.3 184.3,88.0 186.3,87.9 188.2,87.7 190.2,87.6 192.2,87.6 194.2,96.9 196.2,95.9 198.1,95.1 200.1,94.3 202.1,91.7 204.1,90.0 206.0,88.1 208.0,87.4 210.0,86.6 212.0,85.3 214.0,83.9 215.9,82.8 217.9,82.4 219.9,82.1 221.9,81.1 223.8,80.3 225.8,79.8 227.8,79.2 229.8,79.0 231.8,78.9 233.7,78.4 235.7,77.5 237.7,76.9 239.7,76.3 241.6,75.6 243.6,75.2 245.6,75.0 247.6,74.4 249.6,73.8 251.5,73.3 253.5,72.9 255.5,72.7 257.5,72.6 259.5,72.3 261.4,71.8 263.4,71.5 265.4,71.2 267.4,70.9 269.3,70.6 271.3,70.4 273.3,70.1 275.3,69.9 277.3,69.7 279.2,69.2 281.2,68.8 283.2,68.4 285.2,68.2 287.1,67.9 289.1,67.7 291.1,67.5 293.1,67.3 295.1,66.6 297.0,66.2 299.0,65.6 301.0,65.4 303.0,65.3 304.9,65.1 306.9,64.8 308.9,64.4 310.9,64.1 312.9,63.7 314.8,63.4 316.8,63.3 318.8,63.1 320.8,62.9 322.7,62.7 324.7,62.4 326.7,62.2 328.7,61.8 330.7,61.6 332.6,61.5 334.6,61.3 336.6,61.2 338.6,60.8 340.5,60.5 342.5,60.2 344.5,59.9 346.5,59.6 348.5,59.4 350.4,59.3 352.4,59.1 354.4,58.7 356.4,58.3 358.4,58.0 360.3,57.7 362.3,57.2 364.3,57.1 366.3,56.9 368.2,56.8 370.2,56.5 372.2,56.3 374.2,56.0 376.2,55.8 378.1,55.6 380.1,55.4 382.1,55.2 384.1,55.0 386.0,54.9 388.0,54.6 390.0,54.3 392.0,54.1 394.0,53.8 395.9,53.7 397.9,53.5 399.9,53.3 401.9,53.1 403.8,52.9 405.8,52.7 407.8,52.3 409.8,51.9 411.8,51.6 413.7,51.4 415.7,51.3 417.7,51.2 419.7,50.9 421.6,50.5 423.6,50.4 425.6,50.2 427.6,50.0 429.6,49.7 431.5,49.5 433.5,49.3 435.5,49.2 437.5,48.8 439.5,48.6 441.4,48.3 443.4,48.0 445.4,47.9 447.4,47.8 449.3,47.7 451.3,47.5 453.3,47.3 455.3,47.0 457.3,46.8 459.2,46.6 461.2,46.4 463.2,46.3 465.2,46.1 467.1,45.9 469.1,45.6 471.1,45.3 473.1,45.0 475.1,44.8 477.0,44.6 479.0,44.5 481.0,44.4 483.0,44.3 484.9,44.1 486.9,43.9 488.9,43.6 490.9,43.4 492.9,43.2 494.8,43.0 496.8,42.8 498.8,42.6 500.8,42.4 502.7,42.2 504.7,42.1 506.7,41.9 508.7,41.6 510.7,41.4 512.6,41.2 514.6,41.1 516.6,41.0 518.6,40.8 520.5,40.6 522.5,40.4 524.5,40.3 526.5,40.2 528.5,40.0 530.4,39.6 532.4,39.3 534.4,45.4 536.4,44.2 538.4,41.9 540.3,41.0 542.3,40.0 544.3,38.6 546.3,37.9 548.2,37.4 550.2,36.6 552.2,35.3 554.2,34.3 556.2,34.0 558.1,33.5 560.1,33.1 562.1,32.4 564.1,31.8 566.0,31.0 568.0,30.7 570.0,30.0 570.0,30.0,120" />
  
  <!-- Linea principale -->
  <polyline fill="none" stroke="#0366d6" stroke-width="2.5" stroke-linecap="round" stroke-linejoin="round" points="30.0,120.0 32.0,119.3 34.0,118.5 35.9,117.8 37.9,117.6 39.9,117.2 41.9,116.4 43.8,115.8 45.8,115.5 47.8,114.6 49.8,114.2 51.8,113.7 53.7,113.5 55.7,113.1 57.7,112.5 59.7,111.9 61.6,111.4 63.6,111.1 65.6,110.8 67.6,110.4 69.6,110.0 71.5,109.6 73.5,109.4 75.5,109.0 77.5,107.6 79.5,107.2 81.4,106.7 83.4,106.1 85.4,105.7 87.4,105.2 89.3,104.9 91.3,104.7 93.3,104.3 95.3,103.6 97.3,103.1 99.2,102.7 101.2,102.2 103.2,102.1 105.2,102.0 107.1,101.7 109.1,101.3 111.1,101.0 113.1,100.9 115.1,100.4 117.0,99.6 119.0,99.4 121.0,99.3 123.0,99.0 124.9,98.4 126.9,98.0 128.9,97.4 130.9,97.0 132.9,96.5 134.8,96.4 136.8,96.0 138.8,95.5 140.8,94.9 142.7,94.5 144.7,94.3 146.7,94.0 148.7,93.8 150.7,93.2 152.6,92.6 154.6,92.1 156.6,91.6 158.6,91.3 160.5,91.2 162.5,91.0 164.5,90.5 166.5,90.3 168.5,90.0 170.4,89.8 172.4,89.6 174.4,89.3 176.4,89.1 178.4,89.0 180.3,88.9 182.3,88.3 184.3,88.0 186.3,87.9 188.2,87.7 190.2,87.6 192.2,87.6 194.2,96.9 196.2,95.9 198.1,95.1 200.1,94.3 202.1,91.7 204.1,90.0 206.0,88.1 208.0,87.4 210.0,86.6 212.0,85.3 214.0,83.9 215.9,82.8 217.9,82.4 219.9,82.1 221.9,81.1 223.8,80.3 225.8,79.8 227.8,79.2 229.8,79.0 231.8,78.9 233.7,78.4 235.7,77.5 237.7,76.9 239.7,76.3 241.6,75.6 243.6,75.2 245.6,75.0 247.6,74.4 249.6,73.8 251.5,73.3 253.5,72.9 255.5,72.7 257.5,72.6 259.5,72.3 261.4,71.8 263.4,71.5 265.4,71.2 267.4,70.9 269.3,70.6 271.3,70.4 273.3,70.1 275.3,69.9 277.3,69.7 279.2,69.2 281.2,68.8 283.2,68.4 285.2,68.2 287.1,67.9 289.1,67.7 291.1,67.5 293.1,67.3 295.1,66.6 297.0,66.2 299.0,65.6 301.0,65.4 303.0,65.3 304.9,65.1 306.9,64.8 308.9,64.4 310.9,64.1 312.9,63.7 314.8,63.4 316.8,63.3 318.8,63.1 320.8,62.9 322.7,62.7 324.7,62.4 326.7,62.2 328.7,61.8 330.7,61.6 332.6,61.5 334.6,61.3 336.6,61.2 338.6,60.8 340.5,60.5 342.5,60.2 344.5,59.9 346.5,59.6 348.5,59.4 350.4,59.3 352.4,59.1 354.4,58.7 356.4,58.3 358.4,58.0 360.3,57.7 362.3,57.2 364.3,57.1 366.3,56.9 368.2,56.8 370.2,56.5 372.2,56.3 374.2,56.0 376.2,55.8 378.1,55.6 380.1,55.4 382.1,55.2 384.1,55.0 386.0,54.9 388.0,54.6 390.0,54.3 392.0,54.1 394.0,53.8 395.9,53.7 397.9,53.5 399.9,53.3 401.9,53.1 403.8,52.9 405.8,52.7 407.8,52.3 409.8,51.9 411.8,51.6 413.7,51.4 415.7,51.3 417.7,51.2 419.7,50.9 421.6,50.5 423.6,50.4 425.6,50.2 427.6,50.0 429.6,49.7 431.5,49.5 433.5,49.3 435.5,49.2 437.5,48.8 439.5,48.6 441.4,48.3 443.4,48.0 445.4,47.9 447.4,47.8 449.3,47.7 451.3,47.5 453.3,47.3 455.3,47.0 457.3,46.8 459.2,46.6 461.2,46.4 463.2,46.3 465.2,46.1 467.1,45.9 469.1,45.6 471.1,45.3 473.1,45.0 475.1,44.8 477.0,44.6 479.0,44.5 481.0,44.4 483.0,44.3 484.9,44.1 486.9,43.9 488.9,43.6 490.9,43.4 492.9,43.2 494.8,43.0 496.8,42.8 498.8,42.6 500.8,42.4 502.7,42.2 504.7,42.1 506.7,41.9 508.7,41.6 510.7,41.4 512.6,41.2 514.6,41.1 516.6,41.0 518.6,40.8 520.5,40.6 522.5,40.4 524.5,40.3 526.5,40.2 528.5,40.0 530.4,39.6 532.4,39.3 534.4,45.4 536.4,44.2 538.4,41.9 540.3,41.0 542.3,40.0 544.3,38.6 546.3,37.9 548.2,37.4 550.2,36.6 552.2,35.3 554.2,34.3 556.2,34.0 558.1,33.5 560.1,33.1 562.1,32.4 564.1,31.8 566.0,31.0 568.0,30.7 570.0,30.0" />
  
  <!-- Punto finale luminoso -->
  <circle cx="570.0" cy="30.0" r="4" fill="#ffffff" stroke="#0366d6" stroke-width="2.5" />
</svg>