<svg width="600" height="150" viewBox="0 0 600 150" xmlns="http://www.w3.org/2000/svg">
  <defs>
    <filter id="shadow2" x="-2%" y="-2%" width="104%" height="108%">
      <feDropShadow dx="0" dy="2" stdDeviation="3" flood-opacity="0.1" />
    </filter>
    <linearGradient id="fillGrad" x1="0" y1="0" x2="0" y2="1">
      <stop offset="0%" stop-color="#0366d6" stop-opacity="0.3"/>
      <stop offset="100%" stop-color="#0366d6" stop-opacity="0.02"/>
    </linearGradient>
  </defs>
  <rect width="600" height="150" rx="12" fill="#ffffff" filter="url(#shadow2)" stroke="#e1e4e8" stroke-width="1"/>
  <text x="20" y="24" fill="#2b3137" font-family="-apple-system,BlinkMacSystemFont,'Segoe UI',Helvetica,Arial,sans-serif" font-size="14" font-weight="600">📈 Download Growth (Actual: 83.1k)</text>
  
  <!-- Area sotto la linea -->
  <polygon fill="url(#fillGrad)" points="30.0,120.0,120 30.0,120.0 31.8,119.4 33.5,118.7 35.3,118.1 37.1,118.0 38.9,117.6 40.6,116.9 42.4,116.4 44.2,116.1 45.9,115.4 47.7,115.0 49.5,114.6 51.2,114.4 53.0,114.1 54.8,113.6 56.6,113.0 58.3,112.6 60.1,112.3 61.9,112.2 63.6,111.8 65.4,111.4 67.2,111.1 69.0,110.9 70.7,110.6 72.5,109.4 74.3,109.1 76.0,108.6 77.8,108.1 79.6,107.7 81.3,107.3 83.1,107.1 84.9,106.9 86.7,106.6 88.4,106.0 90.2,105.5 92.0,105.2 93.7,104.8 95.5,104.7 97.3,104.6 99.0,104.4 100.8,104.0 102.6,103.8 104.4,103.6 106.1,103.2 107.9,102.5 109.7,102.4 111.4,102.3 113.2,102.0 115.0,101.5 116.8,101.2 118.5,100.7 120.3,100.3 122.1,99.8 123.8,99.7 125.6,99.5 127.4,99.0 129.1,98.5 130.9,98.2 132.7,98.0 134.5,97.8 136.2,97.5 138.0,97.0 139.8,96.5 141.5,96.1 143.3,95.7 145.1,95.4 146.9,95.3 148.6,95.1 150.4,94.8 152.2,94.5 153.9,94.3 155.7,94.1 157.5,94.0 159.2,93.7 161.0,93.6 162.8,93.4 164.6,93.3 166.3,92.8 168.1,92.6 169.9,92.5 171.6,92.3 173.4,92.2 175.2,92.2 177.0,100.2 178.7,99.4 180.5,98.7 182.3,97.9 184.0,95.8 185.8,94.3 187.6,92.7 189.3,92.1 191.1,91.4 192.9,90.3 194.7,89.0 196.4,88.2 198.2,87.8 200.0,87.5 201.7,86.6 203.5,86.0 205.3,85.6 207.0,85.1 208.8,84.9 210.6,84.8 212.4,84.3 214.1,83.6 215.9,83.1 217.7,82.5 219.4,81.9 221.2,81.6 223.0,81.4 224.8,80.9 226.5,80.5 228.3,80.0 230.1,79.7 231.8,79.5 233.6,79.4 235.4,79.1 237.1,78.7 238.9,78.4 240.7,78.2 242.5,77.9 244.2,77.7 246.0,77.5 247.8,77.3 249.5,77.1 251.3,76.9 253.1,76.5 254.9,76.2 256.6,75.8 258.4,75.6 260.2,75.4 261.9,75.2 263.7,75.0 265.5,74.8 267.2,74.3 269.0,73.9 270.8,73.4 272.6,73.2 274.3,73.2 276.1,72.9 277.9,72.7 279.6,72.4 281.4,72.1 283.2,71.8 285.0,71.5 286.7,71.4 288.5,71.2 290.3,71.1 292.0,70.9 293.8,70.7 295.6,70.5 297.3,70.1 299.1,70.0 300.9,69.9 302.7,69.7 304.4,69.6 306.2,69.3 308.0,69.1 309.7,68.8 311.5,68.5 313.3,68.3 315.0,68.1 316.8,68.0 318.6,67.8 320.4,67.5 322.1,67.1 323.9,66.9 325.7,66.6 327.4,66.2 329.2,66.1 331.0,66.0 332.8,65.8 334.5,65.6 336.3,65.4 338.1,65.2 339.8,65.0 341.6,64.8 343.4,64.7 345.1,64.5 346.9,64.3 348.7,64.2 350.5,64.0 352.2,63.7 354.0,63.5 355.8,63.3 357.5,63.2 359.3,63.0 361.1,62.8 362.9,62.7 364.6,62.5 366.4,62.3 368.2,62.0 369.9,61.6 371.7,61.4 373.5,61.2 375.2,61.1 377.0,61.0 378.8,60.8 380.6,60.5 382.3,60.3 384.1,60.2 385.9,60.0 387.6,59.8 389.4,59.6 391.2,59.5 393.0,59.3 394.7,59.0 396.5,58.8 398.3,58.6 400.0,58.3 401.8,58.2 403.6,58.1 405.3,58.1 407.1,57.9 408.9,57.7 410.7,57.5 412.4,57.3 414.2,57.1 416.0,56.9 417.7,56.8 419.5,56.6 421.3,56.5 423.0,56.2 424.8,56.0 426.6,55.8 428.4,55.6 430.1,55.4 431.9,55.3 433.7,55.2 435.4,55.1 437.2,55.0 439.0,54.8 440.8,54.5 442.5,54.4 444.3,54.2 446.1,54.1 447.8,53.9 449.6,53.7 451.4,53.5 453.1,53.4 454.9,53.2 456.7,53.1 458.5,52.9 460.2,52.7 462.0,52.5 463.8,52.4 465.5,52.3 467.3,52.1 469.1,52.0 470.9,51.8 472.6,51.7 474.4,51.6 476.2,51.5 477.9,51.1 479.7,50.9 481.5,56.0 483.2,55.0 485.0,53.1 486.8,52.3 488.6,51.4 490.3,50.3 492.1,49.7 493.9,49.3 495.6,48.5 497.4,47.4 499.2,46.6 501.0,46.3 502.7,45.9 504.5,45.5 506.3,44.9 508.0,44.4 509.8,43.8 511.6,43.5 513.3,42.9 515.1,42.6 516.9,42.2 518.7,42.0 520.4,41.7 522.2,41.4 524.0,40.8 525.7,40.4 527.5,39.9 529.3,39.2 531.0,38.8 532.8,38.5 534.6,38.3 536.4,38.1 538.1,37.6 539.9,37.2 541.7,36.8 543.4,35.8 545.2,35.0 547.0,34.6 548.8,34.4 550.5,34.0 552.3,33.5 554.1,33.0 555.8,32.6 557.6,32.3 559.4,31.9 561.1,31.5 562.9,31.2 564.7,30.7 566.5,30.4 568.2,30.2 570.0,30.0 570.0,30.0,120" />
  
  <!-- Linea principale -->
  <polyline fill="none" stroke="#0366d6" stroke-width="2.5" stroke-linecap="round" stroke-linejoin="round" points="30.0,120.0 31.8,119.4 33.5,118.7 35.3,118.1 37.1,118.0 38.9,117.6 40.6,116.9 42.4,116.4 44.2,116.1 45.9,115.4 47.7,115.0 49.5,114.6 51.2,114.4 53.0,114.1 54.8,113.6 56.6,113.0 58.3,112.6 60.1,112.3 61.9,112.2 63.6,111.8 65.4,111.4 67.2,111.1 69.0,110.9 70.7,110.6 72.5,109.4 74.3,109.1 76.0,108.6 77.8,108.1 79.6,107.7 81.3,107.3 83.1,107.1 84.9,106.9 86.7,106.6 88.4,106.0 90.2,105.5 92.0,105.2 93.7,104.8 95.5,104.7 97.3,104.6 99.0,104.4 100.8,104.0 102.6,103.8 104.4,103.6 106.1,103.2 107.9,102.5 109.7,102.4 111.4,102.3 113.2,102.0 115.0,101.5 116.8,101.2 118.5,100.7 120.3,100.3 122.1,99.8 123.8,99.7 125.6,99.5 127.4,99.0 129.1,98.5 130.9,98.2 132.7,98.0 134.5,97.8 136.2,97.5 138.0,97.0 139.8,96.5 141.5,96.1 143.3,95.7 145.1,95.4 146.9,95.3 148.6,95.1 150.4,94.8 152.2,94.5 153.9,94.3 155.7,94.1 157.5,94.0 159.2,93.7 161.0,93.6 162.8,93.4 164.6,93.3 166.3,92.8 168.1,92.6 169.9,92.5 171.6,92.3 173.4,92.2 175.2,92.2 177.0,100.2 178.7,99.4 180.5,98.7 182.3,97.9 184.0,95.8 185.8,94.3 187.6,92.7 189.3,92.1 191.1,91.4 192.9,90.3 194.7,89.0 196.4,88.2 198.2,87.8 200.0,87.5 201.7,86.6 203.5,86.0 205.3,85.6 207.0,85.1 208.8,84.9 210.6,84.8 212.4,84.3 214.1,83.6 215.9,83.1 217.7,82.5 219.4,81.9 221.2,81.6 223.0,81.4 224.8,80.9 226.5,80.5 228.3,80.0 230.1,79.7 231.8,79.5 233.6,79.4 235.4,79.1 237.1,78.7 238.9,78.4 240.7,78.2 242.5,77.9 244.2,77.7 246.0,77.5 247.8,77.3 249.5,77.1 251.3,76.9 253.1,76.5 254.9,76.2 256.6,75.8 258.4,75.6 260.2,75.4 261.9,75.2 263.7,75.0 265.5,74.8 267.2,74.3 269.0,73.9 270.8,73.4 272.6,73.2 274.3,73.2 276.1,72.9 277.9,72.7 279.6,72.4 281.4,72.1 283.2,71.8 285.0,71.5 286.7,71.4 288.5,71.2 290.3,71.1 292.0,70.9 293.8,70.7 295.6,70.5 297.3,70.1 299.1,70.0 300.9,69.9 302.7,69.7 304.4,69.6 306.2,69.3 308.0,69.1 309.7,68.8 311.5,68.5 313.3,68.3 315.0,68.1 316.8,68.0 318.6,67.8 320.4,67.5 322.1,67.1 323.9,66.9 325.7,66.6 327.4,66.2 329.2,66.1 331.0,66.0 332.8,65.8 334.5,65.6 336.3,65.4 338.1,65.2 339.8,65.0 341.6,64.8 343.4,64.7 345.1,64.5 346.9,64.3 348.7,64.2 350.5,64.0 352.2,63.7 354.0,63.5 355.8,63.3 357.5,63.2 359.3,63.0 361.1,62.8 362.9,62.7 364.6,62.5 366.4,62.3 368.2,62.0 369.9,61.6 371.7,61.4 373.5,61.2 375.2,61.1 377.0,61.0 378.8,60.8 380.6,60.5 382.3,60.3 384.1,60.2 385.9,60.0 387.6,59.8 389.4,59.6 391.2,59.5 393.0,59.3 394.7,59.0 396.5,58.8 398.3,58.6 400.0,58.3 401.8,58.2 403.6,58.1 405.3,58.1 407.1,57.9 408.9,57.7 410.7,57.5 412.4,57.3 414.2,57.1 416.0,56.9 417.7,56.8 419.5,56.6 421.3,56.5 423.0,56.2 424.8,56.0 426.6,55.8 428.4,55.6 430.1,55.4 431.9,55.3 433.7,55.2 435.4,55.1 437.2,55.0 439.0,54.8 440.8,54.5 442.5,54.4 444.3,54.2 446.1,54.1 447.8,53.9 449.6,53.7 451.4,53.5 453.1,53.4 454.9,53.2 456.7,53.1 458.5,52.9 460.2,52.7 462.0,52.5 463.8,52.4 465.5,52.3 467.3,52.1 469.1,52.0 470.9,51.8 472.6,51.7 474.4,51.6 476.2,51.5 477.9,51.1 479.7,50.9 481.5,56.0 483.2,55.0 485.0,53.1 486.8,52.3 488.6,51.4 490.3,50.3 492.1,49.7 493.9,49.3 495.6,48.5 497.4,47.4 499.2,46.6 501.0,46.3 502.7,45.9 504.5,45.5 506.3,44.9 508.0,44.4 509.8,43.8 511.6,43.5 513.3,42.9 515.1,42.6 516.9,42.2 518.7,42.0 520.4,41.7 522.2,41.4 524.0,40.8 525.7,40.4 527.5,39.9 529.3,39.2 531.0,38.8 532.8,38.5 534.6,38.3 536.4,38.1 538.1,37.6 539.9,37.2 541.7,36.8 543.4,35.8 545.2,35.0 547.0,34.6 548.8,34.4 550.5,34.0 552.3,33.5 554.1,33.0 555.8,32.6 557.6,32.3 559.4,31.9 561.1,31.5 562.9,31.2 564.7,30.7 566.5,30.4 568.2,30.2 570.0,30.0" />
  
  <!-- Punto finale luminoso -->
  <circle cx="570.0" cy="30.0" r="4" fill="#ffffff" stroke="#0366d6" stroke-width="2.5" />
</svg>