<svg width="600" height="150" viewBox="0 0 600 150" xmlns="http://www.w3.org/2000/svg">
  <defs>
    <filter id="shadow2" x="-2%" y="-2%" width="104%" height="108%">
      <feDropShadow dx="0" dy="2" stdDeviation="3" flood-opacity="0.1" />
    </filter>
    <linearGradient id="fillGrad" x1="0" y1="0" x2="0" y2="1">
      <stop offset="0%" stop-color="#0366d6" stop-opacity="0.3"/>
      <stop offset="100%" stop-color="#0366d6" stop-opacity="0.02"/>
    </linearGradient>
  </defs>
  <rect width="600" height="150" rx="12" fill="#ffffff" filter="url(#shadow2)" stroke="#e1e4e8" stroke-width="1"/>
  <text x="20" y="24" fill="#2b3137" font-family="-apple-system,BlinkMacSystemFont,'Segoe UI',Helvetica,Arial,sans-serif" font-size="14" font-weight="600">📈 Download Growth (Actual: 77.1k)</text>
  
  <!-- Area sotto la linea -->
  <polygon fill="url(#fillGrad)" points="30.0,120.0,120 30.0,120.0 32.9,119.0 35.8,117.9 38.7,117.0 41.6,116.8 44.5,116.3 47.4,115.1 50.3,114.4 53.2,113.9 56.1,112.7 59.0,112.1 61.9,111.5 64.8,111.2 67.7,110.6 70.6,109.8 73.5,109.0 76.5,108.4 79.4,107.9 82.3,107.6 85.2,107.1 88.1,106.5 91.0,105.9 93.9,105.6 96.8,105.1 99.7,103.3 102.6,102.7 105.5,102.0 108.4,101.3 111.3,100.6 114.2,100.0 117.1,99.6 120.0,99.3 122.9,98.8 125.8,97.9 128.7,97.1 131.6,96.6 134.5,95.9 137.4,95.8 140.3,95.6 143.2,95.3 146.1,94.7 149.0,94.4 151.9,94.1 154.8,93.4 157.7,92.4 160.6,92.2 163.5,92.0 166.5,91.6 169.4,90.8 172.3,90.3 175.2,89.5 178.1,88.9 181.0,88.2 183.9,88.0 186.8,87.6 189.7,86.8 192.6,86.1 195.5,85.5 198.4,85.3 201.3,84.9 204.2,84.5 207.1,83.7 210.0,82.9 212.9,82.2 215.8,81.6 218.7,81.2 221.6,81.0 224.5,80.7 227.4,80.1 230.3,79.8 233.2,79.4 236.1,79.2 239.0,78.9 241.9,78.5 244.8,78.2 247.7,78.1 250.6,77.9 253.5,77.1 256.5,76.7 259.4,76.6 262.3,76.3 265.2,76.1 268.1,76.1 271.0,88.7 273.9,87.5 276.8,86.3 279.7,85.2 282.6,81.8 285.5,79.4 288.4,76.8 291.3,75.9 294.2,74.8 297.1,73.0 300.0,71.1 302.9,69.7 305.8,69.2 308.7,68.7 311.6,67.3 314.5,66.3 317.4,65.7 320.3,64.9 323.2,64.5 326.1,64.4 329.0,63.7 331.9,62.5 334.8,61.7 337.7,60.8 340.6,59.9 343.5,59.4 346.5,59.1 349.4,58.3 352.3,57.5 355.2,56.9 358.1,56.3 361.0,56.0 363.9,55.9 366.8,55.4 369.7,54.8 372.6,54.4 375.5,53.9 378.4,53.6 381.3,53.2 384.2,52.8 387.1,52.5 390.0,52.2 392.9,51.9 395.8,51.3 398.7,50.8 401.6,50.2 404.5,49.9 407.4,49.5 410.3,49.3 413.2,49.0 416.1,48.7 419.0,47.8 421.9,47.2 424.8,46.4 427.7,46.1 430.6,46.0 433.5,45.7 436.5,45.3 439.4,44.8 442.3,44.4 445.2,43.8 448.1,43.4 451.0,43.3 453.9,43.0 456.8,42.7 459.7,42.5 462.6,42.1 465.5,41.8 468.4,41.3 471.3,41.0 474.2,40.8 477.1,40.6 480.0,40.4 482.9,39.9 485.8,39.6 488.7,39.1 491.6,38.7 494.5,38.3 497.4,38.0 500.3,37.9 503.2,37.6 506.1,37.0 509.0,36.5 511.9,36.1 514.8,35.7 517.7,35.0 520.6,34.9 523.5,34.7 526.5,34.5 529.4,34.1 532.3,33.8 535.2,33.5 538.1,33.2 541.0,32.9 543.9,32.6 546.8,32.3 549.7,32.1 552.6,31.9 555.5,31.6 558.4,31.1 561.3,30.8 564.2,30.4 567.1,30.2 570.0,30.0 570.0,30.0,120" />
  
  <!-- Linea principale -->
  <polyline fill="none" stroke="#0366d6" stroke-width="2.5" stroke-linecap="round" stroke-linejoin="round" points="30.0,120.0 32.9,119.0 35.8,117.9 38.7,117.0 41.6,116.8 44.5,116.3 47.4,115.1 50.3,114.4 53.2,113.9 56.1,112.7 59.0,112.1 61.9,111.5 64.8,111.2 67.7,110.6 70.6,109.8 73.5,109.0 76.5,108.4 79.4,107.9 82.3,107.6 85.2,107.1 88.1,106.5 91.0,105.9 93.9,105.6 96.8,105.1 99.7,103.3 102.6,102.7 105.5,102.0 108.4,101.3 111.3,100.6 114.2,100.0 117.1,99.6 120.0,99.3 122.9,98.8 125.8,97.9 128.7,97.1 131.6,96.6 134.5,95.9 137.4,95.8 140.3,95.6 143.2,95.3 146.1,94.7 149.0,94.4 151.9,94.1 154.8,93.4 157.7,92.4 160.6,92.2 163.5,92.0 166.5,91.6 169.4,90.8 172.3,90.3 175.2,89.5 178.1,88.9 181.0,88.2 183.9,88.0 186.8,87.6 189.7,86.8 192.6,86.1 195.5,85.5 198.4,85.3 201.3,84.9 204.2,84.5 207.1,83.7 210.0,82.9 212.9,82.2 215.8,81.6 218.7,81.2 221.6,81.0 224.5,80.7 227.4,80.1 230.3,79.8 233.2,79.4 236.1,79.2 239.0,78.9 241.9,78.5 244.8,78.2 247.7,78.1 250.6,77.9 253.5,77.1 256.5,76.7 259.4,76.6 262.3,76.3 265.2,76.1 268.1,76.1 271.0,88.7 273.9,87.5 276.8,86.3 279.7,85.2 282.6,81.8 285.5,79.4 288.4,76.8 291.3,75.9 294.2,74.8 297.1,73.0 300.0,71.1 302.9,69.7 305.8,69.2 308.7,68.7 311.6,67.3 314.5,66.3 317.4,65.7 320.3,64.9 323.2,64.5 326.1,64.4 329.0,63.7 331.9,62.5 334.8,61.7 337.7,60.8 340.6,59.9 343.5,59.4 346.5,59.1 349.4,58.3 352.3,57.5 355.2,56.9 358.1,56.3 361.0,56.0 363.9,55.9 366.8,55.4 369.7,54.8 372.6,54.4 375.5,53.9 378.4,53.6 381.3,53.2 384.2,52.8 387.1,52.5 390.0,52.2 392.9,51.9 395.8,51.3 398.7,50.8 401.6,50.2 404.5,49.9 407.4,49.5 410.3,49.3 413.2,49.0 416.1,48.7 419.0,47.8 421.9,47.2 424.8,46.4 427.7,46.1 430.6,46.0 433.5,45.7 436.5,45.3 439.4,44.8 442.3,44.4 445.2,43.8 448.1,43.4 451.0,43.3 453.9,43.0 456.8,42.7 459.7,42.5 462.6,42.1 465.5,41.8 468.4,41.3 471.3,41.0 474.2,40.8 477.1,40.6 480.0,40.4 482.9,39.9 485.8,39.6 488.7,39.1 491.6,38.7 494.5,38.3 497.4,38.0 500.3,37.9 503.2,37.6 506.1,37.0 509.0,36.5 511.9,36.1 514.8,35.7 517.7,35.0 520.6,34.9 523.5,34.7 526.5,34.5 529.4,34.1 532.3,33.8 535.2,33.5 538.1,33.2 541.0,32.9 543.9,32.6 546.8,32.3 549.7,32.1 552.6,31.9 555.5,31.6 558.4,31.1 561.3,30.8 564.2,30.4 567.1,30.2 570.0,30.0" />
  
  <!-- Punto finale luminoso -->
  <circle cx="570.0" cy="30.0" r="4" fill="#ffffff" stroke="#0366d6" stroke-width="2.5" />
</svg>