<svg width="600" height="150" viewBox="0 0 600 150" xmlns="http://www.w3.org/2000/svg">
  <defs>
    <filter id="shadow2" x="-2%" y="-2%" width="104%" height="108%">
      <feDropShadow dx="0" dy="2" stdDeviation="3" flood-opacity="0.1" />
    </filter>
    <linearGradient id="fillGrad" x1="0" y1="0" x2="0" y2="1">
      <stop offset="0%" stop-color="#0366d6" stop-opacity="0.3"/>
      <stop offset="100%" stop-color="#0366d6" stop-opacity="0.02"/>
    </linearGradient>
  </defs>
  <rect width="600" height="150" rx="12" fill="#ffffff" filter="url(#shadow2)" stroke="#e1e4e8" stroke-width="1"/>
  <text x="20" y="24" fill="#2b3137" font-family="-apple-system,BlinkMacSystemFont,'Segoe UI',Helvetica,Arial,sans-serif" font-size="14" font-weight="600">📈 Download Growth (Actual: 79.9k)</text>
  
  <!-- Area sotto la linea -->
  <polygon fill="url(#fillGrad)" points="30.0,120.0,120 30.0,120.0 32.0,119.2 34.1,118.4 36.1,117.7 38.2,117.5 40.2,117.1 42.3,116.2 44.3,115.6 46.4,115.2 48.4,114.3 50.5,113.8 52.5,113.3 54.5,113.1 56.6,112.6 58.6,112.0 60.7,111.4 62.7,110.9 64.8,110.5 66.8,110.3 68.9,109.9 70.9,109.4 73.0,108.9 75.0,108.7 77.0,108.3 79.1,106.9 81.1,106.4 83.2,105.9 85.2,105.3 87.3,104.8 89.3,104.3 91.4,104.0 93.4,103.7 95.5,103.3 97.5,102.6 99.5,102.0 101.6,101.6 103.6,101.1 105.7,101.0 107.7,100.9 109.8,100.6 111.8,100.1 113.9,99.9 115.9,99.7 118.0,99.1 120.0,98.3 122.0,98.2 124.1,98.0 126.1,97.7 128.2,97.1 130.2,96.7 132.3,96.0 134.3,95.6 136.4,95.0 138.4,94.9 140.5,94.5 142.5,94.0 144.5,93.4 146.6,92.9 148.6,92.7 150.7,92.4 152.7,92.2 154.8,91.5 156.8,90.9 158.9,90.4 160.9,89.8 163.0,89.5 165.0,89.4 167.0,89.1 169.1,88.7 171.1,88.4 173.2,88.2 175.2,87.9 177.3,87.7 179.3,87.4 181.4,87.2 183.4,87.1 185.5,86.9 187.5,86.3 189.5,86.0 191.6,85.9 193.6,85.7 195.7,85.6 197.7,85.6 199.8,95.4 201.8,94.4 203.9,93.6 205.9,92.7 208.0,90.0 210.0,88.1 212.0,86.1 214.1,85.4 216.1,84.5 218.2,83.1 220.2,81.6 222.3,80.5 224.3,80.1 226.4,79.7 228.4,78.6 230.5,77.8 232.5,77.3 234.5,76.7 236.6,76.4 238.6,76.3 240.7,75.8 242.7,74.8 244.8,74.2 246.8,73.5 248.9,72.8 250.9,72.4 253.0,72.2 255.0,71.5 257.0,71.0 259.1,70.4 261.1,70.0 263.2,69.8 265.2,69.7 267.3,69.3 269.3,68.8 271.4,68.5 273.4,68.1 275.5,67.8 277.5,67.6 279.5,67.3 281.6,67.0 283.6,66.8 285.7,66.5 287.7,66.0 289.8,65.6 291.8,65.2 293.9,65.0 295.9,64.7 298.0,64.5 300.0,64.2 302.0,64.0 304.1,63.3 306.1,62.8 308.2,62.2 310.2,62.0 312.3,61.9 314.3,61.7 316.4,61.3 318.4,61.0 320.5,60.6 322.5,60.2 324.5,59.9 326.6,59.8 328.6,59.5 330.7,59.3 332.7,59.1 334.8,58.9 336.8,58.6 338.9,58.2 340.9,58.0 343.0,57.8 345.0,57.6 347.0,57.5 349.1,57.1 351.1,56.8 353.2,56.5 355.2,56.2 357.3,55.9 359.3,55.7 361.4,55.5 363.4,55.3 365.5,54.9 367.5,54.5 369.5,54.2 371.6,53.8 373.6,53.3 375.7,53.2 377.7,53.0 379.8,52.9 381.8,52.6 383.9,52.3 385.9,52.1 388.0,51.8 390.0,51.6 392.0,51.4 394.1,51.1 396.1,51.0 398.2,50.8 400.2,50.6 402.3,50.2 404.3,50.0 406.4,49.7 408.4,49.5 410.5,49.3 412.5,49.1 414.5,49.0 416.6,48.8 418.6,48.5 420.7,48.1 422.7,47.6 424.8,47.4 426.8,47.1 428.9,47.0 430.9,46.9 433.0,46.6 435.0,46.2 437.0,46.0 439.1,45.9 441.1,45.6 443.2,45.4 445.2,45.1 447.3,44.9 449.3,44.8 451.4,44.4 453.4,44.2 455.5,43.8 457.5,43.5 459.5,43.4 461.6,43.3 463.6,43.2 465.7,43.0 467.7,42.8 469.8,42.5 471.8,42.3 473.9,42.0 475.9,41.8 478.0,41.7 480.0,41.5 482.0,41.3 484.1,41.0 486.1,40.6 488.2,40.4 490.2,40.1 492.3,40.0 494.3,39.8 496.4,39.7 498.4,39.5 500.5,39.4 502.5,39.2 504.5,38.8 506.6,38.6 508.6,38.4 510.7,38.2 512.7,38.0 514.8,37.8 516.8,37.6 518.9,37.4 520.9,37.2 523.0,37.0 525.0,36.8 527.0,36.5 529.1,36.3 531.1,36.2 533.2,36.1 535.2,35.9 537.3,35.7 539.3,35.5 541.4,35.3 543.4,35.3 545.5,35.1 547.5,34.6 549.5,34.3 551.6,40.7 553.6,39.5 555.7,37.0 557.7,36.1 559.8,35.0 561.8,33.6 563.9,32.8 565.9,32.3 568.0,31.4 570.0,30.0 570.0,30.0,120" />
  
  <!-- Linea principale -->
  <polyline fill="none" stroke="#0366d6" stroke-width="2.5" stroke-linecap="round" stroke-linejoin="round" points="30.0,120.0 32.0,119.2 34.1,118.4 36.1,117.7 38.2,117.5 40.2,117.1 42.3,116.2 44.3,115.6 46.4,115.2 48.4,114.3 50.5,113.8 52.5,113.3 54.5,113.1 56.6,112.6 58.6,112.0 60.7,111.4 62.7,110.9 64.8,110.5 66.8,110.3 68.9,109.9 70.9,109.4 73.0,108.9 75.0,108.7 77.0,108.3 79.1,106.9 81.1,106.4 83.2,105.9 85.2,105.3 87.3,104.8 89.3,104.3 91.4,104.0 93.4,103.7 95.5,103.3 97.5,102.6 99.5,102.0 101.6,101.6 103.6,101.1 105.7,101.0 107.7,100.9 109.8,100.6 111.8,100.1 113.9,99.9 115.9,99.7 118.0,99.1 120.0,98.3 122.0,98.2 124.1,98.0 126.1,97.7 128.2,97.1 130.2,96.7 132.3,96.0 134.3,95.6 136.4,95.0 138.4,94.9 140.5,94.5 142.5,94.0 144.5,93.4 146.6,92.9 148.6,92.7 150.7,92.4 152.7,92.2 154.8,91.5 156.8,90.9 158.9,90.4 160.9,89.8 163.0,89.5 165.0,89.4 167.0,89.1 169.1,88.7 171.1,88.4 173.2,88.2 175.2,87.9 177.3,87.7 179.3,87.4 181.4,87.2 183.4,87.1 185.5,86.9 187.5,86.3 189.5,86.0 191.6,85.9 193.6,85.7 195.7,85.6 197.7,85.6 199.8,95.4 201.8,94.4 203.9,93.6 205.9,92.7 208.0,90.0 210.0,88.1 212.0,86.1 214.1,85.4 216.1,84.5 218.2,83.1 220.2,81.6 222.3,80.5 224.3,80.1 226.4,79.7 228.4,78.6 230.5,77.8 232.5,77.3 234.5,76.7 236.6,76.4 238.6,76.3 240.7,75.8 242.7,74.8 244.8,74.2 246.8,73.5 248.9,72.8 250.9,72.4 253.0,72.2 255.0,71.5 257.0,71.0 259.1,70.4 261.1,70.0 263.2,69.8 265.2,69.7 267.3,69.3 269.3,68.8 271.4,68.5 273.4,68.1 275.5,67.8 277.5,67.6 279.5,67.3 281.6,67.0 283.6,66.8 285.7,66.5 287.7,66.0 289.8,65.6 291.8,65.2 293.9,65.0 295.9,64.7 298.0,64.5 300.0,64.2 302.0,64.0 304.1,63.3 306.1,62.8 308.2,62.2 310.2,62.0 312.3,61.9 314.3,61.7 316.4,61.3 318.4,61.0 320.5,60.6 322.5,60.2 324.5,59.9 326.6,59.8 328.6,59.5 330.7,59.3 332.7,59.1 334.8,58.9 336.8,58.6 338.9,58.2 340.9,58.0 343.0,57.8 345.0,57.6 347.0,57.5 349.1,57.1 351.1,56.8 353.2,56.5 355.2,56.2 357.3,55.9 359.3,55.7 361.4,55.5 363.4,55.3 365.5,54.9 367.5,54.5 369.5,54.2 371.6,53.8 373.6,53.3 375.7,53.2 377.7,53.0 379.8,52.9 381.8,52.6 383.9,52.3 385.9,52.1 388.0,51.8 390.0,51.6 392.0,51.4 394.1,51.1 396.1,51.0 398.2,50.8 400.2,50.6 402.3,50.2 404.3,50.0 406.4,49.7 408.4,49.5 410.5,49.3 412.5,49.1 414.5,49.0 416.6,48.8 418.6,48.5 420.7,48.1 422.7,47.6 424.8,47.4 426.8,47.1 428.9,47.0 430.9,46.9 433.0,46.6 435.0,46.2 437.0,46.0 439.1,45.9 441.1,45.6 443.2,45.4 445.2,45.1 447.3,44.9 449.3,44.8 451.4,44.4 453.4,44.2 455.5,43.8 457.5,43.5 459.5,43.4 461.6,43.3 463.6,43.2 465.7,43.0 467.7,42.8 469.8,42.5 471.8,42.3 473.9,42.0 475.9,41.8 478.0,41.7 480.0,41.5 482.0,41.3 484.1,41.0 486.1,40.6 488.2,40.4 490.2,40.1 492.3,40.0 494.3,39.8 496.4,39.7 498.4,39.5 500.5,39.4 502.5,39.2 504.5,38.8 506.6,38.6 508.6,38.4 510.7,38.2 512.7,38.0 514.8,37.8 516.8,37.6 518.9,37.4 520.9,37.2 523.0,37.0 525.0,36.8 527.0,36.5 529.1,36.3 531.1,36.2 533.2,36.1 535.2,35.9 537.3,35.7 539.3,35.5 541.4,35.3 543.4,35.3 545.5,35.1 547.5,34.6 549.5,34.3 551.6,40.7 553.6,39.5 555.7,37.0 557.7,36.1 559.8,35.0 561.8,33.6 563.9,32.8 565.9,32.3 568.0,31.4 570.0,30.0" />
  
  <!-- Punto finale luminoso -->
  <circle cx="570.0" cy="30.0" r="4" fill="#ffffff" stroke="#0366d6" stroke-width="2.5" />
</svg>