<svg width="600" height="150" viewBox="0 0 600 150" xmlns="http://www.w3.org/2000/svg">
  <defs>
    <filter id="shadow2" x="-2%" y="-2%" width="104%" height="108%">
      <feDropShadow dx="0" dy="2" stdDeviation="3" flood-opacity="0.1" />
    </filter>
    <linearGradient id="fillGrad" x1="0" y1="0" x2="0" y2="1">
      <stop offset="0%" stop-color="#0366d6" stop-opacity="0.3"/>
      <stop offset="100%" stop-color="#0366d6" stop-opacity="0.02"/>
    </linearGradient>
  </defs>
  <rect width="600" height="150" rx="12" fill="#ffffff" filter="url(#shadow2)" stroke="#e1e4e8" stroke-width="1"/>
  <text x="20" y="24" fill="#2b3137" font-family="-apple-system,BlinkMacSystemFont,'Segoe UI',Helvetica,Arial,sans-serif" font-size="14" font-weight="600">📈 Download Growth (Actual: 79.0k)</text>
  
  <!-- Area sotto la linea -->
  <polygon fill="url(#fillGrad)" points="30.0,120.0,120 30.0,120.0 32.2,119.2 34.4,118.3 36.7,117.5 38.9,117.3 41.1,116.8 43.3,115.9 45.6,115.2 47.8,114.8 50.0,113.8 52.2,113.3 54.4,112.8 56.7,112.5 58.9,112.1 61.1,111.4 63.3,110.7 65.6,110.1 67.8,109.8 70.0,109.5 72.2,109.1 74.4,108.5 76.7,108.1 78.9,107.9 81.1,107.4 83.3,105.8 85.6,105.4 87.8,104.8 90.0,104.1 92.2,103.6 94.4,103.1 96.7,102.7 98.9,102.5 101.1,102.0 103.3,101.3 105.6,100.6 107.8,100.2 110.0,99.6 112.2,99.5 114.4,99.4 116.7,99.1 118.9,98.6 121.1,98.3 123.3,98.1 125.6,97.5 127.8,96.7 130.0,96.5 132.2,96.3 134.4,96.0 136.7,95.3 138.9,94.8 141.1,94.2 143.3,93.7 145.6,93.0 147.8,92.9 150.0,92.5 152.2,91.9 154.4,91.3 156.7,90.8 158.9,90.6 161.1,90.3 163.3,90.0 165.6,89.3 167.8,88.6 170.0,88.0 172.2,87.5 174.4,87.2 176.7,87.0 178.9,86.7 181.1,86.3 183.3,85.9 185.6,85.7 187.8,85.4 190.0,85.2 192.2,84.9 194.4,84.7 196.7,84.5 198.9,84.3 201.1,83.7 203.3,83.3 205.6,83.2 207.8,83.0 210.0,82.9 212.2,82.9 214.4,93.5 216.7,92.4 218.9,91.5 221.1,90.5 223.3,87.6 225.6,85.6 227.8,83.4 230.0,82.6 232.2,81.7 234.4,80.2 236.7,78.6 238.9,77.4 241.1,77.0 243.3,76.6 245.6,75.4 247.8,74.5 250.0,74.0 252.2,73.3 254.4,73.0 256.7,72.9 258.9,72.3 261.1,71.3 263.3,70.6 265.6,69.9 267.8,69.1 270.0,68.7 272.2,68.4 274.4,67.7 276.7,67.1 278.9,66.5 281.1,66.1 283.3,65.9 285.6,65.7 287.8,65.3 290.0,64.8 292.2,64.4 294.4,64.1 296.7,63.8 298.9,63.4 301.1,63.1 303.3,62.9 305.6,62.6 307.8,62.4 310.0,61.8 312.2,61.4 314.4,60.9 316.7,60.6 318.9,60.3 321.1,60.1 323.3,59.9 325.6,59.6 327.8,58.9 330.0,58.3 332.2,57.7 334.4,57.4 336.7,57.4 338.9,57.1 341.1,56.8 343.3,56.3 345.6,56.0 347.8,55.5 350.0,55.2 352.2,55.0 354.4,54.8 356.7,54.6 358.9,54.4 361.1,54.1 363.3,53.8 365.6,53.3 367.8,53.1 370.0,53.0 372.2,52.8 374.4,52.6 376.7,52.2 378.9,51.9 381.1,51.5 383.3,51.2 385.6,50.9 387.8,50.6 390.0,50.5 392.2,50.2 394.4,49.8 396.7,49.3 398.9,49.0 401.1,48.7 403.3,48.1 405.6,48.0 407.8,47.8 410.0,47.6 412.2,47.3 414.4,47.1 416.7,46.7 418.9,46.5 421.1,46.2 423.3,46.0 425.6,45.8 427.8,45.6 430.0,45.4 432.2,45.1 434.4,44.7 436.7,44.5 438.9,44.2 441.1,44.0 443.3,43.8 445.6,43.6 447.8,43.4 450.0,43.2 452.2,42.9 454.4,42.5 456.7,42.0 458.9,41.7 461.1,41.4 463.3,41.3 465.6,41.2 467.8,40.9 470.0,40.4 472.2,40.3 474.4,40.1 476.7,39.8 478.9,39.5 481.1,39.2 483.3,39.1 485.6,38.9 487.8,38.5 490.0,38.2 492.2,37.9 494.4,37.5 496.7,37.4 498.9,37.3 501.1,37.2 503.3,36.9 505.6,36.7 507.8,36.4 510.0,36.2 512.2,35.9 514.4,35.7 516.7,35.5 518.9,35.3 521.1,35.1 523.3,34.8 525.6,34.4 527.8,34.1 530.0,33.9 532.2,33.7 534.4,33.5 536.7,33.4 538.9,33.2 541.1,33.1 543.3,32.9 545.6,32.5 547.8,32.3 550.0,32.0 552.2,31.9 554.4,31.6 556.7,31.4 558.9,31.1 561.1,30.9 563.3,30.7 565.6,30.5 567.8,30.2 570.0,30.0 570.0,30.0,120" />
  
  <!-- Linea principale -->
  <polyline fill="none" stroke="#0366d6" stroke-width="2.5" stroke-linecap="round" stroke-linejoin="round" points="30.0,120.0 32.2,119.2 34.4,118.3 36.7,117.5 38.9,117.3 41.1,116.8 43.3,115.9 45.6,115.2 47.8,114.8 50.0,113.8 52.2,113.3 54.4,112.8 56.7,112.5 58.9,112.1 61.1,111.4 63.3,110.7 65.6,110.1 67.8,109.8 70.0,109.5 72.2,109.1 74.4,108.5 76.7,108.1 78.9,107.9 81.1,107.4 83.3,105.8 85.6,105.4 87.8,104.8 90.0,104.1 92.2,103.6 94.4,103.1 96.7,102.7 98.9,102.5 101.1,102.0 103.3,101.3 105.6,100.6 107.8,100.2 110.0,99.6 112.2,99.5 114.4,99.4 116.7,99.1 118.9,98.6 121.1,98.3 123.3,98.1 125.6,97.5 127.8,96.7 130.0,96.5 132.2,96.3 134.4,96.0 136.7,95.3 138.9,94.8 141.1,94.2 143.3,93.7 145.6,93.0 147.8,92.9 150.0,92.5 152.2,91.9 154.4,91.3 156.7,90.8 158.9,90.6 161.1,90.3 163.3,90.0 165.6,89.3 167.8,88.6 170.0,88.0 172.2,87.5 174.4,87.2 176.7,87.0 178.9,86.7 181.1,86.3 183.3,85.9 185.6,85.7 187.8,85.4 190.0,85.2 192.2,84.9 194.4,84.7 196.7,84.5 198.9,84.3 201.1,83.7 203.3,83.3 205.6,83.2 207.8,83.0 210.0,82.9 212.2,82.9 214.4,93.5 216.7,92.4 218.9,91.5 221.1,90.5 223.3,87.6 225.6,85.6 227.8,83.4 230.0,82.6 232.2,81.7 234.4,80.2 236.7,78.6 238.9,77.4 241.1,77.0 243.3,76.6 245.6,75.4 247.8,74.5 250.0,74.0 252.2,73.3 254.4,73.0 256.7,72.9 258.9,72.3 261.1,71.3 263.3,70.6 265.6,69.9 267.8,69.1 270.0,68.7 272.2,68.4 274.4,67.7 276.7,67.1 278.9,66.5 281.1,66.1 283.3,65.9 285.6,65.7 287.8,65.3 290.0,64.8 292.2,64.4 294.4,64.1 296.7,63.8 298.9,63.4 301.1,63.1 303.3,62.9 305.6,62.6 307.8,62.4 310.0,61.8 312.2,61.4 314.4,60.9 316.7,60.6 318.9,60.3 321.1,60.1 323.3,59.9 325.6,59.6 327.8,58.9 330.0,58.3 332.2,57.7 334.4,57.4 336.7,57.4 338.9,57.1 341.1,56.8 343.3,56.3 345.6,56.0 347.8,55.5 350.0,55.2 352.2,55.0 354.4,54.8 356.7,54.6 358.9,54.4 361.1,54.1 363.3,53.8 365.6,53.3 367.8,53.1 370.0,53.0 372.2,52.8 374.4,52.6 376.7,52.2 378.9,51.9 381.1,51.5 383.3,51.2 385.6,50.9 387.8,50.6 390.0,50.5 392.2,50.2 394.4,49.8 396.7,49.3 398.9,49.0 401.1,48.7 403.3,48.1 405.6,48.0 407.8,47.8 410.0,47.6 412.2,47.3 414.4,47.1 416.7,46.7 418.9,46.5 421.1,46.2 423.3,46.0 425.6,45.8 427.8,45.6 430.0,45.4 432.2,45.1 434.4,44.7 436.7,44.5 438.9,44.2 441.1,44.0 443.3,43.8 445.6,43.6 447.8,43.4 450.0,43.2 452.2,42.9 454.4,42.5 456.7,42.0 458.9,41.7 461.1,41.4 463.3,41.3 465.6,41.2 467.8,40.9 470.0,40.4 472.2,40.3 474.4,40.1 476.7,39.8 478.9,39.5 481.1,39.2 483.3,39.1 485.6,38.9 487.8,38.5 490.0,38.2 492.2,37.9 494.4,37.5 496.7,37.4 498.9,37.3 501.1,37.2 503.3,36.9 505.6,36.7 507.8,36.4 510.0,36.2 512.2,35.9 514.4,35.7 516.7,35.5 518.9,35.3 521.1,35.1 523.3,34.8 525.6,34.4 527.8,34.1 530.0,33.9 532.2,33.7 534.4,33.5 536.7,33.4 538.9,33.2 541.1,33.1 543.3,32.9 545.6,32.5 547.8,32.3 550.0,32.0 552.2,31.9 554.4,31.6 556.7,31.4 558.9,31.1 561.1,30.9 563.3,30.7 565.6,30.5 567.8,30.2 570.0,30.0" />
  
  <!-- Punto finale luminoso -->
  <circle cx="570.0" cy="30.0" r="4" fill="#ffffff" stroke="#0366d6" stroke-width="2.5" />
</svg>