<svg width="600" height="150" viewBox="0 0 600 150" xmlns="http://www.w3.org/2000/svg">
  <defs>
    <filter id="shadow2" x="-2%" y="-2%" width="104%" height="108%">
      <feDropShadow dx="0" dy="2" stdDeviation="3" flood-opacity="0.1" />
    </filter>
    <linearGradient id="fillGrad" x1="0" y1="0" x2="0" y2="1">
      <stop offset="0%" stop-color="#0366d6" stop-opacity="0.3"/>
      <stop offset="100%" stop-color="#0366d6" stop-opacity="0.02"/>
    </linearGradient>
  </defs>
  <rect width="600" height="150" rx="12" fill="#ffffff" filter="url(#shadow2)" stroke="#e1e4e8" stroke-width="1"/>
  <text x="20" y="24" fill="#2b3137" font-family="-apple-system,BlinkMacSystemFont,'Segoe UI',Helvetica,Arial,sans-serif" font-size="14" font-weight="600">📈 Download Growth (Actual: 78.4k)</text>
  
  <!-- Area sotto la linea -->
  <polygon fill="url(#fillGrad)" points="30.0,120.0,120 30.0,120.0 32.4,119.1 34.8,118.2 37.2,117.4 39.6,117.1 42.1,116.7 44.5,115.7 46.9,115.0 49.3,114.6 51.7,113.5 54.1,113.0 56.5,112.5 58.9,112.2 61.3,111.7 63.8,111.0 66.2,110.2 68.6,109.7 71.0,109.3 73.4,109.0 75.8,108.5 78.2,108.0 80.6,107.5 83.0,107.3 85.4,106.8 87.9,105.2 90.3,104.7 92.7,104.0 95.1,103.4 97.5,102.8 99.9,102.3 102.3,101.9 104.7,101.6 107.1,101.2 109.6,100.4 112.0,99.7 114.4,99.2 116.8,98.7 119.2,98.5 121.6,98.4 124.0,98.1 126.4,97.6 128.8,97.2 131.2,97.0 133.7,96.4 136.1,95.5 138.5,95.3 140.9,95.2 143.3,94.8 145.7,94.1 148.1,93.6 150.5,92.9 152.9,92.4 155.4,91.7 157.8,91.6 160.2,91.2 162.6,90.6 165.0,89.9 167.4,89.4 169.8,89.2 172.2,88.8 174.6,88.5 177.1,87.8 179.5,87.1 181.9,86.5 184.3,85.9 186.7,85.6 189.1,85.4 191.5,85.1 193.9,84.6 196.3,84.3 198.8,84.0 201.2,83.8 203.6,83.5 206.0,83.2 208.4,82.9 210.8,82.8 213.2,82.6 215.6,81.9 218.0,81.6 220.4,81.4 222.9,81.2 225.3,81.1 227.7,81.1 230.1,92.2 232.5,91.1 234.9,90.1 237.3,89.1 239.7,86.1 242.1,84.0 244.6,81.7 247.0,80.8 249.4,79.9 251.8,78.3 254.2,76.6 256.6,75.4 259.0,74.9 261.4,74.5 263.8,73.2 266.2,72.4 268.7,71.8 271.1,71.1 273.5,70.8 275.9,70.6 278.3,70.0 280.7,69.0 283.1,68.2 285.5,67.5 287.9,66.6 290.4,66.2 292.8,65.9 295.2,65.2 297.6,64.6 300.0,64.0 302.4,63.5 304.8,63.2 307.2,63.1 309.6,62.7 312.1,62.2 314.5,61.8 316.9,61.4 319.3,61.0 321.7,60.7 324.1,60.4 326.5,60.1 328.9,59.9 331.3,59.6 333.8,59.0 336.2,58.6 338.6,58.1 341.0,57.8 343.4,57.4 345.8,57.2 348.2,57.0 350.6,56.7 353.0,55.9 355.4,55.4 357.9,54.7 360.3,54.4 362.7,54.4 365.1,54.0 367.5,53.7 369.9,53.3 372.3,52.9 374.7,52.4 377.1,52.1 379.6,51.9 382.0,51.7 384.4,51.4 386.8,51.2 389.2,50.9 391.6,50.6 394.0,50.1 396.4,49.9 398.8,49.7 401.2,49.5 403.7,49.4 406.1,48.9 408.5,48.6 410.9,48.2 413.3,47.9 415.7,47.5 418.1,47.3 420.5,47.1 422.9,46.9 425.4,46.4 427.8,45.9 430.2,45.6 432.6,45.2 435.0,44.6 437.4,44.5 439.8,44.3 442.2,44.1 444.6,43.8 447.1,43.5 449.5,43.2 451.9,43.0 454.3,42.7 456.7,42.4 459.1,42.2 461.5,42.0 463.9,41.8 466.3,41.5 468.8,41.1 471.2,40.9 473.6,40.5 476.0,40.4 478.4,40.1 480.8,39.9 483.2,39.7 485.6,39.5 488.0,39.2 490.4,38.7 492.9,38.2 495.3,37.9 497.7,37.6 500.1,37.5 502.5,37.4 504.9,37.1 507.3,36.6 509.7,36.4 512.1,36.2 514.6,35.9 517.0,35.7 519.4,35.3 521.8,35.2 524.2,35.0 526.6,34.6 529.0,34.3 531.4,33.9 533.8,33.6 536.2,33.4 538.7,33.3 541.1,33.2 543.5,32.9 545.9,32.7 548.3,32.4 550.7,32.1 553.1,31.8 555.5,31.6 557.9,31.5 560.4,31.2 562.8,31.0 565.2,30.6 567.6,30.3 570.0,30.0 570.0,30.0,120" />
  
  <!-- Linea principale -->
  <polyline fill="none" stroke="#0366d6" stroke-width="2.5" stroke-linecap="round" stroke-linejoin="round" points="30.0,120.0 32.4,119.1 34.8,118.2 37.2,117.4 39.6,117.1 42.1,116.7 44.5,115.7 46.9,115.0 49.3,114.6 51.7,113.5 54.1,113.0 56.5,112.5 58.9,112.2 61.3,111.7 63.8,111.0 66.2,110.2 68.6,109.7 71.0,109.3 73.4,109.0 75.8,108.5 78.2,108.0 80.6,107.5 83.0,107.3 85.4,106.8 87.9,105.2 90.3,104.7 92.7,104.0 95.1,103.4 97.5,102.8 99.9,102.3 102.3,101.9 104.7,101.6 107.1,101.2 109.6,100.4 112.0,99.7 114.4,99.2 116.8,98.7 119.2,98.5 121.6,98.4 124.0,98.1 126.4,97.6 128.8,97.2 131.2,97.0 133.7,96.4 136.1,95.5 138.5,95.3 140.9,95.2 143.3,94.8 145.7,94.1 148.1,93.6 150.5,92.9 152.9,92.4 155.4,91.7 157.8,91.6 160.2,91.2 162.6,90.6 165.0,89.9 167.4,89.4 169.8,89.2 172.2,88.8 174.6,88.5 177.1,87.8 179.5,87.1 181.9,86.5 184.3,85.9 186.7,85.6 189.1,85.4 191.5,85.1 193.9,84.6 196.3,84.3 198.8,84.0 201.2,83.8 203.6,83.5 206.0,83.2 208.4,82.9 210.8,82.8 213.2,82.6 215.6,81.9 218.0,81.6 220.4,81.4 222.9,81.2 225.3,81.1 227.7,81.1 230.1,92.2 232.5,91.1 234.9,90.1 237.3,89.1 239.7,86.1 242.1,84.0 244.6,81.7 247.0,80.8 249.4,79.9 251.8,78.3 254.2,76.6 256.6,75.4 259.0,74.9 261.4,74.5 263.8,73.2 266.2,72.4 268.7,71.8 271.1,71.1 273.5,70.8 275.9,70.6 278.3,70.0 280.7,69.0 283.1,68.2 285.5,67.5 287.9,66.6 290.4,66.2 292.8,65.9 295.2,65.2 297.6,64.6 300.0,64.0 302.4,63.5 304.8,63.2 307.2,63.1 309.6,62.7 312.1,62.2 314.5,61.8 316.9,61.4 319.3,61.0 321.7,60.7 324.1,60.4 326.5,60.1 328.9,59.9 331.3,59.6 333.8,59.0 336.2,58.6 338.6,58.1 341.0,57.8 343.4,57.4 345.8,57.2 348.2,57.0 350.6,56.7 353.0,55.9 355.4,55.4 357.9,54.7 360.3,54.4 362.7,54.4 365.1,54.0 367.5,53.7 369.9,53.3 372.3,52.9 374.7,52.4 377.1,52.1 379.6,51.9 382.0,51.7 384.4,51.4 386.8,51.2 389.2,50.9 391.6,50.6 394.0,50.1 396.4,49.9 398.8,49.7 401.2,49.5 403.7,49.4 406.1,48.9 408.5,48.6 410.9,48.2 413.3,47.9 415.7,47.5 418.1,47.3 420.5,47.1 422.9,46.9 425.4,46.4 427.8,45.9 430.2,45.6 432.6,45.2 435.0,44.6 437.4,44.5 439.8,44.3 442.2,44.1 444.6,43.8 447.1,43.5 449.5,43.2 451.9,43.0 454.3,42.7 456.7,42.4 459.1,42.2 461.5,42.0 463.9,41.8 466.3,41.5 468.8,41.1 471.2,40.9 473.6,40.5 476.0,40.4 478.4,40.1 480.8,39.9 483.2,39.7 485.6,39.5 488.0,39.2 490.4,38.7 492.9,38.2 495.3,37.9 497.7,37.6 500.1,37.5 502.5,37.4 504.9,37.1 507.3,36.6 509.7,36.4 512.1,36.2 514.6,35.9 517.0,35.7 519.4,35.3 521.8,35.2 524.2,35.0 526.6,34.6 529.0,34.3 531.4,33.9 533.8,33.6 536.2,33.4 538.7,33.3 541.1,33.2 543.5,32.9 545.9,32.7 548.3,32.4 550.7,32.1 553.1,31.8 555.5,31.6 557.9,31.5 560.4,31.2 562.8,31.0 565.2,30.6 567.6,30.3 570.0,30.0" />
  
  <!-- Punto finale luminoso -->
  <circle cx="570.0" cy="30.0" r="4" fill="#ffffff" stroke="#0366d6" stroke-width="2.5" />
</svg>