<svg width="600" height="150" viewBox="0 0 600 150" xmlns="http://www.w3.org/2000/svg">
  <defs>
    <filter id="shadow2" x="-2%" y="-2%" width="104%" height="108%">
      <feDropShadow dx="0" dy="2" stdDeviation="3" flood-opacity="0.1" />
    </filter>
    <linearGradient id="fillGrad" x1="0" y1="0" x2="0" y2="1">
      <stop offset="0%" stop-color="#0366d6" stop-opacity="0.3"/>
      <stop offset="100%" stop-color="#0366d6" stop-opacity="0.02"/>
    </linearGradient>
  </defs>
  <rect width="600" height="150" rx="12" fill="#ffffff" filter="url(#shadow2)" stroke="#e1e4e8" stroke-width="1"/>
  <text x="20" y="24" fill="#2b3137" font-family="-apple-system,BlinkMacSystemFont,'Segoe UI',Helvetica,Arial,sans-serif" font-size="14" font-weight="600">📈 Download Growth (Actual: 86.3k)</text>
  
  <!-- Area sotto la linea -->
  <polygon fill="url(#fillGrad)" points="30.0,120.0,120 30.0,120.0 31.4,119.5 32.8,118.9 34.2,118.4 35.7,118.3 37.1,118.0 38.5,117.4 39.9,117.0 41.3,116.8 42.7,116.1 44.1,115.8 45.5,115.5 47.0,115.3 48.4,115.1 49.8,114.6 51.2,114.2 52.6,113.9 54.0,113.6 55.4,113.5 56.9,113.2 58.3,112.9 59.7,112.6 61.1,112.4 62.5,112.2 63.9,111.2 65.3,110.9 66.8,110.5 68.2,110.1 69.6,109.8 71.0,109.5 72.4,109.3 73.8,109.1 75.2,108.8 76.6,108.3 78.1,107.9 79.5,107.7 80.9,107.3 82.3,107.2 83.7,107.2 85.1,107.0 86.5,106.7 88.0,106.5 89.4,106.4 90.8,106.0 92.2,105.5 93.6,105.3 95.0,105.2 96.4,105.0 97.9,104.6 99.3,104.3 100.7,103.9 102.1,103.6 103.5,103.2 104.9,103.1 106.3,102.9 107.7,102.5 109.2,102.1 110.6,101.8 112.0,101.7 113.4,101.5 114.8,101.3 116.2,100.9 117.6,100.5 119.1,100.1 120.5,99.8 121.9,99.6 123.3,99.5 124.7,99.3 126.1,99.0 127.5,98.8 129.0,98.6 130.4,98.5 131.8,98.4 133.2,98.1 134.6,98.0 136.0,97.9 137.4,97.8 138.8,97.4 140.3,97.2 141.7,97.1 143.1,97.0 144.5,96.9 145.9,96.9 147.3,103.5 148.7,102.9 150.2,102.3 151.6,101.7 153.0,99.9 154.4,98.6 155.8,97.2 157.2,96.7 158.6,96.2 160.1,95.3 161.5,94.2 162.9,93.5 164.3,93.2 165.7,93.0 167.1,92.2 168.5,91.7 169.9,91.4 171.4,91.0 172.8,90.8 174.2,90.7 175.6,90.3 177.0,89.7 178.4,89.3 179.8,88.8 181.3,88.3 182.7,88.1 184.1,87.9 185.5,87.5 186.9,87.1 188.3,86.7 189.7,86.4 191.2,86.3 192.6,86.2 194.0,86.0 195.4,85.7 196.8,85.4 198.2,85.2 199.6,85.0 201.0,84.8 202.5,84.6 203.9,84.4 205.3,84.3 206.7,84.1 208.1,83.8 209.5,83.5 210.9,83.2 212.4,83.1 213.8,82.9 215.2,82.7 216.6,82.6 218.0,82.4 219.4,81.9 220.8,81.6 222.3,81.2 223.7,81.1 225.1,81.0 226.5,80.8 227.9,80.6 229.3,80.4 230.7,80.2 232.1,79.9 233.6,79.7 235.0,79.6 236.4,79.4 237.8,79.3 239.2,79.2 240.6,79.0 242.0,78.8 243.5,78.5 244.9,78.4 246.3,78.3 247.7,78.2 249.1,78.1 250.5,77.8 251.9,77.6 253.4,77.4 254.8,77.2 256.2,77.0 257.6,76.8 259.0,76.7 260.4,76.6 261.8,76.3 263.2,76.0 264.7,75.8 266.1,75.6 267.5,75.2 268.9,75.2 270.3,75.0 271.7,75.0 273.1,74.8 274.6,74.6 276.0,74.4 277.4,74.3 278.8,74.1 280.2,74.0 281.6,73.8 283.0,73.7 284.5,73.6 285.9,73.4 287.3,73.1 288.7,73.0 290.1,72.8 291.5,72.7 292.9,72.6 294.3,72.4 295.8,72.3 297.2,72.2 298.6,72.0 300.0,71.8 301.4,71.4 302.8,71.3 304.2,71.1 305.7,71.0 307.1,71.0 308.5,70.8 309.9,70.5 311.3,70.4 312.7,70.3 314.1,70.1 315.5,69.9 317.0,69.7 318.4,69.6 319.8,69.5 321.2,69.3 322.6,69.1 324.0,68.9 325.4,68.7 326.9,68.6 328.3,68.5 329.7,68.5 331.1,68.3 332.5,68.2 333.9,68.0 335.3,67.8 336.8,67.7 338.2,67.5 339.6,67.4 341.0,67.3 342.4,67.2 343.8,67.0 345.2,66.7 346.6,66.6 348.1,66.4 349.5,66.3 350.9,66.2 352.3,66.1 353.7,66.0 355.1,65.9 356.5,65.8 358.0,65.5 359.4,65.4 360.8,65.2 362.2,65.1 363.6,65.0 365.0,64.9 366.4,64.7 367.9,64.6 369.3,64.5 370.7,64.3 372.1,64.1 373.5,64.0 374.9,63.8 376.3,63.8 377.7,63.7 379.2,63.5 380.6,63.4 382.0,63.3 383.4,63.2 384.8,63.1 386.2,63.0 387.6,62.7 389.1,62.5 390.5,66.8 391.9,66.0 393.3,64.3 394.7,63.7 396.1,62.9 397.5,62.0 399.0,61.5 400.4,61.2 401.8,60.5 403.2,59.6 404.6,58.9 406.0,58.7 407.4,58.3 408.8,58.1 410.3,57.6 411.7,57.1 413.1,56.6 414.5,56.3 415.9,55.9 417.3,55.6 418.7,55.3 420.2,55.1 421.6,54.8 423.0,54.6 424.4,54.1 425.8,53.8 427.2,53.4 428.6,52.8 430.1,52.4 431.5,52.2 432.9,52.1 434.3,51.8 435.7,51.5 437.1,51.1 438.5,50.8 439.9,49.9 441.4,49.3 442.8,48.9 444.2,48.8 445.6,48.5 447.0,48.0 448.4,47.6 449.8,47.3 451.3,47.0 452.7,46.7 454.1,46.4 455.5,46.1 456.9,45.7 458.3,45.5 459.7,45.3 461.2,45.1 462.6,44.7 464.0,44.5 465.4,44.2 466.8,44.1 468.2,43.9 469.6,43.7 471.0,43.5 472.5,43.3 473.9,43.1 475.3,43.0 476.7,42.8 478.1,42.5 479.5,42.3 480.9,42.0 482.4,41.6 483.8,41.3 485.2,41.2 486.6,41.0 488.0,40.9 489.4,40.7 490.8,40.5 492.3,40.3 493.7,40.2 495.1,40.1 496.5,39.9 497.9,39.7 499.3,39.4 500.7,39.3 502.1,39.1 503.6,38.9 505.0,38.6 506.4,38.2 507.8,38.0 509.2,37.8 510.6,37.6 512.0,37.4 513.5,37.1 514.9,36.9 516.3,36.7 517.7,36.6 519.1,36.5 520.5,36.2 521.9,36.0 523.4,35.8 524.8,35.7 526.2,35.5 527.6,35.2 529.0,35.0 530.4,34.8 531.8,34.6 533.2,34.3 534.7,34.1 536.1,33.9 537.5,33.8 538.9,33.6 540.3,33.4 541.7,33.2 543.1,33.0 544.6,32.8 546.0,32.7 547.4,32.5 548.8,32.4 550.2,32.2 551.6,32.1 553.0,31.9 554.5,31.8 555.9,31.7 557.3,31.5 558.7,31.3 560.1,31.2 561.5,31.0 562.9,30.9 564.3,30.7 565.8,30.5 567.2,30.3 568.6,30.2 570.0,30.0 570.0,30.0,120" />
  
  <!-- Linea principale -->
  <polyline fill="none" stroke="#0366d6" stroke-width="2.5" stroke-linecap="round" stroke-linejoin="round" points="30.0,120.0 31.4,119.5 32.8,118.9 34.2,118.4 35.7,118.3 37.1,118.0 38.5,117.4 39.9,117.0 41.3,116.8 42.7,116.1 44.1,115.8 45.5,115.5 47.0,115.3 48.4,115.1 49.8,114.6 51.2,114.2 52.6,113.9 54.0,113.6 55.4,113.5 56.9,113.2 58.3,112.9 59.7,112.6 61.1,112.4 62.5,112.2 63.9,111.2 65.3,110.9 66.8,110.5 68.2,110.1 69.6,109.8 71.0,109.5 72.4,109.3 73.8,109.1 75.2,108.8 76.6,108.3 78.1,107.9 79.5,107.7 80.9,107.3 82.3,107.2 83.7,107.2 85.1,107.0 86.5,106.7 88.0,106.5 89.4,106.4 90.8,106.0 92.2,105.5 93.6,105.3 95.0,105.2 96.4,105.0 97.9,104.6 99.3,104.3 100.7,103.9 102.1,103.6 103.5,103.2 104.9,103.1 106.3,102.9 107.7,102.5 109.2,102.1 110.6,101.8 112.0,101.7 113.4,101.5 114.8,101.3 116.2,100.9 117.6,100.5 119.1,100.1 120.5,99.8 121.9,99.6 123.3,99.5 124.7,99.3 126.1,99.0 127.5,98.8 129.0,98.6 130.4,98.5 131.8,98.4 133.2,98.1 134.6,98.0 136.0,97.9 137.4,97.8 138.8,97.4 140.3,97.2 141.7,97.1 143.1,97.0 144.5,96.9 145.9,96.9 147.3,103.5 148.7,102.9 150.2,102.3 151.6,101.7 153.0,99.9 154.4,98.6 155.8,97.2 157.2,96.7 158.6,96.2 160.1,95.3 161.5,94.2 162.9,93.5 164.3,93.2 165.7,93.0 167.1,92.2 168.5,91.7 169.9,91.4 171.4,91.0 172.8,90.8 174.2,90.7 175.6,90.3 177.0,89.7 178.4,89.3 179.8,88.8 181.3,88.3 182.7,88.1 184.1,87.9 185.5,87.5 186.9,87.1 188.3,86.7 189.7,86.4 191.2,86.3 192.6,86.2 194.0,86.0 195.4,85.7 196.8,85.4 198.2,85.2 199.6,85.0 201.0,84.8 202.5,84.6 203.9,84.4 205.3,84.3 206.7,84.1 208.1,83.8 209.5,83.5 210.9,83.2 212.4,83.1 213.8,82.9 215.2,82.7 216.6,82.6 218.0,82.4 219.4,81.9 220.8,81.6 222.3,81.2 223.7,81.1 225.1,81.0 226.5,80.8 227.9,80.6 229.3,80.4 230.7,80.2 232.1,79.9 233.6,79.7 235.0,79.6 236.4,79.4 237.8,79.3 239.2,79.2 240.6,79.0 242.0,78.8 243.5,78.5 244.9,78.4 246.3,78.3 247.7,78.2 249.1,78.1 250.5,77.8 251.9,77.6 253.4,77.4 254.8,77.2 256.2,77.0 257.6,76.8 259.0,76.7 260.4,76.6 261.8,76.3 263.2,76.0 264.7,75.8 266.1,75.6 267.5,75.2 268.9,75.2 270.3,75.0 271.7,75.0 273.1,74.8 274.6,74.6 276.0,74.4 277.4,74.3 278.8,74.1 280.2,74.0 281.6,73.8 283.0,73.7 284.5,73.6 285.9,73.4 287.3,73.1 288.7,73.0 290.1,72.8 291.5,72.7 292.9,72.6 294.3,72.4 295.8,72.3 297.2,72.2 298.6,72.0 300.0,71.8 301.4,71.4 302.8,71.3 304.2,71.1 305.7,71.0 307.1,71.0 308.5,70.8 309.9,70.5 311.3,70.4 312.7,70.3 314.1,70.1 315.5,69.9 317.0,69.7 318.4,69.6 319.8,69.5 321.2,69.3 322.6,69.1 324.0,68.9 325.4,68.7 326.9,68.6 328.3,68.5 329.7,68.5 331.1,68.3 332.5,68.2 333.9,68.0 335.3,67.8 336.8,67.7 338.2,67.5 339.6,67.4 341.0,67.3 342.4,67.2 343.8,67.0 345.2,66.7 346.6,66.6 348.1,66.4 349.5,66.3 350.9,66.2 352.3,66.1 353.7,66.0 355.1,65.9 356.5,65.8 358.0,65.5 359.4,65.4 360.8,65.2 362.2,65.1 363.6,65.0 365.0,64.9 366.4,64.7 367.9,64.6 369.3,64.5 370.7,64.3 372.1,64.1 373.5,64.0 374.9,63.8 376.3,63.8 377.7,63.7 379.2,63.5 380.6,63.4 382.0,63.3 383.4,63.2 384.8,63.1 386.2,63.0 387.6,62.7 389.1,62.5 390.5,66.8 391.9,66.0 393.3,64.3 394.7,63.7 396.1,62.9 397.5,62.0 399.0,61.5 400.4,61.2 401.8,60.5 403.2,59.6 404.6,58.9 406.0,58.7 407.4,58.3 408.8,58.1 410.3,57.6 411.7,57.1 413.1,56.6 414.5,56.3 415.9,55.9 417.3,55.6 418.7,55.3 420.2,55.1 421.6,54.8 423.0,54.6 424.4,54.1 425.8,53.8 427.2,53.4 428.6,52.8 430.1,52.4 431.5,52.2 432.9,52.1 434.3,51.8 435.7,51.5 437.1,51.1 438.5,50.8 439.9,49.9 441.4,49.3 442.8,48.9 444.2,48.8 445.6,48.5 447.0,48.0 448.4,47.6 449.8,47.3 451.3,47.0 452.7,46.7 454.1,46.4 455.5,46.1 456.9,45.7 458.3,45.5 459.7,45.3 461.2,45.1 462.6,44.7 464.0,44.5 465.4,44.2 466.8,44.1 468.2,43.9 469.6,43.7 471.0,43.5 472.5,43.3 473.9,43.1 475.3,43.0 476.7,42.8 478.1,42.5 479.5,42.3 480.9,42.0 482.4,41.6 483.8,41.3 485.2,41.2 486.6,41.0 488.0,40.9 489.4,40.7 490.8,40.5 492.3,40.3 493.7,40.2 495.1,40.1 496.5,39.9 497.9,39.7 499.3,39.4 500.7,39.3 502.1,39.1 503.6,38.9 505.0,38.6 506.4,38.2 507.8,38.0 509.2,37.8 510.6,37.6 512.0,37.4 513.5,37.1 514.9,36.9 516.3,36.7 517.7,36.6 519.1,36.5 520.5,36.2 521.9,36.0 523.4,35.8 524.8,35.7 526.2,35.5 527.6,35.2 529.0,35.0 530.4,34.8 531.8,34.6 533.2,34.3 534.7,34.1 536.1,33.9 537.5,33.8 538.9,33.6 540.3,33.4 541.7,33.2 543.1,33.0 544.6,32.8 546.0,32.7 547.4,32.5 548.8,32.4 550.2,32.2 551.6,32.1 553.0,31.9 554.5,31.8 555.9,31.7 557.3,31.5 558.7,31.3 560.1,31.2 561.5,31.0 562.9,30.9 564.3,30.7 565.8,30.5 567.2,30.3 568.6,30.2 570.0,30.0" />
  
  <!-- Punto finale luminoso -->
  <circle cx="570.0" cy="30.0" r="4" fill="#ffffff" stroke="#0366d6" stroke-width="2.5" />
</svg>