<svg width="600" height="150" viewBox="0 0 600 150" xmlns="http://www.w3.org/2000/svg">
  <defs>
    <filter id="shadow2" x="-2%" y="-2%" width="104%" height="108%">
      <feDropShadow dx="0" dy="2" stdDeviation="3" flood-opacity="0.1" />
    </filter>
    <linearGradient id="fillGrad" x1="0" y1="0" x2="0" y2="1">
      <stop offset="0%" stop-color="#0366d6" stop-opacity="0.3"/>
      <stop offset="100%" stop-color="#0366d6" stop-opacity="0.02"/>
    </linearGradient>
  </defs>
  <rect width="600" height="150" rx="12" fill="#ffffff" filter="url(#shadow2)" stroke="#e1e4e8" stroke-width="1"/>
  <text x="20" y="24" fill="#2b3137" font-family="-apple-system,BlinkMacSystemFont,'Segoe UI',Helvetica,Arial,sans-serif" font-size="14" font-weight="600">📈 Download Growth (Actual: 78.5k)</text>
  
  <!-- Area sotto la linea -->
  <polygon fill="url(#fillGrad)" points="30.0,120.0,120 30.0,120.0 32.4,119.1 34.8,118.2 37.2,117.4 39.6,117.1 42.0,116.7 44.4,115.7 46.8,115.0 49.2,114.6 51.6,113.5 54.0,113.0 56.4,112.5 58.8,112.2 61.2,111.7 63.6,111.0 66.0,110.3 68.4,109.7 70.8,109.3 73.2,109.0 75.6,108.6 78.0,108.0 80.4,107.5 82.8,107.3 85.2,106.8 87.6,105.2 90.0,104.7 92.4,104.1 94.8,103.4 97.2,102.9 99.6,102.3 102.0,102.0 104.4,101.7 106.8,101.2 109.2,100.4 111.6,99.7 114.0,99.3 116.4,98.7 118.8,98.6 121.2,98.4 123.6,98.1 126.0,97.6 128.4,97.3 130.8,97.1 133.2,96.5 135.6,95.6 138.0,95.4 140.4,95.2 142.8,94.9 145.2,94.2 147.6,93.7 150.0,93.0 152.4,92.5 154.8,91.8 157.2,91.7 159.6,91.3 162.0,90.7 164.4,90.0 166.8,89.5 169.2,89.3 171.6,88.9 174.0,88.6 176.4,87.9 178.8,87.2 181.2,86.6 183.6,86.0 186.0,85.7 188.4,85.5 190.8,85.2 193.2,84.7 195.6,84.4 198.0,84.1 200.4,83.9 202.8,83.7 205.2,83.3 207.6,83.1 210.0,82.9 212.4,82.7 214.8,82.1 217.2,81.7 219.6,81.6 222.0,81.3 224.4,81.2 226.8,81.2 229.2,92.3 231.6,91.2 234.0,90.2 236.4,89.2 238.8,86.2 241.2,84.1 243.6,81.8 246.0,81.0 248.4,80.0 250.8,78.4 253.2,76.8 255.6,75.5 258.0,75.0 260.4,74.6 262.8,73.4 265.2,72.5 267.6,71.9 270.0,71.2 272.4,70.9 274.8,70.8 277.2,70.2 279.6,69.1 282.0,68.4 284.4,67.6 286.8,66.8 289.2,66.4 291.6,66.1 294.0,65.4 296.4,64.7 298.8,64.1 301.2,63.6 303.6,63.4 306.0,63.3 308.4,62.9 310.8,62.3 313.2,61.9 315.6,61.5 318.0,61.2 320.4,60.9 322.8,60.6 325.2,60.3 327.6,60.0 330.0,59.8 332.4,59.2 334.8,58.8 337.2,58.3 339.6,58.0 342.0,57.6 344.4,57.4 346.8,57.2 349.2,56.9 351.6,56.1 354.0,55.6 356.4,54.9 358.8,54.6 361.2,54.6 363.6,54.3 366.0,53.9 368.4,53.5 370.8,53.1 373.2,52.6 375.6,52.3 378.0,52.1 380.4,51.9 382.8,51.6 385.2,51.4 387.6,51.1 390.0,50.8 392.4,50.3 394.8,50.1 397.2,50.0 399.6,49.7 402.0,49.6 404.4,49.2 406.8,48.8 409.2,48.4 411.6,48.1 414.0,47.8 416.4,47.5 418.8,47.3 421.2,47.1 423.6,46.6 426.0,46.1 428.4,45.8 430.8,45.5 433.2,44.8 435.6,44.7 438.0,44.5 440.4,44.4 442.8,44.0 445.2,43.8 447.6,43.4 450.0,43.2 452.4,42.9 454.8,42.7 457.2,42.4 459.6,42.2 462.0,42.1 464.4,41.8 466.8,41.3 469.2,41.1 471.6,40.8 474.0,40.6 476.4,40.4 478.8,40.1 481.2,39.9 483.6,39.7 486.0,39.5 488.4,39.0 490.8,38.5 493.2,38.1 495.6,37.9 498.0,37.8 500.4,37.6 502.8,37.3 505.2,36.9 507.6,36.7 510.0,36.5 512.4,36.2 514.8,35.9 517.2,35.6 519.6,35.4 522.0,35.2 524.4,34.8 526.8,34.6 529.2,34.2 531.6,33.8 534.0,33.7 536.4,33.6 538.8,33.5 541.2,33.2 543.6,33.0 546.0,32.7 548.4,32.4 550.8,32.1 553.2,31.9 555.6,31.7 558.0,31.5 560.4,31.3 562.8,30.9 565.2,30.6 567.6,30.3 570.0,30.0 570.0,30.0,120" />
  
  <!-- Linea principale -->
  <polyline fill="none" stroke="#0366d6" stroke-width="2.5" stroke-linecap="round" stroke-linejoin="round" points="30.0,120.0 32.4,119.1 34.8,118.2 37.2,117.4 39.6,117.1 42.0,116.7 44.4,115.7 46.8,115.0 49.2,114.6 51.6,113.5 54.0,113.0 56.4,112.5 58.8,112.2 61.2,111.7 63.6,111.0 66.0,110.3 68.4,109.7 70.8,109.3 73.2,109.0 75.6,108.6 78.0,108.0 80.4,107.5 82.8,107.3 85.2,106.8 87.6,105.2 90.0,104.7 92.4,104.1 94.8,103.4 97.2,102.9 99.6,102.3 102.0,102.0 104.4,101.7 106.8,101.2 109.2,100.4 111.6,99.7 114.0,99.3 116.4,98.7 118.8,98.6 121.2,98.4 123.6,98.1 126.0,97.6 128.4,97.3 130.8,97.1 133.2,96.5 135.6,95.6 138.0,95.4 140.4,95.2 142.8,94.9 145.2,94.2 147.6,93.7 150.0,93.0 152.4,92.5 154.8,91.8 157.2,91.7 159.6,91.3 162.0,90.7 164.4,90.0 166.8,89.5 169.2,89.3 171.6,88.9 174.0,88.6 176.4,87.9 178.8,87.2 181.2,86.6 183.6,86.0 186.0,85.7 188.4,85.5 190.8,85.2 193.2,84.7 195.6,84.4 198.0,84.1 200.4,83.9 202.8,83.7 205.2,83.3 207.6,83.1 210.0,82.9 212.4,82.7 214.8,82.1 217.2,81.7 219.6,81.6 222.0,81.3 224.4,81.2 226.8,81.2 229.2,92.3 231.6,91.2 234.0,90.2 236.4,89.2 238.8,86.2 241.2,84.1 243.6,81.8 246.0,81.0 248.4,80.0 250.8,78.4 253.2,76.8 255.6,75.5 258.0,75.0 260.4,74.6 262.8,73.4 265.2,72.5 267.6,71.9 270.0,71.2 272.4,70.9 274.8,70.8 277.2,70.2 279.6,69.1 282.0,68.4 284.4,67.6 286.8,66.8 289.2,66.4 291.6,66.1 294.0,65.4 296.4,64.7 298.8,64.1 301.2,63.6 303.6,63.4 306.0,63.3 308.4,62.9 310.8,62.3 313.2,61.9 315.6,61.5 318.0,61.2 320.4,60.9 322.8,60.6 325.2,60.3 327.6,60.0 330.0,59.8 332.4,59.2 334.8,58.8 337.2,58.3 339.6,58.0 342.0,57.6 344.4,57.4 346.8,57.2 349.2,56.9 351.6,56.1 354.0,55.6 356.4,54.9 358.8,54.6 361.2,54.6 363.6,54.3 366.0,53.9 368.4,53.5 370.8,53.1 373.2,52.6 375.6,52.3 378.0,52.1 380.4,51.9 382.8,51.6 385.2,51.4 387.6,51.1 390.0,50.8 392.4,50.3 394.8,50.1 397.2,50.0 399.6,49.7 402.0,49.6 404.4,49.2 406.8,48.8 409.2,48.4 411.6,48.1 414.0,47.8 416.4,47.5 418.8,47.3 421.2,47.1 423.6,46.6 426.0,46.1 428.4,45.8 430.8,45.5 433.2,44.8 435.6,44.7 438.0,44.5 440.4,44.4 442.8,44.0 445.2,43.8 447.6,43.4 450.0,43.2 452.4,42.9 454.8,42.7 457.2,42.4 459.6,42.2 462.0,42.1 464.4,41.8 466.8,41.3 469.2,41.1 471.6,40.8 474.0,40.6 476.4,40.4 478.8,40.1 481.2,39.9 483.6,39.7 486.0,39.5 488.4,39.0 490.8,38.5 493.2,38.1 495.6,37.9 498.0,37.8 500.4,37.6 502.8,37.3 505.2,36.9 507.6,36.7 510.0,36.5 512.4,36.2 514.8,35.9 517.2,35.6 519.6,35.4 522.0,35.2 524.4,34.8 526.8,34.6 529.2,34.2 531.6,33.8 534.0,33.7 536.4,33.6 538.8,33.5 541.2,33.2 543.6,33.0 546.0,32.7 548.4,32.4 550.8,32.1 553.2,31.9 555.6,31.7 558.0,31.5 560.4,31.3 562.8,30.9 565.2,30.6 567.6,30.3 570.0,30.0" />
  
  <!-- Punto finale luminoso -->
  <circle cx="570.0" cy="30.0" r="4" fill="#ffffff" stroke="#0366d6" stroke-width="2.5" />
</svg>