<svg width="600" height="150" viewBox="0 0 600 150" xmlns="http://www.w3.org/2000/svg">
  <defs>
    <filter id="shadow2" x="-2%" y="-2%" width="104%" height="108%">
      <feDropShadow dx="0" dy="2" stdDeviation="3" flood-opacity="0.1" />
    </filter>
    <linearGradient id="fillGrad" x1="0" y1="0" x2="0" y2="1">
      <stop offset="0%" stop-color="#0366d6" stop-opacity="0.3"/>
      <stop offset="100%" stop-color="#0366d6" stop-opacity="0.02"/>
    </linearGradient>
  </defs>
  <rect width="600" height="150" rx="12" fill="#ffffff" filter="url(#shadow2)" stroke="#e1e4e8" stroke-width="1"/>
  <text x="20" y="24" fill="#2b3137" font-family="-apple-system,BlinkMacSystemFont,'Segoe UI',Helvetica,Arial,sans-serif" font-size="14" font-weight="600">📈 Download Growth (Actual: 75.8k)</text>
  
  <!-- Area sotto la linea -->
  <polygon fill="url(#fillGrad)" points="30.0,120.0,120 30.0,120.0 33.6,118.9 37.2,117.7 40.7,116.6 44.3,116.3 47.9,115.7 51.5,114.4 55.0,113.6 58.6,113.0 62.2,111.6 65.8,111.0 69.3,110.3 72.9,109.9 76.5,109.3 80.1,108.4 83.6,107.4 87.2,106.7 90.8,106.2 94.4,105.8 97.9,105.2 101.5,104.5 105.1,103.9 108.7,103.6 112.3,103.0 115.8,100.9 119.4,100.2 123.0,99.4 126.6,98.6 130.1,97.8 133.7,97.1 137.3,96.7 140.9,96.3 144.4,95.7 148.0,94.7 151.6,93.8 155.2,93.2 158.7,92.5 162.3,92.3 165.9,92.1 169.5,91.8 173.0,91.1 176.6,90.7 180.2,90.4 183.8,89.6 187.4,88.5 190.9,88.2 194.5,88.0 198.1,87.5 201.7,86.6 205.2,86.0 208.8,85.1 212.4,84.4 216.0,83.6 219.5,83.4 223.1,82.9 226.7,82.1 230.3,81.2 233.8,80.6 237.4,80.3 241.0,79.9 244.6,79.5 248.1,78.5 251.7,77.6 255.3,76.8 258.9,76.1 262.5,75.7 266.0,75.4 269.6,75.1 273.2,74.4 276.8,74.0 280.3,73.6 283.9,73.3 287.5,73.0 291.1,72.6 294.6,72.3 298.2,72.1 301.8,71.8 305.4,71.0 308.9,70.5 312.5,70.3 316.1,70.0 319.7,69.9 323.2,69.9 326.8,84.2 330.4,82.8 334.0,81.5 337.5,80.2 341.1,76.3 344.7,73.6 348.3,70.6 351.9,69.6 355.4,68.3 359.0,66.3 362.6,64.1 366.2,62.5 369.7,61.9 373.3,61.3 376.9,59.8 380.5,58.6 384.0,57.9 387.6,57.0 391.2,56.6 394.8,56.4 398.3,55.6 401.9,54.3 405.5,53.3 409.1,52.3 412.6,51.3 416.2,50.7 419.8,50.4 423.4,49.4 427.0,48.6 430.5,47.8 434.1,47.2 437.7,46.9 441.3,46.7 444.8,46.2 448.4,45.5 452.0,45.0 455.6,44.5 459.1,44.0 462.7,43.6 466.3,43.2 469.9,42.9 473.4,42.5 477.0,42.2 480.6,41.4 484.2,40.9 487.7,40.2 491.3,39.9 494.9,39.4 498.5,39.2 502.1,38.8 505.6,38.5 509.2,37.4 512.8,36.7 516.4,35.9 519.9,35.5 523.5,35.4 527.1,35.0 530.7,34.6 534.2,34.1 537.8,33.6 541.4,32.9 545.0,32.5 548.5,32.3 552.1,32.0 555.7,31.7 559.3,31.4 562.8,31.0 566.4,30.6 570.0,30.0 570.0,30.0,120" />
  
  <!-- Linea principale -->
  <polyline fill="none" stroke="#0366d6" stroke-width="2.5" stroke-linecap="round" stroke-linejoin="round" points="30.0,120.0 33.6,118.9 37.2,117.7 40.7,116.6 44.3,116.3 47.9,115.7 51.5,114.4 55.0,113.6 58.6,113.0 62.2,111.6 65.8,111.0 69.3,110.3 72.9,109.9 76.5,109.3 80.1,108.4 83.6,107.4 87.2,106.7 90.8,106.2 94.4,105.8 97.9,105.2 101.5,104.5 105.1,103.9 108.7,103.6 112.3,103.0 115.8,100.9 119.4,100.2 123.0,99.4 126.6,98.6 130.1,97.8 133.7,97.1 137.3,96.7 140.9,96.3 144.4,95.7 148.0,94.7 151.6,93.8 155.2,93.2 158.7,92.5 162.3,92.3 165.9,92.1 169.5,91.8 173.0,91.1 176.6,90.7 180.2,90.4 183.8,89.6 187.4,88.5 190.9,88.2 194.5,88.0 198.1,87.5 201.7,86.6 205.2,86.0 208.8,85.1 212.4,84.4 216.0,83.6 219.5,83.4 223.1,82.9 226.7,82.1 230.3,81.2 233.8,80.6 237.4,80.3 241.0,79.9 244.6,79.5 248.1,78.5 251.7,77.6 255.3,76.8 258.9,76.1 262.5,75.7 266.0,75.4 269.6,75.1 273.2,74.4 276.8,74.0 280.3,73.6 283.9,73.3 287.5,73.0 291.1,72.6 294.6,72.3 298.2,72.1 301.8,71.8 305.4,71.0 308.9,70.5 312.5,70.3 316.1,70.0 319.7,69.9 323.2,69.9 326.8,84.2 330.4,82.8 334.0,81.5 337.5,80.2 341.1,76.3 344.7,73.6 348.3,70.6 351.9,69.6 355.4,68.3 359.0,66.3 362.6,64.1 366.2,62.5 369.7,61.9 373.3,61.3 376.9,59.8 380.5,58.6 384.0,57.9 387.6,57.0 391.2,56.6 394.8,56.4 398.3,55.6 401.9,54.3 405.5,53.3 409.1,52.3 412.6,51.3 416.2,50.7 419.8,50.4 423.4,49.4 427.0,48.6 430.5,47.8 434.1,47.2 437.7,46.9 441.3,46.7 444.8,46.2 448.4,45.5 452.0,45.0 455.6,44.5 459.1,44.0 462.7,43.6 466.3,43.2 469.9,42.9 473.4,42.5 477.0,42.2 480.6,41.4 484.2,40.9 487.7,40.2 491.3,39.9 494.9,39.4 498.5,39.2 502.1,38.8 505.6,38.5 509.2,37.4 512.8,36.7 516.4,35.9 519.9,35.5 523.5,35.4 527.1,35.0 530.7,34.6 534.2,34.1 537.8,33.6 541.4,32.9 545.0,32.5 548.5,32.3 552.1,32.0 555.7,31.7 559.3,31.4 562.8,31.0 566.4,30.6 570.0,30.0" />
  
  <!-- Punto finale luminoso -->
  <circle cx="570.0" cy="30.0" r="4" fill="#ffffff" stroke="#0366d6" stroke-width="2.5" />
</svg>