<svg width="600" height="150" viewBox="0 0 600 150" xmlns="http://www.w3.org/2000/svg">
  <defs>
    <filter id="shadow2" x="-2%" y="-2%" width="104%" height="108%">
      <feDropShadow dx="0" dy="2" stdDeviation="3" flood-opacity="0.1" />
    </filter>
    <linearGradient id="fillGrad" x1="0" y1="0" x2="0" y2="1">
      <stop offset="0%" stop-color="#0366d6" stop-opacity="0.3"/>
      <stop offset="100%" stop-color="#0366d6" stop-opacity="0.02"/>
    </linearGradient>
  </defs>
  <rect width="600" height="150" rx="12" fill="#ffffff" filter="url(#shadow2)" stroke="#e1e4e8" stroke-width="1"/>
  <text x="20" y="24" fill="#2b3137" font-family="-apple-system,BlinkMacSystemFont,'Segoe UI',Helvetica,Arial,sans-serif" font-size="14" font-weight="600">📈 Download Growth (Actual: 75.5k)</text>
  
  <!-- Area sotto la linea -->
  <polygon fill="url(#fillGrad)" points="30.0,120.0,120 30.0,120.0 33.8,118.8 37.6,117.6 41.4,116.4 45.2,116.2 49.0,115.6 52.8,114.2 56.6,113.3 60.4,112.7 64.2,111.3 68.0,110.6 71.8,109.9 75.6,109.5 79.4,108.9 83.2,107.9 87.0,106.9 90.8,106.1 94.6,105.6 98.5,105.2 102.3,104.6 106.1,103.9 109.9,103.2 113.7,102.9 117.5,102.3 121.3,100.1 125.1,99.4 128.9,98.6 132.7,97.7 136.5,96.9 140.3,96.2 144.1,95.7 147.9,95.4 151.7,94.7 155.5,93.7 159.3,92.7 163.1,92.1 166.9,91.4 170.7,91.2 174.5,91.0 178.3,90.6 182.1,89.9 185.9,89.5 189.7,89.2 193.5,88.4 197.3,87.2 201.1,86.9 204.9,86.7 208.7,86.2 212.5,85.3 216.3,84.6 220.1,83.7 223.9,83.0 227.7,82.1 231.5,81.9 235.4,81.4 239.2,80.5 243.0,79.6 246.8,79.0 250.6,78.7 254.4,78.2 258.2,77.8 262.0,76.8 265.8,75.9 269.6,75.1 273.4,74.3 277.2,73.8 281.0,73.6 284.8,73.2 288.6,72.6 292.4,72.1 296.2,71.7 300.0,71.4 303.8,71.1 307.6,70.6 311.4,70.3 315.2,70.1 319.0,69.9 322.8,69.0 326.6,68.5 330.4,68.3 334.2,68.0 338.0,67.8 341.8,67.8 345.6,82.7 349.4,81.3 353.2,79.9 357.0,78.6 360.8,74.5 364.6,71.7 368.5,68.6 372.3,67.5 376.1,66.2 379.9,64.1 383.7,61.8 387.5,60.1 391.3,59.5 395.1,58.9 398.9,57.3 402.7,56.1 406.5,55.3 410.3,54.4 414.1,54.0 417.9,53.8 421.7,52.9 425.5,51.6 429.3,50.6 433.1,49.6 436.9,48.4 440.7,47.9 444.5,47.5 448.3,46.5 452.1,45.7 455.9,44.8 459.7,44.2 463.5,43.9 467.3,43.7 471.1,43.2 474.9,42.4 478.7,41.9 482.5,41.4 486.3,40.9 490.1,40.5 493.9,40.1 497.7,39.7 501.5,39.3 505.4,39.0 509.2,38.2 513.0,37.6 516.8,36.9 520.6,36.6 524.4,36.1 528.2,35.8 532.0,35.5 535.8,35.1 539.6,34.0 543.4,33.3 547.2,32.4 551.0,32.1 554.8,32.0 558.6,31.5 562.4,31.1 566.2,30.5 570.0,30.0 570.0,30.0,120" />
  
  <!-- Linea principale -->
  <polyline fill="none" stroke="#0366d6" stroke-width="2.5" stroke-linecap="round" stroke-linejoin="round" points="30.0,120.0 33.8,118.8 37.6,117.6 41.4,116.4 45.2,116.2 49.0,115.6 52.8,114.2 56.6,113.3 60.4,112.7 64.2,111.3 68.0,110.6 71.8,109.9 75.6,109.5 79.4,108.9 83.2,107.9 87.0,106.9 90.8,106.1 94.6,105.6 98.5,105.2 102.3,104.6 106.1,103.9 109.9,103.2 113.7,102.9 117.5,102.3 121.3,100.1 125.1,99.4 128.9,98.6 132.7,97.7 136.5,96.9 140.3,96.2 144.1,95.7 147.9,95.4 151.7,94.7 155.5,93.7 159.3,92.7 163.1,92.1 166.9,91.4 170.7,91.2 174.5,91.0 178.3,90.6 182.1,89.9 185.9,89.5 189.7,89.2 193.5,88.4 197.3,87.2 201.1,86.9 204.9,86.7 208.7,86.2 212.5,85.3 216.3,84.6 220.1,83.7 223.9,83.0 227.7,82.1 231.5,81.9 235.4,81.4 239.2,80.5 243.0,79.6 246.8,79.0 250.6,78.7 254.4,78.2 258.2,77.8 262.0,76.8 265.8,75.9 269.6,75.1 273.4,74.3 277.2,73.8 281.0,73.6 284.8,73.2 288.6,72.6 292.4,72.1 296.2,71.7 300.0,71.4 303.8,71.1 307.6,70.6 311.4,70.3 315.2,70.1 319.0,69.9 322.8,69.0 326.6,68.5 330.4,68.3 334.2,68.0 338.0,67.8 341.8,67.8 345.6,82.7 349.4,81.3 353.2,79.9 357.0,78.6 360.8,74.5 364.6,71.7 368.5,68.6 372.3,67.5 376.1,66.2 379.9,64.1 383.7,61.8 387.5,60.1 391.3,59.5 395.1,58.9 398.9,57.3 402.7,56.1 406.5,55.3 410.3,54.4 414.1,54.0 417.9,53.8 421.7,52.9 425.5,51.6 429.3,50.6 433.1,49.6 436.9,48.4 440.7,47.9 444.5,47.5 448.3,46.5 452.1,45.7 455.9,44.8 459.7,44.2 463.5,43.9 467.3,43.7 471.1,43.2 474.9,42.4 478.7,41.9 482.5,41.4 486.3,40.9 490.1,40.5 493.9,40.1 497.7,39.7 501.5,39.3 505.4,39.0 509.2,38.2 513.0,37.6 516.8,36.9 520.6,36.6 524.4,36.1 528.2,35.8 532.0,35.5 535.8,35.1 539.6,34.0 543.4,33.3 547.2,32.4 551.0,32.1 554.8,32.0 558.6,31.5 562.4,31.1 566.2,30.5 570.0,30.0" />
  
  <!-- Punto finale luminoso -->
  <circle cx="570.0" cy="30.0" r="4" fill="#ffffff" stroke="#0366d6" stroke-width="2.5" />
</svg>