<svg width="600" height="150" viewBox="0 0 600 150" xmlns="http://www.w3.org/2000/svg">
  <defs>
    <filter id="shadow2" x="-2%" y="-2%" width="104%" height="108%">
      <feDropShadow dx="0" dy="2" stdDeviation="3" flood-opacity="0.1" />
    </filter>
    <linearGradient id="fillGrad" x1="0" y1="0" x2="0" y2="1">
      <stop offset="0%" stop-color="#0366d6" stop-opacity="0.3"/>
      <stop offset="100%" stop-color="#0366d6" stop-opacity="0.02"/>
    </linearGradient>
  </defs>
  <rect width="600" height="150" rx="12" fill="#ffffff" filter="url(#shadow2)" stroke="#e1e4e8" stroke-width="1"/>
  <text x="20" y="24" fill="#2b3137" font-family="-apple-system,BlinkMacSystemFont,'Segoe UI',Helvetica,Arial,sans-serif" font-size="14" font-weight="600">📈 Download Growth (Actual: 86.1k)</text>
  
  <!-- Area sotto la linea -->
  <polygon fill="url(#fillGrad)" points="30.0,120.0,120 30.0,120.0 31.4,119.5 32.9,118.9 34.3,118.4 35.8,118.3 37.2,118.0 38.6,117.4 40.1,117.0 41.5,116.7 43.0,116.1 44.4,115.8 45.8,115.5 47.3,115.3 48.7,115.0 50.2,114.6 51.6,114.1 53.0,113.8 54.5,113.5 55.9,113.4 57.4,113.1 58.8,112.8 60.2,112.5 61.7,112.3 63.1,112.1 64.6,111.1 66.0,110.8 67.4,110.4 68.9,110.0 70.3,109.7 71.8,109.3 73.2,109.1 74.6,108.9 76.1,108.7 77.5,108.2 79.0,107.8 80.4,107.5 81.8,107.2 83.3,107.1 84.7,107.0 86.2,106.8 87.6,106.5 89.0,106.3 90.5,106.2 91.9,105.8 93.4,105.3 94.8,105.2 96.2,105.1 97.7,104.8 99.1,104.4 100.6,104.1 102.0,103.7 103.4,103.4 104.9,103.0 106.3,102.9 107.8,102.7 109.2,102.3 110.6,101.9 112.1,101.6 113.5,101.5 115.0,101.3 116.4,101.1 117.8,100.6 119.3,100.2 120.7,99.9 122.2,99.5 123.6,99.3 125.0,99.2 126.5,99.0 127.9,98.7 129.4,98.5 130.8,98.4 132.2,98.2 133.7,98.1 135.1,97.9 136.6,97.7 138.0,97.6 139.4,97.5 140.9,97.1 142.3,96.9 143.8,96.8 145.2,96.7 146.6,96.6 148.1,96.6 149.5,103.3 151.0,102.6 152.4,102.0 153.8,101.4 155.3,99.6 156.7,98.3 158.2,97.0 159.6,96.4 161.0,95.9 162.5,94.9 163.9,93.9 165.4,93.2 166.8,92.9 168.2,92.6 169.7,91.9 171.1,91.3 172.6,91.0 174.0,90.6 175.4,90.4 176.9,90.3 178.3,89.9 179.8,89.3 181.2,88.9 182.6,88.4 184.1,87.9 185.5,87.7 187.0,87.5 188.4,87.1 189.8,86.7 191.3,86.3 192.7,86.0 194.2,85.9 195.6,85.8 197.0,85.5 198.5,85.2 199.9,85.0 201.4,84.7 202.8,84.5 204.2,84.3 205.7,84.2 207.1,84.0 208.6,83.8 210.0,83.7 211.4,83.3 212.9,83.1 214.3,82.8 215.8,82.6 217.2,82.4 218.6,82.3 220.1,82.1 221.5,81.9 223.0,81.5 224.4,81.1 225.8,80.7 227.3,80.6 228.7,80.5 230.2,80.3 231.6,80.1 233.0,79.9 234.5,79.6 235.9,79.3 237.4,79.1 238.8,79.1 240.2,78.9 241.7,78.8 243.1,78.6 244.6,78.4 246.0,78.3 247.4,78.0 248.9,77.8 250.3,77.8 251.8,77.6 253.2,77.5 254.6,77.3 256.1,77.1 257.5,76.8 259.0,76.6 260.4,76.4 261.8,76.3 263.3,76.2 264.7,76.0 266.2,75.7 267.6,75.4 269.0,75.2 270.5,75.0 271.9,74.7 273.4,74.6 274.8,74.5 276.2,74.4 277.7,74.2 279.1,74.0 280.6,73.8 282.0,73.7 283.4,73.5 284.9,73.4 286.3,73.2 287.8,73.1 289.2,73.0 290.6,72.8 292.1,72.5 293.5,72.4 295.0,72.2 296.4,72.1 297.8,72.0 299.3,71.8 300.7,71.7 302.2,71.6 303.6,71.4 305.0,71.1 306.5,70.8 307.9,70.6 309.4,70.5 310.8,70.4 312.2,70.3 313.7,70.1 315.1,69.8 316.6,69.7 318.0,69.6 319.4,69.4 320.9,69.3 322.3,69.1 323.8,69.0 325.2,68.9 326.6,68.6 328.1,68.5 329.5,68.2 331.0,68.0 332.4,67.9 333.8,67.9 335.3,67.8 336.7,67.6 338.2,67.5 339.6,67.3 341.0,67.2 342.5,67.0 343.9,66.9 345.4,66.8 346.8,66.6 348.2,66.5 349.7,66.3 351.1,66.0 352.6,65.9 354.0,65.7 355.4,65.6 356.9,65.5 358.3,65.4 359.8,65.3 361.2,65.2 362.6,65.1 364.1,64.8 365.5,64.7 367.0,64.5 368.4,64.4 369.8,64.3 371.3,64.1 372.7,64.0 374.2,63.8 375.6,63.7 377.0,63.6 378.5,63.4 379.9,63.3 381.4,63.1 382.8,63.0 384.2,62.9 385.7,62.8 387.1,62.7 388.6,62.6 390.0,62.4 391.4,62.4 392.9,62.3 394.3,61.9 395.8,61.7 397.2,66.1 398.6,65.2 400.1,63.6 401.5,63.0 403.0,62.2 404.4,61.3 405.8,60.7 407.3,60.4 408.7,59.8 410.2,58.8 411.6,58.1 413.0,57.9 414.5,57.5 415.9,57.2 417.4,56.8 418.8,56.3 420.2,55.8 421.7,55.5 423.1,55.0 424.6,54.8 426.0,54.4 427.4,54.2 428.9,54.0 430.3,53.7 431.8,53.3 433.2,52.9 434.6,52.5 436.1,51.9 437.5,51.5 439.0,51.4 440.4,51.2 441.8,50.9 443.3,50.6 444.7,50.2 446.2,49.9 447.6,49.0 449.0,48.3 450.5,48.0 451.9,47.8 453.4,47.5 454.8,47.1 456.2,46.7 457.7,46.4 459.1,46.1 460.6,45.7 462.0,45.4 463.4,45.1 464.9,44.8 466.3,44.5 467.8,44.3 469.2,44.2 470.6,43.8 472.1,43.5 473.5,43.3 475.0,43.1 476.4,43.0 477.8,42.7 479.3,42.5 480.7,42.3 482.2,42.1 483.6,42.0 485.0,41.8 486.5,41.5 487.9,41.3 489.4,41.0 490.8,40.6 492.2,40.3 493.7,40.2 495.1,40.0 496.6,39.8 498.0,39.6 499.4,39.4 500.9,39.3 502.3,39.2 503.8,39.0 505.2,38.8 506.6,38.7 508.1,38.4 509.5,38.3 511.0,38.1 512.4,37.9 513.8,37.5 515.3,37.1 516.7,37.0 518.2,36.8 519.6,36.5 521.0,36.3 522.5,36.1 523.9,35.8 525.4,35.6 526.8,35.5 528.2,35.4 529.7,35.2 531.1,34.9 532.6,34.7 534.0,34.6 535.4,34.4 536.9,34.1 538.3,33.9 539.8,33.7 541.2,33.5 542.6,33.2 544.1,32.9 545.5,32.8 547.0,32.6 548.4,32.5 549.8,32.3 551.3,32.1 552.7,31.9 554.2,31.7 555.6,31.6 557.0,31.4 558.5,31.3 559.9,31.1 561.4,30.9 562.8,30.8 564.2,30.6 565.7,30.5 567.1,30.3 568.6,30.2 570.0,30.0 570.0,30.0,120" />
  
  <!-- Linea principale -->
  <polyline fill="none" stroke="#0366d6" stroke-width="2.5" stroke-linecap="round" stroke-linejoin="round" points="30.0,120.0 31.4,119.5 32.9,118.9 34.3,118.4 35.8,118.3 37.2,118.0 38.6,117.4 40.1,117.0 41.5,116.7 43.0,116.1 44.4,115.8 45.8,115.5 47.3,115.3 48.7,115.0 50.2,114.6 51.6,114.1 53.0,113.8 54.5,113.5 55.9,113.4 57.4,113.1 58.8,112.8 60.2,112.5 61.7,112.3 63.1,112.1 64.6,111.1 66.0,110.8 67.4,110.4 68.9,110.0 70.3,109.7 71.8,109.3 73.2,109.1 74.6,108.9 76.1,108.7 77.5,108.2 79.0,107.8 80.4,107.5 81.8,107.2 83.3,107.1 84.7,107.0 86.2,106.8 87.6,106.5 89.0,106.3 90.5,106.2 91.9,105.8 93.4,105.3 94.8,105.2 96.2,105.1 97.7,104.8 99.1,104.4 100.6,104.1 102.0,103.7 103.4,103.4 104.9,103.0 106.3,102.9 107.8,102.7 109.2,102.3 110.6,101.9 112.1,101.6 113.5,101.5 115.0,101.3 116.4,101.1 117.8,100.6 119.3,100.2 120.7,99.9 122.2,99.5 123.6,99.3 125.0,99.2 126.5,99.0 127.9,98.7 129.4,98.5 130.8,98.4 132.2,98.2 133.7,98.1 135.1,97.9 136.6,97.7 138.0,97.6 139.4,97.5 140.9,97.1 142.3,96.9 143.8,96.8 145.2,96.7 146.6,96.6 148.1,96.6 149.5,103.3 151.0,102.6 152.4,102.0 153.8,101.4 155.3,99.6 156.7,98.3 158.2,97.0 159.6,96.4 161.0,95.9 162.5,94.9 163.9,93.9 165.4,93.2 166.8,92.9 168.2,92.6 169.7,91.9 171.1,91.3 172.6,91.0 174.0,90.6 175.4,90.4 176.9,90.3 178.3,89.9 179.8,89.3 181.2,88.9 182.6,88.4 184.1,87.9 185.5,87.7 187.0,87.5 188.4,87.1 189.8,86.7 191.3,86.3 192.7,86.0 194.2,85.9 195.6,85.8 197.0,85.5 198.5,85.2 199.9,85.0 201.4,84.7 202.8,84.5 204.2,84.3 205.7,84.2 207.1,84.0 208.6,83.8 210.0,83.7 211.4,83.3 212.9,83.1 214.3,82.8 215.8,82.6 217.2,82.4 218.6,82.3 220.1,82.1 221.5,81.9 223.0,81.5 224.4,81.1 225.8,80.7 227.3,80.6 228.7,80.5 230.2,80.3 231.6,80.1 233.0,79.9 234.5,79.6 235.9,79.3 237.4,79.1 238.8,79.1 240.2,78.9 241.7,78.8 243.1,78.6 244.6,78.4 246.0,78.3 247.4,78.0 248.9,77.8 250.3,77.8 251.8,77.6 253.2,77.5 254.6,77.3 256.1,77.1 257.5,76.8 259.0,76.6 260.4,76.4 261.8,76.3 263.3,76.2 264.7,76.0 266.2,75.7 267.6,75.4 269.0,75.2 270.5,75.0 271.9,74.7 273.4,74.6 274.8,74.5 276.2,74.4 277.7,74.2 279.1,74.0 280.6,73.8 282.0,73.7 283.4,73.5 284.9,73.4 286.3,73.2 287.8,73.1 289.2,73.0 290.6,72.8 292.1,72.5 293.5,72.4 295.0,72.2 296.4,72.1 297.8,72.0 299.3,71.8 300.7,71.7 302.2,71.6 303.6,71.4 305.0,71.1 306.5,70.8 307.9,70.6 309.4,70.5 310.8,70.4 312.2,70.3 313.7,70.1 315.1,69.8 316.6,69.7 318.0,69.6 319.4,69.4 320.9,69.3 322.3,69.1 323.8,69.0 325.2,68.9 326.6,68.6 328.1,68.5 329.5,68.2 331.0,68.0 332.4,67.9 333.8,67.9 335.3,67.8 336.7,67.6 338.2,67.5 339.6,67.3 341.0,67.2 342.5,67.0 343.9,66.9 345.4,66.8 346.8,66.6 348.2,66.5 349.7,66.3 351.1,66.0 352.6,65.9 354.0,65.7 355.4,65.6 356.9,65.5 358.3,65.4 359.8,65.3 361.2,65.2 362.6,65.1 364.1,64.8 365.5,64.7 367.0,64.5 368.4,64.4 369.8,64.3 371.3,64.1 372.7,64.0 374.2,63.8 375.6,63.7 377.0,63.6 378.5,63.4 379.9,63.3 381.4,63.1 382.8,63.0 384.2,62.9 385.7,62.8 387.1,62.7 388.6,62.6 390.0,62.4 391.4,62.4 392.9,62.3 394.3,61.9 395.8,61.7 397.2,66.1 398.6,65.2 400.1,63.6 401.5,63.0 403.0,62.2 404.4,61.3 405.8,60.7 407.3,60.4 408.7,59.8 410.2,58.8 411.6,58.1 413.0,57.9 414.5,57.5 415.9,57.2 417.4,56.8 418.8,56.3 420.2,55.8 421.7,55.5 423.1,55.0 424.6,54.8 426.0,54.4 427.4,54.2 428.9,54.0 430.3,53.7 431.8,53.3 433.2,52.9 434.6,52.5 436.1,51.9 437.5,51.5 439.0,51.4 440.4,51.2 441.8,50.9 443.3,50.6 444.7,50.2 446.2,49.9 447.6,49.0 449.0,48.3 450.5,48.0 451.9,47.8 453.4,47.5 454.8,47.1 456.2,46.7 457.7,46.4 459.1,46.1 460.6,45.7 462.0,45.4 463.4,45.1 464.9,44.8 466.3,44.5 467.8,44.3 469.2,44.2 470.6,43.8 472.1,43.5 473.5,43.3 475.0,43.1 476.4,43.0 477.8,42.7 479.3,42.5 480.7,42.3 482.2,42.1 483.6,42.0 485.0,41.8 486.5,41.5 487.9,41.3 489.4,41.0 490.8,40.6 492.2,40.3 493.7,40.2 495.1,40.0 496.6,39.8 498.0,39.6 499.4,39.4 500.9,39.3 502.3,39.2 503.8,39.0 505.2,38.8 506.6,38.7 508.1,38.4 509.5,38.3 511.0,38.1 512.4,37.9 513.8,37.5 515.3,37.1 516.7,37.0 518.2,36.8 519.6,36.5 521.0,36.3 522.5,36.1 523.9,35.8 525.4,35.6 526.8,35.5 528.2,35.4 529.7,35.2 531.1,34.9 532.6,34.7 534.0,34.6 535.4,34.4 536.9,34.1 538.3,33.9 539.8,33.7 541.2,33.5 542.6,33.2 544.1,32.9 545.5,32.8 547.0,32.6 548.4,32.5 549.8,32.3 551.3,32.1 552.7,31.9 554.2,31.7 555.6,31.6 557.0,31.4 558.5,31.3 559.9,31.1 561.4,30.9 562.8,30.8 564.2,30.6 565.7,30.5 567.1,30.3 568.6,30.2 570.0,30.0" />
  
  <!-- Punto finale luminoso -->
  <circle cx="570.0" cy="30.0" r="4" fill="#ffffff" stroke="#0366d6" stroke-width="2.5" />
</svg>