<svg width="600" height="150" viewBox="0 0 600 150" xmlns="http://www.w3.org/2000/svg">
  <defs>
    <filter id="shadow2" x="-2%" y="-2%" width="104%" height="108%">
      <feDropShadow dx="0" dy="2" stdDeviation="3" flood-opacity="0.1" />
    </filter>
    <linearGradient id="fillGrad" x1="0" y1="0" x2="0" y2="1">
      <stop offset="0%" stop-color="#0366d6" stop-opacity="0.3"/>
      <stop offset="100%" stop-color="#0366d6" stop-opacity="0.02"/>
    </linearGradient>
  </defs>
  <rect width="600" height="150" rx="12" fill="#ffffff" filter="url(#shadow2)" stroke="#e1e4e8" stroke-width="1"/>
  <text x="20" y="24" fill="#2b3137" font-family="-apple-system,BlinkMacSystemFont,'Segoe UI',Helvetica,Arial,sans-serif" font-size="14" font-weight="600">📈 Download Growth (Actual: 76.7k)</text>
  
  <!-- Area sotto la linea -->
  <polygon fill="url(#fillGrad)" points="30.0,120.0,120 30.0,120.0 33.1,119.0 36.2,117.9 39.3,116.9 42.4,116.6 45.5,116.1 48.6,114.9 51.7,114.1 54.8,113.6 57.9,112.4 61.0,111.8 64.1,111.2 67.2,110.8 70.3,110.3 73.4,109.4 76.6,108.6 79.7,107.9 82.8,107.4 85.9,107.1 89.0,106.6 92.1,105.9 95.2,105.3 98.3,105.1 101.4,104.5 104.5,102.6 107.6,102.0 110.7,101.3 113.8,100.5 116.9,99.8 120.0,99.2 123.1,98.8 126.2,98.5 129.3,97.9 132.4,97.0 135.5,96.2 138.6,95.6 141.7,95.0 144.8,94.8 147.9,94.6 151.0,94.3 154.1,93.7 157.2,93.3 160.3,93.1 163.4,92.4 166.6,91.3 169.7,91.1 172.8,90.9 175.9,90.5 179.0,89.6 182.1,89.1 185.2,88.3 188.3,87.6 191.4,86.9 194.5,86.7 197.6,86.3 200.7,85.5 203.8,84.7 206.9,84.1 210.0,83.9 213.1,83.5 216.2,83.1 219.3,82.3 222.4,81.5 225.5,80.7 228.6,80.0 231.7,79.7 234.8,79.4 237.9,79.1 241.0,78.5 244.1,78.2 247.2,77.8 250.3,77.5 253.4,77.3 256.6,76.8 259.7,76.6 262.8,76.4 265.9,76.2 269.0,75.4 272.1,75.0 275.2,74.8 278.3,74.5 281.4,74.4 284.5,74.4 287.6,87.4 290.7,86.2 293.8,85.0 296.9,83.8 300.0,80.2 303.1,77.8 306.2,75.1 309.3,74.1 312.4,73.0 315.5,71.2 318.6,69.2 321.7,67.7 324.8,67.2 327.9,66.6 331.0,65.2 334.1,64.2 337.2,63.5 340.3,62.7 343.4,62.3 346.6,62.2 349.7,61.4 352.8,60.2 355.9,59.3 359.0,58.4 362.1,57.5 365.2,57.0 368.3,56.6 371.4,55.8 374.5,55.0 377.6,54.3 380.7,53.8 383.8,53.5 386.9,53.3 390.0,52.9 393.1,52.2 396.2,51.7 399.3,51.3 402.4,50.9 405.5,50.5 408.6,50.2 411.7,49.8 414.8,49.5 417.9,49.2 421.0,48.5 424.1,48.0 427.2,47.4 430.3,47.1 433.4,46.7 436.6,46.4 439.7,46.1 442.8,45.8 445.9,44.9 449.0,44.2 452.1,43.5 455.2,43.2 458.3,43.1 461.4,42.7 464.5,42.3 467.6,41.8 470.7,41.4 473.8,40.8 476.9,40.4 480.0,40.2 483.1,39.9 486.2,39.6 489.3,39.4 492.4,39.0 495.5,38.7 498.6,38.1 501.7,37.9 504.8,37.7 507.9,37.4 511.0,37.2 514.1,36.7 517.2,36.3 520.3,35.9 523.4,35.5 526.6,35.1 529.7,34.8 532.8,34.6 535.9,34.3 539.0,33.7 542.1,33.2 545.2,32.8 548.3,32.4 551.4,31.7 554.5,31.5 557.6,31.3 560.7,31.1 563.8,30.7 566.9,30.4 570.0,30.0 570.0,30.0,120" />
  
  <!-- Linea principale -->
  <polyline fill="none" stroke="#0366d6" stroke-width="2.5" stroke-linecap="round" stroke-linejoin="round" points="30.0,120.0 33.1,119.0 36.2,117.9 39.3,116.9 42.4,116.6 45.5,116.1 48.6,114.9 51.7,114.1 54.8,113.6 57.9,112.4 61.0,111.8 64.1,111.2 67.2,110.8 70.3,110.3 73.4,109.4 76.6,108.6 79.7,107.9 82.8,107.4 85.9,107.1 89.0,106.6 92.1,105.9 95.2,105.3 98.3,105.1 101.4,104.5 104.5,102.6 107.6,102.0 110.7,101.3 113.8,100.5 116.9,99.8 120.0,99.2 123.1,98.8 126.2,98.5 129.3,97.9 132.4,97.0 135.5,96.2 138.6,95.6 141.7,95.0 144.8,94.8 147.9,94.6 151.0,94.3 154.1,93.7 157.2,93.3 160.3,93.1 163.4,92.4 166.6,91.3 169.7,91.1 172.8,90.9 175.9,90.5 179.0,89.6 182.1,89.1 185.2,88.3 188.3,87.6 191.4,86.9 194.5,86.7 197.6,86.3 200.7,85.5 203.8,84.7 206.9,84.1 210.0,83.9 213.1,83.5 216.2,83.1 219.3,82.3 222.4,81.5 225.5,80.7 228.6,80.0 231.7,79.7 234.8,79.4 237.9,79.1 241.0,78.5 244.1,78.2 247.2,77.8 250.3,77.5 253.4,77.3 256.6,76.8 259.7,76.6 262.8,76.4 265.9,76.2 269.0,75.4 272.1,75.0 275.2,74.8 278.3,74.5 281.4,74.4 284.5,74.4 287.6,87.4 290.7,86.2 293.8,85.0 296.9,83.8 300.0,80.2 303.1,77.8 306.2,75.1 309.3,74.1 312.4,73.0 315.5,71.2 318.6,69.2 321.7,67.7 324.8,67.2 327.9,66.6 331.0,65.2 334.1,64.2 337.2,63.5 340.3,62.7 343.4,62.3 346.6,62.2 349.7,61.4 352.8,60.2 355.9,59.3 359.0,58.4 362.1,57.5 365.2,57.0 368.3,56.6 371.4,55.8 374.5,55.0 377.6,54.3 380.7,53.8 383.8,53.5 386.9,53.3 390.0,52.9 393.1,52.2 396.2,51.7 399.3,51.3 402.4,50.9 405.5,50.5 408.6,50.2 411.7,49.8 414.8,49.5 417.9,49.2 421.0,48.5 424.1,48.0 427.2,47.4 430.3,47.1 433.4,46.7 436.6,46.4 439.7,46.1 442.8,45.8 445.9,44.9 449.0,44.2 452.1,43.5 455.2,43.2 458.3,43.1 461.4,42.7 464.5,42.3 467.6,41.8 470.7,41.4 473.8,40.8 476.9,40.4 480.0,40.2 483.1,39.9 486.2,39.6 489.3,39.4 492.4,39.0 495.5,38.7 498.6,38.1 501.7,37.9 504.8,37.7 507.9,37.4 511.0,37.2 514.1,36.7 517.2,36.3 520.3,35.9 523.4,35.5 526.6,35.1 529.7,34.8 532.8,34.6 535.9,34.3 539.0,33.7 542.1,33.2 545.2,32.8 548.3,32.4 551.4,31.7 554.5,31.5 557.6,31.3 560.7,31.1 563.8,30.7 566.9,30.4 570.0,30.0" />
  
  <!-- Punto finale luminoso -->
  <circle cx="570.0" cy="30.0" r="4" fill="#ffffff" stroke="#0366d6" stroke-width="2.5" />
</svg>