<svg width="600" height="150" viewBox="0 0 600 150" xmlns="http://www.w3.org/2000/svg">
  <defs>
    <filter id="shadow2" x="-2%" y="-2%" width="104%" height="108%">
      <feDropShadow dx="0" dy="2" stdDeviation="3" flood-opacity="0.1" />
    </filter>
    <linearGradient id="fillGrad" x1="0" y1="0" x2="0" y2="1">
      <stop offset="0%" stop-color="#0366d6" stop-opacity="0.3"/>
      <stop offset="100%" stop-color="#0366d6" stop-opacity="0.02"/>
    </linearGradient>
  </defs>
  <rect width="600" height="150" rx="12" fill="#ffffff" filter="url(#shadow2)" stroke="#e1e4e8" stroke-width="1"/>
  <text x="20" y="24" fill="#2b3137" font-family="-apple-system,BlinkMacSystemFont,'Segoe UI',Helvetica,Arial,sans-serif" font-size="14" font-weight="600">📈 Download Growth (Actual: 73.5k)</text>
  
  <!-- Area sotto la linea -->
  <polygon fill="url(#fillGrad)" points="30.0,120.0,120 30.0,120.0 35.1,118.5 40.3,116.8 45.4,115.4 50.6,115.0 55.7,114.3 60.9,112.5 66.0,111.3 71.1,110.5 76.3,108.7 81.4,107.8 86.6,106.9 91.7,106.4 96.9,105.6 102.0,104.3 107.1,103.0 112.3,102.0 117.4,101.4 122.6,100.9 127.7,100.1 132.9,99.1 138.0,98.3 143.1,97.9 148.3,97.0 153.4,94.2 158.6,93.3 163.7,92.2 168.9,91.1 174.0,90.1 179.1,89.2 184.3,88.5 189.4,88.1 194.6,87.3 199.7,85.9 204.9,84.7 210.0,83.9 215.1,82.9 220.3,82.6 225.4,82.4 230.6,81.9 235.7,81.0 240.9,80.4 246.0,80.0 251.1,79.0 256.3,77.5 261.4,77.1 266.6,76.8 271.7,76.2 276.9,75.0 282.0,74.2 287.1,72.9 292.3,72.0 297.4,70.9 302.6,70.6 307.7,70.0 312.9,68.8 318.0,67.7 323.1,66.8 328.3,66.4 333.4,65.8 338.6,65.3 343.7,64.0 348.9,62.8 354.0,61.8 359.1,60.7 364.3,60.2 369.4,59.8 374.6,59.4 379.7,58.5 384.9,57.9 390.0,57.4 395.1,57.0 400.3,56.6 405.4,56.0 410.6,55.6 415.7,55.3 420.9,55.0 426.0,53.9 431.1,53.2 436.3,53.0 441.4,52.6 446.6,52.4 451.7,52.4 456.9,71.7 462.0,69.8 467.1,68.1 472.3,66.3 477.4,61.0 482.6,57.3 487.7,53.4 492.9,51.9 498.0,50.3 503.1,47.5 508.3,44.6 513.4,42.4 518.6,41.6 523.7,40.8 528.9,38.7 534.0,37.2 539.1,36.2 544.3,34.9 549.4,34.4 554.6,34.2 559.7,33.1 564.9,31.3 570.0,30.0 570.0,30.0,120" />
  
  <!-- Linea principale -->
  <polyline fill="none" stroke="#0366d6" stroke-width="2.5" stroke-linecap="round" stroke-linejoin="round" points="30.0,120.0 35.1,118.5 40.3,116.8 45.4,115.4 50.6,115.0 55.7,114.3 60.9,112.5 66.0,111.3 71.1,110.5 76.3,108.7 81.4,107.8 86.6,106.9 91.7,106.4 96.9,105.6 102.0,104.3 107.1,103.0 112.3,102.0 117.4,101.4 122.6,100.9 127.7,100.1 132.9,99.1 138.0,98.3 143.1,97.9 148.3,97.0 153.4,94.2 158.6,93.3 163.7,92.2 168.9,91.1 174.0,90.1 179.1,89.2 184.3,88.5 189.4,88.1 194.6,87.3 199.7,85.9 204.9,84.7 210.0,83.9 215.1,82.9 220.3,82.6 225.4,82.4 230.6,81.9 235.7,81.0 240.9,80.4 246.0,80.0 251.1,79.0 256.3,77.5 261.4,77.1 266.6,76.8 271.7,76.2 276.9,75.0 282.0,74.2 287.1,72.9 292.3,72.0 297.4,70.9 302.6,70.6 307.7,70.0 312.9,68.8 318.0,67.7 323.1,66.8 328.3,66.4 333.4,65.8 338.6,65.3 343.7,64.0 348.9,62.8 354.0,61.8 359.1,60.7 364.3,60.2 369.4,59.8 374.6,59.4 379.7,58.5 384.9,57.9 390.0,57.4 395.1,57.0 400.3,56.6 405.4,56.0 410.6,55.6 415.7,55.3 420.9,55.0 426.0,53.9 431.1,53.2 436.3,53.0 441.4,52.6 446.6,52.4 451.7,52.4 456.9,71.7 462.0,69.8 467.1,68.1 472.3,66.3 477.4,61.0 482.6,57.3 487.7,53.4 492.9,51.9 498.0,50.3 503.1,47.5 508.3,44.6 513.4,42.4 518.6,41.6 523.7,40.8 528.9,38.7 534.0,37.2 539.1,36.2 544.3,34.9 549.4,34.4 554.6,34.2 559.7,33.1 564.9,31.3 570.0,30.0" />
  
  <!-- Punto finale luminoso -->
  <circle cx="570.0" cy="30.0" r="4" fill="#ffffff" stroke="#0366d6" stroke-width="2.5" />
</svg>