<svg width="600" height="150" viewBox="0 0 600 150" xmlns="http://www.w3.org/2000/svg">
  <defs>
    <filter id="shadow2" x="-2%" y="-2%" width="104%" height="108%">
      <feDropShadow dx="0" dy="2" stdDeviation="3" flood-opacity="0.1" />
    </filter>
    <linearGradient id="fillGrad" x1="0" y1="0" x2="0" y2="1">
      <stop offset="0%" stop-color="#0366d6" stop-opacity="0.3"/>
      <stop offset="100%" stop-color="#0366d6" stop-opacity="0.02"/>
    </linearGradient>
  </defs>
  <rect width="600" height="150" rx="12" fill="#ffffff" filter="url(#shadow2)" stroke="#e1e4e8" stroke-width="1"/>
  <text x="20" y="24" fill="#2b3137" font-family="-apple-system,BlinkMacSystemFont,'Segoe UI',Helvetica,Arial,sans-serif" font-size="14" font-weight="600">📈 Download Growth (Actual: 80.6k)</text>
  
  <!-- Area sotto la linea -->
  <polygon fill="url(#fillGrad)" points="30.0,120.0,120 30.0,120.0 32.0,119.3 34.0,118.5 36.0,117.8 38.0,117.6 40.0,117.2 42.0,116.4 43.9,115.8 45.9,115.4 47.9,114.5 49.9,114.1 51.9,113.7 53.9,113.4 55.9,113.0 57.9,112.4 59.9,111.8 61.9,111.3 63.9,111.0 65.9,110.7 67.9,110.3 69.9,109.9 71.8,109.5 73.8,109.3 75.8,108.9 77.8,107.5 79.8,107.1 81.8,106.5 83.8,106.0 85.8,105.5 87.8,105.1 89.8,104.7 91.8,104.5 93.8,104.1 95.8,103.5 97.7,102.9 99.7,102.5 101.7,102.0 103.7,101.9 105.7,101.8 107.7,101.5 109.7,101.1 111.7,100.8 113.7,100.6 115.7,100.1 117.7,99.4 119.7,99.2 121.7,99.1 123.7,98.8 125.6,98.2 127.6,97.8 129.6,97.2 131.6,96.7 133.6,96.2 135.6,96.1 137.6,95.8 139.6,95.2 141.6,94.6 143.6,94.2 145.6,94.0 147.6,93.7 149.6,93.5 151.5,92.9 153.5,92.3 155.5,91.8 157.5,91.3 159.5,91.0 161.5,90.8 163.5,90.6 165.5,90.2 167.5,89.9 169.5,89.7 171.5,89.5 173.5,89.3 175.5,89.0 177.5,88.8 179.4,88.7 181.4,88.5 183.4,87.9 185.4,87.6 187.4,87.5 189.4,87.3 191.4,87.2 193.4,87.2 195.4,96.6 197.4,95.7 199.4,94.8 201.4,94.0 203.4,91.4 205.4,89.6 207.3,87.7 209.3,87.0 211.3,86.2 213.3,84.9 215.3,83.5 217.3,82.4 219.3,82.0 221.3,81.6 223.3,80.6 225.3,79.9 227.3,79.4 229.3,78.8 231.3,78.5 233.2,78.4 235.2,77.9 237.2,77.0 239.2,76.4 241.2,75.8 243.2,75.0 245.2,74.7 247.2,74.5 249.2,73.9 251.2,73.3 253.2,72.8 255.2,72.4 257.2,72.2 259.2,72.1 261.1,71.7 263.1,71.3 265.1,70.9 267.1,70.6 269.1,70.3 271.1,70.1 273.1,69.8 275.1,69.5 277.1,69.3 279.1,69.1 281.1,68.6 283.1,68.2 285.1,67.8 287.0,67.6 289.0,67.3 291.0,67.1 293.0,66.9 295.0,66.7 297.0,66.0 299.0,65.5 301.0,65.0 303.0,64.8 305.0,64.7 307.0,64.4 309.0,64.1 311.0,63.8 313.0,63.5 314.9,63.0 316.9,62.8 318.9,62.6 320.9,62.4 322.9,62.2 324.9,62.0 326.9,61.8 328.9,61.5 330.9,61.1 332.9,60.9 334.9,60.8 336.9,60.6 338.9,60.5 340.8,60.1 342.8,59.9 344.8,59.5 346.8,59.2 348.8,58.9 350.8,58.7 352.8,58.6 354.8,58.4 356.8,58.0 358.8,57.6 360.8,57.3 362.8,57.0 364.8,56.5 366.8,56.4 368.7,56.2 370.7,56.1 372.7,55.8 374.7,55.6 376.7,55.3 378.7,55.1 380.7,54.9 382.7,54.7 384.7,54.4 386.7,54.3 388.7,54.1 390.7,53.9 392.7,53.5 394.6,53.3 396.6,53.0 398.6,52.9 400.6,52.7 402.6,52.5 404.6,52.3 406.6,52.2 408.6,51.9 410.6,51.5 412.6,51.1 414.6,50.8 416.6,50.6 418.6,50.5 420.6,50.4 422.5,50.1 424.5,49.7 426.5,49.6 428.5,49.4 430.5,49.2 432.5,48.9 434.5,48.7 436.5,48.5 438.5,48.4 440.5,48.0 442.5,47.8 444.5,47.5 446.5,47.2 448.5,47.1 450.4,47.0 452.4,46.9 454.4,46.7 456.4,46.4 458.4,46.2 460.4,46.0 462.4,45.7 464.4,45.6 466.4,45.4 468.4,45.2 470.4,45.0 472.4,44.7 474.4,44.4 476.3,44.2 478.3,43.9 480.3,43.8 482.3,43.6 484.3,43.5 486.3,43.4 488.3,43.2 490.3,43.0 492.3,42.7 494.3,42.5 496.3,42.3 498.3,42.2 500.3,42.0 502.3,41.8 504.2,41.5 506.2,41.3 508.2,41.2 510.2,41.0 512.2,40.7 514.2,40.5 516.2,40.3 518.2,40.2 520.2,40.1 522.2,39.9 524.2,39.7 526.2,39.5 528.2,39.4 530.1,39.3 532.1,39.1 534.1,38.7 536.1,38.4 538.1,44.5 540.1,43.3 542.1,41.0 544.1,40.1 546.1,39.0 548.1,37.7 550.1,37.0 552.1,36.5 554.1,35.6 556.1,34.3 558.0,33.3 560.0,33.0 562.0,32.5 564.0,32.1 566.0,31.4 568.0,30.7 570.0,30.0 570.0,30.0,120" />
  
  <!-- Linea principale -->
  <polyline fill="none" stroke="#0366d6" stroke-width="2.5" stroke-linecap="round" stroke-linejoin="round" points="30.0,120.0 32.0,119.3 34.0,118.5 36.0,117.8 38.0,117.6 40.0,117.2 42.0,116.4 43.9,115.8 45.9,115.4 47.9,114.5 49.9,114.1 51.9,113.7 53.9,113.4 55.9,113.0 57.9,112.4 59.9,111.8 61.9,111.3 63.9,111.0 65.9,110.7 67.9,110.3 69.9,109.9 71.8,109.5 73.8,109.3 75.8,108.9 77.8,107.5 79.8,107.1 81.8,106.5 83.8,106.0 85.8,105.5 87.8,105.1 89.8,104.7 91.8,104.5 93.8,104.1 95.8,103.5 97.7,102.9 99.7,102.5 101.7,102.0 103.7,101.9 105.7,101.8 107.7,101.5 109.7,101.1 111.7,100.8 113.7,100.6 115.7,100.1 117.7,99.4 119.7,99.2 121.7,99.1 123.7,98.8 125.6,98.2 127.6,97.8 129.6,97.2 131.6,96.7 133.6,96.2 135.6,96.1 137.6,95.8 139.6,95.2 141.6,94.6 143.6,94.2 145.6,94.0 147.6,93.7 149.6,93.5 151.5,92.9 153.5,92.3 155.5,91.8 157.5,91.3 159.5,91.0 161.5,90.8 163.5,90.6 165.5,90.2 167.5,89.9 169.5,89.7 171.5,89.5 173.5,89.3 175.5,89.0 177.5,88.8 179.4,88.7 181.4,88.5 183.4,87.9 185.4,87.6 187.4,87.5 189.4,87.3 191.4,87.2 193.4,87.2 195.4,96.6 197.4,95.7 199.4,94.8 201.4,94.0 203.4,91.4 205.4,89.6 207.3,87.7 209.3,87.0 211.3,86.2 213.3,84.9 215.3,83.5 217.3,82.4 219.3,82.0 221.3,81.6 223.3,80.6 225.3,79.9 227.3,79.4 229.3,78.8 231.3,78.5 233.2,78.4 235.2,77.9 237.2,77.0 239.2,76.4 241.2,75.8 243.2,75.0 245.2,74.7 247.2,74.5 249.2,73.9 251.2,73.3 253.2,72.8 255.2,72.4 257.2,72.2 259.2,72.1 261.1,71.7 263.1,71.3 265.1,70.9 267.1,70.6 269.1,70.3 271.1,70.1 273.1,69.8 275.1,69.5 277.1,69.3 279.1,69.1 281.1,68.6 283.1,68.2 285.1,67.8 287.0,67.6 289.0,67.3 291.0,67.1 293.0,66.9 295.0,66.7 297.0,66.0 299.0,65.5 301.0,65.0 303.0,64.8 305.0,64.7 307.0,64.4 309.0,64.1 311.0,63.8 313.0,63.5 314.9,63.0 316.9,62.8 318.9,62.6 320.9,62.4 322.9,62.2 324.9,62.0 326.9,61.8 328.9,61.5 330.9,61.1 332.9,60.9 334.9,60.8 336.9,60.6 338.9,60.5 340.8,60.1 342.8,59.9 344.8,59.5 346.8,59.2 348.8,58.9 350.8,58.7 352.8,58.6 354.8,58.4 356.8,58.0 358.8,57.6 360.8,57.3 362.8,57.0 364.8,56.5 366.8,56.4 368.7,56.2 370.7,56.1 372.7,55.8 374.7,55.6 376.7,55.3 378.7,55.1 380.7,54.9 382.7,54.7 384.7,54.4 386.7,54.3 388.7,54.1 390.7,53.9 392.7,53.5 394.6,53.3 396.6,53.0 398.6,52.9 400.6,52.7 402.6,52.5 404.6,52.3 406.6,52.2 408.6,51.9 410.6,51.5 412.6,51.1 414.6,50.8 416.6,50.6 418.6,50.5 420.6,50.4 422.5,50.1 424.5,49.7 426.5,49.6 428.5,49.4 430.5,49.2 432.5,48.9 434.5,48.7 436.5,48.5 438.5,48.4 440.5,48.0 442.5,47.8 444.5,47.5 446.5,47.2 448.5,47.1 450.4,47.0 452.4,46.9 454.4,46.7 456.4,46.4 458.4,46.2 460.4,46.0 462.4,45.7 464.4,45.6 466.4,45.4 468.4,45.2 470.4,45.0 472.4,44.7 474.4,44.4 476.3,44.2 478.3,43.9 480.3,43.8 482.3,43.6 484.3,43.5 486.3,43.4 488.3,43.2 490.3,43.0 492.3,42.7 494.3,42.5 496.3,42.3 498.3,42.2 500.3,42.0 502.3,41.8 504.2,41.5 506.2,41.3 508.2,41.2 510.2,41.0 512.2,40.7 514.2,40.5 516.2,40.3 518.2,40.2 520.2,40.1 522.2,39.9 524.2,39.7 526.2,39.5 528.2,39.4 530.1,39.3 532.1,39.1 534.1,38.7 536.1,38.4 538.1,44.5 540.1,43.3 542.1,41.0 544.1,40.1 546.1,39.0 548.1,37.7 550.1,37.0 552.1,36.5 554.1,35.6 556.1,34.3 558.0,33.3 560.0,33.0 562.0,32.5 564.0,32.1 566.0,31.4 568.0,30.7 570.0,30.0" />
  
  <!-- Punto finale luminoso -->
  <circle cx="570.0" cy="30.0" r="4" fill="#ffffff" stroke="#0366d6" stroke-width="2.5" />
</svg>