<svg width="600" height="150" viewBox="0 0 600 150" xmlns="http://www.w3.org/2000/svg">
  <defs>
    <filter id="shadow2" x="-2%" y="-2%" width="104%" height="108%">
      <feDropShadow dx="0" dy="2" stdDeviation="3" flood-opacity="0.1" />
    </filter>
    <linearGradient id="fillGrad" x1="0" y1="0" x2="0" y2="1">
      <stop offset="0%" stop-color="#0366d6" stop-opacity="0.3"/>
      <stop offset="100%" stop-color="#0366d6" stop-opacity="0.02"/>
    </linearGradient>
  </defs>
  <rect width="600" height="150" rx="12" fill="#ffffff" filter="url(#shadow2)" stroke="#e1e4e8" stroke-width="1"/>
  <text x="20" y="24" fill="#2b3137" font-family="-apple-system,BlinkMacSystemFont,'Segoe UI',Helvetica,Arial,sans-serif" font-size="14" font-weight="600">📈 Download Growth (Actual: 77.2k)</text>
  
  <!-- Area sotto la linea -->
  <polygon fill="url(#fillGrad)" points="30.0,120.0,120 30.0,120.0 32.9,119.0 35.7,118.0 38.6,117.0 41.5,116.8 44.4,116.3 47.2,115.2 50.1,114.4 53.0,113.9 55.9,112.7 58.7,112.1 61.6,111.6 64.5,111.2 67.3,110.7 70.2,109.9 73.1,109.1 76.0,108.4 78.8,108.0 81.7,107.7 84.6,107.2 87.4,106.5 90.3,106.0 93.2,105.7 96.1,105.2 98.9,103.4 101.8,102.8 104.7,102.1 107.6,101.4 110.4,100.7 113.3,100.1 116.2,99.7 119.0,99.4 121.9,98.9 124.8,98.0 127.7,97.2 130.5,96.7 133.4,96.1 136.3,95.9 139.1,95.7 142.0,95.4 144.9,94.8 147.8,94.5 150.6,94.2 153.5,93.6 156.4,92.6 159.3,92.3 162.1,92.2 165.0,91.8 167.9,91.0 170.7,90.5 173.6,89.6 176.5,89.1 179.4,88.3 182.2,88.2 185.1,87.7 188.0,87.0 190.9,86.3 193.7,85.7 196.6,85.4 199.5,85.1 202.3,84.7 205.2,83.9 208.1,83.1 211.0,82.5 213.8,81.8 216.7,81.4 219.6,81.2 222.4,80.9 225.3,80.4 228.2,80.0 231.1,79.7 233.9,79.4 236.8,79.1 239.7,78.7 242.6,78.5 245.4,78.3 248.3,78.1 251.2,77.4 254.0,76.9 256.9,76.8 259.8,76.5 262.7,76.4 265.5,76.4 268.4,88.9 271.3,87.6 274.1,86.5 277.0,85.4 279.9,82.0 282.8,79.6 285.6,77.1 288.5,76.1 291.4,75.0 294.3,73.3 297.1,71.4 300.0,70.0 302.9,69.5 305.7,69.0 308.6,67.6 311.5,66.6 314.4,66.0 317.2,65.2 320.1,64.8 323.0,64.7 325.9,64.0 328.7,62.8 331.6,62.0 334.5,61.1 337.3,60.2 340.2,59.7 343.1,59.4 346.0,58.6 348.8,57.9 351.7,57.2 354.6,56.7 357.4,56.4 360.3,56.2 363.2,55.8 366.1,55.2 368.9,54.7 371.8,54.3 374.7,53.9 377.6,53.6 380.4,53.2 383.3,52.9 386.2,52.6 389.0,52.3 391.9,51.6 394.8,51.2 397.7,50.6 400.5,50.3 403.4,49.9 406.3,49.7 409.1,49.4 412.0,49.1 414.9,48.2 417.8,47.6 420.6,46.8 423.5,46.5 426.4,46.4 429.3,46.1 432.1,45.7 435.0,45.2 437.9,44.8 440.7,44.2 443.6,43.9 446.5,43.7 449.4,43.4 452.2,43.2 455.1,42.9 458.0,42.5 460.9,42.2 463.7,41.7 466.6,41.4 469.5,41.3 472.3,41.0 475.2,40.8 478.1,40.4 481.0,40.0 483.8,39.6 486.7,39.2 489.6,38.8 492.4,38.5 495.3,38.3 498.2,38.0 501.1,37.5 503.9,37.0 506.8,36.6 509.7,36.2 512.6,35.5 515.4,35.4 518.3,35.1 521.2,35.0 524.0,34.6 526.9,34.3 529.8,33.9 532.7,33.7 535.5,33.3 538.4,33.1 541.3,32.8 544.1,32.5 547.0,32.4 549.9,32.1 552.8,31.6 555.6,31.3 558.5,30.9 561.4,30.7 564.3,30.5 567.1,30.2 570.0,30.0 570.0,30.0,120" />
  
  <!-- Linea principale -->
  <polyline fill="none" stroke="#0366d6" stroke-width="2.5" stroke-linecap="round" stroke-linejoin="round" points="30.0,120.0 32.9,119.0 35.7,118.0 38.6,117.0 41.5,116.8 44.4,116.3 47.2,115.2 50.1,114.4 53.0,113.9 55.9,112.7 58.7,112.1 61.6,111.6 64.5,111.2 67.3,110.7 70.2,109.9 73.1,109.1 76.0,108.4 78.8,108.0 81.7,107.7 84.6,107.2 87.4,106.5 90.3,106.0 93.2,105.7 96.1,105.2 98.9,103.4 101.8,102.8 104.7,102.1 107.6,101.4 110.4,100.7 113.3,100.1 116.2,99.7 119.0,99.4 121.9,98.9 124.8,98.0 127.7,97.2 130.5,96.7 133.4,96.1 136.3,95.9 139.1,95.7 142.0,95.4 144.9,94.8 147.8,94.5 150.6,94.2 153.5,93.6 156.4,92.6 159.3,92.3 162.1,92.2 165.0,91.8 167.9,91.0 170.7,90.5 173.6,89.6 176.5,89.1 179.4,88.3 182.2,88.2 185.1,87.7 188.0,87.0 190.9,86.3 193.7,85.7 196.6,85.4 199.5,85.1 202.3,84.7 205.2,83.9 208.1,83.1 211.0,82.5 213.8,81.8 216.7,81.4 219.6,81.2 222.4,80.9 225.3,80.4 228.2,80.0 231.1,79.7 233.9,79.4 236.8,79.1 239.7,78.7 242.6,78.5 245.4,78.3 248.3,78.1 251.2,77.4 254.0,76.9 256.9,76.8 259.8,76.5 262.7,76.4 265.5,76.4 268.4,88.9 271.3,87.6 274.1,86.5 277.0,85.4 279.9,82.0 282.8,79.6 285.6,77.1 288.5,76.1 291.4,75.0 294.3,73.3 297.1,71.4 300.0,70.0 302.9,69.5 305.7,69.0 308.6,67.6 311.5,66.6 314.4,66.0 317.2,65.2 320.1,64.8 323.0,64.7 325.9,64.0 328.7,62.8 331.6,62.0 334.5,61.1 337.3,60.2 340.2,59.7 343.1,59.4 346.0,58.6 348.8,57.9 351.7,57.2 354.6,56.7 357.4,56.4 360.3,56.2 363.2,55.8 366.1,55.2 368.9,54.7 371.8,54.3 374.7,53.9 377.6,53.6 380.4,53.2 383.3,52.9 386.2,52.6 389.0,52.3 391.9,51.6 394.8,51.2 397.7,50.6 400.5,50.3 403.4,49.9 406.3,49.7 409.1,49.4 412.0,49.1 414.9,48.2 417.8,47.6 420.6,46.8 423.5,46.5 426.4,46.4 429.3,46.1 432.1,45.7 435.0,45.2 437.9,44.8 440.7,44.2 443.6,43.9 446.5,43.7 449.4,43.4 452.2,43.2 455.1,42.9 458.0,42.5 460.9,42.2 463.7,41.7 466.6,41.4 469.5,41.3 472.3,41.0 475.2,40.8 478.1,40.4 481.0,40.0 483.8,39.6 486.7,39.2 489.6,38.8 492.4,38.5 495.3,38.3 498.2,38.0 501.1,37.5 503.9,37.0 506.8,36.6 509.7,36.2 512.6,35.5 515.4,35.4 518.3,35.1 521.2,35.0 524.0,34.6 526.9,34.3 529.8,33.9 532.7,33.7 535.5,33.3 538.4,33.1 541.3,32.8 544.1,32.5 547.0,32.4 549.9,32.1 552.8,31.6 555.6,31.3 558.5,30.9 561.4,30.7 564.3,30.5 567.1,30.2 570.0,30.0" />
  
  <!-- Punto finale luminoso -->
  <circle cx="570.0" cy="30.0" r="4" fill="#ffffff" stroke="#0366d6" stroke-width="2.5" />
</svg>