<svg width="600" height="150" viewBox="0 0 600 150" xmlns="http://www.w3.org/2000/svg">
  <defs>
    <filter id="shadow2" x="-2%" y="-2%" width="104%" height="108%">
      <feDropShadow dx="0" dy="2" stdDeviation="3" flood-opacity="0.1" />
    </filter>
    <linearGradient id="fillGrad" x1="0" y1="0" x2="0" y2="1">
      <stop offset="0%" stop-color="#0366d6" stop-opacity="0.3"/>
      <stop offset="100%" stop-color="#0366d6" stop-opacity="0.02"/>
    </linearGradient>
  </defs>
  <rect width="600" height="150" rx="12" fill="#ffffff" filter="url(#shadow2)" stroke="#e1e4e8" stroke-width="1"/>
  <text x="20" y="24" fill="#2b3137" font-family="-apple-system,BlinkMacSystemFont,'Segoe UI',Helvetica,Arial,sans-serif" font-size="14" font-weight="600">📈 Download Growth (Actual: 77.6k)</text>
  
  <!-- Area sotto la linea -->
  <polygon fill="url(#fillGrad)" points="30.0,120.0,120 30.0,120.0 32.7,119.1 35.5,118.0 38.2,117.1 40.9,116.9 43.6,116.4 46.4,115.3 49.1,114.6 51.8,114.1 54.5,113.0 57.3,112.4 60.0,111.9 62.7,111.5 65.5,111.0 68.2,110.3 70.9,109.5 73.6,108.8 76.4,108.4 79.1,108.1 81.8,107.6 84.5,107.0 87.3,106.5 90.0,106.3 92.7,105.8 95.5,104.0 98.2,103.4 100.9,102.7 103.6,102.1 106.4,101.4 109.1,100.8 111.8,100.5 114.5,100.2 117.3,99.7 120.0,98.8 122.7,98.1 125.5,97.6 128.2,97.0 130.9,96.8 133.6,96.6 136.4,96.3 139.1,95.8 141.8,95.4 144.5,95.2 147.3,94.5 150.0,93.6 152.7,93.4 155.5,93.2 158.2,92.8 160.9,92.0 163.6,91.5 166.4,90.8 169.1,90.2 171.8,89.5 174.5,89.4 177.3,88.9 180.0,88.2 182.7,87.5 185.5,87.0 188.2,86.7 190.9,86.4 193.6,86.0 196.4,85.2 199.1,84.5 201.8,83.8 204.5,83.2 207.3,82.9 210.0,82.6 212.7,82.4 215.5,81.8 218.2,81.5 220.9,81.2 223.6,80.9 226.4,80.6 229.1,80.3 231.8,80.0 234.5,79.8 237.3,79.7 240.0,78.9 242.7,78.5 245.5,78.4 248.2,78.1 250.9,78.0 253.6,78.0 256.4,90.0 259.1,88.8 261.8,87.8 264.5,86.7 267.3,83.4 270.0,81.1 272.7,78.6 275.5,77.7 278.2,76.7 280.9,75.0 283.6,73.2 286.4,71.8 289.1,71.3 291.8,70.8 294.5,69.5 297.3,68.6 300.0,68.0 302.7,67.2 305.5,66.9 308.2,66.7 310.9,66.0 313.6,64.9 316.4,64.1 319.1,63.3 321.8,62.4 324.5,62.0 327.3,61.7 330.0,60.9 332.7,60.2 335.5,59.5 338.2,59.0 340.9,58.8 343.6,58.6 346.4,58.2 349.1,57.6 351.8,57.1 354.5,56.7 357.3,56.4 360.0,56.0 362.7,55.7 365.5,55.4 368.2,55.1 370.9,54.8 373.6,54.2 376.4,53.7 379.1,53.2 381.8,52.8 384.5,52.5 387.3,52.3 390.0,52.0 392.7,51.7 395.5,50.8 398.2,50.2 400.9,49.5 403.6,49.2 406.4,49.2 409.1,48.8 411.8,48.4 414.5,48.0 417.3,47.6 420.0,47.0 422.7,46.7 425.5,46.5 428.2,46.2 430.9,46.0 433.6,45.8 436.4,45.4 439.1,45.1 441.8,44.6 444.5,44.3 447.3,44.2 450.0,43.9 452.7,43.8 455.5,43.3 458.2,43.0 460.9,42.5 463.6,42.2 466.4,41.8 469.1,41.5 471.8,41.3 474.5,41.1 477.3,40.5 480.0,40.0 482.7,39.7 485.5,39.3 488.2,38.6 490.9,38.5 493.6,38.3 496.4,38.1 499.1,37.8 501.8,37.5 504.5,37.1 507.3,36.9 510.0,36.5 512.7,36.3 515.5,36.0 518.2,35.8 520.9,35.6 523.6,35.3 526.4,34.8 529.1,34.6 531.8,34.2 534.5,34.0 537.3,33.8 540.0,33.5 542.7,33.3 545.5,33.1 548.2,32.8 550.9,32.3 553.6,31.7 556.4,31.4 559.1,31.1 561.8,31.0 564.5,30.8 567.3,30.5 570.0,30.0 570.0,30.0,120" />
  
  <!-- Linea principale -->
  <polyline fill="none" stroke="#0366d6" stroke-width="2.5" stroke-linecap="round" stroke-linejoin="round" points="30.0,120.0 32.7,119.1 35.5,118.0 38.2,117.1 40.9,116.9 43.6,116.4 46.4,115.3 49.1,114.6 51.8,114.1 54.5,113.0 57.3,112.4 60.0,111.9 62.7,111.5 65.5,111.0 68.2,110.3 70.9,109.5 73.6,108.8 76.4,108.4 79.1,108.1 81.8,107.6 84.5,107.0 87.3,106.5 90.0,106.3 92.7,105.8 95.5,104.0 98.2,103.4 100.9,102.7 103.6,102.1 106.4,101.4 109.1,100.8 111.8,100.5 114.5,100.2 117.3,99.7 120.0,98.8 122.7,98.1 125.5,97.6 128.2,97.0 130.9,96.8 133.6,96.6 136.4,96.3 139.1,95.8 141.8,95.4 144.5,95.2 147.3,94.5 150.0,93.6 152.7,93.4 155.5,93.2 158.2,92.8 160.9,92.0 163.6,91.5 166.4,90.8 169.1,90.2 171.8,89.5 174.5,89.4 177.3,88.9 180.0,88.2 182.7,87.5 185.5,87.0 188.2,86.7 190.9,86.4 193.6,86.0 196.4,85.2 199.1,84.5 201.8,83.8 204.5,83.2 207.3,82.9 210.0,82.6 212.7,82.4 215.5,81.8 218.2,81.5 220.9,81.2 223.6,80.9 226.4,80.6 229.1,80.3 231.8,80.0 234.5,79.8 237.3,79.7 240.0,78.9 242.7,78.5 245.5,78.4 248.2,78.1 250.9,78.0 253.6,78.0 256.4,90.0 259.1,88.8 261.8,87.8 264.5,86.7 267.3,83.4 270.0,81.1 272.7,78.6 275.5,77.7 278.2,76.7 280.9,75.0 283.6,73.2 286.4,71.8 289.1,71.3 291.8,70.8 294.5,69.5 297.3,68.6 300.0,68.0 302.7,67.2 305.5,66.9 308.2,66.7 310.9,66.0 313.6,64.9 316.4,64.1 319.1,63.3 321.8,62.4 324.5,62.0 327.3,61.7 330.0,60.9 332.7,60.2 335.5,59.5 338.2,59.0 340.9,58.8 343.6,58.6 346.4,58.2 349.1,57.6 351.8,57.1 354.5,56.7 357.3,56.4 360.0,56.0 362.7,55.7 365.5,55.4 368.2,55.1 370.9,54.8 373.6,54.2 376.4,53.7 379.1,53.2 381.8,52.8 384.5,52.5 387.3,52.3 390.0,52.0 392.7,51.7 395.5,50.8 398.2,50.2 400.9,49.5 403.6,49.2 406.4,49.2 409.1,48.8 411.8,48.4 414.5,48.0 417.3,47.6 420.0,47.0 422.7,46.7 425.5,46.5 428.2,46.2 430.9,46.0 433.6,45.8 436.4,45.4 439.1,45.1 441.8,44.6 444.5,44.3 447.3,44.2 450.0,43.9 452.7,43.8 455.5,43.3 458.2,43.0 460.9,42.5 463.6,42.2 466.4,41.8 469.1,41.5 471.8,41.3 474.5,41.1 477.3,40.5 480.0,40.0 482.7,39.7 485.5,39.3 488.2,38.6 490.9,38.5 493.6,38.3 496.4,38.1 499.1,37.8 501.8,37.5 504.5,37.1 507.3,36.9 510.0,36.5 512.7,36.3 515.5,36.0 518.2,35.8 520.9,35.6 523.6,35.3 526.4,34.8 529.1,34.6 531.8,34.2 534.5,34.0 537.3,33.8 540.0,33.5 542.7,33.3 545.5,33.1 548.2,32.8 550.9,32.3 553.6,31.7 556.4,31.4 559.1,31.1 561.8,31.0 564.5,30.8 567.3,30.5 570.0,30.0" />
  
  <!-- Punto finale luminoso -->
  <circle cx="570.0" cy="30.0" r="4" fill="#ffffff" stroke="#0366d6" stroke-width="2.5" />
</svg>