<svg width="600" height="150" viewBox="0 0 600 150" xmlns="http://www.w3.org/2000/svg">
  <defs>
    <filter id="shadow2" x="-2%" y="-2%" width="104%" height="108%">
      <feDropShadow dx="0" dy="2" stdDeviation="3" flood-opacity="0.1" />
    </filter>
    <linearGradient id="fillGrad" x1="0" y1="0" x2="0" y2="1">
      <stop offset="0%" stop-color="#0366d6" stop-opacity="0.3"/>
      <stop offset="100%" stop-color="#0366d6" stop-opacity="0.02"/>
    </linearGradient>
  </defs>
  <rect width="600" height="150" rx="12" fill="#ffffff" filter="url(#shadow2)" stroke="#e1e4e8" stroke-width="1"/>
  <text x="20" y="24" fill="#2b3137" font-family="-apple-system,BlinkMacSystemFont,'Segoe UI',Helvetica,Arial,sans-serif" font-size="14" font-weight="600">📈 Download Growth (Actual: 78.0k)</text>
  
  <!-- Area sotto la linea -->
  <polygon fill="url(#fillGrad)" points="30.0,120.0,120 30.0,120.0 32.5,119.1 35.1,118.1 37.6,117.3 40.2,117.0 42.7,116.6 45.3,115.5 47.8,114.8 50.4,114.4 52.9,113.3 55.5,112.7 58.0,112.2 60.6,111.9 63.1,111.4 65.7,110.7 68.2,109.9 70.8,109.3 73.3,108.9 75.8,108.6 78.4,108.1 80.9,107.5 83.5,107.0 86.0,106.8 88.6,106.3 91.1,104.6 93.7,104.1 96.2,103.4 98.8,102.8 101.3,102.2 103.9,101.6 106.4,101.2 109.0,100.9 111.5,100.5 114.1,99.6 116.6,98.9 119.2,98.4 121.7,97.9 124.2,97.7 126.8,97.6 129.3,97.3 131.9,96.7 134.4,96.4 137.0,96.2 139.5,95.5 142.1,94.6 144.6,94.4 147.2,94.2 149.7,93.9 152.3,93.1 154.8,92.7 157.4,91.9 159.9,91.4 162.5,90.7 165.0,90.6 167.5,90.2 170.1,89.5 172.6,88.8 175.2,88.3 177.7,88.0 180.3,87.7 182.8,87.4 185.4,86.6 187.9,85.9 190.5,85.3 193.0,84.6 195.6,84.3 198.1,84.1 200.7,83.8 203.2,83.3 205.8,83.0 208.3,82.7 210.8,82.4 213.4,82.2 215.9,81.8 218.5,81.6 221.0,81.4 223.6,81.2 226.1,80.5 228.7,80.2 231.2,80.0 233.8,79.8 236.3,79.6 238.9,79.6 241.4,91.2 244.0,90.1 246.5,89.0 249.1,88.0 251.6,84.8 254.2,82.6 256.7,80.3 259.2,79.4 261.8,78.4 264.3,76.8 266.9,75.0 269.4,73.7 272.0,73.2 274.5,72.8 277.1,71.5 279.6,70.6 282.2,70.0 284.7,69.3 287.3,69.0 289.8,68.8 292.4,68.2 294.9,67.1 297.5,66.3 300.0,65.5 302.5,64.7 305.1,64.3 307.6,63.9 310.2,63.2 312.7,62.5 315.3,61.9 317.8,61.4 320.4,61.2 322.9,61.0 325.5,60.6 328.0,60.0 330.6,59.6 333.1,59.2 335.7,58.9 338.2,58.5 340.8,58.2 343.3,57.9 345.8,57.6 348.4,57.3 350.9,56.7 353.5,56.3 356.0,55.8 358.6,55.5 361.1,55.1 363.7,54.9 366.2,54.7 368.8,54.4 371.3,53.5 373.9,53.0 376.4,52.3 379.0,52.0 381.5,51.9 384.1,51.6 386.6,51.3 389.2,50.8 391.7,50.4 394.2,49.9 396.8,49.6 399.3,49.4 401.9,49.1 404.4,48.9 407.0,48.7 409.5,48.3 412.1,48.1 414.6,47.6 417.2,47.3 419.7,47.2 422.3,46.9 424.8,46.8 427.4,46.3 429.9,46.0 432.5,45.6 435.0,45.2 437.5,44.9 440.1,44.6 442.6,44.4 445.2,44.2 447.7,43.7 450.3,43.2 452.8,42.8 455.4,42.5 457.9,41.8 460.5,41.7 463.0,41.5 465.6,41.3 468.1,41.0 470.7,40.7 473.2,40.4 475.8,40.1 478.3,39.8 480.8,39.6 483.4,39.3 485.9,39.1 488.5,38.9 491.0,38.6 493.6,38.2 496.1,38.0 498.7,37.6 501.2,37.4 503.8,37.2 506.3,36.9 508.9,36.7 511.4,36.5 514.0,36.2 516.5,35.7 519.1,35.2 521.6,34.9 524.2,34.6 526.7,34.5 529.2,34.3 531.8,34.0 534.3,33.5 536.9,33.3 539.4,33.1 542.0,32.8 544.5,32.5 547.1,32.2 549.6,32.0 552.2,31.8 554.7,31.4 557.3,31.1 559.8,30.7 562.4,30.4 564.9,30.2 567.5,30.1 570.0,30.0 570.0,30.0,120" />
  
  <!-- Linea principale -->
  <polyline fill="none" stroke="#0366d6" stroke-width="2.5" stroke-linecap="round" stroke-linejoin="round" points="30.0,120.0 32.5,119.1 35.1,118.1 37.6,117.3 40.2,117.0 42.7,116.6 45.3,115.5 47.8,114.8 50.4,114.4 52.9,113.3 55.5,112.7 58.0,112.2 60.6,111.9 63.1,111.4 65.7,110.7 68.2,109.9 70.8,109.3 73.3,108.9 75.8,108.6 78.4,108.1 80.9,107.5 83.5,107.0 86.0,106.8 88.6,106.3 91.1,104.6 93.7,104.1 96.2,103.4 98.8,102.8 101.3,102.2 103.9,101.6 106.4,101.2 109.0,100.9 111.5,100.5 114.1,99.6 116.6,98.9 119.2,98.4 121.7,97.9 124.2,97.7 126.8,97.6 129.3,97.3 131.9,96.7 134.4,96.4 137.0,96.2 139.5,95.5 142.1,94.6 144.6,94.4 147.2,94.2 149.7,93.9 152.3,93.1 154.8,92.7 157.4,91.9 159.9,91.4 162.5,90.7 165.0,90.6 167.5,90.2 170.1,89.5 172.6,88.8 175.2,88.3 177.7,88.0 180.3,87.7 182.8,87.4 185.4,86.6 187.9,85.9 190.5,85.3 193.0,84.6 195.6,84.3 198.1,84.1 200.7,83.8 203.2,83.3 205.8,83.0 208.3,82.7 210.8,82.4 213.4,82.2 215.9,81.8 218.5,81.6 221.0,81.4 223.6,81.2 226.1,80.5 228.7,80.2 231.2,80.0 233.8,79.8 236.3,79.6 238.9,79.6 241.4,91.2 244.0,90.1 246.5,89.0 249.1,88.0 251.6,84.8 254.2,82.6 256.7,80.3 259.2,79.4 261.8,78.4 264.3,76.8 266.9,75.0 269.4,73.7 272.0,73.2 274.5,72.8 277.1,71.5 279.6,70.6 282.2,70.0 284.7,69.3 287.3,69.0 289.8,68.8 292.4,68.2 294.9,67.1 297.5,66.3 300.0,65.5 302.5,64.7 305.1,64.3 307.6,63.9 310.2,63.2 312.7,62.5 315.3,61.9 317.8,61.4 320.4,61.2 322.9,61.0 325.5,60.6 328.0,60.0 330.6,59.6 333.1,59.2 335.7,58.9 338.2,58.5 340.8,58.2 343.3,57.9 345.8,57.6 348.4,57.3 350.9,56.7 353.5,56.3 356.0,55.8 358.6,55.5 361.1,55.1 363.7,54.9 366.2,54.7 368.8,54.4 371.3,53.5 373.9,53.0 376.4,52.3 379.0,52.0 381.5,51.9 384.1,51.6 386.6,51.3 389.2,50.8 391.7,50.4 394.2,49.9 396.8,49.6 399.3,49.4 401.9,49.1 404.4,48.9 407.0,48.7 409.5,48.3 412.1,48.1 414.6,47.6 417.2,47.3 419.7,47.2 422.3,46.9 424.8,46.8 427.4,46.3 429.9,46.0 432.5,45.6 435.0,45.2 437.5,44.9 440.1,44.6 442.6,44.4 445.2,44.2 447.7,43.7 450.3,43.2 452.8,42.8 455.4,42.5 457.9,41.8 460.5,41.7 463.0,41.5 465.6,41.3 468.1,41.0 470.7,40.7 473.2,40.4 475.8,40.1 478.3,39.8 480.8,39.6 483.4,39.3 485.9,39.1 488.5,38.9 491.0,38.6 493.6,38.2 496.1,38.0 498.7,37.6 501.2,37.4 503.8,37.2 506.3,36.9 508.9,36.7 511.4,36.5 514.0,36.2 516.5,35.7 519.1,35.2 521.6,34.9 524.2,34.6 526.7,34.5 529.2,34.3 531.8,34.0 534.3,33.5 536.9,33.3 539.4,33.1 542.0,32.8 544.5,32.5 547.1,32.2 549.6,32.0 552.2,31.8 554.7,31.4 557.3,31.1 559.8,30.7 562.4,30.4 564.9,30.2 567.5,30.1 570.0,30.0" />
  
  <!-- Punto finale luminoso -->
  <circle cx="570.0" cy="30.0" r="4" fill="#ffffff" stroke="#0366d6" stroke-width="2.5" />
</svg>