<svg width="600" height="150" viewBox="0 0 600 150" xmlns="http://www.w3.org/2000/svg">
  <defs>
    <filter id="shadow2" x="-2%" y="-2%" width="104%" height="108%">
      <feDropShadow dx="0" dy="2" stdDeviation="3" flood-opacity="0.1" />
    </filter>
    <linearGradient id="fillGrad" x1="0" y1="0" x2="0" y2="1">
      <stop offset="0%" stop-color="#0366d6" stop-opacity="0.3"/>
      <stop offset="100%" stop-color="#0366d6" stop-opacity="0.02"/>
    </linearGradient>
  </defs>
  <rect width="600" height="150" rx="12" fill="#ffffff" filter="url(#shadow2)" stroke="#e1e4e8" stroke-width="1"/>
  <text x="20" y="24" fill="#2b3137" font-family="-apple-system,BlinkMacSystemFont,'Segoe UI',Helvetica,Arial,sans-serif" font-size="14" font-weight="600">📈 Download Growth (Actual: 84.9k)</text>
  
  <!-- Area sotto la linea -->
  <polygon fill="url(#fillGrad)" points="30.0,120.0,120 30.0,120.0 31.6,119.4 33.1,118.8 34.7,118.3 36.3,118.2 37.8,117.9 39.4,117.2 41.0,116.8 42.5,116.5 44.1,115.8 45.7,115.5 47.2,115.2 48.8,115.0 50.3,114.7 51.9,114.2 53.5,113.7 55.0,113.4 56.6,113.1 58.2,113.0 59.7,112.7 61.3,112.3 62.9,112.0 64.4,111.8 66.0,111.5 67.6,110.5 69.1,110.2 70.7,109.8 72.3,109.3 73.8,109.0 75.4,108.6 77.0,108.4 78.5,108.2 80.1,107.9 81.7,107.4 83.2,107.0 84.8,106.7 86.3,106.3 87.9,106.2 89.5,106.1 91.0,106.0 92.6,105.6 94.2,105.4 95.7,105.3 97.3,104.9 98.9,104.3 100.4,104.2 102.0,104.1 103.6,103.9 105.1,103.4 106.7,103.1 108.3,102.6 109.8,102.3 111.4,101.9 113.0,101.8 114.5,101.6 116.1,101.1 117.7,100.7 119.2,100.4 120.8,100.2 122.3,100.0 123.9,99.8 125.5,99.4 127.0,98.9 128.6,98.5 130.2,98.1 131.7,97.9 133.3,97.8 134.9,97.7 136.4,97.3 138.0,97.1 139.6,96.9 141.1,96.8 142.7,96.6 144.3,96.4 145.8,96.3 147.4,96.2 149.0,96.1 150.5,95.6 152.1,95.4 153.7,95.3 155.2,95.2 156.8,95.1 158.3,95.1 159.9,102.2 161.5,101.5 163.0,100.9 164.6,100.2 166.2,98.3 167.7,96.9 169.3,95.4 170.9,94.9 172.4,94.3 174.0,93.3 175.6,92.2 177.1,91.4 178.7,91.1 180.3,90.8 181.8,90.0 183.4,89.5 185.0,89.1 186.5,88.7 188.1,88.5 189.7,88.4 191.2,88.0 192.8,87.3 194.3,86.8 195.9,86.4 197.5,85.8 199.0,85.6 200.6,85.4 202.2,84.9 203.7,84.5 205.3,84.1 206.9,83.8 208.4,83.6 210.0,83.5 211.6,83.3 213.1,82.9 214.7,82.7 216.3,82.4 217.8,82.2 219.4,82.0 221.0,81.8 222.5,81.6 224.1,81.5 225.7,81.3 227.2,80.9 228.8,80.6 230.3,80.3 231.9,80.1 233.5,79.9 235.0,79.8 236.6,79.6 238.2,79.4 239.7,78.9 241.3,78.6 242.9,78.2 244.4,78.0 246.0,77.9 247.6,77.7 249.1,77.5 250.7,77.3 252.3,77.0 253.8,76.7 255.4,76.5 257.0,76.4 258.5,76.2 260.1,76.1 261.7,75.9 263.2,75.7 264.8,75.5 266.3,75.2 267.9,75.1 269.5,75.0 271.0,74.8 272.6,74.7 274.2,74.5 275.7,74.3 277.3,74.0 278.9,73.8 280.4,73.6 282.0,73.4 283.6,73.3 285.1,73.2 286.7,72.8 288.3,72.5 289.8,72.3 291.4,72.1 293.0,71.7 294.5,71.6 296.1,71.5 297.7,71.4 299.2,71.2 300.8,71.0 302.3,70.8 303.9,70.6 305.5,70.5 307.0,70.3 308.6,70.1 310.2,70.0 311.7,69.9 313.3,69.7 314.9,69.4 316.4,69.3 318.0,69.1 319.6,69.0 321.1,68.8 322.7,68.7 324.3,68.6 325.8,68.4 327.4,68.2 329.0,67.9 330.5,67.6 332.1,67.4 333.7,67.2 335.2,67.1 336.8,67.1 338.3,66.9 339.9,66.6 341.5,66.4 343.0,66.3 344.6,66.1 346.2,66.0 347.7,65.8 349.3,65.6 350.9,65.5 352.4,65.3 354.0,65.1 355.6,64.8 357.1,64.6 358.7,64.5 360.3,64.5 361.8,64.4 363.4,64.2 365.0,64.1 366.5,63.9 368.1,63.7 369.7,63.5 371.2,63.4 372.8,63.3 374.3,63.1 375.9,63.0 377.5,62.8 379.0,62.5 380.6,62.3 382.2,62.2 383.7,62.0 385.3,61.9 386.9,61.8 388.4,61.7 390.0,61.6 391.6,61.5 393.1,61.2 394.7,61.1 396.3,60.9 397.8,60.8 399.4,60.7 401.0,60.5 402.5,60.3 404.1,60.2 405.7,60.1 407.2,59.9 408.8,59.7 410.3,59.6 411.9,59.4 413.5,59.3 415.0,59.2 416.6,59.1 418.2,59.0 419.7,58.8 421.3,58.7 422.9,58.6 424.4,58.5 426.0,58.2 427.6,57.9 429.1,62.6 430.7,61.7 432.3,59.9 433.8,59.2 435.4,58.4 437.0,57.4 438.5,56.9 440.1,56.5 441.7,55.8 443.2,54.8 444.8,54.1 446.3,53.8 447.9,53.5 449.5,53.1 451.0,52.6 452.6,52.1 454.2,51.6 455.7,51.3 457.3,50.8 458.9,50.5 460.4,50.2 462.0,49.9 463.6,49.7 465.1,49.4 466.7,48.9 468.3,48.6 469.8,48.1 471.4,47.5 473.0,47.1 474.5,46.9 476.1,46.7 477.7,46.4 479.2,46.0 480.8,45.6 482.3,45.3 483.9,44.4 485.5,43.6 487.0,43.3 488.6,43.1 490.2,42.8 491.7,42.3 493.3,41.9 494.9,41.6 496.4,41.2 498.0,40.9 499.6,40.6 501.1,40.3 502.7,39.8 504.3,39.6 505.8,39.4 507.4,39.2 509.0,38.8 510.5,38.5 512.1,38.2 513.7,38.1 515.2,37.9 516.8,37.6 518.3,37.5 519.9,37.2 521.5,37.0 523.0,36.9 524.6,36.7 526.2,36.4 527.7,36.2 529.3,35.8 530.9,35.4 532.4,35.1 534.0,35.0 535.6,34.8 537.1,34.6 538.7,34.4 540.3,34.2 541.8,34.0 543.4,33.9 545.0,33.7 546.5,33.5 548.1,33.4 549.7,33.1 551.2,32.9 552.8,32.7 554.3,32.5 555.9,32.1 557.5,31.7 559.0,31.5 560.6,31.3 562.2,31.1 563.7,30.8 565.3,30.6 566.9,30.3 568.4,30.1 570.0,30.0 570.0,30.0,120" />
  
  <!-- Linea principale -->
  <polyline fill="none" stroke="#0366d6" stroke-width="2.5" stroke-linecap="round" stroke-linejoin="round" points="30.0,120.0 31.6,119.4 33.1,118.8 34.7,118.3 36.3,118.2 37.8,117.9 39.4,117.2 41.0,116.8 42.5,116.5 44.1,115.8 45.7,115.5 47.2,115.2 48.8,115.0 50.3,114.7 51.9,114.2 53.5,113.7 55.0,113.4 56.6,113.1 58.2,113.0 59.7,112.7 61.3,112.3 62.9,112.0 64.4,111.8 66.0,111.5 67.6,110.5 69.1,110.2 70.7,109.8 72.3,109.3 73.8,109.0 75.4,108.6 77.0,108.4 78.5,108.2 80.1,107.9 81.7,107.4 83.2,107.0 84.8,106.7 86.3,106.3 87.9,106.2 89.5,106.1 91.0,106.0 92.6,105.6 94.2,105.4 95.7,105.3 97.3,104.9 98.9,104.3 100.4,104.2 102.0,104.1 103.6,103.9 105.1,103.4 106.7,103.1 108.3,102.6 109.8,102.3 111.4,101.9 113.0,101.8 114.5,101.6 116.1,101.1 117.7,100.7 119.2,100.4 120.8,100.2 122.3,100.0 123.9,99.8 125.5,99.4 127.0,98.9 128.6,98.5 130.2,98.1 131.7,97.9 133.3,97.8 134.9,97.7 136.4,97.3 138.0,97.1 139.6,96.9 141.1,96.8 142.7,96.6 144.3,96.4 145.8,96.3 147.4,96.2 149.0,96.1 150.5,95.6 152.1,95.4 153.7,95.3 155.2,95.2 156.8,95.1 158.3,95.1 159.9,102.2 161.5,101.5 163.0,100.9 164.6,100.2 166.2,98.3 167.7,96.9 169.3,95.4 170.9,94.9 172.4,94.3 174.0,93.3 175.6,92.2 177.1,91.4 178.7,91.1 180.3,90.8 181.8,90.0 183.4,89.5 185.0,89.1 186.5,88.7 188.1,88.5 189.7,88.4 191.2,88.0 192.8,87.3 194.3,86.8 195.9,86.4 197.5,85.8 199.0,85.6 200.6,85.4 202.2,84.9 203.7,84.5 205.3,84.1 206.9,83.8 208.4,83.6 210.0,83.5 211.6,83.3 213.1,82.9 214.7,82.7 216.3,82.4 217.8,82.2 219.4,82.0 221.0,81.8 222.5,81.6 224.1,81.5 225.7,81.3 227.2,80.9 228.8,80.6 230.3,80.3 231.9,80.1 233.5,79.9 235.0,79.8 236.6,79.6 238.2,79.4 239.7,78.9 241.3,78.6 242.9,78.2 244.4,78.0 246.0,77.9 247.6,77.7 249.1,77.5 250.7,77.3 252.3,77.0 253.8,76.7 255.4,76.5 257.0,76.4 258.5,76.2 260.1,76.1 261.7,75.9 263.2,75.7 264.8,75.5 266.3,75.2 267.9,75.1 269.5,75.0 271.0,74.8 272.6,74.7 274.2,74.5 275.7,74.3 277.3,74.0 278.9,73.8 280.4,73.6 282.0,73.4 283.6,73.3 285.1,73.2 286.7,72.8 288.3,72.5 289.8,72.3 291.4,72.1 293.0,71.7 294.5,71.6 296.1,71.5 297.7,71.4 299.2,71.2 300.8,71.0 302.3,70.8 303.9,70.6 305.5,70.5 307.0,70.3 308.6,70.1 310.2,70.0 311.7,69.9 313.3,69.7 314.9,69.4 316.4,69.3 318.0,69.1 319.6,69.0 321.1,68.8 322.7,68.7 324.3,68.6 325.8,68.4 327.4,68.2 329.0,67.9 330.5,67.6 332.1,67.4 333.7,67.2 335.2,67.1 336.8,67.1 338.3,66.9 339.9,66.6 341.5,66.4 343.0,66.3 344.6,66.1 346.2,66.0 347.7,65.8 349.3,65.6 350.9,65.5 352.4,65.3 354.0,65.1 355.6,64.8 357.1,64.6 358.7,64.5 360.3,64.5 361.8,64.4 363.4,64.2 365.0,64.1 366.5,63.9 368.1,63.7 369.7,63.5 371.2,63.4 372.8,63.3 374.3,63.1 375.9,63.0 377.5,62.8 379.0,62.5 380.6,62.3 382.2,62.2 383.7,62.0 385.3,61.9 386.9,61.8 388.4,61.7 390.0,61.6 391.6,61.5 393.1,61.2 394.7,61.1 396.3,60.9 397.8,60.8 399.4,60.7 401.0,60.5 402.5,60.3 404.1,60.2 405.7,60.1 407.2,59.9 408.8,59.7 410.3,59.6 411.9,59.4 413.5,59.3 415.0,59.2 416.6,59.1 418.2,59.0 419.7,58.8 421.3,58.7 422.9,58.6 424.4,58.5 426.0,58.2 427.6,57.9 429.1,62.6 430.7,61.7 432.3,59.9 433.8,59.2 435.4,58.4 437.0,57.4 438.5,56.9 440.1,56.5 441.7,55.8 443.2,54.8 444.8,54.1 446.3,53.8 447.9,53.5 449.5,53.1 451.0,52.6 452.6,52.1 454.2,51.6 455.7,51.3 457.3,50.8 458.9,50.5 460.4,50.2 462.0,49.9 463.6,49.7 465.1,49.4 466.7,48.9 468.3,48.6 469.8,48.1 471.4,47.5 473.0,47.1 474.5,46.9 476.1,46.7 477.7,46.4 479.2,46.0 480.8,45.6 482.3,45.3 483.9,44.4 485.5,43.6 487.0,43.3 488.6,43.1 490.2,42.8 491.7,42.3 493.3,41.9 494.9,41.6 496.4,41.2 498.0,40.9 499.6,40.6 501.1,40.3 502.7,39.8 504.3,39.6 505.8,39.4 507.4,39.2 509.0,38.8 510.5,38.5 512.1,38.2 513.7,38.1 515.2,37.9 516.8,37.6 518.3,37.5 519.9,37.2 521.5,37.0 523.0,36.9 524.6,36.7 526.2,36.4 527.7,36.2 529.3,35.8 530.9,35.4 532.4,35.1 534.0,35.0 535.6,34.8 537.1,34.6 538.7,34.4 540.3,34.2 541.8,34.0 543.4,33.9 545.0,33.7 546.5,33.5 548.1,33.4 549.7,33.1 551.2,32.9 552.8,32.7 554.3,32.5 555.9,32.1 557.5,31.7 559.0,31.5 560.6,31.3 562.2,31.1 563.7,30.8 565.3,30.6 566.9,30.3 568.4,30.1 570.0,30.0" />
  
  <!-- Punto finale luminoso -->
  <circle cx="570.0" cy="30.0" r="4" fill="#ffffff" stroke="#0366d6" stroke-width="2.5" />
</svg>