<svg width="600" height="150" viewBox="0 0 600 150" xmlns="http://www.w3.org/2000/svg">
  <defs>
    <filter id="shadow2" x="-2%" y="-2%" width="104%" height="108%">
      <feDropShadow dx="0" dy="2" stdDeviation="3" flood-opacity="0.1" />
    </filter>
    <linearGradient id="fillGrad" x1="0" y1="0" x2="0" y2="1">
      <stop offset="0%" stop-color="#0366d6" stop-opacity="0.3"/>
      <stop offset="100%" stop-color="#0366d6" stop-opacity="0.02"/>
    </linearGradient>
  </defs>
  <rect width="600" height="150" rx="12" fill="#ffffff" filter="url(#shadow2)" stroke="#e1e4e8" stroke-width="1"/>
  <text x="20" y="24" fill="#2b3137" font-family="-apple-system,BlinkMacSystemFont,'Segoe UI',Helvetica,Arial,sans-serif" font-size="14" font-weight="600">📈 Download Growth (Actual: 73.3k)</text>
  
  <!-- Area sotto la linea -->
  <polygon fill="url(#fillGrad)" points="30.0,120.0,120 30.0,120.0 35.2,118.4 40.5,116.7 45.7,115.2 51.0,114.8 56.2,114.1 61.5,112.2 66.7,111.0 71.9,110.2 77.2,108.3 82.4,107.4 87.7,106.4 92.9,105.9 98.2,105.0 103.4,103.8 108.6,102.4 113.9,101.4 119.1,100.7 124.4,100.2 129.6,99.4 134.9,98.4 140.1,97.5 145.3,97.1 150.6,96.2 155.8,93.3 161.1,92.4 166.3,91.2 171.6,90.1 176.8,89.0 182.0,88.1 187.3,87.4 192.5,86.9 197.8,86.1 203.0,84.7 208.3,83.4 213.5,82.6 218.7,81.6 224.0,81.3 229.2,81.1 234.5,80.5 239.7,79.6 245.0,79.0 250.2,78.6 255.4,77.5 260.7,75.9 265.9,75.6 271.2,75.3 276.4,74.6 281.7,73.4 286.9,72.5 292.1,71.2 297.4,70.3 302.6,69.1 307.9,68.9 313.1,68.2 318.3,67.0 323.6,65.8 328.8,64.9 334.1,64.5 339.3,63.9 344.6,63.4 349.8,62.0 355.0,60.8 360.3,59.7 365.5,58.6 370.8,58.0 376.0,57.7 381.3,57.2 386.5,56.3 391.7,55.7 397.0,55.2 402.2,54.8 407.5,54.4 412.7,53.7 418.0,53.3 423.2,53.0 428.4,52.7 433.7,51.5 438.9,50.8 444.2,50.6 449.4,50.2 454.7,50.0 459.9,50.0 465.1,70.0 470.4,68.0 475.6,66.2 480.9,64.4 486.1,58.9 491.4,55.1 496.6,51.0 501.8,49.5 507.1,47.8 512.3,45.0 517.6,41.9 522.8,39.7 528.1,38.8 533.3,38.0 538.5,35.8 543.8,34.2 549.0,33.2 554.3,31.9 559.5,31.4 564.8,31.2 570.0,30.0 570.0,30.0,120" />
  
  <!-- Linea principale -->
  <polyline fill="none" stroke="#0366d6" stroke-width="2.5" stroke-linecap="round" stroke-linejoin="round" points="30.0,120.0 35.2,118.4 40.5,116.7 45.7,115.2 51.0,114.8 56.2,114.1 61.5,112.2 66.7,111.0 71.9,110.2 77.2,108.3 82.4,107.4 87.7,106.4 92.9,105.9 98.2,105.0 103.4,103.8 108.6,102.4 113.9,101.4 119.1,100.7 124.4,100.2 129.6,99.4 134.9,98.4 140.1,97.5 145.3,97.1 150.6,96.2 155.8,93.3 161.1,92.4 166.3,91.2 171.6,90.1 176.8,89.0 182.0,88.1 187.3,87.4 192.5,86.9 197.8,86.1 203.0,84.7 208.3,83.4 213.5,82.6 218.7,81.6 224.0,81.3 229.2,81.1 234.5,80.5 239.7,79.6 245.0,79.0 250.2,78.6 255.4,77.5 260.7,75.9 265.9,75.6 271.2,75.3 276.4,74.6 281.7,73.4 286.9,72.5 292.1,71.2 297.4,70.3 302.6,69.1 307.9,68.9 313.1,68.2 318.3,67.0 323.6,65.8 328.8,64.9 334.1,64.5 339.3,63.9 344.6,63.4 349.8,62.0 355.0,60.8 360.3,59.7 365.5,58.6 370.8,58.0 376.0,57.7 381.3,57.2 386.5,56.3 391.7,55.7 397.0,55.2 402.2,54.8 407.5,54.4 412.7,53.7 418.0,53.3 423.2,53.0 428.4,52.7 433.7,51.5 438.9,50.8 444.2,50.6 449.4,50.2 454.7,50.0 459.9,50.0 465.1,70.0 470.4,68.0 475.6,66.2 480.9,64.4 486.1,58.9 491.4,55.1 496.6,51.0 501.8,49.5 507.1,47.8 512.3,45.0 517.6,41.9 522.8,39.7 528.1,38.8 533.3,38.0 538.5,35.8 543.8,34.2 549.0,33.2 554.3,31.9 559.5,31.4 564.8,31.2 570.0,30.0" />
  
  <!-- Punto finale luminoso -->
  <circle cx="570.0" cy="30.0" r="4" fill="#ffffff" stroke="#0366d6" stroke-width="2.5" />
</svg>