<svg width="600" height="150" viewBox="0 0 600 150" xmlns="http://www.w3.org/2000/svg">
  <defs>
    <filter id="shadow2" x="-2%" y="-2%" width="104%" height="108%">
      <feDropShadow dx="0" dy="2" stdDeviation="3" flood-opacity="0.1" />
    </filter>
    <linearGradient id="fillGrad" x1="0" y1="0" x2="0" y2="1">
      <stop offset="0%" stop-color="#0366d6" stop-opacity="0.3"/>
      <stop offset="100%" stop-color="#0366d6" stop-opacity="0.02"/>
    </linearGradient>
  </defs>
  <rect width="600" height="150" rx="12" fill="#ffffff" filter="url(#shadow2)" stroke="#e1e4e8" stroke-width="1"/>
  <text x="20" y="24" fill="#2b3137" font-family="-apple-system,BlinkMacSystemFont,'Segoe UI',Helvetica,Arial,sans-serif" font-size="14" font-weight="600">📈 Download Growth (Actual: 85.3k)</text>
  
  <!-- Area sotto la linea -->
  <polygon fill="url(#fillGrad)" points="30.0,120.0,120 30.0,120.0 31.5,119.5 33.0,118.9 34.6,118.3 36.1,118.2 37.6,117.9 39.1,117.3 40.6,116.9 42.2,116.6 43.7,115.9 45.2,115.6 46.7,115.3 48.3,115.1 49.8,114.8 51.3,114.4 52.8,113.9 54.3,113.5 55.9,113.3 57.4,113.1 58.9,112.8 60.4,112.5 61.9,112.2 63.5,112.0 65.0,111.7 66.5,110.7 68.0,110.4 69.5,110.0 71.1,109.6 72.6,109.2 74.1,108.9 75.6,108.7 77.2,108.5 78.7,108.2 80.2,107.7 81.7,107.3 83.2,107.0 84.8,106.6 86.3,106.5 87.8,106.5 89.3,106.3 90.8,106.0 92.4,105.8 93.9,105.6 95.4,105.2 96.9,104.7 98.5,104.6 100.0,104.5 101.5,104.2 103.0,103.8 104.5,103.5 106.1,103.0 107.6,102.7 109.1,102.3 110.6,102.2 112.1,102.0 113.7,101.6 115.2,101.2 116.7,100.9 118.2,100.7 119.7,100.5 121.3,100.3 122.8,99.9 124.3,99.4 125.8,99.0 127.4,98.7 128.9,98.5 130.4,98.3 131.9,98.2 133.4,97.9 135.0,97.7 136.5,97.5 138.0,97.3 139.5,97.2 141.0,97.0 142.6,96.8 144.1,96.7 145.6,96.6 147.1,96.2 148.6,96.0 150.2,95.9 151.7,95.7 153.2,95.7 154.7,95.7 156.3,102.6 157.8,101.9 159.3,101.3 160.8,100.7 162.3,98.8 163.9,97.4 165.4,96.0 166.9,95.5 168.4,94.9 169.9,93.9 171.5,92.9 173.0,92.1 174.5,91.8 176.0,91.5 177.5,90.7 179.1,90.2 180.6,89.8 182.1,89.4 183.6,89.2 185.2,89.1 186.7,88.7 188.2,88.1 189.7,87.6 191.2,87.1 192.8,86.6 194.3,86.4 195.8,86.2 197.3,85.7 198.8,85.3 200.4,84.9 201.9,84.6 203.4,84.5 204.9,84.4 206.5,84.2 208.0,83.8 209.5,83.6 211.0,83.3 212.5,83.1 214.1,82.9 215.6,82.7 217.1,82.5 218.6,82.4 220.1,82.2 221.7,81.8 223.2,81.6 224.7,81.3 226.2,81.1 227.7,80.9 229.3,80.7 230.8,80.6 232.3,80.4 233.8,79.9 235.4,79.6 236.9,79.1 238.4,79.0 239.9,78.9 241.4,78.7 243.0,78.5 244.5,78.3 246.0,78.0 247.5,77.7 249.0,77.5 250.6,77.4 252.1,77.2 253.6,77.1 255.1,77.0 256.6,76.8 258.2,76.6 259.7,76.3 261.2,76.1 262.7,76.0 264.3,75.9 265.8,75.8 267.3,75.5 268.8,75.3 270.3,75.1 271.9,74.9 273.4,74.7 274.9,74.5 276.4,74.4 277.9,74.2 279.5,73.9 281.0,73.6 282.5,73.4 284.0,73.2 285.5,72.8 287.1,72.7 288.6,72.6 290.1,72.5 291.6,72.3 293.2,72.2 294.7,72.0 296.2,71.8 297.7,71.6 299.2,71.5 300.8,71.3 302.3,71.2 303.8,71.1 305.3,70.9 306.8,70.6 308.4,70.5 309.9,70.3 311.4,70.2 312.9,70.0 314.5,69.9 316.0,69.8 317.5,69.6 319.0,69.5 320.5,69.2 322.1,68.8 323.6,68.6 325.1,68.5 326.6,68.4 328.1,68.3 329.7,68.1 331.2,67.8 332.7,67.7 334.2,67.6 335.7,67.4 337.3,67.2 338.8,67.0 340.3,66.9 341.8,66.8 343.4,66.6 344.9,66.4 346.4,66.1 347.9,65.9 349.4,65.8 351.0,65.8 352.5,65.7 354.0,65.5 355.5,65.4 357.0,65.2 358.6,65.0 360.1,64.8 361.6,64.7 363.1,64.6 364.6,64.5 366.2,64.3 367.7,64.1 369.2,63.9 370.7,63.7 372.3,63.5 373.8,63.4 375.3,63.3 376.8,63.2 378.3,63.1 379.9,63.0 381.4,62.8 382.9,62.6 384.4,62.4 385.9,62.3 387.5,62.2 389.0,62.0 390.5,61.9 392.0,61.7 393.5,61.6 395.1,61.5 396.6,61.3 398.1,61.1 399.6,61.0 401.2,60.8 402.7,60.7 404.2,60.6 405.7,60.5 407.2,60.4 408.8,60.2 410.3,60.1 411.8,60.1 413.3,59.9 414.8,59.6 416.4,59.4 417.9,63.9 419.4,63.0 420.9,61.3 422.5,60.7 424.0,59.9 425.5,58.9 427.0,58.4 428.5,58.0 430.1,57.3 431.6,56.4 433.1,55.6 434.6,55.4 436.1,55.0 437.7,54.7 439.2,54.2 440.7,53.7 442.2,53.2 443.7,52.9 445.3,52.4 446.8,52.1 448.3,51.8 449.8,51.6 451.4,51.3 452.9,51.1 454.4,50.6 455.9,50.2 457.4,49.8 459.0,49.2 460.5,48.8 462.0,48.6 463.5,48.4 465.0,48.2 466.6,47.8 468.1,47.4 469.6,47.1 471.1,46.2 472.6,45.4 474.2,45.1 475.7,44.9 477.2,44.6 478.7,44.1 480.3,43.7 481.8,43.4 483.3,43.1 484.8,42.7 486.3,42.4 487.9,42.1 489.4,41.7 490.9,41.5 492.4,41.3 493.9,41.1 495.5,40.7 497.0,40.4 498.5,40.2 500.0,40.0 501.5,39.8 503.1,39.5 504.6,39.4 506.1,39.2 507.6,39.0 509.2,38.8 510.7,38.6 512.2,38.3 513.7,38.1 515.2,37.8 516.8,37.4 518.3,37.1 519.8,36.9 521.3,36.7 522.8,36.6 524.4,36.4 525.9,36.2 527.4,36.0 528.9,35.9 530.5,35.8 532.0,35.5 533.5,35.4 535.0,35.1 536.5,35.0 538.1,34.8 539.6,34.5 541.1,34.2 542.6,33.8 544.1,33.6 545.7,33.4 547.2,33.2 548.7,32.9 550.2,32.7 551.7,32.4 553.3,32.2 554.8,32.1 556.3,32.0 557.8,31.7 559.4,31.5 560.9,31.3 562.4,31.2 563.9,30.9 565.4,30.6 567.0,30.5 568.5,30.2 570.0,30.0 570.0,30.0,120" />
  
  <!-- Linea principale -->
  <polyline fill="none" stroke="#0366d6" stroke-width="2.5" stroke-linecap="round" stroke-linejoin="round" points="30.0,120.0 31.5,119.5 33.0,118.9 34.6,118.3 36.1,118.2 37.6,117.9 39.1,117.3 40.6,116.9 42.2,116.6 43.7,115.9 45.2,115.6 46.7,115.3 48.3,115.1 49.8,114.8 51.3,114.4 52.8,113.9 54.3,113.5 55.9,113.3 57.4,113.1 58.9,112.8 60.4,112.5 61.9,112.2 63.5,112.0 65.0,111.7 66.5,110.7 68.0,110.4 69.5,110.0 71.1,109.6 72.6,109.2 74.1,108.9 75.6,108.7 77.2,108.5 78.7,108.2 80.2,107.7 81.7,107.3 83.2,107.0 84.8,106.6 86.3,106.5 87.8,106.5 89.3,106.3 90.8,106.0 92.4,105.8 93.9,105.6 95.4,105.2 96.9,104.7 98.5,104.6 100.0,104.5 101.5,104.2 103.0,103.8 104.5,103.5 106.1,103.0 107.6,102.7 109.1,102.3 110.6,102.2 112.1,102.0 113.7,101.6 115.2,101.2 116.7,100.9 118.2,100.7 119.7,100.5 121.3,100.3 122.8,99.9 124.3,99.4 125.8,99.0 127.4,98.7 128.9,98.5 130.4,98.3 131.9,98.2 133.4,97.9 135.0,97.7 136.5,97.5 138.0,97.3 139.5,97.2 141.0,97.0 142.6,96.8 144.1,96.7 145.6,96.6 147.1,96.2 148.6,96.0 150.2,95.9 151.7,95.7 153.2,95.7 154.7,95.7 156.3,102.6 157.8,101.9 159.3,101.3 160.8,100.7 162.3,98.8 163.9,97.4 165.4,96.0 166.9,95.5 168.4,94.9 169.9,93.9 171.5,92.9 173.0,92.1 174.5,91.8 176.0,91.5 177.5,90.7 179.1,90.2 180.6,89.8 182.1,89.4 183.6,89.2 185.2,89.1 186.7,88.7 188.2,88.1 189.7,87.6 191.2,87.1 192.8,86.6 194.3,86.4 195.8,86.2 197.3,85.7 198.8,85.3 200.4,84.9 201.9,84.6 203.4,84.5 204.9,84.4 206.5,84.2 208.0,83.8 209.5,83.6 211.0,83.3 212.5,83.1 214.1,82.9 215.6,82.7 217.1,82.5 218.6,82.4 220.1,82.2 221.7,81.8 223.2,81.6 224.7,81.3 226.2,81.1 227.7,80.9 229.3,80.7 230.8,80.6 232.3,80.4 233.8,79.9 235.4,79.6 236.9,79.1 238.4,79.0 239.9,78.9 241.4,78.7 243.0,78.5 244.5,78.3 246.0,78.0 247.5,77.7 249.0,77.5 250.6,77.4 252.1,77.2 253.6,77.1 255.1,77.0 256.6,76.8 258.2,76.6 259.7,76.3 261.2,76.1 262.7,76.0 264.3,75.9 265.8,75.8 267.3,75.5 268.8,75.3 270.3,75.1 271.9,74.9 273.4,74.7 274.9,74.5 276.4,74.4 277.9,74.2 279.5,73.9 281.0,73.6 282.5,73.4 284.0,73.2 285.5,72.8 287.1,72.7 288.6,72.6 290.1,72.5 291.6,72.3 293.2,72.2 294.7,72.0 296.2,71.8 297.7,71.6 299.2,71.5 300.8,71.3 302.3,71.2 303.8,71.1 305.3,70.9 306.8,70.6 308.4,70.5 309.9,70.3 311.4,70.2 312.9,70.0 314.5,69.9 316.0,69.8 317.5,69.6 319.0,69.5 320.5,69.2 322.1,68.8 323.6,68.6 325.1,68.5 326.6,68.4 328.1,68.3 329.7,68.1 331.2,67.8 332.7,67.7 334.2,67.6 335.7,67.4 337.3,67.2 338.8,67.0 340.3,66.9 341.8,66.8 343.4,66.6 344.9,66.4 346.4,66.1 347.9,65.9 349.4,65.8 351.0,65.8 352.5,65.7 354.0,65.5 355.5,65.4 357.0,65.2 358.6,65.0 360.1,64.8 361.6,64.7 363.1,64.6 364.6,64.5 366.2,64.3 367.7,64.1 369.2,63.9 370.7,63.7 372.3,63.5 373.8,63.4 375.3,63.3 376.8,63.2 378.3,63.1 379.9,63.0 381.4,62.8 382.9,62.6 384.4,62.4 385.9,62.3 387.5,62.2 389.0,62.0 390.5,61.9 392.0,61.7 393.5,61.6 395.1,61.5 396.6,61.3 398.1,61.1 399.6,61.0 401.2,60.8 402.7,60.7 404.2,60.6 405.7,60.5 407.2,60.4 408.8,60.2 410.3,60.1 411.8,60.1 413.3,59.9 414.8,59.6 416.4,59.4 417.9,63.9 419.4,63.0 420.9,61.3 422.5,60.7 424.0,59.9 425.5,58.9 427.0,58.4 428.5,58.0 430.1,57.3 431.6,56.4 433.1,55.6 434.6,55.4 436.1,55.0 437.7,54.7 439.2,54.2 440.7,53.7 442.2,53.2 443.7,52.9 445.3,52.4 446.8,52.1 448.3,51.8 449.8,51.6 451.4,51.3 452.9,51.1 454.4,50.6 455.9,50.2 457.4,49.8 459.0,49.2 460.5,48.8 462.0,48.6 463.5,48.4 465.0,48.2 466.6,47.8 468.1,47.4 469.6,47.1 471.1,46.2 472.6,45.4 474.2,45.1 475.7,44.9 477.2,44.6 478.7,44.1 480.3,43.7 481.8,43.4 483.3,43.1 484.8,42.7 486.3,42.4 487.9,42.1 489.4,41.7 490.9,41.5 492.4,41.3 493.9,41.1 495.5,40.7 497.0,40.4 498.5,40.2 500.0,40.0 501.5,39.8 503.1,39.5 504.6,39.4 506.1,39.2 507.6,39.0 509.2,38.8 510.7,38.6 512.2,38.3 513.7,38.1 515.2,37.8 516.8,37.4 518.3,37.1 519.8,36.9 521.3,36.7 522.8,36.6 524.4,36.4 525.9,36.2 527.4,36.0 528.9,35.9 530.5,35.8 532.0,35.5 533.5,35.4 535.0,35.1 536.5,35.0 538.1,34.8 539.6,34.5 541.1,34.2 542.6,33.8 544.1,33.6 545.7,33.4 547.2,33.2 548.7,32.9 550.2,32.7 551.7,32.4 553.3,32.2 554.8,32.1 556.3,32.0 557.8,31.7 559.4,31.5 560.9,31.3 562.4,31.2 563.9,30.9 565.4,30.6 567.0,30.5 568.5,30.2 570.0,30.0" />
  
  <!-- Punto finale luminoso -->
  <circle cx="570.0" cy="30.0" r="4" fill="#ffffff" stroke="#0366d6" stroke-width="2.5" />
</svg>