<svg width="600" height="150" viewBox="0 0 600 150" xmlns="http://www.w3.org/2000/svg">
  <defs>
    <filter id="shadow2" x="-2%" y="-2%" width="104%" height="108%">
      <feDropShadow dx="0" dy="2" stdDeviation="3" flood-opacity="0.1" />
    </filter>
    <linearGradient id="fillGrad" x1="0" y1="0" x2="0" y2="1">
      <stop offset="0%" stop-color="#0366d6" stop-opacity="0.3"/>
      <stop offset="100%" stop-color="#0366d6" stop-opacity="0.02"/>
    </linearGradient>
  </defs>
  <rect width="600" height="150" rx="12" fill="#ffffff" filter="url(#shadow2)" stroke="#e1e4e8" stroke-width="1"/>
  <text x="20" y="24" fill="#2b3137" font-family="-apple-system,BlinkMacSystemFont,'Segoe UI',Helvetica,Arial,sans-serif" font-size="14" font-weight="600">📈 Download Growth (Actual: 71.9k)</text>
  
  <!-- Area sotto la linea -->
  <polygon fill="url(#fillGrad)" points="30.0,120.0,120 30.0,120.0 36.2,118.0 42.4,115.8 48.6,113.9 54.8,113.4 61.0,112.4 67.2,110.0 73.4,108.5 79.7,107.4 85.9,105.0 92.1,103.8 98.3,102.6 104.5,101.9 110.7,100.8 116.9,99.2 123.1,97.4 129.3,96.1 135.5,95.2 141.7,94.6 147.9,93.5 154.1,92.2 160.3,91.1 166.6,90.5 172.8,89.5 179.0,85.7 185.2,84.5 191.4,83.0 197.6,81.5 203.8,80.2 210.0,79.0 216.2,78.1 222.4,77.5 228.6,76.4 234.8,74.6 241.0,73.0 247.2,71.9 253.4,70.6 259.7,70.3 265.9,70.0 272.1,69.3 278.3,68.1 284.5,67.4 290.7,66.8 296.9,65.5 303.1,63.4 309.3,62.9 315.5,62.5 321.7,61.7 327.9,60.1 334.1,59.0 340.3,57.3 346.6,56.1 352.8,54.6 359.0,54.3 365.2,53.4 371.4,51.9 377.6,50.4 383.8,49.2 390.0,48.7 396.2,47.9 402.4,47.2 408.6,45.5 414.8,43.9 421.0,42.5 427.2,41.1 433.4,40.4 439.7,40.0 445.9,39.3 452.1,38.2 458.3,37.4 464.5,36.8 470.7,36.2 476.9,35.7 483.1,34.8 489.3,34.3 495.5,33.9 501.7,33.5 507.9,32.0 514.1,31.1 520.3,30.8 526.6,30.3 532.8,30.0 539.0,30.0 545.2,55.7 551.4,53.2 557.6,50.9 563.8,48.5 570.0,41.5 570.0,41.5,120" />
  
  <!-- Linea principale -->
  <polyline fill="none" stroke="#0366d6" stroke-width="2.5" stroke-linecap="round" stroke-linejoin="round" points="30.0,120.0 36.2,118.0 42.4,115.8 48.6,113.9 54.8,113.4 61.0,112.4 67.2,110.0 73.4,108.5 79.7,107.4 85.9,105.0 92.1,103.8 98.3,102.6 104.5,101.9 110.7,100.8 116.9,99.2 123.1,97.4 129.3,96.1 135.5,95.2 141.7,94.6 147.9,93.5 154.1,92.2 160.3,91.1 166.6,90.5 172.8,89.5 179.0,85.7 185.2,84.5 191.4,83.0 197.6,81.5 203.8,80.2 210.0,79.0 216.2,78.1 222.4,77.5 228.6,76.4 234.8,74.6 241.0,73.0 247.2,71.9 253.4,70.6 259.7,70.3 265.9,70.0 272.1,69.3 278.3,68.1 284.5,67.4 290.7,66.8 296.9,65.5 303.1,63.4 309.3,62.9 315.5,62.5 321.7,61.7 327.9,60.1 334.1,59.0 340.3,57.3 346.6,56.1 352.8,54.6 359.0,54.3 365.2,53.4 371.4,51.9 377.6,50.4 383.8,49.2 390.0,48.7 396.2,47.9 402.4,47.2 408.6,45.5 414.8,43.9 421.0,42.5 427.2,41.1 433.4,40.4 439.7,40.0 445.9,39.3 452.1,38.2 458.3,37.4 464.5,36.8 470.7,36.2 476.9,35.7 483.1,34.8 489.3,34.3 495.5,33.9 501.7,33.5 507.9,32.0 514.1,31.1 520.3,30.8 526.6,30.3 532.8,30.0 539.0,30.0 545.2,55.7 551.4,53.2 557.6,50.9 563.8,48.5 570.0,41.5" />
  
  <!-- Punto finale luminoso -->
  <circle cx="570.0" cy="41.5" r="4" fill="#ffffff" stroke="#0366d6" stroke-width="2.5" />
</svg>