<svg width="600" height="150" viewBox="0 0 600 150" xmlns="http://www.w3.org/2000/svg">
  <defs>
    <filter id="shadow2" x="-2%" y="-2%" width="104%" height="108%">
      <feDropShadow dx="0" dy="2" stdDeviation="3" flood-opacity="0.1" />
    </filter>
    <linearGradient id="fillGrad" x1="0" y1="0" x2="0" y2="1">
      <stop offset="0%" stop-color="#0366d6" stop-opacity="0.3"/>
      <stop offset="100%" stop-color="#0366d6" stop-opacity="0.02"/>
    </linearGradient>
  </defs>
  <rect width="600" height="150" rx="12" fill="#ffffff" filter="url(#shadow2)" stroke="#e1e4e8" stroke-width="1"/>
  <text x="20" y="24" fill="#2b3137" font-family="-apple-system,BlinkMacSystemFont,'Segoe UI',Helvetica,Arial,sans-serif" font-size="14" font-weight="600">📈 Download Growth (Actual: 78.5k)</text>
  
  <!-- Area sotto la linea -->
  <polygon fill="url(#fillGrad)" points="30.0,120.0,120 30.0,120.0 32.4,119.1 34.8,118.2 37.2,117.4 39.6,117.1 41.9,116.7 44.3,115.7 46.7,115.0 49.1,114.6 51.5,113.5 53.9,113.0 56.3,112.5 58.7,112.2 61.1,111.7 63.5,111.0 65.8,110.3 68.2,109.7 70.6,109.3 73.0,109.1 75.4,108.6 77.8,108.0 80.2,107.6 82.6,107.3 85.0,106.9 87.3,105.2 89.7,104.7 92.1,104.1 94.5,103.5 96.9,102.9 99.3,102.3 101.7,102.0 104.1,101.7 106.5,101.3 108.8,100.5 111.2,99.8 113.6,99.3 116.0,98.8 118.4,98.6 120.8,98.5 123.2,98.2 125.6,97.7 128.0,97.4 130.4,97.1 132.7,96.5 135.1,95.7 137.5,95.4 139.9,95.3 142.3,94.9 144.7,94.2 147.1,93.8 149.5,93.1 151.9,92.5 154.2,91.9 156.6,91.8 159.0,91.4 161.4,90.7 163.8,90.1 166.2,89.6 168.6,89.3 171.0,89.0 173.4,88.7 175.8,88.0 178.1,87.3 180.5,86.7 182.9,86.1 185.3,85.8 187.7,85.6 190.1,85.3 192.5,84.8 194.9,84.5 197.3,84.2 199.6,84.0 202.0,83.7 204.4,83.4 206.8,83.1 209.2,83.0 211.6,82.8 214.0,82.1 216.4,81.8 218.8,81.7 221.2,81.4 223.5,81.3 225.9,81.3 228.3,92.4 230.7,91.3 233.1,90.3 235.5,89.3 237.9,86.2 240.3,84.1 242.7,81.9 245.0,81.0 247.4,80.1 249.8,78.5 252.2,76.8 254.6,75.6 257.0,75.1 259.4,74.7 261.8,73.5 264.2,72.6 266.5,72.0 268.9,71.3 271.3,71.0 273.7,70.9 276.1,70.3 278.5,69.2 280.9,68.5 283.3,67.8 285.7,66.9 288.1,66.5 290.4,66.2 292.8,65.5 295.2,64.9 297.6,64.3 300.0,63.8 302.4,63.5 304.8,63.4 307.2,63.0 309.6,62.5 311.9,62.1 314.3,61.7 316.7,61.3 319.1,61.0 321.5,60.7 323.9,60.4 326.3,60.2 328.7,59.9 331.1,59.3 333.5,58.9 335.8,58.4 338.2,58.1 340.6,57.8 343.0,57.6 345.4,57.3 347.8,57.0 350.2,56.2 352.6,55.7 355.0,55.0 357.3,54.8 359.7,54.7 362.1,54.4 364.5,54.0 366.9,53.6 369.3,53.2 371.7,52.7 374.1,52.4 376.5,52.3 378.8,52.0 381.2,51.8 383.6,51.6 386.0,51.2 388.4,51.0 390.8,50.5 393.2,50.3 395.6,50.1 398.0,49.9 400.4,49.7 402.7,49.3 405.1,49.0 407.5,48.6 409.9,48.3 412.3,47.9 414.7,47.7 417.1,47.5 419.5,47.3 421.9,46.8 424.2,46.3 426.6,46.0 429.0,45.6 431.4,45.0 433.8,44.9 436.2,44.7 438.6,44.5 441.0,44.2 443.4,43.9 445.8,43.6 448.1,43.4 450.5,43.1 452.9,42.8 455.3,42.6 457.7,42.4 460.1,42.2 462.5,41.9 464.9,41.5 467.3,41.3 469.6,40.9 472.0,40.8 474.4,40.6 476.8,40.3 479.2,40.1 481.6,39.9 484.0,39.6 486.4,39.2 488.8,38.6 491.2,38.3 493.5,38.0 495.9,37.9 498.3,37.8 500.7,37.5 503.1,37.0 505.5,36.8 507.9,36.7 510.3,36.3 512.7,36.1 515.0,35.8 517.4,35.6 519.8,35.4 522.2,35.0 524.6,34.7 527.0,34.4 529.4,34.0 531.8,33.9 534.2,33.8 536.5,33.7 538.9,33.4 541.3,33.1 543.7,32.9 546.1,32.6 548.5,32.3 550.9,32.1 553.3,31.9 555.7,31.7 558.1,31.5 560.4,31.1 562.8,30.8 565.2,30.5 567.6,30.2 570.0,30.0 570.0,30.0,120" />
  
  <!-- Linea principale -->
  <polyline fill="none" stroke="#0366d6" stroke-width="2.5" stroke-linecap="round" stroke-linejoin="round" points="30.0,120.0 32.4,119.1 34.8,118.2 37.2,117.4 39.6,117.1 41.9,116.7 44.3,115.7 46.7,115.0 49.1,114.6 51.5,113.5 53.9,113.0 56.3,112.5 58.7,112.2 61.1,111.7 63.5,111.0 65.8,110.3 68.2,109.7 70.6,109.3 73.0,109.1 75.4,108.6 77.8,108.0 80.2,107.6 82.6,107.3 85.0,106.9 87.3,105.2 89.7,104.7 92.1,104.1 94.5,103.5 96.9,102.9 99.3,102.3 101.7,102.0 104.1,101.7 106.5,101.3 108.8,100.5 111.2,99.8 113.6,99.3 116.0,98.8 118.4,98.6 120.8,98.5 123.2,98.2 125.6,97.7 128.0,97.4 130.4,97.1 132.7,96.5 135.1,95.7 137.5,95.4 139.9,95.3 142.3,94.9 144.7,94.2 147.1,93.8 149.5,93.1 151.9,92.5 154.2,91.9 156.6,91.8 159.0,91.4 161.4,90.7 163.8,90.1 166.2,89.6 168.6,89.3 171.0,89.0 173.4,88.7 175.8,88.0 178.1,87.3 180.5,86.7 182.9,86.1 185.3,85.8 187.7,85.6 190.1,85.3 192.5,84.8 194.9,84.5 197.3,84.2 199.6,84.0 202.0,83.7 204.4,83.4 206.8,83.1 209.2,83.0 211.6,82.8 214.0,82.1 216.4,81.8 218.8,81.7 221.2,81.4 223.5,81.3 225.9,81.3 228.3,92.4 230.7,91.3 233.1,90.3 235.5,89.3 237.9,86.2 240.3,84.1 242.7,81.9 245.0,81.0 247.4,80.1 249.8,78.5 252.2,76.8 254.6,75.6 257.0,75.1 259.4,74.7 261.8,73.5 264.2,72.6 266.5,72.0 268.9,71.3 271.3,71.0 273.7,70.9 276.1,70.3 278.5,69.2 280.9,68.5 283.3,67.8 285.7,66.9 288.1,66.5 290.4,66.2 292.8,65.5 295.2,64.9 297.6,64.3 300.0,63.8 302.4,63.5 304.8,63.4 307.2,63.0 309.6,62.5 311.9,62.1 314.3,61.7 316.7,61.3 319.1,61.0 321.5,60.7 323.9,60.4 326.3,60.2 328.7,59.9 331.1,59.3 333.5,58.9 335.8,58.4 338.2,58.1 340.6,57.8 343.0,57.6 345.4,57.3 347.8,57.0 350.2,56.2 352.6,55.7 355.0,55.0 357.3,54.8 359.7,54.7 362.1,54.4 364.5,54.0 366.9,53.6 369.3,53.2 371.7,52.7 374.1,52.4 376.5,52.3 378.8,52.0 381.2,51.8 383.6,51.6 386.0,51.2 388.4,51.0 390.8,50.5 393.2,50.3 395.6,50.1 398.0,49.9 400.4,49.7 402.7,49.3 405.1,49.0 407.5,48.6 409.9,48.3 412.3,47.9 414.7,47.7 417.1,47.5 419.5,47.3 421.9,46.8 424.2,46.3 426.6,46.0 429.0,45.6 431.4,45.0 433.8,44.9 436.2,44.7 438.6,44.5 441.0,44.2 443.4,43.9 445.8,43.6 448.1,43.4 450.5,43.1 452.9,42.8 455.3,42.6 457.7,42.4 460.1,42.2 462.5,41.9 464.9,41.5 467.3,41.3 469.6,40.9 472.0,40.8 474.4,40.6 476.8,40.3 479.2,40.1 481.6,39.9 484.0,39.6 486.4,39.2 488.8,38.6 491.2,38.3 493.5,38.0 495.9,37.9 498.3,37.8 500.7,37.5 503.1,37.0 505.5,36.8 507.9,36.7 510.3,36.3 512.7,36.1 515.0,35.8 517.4,35.6 519.8,35.4 522.2,35.0 524.6,34.7 527.0,34.4 529.4,34.0 531.8,33.9 534.2,33.8 536.5,33.7 538.9,33.4 541.3,33.1 543.7,32.9 546.1,32.6 548.5,32.3 550.9,32.1 553.3,31.9 555.7,31.7 558.1,31.5 560.4,31.1 562.8,30.8 565.2,30.5 567.6,30.2 570.0,30.0" />
  
  <!-- Punto finale luminoso -->
  <circle cx="570.0" cy="30.0" r="4" fill="#ffffff" stroke="#0366d6" stroke-width="2.5" />
</svg>