<svg width="600" height="150" viewBox="0 0 600 150" xmlns="http://www.w3.org/2000/svg">
  <defs>
    <filter id="shadow2" x="-2%" y="-2%" width="104%" height="108%">
      <feDropShadow dx="0" dy="2" stdDeviation="3" flood-opacity="0.1" />
    </filter>
    <linearGradient id="fillGrad" x1="0" y1="0" x2="0" y2="1">
      <stop offset="0%" stop-color="#0366d6" stop-opacity="0.3"/>
      <stop offset="100%" stop-color="#0366d6" stop-opacity="0.02"/>
    </linearGradient>
  </defs>
  <rect width="600" height="150" rx="12" fill="#ffffff" filter="url(#shadow2)" stroke="#e1e4e8" stroke-width="1"/>
  <text x="20" y="24" fill="#2b3137" font-family="-apple-system,BlinkMacSystemFont,'Segoe UI',Helvetica,Arial,sans-serif" font-size="14" font-weight="600">📈 Download Growth (Actual: 73.9k)</text>
  
  <!-- Area sotto la linea -->
  <polygon fill="url(#fillGrad)" points="30.0,120.0,120 30.0,120.0 34.9,118.6 39.8,117.0 44.7,115.6 49.6,115.3 54.5,114.6 59.5,112.9 64.4,111.8 69.3,111.1 74.2,109.3 79.1,108.5 84.0,107.6 88.9,107.1 93.8,106.3 98.7,105.2 103.6,104.0 108.5,103.0 113.5,102.4 118.4,101.9 123.3,101.2 128.2,100.3 133.1,99.5 138.0,99.1 142.9,98.3 147.8,95.6 152.7,94.8 157.6,93.7 162.5,92.7 167.5,91.7 172.4,90.8 177.3,90.3 182.2,89.8 187.1,89.1 192.0,87.7 196.9,86.6 201.8,85.8 206.7,84.9 211.6,84.7 216.5,84.4 221.5,84.0 226.4,83.1 231.3,82.6 236.2,82.2 241.1,81.2 246.0,79.8 250.9,79.4 255.8,79.2 260.7,78.6 265.6,77.4 270.5,76.7 275.5,75.5 280.4,74.6 285.3,73.6 290.2,73.3 295.1,72.7 300.0,71.6 304.9,70.5 309.8,69.7 314.7,69.3 319.6,68.8 324.5,68.3 329.5,67.1 334.4,66.0 339.3,65.0 344.2,64.0 349.1,63.4 354.0,63.1 358.9,62.7 363.8,61.9 368.7,61.3 373.6,60.9 378.5,60.5 383.5,60.1 388.4,59.5 393.3,59.1 398.2,58.9 403.1,58.6 408.0,57.5 412.9,56.9 417.8,56.7 422.7,56.3 427.6,56.1 432.5,56.1 437.5,74.3 442.4,72.5 447.3,70.9 452.2,69.2 457.1,64.2 462.0,60.8 466.9,57.0 471.8,55.6 476.7,54.1 481.6,51.5 486.5,48.7 491.5,46.7 496.4,45.9 501.3,45.2 506.2,43.2 511.1,41.7 516.0,40.8 520.9,39.6 525.8,39.1 530.7,38.9 535.6,37.8 540.5,36.1 545.5,34.9 550.4,33.7 555.3,32.3 560.2,31.7 565.1,31.2 570.0,30.0 570.0,30.0,120" />
  
  <!-- Linea principale -->
  <polyline fill="none" stroke="#0366d6" stroke-width="2.5" stroke-linecap="round" stroke-linejoin="round" points="30.0,120.0 34.9,118.6 39.8,117.0 44.7,115.6 49.6,115.3 54.5,114.6 59.5,112.9 64.4,111.8 69.3,111.1 74.2,109.3 79.1,108.5 84.0,107.6 88.9,107.1 93.8,106.3 98.7,105.2 103.6,104.0 108.5,103.0 113.5,102.4 118.4,101.9 123.3,101.2 128.2,100.3 133.1,99.5 138.0,99.1 142.9,98.3 147.8,95.6 152.7,94.8 157.6,93.7 162.5,92.7 167.5,91.7 172.4,90.8 177.3,90.3 182.2,89.8 187.1,89.1 192.0,87.7 196.9,86.6 201.8,85.8 206.7,84.9 211.6,84.7 216.5,84.4 221.5,84.0 226.4,83.1 231.3,82.6 236.2,82.2 241.1,81.2 246.0,79.8 250.9,79.4 255.8,79.2 260.7,78.6 265.6,77.4 270.5,76.7 275.5,75.5 280.4,74.6 285.3,73.6 290.2,73.3 295.1,72.7 300.0,71.6 304.9,70.5 309.8,69.7 314.7,69.3 319.6,68.8 324.5,68.3 329.5,67.1 334.4,66.0 339.3,65.0 344.2,64.0 349.1,63.4 354.0,63.1 358.9,62.7 363.8,61.9 368.7,61.3 373.6,60.9 378.5,60.5 383.5,60.1 388.4,59.5 393.3,59.1 398.2,58.9 403.1,58.6 408.0,57.5 412.9,56.9 417.8,56.7 422.7,56.3 427.6,56.1 432.5,56.1 437.5,74.3 442.4,72.5 447.3,70.9 452.2,69.2 457.1,64.2 462.0,60.8 466.9,57.0 471.8,55.6 476.7,54.1 481.6,51.5 486.5,48.7 491.5,46.7 496.4,45.9 501.3,45.2 506.2,43.2 511.1,41.7 516.0,40.8 520.9,39.6 525.8,39.1 530.7,38.9 535.6,37.8 540.5,36.1 545.5,34.9 550.4,33.7 555.3,32.3 560.2,31.7 565.1,31.2 570.0,30.0" />
  
  <!-- Punto finale luminoso -->
  <circle cx="570.0" cy="30.0" r="4" fill="#ffffff" stroke="#0366d6" stroke-width="2.5" />
</svg>