<svg width="600" height="150" viewBox="0 0 600 150" xmlns="http://www.w3.org/2000/svg">
  <defs>
    <filter id="shadow2" x="-2%" y="-2%" width="104%" height="108%">
      <feDropShadow dx="0" dy="2" stdDeviation="3" flood-opacity="0.1" />
    </filter>
    <linearGradient id="fillGrad" x1="0" y1="0" x2="0" y2="1">
      <stop offset="0%" stop-color="#0366d6" stop-opacity="0.3"/>
      <stop offset="100%" stop-color="#0366d6" stop-opacity="0.02"/>
    </linearGradient>
  </defs>
  <rect width="600" height="150" rx="12" fill="#ffffff" filter="url(#shadow2)" stroke="#e1e4e8" stroke-width="1"/>
  <text x="20" y="24" fill="#2b3137" font-family="-apple-system,BlinkMacSystemFont,'Segoe UI',Helvetica,Arial,sans-serif" font-size="14" font-weight="600">📈 Download Growth (Actual: 80.8k)</text>
  
  <!-- Area sotto la linea -->
  <polygon fill="url(#fillGrad)" points="30.0,120.0,120 30.0,120.0 32.0,119.3 33.9,118.5 35.9,117.8 37.9,117.6 39.9,117.3 41.8,116.4 43.8,115.9 45.8,115.5 47.7,114.6 49.7,114.2 51.7,113.7 53.6,113.5 55.6,113.1 57.6,112.5 59.6,111.9 61.5,111.4 63.5,111.1 65.5,110.9 67.4,110.5 69.4,110.0 71.4,109.6 73.4,109.4 75.3,109.0 77.3,107.7 79.3,107.3 81.2,106.7 83.2,106.2 85.2,105.7 87.2,105.3 89.1,105.0 91.1,104.8 93.1,104.4 95.0,103.7 97.0,103.1 99.0,102.7 100.9,102.3 102.9,102.2 104.9,102.0 106.9,101.8 108.8,101.4 110.8,101.1 112.8,100.9 114.7,100.4 116.7,99.7 118.7,99.5 120.7,99.4 122.6,99.1 124.6,98.5 126.6,98.1 128.5,97.5 130.5,97.1 132.5,96.5 134.5,96.4 136.4,96.1 138.4,95.6 140.4,95.0 142.3,94.6 144.3,94.4 146.3,94.1 148.2,93.9 150.2,93.3 152.2,92.7 154.2,92.2 156.1,91.7 158.1,91.4 160.1,91.3 162.0,91.1 164.0,90.6 166.0,90.4 168.0,90.1 169.9,89.9 171.9,89.7 173.9,89.4 175.8,89.3 177.8,89.1 179.8,89.0 181.8,88.4 183.7,88.1 185.7,88.0 187.7,87.8 189.6,87.7 191.6,87.7 193.6,96.9 195.5,96.0 197.5,95.2 199.5,94.4 201.5,91.8 203.4,90.1 205.4,88.2 207.4,87.5 209.3,86.7 211.3,85.4 213.3,84.0 215.3,83.0 217.2,82.6 219.2,82.2 221.2,81.2 223.1,80.5 225.1,80.0 227.1,79.4 229.1,79.1 231.0,79.0 233.0,78.5 235.0,77.7 236.9,77.0 238.9,76.4 240.9,75.7 242.8,75.4 244.8,75.1 246.8,74.5 248.8,74.0 250.7,73.5 252.7,73.1 254.7,72.9 256.6,72.8 258.6,72.5 260.6,72.0 262.6,71.7 264.5,71.3 266.5,71.1 268.5,70.8 270.4,70.5 272.4,70.3 274.4,70.1 276.4,69.9 278.3,69.4 280.3,69.0 282.3,68.6 284.2,68.4 286.2,68.1 288.2,67.9 290.1,67.7 292.1,67.5 294.1,66.8 296.1,66.4 298.0,65.8 300.0,65.6 302.0,65.5 303.9,65.3 305.9,65.0 307.9,64.6 309.9,64.3 311.8,63.9 313.8,63.6 315.8,63.5 317.7,63.3 319.7,63.1 321.7,62.9 323.6,62.6 325.6,62.4 327.6,62.0 329.6,61.8 331.5,61.7 333.5,61.5 335.5,61.4 337.4,61.0 339.4,60.8 341.4,60.4 343.4,60.2 345.3,59.9 347.3,59.7 349.3,59.5 351.2,59.3 353.2,58.9 355.2,58.5 357.2,58.2 359.1,57.9 361.1,57.4 363.1,57.3 365.0,57.2 367.0,57.0 369.0,56.8 370.9,56.5 372.9,56.3 374.9,56.1 376.9,55.8 378.8,55.6 380.8,55.4 382.8,55.2 384.7,55.1 386.7,54.9 388.7,54.5 390.7,54.3 392.6,54.1 394.6,53.9 396.6,53.7 398.5,53.5 400.5,53.4 402.5,53.2 404.5,53.0 406.4,52.6 408.4,52.1 410.4,51.9 412.3,51.6 414.3,51.5 416.3,51.4 418.2,51.2 420.2,50.8 422.2,50.6 424.2,50.5 426.1,50.2 428.1,50.0 430.1,49.7 432.0,49.6 434.0,49.4 436.0,49.1 438.0,48.9 439.9,48.6 441.9,48.3 443.9,48.1 445.8,48.1 447.8,48.0 449.8,47.8 451.8,47.5 453.7,47.3 455.7,47.1 457.7,46.8 459.6,46.7 461.6,46.5 463.6,46.3 465.5,46.2 467.5,45.9 469.5,45.6 471.5,45.3 473.4,45.1 475.4,44.9 477.4,44.8 479.3,44.7 481.3,44.5 483.3,44.4 485.3,44.2 487.2,43.9 489.2,43.7 491.2,43.5 493.1,43.3 495.1,43.1 497.1,42.9 499.1,42.7 501.0,42.5 503.0,42.4 505.0,42.2 506.9,41.9 508.9,41.7 510.9,41.5 512.8,41.4 514.8,41.3 516.8,41.1 518.8,40.9 520.7,40.7 522.7,40.6 524.7,40.5 526.6,40.3 528.6,39.9 530.6,39.6 532.6,45.6 534.5,44.5 536.5,42.2 538.5,41.3 540.4,40.3 542.4,38.9 544.4,38.2 546.4,37.7 548.3,36.9 550.3,35.6 552.3,34.6 554.2,34.3 556.2,33.8 558.2,33.4 560.1,32.7 562.1,32.1 564.1,31.4 566.1,31.0 568.0,30.3 570.0,30.0 570.0,30.0,120" />
  
  <!-- Linea principale -->
  <polyline fill="none" stroke="#0366d6" stroke-width="2.5" stroke-linecap="round" stroke-linejoin="round" points="30.0,120.0 32.0,119.3 33.9,118.5 35.9,117.8 37.9,117.6 39.9,117.3 41.8,116.4 43.8,115.9 45.8,115.5 47.7,114.6 49.7,114.2 51.7,113.7 53.6,113.5 55.6,113.1 57.6,112.5 59.6,111.9 61.5,111.4 63.5,111.1 65.5,110.9 67.4,110.5 69.4,110.0 71.4,109.6 73.4,109.4 75.3,109.0 77.3,107.7 79.3,107.3 81.2,106.7 83.2,106.2 85.2,105.7 87.2,105.3 89.1,105.0 91.1,104.8 93.1,104.4 95.0,103.7 97.0,103.1 99.0,102.7 100.9,102.3 102.9,102.2 104.9,102.0 106.9,101.8 108.8,101.4 110.8,101.1 112.8,100.9 114.7,100.4 116.7,99.7 118.7,99.5 120.7,99.4 122.6,99.1 124.6,98.5 126.6,98.1 128.5,97.5 130.5,97.1 132.5,96.5 134.5,96.4 136.4,96.1 138.4,95.6 140.4,95.0 142.3,94.6 144.3,94.4 146.3,94.1 148.2,93.9 150.2,93.3 152.2,92.7 154.2,92.2 156.1,91.7 158.1,91.4 160.1,91.3 162.0,91.1 164.0,90.6 166.0,90.4 168.0,90.1 169.9,89.9 171.9,89.7 173.9,89.4 175.8,89.3 177.8,89.1 179.8,89.0 181.8,88.4 183.7,88.1 185.7,88.0 187.7,87.8 189.6,87.7 191.6,87.7 193.6,96.9 195.5,96.0 197.5,95.2 199.5,94.4 201.5,91.8 203.4,90.1 205.4,88.2 207.4,87.5 209.3,86.7 211.3,85.4 213.3,84.0 215.3,83.0 217.2,82.6 219.2,82.2 221.2,81.2 223.1,80.5 225.1,80.0 227.1,79.4 229.1,79.1 231.0,79.0 233.0,78.5 235.0,77.7 236.9,77.0 238.9,76.4 240.9,75.7 242.8,75.4 244.8,75.1 246.8,74.5 248.8,74.0 250.7,73.5 252.7,73.1 254.7,72.9 256.6,72.8 258.6,72.5 260.6,72.0 262.6,71.7 264.5,71.3 266.5,71.1 268.5,70.8 270.4,70.5 272.4,70.3 274.4,70.1 276.4,69.9 278.3,69.4 280.3,69.0 282.3,68.6 284.2,68.4 286.2,68.1 288.2,67.9 290.1,67.7 292.1,67.5 294.1,66.8 296.1,66.4 298.0,65.8 300.0,65.6 302.0,65.5 303.9,65.3 305.9,65.0 307.9,64.6 309.9,64.3 311.8,63.9 313.8,63.6 315.8,63.5 317.7,63.3 319.7,63.1 321.7,62.9 323.6,62.6 325.6,62.4 327.6,62.0 329.6,61.8 331.5,61.7 333.5,61.5 335.5,61.4 337.4,61.0 339.4,60.8 341.4,60.4 343.4,60.2 345.3,59.9 347.3,59.7 349.3,59.5 351.2,59.3 353.2,58.9 355.2,58.5 357.2,58.2 359.1,57.9 361.1,57.4 363.1,57.3 365.0,57.2 367.0,57.0 369.0,56.8 370.9,56.5 372.9,56.3 374.9,56.1 376.9,55.8 378.8,55.6 380.8,55.4 382.8,55.2 384.7,55.1 386.7,54.9 388.7,54.5 390.7,54.3 392.6,54.1 394.6,53.9 396.6,53.7 398.5,53.5 400.5,53.4 402.5,53.2 404.5,53.0 406.4,52.6 408.4,52.1 410.4,51.9 412.3,51.6 414.3,51.5 416.3,51.4 418.2,51.2 420.2,50.8 422.2,50.6 424.2,50.5 426.1,50.2 428.1,50.0 430.1,49.7 432.0,49.6 434.0,49.4 436.0,49.1 438.0,48.9 439.9,48.6 441.9,48.3 443.9,48.1 445.8,48.1 447.8,48.0 449.8,47.8 451.8,47.5 453.7,47.3 455.7,47.1 457.7,46.8 459.6,46.7 461.6,46.5 463.6,46.3 465.5,46.2 467.5,45.9 469.5,45.6 471.5,45.3 473.4,45.1 475.4,44.9 477.4,44.8 479.3,44.7 481.3,44.5 483.3,44.4 485.3,44.2 487.2,43.9 489.2,43.7 491.2,43.5 493.1,43.3 495.1,43.1 497.1,42.9 499.1,42.7 501.0,42.5 503.0,42.4 505.0,42.2 506.9,41.9 508.9,41.7 510.9,41.5 512.8,41.4 514.8,41.3 516.8,41.1 518.8,40.9 520.7,40.7 522.7,40.6 524.7,40.5 526.6,40.3 528.6,39.9 530.6,39.6 532.6,45.6 534.5,44.5 536.5,42.2 538.5,41.3 540.4,40.3 542.4,38.9 544.4,38.2 546.4,37.7 548.3,36.9 550.3,35.6 552.3,34.6 554.2,34.3 556.2,33.8 558.2,33.4 560.1,32.7 562.1,32.1 564.1,31.4 566.1,31.0 568.0,30.3 570.0,30.0" />
  
  <!-- Punto finale luminoso -->
  <circle cx="570.0" cy="30.0" r="4" fill="#ffffff" stroke="#0366d6" stroke-width="2.5" />
</svg>