<svg width="600" height="150" viewBox="0 0 600 150" xmlns="http://www.w3.org/2000/svg">
  <defs>
    <filter id="shadow2" x="-2%" y="-2%" width="104%" height="108%">
      <feDropShadow dx="0" dy="2" stdDeviation="3" flood-opacity="0.1" />
    </filter>
    <linearGradient id="fillGrad" x1="0" y1="0" x2="0" y2="1">
      <stop offset="0%" stop-color="#0366d6" stop-opacity="0.3"/>
      <stop offset="100%" stop-color="#0366d6" stop-opacity="0.02"/>
    </linearGradient>
  </defs>
  <rect width="600" height="150" rx="12" fill="#ffffff" filter="url(#shadow2)" stroke="#e1e4e8" stroke-width="1"/>
  <text x="20" y="24" fill="#2b3137" font-family="-apple-system,BlinkMacSystemFont,'Segoe UI',Helvetica,Arial,sans-serif" font-size="14" font-weight="600">📈 Download Growth (Actual: 84.4k)</text>
  
  <!-- Area sotto la linea -->
  <polygon fill="url(#fillGrad)" points="30.0,120.0,120 30.0,120.0 31.6,119.4 33.2,118.8 34.9,118.3 36.5,118.1 38.1,117.8 39.7,117.1 41.3,116.7 42.9,116.4 44.6,115.7 46.2,115.4 47.8,115.0 49.4,114.8 51.0,114.5 52.6,114.0 54.3,113.6 55.9,113.2 57.5,112.9 59.1,112.7 60.7,112.4 62.3,112.1 64.0,111.7 65.6,111.6 67.2,111.3 68.8,110.2 70.4,109.9 72.0,109.4 73.7,109.0 75.3,108.6 76.9,108.3 78.5,108.0 80.1,107.9 81.7,107.6 83.4,107.0 85.0,106.6 86.6,106.3 88.2,105.9 89.8,105.8 91.4,105.7 93.1,105.5 94.7,105.2 96.3,105.0 97.9,104.8 99.5,104.4 101.1,103.8 102.8,103.7 104.4,103.6 106.0,103.3 107.6,102.9 109.2,102.6 110.8,102.1 112.5,101.8 114.1,101.3 115.7,101.2 117.3,101.0 118.9,100.5 120.5,100.1 122.2,99.8 123.8,99.6 125.4,99.4 127.0,99.2 128.6,98.7 130.2,98.3 131.9,97.9 133.5,97.5 135.1,97.3 136.7,97.1 138.3,97.0 139.9,96.6 141.6,96.4 143.2,96.2 144.8,96.1 146.4,95.9 148.0,95.7 149.6,95.5 151.3,95.4 152.9,95.3 154.5,94.9 156.1,94.6 157.7,94.5 159.3,94.4 161.0,94.3 162.6,94.3 164.2,101.6 165.8,100.9 167.4,100.3 169.0,99.6 170.7,97.6 172.3,96.2 173.9,94.7 175.5,94.1 177.1,93.5 178.7,92.5 180.4,91.3 182.0,90.5 183.6,90.2 185.2,89.9 186.8,89.1 188.4,88.5 190.1,88.1 191.7,87.7 193.3,87.5 194.9,87.4 196.5,87.0 198.1,86.3 199.8,85.8 201.4,85.3 203.0,84.7 204.6,84.5 206.2,84.3 207.8,83.8 209.5,83.4 211.1,83.0 212.7,82.6 214.3,82.5 215.9,82.4 217.5,82.1 219.2,81.8 220.8,81.5 222.4,81.3 224.0,81.0 225.6,80.8 227.2,80.6 228.9,80.4 230.5,80.3 232.1,80.1 233.7,79.7 235.3,79.4 236.9,79.1 238.6,78.9 240.2,78.7 241.8,78.5 243.4,78.4 245.0,78.2 246.6,77.6 248.3,77.3 249.9,76.8 251.5,76.7 253.1,76.6 254.7,76.4 256.3,76.2 258.0,75.9 259.6,75.7 261.2,75.3 262.8,75.1 264.4,75.0 266.0,74.8 267.7,74.7 269.3,74.5 270.9,74.3 272.5,74.2 274.1,73.8 275.7,73.7 277.4,73.6 279.0,73.4 280.6,73.3 282.2,73.0 283.8,72.8 285.4,72.6 287.1,72.3 288.7,72.1 290.3,71.9 291.9,71.8 293.5,71.7 295.1,71.4 296.8,71.0 298.4,70.8 300.0,70.6 301.6,70.2 303.2,70.1 304.9,70.0 306.5,69.9 308.1,69.7 309.7,69.5 311.3,69.3 312.9,69.1 314.6,68.9 316.2,68.8 317.8,68.6 319.4,68.4 321.0,68.4 322.6,68.1 324.3,67.9 325.9,67.7 327.5,67.5 329.1,67.4 330.7,67.2 332.3,67.1 334.0,66.9 335.6,66.8 337.2,66.6 338.8,66.3 340.4,66.0 342.0,65.7 343.7,65.6 345.3,65.5 346.9,65.4 348.5,65.2 350.1,64.9 351.7,64.8 353.4,64.6 355.0,64.4 356.6,64.3 358.2,64.1 359.8,63.9 361.4,63.8 363.1,63.6 364.7,63.4 366.3,63.1 367.9,62.9 369.5,62.8 371.1,62.7 372.8,62.6 374.4,62.5 376.0,62.3 377.6,62.1 379.2,61.9 380.8,61.7 382.5,61.6 384.1,61.5 385.7,61.3 387.3,61.2 388.9,61.0 390.5,60.7 392.2,60.5 393.8,60.3 395.4,60.2 397.0,60.1 398.6,60.0 400.2,59.9 401.9,59.8 403.5,59.6 405.1,59.4 406.7,59.2 408.3,59.0 409.9,58.9 411.6,58.8 413.2,58.6 414.8,58.4 416.4,58.3 418.0,58.2 419.6,58.0 421.3,57.8 422.9,57.7 424.5,57.5 426.1,57.4 427.7,57.3 429.3,57.2 431.0,57.0 432.6,56.9 434.2,56.8 435.8,56.7 437.4,56.6 439.0,56.2 440.7,56.0 442.3,60.8 443.9,59.8 445.5,58.0 447.1,57.3 448.7,56.5 450.4,55.5 452.0,54.9 453.6,54.5 455.2,53.8 456.8,52.8 458.4,52.0 460.1,51.8 461.7,51.4 463.3,51.0 464.9,50.5 466.5,50.0 468.1,49.4 469.8,49.1 471.4,48.6 473.0,48.3 474.6,48.0 476.2,47.7 477.8,47.5 479.5,47.2 481.1,46.7 482.7,46.3 484.3,45.8 485.9,45.2 487.5,44.8 489.2,44.6 490.8,44.4 492.4,44.1 494.0,43.7 495.6,43.3 497.2,43.0 498.9,42.0 500.5,41.3 502.1,40.9 503.7,40.7 505.3,40.4 506.9,39.9 508.6,39.4 510.2,39.1 511.8,38.8 513.4,38.4 515.0,38.1 516.6,37.8 518.3,37.3 519.9,37.1 521.5,36.9 523.1,36.7 524.7,36.2 526.3,35.9 528.0,35.7 529.6,35.5 531.2,35.3 532.8,35.0 534.4,34.9 536.0,34.6 537.7,34.4 539.3,34.2 540.9,34.1 542.5,33.8 544.1,33.5 545.7,33.2 547.4,32.8 549.0,32.4 550.6,32.3 552.2,32.1 553.8,31.9 555.4,31.7 557.1,31.5 558.7,31.3 560.3,31.2 561.9,31.0 563.5,30.8 565.1,30.7 566.8,30.3 568.4,30.2 570.0,30.0 570.0,30.0,120" />
  
  <!-- Linea principale -->
  <polyline fill="none" stroke="#0366d6" stroke-width="2.5" stroke-linecap="round" stroke-linejoin="round" points="30.0,120.0 31.6,119.4 33.2,118.8 34.9,118.3 36.5,118.1 38.1,117.8 39.7,117.1 41.3,116.7 42.9,116.4 44.6,115.7 46.2,115.4 47.8,115.0 49.4,114.8 51.0,114.5 52.6,114.0 54.3,113.6 55.9,113.2 57.5,112.9 59.1,112.7 60.7,112.4 62.3,112.1 64.0,111.7 65.6,111.6 67.2,111.3 68.8,110.2 70.4,109.9 72.0,109.4 73.7,109.0 75.3,108.6 76.9,108.3 78.5,108.0 80.1,107.9 81.7,107.6 83.4,107.0 85.0,106.6 86.6,106.3 88.2,105.9 89.8,105.8 91.4,105.7 93.1,105.5 94.7,105.2 96.3,105.0 97.9,104.8 99.5,104.4 101.1,103.8 102.8,103.7 104.4,103.6 106.0,103.3 107.6,102.9 109.2,102.6 110.8,102.1 112.5,101.8 114.1,101.3 115.7,101.2 117.3,101.0 118.9,100.5 120.5,100.1 122.2,99.8 123.8,99.6 125.4,99.4 127.0,99.2 128.6,98.7 130.2,98.3 131.9,97.9 133.5,97.5 135.1,97.3 136.7,97.1 138.3,97.0 139.9,96.6 141.6,96.4 143.2,96.2 144.8,96.1 146.4,95.9 148.0,95.7 149.6,95.5 151.3,95.4 152.9,95.3 154.5,94.9 156.1,94.6 157.7,94.5 159.3,94.4 161.0,94.3 162.6,94.3 164.2,101.6 165.8,100.9 167.4,100.3 169.0,99.6 170.7,97.6 172.3,96.2 173.9,94.7 175.5,94.1 177.1,93.5 178.7,92.5 180.4,91.3 182.0,90.5 183.6,90.2 185.2,89.9 186.8,89.1 188.4,88.5 190.1,88.1 191.7,87.7 193.3,87.5 194.9,87.4 196.5,87.0 198.1,86.3 199.8,85.8 201.4,85.3 203.0,84.7 204.6,84.5 206.2,84.3 207.8,83.8 209.5,83.4 211.1,83.0 212.7,82.6 214.3,82.5 215.9,82.4 217.5,82.1 219.2,81.8 220.8,81.5 222.4,81.3 224.0,81.0 225.6,80.8 227.2,80.6 228.9,80.4 230.5,80.3 232.1,80.1 233.7,79.7 235.3,79.4 236.9,79.1 238.6,78.9 240.2,78.7 241.8,78.5 243.4,78.4 245.0,78.2 246.6,77.6 248.3,77.3 249.9,76.8 251.5,76.7 253.1,76.6 254.7,76.4 256.3,76.2 258.0,75.9 259.6,75.7 261.2,75.3 262.8,75.1 264.4,75.0 266.0,74.8 267.7,74.7 269.3,74.5 270.9,74.3 272.5,74.2 274.1,73.8 275.7,73.7 277.4,73.6 279.0,73.4 280.6,73.3 282.2,73.0 283.8,72.8 285.4,72.6 287.1,72.3 288.7,72.1 290.3,71.9 291.9,71.8 293.5,71.7 295.1,71.4 296.8,71.0 298.4,70.8 300.0,70.6 301.6,70.2 303.2,70.1 304.9,70.0 306.5,69.9 308.1,69.7 309.7,69.5 311.3,69.3 312.9,69.1 314.6,68.9 316.2,68.8 317.8,68.6 319.4,68.4 321.0,68.4 322.6,68.1 324.3,67.9 325.9,67.7 327.5,67.5 329.1,67.4 330.7,67.2 332.3,67.1 334.0,66.9 335.6,66.8 337.2,66.6 338.8,66.3 340.4,66.0 342.0,65.7 343.7,65.6 345.3,65.5 346.9,65.4 348.5,65.2 350.1,64.9 351.7,64.8 353.4,64.6 355.0,64.4 356.6,64.3 358.2,64.1 359.8,63.9 361.4,63.8 363.1,63.6 364.7,63.4 366.3,63.1 367.9,62.9 369.5,62.8 371.1,62.7 372.8,62.6 374.4,62.5 376.0,62.3 377.6,62.1 379.2,61.9 380.8,61.7 382.5,61.6 384.1,61.5 385.7,61.3 387.3,61.2 388.9,61.0 390.5,60.7 392.2,60.5 393.8,60.3 395.4,60.2 397.0,60.1 398.6,60.0 400.2,59.9 401.9,59.8 403.5,59.6 405.1,59.4 406.7,59.2 408.3,59.0 409.9,58.9 411.6,58.8 413.2,58.6 414.8,58.4 416.4,58.3 418.0,58.2 419.6,58.0 421.3,57.8 422.9,57.7 424.5,57.5 426.1,57.4 427.7,57.3 429.3,57.2 431.0,57.0 432.6,56.9 434.2,56.8 435.8,56.7 437.4,56.6 439.0,56.2 440.7,56.0 442.3,60.8 443.9,59.8 445.5,58.0 447.1,57.3 448.7,56.5 450.4,55.5 452.0,54.9 453.6,54.5 455.2,53.8 456.8,52.8 458.4,52.0 460.1,51.8 461.7,51.4 463.3,51.0 464.9,50.5 466.5,50.0 468.1,49.4 469.8,49.1 471.4,48.6 473.0,48.3 474.6,48.0 476.2,47.7 477.8,47.5 479.5,47.2 481.1,46.7 482.7,46.3 484.3,45.8 485.9,45.2 487.5,44.8 489.2,44.6 490.8,44.4 492.4,44.1 494.0,43.7 495.6,43.3 497.2,43.0 498.9,42.0 500.5,41.3 502.1,40.9 503.7,40.7 505.3,40.4 506.9,39.9 508.6,39.4 510.2,39.1 511.8,38.8 513.4,38.4 515.0,38.1 516.6,37.8 518.3,37.3 519.9,37.1 521.5,36.9 523.1,36.7 524.7,36.2 526.3,35.9 528.0,35.7 529.6,35.5 531.2,35.3 532.8,35.0 534.4,34.9 536.0,34.6 537.7,34.4 539.3,34.2 540.9,34.1 542.5,33.8 544.1,33.5 545.7,33.2 547.4,32.8 549.0,32.4 550.6,32.3 552.2,32.1 553.8,31.9 555.4,31.7 557.1,31.5 558.7,31.3 560.3,31.2 561.9,31.0 563.5,30.8 565.1,30.7 566.8,30.3 568.4,30.2 570.0,30.0" />
  
  <!-- Punto finale luminoso -->
  <circle cx="570.0" cy="30.0" r="4" fill="#ffffff" stroke="#0366d6" stroke-width="2.5" />
</svg>