<svg width="600" height="150" viewBox="0 0 600 150" xmlns="http://www.w3.org/2000/svg">
  <defs>
    <filter id="shadow2" x="-2%" y="-2%" width="104%" height="108%">
      <feDropShadow dx="0" dy="2" stdDeviation="3" flood-opacity="0.1" />
    </filter>
    <linearGradient id="fillGrad" x1="0" y1="0" x2="0" y2="1">
      <stop offset="0%" stop-color="#0366d6" stop-opacity="0.3"/>
      <stop offset="100%" stop-color="#0366d6" stop-opacity="0.02"/>
    </linearGradient>
  </defs>
  <rect width="600" height="150" rx="12" fill="#ffffff" filter="url(#shadow2)" stroke="#e1e4e8" stroke-width="1"/>
  <text x="20" y="24" fill="#2b3137" font-family="-apple-system,BlinkMacSystemFont,'Segoe UI',Helvetica,Arial,sans-serif" font-size="14" font-weight="600">📈 Download Growth (Actual: 82.6k)</text>
  
  <!-- Area sotto la linea -->
  <polygon fill="url(#fillGrad)" points="30.0,120.0,120 30.0,120.0 31.8,119.4 33.6,118.7 35.5,118.1 37.3,117.9 39.1,117.6 40.9,116.8 42.7,116.3 44.5,116.0 46.4,115.2 48.2,114.8 50.0,114.5 51.8,114.2 53.6,113.9 55.5,113.4 57.3,112.8 59.1,112.4 60.9,112.1 62.7,111.9 64.5,111.6 66.4,111.2 68.2,110.8 70.0,110.6 71.8,110.3 73.6,109.1 75.5,108.7 77.3,108.2 79.1,107.8 80.9,107.4 82.7,107.0 84.5,106.7 86.4,106.5 88.2,106.2 90.0,105.6 91.8,105.1 93.6,104.7 95.5,104.3 97.3,104.2 99.1,104.1 100.9,103.9 102.7,103.5 104.5,103.3 106.4,103.1 108.2,102.7 110.0,102.0 111.8,101.9 113.6,101.7 115.5,101.5 117.3,101.0 119.1,100.6 120.9,100.1 122.7,99.7 124.5,99.2 126.4,99.1 128.2,98.8 130.0,98.4 131.8,97.9 133.6,97.5 135.5,97.3 137.3,97.1 139.1,96.9 140.9,96.3 142.7,95.8 144.5,95.4 146.4,94.9 148.2,94.7 150.0,94.6 151.8,94.4 153.6,94.0 155.5,93.8 157.3,93.5 159.1,93.4 160.9,93.2 162.7,92.9 164.5,92.8 166.4,92.6 168.2,92.5 170.0,92.0 171.8,91.8 173.6,91.7 175.5,91.5 177.3,91.4 179.1,91.4 180.9,99.6 182.7,98.8 184.5,98.0 186.4,97.3 188.2,95.1 190.0,93.5 191.8,91.8 193.6,91.2 195.5,90.5 197.3,89.4 199.1,88.1 200.9,87.2 202.7,86.9 204.5,86.5 206.4,85.6 208.2,85.0 210.0,84.6 211.8,84.0 213.6,83.8 215.5,83.7 217.3,83.2 219.1,82.5 220.9,81.9 222.7,81.4 224.5,80.8 226.4,80.5 228.2,80.3 230.0,79.7 231.8,79.3 233.6,78.8 235.5,78.4 237.3,78.3 239.1,78.2 240.9,77.9 242.7,77.5 244.5,77.2 246.4,76.9 248.2,76.7 250.0,76.4 251.8,76.2 253.6,76.0 255.5,75.8 257.3,75.6 259.1,75.2 260.9,74.8 262.7,74.5 264.5,74.3 266.4,74.0 268.2,73.9 270.0,73.7 271.8,73.5 273.6,72.9 275.5,72.5 277.3,72.0 279.1,71.8 280.9,71.7 282.7,71.5 284.5,71.3 286.4,70.9 288.2,70.7 290.0,70.3 291.8,70.1 293.6,69.9 295.5,69.8 297.3,69.6 299.1,69.4 300.9,69.2 302.7,69.0 304.5,68.6 306.4,68.5 308.2,68.4 310.0,68.2 311.8,68.1 313.6,67.8 315.5,67.5 317.3,67.2 319.1,67.0 320.9,66.7 322.7,66.5 324.5,66.4 326.4,66.2 328.2,65.9 330.0,65.5 331.8,65.3 333.6,65.0 335.5,64.6 337.3,64.5 339.1,64.3 340.9,64.2 342.7,64.0 344.5,63.8 346.4,63.5 348.2,63.4 350.0,63.2 351.8,63.0 353.6,62.8 355.5,62.6 357.3,62.5 359.1,62.3 360.9,62.0 362.7,61.8 364.5,61.6 366.4,61.4 368.2,61.3 370.0,61.1 371.8,61.0 373.6,60.8 375.5,60.6 377.3,60.3 379.1,59.9 380.9,59.6 382.7,59.4 384.5,59.4 386.4,59.3 388.2,59.0 390.0,58.7 391.8,58.5 393.6,58.4 395.5,58.2 397.3,58.0 399.1,57.8 400.9,57.6 402.7,57.5 404.5,57.2 406.4,57.0 408.2,56.7 410.0,56.5 411.8,56.3 413.6,56.3 415.5,56.2 417.3,56.0 419.1,55.8 420.9,55.6 422.7,55.4 424.5,55.2 426.4,55.0 428.2,54.9 430.0,54.7 431.8,54.6 433.6,54.3 435.5,54.0 437.3,53.8 439.1,53.6 440.9,53.5 442.7,53.4 444.5,53.3 446.4,53.1 448.2,53.0 450.0,52.8 451.8,52.6 453.6,52.4 455.5,52.2 457.3,52.1 459.1,51.9 460.9,51.7 462.7,51.5 464.5,51.4 466.4,51.2 468.2,51.0 470.0,50.8 471.8,50.6 473.6,50.4 475.5,50.4 477.3,50.2 479.1,50.1 480.9,50.0 482.7,49.8 484.5,49.6 486.4,49.6 488.2,49.4 490.0,49.0 491.8,48.8 493.6,54.1 495.5,53.1 497.3,51.0 499.1,50.3 500.9,49.3 502.7,48.2 504.5,47.6 506.4,47.1 508.2,46.4 510.0,45.2 511.8,44.3 513.6,44.1 515.5,43.6 517.3,43.3 519.1,42.7 520.9,42.1 522.7,41.5 524.5,41.2 526.4,40.6 528.2,40.3 530.0,39.9 531.8,39.6 533.6,39.3 535.5,39.0 537.3,38.4 539.1,38.0 540.9,37.5 542.7,36.8 544.5,36.3 546.4,36.1 548.2,35.9 550.0,35.6 551.8,35.1 553.6,34.7 555.5,34.3 557.3,33.2 559.1,32.4 560.9,32.0 562.7,31.8 564.5,31.4 566.4,30.8 568.2,30.4 570.0,30.0 570.0,30.0,120" />
  
  <!-- Linea principale -->
  <polyline fill="none" stroke="#0366d6" stroke-width="2.5" stroke-linecap="round" stroke-linejoin="round" points="30.0,120.0 31.8,119.4 33.6,118.7 35.5,118.1 37.3,117.9 39.1,117.6 40.9,116.8 42.7,116.3 44.5,116.0 46.4,115.2 48.2,114.8 50.0,114.5 51.8,114.2 53.6,113.9 55.5,113.4 57.3,112.8 59.1,112.4 60.9,112.1 62.7,111.9 64.5,111.6 66.4,111.2 68.2,110.8 70.0,110.6 71.8,110.3 73.6,109.1 75.5,108.7 77.3,108.2 79.1,107.8 80.9,107.4 82.7,107.0 84.5,106.7 86.4,106.5 88.2,106.2 90.0,105.6 91.8,105.1 93.6,104.7 95.5,104.3 97.3,104.2 99.1,104.1 100.9,103.9 102.7,103.5 104.5,103.3 106.4,103.1 108.2,102.7 110.0,102.0 111.8,101.9 113.6,101.7 115.5,101.5 117.3,101.0 119.1,100.6 120.9,100.1 122.7,99.7 124.5,99.2 126.4,99.1 128.2,98.8 130.0,98.4 131.8,97.9 133.6,97.5 135.5,97.3 137.3,97.1 139.1,96.9 140.9,96.3 142.7,95.8 144.5,95.4 146.4,94.9 148.2,94.7 150.0,94.6 151.8,94.4 153.6,94.0 155.5,93.8 157.3,93.5 159.1,93.4 160.9,93.2 162.7,92.9 164.5,92.8 166.4,92.6 168.2,92.5 170.0,92.0 171.8,91.8 173.6,91.7 175.5,91.5 177.3,91.4 179.1,91.4 180.9,99.6 182.7,98.8 184.5,98.0 186.4,97.3 188.2,95.1 190.0,93.5 191.8,91.8 193.6,91.2 195.5,90.5 197.3,89.4 199.1,88.1 200.9,87.2 202.7,86.9 204.5,86.5 206.4,85.6 208.2,85.0 210.0,84.6 211.8,84.0 213.6,83.8 215.5,83.7 217.3,83.2 219.1,82.5 220.9,81.9 222.7,81.4 224.5,80.8 226.4,80.5 228.2,80.3 230.0,79.7 231.8,79.3 233.6,78.8 235.5,78.4 237.3,78.3 239.1,78.2 240.9,77.9 242.7,77.5 244.5,77.2 246.4,76.9 248.2,76.7 250.0,76.4 251.8,76.2 253.6,76.0 255.5,75.8 257.3,75.6 259.1,75.2 260.9,74.8 262.7,74.5 264.5,74.3 266.4,74.0 268.2,73.9 270.0,73.7 271.8,73.5 273.6,72.9 275.5,72.5 277.3,72.0 279.1,71.8 280.9,71.7 282.7,71.5 284.5,71.3 286.4,70.9 288.2,70.7 290.0,70.3 291.8,70.1 293.6,69.9 295.5,69.8 297.3,69.6 299.1,69.4 300.9,69.2 302.7,69.0 304.5,68.6 306.4,68.5 308.2,68.4 310.0,68.2 311.8,68.1 313.6,67.8 315.5,67.5 317.3,67.2 319.1,67.0 320.9,66.7 322.7,66.5 324.5,66.4 326.4,66.2 328.2,65.9 330.0,65.5 331.8,65.3 333.6,65.0 335.5,64.6 337.3,64.5 339.1,64.3 340.9,64.2 342.7,64.0 344.5,63.8 346.4,63.5 348.2,63.4 350.0,63.2 351.8,63.0 353.6,62.8 355.5,62.6 357.3,62.5 359.1,62.3 360.9,62.0 362.7,61.8 364.5,61.6 366.4,61.4 368.2,61.3 370.0,61.1 371.8,61.0 373.6,60.8 375.5,60.6 377.3,60.3 379.1,59.9 380.9,59.6 382.7,59.4 384.5,59.4 386.4,59.3 388.2,59.0 390.0,58.7 391.8,58.5 393.6,58.4 395.5,58.2 397.3,58.0 399.1,57.8 400.9,57.6 402.7,57.5 404.5,57.2 406.4,57.0 408.2,56.7 410.0,56.5 411.8,56.3 413.6,56.3 415.5,56.2 417.3,56.0 419.1,55.8 420.9,55.6 422.7,55.4 424.5,55.2 426.4,55.0 428.2,54.9 430.0,54.7 431.8,54.6 433.6,54.3 435.5,54.0 437.3,53.8 439.1,53.6 440.9,53.5 442.7,53.4 444.5,53.3 446.4,53.1 448.2,53.0 450.0,52.8 451.8,52.6 453.6,52.4 455.5,52.2 457.3,52.1 459.1,51.9 460.9,51.7 462.7,51.5 464.5,51.4 466.4,51.2 468.2,51.0 470.0,50.8 471.8,50.6 473.6,50.4 475.5,50.4 477.3,50.2 479.1,50.1 480.9,50.0 482.7,49.8 484.5,49.6 486.4,49.6 488.2,49.4 490.0,49.0 491.8,48.8 493.6,54.1 495.5,53.1 497.3,51.0 499.1,50.3 500.9,49.3 502.7,48.2 504.5,47.6 506.4,47.1 508.2,46.4 510.0,45.2 511.8,44.3 513.6,44.1 515.5,43.6 517.3,43.3 519.1,42.7 520.9,42.1 522.7,41.5 524.5,41.2 526.4,40.6 528.2,40.3 530.0,39.9 531.8,39.6 533.6,39.3 535.5,39.0 537.3,38.4 539.1,38.0 540.9,37.5 542.7,36.8 544.5,36.3 546.4,36.1 548.2,35.9 550.0,35.6 551.8,35.1 553.6,34.7 555.5,34.3 557.3,33.2 559.1,32.4 560.9,32.0 562.7,31.8 564.5,31.4 566.4,30.8 568.2,30.4 570.0,30.0" />
  
  <!-- Punto finale luminoso -->
  <circle cx="570.0" cy="30.0" r="4" fill="#ffffff" stroke="#0366d6" stroke-width="2.5" />
</svg>