<svg width="600" height="150" viewBox="0 0 600 150" xmlns="http://www.w3.org/2000/svg">
  <defs>
    <filter id="shadow2" x="-2%" y="-2%" width="104%" height="108%">
      <feDropShadow dx="0" dy="2" stdDeviation="3" flood-opacity="0.1" />
    </filter>
    <linearGradient id="fillGrad" x1="0" y1="0" x2="0" y2="1">
      <stop offset="0%" stop-color="#0366d6" stop-opacity="0.3"/>
      <stop offset="100%" stop-color="#0366d6" stop-opacity="0.02"/>
    </linearGradient>
  </defs>
  <rect width="600" height="150" rx="12" fill="#ffffff" filter="url(#shadow2)" stroke="#e1e4e8" stroke-width="1"/>
  <text x="20" y="24" fill="#2b3137" font-family="-apple-system,BlinkMacSystemFont,'Segoe UI',Helvetica,Arial,sans-serif" font-size="14" font-weight="600">📈 Download Growth (Actual: 84.1k)</text>
  
  <!-- Area sotto la linea -->
  <polygon fill="url(#fillGrad)" points="30.0,120.0,120 30.0,120.0 31.6,119.4 33.3,118.8 34.9,118.2 36.6,118.1 38.2,117.8 39.9,117.1 41.5,116.7 43.2,116.4 44.8,115.7 46.5,115.3 48.1,115.0 49.8,114.8 51.4,114.4 53.0,114.0 54.7,113.5 56.3,113.1 58.0,112.8 59.6,112.6 61.3,112.3 62.9,112.0 64.6,111.6 66.2,111.5 67.9,111.2 69.5,110.1 71.2,109.7 72.8,109.3 74.5,108.9 76.1,108.5 77.7,108.1 79.4,107.9 81.0,107.7 82.7,107.4 84.3,106.9 86.0,106.4 87.6,106.1 89.3,105.7 90.9,105.6 92.6,105.5 94.2,105.3 95.9,105.0 97.5,104.8 99.1,104.6 100.8,104.2 102.4,103.6 104.1,103.5 105.7,103.4 107.4,103.1 109.0,102.7 110.7,102.3 112.3,101.9 114.0,101.5 115.6,101.1 117.3,101.0 118.9,100.7 120.5,100.3 122.2,99.8 123.8,99.5 125.5,99.4 127.1,99.1 128.8,98.9 130.4,98.4 132.1,98.0 133.7,97.6 135.4,97.2 137.0,97.0 138.7,96.8 140.3,96.6 142.0,96.3 143.6,96.1 145.2,95.9 146.9,95.7 148.5,95.6 150.2,95.3 151.8,95.2 153.5,95.1 155.1,95.0 156.8,94.5 158.4,94.3 160.1,94.2 161.7,94.0 163.4,93.9 165.0,93.9 166.6,101.4 168.3,100.7 169.9,100.0 171.6,99.3 173.2,97.3 174.9,95.9 176.5,94.3 178.2,93.8 179.8,93.1 181.5,92.1 183.1,91.0 184.8,90.1 186.4,89.8 188.0,89.5 189.7,88.7 191.3,88.1 193.0,87.7 194.6,87.2 196.3,87.0 197.9,87.0 199.6,86.5 201.2,85.8 202.9,85.3 204.5,84.8 206.2,84.3 207.8,84.0 209.5,83.8 211.1,83.3 212.7,82.9 214.4,82.5 216.0,82.1 217.7,82.0 219.3,81.9 221.0,81.6 222.6,81.3 224.3,81.0 225.9,80.7 227.6,80.5 229.2,80.3 230.9,80.1 232.5,79.9 234.1,79.7 235.8,79.5 237.4,79.1 239.1,78.9 240.7,78.5 242.4,78.3 244.0,78.1 245.7,78.0 247.3,77.8 249.0,77.6 250.6,77.1 252.3,76.7 253.9,76.3 255.5,76.1 257.2,76.0 258.8,75.8 260.5,75.6 262.1,75.3 263.8,75.1 265.4,74.7 267.1,74.5 268.7,74.4 270.4,74.2 272.0,74.1 273.7,73.9 275.3,73.7 277.0,73.5 278.6,73.2 280.2,73.1 281.9,73.0 283.5,72.8 285.2,72.7 286.8,72.4 288.5,72.2 290.1,71.9 291.8,71.7 293.4,71.5 295.1,71.3 296.7,71.2 298.4,71.0 300.0,70.7 301.6,70.4 303.3,70.2 304.9,69.9 306.6,69.5 308.2,69.4 309.9,69.3 311.5,69.2 313.2,69.0 314.8,68.8 316.5,68.6 318.1,68.4 319.8,68.2 321.4,68.1 323.0,67.9 324.7,67.7 326.3,67.7 328.0,67.5 329.6,67.2 331.3,67.0 332.9,66.8 334.6,66.7 336.2,66.5 337.9,66.3 339.5,66.2 341.2,66.1 342.8,65.9 344.5,65.6 346.1,65.2 347.7,65.0 349.4,64.8 351.0,64.8 352.7,64.7 354.3,64.5 356.0,64.2 357.6,64.0 359.3,63.9 360.9,63.7 362.6,63.5 364.2,63.3 365.9,63.2 367.5,63.1 369.1,62.8 370.8,62.6 372.4,62.3 374.1,62.1 375.7,62.0 377.4,62.0 379.0,61.9 380.7,61.7 382.3,61.5 384.0,61.3 385.6,61.2 387.3,61.0 388.9,60.8 390.5,60.7 392.2,60.6 393.8,60.4 395.5,60.2 397.1,59.9 398.8,59.7 400.4,59.5 402.1,59.4 403.7,59.3 405.4,59.2 407.0,59.1 408.7,59.0 410.3,58.8 412.0,58.6 413.6,58.4 415.2,58.2 416.9,58.1 418.5,58.0 420.2,57.8 421.8,57.6 423.5,57.5 425.1,57.3 426.8,57.2 428.4,57.0 430.1,56.8 431.7,56.6 433.4,56.6 435.0,56.5 436.6,56.3 438.3,56.2 439.9,56.0 441.6,55.9 443.2,55.9 444.9,55.7 446.5,55.4 448.2,55.1 449.8,60.0 451.5,59.0 453.1,57.2 454.8,56.5 456.4,55.6 458.0,54.6 459.7,54.0 461.3,53.6 463.0,52.9 464.6,51.9 466.3,51.1 467.9,50.8 469.6,50.4 471.2,50.1 472.9,49.6 474.5,49.1 476.2,48.5 477.8,48.2 479.5,47.6 481.1,47.4 482.7,47.0 484.4,46.8 486.0,46.5 487.7,46.2 489.3,45.7 491.0,45.3 492.6,44.8 494.3,44.2 495.9,43.8 497.6,43.6 499.2,43.4 500.9,43.1 502.5,42.7 504.1,42.3 505.8,42.0 507.4,41.0 509.1,40.2 510.7,39.8 512.4,39.6 514.0,39.3 515.7,38.8 517.3,38.4 519.0,38.0 520.6,37.7 522.3,37.3 523.9,37.0 525.5,36.7 527.2,36.2 528.8,35.9 530.5,35.8 532.1,35.5 533.8,35.1 535.4,34.8 537.1,34.5 538.7,34.4 540.4,34.2 542.0,33.9 543.7,33.7 545.3,33.5 547.0,33.3 548.6,33.1 550.2,32.9 551.9,32.6 553.5,32.4 555.2,32.0 556.8,31.6 558.5,31.3 560.1,31.1 561.8,30.9 563.4,30.7 565.1,30.5 566.7,30.3 568.4,30.1 570.0,30.0 570.0,30.0,120" />
  
  <!-- Linea principale -->
  <polyline fill="none" stroke="#0366d6" stroke-width="2.5" stroke-linecap="round" stroke-linejoin="round" points="30.0,120.0 31.6,119.4 33.3,118.8 34.9,118.2 36.6,118.1 38.2,117.8 39.9,117.1 41.5,116.7 43.2,116.4 44.8,115.7 46.5,115.3 48.1,115.0 49.8,114.8 51.4,114.4 53.0,114.0 54.7,113.5 56.3,113.1 58.0,112.8 59.6,112.6 61.3,112.3 62.9,112.0 64.6,111.6 66.2,111.5 67.9,111.2 69.5,110.1 71.2,109.7 72.8,109.3 74.5,108.9 76.1,108.5 77.7,108.1 79.4,107.9 81.0,107.7 82.7,107.4 84.3,106.9 86.0,106.4 87.6,106.1 89.3,105.7 90.9,105.6 92.6,105.5 94.2,105.3 95.9,105.0 97.5,104.8 99.1,104.6 100.8,104.2 102.4,103.6 104.1,103.5 105.7,103.4 107.4,103.1 109.0,102.7 110.7,102.3 112.3,101.9 114.0,101.5 115.6,101.1 117.3,101.0 118.9,100.7 120.5,100.3 122.2,99.8 123.8,99.5 125.5,99.4 127.1,99.1 128.8,98.9 130.4,98.4 132.1,98.0 133.7,97.6 135.4,97.2 137.0,97.0 138.7,96.8 140.3,96.6 142.0,96.3 143.6,96.1 145.2,95.9 146.9,95.7 148.5,95.6 150.2,95.3 151.8,95.2 153.5,95.1 155.1,95.0 156.8,94.5 158.4,94.3 160.1,94.2 161.7,94.0 163.4,93.9 165.0,93.9 166.6,101.4 168.3,100.7 169.9,100.0 171.6,99.3 173.2,97.3 174.9,95.9 176.5,94.3 178.2,93.8 179.8,93.1 181.5,92.1 183.1,91.0 184.8,90.1 186.4,89.8 188.0,89.5 189.7,88.7 191.3,88.1 193.0,87.7 194.6,87.2 196.3,87.0 197.9,87.0 199.6,86.5 201.2,85.8 202.9,85.3 204.5,84.8 206.2,84.3 207.8,84.0 209.5,83.8 211.1,83.3 212.7,82.9 214.4,82.5 216.0,82.1 217.7,82.0 219.3,81.9 221.0,81.6 222.6,81.3 224.3,81.0 225.9,80.7 227.6,80.5 229.2,80.3 230.9,80.1 232.5,79.9 234.1,79.7 235.8,79.5 237.4,79.1 239.1,78.9 240.7,78.5 242.4,78.3 244.0,78.1 245.7,78.0 247.3,77.8 249.0,77.6 250.6,77.1 252.3,76.7 253.9,76.3 255.5,76.1 257.2,76.0 258.8,75.8 260.5,75.6 262.1,75.3 263.8,75.1 265.4,74.7 267.1,74.5 268.7,74.4 270.4,74.2 272.0,74.1 273.7,73.9 275.3,73.7 277.0,73.5 278.6,73.2 280.2,73.1 281.9,73.0 283.5,72.8 285.2,72.7 286.8,72.4 288.5,72.2 290.1,71.9 291.8,71.7 293.4,71.5 295.1,71.3 296.7,71.2 298.4,71.0 300.0,70.7 301.6,70.4 303.3,70.2 304.9,69.9 306.6,69.5 308.2,69.4 309.9,69.3 311.5,69.2 313.2,69.0 314.8,68.8 316.5,68.6 318.1,68.4 319.8,68.2 321.4,68.1 323.0,67.9 324.7,67.7 326.3,67.7 328.0,67.5 329.6,67.2 331.3,67.0 332.9,66.8 334.6,66.7 336.2,66.5 337.9,66.3 339.5,66.2 341.2,66.1 342.8,65.9 344.5,65.6 346.1,65.2 347.7,65.0 349.4,64.8 351.0,64.8 352.7,64.7 354.3,64.5 356.0,64.2 357.6,64.0 359.3,63.9 360.9,63.7 362.6,63.5 364.2,63.3 365.9,63.2 367.5,63.1 369.1,62.8 370.8,62.6 372.4,62.3 374.1,62.1 375.7,62.0 377.4,62.0 379.0,61.9 380.7,61.7 382.3,61.5 384.0,61.3 385.6,61.2 387.3,61.0 388.9,60.8 390.5,60.7 392.2,60.6 393.8,60.4 395.5,60.2 397.1,59.9 398.8,59.7 400.4,59.5 402.1,59.4 403.7,59.3 405.4,59.2 407.0,59.1 408.7,59.0 410.3,58.8 412.0,58.6 413.6,58.4 415.2,58.2 416.9,58.1 418.5,58.0 420.2,57.8 421.8,57.6 423.5,57.5 425.1,57.3 426.8,57.2 428.4,57.0 430.1,56.8 431.7,56.6 433.4,56.6 435.0,56.5 436.6,56.3 438.3,56.2 439.9,56.0 441.6,55.9 443.2,55.9 444.9,55.7 446.5,55.4 448.2,55.1 449.8,60.0 451.5,59.0 453.1,57.2 454.8,56.5 456.4,55.6 458.0,54.6 459.7,54.0 461.3,53.6 463.0,52.9 464.6,51.9 466.3,51.1 467.9,50.8 469.6,50.4 471.2,50.1 472.9,49.6 474.5,49.1 476.2,48.5 477.8,48.2 479.5,47.6 481.1,47.4 482.7,47.0 484.4,46.8 486.0,46.5 487.7,46.2 489.3,45.7 491.0,45.3 492.6,44.8 494.3,44.2 495.9,43.8 497.6,43.6 499.2,43.4 500.9,43.1 502.5,42.7 504.1,42.3 505.8,42.0 507.4,41.0 509.1,40.2 510.7,39.8 512.4,39.6 514.0,39.3 515.7,38.8 517.3,38.4 519.0,38.0 520.6,37.7 522.3,37.3 523.9,37.0 525.5,36.7 527.2,36.2 528.8,35.9 530.5,35.8 532.1,35.5 533.8,35.1 535.4,34.8 537.1,34.5 538.7,34.4 540.4,34.2 542.0,33.9 543.7,33.7 545.3,33.5 547.0,33.3 548.6,33.1 550.2,32.9 551.9,32.6 553.5,32.4 555.2,32.0 556.8,31.6 558.5,31.3 560.1,31.1 561.8,30.9 563.4,30.7 565.1,30.5 566.7,30.3 568.4,30.1 570.0,30.0" />
  
  <!-- Punto finale luminoso -->
  <circle cx="570.0" cy="30.0" r="4" fill="#ffffff" stroke="#0366d6" stroke-width="2.5" />
</svg>