<svg width="600" height="150" viewBox="0 0 600 150" xmlns="http://www.w3.org/2000/svg">
  <defs>
    <filter id="shadow2" x="-2%" y="-2%" width="104%" height="108%">
      <feDropShadow dx="0" dy="2" stdDeviation="3" flood-opacity="0.1" />
    </filter>
    <linearGradient id="fillGrad" x1="0" y1="0" x2="0" y2="1">
      <stop offset="0%" stop-color="#0366d6" stop-opacity="0.3"/>
      <stop offset="100%" stop-color="#0366d6" stop-opacity="0.02"/>
    </linearGradient>
  </defs>
  <rect width="600" height="150" rx="12" fill="#ffffff" filter="url(#shadow2)" stroke="#e1e4e8" stroke-width="1"/>
  <text x="20" y="24" fill="#2b3137" font-family="-apple-system,BlinkMacSystemFont,'Segoe UI',Helvetica,Arial,sans-serif" font-size="14" font-weight="600">📈 Download Growth (Actual: 75.7k)</text>
  
  <!-- Area sotto la linea -->
  <polygon fill="url(#fillGrad)" points="30.0,120.0,120 30.0,120.0 33.6,118.9 37.2,117.6 40.9,116.6 44.5,116.3 48.1,115.7 51.7,114.4 55.4,113.5 59.0,112.9 62.6,111.6 66.2,110.9 69.9,110.2 73.5,109.8 77.1,109.2 80.7,108.3 84.4,107.3 88.0,106.5 91.6,106.0 95.2,105.7 98.9,105.1 102.5,104.3 106.1,103.7 109.7,103.4 113.4,102.8 117.0,100.7 120.6,100.0 124.2,99.2 127.9,98.3 131.5,97.6 135.1,96.9 138.7,96.4 142.3,96.1 146.0,95.5 149.6,94.4 153.2,93.5 156.8,92.9 160.5,92.2 164.1,92.0 167.7,91.8 171.3,91.5 175.0,90.8 178.6,90.4 182.2,90.1 185.8,89.3 189.5,88.1 193.1,87.9 196.7,87.6 200.3,87.2 204.0,86.3 207.6,85.7 211.2,84.7 214.8,84.0 218.5,83.2 222.1,83.0 225.7,82.5 229.3,81.7 233.0,80.8 236.6,80.1 240.2,79.9 243.8,79.4 247.4,79.0 251.1,78.1 254.7,77.2 258.3,76.4 261.9,75.6 265.6,75.2 269.2,74.9 272.8,74.6 276.4,73.9 280.1,73.5 283.7,73.1 287.3,72.8 290.9,72.5 294.6,72.1 298.2,71.7 301.8,71.5 305.4,71.3 309.1,70.5 312.7,70.0 316.3,69.8 319.9,69.5 323.6,69.3 327.2,69.3 330.8,83.8 334.4,82.4 338.1,81.1 341.7,79.8 345.3,75.8 348.9,73.1 352.6,70.1 356.2,69.0 359.8,67.8 363.4,65.7 367.0,63.5 370.7,61.9 374.3,61.3 377.9,60.7 381.5,59.1 385.2,58.0 388.8,57.2 392.4,56.3 396.0,55.9 399.7,55.7 403.3,54.9 406.9,53.5 410.5,52.6 414.2,51.6 417.8,50.5 421.4,50.0 425.0,49.6 428.7,48.7 432.3,47.8 435.9,47.0 439.5,46.4 443.2,46.1 446.8,45.9 450.4,45.4 454.0,44.7 457.7,44.2 461.3,43.6 464.9,43.2 468.5,42.8 472.1,42.4 475.8,42.0 479.4,41.7 483.0,41.3 486.6,40.6 490.3,40.0 493.9,39.4 497.5,39.0 501.1,38.5 504.8,38.3 508.4,37.9 512.0,37.6 515.6,36.5 519.3,35.8 522.9,35.0 526.5,34.6 530.1,34.5 533.8,34.1 537.4,33.7 541.0,33.1 544.6,32.6 548.3,32.0 551.9,31.5 555.5,31.3 559.1,31.0 562.8,30.7 566.4,30.4 570.0,30.0 570.0,30.0,120" />
  
  <!-- Linea principale -->
  <polyline fill="none" stroke="#0366d6" stroke-width="2.5" stroke-linecap="round" stroke-linejoin="round" points="30.0,120.0 33.6,118.9 37.2,117.6 40.9,116.6 44.5,116.3 48.1,115.7 51.7,114.4 55.4,113.5 59.0,112.9 62.6,111.6 66.2,110.9 69.9,110.2 73.5,109.8 77.1,109.2 80.7,108.3 84.4,107.3 88.0,106.5 91.6,106.0 95.2,105.7 98.9,105.1 102.5,104.3 106.1,103.7 109.7,103.4 113.4,102.8 117.0,100.7 120.6,100.0 124.2,99.2 127.9,98.3 131.5,97.6 135.1,96.9 138.7,96.4 142.3,96.1 146.0,95.5 149.6,94.4 153.2,93.5 156.8,92.9 160.5,92.2 164.1,92.0 167.7,91.8 171.3,91.5 175.0,90.8 178.6,90.4 182.2,90.1 185.8,89.3 189.5,88.1 193.1,87.9 196.7,87.6 200.3,87.2 204.0,86.3 207.6,85.7 211.2,84.7 214.8,84.0 218.5,83.2 222.1,83.0 225.7,82.5 229.3,81.7 233.0,80.8 236.6,80.1 240.2,79.9 243.8,79.4 247.4,79.0 251.1,78.1 254.7,77.2 258.3,76.4 261.9,75.6 265.6,75.2 269.2,74.9 272.8,74.6 276.4,73.9 280.1,73.5 283.7,73.1 287.3,72.8 290.9,72.5 294.6,72.1 298.2,71.7 301.8,71.5 305.4,71.3 309.1,70.5 312.7,70.0 316.3,69.8 319.9,69.5 323.6,69.3 327.2,69.3 330.8,83.8 334.4,82.4 338.1,81.1 341.7,79.8 345.3,75.8 348.9,73.1 352.6,70.1 356.2,69.0 359.8,67.8 363.4,65.7 367.0,63.5 370.7,61.9 374.3,61.3 377.9,60.7 381.5,59.1 385.2,58.0 388.8,57.2 392.4,56.3 396.0,55.9 399.7,55.7 403.3,54.9 406.9,53.5 410.5,52.6 414.2,51.6 417.8,50.5 421.4,50.0 425.0,49.6 428.7,48.7 432.3,47.8 435.9,47.0 439.5,46.4 443.2,46.1 446.8,45.9 450.4,45.4 454.0,44.7 457.7,44.2 461.3,43.6 464.9,43.2 468.5,42.8 472.1,42.4 475.8,42.0 479.4,41.7 483.0,41.3 486.6,40.6 490.3,40.0 493.9,39.4 497.5,39.0 501.1,38.5 504.8,38.3 508.4,37.9 512.0,37.6 515.6,36.5 519.3,35.8 522.9,35.0 526.5,34.6 530.1,34.5 533.8,34.1 537.4,33.7 541.0,33.1 544.6,32.6 548.3,32.0 551.9,31.5 555.5,31.3 559.1,31.0 562.8,30.7 566.4,30.4 570.0,30.0" />
  
  <!-- Punto finale luminoso -->
  <circle cx="570.0" cy="30.0" r="4" fill="#ffffff" stroke="#0366d6" stroke-width="2.5" />
</svg>