<svg width="600" height="150" viewBox="0 0 600 150" xmlns="http://www.w3.org/2000/svg">
  <defs>
    <filter id="shadow2" x="-2%" y="-2%" width="104%" height="108%">
      <feDropShadow dx="0" dy="2" stdDeviation="3" flood-opacity="0.1" />
    </filter>
    <linearGradient id="fillGrad" x1="0" y1="0" x2="0" y2="1">
      <stop offset="0%" stop-color="#0366d6" stop-opacity="0.3"/>
      <stop offset="100%" stop-color="#0366d6" stop-opacity="0.02"/>
    </linearGradient>
  </defs>
  <rect width="600" height="150" rx="12" fill="#ffffff" filter="url(#shadow2)" stroke="#e1e4e8" stroke-width="1"/>
  <text x="20" y="24" fill="#2b3137" font-family="-apple-system,BlinkMacSystemFont,'Segoe UI',Helvetica,Arial,sans-serif" font-size="14" font-weight="600">📈 Download Growth (Actual: 71.4k)</text>
  
  <!-- Area sotto la linea -->
  <polygon fill="url(#fillGrad)" points="30.0,120.0,120 30.0,120.0 37.9,117.8 45.9,115.4 53.8,113.3 61.8,112.7 69.7,111.6 77.6,109.0 85.6,107.3 93.5,106.1 101.5,103.5 109.4,102.2 117.4,100.8 125.3,100.1 133.2,98.9 141.2,97.1 149.1,95.2 157.1,93.7 165.0,92.7 172.9,92.0 180.9,90.8 188.8,89.4 196.8,88.2 204.7,87.6 212.6,86.4 220.6,82.2 228.5,81.0 236.5,79.3 244.4,77.7 252.4,76.2 260.3,74.9 268.2,73.9 276.2,73.2 284.1,72.1 292.1,70.0 300.0,68.3 307.9,67.1 315.9,65.7 323.8,65.3 331.8,64.9 339.7,64.2 347.6,62.9 355.6,62.1 363.5,61.5 371.5,60.0 379.4,57.7 387.4,57.2 395.3,56.8 403.2,55.9 411.2,54.1 419.1,52.9 427.1,51.1 435.0,49.7 442.9,48.1 450.9,47.8 458.8,46.8 466.8,45.1 474.7,43.4 482.6,42.1 490.6,41.6 498.5,40.7 506.5,39.9 514.4,38.1 522.4,36.3 530.3,34.8 538.2,33.2 546.2,32.4 554.1,31.9 562.1,31.3 570.0,30.0 570.0,30.0,120" />
  
  <!-- Linea principale -->
  <polyline fill="none" stroke="#0366d6" stroke-width="2.5" stroke-linecap="round" stroke-linejoin="round" points="30.0,120.0 37.9,117.8 45.9,115.4 53.8,113.3 61.8,112.7 69.7,111.6 77.6,109.0 85.6,107.3 93.5,106.1 101.5,103.5 109.4,102.2 117.4,100.8 125.3,100.1 133.2,98.9 141.2,97.1 149.1,95.2 157.1,93.7 165.0,92.7 172.9,92.0 180.9,90.8 188.8,89.4 196.8,88.2 204.7,87.6 212.6,86.4 220.6,82.2 228.5,81.0 236.5,79.3 244.4,77.7 252.4,76.2 260.3,74.9 268.2,73.9 276.2,73.2 284.1,72.1 292.1,70.0 300.0,68.3 307.9,67.1 315.9,65.7 323.8,65.3 331.8,64.9 339.7,64.2 347.6,62.9 355.6,62.1 363.5,61.5 371.5,60.0 379.4,57.7 387.4,57.2 395.3,56.8 403.2,55.9 411.2,54.1 419.1,52.9 427.1,51.1 435.0,49.7 442.9,48.1 450.9,47.8 458.8,46.8 466.8,45.1 474.7,43.4 482.6,42.1 490.6,41.6 498.5,40.7 506.5,39.9 514.4,38.1 522.4,36.3 530.3,34.8 538.2,33.2 546.2,32.4 554.1,31.9 562.1,31.3 570.0,30.0" />
  
  <!-- Punto finale luminoso -->
  <circle cx="570.0" cy="30.0" r="4" fill="#ffffff" stroke="#0366d6" stroke-width="2.5" />
</svg>