<svg width="600" height="150" viewBox="0 0 600 150" xmlns="http://www.w3.org/2000/svg">
  <defs>
    <filter id="shadow2" x="-2%" y="-2%" width="104%" height="108%">
      <feDropShadow dx="0" dy="2" stdDeviation="3" flood-opacity="0.1" />
    </filter>
    <linearGradient id="fillGrad" x1="0" y1="0" x2="0" y2="1">
      <stop offset="0%" stop-color="#0366d6" stop-opacity="0.3"/>
      <stop offset="100%" stop-color="#0366d6" stop-opacity="0.02"/>
    </linearGradient>
  </defs>
  <rect width="600" height="150" rx="12" fill="#ffffff" filter="url(#shadow2)" stroke="#e1e4e8" stroke-width="1"/>
  <text x="20" y="24" fill="#2b3137" font-family="-apple-system,BlinkMacSystemFont,'Segoe UI',Helvetica,Arial,sans-serif" font-size="14" font-weight="600">📈 Download Growth (Actual: 70.1k)</text>
  
  <!-- Area sotto la linea -->
  <polygon fill="url(#fillGrad)" points="30.0,120.0,120 30.0,120.0 41.5,116.9 53.0,113.5 64.5,110.5 76.0,109.8 87.4,108.2 98.9,104.6 110.4,102.2 121.9,100.6 133.4,96.8 144.9,95.0 156.4,93.1 167.9,92.0 179.4,90.3 190.9,87.8 202.3,85.1 213.8,83.1 225.3,81.7 236.8,80.7 248.3,79.0 259.8,77.1 271.3,75.3 282.8,74.5 294.3,72.8 305.7,67.0 317.2,65.2 328.7,62.9 340.2,60.6 351.7,58.6 363.2,56.6 374.7,55.3 386.2,54.4 397.7,52.7 409.1,49.9 420.6,47.4 432.1,45.7 443.6,43.8 455.1,43.2 466.6,42.7 478.1,41.7 489.6,39.8 501.1,38.7 512.6,37.9 524.0,35.8 535.5,32.6 547.0,31.8 558.5,31.3 570.0,30.0 570.0,30.0,120" />
  
  <!-- Linea principale -->
  <polyline fill="none" stroke="#0366d6" stroke-width="2.5" stroke-linecap="round" stroke-linejoin="round" points="30.0,120.0 41.5,116.9 53.0,113.5 64.5,110.5 76.0,109.8 87.4,108.2 98.9,104.6 110.4,102.2 121.9,100.6 133.4,96.8 144.9,95.0 156.4,93.1 167.9,92.0 179.4,90.3 190.9,87.8 202.3,85.1 213.8,83.1 225.3,81.7 236.8,80.7 248.3,79.0 259.8,77.1 271.3,75.3 282.8,74.5 294.3,72.8 305.7,67.0 317.2,65.2 328.7,62.9 340.2,60.6 351.7,58.6 363.2,56.6 374.7,55.3 386.2,54.4 397.7,52.7 409.1,49.9 420.6,47.4 432.1,45.7 443.6,43.8 455.1,43.2 466.6,42.7 478.1,41.7 489.6,39.8 501.1,38.7 512.6,37.9 524.0,35.8 535.5,32.6 547.0,31.8 558.5,31.3 570.0,30.0" />
  
  <!-- Punto finale luminoso -->
  <circle cx="570.0" cy="30.0" r="4" fill="#ffffff" stroke="#0366d6" stroke-width="2.5" />
</svg>