<svg width="600" height="150" viewBox="0 0 600 150" xmlns="http://www.w3.org/2000/svg">
  <defs>
    <filter id="shadow2" x="-2%" y="-2%" width="104%" height="108%">
      <feDropShadow dx="0" dy="2" stdDeviation="3" flood-opacity="0.1" />
    </filter>
    <linearGradient id="fillGrad" x1="0" y1="0" x2="0" y2="1">
      <stop offset="0%" stop-color="#0366d6" stop-opacity="0.3"/>
      <stop offset="100%" stop-color="#0366d6" stop-opacity="0.02"/>
    </linearGradient>
  </defs>
  <rect width="600" height="150" rx="12" fill="#ffffff" filter="url(#shadow2)" stroke="#e1e4e8" stroke-width="1"/>
  <text x="20" y="24" fill="#2b3137" font-family="-apple-system,BlinkMacSystemFont,'Segoe UI',Helvetica,Arial,sans-serif" font-size="14" font-weight="600">📈 Download Growth (Actual: 77.7k)</text>
  
  <!-- Area sotto la linea -->
  <polygon fill="url(#fillGrad)" points="30.0,120.0,120 30.0,120.0 32.7,119.1 35.3,118.1 38.0,117.2 40.7,116.9 43.4,116.5 46.0,115.4 48.7,114.7 51.4,114.2 54.1,113.1 56.7,112.5 59.4,112.0 62.1,111.6 64.8,111.1 67.4,110.4 70.1,109.6 72.8,109.0 75.4,108.6 78.1,108.3 80.8,107.8 83.5,107.2 86.1,106.7 88.8,106.4 91.5,105.9 94.2,104.2 96.8,103.6 99.5,102.9 102.2,102.3 104.9,101.6 107.5,101.1 110.2,100.7 112.9,100.4 115.5,99.9 118.2,99.0 120.9,98.3 123.6,97.8 126.2,97.2 128.9,97.1 131.6,96.9 134.3,96.6 136.9,96.0 139.6,95.7 142.3,95.5 145.0,94.8 147.6,93.9 150.3,93.7 153.0,93.5 155.6,93.1 158.3,92.4 161.0,91.9 163.7,91.1 166.3,90.5 169.0,89.8 171.7,89.7 174.4,89.3 177.0,88.6 179.7,87.9 182.4,87.3 185.0,87.1 187.7,86.7 190.4,86.4 193.1,85.6 195.7,84.9 198.4,84.3 201.1,83.6 203.8,83.3 206.4,83.1 209.1,82.8 211.8,82.3 214.5,81.9 217.1,81.6 219.8,81.3 222.5,81.1 225.1,80.7 227.8,80.5 230.5,80.3 233.2,80.1 235.8,79.4 238.5,79.0 241.2,78.9 243.9,78.6 246.5,78.5 249.2,78.5 251.9,90.3 254.6,89.2 257.2,88.1 259.9,87.0 262.6,83.8 265.2,81.5 267.9,79.1 270.6,78.2 273.3,77.2 275.9,75.5 278.6,73.7 281.3,72.4 284.0,71.9 286.6,71.4 289.3,70.1 292.0,69.2 294.7,68.6 297.3,67.8 300.0,67.5 302.7,67.3 305.3,66.6 308.0,65.5 310.7,64.8 313.4,64.0 316.0,63.1 318.7,62.6 321.4,62.3 324.1,61.6 326.7,60.9 329.4,60.2 332.1,59.7 334.8,59.4 337.4,59.3 340.1,58.9 342.8,58.3 345.4,57.9 348.1,57.4 350.8,57.1 353.5,56.7 356.1,56.4 358.8,56.1 361.5,55.8 364.2,55.5 366.8,54.9 369.5,54.4 372.2,53.9 374.9,53.6 377.5,53.2 380.2,53.0 382.9,52.7 385.5,52.5 388.2,51.6 390.9,51.0 393.6,50.3 396.2,50.0 398.9,50.0 401.6,49.6 404.3,49.3 406.9,48.8 409.6,48.4 412.3,47.9 415.0,47.5 417.6,47.3 420.3,47.1 423.0,46.8 425.6,46.6 428.3,46.2 431.0,46.0 433.7,45.4 436.3,45.2 439.0,45.0 441.7,44.8 444.4,44.6 447.0,44.2 449.7,43.8 452.4,43.4 455.0,43.0 457.7,42.7 460.4,42.4 463.1,42.2 465.7,42.0 468.4,41.4 471.1,40.9 473.8,40.6 476.4,40.2 479.1,39.6 481.8,39.4 484.5,39.2 487.1,39.0 489.8,38.7 492.5,38.4 495.1,38.1 497.8,37.8 500.5,37.5 503.2,37.2 505.8,36.9 508.5,36.7 511.2,36.6 513.9,36.3 516.5,35.8 519.2,35.6 521.9,35.2 524.6,35.0 527.2,34.8 529.9,34.5 532.6,34.3 535.2,34.1 537.9,33.8 540.6,33.3 543.3,32.7 545.9,32.4 548.6,32.1 551.3,32.0 554.0,31.8 556.6,31.5 559.3,31.0 562.0,30.8 564.7,30.6 567.3,30.3 570.0,30.0 570.0,30.0,120" />
  
  <!-- Linea principale -->
  <polyline fill="none" stroke="#0366d6" stroke-width="2.5" stroke-linecap="round" stroke-linejoin="round" points="30.0,120.0 32.7,119.1 35.3,118.1 38.0,117.2 40.7,116.9 43.4,116.5 46.0,115.4 48.7,114.7 51.4,114.2 54.1,113.1 56.7,112.5 59.4,112.0 62.1,111.6 64.8,111.1 67.4,110.4 70.1,109.6 72.8,109.0 75.4,108.6 78.1,108.3 80.8,107.8 83.5,107.2 86.1,106.7 88.8,106.4 91.5,105.9 94.2,104.2 96.8,103.6 99.5,102.9 102.2,102.3 104.9,101.6 107.5,101.1 110.2,100.7 112.9,100.4 115.5,99.9 118.2,99.0 120.9,98.3 123.6,97.8 126.2,97.2 128.9,97.1 131.6,96.9 134.3,96.6 136.9,96.0 139.6,95.7 142.3,95.5 145.0,94.8 147.6,93.9 150.3,93.7 153.0,93.5 155.6,93.1 158.3,92.4 161.0,91.9 163.7,91.1 166.3,90.5 169.0,89.8 171.7,89.7 174.4,89.3 177.0,88.6 179.7,87.9 182.4,87.3 185.0,87.1 187.7,86.7 190.4,86.4 193.1,85.6 195.7,84.9 198.4,84.3 201.1,83.6 203.8,83.3 206.4,83.1 209.1,82.8 211.8,82.3 214.5,81.9 217.1,81.6 219.8,81.3 222.5,81.1 225.1,80.7 227.8,80.5 230.5,80.3 233.2,80.1 235.8,79.4 238.5,79.0 241.2,78.9 243.9,78.6 246.5,78.5 249.2,78.5 251.9,90.3 254.6,89.2 257.2,88.1 259.9,87.0 262.6,83.8 265.2,81.5 267.9,79.1 270.6,78.2 273.3,77.2 275.9,75.5 278.6,73.7 281.3,72.4 284.0,71.9 286.6,71.4 289.3,70.1 292.0,69.2 294.7,68.6 297.3,67.8 300.0,67.5 302.7,67.3 305.3,66.6 308.0,65.5 310.7,64.8 313.4,64.0 316.0,63.1 318.7,62.6 321.4,62.3 324.1,61.6 326.7,60.9 329.4,60.2 332.1,59.7 334.8,59.4 337.4,59.3 340.1,58.9 342.8,58.3 345.4,57.9 348.1,57.4 350.8,57.1 353.5,56.7 356.1,56.4 358.8,56.1 361.5,55.8 364.2,55.5 366.8,54.9 369.5,54.4 372.2,53.9 374.9,53.6 377.5,53.2 380.2,53.0 382.9,52.7 385.5,52.5 388.2,51.6 390.9,51.0 393.6,50.3 396.2,50.0 398.9,50.0 401.6,49.6 404.3,49.3 406.9,48.8 409.6,48.4 412.3,47.9 415.0,47.5 417.6,47.3 420.3,47.1 423.0,46.8 425.6,46.6 428.3,46.2 431.0,46.0 433.7,45.4 436.3,45.2 439.0,45.0 441.7,44.8 444.4,44.6 447.0,44.2 449.7,43.8 452.4,43.4 455.0,43.0 457.7,42.7 460.4,42.4 463.1,42.2 465.7,42.0 468.4,41.4 471.1,40.9 473.8,40.6 476.4,40.2 479.1,39.6 481.8,39.4 484.5,39.2 487.1,39.0 489.8,38.7 492.5,38.4 495.1,38.1 497.8,37.8 500.5,37.5 503.2,37.2 505.8,36.9 508.5,36.7 511.2,36.6 513.9,36.3 516.5,35.8 519.2,35.6 521.9,35.2 524.6,35.0 527.2,34.8 529.9,34.5 532.6,34.3 535.2,34.1 537.9,33.8 540.6,33.3 543.3,32.7 545.9,32.4 548.6,32.1 551.3,32.0 554.0,31.8 556.6,31.5 559.3,31.0 562.0,30.8 564.7,30.6 567.3,30.3 570.0,30.0" />
  
  <!-- Punto finale luminoso -->
  <circle cx="570.0" cy="30.0" r="4" fill="#ffffff" stroke="#0366d6" stroke-width="2.5" />
</svg>