<svg width="600" height="150" viewBox="0 0 600 150" xmlns="http://www.w3.org/2000/svg">
  <defs>
    <filter id="shadow2" x="-2%" y="-2%" width="104%" height="108%">
      <feDropShadow dx="0" dy="2" stdDeviation="3" flood-opacity="0.1" />
    </filter>
    <linearGradient id="fillGrad" x1="0" y1="0" x2="0" y2="1">
      <stop offset="0%" stop-color="#0366d6" stop-opacity="0.3"/>
      <stop offset="100%" stop-color="#0366d6" stop-opacity="0.02"/>
    </linearGradient>
  </defs>
  <rect width="600" height="150" rx="12" fill="#ffffff" filter="url(#shadow2)" stroke="#e1e4e8" stroke-width="1"/>
  <text x="20" y="24" fill="#2b3137" font-family="-apple-system,BlinkMacSystemFont,'Segoe UI',Helvetica,Arial,sans-serif" font-size="14" font-weight="600">📈 Download Growth (Actual: 85.0k)</text>
  
  <!-- Area sotto la linea -->
  <polygon fill="url(#fillGrad)" points="30.0,120.0,120 30.0,120.0 31.6,119.4 33.1,118.8 34.7,118.3 36.2,118.2 37.8,117.9 39.3,117.3 40.9,116.8 42.4,116.5 44.0,115.9 45.5,115.5 47.1,115.2 48.6,115.0 50.2,114.7 51.7,114.3 53.3,113.8 54.8,113.4 56.4,113.2 57.9,113.0 59.5,112.7 61.0,112.4 62.6,112.0 64.1,111.9 65.7,111.6 67.2,110.6 68.8,110.2 70.3,109.8 71.9,109.4 73.4,109.1 75.0,108.7 76.6,108.5 78.1,108.3 79.7,108.0 81.2,107.5 82.8,107.1 84.3,106.8 85.9,106.4 87.4,106.3 89.0,106.2 90.5,106.1 92.1,105.7 93.6,105.5 95.2,105.4 96.7,105.0 98.3,104.4 99.8,104.3 101.4,104.2 102.9,104.0 104.5,103.5 106.0,103.2 107.6,102.8 109.1,102.4 110.7,102.0 112.2,101.9 113.8,101.7 115.3,101.3 116.9,100.9 118.4,100.5 120.0,100.4 121.6,100.2 123.1,100.0 124.7,99.5 126.2,99.1 127.8,98.7 129.3,98.3 130.9,98.1 132.4,98.0 134.0,97.8 135.5,97.5 137.1,97.3 138.6,97.1 140.2,97.0 141.7,96.8 143.3,96.6 144.8,96.4 146.4,96.3 147.9,96.2 149.5,95.8 151.0,95.6 152.6,95.5 154.1,95.3 155.7,95.3 157.2,95.3 158.8,102.3 160.3,101.6 161.9,101.0 163.4,100.3 165.0,98.4 166.6,97.1 168.1,95.6 169.7,95.1 171.2,94.5 172.8,93.5 174.3,92.4 175.9,91.6 177.4,91.3 179.0,91.0 180.5,90.3 182.1,89.7 183.6,89.3 185.2,88.9 186.7,88.7 188.3,88.6 189.8,88.2 191.4,87.5 192.9,87.1 194.5,86.6 196.0,86.1 197.6,85.8 199.1,85.6 200.7,85.2 202.2,84.8 203.8,84.4 205.3,84.1 206.9,83.9 208.4,83.8 210.0,83.6 211.6,83.2 213.1,83.0 214.7,82.7 216.2,82.5 217.8,82.3 219.3,82.1 220.9,81.9 222.4,81.8 224.0,81.6 225.5,81.2 227.1,80.9 228.6,80.6 230.2,80.4 231.7,80.2 233.3,80.1 234.8,79.9 236.4,79.7 237.9,79.2 239.5,78.9 241.0,78.5 242.6,78.3 244.1,78.3 245.7,78.1 247.2,77.8 248.8,77.6 250.3,77.3 251.9,77.0 253.4,76.8 255.0,76.7 256.6,76.5 258.1,76.4 259.7,76.3 261.2,76.0 262.8,75.9 264.3,75.6 265.9,75.4 267.4,75.3 269.0,75.2 270.5,75.1 272.1,74.8 273.6,74.6 275.2,74.4 276.7,74.1 278.3,73.9 279.8,73.8 281.4,73.7 282.9,73.5 284.5,73.2 286.0,72.9 287.6,72.7 289.1,72.4 290.7,72.1 292.2,72.0 293.8,71.8 295.3,71.7 296.9,71.5 298.4,71.4 300.0,71.2 301.6,71.0 303.1,70.8 304.7,70.7 306.2,70.5 307.8,70.4 309.3,70.3 310.9,70.1 312.4,69.8 314.0,69.7 315.5,69.5 317.1,69.3 318.6,69.2 320.2,69.0 321.7,68.9 323.3,68.8 324.8,68.6 326.4,68.3 327.9,68.0 329.5,67.8 331.0,67.6 332.6,67.5 334.1,67.5 335.7,67.3 337.2,67.0 338.8,66.8 340.3,66.7 341.9,66.5 343.4,66.4 345.0,66.2 346.6,66.0 348.1,65.9 349.7,65.7 351.2,65.5 352.8,65.2 354.3,65.0 355.9,64.9 357.4,64.9 359.0,64.8 360.5,64.6 362.1,64.5 363.6,64.3 365.2,64.1 366.7,63.9 368.3,63.8 369.8,63.7 371.4,63.5 372.9,63.4 374.5,63.2 376.0,62.9 377.6,62.8 379.1,62.6 380.7,62.5 382.2,62.4 383.8,62.3 385.3,62.2 386.9,62.1 388.4,61.9 390.0,61.6 391.6,61.5 393.1,61.3 394.7,61.2 396.2,61.1 397.8,60.9 399.3,60.7 400.9,60.6 402.4,60.5 404.0,60.3 405.5,60.2 407.1,60.0 408.6,59.8 410.2,59.7 411.7,59.7 413.3,59.5 414.8,59.4 416.4,59.3 417.9,59.1 419.5,59.1 421.0,58.9 422.6,58.6 424.1,58.4 425.7,63.0 427.2,62.1 428.8,60.4 430.3,59.7 431.9,58.9 433.4,57.9 435.0,57.3 436.6,57.0 438.1,56.3 439.7,55.3 441.2,54.5 442.8,54.3 444.3,53.9 445.9,53.6 447.4,53.1 449.0,52.6 450.5,52.1 452.1,51.8 453.6,51.3 455.2,51.0 456.7,50.7 458.3,50.4 459.8,50.2 461.4,49.9 462.9,49.4 464.5,49.1 466.0,48.6 467.6,48.0 469.1,47.6 470.7,47.4 472.2,47.2 473.8,47.0 475.3,46.6 476.9,46.2 478.4,45.9 480.0,44.9 481.6,44.2 483.1,43.9 484.7,43.7 486.2,43.4 487.8,42.9 489.3,42.5 490.9,42.1 492.4,41.8 494.0,41.5 495.5,41.2 497.1,40.8 498.6,40.4 500.2,40.2 501.7,40.0 503.3,39.8 504.8,39.4 506.4,39.1 507.9,38.8 509.5,38.7 511.0,38.5 512.6,38.2 514.1,38.1 515.7,37.8 517.2,37.6 518.8,37.5 520.3,37.3 521.9,37.0 523.4,36.8 525.0,36.4 526.6,36.0 528.1,35.7 529.7,35.6 531.2,35.4 532.8,35.2 534.3,35.0 535.9,34.8 537.4,34.6 539.0,34.5 540.5,34.4 542.1,34.2 543.6,34.0 545.2,33.7 546.7,33.6 548.3,33.4 549.8,33.1 551.4,32.8 552.9,32.4 554.5,32.2 556.0,32.0 557.6,31.7 559.1,31.5 560.7,31.2 562.2,31.0 563.8,30.8 565.3,30.7 566.9,30.5 568.4,30.3 570.0,30.0 570.0,30.0,120" />
  
  <!-- Linea principale -->
  <polyline fill="none" stroke="#0366d6" stroke-width="2.5" stroke-linecap="round" stroke-linejoin="round" points="30.0,120.0 31.6,119.4 33.1,118.8 34.7,118.3 36.2,118.2 37.8,117.9 39.3,117.3 40.9,116.8 42.4,116.5 44.0,115.9 45.5,115.5 47.1,115.2 48.6,115.0 50.2,114.7 51.7,114.3 53.3,113.8 54.8,113.4 56.4,113.2 57.9,113.0 59.5,112.7 61.0,112.4 62.6,112.0 64.1,111.9 65.7,111.6 67.2,110.6 68.8,110.2 70.3,109.8 71.9,109.4 73.4,109.1 75.0,108.7 76.6,108.5 78.1,108.3 79.7,108.0 81.2,107.5 82.8,107.1 84.3,106.8 85.9,106.4 87.4,106.3 89.0,106.2 90.5,106.1 92.1,105.7 93.6,105.5 95.2,105.4 96.7,105.0 98.3,104.4 99.8,104.3 101.4,104.2 102.9,104.0 104.5,103.5 106.0,103.2 107.6,102.8 109.1,102.4 110.7,102.0 112.2,101.9 113.8,101.7 115.3,101.3 116.9,100.9 118.4,100.5 120.0,100.4 121.6,100.2 123.1,100.0 124.7,99.5 126.2,99.1 127.8,98.7 129.3,98.3 130.9,98.1 132.4,98.0 134.0,97.8 135.5,97.5 137.1,97.3 138.6,97.1 140.2,97.0 141.7,96.8 143.3,96.6 144.8,96.4 146.4,96.3 147.9,96.2 149.5,95.8 151.0,95.6 152.6,95.5 154.1,95.3 155.7,95.3 157.2,95.3 158.8,102.3 160.3,101.6 161.9,101.0 163.4,100.3 165.0,98.4 166.6,97.1 168.1,95.6 169.7,95.1 171.2,94.5 172.8,93.5 174.3,92.4 175.9,91.6 177.4,91.3 179.0,91.0 180.5,90.3 182.1,89.7 183.6,89.3 185.2,88.9 186.7,88.7 188.3,88.6 189.8,88.2 191.4,87.5 192.9,87.1 194.5,86.6 196.0,86.1 197.6,85.8 199.1,85.6 200.7,85.2 202.2,84.8 203.8,84.4 205.3,84.1 206.9,83.9 208.4,83.8 210.0,83.6 211.6,83.2 213.1,83.0 214.7,82.7 216.2,82.5 217.8,82.3 219.3,82.1 220.9,81.9 222.4,81.8 224.0,81.6 225.5,81.2 227.1,80.9 228.6,80.6 230.2,80.4 231.7,80.2 233.3,80.1 234.8,79.9 236.4,79.7 237.9,79.2 239.5,78.9 241.0,78.5 242.6,78.3 244.1,78.3 245.7,78.1 247.2,77.8 248.8,77.6 250.3,77.3 251.9,77.0 253.4,76.8 255.0,76.7 256.6,76.5 258.1,76.4 259.7,76.3 261.2,76.0 262.8,75.9 264.3,75.6 265.9,75.4 267.4,75.3 269.0,75.2 270.5,75.1 272.1,74.8 273.6,74.6 275.2,74.4 276.7,74.1 278.3,73.9 279.8,73.8 281.4,73.7 282.9,73.5 284.5,73.2 286.0,72.9 287.6,72.7 289.1,72.4 290.7,72.1 292.2,72.0 293.8,71.8 295.3,71.7 296.9,71.5 298.4,71.4 300.0,71.2 301.6,71.0 303.1,70.8 304.7,70.7 306.2,70.5 307.8,70.4 309.3,70.3 310.9,70.1 312.4,69.8 314.0,69.7 315.5,69.5 317.1,69.3 318.6,69.2 320.2,69.0 321.7,68.9 323.3,68.8 324.8,68.6 326.4,68.3 327.9,68.0 329.5,67.8 331.0,67.6 332.6,67.5 334.1,67.5 335.7,67.3 337.2,67.0 338.8,66.8 340.3,66.7 341.9,66.5 343.4,66.4 345.0,66.2 346.6,66.0 348.1,65.9 349.7,65.7 351.2,65.5 352.8,65.2 354.3,65.0 355.9,64.9 357.4,64.9 359.0,64.8 360.5,64.6 362.1,64.5 363.6,64.3 365.2,64.1 366.7,63.9 368.3,63.8 369.8,63.7 371.4,63.5 372.9,63.4 374.5,63.2 376.0,62.9 377.6,62.8 379.1,62.6 380.7,62.5 382.2,62.4 383.8,62.3 385.3,62.2 386.9,62.1 388.4,61.9 390.0,61.6 391.6,61.5 393.1,61.3 394.7,61.2 396.2,61.1 397.8,60.9 399.3,60.7 400.9,60.6 402.4,60.5 404.0,60.3 405.5,60.2 407.1,60.0 408.6,59.8 410.2,59.7 411.7,59.7 413.3,59.5 414.8,59.4 416.4,59.3 417.9,59.1 419.5,59.1 421.0,58.9 422.6,58.6 424.1,58.4 425.7,63.0 427.2,62.1 428.8,60.4 430.3,59.7 431.9,58.9 433.4,57.9 435.0,57.3 436.6,57.0 438.1,56.3 439.7,55.3 441.2,54.5 442.8,54.3 444.3,53.9 445.9,53.6 447.4,53.1 449.0,52.6 450.5,52.1 452.1,51.8 453.6,51.3 455.2,51.0 456.7,50.7 458.3,50.4 459.8,50.2 461.4,49.9 462.9,49.4 464.5,49.1 466.0,48.6 467.6,48.0 469.1,47.6 470.7,47.4 472.2,47.2 473.8,47.0 475.3,46.6 476.9,46.2 478.4,45.9 480.0,44.9 481.6,44.2 483.1,43.9 484.7,43.7 486.2,43.4 487.8,42.9 489.3,42.5 490.9,42.1 492.4,41.8 494.0,41.5 495.5,41.2 497.1,40.8 498.6,40.4 500.2,40.2 501.7,40.0 503.3,39.8 504.8,39.4 506.4,39.1 507.9,38.8 509.5,38.7 511.0,38.5 512.6,38.2 514.1,38.1 515.7,37.8 517.2,37.6 518.8,37.5 520.3,37.3 521.9,37.0 523.4,36.8 525.0,36.4 526.6,36.0 528.1,35.7 529.7,35.6 531.2,35.4 532.8,35.2 534.3,35.0 535.9,34.8 537.4,34.6 539.0,34.5 540.5,34.4 542.1,34.2 543.6,34.0 545.2,33.7 546.7,33.6 548.3,33.4 549.8,33.1 551.4,32.8 552.9,32.4 554.5,32.2 556.0,32.0 557.6,31.7 559.1,31.5 560.7,31.2 562.2,31.0 563.8,30.8 565.3,30.7 566.9,30.5 568.4,30.3 570.0,30.0" />
  
  <!-- Punto finale luminoso -->
  <circle cx="570.0" cy="30.0" r="4" fill="#ffffff" stroke="#0366d6" stroke-width="2.5" />
</svg>