<svg width="600" height="150" viewBox="0 0 600 150" xmlns="http://www.w3.org/2000/svg">
  <defs>
    <filter id="shadow2" x="-2%" y="-2%" width="104%" height="108%">
      <feDropShadow dx="0" dy="2" stdDeviation="3" flood-opacity="0.1" />
    </filter>
    <linearGradient id="fillGrad" x1="0" y1="0" x2="0" y2="1">
      <stop offset="0%" stop-color="#0366d6" stop-opacity="0.3"/>
      <stop offset="100%" stop-color="#0366d6" stop-opacity="0.02"/>
    </linearGradient>
  </defs>
  <rect width="600" height="150" rx="12" fill="#ffffff" filter="url(#shadow2)" stroke="#e1e4e8" stroke-width="1"/>
  <text x="20" y="24" fill="#2b3137" font-family="-apple-system,BlinkMacSystemFont,'Segoe UI',Helvetica,Arial,sans-serif" font-size="14" font-weight="600">📈 Download Growth (Actual: 75.6k)</text>
  
  <!-- Area sotto la linea -->
  <polygon fill="url(#fillGrad)" points="30.0,120.0,120 30.0,120.0 33.7,118.9 37.4,117.6 41.1,116.5 44.8,116.2 48.5,115.7 52.2,114.3 55.9,113.4 59.6,112.8 63.3,111.5 67.0,110.8 70.7,110.1 74.4,109.7 78.1,109.1 81.8,108.1 85.5,107.1 89.2,106.4 92.9,105.9 96.6,105.5 100.3,104.9 104.0,104.2 107.7,103.5 111.4,103.2 115.1,102.6 118.8,100.4 122.5,99.8 126.2,99.0 129.9,98.1 133.6,97.4 137.3,96.6 141.0,96.2 144.7,95.8 148.4,95.2 152.1,94.1 155.8,93.2 159.5,92.6 163.2,91.9 166.8,91.7 170.5,91.5 174.2,91.1 177.9,90.4 181.6,90.0 185.3,89.7 189.0,88.9 192.7,87.8 196.4,87.5 200.1,87.3 203.8,86.8 207.5,85.9 211.2,85.3 214.9,84.3 218.6,83.6 222.3,82.8 226.0,82.6 229.7,82.1 233.4,81.2 237.1,80.4 240.8,79.7 244.5,79.4 248.2,79.0 251.9,78.6 255.6,77.6 259.3,76.7 263.0,75.9 266.7,75.1 270.4,74.7 274.1,74.4 277.8,74.1 281.5,73.4 285.2,73.0 288.9,72.6 292.6,72.3 296.3,72.0 300.0,71.5 303.7,71.2 307.4,71.0 311.1,70.8 314.8,69.9 318.5,69.4 322.2,69.2 325.9,68.9 329.6,68.8 333.3,68.8 337.0,83.4 340.7,82.0 344.4,80.7 348.1,79.3 351.8,75.3 355.5,72.5 359.2,69.5 362.9,68.4 366.6,67.2 370.3,65.1 374.0,62.9 377.7,61.2 381.4,60.6 385.1,60.0 388.8,58.4 392.5,57.3 396.2,56.5 399.9,55.6 403.6,55.2 407.3,55.0 411.0,54.2 414.7,52.8 418.4,51.8 422.1,50.8 425.8,49.7 429.5,49.2 433.2,48.8 436.8,47.9 440.5,47.0 444.2,46.2 447.9,45.6 451.6,45.3 455.3,45.1 459.0,44.6 462.7,43.8 466.4,43.3 470.1,42.8 473.8,42.4 477.5,41.9 481.2,41.5 484.9,41.1 488.6,40.8 492.3,40.4 496.0,39.7 499.7,39.1 503.4,38.4 507.1,38.1 510.8,37.6 514.5,37.3 518.2,37.0 521.9,36.6 525.6,35.6 529.3,34.9 533.0,34.0 536.7,33.7 540.4,33.6 544.1,33.1 547.8,32.7 551.5,32.1 555.2,31.6 558.9,31.0 562.6,30.5 566.3,30.3 570.0,30.0 570.0,30.0,120" />
  
  <!-- Linea principale -->
  <polyline fill="none" stroke="#0366d6" stroke-width="2.5" stroke-linecap="round" stroke-linejoin="round" points="30.0,120.0 33.7,118.9 37.4,117.6 41.1,116.5 44.8,116.2 48.5,115.7 52.2,114.3 55.9,113.4 59.6,112.8 63.3,111.5 67.0,110.8 70.7,110.1 74.4,109.7 78.1,109.1 81.8,108.1 85.5,107.1 89.2,106.4 92.9,105.9 96.6,105.5 100.3,104.9 104.0,104.2 107.7,103.5 111.4,103.2 115.1,102.6 118.8,100.4 122.5,99.8 126.2,99.0 129.9,98.1 133.6,97.4 137.3,96.6 141.0,96.2 144.7,95.8 148.4,95.2 152.1,94.1 155.8,93.2 159.5,92.6 163.2,91.9 166.8,91.7 170.5,91.5 174.2,91.1 177.9,90.4 181.6,90.0 185.3,89.7 189.0,88.9 192.7,87.8 196.4,87.5 200.1,87.3 203.8,86.8 207.5,85.9 211.2,85.3 214.9,84.3 218.6,83.6 222.3,82.8 226.0,82.6 229.7,82.1 233.4,81.2 237.1,80.4 240.8,79.7 244.5,79.4 248.2,79.0 251.9,78.6 255.6,77.6 259.3,76.7 263.0,75.9 266.7,75.1 270.4,74.7 274.1,74.4 277.8,74.1 281.5,73.4 285.2,73.0 288.9,72.6 292.6,72.3 296.3,72.0 300.0,71.5 303.7,71.2 307.4,71.0 311.1,70.8 314.8,69.9 318.5,69.4 322.2,69.2 325.9,68.9 329.6,68.8 333.3,68.8 337.0,83.4 340.7,82.0 344.4,80.7 348.1,79.3 351.8,75.3 355.5,72.5 359.2,69.5 362.9,68.4 366.6,67.2 370.3,65.1 374.0,62.9 377.7,61.2 381.4,60.6 385.1,60.0 388.8,58.4 392.5,57.3 396.2,56.5 399.9,55.6 403.6,55.2 407.3,55.0 411.0,54.2 414.7,52.8 418.4,51.8 422.1,50.8 425.8,49.7 429.5,49.2 433.2,48.8 436.8,47.9 440.5,47.0 444.2,46.2 447.9,45.6 451.6,45.3 455.3,45.1 459.0,44.6 462.7,43.8 466.4,43.3 470.1,42.8 473.8,42.4 477.5,41.9 481.2,41.5 484.9,41.1 488.6,40.8 492.3,40.4 496.0,39.7 499.7,39.1 503.4,38.4 507.1,38.1 510.8,37.6 514.5,37.3 518.2,37.0 521.9,36.6 525.6,35.6 529.3,34.9 533.0,34.0 536.7,33.7 540.4,33.6 544.1,33.1 547.8,32.7 551.5,32.1 555.2,31.6 558.9,31.0 562.6,30.5 566.3,30.3 570.0,30.0" />
  
  <!-- Punto finale luminoso -->
  <circle cx="570.0" cy="30.0" r="4" fill="#ffffff" stroke="#0366d6" stroke-width="2.5" />
</svg>