<svg width="600" height="150" viewBox="0 0 600 150" xmlns="http://www.w3.org/2000/svg">
  <defs>
    <filter id="shadow2" x="-2%" y="-2%" width="104%" height="108%">
      <feDropShadow dx="0" dy="2" stdDeviation="3" flood-opacity="0.1" />
    </filter>
    <linearGradient id="fillGrad" x1="0" y1="0" x2="0" y2="1">
      <stop offset="0%" stop-color="#0366d6" stop-opacity="0.3"/>
      <stop offset="100%" stop-color="#0366d6" stop-opacity="0.02"/>
    </linearGradient>
  </defs>
  <rect width="600" height="150" rx="12" fill="#ffffff" filter="url(#shadow2)" stroke="#e1e4e8" stroke-width="1"/>
  <text x="20" y="24" fill="#2b3137" font-family="-apple-system,BlinkMacSystemFont,'Segoe UI',Helvetica,Arial,sans-serif" font-size="14" font-weight="600">📈 Download Growth (Actual: 84.3k)</text>
  
  <!-- Area sotto la linea -->
  <polygon fill="url(#fillGrad)" points="30.0,120.0,120 30.0,120.0 31.6,119.4 33.3,118.8 34.9,118.2 36.5,118.1 38.1,117.8 39.8,117.1 41.4,116.7 43.0,116.4 44.6,115.7 46.3,115.4 47.9,115.0 49.5,114.8 51.1,114.5 52.8,114.0 54.4,113.5 56.0,113.1 57.7,112.9 59.3,112.7 60.9,112.4 62.5,112.0 64.2,111.7 65.8,111.6 67.4,111.2 69.0,110.2 70.7,109.8 72.3,109.4 73.9,109.0 75.5,108.6 77.2,108.2 78.8,108.0 80.4,107.8 82.0,107.5 83.7,107.0 85.3,106.5 86.9,106.2 88.6,105.8 90.2,105.7 91.8,105.6 93.4,105.5 95.1,105.1 96.7,104.9 98.3,104.8 99.9,104.4 101.6,103.8 103.2,103.6 104.8,103.5 106.4,103.3 108.1,102.8 109.7,102.5 111.3,102.0 113.0,101.7 114.6,101.3 116.2,101.2 117.8,100.9 119.5,100.5 121.1,100.0 122.7,99.7 124.3,99.6 126.0,99.3 127.6,99.1 129.2,98.6 130.8,98.2 132.5,97.8 134.1,97.4 135.7,97.2 137.3,97.0 139.0,96.9 140.6,96.5 142.2,96.3 143.9,96.1 145.5,96.0 147.1,95.8 148.7,95.6 150.4,95.4 152.0,95.3 153.6,95.2 155.2,94.8 156.9,94.5 158.5,94.4 160.1,94.3 161.7,94.2 163.4,94.2 165.0,101.6 166.6,100.8 168.3,100.2 169.9,99.5 171.5,97.5 173.1,96.1 174.8,94.6 176.4,94.0 178.0,93.4 179.6,92.4 181.3,91.2 182.9,90.4 184.5,90.1 186.1,89.8 187.8,89.0 189.4,88.4 191.0,88.0 192.7,87.5 194.3,87.4 195.9,87.3 197.5,86.8 199.2,86.2 200.8,85.7 202.4,85.2 204.0,84.6 205.7,84.3 207.3,84.1 208.9,83.7 210.5,83.2 212.2,82.8 213.8,82.5 215.4,82.4 217.0,82.3 218.7,82.0 220.3,81.6 221.9,81.4 223.6,81.1 225.2,80.9 226.8,80.7 228.4,80.5 230.1,80.3 231.7,80.1 233.3,79.9 234.9,79.5 236.6,79.3 238.2,78.9 239.8,78.7 241.4,78.5 243.1,78.4 244.7,78.2 246.3,78.0 248.0,77.5 249.6,77.1 251.2,76.7 252.8,76.5 254.5,76.5 256.1,76.3 257.7,76.0 259.3,75.7 261.0,75.5 262.6,75.2 264.2,74.9 265.8,74.8 267.5,74.7 269.1,74.5 270.7,74.4 272.3,74.2 274.0,74.0 275.6,73.7 277.2,73.5 278.9,73.4 280.5,73.3 282.1,73.2 283.7,72.9 285.4,72.7 287.0,72.4 288.6,72.2 290.2,71.9 291.9,71.8 293.5,71.7 295.1,71.5 296.7,71.2 298.4,70.9 300.0,70.6 301.6,70.4 303.3,70.0 304.9,69.9 306.5,69.8 308.1,69.7 309.8,69.5 311.4,69.3 313.0,69.1 314.6,68.9 316.3,68.7 317.9,68.6 319.5,68.4 321.1,68.2 322.8,68.2 324.4,68.0 326.0,67.7 327.7,67.5 329.3,67.3 330.9,67.2 332.5,67.0 334.2,66.9 335.8,66.7 337.4,66.6 339.0,66.4 340.7,66.1 342.3,65.8 343.9,65.5 345.5,65.4 347.2,65.3 348.8,65.2 350.4,65.0 352.0,64.7 353.7,64.6 355.3,64.4 356.9,64.2 358.6,64.1 360.2,63.9 361.8,63.7 363.4,63.6 365.1,63.3 366.7,63.2 368.3,62.9 369.9,62.7 371.6,62.6 373.2,62.5 374.8,62.4 376.4,62.3 378.1,62.1 379.7,61.9 381.3,61.7 383.0,61.5 384.6,61.4 386.2,61.3 387.8,61.1 389.5,61.0 391.1,60.7 392.7,60.5 394.3,60.3 396.0,60.1 397.6,60.0 399.2,59.9 400.8,59.8 402.5,59.7 404.1,59.6 405.7,59.4 407.3,59.2 409.0,59.0 410.6,58.8 412.2,58.7 413.9,58.6 415.5,58.4 417.1,58.2 418.7,58.1 420.4,57.9 422.0,57.8 423.6,57.6 425.2,57.4 426.9,57.3 428.5,57.2 430.1,57.1 431.7,56.9 433.4,56.8 435.0,56.7 436.6,56.5 438.3,56.5 439.9,56.3 441.5,56.0 443.1,55.7 444.8,60.6 446.4,59.6 448.0,57.8 449.6,57.1 451.3,56.3 452.9,55.2 454.5,54.7 456.1,54.3 457.8,53.6 459.4,52.5 461.0,51.7 462.7,51.5 464.3,51.1 465.9,50.8 467.5,50.3 469.2,49.7 470.8,49.1 472.4,48.9 474.0,48.3 475.7,48.1 477.3,47.7 478.9,47.5 480.5,47.2 482.2,46.9 483.8,46.4 485.4,46.1 487.0,45.6 488.7,44.9 490.3,44.5 491.9,44.3 493.6,44.1 495.2,43.8 496.8,43.4 498.4,43.0 500.1,42.7 501.7,41.7 503.3,41.0 504.9,40.6 506.6,40.4 508.2,40.1 509.8,39.6 511.4,39.1 513.1,38.8 514.7,38.5 516.3,38.1 518.0,37.8 519.6,37.4 521.2,37.0 522.8,36.7 524.5,36.6 526.1,36.4 527.7,35.9 529.3,35.6 531.0,35.4 532.6,35.2 534.2,35.0 535.8,34.7 537.5,34.6 539.1,34.3 540.7,34.1 542.3,33.9 544.0,33.8 545.6,33.4 547.2,33.2 548.9,32.9 550.5,32.4 552.1,32.1 553.7,32.0 555.4,31.8 557.0,31.6 558.6,31.4 560.2,31.2 561.9,31.0 563.5,30.9 565.1,30.7 566.7,30.5 568.4,30.3 570.0,30.0 570.0,30.0,120" />
  
  <!-- Linea principale -->
  <polyline fill="none" stroke="#0366d6" stroke-width="2.5" stroke-linecap="round" stroke-linejoin="round" points="30.0,120.0 31.6,119.4 33.3,118.8 34.9,118.2 36.5,118.1 38.1,117.8 39.8,117.1 41.4,116.7 43.0,116.4 44.6,115.7 46.3,115.4 47.9,115.0 49.5,114.8 51.1,114.5 52.8,114.0 54.4,113.5 56.0,113.1 57.7,112.9 59.3,112.7 60.9,112.4 62.5,112.0 64.2,111.7 65.8,111.6 67.4,111.2 69.0,110.2 70.7,109.8 72.3,109.4 73.9,109.0 75.5,108.6 77.2,108.2 78.8,108.0 80.4,107.8 82.0,107.5 83.7,107.0 85.3,106.5 86.9,106.2 88.6,105.8 90.2,105.7 91.8,105.6 93.4,105.5 95.1,105.1 96.7,104.9 98.3,104.8 99.9,104.4 101.6,103.8 103.2,103.6 104.8,103.5 106.4,103.3 108.1,102.8 109.7,102.5 111.3,102.0 113.0,101.7 114.6,101.3 116.2,101.2 117.8,100.9 119.5,100.5 121.1,100.0 122.7,99.7 124.3,99.6 126.0,99.3 127.6,99.1 129.2,98.6 130.8,98.2 132.5,97.8 134.1,97.4 135.7,97.2 137.3,97.0 139.0,96.9 140.6,96.5 142.2,96.3 143.9,96.1 145.5,96.0 147.1,95.8 148.7,95.6 150.4,95.4 152.0,95.3 153.6,95.2 155.2,94.8 156.9,94.5 158.5,94.4 160.1,94.3 161.7,94.2 163.4,94.2 165.0,101.6 166.6,100.8 168.3,100.2 169.9,99.5 171.5,97.5 173.1,96.1 174.8,94.6 176.4,94.0 178.0,93.4 179.6,92.4 181.3,91.2 182.9,90.4 184.5,90.1 186.1,89.8 187.8,89.0 189.4,88.4 191.0,88.0 192.7,87.5 194.3,87.4 195.9,87.3 197.5,86.8 199.2,86.2 200.8,85.7 202.4,85.2 204.0,84.6 205.7,84.3 207.3,84.1 208.9,83.7 210.5,83.2 212.2,82.8 213.8,82.5 215.4,82.4 217.0,82.3 218.7,82.0 220.3,81.6 221.9,81.4 223.6,81.1 225.2,80.9 226.8,80.7 228.4,80.5 230.1,80.3 231.7,80.1 233.3,79.9 234.9,79.5 236.6,79.3 238.2,78.9 239.8,78.7 241.4,78.5 243.1,78.4 244.7,78.2 246.3,78.0 248.0,77.5 249.6,77.1 251.2,76.7 252.8,76.5 254.5,76.5 256.1,76.3 257.7,76.0 259.3,75.7 261.0,75.5 262.6,75.2 264.2,74.9 265.8,74.8 267.5,74.7 269.1,74.5 270.7,74.4 272.3,74.2 274.0,74.0 275.6,73.7 277.2,73.5 278.9,73.4 280.5,73.3 282.1,73.2 283.7,72.9 285.4,72.7 287.0,72.4 288.6,72.2 290.2,71.9 291.9,71.8 293.5,71.7 295.1,71.5 296.7,71.2 298.4,70.9 300.0,70.6 301.6,70.4 303.3,70.0 304.9,69.9 306.5,69.8 308.1,69.7 309.8,69.5 311.4,69.3 313.0,69.1 314.6,68.9 316.3,68.7 317.9,68.6 319.5,68.4 321.1,68.2 322.8,68.2 324.4,68.0 326.0,67.7 327.7,67.5 329.3,67.3 330.9,67.2 332.5,67.0 334.2,66.9 335.8,66.7 337.4,66.6 339.0,66.4 340.7,66.1 342.3,65.8 343.9,65.5 345.5,65.4 347.2,65.3 348.8,65.2 350.4,65.0 352.0,64.7 353.7,64.6 355.3,64.4 356.9,64.2 358.6,64.1 360.2,63.9 361.8,63.7 363.4,63.6 365.1,63.3 366.7,63.2 368.3,62.9 369.9,62.7 371.6,62.6 373.2,62.5 374.8,62.4 376.4,62.3 378.1,62.1 379.7,61.9 381.3,61.7 383.0,61.5 384.6,61.4 386.2,61.3 387.8,61.1 389.5,61.0 391.1,60.7 392.7,60.5 394.3,60.3 396.0,60.1 397.6,60.0 399.2,59.9 400.8,59.8 402.5,59.7 404.1,59.6 405.7,59.4 407.3,59.2 409.0,59.0 410.6,58.8 412.2,58.7 413.9,58.6 415.5,58.4 417.1,58.2 418.7,58.1 420.4,57.9 422.0,57.8 423.6,57.6 425.2,57.4 426.9,57.3 428.5,57.2 430.1,57.1 431.7,56.9 433.4,56.8 435.0,56.7 436.6,56.5 438.3,56.5 439.9,56.3 441.5,56.0 443.1,55.7 444.8,60.6 446.4,59.6 448.0,57.8 449.6,57.1 451.3,56.3 452.9,55.2 454.5,54.7 456.1,54.3 457.8,53.6 459.4,52.5 461.0,51.7 462.7,51.5 464.3,51.1 465.9,50.8 467.5,50.3 469.2,49.7 470.8,49.1 472.4,48.9 474.0,48.3 475.7,48.1 477.3,47.7 478.9,47.5 480.5,47.2 482.2,46.9 483.8,46.4 485.4,46.1 487.0,45.6 488.7,44.9 490.3,44.5 491.9,44.3 493.6,44.1 495.2,43.8 496.8,43.4 498.4,43.0 500.1,42.7 501.7,41.7 503.3,41.0 504.9,40.6 506.6,40.4 508.2,40.1 509.8,39.6 511.4,39.1 513.1,38.8 514.7,38.5 516.3,38.1 518.0,37.8 519.6,37.4 521.2,37.0 522.8,36.7 524.5,36.6 526.1,36.4 527.7,35.9 529.3,35.6 531.0,35.4 532.6,35.2 534.2,35.0 535.8,34.7 537.5,34.6 539.1,34.3 540.7,34.1 542.3,33.9 544.0,33.8 545.6,33.4 547.2,33.2 548.9,32.9 550.5,32.4 552.1,32.1 553.7,32.0 555.4,31.8 557.0,31.6 558.6,31.4 560.2,31.2 561.9,31.0 563.5,30.9 565.1,30.7 566.7,30.5 568.4,30.3 570.0,30.0" />
  
  <!-- Punto finale luminoso -->
  <circle cx="570.0" cy="30.0" r="4" fill="#ffffff" stroke="#0366d6" stroke-width="2.5" />
</svg>