<svg width="600" height="150" viewBox="0 0 600 150" xmlns="http://www.w3.org/2000/svg">
  <defs>
    <filter id="shadow2" x="-2%" y="-2%" width="104%" height="108%">
      <feDropShadow dx="0" dy="2" stdDeviation="3" flood-opacity="0.1" />
    </filter>
    <linearGradient id="fillGrad" x1="0" y1="0" x2="0" y2="1">
      <stop offset="0%" stop-color="#0366d6" stop-opacity="0.3"/>
      <stop offset="100%" stop-color="#0366d6" stop-opacity="0.02"/>
    </linearGradient>
  </defs>
  <rect width="600" height="150" rx="12" fill="#ffffff" filter="url(#shadow2)" stroke="#e1e4e8" stroke-width="1"/>
  <text x="20" y="24" fill="#2b3137" font-family="-apple-system,BlinkMacSystemFont,'Segoe UI',Helvetica,Arial,sans-serif" font-size="14" font-weight="600">📈 Download Growth (Actual: 88.1k)</text>
  
  <!-- Area sotto la linea -->
  <polygon fill="url(#fillGrad)" points="30.0,120.0,120 30.0,120.0 31.3,119.5 32.5,119.0 33.8,118.6 35.0,118.4 36.3,118.2 37.6,117.7 38.8,117.3 40.1,117.0 41.4,116.5 42.6,116.2 43.9,115.9 45.1,115.7 46.4,115.5 47.7,115.1 48.9,114.7 50.2,114.4 51.4,114.2 52.7,114.0 54.0,113.8 55.2,113.5 56.5,113.2 57.8,113.1 59.0,112.8 60.3,111.9 61.5,111.7 62.8,111.3 64.1,111.0 65.3,110.6 66.6,110.4 67.9,110.2 69.1,110.0 70.4,109.8 71.6,109.3 72.9,109.0 74.2,108.7 75.4,108.4 76.7,108.3 77.9,108.2 79.2,108.1 80.5,107.8 81.7,107.6 83.0,107.5 84.3,107.2 85.5,106.7 86.8,106.6 88.0,106.5 89.3,106.3 90.6,105.9 91.8,105.7 93.1,105.3 94.3,105.0 95.6,104.6 96.9,104.6 98.1,104.4 99.4,104.0 100.7,103.6 101.9,103.4 103.2,103.2 104.4,103.1 105.7,102.9 107.0,102.5 108.2,102.1 109.5,101.8 110.7,101.5 112.0,101.3 113.3,101.2 114.5,101.0 115.8,100.8 117.1,100.6 118.3,100.4 119.6,100.3 120.8,100.2 122.1,100.0 123.4,99.9 124.6,99.8 125.9,99.7 127.1,99.3 128.4,99.1 129.7,99.0 130.9,98.9 132.2,98.8 133.5,98.8 134.7,104.9 136.0,104.3 137.2,103.8 138.5,103.2 139.8,101.6 141.0,100.4 142.3,99.2 143.6,98.7 144.8,98.2 146.1,97.3 147.3,96.4 148.6,95.7 149.9,95.5 151.1,95.2 152.4,94.6 153.6,94.1 154.9,93.8 156.2,93.4 157.4,93.2 158.7,93.2 160.0,92.8 161.2,92.3 162.5,91.8 163.7,91.4 165.0,91.0 166.3,90.8 167.5,90.6 168.8,90.2 170.0,89.9 171.3,89.5 172.6,89.3 173.8,89.1 175.1,89.1 176.4,88.9 177.6,88.6 178.9,88.3 180.1,88.1 181.4,87.9 182.7,87.8 183.9,87.6 185.2,87.4 186.4,87.3 187.7,87.1 189.0,86.8 190.2,86.6 191.5,86.3 192.8,86.2 194.0,86.0 195.3,85.9 196.5,85.7 197.8,85.6 199.1,85.1 200.3,84.9 201.6,84.5 202.9,84.3 204.1,84.3 205.4,84.1 206.6,84.0 207.9,83.7 209.2,83.5 210.4,83.2 211.7,83.1 212.9,83.0 214.2,82.8 215.5,82.7 216.7,82.6 218.0,82.4 219.3,82.3 220.5,82.0 221.8,81.9 223.0,81.8 224.3,81.7 225.6,81.6 226.8,81.4 228.1,81.2 229.3,81.0 230.6,80.8 231.9,80.6 233.1,80.5 234.4,80.4 235.7,80.2 236.9,80.0 238.2,79.7 239.4,79.5 240.7,79.3 242.0,79.0 243.2,78.9 244.5,78.8 245.7,78.7 247.0,78.6 248.3,78.4 249.5,78.2 250.8,78.1 252.1,78.0 253.3,77.8 254.6,77.7 255.8,77.6 257.1,77.5 258.4,77.3 259.6,77.1 260.9,77.0 262.1,76.8 263.4,76.7 264.7,76.6 265.9,76.4 267.2,76.3 268.5,76.2 269.7,76.1 271.0,75.8 272.2,75.5 273.5,75.4 274.8,75.2 276.0,75.1 277.3,75.1 278.6,74.9 279.8,74.7 281.1,74.5 282.3,74.5 283.6,74.3 284.9,74.1 286.1,74.0 287.4,73.9 288.6,73.8 289.9,73.6 291.2,73.4 292.4,73.2 293.7,73.0 295.0,72.9 296.2,72.9 297.5,72.8 298.7,72.7 300.0,72.5 301.3,72.4 302.5,72.2 303.8,72.1 305.0,72.0 306.3,71.9 307.6,71.7 308.8,71.6 310.1,71.4 311.4,71.2 312.6,71.1 313.9,70.9 315.1,70.8 316.4,70.7 317.7,70.6 318.9,70.6 320.2,70.5 321.4,70.3 322.7,70.1 324.0,70.0 325.2,69.8 326.5,69.8 327.8,69.6 329.0,69.5 330.3,69.3 331.5,69.2 332.8,69.1 334.1,69.0 335.3,68.8 336.6,68.7 337.9,68.6 339.1,68.5 340.4,68.4 341.6,68.3 342.9,68.2 344.2,68.1 345.4,68.0 346.7,67.9 347.9,67.8 349.2,67.5 350.5,67.3 351.7,71.3 353.0,70.5 354.3,69.0 355.5,68.4 356.8,67.7 358.0,66.9 359.3,66.4 360.6,66.1 361.8,65.5 363.1,64.7 364.3,64.0 365.6,63.8 366.9,63.5 368.1,63.3 369.4,62.8 370.7,62.4 371.9,61.9 373.2,61.7 374.4,61.3 375.7,61.0 377.0,60.7 378.2,60.5 379.5,60.3 380.7,60.1 382.0,59.7 383.3,59.4 384.5,59.0 385.8,58.4 387.1,58.1 388.3,57.9 389.6,57.8 390.8,57.6 392.1,57.2 393.4,56.9 394.6,56.6 395.9,55.8 397.1,55.2 398.4,54.9 399.7,54.8 400.9,54.5 402.2,54.1 403.5,53.7 404.7,53.4 406.0,53.2 407.2,52.9 408.5,52.6 409.8,52.3 411.0,52.0 412.3,51.7 413.6,51.6 414.8,51.4 416.1,51.1 417.3,50.8 418.6,50.6 419.9,50.5 421.1,50.3 422.4,50.1 423.6,49.9 424.9,49.8 426.2,49.6 427.4,49.4 428.7,49.3 430.0,49.0 431.2,48.9 432.5,48.6 433.7,48.2 435.0,48.0 436.3,47.8 437.5,47.7 438.8,47.5 440.0,47.3 441.3,47.2 442.6,47.0 443.8,46.9 445.1,46.8 446.4,46.6 447.6,46.5 448.9,46.2 450.1,46.1 451.4,45.9 452.7,45.7 453.9,45.4 455.2,45.1 456.4,44.9 457.7,44.7 459.0,44.5 460.2,44.3 461.5,44.1 462.8,43.9 464.0,43.7 465.3,43.6 466.5,43.5 467.8,43.3 469.1,43.1 470.3,42.9 471.6,42.8 472.9,42.6 474.1,42.4 475.4,42.2 476.6,41.9 477.9,41.8 479.2,41.5 480.4,41.3 481.7,41.1 482.9,41.0 484.2,40.9 485.5,40.7 486.7,40.5 488.0,40.4 489.3,40.1 490.5,40.0 491.8,39.9 493.0,39.8 494.3,39.6 495.6,39.5 496.8,39.3 498.1,39.2 499.3,39.1 500.6,38.9 501.9,38.8 503.1,38.6 504.4,38.5 505.7,38.4 506.9,38.2 508.2,38.0 509.4,37.8 510.7,37.7 512.0,37.6 513.2,37.4 514.5,37.2 515.7,37.0 517.0,36.8 518.3,36.7 519.5,36.6 520.8,36.5 522.1,36.3 523.3,36.2 524.6,36.0 525.8,35.7 527.1,35.6 528.4,35.4 529.6,35.3 530.9,35.2 532.1,35.0 533.4,34.9 534.7,34.6 535.9,34.4 537.2,34.4 538.5,34.1 539.7,33.9 541.0,33.7 542.2,33.5 543.5,33.4 544.8,33.2 546.0,33.0 547.3,32.8 548.6,32.6 549.8,32.5 551.1,32.3 552.3,32.1 553.6,32.0 554.9,31.8 556.1,31.7 557.4,31.5 558.6,31.3 559.9,31.1 561.2,30.9 562.4,30.8 563.7,30.6 565.0,30.5 566.2,30.4 567.5,30.2 568.7,30.1 570.0,30.0 570.0,30.0,120" />
  
  <!-- Linea principale -->
  <polyline fill="none" stroke="#0366d6" stroke-width="2.5" stroke-linecap="round" stroke-linejoin="round" points="30.0,120.0 31.3,119.5 32.5,119.0 33.8,118.6 35.0,118.4 36.3,118.2 37.6,117.7 38.8,117.3 40.1,117.0 41.4,116.5 42.6,116.2 43.9,115.9 45.1,115.7 46.4,115.5 47.7,115.1 48.9,114.7 50.2,114.4 51.4,114.2 52.7,114.0 54.0,113.8 55.2,113.5 56.5,113.2 57.8,113.1 59.0,112.8 60.3,111.9 61.5,111.7 62.8,111.3 64.1,111.0 65.3,110.6 66.6,110.4 67.9,110.2 69.1,110.0 70.4,109.8 71.6,109.3 72.9,109.0 74.2,108.7 75.4,108.4 76.7,108.3 77.9,108.2 79.2,108.1 80.5,107.8 81.7,107.6 83.0,107.5 84.3,107.2 85.5,106.7 86.8,106.6 88.0,106.5 89.3,106.3 90.6,105.9 91.8,105.7 93.1,105.3 94.3,105.0 95.6,104.6 96.9,104.6 98.1,104.4 99.4,104.0 100.7,103.6 101.9,103.4 103.2,103.2 104.4,103.1 105.7,102.9 107.0,102.5 108.2,102.1 109.5,101.8 110.7,101.5 112.0,101.3 113.3,101.2 114.5,101.0 115.8,100.8 117.1,100.6 118.3,100.4 119.6,100.3 120.8,100.2 122.1,100.0 123.4,99.9 124.6,99.8 125.9,99.7 127.1,99.3 128.4,99.1 129.7,99.0 130.9,98.9 132.2,98.8 133.5,98.8 134.7,104.9 136.0,104.3 137.2,103.8 138.5,103.2 139.8,101.6 141.0,100.4 142.3,99.2 143.6,98.7 144.8,98.2 146.1,97.3 147.3,96.4 148.6,95.7 149.9,95.5 151.1,95.2 152.4,94.6 153.6,94.1 154.9,93.8 156.2,93.4 157.4,93.2 158.7,93.2 160.0,92.8 161.2,92.3 162.5,91.8 163.7,91.4 165.0,91.0 166.3,90.8 167.5,90.6 168.8,90.2 170.0,89.9 171.3,89.5 172.6,89.3 173.8,89.1 175.1,89.1 176.4,88.9 177.6,88.6 178.9,88.3 180.1,88.1 181.4,87.9 182.7,87.8 183.9,87.6 185.2,87.4 186.4,87.3 187.7,87.1 189.0,86.8 190.2,86.6 191.5,86.3 192.8,86.2 194.0,86.0 195.3,85.9 196.5,85.7 197.8,85.6 199.1,85.1 200.3,84.9 201.6,84.5 202.9,84.3 204.1,84.3 205.4,84.1 206.6,84.0 207.9,83.7 209.2,83.5 210.4,83.2 211.7,83.1 212.9,83.0 214.2,82.8 215.5,82.7 216.7,82.6 218.0,82.4 219.3,82.3 220.5,82.0 221.8,81.9 223.0,81.8 224.3,81.7 225.6,81.6 226.8,81.4 228.1,81.2 229.3,81.0 230.6,80.8 231.9,80.6 233.1,80.5 234.4,80.4 235.7,80.2 236.9,80.0 238.2,79.7 239.4,79.5 240.7,79.3 242.0,79.0 243.2,78.9 244.5,78.8 245.7,78.7 247.0,78.6 248.3,78.4 249.5,78.2 250.8,78.1 252.1,78.0 253.3,77.8 254.6,77.7 255.8,77.6 257.1,77.5 258.4,77.3 259.6,77.1 260.9,77.0 262.1,76.8 263.4,76.7 264.7,76.6 265.9,76.4 267.2,76.3 268.5,76.2 269.7,76.1 271.0,75.8 272.2,75.5 273.5,75.4 274.8,75.2 276.0,75.1 277.3,75.1 278.6,74.9 279.8,74.7 281.1,74.5 282.3,74.5 283.6,74.3 284.9,74.1 286.1,74.0 287.4,73.9 288.6,73.8 289.9,73.6 291.2,73.4 292.4,73.2 293.7,73.0 295.0,72.9 296.2,72.9 297.5,72.8 298.7,72.7 300.0,72.5 301.3,72.4 302.5,72.2 303.8,72.1 305.0,72.0 306.3,71.9 307.6,71.7 308.8,71.6 310.1,71.4 311.4,71.2 312.6,71.1 313.9,70.9 315.1,70.8 316.4,70.7 317.7,70.6 318.9,70.6 320.2,70.5 321.4,70.3 322.7,70.1 324.0,70.0 325.2,69.8 326.5,69.8 327.8,69.6 329.0,69.5 330.3,69.3 331.5,69.2 332.8,69.1 334.1,69.0 335.3,68.8 336.6,68.7 337.9,68.6 339.1,68.5 340.4,68.4 341.6,68.3 342.9,68.2 344.2,68.1 345.4,68.0 346.7,67.9 347.9,67.8 349.2,67.5 350.5,67.3 351.7,71.3 353.0,70.5 354.3,69.0 355.5,68.4 356.8,67.7 358.0,66.9 359.3,66.4 360.6,66.1 361.8,65.5 363.1,64.7 364.3,64.0 365.6,63.8 366.9,63.5 368.1,63.3 369.4,62.8 370.7,62.4 371.9,61.9 373.2,61.7 374.4,61.3 375.7,61.0 377.0,60.7 378.2,60.5 379.5,60.3 380.7,60.1 382.0,59.7 383.3,59.4 384.5,59.0 385.8,58.4 387.1,58.1 388.3,57.9 389.6,57.8 390.8,57.6 392.1,57.2 393.4,56.9 394.6,56.6 395.9,55.8 397.1,55.2 398.4,54.9 399.7,54.8 400.9,54.5 402.2,54.1 403.5,53.7 404.7,53.4 406.0,53.2 407.2,52.9 408.5,52.6 409.8,52.3 411.0,52.0 412.3,51.7 413.6,51.6 414.8,51.4 416.1,51.1 417.3,50.8 418.6,50.6 419.9,50.5 421.1,50.3 422.4,50.1 423.6,49.9 424.9,49.8 426.2,49.6 427.4,49.4 428.7,49.3 430.0,49.0 431.2,48.9 432.5,48.6 433.7,48.2 435.0,48.0 436.3,47.8 437.5,47.7 438.8,47.5 440.0,47.3 441.3,47.2 442.6,47.0 443.8,46.9 445.1,46.8 446.4,46.6 447.6,46.5 448.9,46.2 450.1,46.1 451.4,45.9 452.7,45.7 453.9,45.4 455.2,45.1 456.4,44.9 457.7,44.7 459.0,44.5 460.2,44.3 461.5,44.1 462.8,43.9 464.0,43.7 465.3,43.6 466.5,43.5 467.8,43.3 469.1,43.1 470.3,42.9 471.6,42.8 472.9,42.6 474.1,42.4 475.4,42.2 476.6,41.9 477.9,41.8 479.2,41.5 480.4,41.3 481.7,41.1 482.9,41.0 484.2,40.9 485.5,40.7 486.7,40.5 488.0,40.4 489.3,40.1 490.5,40.0 491.8,39.9 493.0,39.8 494.3,39.6 495.6,39.5 496.8,39.3 498.1,39.2 499.3,39.1 500.6,38.9 501.9,38.8 503.1,38.6 504.4,38.5 505.7,38.4 506.9,38.2 508.2,38.0 509.4,37.8 510.7,37.7 512.0,37.6 513.2,37.4 514.5,37.2 515.7,37.0 517.0,36.8 518.3,36.7 519.5,36.6 520.8,36.5 522.1,36.3 523.3,36.2 524.6,36.0 525.8,35.7 527.1,35.6 528.4,35.4 529.6,35.3 530.9,35.2 532.1,35.0 533.4,34.9 534.7,34.6 535.9,34.4 537.2,34.4 538.5,34.1 539.7,33.9 541.0,33.7 542.2,33.5 543.5,33.4 544.8,33.2 546.0,33.0 547.3,32.8 548.6,32.6 549.8,32.5 551.1,32.3 552.3,32.1 553.6,32.0 554.9,31.8 556.1,31.7 557.4,31.5 558.6,31.3 559.9,31.1 561.2,30.9 562.4,30.8 563.7,30.6 565.0,30.5 566.2,30.4 567.5,30.2 568.7,30.1 570.0,30.0" />
  
  <!-- Punto finale luminoso -->
  <circle cx="570.0" cy="30.0" r="4" fill="#ffffff" stroke="#0366d6" stroke-width="2.5" />
</svg>