<svg width="600" height="150" viewBox="0 0 600 150" xmlns="http://www.w3.org/2000/svg">
  <defs>
    <filter id="shadow2" x="-2%" y="-2%" width="104%" height="108%">
      <feDropShadow dx="0" dy="2" stdDeviation="3" flood-opacity="0.1" />
    </filter>
    <linearGradient id="fillGrad" x1="0" y1="0" x2="0" y2="1">
      <stop offset="0%" stop-color="#0366d6" stop-opacity="0.3"/>
      <stop offset="100%" stop-color="#0366d6" stop-opacity="0.02"/>
    </linearGradient>
  </defs>
  <rect width="600" height="150" rx="12" fill="#ffffff" filter="url(#shadow2)" stroke="#e1e4e8" stroke-width="1"/>
  <text x="20" y="24" fill="#2b3137" font-family="-apple-system,BlinkMacSystemFont,'Segoe UI',Helvetica,Arial,sans-serif" font-size="14" font-weight="600">📈 Download Growth (Actual: 84.9k)</text>
  
  <!-- Area sotto la linea -->
  <polygon fill="url(#fillGrad)" points="30.0,120.0,120 30.0,120.0 31.6,119.4 33.1,118.8 34.7,118.3 36.3,118.2 37.8,117.9 39.4,117.2 41.0,116.8 42.6,116.5 44.1,115.8 45.7,115.5 47.3,115.2 48.8,115.0 50.4,114.7 52.0,114.2 53.5,113.7 55.1,113.4 56.7,113.1 58.3,112.9 59.8,112.6 61.4,112.3 63.0,112.0 64.5,111.8 66.1,111.5 67.7,110.5 69.2,110.2 70.8,109.7 72.4,109.3 74.0,109.0 75.5,108.6 77.1,108.4 78.7,108.2 80.2,107.9 81.8,107.4 83.4,107.0 84.9,106.7 86.5,106.3 88.1,106.2 89.7,106.1 91.2,105.9 92.8,105.6 94.4,105.4 95.9,105.3 97.5,104.9 99.1,104.3 100.6,104.2 102.2,104.1 103.8,103.8 105.3,103.4 106.9,103.1 108.5,102.6 110.1,102.3 111.6,101.9 113.2,101.8 114.8,101.5 116.3,101.1 117.9,100.7 119.5,100.4 121.0,100.2 122.6,100.0 124.2,99.8 125.8,99.3 127.3,98.9 128.9,98.5 130.5,98.1 132.0,97.9 133.6,97.8 135.2,97.6 136.7,97.3 138.3,97.1 139.9,96.9 141.5,96.8 143.0,96.6 144.6,96.4 146.2,96.2 147.7,96.1 149.3,96.0 150.9,95.6 152.4,95.4 154.0,95.3 155.6,95.1 157.2,95.0 158.7,95.0 160.3,102.2 161.9,101.5 163.4,100.8 165.0,100.2 166.6,98.2 168.1,96.9 169.7,95.4 171.3,94.9 172.8,94.3 174.4,93.3 176.0,92.2 177.6,91.4 179.1,91.1 180.7,90.8 182.3,90.0 183.8,89.4 185.4,89.1 187.0,88.6 188.5,88.4 190.1,88.3 191.7,87.9 193.3,87.3 194.8,86.8 196.4,86.3 198.0,85.8 199.5,85.5 201.1,85.3 202.7,84.9 204.2,84.5 205.8,84.1 207.4,83.7 209.0,83.6 210.5,83.5 212.1,83.3 213.7,82.9 215.2,82.6 216.8,82.4 218.4,82.2 219.9,82.0 221.5,81.8 223.1,81.6 224.7,81.4 226.2,81.2 227.8,80.9 229.4,80.6 230.9,80.3 232.5,80.1 234.1,79.9 235.6,79.7 237.2,79.6 238.8,79.4 240.3,78.9 241.9,78.5 243.5,78.1 245.1,77.9 246.6,77.9 248.2,77.7 249.8,77.5 251.3,77.2 252.9,77.0 254.5,76.6 256.0,76.4 257.6,76.3 259.2,76.2 260.8,76.0 262.3,75.9 263.9,75.7 265.5,75.5 267.0,75.2 268.6,75.0 270.2,74.9 271.7,74.8 273.3,74.7 274.9,74.4 276.5,74.2 278.0,74.0 279.6,73.8 281.2,73.5 282.7,73.4 284.3,73.3 285.9,73.1 287.4,72.8 289.0,72.5 290.6,72.3 292.2,72.0 293.7,71.7 295.3,71.6 296.9,71.4 298.4,71.3 300.0,71.1 301.6,71.0 303.1,70.7 304.7,70.6 306.3,70.4 307.8,70.3 309.4,70.1 311.0,70.0 312.6,69.9 314.1,69.7 315.7,69.4 317.3,69.3 318.8,69.0 320.4,68.9 322.0,68.8 323.5,68.6 325.1,68.5 326.7,68.4 328.3,68.2 329.8,67.9 331.4,67.5 333.0,67.3 334.5,67.2 336.1,67.1 337.7,67.0 339.2,66.8 340.8,66.5 342.4,66.4 344.0,66.3 345.5,66.1 347.1,65.9 348.7,65.7 350.2,65.6 351.8,65.5 353.4,65.2 354.9,65.0 356.5,64.8 358.1,64.6 359.7,64.5 361.2,64.4 362.8,64.3 364.4,64.2 365.9,64.0 367.5,63.8 369.1,63.7 370.6,63.5 372.2,63.3 373.8,63.2 375.3,63.1 376.9,62.9 378.5,62.7 380.1,62.5 381.6,62.3 383.2,62.1 384.8,62.0 386.3,61.9 387.9,61.8 389.5,61.7 391.0,61.6 392.6,61.4 394.2,61.2 395.8,61.0 397.3,60.8 398.9,60.7 400.5,60.6 402.0,60.4 403.6,60.2 405.2,60.1 406.7,60.0 408.3,59.8 409.9,59.7 411.5,59.5 413.0,59.3 414.6,59.2 416.2,59.1 417.7,59.0 419.3,58.9 420.9,58.7 422.4,58.6 424.0,58.6 425.6,58.4 427.2,58.1 428.7,57.9 430.3,62.5 431.9,61.6 433.4,59.8 435.0,59.2 436.6,58.4 438.1,57.4 439.7,56.8 441.3,56.4 442.8,55.8 444.4,54.8 446.0,54.0 447.6,53.8 449.1,53.4 450.7,53.1 452.3,52.5 453.8,52.1 455.4,51.5 457.0,51.2 458.5,50.7 460.1,50.4 461.7,50.1 463.3,49.9 464.8,49.6 466.4,49.3 468.0,48.8 469.5,48.5 471.1,48.0 472.7,47.4 474.2,47.0 475.8,46.8 477.4,46.6 479.0,46.4 480.5,45.9 482.1,45.6 483.7,45.3 485.2,44.3 486.8,43.6 488.4,43.2 489.9,43.0 491.5,42.7 493.1,42.2 494.7,41.8 496.2,41.5 497.8,41.2 499.4,40.8 500.9,40.5 502.5,40.2 504.1,39.8 505.6,39.5 507.2,39.3 508.8,39.1 510.3,38.7 511.9,38.4 513.5,38.2 515.1,38.0 516.6,37.8 518.2,37.5 519.8,37.4 521.3,37.1 522.9,36.9 524.5,36.8 526.0,36.6 527.6,36.3 529.2,36.1 530.8,35.7 532.3,35.3 533.9,35.0 535.5,34.9 537.0,34.7 538.6,34.5 540.2,34.3 541.7,34.1 543.3,33.9 544.9,33.8 546.5,33.6 548.0,33.4 549.6,33.3 551.2,33.0 552.7,32.8 554.3,32.6 555.9,32.4 557.4,32.0 559.0,31.6 560.6,31.4 562.2,31.2 563.7,31.0 565.3,30.7 566.9,30.5 568.4,30.2 570.0,30.0 570.0,30.0,120" />
  
  <!-- Linea principale -->
  <polyline fill="none" stroke="#0366d6" stroke-width="2.5" stroke-linecap="round" stroke-linejoin="round" points="30.0,120.0 31.6,119.4 33.1,118.8 34.7,118.3 36.3,118.2 37.8,117.9 39.4,117.2 41.0,116.8 42.6,116.5 44.1,115.8 45.7,115.5 47.3,115.2 48.8,115.0 50.4,114.7 52.0,114.2 53.5,113.7 55.1,113.4 56.7,113.1 58.3,112.9 59.8,112.6 61.4,112.3 63.0,112.0 64.5,111.8 66.1,111.5 67.7,110.5 69.2,110.2 70.8,109.7 72.4,109.3 74.0,109.0 75.5,108.6 77.1,108.4 78.7,108.2 80.2,107.9 81.8,107.4 83.4,107.0 84.9,106.7 86.5,106.3 88.1,106.2 89.7,106.1 91.2,105.9 92.8,105.6 94.4,105.4 95.9,105.3 97.5,104.9 99.1,104.3 100.6,104.2 102.2,104.1 103.8,103.8 105.3,103.4 106.9,103.1 108.5,102.6 110.1,102.3 111.6,101.9 113.2,101.8 114.8,101.5 116.3,101.1 117.9,100.7 119.5,100.4 121.0,100.2 122.6,100.0 124.2,99.8 125.8,99.3 127.3,98.9 128.9,98.5 130.5,98.1 132.0,97.9 133.6,97.8 135.2,97.6 136.7,97.3 138.3,97.1 139.9,96.9 141.5,96.8 143.0,96.6 144.6,96.4 146.2,96.2 147.7,96.1 149.3,96.0 150.9,95.6 152.4,95.4 154.0,95.3 155.6,95.1 157.2,95.0 158.7,95.0 160.3,102.2 161.9,101.5 163.4,100.8 165.0,100.2 166.6,98.2 168.1,96.9 169.7,95.4 171.3,94.9 172.8,94.3 174.4,93.3 176.0,92.2 177.6,91.4 179.1,91.1 180.7,90.8 182.3,90.0 183.8,89.4 185.4,89.1 187.0,88.6 188.5,88.4 190.1,88.3 191.7,87.9 193.3,87.3 194.8,86.8 196.4,86.3 198.0,85.8 199.5,85.5 201.1,85.3 202.7,84.9 204.2,84.5 205.8,84.1 207.4,83.7 209.0,83.6 210.5,83.5 212.1,83.3 213.7,82.9 215.2,82.6 216.8,82.4 218.4,82.2 219.9,82.0 221.5,81.8 223.1,81.6 224.7,81.4 226.2,81.2 227.8,80.9 229.4,80.6 230.9,80.3 232.5,80.1 234.1,79.9 235.6,79.7 237.2,79.6 238.8,79.4 240.3,78.9 241.9,78.5 243.5,78.1 245.1,77.9 246.6,77.9 248.2,77.7 249.8,77.5 251.3,77.2 252.9,77.0 254.5,76.6 256.0,76.4 257.6,76.3 259.2,76.2 260.8,76.0 262.3,75.9 263.9,75.7 265.5,75.5 267.0,75.2 268.6,75.0 270.2,74.9 271.7,74.8 273.3,74.7 274.9,74.4 276.5,74.2 278.0,74.0 279.6,73.8 281.2,73.5 282.7,73.4 284.3,73.3 285.9,73.1 287.4,72.8 289.0,72.5 290.6,72.3 292.2,72.0 293.7,71.7 295.3,71.6 296.9,71.4 298.4,71.3 300.0,71.1 301.6,71.0 303.1,70.7 304.7,70.6 306.3,70.4 307.8,70.3 309.4,70.1 311.0,70.0 312.6,69.9 314.1,69.7 315.7,69.4 317.3,69.3 318.8,69.0 320.4,68.9 322.0,68.8 323.5,68.6 325.1,68.5 326.7,68.4 328.3,68.2 329.8,67.9 331.4,67.5 333.0,67.3 334.5,67.2 336.1,67.1 337.7,67.0 339.2,66.8 340.8,66.5 342.4,66.4 344.0,66.3 345.5,66.1 347.1,65.9 348.7,65.7 350.2,65.6 351.8,65.5 353.4,65.2 354.9,65.0 356.5,64.8 358.1,64.6 359.7,64.5 361.2,64.4 362.8,64.3 364.4,64.2 365.9,64.0 367.5,63.8 369.1,63.7 370.6,63.5 372.2,63.3 373.8,63.2 375.3,63.1 376.9,62.9 378.5,62.7 380.1,62.5 381.6,62.3 383.2,62.1 384.8,62.0 386.3,61.9 387.9,61.8 389.5,61.7 391.0,61.6 392.6,61.4 394.2,61.2 395.8,61.0 397.3,60.8 398.9,60.7 400.5,60.6 402.0,60.4 403.6,60.2 405.2,60.1 406.7,60.0 408.3,59.8 409.9,59.7 411.5,59.5 413.0,59.3 414.6,59.2 416.2,59.1 417.7,59.0 419.3,58.9 420.9,58.7 422.4,58.6 424.0,58.6 425.6,58.4 427.2,58.1 428.7,57.9 430.3,62.5 431.9,61.6 433.4,59.8 435.0,59.2 436.6,58.4 438.1,57.4 439.7,56.8 441.3,56.4 442.8,55.8 444.4,54.8 446.0,54.0 447.6,53.8 449.1,53.4 450.7,53.1 452.3,52.5 453.8,52.1 455.4,51.5 457.0,51.2 458.5,50.7 460.1,50.4 461.7,50.1 463.3,49.9 464.8,49.6 466.4,49.3 468.0,48.8 469.5,48.5 471.1,48.0 472.7,47.4 474.2,47.0 475.8,46.8 477.4,46.6 479.0,46.4 480.5,45.9 482.1,45.6 483.7,45.3 485.2,44.3 486.8,43.6 488.4,43.2 489.9,43.0 491.5,42.7 493.1,42.2 494.7,41.8 496.2,41.5 497.8,41.2 499.4,40.8 500.9,40.5 502.5,40.2 504.1,39.8 505.6,39.5 507.2,39.3 508.8,39.1 510.3,38.7 511.9,38.4 513.5,38.2 515.1,38.0 516.6,37.8 518.2,37.5 519.8,37.4 521.3,37.1 522.9,36.9 524.5,36.8 526.0,36.6 527.6,36.3 529.2,36.1 530.8,35.7 532.3,35.3 533.9,35.0 535.5,34.9 537.0,34.7 538.6,34.5 540.2,34.3 541.7,34.1 543.3,33.9 544.9,33.8 546.5,33.6 548.0,33.4 549.6,33.3 551.2,33.0 552.7,32.8 554.3,32.6 555.9,32.4 557.4,32.0 559.0,31.6 560.6,31.4 562.2,31.2 563.7,31.0 565.3,30.7 566.9,30.5 568.4,30.2 570.0,30.0" />
  
  <!-- Punto finale luminoso -->
  <circle cx="570.0" cy="30.0" r="4" fill="#ffffff" stroke="#0366d6" stroke-width="2.5" />
</svg>