<svg width="600" height="150" viewBox="0 0 600 150" xmlns="http://www.w3.org/2000/svg">
  <defs>
    <filter id="shadow2" x="-2%" y="-2%" width="104%" height="108%">
      <feDropShadow dx="0" dy="2" stdDeviation="3" flood-opacity="0.1" />
    </filter>
    <linearGradient id="fillGrad" x1="0" y1="0" x2="0" y2="1">
      <stop offset="0%" stop-color="#0366d6" stop-opacity="0.3"/>
      <stop offset="100%" stop-color="#0366d6" stop-opacity="0.02"/>
    </linearGradient>
  </defs>
  <rect width="600" height="150" rx="12" fill="#ffffff" filter="url(#shadow2)" stroke="#e1e4e8" stroke-width="1"/>
  <text x="20" y="24" fill="#2b3137" font-family="-apple-system,BlinkMacSystemFont,'Segoe UI',Helvetica,Arial,sans-serif" font-size="14" font-weight="600">📈 Download Growth (Actual: 78.6k)</text>
  
  <!-- Area sotto la linea -->
  <polygon fill="url(#fillGrad)" points="30.0,120.0,120 30.0,120.0 32.3,119.1 34.7,118.2 37.0,117.4 39.4,117.2 41.7,116.7 44.1,115.7 46.4,115.1 48.8,114.6 51.1,113.6 53.5,113.1 55.8,112.6 58.2,112.3 60.5,111.8 62.9,111.1 65.2,110.4 67.6,109.8 69.9,109.4 72.3,109.1 74.6,108.7 77.0,108.1 79.3,107.7 81.7,107.4 84.0,107.0 86.3,105.3 88.7,104.8 91.0,104.2 93.4,103.6 95.7,103.0 98.1,102.5 100.4,102.1 102.8,101.8 105.1,101.4 107.5,100.6 109.8,99.9 112.2,99.5 114.5,98.9 116.9,98.8 119.2,98.6 121.6,98.3 123.9,97.8 126.3,97.5 128.6,97.3 131.0,96.7 133.3,95.8 135.7,95.6 138.0,95.5 140.3,95.1 142.7,94.4 145.0,94.0 147.4,93.2 149.7,92.7 152.1,92.1 154.4,92.0 156.8,91.6 159.1,90.9 161.5,90.3 163.8,89.8 166.2,89.5 168.5,89.2 170.9,88.9 173.2,88.2 175.6,87.5 177.9,86.9 180.3,86.3 182.6,86.0 185.0,85.8 187.3,85.6 189.7,85.1 192.0,84.7 194.3,84.4 196.7,84.2 199.0,84.0 201.4,83.6 203.7,83.4 206.1,83.2 208.4,83.1 210.8,82.4 213.1,82.0 215.5,81.9 217.8,81.7 220.2,81.6 222.5,81.6 224.9,92.5 227.2,91.5 229.6,90.5 231.9,89.5 234.3,86.5 236.6,84.4 239.0,82.1 241.3,81.3 243.7,80.4 246.0,78.8 248.3,77.2 250.7,75.9 253.0,75.5 255.4,75.0 257.7,73.8 260.1,72.9 262.4,72.4 264.8,71.7 267.1,71.4 269.5,71.2 271.8,70.6 274.2,69.6 276.5,68.9 278.9,68.1 281.2,67.3 283.6,66.9 285.9,66.6 288.3,65.9 290.6,65.3 293.0,64.6 295.3,64.2 297.7,63.9 300.0,63.8 302.3,63.4 304.7,62.9 307.0,62.5 309.4,62.1 311.7,61.8 314.1,61.4 316.4,61.1 318.8,60.8 321.1,60.6 323.5,60.3 325.8,59.7 328.2,59.3 330.5,58.8 332.9,58.5 335.2,58.2 337.6,58.0 339.9,57.7 342.3,57.5 344.6,56.7 347.0,56.2 349.3,55.5 351.7,55.2 354.0,55.2 356.3,54.9 358.7,54.5 361.0,54.1 363.4,53.7 365.7,53.2 368.1,52.9 370.4,52.7 372.8,52.5 375.1,52.3 377.5,52.1 379.8,51.7 382.2,51.5 384.5,51.0 386.9,50.8 389.2,50.6 391.6,50.4 393.9,50.2 396.3,49.8 398.6,49.5 401.0,49.1 403.3,48.8 405.7,48.4 408.0,48.2 410.3,48.0 412.7,47.8 415.0,47.3 417.4,46.8 419.7,46.5 422.1,46.1 424.4,45.5 426.8,45.4 429.1,45.2 431.5,45.0 433.8,44.7 436.2,44.5 438.5,44.1 440.9,43.9 443.2,43.6 445.6,43.4 447.9,43.1 450.3,42.9 452.6,42.8 455.0,42.5 457.3,42.0 459.7,41.8 462.0,41.5 464.3,41.3 466.7,41.1 469.0,40.8 471.4,40.7 473.7,40.5 476.1,40.2 478.4,39.7 480.8,39.2 483.1,38.9 485.5,38.6 487.8,38.5 490.2,38.4 492.5,38.1 494.9,37.6 497.2,37.4 499.6,37.3 501.9,36.9 504.3,36.7 506.6,36.4 509.0,36.2 511.3,36.0 513.7,35.6 516.0,35.3 518.3,35.0 520.7,34.6 523.0,34.5 525.4,34.4 527.7,34.3 530.1,34.0 532.4,33.8 534.8,33.5 537.1,33.2 539.5,32.9 541.8,32.7 544.2,32.5 546.5,32.3 548.9,32.1 551.2,31.7 553.6,31.4 555.9,31.1 558.3,30.8 560.6,30.6 563.0,30.5 565.3,30.3 567.7,30.2 570.0,30.0 570.0,30.0,120" />
  
  <!-- Linea principale -->
  <polyline fill="none" stroke="#0366d6" stroke-width="2.5" stroke-linecap="round" stroke-linejoin="round" points="30.0,120.0 32.3,119.1 34.7,118.2 37.0,117.4 39.4,117.2 41.7,116.7 44.1,115.7 46.4,115.1 48.8,114.6 51.1,113.6 53.5,113.1 55.8,112.6 58.2,112.3 60.5,111.8 62.9,111.1 65.2,110.4 67.6,109.8 69.9,109.4 72.3,109.1 74.6,108.7 77.0,108.1 79.3,107.7 81.7,107.4 84.0,107.0 86.3,105.3 88.7,104.8 91.0,104.2 93.4,103.6 95.7,103.0 98.1,102.5 100.4,102.1 102.8,101.8 105.1,101.4 107.5,100.6 109.8,99.9 112.2,99.5 114.5,98.9 116.9,98.8 119.2,98.6 121.6,98.3 123.9,97.8 126.3,97.5 128.6,97.3 131.0,96.7 133.3,95.8 135.7,95.6 138.0,95.5 140.3,95.1 142.7,94.4 145.0,94.0 147.4,93.2 149.7,92.7 152.1,92.1 154.4,92.0 156.8,91.6 159.1,90.9 161.5,90.3 163.8,89.8 166.2,89.5 168.5,89.2 170.9,88.9 173.2,88.2 175.6,87.5 177.9,86.9 180.3,86.3 182.6,86.0 185.0,85.8 187.3,85.6 189.7,85.1 192.0,84.7 194.3,84.4 196.7,84.2 199.0,84.0 201.4,83.6 203.7,83.4 206.1,83.2 208.4,83.1 210.8,82.4 213.1,82.0 215.5,81.9 217.8,81.7 220.2,81.6 222.5,81.6 224.9,92.5 227.2,91.5 229.6,90.5 231.9,89.5 234.3,86.5 236.6,84.4 239.0,82.1 241.3,81.3 243.7,80.4 246.0,78.8 248.3,77.2 250.7,75.9 253.0,75.5 255.4,75.0 257.7,73.8 260.1,72.9 262.4,72.4 264.8,71.7 267.1,71.4 269.5,71.2 271.8,70.6 274.2,69.6 276.5,68.9 278.9,68.1 281.2,67.3 283.6,66.9 285.9,66.6 288.3,65.9 290.6,65.3 293.0,64.6 295.3,64.2 297.7,63.9 300.0,63.8 302.3,63.4 304.7,62.9 307.0,62.5 309.4,62.1 311.7,61.8 314.1,61.4 316.4,61.1 318.8,60.8 321.1,60.6 323.5,60.3 325.8,59.7 328.2,59.3 330.5,58.8 332.9,58.5 335.2,58.2 337.6,58.0 339.9,57.7 342.3,57.5 344.6,56.7 347.0,56.2 349.3,55.5 351.7,55.2 354.0,55.2 356.3,54.9 358.7,54.5 361.0,54.1 363.4,53.7 365.7,53.2 368.1,52.9 370.4,52.7 372.8,52.5 375.1,52.3 377.5,52.1 379.8,51.7 382.2,51.5 384.5,51.0 386.9,50.8 389.2,50.6 391.6,50.4 393.9,50.2 396.3,49.8 398.6,49.5 401.0,49.1 403.3,48.8 405.7,48.4 408.0,48.2 410.3,48.0 412.7,47.8 415.0,47.3 417.4,46.8 419.7,46.5 422.1,46.1 424.4,45.5 426.8,45.4 429.1,45.2 431.5,45.0 433.8,44.7 436.2,44.5 438.5,44.1 440.9,43.9 443.2,43.6 445.6,43.4 447.9,43.1 450.3,42.9 452.6,42.8 455.0,42.5 457.3,42.0 459.7,41.8 462.0,41.5 464.3,41.3 466.7,41.1 469.0,40.8 471.4,40.7 473.7,40.5 476.1,40.2 478.4,39.7 480.8,39.2 483.1,38.9 485.5,38.6 487.8,38.5 490.2,38.4 492.5,38.1 494.9,37.6 497.2,37.4 499.6,37.3 501.9,36.9 504.3,36.7 506.6,36.4 509.0,36.2 511.3,36.0 513.7,35.6 516.0,35.3 518.3,35.0 520.7,34.6 523.0,34.5 525.4,34.4 527.7,34.3 530.1,34.0 532.4,33.8 534.8,33.5 537.1,33.2 539.5,32.9 541.8,32.7 544.2,32.5 546.5,32.3 548.9,32.1 551.2,31.7 553.6,31.4 555.9,31.1 558.3,30.8 560.6,30.6 563.0,30.5 565.3,30.3 567.7,30.2 570.0,30.0" />
  
  <!-- Punto finale luminoso -->
  <circle cx="570.0" cy="30.0" r="4" fill="#ffffff" stroke="#0366d6" stroke-width="2.5" />
</svg>