<svg width="600" height="150" viewBox="0 0 600 150" xmlns="http://www.w3.org/2000/svg">
  <defs>
    <filter id="shadow2" x="-2%" y="-2%" width="104%" height="108%">
      <feDropShadow dx="0" dy="2" stdDeviation="3" flood-opacity="0.1" />
    </filter>
    <linearGradient id="fillGrad" x1="0" y1="0" x2="0" y2="1">
      <stop offset="0%" stop-color="#0366d6" stop-opacity="0.3"/>
      <stop offset="100%" stop-color="#0366d6" stop-opacity="0.02"/>
    </linearGradient>
  </defs>
  <rect width="600" height="150" rx="12" fill="#ffffff" filter="url(#shadow2)" stroke="#e1e4e8" stroke-width="1"/>
  <text x="20" y="24" fill="#2b3137" font-family="-apple-system,BlinkMacSystemFont,'Segoe UI',Helvetica,Arial,sans-serif" font-size="14" font-weight="600">📈 Download Growth (Actual: 74.3k)</text>
  
  <!-- Area sotto la linea -->
  <polygon fill="url(#fillGrad)" points="30.0,120.0,120 30.0,120.0 34.6,118.6 39.2,117.2 43.8,115.9 48.5,115.5 53.1,114.9 57.7,113.3 62.3,112.2 66.9,111.5 71.5,109.9 76.2,109.1 80.8,108.3 85.4,107.8 90.0,107.1 94.6,106.0 99.2,104.8 103.8,103.9 108.5,103.3 113.1,102.9 117.7,102.2 122.3,101.3 126.9,100.5 131.5,100.2 136.2,99.5 140.8,96.9 145.4,96.1 150.0,95.1 154.6,94.1 159.2,93.2 163.8,92.4 168.5,91.8 173.1,91.4 177.7,90.7 182.3,89.4 186.9,88.4 191.5,87.6 196.2,86.8 200.8,86.5 205.4,86.3 210.0,85.9 214.6,85.1 219.2,84.6 223.8,84.2 228.5,83.3 233.1,81.9 237.7,81.6 242.3,81.3 246.9,80.8 251.5,79.7 256.2,79.0 260.8,77.8 265.4,77.0 270.0,76.0 274.6,75.8 279.2,75.2 283.8,74.2 288.5,73.2 293.1,72.4 297.7,72.0 302.3,71.5 306.9,71.0 311.5,69.9 316.2,68.8 320.8,67.9 325.4,66.9 330.0,66.4 334.6,66.1 339.2,65.7 343.8,65.0 348.5,64.4 353.1,64.0 357.7,63.6 362.3,63.3 366.9,62.7 371.5,62.3 376.2,62.1 380.8,61.8 385.4,60.8 390.0,60.2 394.6,60.0 399.2,59.6 403.8,59.4 408.5,59.4 413.1,76.8 417.7,75.1 422.3,73.5 426.9,71.9 431.5,67.2 436.2,63.9 440.8,60.4 445.4,59.1 450.0,57.6 454.6,55.1 459.2,52.5 463.8,50.6 468.5,49.8 473.1,49.1 477.7,47.2 482.3,45.9 486.9,45.0 491.5,43.9 496.2,43.4 500.8,43.2 505.4,42.2 510.0,40.6 514.6,39.4 519.2,38.3 523.8,37.0 528.5,36.3 533.1,35.9 537.7,34.8 542.3,33.8 546.9,32.8 551.5,32.0 556.2,31.7 560.8,31.4 565.4,30.8 570.0,30.0 570.0,30.0,120" />
  
  <!-- Linea principale -->
  <polyline fill="none" stroke="#0366d6" stroke-width="2.5" stroke-linecap="round" stroke-linejoin="round" points="30.0,120.0 34.6,118.6 39.2,117.2 43.8,115.9 48.5,115.5 53.1,114.9 57.7,113.3 62.3,112.2 66.9,111.5 71.5,109.9 76.2,109.1 80.8,108.3 85.4,107.8 90.0,107.1 94.6,106.0 99.2,104.8 103.8,103.9 108.5,103.3 113.1,102.9 117.7,102.2 122.3,101.3 126.9,100.5 131.5,100.2 136.2,99.5 140.8,96.9 145.4,96.1 150.0,95.1 154.6,94.1 159.2,93.2 163.8,92.4 168.5,91.8 173.1,91.4 177.7,90.7 182.3,89.4 186.9,88.4 191.5,87.6 196.2,86.8 200.8,86.5 205.4,86.3 210.0,85.9 214.6,85.1 219.2,84.6 223.8,84.2 228.5,83.3 233.1,81.9 237.7,81.6 242.3,81.3 246.9,80.8 251.5,79.7 256.2,79.0 260.8,77.8 265.4,77.0 270.0,76.0 274.6,75.8 279.2,75.2 283.8,74.2 288.5,73.2 293.1,72.4 297.7,72.0 302.3,71.5 306.9,71.0 311.5,69.9 316.2,68.8 320.8,67.9 325.4,66.9 330.0,66.4 334.6,66.1 339.2,65.7 343.8,65.0 348.5,64.4 353.1,64.0 357.7,63.6 362.3,63.3 366.9,62.7 371.5,62.3 376.2,62.1 380.8,61.8 385.4,60.8 390.0,60.2 394.6,60.0 399.2,59.6 403.8,59.4 408.5,59.4 413.1,76.8 417.7,75.1 422.3,73.5 426.9,71.9 431.5,67.2 436.2,63.9 440.8,60.4 445.4,59.1 450.0,57.6 454.6,55.1 459.2,52.5 463.8,50.6 468.5,49.8 473.1,49.1 477.7,47.2 482.3,45.9 486.9,45.0 491.5,43.9 496.2,43.4 500.8,43.2 505.4,42.2 510.0,40.6 514.6,39.4 519.2,38.3 523.8,37.0 528.5,36.3 533.1,35.9 537.7,34.8 542.3,33.8 546.9,32.8 551.5,32.0 556.2,31.7 560.8,31.4 565.4,30.8 570.0,30.0" />
  
  <!-- Punto finale luminoso -->
  <circle cx="570.0" cy="30.0" r="4" fill="#ffffff" stroke="#0366d6" stroke-width="2.5" />
</svg>