<svg width="600" height="150" viewBox="0 0 600 150" xmlns="http://www.w3.org/2000/svg">
  <defs>
    <filter id="shadow2" x="-2%" y="-2%" width="104%" height="108%">
      <feDropShadow dx="0" dy="2" stdDeviation="3" flood-opacity="0.1" />
    </filter>
    <linearGradient id="fillGrad" x1="0" y1="0" x2="0" y2="1">
      <stop offset="0%" stop-color="#0366d6" stop-opacity="0.3"/>
      <stop offset="100%" stop-color="#0366d6" stop-opacity="0.02"/>
    </linearGradient>
  </defs>
  <rect width="600" height="150" rx="12" fill="#ffffff" filter="url(#shadow2)" stroke="#e1e4e8" stroke-width="1"/>
  <text x="20" y="24" fill="#2b3137" font-family="-apple-system,BlinkMacSystemFont,'Segoe UI',Helvetica,Arial,sans-serif" font-size="14" font-weight="600">📈 Download Growth (Actual: 87.9k)</text>
  
  <!-- Area sotto la linea -->
  <polygon fill="url(#fillGrad)" points="30.0,120.0,120 30.0,120.0 31.3,119.5 32.6,119.0 33.9,118.5 35.1,118.4 36.4,118.2 37.7,117.6 39.0,117.3 40.3,117.0 41.6,116.4 42.9,116.1 44.1,115.9 45.4,115.7 46.7,115.4 48.0,115.0 49.3,114.6 50.6,114.3 51.9,114.1 53.1,113.9 54.4,113.7 55.7,113.4 57.0,113.1 58.3,113.0 59.6,112.7 60.9,111.8 62.1,111.6 63.4,111.2 64.7,110.8 66.0,110.5 67.3,110.2 68.6,110.0 69.9,109.9 71.1,109.6 72.4,109.2 73.7,108.8 75.0,108.6 76.3,108.3 77.6,108.2 78.9,108.1 80.1,107.9 81.4,107.6 82.7,107.5 84.0,107.3 85.3,107.0 86.6,106.5 87.9,106.4 89.1,106.3 90.4,106.1 91.7,105.7 93.0,105.5 94.3,105.1 95.6,104.8 96.9,104.4 98.1,104.4 99.4,104.2 100.7,103.8 102.0,103.4 103.3,103.2 104.6,103.0 105.9,102.8 107.1,102.7 108.4,102.3 109.7,101.9 111.0,101.6 112.3,101.2 113.6,101.1 114.9,101.0 116.1,100.8 117.4,100.5 118.7,100.3 120.0,100.2 121.3,100.1 122.6,99.9 123.9,99.7 125.1,99.6 126.4,99.5 127.7,99.4 129.0,99.1 130.3,98.9 131.6,98.8 132.9,98.7 134.1,98.6 135.4,98.6 136.7,104.7 138.0,104.1 139.3,103.6 140.6,103.0 141.9,101.3 143.1,100.2 144.4,98.9 145.7,98.4 147.0,97.9 148.3,97.1 149.6,96.1 150.9,95.4 152.1,95.2 153.4,94.9 154.7,94.3 156.0,93.8 157.3,93.5 158.6,93.1 159.9,92.9 161.1,92.8 162.4,92.5 163.7,91.9 165.0,91.5 166.3,91.1 167.6,90.6 168.9,90.4 170.1,90.2 171.4,89.9 172.7,89.5 174.0,89.2 175.3,88.9 176.6,88.8 177.9,88.7 179.1,88.5 180.4,88.2 181.7,87.9 183.0,87.7 184.3,87.5 185.6,87.4 186.9,87.2 188.1,87.0 189.4,86.9 190.7,86.7 192.0,86.4 193.3,86.2 194.6,85.9 195.9,85.8 197.1,85.6 198.4,85.5 199.7,85.3 201.0,85.2 202.3,84.7 203.6,84.4 204.9,84.1 206.1,83.9 207.4,83.9 208.7,83.7 210.0,83.5 211.3,83.3 212.6,83.1 213.9,82.8 215.1,82.6 216.4,82.5 217.7,82.4 219.0,82.3 220.3,82.1 221.6,82.0 222.9,81.8 224.1,81.5 225.4,81.4 226.7,81.3 228.0,81.2 229.3,81.1 230.6,80.9 231.9,80.7 233.1,80.5 234.4,80.3 235.7,80.1 237.0,80.0 238.3,79.9 239.6,79.8 240.9,79.5 242.1,79.2 243.4,79.0 244.7,78.8 246.0,78.5 247.3,78.4 248.6,78.3 249.9,78.2 251.1,78.1 252.4,77.9 253.7,77.7 255.0,77.6 256.3,77.4 257.6,77.3 258.9,77.2 260.1,77.0 261.4,77.0 262.7,76.8 264.0,76.6 265.3,76.5 266.6,76.3 267.9,76.2 269.1,76.0 270.4,75.9 271.7,75.8 273.0,75.7 274.3,75.5 275.6,75.3 276.9,75.0 278.1,74.8 279.4,74.7 280.7,74.6 282.0,74.5 283.3,74.4 284.6,74.1 285.9,74.0 287.1,73.9 288.4,73.7 289.7,73.6 291.0,73.4 292.3,73.3 293.6,73.2 294.9,73.0 296.1,72.8 297.4,72.6 298.7,72.4 300.0,72.3 301.3,72.3 302.6,72.2 303.9,72.1 305.1,71.9 306.4,71.8 307.7,71.6 309.0,71.5 310.3,71.4 311.6,71.3 312.9,71.1 314.1,71.0 315.4,70.8 316.7,70.6 318.0,70.5 319.3,70.3 320.6,70.2 321.9,70.1 323.1,70.0 324.4,69.9 325.7,69.9 327.0,69.7 328.3,69.5 329.6,69.4 330.9,69.2 332.1,69.1 333.4,69.0 334.7,68.9 336.0,68.7 337.3,68.6 338.6,68.5 339.9,68.4 341.1,68.2 342.4,68.1 343.7,67.9 345.0,67.9 346.3,67.8 347.6,67.7 348.9,67.6 350.1,67.4 351.4,67.3 352.7,67.3 354.0,67.2 355.3,66.9 356.6,66.7 357.9,70.7 359.1,69.9 360.4,68.4 361.7,67.8 363.0,67.1 364.3,66.2 365.6,65.8 366.9,65.4 368.1,64.9 369.4,64.0 370.7,63.4 372.0,63.2 373.3,62.8 374.6,62.6 375.9,62.1 377.1,61.7 378.4,61.2 379.7,61.0 381.0,60.5 382.3,60.3 383.6,60.0 384.9,59.8 386.1,59.6 387.4,59.4 388.7,58.9 390.0,58.6 391.3,58.2 392.6,57.7 393.9,57.3 395.1,57.2 396.4,57.0 397.7,56.8 399.0,56.4 400.3,56.1 401.6,55.9 402.9,55.0 404.1,54.4 405.4,54.1 406.7,53.9 408.0,53.7 409.3,53.3 410.6,52.9 411.9,52.6 413.1,52.3 414.4,52.0 415.7,51.8 417.0,51.5 418.3,51.1 419.6,50.9 420.9,50.8 422.1,50.6 423.4,50.2 424.7,50.0 426.0,49.8 427.3,49.6 428.6,49.5 429.9,49.2 431.1,49.1 432.4,48.9 433.7,48.7 435.0,48.6 436.3,48.4 437.6,48.2 438.9,48.0 440.1,47.7 441.4,47.3 442.7,47.1 444.0,46.9 445.3,46.8 446.6,46.6 447.9,46.4 449.1,46.3 450.4,46.1 451.7,46.0 453.0,45.9 454.3,45.7 455.6,45.6 456.9,45.3 458.1,45.2 459.4,45.0 460.7,44.8 462.0,44.5 463.3,44.2 464.6,44.0 465.9,43.8 467.1,43.6 468.4,43.4 469.7,43.2 471.0,42.9 472.3,42.8 473.6,42.7 474.9,42.5 476.1,42.3 477.4,42.1 478.7,42.0 480.0,41.9 481.3,41.6 482.6,41.4 483.9,41.2 485.1,41.0 486.4,40.8 487.7,40.5 489.0,40.3 490.3,40.2 491.6,40.0 492.9,39.9 494.1,39.7 495.4,39.6 496.7,39.4 498.0,39.2 499.3,39.1 500.6,38.9 501.9,38.8 503.1,38.6 504.4,38.5 505.7,38.3 507.0,38.2 508.3,38.1 509.6,37.9 510.9,37.8 512.1,37.6 513.4,37.5 514.7,37.4 516.0,37.2 517.3,37.0 518.6,36.8 519.9,36.7 521.1,36.6 522.4,36.4 523.7,36.2 525.0,36.0 526.3,35.7 527.6,35.7 528.9,35.6 530.1,35.5 531.4,35.3 532.7,35.2 534.0,35.0 535.3,34.7 536.6,34.6 537.9,34.4 539.1,34.3 540.4,34.2 541.7,34.0 543.0,33.8 544.3,33.6 545.6,33.4 546.9,33.3 548.1,33.0 549.4,32.8 550.7,32.7 552.0,32.4 553.3,32.3 554.6,32.1 555.9,31.9 557.1,31.7 558.4,31.5 559.7,31.4 561.0,31.2 562.3,31.1 563.6,30.9 564.9,30.7 566.1,30.6 567.4,30.4 568.7,30.2 570.0,30.0 570.0,30.0,120" />
  
  <!-- Linea principale -->
  <polyline fill="none" stroke="#0366d6" stroke-width="2.5" stroke-linecap="round" stroke-linejoin="round" points="30.0,120.0 31.3,119.5 32.6,119.0 33.9,118.5 35.1,118.4 36.4,118.2 37.7,117.6 39.0,117.3 40.3,117.0 41.6,116.4 42.9,116.1 44.1,115.9 45.4,115.7 46.7,115.4 48.0,115.0 49.3,114.6 50.6,114.3 51.9,114.1 53.1,113.9 54.4,113.7 55.7,113.4 57.0,113.1 58.3,113.0 59.6,112.7 60.9,111.8 62.1,111.6 63.4,111.2 64.7,110.8 66.0,110.5 67.3,110.2 68.6,110.0 69.9,109.9 71.1,109.6 72.4,109.2 73.7,108.8 75.0,108.6 76.3,108.3 77.6,108.2 78.9,108.1 80.1,107.9 81.4,107.6 82.7,107.5 84.0,107.3 85.3,107.0 86.6,106.5 87.9,106.4 89.1,106.3 90.4,106.1 91.7,105.7 93.0,105.5 94.3,105.1 95.6,104.8 96.9,104.4 98.1,104.4 99.4,104.2 100.7,103.8 102.0,103.4 103.3,103.2 104.6,103.0 105.9,102.8 107.1,102.7 108.4,102.3 109.7,101.9 111.0,101.6 112.3,101.2 113.6,101.1 114.9,101.0 116.1,100.8 117.4,100.5 118.7,100.3 120.0,100.2 121.3,100.1 122.6,99.9 123.9,99.7 125.1,99.6 126.4,99.5 127.7,99.4 129.0,99.1 130.3,98.9 131.6,98.8 132.9,98.7 134.1,98.6 135.4,98.6 136.7,104.7 138.0,104.1 139.3,103.6 140.6,103.0 141.9,101.3 143.1,100.2 144.4,98.9 145.7,98.4 147.0,97.9 148.3,97.1 149.6,96.1 150.9,95.4 152.1,95.2 153.4,94.9 154.7,94.3 156.0,93.8 157.3,93.5 158.6,93.1 159.9,92.9 161.1,92.8 162.4,92.5 163.7,91.9 165.0,91.5 166.3,91.1 167.6,90.6 168.9,90.4 170.1,90.2 171.4,89.9 172.7,89.5 174.0,89.2 175.3,88.9 176.6,88.8 177.9,88.7 179.1,88.5 180.4,88.2 181.7,87.9 183.0,87.7 184.3,87.5 185.6,87.4 186.9,87.2 188.1,87.0 189.4,86.9 190.7,86.7 192.0,86.4 193.3,86.2 194.6,85.9 195.9,85.8 197.1,85.6 198.4,85.5 199.7,85.3 201.0,85.2 202.3,84.7 203.6,84.4 204.9,84.1 206.1,83.9 207.4,83.9 208.7,83.7 210.0,83.5 211.3,83.3 212.6,83.1 213.9,82.8 215.1,82.6 216.4,82.5 217.7,82.4 219.0,82.3 220.3,82.1 221.6,82.0 222.9,81.8 224.1,81.5 225.4,81.4 226.7,81.3 228.0,81.2 229.3,81.1 230.6,80.9 231.9,80.7 233.1,80.5 234.4,80.3 235.7,80.1 237.0,80.0 238.3,79.9 239.6,79.8 240.9,79.5 242.1,79.2 243.4,79.0 244.7,78.8 246.0,78.5 247.3,78.4 248.6,78.3 249.9,78.2 251.1,78.1 252.4,77.9 253.7,77.7 255.0,77.6 256.3,77.4 257.6,77.3 258.9,77.2 260.1,77.0 261.4,77.0 262.7,76.8 264.0,76.6 265.3,76.5 266.6,76.3 267.9,76.2 269.1,76.0 270.4,75.9 271.7,75.8 273.0,75.7 274.3,75.5 275.6,75.3 276.9,75.0 278.1,74.8 279.4,74.7 280.7,74.6 282.0,74.5 283.3,74.4 284.6,74.1 285.9,74.0 287.1,73.9 288.4,73.7 289.7,73.6 291.0,73.4 292.3,73.3 293.6,73.2 294.9,73.0 296.1,72.8 297.4,72.6 298.7,72.4 300.0,72.3 301.3,72.3 302.6,72.2 303.9,72.1 305.1,71.9 306.4,71.8 307.7,71.6 309.0,71.5 310.3,71.4 311.6,71.3 312.9,71.1 314.1,71.0 315.4,70.8 316.7,70.6 318.0,70.5 319.3,70.3 320.6,70.2 321.9,70.1 323.1,70.0 324.4,69.9 325.7,69.9 327.0,69.7 328.3,69.5 329.6,69.4 330.9,69.2 332.1,69.1 333.4,69.0 334.7,68.9 336.0,68.7 337.3,68.6 338.6,68.5 339.9,68.4 341.1,68.2 342.4,68.1 343.7,67.9 345.0,67.9 346.3,67.8 347.6,67.7 348.9,67.6 350.1,67.4 351.4,67.3 352.7,67.3 354.0,67.2 355.3,66.9 356.6,66.7 357.9,70.7 359.1,69.9 360.4,68.4 361.7,67.8 363.0,67.1 364.3,66.2 365.6,65.8 366.9,65.4 368.1,64.9 369.4,64.0 370.7,63.4 372.0,63.2 373.3,62.8 374.6,62.6 375.9,62.1 377.1,61.7 378.4,61.2 379.7,61.0 381.0,60.5 382.3,60.3 383.6,60.0 384.9,59.8 386.1,59.6 387.4,59.4 388.7,58.9 390.0,58.6 391.3,58.2 392.6,57.7 393.9,57.3 395.1,57.2 396.4,57.0 397.7,56.8 399.0,56.4 400.3,56.1 401.6,55.9 402.9,55.0 404.1,54.4 405.4,54.1 406.7,53.9 408.0,53.7 409.3,53.3 410.6,52.9 411.9,52.6 413.1,52.3 414.4,52.0 415.7,51.8 417.0,51.5 418.3,51.1 419.6,50.9 420.9,50.8 422.1,50.6 423.4,50.2 424.7,50.0 426.0,49.8 427.3,49.6 428.6,49.5 429.9,49.2 431.1,49.1 432.4,48.9 433.7,48.7 435.0,48.6 436.3,48.4 437.6,48.2 438.9,48.0 440.1,47.7 441.4,47.3 442.7,47.1 444.0,46.9 445.3,46.8 446.6,46.6 447.9,46.4 449.1,46.3 450.4,46.1 451.7,46.0 453.0,45.9 454.3,45.7 455.6,45.6 456.9,45.3 458.1,45.2 459.4,45.0 460.7,44.8 462.0,44.5 463.3,44.2 464.6,44.0 465.9,43.8 467.1,43.6 468.4,43.4 469.7,43.2 471.0,42.9 472.3,42.8 473.6,42.7 474.9,42.5 476.1,42.3 477.4,42.1 478.7,42.0 480.0,41.9 481.3,41.6 482.6,41.4 483.9,41.2 485.1,41.0 486.4,40.8 487.7,40.5 489.0,40.3 490.3,40.2 491.6,40.0 492.9,39.9 494.1,39.7 495.4,39.6 496.7,39.4 498.0,39.2 499.3,39.1 500.6,38.9 501.9,38.8 503.1,38.6 504.4,38.5 505.7,38.3 507.0,38.2 508.3,38.1 509.6,37.9 510.9,37.8 512.1,37.6 513.4,37.5 514.7,37.4 516.0,37.2 517.3,37.0 518.6,36.8 519.9,36.7 521.1,36.6 522.4,36.4 523.7,36.2 525.0,36.0 526.3,35.7 527.6,35.7 528.9,35.6 530.1,35.5 531.4,35.3 532.7,35.2 534.0,35.0 535.3,34.7 536.6,34.6 537.9,34.4 539.1,34.3 540.4,34.2 541.7,34.0 543.0,33.8 544.3,33.6 545.6,33.4 546.9,33.3 548.1,33.0 549.4,32.8 550.7,32.7 552.0,32.4 553.3,32.3 554.6,32.1 555.9,31.9 557.1,31.7 558.4,31.5 559.7,31.4 561.0,31.2 562.3,31.1 563.6,30.9 564.9,30.7 566.1,30.6 567.4,30.4 568.7,30.2 570.0,30.0" />
  
  <!-- Punto finale luminoso -->
  <circle cx="570.0" cy="30.0" r="4" fill="#ffffff" stroke="#0366d6" stroke-width="2.5" />
</svg>