<svg width="600" height="150" viewBox="0 0 600 150" xmlns="http://www.w3.org/2000/svg">
  <defs>
    <filter id="shadow2" x="-2%" y="-2%" width="104%" height="108%">
      <feDropShadow dx="0" dy="2" stdDeviation="3" flood-opacity="0.1" />
    </filter>
    <linearGradient id="fillGrad" x1="0" y1="0" x2="0" y2="1">
      <stop offset="0%" stop-color="#0366d6" stop-opacity="0.3"/>
      <stop offset="100%" stop-color="#0366d6" stop-opacity="0.02"/>
    </linearGradient>
  </defs>
  <rect width="600" height="150" rx="12" fill="#ffffff" filter="url(#shadow2)" stroke="#e1e4e8" stroke-width="1"/>
  <text x="20" y="24" fill="#2b3137" font-family="-apple-system,BlinkMacSystemFont,'Segoe UI',Helvetica,Arial,sans-serif" font-size="14" font-weight="600">📈 Download Growth (Actual: 81.6k)</text>
  
  <!-- Area sotto la linea -->
  <polygon fill="url(#fillGrad)" points="30.0,120.0,120 30.0,120.0 31.9,119.3 33.8,118.6 35.7,117.9 37.6,117.8 39.4,117.4 41.3,116.6 43.2,116.1 45.1,115.7 47.0,114.9 48.9,114.5 50.8,114.1 52.7,113.9 54.5,113.5 56.4,112.9 58.3,112.4 60.2,111.9 62.1,111.6 64.0,111.4 65.9,111.0 67.8,110.6 69.7,110.2 71.5,110.0 73.4,109.7 75.3,108.4 77.2,108.0 79.1,107.5 81.0,107.0 82.9,106.5 84.8,106.1 86.6,105.8 88.5,105.6 90.4,105.2 92.3,104.6 94.2,104.1 96.1,103.7 98.0,103.3 99.9,103.2 101.7,103.0 103.6,102.8 105.5,102.4 107.4,102.2 109.3,102.0 111.2,101.5 113.1,100.8 115.0,100.7 116.9,100.5 118.7,100.3 120.6,99.7 122.5,99.3 124.4,98.8 126.3,98.4 128.2,97.9 130.1,97.7 132.0,97.4 133.8,96.9 135.7,96.4 137.6,96.0 139.5,95.8 141.4,95.6 143.3,95.3 145.2,94.8 147.1,94.2 149.0,93.7 150.8,93.3 152.7,93.0 154.6,92.9 156.5,92.7 158.4,92.3 160.3,92.0 162.2,91.8 164.1,91.6 165.9,91.4 167.8,91.1 169.7,91.0 171.6,90.8 173.5,90.7 175.4,90.2 177.3,89.9 179.2,89.8 181.0,89.6 182.9,89.5 184.8,89.5 186.7,98.2 188.6,97.4 190.5,96.6 192.4,95.8 194.3,93.4 196.2,91.7 198.0,90.0 199.9,89.3 201.8,88.6 203.7,87.3 205.6,86.0 207.5,85.0 209.4,84.7 211.3,84.3 213.1,83.4 215.0,82.7 216.9,82.2 218.8,81.6 220.7,81.4 222.6,81.3 224.5,80.8 226.4,80.0 228.3,79.4 230.1,78.8 232.0,78.2 233.9,77.9 235.8,77.6 237.7,77.1 239.6,76.6 241.5,76.1 243.4,75.7 245.2,75.5 247.1,75.4 249.0,75.1 250.9,74.7 252.8,74.4 254.7,74.0 256.6,73.8 258.5,73.5 260.3,73.3 262.2,73.1 264.1,72.9 266.0,72.6 267.9,72.2 269.8,71.8 271.7,71.5 273.6,71.2 275.5,71.0 277.3,70.8 279.2,70.6 281.1,70.4 283.0,69.8 284.9,69.3 286.8,68.8 288.7,68.6 290.6,68.6 292.4,68.3 294.3,68.0 296.2,67.7 298.1,67.4 300.0,67.0 301.9,66.8 303.8,66.6 305.7,66.4 307.6,66.3 309.4,66.1 311.3,65.8 313.2,65.6 315.1,65.2 317.0,65.1 318.9,64.9 320.8,64.8 322.7,64.6 324.5,64.3 326.4,64.0 328.3,63.7 330.2,63.5 332.1,63.2 334.0,63.0 335.9,62.9 337.8,62.7 339.7,62.3 341.5,61.9 343.4,61.7 345.3,61.4 347.2,60.9 349.1,60.8 351.0,60.7 352.9,60.5 354.8,60.3 356.6,60.1 358.5,59.8 360.4,59.6 362.3,59.4 364.2,59.2 366.1,59.0 368.0,58.8 369.9,58.7 371.7,58.5 373.6,58.1 375.5,58.0 377.4,57.7 379.3,57.6 381.2,57.4 383.1,57.2 385.0,57.1 386.9,56.9 388.7,56.7 390.6,56.3 392.5,55.9 394.4,55.6 396.3,55.4 398.2,55.3 400.1,55.3 402.0,55.0 403.8,54.6 405.7,54.5 407.6,54.3 409.5,54.1 411.4,53.9 413.3,53.6 415.2,53.5 417.1,53.4 419.0,53.0 420.8,52.8 422.7,52.5 424.6,52.3 426.5,52.1 428.4,52.1 430.3,52.0 432.2,51.8 434.1,51.6 435.9,51.3 437.8,51.1 439.7,50.9 441.6,50.8 443.5,50.6 445.4,50.4 447.3,50.3 449.2,50.0 451.0,49.7 452.9,49.5 454.8,49.2 456.7,49.1 458.6,49.0 460.5,48.8 462.4,48.7 464.3,48.6 466.2,48.4 468.0,48.1 469.9,47.9 471.8,47.7 473.7,47.6 475.6,47.4 477.5,47.2 479.4,47.0 481.3,46.8 483.1,46.7 485.0,46.5 486.9,46.3 488.8,46.1 490.7,45.8 492.6,45.7 494.5,45.6 496.4,45.5 498.3,45.3 500.1,45.1 502.0,45.0 503.9,44.9 505.8,44.7 507.7,44.3 509.6,44.1 511.5,49.8 513.4,48.6 515.2,46.5 517.1,45.7 519.0,44.7 520.9,43.4 522.8,42.8 524.7,42.3 526.6,41.5 528.5,40.3 530.3,39.3 532.2,39.1 534.1,38.6 536.0,38.2 537.9,37.6 539.8,37.0 541.7,36.3 543.6,35.9 545.5,35.3 547.3,35.0 549.2,34.6 551.1,34.3 553.0,34.0 554.9,33.7 556.8,33.0 558.7,32.6 560.6,32.0 562.4,31.3 564.3,30.8 566.2,30.5 568.1,30.3 570.0,30.0 570.0,30.0,120" />
  
  <!-- Linea principale -->
  <polyline fill="none" stroke="#0366d6" stroke-width="2.5" stroke-linecap="round" stroke-linejoin="round" points="30.0,120.0 31.9,119.3 33.8,118.6 35.7,117.9 37.6,117.8 39.4,117.4 41.3,116.6 43.2,116.1 45.1,115.7 47.0,114.9 48.9,114.5 50.8,114.1 52.7,113.9 54.5,113.5 56.4,112.9 58.3,112.4 60.2,111.9 62.1,111.6 64.0,111.4 65.9,111.0 67.8,110.6 69.7,110.2 71.5,110.0 73.4,109.7 75.3,108.4 77.2,108.0 79.1,107.5 81.0,107.0 82.9,106.5 84.8,106.1 86.6,105.8 88.5,105.6 90.4,105.2 92.3,104.6 94.2,104.1 96.1,103.7 98.0,103.3 99.9,103.2 101.7,103.0 103.6,102.8 105.5,102.4 107.4,102.2 109.3,102.0 111.2,101.5 113.1,100.8 115.0,100.7 116.9,100.5 118.7,100.3 120.6,99.7 122.5,99.3 124.4,98.8 126.3,98.4 128.2,97.9 130.1,97.7 132.0,97.4 133.8,96.9 135.7,96.4 137.6,96.0 139.5,95.8 141.4,95.6 143.3,95.3 145.2,94.8 147.1,94.2 149.0,93.7 150.8,93.3 152.7,93.0 154.6,92.9 156.5,92.7 158.4,92.3 160.3,92.0 162.2,91.8 164.1,91.6 165.9,91.4 167.8,91.1 169.7,91.0 171.6,90.8 173.5,90.7 175.4,90.2 177.3,89.9 179.2,89.8 181.0,89.6 182.9,89.5 184.8,89.5 186.7,98.2 188.6,97.4 190.5,96.6 192.4,95.8 194.3,93.4 196.2,91.7 198.0,90.0 199.9,89.3 201.8,88.6 203.7,87.3 205.6,86.0 207.5,85.0 209.4,84.7 211.3,84.3 213.1,83.4 215.0,82.7 216.9,82.2 218.8,81.6 220.7,81.4 222.6,81.3 224.5,80.8 226.4,80.0 228.3,79.4 230.1,78.8 232.0,78.2 233.9,77.9 235.8,77.6 237.7,77.1 239.6,76.6 241.5,76.1 243.4,75.7 245.2,75.5 247.1,75.4 249.0,75.1 250.9,74.7 252.8,74.4 254.7,74.0 256.6,73.8 258.5,73.5 260.3,73.3 262.2,73.1 264.1,72.9 266.0,72.6 267.9,72.2 269.8,71.8 271.7,71.5 273.6,71.2 275.5,71.0 277.3,70.8 279.2,70.6 281.1,70.4 283.0,69.8 284.9,69.3 286.8,68.8 288.7,68.6 290.6,68.6 292.4,68.3 294.3,68.0 296.2,67.7 298.1,67.4 300.0,67.0 301.9,66.8 303.8,66.6 305.7,66.4 307.6,66.3 309.4,66.1 311.3,65.8 313.2,65.6 315.1,65.2 317.0,65.1 318.9,64.9 320.8,64.8 322.7,64.6 324.5,64.3 326.4,64.0 328.3,63.7 330.2,63.5 332.1,63.2 334.0,63.0 335.9,62.9 337.8,62.7 339.7,62.3 341.5,61.9 343.4,61.7 345.3,61.4 347.2,60.9 349.1,60.8 351.0,60.7 352.9,60.5 354.8,60.3 356.6,60.1 358.5,59.8 360.4,59.6 362.3,59.4 364.2,59.2 366.1,59.0 368.0,58.8 369.9,58.7 371.7,58.5 373.6,58.1 375.5,58.0 377.4,57.7 379.3,57.6 381.2,57.4 383.1,57.2 385.0,57.1 386.9,56.9 388.7,56.7 390.6,56.3 392.5,55.9 394.4,55.6 396.3,55.4 398.2,55.3 400.1,55.3 402.0,55.0 403.8,54.6 405.7,54.5 407.6,54.3 409.5,54.1 411.4,53.9 413.3,53.6 415.2,53.5 417.1,53.4 419.0,53.0 420.8,52.8 422.7,52.5 424.6,52.3 426.5,52.1 428.4,52.1 430.3,52.0 432.2,51.8 434.1,51.6 435.9,51.3 437.8,51.1 439.7,50.9 441.6,50.8 443.5,50.6 445.4,50.4 447.3,50.3 449.2,50.0 451.0,49.7 452.9,49.5 454.8,49.2 456.7,49.1 458.6,49.0 460.5,48.8 462.4,48.7 464.3,48.6 466.2,48.4 468.0,48.1 469.9,47.9 471.8,47.7 473.7,47.6 475.6,47.4 477.5,47.2 479.4,47.0 481.3,46.8 483.1,46.7 485.0,46.5 486.9,46.3 488.8,46.1 490.7,45.8 492.6,45.7 494.5,45.6 496.4,45.5 498.3,45.3 500.1,45.1 502.0,45.0 503.9,44.9 505.8,44.7 507.7,44.3 509.6,44.1 511.5,49.8 513.4,48.6 515.2,46.5 517.1,45.7 519.0,44.7 520.9,43.4 522.8,42.8 524.7,42.3 526.6,41.5 528.5,40.3 530.3,39.3 532.2,39.1 534.1,38.6 536.0,38.2 537.9,37.6 539.8,37.0 541.7,36.3 543.6,35.9 545.5,35.3 547.3,35.0 549.2,34.6 551.1,34.3 553.0,34.0 554.9,33.7 556.8,33.0 558.7,32.6 560.6,32.0 562.4,31.3 564.3,30.8 566.2,30.5 568.1,30.3 570.0,30.0" />
  
  <!-- Punto finale luminoso -->
  <circle cx="570.0" cy="30.0" r="4" fill="#ffffff" stroke="#0366d6" stroke-width="2.5" />
</svg>