<svg width="600" height="150" viewBox="0 0 600 150" xmlns="http://www.w3.org/2000/svg">
  <defs>
    <filter id="shadow2" x="-2%" y="-2%" width="104%" height="108%">
      <feDropShadow dx="0" dy="2" stdDeviation="3" flood-opacity="0.1" />
    </filter>
    <linearGradient id="fillGrad" x1="0" y1="0" x2="0" y2="1">
      <stop offset="0%" stop-color="#0366d6" stop-opacity="0.3"/>
      <stop offset="100%" stop-color="#0366d6" stop-opacity="0.02"/>
    </linearGradient>
  </defs>
  <rect width="600" height="150" rx="12" fill="#ffffff" filter="url(#shadow2)" stroke="#e1e4e8" stroke-width="1"/>
  <text x="20" y="24" fill="#2b3137" font-family="-apple-system,BlinkMacSystemFont,'Segoe UI',Helvetica,Arial,sans-serif" font-size="14" font-weight="600">📈 Download Growth (Actual: 80.2k)</text>
  
  <!-- Area sotto la linea -->
  <polygon fill="url(#fillGrad)" points="30.0,120.0,120 30.0,120.0 32.0,119.2 34.0,118.4 36.1,117.7 38.1,117.5 40.1,117.1 42.1,116.3 44.2,115.7 46.2,115.3 48.2,114.4 50.2,113.9 52.2,113.5 54.3,113.2 56.3,112.8 58.3,112.2 60.3,111.5 62.4,111.0 64.4,110.7 66.4,110.5 68.4,110.1 70.4,109.6 72.5,109.2 74.5,109.0 76.5,108.6 78.5,107.1 80.6,106.7 82.6,106.2 84.6,105.6 86.6,105.1 88.7,104.6 90.7,104.3 92.7,104.1 94.7,103.7 96.7,103.0 98.8,102.4 100.8,102.0 102.8,101.5 104.8,101.4 106.9,101.3 108.9,101.0 110.9,100.5 112.9,100.3 114.9,100.1 117.0,99.6 119.0,98.8 121.0,98.6 123.0,98.5 125.1,98.2 127.1,97.6 129.1,97.2 131.1,96.5 133.1,96.1 135.2,95.5 137.2,95.4 139.2,95.1 141.2,94.5 143.3,93.9 145.3,93.5 147.3,93.3 149.3,93.0 151.3,92.7 153.4,92.1 155.4,91.5 157.4,91.0 159.4,90.4 161.5,90.2 163.5,90.0 165.5,89.8 167.5,89.4 169.6,89.1 171.6,88.8 173.6,88.6 175.6,88.4 177.6,88.1 179.7,87.9 181.7,87.8 183.7,87.6 185.7,87.0 187.8,86.7 189.8,86.6 191.8,86.4 193.8,86.3 195.8,86.3 197.9,95.9 199.9,95.0 201.9,94.1 203.9,93.2 206.0,90.6 208.0,88.8 210.0,86.8 212.0,86.1 214.0,85.2 216.1,83.9 218.1,82.4 220.1,81.3 222.1,80.9 224.2,80.5 226.2,79.5 228.2,78.7 230.2,78.2 232.2,77.6 234.3,77.3 236.3,77.2 238.3,76.7 240.3,75.8 242.4,75.1 244.4,74.5 246.4,73.8 248.4,73.4 250.4,73.2 252.5,72.5 254.5,72.0 256.5,71.4 258.5,71.0 260.6,70.8 262.6,70.7 264.6,70.4 266.6,69.9 268.7,69.5 270.7,69.2 272.7,68.9 274.7,68.6 276.7,68.4 278.8,68.1 280.8,67.9 282.8,67.6 284.8,67.1 286.9,66.8 288.9,66.3 290.9,66.1 292.9,65.8 294.9,65.6 297.0,65.4 299.0,65.2 301.0,64.5 303.0,64.0 305.1,63.4 307.1,63.2 309.1,63.1 311.1,62.9 313.1,62.6 315.2,62.2 317.2,61.9 319.2,61.4 321.2,61.1 323.3,61.0 325.3,60.8 327.3,60.6 329.3,60.4 331.3,60.1 333.4,59.9 335.4,59.5 337.4,59.3 339.4,59.1 341.5,58.9 343.5,58.8 345.5,58.4 347.5,58.1 349.6,57.8 351.6,57.5 353.6,57.2 355.6,57.0 357.6,56.9 359.7,56.6 361.7,56.2 363.7,55.8 365.7,55.5 367.8,55.2 369.8,54.7 371.8,54.6 373.8,54.4 375.8,54.2 377.9,54.0 379.9,53.7 381.9,53.5 383.9,53.3 386.0,53.0 388.0,52.8 390.0,52.6 392.0,52.4 394.0,52.3 396.1,52.0 398.1,51.6 400.1,51.4 402.1,51.1 404.2,51.0 406.2,50.8 408.2,50.6 410.2,50.4 412.2,50.2 414.3,50.0 416.3,49.6 418.3,49.1 420.3,48.9 422.4,48.6 424.4,48.5 426.4,48.4 428.4,48.1 430.4,47.7 432.5,47.6 434.5,47.4 436.5,47.1 438.5,46.9 440.6,46.6 442.6,46.5 444.6,46.3 446.6,46.0 448.7,45.7 450.7,45.4 452.7,45.1 454.7,45.0 456.7,44.9 458.8,44.8 460.8,44.6 462.8,44.3 464.8,44.1 466.9,43.9 468.9,43.6 470.9,43.4 472.9,43.3 474.9,43.1 477.0,42.9 479.0,42.6 481.0,42.3 483.0,42.0 485.1,41.8 487.1,41.6 489.1,41.5 491.1,41.3 493.1,41.2 495.2,41.1 497.2,40.8 499.2,40.5 501.2,40.3 503.3,40.1 505.3,39.9 507.3,39.7 509.3,39.5 511.3,39.3 513.4,39.1 515.4,38.9 517.4,38.7 519.4,38.5 521.5,38.3 523.5,38.0 525.5,37.9 527.5,37.8 529.6,37.6 531.6,37.4 533.6,37.2 535.6,37.1 537.6,37.0 539.7,36.8 541.7,36.4 543.7,36.0 545.7,42.4 547.8,41.1 549.8,38.7 551.8,37.8 553.8,36.7 555.8,35.4 557.9,34.6 559.9,34.1 561.9,33.2 563.9,31.9 566.0,30.8 568.0,30.5 570.0,30.0 570.0,30.0,120" />
  
  <!-- Linea principale -->
  <polyline fill="none" stroke="#0366d6" stroke-width="2.5" stroke-linecap="round" stroke-linejoin="round" points="30.0,120.0 32.0,119.2 34.0,118.4 36.1,117.7 38.1,117.5 40.1,117.1 42.1,116.3 44.2,115.7 46.2,115.3 48.2,114.4 50.2,113.9 52.2,113.5 54.3,113.2 56.3,112.8 58.3,112.2 60.3,111.5 62.4,111.0 64.4,110.7 66.4,110.5 68.4,110.1 70.4,109.6 72.5,109.2 74.5,109.0 76.5,108.6 78.5,107.1 80.6,106.7 82.6,106.2 84.6,105.6 86.6,105.1 88.7,104.6 90.7,104.3 92.7,104.1 94.7,103.7 96.7,103.0 98.8,102.4 100.8,102.0 102.8,101.5 104.8,101.4 106.9,101.3 108.9,101.0 110.9,100.5 112.9,100.3 114.9,100.1 117.0,99.6 119.0,98.8 121.0,98.6 123.0,98.5 125.1,98.2 127.1,97.6 129.1,97.2 131.1,96.5 133.1,96.1 135.2,95.5 137.2,95.4 139.2,95.1 141.2,94.5 143.3,93.9 145.3,93.5 147.3,93.3 149.3,93.0 151.3,92.7 153.4,92.1 155.4,91.5 157.4,91.0 159.4,90.4 161.5,90.2 163.5,90.0 165.5,89.8 167.5,89.4 169.6,89.1 171.6,88.8 173.6,88.6 175.6,88.4 177.6,88.1 179.7,87.9 181.7,87.8 183.7,87.6 185.7,87.0 187.8,86.7 189.8,86.6 191.8,86.4 193.8,86.3 195.8,86.3 197.9,95.9 199.9,95.0 201.9,94.1 203.9,93.2 206.0,90.6 208.0,88.8 210.0,86.8 212.0,86.1 214.0,85.2 216.1,83.9 218.1,82.4 220.1,81.3 222.1,80.9 224.2,80.5 226.2,79.5 228.2,78.7 230.2,78.2 232.2,77.6 234.3,77.3 236.3,77.2 238.3,76.7 240.3,75.8 242.4,75.1 244.4,74.5 246.4,73.8 248.4,73.4 250.4,73.2 252.5,72.5 254.5,72.0 256.5,71.4 258.5,71.0 260.6,70.8 262.6,70.7 264.6,70.4 266.6,69.9 268.7,69.5 270.7,69.2 272.7,68.9 274.7,68.6 276.7,68.4 278.8,68.1 280.8,67.9 282.8,67.6 284.8,67.1 286.9,66.8 288.9,66.3 290.9,66.1 292.9,65.8 294.9,65.6 297.0,65.4 299.0,65.2 301.0,64.5 303.0,64.0 305.1,63.4 307.1,63.2 309.1,63.1 311.1,62.9 313.1,62.6 315.2,62.2 317.2,61.9 319.2,61.4 321.2,61.1 323.3,61.0 325.3,60.8 327.3,60.6 329.3,60.4 331.3,60.1 333.4,59.9 335.4,59.5 337.4,59.3 339.4,59.1 341.5,58.9 343.5,58.8 345.5,58.4 347.5,58.1 349.6,57.8 351.6,57.5 353.6,57.2 355.6,57.0 357.6,56.9 359.7,56.6 361.7,56.2 363.7,55.8 365.7,55.5 367.8,55.2 369.8,54.7 371.8,54.6 373.8,54.4 375.8,54.2 377.9,54.0 379.9,53.7 381.9,53.5 383.9,53.3 386.0,53.0 388.0,52.8 390.0,52.6 392.0,52.4 394.0,52.3 396.1,52.0 398.1,51.6 400.1,51.4 402.1,51.1 404.2,51.0 406.2,50.8 408.2,50.6 410.2,50.4 412.2,50.2 414.3,50.0 416.3,49.6 418.3,49.1 420.3,48.9 422.4,48.6 424.4,48.5 426.4,48.4 428.4,48.1 430.4,47.7 432.5,47.6 434.5,47.4 436.5,47.1 438.5,46.9 440.6,46.6 442.6,46.5 444.6,46.3 446.6,46.0 448.7,45.7 450.7,45.4 452.7,45.1 454.7,45.0 456.7,44.9 458.8,44.8 460.8,44.6 462.8,44.3 464.8,44.1 466.9,43.9 468.9,43.6 470.9,43.4 472.9,43.3 474.9,43.1 477.0,42.9 479.0,42.6 481.0,42.3 483.0,42.0 485.1,41.8 487.1,41.6 489.1,41.5 491.1,41.3 493.1,41.2 495.2,41.1 497.2,40.8 499.2,40.5 501.2,40.3 503.3,40.1 505.3,39.9 507.3,39.7 509.3,39.5 511.3,39.3 513.4,39.1 515.4,38.9 517.4,38.7 519.4,38.5 521.5,38.3 523.5,38.0 525.5,37.9 527.5,37.8 529.6,37.6 531.6,37.4 533.6,37.2 535.6,37.1 537.6,37.0 539.7,36.8 541.7,36.4 543.7,36.0 545.7,42.4 547.8,41.1 549.8,38.7 551.8,37.8 553.8,36.7 555.8,35.4 557.9,34.6 559.9,34.1 561.9,33.2 563.9,31.9 566.0,30.8 568.0,30.5 570.0,30.0" />
  
  <!-- Punto finale luminoso -->
  <circle cx="570.0" cy="30.0" r="4" fill="#ffffff" stroke="#0366d6" stroke-width="2.5" />
</svg>