<svg width="600" height="150" viewBox="0 0 600 150" xmlns="http://www.w3.org/2000/svg">
  <defs>
    <filter id="shadow2" x="-2%" y="-2%" width="104%" height="108%">
      <feDropShadow dx="0" dy="2" stdDeviation="3" flood-opacity="0.1" />
    </filter>
    <linearGradient id="fillGrad" x1="0" y1="0" x2="0" y2="1">
      <stop offset="0%" stop-color="#0366d6" stop-opacity="0.3"/>
      <stop offset="100%" stop-color="#0366d6" stop-opacity="0.02"/>
    </linearGradient>
  </defs>
  <rect width="600" height="150" rx="12" fill="#ffffff" filter="url(#shadow2)" stroke="#e1e4e8" stroke-width="1"/>
  <text x="20" y="24" fill="#2b3137" font-family="-apple-system,BlinkMacSystemFont,'Segoe UI',Helvetica,Arial,sans-serif" font-size="14" font-weight="600">📈 Download Growth (Actual: 77.5k)</text>
  
  <!-- Area sotto la linea -->
  <polygon fill="url(#fillGrad)" points="30.0,120.0,120 30.0,120.0 32.7,119.1 35.5,118.0 38.2,117.1 41.0,116.9 43.7,116.4 46.4,115.3 49.2,114.6 51.9,114.1 54.7,113.0 57.4,112.4 60.2,111.8 62.9,111.5 65.6,111.0 68.4,110.2 71.1,109.4 73.9,108.8 76.6,108.4 79.3,108.1 82.1,107.6 84.8,107.0 87.6,106.4 90.3,106.2 93.0,105.7 95.8,103.9 98.5,103.4 101.3,102.7 104.0,102.0 106.8,101.3 109.5,100.7 112.2,100.4 115.0,100.1 117.7,99.6 120.5,98.7 123.2,97.9 125.9,97.4 128.7,96.8 131.4,96.7 134.2,96.5 136.9,96.2 139.6,95.6 142.4,95.3 145.1,95.1 147.9,94.4 150.6,93.4 153.4,93.2 156.1,93.0 158.8,92.7 161.6,91.9 164.3,91.4 167.1,90.6 169.8,90.0 172.5,89.3 175.3,89.2 178.0,88.8 180.8,88.1 183.5,87.3 186.2,86.8 189.0,86.5 191.7,86.2 194.5,85.9 197.2,85.1 199.9,84.3 202.7,83.6 205.4,83.0 208.2,82.6 210.9,82.4 213.7,82.2 216.4,81.6 219.1,81.3 221.9,80.9 224.6,80.7 227.4,80.4 230.1,80.0 232.8,79.8 235.6,79.6 238.3,79.4 241.1,78.7 243.8,78.3 246.5,78.2 249.3,77.9 252.0,77.8 254.8,77.8 257.5,89.8 260.3,88.7 263.0,87.6 265.7,86.5 268.5,83.2 271.2,80.9 274.0,78.4 276.7,77.5 279.4,76.5 282.2,74.8 284.9,72.9 287.7,71.6 290.4,71.1 293.1,70.6 295.9,69.3 298.6,68.3 301.4,67.7 304.1,66.9 306.9,66.6 309.6,66.4 312.3,65.7 315.1,64.6 317.8,63.8 320.6,63.0 323.3,62.1 326.0,61.7 328.8,61.3 331.5,60.6 334.3,59.9 337.0,59.2 339.7,58.7 342.5,58.4 345.2,58.2 348.0,57.8 350.7,57.2 353.5,56.8 356.2,56.4 358.9,56.0 361.7,55.7 364.4,55.3 367.2,55.0 369.9,54.7 372.6,54.4 375.4,53.8 378.1,53.3 380.9,52.8 383.6,52.5 386.3,52.1 389.1,51.9 391.8,51.6 394.6,51.3 397.3,50.4 400.1,49.9 402.8,49.1 405.5,48.8 408.3,48.8 411.0,48.4 413.8,48.0 416.5,47.6 419.2,47.2 422.0,46.6 424.7,46.3 427.5,46.1 430.2,45.8 432.9,45.6 435.7,45.4 438.4,45.0 441.2,44.7 443.9,44.2 446.6,43.9 449.4,43.8 452.1,43.5 454.9,43.3 457.6,42.9 460.4,42.5 463.1,42.1 465.8,41.7 468.6,41.4 471.3,41.1 474.1,40.9 476.8,40.6 479.5,40.1 482.3,39.6 485.0,39.2 487.8,38.9 490.5,38.2 493.2,38.0 496.0,37.8 498.7,37.7 501.5,37.3 504.2,37.0 507.0,36.7 509.7,36.4 512.4,36.1 515.2,35.8 517.9,35.5 520.7,35.3 523.4,35.2 526.1,34.8 528.9,34.4 531.6,34.1 534.4,33.8 537.1,33.6 539.8,33.3 542.6,33.0 545.3,32.8 548.1,32.6 550.8,32.3 553.6,31.8 556.3,31.2 559.0,30.9 561.8,30.6 564.5,30.5 567.3,30.3 570.0,30.0 570.0,30.0,120" />
  
  <!-- Linea principale -->
  <polyline fill="none" stroke="#0366d6" stroke-width="2.5" stroke-linecap="round" stroke-linejoin="round" points="30.0,120.0 32.7,119.1 35.5,118.0 38.2,117.1 41.0,116.9 43.7,116.4 46.4,115.3 49.2,114.6 51.9,114.1 54.7,113.0 57.4,112.4 60.2,111.8 62.9,111.5 65.6,111.0 68.4,110.2 71.1,109.4 73.9,108.8 76.6,108.4 79.3,108.1 82.1,107.6 84.8,107.0 87.6,106.4 90.3,106.2 93.0,105.7 95.8,103.9 98.5,103.4 101.3,102.7 104.0,102.0 106.8,101.3 109.5,100.7 112.2,100.4 115.0,100.1 117.7,99.6 120.5,98.7 123.2,97.9 125.9,97.4 128.7,96.8 131.4,96.7 134.2,96.5 136.9,96.2 139.6,95.6 142.4,95.3 145.1,95.1 147.9,94.4 150.6,93.4 153.4,93.2 156.1,93.0 158.8,92.7 161.6,91.9 164.3,91.4 167.1,90.6 169.8,90.0 172.5,89.3 175.3,89.2 178.0,88.8 180.8,88.1 183.5,87.3 186.2,86.8 189.0,86.5 191.7,86.2 194.5,85.9 197.2,85.1 199.9,84.3 202.7,83.6 205.4,83.0 208.2,82.6 210.9,82.4 213.7,82.2 216.4,81.6 219.1,81.3 221.9,80.9 224.6,80.7 227.4,80.4 230.1,80.0 232.8,79.8 235.6,79.6 238.3,79.4 241.1,78.7 243.8,78.3 246.5,78.2 249.3,77.9 252.0,77.8 254.8,77.8 257.5,89.8 260.3,88.7 263.0,87.6 265.7,86.5 268.5,83.2 271.2,80.9 274.0,78.4 276.7,77.5 279.4,76.5 282.2,74.8 284.9,72.9 287.7,71.6 290.4,71.1 293.1,70.6 295.9,69.3 298.6,68.3 301.4,67.7 304.1,66.9 306.9,66.6 309.6,66.4 312.3,65.7 315.1,64.6 317.8,63.8 320.6,63.0 323.3,62.1 326.0,61.7 328.8,61.3 331.5,60.6 334.3,59.9 337.0,59.2 339.7,58.7 342.5,58.4 345.2,58.2 348.0,57.8 350.7,57.2 353.5,56.8 356.2,56.4 358.9,56.0 361.7,55.7 364.4,55.3 367.2,55.0 369.9,54.7 372.6,54.4 375.4,53.8 378.1,53.3 380.9,52.8 383.6,52.5 386.3,52.1 389.1,51.9 391.8,51.6 394.6,51.3 397.3,50.4 400.1,49.9 402.8,49.1 405.5,48.8 408.3,48.8 411.0,48.4 413.8,48.0 416.5,47.6 419.2,47.2 422.0,46.6 424.7,46.3 427.5,46.1 430.2,45.8 432.9,45.6 435.7,45.4 438.4,45.0 441.2,44.7 443.9,44.2 446.6,43.9 449.4,43.8 452.1,43.5 454.9,43.3 457.6,42.9 460.4,42.5 463.1,42.1 465.8,41.7 468.6,41.4 471.3,41.1 474.1,40.9 476.8,40.6 479.5,40.1 482.3,39.6 485.0,39.2 487.8,38.9 490.5,38.2 493.2,38.0 496.0,37.8 498.7,37.7 501.5,37.3 504.2,37.0 507.0,36.7 509.7,36.4 512.4,36.1 515.2,35.8 517.9,35.5 520.7,35.3 523.4,35.2 526.1,34.8 528.9,34.4 531.6,34.1 534.4,33.8 537.1,33.6 539.8,33.3 542.6,33.0 545.3,32.8 548.1,32.6 550.8,32.3 553.6,31.8 556.3,31.2 559.0,30.9 561.8,30.6 564.5,30.5 567.3,30.3 570.0,30.0" />
  
  <!-- Punto finale luminoso -->
  <circle cx="570.0" cy="30.0" r="4" fill="#ffffff" stroke="#0366d6" stroke-width="2.5" />
</svg>