<svg width="600" height="150" viewBox="0 0 600 150" xmlns="http://www.w3.org/2000/svg">
  <defs>
    <filter id="shadow2" x="-2%" y="-2%" width="104%" height="108%">
      <feDropShadow dx="0" dy="2" stdDeviation="3" flood-opacity="0.1" />
    </filter>
    <linearGradient id="fillGrad" x1="0" y1="0" x2="0" y2="1">
      <stop offset="0%" stop-color="#0366d6" stop-opacity="0.3"/>
      <stop offset="100%" stop-color="#0366d6" stop-opacity="0.02"/>
    </linearGradient>
  </defs>
  <rect width="600" height="150" rx="12" fill="#ffffff" filter="url(#shadow2)" stroke="#e1e4e8" stroke-width="1"/>
  <text x="20" y="24" fill="#2b3137" font-family="-apple-system,BlinkMacSystemFont,'Segoe UI',Helvetica,Arial,sans-serif" font-size="14" font-weight="600">📈 Download Growth (Actual: 77.0k)</text>
  
  <!-- Area sotto la linea -->
  <polygon fill="url(#fillGrad)" points="30.0,120.0,120 30.0,120.0 33.0,119.0 35.9,117.9 38.9,117.0 41.8,116.7 44.8,116.2 47.7,115.1 50.7,114.3 53.6,113.8 56.6,112.6 59.5,112.0 62.5,111.4 65.4,111.1 68.4,110.5 71.3,109.7 74.3,108.9 77.2,108.2 80.2,107.8 83.1,107.5 86.1,107.0 89.0,106.3 92.0,105.8 94.9,105.5 97.9,105.0 100.8,103.1 103.8,102.6 106.7,101.8 109.7,101.1 112.6,100.4 115.6,99.8 118.5,99.4 121.5,99.1 124.4,98.6 127.4,97.7 130.3,96.9 133.3,96.4 136.2,95.7 139.2,95.5 142.1,95.4 145.1,95.1 148.0,94.5 151.0,94.1 153.9,93.9 156.9,93.2 159.8,92.2 162.8,91.9 165.7,91.7 168.7,91.3 171.6,90.5 174.6,90.0 177.5,89.2 180.5,88.6 183.4,87.9 186.4,87.7 189.3,87.3 192.3,86.5 195.2,85.8 198.2,85.2 201.1,84.9 204.1,84.5 207.0,84.2 210.0,83.4 213.0,82.6 215.9,81.9 218.9,81.2 221.8,80.8 224.8,80.6 227.7,80.3 230.7,79.8 233.6,79.4 236.6,79.1 239.5,78.8 242.5,78.5 245.4,78.1 248.4,77.8 251.3,77.7 254.3,77.5 257.2,76.7 260.2,76.3 263.1,76.1 266.1,75.9 269.0,75.7 272.0,75.7 274.9,88.4 277.9,87.1 280.8,86.0 283.8,84.8 286.7,81.4 289.7,79.0 292.6,76.4 295.6,75.4 298.5,74.4 301.5,72.6 304.4,70.7 307.4,69.2 310.3,68.7 313.3,68.2 316.2,66.8 319.2,65.8 322.1,65.2 325.1,64.3 328.0,64.0 331.0,63.9 333.9,63.1 336.9,61.9 339.8,61.1 342.8,60.3 345.7,59.3 348.7,58.8 351.6,58.5 354.6,57.7 357.5,57.0 360.5,56.3 363.4,55.7 366.4,55.4 369.3,55.3 372.3,54.8 375.2,54.2 378.2,53.7 381.1,53.3 384.1,52.9 387.0,52.6 390.0,52.2 393.0,51.9 395.9,51.6 398.9,51.3 401.8,50.6 404.8,50.1 407.7,49.5 410.7,49.2 413.6,48.8 416.6,48.6 419.5,48.3 422.5,48.0 425.4,47.1 428.4,46.5 431.3,45.7 434.3,45.4 437.2,45.3 440.2,45.0 443.1,44.6 446.1,44.1 449.0,43.7 452.0,43.1 454.9,42.7 457.9,42.5 460.8,42.3 463.8,42.0 466.7,41.7 469.7,41.4 472.6,41.1 475.6,40.5 478.5,40.3 481.5,40.1 484.4,39.8 487.4,39.6 490.3,39.2 493.3,38.8 496.2,38.3 499.2,38.0 502.1,37.6 505.1,37.3 508.0,37.1 511.0,36.8 513.9,36.2 516.9,35.7 519.8,35.3 522.8,34.9 525.7,34.2 528.7,34.1 531.6,33.9 534.6,33.7 537.5,33.3 540.5,33.0 543.4,32.6 546.4,32.4 549.3,32.0 552.3,31.8 555.2,31.5 558.2,31.2 561.1,31.1 564.1,30.7 567.0,30.2 570.0,30.0 570.0,30.0,120" />
  
  <!-- Linea principale -->
  <polyline fill="none" stroke="#0366d6" stroke-width="2.5" stroke-linecap="round" stroke-linejoin="round" points="30.0,120.0 33.0,119.0 35.9,117.9 38.9,117.0 41.8,116.7 44.8,116.2 47.7,115.1 50.7,114.3 53.6,113.8 56.6,112.6 59.5,112.0 62.5,111.4 65.4,111.1 68.4,110.5 71.3,109.7 74.3,108.9 77.2,108.2 80.2,107.8 83.1,107.5 86.1,107.0 89.0,106.3 92.0,105.8 94.9,105.5 97.9,105.0 100.8,103.1 103.8,102.6 106.7,101.8 109.7,101.1 112.6,100.4 115.6,99.8 118.5,99.4 121.5,99.1 124.4,98.6 127.4,97.7 130.3,96.9 133.3,96.4 136.2,95.7 139.2,95.5 142.1,95.4 145.1,95.1 148.0,94.5 151.0,94.1 153.9,93.9 156.9,93.2 159.8,92.2 162.8,91.9 165.7,91.7 168.7,91.3 171.6,90.5 174.6,90.0 177.5,89.2 180.5,88.6 183.4,87.9 186.4,87.7 189.3,87.3 192.3,86.5 195.2,85.8 198.2,85.2 201.1,84.9 204.1,84.5 207.0,84.2 210.0,83.4 213.0,82.6 215.9,81.9 218.9,81.2 221.8,80.8 224.8,80.6 227.7,80.3 230.7,79.8 233.6,79.4 236.6,79.1 239.5,78.8 242.5,78.5 245.4,78.1 248.4,77.8 251.3,77.7 254.3,77.5 257.2,76.7 260.2,76.3 263.1,76.1 266.1,75.9 269.0,75.7 272.0,75.7 274.9,88.4 277.9,87.1 280.8,86.0 283.8,84.8 286.7,81.4 289.7,79.0 292.6,76.4 295.6,75.4 298.5,74.4 301.5,72.6 304.4,70.7 307.4,69.2 310.3,68.7 313.3,68.2 316.2,66.8 319.2,65.8 322.1,65.2 325.1,64.3 328.0,64.0 331.0,63.9 333.9,63.1 336.9,61.9 339.8,61.1 342.8,60.3 345.7,59.3 348.7,58.8 351.6,58.5 354.6,57.7 357.5,57.0 360.5,56.3 363.4,55.7 366.4,55.4 369.3,55.3 372.3,54.8 375.2,54.2 378.2,53.7 381.1,53.3 384.1,52.9 387.0,52.6 390.0,52.2 393.0,51.9 395.9,51.6 398.9,51.3 401.8,50.6 404.8,50.1 407.7,49.5 410.7,49.2 413.6,48.8 416.6,48.6 419.5,48.3 422.5,48.0 425.4,47.1 428.4,46.5 431.3,45.7 434.3,45.4 437.2,45.3 440.2,45.0 443.1,44.6 446.1,44.1 449.0,43.7 452.0,43.1 454.9,42.7 457.9,42.5 460.8,42.3 463.8,42.0 466.7,41.7 469.7,41.4 472.6,41.1 475.6,40.5 478.5,40.3 481.5,40.1 484.4,39.8 487.4,39.6 490.3,39.2 493.3,38.8 496.2,38.3 499.2,38.0 502.1,37.6 505.1,37.3 508.0,37.1 511.0,36.8 513.9,36.2 516.9,35.7 519.8,35.3 522.8,34.9 525.7,34.2 528.7,34.1 531.6,33.9 534.6,33.7 537.5,33.3 540.5,33.0 543.4,32.6 546.4,32.4 549.3,32.0 552.3,31.8 555.2,31.5 558.2,31.2 561.1,31.1 564.1,30.7 567.0,30.2 570.0,30.0" />
  
  <!-- Punto finale luminoso -->
  <circle cx="570.0" cy="30.0" r="4" fill="#ffffff" stroke="#0366d6" stroke-width="2.5" />
</svg>