<svg width="600" height="150" viewBox="0 0 600 150" xmlns="http://www.w3.org/2000/svg">
  <defs>
    <filter id="shadow2" x="-2%" y="-2%" width="104%" height="108%">
      <feDropShadow dx="0" dy="2" stdDeviation="3" flood-opacity="0.1" />
    </filter>
    <linearGradient id="fillGrad" x1="0" y1="0" x2="0" y2="1">
      <stop offset="0%" stop-color="#0366d6" stop-opacity="0.3"/>
      <stop offset="100%" stop-color="#0366d6" stop-opacity="0.02"/>
    </linearGradient>
  </defs>
  <rect width="600" height="150" rx="12" fill="#ffffff" filter="url(#shadow2)" stroke="#e1e4e8" stroke-width="1"/>
  <text x="20" y="24" fill="#2b3137" font-family="-apple-system,BlinkMacSystemFont,'Segoe UI',Helvetica,Arial,sans-serif" font-size="14" font-weight="600">📈 Download Growth (Actual: 78.6k)</text>
  
  <!-- Area sotto la linea -->
  <polygon fill="url(#fillGrad)" points="30.0,120.0,120 30.0,120.0 32.3,119.1 34.7,118.2 37.0,117.4 39.4,117.2 41.7,116.7 44.0,115.7 46.4,115.1 48.7,114.6 51.0,113.6 53.4,113.1 55.7,112.6 58.1,112.3 60.4,111.8 62.7,111.1 65.1,110.4 67.4,109.8 69.7,109.4 72.1,109.2 74.4,108.7 76.8,108.2 79.1,107.7 81.4,107.5 83.8,107.0 86.1,105.4 88.4,104.9 90.8,104.3 93.1,103.6 95.5,103.1 97.8,102.5 100.1,102.2 102.5,101.9 104.8,101.4 107.1,100.7 109.5,100.0 111.8,99.5 114.2,99.0 116.5,98.8 118.8,98.7 121.2,98.4 123.5,97.9 125.8,97.6 128.2,97.4 130.5,96.8 132.9,95.9 135.2,95.7 137.5,95.5 139.9,95.2 142.2,94.5 144.5,94.0 146.9,93.3 149.2,92.8 151.6,92.2 153.9,92.0 156.2,91.6 158.6,91.0 160.9,90.3 163.2,89.8 165.6,89.6 167.9,89.3 170.3,89.0 172.6,88.3 174.9,87.6 177.3,87.0 179.6,86.4 181.9,86.1 184.3,85.9 186.6,85.6 189.0,85.2 191.3,84.8 193.6,84.5 196.0,84.3 198.3,84.1 200.6,83.7 203.0,83.5 205.3,83.3 207.7,83.2 210.0,82.5 212.3,82.1 214.7,82.0 217.0,81.8 219.4,81.7 221.7,81.7 224.0,92.6 226.4,91.5 228.7,90.6 231.0,89.6 233.4,86.6 235.7,84.5 238.1,82.2 240.4,81.4 242.7,80.5 245.1,78.9 247.4,77.3 249.7,76.0 252.1,75.6 254.4,75.1 256.8,73.9 259.1,73.1 261.4,72.5 263.8,71.8 266.1,71.5 268.4,71.4 270.8,70.7 273.1,69.7 275.5,69.0 277.8,68.3 280.1,67.4 282.5,67.0 284.8,66.7 287.1,66.0 289.5,65.4 291.8,64.8 294.2,64.3 296.5,64.1 298.8,63.9 301.2,63.6 303.5,63.0 305.8,62.6 308.2,62.2 310.5,61.9 312.9,61.6 315.2,61.3 317.5,61.0 319.9,60.7 322.2,60.5 324.5,59.9 326.9,59.5 329.2,59.0 331.6,58.7 333.9,58.4 336.2,58.2 338.6,57.9 340.9,57.6 343.2,56.9 345.6,56.3 347.9,55.7 350.3,55.4 352.6,55.3 354.9,55.0 357.3,54.7 359.6,54.3 361.9,53.9 364.3,53.4 366.6,53.1 369.0,52.9 371.3,52.7 373.6,52.5 376.0,52.2 378.3,51.9 380.6,51.6 383.0,51.2 385.3,50.9 387.7,50.8 390.0,50.6 392.3,50.4 394.7,50.0 397.0,49.7 399.4,49.3 401.7,49.0 404.0,48.6 406.4,48.4 408.7,48.2 411.0,48.0 413.4,47.5 415.7,47.0 418.1,46.7 420.4,46.3 422.7,45.7 425.1,45.6 427.4,45.4 429.7,45.2 432.1,44.9 434.4,44.7 436.8,44.3 439.1,44.1 441.4,43.8 443.8,43.6 446.1,43.3 448.4,43.1 450.8,43.0 453.1,42.7 455.5,42.2 457.8,42.1 460.1,41.7 462.5,41.5 464.8,41.3 467.1,41.1 469.5,40.9 471.8,40.7 474.2,40.4 476.5,39.9 478.8,39.4 481.2,39.1 483.5,38.8 485.8,38.7 488.2,38.6 490.5,38.3 492.9,37.8 495.2,37.6 497.5,37.5 499.9,37.2 502.2,36.9 504.5,36.6 506.9,36.4 509.2,36.2 511.6,35.8 513.9,35.6 516.2,35.2 518.6,34.8 520.9,34.7 523.2,34.6 525.6,34.5 527.9,34.2 530.3,34.0 532.6,33.7 534.9,33.4 537.3,33.1 539.6,33.0 541.9,32.8 544.3,32.5 546.6,32.3 549.0,32.0 551.3,31.6 553.6,31.3 556.0,31.1 558.3,30.9 560.6,30.7 563.0,30.6 565.3,30.4 567.7,30.2 570.0,30.0 570.0,30.0,120" />
  
  <!-- Linea principale -->
  <polyline fill="none" stroke="#0366d6" stroke-width="2.5" stroke-linecap="round" stroke-linejoin="round" points="30.0,120.0 32.3,119.1 34.7,118.2 37.0,117.4 39.4,117.2 41.7,116.7 44.0,115.7 46.4,115.1 48.7,114.6 51.0,113.6 53.4,113.1 55.7,112.6 58.1,112.3 60.4,111.8 62.7,111.1 65.1,110.4 67.4,109.8 69.7,109.4 72.1,109.2 74.4,108.7 76.8,108.2 79.1,107.7 81.4,107.5 83.8,107.0 86.1,105.4 88.4,104.9 90.8,104.3 93.1,103.6 95.5,103.1 97.8,102.5 100.1,102.2 102.5,101.9 104.8,101.4 107.1,100.7 109.5,100.0 111.8,99.5 114.2,99.0 116.5,98.8 118.8,98.7 121.2,98.4 123.5,97.9 125.8,97.6 128.2,97.4 130.5,96.8 132.9,95.9 135.2,95.7 137.5,95.5 139.9,95.2 142.2,94.5 144.5,94.0 146.9,93.3 149.2,92.8 151.6,92.2 153.9,92.0 156.2,91.6 158.6,91.0 160.9,90.3 163.2,89.8 165.6,89.6 167.9,89.3 170.3,89.0 172.6,88.3 174.9,87.6 177.3,87.0 179.6,86.4 181.9,86.1 184.3,85.9 186.6,85.6 189.0,85.2 191.3,84.8 193.6,84.5 196.0,84.3 198.3,84.1 200.6,83.7 203.0,83.5 205.3,83.3 207.7,83.2 210.0,82.5 212.3,82.1 214.7,82.0 217.0,81.8 219.4,81.7 221.7,81.7 224.0,92.6 226.4,91.5 228.7,90.6 231.0,89.6 233.4,86.6 235.7,84.5 238.1,82.2 240.4,81.4 242.7,80.5 245.1,78.9 247.4,77.3 249.7,76.0 252.1,75.6 254.4,75.1 256.8,73.9 259.1,73.1 261.4,72.5 263.8,71.8 266.1,71.5 268.4,71.4 270.8,70.7 273.1,69.7 275.5,69.0 277.8,68.3 280.1,67.4 282.5,67.0 284.8,66.7 287.1,66.0 289.5,65.4 291.8,64.8 294.2,64.3 296.5,64.1 298.8,63.9 301.2,63.6 303.5,63.0 305.8,62.6 308.2,62.2 310.5,61.9 312.9,61.6 315.2,61.3 317.5,61.0 319.9,60.7 322.2,60.5 324.5,59.9 326.9,59.5 329.2,59.0 331.6,58.7 333.9,58.4 336.2,58.2 338.6,57.9 340.9,57.6 343.2,56.9 345.6,56.3 347.9,55.7 350.3,55.4 352.6,55.3 354.9,55.0 357.3,54.7 359.6,54.3 361.9,53.9 364.3,53.4 366.6,53.1 369.0,52.9 371.3,52.7 373.6,52.5 376.0,52.2 378.3,51.9 380.6,51.6 383.0,51.2 385.3,50.9 387.7,50.8 390.0,50.6 392.3,50.4 394.7,50.0 397.0,49.7 399.4,49.3 401.7,49.0 404.0,48.6 406.4,48.4 408.7,48.2 411.0,48.0 413.4,47.5 415.7,47.0 418.1,46.7 420.4,46.3 422.7,45.7 425.1,45.6 427.4,45.4 429.7,45.2 432.1,44.9 434.4,44.7 436.8,44.3 439.1,44.1 441.4,43.8 443.8,43.6 446.1,43.3 448.4,43.1 450.8,43.0 453.1,42.7 455.5,42.2 457.8,42.1 460.1,41.7 462.5,41.5 464.8,41.3 467.1,41.1 469.5,40.9 471.8,40.7 474.2,40.4 476.5,39.9 478.8,39.4 481.2,39.1 483.5,38.8 485.8,38.7 488.2,38.6 490.5,38.3 492.9,37.8 495.2,37.6 497.5,37.5 499.9,37.2 502.2,36.9 504.5,36.6 506.9,36.4 509.2,36.2 511.6,35.8 513.9,35.6 516.2,35.2 518.6,34.8 520.9,34.7 523.2,34.6 525.6,34.5 527.9,34.2 530.3,34.0 532.6,33.7 534.9,33.4 537.3,33.1 539.6,33.0 541.9,32.8 544.3,32.5 546.6,32.3 549.0,32.0 551.3,31.6 553.6,31.3 556.0,31.1 558.3,30.9 560.6,30.7 563.0,30.6 565.3,30.4 567.7,30.2 570.0,30.0" />
  
  <!-- Punto finale luminoso -->
  <circle cx="570.0" cy="30.0" r="4" fill="#ffffff" stroke="#0366d6" stroke-width="2.5" />
</svg>