<svg width="600" height="150" viewBox="0 0 600 150" xmlns="http://www.w3.org/2000/svg">
  <defs>
    <filter id="shadow2" x="-2%" y="-2%" width="104%" height="108%">
      <feDropShadow dx="0" dy="2" stdDeviation="3" flood-opacity="0.1" />
    </filter>
    <linearGradient id="fillGrad" x1="0" y1="0" x2="0" y2="1">
      <stop offset="0%" stop-color="#0366d6" stop-opacity="0.3"/>
      <stop offset="100%" stop-color="#0366d6" stop-opacity="0.02"/>
    </linearGradient>
  </defs>
  <rect width="600" height="150" rx="12" fill="#ffffff" filter="url(#shadow2)" stroke="#e1e4e8" stroke-width="1"/>
  <text x="20" y="24" fill="#2b3137" font-family="-apple-system,BlinkMacSystemFont,'Segoe UI',Helvetica,Arial,sans-serif" font-size="14" font-weight="600">📈 Download Growth (Actual: 78.8k)</text>
  
  <!-- Area sotto la linea -->
  <polygon fill="url(#fillGrad)" points="30.0,120.0,120 30.0,120.0 32.3,119.2 34.6,118.2 36.9,117.4 39.2,117.2 41.4,116.8 43.7,115.8 46.0,115.1 48.3,114.7 50.6,113.7 52.9,113.2 55.2,112.7 57.5,112.4 59.7,111.9 62.0,111.2 64.3,110.5 66.6,110.0 68.9,109.6 71.2,109.3 73.5,108.9 75.8,108.3 78.1,107.9 80.3,107.6 82.6,107.2 84.9,105.6 87.2,105.1 89.5,104.5 91.8,103.8 94.1,103.3 96.4,102.8 98.6,102.4 100.9,102.1 103.2,101.7 105.5,100.9 107.8,100.3 110.1,99.8 112.4,99.3 114.7,99.1 116.9,99.0 119.2,98.7 121.5,98.2 123.8,97.9 126.1,97.7 128.4,97.1 130.7,96.2 133.0,96.0 135.3,95.9 137.5,95.5 139.8,94.8 142.1,94.4 144.4,93.7 146.7,93.2 149.0,92.5 151.3,92.4 153.6,92.0 155.8,91.4 158.1,90.8 160.4,90.3 162.7,90.0 165.0,89.7 167.3,89.4 169.6,88.7 171.9,88.1 174.2,87.5 176.4,86.9 178.7,86.6 181.0,86.4 183.3,86.1 185.6,85.6 187.9,85.3 190.2,85.0 192.5,84.8 194.7,84.6 197.0,84.2 199.3,84.0 201.6,83.9 203.9,83.7 206.2,83.0 208.5,82.7 210.8,82.5 213.1,82.3 215.3,82.2 217.6,82.2 219.9,93.0 222.2,91.9 224.5,91.0 226.8,90.0 229.1,87.0 231.4,85.0 233.6,82.8 235.9,82.0 238.2,81.0 240.5,79.5 242.8,77.9 245.1,76.6 247.4,76.2 249.7,75.8 251.9,74.6 254.2,73.7 256.5,73.2 258.8,72.5 261.1,72.2 263.4,72.1 265.7,71.4 268.0,70.4 270.3,69.7 272.5,69.0 274.8,68.2 277.1,67.8 279.4,67.5 281.7,66.8 284.0,66.2 286.3,65.6 288.6,65.1 290.8,64.9 293.1,64.7 295.4,64.3 297.7,63.8 300.0,63.4 302.3,63.0 304.6,62.7 306.9,62.4 309.2,62.1 311.4,61.8 313.7,61.6 316.0,61.3 318.3,60.7 320.6,60.3 322.9,59.8 325.2,59.6 327.5,59.2 329.7,59.0 332.0,58.8 334.3,58.5 336.6,57.7 338.9,57.2 341.2,56.6 343.5,56.3 345.8,56.2 348.1,55.9 350.3,55.6 352.6,55.2 354.9,54.8 357.2,54.3 359.5,54.0 361.8,53.9 364.1,53.6 366.4,53.4 368.6,53.2 370.9,52.9 373.2,52.6 375.5,52.1 377.8,51.9 380.1,51.7 382.4,51.5 384.7,51.4 386.9,51.0 389.2,50.6 391.5,50.3 393.8,49.9 396.1,49.6 398.4,49.4 400.7,49.2 403.0,49.0 405.3,48.5 407.5,48.0 409.8,47.7 412.1,47.4 414.4,46.8 416.7,46.6 419.0,46.4 421.3,46.3 423.6,46.0 425.8,45.7 428.1,45.4 430.4,45.2 432.7,44.9 435.0,44.7 437.3,44.4 439.6,44.2 441.9,44.1 444.2,43.8 446.4,43.3 448.7,43.1 451.0,42.8 453.3,42.6 455.6,42.4 457.9,42.2 460.2,42.0 462.5,41.8 464.7,41.5 467.0,41.0 469.3,40.5 471.6,40.2 473.9,40.0 476.2,39.9 478.5,39.7 480.8,39.4 483.1,39.0 485.3,38.8 487.6,38.6 489.9,38.3 492.2,38.1 494.5,37.7 496.8,37.6 499.1,37.4 501.4,37.0 503.6,36.7 505.9,36.4 508.2,36.0 510.5,35.9 512.8,35.8 515.1,35.7 517.4,35.4 519.7,35.2 521.9,34.9 524.2,34.6 526.5,34.3 528.8,34.2 531.1,34.0 533.4,33.8 535.7,33.5 538.0,33.2 540.3,32.8 542.5,32.6 544.8,32.3 547.1,32.1 549.4,32.0 551.7,31.8 554.0,31.6 556.3,31.5 558.6,31.2 560.8,30.9 563.1,30.6 565.4,30.4 567.7,30.2 570.0,30.0 570.0,30.0,120" />
  
  <!-- Linea principale -->
  <polyline fill="none" stroke="#0366d6" stroke-width="2.5" stroke-linecap="round" stroke-linejoin="round" points="30.0,120.0 32.3,119.2 34.6,118.2 36.9,117.4 39.2,117.2 41.4,116.8 43.7,115.8 46.0,115.1 48.3,114.7 50.6,113.7 52.9,113.2 55.2,112.7 57.5,112.4 59.7,111.9 62.0,111.2 64.3,110.5 66.6,110.0 68.9,109.6 71.2,109.3 73.5,108.9 75.8,108.3 78.1,107.9 80.3,107.6 82.6,107.2 84.9,105.6 87.2,105.1 89.5,104.5 91.8,103.8 94.1,103.3 96.4,102.8 98.6,102.4 100.9,102.1 103.2,101.7 105.5,100.9 107.8,100.3 110.1,99.8 112.4,99.3 114.7,99.1 116.9,99.0 119.2,98.7 121.5,98.2 123.8,97.9 126.1,97.7 128.4,97.1 130.7,96.2 133.0,96.0 135.3,95.9 137.5,95.5 139.8,94.8 142.1,94.4 144.4,93.7 146.7,93.2 149.0,92.5 151.3,92.4 153.6,92.0 155.8,91.4 158.1,90.8 160.4,90.3 162.7,90.0 165.0,89.7 167.3,89.4 169.6,88.7 171.9,88.1 174.2,87.5 176.4,86.9 178.7,86.6 181.0,86.4 183.3,86.1 185.6,85.6 187.9,85.3 190.2,85.0 192.5,84.8 194.7,84.6 197.0,84.2 199.3,84.0 201.6,83.9 203.9,83.7 206.2,83.0 208.5,82.7 210.8,82.5 213.1,82.3 215.3,82.2 217.6,82.2 219.9,93.0 222.2,91.9 224.5,91.0 226.8,90.0 229.1,87.0 231.4,85.0 233.6,82.8 235.9,82.0 238.2,81.0 240.5,79.5 242.8,77.9 245.1,76.6 247.4,76.2 249.7,75.8 251.9,74.6 254.2,73.7 256.5,73.2 258.8,72.5 261.1,72.2 263.4,72.1 265.7,71.4 268.0,70.4 270.3,69.7 272.5,69.0 274.8,68.2 277.1,67.8 279.4,67.5 281.7,66.8 284.0,66.2 286.3,65.6 288.6,65.1 290.8,64.9 293.1,64.7 295.4,64.3 297.7,63.8 300.0,63.4 302.3,63.0 304.6,62.7 306.9,62.4 309.2,62.1 311.4,61.8 313.7,61.6 316.0,61.3 318.3,60.7 320.6,60.3 322.9,59.8 325.2,59.6 327.5,59.2 329.7,59.0 332.0,58.8 334.3,58.5 336.6,57.7 338.9,57.2 341.2,56.6 343.5,56.3 345.8,56.2 348.1,55.9 350.3,55.6 352.6,55.2 354.9,54.8 357.2,54.3 359.5,54.0 361.8,53.9 364.1,53.6 366.4,53.4 368.6,53.2 370.9,52.9 373.2,52.6 375.5,52.1 377.8,51.9 380.1,51.7 382.4,51.5 384.7,51.4 386.9,51.0 389.2,50.6 391.5,50.3 393.8,49.9 396.1,49.6 398.4,49.4 400.7,49.2 403.0,49.0 405.3,48.5 407.5,48.0 409.8,47.7 412.1,47.4 414.4,46.8 416.7,46.6 419.0,46.4 421.3,46.3 423.6,46.0 425.8,45.7 428.1,45.4 430.4,45.2 432.7,44.9 435.0,44.7 437.3,44.4 439.6,44.2 441.9,44.1 444.2,43.8 446.4,43.3 448.7,43.1 451.0,42.8 453.3,42.6 455.6,42.4 457.9,42.2 460.2,42.0 462.5,41.8 464.7,41.5 467.0,41.0 469.3,40.5 471.6,40.2 473.9,40.0 476.2,39.9 478.5,39.7 480.8,39.4 483.1,39.0 485.3,38.8 487.6,38.6 489.9,38.3 492.2,38.1 494.5,37.7 496.8,37.6 499.1,37.4 501.4,37.0 503.6,36.7 505.9,36.4 508.2,36.0 510.5,35.9 512.8,35.8 515.1,35.7 517.4,35.4 519.7,35.2 521.9,34.9 524.2,34.6 526.5,34.3 528.8,34.2 531.1,34.0 533.4,33.8 535.7,33.5 538.0,33.2 540.3,32.8 542.5,32.6 544.8,32.3 547.1,32.1 549.4,32.0 551.7,31.8 554.0,31.6 556.3,31.5 558.6,31.2 560.8,30.9 563.1,30.6 565.4,30.4 567.7,30.2 570.0,30.0" />
  
  <!-- Punto finale luminoso -->
  <circle cx="570.0" cy="30.0" r="4" fill="#ffffff" stroke="#0366d6" stroke-width="2.5" />
</svg>