<svg width="600" height="150" viewBox="0 0 600 150" xmlns="http://www.w3.org/2000/svg">
  <defs>
    <filter id="shadow2" x="-2%" y="-2%" width="104%" height="108%">
      <feDropShadow dx="0" dy="2" stdDeviation="3" flood-opacity="0.1" />
    </filter>
    <linearGradient id="fillGrad" x1="0" y1="0" x2="0" y2="1">
      <stop offset="0%" stop-color="#0366d6" stop-opacity="0.3"/>
      <stop offset="100%" stop-color="#0366d6" stop-opacity="0.02"/>
    </linearGradient>
  </defs>
  <rect width="600" height="150" rx="12" fill="#ffffff" filter="url(#shadow2)" stroke="#e1e4e8" stroke-width="1"/>
  <text x="20" y="24" fill="#2b3137" font-family="-apple-system,BlinkMacSystemFont,'Segoe UI',Helvetica,Arial,sans-serif" font-size="14" font-weight="600">📈 Download Growth (Actual: 74.1k)</text>
  
  <!-- Area sotto la linea -->
  <polygon fill="url(#fillGrad)" points="30.0,120.0,120 30.0,120.0 34.8,118.6 39.6,117.1 44.3,115.8 49.1,115.4 53.9,114.7 58.7,113.1 63.5,112.1 68.2,111.3 73.0,109.7 77.8,108.8 82.6,108.0 87.3,107.5 92.1,106.8 96.9,105.7 101.7,104.5 106.5,103.5 111.2,102.9 116.0,102.5 120.8,101.7 125.6,100.9 130.4,100.1 135.1,99.7 139.9,99.0 144.7,96.4 149.5,95.6 154.2,94.6 159.0,93.5 163.8,92.6 168.6,91.7 173.4,91.2 178.1,90.7 182.9,90.0 187.7,88.7 192.5,87.6 197.3,86.9 202.0,86.0 206.8,85.8 211.6,85.5 216.4,85.1 221.2,84.3 225.9,83.8 230.7,83.4 235.5,82.4 240.3,81.0 245.0,80.7 249.8,80.4 254.6,79.9 259.4,78.8 264.2,78.0 268.9,76.9 273.7,76.0 278.5,75.0 283.3,74.8 288.1,74.2 292.8,73.1 297.6,72.1 302.4,71.3 307.2,70.9 311.9,70.4 316.7,69.9 321.5,68.7 326.3,67.6 331.1,66.7 335.8,65.7 340.6,65.2 345.4,64.9 350.2,64.5 355.0,63.7 359.7,63.2 364.5,62.7 369.3,62.3 374.1,61.9 378.8,61.4 383.6,61.0 388.4,60.8 393.2,60.5 398.0,59.4 402.7,58.8 407.5,58.6 412.3,58.3 417.1,58.0 421.9,58.0 426.6,75.8 431.4,74.0 436.2,72.5 441.0,70.8 445.8,66.0 450.5,62.6 455.3,59.0 460.1,57.6 464.9,56.1 469.6,53.6 474.4,50.9 479.2,48.9 484.0,48.2 488.8,47.5 493.5,45.6 498.3,44.1 503.1,43.2 507.9,42.1 512.7,41.6 517.4,41.4 522.2,40.4 527.0,38.7 531.8,37.6 536.5,36.4 541.3,35.0 546.1,34.4 550.9,33.9 555.7,32.8 560.4,31.8 565.2,30.8 570.0,30.0 570.0,30.0,120" />
  
  <!-- Linea principale -->
  <polyline fill="none" stroke="#0366d6" stroke-width="2.5" stroke-linecap="round" stroke-linejoin="round" points="30.0,120.0 34.8,118.6 39.6,117.1 44.3,115.8 49.1,115.4 53.9,114.7 58.7,113.1 63.5,112.1 68.2,111.3 73.0,109.7 77.8,108.8 82.6,108.0 87.3,107.5 92.1,106.8 96.9,105.7 101.7,104.5 106.5,103.5 111.2,102.9 116.0,102.5 120.8,101.7 125.6,100.9 130.4,100.1 135.1,99.7 139.9,99.0 144.7,96.4 149.5,95.6 154.2,94.6 159.0,93.5 163.8,92.6 168.6,91.7 173.4,91.2 178.1,90.7 182.9,90.0 187.7,88.7 192.5,87.6 197.3,86.9 202.0,86.0 206.8,85.8 211.6,85.5 216.4,85.1 221.2,84.3 225.9,83.8 230.7,83.4 235.5,82.4 240.3,81.0 245.0,80.7 249.8,80.4 254.6,79.9 259.4,78.8 264.2,78.0 268.9,76.9 273.7,76.0 278.5,75.0 283.3,74.8 288.1,74.2 292.8,73.1 297.6,72.1 302.4,71.3 307.2,70.9 311.9,70.4 316.7,69.9 321.5,68.7 326.3,67.6 331.1,66.7 335.8,65.7 340.6,65.2 345.4,64.9 350.2,64.5 355.0,63.7 359.7,63.2 364.5,62.7 369.3,62.3 374.1,61.9 378.8,61.4 383.6,61.0 388.4,60.8 393.2,60.5 398.0,59.4 402.7,58.8 407.5,58.6 412.3,58.3 417.1,58.0 421.9,58.0 426.6,75.8 431.4,74.0 436.2,72.5 441.0,70.8 445.8,66.0 450.5,62.6 455.3,59.0 460.1,57.6 464.9,56.1 469.6,53.6 474.4,50.9 479.2,48.9 484.0,48.2 488.8,47.5 493.5,45.6 498.3,44.1 503.1,43.2 507.9,42.1 512.7,41.6 517.4,41.4 522.2,40.4 527.0,38.7 531.8,37.6 536.5,36.4 541.3,35.0 546.1,34.4 550.9,33.9 555.7,32.8 560.4,31.8 565.2,30.8 570.0,30.0" />
  
  <!-- Punto finale luminoso -->
  <circle cx="570.0" cy="30.0" r="4" fill="#ffffff" stroke="#0366d6" stroke-width="2.5" />
</svg>