<svg width="600" height="150" viewBox="0 0 600 150" xmlns="http://www.w3.org/2000/svg">
  <defs>
    <filter id="shadow2" x="-2%" y="-2%" width="104%" height="108%">
      <feDropShadow dx="0" dy="2" stdDeviation="3" flood-opacity="0.1" />
    </filter>
    <linearGradient id="fillGrad" x1="0" y1="0" x2="0" y2="1">
      <stop offset="0%" stop-color="#0366d6" stop-opacity="0.3"/>
      <stop offset="100%" stop-color="#0366d6" stop-opacity="0.02"/>
    </linearGradient>
  </defs>
  <rect width="600" height="150" rx="12" fill="#ffffff" filter="url(#shadow2)" stroke="#e1e4e8" stroke-width="1"/>
  <text x="20" y="24" fill="#2b3137" font-family="-apple-system,BlinkMacSystemFont,'Segoe UI',Helvetica,Arial,sans-serif" font-size="14" font-weight="600">📈 Download Growth (Actual: 77.7k)</text>
  
  <!-- Area sotto la linea -->
  <polygon fill="url(#fillGrad)" points="30.0,120.0,120 30.0,120.0 32.7,119.1 35.4,118.0 38.1,117.2 40.7,116.9 43.4,116.5 46.1,115.4 48.8,114.7 51.5,114.2 54.2,113.1 56.9,112.5 59.6,111.9 62.2,111.6 64.9,111.1 67.6,110.4 70.3,109.6 73.0,108.9 75.7,108.5 78.4,108.2 81.0,107.7 83.7,107.1 86.4,106.6 89.1,106.4 91.8,105.9 94.5,104.1 97.2,103.6 99.9,102.9 102.5,102.2 105.2,101.6 107.9,101.0 110.6,100.6 113.3,100.3 116.0,99.8 118.7,99.0 121.3,98.3 124.0,97.8 126.7,97.2 129.4,97.0 132.1,96.8 134.8,96.5 137.5,96.0 140.1,95.6 142.8,95.4 145.5,94.8 148.2,93.8 150.9,93.6 153.6,93.4 156.3,93.0 159.0,92.3 161.6,91.8 164.3,91.0 167.0,90.4 169.7,89.8 172.4,89.6 175.1,89.2 177.8,88.5 180.4,87.8 183.1,87.2 185.8,87.0 188.5,86.6 191.2,86.3 193.9,85.5 196.6,84.8 199.3,84.1 201.9,83.5 204.6,83.2 207.3,83.0 210.0,82.7 212.7,82.1 215.4,81.8 218.1,81.5 220.7,81.2 223.4,81.0 226.1,80.6 228.8,80.3 231.5,80.2 234.2,80.0 236.9,79.3 239.6,78.9 242.2,78.7 244.9,78.5 247.6,78.4 250.3,78.4 253.0,90.3 255.7,89.1 258.4,88.0 261.0,86.9 263.7,83.7 266.4,81.4 269.1,79.0 271.8,78.1 274.5,77.1 277.2,75.4 279.9,73.6 282.5,72.2 285.2,71.7 287.9,71.3 290.6,70.0 293.3,69.0 296.0,68.4 298.7,67.6 301.3,67.3 304.0,67.2 306.7,66.5 309.4,65.4 312.1,64.6 314.8,63.8 317.5,62.9 320.1,62.5 322.8,62.1 325.5,61.4 328.2,60.7 330.9,60.0 333.6,59.5 336.3,59.3 339.0,59.1 341.6,58.7 344.3,58.1 347.0,57.7 349.7,57.2 352.4,56.9 355.1,56.6 357.8,56.2 360.4,55.9 363.1,55.6 365.8,55.3 368.5,54.7 371.2,54.3 373.9,53.7 376.6,53.4 379.3,53.1 381.9,52.8 384.6,52.6 387.3,52.3 390.0,51.4 392.7,50.8 395.4,50.1 398.1,49.8 400.7,49.7 403.4,49.4 406.1,49.0 408.8,48.6 411.5,48.2 414.2,47.6 416.9,47.3 419.6,47.1 422.2,46.9 424.9,46.6 427.6,46.4 430.3,46.0 433.0,45.7 435.7,45.2 438.4,45.0 441.0,44.8 443.7,44.6 446.4,44.4 449.1,44.0 451.8,43.6 454.5,43.2 457.2,42.8 459.9,42.4 462.5,42.2 465.2,42.0 467.9,41.7 470.6,41.2 473.3,40.7 476.0,40.4 478.7,40.0 481.3,39.3 484.0,39.2 486.7,39.0 489.4,38.8 492.1,38.5 494.8,38.2 497.5,37.8 500.1,37.6 502.8,37.2 505.5,37.0 508.2,36.7 510.9,36.5 513.6,36.3 516.3,36.0 519.0,35.5 521.6,35.3 524.3,34.9 527.0,34.8 529.7,34.5 532.4,34.2 535.1,34.1 537.8,33.8 540.4,33.5 543.1,33.0 545.8,32.5 548.5,32.1 551.2,31.8 553.9,31.7 556.6,31.6 559.3,31.2 561.9,30.8 564.6,30.5 567.3,30.4 570.0,30.0 570.0,30.0,120" />
  
  <!-- Linea principale -->
  <polyline fill="none" stroke="#0366d6" stroke-width="2.5" stroke-linecap="round" stroke-linejoin="round" points="30.0,120.0 32.7,119.1 35.4,118.0 38.1,117.2 40.7,116.9 43.4,116.5 46.1,115.4 48.8,114.7 51.5,114.2 54.2,113.1 56.9,112.5 59.6,111.9 62.2,111.6 64.9,111.1 67.6,110.4 70.3,109.6 73.0,108.9 75.7,108.5 78.4,108.2 81.0,107.7 83.7,107.1 86.4,106.6 89.1,106.4 91.8,105.9 94.5,104.1 97.2,103.6 99.9,102.9 102.5,102.2 105.2,101.6 107.9,101.0 110.6,100.6 113.3,100.3 116.0,99.8 118.7,99.0 121.3,98.3 124.0,97.8 126.7,97.2 129.4,97.0 132.1,96.8 134.8,96.5 137.5,96.0 140.1,95.6 142.8,95.4 145.5,94.8 148.2,93.8 150.9,93.6 153.6,93.4 156.3,93.0 159.0,92.3 161.6,91.8 164.3,91.0 167.0,90.4 169.7,89.8 172.4,89.6 175.1,89.2 177.8,88.5 180.4,87.8 183.1,87.2 185.8,87.0 188.5,86.6 191.2,86.3 193.9,85.5 196.6,84.8 199.3,84.1 201.9,83.5 204.6,83.2 207.3,83.0 210.0,82.7 212.7,82.1 215.4,81.8 218.1,81.5 220.7,81.2 223.4,81.0 226.1,80.6 228.8,80.3 231.5,80.2 234.2,80.0 236.9,79.3 239.6,78.9 242.2,78.7 244.9,78.5 247.6,78.4 250.3,78.4 253.0,90.3 255.7,89.1 258.4,88.0 261.0,86.9 263.7,83.7 266.4,81.4 269.1,79.0 271.8,78.1 274.5,77.1 277.2,75.4 279.9,73.6 282.5,72.2 285.2,71.7 287.9,71.3 290.6,70.0 293.3,69.0 296.0,68.4 298.7,67.6 301.3,67.3 304.0,67.2 306.7,66.5 309.4,65.4 312.1,64.6 314.8,63.8 317.5,62.9 320.1,62.5 322.8,62.1 325.5,61.4 328.2,60.7 330.9,60.0 333.6,59.5 336.3,59.3 339.0,59.1 341.6,58.7 344.3,58.1 347.0,57.7 349.7,57.2 352.4,56.9 355.1,56.6 357.8,56.2 360.4,55.9 363.1,55.6 365.8,55.3 368.5,54.7 371.2,54.3 373.9,53.7 376.6,53.4 379.3,53.1 381.9,52.8 384.6,52.6 387.3,52.3 390.0,51.4 392.7,50.8 395.4,50.1 398.1,49.8 400.7,49.7 403.4,49.4 406.1,49.0 408.8,48.6 411.5,48.2 414.2,47.6 416.9,47.3 419.6,47.1 422.2,46.9 424.9,46.6 427.6,46.4 430.3,46.0 433.0,45.7 435.7,45.2 438.4,45.0 441.0,44.8 443.7,44.6 446.4,44.4 449.1,44.0 451.8,43.6 454.5,43.2 457.2,42.8 459.9,42.4 462.5,42.2 465.2,42.0 467.9,41.7 470.6,41.2 473.3,40.7 476.0,40.4 478.7,40.0 481.3,39.3 484.0,39.2 486.7,39.0 489.4,38.8 492.1,38.5 494.8,38.2 497.5,37.8 500.1,37.6 502.8,37.2 505.5,37.0 508.2,36.7 510.9,36.5 513.6,36.3 516.3,36.0 519.0,35.5 521.6,35.3 524.3,34.9 527.0,34.8 529.7,34.5 532.4,34.2 535.1,34.1 537.8,33.8 540.4,33.5 543.1,33.0 545.8,32.5 548.5,32.1 551.2,31.8 553.9,31.7 556.6,31.6 559.3,31.2 561.9,30.8 564.6,30.5 567.3,30.4 570.0,30.0" />
  
  <!-- Punto finale luminoso -->
  <circle cx="570.0" cy="30.0" r="4" fill="#ffffff" stroke="#0366d6" stroke-width="2.5" />
</svg>