<svg width="600" height="150" viewBox="0 0 600 150" xmlns="http://www.w3.org/2000/svg">
  <defs>
    <filter id="shadow2" x="-2%" y="-2%" width="104%" height="108%">
      <feDropShadow dx="0" dy="2" stdDeviation="3" flood-opacity="0.1" />
    </filter>
    <linearGradient id="fillGrad" x1="0" y1="0" x2="0" y2="1">
      <stop offset="0%" stop-color="#0366d6" stop-opacity="0.3"/>
      <stop offset="100%" stop-color="#0366d6" stop-opacity="0.02"/>
    </linearGradient>
  </defs>
  <rect width="600" height="150" rx="12" fill="#ffffff" filter="url(#shadow2)" stroke="#e1e4e8" stroke-width="1"/>
  <text x="20" y="24" fill="#2b3137" font-family="-apple-system,BlinkMacSystemFont,'Segoe UI',Helvetica,Arial,sans-serif" font-size="14" font-weight="600">📈 Download Growth (Actual: 83.0k)</text>
  
  <!-- Area sotto la linea -->
  <polygon fill="url(#fillGrad)" points="30.0,120.0,120 30.0,120.0 31.8,119.4 33.6,118.7 35.3,118.1 37.1,117.9 38.9,117.6 40.7,116.9 42.4,116.4 44.2,116.1 46.0,115.4 47.8,115.0 49.5,114.6 51.3,114.4 53.1,114.1 54.9,113.6 56.6,113.0 58.4,112.6 60.2,112.3 62.0,112.1 63.8,111.8 65.5,111.4 67.3,111.1 69.1,110.9 70.9,110.6 72.6,109.4 74.4,109.0 76.2,108.6 78.0,108.1 79.7,107.7 81.5,107.3 83.3,107.0 85.1,106.9 86.8,106.5 88.6,106.0 90.4,105.5 92.2,105.1 93.9,104.7 95.7,104.6 97.5,104.5 99.3,104.3 101.1,103.9 102.8,103.7 104.6,103.6 106.4,103.1 108.2,102.5 109.9,102.3 111.7,102.2 113.5,102.0 115.3,101.5 117.0,101.1 118.8,100.6 120.6,100.2 122.4,99.8 124.1,99.7 125.9,99.4 127.7,98.9 129.5,98.5 131.2,98.1 133.0,97.9 134.8,97.7 136.6,97.5 138.4,97.0 140.1,96.5 141.9,96.0 143.7,95.6 145.5,95.4 147.2,95.2 149.0,95.1 150.8,94.7 152.6,94.5 154.3,94.2 156.1,94.1 157.9,93.9 159.7,93.7 161.4,93.5 163.2,93.4 165.0,93.3 166.8,92.8 168.6,92.5 170.3,92.4 172.1,92.3 173.9,92.2 175.7,92.2 177.4,100.1 179.2,99.3 181.0,98.6 182.8,97.9 184.5,95.7 186.3,94.2 188.1,92.6 189.9,92.0 191.6,91.3 193.4,90.2 195.2,89.0 197.0,88.1 198.8,87.7 200.5,87.4 202.3,86.5 204.1,85.9 205.9,85.5 207.6,85.0 209.4,84.8 211.2,84.7 213.0,84.2 214.7,83.5 216.5,83.0 218.3,82.4 220.1,81.8 221.8,81.5 223.6,81.3 225.4,80.8 227.2,80.3 228.9,79.9 230.7,79.6 232.5,79.4 234.3,79.3 236.1,79.0 237.8,78.6 239.6,78.3 241.4,78.0 243.2,77.8 244.9,77.6 246.7,77.4 248.5,77.2 250.3,77.0 252.0,76.8 253.8,76.4 255.6,76.0 257.4,75.7 259.1,75.5 260.9,75.2 262.7,75.1 264.5,74.9 266.2,74.7 268.0,74.1 269.8,73.8 271.6,73.3 273.4,73.1 275.1,73.0 276.9,72.8 278.7,72.6 280.5,72.3 282.2,72.0 284.0,71.6 285.8,71.4 287.6,71.3 289.3,71.1 291.1,70.9 292.9,70.8 294.7,70.6 296.4,70.4 298.2,70.0 300.0,69.9 301.8,69.7 303.6,69.6 305.3,69.5 307.1,69.2 308.9,68.9 310.7,68.6 312.4,68.4 314.2,68.2 316.0,68.0 317.8,67.9 319.5,67.7 321.3,67.3 323.1,67.0 324.9,66.8 326.6,66.5 328.4,66.1 330.2,66.0 332.0,65.8 333.8,65.7 335.5,65.5 337.3,65.3 339.1,65.1 340.9,64.9 342.6,64.7 344.4,64.5 346.2,64.3 348.0,64.2 349.7,64.1 351.5,63.9 353.3,63.5 355.1,63.4 356.8,63.1 358.6,63.0 360.4,62.9 362.2,62.7 363.9,62.5 365.7,62.4 367.5,62.2 369.3,61.9 371.1,61.5 372.8,61.3 374.6,61.1 376.4,61.0 378.2,60.9 379.9,60.7 381.7,60.3 383.5,60.2 385.3,60.1 387.0,59.8 388.8,59.7 390.6,59.4 392.4,59.3 394.1,59.2 395.9,58.9 397.7,58.7 399.5,58.4 401.2,58.2 403.0,58.1 404.8,58.0 406.6,57.9 408.4,57.7 410.1,57.5 411.9,57.3 413.7,57.1 415.5,56.9 417.2,56.8 419.0,56.7 420.8,56.5 422.6,56.3 424.3,56.1 426.1,55.8 427.9,55.6 429.7,55.4 431.4,55.3 433.2,55.2 435.0,55.0 436.8,54.9 438.6,54.8 440.3,54.6 442.1,54.4 443.9,54.2 445.7,54.0 447.4,53.9 449.2,53.7 451.0,53.6 452.8,53.3 454.5,53.2 456.3,53.1 458.1,52.9 459.9,52.7 461.6,52.5 463.4,52.3 465.2,52.2 467.0,52.1 468.8,52.0 470.5,51.8 472.3,51.7 474.1,51.5 475.9,51.5 477.6,51.3 479.4,50.9 481.2,50.7 483.0,55.9 484.7,54.9 486.5,52.9 488.3,52.1 490.1,51.2 491.8,50.1 493.6,49.5 495.4,49.1 497.2,48.3 498.9,47.2 500.7,46.4 502.5,46.1 504.3,45.7 506.1,45.3 507.8,44.8 509.6,44.2 511.4,43.6 513.2,43.3 514.9,42.7 516.7,42.4 518.5,42.0 520.3,41.8 522.0,41.5 523.8,41.2 525.6,40.6 527.4,40.2 529.1,39.7 530.9,39.0 532.7,38.6 534.5,38.3 536.2,38.1 538.0,37.8 539.8,37.4 541.6,37.0 543.4,36.6 545.1,35.6 546.9,34.7 548.7,34.4 550.5,34.1 552.2,33.8 554.0,33.2 555.8,32.8 557.6,32.4 559.3,32.1 561.1,31.7 562.9,31.3 564.7,30.9 566.4,30.5 568.2,30.2 570.0,30.0 570.0,30.0,120" />
  
  <!-- Linea principale -->
  <polyline fill="none" stroke="#0366d6" stroke-width="2.5" stroke-linecap="round" stroke-linejoin="round" points="30.0,120.0 31.8,119.4 33.6,118.7 35.3,118.1 37.1,117.9 38.9,117.6 40.7,116.9 42.4,116.4 44.2,116.1 46.0,115.4 47.8,115.0 49.5,114.6 51.3,114.4 53.1,114.1 54.9,113.6 56.6,113.0 58.4,112.6 60.2,112.3 62.0,112.1 63.8,111.8 65.5,111.4 67.3,111.1 69.1,110.9 70.9,110.6 72.6,109.4 74.4,109.0 76.2,108.6 78.0,108.1 79.7,107.7 81.5,107.3 83.3,107.0 85.1,106.9 86.8,106.5 88.6,106.0 90.4,105.5 92.2,105.1 93.9,104.7 95.7,104.6 97.5,104.5 99.3,104.3 101.1,103.9 102.8,103.7 104.6,103.6 106.4,103.1 108.2,102.5 109.9,102.3 111.7,102.2 113.5,102.0 115.3,101.5 117.0,101.1 118.8,100.6 120.6,100.2 122.4,99.8 124.1,99.7 125.9,99.4 127.7,98.9 129.5,98.5 131.2,98.1 133.0,97.9 134.8,97.7 136.6,97.5 138.4,97.0 140.1,96.5 141.9,96.0 143.7,95.6 145.5,95.4 147.2,95.2 149.0,95.1 150.8,94.7 152.6,94.5 154.3,94.2 156.1,94.1 157.9,93.9 159.7,93.7 161.4,93.5 163.2,93.4 165.0,93.3 166.8,92.8 168.6,92.5 170.3,92.4 172.1,92.3 173.9,92.2 175.7,92.2 177.4,100.1 179.2,99.3 181.0,98.6 182.8,97.9 184.5,95.7 186.3,94.2 188.1,92.6 189.9,92.0 191.6,91.3 193.4,90.2 195.2,89.0 197.0,88.1 198.8,87.7 200.5,87.4 202.3,86.5 204.1,85.9 205.9,85.5 207.6,85.0 209.4,84.8 211.2,84.7 213.0,84.2 214.7,83.5 216.5,83.0 218.3,82.4 220.1,81.8 221.8,81.5 223.6,81.3 225.4,80.8 227.2,80.3 228.9,79.9 230.7,79.6 232.5,79.4 234.3,79.3 236.1,79.0 237.8,78.6 239.6,78.3 241.4,78.0 243.2,77.8 244.9,77.6 246.7,77.4 248.5,77.2 250.3,77.0 252.0,76.8 253.8,76.4 255.6,76.0 257.4,75.7 259.1,75.5 260.9,75.2 262.7,75.1 264.5,74.9 266.2,74.7 268.0,74.1 269.8,73.8 271.6,73.3 273.4,73.1 275.1,73.0 276.9,72.8 278.7,72.6 280.5,72.3 282.2,72.0 284.0,71.6 285.8,71.4 287.6,71.3 289.3,71.1 291.1,70.9 292.9,70.8 294.7,70.6 296.4,70.4 298.2,70.0 300.0,69.9 301.8,69.7 303.6,69.6 305.3,69.5 307.1,69.2 308.9,68.9 310.7,68.6 312.4,68.4 314.2,68.2 316.0,68.0 317.8,67.9 319.5,67.7 321.3,67.3 323.1,67.0 324.9,66.8 326.6,66.5 328.4,66.1 330.2,66.0 332.0,65.8 333.8,65.7 335.5,65.5 337.3,65.3 339.1,65.1 340.9,64.9 342.6,64.7 344.4,64.5 346.2,64.3 348.0,64.2 349.7,64.1 351.5,63.9 353.3,63.5 355.1,63.4 356.8,63.1 358.6,63.0 360.4,62.9 362.2,62.7 363.9,62.5 365.7,62.4 367.5,62.2 369.3,61.9 371.1,61.5 372.8,61.3 374.6,61.1 376.4,61.0 378.2,60.9 379.9,60.7 381.7,60.3 383.5,60.2 385.3,60.1 387.0,59.8 388.8,59.7 390.6,59.4 392.4,59.3 394.1,59.2 395.9,58.9 397.7,58.7 399.5,58.4 401.2,58.2 403.0,58.1 404.8,58.0 406.6,57.9 408.4,57.7 410.1,57.5 411.9,57.3 413.7,57.1 415.5,56.9 417.2,56.8 419.0,56.7 420.8,56.5 422.6,56.3 424.3,56.1 426.1,55.8 427.9,55.6 429.7,55.4 431.4,55.3 433.2,55.2 435.0,55.0 436.8,54.9 438.6,54.8 440.3,54.6 442.1,54.4 443.9,54.2 445.7,54.0 447.4,53.9 449.2,53.7 451.0,53.6 452.8,53.3 454.5,53.2 456.3,53.1 458.1,52.9 459.9,52.7 461.6,52.5 463.4,52.3 465.2,52.2 467.0,52.1 468.8,52.0 470.5,51.8 472.3,51.7 474.1,51.5 475.9,51.5 477.6,51.3 479.4,50.9 481.2,50.7 483.0,55.9 484.7,54.9 486.5,52.9 488.3,52.1 490.1,51.2 491.8,50.1 493.6,49.5 495.4,49.1 497.2,48.3 498.9,47.2 500.7,46.4 502.5,46.1 504.3,45.7 506.1,45.3 507.8,44.8 509.6,44.2 511.4,43.6 513.2,43.3 514.9,42.7 516.7,42.4 518.5,42.0 520.3,41.8 522.0,41.5 523.8,41.2 525.6,40.6 527.4,40.2 529.1,39.7 530.9,39.0 532.7,38.6 534.5,38.3 536.2,38.1 538.0,37.8 539.8,37.4 541.6,37.0 543.4,36.6 545.1,35.6 546.9,34.7 548.7,34.4 550.5,34.1 552.2,33.8 554.0,33.2 555.8,32.8 557.6,32.4 559.3,32.1 561.1,31.7 562.9,31.3 564.7,30.9 566.4,30.5 568.2,30.2 570.0,30.0" />
  
  <!-- Punto finale luminoso -->
  <circle cx="570.0" cy="30.0" r="4" fill="#ffffff" stroke="#0366d6" stroke-width="2.5" />
</svg>