<svg width="600" height="150" viewBox="0 0 600 150" xmlns="http://www.w3.org/2000/svg">
  <defs>
    <filter id="shadow2" x="-2%" y="-2%" width="104%" height="108%">
      <feDropShadow dx="0" dy="2" stdDeviation="3" flood-opacity="0.1" />
    </filter>
    <linearGradient id="fillGrad" x1="0" y1="0" x2="0" y2="1">
      <stop offset="0%" stop-color="#0366d6" stop-opacity="0.3"/>
      <stop offset="100%" stop-color="#0366d6" stop-opacity="0.02"/>
    </linearGradient>
  </defs>
  <rect width="600" height="150" rx="12" fill="#ffffff" filter="url(#shadow2)" stroke="#e1e4e8" stroke-width="1"/>
  <text x="20" y="24" fill="#2b3137" font-family="-apple-system,BlinkMacSystemFont,'Segoe UI',Helvetica,Arial,sans-serif" font-size="14" font-weight="600">📈 Download Growth (Actual: 76.6k)</text>
  
  <!-- Area sotto la linea -->
  <polygon fill="url(#fillGrad)" points="30.0,120.0,120 30.0,120.0 33.2,119.0 36.3,117.8 39.5,116.9 42.6,116.6 45.8,116.1 48.9,114.9 52.1,114.1 55.3,113.5 58.4,112.3 61.6,111.7 64.7,111.1 67.9,110.7 71.1,110.1 74.2,109.3 77.4,108.4 80.5,107.7 83.7,107.3 86.8,107.0 90.0,106.4 93.2,105.7 96.3,105.2 99.5,104.9 102.6,104.3 105.8,102.4 108.9,101.8 112.1,101.0 115.3,100.3 118.4,99.6 121.6,99.0 124.7,98.5 127.9,98.2 131.1,97.7 134.2,96.7 137.4,95.9 140.5,95.3 143.7,94.7 146.8,94.5 150.0,94.3 153.2,94.0 156.3,93.4 159.5,93.0 162.6,92.7 165.8,92.0 168.9,91.0 172.1,90.7 175.3,90.5 178.4,90.1 181.6,89.3 184.7,88.7 187.9,87.9 191.1,87.3 194.2,86.5 197.4,86.3 200.5,85.9 203.7,85.1 206.8,84.3 210.0,83.7 213.2,83.4 216.3,83.0 219.5,82.7 222.6,81.8 225.8,81.0 228.9,80.3 232.1,79.5 235.3,79.2 238.4,79.0 241.6,78.6 244.7,78.0 247.9,77.7 251.1,77.3 254.2,77.0 257.4,76.8 260.5,76.3 263.7,76.1 266.8,75.9 270.0,75.7 273.2,74.9 276.3,74.4 279.5,74.3 282.6,74.0 285.8,73.8 288.9,73.8 292.1,87.0 295.3,85.7 298.4,84.6 301.6,83.4 304.7,79.8 307.9,77.2 311.1,74.5 314.2,73.5 317.4,72.4 320.5,70.6 323.7,68.6 326.8,67.1 330.0,66.5 333.2,66.0 336.3,64.5 339.5,63.5 342.6,62.8 345.8,62.0 348.9,61.6 352.1,61.5 355.3,60.7 358.4,59.5 361.6,58.6 364.7,57.7 367.9,56.7 371.1,56.2 374.2,55.9 377.4,55.0 380.5,54.3 383.7,53.5 386.8,53.0 390.0,52.7 393.2,52.5 396.3,52.1 399.5,51.4 402.6,50.9 405.8,50.5 408.9,50.1 412.1,49.7 415.3,49.3 418.4,49.0 421.6,48.7 424.7,48.3 427.9,47.6 431.1,47.1 434.2,46.5 437.4,46.2 440.5,45.8 443.7,45.6 446.8,45.3 450.0,44.9 453.2,44.0 456.3,43.3 459.5,42.5 462.6,42.2 465.8,42.1 468.9,41.8 472.1,41.4 475.3,40.9 478.4,40.4 481.6,39.8 484.7,39.4 487.9,39.2 491.1,38.9 494.2,38.7 497.4,38.4 500.5,38.0 503.7,37.7 506.8,37.1 510.0,36.9 513.2,36.7 516.3,36.4 519.5,36.2 522.6,35.7 525.8,35.3 528.9,34.9 532.1,34.5 535.3,34.0 538.4,33.8 541.6,33.6 544.7,33.3 547.9,32.7 551.1,32.1 554.2,31.7 557.4,31.3 560.5,30.6 563.7,30.4 566.8,30.2 570.0,30.0 570.0,30.0,120" />
  
  <!-- Linea principale -->
  <polyline fill="none" stroke="#0366d6" stroke-width="2.5" stroke-linecap="round" stroke-linejoin="round" points="30.0,120.0 33.2,119.0 36.3,117.8 39.5,116.9 42.6,116.6 45.8,116.1 48.9,114.9 52.1,114.1 55.3,113.5 58.4,112.3 61.6,111.7 64.7,111.1 67.9,110.7 71.1,110.1 74.2,109.3 77.4,108.4 80.5,107.7 83.7,107.3 86.8,107.0 90.0,106.4 93.2,105.7 96.3,105.2 99.5,104.9 102.6,104.3 105.8,102.4 108.9,101.8 112.1,101.0 115.3,100.3 118.4,99.6 121.6,99.0 124.7,98.5 127.9,98.2 131.1,97.7 134.2,96.7 137.4,95.9 140.5,95.3 143.7,94.7 146.8,94.5 150.0,94.3 153.2,94.0 156.3,93.4 159.5,93.0 162.6,92.7 165.8,92.0 168.9,91.0 172.1,90.7 175.3,90.5 178.4,90.1 181.6,89.3 184.7,88.7 187.9,87.9 191.1,87.3 194.2,86.5 197.4,86.3 200.5,85.9 203.7,85.1 206.8,84.3 210.0,83.7 213.2,83.4 216.3,83.0 219.5,82.7 222.6,81.8 225.8,81.0 228.9,80.3 232.1,79.5 235.3,79.2 238.4,79.0 241.6,78.6 244.7,78.0 247.9,77.7 251.1,77.3 254.2,77.0 257.4,76.8 260.5,76.3 263.7,76.1 266.8,75.9 270.0,75.7 273.2,74.9 276.3,74.4 279.5,74.3 282.6,74.0 285.8,73.8 288.9,73.8 292.1,87.0 295.3,85.7 298.4,84.6 301.6,83.4 304.7,79.8 307.9,77.2 311.1,74.5 314.2,73.5 317.4,72.4 320.5,70.6 323.7,68.6 326.8,67.1 330.0,66.5 333.2,66.0 336.3,64.5 339.5,63.5 342.6,62.8 345.8,62.0 348.9,61.6 352.1,61.5 355.3,60.7 358.4,59.5 361.6,58.6 364.7,57.7 367.9,56.7 371.1,56.2 374.2,55.9 377.4,55.0 380.5,54.3 383.7,53.5 386.8,53.0 390.0,52.7 393.2,52.5 396.3,52.1 399.5,51.4 402.6,50.9 405.8,50.5 408.9,50.1 412.1,49.7 415.3,49.3 418.4,49.0 421.6,48.7 424.7,48.3 427.9,47.6 431.1,47.1 434.2,46.5 437.4,46.2 440.5,45.8 443.7,45.6 446.8,45.3 450.0,44.9 453.2,44.0 456.3,43.3 459.5,42.5 462.6,42.2 465.8,42.1 468.9,41.8 472.1,41.4 475.3,40.9 478.4,40.4 481.6,39.8 484.7,39.4 487.9,39.2 491.1,38.9 494.2,38.7 497.4,38.4 500.5,38.0 503.7,37.7 506.8,37.1 510.0,36.9 513.2,36.7 516.3,36.4 519.5,36.2 522.6,35.7 525.8,35.3 528.9,34.9 532.1,34.5 535.3,34.0 538.4,33.8 541.6,33.6 544.7,33.3 547.9,32.7 551.1,32.1 554.2,31.7 557.4,31.3 560.5,30.6 563.7,30.4 566.8,30.2 570.0,30.0" />
  
  <!-- Punto finale luminoso -->
  <circle cx="570.0" cy="30.0" r="4" fill="#ffffff" stroke="#0366d6" stroke-width="2.5" />
</svg>