<svg width="600" height="150" viewBox="0 0 600 150" xmlns="http://www.w3.org/2000/svg">
  <defs>
    <filter id="shadow2" x="-2%" y="-2%" width="104%" height="108%">
      <feDropShadow dx="0" dy="2" stdDeviation="3" flood-opacity="0.1" />
    </filter>
    <linearGradient id="fillGrad" x1="0" y1="0" x2="0" y2="1">
      <stop offset="0%" stop-color="#0366d6" stop-opacity="0.3"/>
      <stop offset="100%" stop-color="#0366d6" stop-opacity="0.02"/>
    </linearGradient>
  </defs>
  <rect width="600" height="150" rx="12" fill="#ffffff" filter="url(#shadow2)" stroke="#e1e4e8" stroke-width="1"/>
  <text x="20" y="24" fill="#2b3137" font-family="-apple-system,BlinkMacSystemFont,'Segoe UI',Helvetica,Arial,sans-serif" font-size="14" font-weight="600">📈 Download Growth (Actual: 83.7k)</text>
  
  <!-- Area sotto la linea -->
  <polygon fill="url(#fillGrad)" points="30.0,120.0,120 30.0,120.0 31.7,119.4 33.4,118.8 35.1,118.2 36.8,118.0 38.5,117.7 40.2,117.0 41.8,116.6 43.5,116.3 45.2,115.6 46.9,115.2 48.6,114.8 50.3,114.6 52.0,114.3 53.7,113.8 55.4,113.3 57.1,112.9 58.8,112.7 60.5,112.5 62.2,112.1 63.9,111.8 65.5,111.4 67.2,111.3 68.9,111.0 70.6,109.8 72.3,109.5 74.0,109.1 75.7,108.6 77.4,108.2 79.1,107.8 80.8,107.6 82.5,107.4 84.2,107.1 85.9,106.6 87.6,106.1 89.2,105.8 90.9,105.4 92.6,105.3 94.3,105.2 96.0,105.0 97.7,104.6 99.4,104.4 101.1,104.3 102.8,103.8 104.5,103.2 106.2,103.1 107.9,103.0 109.6,102.7 111.3,102.3 112.9,101.9 114.6,101.4 116.3,101.1 118.0,100.6 119.7,100.6 121.4,100.3 123.1,99.8 124.8,99.4 126.5,99.0 128.2,98.9 129.9,98.7 131.6,98.5 133.3,97.9 135.0,97.5 136.6,97.1 138.3,96.6 140.0,96.4 141.7,96.3 143.4,96.1 145.1,95.8 146.8,95.5 148.5,95.3 150.2,95.2 151.9,95.0 153.6,94.8 155.3,94.6 157.0,94.5 158.7,94.4 160.3,93.9 162.0,93.7 163.7,93.6 165.4,93.4 167.1,93.3 168.8,93.3 170.5,101.0 172.2,100.2 173.9,99.5 175.6,98.8 177.3,96.8 179.0,95.3 180.7,93.8 182.4,93.2 184.0,92.5 185.7,91.5 187.4,90.3 189.1,89.4 190.8,89.1 192.5,88.8 194.2,88.0 195.9,87.4 197.6,87.0 199.3,86.5 201.0,86.3 202.7,86.2 204.4,85.8 206.1,85.0 207.7,84.5 209.4,84.0 211.1,83.5 212.8,83.2 214.5,83.0 216.2,82.5 217.9,82.0 219.6,81.6 221.3,81.3 223.0,81.1 224.7,81.0 226.4,80.8 228.1,80.4 229.7,80.1 231.4,79.8 233.1,79.6 234.8,79.4 236.5,79.2 238.2,79.0 239.9,78.8 241.6,78.6 243.3,78.2 245.0,77.9 246.7,77.6 248.4,77.4 250.1,77.2 251.8,77.0 253.4,76.8 255.1,76.6 256.8,76.1 258.5,75.7 260.2,75.3 261.9,75.1 263.6,75.0 265.3,74.8 267.0,74.6 268.7,74.3 270.4,74.0 272.1,73.7 273.8,73.5 275.5,73.4 277.1,73.2 278.8,73.0 280.5,72.9 282.2,72.7 283.9,72.5 285.6,72.1 287.3,72.0 289.0,71.9 290.7,71.7 292.4,71.6 294.1,71.3 295.8,71.1 297.5,70.8 299.2,70.6 300.8,70.4 302.5,70.2 304.2,70.1 305.9,69.9 307.6,69.6 309.3,69.3 311.0,69.0 312.7,68.8 314.4,68.4 316.1,68.3 317.8,68.1 319.5,68.0 321.2,67.8 322.9,67.6 324.5,67.4 326.2,67.2 327.9,67.0 329.6,66.9 331.3,66.7 333.0,66.6 334.7,66.5 336.4,66.3 338.1,65.9 339.8,65.8 341.5,65.6 343.2,65.5 344.9,65.3 346.6,65.1 348.2,65.0 349.9,64.9 351.6,64.7 353.3,64.3 355.0,64.0 356.7,63.8 358.4,63.6 360.1,63.5 361.8,63.4 363.5,63.2 365.2,62.9 366.9,62.7 368.6,62.6 370.3,62.4 371.9,62.2 373.6,62.0 375.3,61.9 377.0,61.8 378.7,61.5 380.4,61.3 382.1,61.0 383.8,60.8 385.5,60.7 387.2,60.6 388.9,60.6 390.6,60.4 392.3,60.2 393.9,60.0 395.6,59.8 397.3,59.6 399.0,59.5 400.7,59.4 402.4,59.2 404.1,59.0 405.8,58.8 407.5,58.6 409.2,58.4 410.9,58.2 412.6,58.0 414.3,57.9 416.0,57.8 417.6,57.7 419.3,57.6 421.0,57.4 422.7,57.2 424.4,57.0 426.1,56.8 427.8,56.7 429.5,56.6 431.2,56.4 432.9,56.2 434.6,56.1 436.3,55.9 438.0,55.8 439.7,55.6 441.3,55.4 443.0,55.2 444.7,55.1 446.4,55.0 448.1,54.9 449.8,54.7 451.5,54.6 453.2,54.4 454.9,54.4 456.6,54.2 458.3,53.9 460.0,53.6 461.7,58.6 463.4,57.6 465.0,55.8 466.7,55.0 468.4,54.2 470.1,53.1 471.8,52.5 473.5,52.1 475.2,51.4 476.9,50.3 478.6,49.5 480.3,49.3 482.0,48.9 483.7,48.5 485.4,48.0 487.1,47.4 488.7,46.8 490.4,46.5 492.1,46.0 493.8,45.7 495.5,45.3 497.2,45.1 498.9,44.8 500.6,44.5 502.3,44.0 504.0,43.6 505.7,43.1 507.4,42.5 509.1,42.0 510.8,41.8 512.4,41.6 514.1,41.4 515.8,40.9 517.5,40.5 519.2,40.2 520.9,39.2 522.6,38.4 524.3,38.0 526.0,37.8 527.7,37.5 529.4,36.9 531.1,36.5 532.8,36.2 534.5,35.8 536.1,35.4 537.8,35.1 539.5,34.7 541.2,34.3 542.9,34.0 544.6,33.8 546.3,33.6 548.0,33.2 549.7,32.9 551.4,32.6 553.1,32.4 554.8,32.3 556.5,31.9 558.2,31.8 559.8,31.5 561.5,31.3 563.2,31.1 564.9,30.9 566.6,30.6 568.3,30.4 570.0,30.0 570.0,30.0,120" />
  
  <!-- Linea principale -->
  <polyline fill="none" stroke="#0366d6" stroke-width="2.5" stroke-linecap="round" stroke-linejoin="round" points="30.0,120.0 31.7,119.4 33.4,118.8 35.1,118.2 36.8,118.0 38.5,117.7 40.2,117.0 41.8,116.6 43.5,116.3 45.2,115.6 46.9,115.2 48.6,114.8 50.3,114.6 52.0,114.3 53.7,113.8 55.4,113.3 57.1,112.9 58.8,112.7 60.5,112.5 62.2,112.1 63.9,111.8 65.5,111.4 67.2,111.3 68.9,111.0 70.6,109.8 72.3,109.5 74.0,109.1 75.7,108.6 77.4,108.2 79.1,107.8 80.8,107.6 82.5,107.4 84.2,107.1 85.9,106.6 87.6,106.1 89.2,105.8 90.9,105.4 92.6,105.3 94.3,105.2 96.0,105.0 97.7,104.6 99.4,104.4 101.1,104.3 102.8,103.8 104.5,103.2 106.2,103.1 107.9,103.0 109.6,102.7 111.3,102.3 112.9,101.9 114.6,101.4 116.3,101.1 118.0,100.6 119.7,100.6 121.4,100.3 123.1,99.8 124.8,99.4 126.5,99.0 128.2,98.9 129.9,98.7 131.6,98.5 133.3,97.9 135.0,97.5 136.6,97.1 138.3,96.6 140.0,96.4 141.7,96.3 143.4,96.1 145.1,95.8 146.8,95.5 148.5,95.3 150.2,95.2 151.9,95.0 153.6,94.8 155.3,94.6 157.0,94.5 158.7,94.4 160.3,93.9 162.0,93.7 163.7,93.6 165.4,93.4 167.1,93.3 168.8,93.3 170.5,101.0 172.2,100.2 173.9,99.5 175.6,98.8 177.3,96.8 179.0,95.3 180.7,93.8 182.4,93.2 184.0,92.5 185.7,91.5 187.4,90.3 189.1,89.4 190.8,89.1 192.5,88.8 194.2,88.0 195.9,87.4 197.6,87.0 199.3,86.5 201.0,86.3 202.7,86.2 204.4,85.8 206.1,85.0 207.7,84.5 209.4,84.0 211.1,83.5 212.8,83.2 214.5,83.0 216.2,82.5 217.9,82.0 219.6,81.6 221.3,81.3 223.0,81.1 224.7,81.0 226.4,80.8 228.1,80.4 229.7,80.1 231.4,79.8 233.1,79.6 234.8,79.4 236.5,79.2 238.2,79.0 239.9,78.8 241.6,78.6 243.3,78.2 245.0,77.9 246.7,77.6 248.4,77.4 250.1,77.2 251.8,77.0 253.4,76.8 255.1,76.6 256.8,76.1 258.5,75.7 260.2,75.3 261.9,75.1 263.6,75.0 265.3,74.8 267.0,74.6 268.7,74.3 270.4,74.0 272.1,73.7 273.8,73.5 275.5,73.4 277.1,73.2 278.8,73.0 280.5,72.9 282.2,72.7 283.9,72.5 285.6,72.1 287.3,72.0 289.0,71.9 290.7,71.7 292.4,71.6 294.1,71.3 295.8,71.1 297.5,70.8 299.2,70.6 300.8,70.4 302.5,70.2 304.2,70.1 305.9,69.9 307.6,69.6 309.3,69.3 311.0,69.0 312.7,68.8 314.4,68.4 316.1,68.3 317.8,68.1 319.5,68.0 321.2,67.8 322.9,67.6 324.5,67.4 326.2,67.2 327.9,67.0 329.6,66.9 331.3,66.7 333.0,66.6 334.7,66.5 336.4,66.3 338.1,65.9 339.8,65.8 341.5,65.6 343.2,65.5 344.9,65.3 346.6,65.1 348.2,65.0 349.9,64.9 351.6,64.7 353.3,64.3 355.0,64.0 356.7,63.8 358.4,63.6 360.1,63.5 361.8,63.4 363.5,63.2 365.2,62.9 366.9,62.7 368.6,62.6 370.3,62.4 371.9,62.2 373.6,62.0 375.3,61.9 377.0,61.8 378.7,61.5 380.4,61.3 382.1,61.0 383.8,60.8 385.5,60.7 387.2,60.6 388.9,60.6 390.6,60.4 392.3,60.2 393.9,60.0 395.6,59.8 397.3,59.6 399.0,59.5 400.7,59.4 402.4,59.2 404.1,59.0 405.8,58.8 407.5,58.6 409.2,58.4 410.9,58.2 412.6,58.0 414.3,57.9 416.0,57.8 417.6,57.7 419.3,57.6 421.0,57.4 422.7,57.2 424.4,57.0 426.1,56.8 427.8,56.7 429.5,56.6 431.2,56.4 432.9,56.2 434.6,56.1 436.3,55.9 438.0,55.8 439.7,55.6 441.3,55.4 443.0,55.2 444.7,55.1 446.4,55.0 448.1,54.9 449.8,54.7 451.5,54.6 453.2,54.4 454.9,54.4 456.6,54.2 458.3,53.9 460.0,53.6 461.7,58.6 463.4,57.6 465.0,55.8 466.7,55.0 468.4,54.2 470.1,53.1 471.8,52.5 473.5,52.1 475.2,51.4 476.9,50.3 478.6,49.5 480.3,49.3 482.0,48.9 483.7,48.5 485.4,48.0 487.1,47.4 488.7,46.8 490.4,46.5 492.1,46.0 493.8,45.7 495.5,45.3 497.2,45.1 498.9,44.8 500.6,44.5 502.3,44.0 504.0,43.6 505.7,43.1 507.4,42.5 509.1,42.0 510.8,41.8 512.4,41.6 514.1,41.4 515.8,40.9 517.5,40.5 519.2,40.2 520.9,39.2 522.6,38.4 524.3,38.0 526.0,37.8 527.7,37.5 529.4,36.9 531.1,36.5 532.8,36.2 534.5,35.8 536.1,35.4 537.8,35.1 539.5,34.7 541.2,34.3 542.9,34.0 544.6,33.8 546.3,33.6 548.0,33.2 549.7,32.9 551.4,32.6 553.1,32.4 554.8,32.3 556.5,31.9 558.2,31.8 559.8,31.5 561.5,31.3 563.2,31.1 564.9,30.9 566.6,30.6 568.3,30.4 570.0,30.0" />
  
  <!-- Punto finale luminoso -->
  <circle cx="570.0" cy="30.0" r="4" fill="#ffffff" stroke="#0366d6" stroke-width="2.5" />
</svg>