<svg width="600" height="150" viewBox="0 0 600 150" xmlns="http://www.w3.org/2000/svg">
  <defs>
    <filter id="shadow2" x="-2%" y="-2%" width="104%" height="108%">
      <feDropShadow dx="0" dy="2" stdDeviation="3" flood-opacity="0.1" />
    </filter>
    <linearGradient id="fillGrad" x1="0" y1="0" x2="0" y2="1">
      <stop offset="0%" stop-color="#0366d6" stop-opacity="0.3"/>
      <stop offset="100%" stop-color="#0366d6" stop-opacity="0.02"/>
    </linearGradient>
  </defs>
  <rect width="600" height="150" rx="12" fill="#ffffff" filter="url(#shadow2)" stroke="#e1e4e8" stroke-width="1"/>
  <text x="20" y="24" fill="#2b3137" font-family="-apple-system,BlinkMacSystemFont,'Segoe UI',Helvetica,Arial,sans-serif" font-size="14" font-weight="600">📈 Download Growth (Actual: 75.4k)</text>
  
  <!-- Area sotto la linea -->
  <polygon fill="url(#fillGrad)" points="30.0,120.0,120 30.0,120.0 33.9,118.8 37.7,117.5 41.6,116.4 45.4,116.1 49.3,115.5 53.1,114.1 57.0,113.2 60.9,112.6 64.7,111.2 68.6,110.5 72.4,109.8 76.3,109.4 80.1,108.7 84.0,107.8 87.9,106.8 91.7,106.0 95.6,105.4 99.4,105.1 103.3,104.4 107.1,103.7 111.0,103.0 114.9,102.7 118.7,102.1 122.6,99.8 126.4,99.2 130.3,98.3 134.1,97.4 138.0,96.7 141.9,95.9 145.7,95.4 149.6,95.1 153.4,94.4 157.3,93.3 161.1,92.4 165.0,91.8 168.9,91.0 172.7,90.8 176.6,90.6 180.4,90.2 184.3,89.5 188.1,89.1 192.0,88.8 195.9,88.0 199.7,86.8 203.6,86.5 207.4,86.3 211.3,85.8 215.1,84.8 219.0,84.2 222.9,83.2 226.7,82.5 230.6,81.6 234.4,81.5 238.3,80.9 242.1,80.0 246.0,79.1 249.9,78.5 253.7,78.2 257.6,77.7 261.4,77.3 265.3,76.3 269.1,75.4 273.0,74.5 276.9,73.7 280.7,73.3 284.6,73.0 288.4,72.7 292.3,72.0 296.1,71.5 300.0,71.1 303.9,70.8 307.7,70.5 311.6,70.0 315.4,69.7 319.3,69.5 323.1,69.3 327.0,68.3 330.9,67.8 334.7,67.7 338.6,67.4 342.4,67.2 346.3,67.2 350.1,82.3 354.0,80.8 357.9,79.5 361.7,78.1 365.6,73.9 369.4,71.1 373.3,68.0 377.1,66.8 381.0,65.5 384.9,63.4 388.7,61.1 392.6,59.4 396.4,58.8 400.3,58.2 404.1,56.5 408.0,55.3 411.9,54.6 415.7,53.6 419.6,53.2 423.4,53.0 427.3,52.1 431.1,50.7 435.0,49.7 438.9,48.7 442.7,47.6 446.6,47.0 450.4,46.6 454.3,45.6 458.1,44.8 462.0,43.9 465.9,43.3 469.7,43.0 473.6,42.8 477.4,42.2 481.3,41.5 485.1,40.9 489.0,40.4 492.9,40.0 496.7,39.5 500.6,39.1 504.4,38.7 508.3,38.4 512.1,38.0 516.0,37.2 519.9,36.6 523.7,35.9 527.6,35.5 531.4,35.1 535.3,34.8 539.1,34.5 543.0,34.1 546.9,33.0 550.7,32.3 554.6,31.4 558.4,31.0 562.3,30.9 566.1,30.5 570.0,30.0 570.0,30.0,120" />
  
  <!-- Linea principale -->
  <polyline fill="none" stroke="#0366d6" stroke-width="2.5" stroke-linecap="round" stroke-linejoin="round" points="30.0,120.0 33.9,118.8 37.7,117.5 41.6,116.4 45.4,116.1 49.3,115.5 53.1,114.1 57.0,113.2 60.9,112.6 64.7,111.2 68.6,110.5 72.4,109.8 76.3,109.4 80.1,108.7 84.0,107.8 87.9,106.8 91.7,106.0 95.6,105.4 99.4,105.1 103.3,104.4 107.1,103.7 111.0,103.0 114.9,102.7 118.7,102.1 122.6,99.8 126.4,99.2 130.3,98.3 134.1,97.4 138.0,96.7 141.9,95.9 145.7,95.4 149.6,95.1 153.4,94.4 157.3,93.3 161.1,92.4 165.0,91.8 168.9,91.0 172.7,90.8 176.6,90.6 180.4,90.2 184.3,89.5 188.1,89.1 192.0,88.8 195.9,88.0 199.7,86.8 203.6,86.5 207.4,86.3 211.3,85.8 215.1,84.8 219.0,84.2 222.9,83.2 226.7,82.5 230.6,81.6 234.4,81.5 238.3,80.9 242.1,80.0 246.0,79.1 249.9,78.5 253.7,78.2 257.6,77.7 261.4,77.3 265.3,76.3 269.1,75.4 273.0,74.5 276.9,73.7 280.7,73.3 284.6,73.0 288.4,72.7 292.3,72.0 296.1,71.5 300.0,71.1 303.9,70.8 307.7,70.5 311.6,70.0 315.4,69.7 319.3,69.5 323.1,69.3 327.0,68.3 330.9,67.8 334.7,67.7 338.6,67.4 342.4,67.2 346.3,67.2 350.1,82.3 354.0,80.8 357.9,79.5 361.7,78.1 365.6,73.9 369.4,71.1 373.3,68.0 377.1,66.8 381.0,65.5 384.9,63.4 388.7,61.1 392.6,59.4 396.4,58.8 400.3,58.2 404.1,56.5 408.0,55.3 411.9,54.6 415.7,53.6 419.6,53.2 423.4,53.0 427.3,52.1 431.1,50.7 435.0,49.7 438.9,48.7 442.7,47.6 446.6,47.0 450.4,46.6 454.3,45.6 458.1,44.8 462.0,43.9 465.9,43.3 469.7,43.0 473.6,42.8 477.4,42.2 481.3,41.5 485.1,40.9 489.0,40.4 492.9,40.0 496.7,39.5 500.6,39.1 504.4,38.7 508.3,38.4 512.1,38.0 516.0,37.2 519.9,36.6 523.7,35.9 527.6,35.5 531.4,35.1 535.3,34.8 539.1,34.5 543.0,34.1 546.9,33.0 550.7,32.3 554.6,31.4 558.4,31.0 562.3,30.9 566.1,30.5 570.0,30.0" />
  
  <!-- Punto finale luminoso -->
  <circle cx="570.0" cy="30.0" r="4" fill="#ffffff" stroke="#0366d6" stroke-width="2.5" />
</svg>