<svg width="600" height="150" viewBox="0 0 600 150" xmlns="http://www.w3.org/2000/svg">
  <defs>
    <filter id="shadow2" x="-2%" y="-2%" width="104%" height="108%">
      <feDropShadow dx="0" dy="2" stdDeviation="3" flood-opacity="0.1" />
    </filter>
    <linearGradient id="fillGrad" x1="0" y1="0" x2="0" y2="1">
      <stop offset="0%" stop-color="#0366d6" stop-opacity="0.3"/>
      <stop offset="100%" stop-color="#0366d6" stop-opacity="0.02"/>
    </linearGradient>
  </defs>
  <rect width="600" height="150" rx="12" fill="#ffffff" filter="url(#shadow2)" stroke="#e1e4e8" stroke-width="1"/>
  <text x="20" y="24" fill="#2b3137" font-family="-apple-system,BlinkMacSystemFont,'Segoe UI',Helvetica,Arial,sans-serif" font-size="14" font-weight="600">📈 Download Growth (Actual: 84.9k)</text>
  
  <!-- Area sotto la linea -->
  <polygon fill="url(#fillGrad)" points="30.0,120.0,120 30.0,120.0 31.6,119.4 33.1,118.8 34.7,118.3 36.2,118.2 37.8,117.9 39.4,117.2 40.9,116.8 42.5,116.5 44.0,115.8 45.6,115.5 47.2,115.2 48.7,115.0 50.3,114.7 51.8,114.2 53.4,113.8 55.0,113.4 56.5,113.1 58.1,113.0 59.7,112.7 61.2,112.3 62.8,112.0 64.3,111.9 65.9,111.6 67.5,110.5 69.0,110.2 70.6,109.8 72.1,109.4 73.7,109.0 75.3,108.7 76.8,108.4 78.4,108.2 79.9,108.0 81.5,107.4 83.1,107.0 84.6,106.7 86.2,106.3 87.7,106.2 89.3,106.2 90.9,106.0 92.4,105.6 94.0,105.4 95.5,105.3 97.1,104.9 98.7,104.3 100.2,104.2 101.8,104.1 103.4,103.9 104.9,103.4 106.5,103.1 108.0,102.7 109.6,102.3 111.2,101.9 112.7,101.8 114.3,101.6 115.8,101.2 117.4,100.7 119.0,100.4 120.5,100.3 122.1,100.1 123.6,99.9 125.2,99.4 126.8,99.0 128.3,98.6 129.9,98.2 131.4,98.0 133.0,97.9 134.6,97.7 136.1,97.4 137.7,97.2 139.2,97.0 140.8,96.8 142.4,96.7 143.9,96.5 145.5,96.3 147.1,96.2 148.6,96.1 150.2,95.7 151.7,95.4 153.3,95.3 154.9,95.2 156.4,95.1 158.0,95.1 159.5,102.2 161.1,101.5 162.7,100.9 164.2,100.2 165.8,98.3 167.3,96.9 168.9,95.5 170.5,95.0 172.0,94.3 173.6,93.3 175.1,92.3 176.7,91.5 178.3,91.2 179.8,90.9 181.4,90.1 182.9,89.5 184.5,89.2 186.1,88.7 187.6,88.5 189.2,88.4 190.8,88.0 192.3,87.4 193.9,86.9 195.4,86.4 197.0,85.9 198.6,85.6 200.1,85.4 201.7,85.0 203.2,84.6 204.8,84.2 206.4,83.8 207.9,83.7 209.5,83.6 211.0,83.4 212.6,83.0 214.2,82.7 215.7,82.5 217.3,82.3 218.8,82.1 220.4,81.9 222.0,81.7 223.5,81.5 225.1,81.3 226.6,81.0 228.2,80.7 229.8,80.4 231.3,80.2 232.9,80.0 234.5,79.9 236.0,79.7 237.6,79.5 239.1,79.0 240.7,78.7 242.3,78.2 243.8,78.1 245.4,78.0 246.9,77.8 248.5,77.6 250.1,77.3 251.6,77.1 253.2,76.8 254.7,76.6 256.3,76.5 257.9,76.3 259.4,76.1 261.0,76.0 262.5,75.8 264.1,75.6 265.7,75.3 267.2,75.2 268.8,75.1 270.3,74.9 271.9,74.8 273.5,74.6 275.0,74.3 276.6,74.1 278.2,73.9 279.7,73.6 281.3,73.5 282.8,73.4 284.4,73.2 286.0,72.9 287.5,72.6 289.1,72.4 290.6,72.2 292.2,71.8 293.8,71.7 295.3,71.6 296.9,71.5 298.4,71.3 300.0,71.1 301.6,70.9 303.1,70.7 304.7,70.5 306.2,70.4 307.8,70.2 309.4,70.1 310.9,70.0 312.5,69.8 314.0,69.5 315.6,69.4 317.2,69.2 318.7,69.1 320.3,68.9 321.8,68.8 323.4,68.6 325.0,68.5 326.5,68.3 328.1,68.0 329.7,67.7 331.2,67.5 332.8,67.3 334.3,67.2 335.9,67.2 337.5,67.0 339.0,66.7 340.6,66.5 342.1,66.4 343.7,66.2 345.3,66.1 346.8,65.9 348.4,65.7 349.9,65.6 351.5,65.4 353.1,65.2 354.6,64.9 356.2,64.7 357.7,64.6 359.3,64.6 360.9,64.5 362.4,64.3 364.0,64.2 365.5,64.0 367.1,63.8 368.7,63.6 370.2,63.5 371.8,63.4 373.4,63.2 374.9,63.1 376.5,62.9 378.0,62.6 379.6,62.4 381.2,62.3 382.7,62.1 384.3,62.0 385.8,61.9 387.4,61.8 389.0,61.7 390.5,61.6 392.1,61.3 393.6,61.2 395.2,61.0 396.8,60.9 398.3,60.7 399.9,60.6 401.4,60.4 403.0,60.3 404.6,60.2 406.1,60.0 407.7,59.8 409.2,59.7 410.8,59.5 412.4,59.4 413.9,59.3 415.5,59.2 417.1,59.1 418.6,58.9 420.2,58.8 421.7,58.7 423.3,58.6 424.9,58.3 426.4,58.0 428.0,62.7 429.5,61.8 431.1,60.0 432.7,59.3 434.2,58.5 435.8,57.5 437.3,57.0 438.9,56.6 440.5,55.9 442.0,54.9 443.6,54.2 445.1,53.9 446.7,53.6 448.3,53.3 449.8,52.7 451.4,52.2 452.9,51.7 454.5,51.4 456.1,50.9 457.6,50.6 459.2,50.3 460.8,50.1 462.3,49.8 463.9,49.5 465.4,49.0 467.0,48.7 468.6,48.2 470.1,47.6 471.7,47.2 473.2,47.0 474.8,46.8 476.4,46.6 477.9,46.1 479.5,45.8 481.0,45.5 482.6,44.5 484.2,43.8 485.7,43.4 487.3,43.2 488.8,42.9 490.4,42.4 492.0,42.0 493.5,41.7 495.1,41.4 496.6,41.0 498.2,40.7 499.8,40.4 501.3,40.0 502.9,39.7 504.5,39.5 506.0,39.3 507.6,38.9 509.1,38.6 510.7,38.4 512.3,38.2 513.8,38.1 515.4,37.8 516.9,37.6 518.5,37.4 520.1,37.2 521.6,37.0 523.2,36.8 524.7,36.5 526.3,36.3 527.9,36.0 529.4,35.5 531.0,35.3 532.5,35.1 534.1,34.9 535.7,34.7 537.2,34.5 538.8,34.3 540.3,34.2 541.9,34.0 543.5,33.9 545.0,33.7 546.6,33.5 548.2,33.2 549.7,33.1 551.3,32.9 552.8,32.6 554.4,32.3 556.0,31.9 557.5,31.7 559.1,31.5 560.6,31.2 562.2,31.0 563.8,30.7 565.3,30.4 566.9,30.2 568.4,30.1 570.0,30.0 570.0,30.0,120" />
  
  <!-- Linea principale -->
  <polyline fill="none" stroke="#0366d6" stroke-width="2.5" stroke-linecap="round" stroke-linejoin="round" points="30.0,120.0 31.6,119.4 33.1,118.8 34.7,118.3 36.2,118.2 37.8,117.9 39.4,117.2 40.9,116.8 42.5,116.5 44.0,115.8 45.6,115.5 47.2,115.2 48.7,115.0 50.3,114.7 51.8,114.2 53.4,113.8 55.0,113.4 56.5,113.1 58.1,113.0 59.7,112.7 61.2,112.3 62.8,112.0 64.3,111.9 65.9,111.6 67.5,110.5 69.0,110.2 70.6,109.8 72.1,109.4 73.7,109.0 75.3,108.7 76.8,108.4 78.4,108.2 79.9,108.0 81.5,107.4 83.1,107.0 84.6,106.7 86.2,106.3 87.7,106.2 89.3,106.2 90.9,106.0 92.4,105.6 94.0,105.4 95.5,105.3 97.1,104.9 98.7,104.3 100.2,104.2 101.8,104.1 103.4,103.9 104.9,103.4 106.5,103.1 108.0,102.7 109.6,102.3 111.2,101.9 112.7,101.8 114.3,101.6 115.8,101.2 117.4,100.7 119.0,100.4 120.5,100.3 122.1,100.1 123.6,99.9 125.2,99.4 126.8,99.0 128.3,98.6 129.9,98.2 131.4,98.0 133.0,97.9 134.6,97.7 136.1,97.4 137.7,97.2 139.2,97.0 140.8,96.8 142.4,96.7 143.9,96.5 145.5,96.3 147.1,96.2 148.6,96.1 150.2,95.7 151.7,95.4 153.3,95.3 154.9,95.2 156.4,95.1 158.0,95.1 159.5,102.2 161.1,101.5 162.7,100.9 164.2,100.2 165.8,98.3 167.3,96.9 168.9,95.5 170.5,95.0 172.0,94.3 173.6,93.3 175.1,92.3 176.7,91.5 178.3,91.2 179.8,90.9 181.4,90.1 182.9,89.5 184.5,89.2 186.1,88.7 187.6,88.5 189.2,88.4 190.8,88.0 192.3,87.4 193.9,86.9 195.4,86.4 197.0,85.9 198.6,85.6 200.1,85.4 201.7,85.0 203.2,84.6 204.8,84.2 206.4,83.8 207.9,83.7 209.5,83.6 211.0,83.4 212.6,83.0 214.2,82.7 215.7,82.5 217.3,82.3 218.8,82.1 220.4,81.9 222.0,81.7 223.5,81.5 225.1,81.3 226.6,81.0 228.2,80.7 229.8,80.4 231.3,80.2 232.9,80.0 234.5,79.9 236.0,79.7 237.6,79.5 239.1,79.0 240.7,78.7 242.3,78.2 243.8,78.1 245.4,78.0 246.9,77.8 248.5,77.6 250.1,77.3 251.6,77.1 253.2,76.8 254.7,76.6 256.3,76.5 257.9,76.3 259.4,76.1 261.0,76.0 262.5,75.8 264.1,75.6 265.7,75.3 267.2,75.2 268.8,75.1 270.3,74.9 271.9,74.8 273.5,74.6 275.0,74.3 276.6,74.1 278.2,73.9 279.7,73.6 281.3,73.5 282.8,73.4 284.4,73.2 286.0,72.9 287.5,72.6 289.1,72.4 290.6,72.2 292.2,71.8 293.8,71.7 295.3,71.6 296.9,71.5 298.4,71.3 300.0,71.1 301.6,70.9 303.1,70.7 304.7,70.5 306.2,70.4 307.8,70.2 309.4,70.1 310.9,70.0 312.5,69.8 314.0,69.5 315.6,69.4 317.2,69.2 318.7,69.1 320.3,68.9 321.8,68.8 323.4,68.6 325.0,68.5 326.5,68.3 328.1,68.0 329.7,67.7 331.2,67.5 332.8,67.3 334.3,67.2 335.9,67.2 337.5,67.0 339.0,66.7 340.6,66.5 342.1,66.4 343.7,66.2 345.3,66.1 346.8,65.9 348.4,65.7 349.9,65.6 351.5,65.4 353.1,65.2 354.6,64.9 356.2,64.7 357.7,64.6 359.3,64.6 360.9,64.5 362.4,64.3 364.0,64.2 365.5,64.0 367.1,63.8 368.7,63.6 370.2,63.5 371.8,63.4 373.4,63.2 374.9,63.1 376.5,62.9 378.0,62.6 379.6,62.4 381.2,62.3 382.7,62.1 384.3,62.0 385.8,61.9 387.4,61.8 389.0,61.7 390.5,61.6 392.1,61.3 393.6,61.2 395.2,61.0 396.8,60.9 398.3,60.7 399.9,60.6 401.4,60.4 403.0,60.3 404.6,60.2 406.1,60.0 407.7,59.8 409.2,59.7 410.8,59.5 412.4,59.4 413.9,59.3 415.5,59.2 417.1,59.1 418.6,58.9 420.2,58.8 421.7,58.7 423.3,58.6 424.9,58.3 426.4,58.0 428.0,62.7 429.5,61.8 431.1,60.0 432.7,59.3 434.2,58.5 435.8,57.5 437.3,57.0 438.9,56.6 440.5,55.9 442.0,54.9 443.6,54.2 445.1,53.9 446.7,53.6 448.3,53.3 449.8,52.7 451.4,52.2 452.9,51.7 454.5,51.4 456.1,50.9 457.6,50.6 459.2,50.3 460.8,50.1 462.3,49.8 463.9,49.5 465.4,49.0 467.0,48.7 468.6,48.2 470.1,47.6 471.7,47.2 473.2,47.0 474.8,46.8 476.4,46.6 477.9,46.1 479.5,45.8 481.0,45.5 482.6,44.5 484.2,43.8 485.7,43.4 487.3,43.2 488.8,42.9 490.4,42.4 492.0,42.0 493.5,41.7 495.1,41.4 496.6,41.0 498.2,40.7 499.8,40.4 501.3,40.0 502.9,39.7 504.5,39.5 506.0,39.3 507.6,38.9 509.1,38.6 510.7,38.4 512.3,38.2 513.8,38.1 515.4,37.8 516.9,37.6 518.5,37.4 520.1,37.2 521.6,37.0 523.2,36.8 524.7,36.5 526.3,36.3 527.9,36.0 529.4,35.5 531.0,35.3 532.5,35.1 534.1,34.9 535.7,34.7 537.2,34.5 538.8,34.3 540.3,34.2 541.9,34.0 543.5,33.9 545.0,33.7 546.6,33.5 548.2,33.2 549.7,33.1 551.3,32.9 552.8,32.6 554.4,32.3 556.0,31.9 557.5,31.7 559.1,31.5 560.6,31.2 562.2,31.0 563.8,30.7 565.3,30.4 566.9,30.2 568.4,30.1 570.0,30.0" />
  
  <!-- Punto finale luminoso -->
  <circle cx="570.0" cy="30.0" r="4" fill="#ffffff" stroke="#0366d6" stroke-width="2.5" />
</svg>