<svg width="600" height="150" viewBox="0 0 600 150" xmlns="http://www.w3.org/2000/svg">
  <defs>
    <filter id="shadow2" x="-2%" y="-2%" width="104%" height="108%">
      <feDropShadow dx="0" dy="2" stdDeviation="3" flood-opacity="0.1" />
    </filter>
    <linearGradient id="fillGrad" x1="0" y1="0" x2="0" y2="1">
      <stop offset="0%" stop-color="#0366d6" stop-opacity="0.3"/>
      <stop offset="100%" stop-color="#0366d6" stop-opacity="0.02"/>
    </linearGradient>
  </defs>
  <rect width="600" height="150" rx="12" fill="#ffffff" filter="url(#shadow2)" stroke="#e1e4e8" stroke-width="1"/>
  <text x="20" y="24" fill="#2b3137" font-family="-apple-system,BlinkMacSystemFont,'Segoe UI',Helvetica,Arial,sans-serif" font-size="14" font-weight="600">📈 Download Growth (Actual: 85.1k)</text>
  
  <!-- Area sotto la linea -->
  <polygon fill="url(#fillGrad)" points="30.0,120.0,120 30.0,120.0 31.5,119.4 33.1,118.8 34.6,118.3 36.2,118.2 37.7,117.9 39.3,117.3 40.8,116.8 42.3,116.5 43.9,115.9 45.4,115.6 47.0,115.2 48.5,115.0 50.1,114.7 51.6,114.3 53.1,113.8 54.7,113.4 56.2,113.2 57.8,113.0 59.3,112.7 60.9,112.4 62.4,112.1 63.9,111.9 65.5,111.6 67.0,110.6 68.6,110.3 70.1,109.9 71.7,109.5 73.2,109.1 74.7,108.8 76.3,108.5 77.8,108.4 79.4,108.1 80.9,107.6 82.5,107.1 84.0,106.8 85.5,106.5 87.1,106.4 88.6,106.3 90.2,106.1 91.7,105.8 93.3,105.6 94.8,105.4 96.3,105.0 97.9,104.5 99.4,104.4 101.0,104.2 102.5,104.0 104.1,103.6 105.6,103.3 107.1,102.8 108.7,102.5 110.2,102.1 111.8,102.0 113.3,101.8 114.9,101.3 116.4,100.9 117.9,100.6 119.5,100.5 121.0,100.2 122.6,100.1 124.1,99.6 125.7,99.2 127.2,98.8 128.7,98.4 130.3,98.2 131.8,98.1 133.4,97.9 134.9,97.6 136.5,97.4 138.0,97.2 139.5,97.0 141.1,96.9 142.6,96.7 144.2,96.5 145.7,96.4 147.3,96.3 148.8,95.9 150.3,95.6 151.9,95.6 153.4,95.4 155.0,95.3 156.5,95.3 158.1,102.4 159.6,101.7 161.1,101.1 162.7,100.4 164.2,98.5 165.8,97.1 167.3,95.7 168.9,95.2 170.4,94.6 171.9,93.6 173.5,92.5 175.0,91.7 176.6,91.4 178.1,91.1 179.7,90.4 181.2,89.8 182.7,89.4 184.3,89.0 185.8,88.8 187.4,88.7 188.9,88.3 190.5,87.6 192.0,87.2 193.5,86.7 195.1,86.2 196.6,85.9 198.2,85.7 199.7,85.3 201.3,84.9 202.8,84.5 204.3,84.2 205.9,84.0 207.4,83.9 209.0,83.7 210.5,83.3 212.1,83.1 213.6,82.8 215.1,82.6 216.7,82.4 218.2,82.2 219.8,82.0 221.3,81.9 222.9,81.7 224.4,81.3 225.9,81.1 227.5,80.7 229.0,80.6 230.6,80.3 232.1,80.2 233.7,80.0 235.2,79.9 236.7,79.4 238.3,79.0 239.8,78.6 241.4,78.4 242.9,78.4 244.5,78.2 246.0,78.0 247.5,77.7 249.1,77.5 250.6,77.1 252.2,76.9 253.7,76.8 255.3,76.7 256.8,76.5 258.3,76.4 259.9,76.2 261.4,76.0 263.0,75.7 264.5,75.6 266.1,75.5 267.6,75.3 269.1,75.2 270.7,75.0 272.2,74.7 273.8,74.5 275.3,74.3 276.9,74.1 278.4,73.9 279.9,73.8 281.5,73.6 283.0,73.3 284.6,73.0 286.1,72.8 287.7,72.6 289.2,72.2 290.7,72.1 292.3,72.0 293.8,71.9 295.4,71.7 296.9,71.5 298.5,71.3 300.0,71.2 301.5,71.0 303.1,70.8 304.6,70.7 306.2,70.5 307.7,70.4 309.3,70.3 310.8,70.0 312.3,69.8 313.9,69.6 315.4,69.5 317.0,69.4 318.5,69.2 320.1,69.1 321.6,69.0 323.1,68.8 324.7,68.5 326.2,68.1 327.8,67.9 329.3,67.8 330.9,67.7 332.4,67.6 333.9,67.4 335.5,67.1 337.0,67.0 338.6,66.9 340.1,66.7 341.7,66.5 343.2,66.3 344.7,66.2 346.3,66.1 347.8,65.8 349.4,65.7 350.9,65.4 352.5,65.2 354.0,65.1 355.5,65.0 357.1,65.0 358.6,64.8 360.2,64.7 361.7,64.5 363.3,64.3 364.8,64.1 366.3,64.0 367.9,63.9 369.4,63.7 371.0,63.6 372.5,63.4 374.1,63.1 375.6,62.9 377.1,62.8 378.7,62.6 380.2,62.5 381.8,62.5 383.3,62.4 384.9,62.2 386.4,62.1 387.9,61.8 389.5,61.7 391.0,61.5 392.6,61.4 394.1,61.3 395.7,61.1 397.2,60.9 398.7,60.8 400.3,60.7 401.8,60.5 403.4,60.4 404.9,60.2 406.5,60.0 408.0,59.9 409.5,59.8 411.1,59.7 412.6,59.6 414.2,59.5 415.7,59.3 417.3,59.3 418.8,59.1 420.3,58.8 421.9,58.6 423.4,63.2 425.0,62.3 426.5,60.5 428.1,59.9 429.6,59.1 431.1,58.1 432.7,57.5 434.2,57.2 435.8,56.5 437.3,55.5 438.9,54.8 440.4,54.5 441.9,54.2 443.5,53.8 445.0,53.3 446.6,52.8 448.1,52.3 449.7,52.0 451.2,51.5 452.7,51.2 454.3,50.9 455.8,50.7 457.4,50.4 458.9,50.2 460.5,49.7 462.0,49.3 463.5,48.9 465.1,48.2 466.6,47.8 468.2,47.6 469.7,47.5 471.3,47.2 472.8,46.8 474.3,46.4 475.9,46.1 477.4,45.2 479.0,44.5 480.5,44.1 482.1,43.9 483.6,43.6 485.1,43.1 486.7,42.7 488.2,42.4 489.8,42.1 491.3,41.7 492.9,41.4 494.4,41.1 495.9,40.7 497.5,40.4 499.0,40.3 500.6,40.1 502.1,39.6 503.7,39.3 505.2,39.1 506.7,39.0 508.3,38.8 509.8,38.5 511.4,38.3 512.9,38.1 514.5,37.9 516.0,37.7 517.5,37.6 519.1,37.3 520.6,37.1 522.2,36.7 523.7,36.3 525.3,36.0 526.8,35.9 528.3,35.6 529.9,35.5 531.4,35.3 533.0,35.1 534.5,34.9 536.1,34.8 537.6,34.6 539.1,34.4 540.7,34.3 542.2,34.0 543.8,33.8 545.3,33.7 546.9,33.4 548.4,33.1 549.9,32.7 551.5,32.5 553.0,32.3 554.6,32.0 556.1,31.7 557.7,31.5 559.2,31.2 560.7,31.0 562.3,30.9 563.8,30.8 565.4,30.6 566.9,30.3 568.5,30.1 570.0,30.0 570.0,30.0,120" />
  
  <!-- Linea principale -->
  <polyline fill="none" stroke="#0366d6" stroke-width="2.5" stroke-linecap="round" stroke-linejoin="round" points="30.0,120.0 31.5,119.4 33.1,118.8 34.6,118.3 36.2,118.2 37.7,117.9 39.3,117.3 40.8,116.8 42.3,116.5 43.9,115.9 45.4,115.6 47.0,115.2 48.5,115.0 50.1,114.7 51.6,114.3 53.1,113.8 54.7,113.4 56.2,113.2 57.8,113.0 59.3,112.7 60.9,112.4 62.4,112.1 63.9,111.9 65.5,111.6 67.0,110.6 68.6,110.3 70.1,109.9 71.7,109.5 73.2,109.1 74.7,108.8 76.3,108.5 77.8,108.4 79.4,108.1 80.9,107.6 82.5,107.1 84.0,106.8 85.5,106.5 87.1,106.4 88.6,106.3 90.2,106.1 91.7,105.8 93.3,105.6 94.8,105.4 96.3,105.0 97.9,104.5 99.4,104.4 101.0,104.2 102.5,104.0 104.1,103.6 105.6,103.3 107.1,102.8 108.7,102.5 110.2,102.1 111.8,102.0 113.3,101.8 114.9,101.3 116.4,100.9 117.9,100.6 119.5,100.5 121.0,100.2 122.6,100.1 124.1,99.6 125.7,99.2 127.2,98.8 128.7,98.4 130.3,98.2 131.8,98.1 133.4,97.9 134.9,97.6 136.5,97.4 138.0,97.2 139.5,97.0 141.1,96.9 142.6,96.7 144.2,96.5 145.7,96.4 147.3,96.3 148.8,95.9 150.3,95.6 151.9,95.6 153.4,95.4 155.0,95.3 156.5,95.3 158.1,102.4 159.6,101.7 161.1,101.1 162.7,100.4 164.2,98.5 165.8,97.1 167.3,95.7 168.9,95.2 170.4,94.6 171.9,93.6 173.5,92.5 175.0,91.7 176.6,91.4 178.1,91.1 179.7,90.4 181.2,89.8 182.7,89.4 184.3,89.0 185.8,88.8 187.4,88.7 188.9,88.3 190.5,87.6 192.0,87.2 193.5,86.7 195.1,86.2 196.6,85.9 198.2,85.7 199.7,85.3 201.3,84.9 202.8,84.5 204.3,84.2 205.9,84.0 207.4,83.9 209.0,83.7 210.5,83.3 212.1,83.1 213.6,82.8 215.1,82.6 216.7,82.4 218.2,82.2 219.8,82.0 221.3,81.9 222.9,81.7 224.4,81.3 225.9,81.1 227.5,80.7 229.0,80.6 230.6,80.3 232.1,80.2 233.7,80.0 235.2,79.9 236.7,79.4 238.3,79.0 239.8,78.6 241.4,78.4 242.9,78.4 244.5,78.2 246.0,78.0 247.5,77.7 249.1,77.5 250.6,77.1 252.2,76.9 253.7,76.8 255.3,76.7 256.8,76.5 258.3,76.4 259.9,76.2 261.4,76.0 263.0,75.7 264.5,75.6 266.1,75.5 267.6,75.3 269.1,75.2 270.7,75.0 272.2,74.7 273.8,74.5 275.3,74.3 276.9,74.1 278.4,73.9 279.9,73.8 281.5,73.6 283.0,73.3 284.6,73.0 286.1,72.8 287.7,72.6 289.2,72.2 290.7,72.1 292.3,72.0 293.8,71.9 295.4,71.7 296.9,71.5 298.5,71.3 300.0,71.2 301.5,71.0 303.1,70.8 304.6,70.7 306.2,70.5 307.7,70.4 309.3,70.3 310.8,70.0 312.3,69.8 313.9,69.6 315.4,69.5 317.0,69.4 318.5,69.2 320.1,69.1 321.6,69.0 323.1,68.8 324.7,68.5 326.2,68.1 327.8,67.9 329.3,67.8 330.9,67.7 332.4,67.6 333.9,67.4 335.5,67.1 337.0,67.0 338.6,66.9 340.1,66.7 341.7,66.5 343.2,66.3 344.7,66.2 346.3,66.1 347.8,65.8 349.4,65.7 350.9,65.4 352.5,65.2 354.0,65.1 355.5,65.0 357.1,65.0 358.6,64.8 360.2,64.7 361.7,64.5 363.3,64.3 364.8,64.1 366.3,64.0 367.9,63.9 369.4,63.7 371.0,63.6 372.5,63.4 374.1,63.1 375.6,62.9 377.1,62.8 378.7,62.6 380.2,62.5 381.8,62.5 383.3,62.4 384.9,62.2 386.4,62.1 387.9,61.8 389.5,61.7 391.0,61.5 392.6,61.4 394.1,61.3 395.7,61.1 397.2,60.9 398.7,60.8 400.3,60.7 401.8,60.5 403.4,60.4 404.9,60.2 406.5,60.0 408.0,59.9 409.5,59.8 411.1,59.7 412.6,59.6 414.2,59.5 415.7,59.3 417.3,59.3 418.8,59.1 420.3,58.8 421.9,58.6 423.4,63.2 425.0,62.3 426.5,60.5 428.1,59.9 429.6,59.1 431.1,58.1 432.7,57.5 434.2,57.2 435.8,56.5 437.3,55.5 438.9,54.8 440.4,54.5 441.9,54.2 443.5,53.8 445.0,53.3 446.6,52.8 448.1,52.3 449.7,52.0 451.2,51.5 452.7,51.2 454.3,50.9 455.8,50.7 457.4,50.4 458.9,50.2 460.5,49.7 462.0,49.3 463.5,48.9 465.1,48.2 466.6,47.8 468.2,47.6 469.7,47.5 471.3,47.2 472.8,46.8 474.3,46.4 475.9,46.1 477.4,45.2 479.0,44.5 480.5,44.1 482.1,43.9 483.6,43.6 485.1,43.1 486.7,42.7 488.2,42.4 489.8,42.1 491.3,41.7 492.9,41.4 494.4,41.1 495.9,40.7 497.5,40.4 499.0,40.3 500.6,40.1 502.1,39.6 503.7,39.3 505.2,39.1 506.7,39.0 508.3,38.8 509.8,38.5 511.4,38.3 512.9,38.1 514.5,37.9 516.0,37.7 517.5,37.6 519.1,37.3 520.6,37.1 522.2,36.7 523.7,36.3 525.3,36.0 526.8,35.9 528.3,35.6 529.9,35.5 531.4,35.3 533.0,35.1 534.5,34.9 536.1,34.8 537.6,34.6 539.1,34.4 540.7,34.3 542.2,34.0 543.8,33.8 545.3,33.7 546.9,33.4 548.4,33.1 549.9,32.7 551.5,32.5 553.0,32.3 554.6,32.0 556.1,31.7 557.7,31.5 559.2,31.2 560.7,31.0 562.3,30.9 563.8,30.8 565.4,30.6 566.9,30.3 568.5,30.1 570.0,30.0" />
  
  <!-- Punto finale luminoso -->
  <circle cx="570.0" cy="30.0" r="4" fill="#ffffff" stroke="#0366d6" stroke-width="2.5" />
</svg>