<svg width="600" height="150" viewBox="0 0 600 150" xmlns="http://www.w3.org/2000/svg">
  <defs>
    <filter id="shadow2" x="-2%" y="-2%" width="104%" height="108%">
      <feDropShadow dx="0" dy="2" stdDeviation="3" flood-opacity="0.1" />
    </filter>
    <linearGradient id="fillGrad" x1="0" y1="0" x2="0" y2="1">
      <stop offset="0%" stop-color="#0366d6" stop-opacity="0.3"/>
      <stop offset="100%" stop-color="#0366d6" stop-opacity="0.02"/>
    </linearGradient>
  </defs>
  <rect width="600" height="150" rx="12" fill="#ffffff" filter="url(#shadow2)" stroke="#e1e4e8" stroke-width="1"/>
  <text x="20" y="24" fill="#2b3137" font-family="-apple-system,BlinkMacSystemFont,'Segoe UI',Helvetica,Arial,sans-serif" font-size="14" font-weight="600">📈 Download Growth (Actual: 86.6k)</text>
  
  <!-- Area sotto la linea -->
  <polygon fill="url(#fillGrad)" points="30.0,120.0,120 30.0,120.0 31.4,119.5 32.8,118.9 34.2,118.5 35.5,118.3 36.9,118.1 38.3,117.5 39.7,117.1 41.1,116.8 42.5,116.2 43.8,115.9 45.2,115.6 46.6,115.4 48.0,115.1 49.4,114.7 50.8,114.3 52.2,114.0 53.5,113.7 54.9,113.6 56.3,113.3 57.7,113.0 59.1,112.7 60.5,112.6 61.8,112.3 63.2,111.3 64.6,111.0 66.0,110.7 67.4,110.3 68.8,109.9 70.2,109.6 71.5,109.4 72.9,109.3 74.3,109.0 75.7,108.5 77.1,108.1 78.5,107.8 79.8,107.5 81.2,107.4 82.6,107.3 84.0,107.2 85.4,106.9 86.8,106.7 88.2,106.6 89.5,106.2 90.9,105.7 92.3,105.6 93.7,105.5 95.1,105.3 96.5,104.9 97.8,104.6 99.2,104.2 100.6,103.8 102.0,103.5 103.4,103.4 104.8,103.2 106.2,102.8 107.5,102.4 108.9,102.1 110.3,102.0 111.7,101.8 113.1,101.6 114.5,101.2 115.8,100.8 117.2,100.4 118.6,100.0 120.0,99.9 121.4,99.8 122.8,99.6 124.2,99.3 125.5,99.1 126.9,98.9 128.3,98.8 129.7,98.7 131.1,98.5 132.5,98.3 133.8,98.2 135.2,98.1 136.6,97.7 138.0,97.5 139.4,97.5 140.8,97.3 142.2,97.2 143.5,97.2 144.9,103.7 146.3,103.1 147.7,102.5 149.1,101.9 150.5,100.2 151.8,98.9 153.2,97.6 154.6,97.1 156.0,96.5 157.4,95.6 158.8,94.6 160.2,93.9 161.5,93.6 162.9,93.4 164.3,92.7 165.7,92.1 167.1,91.8 168.5,91.4 169.8,91.2 171.2,91.1 172.6,90.8 174.0,90.1 175.4,89.7 176.8,89.3 178.2,88.8 179.5,88.6 180.9,88.4 182.3,88.0 183.7,87.6 185.1,87.2 186.5,86.9 187.8,86.8 189.2,86.7 190.6,86.5 192.0,86.2 193.4,85.9 194.8,85.7 196.2,85.5 197.5,85.3 198.9,85.1 200.3,85.0 201.7,84.8 203.1,84.7 204.5,84.3 205.8,84.1 207.2,83.8 208.6,83.6 210.0,83.4 211.4,83.3 212.8,83.1 214.2,83.0 215.5,82.5 216.9,82.2 218.3,81.8 219.7,81.6 221.1,81.6 222.5,81.4 223.8,81.2 225.2,81.0 226.6,80.7 228.0,80.5 229.4,80.3 230.8,80.2 232.2,80.0 233.5,79.9 234.9,79.8 236.3,79.6 237.7,79.4 239.1,79.1 240.5,79.0 241.8,78.9 243.2,78.8 244.6,78.7 246.0,78.4 247.4,78.2 248.8,78.0 250.2,77.8 251.5,77.6 252.9,77.5 254.3,77.4 255.7,77.2 257.1,76.9 258.5,76.7 259.8,76.5 261.2,76.3 262.6,75.9 264.0,75.8 265.4,75.7 266.8,75.6 268.2,75.4 269.5,75.3 270.9,75.1 272.3,74.9 273.7,74.8 275.1,74.6 276.5,74.5 277.8,74.4 279.2,74.3 280.6,74.1 282.0,73.8 283.4,73.7 284.8,73.5 286.2,73.4 287.5,73.3 288.9,73.1 290.3,73.0 291.7,72.9 293.1,72.7 294.5,72.5 295.8,72.2 297.2,72.0 298.6,71.8 300.0,71.7 301.4,71.7 302.8,71.5 304.2,71.2 305.5,71.1 306.9,71.0 308.3,70.8 309.7,70.7 311.1,70.5 312.5,70.4 313.8,70.3 315.2,70.0 316.6,69.9 318.0,69.6 319.4,69.4 320.8,69.4 322.2,69.3 323.5,69.2 324.9,69.1 326.3,68.9 327.7,68.8 329.1,68.6 330.5,68.4 331.8,68.3 333.2,68.2 334.6,68.1 336.0,67.9 337.4,67.7 338.8,67.5 340.2,67.4 341.5,67.2 342.9,67.1 344.3,67.0 345.7,66.9 347.1,66.8 348.5,66.7 349.8,66.6 351.2,66.3 352.6,66.2 354.0,66.0 355.4,66.0 356.8,65.8 358.2,65.7 359.5,65.5 360.9,65.4 362.3,65.3 363.7,65.1 365.1,65.0 366.5,64.8 367.8,64.7 369.2,64.6 370.6,64.5 372.0,64.4 373.4,64.3 374.8,64.1 376.2,64.0 377.5,64.0 378.9,63.8 380.3,63.5 381.7,63.3 383.1,67.6 384.5,66.7 385.8,65.1 387.2,64.5 388.6,63.8 390.0,62.9 391.4,62.4 392.8,62.0 394.2,61.4 395.5,60.5 396.9,59.8 398.3,59.6 399.7,59.2 401.1,59.0 402.5,58.5 403.8,58.0 405.2,57.5 406.6,57.3 408.0,56.8 409.4,56.6 410.8,56.2 412.2,56.0 413.5,55.8 414.9,55.6 416.3,55.1 417.7,54.8 419.1,54.4 420.5,53.8 421.8,53.4 423.2,53.2 424.6,53.1 426.0,52.8 427.4,52.5 428.8,52.1 430.2,51.8 431.5,51.0 432.9,50.3 434.3,50.0 435.7,49.8 437.1,49.5 438.5,49.1 439.8,48.7 441.2,48.4 442.6,48.1 444.0,47.8 445.4,47.5 446.8,47.2 448.2,46.8 449.5,46.6 450.9,46.4 452.3,46.2 453.7,45.8 455.1,45.6 456.5,45.4 457.8,45.2 459.2,45.1 460.6,44.8 462.0,44.6 463.4,44.4 464.8,44.3 466.2,44.1 467.5,43.9 468.9,43.7 470.3,43.5 471.7,43.1 473.1,42.8 474.5,42.5 475.8,42.4 477.2,42.2 478.6,42.0 480.0,41.8 481.4,41.7 482.8,41.5 484.2,41.4 485.5,41.2 486.9,41.0 488.3,40.9 489.7,40.6 491.1,40.5 492.5,40.3 493.8,40.1 495.2,39.8 496.6,39.4 498.0,39.2 499.4,39.0 500.8,38.8 502.2,38.6 503.5,38.4 504.9,38.1 506.3,37.9 507.7,37.8 509.1,37.7 510.5,37.5 511.8,37.2 513.2,37.1 514.6,37.0 516.0,36.7 517.4,36.5 518.8,36.3 520.2,36.0 521.5,35.9 522.9,35.6 524.3,35.3 525.7,35.2 527.1,35.0 528.5,34.9 529.8,34.7 531.2,34.5 532.6,34.3 534.0,34.1 535.4,34.0 536.8,33.8 538.2,33.7 539.5,33.5 540.9,33.4 542.3,33.2 543.7,33.1 545.1,33.0 546.5,32.8 547.8,32.7 549.2,32.5 550.6,32.3 552.0,32.2 553.4,32.0 554.8,31.8 556.2,31.6 557.5,31.5 558.9,31.3 560.3,31.2 561.7,30.9 563.1,30.8 564.5,30.5 565.8,30.4 567.2,30.3 568.6,30.2 570.0,30.0 570.0,30.0,120" />
  
  <!-- Linea principale -->
  <polyline fill="none" stroke="#0366d6" stroke-width="2.5" stroke-linecap="round" stroke-linejoin="round" points="30.0,120.0 31.4,119.5 32.8,118.9 34.2,118.5 35.5,118.3 36.9,118.1 38.3,117.5 39.7,117.1 41.1,116.8 42.5,116.2 43.8,115.9 45.2,115.6 46.6,115.4 48.0,115.1 49.4,114.7 50.8,114.3 52.2,114.0 53.5,113.7 54.9,113.6 56.3,113.3 57.7,113.0 59.1,112.7 60.5,112.6 61.8,112.3 63.2,111.3 64.6,111.0 66.0,110.7 67.4,110.3 68.8,109.9 70.2,109.6 71.5,109.4 72.9,109.3 74.3,109.0 75.7,108.5 77.1,108.1 78.5,107.8 79.8,107.5 81.2,107.4 82.6,107.3 84.0,107.2 85.4,106.9 86.8,106.7 88.2,106.6 89.5,106.2 90.9,105.7 92.3,105.6 93.7,105.5 95.1,105.3 96.5,104.9 97.8,104.6 99.2,104.2 100.6,103.8 102.0,103.5 103.4,103.4 104.8,103.2 106.2,102.8 107.5,102.4 108.9,102.1 110.3,102.0 111.7,101.8 113.1,101.6 114.5,101.2 115.8,100.8 117.2,100.4 118.6,100.0 120.0,99.9 121.4,99.8 122.8,99.6 124.2,99.3 125.5,99.1 126.9,98.9 128.3,98.8 129.7,98.7 131.1,98.5 132.5,98.3 133.8,98.2 135.2,98.1 136.6,97.7 138.0,97.5 139.4,97.5 140.8,97.3 142.2,97.2 143.5,97.2 144.9,103.7 146.3,103.1 147.7,102.5 149.1,101.9 150.5,100.2 151.8,98.9 153.2,97.6 154.6,97.1 156.0,96.5 157.4,95.6 158.8,94.6 160.2,93.9 161.5,93.6 162.9,93.4 164.3,92.7 165.7,92.1 167.1,91.8 168.5,91.4 169.8,91.2 171.2,91.1 172.6,90.8 174.0,90.1 175.4,89.7 176.8,89.3 178.2,88.8 179.5,88.6 180.9,88.4 182.3,88.0 183.7,87.6 185.1,87.2 186.5,86.9 187.8,86.8 189.2,86.7 190.6,86.5 192.0,86.2 193.4,85.9 194.8,85.7 196.2,85.5 197.5,85.3 198.9,85.1 200.3,85.0 201.7,84.8 203.1,84.7 204.5,84.3 205.8,84.1 207.2,83.8 208.6,83.6 210.0,83.4 211.4,83.3 212.8,83.1 214.2,83.0 215.5,82.5 216.9,82.2 218.3,81.8 219.7,81.6 221.1,81.6 222.5,81.4 223.8,81.2 225.2,81.0 226.6,80.7 228.0,80.5 229.4,80.3 230.8,80.2 232.2,80.0 233.5,79.9 234.9,79.8 236.3,79.6 237.7,79.4 239.1,79.1 240.5,79.0 241.8,78.9 243.2,78.8 244.6,78.7 246.0,78.4 247.4,78.2 248.8,78.0 250.2,77.8 251.5,77.6 252.9,77.5 254.3,77.4 255.7,77.2 257.1,76.9 258.5,76.7 259.8,76.5 261.2,76.3 262.6,75.9 264.0,75.8 265.4,75.7 266.8,75.6 268.2,75.4 269.5,75.3 270.9,75.1 272.3,74.9 273.7,74.8 275.1,74.6 276.5,74.5 277.8,74.4 279.2,74.3 280.6,74.1 282.0,73.8 283.4,73.7 284.8,73.5 286.2,73.4 287.5,73.3 288.9,73.1 290.3,73.0 291.7,72.9 293.1,72.7 294.5,72.5 295.8,72.2 297.2,72.0 298.6,71.8 300.0,71.7 301.4,71.7 302.8,71.5 304.2,71.2 305.5,71.1 306.9,71.0 308.3,70.8 309.7,70.7 311.1,70.5 312.5,70.4 313.8,70.3 315.2,70.0 316.6,69.9 318.0,69.6 319.4,69.4 320.8,69.4 322.2,69.3 323.5,69.2 324.9,69.1 326.3,68.9 327.7,68.8 329.1,68.6 330.5,68.4 331.8,68.3 333.2,68.2 334.6,68.1 336.0,67.9 337.4,67.7 338.8,67.5 340.2,67.4 341.5,67.2 342.9,67.1 344.3,67.0 345.7,66.9 347.1,66.8 348.5,66.7 349.8,66.6 351.2,66.3 352.6,66.2 354.0,66.0 355.4,66.0 356.8,65.8 358.2,65.7 359.5,65.5 360.9,65.4 362.3,65.3 363.7,65.1 365.1,65.0 366.5,64.8 367.8,64.7 369.2,64.6 370.6,64.5 372.0,64.4 373.4,64.3 374.8,64.1 376.2,64.0 377.5,64.0 378.9,63.8 380.3,63.5 381.7,63.3 383.1,67.6 384.5,66.7 385.8,65.1 387.2,64.5 388.6,63.8 390.0,62.9 391.4,62.4 392.8,62.0 394.2,61.4 395.5,60.5 396.9,59.8 398.3,59.6 399.7,59.2 401.1,59.0 402.5,58.5 403.8,58.0 405.2,57.5 406.6,57.3 408.0,56.8 409.4,56.6 410.8,56.2 412.2,56.0 413.5,55.8 414.9,55.6 416.3,55.1 417.7,54.8 419.1,54.4 420.5,53.8 421.8,53.4 423.2,53.2 424.6,53.1 426.0,52.8 427.4,52.5 428.8,52.1 430.2,51.8 431.5,51.0 432.9,50.3 434.3,50.0 435.7,49.8 437.1,49.5 438.5,49.1 439.8,48.7 441.2,48.4 442.6,48.1 444.0,47.8 445.4,47.5 446.8,47.2 448.2,46.8 449.5,46.6 450.9,46.4 452.3,46.2 453.7,45.8 455.1,45.6 456.5,45.4 457.8,45.2 459.2,45.1 460.6,44.8 462.0,44.6 463.4,44.4 464.8,44.3 466.2,44.1 467.5,43.9 468.9,43.7 470.3,43.5 471.7,43.1 473.1,42.8 474.5,42.5 475.8,42.4 477.2,42.2 478.6,42.0 480.0,41.8 481.4,41.7 482.8,41.5 484.2,41.4 485.5,41.2 486.9,41.0 488.3,40.9 489.7,40.6 491.1,40.5 492.5,40.3 493.8,40.1 495.2,39.8 496.6,39.4 498.0,39.2 499.4,39.0 500.8,38.8 502.2,38.6 503.5,38.4 504.9,38.1 506.3,37.9 507.7,37.8 509.1,37.7 510.5,37.5 511.8,37.2 513.2,37.1 514.6,37.0 516.0,36.7 517.4,36.5 518.8,36.3 520.2,36.0 521.5,35.9 522.9,35.6 524.3,35.3 525.7,35.2 527.1,35.0 528.5,34.9 529.8,34.7 531.2,34.5 532.6,34.3 534.0,34.1 535.4,34.0 536.8,33.8 538.2,33.7 539.5,33.5 540.9,33.4 542.3,33.2 543.7,33.1 545.1,33.0 546.5,32.8 547.8,32.7 549.2,32.5 550.6,32.3 552.0,32.2 553.4,32.0 554.8,31.8 556.2,31.6 557.5,31.5 558.9,31.3 560.3,31.2 561.7,30.9 563.1,30.8 564.5,30.5 565.8,30.4 567.2,30.3 568.6,30.2 570.0,30.0" />
  
  <!-- Punto finale luminoso -->
  <circle cx="570.0" cy="30.0" r="4" fill="#ffffff" stroke="#0366d6" stroke-width="2.5" />
</svg>