<svg width="600" height="150" viewBox="0 0 600 150" xmlns="http://www.w3.org/2000/svg">
  <defs>
    <filter id="shadow2" x="-2%" y="-2%" width="104%" height="108%">
      <feDropShadow dx="0" dy="2" stdDeviation="3" flood-opacity="0.1" />
    </filter>
    <linearGradient id="fillGrad" x1="0" y1="0" x2="0" y2="1">
      <stop offset="0%" stop-color="#0366d6" stop-opacity="0.3"/>
      <stop offset="100%" stop-color="#0366d6" stop-opacity="0.02"/>
    </linearGradient>
  </defs>
  <rect width="600" height="150" rx="12" fill="#ffffff" filter="url(#shadow2)" stroke="#e1e4e8" stroke-width="1"/>
  <text x="20" y="24" fill="#2b3137" font-family="-apple-system,BlinkMacSystemFont,'Segoe UI',Helvetica,Arial,sans-serif" font-size="14" font-weight="600">📈 Download Growth (Actual: 70.8k)</text>
  
  <!-- Area sotto la linea -->
  <polygon fill="url(#fillGrad)" points="30.0,120.0,120 30.0,120.0 39.5,117.4 48.9,114.6 58.4,112.2 67.9,111.6 77.4,110.3 86.8,107.3 96.3,105.3 105.8,104.0 115.3,100.9 124.7,99.4 134.2,97.8 143.7,97.0 153.2,95.6 162.6,93.5 172.1,91.3 181.6,89.6 191.1,88.5 200.5,87.7 210.0,86.3 219.5,84.7 228.9,83.2 238.4,82.5 247.9,81.2 257.4,76.3 266.8,74.9 276.3,73.0 285.8,71.1 295.3,69.4 304.7,67.8 314.2,66.8 323.7,66.0 333.2,64.6 342.6,62.3 352.1,60.2 361.6,58.9 371.1,57.2 380.5,56.8 390.0,56.4 399.5,55.5 408.9,54.0 418.4,53.1 427.9,52.4 437.4,50.6 446.8,48.0 456.3,47.4 465.8,46.9 475.3,45.9 484.7,43.8 494.2,42.5 503.7,40.3 513.2,38.8 522.6,36.9 532.1,36.5 541.6,35.4 551.1,33.4 560.5,31.5 570.0,30.0 570.0,30.0,120" />
  
  <!-- Linea principale -->
  <polyline fill="none" stroke="#0366d6" stroke-width="2.5" stroke-linecap="round" stroke-linejoin="round" points="30.0,120.0 39.5,117.4 48.9,114.6 58.4,112.2 67.9,111.6 77.4,110.3 86.8,107.3 96.3,105.3 105.8,104.0 115.3,100.9 124.7,99.4 134.2,97.8 143.7,97.0 153.2,95.6 162.6,93.5 172.1,91.3 181.6,89.6 191.1,88.5 200.5,87.7 210.0,86.3 219.5,84.7 228.9,83.2 238.4,82.5 247.9,81.2 257.4,76.3 266.8,74.9 276.3,73.0 285.8,71.1 295.3,69.4 304.7,67.8 314.2,66.8 323.7,66.0 333.2,64.6 342.6,62.3 352.1,60.2 361.6,58.9 371.1,57.2 380.5,56.8 390.0,56.4 399.5,55.5 408.9,54.0 418.4,53.1 427.9,52.4 437.4,50.6 446.8,48.0 456.3,47.4 465.8,46.9 475.3,45.9 484.7,43.8 494.2,42.5 503.7,40.3 513.2,38.8 522.6,36.9 532.1,36.5 541.6,35.4 551.1,33.4 560.5,31.5 570.0,30.0" />
  
  <!-- Punto finale luminoso -->
  <circle cx="570.0" cy="30.0" r="4" fill="#ffffff" stroke="#0366d6" stroke-width="2.5" />
</svg>