<svg width="600" height="150" viewBox="0 0 600 150" xmlns="http://www.w3.org/2000/svg">
  <defs>
    <filter id="shadow2" x="-2%" y="-2%" width="104%" height="108%">
      <feDropShadow dx="0" dy="2" stdDeviation="3" flood-opacity="0.1" />
    </filter>
    <linearGradient id="fillGrad" x1="0" y1="0" x2="0" y2="1">
      <stop offset="0%" stop-color="#0366d6" stop-opacity="0.3"/>
      <stop offset="100%" stop-color="#0366d6" stop-opacity="0.02"/>
    </linearGradient>
  </defs>
  <rect width="600" height="150" rx="12" fill="#ffffff" filter="url(#shadow2)" stroke="#e1e4e8" stroke-width="1"/>
  <text x="20" y="24" fill="#2b3137" font-family="-apple-system,BlinkMacSystemFont,'Segoe UI',Helvetica,Arial,sans-serif" font-size="14" font-weight="600">📈 Download Growth (Actual: 74.5k)</text>
  
  <!-- Area sotto la linea -->
  <polygon fill="url(#fillGrad)" points="30.0,120.0,120 30.0,120.0 34.4,118.7 38.9,117.2 43.3,116.0 47.7,115.7 52.1,115.0 56.6,113.5 61.0,112.5 65.4,111.8 69.8,110.2 74.3,109.4 78.7,108.6 83.1,108.2 87.5,107.4 92.0,106.4 96.4,105.3 100.8,104.4 105.2,103.8 109.7,103.4 114.1,102.7 118.5,101.8 123.0,101.1 127.4,100.8 131.8,100.1 136.2,97.6 140.7,96.8 145.1,95.9 149.5,94.9 153.9,94.0 158.4,93.2 162.8,92.7 167.2,92.3 171.6,91.6 176.1,90.3 180.5,89.3 184.9,88.6 189.3,87.8 193.8,87.5 198.2,87.3 202.6,86.9 207.0,86.1 211.5,85.6 215.9,85.3 220.3,84.4 224.8,83.0 229.2,82.7 233.6,82.5 238.0,81.9 242.5,80.9 246.9,80.2 251.3,79.1 255.7,78.3 260.2,77.3 264.6,77.1 269.0,76.5 273.4,75.5 277.9,74.5 282.3,73.8 286.7,73.4 291.1,72.9 295.6,72.5 300.0,71.4 304.4,70.3 308.9,69.4 313.3,68.5 317.7,68.0 322.1,67.7 326.6,67.3 331.0,66.6 335.4,66.1 339.8,65.6 344.3,65.3 348.7,64.9 353.1,64.4 357.5,64.0 362.0,63.8 366.4,63.5 370.8,62.5 375.2,62.0 379.7,61.8 384.1,61.4 388.5,61.2 393.0,61.2 397.4,78.0 401.8,76.4 406.2,74.9 410.7,73.3 415.1,68.8 419.5,65.6 423.9,62.1 428.4,60.9 432.8,59.4 437.2,57.1 441.6,54.5 446.1,52.6 450.5,51.9 454.9,51.2 459.3,49.4 463.8,48.0 468.2,47.2 472.6,46.1 477.0,45.7 481.5,45.5 485.9,44.5 490.3,42.9 494.8,41.8 499.2,40.7 503.6,39.4 508.0,38.8 512.5,38.4 516.9,37.3 521.3,36.3 525.7,35.4 530.2,34.6 534.6,34.3 539.0,34.1 543.4,33.5 547.9,32.7 552.3,32.0 556.7,31.4 561.1,31.0 565.6,30.5 570.0,30.0 570.0,30.0,120" />
  
  <!-- Linea principale -->
  <polyline fill="none" stroke="#0366d6" stroke-width="2.5" stroke-linecap="round" stroke-linejoin="round" points="30.0,120.0 34.4,118.7 38.9,117.2 43.3,116.0 47.7,115.7 52.1,115.0 56.6,113.5 61.0,112.5 65.4,111.8 69.8,110.2 74.3,109.4 78.7,108.6 83.1,108.2 87.5,107.4 92.0,106.4 96.4,105.3 100.8,104.4 105.2,103.8 109.7,103.4 114.1,102.7 118.5,101.8 123.0,101.1 127.4,100.8 131.8,100.1 136.2,97.6 140.7,96.8 145.1,95.9 149.5,94.9 153.9,94.0 158.4,93.2 162.8,92.7 167.2,92.3 171.6,91.6 176.1,90.3 180.5,89.3 184.9,88.6 189.3,87.8 193.8,87.5 198.2,87.3 202.6,86.9 207.0,86.1 211.5,85.6 215.9,85.3 220.3,84.4 224.8,83.0 229.2,82.7 233.6,82.5 238.0,81.9 242.5,80.9 246.9,80.2 251.3,79.1 255.7,78.3 260.2,77.3 264.6,77.1 269.0,76.5 273.4,75.5 277.9,74.5 282.3,73.8 286.7,73.4 291.1,72.9 295.6,72.5 300.0,71.4 304.4,70.3 308.9,69.4 313.3,68.5 317.7,68.0 322.1,67.7 326.6,67.3 331.0,66.6 335.4,66.1 339.8,65.6 344.3,65.3 348.7,64.9 353.1,64.4 357.5,64.0 362.0,63.8 366.4,63.5 370.8,62.5 375.2,62.0 379.7,61.8 384.1,61.4 388.5,61.2 393.0,61.2 397.4,78.0 401.8,76.4 406.2,74.9 410.7,73.3 415.1,68.8 419.5,65.6 423.9,62.1 428.4,60.9 432.8,59.4 437.2,57.1 441.6,54.5 446.1,52.6 450.5,51.9 454.9,51.2 459.3,49.4 463.8,48.0 468.2,47.2 472.6,46.1 477.0,45.7 481.5,45.5 485.9,44.5 490.3,42.9 494.8,41.8 499.2,40.7 503.6,39.4 508.0,38.8 512.5,38.4 516.9,37.3 521.3,36.3 525.7,35.4 530.2,34.6 534.6,34.3 539.0,34.1 543.4,33.5 547.9,32.7 552.3,32.0 556.7,31.4 561.1,31.0 565.6,30.5 570.0,30.0" />
  
  <!-- Punto finale luminoso -->
  <circle cx="570.0" cy="30.0" r="4" fill="#ffffff" stroke="#0366d6" stroke-width="2.5" />
</svg>