<svg width="600" height="150" viewBox="0 0 600 150" xmlns="http://www.w3.org/2000/svg">
  <defs>
    <filter id="shadow2" x="-2%" y="-2%" width="104%" height="108%">
      <feDropShadow dx="0" dy="2" stdDeviation="3" flood-opacity="0.1" />
    </filter>
    <linearGradient id="fillGrad" x1="0" y1="0" x2="0" y2="1">
      <stop offset="0%" stop-color="#0366d6" stop-opacity="0.3"/>
      <stop offset="100%" stop-color="#0366d6" stop-opacity="0.02"/>
    </linearGradient>
  </defs>
  <rect width="600" height="150" rx="12" fill="#ffffff" filter="url(#shadow2)" stroke="#e1e4e8" stroke-width="1"/>
  <text x="20" y="24" fill="#2b3137" font-family="-apple-system,BlinkMacSystemFont,'Segoe UI',Helvetica,Arial,sans-serif" font-size="14" font-weight="600">📈 Download Growth (Actual: 85.7k)</text>
  
  <!-- Area sotto la linea -->
  <polygon fill="url(#fillGrad)" points="30.0,120.0,120 30.0,120.0 31.5,119.5 33.0,118.9 34.5,118.4 35.9,118.2 37.4,118.0 38.9,117.4 40.4,116.9 41.9,116.7 43.4,116.0 44.8,115.7 46.3,115.4 47.8,115.2 49.3,114.9 50.8,114.5 52.3,114.0 53.7,113.7 55.2,113.4 56.7,113.3 58.2,113.0 59.7,112.6 61.2,112.3 62.6,112.2 64.1,111.9 65.6,110.9 67.1,110.6 68.6,110.2 70.1,109.8 71.5,109.5 73.0,109.1 74.5,108.9 76.0,108.7 77.5,108.5 79.0,108.0 80.4,107.5 81.9,107.3 83.4,106.9 84.9,106.8 86.4,106.7 87.9,106.6 89.3,106.2 90.8,106.1 92.3,105.9 93.8,105.5 95.3,105.0 96.8,104.9 98.2,104.8 99.7,104.6 101.2,104.1 102.7,103.8 104.2,103.4 105.7,103.1 107.1,102.7 108.6,102.6 110.1,102.4 111.6,102.0 113.1,101.6 114.6,101.2 116.0,101.1 117.5,100.9 119.0,100.7 120.5,100.3 122.0,99.8 123.5,99.5 124.9,99.1 126.4,98.9 127.9,98.8 129.4,98.6 130.9,98.3 132.4,98.1 133.8,97.9 135.3,97.8 136.8,97.7 138.3,97.4 139.8,97.3 141.3,97.2 142.7,97.1 144.2,96.7 145.7,96.5 147.2,96.4 148.7,96.2 150.2,96.2 151.6,96.2 153.1,103.0 154.6,102.3 156.1,101.7 157.6,101.1 159.1,99.2 160.5,97.9 162.0,96.5 163.5,96.0 165.0,95.4 166.5,94.5 168.0,93.4 169.5,92.7 170.9,92.4 172.4,92.1 173.9,91.3 175.4,90.8 176.9,90.5 178.4,90.0 179.8,89.8 181.3,89.8 182.8,89.4 184.3,88.7 185.8,88.3 187.3,87.8 188.7,87.3 190.2,87.1 191.7,86.9 193.2,86.4 194.7,86.0 196.2,85.7 197.6,85.4 199.1,85.2 200.6,85.1 202.1,84.9 203.6,84.6 205.1,84.3 206.5,84.1 208.0,83.9 209.5,83.7 211.0,83.5 212.5,83.3 214.0,83.1 215.4,83.0 216.9,82.6 218.4,82.4 219.9,82.0 221.4,81.9 222.9,81.7 224.3,81.5 225.8,81.4 227.3,81.2 228.8,80.7 230.3,80.4 231.8,80.0 233.2,79.8 234.7,79.8 236.2,79.6 237.7,79.4 239.2,79.1 240.7,78.9 242.1,78.6 243.6,78.4 245.1,78.3 246.6,78.1 248.1,78.0 249.6,77.8 251.0,77.6 252.5,77.5 254.0,77.2 255.5,77.0 257.0,76.9 258.5,76.8 259.9,76.7 261.4,76.5 262.9,76.3 264.4,76.0 265.9,75.8 267.4,75.6 268.8,75.4 270.3,75.3 271.8,75.2 273.3,74.9 274.8,74.6 276.3,74.4 277.7,74.2 279.2,73.8 280.7,73.7 282.2,73.6 283.7,73.5 285.2,73.3 286.6,73.1 288.1,72.9 289.6,72.8 291.1,72.6 292.6,72.5 294.1,72.3 295.5,72.2 297.0,72.1 298.5,71.9 300.0,71.6 301.5,71.5 303.0,71.3 304.5,71.2 305.9,71.1 307.4,70.9 308.9,70.8 310.4,70.7 311.9,70.5 313.4,70.2 314.8,69.9 316.3,69.7 317.8,69.5 319.3,69.4 320.8,69.4 322.3,69.2 323.7,68.9 325.2,68.8 326.7,68.7 328.2,68.5 329.7,68.3 331.2,68.1 332.6,68.0 334.1,67.9 335.6,67.7 337.1,67.5 338.6,67.2 340.1,67.0 341.5,66.9 343.0,66.9 344.5,66.8 346.0,66.6 347.5,66.5 349.0,66.3 350.4,66.2 351.9,66.0 353.4,65.9 354.9,65.7 356.4,65.6 357.9,65.5 359.3,65.2 360.8,65.0 362.3,64.8 363.8,64.7 365.3,64.6 366.8,64.5 368.2,64.4 369.7,64.3 371.2,64.2 372.7,64.0 374.2,63.8 375.7,63.6 377.1,63.5 378.6,63.4 380.1,63.2 381.6,63.1 383.1,62.9 384.6,62.8 386.0,62.7 387.5,62.5 389.0,62.3 390.5,62.2 392.0,62.0 393.5,61.9 394.9,61.9 396.4,61.7 397.9,61.6 399.4,61.5 400.9,61.3 402.4,61.3 403.8,61.2 405.3,60.8 406.8,60.6 408.3,65.1 409.8,64.2 411.3,62.5 412.7,61.9 414.2,61.1 415.7,60.1 417.2,59.6 418.7,59.3 420.2,58.6 421.6,57.7 423.1,56.9 424.6,56.7 426.1,56.3 427.6,56.1 429.1,55.6 430.5,55.1 432.0,54.5 433.5,54.3 435.0,53.8 436.5,53.5 438.0,53.2 439.5,53.0 440.9,52.7 442.4,52.5 443.9,52.0 445.4,51.7 446.9,51.2 448.4,50.6 449.8,50.2 451.3,50.1 452.8,49.9 454.3,49.6 455.8,49.2 457.3,48.9 458.7,48.6 460.2,47.7 461.7,47.0 463.2,46.6 464.7,46.5 466.2,46.2 467.6,45.7 469.1,45.3 470.6,45.0 472.1,44.7 473.6,44.3 475.1,44.0 476.5,43.7 478.0,43.3 479.5,43.1 481.0,42.9 482.5,42.7 484.0,42.3 485.4,42.0 486.9,41.8 488.4,41.7 489.9,41.5 491.4,41.2 492.9,41.0 494.3,40.8 495.8,40.6 497.3,40.5 498.8,40.3 500.3,40.0 501.8,39.8 503.2,39.5 504.7,39.1 506.2,38.8 507.7,38.7 509.2,38.5 510.7,38.3 512.1,38.1 513.6,37.9 515.1,37.7 516.6,37.6 518.1,37.5 519.6,37.3 521.0,37.2 522.5,36.8 524.0,36.7 525.5,36.5 527.0,36.3 528.5,36.0 529.9,35.6 531.4,35.4 532.9,35.2 534.4,34.9 535.9,34.7 537.4,34.5 538.8,34.2 540.3,34.0 541.8,33.9 543.3,33.8 544.8,33.5 546.3,33.3 547.7,33.1 549.2,33.0 550.7,32.7 552.2,32.5 553.7,32.3 555.2,32.0 556.6,31.9 558.1,31.5 559.6,31.3 561.1,31.1 562.6,31.0 564.1,30.8 565.5,30.7 567.0,30.4 568.5,30.2 570.0,30.0 570.0,30.0,120" />
  
  <!-- Linea principale -->
  <polyline fill="none" stroke="#0366d6" stroke-width="2.5" stroke-linecap="round" stroke-linejoin="round" points="30.0,120.0 31.5,119.5 33.0,118.9 34.5,118.4 35.9,118.2 37.4,118.0 38.9,117.4 40.4,116.9 41.9,116.7 43.4,116.0 44.8,115.7 46.3,115.4 47.8,115.2 49.3,114.9 50.8,114.5 52.3,114.0 53.7,113.7 55.2,113.4 56.7,113.3 58.2,113.0 59.7,112.6 61.2,112.3 62.6,112.2 64.1,111.9 65.6,110.9 67.1,110.6 68.6,110.2 70.1,109.8 71.5,109.5 73.0,109.1 74.5,108.9 76.0,108.7 77.5,108.5 79.0,108.0 80.4,107.5 81.9,107.3 83.4,106.9 84.9,106.8 86.4,106.7 87.9,106.6 89.3,106.2 90.8,106.1 92.3,105.9 93.8,105.5 95.3,105.0 96.8,104.9 98.2,104.8 99.7,104.6 101.2,104.1 102.7,103.8 104.2,103.4 105.7,103.1 107.1,102.7 108.6,102.6 110.1,102.4 111.6,102.0 113.1,101.6 114.6,101.2 116.0,101.1 117.5,100.9 119.0,100.7 120.5,100.3 122.0,99.8 123.5,99.5 124.9,99.1 126.4,98.9 127.9,98.8 129.4,98.6 130.9,98.3 132.4,98.1 133.8,97.9 135.3,97.8 136.8,97.7 138.3,97.4 139.8,97.3 141.3,97.2 142.7,97.1 144.2,96.7 145.7,96.5 147.2,96.4 148.7,96.2 150.2,96.2 151.6,96.2 153.1,103.0 154.6,102.3 156.1,101.7 157.6,101.1 159.1,99.2 160.5,97.9 162.0,96.5 163.5,96.0 165.0,95.4 166.5,94.5 168.0,93.4 169.5,92.7 170.9,92.4 172.4,92.1 173.9,91.3 175.4,90.8 176.9,90.5 178.4,90.0 179.8,89.8 181.3,89.8 182.8,89.4 184.3,88.7 185.8,88.3 187.3,87.8 188.7,87.3 190.2,87.1 191.7,86.9 193.2,86.4 194.7,86.0 196.2,85.7 197.6,85.4 199.1,85.2 200.6,85.1 202.1,84.9 203.6,84.6 205.1,84.3 206.5,84.1 208.0,83.9 209.5,83.7 211.0,83.5 212.5,83.3 214.0,83.1 215.4,83.0 216.9,82.6 218.4,82.4 219.9,82.0 221.4,81.9 222.9,81.7 224.3,81.5 225.8,81.4 227.3,81.2 228.8,80.7 230.3,80.4 231.8,80.0 233.2,79.8 234.7,79.8 236.2,79.6 237.7,79.4 239.2,79.1 240.7,78.9 242.1,78.6 243.6,78.4 245.1,78.3 246.6,78.1 248.1,78.0 249.6,77.8 251.0,77.6 252.5,77.5 254.0,77.2 255.5,77.0 257.0,76.9 258.5,76.8 259.9,76.7 261.4,76.5 262.9,76.3 264.4,76.0 265.9,75.8 267.4,75.6 268.8,75.4 270.3,75.3 271.8,75.2 273.3,74.9 274.8,74.6 276.3,74.4 277.7,74.2 279.2,73.8 280.7,73.7 282.2,73.6 283.7,73.5 285.2,73.3 286.6,73.1 288.1,72.9 289.6,72.8 291.1,72.6 292.6,72.5 294.1,72.3 295.5,72.2 297.0,72.1 298.5,71.9 300.0,71.6 301.5,71.5 303.0,71.3 304.5,71.2 305.9,71.1 307.4,70.9 308.9,70.8 310.4,70.7 311.9,70.5 313.4,70.2 314.8,69.9 316.3,69.7 317.8,69.5 319.3,69.4 320.8,69.4 322.3,69.2 323.7,68.9 325.2,68.8 326.7,68.7 328.2,68.5 329.7,68.3 331.2,68.1 332.6,68.0 334.1,67.9 335.6,67.7 337.1,67.5 338.6,67.2 340.1,67.0 341.5,66.9 343.0,66.9 344.5,66.8 346.0,66.6 347.5,66.5 349.0,66.3 350.4,66.2 351.9,66.0 353.4,65.9 354.9,65.7 356.4,65.6 357.9,65.5 359.3,65.2 360.8,65.0 362.3,64.8 363.8,64.7 365.3,64.6 366.8,64.5 368.2,64.4 369.7,64.3 371.2,64.2 372.7,64.0 374.2,63.8 375.7,63.6 377.1,63.5 378.6,63.4 380.1,63.2 381.6,63.1 383.1,62.9 384.6,62.8 386.0,62.7 387.5,62.5 389.0,62.3 390.5,62.2 392.0,62.0 393.5,61.9 394.9,61.9 396.4,61.7 397.9,61.6 399.4,61.5 400.9,61.3 402.4,61.3 403.8,61.2 405.3,60.8 406.8,60.6 408.3,65.1 409.8,64.2 411.3,62.5 412.7,61.9 414.2,61.1 415.7,60.1 417.2,59.6 418.7,59.3 420.2,58.6 421.6,57.7 423.1,56.9 424.6,56.7 426.1,56.3 427.6,56.1 429.1,55.6 430.5,55.1 432.0,54.5 433.5,54.3 435.0,53.8 436.5,53.5 438.0,53.2 439.5,53.0 440.9,52.7 442.4,52.5 443.9,52.0 445.4,51.7 446.9,51.2 448.4,50.6 449.8,50.2 451.3,50.1 452.8,49.9 454.3,49.6 455.8,49.2 457.3,48.9 458.7,48.6 460.2,47.7 461.7,47.0 463.2,46.6 464.7,46.5 466.2,46.2 467.6,45.7 469.1,45.3 470.6,45.0 472.1,44.7 473.6,44.3 475.1,44.0 476.5,43.7 478.0,43.3 479.5,43.1 481.0,42.9 482.5,42.7 484.0,42.3 485.4,42.0 486.9,41.8 488.4,41.7 489.9,41.5 491.4,41.2 492.9,41.0 494.3,40.8 495.8,40.6 497.3,40.5 498.8,40.3 500.3,40.0 501.8,39.8 503.2,39.5 504.7,39.1 506.2,38.8 507.7,38.7 509.2,38.5 510.7,38.3 512.1,38.1 513.6,37.9 515.1,37.7 516.6,37.6 518.1,37.5 519.6,37.3 521.0,37.2 522.5,36.8 524.0,36.7 525.5,36.5 527.0,36.3 528.5,36.0 529.9,35.6 531.4,35.4 532.9,35.2 534.4,34.9 535.9,34.7 537.4,34.5 538.8,34.2 540.3,34.0 541.8,33.9 543.3,33.8 544.8,33.5 546.3,33.3 547.7,33.1 549.2,33.0 550.7,32.7 552.2,32.5 553.7,32.3 555.2,32.0 556.6,31.9 558.1,31.5 559.6,31.3 561.1,31.1 562.6,31.0 564.1,30.8 565.5,30.7 567.0,30.4 568.5,30.2 570.0,30.0" />
  
  <!-- Punto finale luminoso -->
  <circle cx="570.0" cy="30.0" r="4" fill="#ffffff" stroke="#0366d6" stroke-width="2.5" />
</svg>