<svg width="600" height="150" viewBox="0 0 600 150" xmlns="http://www.w3.org/2000/svg">
  <defs>
    <filter id="shadow2" x="-2%" y="-2%" width="104%" height="108%">
      <feDropShadow dx="0" dy="2" stdDeviation="3" flood-opacity="0.1" />
    </filter>
    <linearGradient id="fillGrad" x1="0" y1="0" x2="0" y2="1">
      <stop offset="0%" stop-color="#0366d6" stop-opacity="0.3"/>
      <stop offset="100%" stop-color="#0366d6" stop-opacity="0.02"/>
    </linearGradient>
  </defs>
  <rect width="600" height="150" rx="12" fill="#ffffff" filter="url(#shadow2)" stroke="#e1e4e8" stroke-width="1"/>
  <text x="20" y="24" fill="#2b3137" font-family="-apple-system,BlinkMacSystemFont,'Segoe UI',Helvetica,Arial,sans-serif" font-size="14" font-weight="600">📈 Download Growth (Actual: 83.8k)</text>
  
  <!-- Area sotto la linea -->
  <polygon fill="url(#fillGrad)" points="30.0,120.0,120 30.0,120.0 31.7,119.4 33.4,118.8 35.1,118.2 36.8,118.0 38.4,117.7 40.1,117.1 41.8,116.6 43.5,116.3 45.2,115.6 46.9,115.2 48.6,114.9 50.2,114.7 51.9,114.3 53.6,113.9 55.3,113.3 57.0,113.0 58.7,112.7 60.4,112.5 62.1,112.2 63.8,111.8 65.4,111.5 67.1,111.3 68.8,111.0 70.5,109.9 72.2,109.5 73.9,109.1 75.6,108.7 77.2,108.3 78.9,107.9 80.6,107.7 82.3,107.5 84.0,107.2 85.7,106.6 87.4,106.1 89.1,105.8 90.8,105.5 92.4,105.3 94.1,105.3 95.8,105.1 97.5,104.7 99.2,104.5 100.9,104.3 102.6,103.9 104.2,103.3 105.9,103.2 107.6,103.1 109.3,102.8 111.0,102.3 112.7,102.0 114.4,101.5 116.1,101.2 117.8,100.7 119.4,100.6 121.1,100.4 122.8,99.9 124.5,99.5 126.2,99.1 127.9,99.0 129.6,98.8 131.2,98.6 132.9,98.1 134.6,97.6 136.3,97.2 138.0,96.8 139.7,96.5 141.4,96.4 143.1,96.2 144.8,95.9 146.4,95.7 148.1,95.5 149.8,95.3 151.5,95.1 153.2,94.9 154.9,94.7 156.6,94.6 158.2,94.5 159.9,94.1 161.6,93.8 163.3,93.7 165.0,93.6 166.7,93.5 168.4,93.5 170.1,101.1 171.8,100.3 173.4,99.6 175.1,98.9 176.8,96.9 178.5,95.4 180.2,93.9 181.9,93.3 183.6,92.7 185.2,91.6 186.9,90.4 188.6,89.6 190.3,89.3 192.0,89.0 193.7,88.1 195.4,87.5 197.1,87.1 198.8,86.6 200.4,86.4 202.1,86.4 203.8,85.9 205.5,85.2 207.2,84.7 208.9,84.2 210.6,83.6 212.2,83.4 213.9,83.2 215.6,82.7 217.3,82.2 219.0,81.8 220.7,81.5 222.4,81.3 224.1,81.2 225.8,80.9 227.4,80.6 229.1,80.3 230.8,80.0 232.5,79.8 234.2,79.6 235.9,79.4 237.6,79.2 239.2,79.0 240.9,78.8 242.6,78.4 244.3,78.1 246.0,77.8 247.7,77.6 249.4,77.4 251.1,77.2 252.8,77.0 254.4,76.9 256.1,76.3 257.8,75.9 259.5,75.5 261.2,75.3 262.9,75.3 264.6,75.0 266.2,74.8 267.9,74.5 269.6,74.3 271.3,73.9 273.0,73.7 274.7,73.6 276.4,73.4 278.1,73.3 279.8,73.1 281.4,72.9 283.1,72.7 284.8,72.4 286.5,72.2 288.2,72.1 289.9,72.0 291.6,71.9 293.2,71.6 294.9,71.3 296.6,71.1 298.3,70.8 300.0,70.6 301.7,70.4 303.4,70.3 305.1,70.2 306.8,69.8 308.4,69.5 310.1,69.3 311.8,69.0 313.5,68.6 315.2,68.5 316.9,68.4 318.6,68.3 320.2,68.1 321.9,67.9 323.6,67.7 325.3,67.5 327.0,67.3 328.7,67.1 330.4,66.9 332.1,66.8 333.8,66.7 335.4,66.5 337.1,66.2 338.8,66.1 340.5,65.8 342.2,65.7 343.9,65.6 345.6,65.4 347.2,65.3 348.9,65.1 350.6,64.9 352.3,64.6 354.0,64.2 355.7,64.0 357.4,63.8 359.1,63.8 360.8,63.7 362.4,63.5 364.1,63.2 365.8,63.0 367.5,62.9 369.2,62.7 370.9,62.5 372.6,62.3 374.2,62.2 375.9,62.0 377.6,61.8 379.3,61.6 381.0,61.3 382.7,61.1 384.4,61.0 386.1,60.9 387.8,60.8 389.4,60.7 391.1,60.5 392.8,60.3 394.5,60.1 396.2,59.9 397.9,59.8 399.6,59.6 401.2,59.5 402.9,59.3 404.6,59.1 406.3,58.8 408.0,58.7 409.7,58.5 411.4,58.3 413.1,58.2 414.8,58.1 416.4,58.0 418.1,57.9 419.8,57.7 421.5,57.5 423.2,57.3 424.9,57.1 426.6,57.0 428.2,56.9 429.9,56.7 431.6,56.5 433.3,56.4 435.0,56.2 436.7,56.1 438.4,55.9 440.1,55.7 441.8,55.5 443.4,55.4 445.1,55.3 446.8,55.2 448.5,55.1 450.2,54.9 451.9,54.8 453.6,54.7 455.2,54.6 456.9,54.2 458.6,54.0 460.3,58.9 462.0,57.9 463.7,56.1 465.4,55.4 467.1,54.5 468.8,53.4 470.4,52.8 472.1,52.4 473.8,51.7 475.5,50.7 477.2,49.8 478.9,49.6 480.6,49.2 482.2,48.9 483.9,48.3 485.6,47.8 487.3,47.2 489.0,46.9 490.7,46.3 492.4,46.1 494.1,45.7 495.8,45.5 497.4,45.2 499.1,44.9 500.8,44.4 502.5,44.0 504.2,43.5 505.9,42.8 507.6,42.4 509.2,42.2 510.9,42.0 512.6,41.7 514.3,41.3 516.0,40.9 517.7,40.6 519.4,39.6 521.1,38.8 522.8,38.4 524.4,38.2 526.1,37.9 527.8,37.3 529.5,36.9 531.2,36.6 532.9,36.2 534.6,35.8 536.2,35.5 537.9,35.2 539.6,34.7 541.3,34.4 543.0,34.3 544.7,34.0 546.4,33.6 548.1,33.3 549.8,33.0 551.4,32.9 553.1,32.7 554.8,32.4 556.5,32.2 558.2,31.9 559.9,31.7 561.6,31.5 563.2,31.4 564.9,31.0 566.6,30.8 568.3,30.4 570.0,30.0 570.0,30.0,120" />
  
  <!-- Linea principale -->
  <polyline fill="none" stroke="#0366d6" stroke-width="2.5" stroke-linecap="round" stroke-linejoin="round" points="30.0,120.0 31.7,119.4 33.4,118.8 35.1,118.2 36.8,118.0 38.4,117.7 40.1,117.1 41.8,116.6 43.5,116.3 45.2,115.6 46.9,115.2 48.6,114.9 50.2,114.7 51.9,114.3 53.6,113.9 55.3,113.3 57.0,113.0 58.7,112.7 60.4,112.5 62.1,112.2 63.8,111.8 65.4,111.5 67.1,111.3 68.8,111.0 70.5,109.9 72.2,109.5 73.9,109.1 75.6,108.7 77.2,108.3 78.9,107.9 80.6,107.7 82.3,107.5 84.0,107.2 85.7,106.6 87.4,106.1 89.1,105.8 90.8,105.5 92.4,105.3 94.1,105.3 95.8,105.1 97.5,104.7 99.2,104.5 100.9,104.3 102.6,103.9 104.2,103.3 105.9,103.2 107.6,103.1 109.3,102.8 111.0,102.3 112.7,102.0 114.4,101.5 116.1,101.2 117.8,100.7 119.4,100.6 121.1,100.4 122.8,99.9 124.5,99.5 126.2,99.1 127.9,99.0 129.6,98.8 131.2,98.6 132.9,98.1 134.6,97.6 136.3,97.2 138.0,96.8 139.7,96.5 141.4,96.4 143.1,96.2 144.8,95.9 146.4,95.7 148.1,95.5 149.8,95.3 151.5,95.1 153.2,94.9 154.9,94.7 156.6,94.6 158.2,94.5 159.9,94.1 161.6,93.8 163.3,93.7 165.0,93.6 166.7,93.5 168.4,93.5 170.1,101.1 171.8,100.3 173.4,99.6 175.1,98.9 176.8,96.9 178.5,95.4 180.2,93.9 181.9,93.3 183.6,92.7 185.2,91.6 186.9,90.4 188.6,89.6 190.3,89.3 192.0,89.0 193.7,88.1 195.4,87.5 197.1,87.1 198.8,86.6 200.4,86.4 202.1,86.4 203.8,85.9 205.5,85.2 207.2,84.7 208.9,84.2 210.6,83.6 212.2,83.4 213.9,83.2 215.6,82.7 217.3,82.2 219.0,81.8 220.7,81.5 222.4,81.3 224.1,81.2 225.8,80.9 227.4,80.6 229.1,80.3 230.8,80.0 232.5,79.8 234.2,79.6 235.9,79.4 237.6,79.2 239.2,79.0 240.9,78.8 242.6,78.4 244.3,78.1 246.0,77.8 247.7,77.6 249.4,77.4 251.1,77.2 252.8,77.0 254.4,76.9 256.1,76.3 257.8,75.9 259.5,75.5 261.2,75.3 262.9,75.3 264.6,75.0 266.2,74.8 267.9,74.5 269.6,74.3 271.3,73.9 273.0,73.7 274.7,73.6 276.4,73.4 278.1,73.3 279.8,73.1 281.4,72.9 283.1,72.7 284.8,72.4 286.5,72.2 288.2,72.1 289.9,72.0 291.6,71.9 293.2,71.6 294.9,71.3 296.6,71.1 298.3,70.8 300.0,70.6 301.7,70.4 303.4,70.3 305.1,70.2 306.8,69.8 308.4,69.5 310.1,69.3 311.8,69.0 313.5,68.6 315.2,68.5 316.9,68.4 318.6,68.3 320.2,68.1 321.9,67.9 323.6,67.7 325.3,67.5 327.0,67.3 328.7,67.1 330.4,66.9 332.1,66.8 333.8,66.7 335.4,66.5 337.1,66.2 338.8,66.1 340.5,65.8 342.2,65.7 343.9,65.6 345.6,65.4 347.2,65.3 348.9,65.1 350.6,64.9 352.3,64.6 354.0,64.2 355.7,64.0 357.4,63.8 359.1,63.8 360.8,63.7 362.4,63.5 364.1,63.2 365.8,63.0 367.5,62.9 369.2,62.7 370.9,62.5 372.6,62.3 374.2,62.2 375.9,62.0 377.6,61.8 379.3,61.6 381.0,61.3 382.7,61.1 384.4,61.0 386.1,60.9 387.8,60.8 389.4,60.7 391.1,60.5 392.8,60.3 394.5,60.1 396.2,59.9 397.9,59.8 399.6,59.6 401.2,59.5 402.9,59.3 404.6,59.1 406.3,58.8 408.0,58.7 409.7,58.5 411.4,58.3 413.1,58.2 414.8,58.1 416.4,58.0 418.1,57.9 419.8,57.7 421.5,57.5 423.2,57.3 424.9,57.1 426.6,57.0 428.2,56.9 429.9,56.7 431.6,56.5 433.3,56.4 435.0,56.2 436.7,56.1 438.4,55.9 440.1,55.7 441.8,55.5 443.4,55.4 445.1,55.3 446.8,55.2 448.5,55.1 450.2,54.9 451.9,54.8 453.6,54.7 455.2,54.6 456.9,54.2 458.6,54.0 460.3,58.9 462.0,57.9 463.7,56.1 465.4,55.4 467.1,54.5 468.8,53.4 470.4,52.8 472.1,52.4 473.8,51.7 475.5,50.7 477.2,49.8 478.9,49.6 480.6,49.2 482.2,48.9 483.9,48.3 485.6,47.8 487.3,47.2 489.0,46.9 490.7,46.3 492.4,46.1 494.1,45.7 495.8,45.5 497.4,45.2 499.1,44.9 500.8,44.4 502.5,44.0 504.2,43.5 505.9,42.8 507.6,42.4 509.2,42.2 510.9,42.0 512.6,41.7 514.3,41.3 516.0,40.9 517.7,40.6 519.4,39.6 521.1,38.8 522.8,38.4 524.4,38.2 526.1,37.9 527.8,37.3 529.5,36.9 531.2,36.6 532.9,36.2 534.6,35.8 536.2,35.5 537.9,35.2 539.6,34.7 541.3,34.4 543.0,34.3 544.7,34.0 546.4,33.6 548.1,33.3 549.8,33.0 551.4,32.9 553.1,32.7 554.8,32.4 556.5,32.2 558.2,31.9 559.9,31.7 561.6,31.5 563.2,31.4 564.9,31.0 566.6,30.8 568.3,30.4 570.0,30.0" />
  
  <!-- Punto finale luminoso -->
  <circle cx="570.0" cy="30.0" r="4" fill="#ffffff" stroke="#0366d6" stroke-width="2.5" />
</svg>