<svg width="600" height="150" viewBox="0 0 600 150" xmlns="http://www.w3.org/2000/svg">
  <defs>
    <filter id="shadow2" x="-2%" y="-2%" width="104%" height="108%">
      <feDropShadow dx="0" dy="2" stdDeviation="3" flood-opacity="0.1" />
    </filter>
    <linearGradient id="fillGrad" x1="0" y1="0" x2="0" y2="1">
      <stop offset="0%" stop-color="#0366d6" stop-opacity="0.3"/>
      <stop offset="100%" stop-color="#0366d6" stop-opacity="0.02"/>
    </linearGradient>
  </defs>
  <rect width="600" height="150" rx="12" fill="#ffffff" filter="url(#shadow2)" stroke="#e1e4e8" stroke-width="1"/>
  <text x="20" y="24" fill="#2b3137" font-family="-apple-system,BlinkMacSystemFont,'Segoe UI',Helvetica,Arial,sans-serif" font-size="14" font-weight="600">📈 Download Growth (Actual: 76.1k)</text>
  
  <!-- Area sotto la linea -->
  <polygon fill="url(#fillGrad)" points="30.0,120.0,120 30.0,120.0 33.4,118.9 36.8,117.7 40.3,116.7 43.7,116.4 47.1,115.9 50.5,114.6 53.9,113.7 57.3,113.2 60.8,111.9 64.2,111.2 67.6,110.6 71.0,110.2 74.4,109.6 77.8,108.7 81.3,107.8 84.7,107.0 88.1,106.6 91.5,106.2 94.9,105.6 98.4,104.9 101.8,104.3 105.2,104.0 108.6,103.4 112.0,101.4 115.4,100.8 118.9,100.0 122.3,99.1 125.7,98.4 129.1,97.8 132.5,97.3 135.9,97.0 139.4,96.4 142.8,95.4 146.2,94.5 149.6,93.9 153.0,93.2 156.5,93.0 159.9,92.9 163.3,92.5 166.7,91.9 170.1,91.5 173.5,91.2 177.0,90.4 180.4,89.3 183.8,89.0 187.2,88.8 190.6,88.4 194.1,87.5 197.5,86.9 200.9,86.0 204.3,85.4 207.7,84.6 211.1,84.4 214.6,83.9 218.0,83.1 221.4,82.3 224.8,81.6 228.2,81.3 231.6,80.9 235.1,80.6 238.5,79.6 241.9,78.8 245.3,78.0 248.7,77.2 252.2,76.8 255.6,76.6 259.0,76.3 262.4,75.6 265.8,75.2 269.2,74.9 272.7,74.6 276.1,74.3 279.5,73.8 282.9,73.5 286.3,73.3 289.7,73.1 293.2,72.3 296.6,71.8 300.0,71.7 303.4,71.4 306.8,71.2 310.3,71.2 313.7,85.2 317.1,83.8 320.5,82.6 323.9,81.3 327.3,77.5 330.8,74.8 334.2,71.9 337.6,70.9 341.0,69.7 344.4,67.7 347.8,65.6 351.3,64.0 354.7,63.5 358.1,62.9 361.5,61.4 364.9,60.3 368.4,59.5 371.8,58.6 375.2,58.3 378.6,58.1 382.0,57.3 385.4,56.0 388.9,55.1 392.3,54.1 395.7,53.1 399.1,52.6 402.5,52.2 405.9,51.3 409.4,50.5 412.8,49.7 416.2,49.1 419.6,48.8 423.0,48.6 426.5,48.2 429.9,47.5 433.3,47.0 436.7,46.5 440.1,46.1 443.5,45.7 447.0,45.3 450.4,44.9 453.8,44.6 457.2,44.2 460.6,43.5 464.1,43.0 467.5,42.3 470.9,42.0 474.3,41.6 477.7,41.3 481.1,41.0 484.6,40.6 488.0,39.6 491.4,39.0 494.8,38.1 498.2,37.8 501.6,37.7 505.1,37.3 508.5,36.9 511.9,36.3 515.3,35.9 518.7,35.2 522.2,34.8 525.6,34.6 529.0,34.3 532.4,34.0 535.8,33.8 539.2,33.3 542.7,33.0 546.1,32.4 549.5,32.1 552.9,31.9 556.3,31.6 559.7,31.4 563.2,30.9 566.6,30.5 570.0,30.0 570.0,30.0,120" />
  
  <!-- Linea principale -->
  <polyline fill="none" stroke="#0366d6" stroke-width="2.5" stroke-linecap="round" stroke-linejoin="round" points="30.0,120.0 33.4,118.9 36.8,117.7 40.3,116.7 43.7,116.4 47.1,115.9 50.5,114.6 53.9,113.7 57.3,113.2 60.8,111.9 64.2,111.2 67.6,110.6 71.0,110.2 74.4,109.6 77.8,108.7 81.3,107.8 84.7,107.0 88.1,106.6 91.5,106.2 94.9,105.6 98.4,104.9 101.8,104.3 105.2,104.0 108.6,103.4 112.0,101.4 115.4,100.8 118.9,100.0 122.3,99.1 125.7,98.4 129.1,97.8 132.5,97.3 135.9,97.0 139.4,96.4 142.8,95.4 146.2,94.5 149.6,93.9 153.0,93.2 156.5,93.0 159.9,92.9 163.3,92.5 166.7,91.9 170.1,91.5 173.5,91.2 177.0,90.4 180.4,89.3 183.8,89.0 187.2,88.8 190.6,88.4 194.1,87.5 197.5,86.9 200.9,86.0 204.3,85.4 207.7,84.6 211.1,84.4 214.6,83.9 218.0,83.1 221.4,82.3 224.8,81.6 228.2,81.3 231.6,80.9 235.1,80.6 238.5,79.6 241.9,78.8 245.3,78.0 248.7,77.2 252.2,76.8 255.6,76.6 259.0,76.3 262.4,75.6 265.8,75.2 269.2,74.9 272.7,74.6 276.1,74.3 279.5,73.8 282.9,73.5 286.3,73.3 289.7,73.1 293.2,72.3 296.6,71.8 300.0,71.7 303.4,71.4 306.8,71.2 310.3,71.2 313.7,85.2 317.1,83.8 320.5,82.6 323.9,81.3 327.3,77.5 330.8,74.8 334.2,71.9 337.6,70.9 341.0,69.7 344.4,67.7 347.8,65.6 351.3,64.0 354.7,63.5 358.1,62.9 361.5,61.4 364.9,60.3 368.4,59.5 371.8,58.6 375.2,58.3 378.6,58.1 382.0,57.3 385.4,56.0 388.9,55.1 392.3,54.1 395.7,53.1 399.1,52.6 402.5,52.2 405.9,51.3 409.4,50.5 412.8,49.7 416.2,49.1 419.6,48.8 423.0,48.6 426.5,48.2 429.9,47.5 433.3,47.0 436.7,46.5 440.1,46.1 443.5,45.7 447.0,45.3 450.4,44.9 453.8,44.6 457.2,44.2 460.6,43.5 464.1,43.0 467.5,42.3 470.9,42.0 474.3,41.6 477.7,41.3 481.1,41.0 484.6,40.6 488.0,39.6 491.4,39.0 494.8,38.1 498.2,37.8 501.6,37.7 505.1,37.3 508.5,36.9 511.9,36.3 515.3,35.9 518.7,35.2 522.2,34.8 525.6,34.6 529.0,34.3 532.4,34.0 535.8,33.8 539.2,33.3 542.7,33.0 546.1,32.4 549.5,32.1 552.9,31.9 556.3,31.6 559.7,31.4 563.2,30.9 566.6,30.5 570.0,30.0" />
  
  <!-- Punto finale luminoso -->
  <circle cx="570.0" cy="30.0" r="4" fill="#ffffff" stroke="#0366d6" stroke-width="2.5" />
</svg>