<svg width="600" height="150" viewBox="0 0 600 150" xmlns="http://www.w3.org/2000/svg">
  <defs>
    <filter id="shadow2" x="-2%" y="-2%" width="104%" height="108%">
      <feDropShadow dx="0" dy="2" stdDeviation="3" flood-opacity="0.1" />
    </filter>
    <linearGradient id="fillGrad" x1="0" y1="0" x2="0" y2="1">
      <stop offset="0%" stop-color="#0366d6" stop-opacity="0.3"/>
      <stop offset="100%" stop-color="#0366d6" stop-opacity="0.02"/>
    </linearGradient>
  </defs>
  <rect width="600" height="150" rx="12" fill="#ffffff" filter="url(#shadow2)" stroke="#e1e4e8" stroke-width="1"/>
  <text x="20" y="24" fill="#2b3137" font-family="-apple-system,BlinkMacSystemFont,'Segoe UI',Helvetica,Arial,sans-serif" font-size="14" font-weight="600">📈 Download Growth (Actual: 87.9k)</text>
  
  <!-- Area sotto la linea -->
  <polygon fill="url(#fillGrad)" points="30.0,120.0,120 30.0,120.0 31.3,119.5 32.6,119.0 33.8,118.5 35.1,118.4 36.4,118.2 37.7,117.6 39.0,117.3 40.3,117.0 41.5,116.4 42.8,116.1 44.1,115.9 45.4,115.7 46.7,115.4 48.0,115.0 49.2,114.6 50.5,114.3 51.8,114.1 53.1,114.0 54.4,113.7 55.7,113.4 56.9,113.1 58.2,113.0 59.5,112.7 60.8,111.8 62.1,111.6 63.3,111.2 64.6,110.9 65.9,110.6 67.2,110.3 68.5,110.1 69.8,109.9 71.0,109.7 72.3,109.2 73.6,108.8 74.9,108.6 76.2,108.3 77.5,108.2 78.7,108.1 80.0,108.0 81.3,107.7 82.6,107.5 83.9,107.4 85.2,107.0 86.4,106.6 87.7,106.4 89.0,106.3 90.3,106.2 91.6,105.8 92.9,105.5 94.1,105.1 95.4,104.8 96.7,104.5 98.0,104.4 99.3,104.2 100.5,103.8 101.8,103.5 103.1,103.2 104.4,103.1 105.7,102.9 107.0,102.7 108.2,102.3 109.5,101.9 110.8,101.6 112.1,101.3 113.4,101.1 114.7,101.0 115.9,100.8 117.2,100.6 118.5,100.4 119.8,100.2 121.1,100.1 122.4,100.0 123.6,99.8 124.9,99.6 126.2,99.6 127.5,99.5 128.8,99.1 130.0,98.9 131.3,98.8 132.6,98.7 133.9,98.6 135.2,98.6 136.5,104.7 137.7,104.1 139.0,103.6 140.3,103.0 141.6,101.4 142.9,100.2 144.2,98.9 145.4,98.5 146.7,98.0 148.0,97.1 149.3,96.2 150.6,95.5 151.9,95.2 153.1,95.0 154.4,94.3 155.7,93.8 157.0,93.5 158.3,93.1 159.5,93.0 160.8,92.9 162.1,92.5 163.4,92.0 164.7,91.6 166.0,91.1 167.2,90.7 168.5,90.5 169.8,90.3 171.1,89.9 172.4,89.5 173.7,89.2 174.9,88.9 176.2,88.8 177.5,88.7 178.8,88.5 180.1,88.2 181.4,88.0 182.6,87.8 183.9,87.6 185.2,87.4 186.5,87.3 187.8,87.1 189.0,87.0 190.3,86.8 191.6,86.5 192.9,86.2 194.2,86.0 195.5,85.8 196.7,85.6 198.0,85.5 199.3,85.4 200.6,85.2 201.9,84.8 203.2,84.5 204.4,84.1 205.7,84.0 207.0,83.9 208.3,83.8 209.6,83.6 210.9,83.3 212.1,83.1 213.4,82.9 214.7,82.7 216.0,82.6 217.3,82.4 218.6,82.3 219.8,82.2 221.1,82.0 222.4,81.9 223.7,81.6 225.0,81.5 226.2,81.4 227.5,81.3 228.8,81.2 230.1,81.0 231.4,80.8 232.7,80.6 233.9,80.4 235.2,80.2 236.5,80.0 237.8,80.0 239.1,79.8 240.4,79.5 241.6,79.3 242.9,79.1 244.2,78.9 245.5,78.6 246.8,78.5 248.1,78.4 249.3,78.3 250.6,78.1 251.9,78.0 253.2,77.8 254.5,77.7 255.7,77.5 257.0,77.4 258.3,77.2 259.6,77.1 260.9,77.1 262.2,76.9 263.4,76.6 264.7,76.5 266.0,76.3 267.3,76.2 268.6,76.1 269.9,76.0 271.1,75.9 272.4,75.8 273.7,75.6 275.0,75.3 276.3,75.1 277.6,74.9 278.8,74.7 280.1,74.7 281.4,74.6 282.7,74.4 284.0,74.2 285.2,74.1 286.5,74.0 287.8,73.8 289.1,73.7 290.4,73.5 291.7,73.4 292.9,73.3 294.2,73.1 295.5,72.9 296.8,72.7 298.1,72.5 299.4,72.4 300.6,72.4 301.9,72.3 303.2,72.2 304.5,72.0 305.8,71.9 307.1,71.7 308.3,71.6 309.6,71.5 310.9,71.4 312.2,71.2 313.5,71.1 314.8,70.9 316.0,70.7 317.3,70.6 318.6,70.4 319.9,70.3 321.2,70.2 322.4,70.1 323.7,70.0 325.0,69.9 326.3,69.8 327.6,69.6 328.9,69.5 330.1,69.3 331.4,69.2 332.7,69.1 334.0,69.0 335.3,68.8 336.6,68.7 337.8,68.6 339.1,68.5 340.4,68.3 341.7,68.2 343.0,68.0 344.3,67.9 345.5,67.9 346.8,67.8 348.1,67.6 349.4,67.5 350.7,67.4 351.9,67.4 353.2,67.2 354.5,67.0 355.8,66.8 357.1,70.8 358.4,70.0 359.6,68.5 360.9,67.9 362.2,67.2 363.5,66.3 364.8,65.9 366.1,65.5 367.3,65.0 368.6,64.1 369.9,63.5 371.2,63.3 372.5,62.9 373.8,62.7 375.0,62.2 376.3,61.8 377.6,61.3 378.9,61.1 380.2,60.6 381.4,60.4 382.7,60.1 384.0,59.9 385.3,59.7 386.6,59.5 387.9,59.0 389.1,58.7 390.4,58.3 391.7,57.8 393.0,57.5 394.3,57.3 395.6,57.1 396.8,56.9 398.1,56.6 399.4,56.2 400.7,56.0 402.0,55.2 403.3,54.5 404.5,54.2 405.8,54.1 407.1,53.8 408.4,53.4 409.7,53.0 411.0,52.7 412.2,52.5 413.5,52.2 414.8,51.9 416.1,51.6 417.4,51.2 418.6,51.0 419.9,50.9 421.2,50.7 422.5,50.3 423.8,50.1 425.1,49.9 426.3,49.8 427.6,49.6 428.9,49.3 430.2,49.2 431.5,49.0 432.8,48.8 434.0,48.7 435.3,48.5 436.6,48.3 437.9,48.1 439.2,47.8 440.5,47.5 441.7,47.2 443.0,47.1 444.3,46.9 445.6,46.7 446.9,46.6 448.1,46.4 449.4,46.3 450.7,46.2 452.0,46.0 453.3,45.8 454.6,45.7 455.8,45.4 457.1,45.3 458.4,45.2 459.7,44.9 461.0,44.6 462.3,44.3 463.5,44.1 464.8,43.9 466.1,43.7 467.4,43.5 468.7,43.3 470.0,43.1 471.2,42.9 472.5,42.8 473.8,42.7 475.1,42.5 476.4,42.2 477.6,42.1 478.9,42.0 480.2,41.8 481.5,41.5 482.8,41.4 484.1,41.1 485.3,41.0 486.6,40.7 487.9,40.5 489.2,40.3 490.5,40.2 491.8,40.0 493.0,39.9 494.3,39.7 495.6,39.5 496.9,39.3 498.2,39.2 499.5,39.1 500.7,38.9 502.0,38.7 503.3,38.6 504.6,38.5 505.9,38.3 507.1,38.3 508.4,38.1 509.7,37.9 511.0,37.8 512.3,37.6 513.6,37.5 514.8,37.3 516.1,37.2 517.4,37.0 518.7,36.9 520.0,36.7 521.3,36.6 522.5,36.3 523.8,36.2 525.1,35.9 526.4,35.8 527.7,35.7 529.0,35.6 530.2,35.5 531.5,35.3 532.8,35.1 534.1,34.8 535.4,34.7 536.7,34.5 537.9,34.4 539.2,34.3 540.5,34.1 541.8,34.0 543.1,33.7 544.3,33.5 545.6,33.4 546.9,33.2 548.2,33.0 549.5,32.8 550.8,32.6 552.0,32.5 553.3,32.3 554.6,32.0 555.9,31.8 557.2,31.7 558.5,31.6 559.7,31.4 561.0,31.2 562.3,31.1 563.6,30.9 564.9,30.8 566.2,30.6 567.4,30.3 568.7,30.2 570.0,30.0 570.0,30.0,120" />
  
  <!-- Linea principale -->
  <polyline fill="none" stroke="#0366d6" stroke-width="2.5" stroke-linecap="round" stroke-linejoin="round" points="30.0,120.0 31.3,119.5 32.6,119.0 33.8,118.5 35.1,118.4 36.4,118.2 37.7,117.6 39.0,117.3 40.3,117.0 41.5,116.4 42.8,116.1 44.1,115.9 45.4,115.7 46.7,115.4 48.0,115.0 49.2,114.6 50.5,114.3 51.8,114.1 53.1,114.0 54.4,113.7 55.7,113.4 56.9,113.1 58.2,113.0 59.5,112.7 60.8,111.8 62.1,111.6 63.3,111.2 64.6,110.9 65.9,110.6 67.2,110.3 68.5,110.1 69.8,109.9 71.0,109.7 72.3,109.2 73.6,108.8 74.9,108.6 76.2,108.3 77.5,108.2 78.7,108.1 80.0,108.0 81.3,107.7 82.6,107.5 83.9,107.4 85.2,107.0 86.4,106.6 87.7,106.4 89.0,106.3 90.3,106.2 91.6,105.8 92.9,105.5 94.1,105.1 95.4,104.8 96.7,104.5 98.0,104.4 99.3,104.2 100.5,103.8 101.8,103.5 103.1,103.2 104.4,103.1 105.7,102.9 107.0,102.7 108.2,102.3 109.5,101.9 110.8,101.6 112.1,101.3 113.4,101.1 114.7,101.0 115.9,100.8 117.2,100.6 118.5,100.4 119.8,100.2 121.1,100.1 122.4,100.0 123.6,99.8 124.9,99.6 126.2,99.6 127.5,99.5 128.8,99.1 130.0,98.9 131.3,98.8 132.6,98.7 133.9,98.6 135.2,98.6 136.5,104.7 137.7,104.1 139.0,103.6 140.3,103.0 141.6,101.4 142.9,100.2 144.2,98.9 145.4,98.5 146.7,98.0 148.0,97.1 149.3,96.2 150.6,95.5 151.9,95.2 153.1,95.0 154.4,94.3 155.7,93.8 157.0,93.5 158.3,93.1 159.5,93.0 160.8,92.9 162.1,92.5 163.4,92.0 164.7,91.6 166.0,91.1 167.2,90.7 168.5,90.5 169.8,90.3 171.1,89.9 172.4,89.5 173.7,89.2 174.9,88.9 176.2,88.8 177.5,88.7 178.8,88.5 180.1,88.2 181.4,88.0 182.6,87.8 183.9,87.6 185.2,87.4 186.5,87.3 187.8,87.1 189.0,87.0 190.3,86.8 191.6,86.5 192.9,86.2 194.2,86.0 195.5,85.8 196.7,85.6 198.0,85.5 199.3,85.4 200.6,85.2 201.9,84.8 203.2,84.5 204.4,84.1 205.7,84.0 207.0,83.9 208.3,83.8 209.6,83.6 210.9,83.3 212.1,83.1 213.4,82.9 214.7,82.7 216.0,82.6 217.3,82.4 218.6,82.3 219.8,82.2 221.1,82.0 222.4,81.9 223.7,81.6 225.0,81.5 226.2,81.4 227.5,81.3 228.8,81.2 230.1,81.0 231.4,80.8 232.7,80.6 233.9,80.4 235.2,80.2 236.5,80.0 237.8,80.0 239.1,79.8 240.4,79.5 241.6,79.3 242.9,79.1 244.2,78.9 245.5,78.6 246.8,78.5 248.1,78.4 249.3,78.3 250.6,78.1 251.9,78.0 253.2,77.8 254.5,77.7 255.7,77.5 257.0,77.4 258.3,77.2 259.6,77.1 260.9,77.1 262.2,76.9 263.4,76.6 264.7,76.5 266.0,76.3 267.3,76.2 268.6,76.1 269.9,76.0 271.1,75.9 272.4,75.8 273.7,75.6 275.0,75.3 276.3,75.1 277.6,74.9 278.8,74.7 280.1,74.7 281.4,74.6 282.7,74.4 284.0,74.2 285.2,74.1 286.5,74.0 287.8,73.8 289.1,73.7 290.4,73.5 291.7,73.4 292.9,73.3 294.2,73.1 295.5,72.9 296.8,72.7 298.1,72.5 299.4,72.4 300.6,72.4 301.9,72.3 303.2,72.2 304.5,72.0 305.8,71.9 307.1,71.7 308.3,71.6 309.6,71.5 310.9,71.4 312.2,71.2 313.5,71.1 314.8,70.9 316.0,70.7 317.3,70.6 318.6,70.4 319.9,70.3 321.2,70.2 322.4,70.1 323.7,70.0 325.0,69.9 326.3,69.8 327.6,69.6 328.9,69.5 330.1,69.3 331.4,69.2 332.7,69.1 334.0,69.0 335.3,68.8 336.6,68.7 337.8,68.6 339.1,68.5 340.4,68.3 341.7,68.2 343.0,68.0 344.3,67.9 345.5,67.9 346.8,67.8 348.1,67.6 349.4,67.5 350.7,67.4 351.9,67.4 353.2,67.2 354.5,67.0 355.8,66.8 357.1,70.8 358.4,70.0 359.6,68.5 360.9,67.9 362.2,67.2 363.5,66.3 364.8,65.9 366.1,65.5 367.3,65.0 368.6,64.1 369.9,63.5 371.2,63.3 372.5,62.9 373.8,62.7 375.0,62.2 376.3,61.8 377.6,61.3 378.9,61.1 380.2,60.6 381.4,60.4 382.7,60.1 384.0,59.9 385.3,59.7 386.6,59.5 387.9,59.0 389.1,58.7 390.4,58.3 391.7,57.8 393.0,57.5 394.3,57.3 395.6,57.1 396.8,56.9 398.1,56.6 399.4,56.2 400.7,56.0 402.0,55.2 403.3,54.5 404.5,54.2 405.8,54.1 407.1,53.8 408.4,53.4 409.7,53.0 411.0,52.7 412.2,52.5 413.5,52.2 414.8,51.9 416.1,51.6 417.4,51.2 418.6,51.0 419.9,50.9 421.2,50.7 422.5,50.3 423.8,50.1 425.1,49.9 426.3,49.8 427.6,49.6 428.9,49.3 430.2,49.2 431.5,49.0 432.8,48.8 434.0,48.7 435.3,48.5 436.6,48.3 437.9,48.1 439.2,47.8 440.5,47.5 441.7,47.2 443.0,47.1 444.3,46.9 445.6,46.7 446.9,46.6 448.1,46.4 449.4,46.3 450.7,46.2 452.0,46.0 453.3,45.8 454.6,45.7 455.8,45.4 457.1,45.3 458.4,45.2 459.7,44.9 461.0,44.6 462.3,44.3 463.5,44.1 464.8,43.9 466.1,43.7 467.4,43.5 468.7,43.3 470.0,43.1 471.2,42.9 472.5,42.8 473.8,42.7 475.1,42.5 476.4,42.2 477.6,42.1 478.9,42.0 480.2,41.8 481.5,41.5 482.8,41.4 484.1,41.1 485.3,41.0 486.6,40.7 487.9,40.5 489.2,40.3 490.5,40.2 491.8,40.0 493.0,39.9 494.3,39.7 495.6,39.5 496.9,39.3 498.2,39.2 499.5,39.1 500.7,38.9 502.0,38.7 503.3,38.6 504.6,38.5 505.9,38.3 507.1,38.3 508.4,38.1 509.7,37.9 511.0,37.8 512.3,37.6 513.6,37.5 514.8,37.3 516.1,37.2 517.4,37.0 518.7,36.9 520.0,36.7 521.3,36.6 522.5,36.3 523.8,36.2 525.1,35.9 526.4,35.8 527.7,35.7 529.0,35.6 530.2,35.5 531.5,35.3 532.8,35.1 534.1,34.8 535.4,34.7 536.7,34.5 537.9,34.4 539.2,34.3 540.5,34.1 541.8,34.0 543.1,33.7 544.3,33.5 545.6,33.4 546.9,33.2 548.2,33.0 549.5,32.8 550.8,32.6 552.0,32.5 553.3,32.3 554.6,32.0 555.9,31.8 557.2,31.7 558.5,31.6 559.7,31.4 561.0,31.2 562.3,31.1 563.6,30.9 564.9,30.8 566.2,30.6 567.4,30.3 568.7,30.2 570.0,30.0" />
  
  <!-- Punto finale luminoso -->
  <circle cx="570.0" cy="30.0" r="4" fill="#ffffff" stroke="#0366d6" stroke-width="2.5" />
</svg>