<svg width="600" height="150" viewBox="0 0 600 150" xmlns="http://www.w3.org/2000/svg">
  <defs>
    <filter id="shadow2" x="-2%" y="-2%" width="104%" height="108%">
      <feDropShadow dx="0" dy="2" stdDeviation="3" flood-opacity="0.1" />
    </filter>
    <linearGradient id="fillGrad" x1="0" y1="0" x2="0" y2="1">
      <stop offset="0%" stop-color="#0366d6" stop-opacity="0.3"/>
      <stop offset="100%" stop-color="#0366d6" stop-opacity="0.02"/>
    </linearGradient>
  </defs>
  <rect width="600" height="150" rx="12" fill="#ffffff" filter="url(#shadow2)" stroke="#e1e4e8" stroke-width="1"/>
  <text x="20" y="24" fill="#2b3137" font-family="-apple-system,BlinkMacSystemFont,'Segoe UI',Helvetica,Arial,sans-serif" font-size="14" font-weight="600">📈 Download Growth (Actual: 79.4k)</text>
  
  <!-- Area sotto la linea -->
  <polygon fill="url(#fillGrad)" points="30.0,120.0,120 30.0,120.0 32.1,119.2 34.2,118.3 36.2,117.6 38.3,117.4 40.4,117.0 42.5,116.0 44.5,115.4 46.6,115.0 48.7,114.0 50.8,113.5 52.8,113.1 54.9,112.8 57.0,112.3 59.1,111.7 61.2,111.0 63.2,110.5 65.3,110.1 67.4,109.9 69.5,109.4 71.5,108.9 73.6,108.5 75.7,108.3 77.8,107.8 79.8,106.3 81.9,105.9 84.0,105.3 86.1,104.7 88.2,104.2 90.2,103.7 92.3,103.3 94.4,103.1 96.5,102.6 98.5,101.9 100.6,101.3 102.7,100.8 104.8,100.3 106.8,100.2 108.9,100.1 111.0,99.8 113.1,99.3 115.2,99.0 117.2,98.8 119.3,98.3 121.4,97.5 123.5,97.3 125.5,97.1 127.6,96.8 129.7,96.1 131.8,95.7 133.8,95.0 135.9,94.6 138.0,94.0 140.1,93.8 142.2,93.5 144.2,92.9 146.3,92.3 148.4,91.8 150.5,91.6 152.5,91.3 154.6,91.0 156.7,90.3 158.8,89.7 160.8,89.1 162.9,88.6 165.0,88.3 167.1,88.1 169.2,87.9 171.2,87.4 173.3,87.1 175.4,86.8 177.5,86.6 179.5,86.4 181.6,86.1 183.7,85.9 185.8,85.7 187.8,85.6 189.9,84.9 192.0,84.6 194.1,84.5 196.2,84.3 198.2,84.1 200.3,84.1 202.4,94.4 204.5,93.4 206.5,92.5 208.6,91.5 210.7,88.7 212.8,86.8 214.8,84.7 216.9,83.9 219.0,83.0 221.1,81.6 223.2,80.0 225.2,78.9 227.3,78.5 229.4,78.0 231.5,76.9 233.5,76.1 235.6,75.6 237.7,74.9 239.8,74.6 241.8,74.5 243.9,73.9 246.0,73.0 248.1,72.3 250.2,71.6 252.2,70.8 254.3,70.5 256.4,70.2 258.5,69.5 260.5,68.9 262.6,68.4 264.7,67.9 266.8,67.7 268.8,67.6 270.9,67.2 273.0,66.7 275.1,66.3 277.2,66.0 279.2,65.7 281.3,65.4 283.4,65.1 285.5,64.8 287.5,64.6 289.6,64.3 291.7,63.8 293.8,63.4 295.8,62.9 297.9,62.7 300.0,62.4 302.1,62.2 304.2,61.9 306.2,61.7 308.3,60.9 310.4,60.4 312.5,59.8 314.5,59.6 316.6,59.5 318.7,59.2 320.8,58.9 322.8,58.5 324.9,58.2 327.0,57.7 329.1,57.4 331.2,57.3 333.2,57.0 335.3,56.8 337.4,56.6 339.5,56.3 341.5,56.1 343.6,55.6 345.7,55.4 347.8,55.3 349.8,55.1 351.9,54.9 354.0,54.5 356.1,54.2 358.2,53.9 360.2,53.6 362.3,53.2 364.4,53.0 366.5,52.9 368.5,52.6 370.6,52.2 372.7,51.7 374.8,51.4 376.8,51.1 378.9,50.5 381.0,50.4 383.1,50.2 385.2,50.1 387.2,49.8 389.3,49.5 391.4,49.2 393.5,49.0 395.5,48.8 397.6,48.5 399.7,48.3 401.8,48.1 403.8,48.0 405.9,47.7 408.0,47.3 410.1,47.1 412.2,46.8 414.2,46.6 416.3,46.4 418.4,46.2 420.5,46.0 422.5,45.8 424.6,45.6 426.7,45.1 428.8,44.6 430.8,44.3 432.9,44.1 435.0,44.0 437.1,43.9 439.2,43.6 441.2,43.2 443.3,43.0 445.4,42.8 447.5,42.5 449.5,42.3 451.6,42.0 453.7,41.8 455.8,41.7 457.8,41.3 459.9,41.0 462.0,40.7 464.1,40.4 466.2,40.2 468.2,40.1 470.3,40.0 472.4,39.8 474.5,39.6 476.5,39.3 478.6,39.0 480.7,38.8 482.8,38.6 484.8,38.4 486.9,38.2 489.0,38.0 491.1,37.7 493.2,37.3 495.2,37.1 497.3,36.8 499.4,36.6 501.5,36.5 503.5,36.4 505.6,36.2 507.7,36.1 509.8,35.8 511.8,35.5 513.9,35.3 516.0,35.0 518.1,34.9 520.2,34.7 522.2,34.4 524.3,34.2 526.4,34.0 528.5,33.8 530.5,33.6 532.6,33.3 534.7,33.1 536.8,32.8 538.8,32.7 540.9,32.6 543.0,32.4 545.1,32.2 547.2,32.0 549.2,31.8 551.3,31.8 553.4,31.5 555.5,31.1 557.5,30.7 559.6,37.4 561.7,36.1 563.8,33.6 565.8,32.6 567.9,31.5 570.0,30.0 570.0,30.0,120" />
  
  <!-- Linea principale -->
  <polyline fill="none" stroke="#0366d6" stroke-width="2.5" stroke-linecap="round" stroke-linejoin="round" points="30.0,120.0 32.1,119.2 34.2,118.3 36.2,117.6 38.3,117.4 40.4,117.0 42.5,116.0 44.5,115.4 46.6,115.0 48.7,114.0 50.8,113.5 52.8,113.1 54.9,112.8 57.0,112.3 59.1,111.7 61.2,111.0 63.2,110.5 65.3,110.1 67.4,109.9 69.5,109.4 71.5,108.9 73.6,108.5 75.7,108.3 77.8,107.8 79.8,106.3 81.9,105.9 84.0,105.3 86.1,104.7 88.2,104.2 90.2,103.7 92.3,103.3 94.4,103.1 96.5,102.6 98.5,101.9 100.6,101.3 102.7,100.8 104.8,100.3 106.8,100.2 108.9,100.1 111.0,99.8 113.1,99.3 115.2,99.0 117.2,98.8 119.3,98.3 121.4,97.5 123.5,97.3 125.5,97.1 127.6,96.8 129.7,96.1 131.8,95.7 133.8,95.0 135.9,94.6 138.0,94.0 140.1,93.8 142.2,93.5 144.2,92.9 146.3,92.3 148.4,91.8 150.5,91.6 152.5,91.3 154.6,91.0 156.7,90.3 158.8,89.7 160.8,89.1 162.9,88.6 165.0,88.3 167.1,88.1 169.2,87.9 171.2,87.4 173.3,87.1 175.4,86.8 177.5,86.6 179.5,86.4 181.6,86.1 183.7,85.9 185.8,85.7 187.8,85.6 189.9,84.9 192.0,84.6 194.1,84.5 196.2,84.3 198.2,84.1 200.3,84.1 202.4,94.4 204.5,93.4 206.5,92.5 208.6,91.5 210.7,88.7 212.8,86.8 214.8,84.7 216.9,83.9 219.0,83.0 221.1,81.6 223.2,80.0 225.2,78.9 227.3,78.5 229.4,78.0 231.5,76.9 233.5,76.1 235.6,75.6 237.7,74.9 239.8,74.6 241.8,74.5 243.9,73.9 246.0,73.0 248.1,72.3 250.2,71.6 252.2,70.8 254.3,70.5 256.4,70.2 258.5,69.5 260.5,68.9 262.6,68.4 264.7,67.9 266.8,67.7 268.8,67.6 270.9,67.2 273.0,66.7 275.1,66.3 277.2,66.0 279.2,65.7 281.3,65.4 283.4,65.1 285.5,64.8 287.5,64.6 289.6,64.3 291.7,63.8 293.8,63.4 295.8,62.9 297.9,62.7 300.0,62.4 302.1,62.2 304.2,61.9 306.2,61.7 308.3,60.9 310.4,60.4 312.5,59.8 314.5,59.6 316.6,59.5 318.7,59.2 320.8,58.9 322.8,58.5 324.9,58.2 327.0,57.7 329.1,57.4 331.2,57.3 333.2,57.0 335.3,56.8 337.4,56.6 339.5,56.3 341.5,56.1 343.6,55.6 345.7,55.4 347.8,55.3 349.8,55.1 351.9,54.9 354.0,54.5 356.1,54.2 358.2,53.9 360.2,53.6 362.3,53.2 364.4,53.0 366.5,52.9 368.5,52.6 370.6,52.2 372.7,51.7 374.8,51.4 376.8,51.1 378.9,50.5 381.0,50.4 383.1,50.2 385.2,50.1 387.2,49.8 389.3,49.5 391.4,49.2 393.5,49.0 395.5,48.8 397.6,48.5 399.7,48.3 401.8,48.1 403.8,48.0 405.9,47.7 408.0,47.3 410.1,47.1 412.2,46.8 414.2,46.6 416.3,46.4 418.4,46.2 420.5,46.0 422.5,45.8 424.6,45.6 426.7,45.1 428.8,44.6 430.8,44.3 432.9,44.1 435.0,44.0 437.1,43.9 439.2,43.6 441.2,43.2 443.3,43.0 445.4,42.8 447.5,42.5 449.5,42.3 451.6,42.0 453.7,41.8 455.8,41.7 457.8,41.3 459.9,41.0 462.0,40.7 464.1,40.4 466.2,40.2 468.2,40.1 470.3,40.0 472.4,39.8 474.5,39.6 476.5,39.3 478.6,39.0 480.7,38.8 482.8,38.6 484.8,38.4 486.9,38.2 489.0,38.0 491.1,37.7 493.2,37.3 495.2,37.1 497.3,36.8 499.4,36.6 501.5,36.5 503.5,36.4 505.6,36.2 507.7,36.1 509.8,35.8 511.8,35.5 513.9,35.3 516.0,35.0 518.1,34.9 520.2,34.7 522.2,34.4 524.3,34.2 526.4,34.0 528.5,33.8 530.5,33.6 532.6,33.3 534.7,33.1 536.8,32.8 538.8,32.7 540.9,32.6 543.0,32.4 545.1,32.2 547.2,32.0 549.2,31.8 551.3,31.8 553.4,31.5 555.5,31.1 557.5,30.7 559.6,37.4 561.7,36.1 563.8,33.6 565.8,32.6 567.9,31.5 570.0,30.0" />
  
  <!-- Punto finale luminoso -->
  <circle cx="570.0" cy="30.0" r="4" fill="#ffffff" stroke="#0366d6" stroke-width="2.5" />
</svg>