<svg width="600" height="150" viewBox="0 0 600 150" xmlns="http://www.w3.org/2000/svg">
  <defs>
    <filter id="shadow2" x="-2%" y="-2%" width="104%" height="108%">
      <feDropShadow dx="0" dy="2" stdDeviation="3" flood-opacity="0.1" />
    </filter>
    <linearGradient id="fillGrad" x1="0" y1="0" x2="0" y2="1">
      <stop offset="0%" stop-color="#0366d6" stop-opacity="0.3"/>
      <stop offset="100%" stop-color="#0366d6" stop-opacity="0.02"/>
    </linearGradient>
  </defs>
  <rect width="600" height="150" rx="12" fill="#ffffff" filter="url(#shadow2)" stroke="#e1e4e8" stroke-width="1"/>
  <text x="20" y="24" fill="#2b3137" font-family="-apple-system,BlinkMacSystemFont,'Segoe UI',Helvetica,Arial,sans-serif" font-size="14" font-weight="600">📈 Download Growth (Actual: 74.3k)</text>
  
  <!-- Area sotto la linea -->
  <polygon fill="url(#fillGrad)" points="30.0,120.0,120 30.0,120.0 34.6,118.7 39.2,117.2 43.7,115.9 48.3,115.6 52.9,114.9 57.5,113.3 62.0,112.3 66.6,111.6 71.2,110.0 75.8,109.2 80.3,108.4 84.9,107.9 89.5,107.2 94.1,106.1 98.6,104.9 103.2,104.0 107.8,103.4 112.4,103.0 116.9,102.3 121.5,101.4 126.1,100.7 130.7,100.3 135.3,99.6 139.8,97.1 144.4,96.3 149.0,95.3 153.6,94.3 158.1,93.4 162.7,92.6 167.3,92.0 171.9,91.6 176.4,90.9 181.0,89.7 185.6,88.6 190.2,87.9 194.7,87.0 199.3,86.8 203.9,86.6 208.5,86.1 213.1,85.3 217.6,84.8 222.2,84.5 226.8,83.6 231.4,82.2 235.9,81.9 240.5,81.6 245.1,81.1 249.7,80.0 254.2,79.3 258.8,78.1 263.4,77.3 268.0,76.3 272.5,76.1 277.1,75.5 281.7,74.5 286.3,73.5 290.8,72.7 295.4,72.4 300.0,71.8 304.6,71.4 309.2,70.2 313.7,69.2 318.3,68.2 322.9,67.3 327.5,66.8 332.0,66.5 336.6,66.1 341.2,65.3 345.8,64.8 350.3,64.4 354.9,64.0 359.5,63.7 364.1,63.1 368.6,62.7 373.2,62.5 377.8,62.2 382.4,61.2 386.9,60.6 391.5,60.4 396.1,60.1 400.7,59.9 405.3,59.9 409.8,77.1 414.4,75.4 419.0,73.9 423.6,72.2 428.1,67.6 432.7,64.3 437.3,60.8 441.9,59.5 446.4,58.0 451.0,55.6 455.6,53.0 460.2,51.0 464.7,50.3 469.3,49.6 473.9,47.7 478.5,46.4 483.1,45.5 487.6,44.4 492.2,43.9 496.8,43.7 501.4,42.7 505.9,41.1 510.5,40.0 515.1,38.8 519.7,37.5 524.2,36.9 528.8,36.5 533.4,35.4 538.0,34.4 542.5,33.4 547.1,32.6 551.7,32.3 556.3,32.1 560.8,31.5 565.4,30.6 570.0,30.0 570.0,30.0,120" />
  
  <!-- Linea principale -->
  <polyline fill="none" stroke="#0366d6" stroke-width="2.5" stroke-linecap="round" stroke-linejoin="round" points="30.0,120.0 34.6,118.7 39.2,117.2 43.7,115.9 48.3,115.6 52.9,114.9 57.5,113.3 62.0,112.3 66.6,111.6 71.2,110.0 75.8,109.2 80.3,108.4 84.9,107.9 89.5,107.2 94.1,106.1 98.6,104.9 103.2,104.0 107.8,103.4 112.4,103.0 116.9,102.3 121.5,101.4 126.1,100.7 130.7,100.3 135.3,99.6 139.8,97.1 144.4,96.3 149.0,95.3 153.6,94.3 158.1,93.4 162.7,92.6 167.3,92.0 171.9,91.6 176.4,90.9 181.0,89.7 185.6,88.6 190.2,87.9 194.7,87.0 199.3,86.8 203.9,86.6 208.5,86.1 213.1,85.3 217.6,84.8 222.2,84.5 226.8,83.6 231.4,82.2 235.9,81.9 240.5,81.6 245.1,81.1 249.7,80.0 254.2,79.3 258.8,78.1 263.4,77.3 268.0,76.3 272.5,76.1 277.1,75.5 281.7,74.5 286.3,73.5 290.8,72.7 295.4,72.4 300.0,71.8 304.6,71.4 309.2,70.2 313.7,69.2 318.3,68.2 322.9,67.3 327.5,66.8 332.0,66.5 336.6,66.1 341.2,65.3 345.8,64.8 350.3,64.4 354.9,64.0 359.5,63.7 364.1,63.1 368.6,62.7 373.2,62.5 377.8,62.2 382.4,61.2 386.9,60.6 391.5,60.4 396.1,60.1 400.7,59.9 405.3,59.9 409.8,77.1 414.4,75.4 419.0,73.9 423.6,72.2 428.1,67.6 432.7,64.3 437.3,60.8 441.9,59.5 446.4,58.0 451.0,55.6 455.6,53.0 460.2,51.0 464.7,50.3 469.3,49.6 473.9,47.7 478.5,46.4 483.1,45.5 487.6,44.4 492.2,43.9 496.8,43.7 501.4,42.7 505.9,41.1 510.5,40.0 515.1,38.8 519.7,37.5 524.2,36.9 528.8,36.5 533.4,35.4 538.0,34.4 542.5,33.4 547.1,32.6 551.7,32.3 556.3,32.1 560.8,31.5 565.4,30.6 570.0,30.0" />
  
  <!-- Punto finale luminoso -->
  <circle cx="570.0" cy="30.0" r="4" fill="#ffffff" stroke="#0366d6" stroke-width="2.5" />
</svg>