<svg width="600" height="150" viewBox="0 0 600 150" xmlns="http://www.w3.org/2000/svg">
  <defs>
    <filter id="shadow2" x="-2%" y="-2%" width="104%" height="108%">
      <feDropShadow dx="0" dy="2" stdDeviation="3" flood-opacity="0.1" />
    </filter>
    <linearGradient id="fillGrad" x1="0" y1="0" x2="0" y2="1">
      <stop offset="0%" stop-color="#0366d6" stop-opacity="0.3"/>
      <stop offset="100%" stop-color="#0366d6" stop-opacity="0.02"/>
    </linearGradient>
  </defs>
  <rect width="600" height="150" rx="12" fill="#ffffff" filter="url(#shadow2)" stroke="#e1e4e8" stroke-width="1"/>
  <text x="20" y="24" fill="#2b3137" font-family="-apple-system,BlinkMacSystemFont,'Segoe UI',Helvetica,Arial,sans-serif" font-size="14" font-weight="600">📈 Download Growth (Actual: 75.4k)</text>
  
  <!-- Area sotto la linea -->
  <polygon fill="url(#fillGrad)" points="30.0,120.0,120 30.0,120.0 33.8,118.8 37.7,117.5 41.5,116.4 45.3,116.1 49.1,115.5 53.0,114.2 56.8,113.3 60.6,112.7 64.5,111.2 68.3,110.5 72.1,109.8 76.0,109.4 79.8,108.8 83.6,107.8 87.4,106.8 91.3,106.1 95.1,105.5 98.9,105.2 102.8,104.5 106.6,103.8 110.4,103.1 114.3,102.8 118.1,102.2 121.9,100.0 125.7,99.3 129.6,98.4 133.4,97.6 137.2,96.8 141.1,96.1 144.9,95.6 148.7,95.2 152.6,94.6 156.4,93.5 160.2,92.6 164.0,92.0 167.9,91.2 171.7,91.0 175.5,90.8 179.4,90.4 183.2,89.7 187.0,89.3 190.9,89.0 194.7,88.2 198.5,87.0 202.3,86.7 206.2,86.5 210.0,86.0 213.8,85.1 217.7,84.4 221.5,83.5 225.3,82.8 229.1,81.9 233.0,81.7 236.8,81.2 240.6,80.3 244.5,79.4 248.3,78.7 252.1,78.4 256.0,78.0 259.8,77.6 263.6,76.6 267.4,75.6 271.3,74.8 275.1,74.0 278.9,73.6 282.8,73.3 286.6,73.0 290.4,72.3 294.3,71.8 298.1,71.4 301.9,71.1 305.7,70.8 309.6,70.3 313.4,70.0 317.2,69.8 321.1,69.6 324.9,68.7 328.7,68.2 332.6,68.0 336.4,67.7 340.2,67.5 344.0,67.5 347.9,82.5 351.7,81.0 355.5,79.7 359.4,78.3 363.2,74.2 367.0,71.4 370.9,68.3 374.7,67.2 378.5,65.9 382.3,63.8 386.2,61.5 390.0,59.8 393.8,59.2 397.7,58.6 401.5,56.9 405.3,55.7 409.1,55.0 413.0,54.0 416.8,53.6 420.6,53.4 424.5,52.6 428.3,51.2 432.1,50.2 436.0,49.2 439.8,48.0 443.6,47.5 447.4,47.1 451.3,46.1 455.1,45.2 458.9,44.4 462.8,43.8 466.6,43.4 470.4,43.2 474.3,42.7 478.1,42.0 481.9,41.4 485.7,40.9 489.6,40.5 493.4,40.0 497.2,39.6 501.1,39.2 504.9,38.9 508.7,38.5 512.6,37.7 516.4,37.1 520.2,36.5 524.0,36.1 527.9,35.6 531.7,35.3 535.5,35.0 539.4,34.6 543.2,33.5 547.0,32.8 550.9,31.9 554.7,31.6 558.5,31.5 562.3,31.0 566.2,30.6 570.0,30.0 570.0,30.0,120" />
  
  <!-- Linea principale -->
  <polyline fill="none" stroke="#0366d6" stroke-width="2.5" stroke-linecap="round" stroke-linejoin="round" points="30.0,120.0 33.8,118.8 37.7,117.5 41.5,116.4 45.3,116.1 49.1,115.5 53.0,114.2 56.8,113.3 60.6,112.7 64.5,111.2 68.3,110.5 72.1,109.8 76.0,109.4 79.8,108.8 83.6,107.8 87.4,106.8 91.3,106.1 95.1,105.5 98.9,105.2 102.8,104.5 106.6,103.8 110.4,103.1 114.3,102.8 118.1,102.2 121.9,100.0 125.7,99.3 129.6,98.4 133.4,97.6 137.2,96.8 141.1,96.1 144.9,95.6 148.7,95.2 152.6,94.6 156.4,93.5 160.2,92.6 164.0,92.0 167.9,91.2 171.7,91.0 175.5,90.8 179.4,90.4 183.2,89.7 187.0,89.3 190.9,89.0 194.7,88.2 198.5,87.0 202.3,86.7 206.2,86.5 210.0,86.0 213.8,85.1 217.7,84.4 221.5,83.5 225.3,82.8 229.1,81.9 233.0,81.7 236.8,81.2 240.6,80.3 244.5,79.4 248.3,78.7 252.1,78.4 256.0,78.0 259.8,77.6 263.6,76.6 267.4,75.6 271.3,74.8 275.1,74.0 278.9,73.6 282.8,73.3 286.6,73.0 290.4,72.3 294.3,71.8 298.1,71.4 301.9,71.1 305.7,70.8 309.6,70.3 313.4,70.0 317.2,69.8 321.1,69.6 324.9,68.7 328.7,68.2 332.6,68.0 336.4,67.7 340.2,67.5 344.0,67.5 347.9,82.5 351.7,81.0 355.5,79.7 359.4,78.3 363.2,74.2 367.0,71.4 370.9,68.3 374.7,67.2 378.5,65.9 382.3,63.8 386.2,61.5 390.0,59.8 393.8,59.2 397.7,58.6 401.5,56.9 405.3,55.7 409.1,55.0 413.0,54.0 416.8,53.6 420.6,53.4 424.5,52.6 428.3,51.2 432.1,50.2 436.0,49.2 439.8,48.0 443.6,47.5 447.4,47.1 451.3,46.1 455.1,45.2 458.9,44.4 462.8,43.8 466.6,43.4 470.4,43.2 474.3,42.7 478.1,42.0 481.9,41.4 485.7,40.9 489.6,40.5 493.4,40.0 497.2,39.6 501.1,39.2 504.9,38.9 508.7,38.5 512.6,37.7 516.4,37.1 520.2,36.5 524.0,36.1 527.9,35.6 531.7,35.3 535.5,35.0 539.4,34.6 543.2,33.5 547.0,32.8 550.9,31.9 554.7,31.6 558.5,31.5 562.3,31.0 566.2,30.6 570.0,30.0" />
  
  <!-- Punto finale luminoso -->
  <circle cx="570.0" cy="30.0" r="4" fill="#ffffff" stroke="#0366d6" stroke-width="2.5" />
</svg>