<svg width="600" height="150" viewBox="0 0 600 150" xmlns="http://www.w3.org/2000/svg">
  <defs>
    <filter id="shadow2" x="-2%" y="-2%" width="104%" height="108%">
      <feDropShadow dx="0" dy="2" stdDeviation="3" flood-opacity="0.1" />
    </filter>
    <linearGradient id="fillGrad" x1="0" y1="0" x2="0" y2="1">
      <stop offset="0%" stop-color="#0366d6" stop-opacity="0.3"/>
      <stop offset="100%" stop-color="#0366d6" stop-opacity="0.02"/>
    </linearGradient>
  </defs>
  <rect width="600" height="150" rx="12" fill="#ffffff" filter="url(#shadow2)" stroke="#e1e4e8" stroke-width="1"/>
  <text x="20" y="24" fill="#2b3137" font-family="-apple-system,BlinkMacSystemFont,'Segoe UI',Helvetica,Arial,sans-serif" font-size="14" font-weight="600">📈 Download Growth (Actual: 87.0k)</text>
  
  <!-- Area sotto la linea -->
  <polygon fill="url(#fillGrad)" points="30.0,120.0,120 30.0,120.0 31.4,119.5 32.7,119.0 34.0,118.5 35.4,118.4 36.8,118.1 38.1,117.5 39.5,117.1 40.8,116.9 42.1,116.3 43.5,116.0 44.9,115.7 46.2,115.5 47.5,115.2 48.9,114.8 50.2,114.4 51.6,114.1 53.0,113.9 54.3,113.7 55.6,113.4 57.0,113.1 58.3,112.8 59.7,112.7 61.0,112.4 62.4,111.5 63.8,111.2 65.1,110.8 66.5,110.5 67.8,110.1 69.2,109.8 70.5,109.6 71.8,109.5 73.2,109.2 74.6,108.7 75.9,108.3 77.2,108.1 78.6,107.8 80.0,107.7 81.3,107.6 82.7,107.4 84.0,107.1 85.3,107.0 86.7,106.8 88.0,106.5 89.4,106.0 90.8,105.8 92.1,105.8 93.4,105.6 94.8,105.2 96.2,104.9 97.5,104.5 98.8,104.2 100.2,103.8 101.5,103.7 102.9,103.5 104.2,103.1 105.6,102.7 106.9,102.5 108.3,102.3 109.6,102.1 111.0,102.0 112.3,101.5 113.7,101.1 115.0,100.8 116.4,100.4 117.8,100.3 119.1,100.2 120.5,100.0 121.8,99.7 123.1,99.5 124.5,99.4 125.8,99.2 127.2,99.1 128.6,98.9 129.9,98.8 131.2,98.7 132.6,98.6 133.9,98.2 135.3,98.0 136.7,97.9 138.0,97.8 139.4,97.7 140.7,97.7 142.1,104.1 143.4,103.4 144.8,102.9 146.1,102.3 147.4,100.5 148.8,99.3 150.2,98.0 151.5,97.5 152.9,97.0 154.2,96.1 155.6,95.1 156.9,94.4 158.2,94.1 159.6,93.9 160.9,93.2 162.3,92.7 163.7,92.4 165.0,91.9 166.3,91.8 167.7,91.7 169.1,91.3 170.4,90.7 171.8,90.3 173.1,89.9 174.5,89.4 175.8,89.2 177.2,89.0 178.5,88.6 179.9,88.2 181.2,87.9 182.5,87.6 183.9,87.5 185.2,87.4 186.6,87.2 187.9,86.8 189.3,86.6 190.7,86.4 192.0,86.2 193.3,86.0 194.7,85.8 196.1,85.7 197.4,85.5 198.8,85.4 200.1,85.0 201.4,84.8 202.8,84.5 204.2,84.3 205.5,84.1 206.8,84.0 208.2,83.9 209.6,83.7 210.9,83.3 212.2,82.9 213.6,82.6 215.0,82.4 216.3,82.4 217.6,82.2 219.0,82.0 220.3,81.7 221.7,81.5 223.0,81.2 224.4,81.1 225.8,81.0 227.1,80.8 228.4,80.7 229.8,80.6 231.2,80.4 232.5,80.2 233.8,79.9 235.2,79.8 236.6,79.7 237.9,79.6 239.2,79.5 240.6,79.3 242.0,79.1 243.3,78.8 244.7,78.7 246.0,78.5 247.4,78.3 248.7,78.2 250.0,78.1 251.4,77.8 252.8,77.5 254.1,77.3 255.4,77.1 256.8,76.8 258.1,76.7 259.5,76.6 260.9,76.5 262.2,76.3 263.6,76.2 264.9,76.0 266.2,75.8 267.6,75.7 268.9,75.5 270.3,75.4 271.6,75.3 273.0,75.2 274.4,75.0 275.7,74.8 277.1,74.6 278.4,74.4 279.8,74.3 281.1,74.2 282.5,74.1 283.8,74.0 285.1,73.8 286.5,73.7 287.8,73.4 289.2,73.1 290.6,72.9 291.9,72.8 293.2,72.7 294.6,72.6 295.9,72.5 297.3,72.2 298.6,72.1 300.0,72.0 301.3,71.8 302.7,71.6 304.0,71.5 305.4,71.4 306.8,71.3 308.1,71.0 309.4,70.9 310.8,70.6 312.1,70.4 313.5,70.4 314.8,70.3 316.2,70.2 317.6,70.1 318.9,69.9 320.2,69.8 321.6,69.6 322.9,69.5 324.3,69.3 325.6,69.2 327.0,69.1 328.4,69.0 329.7,68.8 331.1,68.6 332.4,68.4 333.8,68.2 335.1,68.1 336.4,68.0 337.8,68.0 339.1,67.9 340.5,67.8 341.9,67.6 343.2,67.4 344.6,67.3 345.9,67.1 347.2,67.0 348.6,66.9 349.9,66.8 351.3,66.6 352.7,66.5 354.0,66.4 355.4,66.2 356.7,66.1 358.1,65.9 359.4,65.8 360.8,65.7 362.1,65.6 363.5,65.5 364.8,65.4 366.2,65.2 367.5,65.1 368.8,65.1 370.2,65.0 371.5,64.7 372.9,64.5 374.2,68.6 375.6,67.8 376.9,66.2 378.3,65.6 379.6,64.9 381.0,64.0 382.3,63.5 383.7,63.2 385.1,62.6 386.4,61.7 387.8,61.0 389.1,60.8 390.4,60.5 391.8,60.2 393.1,59.7 394.5,59.3 395.9,58.8 397.2,58.5 398.6,58.1 399.9,57.8 401.2,57.5 402.6,57.3 403.9,57.1 405.3,56.8 406.6,56.4 408.0,56.1 409.4,55.7 410.7,55.1 412.1,54.7 413.4,54.6 414.8,54.4 416.1,54.2 417.4,53.8 418.8,53.5 420.2,53.2 421.5,52.3 422.9,51.7 424.2,51.4 425.6,51.2 426.9,50.9 428.2,50.5 429.6,50.1 431.0,49.8 432.3,49.5 433.7,49.2 435.0,48.9 436.3,48.6 437.7,48.3 439.0,48.0 440.4,47.9 441.8,47.7 443.1,47.3 444.4,47.1 445.8,46.8 447.1,46.7 448.5,46.5 449.8,46.3 451.2,46.1 452.6,45.9 453.9,45.8 455.2,45.6 456.6,45.4 457.9,45.2 459.3,45.0 460.6,44.7 462.0,44.3 463.4,44.0 464.7,43.9 466.1,43.7 467.4,43.6 468.8,43.4 470.1,43.2 471.4,43.0 472.8,42.9 474.1,42.8 475.5,42.6 476.9,42.5 478.2,42.2 479.6,42.1 480.9,41.9 482.2,41.7 483.6,41.4 484.9,41.0 486.3,40.8 487.7,40.6 489.0,40.4 490.4,40.2 491.7,40.0 493.1,39.7 494.4,39.5 495.8,39.5 497.1,39.3 498.5,39.1 499.8,38.9 501.2,38.7 502.5,38.6 503.8,38.4 505.2,38.1 506.5,38.0 507.9,37.7 509.2,37.5 510.6,37.2 511.9,37.0 513.3,36.8 514.6,36.7 516.0,36.5 517.3,36.4 518.7,36.2 520.0,36.0 521.4,35.8 522.8,35.7 524.1,35.5 525.5,35.4 526.8,35.2 528.1,35.1 529.5,34.9 530.9,34.8 532.2,34.7 533.5,34.5 534.9,34.4 536.2,34.2 537.6,34.0 539.0,33.9 540.3,33.8 541.6,33.6 543.0,33.3 544.4,33.2 545.7,33.1 547.0,33.0 548.4,32.7 549.8,32.5 551.1,32.2 552.5,32.1 553.8,32.0 555.1,32.0 556.5,31.8 557.9,31.7 559.2,31.4 560.6,31.1 561.9,31.0 563.2,30.8 564.6,30.7 566.0,30.6 567.3,30.4 568.6,30.2 570.0,30.0 570.0,30.0,120" />
  
  <!-- Linea principale -->
  <polyline fill="none" stroke="#0366d6" stroke-width="2.5" stroke-linecap="round" stroke-linejoin="round" points="30.0,120.0 31.4,119.5 32.7,119.0 34.0,118.5 35.4,118.4 36.8,118.1 38.1,117.5 39.5,117.1 40.8,116.9 42.1,116.3 43.5,116.0 44.9,115.7 46.2,115.5 47.5,115.2 48.9,114.8 50.2,114.4 51.6,114.1 53.0,113.9 54.3,113.7 55.6,113.4 57.0,113.1 58.3,112.8 59.7,112.7 61.0,112.4 62.4,111.5 63.8,111.2 65.1,110.8 66.5,110.5 67.8,110.1 69.2,109.8 70.5,109.6 71.8,109.5 73.2,109.2 74.6,108.7 75.9,108.3 77.2,108.1 78.6,107.8 80.0,107.7 81.3,107.6 82.7,107.4 84.0,107.1 85.3,107.0 86.7,106.8 88.0,106.5 89.4,106.0 90.8,105.8 92.1,105.8 93.4,105.6 94.8,105.2 96.2,104.9 97.5,104.5 98.8,104.2 100.2,103.8 101.5,103.7 102.9,103.5 104.2,103.1 105.6,102.7 106.9,102.5 108.3,102.3 109.6,102.1 111.0,102.0 112.3,101.5 113.7,101.1 115.0,100.8 116.4,100.4 117.8,100.3 119.1,100.2 120.5,100.0 121.8,99.7 123.1,99.5 124.5,99.4 125.8,99.2 127.2,99.1 128.6,98.9 129.9,98.8 131.2,98.7 132.6,98.6 133.9,98.2 135.3,98.0 136.7,97.9 138.0,97.8 139.4,97.7 140.7,97.7 142.1,104.1 143.4,103.4 144.8,102.9 146.1,102.3 147.4,100.5 148.8,99.3 150.2,98.0 151.5,97.5 152.9,97.0 154.2,96.1 155.6,95.1 156.9,94.4 158.2,94.1 159.6,93.9 160.9,93.2 162.3,92.7 163.7,92.4 165.0,91.9 166.3,91.8 167.7,91.7 169.1,91.3 170.4,90.7 171.8,90.3 173.1,89.9 174.5,89.4 175.8,89.2 177.2,89.0 178.5,88.6 179.9,88.2 181.2,87.9 182.5,87.6 183.9,87.5 185.2,87.4 186.6,87.2 187.9,86.8 189.3,86.6 190.7,86.4 192.0,86.2 193.3,86.0 194.7,85.8 196.1,85.7 197.4,85.5 198.8,85.4 200.1,85.0 201.4,84.8 202.8,84.5 204.2,84.3 205.5,84.1 206.8,84.0 208.2,83.9 209.6,83.7 210.9,83.3 212.2,82.9 213.6,82.6 215.0,82.4 216.3,82.4 217.6,82.2 219.0,82.0 220.3,81.7 221.7,81.5 223.0,81.2 224.4,81.1 225.8,81.0 227.1,80.8 228.4,80.7 229.8,80.6 231.2,80.4 232.5,80.2 233.8,79.9 235.2,79.8 236.6,79.7 237.9,79.6 239.2,79.5 240.6,79.3 242.0,79.1 243.3,78.8 244.7,78.7 246.0,78.5 247.4,78.3 248.7,78.2 250.0,78.1 251.4,77.8 252.8,77.5 254.1,77.3 255.4,77.1 256.8,76.8 258.1,76.7 259.5,76.6 260.9,76.5 262.2,76.3 263.6,76.2 264.9,76.0 266.2,75.8 267.6,75.7 268.9,75.5 270.3,75.4 271.6,75.3 273.0,75.2 274.4,75.0 275.7,74.8 277.1,74.6 278.4,74.4 279.8,74.3 281.1,74.2 282.5,74.1 283.8,74.0 285.1,73.8 286.5,73.7 287.8,73.4 289.2,73.1 290.6,72.9 291.9,72.8 293.2,72.7 294.6,72.6 295.9,72.5 297.3,72.2 298.6,72.1 300.0,72.0 301.3,71.8 302.7,71.6 304.0,71.5 305.4,71.4 306.8,71.3 308.1,71.0 309.4,70.9 310.8,70.6 312.1,70.4 313.5,70.4 314.8,70.3 316.2,70.2 317.6,70.1 318.9,69.9 320.2,69.8 321.6,69.6 322.9,69.5 324.3,69.3 325.6,69.2 327.0,69.1 328.4,69.0 329.7,68.8 331.1,68.6 332.4,68.4 333.8,68.2 335.1,68.1 336.4,68.0 337.8,68.0 339.1,67.9 340.5,67.8 341.9,67.6 343.2,67.4 344.6,67.3 345.9,67.1 347.2,67.0 348.6,66.9 349.9,66.8 351.3,66.6 352.7,66.5 354.0,66.4 355.4,66.2 356.7,66.1 358.1,65.9 359.4,65.8 360.8,65.7 362.1,65.6 363.5,65.5 364.8,65.4 366.2,65.2 367.5,65.1 368.8,65.1 370.2,65.0 371.5,64.7 372.9,64.5 374.2,68.6 375.6,67.8 376.9,66.2 378.3,65.6 379.6,64.9 381.0,64.0 382.3,63.5 383.7,63.2 385.1,62.6 386.4,61.7 387.8,61.0 389.1,60.8 390.4,60.5 391.8,60.2 393.1,59.7 394.5,59.3 395.9,58.8 397.2,58.5 398.6,58.1 399.9,57.8 401.2,57.5 402.6,57.3 403.9,57.1 405.3,56.8 406.6,56.4 408.0,56.1 409.4,55.7 410.7,55.1 412.1,54.7 413.4,54.6 414.8,54.4 416.1,54.2 417.4,53.8 418.8,53.5 420.2,53.2 421.5,52.3 422.9,51.7 424.2,51.4 425.6,51.2 426.9,50.9 428.2,50.5 429.6,50.1 431.0,49.8 432.3,49.5 433.7,49.2 435.0,48.9 436.3,48.6 437.7,48.3 439.0,48.0 440.4,47.9 441.8,47.7 443.1,47.3 444.4,47.1 445.8,46.8 447.1,46.7 448.5,46.5 449.8,46.3 451.2,46.1 452.6,45.9 453.9,45.8 455.2,45.6 456.6,45.4 457.9,45.2 459.3,45.0 460.6,44.7 462.0,44.3 463.4,44.0 464.7,43.9 466.1,43.7 467.4,43.6 468.8,43.4 470.1,43.2 471.4,43.0 472.8,42.9 474.1,42.8 475.5,42.6 476.9,42.5 478.2,42.2 479.6,42.1 480.9,41.9 482.2,41.7 483.6,41.4 484.9,41.0 486.3,40.8 487.7,40.6 489.0,40.4 490.4,40.2 491.7,40.0 493.1,39.7 494.4,39.5 495.8,39.5 497.1,39.3 498.5,39.1 499.8,38.9 501.2,38.7 502.5,38.6 503.8,38.4 505.2,38.1 506.5,38.0 507.9,37.7 509.2,37.5 510.6,37.2 511.9,37.0 513.3,36.8 514.6,36.7 516.0,36.5 517.3,36.4 518.7,36.2 520.0,36.0 521.4,35.8 522.8,35.7 524.1,35.5 525.5,35.4 526.8,35.2 528.1,35.1 529.5,34.9 530.9,34.8 532.2,34.7 533.5,34.5 534.9,34.4 536.2,34.2 537.6,34.0 539.0,33.9 540.3,33.8 541.6,33.6 543.0,33.3 544.4,33.2 545.7,33.1 547.0,33.0 548.4,32.7 549.8,32.5 551.1,32.2 552.5,32.1 553.8,32.0 555.1,32.0 556.5,31.8 557.9,31.7 559.2,31.4 560.6,31.1 561.9,31.0 563.2,30.8 564.6,30.7 566.0,30.6 567.3,30.4 568.6,30.2 570.0,30.0" />
  
  <!-- Punto finale luminoso -->
  <circle cx="570.0" cy="30.0" r="4" fill="#ffffff" stroke="#0366d6" stroke-width="2.5" />
</svg>