<svg width="600" height="150" viewBox="0 0 600 150" xmlns="http://www.w3.org/2000/svg">
  <defs>
    <filter id="shadow2" x="-2%" y="-2%" width="104%" height="108%">
      <feDropShadow dx="0" dy="2" stdDeviation="3" flood-opacity="0.1" />
    </filter>
    <linearGradient id="fillGrad" x1="0" y1="0" x2="0" y2="1">
      <stop offset="0%" stop-color="#0366d6" stop-opacity="0.3"/>
      <stop offset="100%" stop-color="#0366d6" stop-opacity="0.02"/>
    </linearGradient>
  </defs>
  <rect width="600" height="150" rx="12" fill="#ffffff" filter="url(#shadow2)" stroke="#e1e4e8" stroke-width="1"/>
  <text x="20" y="24" fill="#2b3137" font-family="-apple-system,BlinkMacSystemFont,'Segoe UI',Helvetica,Arial,sans-serif" font-size="14" font-weight="600">📈 Download Growth (Actual: 71.9k)</text>
  
  <!-- Area sotto la linea -->
  <polygon fill="url(#fillGrad)" points="30.0,120.0,120 30.0,120.0 36.7,118.0 43.3,115.8 50.0,113.9 56.7,113.4 63.3,112.4 70.0,110.0 76.7,108.5 83.3,107.4 90.0,105.0 96.7,103.8 103.3,102.6 110.0,101.9 116.7,100.8 123.3,99.2 130.0,97.4 136.7,96.1 143.3,95.2 150.0,94.6 156.7,93.5 163.3,92.2 170.0,91.1 176.7,90.5 183.3,89.5 190.0,85.7 196.7,84.5 203.3,83.0 210.0,81.5 216.7,80.2 223.3,79.0 230.0,78.1 236.7,77.5 243.3,76.4 250.0,74.6 256.7,73.0 263.3,71.9 270.0,70.6 276.7,70.3 283.3,70.0 290.0,69.3 296.7,68.1 303.3,67.4 310.0,66.8 316.7,65.5 323.3,63.4 330.0,62.9 336.7,62.5 343.3,61.7 350.0,60.1 356.7,59.0 363.3,57.3 370.0,56.1 376.7,54.6 383.3,54.3 390.0,53.4 396.7,51.9 403.3,50.4 410.0,49.2 416.7,48.7 423.3,47.9 430.0,47.2 436.7,45.5 443.3,43.9 450.0,42.5 456.7,41.1 463.3,40.4 470.0,40.0 476.7,39.3 483.3,38.2 490.0,37.4 496.7,36.8 503.3,36.2 510.0,35.7 516.7,34.8 523.3,34.3 530.0,33.9 536.7,33.5 543.3,32.0 550.0,31.1 556.7,30.8 563.3,30.3 570.0,30.0 570.0,30.0,120" />
  
  <!-- Linea principale -->
  <polyline fill="none" stroke="#0366d6" stroke-width="2.5" stroke-linecap="round" stroke-linejoin="round" points="30.0,120.0 36.7,118.0 43.3,115.8 50.0,113.9 56.7,113.4 63.3,112.4 70.0,110.0 76.7,108.5 83.3,107.4 90.0,105.0 96.7,103.8 103.3,102.6 110.0,101.9 116.7,100.8 123.3,99.2 130.0,97.4 136.7,96.1 143.3,95.2 150.0,94.6 156.7,93.5 163.3,92.2 170.0,91.1 176.7,90.5 183.3,89.5 190.0,85.7 196.7,84.5 203.3,83.0 210.0,81.5 216.7,80.2 223.3,79.0 230.0,78.1 236.7,77.5 243.3,76.4 250.0,74.6 256.7,73.0 263.3,71.9 270.0,70.6 276.7,70.3 283.3,70.0 290.0,69.3 296.7,68.1 303.3,67.4 310.0,66.8 316.7,65.5 323.3,63.4 330.0,62.9 336.7,62.5 343.3,61.7 350.0,60.1 356.7,59.0 363.3,57.3 370.0,56.1 376.7,54.6 383.3,54.3 390.0,53.4 396.7,51.9 403.3,50.4 410.0,49.2 416.7,48.7 423.3,47.9 430.0,47.2 436.7,45.5 443.3,43.9 450.0,42.5 456.7,41.1 463.3,40.4 470.0,40.0 476.7,39.3 483.3,38.2 490.0,37.4 496.7,36.8 503.3,36.2 510.0,35.7 516.7,34.8 523.3,34.3 530.0,33.9 536.7,33.5 543.3,32.0 550.0,31.1 556.7,30.8 563.3,30.3 570.0,30.0" />
  
  <!-- Punto finale luminoso -->
  <circle cx="570.0" cy="30.0" r="4" fill="#ffffff" stroke="#0366d6" stroke-width="2.5" />
</svg>