<svg width="600" height="150" viewBox="0 0 600 150" xmlns="http://www.w3.org/2000/svg">
  <defs>
    <filter id="shadow2" x="-2%" y="-2%" width="104%" height="108%">
      <feDropShadow dx="0" dy="2" stdDeviation="3" flood-opacity="0.1" />
    </filter>
    <linearGradient id="fillGrad" x1="0" y1="0" x2="0" y2="1">
      <stop offset="0%" stop-color="#0366d6" stop-opacity="0.3"/>
      <stop offset="100%" stop-color="#0366d6" stop-opacity="0.02"/>
    </linearGradient>
  </defs>
  <rect width="600" height="150" rx="12" fill="#ffffff" filter="url(#shadow2)" stroke="#e1e4e8" stroke-width="1"/>
  <text x="20" y="24" fill="#2b3137" font-family="-apple-system,BlinkMacSystemFont,'Segoe UI',Helvetica,Arial,sans-serif" font-size="14" font-weight="600">📈 Download Growth (Actual: 74.5k)</text>
  
  <!-- Area sotto la linea -->
  <polygon fill="url(#fillGrad)" points="30.0,120.0,120 30.0,120.0 34.5,118.7 38.9,117.2 43.4,116.0 47.9,115.6 52.3,115.0 56.8,113.4 61.2,112.4 65.7,111.7 70.2,110.1 74.6,109.4 79.1,108.6 83.6,108.1 88.0,107.4 92.5,106.3 96.9,105.2 101.4,104.3 105.9,103.7 110.3,103.3 114.8,102.6 119.3,101.8 123.7,101.0 128.2,100.7 132.6,100.0 137.1,97.5 141.6,96.7 146.0,95.7 150.5,94.8 155.0,93.9 159.4,93.1 163.9,92.5 168.3,92.1 172.8,91.4 177.3,90.2 181.7,89.1 186.2,88.4 190.7,87.6 195.1,87.4 199.6,87.2 204.0,86.7 208.5,85.9 213.0,85.4 217.4,85.1 221.9,84.2 226.4,82.8 230.8,82.5 235.3,82.3 239.8,81.7 244.2,80.7 248.7,80.0 253.1,78.9 257.6,78.1 262.1,77.1 266.5,76.9 271.0,76.3 275.5,75.3 279.9,74.3 284.4,73.5 288.8,73.2 293.3,72.7 297.8,72.2 302.2,71.1 306.7,70.1 311.2,69.1 315.6,68.2 320.1,67.7 324.5,67.5 329.0,67.1 333.5,66.3 337.9,65.8 342.4,65.4 346.9,65.0 351.3,64.6 355.8,64.1 360.2,63.7 364.7,63.5 369.2,63.3 373.6,62.2 378.1,61.7 382.6,61.5 387.0,61.1 391.5,60.9 396.0,60.9 400.4,77.8 404.9,76.2 409.3,74.7 413.8,73.1 418.3,68.5 422.7,65.3 427.2,61.8 431.7,60.5 436.1,59.1 440.6,56.7 445.0,54.1 449.5,52.3 454.0,51.5 458.4,50.9 462.9,49.0 467.4,47.7 471.8,46.8 476.3,45.7 480.7,45.3 485.2,45.1 489.7,44.1 494.1,42.5 498.6,41.4 503.1,40.3 507.5,39.0 512.0,38.4 516.4,37.9 520.9,36.8 525.4,35.9 529.8,34.9 534.3,34.2 538.8,33.8 543.2,33.6 547.7,33.0 552.1,32.2 556.6,31.6 561.1,31.0 565.5,30.5 570.0,30.0 570.0,30.0,120" />
  
  <!-- Linea principale -->
  <polyline fill="none" stroke="#0366d6" stroke-width="2.5" stroke-linecap="round" stroke-linejoin="round" points="30.0,120.0 34.5,118.7 38.9,117.2 43.4,116.0 47.9,115.6 52.3,115.0 56.8,113.4 61.2,112.4 65.7,111.7 70.2,110.1 74.6,109.4 79.1,108.6 83.6,108.1 88.0,107.4 92.5,106.3 96.9,105.2 101.4,104.3 105.9,103.7 110.3,103.3 114.8,102.6 119.3,101.8 123.7,101.0 128.2,100.7 132.6,100.0 137.1,97.5 141.6,96.7 146.0,95.7 150.5,94.8 155.0,93.9 159.4,93.1 163.9,92.5 168.3,92.1 172.8,91.4 177.3,90.2 181.7,89.1 186.2,88.4 190.7,87.6 195.1,87.4 199.6,87.2 204.0,86.7 208.5,85.9 213.0,85.4 217.4,85.1 221.9,84.2 226.4,82.8 230.8,82.5 235.3,82.3 239.8,81.7 244.2,80.7 248.7,80.0 253.1,78.9 257.6,78.1 262.1,77.1 266.5,76.9 271.0,76.3 275.5,75.3 279.9,74.3 284.4,73.5 288.8,73.2 293.3,72.7 297.8,72.2 302.2,71.1 306.7,70.1 311.2,69.1 315.6,68.2 320.1,67.7 324.5,67.5 329.0,67.1 333.5,66.3 337.9,65.8 342.4,65.4 346.9,65.0 351.3,64.6 355.8,64.1 360.2,63.7 364.7,63.5 369.2,63.3 373.6,62.2 378.1,61.7 382.6,61.5 387.0,61.1 391.5,60.9 396.0,60.9 400.4,77.8 404.9,76.2 409.3,74.7 413.8,73.1 418.3,68.5 422.7,65.3 427.2,61.8 431.7,60.5 436.1,59.1 440.6,56.7 445.0,54.1 449.5,52.3 454.0,51.5 458.4,50.9 462.9,49.0 467.4,47.7 471.8,46.8 476.3,45.7 480.7,45.3 485.2,45.1 489.7,44.1 494.1,42.5 498.6,41.4 503.1,40.3 507.5,39.0 512.0,38.4 516.4,37.9 520.9,36.8 525.4,35.9 529.8,34.9 534.3,34.2 538.8,33.8 543.2,33.6 547.7,33.0 552.1,32.2 556.6,31.6 561.1,31.0 565.5,30.5 570.0,30.0" />
  
  <!-- Punto finale luminoso -->
  <circle cx="570.0" cy="30.0" r="4" fill="#ffffff" stroke="#0366d6" stroke-width="2.5" />
</svg>