<svg width="600" height="150" viewBox="0 0 600 150" xmlns="http://www.w3.org/2000/svg">
  <defs>
    <filter id="shadow2" x="-2%" y="-2%" width="104%" height="108%">
      <feDropShadow dx="0" dy="2" stdDeviation="3" flood-opacity="0.1" />
    </filter>
    <linearGradient id="fillGrad" x1="0" y1="0" x2="0" y2="1">
      <stop offset="0%" stop-color="#0366d6" stop-opacity="0.3"/>
      <stop offset="100%" stop-color="#0366d6" stop-opacity="0.02"/>
    </linearGradient>
  </defs>
  <rect width="600" height="150" rx="12" fill="#ffffff" filter="url(#shadow2)" stroke="#e1e4e8" stroke-width="1"/>
  <text x="20" y="24" fill="#2b3137" font-family="-apple-system,BlinkMacSystemFont,'Segoe UI',Helvetica,Arial,sans-serif" font-size="14" font-weight="600">📈 Download Growth (Actual: 74.2k)</text>
  
  <!-- Area sotto la linea -->
  <polygon fill="url(#fillGrad)" points="30.0,120.0,120 30.0,120.0 34.7,118.6 39.5,117.1 44.2,115.8 48.9,115.5 53.7,114.8 58.4,113.2 63.2,112.1 67.9,111.4 72.6,109.7 77.4,108.9 82.1,108.1 86.8,107.6 91.6,106.8 96.3,105.7 101.1,104.5 105.8,103.6 110.5,103.0 115.3,102.6 120.0,101.8 124.7,100.9 129.5,100.2 134.2,99.8 138.9,99.1 143.7,96.5 148.4,95.7 153.2,94.7 157.9,93.6 162.6,92.7 167.4,91.9 172.1,91.3 176.8,90.9 181.6,90.1 186.3,88.9 191.1,87.8 195.8,87.0 200.5,86.2 205.3,85.9 210.0,85.7 214.7,85.2 219.5,84.4 224.2,83.9 228.9,83.5 233.7,82.6 238.4,81.2 243.2,80.9 247.9,80.6 252.6,80.0 257.4,78.9 262.1,78.2 266.8,77.0 271.6,76.2 276.3,75.2 281.1,75.0 285.8,74.4 290.5,73.3 295.3,72.3 300.0,71.5 304.7,71.1 309.5,70.6 314.2,70.1 318.9,68.9 323.7,67.8 328.4,66.9 333.2,65.9 337.9,65.4 342.6,65.1 347.4,64.7 352.1,63.9 356.8,63.4 361.6,62.9 366.3,62.5 371.1,62.2 375.8,61.6 380.5,61.2 385.3,61.0 390.0,60.7 394.7,59.7 399.5,59.1 404.2,58.9 408.9,58.5 413.7,58.3 418.4,58.3 423.2,75.9 427.9,74.2 432.6,72.6 437.4,71.0 442.1,66.2 446.8,62.8 451.6,59.2 456.3,57.9 461.1,56.4 465.8,53.9 470.5,51.2 475.3,49.2 480.0,48.5 484.7,47.8 489.5,45.8 494.2,44.4 498.9,43.5 503.7,42.4 508.4,41.9 513.2,41.7 517.9,40.7 522.6,39.1 527.4,37.9 532.1,36.7 536.8,35.4 541.6,34.7 546.3,34.3 551.1,33.1 555.8,32.1 560.5,31.1 565.3,30.4 570.0,30.0 570.0,30.0,120" />
  
  <!-- Linea principale -->
  <polyline fill="none" stroke="#0366d6" stroke-width="2.5" stroke-linecap="round" stroke-linejoin="round" points="30.0,120.0 34.7,118.6 39.5,117.1 44.2,115.8 48.9,115.5 53.7,114.8 58.4,113.2 63.2,112.1 67.9,111.4 72.6,109.7 77.4,108.9 82.1,108.1 86.8,107.6 91.6,106.8 96.3,105.7 101.1,104.5 105.8,103.6 110.5,103.0 115.3,102.6 120.0,101.8 124.7,100.9 129.5,100.2 134.2,99.8 138.9,99.1 143.7,96.5 148.4,95.7 153.2,94.7 157.9,93.6 162.6,92.7 167.4,91.9 172.1,91.3 176.8,90.9 181.6,90.1 186.3,88.9 191.1,87.8 195.8,87.0 200.5,86.2 205.3,85.9 210.0,85.7 214.7,85.2 219.5,84.4 224.2,83.9 228.9,83.5 233.7,82.6 238.4,81.2 243.2,80.9 247.9,80.6 252.6,80.0 257.4,78.9 262.1,78.2 266.8,77.0 271.6,76.2 276.3,75.2 281.1,75.0 285.8,74.4 290.5,73.3 295.3,72.3 300.0,71.5 304.7,71.1 309.5,70.6 314.2,70.1 318.9,68.9 323.7,67.8 328.4,66.9 333.2,65.9 337.9,65.4 342.6,65.1 347.4,64.7 352.1,63.9 356.8,63.4 361.6,62.9 366.3,62.5 371.1,62.2 375.8,61.6 380.5,61.2 385.3,61.0 390.0,60.7 394.7,59.7 399.5,59.1 404.2,58.9 408.9,58.5 413.7,58.3 418.4,58.3 423.2,75.9 427.9,74.2 432.6,72.6 437.4,71.0 442.1,66.2 446.8,62.8 451.6,59.2 456.3,57.9 461.1,56.4 465.8,53.9 470.5,51.2 475.3,49.2 480.0,48.5 484.7,47.8 489.5,45.8 494.2,44.4 498.9,43.5 503.7,42.4 508.4,41.9 513.2,41.7 517.9,40.7 522.6,39.1 527.4,37.9 532.1,36.7 536.8,35.4 541.6,34.7 546.3,34.3 551.1,33.1 555.8,32.1 560.5,31.1 565.3,30.4 570.0,30.0" />
  
  <!-- Punto finale luminoso -->
  <circle cx="570.0" cy="30.0" r="4" fill="#ffffff" stroke="#0366d6" stroke-width="2.5" />
</svg>