<svg width="600" height="150" viewBox="0 0 600 150" xmlns="http://www.w3.org/2000/svg">
  <defs>
    <filter id="shadow2" x="-2%" y="-2%" width="104%" height="108%">
      <feDropShadow dx="0" dy="2" stdDeviation="3" flood-opacity="0.1" />
    </filter>
    <linearGradient id="fillGrad" x1="0" y1="0" x2="0" y2="1">
      <stop offset="0%" stop-color="#0366d6" stop-opacity="0.3"/>
      <stop offset="100%" stop-color="#0366d6" stop-opacity="0.02"/>
    </linearGradient>
  </defs>
  <rect width="600" height="150" rx="12" fill="#ffffff" filter="url(#shadow2)" stroke="#e1e4e8" stroke-width="1"/>
  <text x="20" y="24" fill="#2b3137" font-family="-apple-system,BlinkMacSystemFont,'Segoe UI',Helvetica,Arial,sans-serif" font-size="14" font-weight="600">📈 Download Growth (Actual: 76.0k)</text>
  
  <!-- Area sotto la linea -->
  <polygon fill="url(#fillGrad)" points="30.0,120.0,120 30.0,120.0 33.4,118.9 36.9,117.7 40.3,116.7 43.8,116.4 47.2,115.8 50.6,114.6 54.1,113.7 57.5,113.1 61.0,111.8 64.4,111.2 67.8,110.5 71.3,110.1 74.7,109.5 78.2,108.6 81.6,107.7 85.0,107.0 88.5,106.5 91.9,106.1 95.4,105.5 98.8,104.8 102.2,104.2 105.7,103.9 109.1,103.4 112.5,101.3 116.0,100.7 119.4,99.8 122.9,99.0 126.3,98.3 129.7,97.6 133.2,97.2 136.6,96.8 140.1,96.3 143.5,95.2 146.9,94.4 150.4,93.8 153.8,93.1 157.3,92.9 160.7,92.7 164.1,92.4 167.6,91.7 171.0,91.3 174.5,91.0 177.9,90.3 181.3,89.1 184.8,88.9 188.2,88.7 191.7,88.2 195.1,87.3 198.5,86.8 202.0,85.8 205.4,85.2 208.9,84.4 212.3,84.2 215.7,83.7 219.2,82.9 222.6,82.0 226.1,81.4 229.5,81.1 232.9,80.7 236.4,80.3 239.8,79.4 243.2,78.5 246.7,77.8 250.1,77.0 253.6,76.6 257.0,76.4 260.4,76.0 263.9,75.4 267.3,75.0 270.8,74.6 274.2,74.3 277.6,74.0 281.1,73.6 284.5,73.3 288.0,73.1 291.4,72.9 294.8,72.0 298.3,71.6 301.7,71.4 305.2,71.1 308.6,70.9 312.0,70.9 315.5,85.0 318.9,83.6 322.4,82.4 325.8,81.0 329.2,77.2 332.7,74.6 336.1,71.7 339.6,70.6 343.0,69.4 346.4,67.5 349.9,65.3 353.3,63.7 356.8,63.2 360.2,62.6 363.6,61.1 367.1,59.9 370.5,59.2 373.9,58.3 377.4,57.9 380.8,57.8 384.3,57.0 387.7,55.7 391.1,54.7 394.6,53.8 398.0,52.7 401.5,52.2 404.9,51.8 408.3,50.9 411.8,50.1 415.2,49.4 418.7,48.7 422.1,48.5 425.5,48.3 429.0,47.8 432.4,47.1 435.9,46.6 439.3,46.1 442.7,45.7 446.2,45.3 449.6,44.9 453.1,44.5 456.5,44.2 459.9,43.8 463.4,43.1 466.8,42.5 470.3,41.9 473.7,41.6 477.1,41.1 480.6,40.9 484.0,40.5 487.5,40.2 490.9,39.2 494.3,38.5 497.8,37.7 501.2,37.3 504.6,37.2 508.1,36.9 511.5,36.4 515.0,35.9 518.4,35.4 521.8,34.8 525.3,34.4 528.7,34.2 532.2,33.8 535.6,33.6 539.0,33.3 542.5,32.9 545.9,32.5 549.4,31.9 552.8,31.6 556.2,31.4 559.7,31.1 563.1,31.0 566.6,30.4 570.0,30.0 570.0,30.0,120" />
  
  <!-- Linea principale -->
  <polyline fill="none" stroke="#0366d6" stroke-width="2.5" stroke-linecap="round" stroke-linejoin="round" points="30.0,120.0 33.4,118.9 36.9,117.7 40.3,116.7 43.8,116.4 47.2,115.8 50.6,114.6 54.1,113.7 57.5,113.1 61.0,111.8 64.4,111.2 67.8,110.5 71.3,110.1 74.7,109.5 78.2,108.6 81.6,107.7 85.0,107.0 88.5,106.5 91.9,106.1 95.4,105.5 98.8,104.8 102.2,104.2 105.7,103.9 109.1,103.4 112.5,101.3 116.0,100.7 119.4,99.8 122.9,99.0 126.3,98.3 129.7,97.6 133.2,97.2 136.6,96.8 140.1,96.3 143.5,95.2 146.9,94.4 150.4,93.8 153.8,93.1 157.3,92.9 160.7,92.7 164.1,92.4 167.6,91.7 171.0,91.3 174.5,91.0 177.9,90.3 181.3,89.1 184.8,88.9 188.2,88.7 191.7,88.2 195.1,87.3 198.5,86.8 202.0,85.8 205.4,85.2 208.9,84.4 212.3,84.2 215.7,83.7 219.2,82.9 222.6,82.0 226.1,81.4 229.5,81.1 232.9,80.7 236.4,80.3 239.8,79.4 243.2,78.5 246.7,77.8 250.1,77.0 253.6,76.6 257.0,76.4 260.4,76.0 263.9,75.4 267.3,75.0 270.8,74.6 274.2,74.3 277.6,74.0 281.1,73.6 284.5,73.3 288.0,73.1 291.4,72.9 294.8,72.0 298.3,71.6 301.7,71.4 305.2,71.1 308.6,70.9 312.0,70.9 315.5,85.0 318.9,83.6 322.4,82.4 325.8,81.0 329.2,77.2 332.7,74.6 336.1,71.7 339.6,70.6 343.0,69.4 346.4,67.5 349.9,65.3 353.3,63.7 356.8,63.2 360.2,62.6 363.6,61.1 367.1,59.9 370.5,59.2 373.9,58.3 377.4,57.9 380.8,57.8 384.3,57.0 387.7,55.7 391.1,54.7 394.6,53.8 398.0,52.7 401.5,52.2 404.9,51.8 408.3,50.9 411.8,50.1 415.2,49.4 418.7,48.7 422.1,48.5 425.5,48.3 429.0,47.8 432.4,47.1 435.9,46.6 439.3,46.1 442.7,45.7 446.2,45.3 449.6,44.9 453.1,44.5 456.5,44.2 459.9,43.8 463.4,43.1 466.8,42.5 470.3,41.9 473.7,41.6 477.1,41.1 480.6,40.9 484.0,40.5 487.5,40.2 490.9,39.2 494.3,38.5 497.8,37.7 501.2,37.3 504.6,37.2 508.1,36.9 511.5,36.4 515.0,35.9 518.4,35.4 521.8,34.8 525.3,34.4 528.7,34.2 532.2,33.8 535.6,33.6 539.0,33.3 542.5,32.9 545.9,32.5 549.4,31.9 552.8,31.6 556.2,31.4 559.7,31.1 563.1,31.0 566.6,30.4 570.0,30.0" />
  
  <!-- Punto finale luminoso -->
  <circle cx="570.0" cy="30.0" r="4" fill="#ffffff" stroke="#0366d6" stroke-width="2.5" />
</svg>