<svg width="600" height="150" viewBox="0 0 600 150" xmlns="http://www.w3.org/2000/svg">
  <defs>
    <filter id="shadow2" x="-2%" y="-2%" width="104%" height="108%">
      <feDropShadow dx="0" dy="2" stdDeviation="3" flood-opacity="0.1" />
    </filter>
    <linearGradient id="fillGrad" x1="0" y1="0" x2="0" y2="1">
      <stop offset="0%" stop-color="#0366d6" stop-opacity="0.3"/>
      <stop offset="100%" stop-color="#0366d6" stop-opacity="0.02"/>
    </linearGradient>
  </defs>
  <rect width="600" height="150" rx="12" fill="#ffffff" filter="url(#shadow2)" stroke="#e1e4e8" stroke-width="1"/>
  <text x="20" y="24" fill="#2b3137" font-family="-apple-system,BlinkMacSystemFont,'Segoe UI',Helvetica,Arial,sans-serif" font-size="14" font-weight="600">📈 Download Growth (Actual: 79.3k)</text>
  
  <!-- Area sotto la linea -->
  <polygon fill="url(#fillGrad)" points="30.0,120.0,120 30.0,120.0 32.1,119.2 34.3,118.3 36.4,117.5 38.5,117.3 40.6,116.9 42.8,116.0 44.9,115.4 47.0,114.9 49.1,114.0 51.3,113.5 53.4,113.0 55.5,112.7 57.6,112.3 59.8,111.6 61.9,110.9 64.0,110.4 66.1,110.0 68.3,109.8 70.4,109.3 72.5,108.8 74.6,108.4 76.8,108.2 78.9,107.7 81.0,106.2 83.1,105.8 85.3,105.2 87.4,104.6 89.5,104.0 91.7,103.5 93.8,103.2 95.9,102.9 98.0,102.5 100.2,101.8 102.3,101.1 104.4,100.7 106.5,100.2 108.7,100.0 110.8,99.9 112.9,99.6 115.0,99.1 117.2,98.9 119.3,98.6 121.4,98.1 123.5,97.3 125.7,97.1 127.8,96.9 129.9,96.6 132.0,95.9 134.2,95.5 136.3,94.8 138.4,94.4 140.6,93.8 142.7,93.6 144.8,93.3 146.9,92.7 149.1,92.0 151.2,91.6 153.3,91.4 155.4,91.1 157.6,90.8 159.7,90.1 161.8,89.5 163.9,88.9 166.1,88.3 168.2,88.0 170.3,87.9 172.4,87.6 174.6,87.1 176.7,86.8 178.8,86.6 180.9,86.3 183.1,86.1 185.2,85.8 187.3,85.6 189.4,85.4 191.6,85.3 193.7,84.7 195.8,84.3 198.0,84.2 200.1,84.0 202.2,83.9 204.3,83.9 206.5,94.2 208.6,93.2 210.7,92.3 212.8,91.3 215.0,88.5 217.1,86.5 219.2,84.4 221.3,83.6 223.5,82.7 225.6,81.3 227.7,79.7 229.8,78.5 232.0,78.1 234.1,77.7 236.2,76.6 238.3,75.7 240.5,75.2 242.6,74.5 244.7,74.3 246.9,74.2 249.0,73.6 251.1,72.6 253.2,71.9 255.4,71.2 257.5,70.4 259.6,70.1 261.7,69.8 263.9,69.1 266.0,68.5 268.1,67.9 270.2,67.5 272.4,67.3 274.5,67.1 276.6,66.8 278.7,66.3 280.9,65.9 283.0,65.5 285.1,65.2 287.2,64.9 289.4,64.6 291.5,64.4 293.6,64.1 295.7,63.9 297.9,63.3 300.0,62.9 302.1,62.5 304.3,62.2 306.4,61.9 308.5,61.7 310.6,61.5 312.8,61.2 314.9,60.5 317.0,60.0 319.1,59.3 321.3,59.1 323.4,59.0 325.5,58.7 327.6,58.4 329.8,58.0 331.9,57.7 334.0,57.2 336.1,56.9 338.3,56.8 340.4,56.5 342.5,56.3 344.6,56.1 346.8,55.8 348.9,55.5 351.0,55.1 353.1,54.9 355.3,54.7 357.4,54.5 359.5,54.4 361.7,54.0 363.8,53.7 365.9,53.3 368.0,53.0 370.2,52.7 372.3,52.5 374.4,52.3 376.5,52.1 378.7,51.6 380.8,51.2 382.9,50.9 385.0,50.5 387.2,50.0 389.3,49.8 391.4,49.7 393.5,49.5 395.7,49.2 397.8,49.0 399.9,48.7 402.0,48.4 404.2,48.2 406.3,48.0 408.4,47.7 410.6,47.5 412.7,47.4 414.8,47.1 416.9,46.7 419.1,46.5 421.2,46.2 423.3,46.0 425.4,45.8 427.6,45.6 429.7,45.4 431.8,45.2 433.9,45.0 436.1,44.5 438.2,44.0 440.3,43.7 442.4,43.5 444.6,43.4 446.7,43.3 448.8,43.0 450.9,42.5 453.1,42.4 455.2,42.2 457.3,41.9 459.4,41.7 461.6,41.4 463.7,41.2 465.8,41.0 468.0,40.7 470.1,40.4 472.2,40.0 474.3,39.7 476.5,39.6 478.6,39.5 480.7,39.4 482.8,39.1 485.0,38.9 487.1,38.6 489.2,38.4 491.3,38.1 493.5,37.9 495.6,37.8 497.7,37.5 499.8,37.3 502.0,37.0 504.1,36.7 506.2,36.4 508.3,36.1 510.5,36.0 512.6,35.8 514.7,35.7 516.9,35.5 519.0,35.4 521.1,35.1 523.2,34.8 525.4,34.6 527.5,34.3 529.6,34.2 531.7,34.0 533.9,33.7 536.0,33.5 538.1,33.3 540.2,33.1 542.4,32.9 544.5,32.6 546.6,32.4 548.7,32.1 550.9,32.0 553.0,31.9 555.1,31.7 557.2,31.5 559.4,31.3 561.5,31.1 563.6,31.0 565.7,30.8 567.9,30.3 570.0,30.0 570.0,30.0,120" />
  
  <!-- Linea principale -->
  <polyline fill="none" stroke="#0366d6" stroke-width="2.5" stroke-linecap="round" stroke-linejoin="round" points="30.0,120.0 32.1,119.2 34.3,118.3 36.4,117.5 38.5,117.3 40.6,116.9 42.8,116.0 44.9,115.4 47.0,114.9 49.1,114.0 51.3,113.5 53.4,113.0 55.5,112.7 57.6,112.3 59.8,111.6 61.9,110.9 64.0,110.4 66.1,110.0 68.3,109.8 70.4,109.3 72.5,108.8 74.6,108.4 76.8,108.2 78.9,107.7 81.0,106.2 83.1,105.8 85.3,105.2 87.4,104.6 89.5,104.0 91.7,103.5 93.8,103.2 95.9,102.9 98.0,102.5 100.2,101.8 102.3,101.1 104.4,100.7 106.5,100.2 108.7,100.0 110.8,99.9 112.9,99.6 115.0,99.1 117.2,98.9 119.3,98.6 121.4,98.1 123.5,97.3 125.7,97.1 127.8,96.9 129.9,96.6 132.0,95.9 134.2,95.5 136.3,94.8 138.4,94.4 140.6,93.8 142.7,93.6 144.8,93.3 146.9,92.7 149.1,92.0 151.2,91.6 153.3,91.4 155.4,91.1 157.6,90.8 159.7,90.1 161.8,89.5 163.9,88.9 166.1,88.3 168.2,88.0 170.3,87.9 172.4,87.6 174.6,87.1 176.7,86.8 178.8,86.6 180.9,86.3 183.1,86.1 185.2,85.8 187.3,85.6 189.4,85.4 191.6,85.3 193.7,84.7 195.8,84.3 198.0,84.2 200.1,84.0 202.2,83.9 204.3,83.9 206.5,94.2 208.6,93.2 210.7,92.3 212.8,91.3 215.0,88.5 217.1,86.5 219.2,84.4 221.3,83.6 223.5,82.7 225.6,81.3 227.7,79.7 229.8,78.5 232.0,78.1 234.1,77.7 236.2,76.6 238.3,75.7 240.5,75.2 242.6,74.5 244.7,74.3 246.9,74.2 249.0,73.6 251.1,72.6 253.2,71.9 255.4,71.2 257.5,70.4 259.6,70.1 261.7,69.8 263.9,69.1 266.0,68.5 268.1,67.9 270.2,67.5 272.4,67.3 274.5,67.1 276.6,66.8 278.7,66.3 280.9,65.9 283.0,65.5 285.1,65.2 287.2,64.9 289.4,64.6 291.5,64.4 293.6,64.1 295.7,63.9 297.9,63.3 300.0,62.9 302.1,62.5 304.3,62.2 306.4,61.9 308.5,61.7 310.6,61.5 312.8,61.2 314.9,60.5 317.0,60.0 319.1,59.3 321.3,59.1 323.4,59.0 325.5,58.7 327.6,58.4 329.8,58.0 331.9,57.7 334.0,57.2 336.1,56.9 338.3,56.8 340.4,56.5 342.5,56.3 344.6,56.1 346.8,55.8 348.9,55.5 351.0,55.1 353.1,54.9 355.3,54.7 357.4,54.5 359.5,54.4 361.7,54.0 363.8,53.7 365.9,53.3 368.0,53.0 370.2,52.7 372.3,52.5 374.4,52.3 376.5,52.1 378.7,51.6 380.8,51.2 382.9,50.9 385.0,50.5 387.2,50.0 389.3,49.8 391.4,49.7 393.5,49.5 395.7,49.2 397.8,49.0 399.9,48.7 402.0,48.4 404.2,48.2 406.3,48.0 408.4,47.7 410.6,47.5 412.7,47.4 414.8,47.1 416.9,46.7 419.1,46.5 421.2,46.2 423.3,46.0 425.4,45.8 427.6,45.6 429.7,45.4 431.8,45.2 433.9,45.0 436.1,44.5 438.2,44.0 440.3,43.7 442.4,43.5 444.6,43.4 446.7,43.3 448.8,43.0 450.9,42.5 453.1,42.4 455.2,42.2 457.3,41.9 459.4,41.7 461.6,41.4 463.7,41.2 465.8,41.0 468.0,40.7 470.1,40.4 472.2,40.0 474.3,39.7 476.5,39.6 478.6,39.5 480.7,39.4 482.8,39.1 485.0,38.9 487.1,38.6 489.2,38.4 491.3,38.1 493.5,37.9 495.6,37.8 497.7,37.5 499.8,37.3 502.0,37.0 504.1,36.7 506.2,36.4 508.3,36.1 510.5,36.0 512.6,35.8 514.7,35.7 516.9,35.5 519.0,35.4 521.1,35.1 523.2,34.8 525.4,34.6 527.5,34.3 529.6,34.2 531.7,34.0 533.9,33.7 536.0,33.5 538.1,33.3 540.2,33.1 542.4,32.9 544.5,32.6 546.6,32.4 548.7,32.1 550.9,32.0 553.0,31.9 555.1,31.7 557.2,31.5 559.4,31.3 561.5,31.1 563.6,31.0 565.7,30.8 567.9,30.3 570.0,30.0" />
  
  <!-- Punto finale luminoso -->
  <circle cx="570.0" cy="30.0" r="4" fill="#ffffff" stroke="#0366d6" stroke-width="2.5" />
</svg>