<svg width="600" height="150" viewBox="0 0 600 150" xmlns="http://www.w3.org/2000/svg">
  <defs>
    <filter id="shadow2" x="-2%" y="-2%" width="104%" height="108%">
      <feDropShadow dx="0" dy="2" stdDeviation="3" flood-opacity="0.1" />
    </filter>
    <linearGradient id="fillGrad" x1="0" y1="0" x2="0" y2="1">
      <stop offset="0%" stop-color="#0366d6" stop-opacity="0.3"/>
      <stop offset="100%" stop-color="#0366d6" stop-opacity="0.02"/>
    </linearGradient>
  </defs>
  <rect width="600" height="150" rx="12" fill="#ffffff" filter="url(#shadow2)" stroke="#e1e4e8" stroke-width="1"/>
  <text x="20" y="24" fill="#2b3137" font-family="-apple-system,BlinkMacSystemFont,'Segoe UI',Helvetica,Arial,sans-serif" font-size="14" font-weight="600">📈 Download Growth (Actual: 79.1k)</text>
  
  <!-- Area sotto la linea -->
  <polygon fill="url(#fillGrad)" points="30.0,120.0,120 30.0,120.0 32.2,119.2 34.4,118.3 36.6,117.5 38.7,117.3 40.9,116.9 43.1,115.9 45.3,115.3 47.5,114.8 49.7,113.9 51.9,113.4 54.0,112.9 56.2,112.6 58.4,112.1 60.6,111.5 62.8,110.8 65.0,110.2 67.2,109.8 69.4,109.6 71.5,109.1 73.7,108.6 75.9,108.2 78.1,107.9 80.3,107.5 82.5,105.9 84.7,105.5 86.8,104.9 89.0,104.3 91.2,103.7 93.4,103.2 95.6,102.9 97.8,102.6 100.0,102.2 102.1,101.4 104.3,100.8 106.5,100.3 108.7,99.8 110.9,99.7 113.1,99.5 115.3,99.3 117.4,98.8 119.6,98.5 121.8,98.2 124.0,97.7 126.2,96.8 128.4,96.6 130.6,96.5 132.8,96.2 134.9,95.5 137.1,95.0 139.3,94.4 141.5,93.9 143.7,93.3 145.9,93.1 148.1,92.8 150.2,92.1 152.4,91.5 154.6,91.0 156.8,90.8 159.0,90.5 161.2,90.2 163.4,89.5 165.5,88.9 167.7,88.3 169.9,87.7 172.1,87.4 174.3,87.2 176.5,87.0 178.7,86.5 180.9,86.2 183.0,85.9 185.2,85.7 187.4,85.5 189.6,85.2 191.8,84.9 194.0,84.8 196.2,84.6 198.3,84.0 200.5,83.6 202.7,83.5 204.9,83.3 207.1,83.2 209.3,83.2 211.5,93.7 213.6,92.7 215.8,91.7 218.0,90.8 220.2,87.9 222.4,85.9 224.6,83.7 226.8,82.9 228.9,82.0 231.1,80.6 233.3,78.9 235.5,77.8 237.7,77.3 239.9,76.9 242.1,75.7 244.3,74.9 246.4,74.4 248.6,73.7 250.8,73.4 253.0,73.3 255.2,72.7 257.4,71.7 259.6,71.0 261.7,70.3 263.9,69.5 266.1,69.1 268.3,68.8 270.5,68.2 272.7,67.5 274.9,67.0 277.0,66.5 279.2,66.3 281.4,66.1 283.6,65.8 285.8,65.3 288.0,64.9 290.2,64.5 292.3,64.2 294.5,63.9 296.7,63.6 298.9,63.3 301.1,63.1 303.3,62.8 305.5,62.3 307.7,61.9 309.8,61.4 312.0,61.1 314.2,60.8 316.4,60.6 318.6,60.4 320.8,60.1 323.0,59.3 325.1,58.8 327.3,58.2 329.5,57.9 331.7,57.9 333.9,57.6 336.1,57.2 338.3,56.8 340.4,56.5 342.6,56.0 344.8,55.7 347.0,55.6 349.2,55.3 351.4,55.1 353.6,54.9 355.7,54.6 357.9,54.3 360.1,53.9 362.3,53.7 364.5,53.5 366.7,53.3 368.9,53.1 371.1,52.8 373.2,52.4 375.4,52.1 377.6,51.7 379.8,51.4 382.0,51.2 384.2,51.0 386.4,50.8 388.5,50.3 390.7,49.9 392.9,49.6 395.1,49.2 397.3,48.7 399.5,48.5 401.7,48.3 403.8,48.2 406.0,47.9 408.2,47.6 410.4,47.3 412.6,47.1 414.8,46.8 417.0,46.6 419.1,46.3 421.3,46.1 423.5,46.0 425.7,45.7 427.9,45.3 430.1,45.1 432.3,44.8 434.5,44.6 436.6,44.4 438.8,44.2 441.0,44.0 443.2,43.8 445.4,43.5 447.6,43.1 449.8,42.6 451.9,42.3 454.1,42.0 456.3,41.9 458.5,41.8 460.7,41.5 462.9,41.1 465.1,40.9 467.2,40.7 469.4,40.4 471.6,40.2 473.8,39.9 476.0,39.7 478.2,39.5 480.4,39.1 482.6,38.9 484.7,38.5 486.9,38.2 489.1,38.1 491.3,38.0 493.5,37.9 495.7,37.6 497.9,37.4 500.0,37.1 502.2,36.8 504.4,36.6 506.6,36.4 508.8,36.2 511.0,36.0 513.2,35.8 515.3,35.4 517.5,35.1 519.7,34.8 521.9,34.6 524.1,34.4 526.3,34.2 528.5,34.1 530.6,33.9 532.8,33.8 535.0,33.5 537.2,33.2 539.4,32.9 541.6,32.7 543.8,32.5 546.0,32.3 548.1,32.1 550.3,31.8 552.5,31.6 554.7,31.4 556.9,31.2 559.1,30.9 561.3,30.7 563.4,30.5 565.6,30.3 567.8,30.2 570.0,30.0 570.0,30.0,120" />
  
  <!-- Linea principale -->
  <polyline fill="none" stroke="#0366d6" stroke-width="2.5" stroke-linecap="round" stroke-linejoin="round" points="30.0,120.0 32.2,119.2 34.4,118.3 36.6,117.5 38.7,117.3 40.9,116.9 43.1,115.9 45.3,115.3 47.5,114.8 49.7,113.9 51.9,113.4 54.0,112.9 56.2,112.6 58.4,112.1 60.6,111.5 62.8,110.8 65.0,110.2 67.2,109.8 69.4,109.6 71.5,109.1 73.7,108.6 75.9,108.2 78.1,107.9 80.3,107.5 82.5,105.9 84.7,105.5 86.8,104.9 89.0,104.3 91.2,103.7 93.4,103.2 95.6,102.9 97.8,102.6 100.0,102.2 102.1,101.4 104.3,100.8 106.5,100.3 108.7,99.8 110.9,99.7 113.1,99.5 115.3,99.3 117.4,98.8 119.6,98.5 121.8,98.2 124.0,97.7 126.2,96.8 128.4,96.6 130.6,96.5 132.8,96.2 134.9,95.5 137.1,95.0 139.3,94.4 141.5,93.9 143.7,93.3 145.9,93.1 148.1,92.8 150.2,92.1 152.4,91.5 154.6,91.0 156.8,90.8 159.0,90.5 161.2,90.2 163.4,89.5 165.5,88.9 167.7,88.3 169.9,87.7 172.1,87.4 174.3,87.2 176.5,87.0 178.7,86.5 180.9,86.2 183.0,85.9 185.2,85.7 187.4,85.5 189.6,85.2 191.8,84.9 194.0,84.8 196.2,84.6 198.3,84.0 200.5,83.6 202.7,83.5 204.9,83.3 207.1,83.2 209.3,83.2 211.5,93.7 213.6,92.7 215.8,91.7 218.0,90.8 220.2,87.9 222.4,85.9 224.6,83.7 226.8,82.9 228.9,82.0 231.1,80.6 233.3,78.9 235.5,77.8 237.7,77.3 239.9,76.9 242.1,75.7 244.3,74.9 246.4,74.4 248.6,73.7 250.8,73.4 253.0,73.3 255.2,72.7 257.4,71.7 259.6,71.0 261.7,70.3 263.9,69.5 266.1,69.1 268.3,68.8 270.5,68.2 272.7,67.5 274.9,67.0 277.0,66.5 279.2,66.3 281.4,66.1 283.6,65.8 285.8,65.3 288.0,64.9 290.2,64.5 292.3,64.2 294.5,63.9 296.7,63.6 298.9,63.3 301.1,63.1 303.3,62.8 305.5,62.3 307.7,61.9 309.8,61.4 312.0,61.1 314.2,60.8 316.4,60.6 318.6,60.4 320.8,60.1 323.0,59.3 325.1,58.8 327.3,58.2 329.5,57.9 331.7,57.9 333.9,57.6 336.1,57.2 338.3,56.8 340.4,56.5 342.6,56.0 344.8,55.7 347.0,55.6 349.2,55.3 351.4,55.1 353.6,54.9 355.7,54.6 357.9,54.3 360.1,53.9 362.3,53.7 364.5,53.5 366.7,53.3 368.9,53.1 371.1,52.8 373.2,52.4 375.4,52.1 377.6,51.7 379.8,51.4 382.0,51.2 384.2,51.0 386.4,50.8 388.5,50.3 390.7,49.9 392.9,49.6 395.1,49.2 397.3,48.7 399.5,48.5 401.7,48.3 403.8,48.2 406.0,47.9 408.2,47.6 410.4,47.3 412.6,47.1 414.8,46.8 417.0,46.6 419.1,46.3 421.3,46.1 423.5,46.0 425.7,45.7 427.9,45.3 430.1,45.1 432.3,44.8 434.5,44.6 436.6,44.4 438.8,44.2 441.0,44.0 443.2,43.8 445.4,43.5 447.6,43.1 449.8,42.6 451.9,42.3 454.1,42.0 456.3,41.9 458.5,41.8 460.7,41.5 462.9,41.1 465.1,40.9 467.2,40.7 469.4,40.4 471.6,40.2 473.8,39.9 476.0,39.7 478.2,39.5 480.4,39.1 482.6,38.9 484.7,38.5 486.9,38.2 489.1,38.1 491.3,38.0 493.5,37.9 495.7,37.6 497.9,37.4 500.0,37.1 502.2,36.8 504.4,36.6 506.6,36.4 508.8,36.2 511.0,36.0 513.2,35.8 515.3,35.4 517.5,35.1 519.7,34.8 521.9,34.6 524.1,34.4 526.3,34.2 528.5,34.1 530.6,33.9 532.8,33.8 535.0,33.5 537.2,33.2 539.4,32.9 541.6,32.7 543.8,32.5 546.0,32.3 548.1,32.1 550.3,31.8 552.5,31.6 554.7,31.4 556.9,31.2 559.1,30.9 561.3,30.7 563.4,30.5 565.6,30.3 567.8,30.2 570.0,30.0" />
  
  <!-- Punto finale luminoso -->
  <circle cx="570.0" cy="30.0" r="4" fill="#ffffff" stroke="#0366d6" stroke-width="2.5" />
</svg>