<svg width="600" height="150" viewBox="0 0 600 150" xmlns="http://www.w3.org/2000/svg">
  <defs>
    <filter id="shadow2" x="-2%" y="-2%" width="104%" height="108%">
      <feDropShadow dx="0" dy="2" stdDeviation="3" flood-opacity="0.1" />
    </filter>
    <linearGradient id="fillGrad" x1="0" y1="0" x2="0" y2="1">
      <stop offset="0%" stop-color="#0366d6" stop-opacity="0.3"/>
      <stop offset="100%" stop-color="#0366d6" stop-opacity="0.02"/>
    </linearGradient>
  </defs>
  <rect width="600" height="150" rx="12" fill="#ffffff" filter="url(#shadow2)" stroke="#e1e4e8" stroke-width="1"/>
  <text x="20" y="24" fill="#2b3137" font-family="-apple-system,BlinkMacSystemFont,'Segoe UI',Helvetica,Arial,sans-serif" font-size="14" font-weight="600">📈 Download Growth (Actual: 79.6k)</text>
  
  <!-- Area sotto la linea -->
  <polygon fill="url(#fillGrad)" points="30.0,120.0,120 30.0,120.0 32.1,119.2 34.1,118.3 36.2,117.6 38.2,117.4 40.3,117.0 42.4,116.1 44.4,115.5 46.5,115.1 48.5,114.1 50.6,113.6 52.7,113.2 54.7,112.9 56.8,112.5 58.9,111.8 60.9,111.1 63.0,110.6 65.0,110.3 67.1,110.0 69.2,109.6 71.2,109.1 73.3,108.6 75.3,108.4 77.4,108.0 79.5,106.5 81.5,106.1 83.6,105.5 85.6,104.9 87.7,104.4 89.8,103.9 91.8,103.6 93.9,103.3 96.0,102.9 98.0,102.2 100.1,101.5 102.1,101.1 104.2,100.6 106.3,100.5 108.3,100.4 110.4,100.1 112.4,99.6 114.5,99.3 116.6,99.1 118.6,98.6 120.7,97.8 122.7,97.6 124.8,97.4 126.9,97.1 128.9,96.5 131.0,96.1 133.1,95.4 135.1,94.9 137.2,94.3 139.2,94.2 141.3,93.9 143.4,93.3 145.4,92.7 147.5,92.2 149.5,92.0 151.6,91.7 153.7,91.4 155.7,90.8 157.8,90.1 159.8,89.6 161.9,89.0 164.0,88.7 166.0,88.6 168.1,88.3 170.2,87.9 172.2,87.6 174.3,87.3 176.3,87.1 178.4,86.9 180.5,86.6 182.5,86.4 184.6,86.2 186.6,86.1 188.7,85.4 190.8,85.1 192.8,85.0 194.9,84.8 196.9,84.7 199.0,84.7 201.1,94.8 203.1,93.8 205.2,92.9 207.3,91.9 209.3,89.2 211.4,87.3 213.4,85.2 215.5,84.4 217.6,83.6 219.6,82.2 221.7,80.6 223.7,79.5 225.8,79.1 227.9,78.6 229.9,77.5 232.0,76.7 234.0,76.2 236.1,75.6 238.2,75.3 240.2,75.2 242.3,74.6 244.4,73.7 246.4,73.0 248.5,72.3 250.5,71.5 252.6,71.2 254.7,70.9 256.7,70.3 258.8,69.7 260.8,69.1 262.9,68.7 265.0,68.5 267.0,68.3 269.1,68.0 271.1,67.5 273.2,67.1 275.3,66.8 277.3,66.5 279.4,66.2 281.5,65.9 283.5,65.6 285.6,65.4 287.6,65.1 289.7,64.6 291.8,64.2 293.8,63.8 295.9,63.5 297.9,63.2 300.0,63.0 302.1,62.8 304.1,62.5 306.2,61.8 308.2,61.3 310.3,60.7 312.4,60.5 314.4,60.4 316.5,60.1 318.5,59.8 320.6,59.4 322.7,59.1 324.7,58.6 326.8,58.3 328.9,58.2 330.9,57.9 333.0,57.7 335.0,57.5 337.1,57.2 339.2,57.0 341.2,56.6 343.3,56.4 345.3,56.2 347.4,56.0 349.5,55.9 351.5,55.5 353.6,55.2 355.6,54.8 357.7,54.5 359.8,54.2 361.8,54.0 363.9,53.8 366.0,53.6 368.0,53.1 370.1,52.7 372.1,52.4 374.2,52.1 376.3,51.6 378.3,51.4 380.4,51.2 382.4,51.1 384.5,50.8 386.6,50.6 388.6,50.3 390.7,50.1 392.7,49.8 394.8,49.6 396.9,49.3 398.9,49.1 401.0,49.0 403.1,48.7 405.1,48.3 407.2,48.2 409.2,47.8 411.3,47.7 413.4,47.5 415.4,47.2 417.5,47.1 419.5,46.9 421.6,46.6 423.7,46.2 425.7,45.7 427.8,45.4 429.8,45.2 431.9,45.1 434.0,45.0 436.0,44.7 438.1,44.3 440.2,44.1 442.2,43.9 444.3,43.6 446.3,43.4 448.4,43.1 450.5,43.0 452.5,42.8 454.6,42.4 456.6,42.2 458.7,41.8 460.8,41.5 462.8,41.4 464.9,41.3 466.9,41.2 469.0,40.9 471.1,40.7 473.1,40.5 475.2,40.2 477.3,39.9 479.3,39.8 481.4,39.6 483.4,39.4 485.5,39.2 487.6,38.9 489.6,38.5 491.7,38.3 493.7,38.0 495.8,37.9 497.9,37.7 499.9,37.6 502.0,37.4 504.0,37.3 506.1,37.1 508.2,36.7 510.2,36.5 512.3,36.2 514.4,36.1 516.4,35.9 518.5,35.7 520.5,35.4 522.6,35.2 524.7,35.0 526.7,34.8 528.8,34.6 530.8,34.3 532.9,34.1 535.0,34.0 537.0,33.8 539.1,33.7 541.1,33.5 543.2,33.3 545.3,33.1 547.3,33.0 549.4,32.8 551.5,32.3 553.5,32.0 555.6,38.6 557.6,37.3 559.7,34.8 561.8,33.9 563.8,32.7 565.9,31.3 567.9,30.5 570.0,30.0 570.0,30.0,120" />
  
  <!-- Linea principale -->
  <polyline fill="none" stroke="#0366d6" stroke-width="2.5" stroke-linecap="round" stroke-linejoin="round" points="30.0,120.0 32.1,119.2 34.1,118.3 36.2,117.6 38.2,117.4 40.3,117.0 42.4,116.1 44.4,115.5 46.5,115.1 48.5,114.1 50.6,113.6 52.7,113.2 54.7,112.9 56.8,112.5 58.9,111.8 60.9,111.1 63.0,110.6 65.0,110.3 67.1,110.0 69.2,109.6 71.2,109.1 73.3,108.6 75.3,108.4 77.4,108.0 79.5,106.5 81.5,106.1 83.6,105.5 85.6,104.9 87.7,104.4 89.8,103.9 91.8,103.6 93.9,103.3 96.0,102.9 98.0,102.2 100.1,101.5 102.1,101.1 104.2,100.6 106.3,100.5 108.3,100.4 110.4,100.1 112.4,99.6 114.5,99.3 116.6,99.1 118.6,98.6 120.7,97.8 122.7,97.6 124.8,97.4 126.9,97.1 128.9,96.5 131.0,96.1 133.1,95.4 135.1,94.9 137.2,94.3 139.2,94.2 141.3,93.9 143.4,93.3 145.4,92.7 147.5,92.2 149.5,92.0 151.6,91.7 153.7,91.4 155.7,90.8 157.8,90.1 159.8,89.6 161.9,89.0 164.0,88.7 166.0,88.6 168.1,88.3 170.2,87.9 172.2,87.6 174.3,87.3 176.3,87.1 178.4,86.9 180.5,86.6 182.5,86.4 184.6,86.2 186.6,86.1 188.7,85.4 190.8,85.1 192.8,85.0 194.9,84.8 196.9,84.7 199.0,84.7 201.1,94.8 203.1,93.8 205.2,92.9 207.3,91.9 209.3,89.2 211.4,87.3 213.4,85.2 215.5,84.4 217.6,83.6 219.6,82.2 221.7,80.6 223.7,79.5 225.8,79.1 227.9,78.6 229.9,77.5 232.0,76.7 234.0,76.2 236.1,75.6 238.2,75.3 240.2,75.2 242.3,74.6 244.4,73.7 246.4,73.0 248.5,72.3 250.5,71.5 252.6,71.2 254.7,70.9 256.7,70.3 258.8,69.7 260.8,69.1 262.9,68.7 265.0,68.5 267.0,68.3 269.1,68.0 271.1,67.5 273.2,67.1 275.3,66.8 277.3,66.5 279.4,66.2 281.5,65.9 283.5,65.6 285.6,65.4 287.6,65.1 289.7,64.6 291.8,64.2 293.8,63.8 295.9,63.5 297.9,63.2 300.0,63.0 302.1,62.8 304.1,62.5 306.2,61.8 308.2,61.3 310.3,60.7 312.4,60.5 314.4,60.4 316.5,60.1 318.5,59.8 320.6,59.4 322.7,59.1 324.7,58.6 326.8,58.3 328.9,58.2 330.9,57.9 333.0,57.7 335.0,57.5 337.1,57.2 339.2,57.0 341.2,56.6 343.3,56.4 345.3,56.2 347.4,56.0 349.5,55.9 351.5,55.5 353.6,55.2 355.6,54.8 357.7,54.5 359.8,54.2 361.8,54.0 363.9,53.8 366.0,53.6 368.0,53.1 370.1,52.7 372.1,52.4 374.2,52.1 376.3,51.6 378.3,51.4 380.4,51.2 382.4,51.1 384.5,50.8 386.6,50.6 388.6,50.3 390.7,50.1 392.7,49.8 394.8,49.6 396.9,49.3 398.9,49.1 401.0,49.0 403.1,48.7 405.1,48.3 407.2,48.2 409.2,47.8 411.3,47.7 413.4,47.5 415.4,47.2 417.5,47.1 419.5,46.9 421.6,46.6 423.7,46.2 425.7,45.7 427.8,45.4 429.8,45.2 431.9,45.1 434.0,45.0 436.0,44.7 438.1,44.3 440.2,44.1 442.2,43.9 444.3,43.6 446.3,43.4 448.4,43.1 450.5,43.0 452.5,42.8 454.6,42.4 456.6,42.2 458.7,41.8 460.8,41.5 462.8,41.4 464.9,41.3 466.9,41.2 469.0,40.9 471.1,40.7 473.1,40.5 475.2,40.2 477.3,39.9 479.3,39.8 481.4,39.6 483.4,39.4 485.5,39.2 487.6,38.9 489.6,38.5 491.7,38.3 493.7,38.0 495.8,37.9 497.9,37.7 499.9,37.6 502.0,37.4 504.0,37.3 506.1,37.1 508.2,36.7 510.2,36.5 512.3,36.2 514.4,36.1 516.4,35.9 518.5,35.7 520.5,35.4 522.6,35.2 524.7,35.0 526.7,34.8 528.8,34.6 530.8,34.3 532.9,34.1 535.0,34.0 537.0,33.8 539.1,33.7 541.1,33.5 543.2,33.3 545.3,33.1 547.3,33.0 549.4,32.8 551.5,32.3 553.5,32.0 555.6,38.6 557.6,37.3 559.7,34.8 561.8,33.9 563.8,32.7 565.9,31.3 567.9,30.5 570.0,30.0" />
  
  <!-- Punto finale luminoso -->
  <circle cx="570.0" cy="30.0" r="4" fill="#ffffff" stroke="#0366d6" stroke-width="2.5" />
</svg>