<svg width="600" height="150" viewBox="0 0 600 150" xmlns="http://www.w3.org/2000/svg">
  <defs>
    <filter id="shadow2" x="-2%" y="-2%" width="104%" height="108%">
      <feDropShadow dx="0" dy="2" stdDeviation="3" flood-opacity="0.1" />
    </filter>
    <linearGradient id="fillGrad" x1="0" y1="0" x2="0" y2="1">
      <stop offset="0%" stop-color="#0366d6" stop-opacity="0.3"/>
      <stop offset="100%" stop-color="#0366d6" stop-opacity="0.02"/>
    </linearGradient>
  </defs>
  <rect width="600" height="150" rx="12" fill="#ffffff" filter="url(#shadow2)" stroke="#e1e4e8" stroke-width="1"/>
  <text x="20" y="24" fill="#2b3137" font-family="-apple-system,BlinkMacSystemFont,'Segoe UI',Helvetica,Arial,sans-serif" font-size="14" font-weight="600">📈 Download Growth (Actual: 79.2k)</text>
  
  <!-- Area sotto la linea -->
  <polygon fill="url(#fillGrad)" points="30.0,120.0,120 30.0,120.0 32.2,119.2 34.3,118.3 36.5,117.5 38.6,117.3 40.8,116.9 42.9,115.9 45.1,115.3 47.2,114.9 49.4,113.9 51.5,113.4 53.7,112.9 55.8,112.6 58.0,112.2 60.1,111.5 62.3,110.8 64.4,110.3 66.6,109.9 68.7,109.7 70.9,109.2 73.0,108.7 75.2,108.3 77.3,108.0 79.5,107.6 81.6,106.1 83.8,105.6 85.9,105.0 88.1,104.4 90.2,103.8 92.4,103.3 94.5,103.0 96.7,102.7 98.8,102.3 101.0,101.5 103.1,100.9 105.3,100.5 107.5,99.9 109.6,99.8 111.8,99.7 113.9,99.4 116.1,98.9 118.2,98.6 120.4,98.4 122.5,97.8 124.7,97.0 126.8,96.8 129.0,96.7 131.1,96.3 133.3,95.7 135.4,95.2 137.6,94.5 139.7,94.1 141.9,93.4 144.0,93.3 146.2,93.0 148.3,92.3 150.5,91.7 152.6,91.2 154.8,91.0 156.9,90.7 159.1,90.4 161.2,89.7 163.4,89.1 165.5,88.5 167.7,88.0 169.8,87.7 172.0,87.5 174.1,87.2 176.3,86.8 178.4,86.5 180.6,86.2 182.7,86.0 184.9,85.7 187.1,85.4 189.2,85.2 191.4,85.0 193.5,84.9 195.7,84.2 197.8,83.9 200.0,83.8 202.1,83.6 204.3,83.4 206.4,83.4 208.6,93.9 210.7,92.9 212.9,91.9 215.0,91.0 217.2,88.1 219.3,86.1 221.5,84.0 223.6,83.2 225.8,82.3 227.9,80.8 230.1,79.2 232.2,78.1 234.4,77.6 236.5,77.2 238.7,76.1 240.8,75.2 243.0,74.7 245.1,74.0 247.3,73.7 249.4,73.6 251.6,73.0 253.7,72.0 255.9,71.4 258.0,70.6 260.2,69.9 262.4,69.5 264.5,69.2 266.7,68.5 268.8,67.9 271.0,67.3 273.1,66.9 275.3,66.7 277.4,66.5 279.6,66.2 281.7,65.7 283.9,65.3 286.0,64.9 288.2,64.6 290.3,64.3 292.5,64.0 294.6,63.7 296.8,63.5 298.9,63.2 301.1,62.7 303.2,62.3 305.4,61.8 307.5,61.5 309.7,61.2 311.8,61.0 314.0,60.8 316.1,60.5 318.3,59.8 320.4,59.3 322.6,58.6 324.7,58.4 326.9,58.3 329.0,58.0 331.2,57.7 333.3,57.3 335.5,56.9 337.6,56.5 339.8,56.2 342.0,56.0 344.1,55.8 346.3,55.6 348.4,55.4 350.6,55.1 352.7,54.8 354.9,54.3 357.0,54.1 359.2,54.0 361.3,53.8 363.5,53.6 365.6,53.2 367.8,52.9 369.9,52.6 372.1,52.2 374.2,51.9 376.4,51.7 378.5,51.5 380.7,51.3 382.8,50.8 385.0,50.4 387.1,50.1 389.3,49.7 391.4,49.2 393.6,49.0 395.7,48.9 397.9,48.7 400.0,48.4 402.2,48.2 404.3,47.8 406.5,47.6 408.6,47.3 410.8,47.1 412.9,46.9 415.1,46.7 417.3,46.6 419.4,46.3 421.6,45.8 423.7,45.7 425.9,45.3 428.0,45.2 430.2,45.0 432.3,44.7 434.5,44.5 436.6,44.3 438.8,44.1 440.9,43.6 443.1,43.1 445.2,42.8 447.4,42.6 449.5,42.5 451.7,42.4 453.8,42.1 456.0,41.6 458.1,41.5 460.3,41.3 462.4,41.0 464.6,40.8 466.7,40.5 468.9,40.3 471.0,40.1 473.2,39.7 475.3,39.5 477.5,39.1 479.6,38.8 481.8,38.6 483.9,38.5 486.1,38.4 488.2,38.2 490.4,38.0 492.5,37.7 494.7,37.4 496.9,37.2 499.0,37.0 501.2,36.8 503.3,36.6 505.5,36.4 507.6,36.0 509.8,35.7 511.9,35.4 514.1,35.2 516.2,35.0 518.4,34.8 520.5,34.7 522.7,34.6 524.8,34.4 527.0,34.2 529.1,33.8 531.3,33.6 533.4,33.3 535.6,33.2 537.7,33.0 539.9,32.7 542.0,32.5 544.2,32.3 546.3,32.1 548.5,31.9 550.6,31.6 552.8,31.4 554.9,31.1 557.1,31.0 559.2,30.8 561.4,30.7 563.5,30.5 565.7,30.3 567.8,30.1 570.0,30.0 570.0,30.0,120" />
  
  <!-- Linea principale -->
  <polyline fill="none" stroke="#0366d6" stroke-width="2.5" stroke-linecap="round" stroke-linejoin="round" points="30.0,120.0 32.2,119.2 34.3,118.3 36.5,117.5 38.6,117.3 40.8,116.9 42.9,115.9 45.1,115.3 47.2,114.9 49.4,113.9 51.5,113.4 53.7,112.9 55.8,112.6 58.0,112.2 60.1,111.5 62.3,110.8 64.4,110.3 66.6,109.9 68.7,109.7 70.9,109.2 73.0,108.7 75.2,108.3 77.3,108.0 79.5,107.6 81.6,106.1 83.8,105.6 85.9,105.0 88.1,104.4 90.2,103.8 92.4,103.3 94.5,103.0 96.7,102.7 98.8,102.3 101.0,101.5 103.1,100.9 105.3,100.5 107.5,99.9 109.6,99.8 111.8,99.7 113.9,99.4 116.1,98.9 118.2,98.6 120.4,98.4 122.5,97.8 124.7,97.0 126.8,96.8 129.0,96.7 131.1,96.3 133.3,95.7 135.4,95.2 137.6,94.5 139.7,94.1 141.9,93.4 144.0,93.3 146.2,93.0 148.3,92.3 150.5,91.7 152.6,91.2 154.8,91.0 156.9,90.7 159.1,90.4 161.2,89.7 163.4,89.1 165.5,88.5 167.7,88.0 169.8,87.7 172.0,87.5 174.1,87.2 176.3,86.8 178.4,86.5 180.6,86.2 182.7,86.0 184.9,85.7 187.1,85.4 189.2,85.2 191.4,85.0 193.5,84.9 195.7,84.2 197.8,83.9 200.0,83.8 202.1,83.6 204.3,83.4 206.4,83.4 208.6,93.9 210.7,92.9 212.9,91.9 215.0,91.0 217.2,88.1 219.3,86.1 221.5,84.0 223.6,83.2 225.8,82.3 227.9,80.8 230.1,79.2 232.2,78.1 234.4,77.6 236.5,77.2 238.7,76.1 240.8,75.2 243.0,74.7 245.1,74.0 247.3,73.7 249.4,73.6 251.6,73.0 253.7,72.0 255.9,71.4 258.0,70.6 260.2,69.9 262.4,69.5 264.5,69.2 266.7,68.5 268.8,67.9 271.0,67.3 273.1,66.9 275.3,66.7 277.4,66.5 279.6,66.2 281.7,65.7 283.9,65.3 286.0,64.9 288.2,64.6 290.3,64.3 292.5,64.0 294.6,63.7 296.8,63.5 298.9,63.2 301.1,62.7 303.2,62.3 305.4,61.8 307.5,61.5 309.7,61.2 311.8,61.0 314.0,60.8 316.1,60.5 318.3,59.8 320.4,59.3 322.6,58.6 324.7,58.4 326.9,58.3 329.0,58.0 331.2,57.7 333.3,57.3 335.5,56.9 337.6,56.5 339.8,56.2 342.0,56.0 344.1,55.8 346.3,55.6 348.4,55.4 350.6,55.1 352.7,54.8 354.9,54.3 357.0,54.1 359.2,54.0 361.3,53.8 363.5,53.6 365.6,53.2 367.8,52.9 369.9,52.6 372.1,52.2 374.2,51.9 376.4,51.7 378.5,51.5 380.7,51.3 382.8,50.8 385.0,50.4 387.1,50.1 389.3,49.7 391.4,49.2 393.6,49.0 395.7,48.9 397.9,48.7 400.0,48.4 402.2,48.2 404.3,47.8 406.5,47.6 408.6,47.3 410.8,47.1 412.9,46.9 415.1,46.7 417.3,46.6 419.4,46.3 421.6,45.8 423.7,45.7 425.9,45.3 428.0,45.2 430.2,45.0 432.3,44.7 434.5,44.5 436.6,44.3 438.8,44.1 440.9,43.6 443.1,43.1 445.2,42.8 447.4,42.6 449.5,42.5 451.7,42.4 453.8,42.1 456.0,41.6 458.1,41.5 460.3,41.3 462.4,41.0 464.6,40.8 466.7,40.5 468.9,40.3 471.0,40.1 473.2,39.7 475.3,39.5 477.5,39.1 479.6,38.8 481.8,38.6 483.9,38.5 486.1,38.4 488.2,38.2 490.4,38.0 492.5,37.7 494.7,37.4 496.9,37.2 499.0,37.0 501.2,36.8 503.3,36.6 505.5,36.4 507.6,36.0 509.8,35.7 511.9,35.4 514.1,35.2 516.2,35.0 518.4,34.8 520.5,34.7 522.7,34.6 524.8,34.4 527.0,34.2 529.1,33.8 531.3,33.6 533.4,33.3 535.6,33.2 537.7,33.0 539.9,32.7 542.0,32.5 544.2,32.3 546.3,32.1 548.5,31.9 550.6,31.6 552.8,31.4 554.9,31.1 557.1,31.0 559.2,30.8 561.4,30.7 563.5,30.5 565.7,30.3 567.8,30.1 570.0,30.0" />
  
  <!-- Punto finale luminoso -->
  <circle cx="570.0" cy="30.0" r="4" fill="#ffffff" stroke="#0366d6" stroke-width="2.5" />
</svg>