<svg width="600" height="150" viewBox="0 0 600 150" xmlns="http://www.w3.org/2000/svg">
  <defs>
    <filter id="shadow2" x="-2%" y="-2%" width="104%" height="108%">
      <feDropShadow dx="0" dy="2" stdDeviation="3" flood-opacity="0.1" />
    </filter>
    <linearGradient id="fillGrad" x1="0" y1="0" x2="0" y2="1">
      <stop offset="0%" stop-color="#0366d6" stop-opacity="0.3"/>
      <stop offset="100%" stop-color="#0366d6" stop-opacity="0.02"/>
    </linearGradient>
  </defs>
  <rect width="600" height="150" rx="12" fill="#ffffff" filter="url(#shadow2)" stroke="#e1e4e8" stroke-width="1"/>
  <text x="20" y="24" fill="#2b3137" font-family="-apple-system,BlinkMacSystemFont,'Segoe UI',Helvetica,Arial,sans-serif" font-size="14" font-weight="600">📈 Download Growth (Actual: 71.9k)</text>
  
  <!-- Area sotto la linea -->
  <polygon fill="url(#fillGrad)" points="30.0,120.0,120 30.0,120.0 36.3,118.0 42.6,115.8 48.8,113.9 55.1,113.4 61.4,112.4 67.7,110.0 74.0,108.5 80.2,107.4 86.5,105.0 92.8,103.8 99.1,102.6 105.3,101.9 111.6,100.8 117.9,99.2 124.2,97.4 130.5,96.1 136.7,95.2 143.0,94.6 149.3,93.5 155.6,92.2 161.9,91.1 168.1,90.5 174.4,89.5 180.7,85.7 187.0,84.5 193.3,83.0 199.5,81.5 205.8,80.2 212.1,79.0 218.4,78.1 224.7,77.5 230.9,76.4 237.2,74.6 243.5,73.0 249.8,71.9 256.0,70.6 262.3,70.3 268.6,70.0 274.9,69.3 281.2,68.1 287.4,67.4 293.7,66.8 300.0,65.5 306.3,63.4 312.6,62.9 318.8,62.5 325.1,61.7 331.4,60.1 337.7,59.0 344.0,57.3 350.2,56.1 356.5,54.6 362.8,54.3 369.1,53.4 375.3,51.9 381.6,50.4 387.9,49.2 394.2,48.7 400.5,47.9 406.7,47.2 413.0,45.5 419.3,43.9 425.6,42.5 431.9,41.1 438.1,40.4 444.4,40.0 450.7,39.3 457.0,38.2 463.3,37.4 469.5,36.8 475.8,36.2 482.1,35.7 488.4,34.8 494.7,34.3 500.9,33.9 507.2,33.5 513.5,32.0 519.8,31.1 526.0,30.8 532.3,30.3 538.6,30.0 544.9,30.0 551.2,55.7 557.4,53.2 563.7,50.9 570.0,48.5 570.0,48.5,120" />
  
  <!-- Linea principale -->
  <polyline fill="none" stroke="#0366d6" stroke-width="2.5" stroke-linecap="round" stroke-linejoin="round" points="30.0,120.0 36.3,118.0 42.6,115.8 48.8,113.9 55.1,113.4 61.4,112.4 67.7,110.0 74.0,108.5 80.2,107.4 86.5,105.0 92.8,103.8 99.1,102.6 105.3,101.9 111.6,100.8 117.9,99.2 124.2,97.4 130.5,96.1 136.7,95.2 143.0,94.6 149.3,93.5 155.6,92.2 161.9,91.1 168.1,90.5 174.4,89.5 180.7,85.7 187.0,84.5 193.3,83.0 199.5,81.5 205.8,80.2 212.1,79.0 218.4,78.1 224.7,77.5 230.9,76.4 237.2,74.6 243.5,73.0 249.8,71.9 256.0,70.6 262.3,70.3 268.6,70.0 274.9,69.3 281.2,68.1 287.4,67.4 293.7,66.8 300.0,65.5 306.3,63.4 312.6,62.9 318.8,62.5 325.1,61.7 331.4,60.1 337.7,59.0 344.0,57.3 350.2,56.1 356.5,54.6 362.8,54.3 369.1,53.4 375.3,51.9 381.6,50.4 387.9,49.2 394.2,48.7 400.5,47.9 406.7,47.2 413.0,45.5 419.3,43.9 425.6,42.5 431.9,41.1 438.1,40.4 444.4,40.0 450.7,39.3 457.0,38.2 463.3,37.4 469.5,36.8 475.8,36.2 482.1,35.7 488.4,34.8 494.7,34.3 500.9,33.9 507.2,33.5 513.5,32.0 519.8,31.1 526.0,30.8 532.3,30.3 538.6,30.0 544.9,30.0 551.2,55.7 557.4,53.2 563.7,50.9 570.0,48.5" />
  
  <!-- Punto finale luminoso -->
  <circle cx="570.0" cy="48.5" r="4" fill="#ffffff" stroke="#0366d6" stroke-width="2.5" />
</svg>