<svg width="600" height="150" viewBox="0 0 600 150" xmlns="http://www.w3.org/2000/svg">
  <defs>
    <filter id="shadow2" x="-2%" y="-2%" width="104%" height="108%">
      <feDropShadow dx="0" dy="2" stdDeviation="3" flood-opacity="0.1" />
    </filter>
    <linearGradient id="fillGrad" x1="0" y1="0" x2="0" y2="1">
      <stop offset="0%" stop-color="#0366d6" stop-opacity="0.3"/>
      <stop offset="100%" stop-color="#0366d6" stop-opacity="0.02"/>
    </linearGradient>
  </defs>
  <rect width="600" height="150" rx="12" fill="#ffffff" filter="url(#shadow2)" stroke="#e1e4e8" stroke-width="1"/>
  <text x="20" y="24" fill="#2b3137" font-family="-apple-system,BlinkMacSystemFont,'Segoe UI',Helvetica,Arial,sans-serif" font-size="14" font-weight="600">📈 Download Growth (Actual: 81.5k)</text>
  
  <!-- Area sotto la linea -->
  <polygon fill="url(#fillGrad)" points="30.0,120.0,120 30.0,120.0 31.9,119.3 33.8,118.6 35.7,117.9 37.6,117.7 39.5,117.4 41.4,116.6 43.4,116.1 45.3,115.7 47.2,114.9 49.1,114.5 51.0,114.0 52.9,113.8 54.8,113.4 56.7,112.9 58.6,112.3 60.5,111.8 62.4,111.5 64.3,111.3 66.3,110.9 68.2,110.5 70.1,110.1 72.0,109.9 73.9,109.6 75.8,108.3 77.7,107.9 79.6,107.4 81.5,106.9 83.4,106.4 85.3,106.0 87.2,105.7 89.2,105.5 91.1,105.1 93.0,104.5 94.9,103.9 96.8,103.6 98.7,103.1 100.6,103.0 102.5,102.9 104.4,102.7 106.3,102.3 108.2,102.0 110.1,101.8 112.0,101.4 114.0,100.6 115.9,100.5 117.8,100.4 119.7,100.1 121.6,99.5 123.5,99.2 125.4,98.6 127.3,98.2 129.2,97.7 131.1,97.6 133.0,97.2 134.9,96.7 136.9,96.2 138.8,95.8 140.7,95.6 142.6,95.4 144.5,95.1 146.4,94.5 148.3,94.0 150.2,93.5 152.1,93.0 154.0,92.8 155.9,92.6 157.8,92.4 159.8,92.0 161.7,91.8 163.6,91.5 165.5,91.3 167.4,91.2 169.3,90.9 171.2,90.7 173.1,90.6 175.0,90.4 176.9,89.9 178.8,89.6 180.7,89.5 182.7,89.3 184.6,89.2 186.5,89.2 188.4,98.0 190.3,97.2 192.2,96.4 194.1,95.6 196.0,93.2 197.9,91.5 199.8,89.7 201.7,89.0 203.6,88.3 205.5,87.0 207.5,85.7 209.4,84.7 211.3,84.3 213.2,84.0 215.1,83.0 217.0,82.3 218.9,81.9 220.8,81.3 222.7,81.1 224.6,81.0 226.5,80.5 228.4,79.6 230.4,79.1 232.3,78.5 234.2,77.8 236.1,77.5 238.0,77.3 239.9,76.7 241.8,76.2 243.7,75.7 245.6,75.3 247.5,75.1 249.4,75.0 251.3,74.7 253.3,74.3 255.2,73.9 257.1,73.6 259.0,73.4 260.9,73.1 262.8,72.9 264.7,72.6 266.6,72.4 268.5,72.2 270.4,71.8 272.3,71.4 274.2,71.0 276.1,70.8 278.1,70.5 280.0,70.4 281.9,70.2 283.8,70.0 285.7,69.3 287.6,68.9 289.5,68.4 291.4,68.2 293.3,68.1 295.2,67.9 297.1,67.6 299.0,67.2 301.0,66.9 302.9,66.5 304.8,66.3 306.7,66.2 308.6,66.0 310.5,65.8 312.4,65.6 314.3,65.4 316.2,65.1 318.1,64.8 320.0,64.6 321.9,64.5 323.9,64.3 325.8,64.2 327.7,63.8 329.6,63.6 331.5,63.2 333.4,63.0 335.3,62.7 337.2,62.5 339.1,62.4 341.0,62.2 342.9,61.8 344.8,61.4 346.7,61.2 348.7,60.9 350.6,60.4 352.5,60.3 354.4,60.1 356.3,60.0 358.2,59.8 360.1,59.5 362.0,59.3 363.9,59.1 365.8,58.9 367.7,58.7 369.6,58.5 371.6,58.3 373.5,58.2 375.4,58.0 377.3,57.6 379.2,57.4 381.1,57.2 383.0,57.0 384.9,56.9 386.8,56.6 388.7,56.5 390.6,56.3 392.5,56.1 394.5,55.7 396.4,55.3 398.3,55.1 400.2,54.9 402.1,54.8 404.0,54.7 405.9,54.4 407.8,54.1 409.7,53.9 411.6,53.8 413.5,53.5 415.4,53.3 417.3,53.1 419.3,52.9 421.2,52.8 423.1,52.5 425.0,52.2 426.9,51.9 428.8,51.7 430.7,51.5 432.6,51.5 434.5,51.4 436.4,51.2 438.3,51.0 440.2,50.7 442.2,50.5 444.1,50.3 446.0,50.1 447.9,50.0 449.8,49.8 451.7,49.6 453.6,49.4 455.5,49.1 457.4,48.8 459.3,48.6 461.2,48.5 463.1,48.3 465.1,48.2 467.0,48.1 468.9,48.0 470.8,47.8 472.7,47.5 474.6,47.3 476.5,47.1 478.4,46.9 480.3,46.8 482.2,46.6 484.1,46.3 486.0,46.2 488.0,46.0 489.9,45.8 491.8,45.6 493.7,45.4 495.6,45.2 497.5,45.1 499.4,45.0 501.3,44.8 503.2,44.7 505.1,44.5 507.0,44.3 508.9,44.3 510.8,44.1 512.8,43.7 514.7,43.4 516.6,49.1 518.5,48.0 520.4,45.8 522.3,45.0 524.2,44.0 526.1,42.8 528.0,42.1 529.9,41.6 531.8,40.8 533.7,39.6 535.7,38.6 537.6,38.3 539.5,37.9 541.4,37.5 543.3,36.8 545.2,36.2 547.1,35.5 549.0,35.2 550.9,34.6 552.8,34.2 554.7,33.8 556.6,33.5 558.6,33.2 560.5,32.9 562.4,32.3 564.3,31.8 566.2,31.3 568.1,30.5 570.0,30.0 570.0,30.0,120" />
  
  <!-- Linea principale -->
  <polyline fill="none" stroke="#0366d6" stroke-width="2.5" stroke-linecap="round" stroke-linejoin="round" points="30.0,120.0 31.9,119.3 33.8,118.6 35.7,117.9 37.6,117.7 39.5,117.4 41.4,116.6 43.4,116.1 45.3,115.7 47.2,114.9 49.1,114.5 51.0,114.0 52.9,113.8 54.8,113.4 56.7,112.9 58.6,112.3 60.5,111.8 62.4,111.5 64.3,111.3 66.3,110.9 68.2,110.5 70.1,110.1 72.0,109.9 73.9,109.6 75.8,108.3 77.7,107.9 79.6,107.4 81.5,106.9 83.4,106.4 85.3,106.0 87.2,105.7 89.2,105.5 91.1,105.1 93.0,104.5 94.9,103.9 96.8,103.6 98.7,103.1 100.6,103.0 102.5,102.9 104.4,102.7 106.3,102.3 108.2,102.0 110.1,101.8 112.0,101.4 114.0,100.6 115.9,100.5 117.8,100.4 119.7,100.1 121.6,99.5 123.5,99.2 125.4,98.6 127.3,98.2 129.2,97.7 131.1,97.6 133.0,97.2 134.9,96.7 136.9,96.2 138.8,95.8 140.7,95.6 142.6,95.4 144.5,95.1 146.4,94.5 148.3,94.0 150.2,93.5 152.1,93.0 154.0,92.8 155.9,92.6 157.8,92.4 159.8,92.0 161.7,91.8 163.6,91.5 165.5,91.3 167.4,91.2 169.3,90.9 171.2,90.7 173.1,90.6 175.0,90.4 176.9,89.9 178.8,89.6 180.7,89.5 182.7,89.3 184.6,89.2 186.5,89.2 188.4,98.0 190.3,97.2 192.2,96.4 194.1,95.6 196.0,93.2 197.9,91.5 199.8,89.7 201.7,89.0 203.6,88.3 205.5,87.0 207.5,85.7 209.4,84.7 211.3,84.3 213.2,84.0 215.1,83.0 217.0,82.3 218.9,81.9 220.8,81.3 222.7,81.1 224.6,81.0 226.5,80.5 228.4,79.6 230.4,79.1 232.3,78.5 234.2,77.8 236.1,77.5 238.0,77.3 239.9,76.7 241.8,76.2 243.7,75.7 245.6,75.3 247.5,75.1 249.4,75.0 251.3,74.7 253.3,74.3 255.2,73.9 257.1,73.6 259.0,73.4 260.9,73.1 262.8,72.9 264.7,72.6 266.6,72.4 268.5,72.2 270.4,71.8 272.3,71.4 274.2,71.0 276.1,70.8 278.1,70.5 280.0,70.4 281.9,70.2 283.8,70.0 285.7,69.3 287.6,68.9 289.5,68.4 291.4,68.2 293.3,68.1 295.2,67.9 297.1,67.6 299.0,67.2 301.0,66.9 302.9,66.5 304.8,66.3 306.7,66.2 308.6,66.0 310.5,65.8 312.4,65.6 314.3,65.4 316.2,65.1 318.1,64.8 320.0,64.6 321.9,64.5 323.9,64.3 325.8,64.2 327.7,63.8 329.6,63.6 331.5,63.2 333.4,63.0 335.3,62.7 337.2,62.5 339.1,62.4 341.0,62.2 342.9,61.8 344.8,61.4 346.7,61.2 348.7,60.9 350.6,60.4 352.5,60.3 354.4,60.1 356.3,60.0 358.2,59.8 360.1,59.5 362.0,59.3 363.9,59.1 365.8,58.9 367.7,58.7 369.6,58.5 371.6,58.3 373.5,58.2 375.4,58.0 377.3,57.6 379.2,57.4 381.1,57.2 383.0,57.0 384.9,56.9 386.8,56.6 388.7,56.5 390.6,56.3 392.5,56.1 394.5,55.7 396.4,55.3 398.3,55.1 400.2,54.9 402.1,54.8 404.0,54.7 405.9,54.4 407.8,54.1 409.7,53.9 411.6,53.8 413.5,53.5 415.4,53.3 417.3,53.1 419.3,52.9 421.2,52.8 423.1,52.5 425.0,52.2 426.9,51.9 428.8,51.7 430.7,51.5 432.6,51.5 434.5,51.4 436.4,51.2 438.3,51.0 440.2,50.7 442.2,50.5 444.1,50.3 446.0,50.1 447.9,50.0 449.8,49.8 451.7,49.6 453.6,49.4 455.5,49.1 457.4,48.8 459.3,48.6 461.2,48.5 463.1,48.3 465.1,48.2 467.0,48.1 468.9,48.0 470.8,47.8 472.7,47.5 474.6,47.3 476.5,47.1 478.4,46.9 480.3,46.8 482.2,46.6 484.1,46.3 486.0,46.2 488.0,46.0 489.9,45.8 491.8,45.6 493.7,45.4 495.6,45.2 497.5,45.1 499.4,45.0 501.3,44.8 503.2,44.7 505.1,44.5 507.0,44.3 508.9,44.3 510.8,44.1 512.8,43.7 514.7,43.4 516.6,49.1 518.5,48.0 520.4,45.8 522.3,45.0 524.2,44.0 526.1,42.8 528.0,42.1 529.9,41.6 531.8,40.8 533.7,39.6 535.7,38.6 537.6,38.3 539.5,37.9 541.4,37.5 543.3,36.8 545.2,36.2 547.1,35.5 549.0,35.2 550.9,34.6 552.8,34.2 554.7,33.8 556.6,33.5 558.6,33.2 560.5,32.9 562.4,32.3 564.3,31.8 566.2,31.3 568.1,30.5 570.0,30.0" />
  
  <!-- Punto finale luminoso -->
  <circle cx="570.0" cy="30.0" r="4" fill="#ffffff" stroke="#0366d6" stroke-width="2.5" />
</svg>