<svg width="600" height="150" viewBox="0 0 600 150" xmlns="http://www.w3.org/2000/svg">
  <defs>
    <filter id="shadow2" x="-2%" y="-2%" width="104%" height="108%">
      <feDropShadow dx="0" dy="2" stdDeviation="3" flood-opacity="0.1" />
    </filter>
    <linearGradient id="fillGrad" x1="0" y1="0" x2="0" y2="1">
      <stop offset="0%" stop-color="#0366d6" stop-opacity="0.3"/>
      <stop offset="100%" stop-color="#0366d6" stop-opacity="0.02"/>
    </linearGradient>
  </defs>
  <rect width="600" height="150" rx="12" fill="#ffffff" filter="url(#shadow2)" stroke="#e1e4e8" stroke-width="1"/>
  <text x="20" y="24" fill="#2b3137" font-family="-apple-system,BlinkMacSystemFont,'Segoe UI',Helvetica,Arial,sans-serif" font-size="14" font-weight="600">📈 Download Growth (Actual: 86.1k)</text>
  
  <!-- Area sotto la linea -->
  <polygon fill="url(#fillGrad)" points="30.0,120.0,120 30.0,120.0 31.4,119.5 32.9,118.9 34.3,118.4 35.7,118.3 37.2,118.0 38.6,117.4 40.0,117.0 41.5,116.7 42.9,116.1 44.3,115.8 45.8,115.5 47.2,115.3 48.6,115.0 50.1,114.6 51.5,114.2 52.9,113.8 54.4,113.6 55.8,113.4 57.2,113.1 58.6,112.8 60.1,112.5 61.5,112.4 62.9,112.1 64.4,111.1 65.8,110.8 67.2,110.4 68.7,110.0 70.1,109.7 71.5,109.4 73.0,109.1 74.4,109.0 75.8,108.7 77.3,108.2 78.7,107.8 80.1,107.5 81.6,107.2 83.0,107.1 84.4,107.0 85.9,106.9 87.3,106.5 88.7,106.4 90.2,106.2 91.6,105.9 93.0,105.3 94.5,105.2 95.9,105.1 97.3,104.9 98.8,104.5 100.2,104.2 101.6,103.8 103.1,103.4 104.5,103.1 105.9,103.0 107.3,102.7 108.8,102.4 110.2,102.0 111.6,101.7 113.1,101.5 114.5,101.3 115.9,101.1 117.4,100.7 118.8,100.3 120.2,99.9 121.7,99.6 123.1,99.4 124.5,99.3 126.0,99.1 127.4,98.8 128.8,98.6 130.3,98.4 131.7,98.3 133.1,98.1 134.6,97.9 136.0,97.8 137.4,97.7 138.9,97.6 140.3,97.2 141.7,97.0 143.2,96.9 144.6,96.8 146.0,96.7 147.5,96.7 148.9,103.3 150.3,102.7 151.8,102.1 153.2,101.5 154.6,99.7 156.0,98.4 157.5,97.0 158.9,96.5 160.3,96.0 161.8,95.0 163.2,94.0 164.6,93.3 166.1,93.0 167.5,92.7 168.9,92.0 170.4,91.4 171.8,91.1 173.2,90.7 174.7,90.5 176.1,90.4 177.5,90.0 179.0,89.4 180.4,89.0 181.8,88.5 183.3,88.0 184.7,87.8 186.1,87.6 187.6,87.2 189.0,86.8 190.4,86.4 191.9,86.1 193.3,86.0 194.7,85.9 196.2,85.7 197.6,85.3 199.0,85.1 200.5,84.9 201.9,84.7 203.3,84.5 204.7,84.3 206.2,84.1 207.6,84.0 209.0,83.8 210.5,83.4 211.9,83.2 213.3,82.9 214.8,82.7 216.2,82.5 217.6,82.4 219.1,82.2 220.5,82.1 221.9,81.6 223.4,81.3 224.8,80.9 226.2,80.7 227.7,80.7 229.1,80.5 230.5,80.3 232.0,80.0 233.4,79.8 234.8,79.5 236.3,79.3 237.7,79.2 239.1,79.0 240.6,78.9 242.0,78.8 243.4,78.6 244.9,78.4 246.3,78.1 247.7,78.0 249.2,77.9 250.6,77.8 252.0,77.7 253.4,77.4 254.9,77.2 256.3,77.0 257.7,76.8 259.2,76.6 260.6,76.4 262.0,76.3 263.5,76.2 264.9,75.9 266.3,75.6 267.8,75.4 269.2,75.2 270.6,74.8 272.1,74.7 273.5,74.6 274.9,74.5 276.4,74.3 277.8,74.2 279.2,74.0 280.7,73.8 282.1,73.7 283.5,73.5 285.0,73.3 286.4,73.2 287.8,73.1 289.3,73.0 290.7,72.7 292.1,72.6 293.6,72.4 295.0,72.3 296.4,72.1 297.9,72.0 299.3,71.9 300.7,71.7 302.1,71.6 303.6,71.3 305.0,71.0 306.4,70.8 307.9,70.6 309.3,70.6 310.7,70.5 312.2,70.3 313.6,70.0 315.0,69.9 316.5,69.8 317.9,69.6 319.3,69.4 320.8,69.3 322.2,69.1 323.6,69.0 325.1,68.8 326.5,68.6 327.9,68.4 329.4,68.2 330.8,68.1 332.2,68.0 333.7,68.0 335.1,67.8 336.5,67.7 338.0,67.5 339.4,67.3 340.8,67.2 342.3,67.0 343.7,66.9 345.1,66.8 346.6,66.7 348.0,66.4 349.4,66.2 350.8,66.1 352.3,65.9 353.7,65.8 355.1,65.7 356.6,65.6 358.0,65.5 359.4,65.4 360.9,65.2 362.3,65.0 363.7,64.9 365.2,64.7 366.6,64.6 368.0,64.5 369.5,64.3 370.9,64.2 372.3,64.0 373.8,63.9 375.2,63.8 376.6,63.6 378.1,63.5 379.5,63.3 380.9,63.2 382.4,63.1 383.8,63.0 385.2,62.9 386.7,62.8 388.1,62.6 389.5,62.6 391.0,62.5 392.4,62.1 393.8,61.9 395.3,66.3 396.7,65.4 398.1,63.8 399.5,63.2 401.0,62.4 402.4,61.4 403.8,60.9 405.3,60.6 406.7,60.0 408.1,59.0 409.6,58.3 411.0,58.1 412.4,57.7 413.9,57.5 415.3,57.0 416.7,56.5 418.2,56.0 419.6,55.7 421.0,55.2 422.5,55.0 423.9,54.7 425.3,54.5 426.8,54.2 428.2,54.0 429.6,53.5 431.1,53.2 432.5,52.7 433.9,52.1 435.4,51.8 436.8,51.6 438.2,51.4 439.7,51.2 441.1,50.8 442.5,50.4 444.0,50.2 445.4,49.3 446.8,48.6 448.2,48.2 449.7,48.1 451.1,47.8 452.5,47.3 454.0,46.9 455.4,46.6 456.8,46.3 458.3,46.0 459.7,45.7 461.1,45.4 462.6,45.0 464.0,44.8 465.4,44.6 466.9,44.4 468.3,44.0 469.7,43.7 471.2,43.5 472.6,43.4 474.0,43.2 475.5,42.9 476.9,42.8 478.3,42.6 479.8,42.4 481.2,42.2 482.6,42.1 484.1,41.8 485.5,41.6 486.9,41.2 488.4,40.9 489.8,40.6 491.2,40.4 492.7,40.2 494.1,40.1 495.5,39.9 496.9,39.7 498.4,39.5 499.8,39.4 501.2,39.3 502.7,39.1 504.1,39.0 505.5,38.7 507.0,38.5 508.4,38.4 509.8,38.1 511.3,37.8 512.7,37.4 514.1,37.2 515.6,37.0 517.0,36.8 518.4,36.6 519.9,36.3 521.3,36.1 522.7,35.9 524.2,35.8 525.6,35.7 527.0,35.4 528.5,35.2 529.9,35.0 531.3,34.9 532.8,34.7 534.2,34.4 535.6,34.2 537.1,33.9 538.5,33.8 539.9,33.5 541.4,33.2 542.8,33.1 544.2,32.9 545.6,32.7 547.1,32.6 548.5,32.4 549.9,32.2 551.4,32.0 552.8,31.8 554.2,31.7 555.7,31.5 557.1,31.4 558.5,31.2 560.0,31.1 561.4,30.9 562.8,30.8 564.3,30.6 565.7,30.5 567.1,30.3 568.6,30.1 570.0,30.0 570.0,30.0,120" />
  
  <!-- Linea principale -->
  <polyline fill="none" stroke="#0366d6" stroke-width="2.5" stroke-linecap="round" stroke-linejoin="round" points="30.0,120.0 31.4,119.5 32.9,118.9 34.3,118.4 35.7,118.3 37.2,118.0 38.6,117.4 40.0,117.0 41.5,116.7 42.9,116.1 44.3,115.8 45.8,115.5 47.2,115.3 48.6,115.0 50.1,114.6 51.5,114.2 52.9,113.8 54.4,113.6 55.8,113.4 57.2,113.1 58.6,112.8 60.1,112.5 61.5,112.4 62.9,112.1 64.4,111.1 65.8,110.8 67.2,110.4 68.7,110.0 70.1,109.7 71.5,109.4 73.0,109.1 74.4,109.0 75.8,108.7 77.3,108.2 78.7,107.8 80.1,107.5 81.6,107.2 83.0,107.1 84.4,107.0 85.9,106.9 87.3,106.5 88.7,106.4 90.2,106.2 91.6,105.9 93.0,105.3 94.5,105.2 95.9,105.1 97.3,104.9 98.8,104.5 100.2,104.2 101.6,103.8 103.1,103.4 104.5,103.1 105.9,103.0 107.3,102.7 108.8,102.4 110.2,102.0 111.6,101.7 113.1,101.5 114.5,101.3 115.9,101.1 117.4,100.7 118.8,100.3 120.2,99.9 121.7,99.6 123.1,99.4 124.5,99.3 126.0,99.1 127.4,98.8 128.8,98.6 130.3,98.4 131.7,98.3 133.1,98.1 134.6,97.9 136.0,97.8 137.4,97.7 138.9,97.6 140.3,97.2 141.7,97.0 143.2,96.9 144.6,96.8 146.0,96.7 147.5,96.7 148.9,103.3 150.3,102.7 151.8,102.1 153.2,101.5 154.6,99.7 156.0,98.4 157.5,97.0 158.9,96.5 160.3,96.0 161.8,95.0 163.2,94.0 164.6,93.3 166.1,93.0 167.5,92.7 168.9,92.0 170.4,91.4 171.8,91.1 173.2,90.7 174.7,90.5 176.1,90.4 177.5,90.0 179.0,89.4 180.4,89.0 181.8,88.5 183.3,88.0 184.7,87.8 186.1,87.6 187.6,87.2 189.0,86.8 190.4,86.4 191.9,86.1 193.3,86.0 194.7,85.9 196.2,85.7 197.6,85.3 199.0,85.1 200.5,84.9 201.9,84.7 203.3,84.5 204.7,84.3 206.2,84.1 207.6,84.0 209.0,83.8 210.5,83.4 211.9,83.2 213.3,82.9 214.8,82.7 216.2,82.5 217.6,82.4 219.1,82.2 220.5,82.1 221.9,81.6 223.4,81.3 224.8,80.9 226.2,80.7 227.7,80.7 229.1,80.5 230.5,80.3 232.0,80.0 233.4,79.8 234.8,79.5 236.3,79.3 237.7,79.2 239.1,79.0 240.6,78.9 242.0,78.8 243.4,78.6 244.9,78.4 246.3,78.1 247.7,78.0 249.2,77.9 250.6,77.8 252.0,77.7 253.4,77.4 254.9,77.2 256.3,77.0 257.7,76.8 259.2,76.6 260.6,76.4 262.0,76.3 263.5,76.2 264.9,75.9 266.3,75.6 267.8,75.4 269.2,75.2 270.6,74.8 272.1,74.7 273.5,74.6 274.9,74.5 276.4,74.3 277.8,74.2 279.2,74.0 280.7,73.8 282.1,73.7 283.5,73.5 285.0,73.3 286.4,73.2 287.8,73.1 289.3,73.0 290.7,72.7 292.1,72.6 293.6,72.4 295.0,72.3 296.4,72.1 297.9,72.0 299.3,71.9 300.7,71.7 302.1,71.6 303.6,71.3 305.0,71.0 306.4,70.8 307.9,70.6 309.3,70.6 310.7,70.5 312.2,70.3 313.6,70.0 315.0,69.9 316.5,69.8 317.9,69.6 319.3,69.4 320.8,69.3 322.2,69.1 323.6,69.0 325.1,68.8 326.5,68.6 327.9,68.4 329.4,68.2 330.8,68.1 332.2,68.0 333.7,68.0 335.1,67.8 336.5,67.7 338.0,67.5 339.4,67.3 340.8,67.2 342.3,67.0 343.7,66.9 345.1,66.8 346.6,66.7 348.0,66.4 349.4,66.2 350.8,66.1 352.3,65.9 353.7,65.8 355.1,65.7 356.6,65.6 358.0,65.5 359.4,65.4 360.9,65.2 362.3,65.0 363.7,64.9 365.2,64.7 366.6,64.6 368.0,64.5 369.5,64.3 370.9,64.2 372.3,64.0 373.8,63.9 375.2,63.8 376.6,63.6 378.1,63.5 379.5,63.3 380.9,63.2 382.4,63.1 383.8,63.0 385.2,62.9 386.7,62.8 388.1,62.6 389.5,62.6 391.0,62.5 392.4,62.1 393.8,61.9 395.3,66.3 396.7,65.4 398.1,63.8 399.5,63.2 401.0,62.4 402.4,61.4 403.8,60.9 405.3,60.6 406.7,60.0 408.1,59.0 409.6,58.3 411.0,58.1 412.4,57.7 413.9,57.5 415.3,57.0 416.7,56.5 418.2,56.0 419.6,55.7 421.0,55.2 422.5,55.0 423.9,54.7 425.3,54.5 426.8,54.2 428.2,54.0 429.6,53.5 431.1,53.2 432.5,52.7 433.9,52.1 435.4,51.8 436.8,51.6 438.2,51.4 439.7,51.2 441.1,50.8 442.5,50.4 444.0,50.2 445.4,49.3 446.8,48.6 448.2,48.2 449.7,48.1 451.1,47.8 452.5,47.3 454.0,46.9 455.4,46.6 456.8,46.3 458.3,46.0 459.7,45.7 461.1,45.4 462.6,45.0 464.0,44.8 465.4,44.6 466.9,44.4 468.3,44.0 469.7,43.7 471.2,43.5 472.6,43.4 474.0,43.2 475.5,42.9 476.9,42.8 478.3,42.6 479.8,42.4 481.2,42.2 482.6,42.1 484.1,41.8 485.5,41.6 486.9,41.2 488.4,40.9 489.8,40.6 491.2,40.4 492.7,40.2 494.1,40.1 495.5,39.9 496.9,39.7 498.4,39.5 499.8,39.4 501.2,39.3 502.7,39.1 504.1,39.0 505.5,38.7 507.0,38.5 508.4,38.4 509.8,38.1 511.3,37.8 512.7,37.4 514.1,37.2 515.6,37.0 517.0,36.8 518.4,36.6 519.9,36.3 521.3,36.1 522.7,35.9 524.2,35.8 525.6,35.7 527.0,35.4 528.5,35.2 529.9,35.0 531.3,34.9 532.8,34.7 534.2,34.4 535.6,34.2 537.1,33.9 538.5,33.8 539.9,33.5 541.4,33.2 542.8,33.1 544.2,32.9 545.6,32.7 547.1,32.6 548.5,32.4 549.9,32.2 551.4,32.0 552.8,31.8 554.2,31.7 555.7,31.5 557.1,31.4 558.5,31.2 560.0,31.1 561.4,30.9 562.8,30.8 564.3,30.6 565.7,30.5 567.1,30.3 568.6,30.1 570.0,30.0" />
  
  <!-- Punto finale luminoso -->
  <circle cx="570.0" cy="30.0" r="4" fill="#ffffff" stroke="#0366d6" stroke-width="2.5" />
</svg>