<svg width="600" height="150" viewBox="0 0 600 150" xmlns="http://www.w3.org/2000/svg">
  <defs>
    <filter id="shadow2" x="-2%" y="-2%" width="104%" height="108%">
      <feDropShadow dx="0" dy="2" stdDeviation="3" flood-opacity="0.1" />
    </filter>
    <linearGradient id="fillGrad" x1="0" y1="0" x2="0" y2="1">
      <stop offset="0%" stop-color="#0366d6" stop-opacity="0.3"/>
      <stop offset="100%" stop-color="#0366d6" stop-opacity="0.02"/>
    </linearGradient>
  </defs>
  <rect width="600" height="150" rx="12" fill="#ffffff" filter="url(#shadow2)" stroke="#e1e4e8" stroke-width="1"/>
  <text x="20" y="24" fill="#2b3137" font-family="-apple-system,BlinkMacSystemFont,'Segoe UI',Helvetica,Arial,sans-serif" font-size="14" font-weight="600">📈 Download Growth (Actual: 85.6k)</text>
  
  <!-- Area sotto la linea -->
  <polygon fill="url(#fillGrad)" points="30.0,120.0,120 30.0,120.0 31.5,119.5 33.0,118.9 34.5,118.4 36.0,118.2 37.5,118.0 39.0,117.3 40.4,116.9 41.9,116.6 43.4,116.0 44.9,115.7 46.4,115.4 47.9,115.2 49.4,114.9 50.9,114.5 52.4,114.0 53.9,113.6 55.4,113.4 56.9,113.2 58.3,112.9 59.8,112.6 61.3,112.3 62.8,112.2 64.3,111.9 65.8,110.9 67.3,110.6 68.8,110.2 70.3,109.8 71.8,109.4 73.3,109.1 74.8,108.9 76.2,108.7 77.7,108.4 79.2,107.9 80.7,107.5 82.2,107.2 83.7,106.9 85.2,106.8 86.7,106.7 88.2,106.5 89.7,106.2 91.2,106.0 92.7,105.8 94.1,105.5 95.6,104.9 97.1,104.8 98.6,104.7 100.1,104.5 101.6,104.1 103.1,103.8 104.6,103.3 106.1,103.0 107.6,102.6 109.1,102.5 110.6,102.3 112.0,101.9 113.5,101.5 115.0,101.2 116.5,101.0 118.0,100.8 119.5,100.6 121.0,100.2 122.5,99.7 124.0,99.4 125.5,99.0 127.0,98.8 128.5,98.7 129.9,98.5 131.4,98.2 132.9,98.0 134.4,97.8 135.9,97.7 137.4,97.5 138.9,97.3 140.4,97.2 141.9,97.1 143.4,97.0 144.9,96.6 146.4,96.3 147.8,96.3 149.3,96.1 150.8,96.0 152.3,96.0 153.8,102.9 155.3,102.2 156.8,101.6 158.3,101.0 159.8,99.1 161.3,97.8 162.8,96.4 164.3,95.9 165.7,95.3 167.2,94.3 168.7,93.3 170.2,92.5 171.7,92.2 173.2,92.0 174.7,91.2 176.2,90.7 177.7,90.3 179.2,89.9 180.7,89.7 182.2,89.6 183.6,89.2 185.1,88.6 186.6,88.1 188.1,87.7 189.6,87.1 191.1,86.9 192.6,86.7 194.1,86.3 195.6,85.9 197.1,85.5 198.6,85.2 200.1,85.1 201.5,85.0 203.0,84.7 204.5,84.4 206.0,84.1 207.5,83.9 209.0,83.7 210.5,83.5 212.0,83.3 213.5,83.1 215.0,83.0 216.5,82.8 218.0,82.4 219.4,82.2 220.9,81.9 222.4,81.7 223.9,81.5 225.4,81.3 226.9,81.2 228.4,81.0 229.9,80.5 231.4,80.2 232.9,79.8 234.4,79.6 235.9,79.6 237.3,79.4 238.8,79.2 240.3,78.9 241.8,78.7 243.3,78.4 244.8,78.2 246.3,78.1 247.8,77.9 249.3,77.8 250.8,77.6 252.3,77.4 253.8,77.3 255.2,77.0 256.7,76.8 258.2,76.7 259.7,76.6 261.2,76.5 262.7,76.2 264.2,76.0 265.7,75.8 267.2,75.6 268.7,75.4 270.2,75.2 271.7,75.1 273.1,75.0 274.6,74.7 276.1,74.4 277.6,74.2 279.1,74.0 280.6,73.6 282.1,73.5 283.6,73.4 285.1,73.3 286.6,73.1 288.1,72.9 289.6,72.7 291.0,72.6 292.5,72.4 294.0,72.2 295.5,72.1 297.0,71.9 298.5,71.9 300.0,71.7 301.5,71.4 303.0,71.3 304.5,71.1 306.0,71.0 307.5,70.8 309.0,70.7 310.4,70.5 311.9,70.4 313.4,70.2 314.9,70.0 316.4,69.6 317.9,69.4 319.4,69.3 320.9,69.2 322.4,69.1 323.9,68.9 325.4,68.6 326.9,68.5 328.3,68.4 329.8,68.2 331.3,68.1 332.8,67.9 334.3,67.8 335.8,67.6 337.3,67.4 338.8,67.2 340.3,67.0 341.8,66.8 343.3,66.7 344.8,66.6 346.2,66.6 347.7,66.4 349.2,66.2 350.7,66.1 352.2,65.9 353.7,65.7 355.2,65.6 356.7,65.5 358.2,65.3 359.7,65.2 361.2,65.0 362.7,64.8 364.1,64.6 365.6,64.4 367.1,64.3 368.6,64.2 370.1,64.1 371.6,64.0 373.1,63.9 374.6,63.7 376.1,63.5 377.6,63.4 379.1,63.2 380.6,63.1 382.0,63.0 383.5,62.8 385.0,62.6 386.5,62.5 388.0,62.4 389.5,62.2 391.0,62.1 392.5,61.9 394.0,61.7 395.5,61.7 397.0,61.6 398.5,61.4 399.9,61.3 401.4,61.2 402.9,61.1 404.4,61.0 405.9,60.9 407.4,60.6 408.9,60.3 410.4,64.8 411.9,63.9 413.4,62.2 414.9,61.6 416.4,60.8 417.8,59.8 419.3,59.3 420.8,59.0 422.3,58.3 423.8,57.4 425.3,56.6 426.8,56.4 428.3,56.0 429.8,55.7 431.3,55.2 432.8,54.8 434.3,54.2 435.7,54.0 437.2,53.5 438.7,53.2 440.2,52.9 441.7,52.7 443.2,52.4 444.7,52.2 446.2,51.7 447.7,51.3 449.2,50.9 450.7,50.3 452.2,49.9 453.6,49.7 455.1,49.5 456.6,49.3 458.1,48.9 459.6,48.5 461.1,48.2 462.6,47.3 464.1,46.6 465.6,46.3 467.1,46.1 468.6,45.8 470.1,45.3 471.5,44.9 473.0,44.6 474.5,44.3 476.0,44.0 477.5,43.7 479.0,43.3 480.5,42.9 482.0,42.7 483.5,42.5 485.0,42.3 486.5,41.9 488.0,41.7 489.4,41.4 490.9,41.3 492.4,41.1 493.9,40.8 495.4,40.7 496.9,40.4 498.4,40.3 499.9,40.1 501.4,39.9 502.9,39.6 504.4,39.4 505.9,39.1 507.3,38.7 508.8,38.4 510.3,38.3 511.8,38.1 513.3,37.9 514.8,37.7 516.3,37.5 517.8,37.3 519.3,37.2 520.8,37.1 522.3,36.9 523.8,36.8 525.2,36.4 526.7,36.3 528.2,36.1 529.7,35.9 531.2,35.5 532.7,35.2 534.2,35.0 535.7,34.8 537.2,34.5 538.7,34.3 540.2,34.0 541.7,33.8 543.1,33.6 544.6,33.5 546.1,33.3 547.6,33.1 549.1,32.9 550.6,32.7 552.1,32.6 553.6,32.3 555.1,32.1 556.6,31.9 558.1,31.6 559.6,31.4 561.0,31.1 562.5,30.9 564.0,30.7 565.5,30.6 567.0,30.4 568.5,30.2 570.0,30.0 570.0,30.0,120" />
  
  <!-- Linea principale -->
  <polyline fill="none" stroke="#0366d6" stroke-width="2.5" stroke-linecap="round" stroke-linejoin="round" points="30.0,120.0 31.5,119.5 33.0,118.9 34.5,118.4 36.0,118.2 37.5,118.0 39.0,117.3 40.4,116.9 41.9,116.6 43.4,116.0 44.9,115.7 46.4,115.4 47.9,115.2 49.4,114.9 50.9,114.5 52.4,114.0 53.9,113.6 55.4,113.4 56.9,113.2 58.3,112.9 59.8,112.6 61.3,112.3 62.8,112.2 64.3,111.9 65.8,110.9 67.3,110.6 68.8,110.2 70.3,109.8 71.8,109.4 73.3,109.1 74.8,108.9 76.2,108.7 77.7,108.4 79.2,107.9 80.7,107.5 82.2,107.2 83.7,106.9 85.2,106.8 86.7,106.7 88.2,106.5 89.7,106.2 91.2,106.0 92.7,105.8 94.1,105.5 95.6,104.9 97.1,104.8 98.6,104.7 100.1,104.5 101.6,104.1 103.1,103.8 104.6,103.3 106.1,103.0 107.6,102.6 109.1,102.5 110.6,102.3 112.0,101.9 113.5,101.5 115.0,101.2 116.5,101.0 118.0,100.8 119.5,100.6 121.0,100.2 122.5,99.7 124.0,99.4 125.5,99.0 127.0,98.8 128.5,98.7 129.9,98.5 131.4,98.2 132.9,98.0 134.4,97.8 135.9,97.7 137.4,97.5 138.9,97.3 140.4,97.2 141.9,97.1 143.4,97.0 144.9,96.6 146.4,96.3 147.8,96.3 149.3,96.1 150.8,96.0 152.3,96.0 153.8,102.9 155.3,102.2 156.8,101.6 158.3,101.0 159.8,99.1 161.3,97.8 162.8,96.4 164.3,95.9 165.7,95.3 167.2,94.3 168.7,93.3 170.2,92.5 171.7,92.2 173.2,92.0 174.7,91.2 176.2,90.7 177.7,90.3 179.2,89.9 180.7,89.7 182.2,89.6 183.6,89.2 185.1,88.6 186.6,88.1 188.1,87.7 189.6,87.1 191.1,86.9 192.6,86.7 194.1,86.3 195.6,85.9 197.1,85.5 198.6,85.2 200.1,85.1 201.5,85.0 203.0,84.7 204.5,84.4 206.0,84.1 207.5,83.9 209.0,83.7 210.5,83.5 212.0,83.3 213.5,83.1 215.0,83.0 216.5,82.8 218.0,82.4 219.4,82.2 220.9,81.9 222.4,81.7 223.9,81.5 225.4,81.3 226.9,81.2 228.4,81.0 229.9,80.5 231.4,80.2 232.9,79.8 234.4,79.6 235.9,79.6 237.3,79.4 238.8,79.2 240.3,78.9 241.8,78.7 243.3,78.4 244.8,78.2 246.3,78.1 247.8,77.9 249.3,77.8 250.8,77.6 252.3,77.4 253.8,77.3 255.2,77.0 256.7,76.8 258.2,76.7 259.7,76.6 261.2,76.5 262.7,76.2 264.2,76.0 265.7,75.8 267.2,75.6 268.7,75.4 270.2,75.2 271.7,75.1 273.1,75.0 274.6,74.7 276.1,74.4 277.6,74.2 279.1,74.0 280.6,73.6 282.1,73.5 283.6,73.4 285.1,73.3 286.6,73.1 288.1,72.9 289.6,72.7 291.0,72.6 292.5,72.4 294.0,72.2 295.5,72.1 297.0,71.9 298.5,71.9 300.0,71.7 301.5,71.4 303.0,71.3 304.5,71.1 306.0,71.0 307.5,70.8 309.0,70.7 310.4,70.5 311.9,70.4 313.4,70.2 314.9,70.0 316.4,69.6 317.9,69.4 319.4,69.3 320.9,69.2 322.4,69.1 323.9,68.9 325.4,68.6 326.9,68.5 328.3,68.4 329.8,68.2 331.3,68.1 332.8,67.9 334.3,67.8 335.8,67.6 337.3,67.4 338.8,67.2 340.3,67.0 341.8,66.8 343.3,66.7 344.8,66.6 346.2,66.6 347.7,66.4 349.2,66.2 350.7,66.1 352.2,65.9 353.7,65.7 355.2,65.6 356.7,65.5 358.2,65.3 359.7,65.2 361.2,65.0 362.7,64.8 364.1,64.6 365.6,64.4 367.1,64.3 368.6,64.2 370.1,64.1 371.6,64.0 373.1,63.9 374.6,63.7 376.1,63.5 377.6,63.4 379.1,63.2 380.6,63.1 382.0,63.0 383.5,62.8 385.0,62.6 386.5,62.5 388.0,62.4 389.5,62.2 391.0,62.1 392.5,61.9 394.0,61.7 395.5,61.7 397.0,61.6 398.5,61.4 399.9,61.3 401.4,61.2 402.9,61.1 404.4,61.0 405.9,60.9 407.4,60.6 408.9,60.3 410.4,64.8 411.9,63.9 413.4,62.2 414.9,61.6 416.4,60.8 417.8,59.8 419.3,59.3 420.8,59.0 422.3,58.3 423.8,57.4 425.3,56.6 426.8,56.4 428.3,56.0 429.8,55.7 431.3,55.2 432.8,54.8 434.3,54.2 435.7,54.0 437.2,53.5 438.7,53.2 440.2,52.9 441.7,52.7 443.2,52.4 444.7,52.2 446.2,51.7 447.7,51.3 449.2,50.9 450.7,50.3 452.2,49.9 453.6,49.7 455.1,49.5 456.6,49.3 458.1,48.9 459.6,48.5 461.1,48.2 462.6,47.3 464.1,46.6 465.6,46.3 467.1,46.1 468.6,45.8 470.1,45.3 471.5,44.9 473.0,44.6 474.5,44.3 476.0,44.0 477.5,43.7 479.0,43.3 480.5,42.9 482.0,42.7 483.5,42.5 485.0,42.3 486.5,41.9 488.0,41.7 489.4,41.4 490.9,41.3 492.4,41.1 493.9,40.8 495.4,40.7 496.9,40.4 498.4,40.3 499.9,40.1 501.4,39.9 502.9,39.6 504.4,39.4 505.9,39.1 507.3,38.7 508.8,38.4 510.3,38.3 511.8,38.1 513.3,37.9 514.8,37.7 516.3,37.5 517.8,37.3 519.3,37.2 520.8,37.1 522.3,36.9 523.8,36.8 525.2,36.4 526.7,36.3 528.2,36.1 529.7,35.9 531.2,35.5 532.7,35.2 534.2,35.0 535.7,34.8 537.2,34.5 538.7,34.3 540.2,34.0 541.7,33.8 543.1,33.6 544.6,33.5 546.1,33.3 547.6,33.1 549.1,32.9 550.6,32.7 552.1,32.6 553.6,32.3 555.1,32.1 556.6,31.9 558.1,31.6 559.6,31.4 561.0,31.1 562.5,30.9 564.0,30.7 565.5,30.6 567.0,30.4 568.5,30.2 570.0,30.0" />
  
  <!-- Punto finale luminoso -->
  <circle cx="570.0" cy="30.0" r="4" fill="#ffffff" stroke="#0366d6" stroke-width="2.5" />
</svg>