<svg width="600" height="150" viewBox="0 0 600 150" xmlns="http://www.w3.org/2000/svg">
  <defs>
    <filter id="shadow2" x="-2%" y="-2%" width="104%" height="108%">
      <feDropShadow dx="0" dy="2" stdDeviation="3" flood-opacity="0.1" />
    </filter>
    <linearGradient id="fillGrad" x1="0" y1="0" x2="0" y2="1">
      <stop offset="0%" stop-color="#0366d6" stop-opacity="0.3"/>
      <stop offset="100%" stop-color="#0366d6" stop-opacity="0.02"/>
    </linearGradient>
  </defs>
  <rect width="600" height="150" rx="12" fill="#ffffff" filter="url(#shadow2)" stroke="#e1e4e8" stroke-width="1"/>
  <text x="20" y="24" fill="#2b3137" font-family="-apple-system,BlinkMacSystemFont,'Segoe UI',Helvetica,Arial,sans-serif" font-size="14" font-weight="600">📈 Download Growth (Actual: 87.8k)</text>
  
  <!-- Area sotto la linea -->
  <polygon fill="url(#fillGrad)" points="30.0,120.0,120 30.0,120.0 31.3,119.5 32.6,119.0 33.9,118.5 35.2,118.4 36.4,118.2 37.7,117.6 39.0,117.2 40.3,117.0 41.6,116.4 42.9,116.1 44.2,115.8 45.5,115.7 46.8,115.4 48.0,115.0 49.3,114.6 50.6,114.3 51.9,114.1 53.2,113.9 54.5,113.7 55.8,113.4 57.1,113.1 58.4,113.0 59.6,112.7 60.9,111.8 62.2,111.5 63.5,111.2 64.8,110.8 66.1,110.5 67.4,110.2 68.7,110.0 70.0,109.9 71.2,109.6 72.5,109.2 73.8,108.8 75.1,108.5 76.4,108.2 77.7,108.1 79.0,108.1 80.3,107.9 81.6,107.6 82.8,107.5 84.1,107.3 85.4,107.0 86.7,106.5 88.0,106.4 89.3,106.3 90.6,106.1 91.9,105.7 93.2,105.5 94.4,105.1 95.7,104.8 97.0,104.4 98.3,104.3 99.6,104.1 100.9,103.8 102.2,103.4 103.5,103.1 104.7,103.0 106.0,102.8 107.3,102.7 108.6,102.2 109.9,101.9 111.2,101.5 112.5,101.2 113.8,101.0 115.1,100.9 116.3,100.8 117.6,100.5 118.9,100.3 120.2,100.2 121.5,100.0 122.8,99.9 124.1,99.7 125.4,99.6 126.7,99.5 127.9,99.4 129.2,99.0 130.5,98.8 131.8,98.7 133.1,98.6 134.4,98.5 135.7,98.5 137.0,104.7 138.3,104.1 139.5,103.5 140.8,103.0 142.1,101.3 143.4,100.1 144.7,98.9 146.0,98.4 147.3,97.9 148.6,97.0 149.9,96.1 151.1,95.4 152.4,95.1 153.7,94.9 155.0,94.2 156.3,93.7 157.6,93.4 158.9,93.0 160.2,92.9 161.5,92.8 162.7,92.4 164.0,91.9 165.3,91.5 166.6,91.0 167.9,90.6 169.2,90.4 170.5,90.2 171.8,89.8 173.1,89.4 174.3,89.1 175.6,88.8 176.9,88.7 178.2,88.6 179.5,88.4 180.8,88.1 182.1,87.9 183.4,87.7 184.7,87.5 185.9,87.3 187.2,87.1 188.5,87.0 189.8,86.8 191.1,86.7 192.4,86.4 193.7,86.1 195.0,85.9 196.3,85.7 197.5,85.5 198.8,85.4 200.1,85.2 201.4,85.1 202.7,84.7 204.0,84.4 205.3,84.0 206.6,83.8 207.9,83.8 209.1,83.6 210.4,83.4 211.7,83.2 213.0,83.0 214.3,82.7 215.6,82.5 216.9,82.5 218.2,82.3 219.5,82.2 220.7,82.1 222.0,81.9 223.3,81.7 224.6,81.5 225.9,81.4 227.2,81.3 228.5,81.1 229.8,81.1 231.1,80.8 232.3,80.6 233.6,80.4 234.9,80.2 236.2,80.0 237.5,79.9 238.8,79.8 240.1,79.7 241.4,79.4 242.6,79.2 243.9,79.0 245.2,78.8 246.5,78.4 247.8,78.4 249.1,78.2 250.4,78.2 251.7,78.0 253.0,77.8 254.2,77.7 255.5,77.5 256.8,77.4 258.1,77.2 259.4,77.1 260.7,77.0 262.0,76.9 263.3,76.7 264.6,76.5 265.8,76.4 267.1,76.2 268.4,76.1 269.7,76.0 271.0,75.8 272.3,75.7 273.6,75.6 274.9,75.5 276.2,75.2 277.4,74.9 278.7,74.7 280.0,74.6 281.3,74.5 282.6,74.4 283.9,74.3 285.2,74.0 286.5,73.9 287.8,73.8 289.0,73.6 290.3,73.5 291.6,73.3 292.9,73.2 294.2,73.1 295.5,72.9 296.8,72.7 298.1,72.5 299.4,72.3 300.6,72.3 301.9,72.2 303.2,72.1 304.5,72.0 305.8,71.9 307.1,71.7 308.4,71.6 309.7,71.4 311.0,71.3 312.2,71.2 313.5,71.1 314.8,70.9 316.1,70.7 317.4,70.5 318.7,70.4 320.0,70.2 321.3,70.1 322.6,70.0 323.8,69.9 325.1,69.9 326.4,69.8 327.7,69.6 329.0,69.4 330.3,69.3 331.6,69.1 332.9,69.0 334.2,68.9 335.4,68.8 336.7,68.6 338.0,68.5 339.3,68.4 340.6,68.3 341.9,68.1 343.2,68.0 344.5,67.8 345.8,67.8 347.0,67.7 348.3,67.6 349.6,67.5 350.9,67.3 352.2,67.2 353.5,67.2 354.8,67.1 356.1,66.8 357.4,66.6 358.6,70.6 359.9,69.8 361.2,68.3 362.5,67.7 363.8,67.0 365.1,66.1 366.4,65.7 367.7,65.3 368.9,64.8 370.2,63.9 371.5,63.3 372.8,63.1 374.1,62.7 375.4,62.5 376.7,62.0 378.0,61.6 379.3,61.1 380.5,60.9 381.8,60.4 383.1,60.2 384.4,59.9 385.7,59.7 387.0,59.5 388.3,59.3 389.6,58.8 390.9,58.5 392.1,58.1 393.4,57.6 394.7,57.2 396.0,57.1 397.3,56.9 398.6,56.7 399.9,56.3 401.2,56.0 402.5,55.7 403.7,54.9 405.0,54.3 406.3,54.0 407.6,53.8 408.9,53.6 410.2,53.1 411.5,52.8 412.8,52.5 414.1,52.2 415.3,51.9 416.6,51.6 417.9,51.4 419.2,51.0 420.5,50.8 421.8,50.6 423.1,50.5 424.4,50.1 425.7,49.8 426.9,49.6 428.2,49.5 429.5,49.4 430.8,49.1 432.1,49.0 433.4,48.8 434.7,48.6 436.0,48.4 437.3,48.3 438.5,48.0 439.8,47.9 441.1,47.5 442.4,47.2 443.7,46.9 445.0,46.8 446.3,46.6 447.6,46.5 448.9,46.3 450.1,46.1 451.4,46.0 452.7,45.9 454.0,45.8 455.3,45.6 456.6,45.5 457.9,45.2 459.2,45.1 460.5,44.9 461.7,44.7 463.0,44.4 464.3,44.0 465.6,43.9 466.9,43.7 468.2,43.5 469.5,43.2 470.8,43.0 472.1,42.8 473.3,42.6 474.6,42.5 475.9,42.4 477.2,42.2 478.5,42.0 479.8,41.8 481.1,41.7 482.4,41.5 483.7,41.3 484.9,41.1 486.2,40.8 487.5,40.7 488.8,40.4 490.1,40.2 491.4,40.0 492.7,39.9 494.0,39.7 495.3,39.6 496.5,39.4 497.8,39.2 499.1,39.0 500.4,38.9 501.7,38.8 503.0,38.6 504.3,38.5 505.6,38.3 506.8,38.2 508.1,38.0 509.4,38.0 510.7,37.8 512.0,37.7 513.3,37.5 514.6,37.3 515.9,37.2 517.2,37.1 518.4,36.9 519.7,36.7 521.0,36.6 522.3,36.4 523.6,36.3 524.9,36.0 526.2,35.9 527.5,35.6 528.8,35.5 530.0,35.4 531.3,35.3 532.6,35.2 533.9,35.0 535.2,34.8 536.5,34.5 537.8,34.4 539.1,34.2 540.4,34.1 541.6,34.0 542.9,33.8 544.2,33.7 545.5,33.4 546.8,33.2 548.1,33.1 549.4,32.9 550.7,32.7 552.0,32.5 553.2,32.3 554.5,32.2 555.8,32.0 557.1,31.7 558.4,31.5 559.7,31.3 561.0,31.3 562.3,31.1 563.6,30.9 564.8,30.7 566.1,30.6 567.4,30.5 568.7,30.3 570.0,30.0 570.0,30.0,120" />
  
  <!-- Linea principale -->
  <polyline fill="none" stroke="#0366d6" stroke-width="2.5" stroke-linecap="round" stroke-linejoin="round" points="30.0,120.0 31.3,119.5 32.6,119.0 33.9,118.5 35.2,118.4 36.4,118.2 37.7,117.6 39.0,117.2 40.3,117.0 41.6,116.4 42.9,116.1 44.2,115.8 45.5,115.7 46.8,115.4 48.0,115.0 49.3,114.6 50.6,114.3 51.9,114.1 53.2,113.9 54.5,113.7 55.8,113.4 57.1,113.1 58.4,113.0 59.6,112.7 60.9,111.8 62.2,111.5 63.5,111.2 64.8,110.8 66.1,110.5 67.4,110.2 68.7,110.0 70.0,109.9 71.2,109.6 72.5,109.2 73.8,108.8 75.1,108.5 76.4,108.2 77.7,108.1 79.0,108.1 80.3,107.9 81.6,107.6 82.8,107.5 84.1,107.3 85.4,107.0 86.7,106.5 88.0,106.4 89.3,106.3 90.6,106.1 91.9,105.7 93.2,105.5 94.4,105.1 95.7,104.8 97.0,104.4 98.3,104.3 99.6,104.1 100.9,103.8 102.2,103.4 103.5,103.1 104.7,103.0 106.0,102.8 107.3,102.7 108.6,102.2 109.9,101.9 111.2,101.5 112.5,101.2 113.8,101.0 115.1,100.9 116.3,100.8 117.6,100.5 118.9,100.3 120.2,100.2 121.5,100.0 122.8,99.9 124.1,99.7 125.4,99.6 126.7,99.5 127.9,99.4 129.2,99.0 130.5,98.8 131.8,98.7 133.1,98.6 134.4,98.5 135.7,98.5 137.0,104.7 138.3,104.1 139.5,103.5 140.8,103.0 142.1,101.3 143.4,100.1 144.7,98.9 146.0,98.4 147.3,97.9 148.6,97.0 149.9,96.1 151.1,95.4 152.4,95.1 153.7,94.9 155.0,94.2 156.3,93.7 157.6,93.4 158.9,93.0 160.2,92.9 161.5,92.8 162.7,92.4 164.0,91.9 165.3,91.5 166.6,91.0 167.9,90.6 169.2,90.4 170.5,90.2 171.8,89.8 173.1,89.4 174.3,89.1 175.6,88.8 176.9,88.7 178.2,88.6 179.5,88.4 180.8,88.1 182.1,87.9 183.4,87.7 184.7,87.5 185.9,87.3 187.2,87.1 188.5,87.0 189.8,86.8 191.1,86.7 192.4,86.4 193.7,86.1 195.0,85.9 196.3,85.7 197.5,85.5 198.8,85.4 200.1,85.2 201.4,85.1 202.7,84.7 204.0,84.4 205.3,84.0 206.6,83.8 207.9,83.8 209.1,83.6 210.4,83.4 211.7,83.2 213.0,83.0 214.3,82.7 215.6,82.5 216.9,82.5 218.2,82.3 219.5,82.2 220.7,82.1 222.0,81.9 223.3,81.7 224.6,81.5 225.9,81.4 227.2,81.3 228.5,81.1 229.8,81.1 231.1,80.8 232.3,80.6 233.6,80.4 234.9,80.2 236.2,80.0 237.5,79.9 238.8,79.8 240.1,79.7 241.4,79.4 242.6,79.2 243.9,79.0 245.2,78.8 246.5,78.4 247.8,78.4 249.1,78.2 250.4,78.2 251.7,78.0 253.0,77.8 254.2,77.7 255.5,77.5 256.8,77.4 258.1,77.2 259.4,77.1 260.7,77.0 262.0,76.9 263.3,76.7 264.6,76.5 265.8,76.4 267.1,76.2 268.4,76.1 269.7,76.0 271.0,75.8 272.3,75.7 273.6,75.6 274.9,75.5 276.2,75.2 277.4,74.9 278.7,74.7 280.0,74.6 281.3,74.5 282.6,74.4 283.9,74.3 285.2,74.0 286.5,73.9 287.8,73.8 289.0,73.6 290.3,73.5 291.6,73.3 292.9,73.2 294.2,73.1 295.5,72.9 296.8,72.7 298.1,72.5 299.4,72.3 300.6,72.3 301.9,72.2 303.2,72.1 304.5,72.0 305.8,71.9 307.1,71.7 308.4,71.6 309.7,71.4 311.0,71.3 312.2,71.2 313.5,71.1 314.8,70.9 316.1,70.7 317.4,70.5 318.7,70.4 320.0,70.2 321.3,70.1 322.6,70.0 323.8,69.9 325.1,69.9 326.4,69.8 327.7,69.6 329.0,69.4 330.3,69.3 331.6,69.1 332.9,69.0 334.2,68.9 335.4,68.8 336.7,68.6 338.0,68.5 339.3,68.4 340.6,68.3 341.9,68.1 343.2,68.0 344.5,67.8 345.8,67.8 347.0,67.7 348.3,67.6 349.6,67.5 350.9,67.3 352.2,67.2 353.5,67.2 354.8,67.1 356.1,66.8 357.4,66.6 358.6,70.6 359.9,69.8 361.2,68.3 362.5,67.7 363.8,67.0 365.1,66.1 366.4,65.7 367.7,65.3 368.9,64.8 370.2,63.9 371.5,63.3 372.8,63.1 374.1,62.7 375.4,62.5 376.7,62.0 378.0,61.6 379.3,61.1 380.5,60.9 381.8,60.4 383.1,60.2 384.4,59.9 385.7,59.7 387.0,59.5 388.3,59.3 389.6,58.8 390.9,58.5 392.1,58.1 393.4,57.6 394.7,57.2 396.0,57.1 397.3,56.9 398.6,56.7 399.9,56.3 401.2,56.0 402.5,55.7 403.7,54.9 405.0,54.3 406.3,54.0 407.6,53.8 408.9,53.6 410.2,53.1 411.5,52.8 412.8,52.5 414.1,52.2 415.3,51.9 416.6,51.6 417.9,51.4 419.2,51.0 420.5,50.8 421.8,50.6 423.1,50.5 424.4,50.1 425.7,49.8 426.9,49.6 428.2,49.5 429.5,49.4 430.8,49.1 432.1,49.0 433.4,48.8 434.7,48.6 436.0,48.4 437.3,48.3 438.5,48.0 439.8,47.9 441.1,47.5 442.4,47.2 443.7,46.9 445.0,46.8 446.3,46.6 447.6,46.5 448.9,46.3 450.1,46.1 451.4,46.0 452.7,45.9 454.0,45.8 455.3,45.6 456.6,45.5 457.9,45.2 459.2,45.1 460.5,44.9 461.7,44.7 463.0,44.4 464.3,44.0 465.6,43.9 466.9,43.7 468.2,43.5 469.5,43.2 470.8,43.0 472.1,42.8 473.3,42.6 474.6,42.5 475.9,42.4 477.2,42.2 478.5,42.0 479.8,41.8 481.1,41.7 482.4,41.5 483.7,41.3 484.9,41.1 486.2,40.8 487.5,40.7 488.8,40.4 490.1,40.2 491.4,40.0 492.7,39.9 494.0,39.7 495.3,39.6 496.5,39.4 497.8,39.2 499.1,39.0 500.4,38.9 501.7,38.8 503.0,38.6 504.3,38.5 505.6,38.3 506.8,38.2 508.1,38.0 509.4,38.0 510.7,37.8 512.0,37.7 513.3,37.5 514.6,37.3 515.9,37.2 517.2,37.1 518.4,36.9 519.7,36.7 521.0,36.6 522.3,36.4 523.6,36.3 524.9,36.0 526.2,35.9 527.5,35.6 528.8,35.5 530.0,35.4 531.3,35.3 532.6,35.2 533.9,35.0 535.2,34.8 536.5,34.5 537.8,34.4 539.1,34.2 540.4,34.1 541.6,34.0 542.9,33.8 544.2,33.7 545.5,33.4 546.8,33.2 548.1,33.1 549.4,32.9 550.7,32.7 552.0,32.5 553.2,32.3 554.5,32.2 555.8,32.0 557.1,31.7 558.4,31.5 559.7,31.3 561.0,31.3 562.3,31.1 563.6,30.9 564.8,30.7 566.1,30.6 567.4,30.5 568.7,30.3 570.0,30.0" />
  
  <!-- Punto finale luminoso -->
  <circle cx="570.0" cy="30.0" r="4" fill="#ffffff" stroke="#0366d6" stroke-width="2.5" />
</svg>