<svg width="600" height="150" viewBox="0 0 600 150" xmlns="http://www.w3.org/2000/svg">
  <defs>
    <filter id="shadow2" x="-2%" y="-2%" width="104%" height="108%">
      <feDropShadow dx="0" dy="2" stdDeviation="3" flood-opacity="0.1" />
    </filter>
    <linearGradient id="fillGrad" x1="0" y1="0" x2="0" y2="1">
      <stop offset="0%" stop-color="#0366d6" stop-opacity="0.3"/>
      <stop offset="100%" stop-color="#0366d6" stop-opacity="0.02"/>
    </linearGradient>
  </defs>
  <rect width="600" height="150" rx="12" fill="#ffffff" filter="url(#shadow2)" stroke="#e1e4e8" stroke-width="1"/>
  <text x="20" y="24" fill="#2b3137" font-family="-apple-system,BlinkMacSystemFont,'Segoe UI',Helvetica,Arial,sans-serif" font-size="14" font-weight="600">📈 Download Growth (Actual: 77.4k)</text>
  
  <!-- Area sotto la linea -->
  <polygon fill="url(#fillGrad)" points="30.0,120.0,120 30.0,120.0 32.8,119.0 35.6,118.0 38.4,117.1 41.2,116.8 44.1,116.4 46.9,115.3 49.7,114.5 52.5,114.0 55.3,112.9 58.1,112.3 60.9,111.7 63.8,111.4 66.6,110.9 69.4,110.1 72.2,109.3 75.0,108.6 77.8,108.2 80.6,107.9 83.4,107.4 86.2,106.8 89.1,106.2 91.9,106.0 94.7,105.5 97.5,103.7 100.3,103.1 103.1,102.4 105.9,101.7 108.8,101.1 111.6,100.5 114.4,100.1 117.2,99.8 120.0,99.3 122.8,98.4 125.6,97.6 128.4,97.1 131.2,96.5 134.1,96.3 136.9,96.2 139.7,95.9 142.5,95.3 145.3,95.0 148.1,94.7 150.9,94.0 153.8,93.1 156.6,92.8 159.4,92.7 162.2,92.3 165.0,91.5 167.8,91.0 170.6,90.2 173.4,89.6 176.2,88.9 179.1,88.8 181.9,88.3 184.7,87.6 187.5,86.9 190.3,86.3 193.1,86.1 195.9,85.7 198.8,85.4 201.6,84.6 204.4,83.8 207.2,83.1 210.0,82.5 212.8,82.1 215.6,81.9 218.4,81.6 221.2,81.1 224.1,80.7 226.9,80.4 229.7,80.1 232.5,79.9 235.3,79.5 238.1,79.2 240.9,79.1 243.8,78.9 246.6,78.1 249.4,77.7 252.2,77.6 255.0,77.3 257.8,77.2 260.6,77.2 263.4,89.4 266.2,88.2 269.1,87.1 271.9,86.0 274.7,82.7 277.5,80.3 280.3,77.8 283.1,76.9 285.9,75.9 288.8,74.1 291.6,72.3 294.4,70.9 297.2,70.4 300.0,69.9 302.8,68.6 305.6,67.6 308.4,66.9 311.2,66.2 314.1,65.8 316.9,65.7 319.7,65.0 322.5,63.8 325.3,63.0 328.1,62.2 330.9,61.3 333.8,60.8 336.6,60.5 339.4,59.7 342.2,59.0 345.0,58.3 347.8,57.8 350.6,57.6 353.4,57.4 356.2,57.0 359.1,56.4 361.9,55.9 364.7,55.5 367.5,55.1 370.3,54.8 373.1,54.4 375.9,54.1 378.8,53.8 381.6,53.5 384.4,52.9 387.2,52.4 390.0,51.9 392.8,51.5 395.6,51.2 398.4,50.9 401.2,50.7 404.1,50.4 406.9,49.5 409.7,48.9 412.5,48.1 415.3,47.9 418.1,47.8 420.9,47.4 423.8,47.0 426.6,46.6 429.4,46.2 432.2,45.6 435.0,45.3 437.8,45.1 440.6,44.8 443.4,44.6 446.2,44.3 449.1,44.0 451.9,43.7 454.7,43.1 457.5,42.9 460.3,42.7 463.1,42.4 465.9,42.3 468.8,41.8 471.6,41.5 474.4,41.0 477.2,40.7 480.0,40.3 482.8,40.0 485.6,39.8 488.4,39.5 491.2,39.0 494.1,38.5 496.9,38.1 499.7,37.7 502.5,37.1 505.3,36.9 508.1,36.7 510.9,36.5 513.8,36.2 516.6,35.9 519.4,35.5 522.2,35.2 525.0,34.9 527.8,34.7 530.6,34.4 533.4,34.1 536.2,34.0 539.1,33.7 541.9,33.2 544.7,32.9 547.5,32.6 550.3,32.4 553.1,32.1 555.9,31.8 558.8,31.6 561.6,31.4 564.4,31.1 567.2,30.6 570.0,30.0 570.0,30.0,120" />
  
  <!-- Linea principale -->
  <polyline fill="none" stroke="#0366d6" stroke-width="2.5" stroke-linecap="round" stroke-linejoin="round" points="30.0,120.0 32.8,119.0 35.6,118.0 38.4,117.1 41.2,116.8 44.1,116.4 46.9,115.3 49.7,114.5 52.5,114.0 55.3,112.9 58.1,112.3 60.9,111.7 63.8,111.4 66.6,110.9 69.4,110.1 72.2,109.3 75.0,108.6 77.8,108.2 80.6,107.9 83.4,107.4 86.2,106.8 89.1,106.2 91.9,106.0 94.7,105.5 97.5,103.7 100.3,103.1 103.1,102.4 105.9,101.7 108.8,101.1 111.6,100.5 114.4,100.1 117.2,99.8 120.0,99.3 122.8,98.4 125.6,97.6 128.4,97.1 131.2,96.5 134.1,96.3 136.9,96.2 139.7,95.9 142.5,95.3 145.3,95.0 148.1,94.7 150.9,94.0 153.8,93.1 156.6,92.8 159.4,92.7 162.2,92.3 165.0,91.5 167.8,91.0 170.6,90.2 173.4,89.6 176.2,88.9 179.1,88.8 181.9,88.3 184.7,87.6 187.5,86.9 190.3,86.3 193.1,86.1 195.9,85.7 198.8,85.4 201.6,84.6 204.4,83.8 207.2,83.1 210.0,82.5 212.8,82.1 215.6,81.9 218.4,81.6 221.2,81.1 224.1,80.7 226.9,80.4 229.7,80.1 232.5,79.9 235.3,79.5 238.1,79.2 240.9,79.1 243.8,78.9 246.6,78.1 249.4,77.7 252.2,77.6 255.0,77.3 257.8,77.2 260.6,77.2 263.4,89.4 266.2,88.2 269.1,87.1 271.9,86.0 274.7,82.7 277.5,80.3 280.3,77.8 283.1,76.9 285.9,75.9 288.8,74.1 291.6,72.3 294.4,70.9 297.2,70.4 300.0,69.9 302.8,68.6 305.6,67.6 308.4,66.9 311.2,66.2 314.1,65.8 316.9,65.7 319.7,65.0 322.5,63.8 325.3,63.0 328.1,62.2 330.9,61.3 333.8,60.8 336.6,60.5 339.4,59.7 342.2,59.0 345.0,58.3 347.8,57.8 350.6,57.6 353.4,57.4 356.2,57.0 359.1,56.4 361.9,55.9 364.7,55.5 367.5,55.1 370.3,54.8 373.1,54.4 375.9,54.1 378.8,53.8 381.6,53.5 384.4,52.9 387.2,52.4 390.0,51.9 392.8,51.5 395.6,51.2 398.4,50.9 401.2,50.7 404.1,50.4 406.9,49.5 409.7,48.9 412.5,48.1 415.3,47.9 418.1,47.8 420.9,47.4 423.8,47.0 426.6,46.6 429.4,46.2 432.2,45.6 435.0,45.3 437.8,45.1 440.6,44.8 443.4,44.6 446.2,44.3 449.1,44.0 451.9,43.7 454.7,43.1 457.5,42.9 460.3,42.7 463.1,42.4 465.9,42.3 468.8,41.8 471.6,41.5 474.4,41.0 477.2,40.7 480.0,40.3 482.8,40.0 485.6,39.8 488.4,39.5 491.2,39.0 494.1,38.5 496.9,38.1 499.7,37.7 502.5,37.1 505.3,36.9 508.1,36.7 510.9,36.5 513.8,36.2 516.6,35.9 519.4,35.5 522.2,35.2 525.0,34.9 527.8,34.7 530.6,34.4 533.4,34.1 536.2,34.0 539.1,33.7 541.9,33.2 544.7,32.9 547.5,32.6 550.3,32.4 553.1,32.1 555.9,31.8 558.8,31.6 561.6,31.4 564.4,31.1 567.2,30.6 570.0,30.0" />
  
  <!-- Punto finale luminoso -->
  <circle cx="570.0" cy="30.0" r="4" fill="#ffffff" stroke="#0366d6" stroke-width="2.5" />
</svg>