<svg width="600" height="150" viewBox="0 0 600 150" xmlns="http://www.w3.org/2000/svg">
  <defs>
    <filter id="shadow2" x="-2%" y="-2%" width="104%" height="108%">
      <feDropShadow dx="0" dy="2" stdDeviation="3" flood-opacity="0.1" />
    </filter>
    <linearGradient id="fillGrad" x1="0" y1="0" x2="0" y2="1">
      <stop offset="0%" stop-color="#0366d6" stop-opacity="0.3"/>
      <stop offset="100%" stop-color="#0366d6" stop-opacity="0.02"/>
    </linearGradient>
  </defs>
  <rect width="600" height="150" rx="12" fill="#ffffff" filter="url(#shadow2)" stroke="#e1e4e8" stroke-width="1"/>
  <text x="20" y="24" fill="#2b3137" font-family="-apple-system,BlinkMacSystemFont,'Segoe UI',Helvetica,Arial,sans-serif" font-size="14" font-weight="600">📈 Download Growth (Actual: 82.5k)</text>
  
  <!-- Area sotto la linea -->
  <polygon fill="url(#fillGrad)" points="30.0,120.0,120 30.0,120.0 31.8,119.4 33.6,118.7 35.5,118.0 37.3,117.9 39.1,117.6 40.9,116.8 42.8,116.3 44.6,116.0 46.4,115.2 48.2,114.8 50.1,114.4 51.9,114.2 53.7,113.9 55.5,113.3 57.4,112.8 59.2,112.4 61.0,112.1 62.8,111.9 64.7,111.5 66.5,111.1 68.3,110.8 70.1,110.6 72.0,110.3 73.8,109.0 75.6,108.7 77.4,108.2 79.3,107.7 81.1,107.3 82.9,106.9 84.7,106.6 86.6,106.4 88.4,106.1 90.2,105.5 92.0,105.0 93.9,104.7 95.7,104.2 97.5,104.1 99.3,104.0 101.1,103.8 103.0,103.4 104.8,103.2 106.6,103.0 108.4,102.6 110.3,101.9 112.1,101.8 113.9,101.7 115.7,101.4 117.6,100.9 119.4,100.5 121.2,100.0 123.0,99.6 124.9,99.1 126.7,99.0 128.5,98.8 130.3,98.3 132.2,97.8 134.0,97.4 135.8,97.2 137.6,97.0 139.5,96.8 141.3,96.2 143.1,95.7 144.9,95.3 146.8,94.8 148.6,94.6 150.4,94.5 152.2,94.3 154.1,93.9 155.9,93.6 157.7,93.4 159.5,93.3 161.4,93.1 163.2,92.8 165.0,92.6 166.8,92.5 168.6,92.4 170.5,91.9 172.3,91.6 174.1,91.5 175.9,91.4 177.8,91.3 179.6,91.3 181.4,99.5 183.2,98.7 185.1,98.0 186.9,97.2 188.7,95.0 190.5,93.4 192.4,91.7 194.2,91.1 196.0,90.4 197.8,89.2 199.7,88.0 201.5,87.1 203.3,86.7 205.1,86.4 207.0,85.5 208.8,84.8 210.6,84.4 212.4,83.9 214.3,83.7 216.1,83.6 217.9,83.1 219.7,82.3 221.6,81.8 223.4,81.2 225.2,80.6 227.0,80.3 228.9,80.1 230.7,79.6 232.5,79.1 234.3,78.6 236.1,78.3 238.0,78.1 239.8,78.0 241.6,77.7 243.4,77.3 245.3,77.0 247.1,76.7 248.9,76.5 250.7,76.2 252.6,76.0 254.4,75.8 256.2,75.6 258.0,75.4 259.9,75.0 261.7,74.7 263.5,74.3 265.3,74.1 267.2,73.8 269.0,73.7 270.8,73.5 272.6,73.3 274.5,72.7 276.3,72.3 278.1,71.8 279.9,71.6 281.8,71.5 283.6,71.3 285.4,71.1 287.2,70.7 289.1,70.5 290.9,70.1 292.7,69.9 294.5,69.7 296.4,69.6 298.2,69.4 300.0,69.2 301.8,69.0 303.6,68.8 305.5,68.4 307.3,68.3 309.1,68.1 310.9,68.0 312.8,67.9 314.6,67.6 316.4,67.3 318.2,67.0 320.1,66.8 321.9,66.5 323.7,66.3 325.5,66.2 327.4,66.0 329.2,65.7 331.0,65.3 332.8,65.1 334.7,64.8 336.5,64.4 338.3,64.3 340.1,64.1 342.0,64.0 343.8,63.8 345.6,63.6 347.4,63.3 349.3,63.1 351.1,62.9 352.9,62.8 354.7,62.5 356.6,62.4 358.4,62.3 360.2,62.1 362.0,61.7 363.9,61.6 365.7,61.3 367.5,61.2 369.3,61.0 371.1,60.9 373.0,60.7 374.8,60.6 376.6,60.4 378.4,60.0 380.3,59.6 382.1,59.4 383.9,59.2 385.7,59.1 387.6,59.0 389.4,58.8 391.2,58.4 393.0,58.3 394.9,58.2 396.7,57.9 398.5,57.7 400.3,57.5 402.2,57.4 404.0,57.2 405.8,56.9 407.6,56.7 409.5,56.4 411.3,56.2 413.1,56.1 414.9,56.0 416.8,55.9 418.6,55.7 420.4,55.6 422.2,55.3 424.1,55.1 425.9,54.9 427.7,54.8 429.5,54.6 431.4,54.5 433.2,54.3 435.0,54.0 436.8,53.8 438.6,53.6 440.5,53.4 442.3,53.2 444.1,53.1 445.9,53.0 447.8,52.9 449.6,52.7 451.4,52.6 453.2,52.3 455.1,52.1 456.9,51.9 458.7,51.8 460.5,51.6 462.4,51.4 464.2,51.2 466.0,51.1 467.8,50.9 469.7,50.8 471.5,50.5 473.3,50.4 475.1,50.2 477.0,50.1 478.8,50.0 480.6,49.8 482.4,49.7 484.3,49.5 486.1,49.3 487.9,49.3 489.7,49.1 491.6,48.7 493.4,48.5 495.2,53.8 497.0,52.8 498.9,50.8 500.7,50.0 502.5,49.1 504.3,47.9 506.1,47.3 508.0,46.8 509.8,46.1 511.6,44.9 513.4,44.0 515.3,43.8 517.1,43.3 518.9,43.0 520.7,42.4 522.6,41.8 524.4,41.1 526.2,40.8 528.0,40.2 529.9,39.9 531.7,39.5 533.5,39.3 535.3,39.0 537.2,38.7 539.0,38.1 540.8,37.7 542.6,37.2 544.5,36.4 546.3,36.0 548.1,35.7 549.9,35.5 551.8,35.2 553.6,34.8 555.4,34.3 557.2,34.0 559.1,32.9 560.9,32.0 562.7,31.6 564.5,31.4 566.4,31.1 568.2,30.5 570.0,30.0 570.0,30.0,120" />
  
  <!-- Linea principale -->
  <polyline fill="none" stroke="#0366d6" stroke-width="2.5" stroke-linecap="round" stroke-linejoin="round" points="30.0,120.0 31.8,119.4 33.6,118.7 35.5,118.0 37.3,117.9 39.1,117.6 40.9,116.8 42.8,116.3 44.6,116.0 46.4,115.2 48.2,114.8 50.1,114.4 51.9,114.2 53.7,113.9 55.5,113.3 57.4,112.8 59.2,112.4 61.0,112.1 62.8,111.9 64.7,111.5 66.5,111.1 68.3,110.8 70.1,110.6 72.0,110.3 73.8,109.0 75.6,108.7 77.4,108.2 79.3,107.7 81.1,107.3 82.9,106.9 84.7,106.6 86.6,106.4 88.4,106.1 90.2,105.5 92.0,105.0 93.9,104.7 95.7,104.2 97.5,104.1 99.3,104.0 101.1,103.8 103.0,103.4 104.8,103.2 106.6,103.0 108.4,102.6 110.3,101.9 112.1,101.8 113.9,101.7 115.7,101.4 117.6,100.9 119.4,100.5 121.2,100.0 123.0,99.6 124.9,99.1 126.7,99.0 128.5,98.8 130.3,98.3 132.2,97.8 134.0,97.4 135.8,97.2 137.6,97.0 139.5,96.8 141.3,96.2 143.1,95.7 144.9,95.3 146.8,94.8 148.6,94.6 150.4,94.5 152.2,94.3 154.1,93.9 155.9,93.6 157.7,93.4 159.5,93.3 161.4,93.1 163.2,92.8 165.0,92.6 166.8,92.5 168.6,92.4 170.5,91.9 172.3,91.6 174.1,91.5 175.9,91.4 177.8,91.3 179.6,91.3 181.4,99.5 183.2,98.7 185.1,98.0 186.9,97.2 188.7,95.0 190.5,93.4 192.4,91.7 194.2,91.1 196.0,90.4 197.8,89.2 199.7,88.0 201.5,87.1 203.3,86.7 205.1,86.4 207.0,85.5 208.8,84.8 210.6,84.4 212.4,83.9 214.3,83.7 216.1,83.6 217.9,83.1 219.7,82.3 221.6,81.8 223.4,81.2 225.2,80.6 227.0,80.3 228.9,80.1 230.7,79.6 232.5,79.1 234.3,78.6 236.1,78.3 238.0,78.1 239.8,78.0 241.6,77.7 243.4,77.3 245.3,77.0 247.1,76.7 248.9,76.5 250.7,76.2 252.6,76.0 254.4,75.8 256.2,75.6 258.0,75.4 259.9,75.0 261.7,74.7 263.5,74.3 265.3,74.1 267.2,73.8 269.0,73.7 270.8,73.5 272.6,73.3 274.5,72.7 276.3,72.3 278.1,71.8 279.9,71.6 281.8,71.5 283.6,71.3 285.4,71.1 287.2,70.7 289.1,70.5 290.9,70.1 292.7,69.9 294.5,69.7 296.4,69.6 298.2,69.4 300.0,69.2 301.8,69.0 303.6,68.8 305.5,68.4 307.3,68.3 309.1,68.1 310.9,68.0 312.8,67.9 314.6,67.6 316.4,67.3 318.2,67.0 320.1,66.8 321.9,66.5 323.7,66.3 325.5,66.2 327.4,66.0 329.2,65.7 331.0,65.3 332.8,65.1 334.7,64.8 336.5,64.4 338.3,64.3 340.1,64.1 342.0,64.0 343.8,63.8 345.6,63.6 347.4,63.3 349.3,63.1 351.1,62.9 352.9,62.8 354.7,62.5 356.6,62.4 358.4,62.3 360.2,62.1 362.0,61.7 363.9,61.6 365.7,61.3 367.5,61.2 369.3,61.0 371.1,60.9 373.0,60.7 374.8,60.6 376.6,60.4 378.4,60.0 380.3,59.6 382.1,59.4 383.9,59.2 385.7,59.1 387.6,59.0 389.4,58.8 391.2,58.4 393.0,58.3 394.9,58.2 396.7,57.9 398.5,57.7 400.3,57.5 402.2,57.4 404.0,57.2 405.8,56.9 407.6,56.7 409.5,56.4 411.3,56.2 413.1,56.1 414.9,56.0 416.8,55.9 418.6,55.7 420.4,55.6 422.2,55.3 424.1,55.1 425.9,54.9 427.7,54.8 429.5,54.6 431.4,54.5 433.2,54.3 435.0,54.0 436.8,53.8 438.6,53.6 440.5,53.4 442.3,53.2 444.1,53.1 445.9,53.0 447.8,52.9 449.6,52.7 451.4,52.6 453.2,52.3 455.1,52.1 456.9,51.9 458.7,51.8 460.5,51.6 462.4,51.4 464.2,51.2 466.0,51.1 467.8,50.9 469.7,50.8 471.5,50.5 473.3,50.4 475.1,50.2 477.0,50.1 478.8,50.0 480.6,49.8 482.4,49.7 484.3,49.5 486.1,49.3 487.9,49.3 489.7,49.1 491.6,48.7 493.4,48.5 495.2,53.8 497.0,52.8 498.9,50.8 500.7,50.0 502.5,49.1 504.3,47.9 506.1,47.3 508.0,46.8 509.8,46.1 511.6,44.9 513.4,44.0 515.3,43.8 517.1,43.3 518.9,43.0 520.7,42.4 522.6,41.8 524.4,41.1 526.2,40.8 528.0,40.2 529.9,39.9 531.7,39.5 533.5,39.3 535.3,39.0 537.2,38.7 539.0,38.1 540.8,37.7 542.6,37.2 544.5,36.4 546.3,36.0 548.1,35.7 549.9,35.5 551.8,35.2 553.6,34.8 555.4,34.3 557.2,34.0 559.1,32.9 560.9,32.0 562.7,31.6 564.5,31.4 566.4,31.1 568.2,30.5 570.0,30.0" />
  
  <!-- Punto finale luminoso -->
  <circle cx="570.0" cy="30.0" r="4" fill="#ffffff" stroke="#0366d6" stroke-width="2.5" />
</svg>