<svg width="600" height="150" viewBox="0 0 600 150" xmlns="http://www.w3.org/2000/svg">
  <defs>
    <filter id="shadow2" x="-2%" y="-2%" width="104%" height="108%">
      <feDropShadow dx="0" dy="2" stdDeviation="3" flood-opacity="0.1" />
    </filter>
    <linearGradient id="fillGrad" x1="0" y1="0" x2="0" y2="1">
      <stop offset="0%" stop-color="#0366d6" stop-opacity="0.3"/>
      <stop offset="100%" stop-color="#0366d6" stop-opacity="0.02"/>
    </linearGradient>
  </defs>
  <rect width="600" height="150" rx="12" fill="#ffffff" filter="url(#shadow2)" stroke="#e1e4e8" stroke-width="1"/>
  <text x="20" y="24" fill="#2b3137" font-family="-apple-system,BlinkMacSystemFont,'Segoe UI',Helvetica,Arial,sans-serif" font-size="14" font-weight="600">📈 Download Growth (Actual: 82.8k)</text>
  
  <!-- Area sotto la linea -->
  <polygon fill="url(#fillGrad)" points="30.0,120.0,120 30.0,120.0 31.8,119.4 33.6,118.7 35.4,118.1 37.2,117.9 39.0,117.6 40.8,116.9 42.6,116.4 44.4,116.0 46.2,115.3 48.0,114.9 49.8,114.5 51.6,114.3 53.4,114.0 55.2,113.5 57.0,112.9 58.8,112.5 60.6,112.2 62.4,112.0 64.2,111.7 66.0,111.3 67.8,110.9 69.6,110.8 71.4,110.4 73.2,109.2 75.0,108.9 76.8,108.4 78.6,107.9 80.4,107.5 82.2,107.1 84.0,106.9 85.8,106.7 87.6,106.3 89.4,105.7 91.2,105.2 93.0,104.9 94.8,104.5 96.6,104.4 98.4,104.3 100.2,104.1 102.0,103.7 103.8,103.5 105.6,103.3 107.4,102.9 109.2,102.2 111.0,102.1 112.8,102.0 114.6,101.7 116.4,101.2 118.2,100.9 120.0,100.3 121.8,100.0 123.6,99.5 125.4,99.4 127.2,99.1 129.0,98.6 130.8,98.1 132.6,97.8 134.4,97.6 136.2,97.4 138.0,97.2 139.8,96.6 141.6,96.1 143.4,95.7 145.2,95.2 147.0,95.0 148.8,94.9 150.6,94.7 152.4,94.3 154.2,94.1 156.0,93.9 157.8,93.7 159.6,93.5 161.4,93.3 163.2,93.1 165.0,93.0 166.8,92.9 168.6,92.4 170.4,92.1 172.2,92.0 174.0,91.8 175.8,91.7 177.6,91.7 179.4,99.8 181.2,99.0 183.0,98.3 184.8,97.6 186.6,95.4 188.4,93.8 190.2,92.2 192.0,91.6 193.8,90.9 195.6,89.7 197.4,88.5 199.2,87.6 201.0,87.3 202.8,86.9 204.6,86.1 206.4,85.4 208.2,85.0 210.0,84.5 211.8,84.3 213.6,84.2 215.4,83.7 217.2,82.9 219.0,82.4 220.8,81.9 222.6,81.3 224.4,81.0 226.2,80.8 228.0,80.2 229.8,79.8 231.6,79.3 233.4,79.0 235.2,78.8 237.0,78.7 238.8,78.4 240.6,78.0 242.4,77.7 244.2,77.4 246.0,77.2 247.8,77.0 249.6,76.7 251.4,76.5 253.2,76.3 255.0,76.1 256.8,75.7 258.6,75.4 260.4,75.0 262.2,74.8 264.0,74.6 265.8,74.4 267.6,74.2 269.4,74.0 271.2,73.5 273.0,73.1 274.8,72.6 276.6,72.4 278.4,72.3 280.2,72.1 282.0,71.9 283.8,71.6 285.6,71.3 287.4,70.9 289.2,70.7 291.0,70.6 292.8,70.4 294.6,70.2 296.4,70.1 298.2,69.8 300.0,69.6 301.8,69.3 303.6,69.1 305.4,69.0 307.2,68.8 309.0,68.7 310.8,68.4 312.6,68.2 314.4,67.9 316.2,67.6 318.0,67.4 319.8,67.2 321.6,67.1 323.4,66.9 325.2,66.5 327.0,66.2 328.8,66.0 330.6,65.7 332.4,65.3 334.2,65.2 336.0,65.0 337.8,64.9 339.6,64.7 341.4,64.5 343.2,64.2 345.0,64.1 346.8,63.9 348.6,63.7 350.4,63.5 352.2,63.3 354.0,63.3 355.8,63.0 357.6,62.7 359.4,62.6 361.2,62.3 363.0,62.2 364.8,62.0 366.6,61.8 368.4,61.7 370.2,61.5 372.0,61.3 373.8,61.0 375.6,60.6 377.4,60.4 379.2,60.2 381.0,60.1 382.8,60.0 384.6,59.8 386.4,59.5 388.2,59.3 390.0,59.2 391.8,58.9 393.6,58.8 395.4,58.5 397.2,58.4 399.0,58.3 400.8,58.0 402.6,57.8 404.4,57.5 406.2,57.2 408.0,57.1 409.8,57.1 411.6,57.0 413.4,56.8 415.2,56.6 417.0,56.4 418.8,56.2 420.6,56.0 422.4,55.9 424.2,55.7 426.0,55.5 427.8,55.4 429.6,55.1 431.4,54.9 433.2,54.7 435.0,54.5 436.8,54.3 438.6,54.2 440.4,54.1 442.2,54.0 444.0,53.9 445.8,53.7 447.6,53.4 449.4,53.2 451.2,53.0 453.0,52.9 454.8,52.7 456.6,52.6 458.4,52.4 460.2,52.2 462.0,52.1 463.8,51.9 465.6,51.7 467.4,51.5 469.2,51.3 471.0,51.2 472.8,51.1 474.6,51.0 476.4,50.8 478.2,50.7 480.0,50.5 481.8,50.5 483.6,50.3 485.4,49.9 487.2,49.7 489.0,54.9 490.8,53.9 492.6,51.9 494.4,51.1 496.2,50.2 498.0,49.1 499.8,48.5 501.6,48.0 503.4,47.3 505.2,46.1 507.0,45.3 508.8,45.0 510.6,44.6 512.4,44.2 514.2,43.6 516.0,43.1 517.8,42.4 519.6,42.1 521.4,41.6 523.2,41.3 525.0,40.9 526.8,40.6 528.6,40.3 530.4,40.0 532.2,39.4 534.0,39.0 535.8,38.5 537.6,37.8 539.4,37.4 541.2,37.1 543.0,36.9 544.8,36.6 546.6,36.2 548.4,35.7 550.2,35.4 552.0,34.3 553.8,33.5 555.6,33.1 557.4,32.9 559.2,32.5 561.0,32.0 562.8,31.5 564.6,31.1 566.4,30.8 568.2,30.4 570.0,30.0 570.0,30.0,120" />
  
  <!-- Linea principale -->
  <polyline fill="none" stroke="#0366d6" stroke-width="2.5" stroke-linecap="round" stroke-linejoin="round" points="30.0,120.0 31.8,119.4 33.6,118.7 35.4,118.1 37.2,117.9 39.0,117.6 40.8,116.9 42.6,116.4 44.4,116.0 46.2,115.3 48.0,114.9 49.8,114.5 51.6,114.3 53.4,114.0 55.2,113.5 57.0,112.9 58.8,112.5 60.6,112.2 62.4,112.0 64.2,111.7 66.0,111.3 67.8,110.9 69.6,110.8 71.4,110.4 73.2,109.2 75.0,108.9 76.8,108.4 78.6,107.9 80.4,107.5 82.2,107.1 84.0,106.9 85.8,106.7 87.6,106.3 89.4,105.7 91.2,105.2 93.0,104.9 94.8,104.5 96.6,104.4 98.4,104.3 100.2,104.1 102.0,103.7 103.8,103.5 105.6,103.3 107.4,102.9 109.2,102.2 111.0,102.1 112.8,102.0 114.6,101.7 116.4,101.2 118.2,100.9 120.0,100.3 121.8,100.0 123.6,99.5 125.4,99.4 127.2,99.1 129.0,98.6 130.8,98.1 132.6,97.8 134.4,97.6 136.2,97.4 138.0,97.2 139.8,96.6 141.6,96.1 143.4,95.7 145.2,95.2 147.0,95.0 148.8,94.9 150.6,94.7 152.4,94.3 154.2,94.1 156.0,93.9 157.8,93.7 159.6,93.5 161.4,93.3 163.2,93.1 165.0,93.0 166.8,92.9 168.6,92.4 170.4,92.1 172.2,92.0 174.0,91.8 175.8,91.7 177.6,91.7 179.4,99.8 181.2,99.0 183.0,98.3 184.8,97.6 186.6,95.4 188.4,93.8 190.2,92.2 192.0,91.6 193.8,90.9 195.6,89.7 197.4,88.5 199.2,87.6 201.0,87.3 202.8,86.9 204.6,86.1 206.4,85.4 208.2,85.0 210.0,84.5 211.8,84.3 213.6,84.2 215.4,83.7 217.2,82.9 219.0,82.4 220.8,81.9 222.6,81.3 224.4,81.0 226.2,80.8 228.0,80.2 229.8,79.8 231.6,79.3 233.4,79.0 235.2,78.8 237.0,78.7 238.8,78.4 240.6,78.0 242.4,77.7 244.2,77.4 246.0,77.2 247.8,77.0 249.6,76.7 251.4,76.5 253.2,76.3 255.0,76.1 256.8,75.7 258.6,75.4 260.4,75.0 262.2,74.8 264.0,74.6 265.8,74.4 267.6,74.2 269.4,74.0 271.2,73.5 273.0,73.1 274.8,72.6 276.6,72.4 278.4,72.3 280.2,72.1 282.0,71.9 283.8,71.6 285.6,71.3 287.4,70.9 289.2,70.7 291.0,70.6 292.8,70.4 294.6,70.2 296.4,70.1 298.2,69.8 300.0,69.6 301.8,69.3 303.6,69.1 305.4,69.0 307.2,68.8 309.0,68.7 310.8,68.4 312.6,68.2 314.4,67.9 316.2,67.6 318.0,67.4 319.8,67.2 321.6,67.1 323.4,66.9 325.2,66.5 327.0,66.2 328.8,66.0 330.6,65.7 332.4,65.3 334.2,65.2 336.0,65.0 337.8,64.9 339.6,64.7 341.4,64.5 343.2,64.2 345.0,64.1 346.8,63.9 348.6,63.7 350.4,63.5 352.2,63.3 354.0,63.3 355.8,63.0 357.6,62.7 359.4,62.6 361.2,62.3 363.0,62.2 364.8,62.0 366.6,61.8 368.4,61.7 370.2,61.5 372.0,61.3 373.8,61.0 375.6,60.6 377.4,60.4 379.2,60.2 381.0,60.1 382.8,60.0 384.6,59.8 386.4,59.5 388.2,59.3 390.0,59.2 391.8,58.9 393.6,58.8 395.4,58.5 397.2,58.4 399.0,58.3 400.8,58.0 402.6,57.8 404.4,57.5 406.2,57.2 408.0,57.1 409.8,57.1 411.6,57.0 413.4,56.8 415.2,56.6 417.0,56.4 418.8,56.2 420.6,56.0 422.4,55.9 424.2,55.7 426.0,55.5 427.8,55.4 429.6,55.1 431.4,54.9 433.2,54.7 435.0,54.5 436.8,54.3 438.6,54.2 440.4,54.1 442.2,54.0 444.0,53.9 445.8,53.7 447.6,53.4 449.4,53.2 451.2,53.0 453.0,52.9 454.8,52.7 456.6,52.6 458.4,52.4 460.2,52.2 462.0,52.1 463.8,51.9 465.6,51.7 467.4,51.5 469.2,51.3 471.0,51.2 472.8,51.1 474.6,51.0 476.4,50.8 478.2,50.7 480.0,50.5 481.8,50.5 483.6,50.3 485.4,49.9 487.2,49.7 489.0,54.9 490.8,53.9 492.6,51.9 494.4,51.1 496.2,50.2 498.0,49.1 499.8,48.5 501.6,48.0 503.4,47.3 505.2,46.1 507.0,45.3 508.8,45.0 510.6,44.6 512.4,44.2 514.2,43.6 516.0,43.1 517.8,42.4 519.6,42.1 521.4,41.6 523.2,41.3 525.0,40.9 526.8,40.6 528.6,40.3 530.4,40.0 532.2,39.4 534.0,39.0 535.8,38.5 537.6,37.8 539.4,37.4 541.2,37.1 543.0,36.9 544.8,36.6 546.6,36.2 548.4,35.7 550.2,35.4 552.0,34.3 553.8,33.5 555.6,33.1 557.4,32.9 559.2,32.5 561.0,32.0 562.8,31.5 564.6,31.1 566.4,30.8 568.2,30.4 570.0,30.0" />
  
  <!-- Punto finale luminoso -->
  <circle cx="570.0" cy="30.0" r="4" fill="#ffffff" stroke="#0366d6" stroke-width="2.5" />
</svg>