<svg width="600" height="150" viewBox="0 0 600 150" xmlns="http://www.w3.org/2000/svg">
  <defs>
    <filter id="shadow2" x="-2%" y="-2%" width="104%" height="108%">
      <feDropShadow dx="0" dy="2" stdDeviation="3" flood-opacity="0.1" />
    </filter>
    <linearGradient id="fillGrad" x1="0" y1="0" x2="0" y2="1">
      <stop offset="0%" stop-color="#0366d6" stop-opacity="0.3"/>
      <stop offset="100%" stop-color="#0366d6" stop-opacity="0.02"/>
    </linearGradient>
  </defs>
  <rect width="600" height="150" rx="12" fill="#ffffff" filter="url(#shadow2)" stroke="#e1e4e8" stroke-width="1"/>
  <text x="20" y="24" fill="#2b3137" font-family="-apple-system,BlinkMacSystemFont,'Segoe UI',Helvetica,Arial,sans-serif" font-size="14" font-weight="600">📈 Download Growth (Actual: 71.9k)</text>
  
  <!-- Area sotto la linea -->
  <polygon fill="url(#fillGrad)" points="30.0,120.0,120 30.0,120.0 36.5,118.0 43.0,115.8 49.5,113.9 56.0,113.4 62.5,112.4 69.0,110.0 75.5,108.5 82.0,107.4 88.6,105.0 95.1,103.8 101.6,102.6 108.1,101.9 114.6,100.8 121.1,99.2 127.6,97.4 134.1,96.1 140.6,95.2 147.1,94.6 153.6,93.5 160.1,92.2 166.6,91.1 173.1,90.5 179.6,89.5 186.1,85.7 192.7,84.5 199.2,83.0 205.7,81.5 212.2,80.2 218.7,79.0 225.2,78.1 231.7,77.5 238.2,76.4 244.7,74.6 251.2,73.0 257.7,71.9 264.2,70.6 270.7,70.3 277.2,70.0 283.7,69.3 290.2,68.1 296.7,67.4 303.3,66.8 309.8,65.5 316.3,63.4 322.8,62.9 329.3,62.5 335.8,61.7 342.3,60.1 348.8,59.0 355.3,57.3 361.8,56.1 368.3,54.6 374.8,54.3 381.3,53.4 387.8,51.9 394.3,50.4 400.8,49.2 407.3,48.7 413.9,47.9 420.4,47.2 426.9,45.5 433.4,43.9 439.9,42.5 446.4,41.1 452.9,40.4 459.4,40.0 465.9,39.3 472.4,38.2 478.9,37.4 485.4,36.8 491.9,36.2 498.4,35.7 504.9,34.8 511.4,34.3 518.0,33.9 524.5,33.5 531.0,32.0 537.5,31.1 544.0,30.8 550.5,30.3 557.0,30.0 563.5,30.0 570.0,55.7 570.0,55.7,120" />
  
  <!-- Linea principale -->
  <polyline fill="none" stroke="#0366d6" stroke-width="2.5" stroke-linecap="round" stroke-linejoin="round" points="30.0,120.0 36.5,118.0 43.0,115.8 49.5,113.9 56.0,113.4 62.5,112.4 69.0,110.0 75.5,108.5 82.0,107.4 88.6,105.0 95.1,103.8 101.6,102.6 108.1,101.9 114.6,100.8 121.1,99.2 127.6,97.4 134.1,96.1 140.6,95.2 147.1,94.6 153.6,93.5 160.1,92.2 166.6,91.1 173.1,90.5 179.6,89.5 186.1,85.7 192.7,84.5 199.2,83.0 205.7,81.5 212.2,80.2 218.7,79.0 225.2,78.1 231.7,77.5 238.2,76.4 244.7,74.6 251.2,73.0 257.7,71.9 264.2,70.6 270.7,70.3 277.2,70.0 283.7,69.3 290.2,68.1 296.7,67.4 303.3,66.8 309.8,65.5 316.3,63.4 322.8,62.9 329.3,62.5 335.8,61.7 342.3,60.1 348.8,59.0 355.3,57.3 361.8,56.1 368.3,54.6 374.8,54.3 381.3,53.4 387.8,51.9 394.3,50.4 400.8,49.2 407.3,48.7 413.9,47.9 420.4,47.2 426.9,45.5 433.4,43.9 439.9,42.5 446.4,41.1 452.9,40.4 459.4,40.0 465.9,39.3 472.4,38.2 478.9,37.4 485.4,36.8 491.9,36.2 498.4,35.7 504.9,34.8 511.4,34.3 518.0,33.9 524.5,33.5 531.0,32.0 537.5,31.1 544.0,30.8 550.5,30.3 557.0,30.0 563.5,30.0 570.0,55.7" />
  
  <!-- Punto finale luminoso -->
  <circle cx="570.0" cy="55.7" r="4" fill="#ffffff" stroke="#0366d6" stroke-width="2.5" />
</svg>