<svg width="600" height="150" viewBox="0 0 600 150" xmlns="http://www.w3.org/2000/svg">
  <defs>
    <filter id="shadow2" x="-2%" y="-2%" width="104%" height="108%">
      <feDropShadow dx="0" dy="2" stdDeviation="3" flood-opacity="0.1" />
    </filter>
    <linearGradient id="fillGrad" x1="0" y1="0" x2="0" y2="1">
      <stop offset="0%" stop-color="#0366d6" stop-opacity="0.3"/>
      <stop offset="100%" stop-color="#0366d6" stop-opacity="0.02"/>
    </linearGradient>
  </defs>
  <rect width="600" height="150" rx="12" fill="#ffffff" filter="url(#shadow2)" stroke="#e1e4e8" stroke-width="1"/>
  <text x="20" y="24" fill="#2b3137" font-family="-apple-system,BlinkMacSystemFont,'Segoe UI',Helvetica,Arial,sans-serif" font-size="14" font-weight="600">📈 Download Growth (Actual: 86.0k)</text>
  
  <!-- Area sotto la linea -->
  <polygon fill="url(#fillGrad)" points="30.0,120.0,120 30.0,120.0 31.4,119.5 32.9,118.9 34.3,118.4 35.8,118.3 37.2,118.0 38.7,117.4 40.1,117.0 41.6,116.7 43.0,116.1 44.4,115.8 45.9,115.5 47.3,115.3 48.8,115.0 50.2,114.6 51.7,114.1 53.1,113.8 54.5,113.5 56.0,113.4 57.4,113.1 58.9,112.8 60.3,112.5 61.8,112.3 63.2,112.0 64.7,111.1 66.1,110.8 67.5,110.4 69.0,110.0 70.4,109.6 71.9,109.3 73.3,109.1 74.8,108.9 76.2,108.6 77.6,108.2 79.1,107.8 80.5,107.5 82.0,107.1 83.4,107.0 84.9,107.0 86.3,106.8 87.8,106.5 89.2,106.3 90.6,106.1 92.1,105.8 93.5,105.3 95.0,105.1 96.4,105.0 97.9,104.8 99.3,104.4 100.7,104.1 102.2,103.7 103.6,103.4 105.1,103.0 106.5,102.9 108.0,102.7 109.4,102.3 110.9,101.9 112.3,101.6 113.7,101.4 115.2,101.2 116.6,101.0 118.1,100.6 119.5,100.2 121.0,99.8 122.4,99.4 123.9,99.3 125.3,99.1 126.7,99.0 128.2,98.7 129.6,98.5 131.1,98.3 132.5,98.2 134.0,98.0 135.4,97.8 136.8,97.7 138.3,97.6 139.7,97.5 141.2,97.1 142.6,96.8 144.1,96.8 145.5,96.6 147.0,96.5 148.4,96.5 149.8,103.3 151.3,102.6 152.7,102.0 154.2,101.4 155.6,99.6 157.1,98.3 158.5,96.9 159.9,96.4 161.4,95.8 162.8,94.9 164.3,93.9 165.7,93.1 167.2,92.8 168.6,92.6 170.1,91.8 171.5,91.3 172.9,90.9 174.4,90.5 175.8,90.3 177.3,90.3 178.7,89.9 180.2,89.2 181.6,88.8 183.0,88.3 184.5,87.8 185.9,87.6 187.4,87.4 188.8,87.0 190.3,86.6 191.7,86.2 193.2,85.9 194.6,85.8 196.0,85.7 197.5,85.5 198.9,85.1 200.4,84.9 201.8,84.7 203.3,84.5 204.7,84.3 206.1,84.1 207.6,83.9 209.0,83.8 210.5,83.6 211.9,83.2 213.4,83.0 214.8,82.7 216.3,82.5 217.7,82.3 219.1,82.2 220.6,82.0 222.0,81.9 223.5,81.4 224.9,81.0 226.4,80.6 227.8,80.5 229.3,80.4 230.7,80.3 232.1,80.0 233.6,79.8 235.0,79.6 236.5,79.3 237.9,79.1 239.4,79.0 240.8,78.8 242.2,78.7 243.7,78.5 245.1,78.3 246.6,78.2 248.0,77.9 249.5,77.8 250.9,77.7 252.4,77.5 253.8,77.4 255.2,77.2 256.7,77.0 258.1,76.7 259.6,76.5 261.0,76.3 262.5,76.2 263.9,76.1 265.3,75.9 266.8,75.6 268.2,75.4 269.7,75.2 271.1,74.9 272.6,74.6 274.0,74.5 275.5,74.4 276.9,74.3 278.3,74.1 279.8,73.9 281.2,73.7 282.7,73.6 284.1,73.4 285.6,73.3 287.0,73.1 288.4,73.0 289.9,72.9 291.3,72.7 292.8,72.4 294.2,72.3 295.7,72.1 297.1,72.0 298.6,71.9 300.0,71.7 301.4,71.6 302.9,71.5 304.3,71.3 305.8,71.0 307.2,70.7 308.7,70.5 310.1,70.3 311.6,70.3 313.0,70.2 314.4,70.0 315.9,69.7 317.3,69.6 318.8,69.5 320.2,69.3 321.7,69.2 323.1,69.0 324.5,68.9 326.0,68.8 327.4,68.5 328.9,68.3 330.3,68.1 331.8,67.9 333.2,67.8 334.7,67.8 336.1,67.7 337.5,67.5 339.0,67.4 340.4,67.2 341.9,67.0 343.3,66.9 344.8,66.8 346.2,66.6 347.6,66.5 349.1,66.4 350.5,66.2 352.0,65.9 353.4,65.8 354.9,65.6 356.3,65.5 357.8,65.4 359.2,65.3 360.6,65.2 362.1,65.1 363.5,64.9 365.0,64.7 366.4,64.6 367.9,64.4 369.3,64.3 370.7,64.2 372.2,64.0 373.6,63.8 375.1,63.7 376.5,63.6 378.0,63.5 379.4,63.3 380.9,63.1 382.3,63.0 383.7,62.9 385.2,62.8 386.6,62.7 388.1,62.6 389.5,62.4 391.0,62.3 392.4,62.3 393.9,62.1 395.3,61.8 396.7,61.6 398.2,66.0 399.6,65.1 401.1,63.5 402.5,62.8 404.0,62.1 405.4,61.1 406.8,60.6 408.3,60.3 409.7,59.6 411.2,58.7 412.6,58.0 414.1,57.8 415.5,57.4 417.0,57.1 418.4,56.6 419.8,56.2 421.3,55.6 422.7,55.4 424.2,54.9 425.6,54.6 427.1,54.3 428.5,54.1 429.9,53.8 431.4,53.6 432.8,53.1 434.3,52.8 435.7,52.4 437.2,51.8 438.6,51.4 440.1,51.2 441.5,51.0 442.9,50.8 444.4,50.4 445.8,50.1 447.3,49.8 448.7,48.9 450.2,48.2 451.6,47.9 453.0,47.7 454.5,47.4 455.9,46.9 457.4,46.5 458.8,46.2 460.3,45.9 461.7,45.6 463.2,45.3 464.6,45.0 466.0,44.6 467.5,44.3 468.9,44.2 470.4,44.0 471.8,43.6 473.3,43.3 474.7,43.1 476.1,43.0 477.6,42.8 479.0,42.5 480.5,42.4 481.9,42.1 483.4,42.0 484.8,41.8 486.3,41.6 487.7,41.3 489.1,41.1 490.6,40.8 492.0,40.4 493.5,40.1 494.9,40.0 496.4,39.8 497.8,39.7 499.3,39.5 500.7,39.3 502.1,39.1 503.6,39.0 505.0,38.8 506.5,38.6 507.9,38.5 509.4,38.2 510.8,38.1 512.2,37.9 513.7,37.7 515.1,37.3 516.6,37.0 518.0,36.8 519.5,36.6 520.9,36.4 522.4,36.1 523.8,35.9 525.2,35.6 526.7,35.4 528.1,35.3 529.6,35.2 531.0,35.0 532.5,34.7 533.9,34.5 535.3,34.4 536.8,34.2 538.2,33.9 539.7,33.8 541.1,33.5 542.6,33.3 544.0,33.0 545.5,32.8 546.9,32.6 548.3,32.5 549.8,32.3 551.2,32.1 552.7,31.9 554.1,31.7 555.6,31.5 557.0,31.4 558.4,31.2 559.9,31.1 561.3,30.9 562.8,30.7 564.2,30.6 565.7,30.4 567.1,30.3 568.6,30.2 570.0,30.0 570.0,30.0,120" />
  
  <!-- Linea principale -->
  <polyline fill="none" stroke="#0366d6" stroke-width="2.5" stroke-linecap="round" stroke-linejoin="round" points="30.0,120.0 31.4,119.5 32.9,118.9 34.3,118.4 35.8,118.3 37.2,118.0 38.7,117.4 40.1,117.0 41.6,116.7 43.0,116.1 44.4,115.8 45.9,115.5 47.3,115.3 48.8,115.0 50.2,114.6 51.7,114.1 53.1,113.8 54.5,113.5 56.0,113.4 57.4,113.1 58.9,112.8 60.3,112.5 61.8,112.3 63.2,112.0 64.7,111.1 66.1,110.8 67.5,110.4 69.0,110.0 70.4,109.6 71.9,109.3 73.3,109.1 74.8,108.9 76.2,108.6 77.6,108.2 79.1,107.8 80.5,107.5 82.0,107.1 83.4,107.0 84.9,107.0 86.3,106.8 87.8,106.5 89.2,106.3 90.6,106.1 92.1,105.8 93.5,105.3 95.0,105.1 96.4,105.0 97.9,104.8 99.3,104.4 100.7,104.1 102.2,103.7 103.6,103.4 105.1,103.0 106.5,102.9 108.0,102.7 109.4,102.3 110.9,101.9 112.3,101.6 113.7,101.4 115.2,101.2 116.6,101.0 118.1,100.6 119.5,100.2 121.0,99.8 122.4,99.4 123.9,99.3 125.3,99.1 126.7,99.0 128.2,98.7 129.6,98.5 131.1,98.3 132.5,98.2 134.0,98.0 135.4,97.8 136.8,97.7 138.3,97.6 139.7,97.5 141.2,97.1 142.6,96.8 144.1,96.8 145.5,96.6 147.0,96.5 148.4,96.5 149.8,103.3 151.3,102.6 152.7,102.0 154.2,101.4 155.6,99.6 157.1,98.3 158.5,96.9 159.9,96.4 161.4,95.8 162.8,94.9 164.3,93.9 165.7,93.1 167.2,92.8 168.6,92.6 170.1,91.8 171.5,91.3 172.9,90.9 174.4,90.5 175.8,90.3 177.3,90.3 178.7,89.9 180.2,89.2 181.6,88.8 183.0,88.3 184.5,87.8 185.9,87.6 187.4,87.4 188.8,87.0 190.3,86.6 191.7,86.2 193.2,85.9 194.6,85.8 196.0,85.7 197.5,85.5 198.9,85.1 200.4,84.9 201.8,84.7 203.3,84.5 204.7,84.3 206.1,84.1 207.6,83.9 209.0,83.8 210.5,83.6 211.9,83.2 213.4,83.0 214.8,82.7 216.3,82.5 217.7,82.3 219.1,82.2 220.6,82.0 222.0,81.9 223.5,81.4 224.9,81.0 226.4,80.6 227.8,80.5 229.3,80.4 230.7,80.3 232.1,80.0 233.6,79.8 235.0,79.6 236.5,79.3 237.9,79.1 239.4,79.0 240.8,78.8 242.2,78.7 243.7,78.5 245.1,78.3 246.6,78.2 248.0,77.9 249.5,77.8 250.9,77.7 252.4,77.5 253.8,77.4 255.2,77.2 256.7,77.0 258.1,76.7 259.6,76.5 261.0,76.3 262.5,76.2 263.9,76.1 265.3,75.9 266.8,75.6 268.2,75.4 269.7,75.2 271.1,74.9 272.6,74.6 274.0,74.5 275.5,74.4 276.9,74.3 278.3,74.1 279.8,73.9 281.2,73.7 282.7,73.6 284.1,73.4 285.6,73.3 287.0,73.1 288.4,73.0 289.9,72.9 291.3,72.7 292.8,72.4 294.2,72.3 295.7,72.1 297.1,72.0 298.6,71.9 300.0,71.7 301.4,71.6 302.9,71.5 304.3,71.3 305.8,71.0 307.2,70.7 308.7,70.5 310.1,70.3 311.6,70.3 313.0,70.2 314.4,70.0 315.9,69.7 317.3,69.6 318.8,69.5 320.2,69.3 321.7,69.2 323.1,69.0 324.5,68.9 326.0,68.8 327.4,68.5 328.9,68.3 330.3,68.1 331.8,67.9 333.2,67.8 334.7,67.8 336.1,67.7 337.5,67.5 339.0,67.4 340.4,67.2 341.9,67.0 343.3,66.9 344.8,66.8 346.2,66.6 347.6,66.5 349.1,66.4 350.5,66.2 352.0,65.9 353.4,65.8 354.9,65.6 356.3,65.5 357.8,65.4 359.2,65.3 360.6,65.2 362.1,65.1 363.5,64.9 365.0,64.7 366.4,64.6 367.9,64.4 369.3,64.3 370.7,64.2 372.2,64.0 373.6,63.8 375.1,63.7 376.5,63.6 378.0,63.5 379.4,63.3 380.9,63.1 382.3,63.0 383.7,62.9 385.2,62.8 386.6,62.7 388.1,62.6 389.5,62.4 391.0,62.3 392.4,62.3 393.9,62.1 395.3,61.8 396.7,61.6 398.2,66.0 399.6,65.1 401.1,63.5 402.5,62.8 404.0,62.1 405.4,61.1 406.8,60.6 408.3,60.3 409.7,59.6 411.2,58.7 412.6,58.0 414.1,57.8 415.5,57.4 417.0,57.1 418.4,56.6 419.8,56.2 421.3,55.6 422.7,55.4 424.2,54.9 425.6,54.6 427.1,54.3 428.5,54.1 429.9,53.8 431.4,53.6 432.8,53.1 434.3,52.8 435.7,52.4 437.2,51.8 438.6,51.4 440.1,51.2 441.5,51.0 442.9,50.8 444.4,50.4 445.8,50.1 447.3,49.8 448.7,48.9 450.2,48.2 451.6,47.9 453.0,47.7 454.5,47.4 455.9,46.9 457.4,46.5 458.8,46.2 460.3,45.9 461.7,45.6 463.2,45.3 464.6,45.0 466.0,44.6 467.5,44.3 468.9,44.2 470.4,44.0 471.8,43.6 473.3,43.3 474.7,43.1 476.1,43.0 477.6,42.8 479.0,42.5 480.5,42.4 481.9,42.1 483.4,42.0 484.8,41.8 486.3,41.6 487.7,41.3 489.1,41.1 490.6,40.8 492.0,40.4 493.5,40.1 494.9,40.0 496.4,39.8 497.8,39.7 499.3,39.5 500.7,39.3 502.1,39.1 503.6,39.0 505.0,38.8 506.5,38.6 507.9,38.5 509.4,38.2 510.8,38.1 512.2,37.9 513.7,37.7 515.1,37.3 516.6,37.0 518.0,36.8 519.5,36.6 520.9,36.4 522.4,36.1 523.8,35.9 525.2,35.6 526.7,35.4 528.1,35.3 529.6,35.2 531.0,35.0 532.5,34.7 533.9,34.5 535.3,34.4 536.8,34.2 538.2,33.9 539.7,33.8 541.1,33.5 542.6,33.3 544.0,33.0 545.5,32.8 546.9,32.6 548.3,32.5 549.8,32.3 551.2,32.1 552.7,31.9 554.1,31.7 555.6,31.5 557.0,31.4 558.4,31.2 559.9,31.1 561.3,30.9 562.8,30.7 564.2,30.6 565.7,30.4 567.1,30.3 568.6,30.2 570.0,30.0" />
  
  <!-- Punto finale luminoso -->
  <circle cx="570.0" cy="30.0" r="4" fill="#ffffff" stroke="#0366d6" stroke-width="2.5" />
</svg>