<svg width="600" height="150" viewBox="0 0 600 150" xmlns="http://www.w3.org/2000/svg">
  <defs>
    <filter id="shadow2" x="-2%" y="-2%" width="104%" height="108%">
      <feDropShadow dx="0" dy="2" stdDeviation="3" flood-opacity="0.1" />
    </filter>
    <linearGradient id="fillGrad" x1="0" y1="0" x2="0" y2="1">
      <stop offset="0%" stop-color="#0366d6" stop-opacity="0.3"/>
      <stop offset="100%" stop-color="#0366d6" stop-opacity="0.02"/>
    </linearGradient>
  </defs>
  <rect width="600" height="150" rx="12" fill="#ffffff" filter="url(#shadow2)" stroke="#e1e4e8" stroke-width="1"/>
  <text x="20" y="24" fill="#2b3137" font-family="-apple-system,BlinkMacSystemFont,'Segoe UI',Helvetica,Arial,sans-serif" font-size="14" font-weight="600">📈 Download Growth (Actual: 88.0k)</text>
  
  <!-- Area sotto la linea -->
  <polygon fill="url(#fillGrad)" points="30.0,120.0,120 30.0,120.0 31.3,119.5 32.6,119.0 33.8,118.6 35.1,118.4 36.4,118.2 37.7,117.6 38.9,117.3 40.2,117.0 41.5,116.4 42.8,116.2 44.0,115.9 45.3,115.7 46.6,115.4 47.9,115.1 49.1,114.7 50.4,114.3 51.7,114.1 53.0,114.0 54.3,113.7 55.5,113.4 56.8,113.2 58.1,113.0 59.4,112.8 60.6,111.9 61.9,111.6 63.2,111.2 64.5,110.9 65.7,110.6 67.0,110.3 68.3,110.1 69.6,109.9 70.9,109.7 72.1,109.2 73.4,108.9 74.7,108.6 76.0,108.3 77.2,108.2 78.5,108.2 79.8,108.0 81.1,107.7 82.3,107.5 83.6,107.4 84.9,107.1 86.2,106.6 87.4,106.5 88.7,106.4 90.0,106.2 91.3,105.8 92.6,105.6 93.8,105.2 95.1,104.9 96.4,104.5 97.7,104.5 98.9,104.2 100.2,103.9 101.5,103.5 102.8,103.2 104.0,103.1 105.3,102.9 106.6,102.8 107.9,102.4 109.1,102.0 110.4,101.7 111.7,101.3 113.0,101.2 114.3,101.1 115.5,100.9 116.8,100.6 118.1,100.5 119.4,100.3 120.6,100.2 121.9,100.0 123.2,99.8 124.5,99.7 125.7,99.6 127.0,99.5 128.3,99.2 129.6,99.0 130.9,98.9 132.1,98.8 133.4,98.7 134.7,98.7 136.0,104.8 137.2,104.2 138.5,103.6 139.8,103.1 141.1,101.4 142.3,100.3 143.6,99.0 144.9,98.6 146.2,98.0 147.4,97.2 148.7,96.3 150.0,95.6 151.3,95.3 152.6,95.1 153.8,94.4 155.1,93.9 156.4,93.6 157.7,93.2 158.9,93.0 160.2,93.0 161.5,92.6 162.8,92.1 164.0,91.7 165.3,91.2 166.6,90.8 167.9,90.6 169.1,90.4 170.4,90.0 171.7,89.7 173.0,89.3 174.3,89.1 175.5,88.9 176.8,88.8 178.1,88.6 179.4,88.3 180.6,88.1 181.9,87.9 183.2,87.7 184.5,87.5 185.7,87.4 187.0,87.2 188.3,87.1 189.6,86.9 190.9,86.6 192.1,86.4 193.4,86.1 194.7,85.9 196.0,85.8 197.2,85.6 198.5,85.5 199.8,85.3 201.1,84.9 202.3,84.6 203.6,84.2 204.9,84.1 206.2,84.1 207.4,83.9 208.7,83.7 210.0,83.5 211.3,83.3 212.6,83.0 213.8,82.8 215.1,82.7 216.4,82.6 217.7,82.5 218.9,82.3 220.2,82.2 221.5,82.0 222.8,81.7 224.0,81.6 225.3,81.5 226.6,81.4 227.9,81.3 229.1,81.1 230.4,80.9 231.7,80.7 233.0,80.5 234.3,80.3 235.5,80.2 236.8,80.1 238.1,80.0 239.4,79.7 240.6,79.4 241.9,79.3 243.2,79.1 244.5,78.7 245.7,78.7 247.0,78.5 248.3,78.5 249.6,78.3 250.9,78.1 252.1,78.0 253.4,77.8 254.7,77.7 256.0,77.5 257.2,77.4 258.5,77.3 259.8,77.2 261.1,77.0 262.3,76.8 263.6,76.7 264.9,76.5 266.2,76.4 267.4,76.3 268.7,76.1 270.0,76.0 271.3,75.9 272.6,75.8 273.8,75.5 275.1,75.2 276.4,75.0 277.7,74.9 278.9,74.8 280.2,74.8 281.5,74.6 282.8,74.3 284.0,74.2 285.3,74.1 286.6,74.0 287.9,73.8 289.1,73.6 290.4,73.6 291.7,73.4 293.0,73.2 294.3,73.1 295.5,72.9 296.8,72.7 298.1,72.6 299.4,72.5 300.6,72.5 301.9,72.3 303.2,72.2 304.5,72.0 305.7,71.9 307.0,71.7 308.3,71.6 309.6,71.5 310.9,71.4 312.1,71.3 313.4,71.1 314.7,70.9 316.0,70.7 317.2,70.6 318.5,70.5 319.8,70.4 321.1,70.3 322.3,70.2 323.6,70.1 324.9,70.0 326.2,69.8 327.4,69.6 328.7,69.5 330.0,69.4 331.3,69.3 332.6,69.1 333.8,69.0 335.1,68.9 336.4,68.8 337.7,68.6 338.9,68.5 340.2,68.3 341.5,68.2 342.8,68.1 344.0,68.0 345.3,67.9 346.6,67.8 347.9,67.7 349.1,67.6 350.4,67.6 351.7,67.4 353.0,67.1 354.3,67.0 355.5,70.9 356.8,70.2 358.1,68.7 359.4,68.1 360.6,67.4 361.9,66.5 363.2,66.1 364.5,65.7 365.7,65.2 367.0,64.3 368.3,63.7 369.6,63.5 370.9,63.1 372.1,62.9 373.4,62.4 374.7,62.0 376.0,61.5 377.2,61.3 378.5,60.8 379.8,60.6 381.1,60.3 382.3,60.1 383.6,59.9 384.9,59.7 386.2,59.2 387.4,59.0 388.7,58.6 390.0,58.0 391.3,57.7 392.6,57.5 393.8,57.3 395.1,57.1 396.4,56.8 397.7,56.5 398.9,56.2 400.2,55.4 401.5,54.8 402.8,54.5 404.0,54.3 405.3,54.0 406.6,53.6 407.9,53.2 409.1,53.0 410.4,52.7 411.7,52.4 413.0,52.1 414.3,51.9 415.5,51.5 416.8,51.3 418.1,51.1 419.4,51.0 420.6,50.6 421.9,50.3 423.2,50.1 424.5,50.0 425.7,49.9 427.0,49.6 428.3,49.5 429.6,49.3 430.9,49.1 432.1,48.9 433.4,48.8 434.7,48.5 436.0,48.4 437.2,48.1 438.5,47.7 439.8,47.5 441.1,47.3 442.3,47.1 443.6,47.0 444.9,46.8 446.2,46.7 447.4,46.5 448.7,46.4 450.0,46.3 451.3,46.1 452.6,46.0 453.8,45.7 455.1,45.6 456.4,45.4 457.7,45.2 458.9,44.9 460.2,44.6 461.5,44.4 462.8,44.2 464.0,44.0 465.3,43.8 466.6,43.6 467.9,43.3 469.1,43.2 470.4,43.1 471.7,43.0 473.0,42.8 474.3,42.5 475.5,42.4 476.8,42.3 478.1,42.0 479.4,41.8 480.6,41.7 481.9,41.4 483.2,41.2 484.5,41.0 485.7,40.7 487.0,40.6 488.3,40.5 489.6,40.3 490.9,40.2 492.1,40.0 493.4,39.8 494.7,39.6 496.0,39.5 497.2,39.3 498.5,39.2 499.8,39.0 501.1,38.9 502.3,38.8 503.6,38.6 504.9,38.5 506.2,38.4 507.4,38.2 508.7,38.1 510.0,37.9 511.3,37.8 512.6,37.6 513.8,37.5 515.1,37.2 516.4,37.1 517.7,37.0 518.9,36.9 520.2,36.6 521.5,36.5 522.8,36.2 524.0,36.1 525.3,36.0 526.6,35.9 527.9,35.8 529.1,35.6 530.4,35.4 531.7,35.1 533.0,35.0 534.3,34.8 535.5,34.7 536.8,34.6 538.1,34.4 539.4,34.3 540.6,34.1 541.9,33.9 543.2,33.8 544.5,33.5 545.7,33.3 547.0,33.1 548.3,32.9 549.6,32.8 550.9,32.6 552.1,32.4 553.4,32.2 554.7,32.0 556.0,31.9 557.2,31.7 558.5,31.5 559.8,31.4 561.1,31.2 562.3,31.1 563.6,30.9 564.9,30.6 566.2,30.5 567.4,30.3 568.7,30.2 570.0,30.0 570.0,30.0,120" />
  
  <!-- Linea principale -->
  <polyline fill="none" stroke="#0366d6" stroke-width="2.5" stroke-linecap="round" stroke-linejoin="round" points="30.0,120.0 31.3,119.5 32.6,119.0 33.8,118.6 35.1,118.4 36.4,118.2 37.7,117.6 38.9,117.3 40.2,117.0 41.5,116.4 42.8,116.2 44.0,115.9 45.3,115.7 46.6,115.4 47.9,115.1 49.1,114.7 50.4,114.3 51.7,114.1 53.0,114.0 54.3,113.7 55.5,113.4 56.8,113.2 58.1,113.0 59.4,112.8 60.6,111.9 61.9,111.6 63.2,111.2 64.5,110.9 65.7,110.6 67.0,110.3 68.3,110.1 69.6,109.9 70.9,109.7 72.1,109.2 73.4,108.9 74.7,108.6 76.0,108.3 77.2,108.2 78.5,108.2 79.8,108.0 81.1,107.7 82.3,107.5 83.6,107.4 84.9,107.1 86.2,106.6 87.4,106.5 88.7,106.4 90.0,106.2 91.3,105.8 92.6,105.6 93.8,105.2 95.1,104.9 96.4,104.5 97.7,104.5 98.9,104.2 100.2,103.9 101.5,103.5 102.8,103.2 104.0,103.1 105.3,102.9 106.6,102.8 107.9,102.4 109.1,102.0 110.4,101.7 111.7,101.3 113.0,101.2 114.3,101.1 115.5,100.9 116.8,100.6 118.1,100.5 119.4,100.3 120.6,100.2 121.9,100.0 123.2,99.8 124.5,99.7 125.7,99.6 127.0,99.5 128.3,99.2 129.6,99.0 130.9,98.9 132.1,98.8 133.4,98.7 134.7,98.7 136.0,104.8 137.2,104.2 138.5,103.6 139.8,103.1 141.1,101.4 142.3,100.3 143.6,99.0 144.9,98.6 146.2,98.0 147.4,97.2 148.7,96.3 150.0,95.6 151.3,95.3 152.6,95.1 153.8,94.4 155.1,93.9 156.4,93.6 157.7,93.2 158.9,93.0 160.2,93.0 161.5,92.6 162.8,92.1 164.0,91.7 165.3,91.2 166.6,90.8 167.9,90.6 169.1,90.4 170.4,90.0 171.7,89.7 173.0,89.3 174.3,89.1 175.5,88.9 176.8,88.8 178.1,88.6 179.4,88.3 180.6,88.1 181.9,87.9 183.2,87.7 184.5,87.5 185.7,87.4 187.0,87.2 188.3,87.1 189.6,86.9 190.9,86.6 192.1,86.4 193.4,86.1 194.7,85.9 196.0,85.8 197.2,85.6 198.5,85.5 199.8,85.3 201.1,84.9 202.3,84.6 203.6,84.2 204.9,84.1 206.2,84.1 207.4,83.9 208.7,83.7 210.0,83.5 211.3,83.3 212.6,83.0 213.8,82.8 215.1,82.7 216.4,82.6 217.7,82.5 218.9,82.3 220.2,82.2 221.5,82.0 222.8,81.7 224.0,81.6 225.3,81.5 226.6,81.4 227.9,81.3 229.1,81.1 230.4,80.9 231.7,80.7 233.0,80.5 234.3,80.3 235.5,80.2 236.8,80.1 238.1,80.0 239.4,79.7 240.6,79.4 241.9,79.3 243.2,79.1 244.5,78.7 245.7,78.7 247.0,78.5 248.3,78.5 249.6,78.3 250.9,78.1 252.1,78.0 253.4,77.8 254.7,77.7 256.0,77.5 257.2,77.4 258.5,77.3 259.8,77.2 261.1,77.0 262.3,76.8 263.6,76.7 264.9,76.5 266.2,76.4 267.4,76.3 268.7,76.1 270.0,76.0 271.3,75.9 272.6,75.8 273.8,75.5 275.1,75.2 276.4,75.0 277.7,74.9 278.9,74.8 280.2,74.8 281.5,74.6 282.8,74.3 284.0,74.2 285.3,74.1 286.6,74.0 287.9,73.8 289.1,73.6 290.4,73.6 291.7,73.4 293.0,73.2 294.3,73.1 295.5,72.9 296.8,72.7 298.1,72.6 299.4,72.5 300.6,72.5 301.9,72.3 303.2,72.2 304.5,72.0 305.7,71.9 307.0,71.7 308.3,71.6 309.6,71.5 310.9,71.4 312.1,71.3 313.4,71.1 314.7,70.9 316.0,70.7 317.2,70.6 318.5,70.5 319.8,70.4 321.1,70.3 322.3,70.2 323.6,70.1 324.9,70.0 326.2,69.8 327.4,69.6 328.7,69.5 330.0,69.4 331.3,69.3 332.6,69.1 333.8,69.0 335.1,68.9 336.4,68.8 337.7,68.6 338.9,68.5 340.2,68.3 341.5,68.2 342.8,68.1 344.0,68.0 345.3,67.9 346.6,67.8 347.9,67.7 349.1,67.6 350.4,67.6 351.7,67.4 353.0,67.1 354.3,67.0 355.5,70.9 356.8,70.2 358.1,68.7 359.4,68.1 360.6,67.4 361.9,66.5 363.2,66.1 364.5,65.7 365.7,65.2 367.0,64.3 368.3,63.7 369.6,63.5 370.9,63.1 372.1,62.9 373.4,62.4 374.7,62.0 376.0,61.5 377.2,61.3 378.5,60.8 379.8,60.6 381.1,60.3 382.3,60.1 383.6,59.9 384.9,59.7 386.2,59.2 387.4,59.0 388.7,58.6 390.0,58.0 391.3,57.7 392.6,57.5 393.8,57.3 395.1,57.1 396.4,56.8 397.7,56.5 398.9,56.2 400.2,55.4 401.5,54.8 402.8,54.5 404.0,54.3 405.3,54.0 406.6,53.6 407.9,53.2 409.1,53.0 410.4,52.7 411.7,52.4 413.0,52.1 414.3,51.9 415.5,51.5 416.8,51.3 418.1,51.1 419.4,51.0 420.6,50.6 421.9,50.3 423.2,50.1 424.5,50.0 425.7,49.9 427.0,49.6 428.3,49.5 429.6,49.3 430.9,49.1 432.1,48.9 433.4,48.8 434.7,48.5 436.0,48.4 437.2,48.1 438.5,47.7 439.8,47.5 441.1,47.3 442.3,47.1 443.6,47.0 444.9,46.8 446.2,46.7 447.4,46.5 448.7,46.4 450.0,46.3 451.3,46.1 452.6,46.0 453.8,45.7 455.1,45.6 456.4,45.4 457.7,45.2 458.9,44.9 460.2,44.6 461.5,44.4 462.8,44.2 464.0,44.0 465.3,43.8 466.6,43.6 467.9,43.3 469.1,43.2 470.4,43.1 471.7,43.0 473.0,42.8 474.3,42.5 475.5,42.4 476.8,42.3 478.1,42.0 479.4,41.8 480.6,41.7 481.9,41.4 483.2,41.2 484.5,41.0 485.7,40.7 487.0,40.6 488.3,40.5 489.6,40.3 490.9,40.2 492.1,40.0 493.4,39.8 494.7,39.6 496.0,39.5 497.2,39.3 498.5,39.2 499.8,39.0 501.1,38.9 502.3,38.8 503.6,38.6 504.9,38.5 506.2,38.4 507.4,38.2 508.7,38.1 510.0,37.9 511.3,37.8 512.6,37.6 513.8,37.5 515.1,37.2 516.4,37.1 517.7,37.0 518.9,36.9 520.2,36.6 521.5,36.5 522.8,36.2 524.0,36.1 525.3,36.0 526.6,35.9 527.9,35.8 529.1,35.6 530.4,35.4 531.7,35.1 533.0,35.0 534.3,34.8 535.5,34.7 536.8,34.6 538.1,34.4 539.4,34.3 540.6,34.1 541.9,33.9 543.2,33.8 544.5,33.5 545.7,33.3 547.0,33.1 548.3,32.9 549.6,32.8 550.9,32.6 552.1,32.4 553.4,32.2 554.7,32.0 556.0,31.9 557.2,31.7 558.5,31.5 559.8,31.4 561.1,31.2 562.3,31.1 563.6,30.9 564.9,30.6 566.2,30.5 567.4,30.3 568.7,30.2 570.0,30.0" />
  
  <!-- Punto finale luminoso -->
  <circle cx="570.0" cy="30.0" r="4" fill="#ffffff" stroke="#0366d6" stroke-width="2.5" />
</svg>