<svg width="600" height="150" viewBox="0 0 600 150" xmlns="http://www.w3.org/2000/svg">
  <defs>
    <filter id="shadow2" x="-2%" y="-2%" width="104%" height="108%">
      <feDropShadow dx="0" dy="2" stdDeviation="3" flood-opacity="0.1" />
    </filter>
    <linearGradient id="fillGrad" x1="0" y1="0" x2="0" y2="1">
      <stop offset="0%" stop-color="#0366d6" stop-opacity="0.3"/>
      <stop offset="100%" stop-color="#0366d6" stop-opacity="0.02"/>
    </linearGradient>
  </defs>
  <rect width="600" height="150" rx="12" fill="#ffffff" filter="url(#shadow2)" stroke="#e1e4e8" stroke-width="1"/>
  <text x="20" y="24" fill="#2b3137" font-family="-apple-system,BlinkMacSystemFont,'Segoe UI',Helvetica,Arial,sans-serif" font-size="14" font-weight="600">📈 Download Growth (Actual: 86.0k)</text>
  
  <!-- Area sotto la linea -->
  <polygon fill="url(#fillGrad)" points="30.0,120.0,120 30.0,120.0 31.5,119.5 32.9,118.9 34.4,118.4 35.8,118.3 37.3,118.0 38.7,117.4 40.2,117.0 41.6,116.7 43.1,116.1 44.6,115.8 46.0,115.4 47.5,115.3 48.9,115.0 50.4,114.5 51.8,114.1 53.3,113.7 54.7,113.5 56.2,113.3 57.7,113.1 59.1,112.7 60.6,112.4 62.0,112.3 63.5,112.0 64.9,111.0 66.4,110.7 67.8,110.3 69.3,109.9 70.8,109.6 72.2,109.3 73.7,109.0 75.1,108.9 76.6,108.6 78.0,108.1 79.5,107.7 80.9,107.4 82.4,107.1 83.9,107.0 85.3,106.9 86.8,106.7 88.2,106.4 89.7,106.2 91.1,106.1 92.6,105.7 94.0,105.2 95.5,105.1 97.0,105.0 98.4,104.7 99.9,104.3 101.3,104.0 102.8,103.6 104.2,103.3 105.7,102.9 107.1,102.8 108.6,102.6 110.1,102.2 111.5,101.8 113.0,101.5 114.4,101.3 115.9,101.1 117.3,101.0 118.8,100.5 120.2,100.1 121.7,99.7 123.2,99.3 124.6,99.2 126.1,99.0 127.5,98.9 129.0,98.6 130.4,98.4 131.9,98.2 133.3,98.1 134.8,97.9 136.3,97.7 137.7,97.6 139.2,97.5 140.6,97.4 142.1,97.0 143.5,96.7 145.0,96.7 146.4,96.5 147.9,96.4 149.4,96.4 150.8,103.2 152.3,102.5 153.7,101.9 155.2,101.3 156.6,99.5 158.1,98.2 159.5,96.8 161.0,96.3 162.5,95.7 163.9,94.8 165.4,93.7 166.8,93.0 168.3,92.7 169.7,92.4 171.2,91.7 172.6,91.1 174.1,90.8 175.6,90.4 177.0,90.2 178.5,90.1 179.9,89.7 181.4,89.1 182.8,88.6 184.3,88.2 185.7,87.7 187.2,87.4 188.7,87.3 190.1,86.8 191.6,86.4 193.0,86.1 194.5,85.8 195.9,85.6 197.4,85.5 198.8,85.3 200.3,85.0 201.8,84.7 203.2,84.5 204.7,84.3 206.1,84.1 207.6,83.9 209.0,83.7 210.5,83.6 211.9,83.4 213.4,83.1 214.9,82.8 216.3,82.5 217.8,82.3 219.2,82.1 220.7,82.0 222.1,81.8 223.6,81.7 225.0,81.2 226.5,80.9 228.0,80.5 229.4,80.3 230.9,80.3 232.3,80.1 233.8,79.9 235.2,79.6 236.7,79.4 238.1,79.1 239.6,78.9 241.1,78.8 242.5,78.6 244.0,78.5 245.4,78.3 246.9,78.2 248.3,78.0 249.8,77.7 251.2,77.6 252.7,77.5 254.2,77.3 255.6,77.2 257.1,77.0 258.5,76.8 260.0,76.5 261.4,76.3 262.9,76.1 264.3,76.0 265.8,75.9 267.3,75.7 268.7,75.4 270.2,75.1 271.6,74.9 273.1,74.7 274.5,74.4 276.0,74.3 277.4,74.2 278.9,74.1 280.4,73.9 281.8,73.7 283.3,73.5 284.7,73.4 286.2,73.2 287.6,73.0 289.1,72.9 290.5,72.8 292.0,72.7 293.5,72.5 294.9,72.2 296.4,72.1 297.8,71.9 299.3,71.8 300.7,71.6 302.2,71.5 303.6,71.4 305.1,71.2 306.5,71.1 308.0,70.8 309.5,70.5 310.9,70.3 312.4,70.1 313.8,70.0 315.3,70.0 316.7,69.8 318.2,69.5 319.6,69.4 321.1,69.3 322.6,69.1 324.0,68.9 325.5,68.7 326.9,68.6 328.4,68.5 329.8,68.3 331.3,68.1 332.7,67.9 334.2,67.7 335.7,67.6 337.1,67.5 338.6,67.4 340.0,67.3 341.5,67.1 342.9,67.0 344.4,66.8 345.8,66.6 347.3,66.5 348.8,66.4 350.2,66.2 351.7,66.1 353.1,65.9 354.6,65.7 356.0,65.5 357.5,65.3 358.9,65.2 360.4,65.1 361.9,65.0 363.3,64.9 364.8,64.8 366.2,64.7 367.7,64.4 369.1,64.3 370.6,64.1 372.0,64.0 373.5,63.9 375.0,63.8 376.4,63.6 377.9,63.5 379.3,63.3 380.8,63.2 382.2,63.0 383.7,62.9 385.1,62.7 386.6,62.6 388.1,62.5 389.5,62.4 391.0,62.3 392.4,62.2 393.9,62.0 395.3,62.0 396.8,61.9 398.2,61.5 399.7,61.3 401.2,65.7 402.6,64.9 404.1,63.2 405.5,62.6 407.0,61.8 408.4,60.9 409.9,60.3 411.3,60.0 412.8,59.4 414.3,58.4 415.7,57.7 417.2,57.5 418.6,57.1 420.1,56.8 421.5,56.3 423.0,55.9 424.4,55.3 425.9,55.1 427.4,54.6 428.8,54.3 430.3,54.0 431.7,53.8 433.2,53.5 434.6,53.3 436.1,52.8 437.5,52.5 439.0,52.0 440.5,51.4 441.9,51.1 443.4,50.9 444.8,50.7 446.3,50.5 447.7,50.1 449.2,49.7 450.6,49.4 452.1,48.5 453.6,47.8 455.0,47.5 456.5,47.3 457.9,47.0 459.4,46.6 460.8,46.2 462.3,45.9 463.7,45.6 465.2,45.2 466.7,44.9 468.1,44.6 469.6,44.2 471.0,44.0 472.5,43.8 473.9,43.6 475.4,43.2 476.8,43.0 478.3,42.7 479.8,42.6 481.2,42.4 482.7,42.1 484.1,42.0 485.6,41.8 487.0,41.6 488.5,41.4 489.9,41.3 491.4,41.0 492.9,40.8 494.3,40.4 495.8,40.1 497.2,39.8 498.7,39.6 500.1,39.4 501.6,39.3 503.0,39.1 504.5,38.9 506.0,38.7 507.4,38.6 508.9,38.5 510.3,38.3 511.8,38.1 513.2,37.8 514.7,37.7 516.1,37.5 517.6,37.3 519.1,37.0 520.5,36.6 522.0,36.4 523.4,36.2 524.9,36.0 526.3,35.7 527.8,35.5 529.2,35.2 530.7,35.0 532.2,34.9 533.6,34.8 535.1,34.6 536.5,34.3 538.0,34.1 539.4,34.0 540.9,33.8 542.3,33.5 543.8,33.4 545.3,33.1 546.7,32.9 548.2,32.6 549.6,32.3 551.1,32.2 552.5,32.0 554.0,31.9 555.4,31.7 556.9,31.5 558.4,31.3 559.8,31.1 561.3,30.9 562.7,30.8 564.2,30.6 565.6,30.4 567.1,30.3 568.5,30.1 570.0,30.0 570.0,30.0,120" />
  
  <!-- Linea principale -->
  <polyline fill="none" stroke="#0366d6" stroke-width="2.5" stroke-linecap="round" stroke-linejoin="round" points="30.0,120.0 31.5,119.5 32.9,118.9 34.4,118.4 35.8,118.3 37.3,118.0 38.7,117.4 40.2,117.0 41.6,116.7 43.1,116.1 44.6,115.8 46.0,115.4 47.5,115.3 48.9,115.0 50.4,114.5 51.8,114.1 53.3,113.7 54.7,113.5 56.2,113.3 57.7,113.1 59.1,112.7 60.6,112.4 62.0,112.3 63.5,112.0 64.9,111.0 66.4,110.7 67.8,110.3 69.3,109.9 70.8,109.6 72.2,109.3 73.7,109.0 75.1,108.9 76.6,108.6 78.0,108.1 79.5,107.7 80.9,107.4 82.4,107.1 83.9,107.0 85.3,106.9 86.8,106.7 88.2,106.4 89.7,106.2 91.1,106.1 92.6,105.7 94.0,105.2 95.5,105.1 97.0,105.0 98.4,104.7 99.9,104.3 101.3,104.0 102.8,103.6 104.2,103.3 105.7,102.9 107.1,102.8 108.6,102.6 110.1,102.2 111.5,101.8 113.0,101.5 114.4,101.3 115.9,101.1 117.3,101.0 118.8,100.5 120.2,100.1 121.7,99.7 123.2,99.3 124.6,99.2 126.1,99.0 127.5,98.9 129.0,98.6 130.4,98.4 131.9,98.2 133.3,98.1 134.8,97.9 136.3,97.7 137.7,97.6 139.2,97.5 140.6,97.4 142.1,97.0 143.5,96.7 145.0,96.7 146.4,96.5 147.9,96.4 149.4,96.4 150.8,103.2 152.3,102.5 153.7,101.9 155.2,101.3 156.6,99.5 158.1,98.2 159.5,96.8 161.0,96.3 162.5,95.7 163.9,94.8 165.4,93.7 166.8,93.0 168.3,92.7 169.7,92.4 171.2,91.7 172.6,91.1 174.1,90.8 175.6,90.4 177.0,90.2 178.5,90.1 179.9,89.7 181.4,89.1 182.8,88.6 184.3,88.2 185.7,87.7 187.2,87.4 188.7,87.3 190.1,86.8 191.6,86.4 193.0,86.1 194.5,85.8 195.9,85.6 197.4,85.5 198.8,85.3 200.3,85.0 201.8,84.7 203.2,84.5 204.7,84.3 206.1,84.1 207.6,83.9 209.0,83.7 210.5,83.6 211.9,83.4 213.4,83.1 214.9,82.8 216.3,82.5 217.8,82.3 219.2,82.1 220.7,82.0 222.1,81.8 223.6,81.7 225.0,81.2 226.5,80.9 228.0,80.5 229.4,80.3 230.9,80.3 232.3,80.1 233.8,79.9 235.2,79.6 236.7,79.4 238.1,79.1 239.6,78.9 241.1,78.8 242.5,78.6 244.0,78.5 245.4,78.3 246.9,78.2 248.3,78.0 249.8,77.7 251.2,77.6 252.7,77.5 254.2,77.3 255.6,77.2 257.1,77.0 258.5,76.8 260.0,76.5 261.4,76.3 262.9,76.1 264.3,76.0 265.8,75.9 267.3,75.7 268.7,75.4 270.2,75.1 271.6,74.9 273.1,74.7 274.5,74.4 276.0,74.3 277.4,74.2 278.9,74.1 280.4,73.9 281.8,73.7 283.3,73.5 284.7,73.4 286.2,73.2 287.6,73.0 289.1,72.9 290.5,72.8 292.0,72.7 293.5,72.5 294.9,72.2 296.4,72.1 297.8,71.9 299.3,71.8 300.7,71.6 302.2,71.5 303.6,71.4 305.1,71.2 306.5,71.1 308.0,70.8 309.5,70.5 310.9,70.3 312.4,70.1 313.8,70.0 315.3,70.0 316.7,69.8 318.2,69.5 319.6,69.4 321.1,69.3 322.6,69.1 324.0,68.9 325.5,68.7 326.9,68.6 328.4,68.5 329.8,68.3 331.3,68.1 332.7,67.9 334.2,67.7 335.7,67.6 337.1,67.5 338.6,67.4 340.0,67.3 341.5,67.1 342.9,67.0 344.4,66.8 345.8,66.6 347.3,66.5 348.8,66.4 350.2,66.2 351.7,66.1 353.1,65.9 354.6,65.7 356.0,65.5 357.5,65.3 358.9,65.2 360.4,65.1 361.9,65.0 363.3,64.9 364.8,64.8 366.2,64.7 367.7,64.4 369.1,64.3 370.6,64.1 372.0,64.0 373.5,63.9 375.0,63.8 376.4,63.6 377.9,63.5 379.3,63.3 380.8,63.2 382.2,63.0 383.7,62.9 385.1,62.7 386.6,62.6 388.1,62.5 389.5,62.4 391.0,62.3 392.4,62.2 393.9,62.0 395.3,62.0 396.8,61.9 398.2,61.5 399.7,61.3 401.2,65.7 402.6,64.9 404.1,63.2 405.5,62.6 407.0,61.8 408.4,60.9 409.9,60.3 411.3,60.0 412.8,59.4 414.3,58.4 415.7,57.7 417.2,57.5 418.6,57.1 420.1,56.8 421.5,56.3 423.0,55.9 424.4,55.3 425.9,55.1 427.4,54.6 428.8,54.3 430.3,54.0 431.7,53.8 433.2,53.5 434.6,53.3 436.1,52.8 437.5,52.5 439.0,52.0 440.5,51.4 441.9,51.1 443.4,50.9 444.8,50.7 446.3,50.5 447.7,50.1 449.2,49.7 450.6,49.4 452.1,48.5 453.6,47.8 455.0,47.5 456.5,47.3 457.9,47.0 459.4,46.6 460.8,46.2 462.3,45.9 463.7,45.6 465.2,45.2 466.7,44.9 468.1,44.6 469.6,44.2 471.0,44.0 472.5,43.8 473.9,43.6 475.4,43.2 476.8,43.0 478.3,42.7 479.8,42.6 481.2,42.4 482.7,42.1 484.1,42.0 485.6,41.8 487.0,41.6 488.5,41.4 489.9,41.3 491.4,41.0 492.9,40.8 494.3,40.4 495.8,40.1 497.2,39.8 498.7,39.6 500.1,39.4 501.6,39.3 503.0,39.1 504.5,38.9 506.0,38.7 507.4,38.6 508.9,38.5 510.3,38.3 511.8,38.1 513.2,37.8 514.7,37.7 516.1,37.5 517.6,37.3 519.1,37.0 520.5,36.6 522.0,36.4 523.4,36.2 524.9,36.0 526.3,35.7 527.8,35.5 529.2,35.2 530.7,35.0 532.2,34.9 533.6,34.8 535.1,34.6 536.5,34.3 538.0,34.1 539.4,34.0 540.9,33.8 542.3,33.5 543.8,33.4 545.3,33.1 546.7,32.9 548.2,32.6 549.6,32.3 551.1,32.2 552.5,32.0 554.0,31.9 555.4,31.7 556.9,31.5 558.4,31.3 559.8,31.1 561.3,30.9 562.7,30.8 564.2,30.6 565.6,30.4 567.1,30.3 568.5,30.1 570.0,30.0" />
  
  <!-- Punto finale luminoso -->
  <circle cx="570.0" cy="30.0" r="4" fill="#ffffff" stroke="#0366d6" stroke-width="2.5" />
</svg>