<svg width="600" height="150" viewBox="0 0 600 150" xmlns="http://www.w3.org/2000/svg">
  <defs>
    <filter id="shadow2" x="-2%" y="-2%" width="104%" height="108%">
      <feDropShadow dx="0" dy="2" stdDeviation="3" flood-opacity="0.1" />
    </filter>
    <linearGradient id="fillGrad" x1="0" y1="0" x2="0" y2="1">
      <stop offset="0%" stop-color="#0366d6" stop-opacity="0.3"/>
      <stop offset="100%" stop-color="#0366d6" stop-opacity="0.02"/>
    </linearGradient>
  </defs>
  <rect width="600" height="150" rx="12" fill="#ffffff" filter="url(#shadow2)" stroke="#e1e4e8" stroke-width="1"/>
  <text x="20" y="24" fill="#2b3137" font-family="-apple-system,BlinkMacSystemFont,'Segoe UI',Helvetica,Arial,sans-serif" font-size="14" font-weight="600">📈 Download Growth (Actual: 85.8k)</text>
  
  <!-- Area sotto la linea -->
  <polygon fill="url(#fillGrad)" points="30.0,120.0,120 30.0,120.0 31.5,119.5 33.0,118.9 34.4,118.4 35.9,118.2 37.4,118.0 38.9,117.4 40.3,116.9 41.8,116.7 43.3,116.0 44.8,115.7 46.2,115.4 47.7,115.2 49.2,114.9 50.7,114.5 52.1,114.0 53.6,113.7 55.1,113.4 56.6,113.3 58.0,113.0 59.5,112.7 61.0,112.4 62.5,112.2 63.9,111.9 65.4,110.9 66.9,110.6 68.4,110.2 69.8,109.8 71.3,109.5 72.8,109.2 74.3,108.9 75.7,108.8 77.2,108.5 78.7,108.0 80.2,107.6 81.6,107.3 83.1,107.0 84.6,106.9 86.1,106.8 87.5,106.6 89.0,106.3 90.5,106.1 92.0,106.0 93.4,105.6 94.9,105.0 96.4,104.9 97.9,104.8 99.3,104.6 100.8,104.2 102.3,103.9 103.8,103.5 105.2,103.1 106.7,102.7 108.2,102.7 109.7,102.4 111.1,102.0 112.6,101.6 114.1,101.3 115.6,101.2 117.0,101.0 118.5,100.8 120.0,100.3 121.5,99.9 123.0,99.5 124.4,99.2 125.9,99.0 127.4,98.9 128.9,98.7 130.3,98.4 131.8,98.2 133.3,98.0 134.8,97.9 136.2,97.7 137.7,97.5 139.2,97.4 140.7,97.3 142.1,97.2 143.6,96.8 145.1,96.5 146.6,96.5 148.0,96.3 149.5,96.2 151.0,96.2 152.5,103.0 153.9,102.4 155.4,101.8 156.9,101.1 158.4,99.3 159.8,98.0 161.3,96.6 162.8,96.1 164.3,95.5 165.7,94.5 167.2,93.5 168.7,92.7 170.2,92.5 171.6,92.2 173.1,91.4 174.6,90.9 176.1,90.5 177.5,90.1 179.0,89.9 180.5,89.9 182.0,89.5 183.4,88.8 184.9,88.4 186.4,87.9 187.9,87.4 189.3,87.2 190.8,87.0 192.3,86.5 193.8,86.1 195.2,85.8 196.7,85.5 198.2,85.3 199.7,85.2 201.1,85.0 202.6,84.7 204.1,84.4 205.6,84.2 207.0,84.0 208.5,83.8 210.0,83.6 211.5,83.4 213.0,83.3 214.4,83.1 215.9,82.7 217.4,82.5 218.9,82.2 220.3,82.0 221.8,81.8 223.3,81.7 224.8,81.5 226.2,81.3 227.7,80.8 229.2,80.5 230.7,80.1 232.1,79.9 233.6,79.9 235.1,79.7 236.6,79.5 238.0,79.2 239.5,79.0 241.0,78.7 242.5,78.5 243.9,78.4 245.4,78.2 246.9,78.1 248.4,78.0 249.8,77.8 251.3,77.6 252.8,77.3 254.3,77.2 255.7,77.1 257.2,76.9 258.7,76.9 260.2,76.6 261.6,76.4 263.1,76.2 264.6,75.9 266.1,75.7 267.5,75.6 269.0,75.5 270.5,75.3 272.0,75.0 273.4,74.7 274.9,74.5 276.4,74.3 277.9,73.9 279.3,73.9 280.8,73.7 282.3,73.6 283.8,73.5 285.2,73.3 286.7,73.1 288.2,72.9 289.7,72.8 291.1,72.6 292.6,72.5 294.1,72.3 295.6,72.2 297.0,72.1 298.5,71.8 300.0,71.7 301.5,71.5 303.0,71.3 304.4,71.2 305.9,71.1 307.4,70.9 308.9,70.8 310.3,70.6 311.8,70.4 313.3,70.0 314.8,69.8 316.2,69.7 317.7,69.6 319.2,69.5 320.7,69.3 322.1,69.1 323.6,68.9 325.1,68.8 326.6,68.6 328.0,68.5 329.5,68.3 331.0,68.2 332.5,68.1 333.9,67.8 335.4,67.6 336.9,67.4 338.4,67.2 339.8,67.1 341.3,67.0 342.8,67.0 344.3,66.8 345.7,66.7 347.2,66.5 348.7,66.3 350.2,66.1 351.6,66.0 353.1,65.9 354.6,65.8 356.1,65.6 357.5,65.4 359.0,65.2 360.5,65.0 362.0,64.9 363.4,64.7 364.9,64.6 366.4,64.5 367.9,64.4 369.3,64.3 370.8,64.2 372.3,64.0 373.8,63.8 375.2,63.7 376.7,63.6 378.2,63.4 379.7,63.3 381.1,63.1 382.6,63.0 384.1,62.8 385.6,62.7 387.0,62.5 388.5,62.4 390.0,62.2 391.5,62.1 393.0,62.0 394.4,61.9 395.9,61.8 397.4,61.7 398.9,61.5 400.3,61.5 401.8,61.3 403.3,61.0 404.8,60.8 406.2,65.3 407.7,64.4 409.2,62.7 410.7,62.1 412.1,61.3 413.6,60.3 415.1,59.8 416.6,59.4 418.0,58.8 419.5,57.9 421.0,57.1 422.5,56.9 423.9,56.5 425.4,56.3 426.9,55.8 428.4,55.3 429.8,54.7 431.3,54.5 432.8,54.0 434.3,53.7 435.7,53.4 437.2,53.2 438.7,52.9 440.2,52.7 441.6,52.2 443.1,51.9 444.6,51.4 446.1,50.8 447.5,50.5 449.0,50.3 450.5,50.1 452.0,49.9 453.4,49.5 454.9,49.1 456.4,48.8 457.9,47.9 459.3,47.2 460.8,46.9 462.3,46.7 463.8,46.4 465.2,45.9 466.7,45.5 468.2,45.2 469.7,44.9 471.1,44.6 472.6,44.3 474.1,44.0 475.6,43.6 477.0,43.3 478.5,43.2 480.0,43.0 481.5,42.5 483.0,42.3 484.4,42.0 485.9,41.9 487.4,41.7 488.9,41.4 490.3,41.3 491.8,41.1 493.3,40.9 494.8,40.7 496.2,40.6 497.7,40.3 499.2,40.1 500.7,39.7 502.1,39.3 503.6,39.1 505.1,38.9 506.6,38.7 508.0,38.6 509.5,38.4 511.0,38.2 512.5,38.0 513.9,37.9 515.4,37.7 516.9,37.5 518.4,37.4 519.8,37.1 521.3,37.0 522.8,36.8 524.3,36.6 525.7,36.2 527.2,35.8 528.7,35.6 530.2,35.4 531.6,35.2 533.1,35.0 534.6,34.7 536.1,34.5 537.5,34.3 539.0,34.2 540.5,34.0 542.0,33.8 543.4,33.5 544.9,33.4 546.4,33.3 547.9,33.0 549.3,32.8 550.8,32.6 552.3,32.3 553.8,32.1 555.2,31.8 556.7,31.6 558.2,31.4 559.7,31.3 561.1,31.1 562.6,30.9 564.1,30.7 565.6,30.5 567.0,30.3 568.5,30.2 570.0,30.0 570.0,30.0,120" />
  
  <!-- Linea principale -->
  <polyline fill="none" stroke="#0366d6" stroke-width="2.5" stroke-linecap="round" stroke-linejoin="round" points="30.0,120.0 31.5,119.5 33.0,118.9 34.4,118.4 35.9,118.2 37.4,118.0 38.9,117.4 40.3,116.9 41.8,116.7 43.3,116.0 44.8,115.7 46.2,115.4 47.7,115.2 49.2,114.9 50.7,114.5 52.1,114.0 53.6,113.7 55.1,113.4 56.6,113.3 58.0,113.0 59.5,112.7 61.0,112.4 62.5,112.2 63.9,111.9 65.4,110.9 66.9,110.6 68.4,110.2 69.8,109.8 71.3,109.5 72.8,109.2 74.3,108.9 75.7,108.8 77.2,108.5 78.7,108.0 80.2,107.6 81.6,107.3 83.1,107.0 84.6,106.9 86.1,106.8 87.5,106.6 89.0,106.3 90.5,106.1 92.0,106.0 93.4,105.6 94.9,105.0 96.4,104.9 97.9,104.8 99.3,104.6 100.8,104.2 102.3,103.9 103.8,103.5 105.2,103.1 106.7,102.7 108.2,102.7 109.7,102.4 111.1,102.0 112.6,101.6 114.1,101.3 115.6,101.2 117.0,101.0 118.5,100.8 120.0,100.3 121.5,99.9 123.0,99.5 124.4,99.2 125.9,99.0 127.4,98.9 128.9,98.7 130.3,98.4 131.8,98.2 133.3,98.0 134.8,97.9 136.2,97.7 137.7,97.5 139.2,97.4 140.7,97.3 142.1,97.2 143.6,96.8 145.1,96.5 146.6,96.5 148.0,96.3 149.5,96.2 151.0,96.2 152.5,103.0 153.9,102.4 155.4,101.8 156.9,101.1 158.4,99.3 159.8,98.0 161.3,96.6 162.8,96.1 164.3,95.5 165.7,94.5 167.2,93.5 168.7,92.7 170.2,92.5 171.6,92.2 173.1,91.4 174.6,90.9 176.1,90.5 177.5,90.1 179.0,89.9 180.5,89.9 182.0,89.5 183.4,88.8 184.9,88.4 186.4,87.9 187.9,87.4 189.3,87.2 190.8,87.0 192.3,86.5 193.8,86.1 195.2,85.8 196.7,85.5 198.2,85.3 199.7,85.2 201.1,85.0 202.6,84.7 204.1,84.4 205.6,84.2 207.0,84.0 208.5,83.8 210.0,83.6 211.5,83.4 213.0,83.3 214.4,83.1 215.9,82.7 217.4,82.5 218.9,82.2 220.3,82.0 221.8,81.8 223.3,81.7 224.8,81.5 226.2,81.3 227.7,80.8 229.2,80.5 230.7,80.1 232.1,79.9 233.6,79.9 235.1,79.7 236.6,79.5 238.0,79.2 239.5,79.0 241.0,78.7 242.5,78.5 243.9,78.4 245.4,78.2 246.9,78.1 248.4,78.0 249.8,77.8 251.3,77.6 252.8,77.3 254.3,77.2 255.7,77.1 257.2,76.9 258.7,76.9 260.2,76.6 261.6,76.4 263.1,76.2 264.6,75.9 266.1,75.7 267.5,75.6 269.0,75.5 270.5,75.3 272.0,75.0 273.4,74.7 274.9,74.5 276.4,74.3 277.9,73.9 279.3,73.9 280.8,73.7 282.3,73.6 283.8,73.5 285.2,73.3 286.7,73.1 288.2,72.9 289.7,72.8 291.1,72.6 292.6,72.5 294.1,72.3 295.6,72.2 297.0,72.1 298.5,71.8 300.0,71.7 301.5,71.5 303.0,71.3 304.4,71.2 305.9,71.1 307.4,70.9 308.9,70.8 310.3,70.6 311.8,70.4 313.3,70.0 314.8,69.8 316.2,69.7 317.7,69.6 319.2,69.5 320.7,69.3 322.1,69.1 323.6,68.9 325.1,68.8 326.6,68.6 328.0,68.5 329.5,68.3 331.0,68.2 332.5,68.1 333.9,67.8 335.4,67.6 336.9,67.4 338.4,67.2 339.8,67.1 341.3,67.0 342.8,67.0 344.3,66.8 345.7,66.7 347.2,66.5 348.7,66.3 350.2,66.1 351.6,66.0 353.1,65.9 354.6,65.8 356.1,65.6 357.5,65.4 359.0,65.2 360.5,65.0 362.0,64.9 363.4,64.7 364.9,64.6 366.4,64.5 367.9,64.4 369.3,64.3 370.8,64.2 372.3,64.0 373.8,63.8 375.2,63.7 376.7,63.6 378.2,63.4 379.7,63.3 381.1,63.1 382.6,63.0 384.1,62.8 385.6,62.7 387.0,62.5 388.5,62.4 390.0,62.2 391.5,62.1 393.0,62.0 394.4,61.9 395.9,61.8 397.4,61.7 398.9,61.5 400.3,61.5 401.8,61.3 403.3,61.0 404.8,60.8 406.2,65.3 407.7,64.4 409.2,62.7 410.7,62.1 412.1,61.3 413.6,60.3 415.1,59.8 416.6,59.4 418.0,58.8 419.5,57.9 421.0,57.1 422.5,56.9 423.9,56.5 425.4,56.3 426.9,55.8 428.4,55.3 429.8,54.7 431.3,54.5 432.8,54.0 434.3,53.7 435.7,53.4 437.2,53.2 438.7,52.9 440.2,52.7 441.6,52.2 443.1,51.9 444.6,51.4 446.1,50.8 447.5,50.5 449.0,50.3 450.5,50.1 452.0,49.9 453.4,49.5 454.9,49.1 456.4,48.8 457.9,47.9 459.3,47.2 460.8,46.9 462.3,46.7 463.8,46.4 465.2,45.9 466.7,45.5 468.2,45.2 469.7,44.9 471.1,44.6 472.6,44.3 474.1,44.0 475.6,43.6 477.0,43.3 478.5,43.2 480.0,43.0 481.5,42.5 483.0,42.3 484.4,42.0 485.9,41.9 487.4,41.7 488.9,41.4 490.3,41.3 491.8,41.1 493.3,40.9 494.8,40.7 496.2,40.6 497.7,40.3 499.2,40.1 500.7,39.7 502.1,39.3 503.6,39.1 505.1,38.9 506.6,38.7 508.0,38.6 509.5,38.4 511.0,38.2 512.5,38.0 513.9,37.9 515.4,37.7 516.9,37.5 518.4,37.4 519.8,37.1 521.3,37.0 522.8,36.8 524.3,36.6 525.7,36.2 527.2,35.8 528.7,35.6 530.2,35.4 531.6,35.2 533.1,35.0 534.6,34.7 536.1,34.5 537.5,34.3 539.0,34.2 540.5,34.0 542.0,33.8 543.4,33.5 544.9,33.4 546.4,33.3 547.9,33.0 549.3,32.8 550.8,32.6 552.3,32.3 553.8,32.1 555.2,31.8 556.7,31.6 558.2,31.4 559.7,31.3 561.1,31.1 562.6,30.9 564.1,30.7 565.6,30.5 567.0,30.3 568.5,30.2 570.0,30.0" />
  
  <!-- Punto finale luminoso -->
  <circle cx="570.0" cy="30.0" r="4" fill="#ffffff" stroke="#0366d6" stroke-width="2.5" />
</svg>