<svg width="600" height="150" viewBox="0 0 600 150" xmlns="http://www.w3.org/2000/svg">
  <defs>
    <filter id="shadow2" x="-2%" y="-2%" width="104%" height="108%">
      <feDropShadow dx="0" dy="2" stdDeviation="3" flood-opacity="0.1" />
    </filter>
    <linearGradient id="fillGrad" x1="0" y1="0" x2="0" y2="1">
      <stop offset="0%" stop-color="#0366d6" stop-opacity="0.3"/>
      <stop offset="100%" stop-color="#0366d6" stop-opacity="0.02"/>
    </linearGradient>
  </defs>
  <rect width="600" height="150" rx="12" fill="#ffffff" filter="url(#shadow2)" stroke="#e1e4e8" stroke-width="1"/>
  <text x="20" y="24" fill="#2b3137" font-family="-apple-system,BlinkMacSystemFont,'Segoe UI',Helvetica,Arial,sans-serif" font-size="14" font-weight="600">📈 Download Growth (Actual: 86.0k)</text>
  
  <!-- Area sotto la linea -->
  <polygon fill="url(#fillGrad)" points="30.0,120.0,120 30.0,120.0 31.5,119.5 32.9,118.9 34.4,118.4 35.8,118.3 37.3,118.0 38.7,117.4 40.2,117.0 41.6,116.7 43.1,116.1 44.5,115.8 46.0,115.4 47.4,115.3 48.9,115.0 50.3,114.5 51.8,114.1 53.2,113.7 54.7,113.5 56.1,113.3 57.6,113.1 59.0,112.7 60.5,112.4 61.9,112.3 63.4,112.0 64.8,111.0 66.3,110.7 67.7,110.3 69.2,109.9 70.6,109.6 72.1,109.3 73.5,109.0 75.0,108.9 76.5,108.6 77.9,108.1 79.4,107.7 80.8,107.4 82.3,107.1 83.7,107.0 85.2,106.9 86.6,106.7 88.1,106.4 89.5,106.2 91.0,106.1 92.4,105.7 93.9,105.2 95.3,105.1 96.8,105.0 98.2,104.8 99.7,104.3 101.1,104.0 102.6,103.6 104.0,103.3 105.5,102.9 106.9,102.8 108.4,102.6 109.8,102.2 111.3,101.8 112.7,101.5 114.2,101.3 115.6,101.1 117.1,101.0 118.5,100.5 120.0,100.1 121.5,99.7 122.9,99.4 124.4,99.2 125.8,99.1 127.3,98.9 128.7,98.6 130.2,98.4 131.6,98.2 133.1,98.1 134.5,97.9 136.0,97.7 137.4,97.6 138.9,97.5 140.3,97.4 141.8,97.0 143.2,96.8 144.7,96.7 146.1,96.5 147.6,96.5 149.0,96.5 150.5,103.2 151.9,102.5 153.4,101.9 154.8,101.3 156.3,99.5 157.7,98.2 159.2,96.8 160.6,96.3 162.1,95.7 163.5,94.8 165.0,93.8 166.5,93.0 167.9,92.7 169.4,92.4 170.8,91.7 172.3,91.2 173.7,90.8 175.2,90.4 176.6,90.2 178.1,90.1 179.5,89.8 181.0,89.1 182.4,88.7 183.9,88.2 185.3,87.7 186.8,87.5 188.2,87.3 189.7,86.9 191.1,86.5 192.6,86.1 194.0,85.8 195.5,85.7 196.9,85.6 198.4,85.3 199.8,85.0 201.3,84.8 202.7,84.5 204.2,84.3 205.6,84.1 207.1,83.9 208.5,83.8 210.0,83.6 211.5,83.4 212.9,83.1 214.4,82.8 215.8,82.5 217.3,82.4 218.7,82.2 220.2,82.0 221.6,81.9 223.1,81.7 224.5,81.2 226.0,80.9 227.4,80.5 228.9,80.3 230.3,80.3 231.8,80.1 233.2,79.9 234.7,79.6 236.1,79.4 237.6,79.1 239.0,78.9 240.5,78.8 241.9,78.7 243.4,78.5 244.8,78.4 246.3,78.2 247.7,78.0 249.2,77.7 250.6,77.6 252.1,77.5 253.5,77.4 255.0,77.3 256.5,77.0 257.9,76.8 259.4,76.6 260.8,76.4 262.3,76.2 263.7,76.0 265.2,75.9 266.6,75.8 268.1,75.5 269.5,75.2 271.0,75.0 272.4,74.8 273.9,74.4 275.3,74.3 276.8,74.2 278.2,74.1 279.7,73.9 281.1,73.7 282.6,73.5 284.0,73.4 285.5,73.2 286.9,73.1 288.4,72.9 289.8,72.8 291.3,72.7 292.7,72.5 294.2,72.3 295.6,72.1 297.1,71.9 298.5,71.8 300.0,71.7 301.5,71.5 302.9,71.4 304.4,71.3 305.8,71.1 307.3,70.8 308.7,70.5 310.2,70.3 311.6,70.2 313.1,70.1 314.5,70.0 316.0,69.8 317.4,69.6 318.9,69.4 320.3,69.3 321.8,69.1 323.2,69.0 324.7,68.8 326.1,68.7 327.6,68.6 329.0,68.3 330.5,68.1 331.9,67.9 333.4,67.7 334.8,67.6 336.3,67.6 337.7,67.5 339.2,67.3 340.6,67.2 342.1,67.0 343.5,66.8 345.0,66.7 346.5,66.6 347.9,66.4 349.4,66.3 350.8,66.2 352.3,65.9 353.7,65.7 355.2,65.6 356.6,65.4 358.1,65.3 359.5,65.2 361.0,65.1 362.4,65.0 363.9,64.9 365.3,64.7 366.8,64.5 368.2,64.4 369.7,64.2 371.1,64.1 372.6,64.0 374.0,63.8 375.5,63.6 376.9,63.5 378.4,63.4 379.8,63.3 381.3,63.1 382.7,62.9 384.2,62.8 385.6,62.7 387.1,62.6 388.5,62.5 390.0,62.4 391.5,62.2 392.9,62.1 394.4,62.1 395.8,61.9 397.3,61.6 398.7,61.4 400.2,65.8 401.6,64.9 403.1,63.3 404.5,62.6 406.0,61.9 407.4,60.9 408.9,60.4 410.3,60.0 411.8,59.4 413.2,58.5 414.7,57.7 416.1,57.5 417.6,57.2 419.0,56.9 420.5,56.4 421.9,55.9 423.4,55.4 424.8,55.1 426.3,54.6 427.7,54.4 429.2,54.1 430.6,53.8 432.1,53.6 433.5,53.4 435.0,52.9 436.5,52.5 437.9,52.1 439.4,51.5 440.8,51.1 442.3,50.9 443.7,50.8 445.2,50.5 446.6,50.1 448.1,49.8 449.5,49.5 451.0,48.6 452.4,47.9 453.9,47.6 455.3,47.4 456.8,47.1 458.2,46.6 459.7,46.2 461.1,45.9 462.6,45.6 464.0,45.3 465.5,45.0 466.9,44.7 468.4,44.3 469.8,44.1 471.3,43.9 472.7,43.7 474.2,43.3 475.6,43.0 477.1,42.8 478.5,42.7 480.0,42.5 481.5,42.2 482.9,42.1 484.4,41.9 485.8,41.7 487.3,41.5 488.7,41.3 490.2,41.0 491.6,40.9 493.1,40.5 494.5,40.1 496.0,39.8 497.4,39.7 498.9,39.5 500.3,39.3 501.8,39.2 503.2,39.0 504.7,38.8 506.1,38.7 507.6,38.5 509.0,38.3 510.5,38.2 511.9,37.9 513.4,37.8 514.8,37.6 516.3,37.4 517.7,37.0 519.2,36.7 520.6,36.5 522.1,36.3 523.5,36.0 525.0,35.8 526.5,35.6 527.9,35.3 529.4,35.1 530.8,35.0 532.3,34.9 533.7,34.7 535.2,34.4 536.6,34.2 538.1,34.1 539.5,33.9 541.0,33.6 542.4,33.4 543.9,33.1 545.3,33.0 546.8,32.7 548.2,32.4 549.7,32.2 551.1,32.1 552.6,31.9 554.0,31.8 555.5,31.6 556.9,31.4 558.4,31.2 559.8,31.0 561.3,30.9 562.7,30.7 564.2,30.5 565.6,30.4 567.1,30.2 568.5,30.1 570.0,30.0 570.0,30.0,120" />
  
  <!-- Linea principale -->
  <polyline fill="none" stroke="#0366d6" stroke-width="2.5" stroke-linecap="round" stroke-linejoin="round" points="30.0,120.0 31.5,119.5 32.9,118.9 34.4,118.4 35.8,118.3 37.3,118.0 38.7,117.4 40.2,117.0 41.6,116.7 43.1,116.1 44.5,115.8 46.0,115.4 47.4,115.3 48.9,115.0 50.3,114.5 51.8,114.1 53.2,113.7 54.7,113.5 56.1,113.3 57.6,113.1 59.0,112.7 60.5,112.4 61.9,112.3 63.4,112.0 64.8,111.0 66.3,110.7 67.7,110.3 69.2,109.9 70.6,109.6 72.1,109.3 73.5,109.0 75.0,108.9 76.5,108.6 77.9,108.1 79.4,107.7 80.8,107.4 82.3,107.1 83.7,107.0 85.2,106.9 86.6,106.7 88.1,106.4 89.5,106.2 91.0,106.1 92.4,105.7 93.9,105.2 95.3,105.1 96.8,105.0 98.2,104.8 99.7,104.3 101.1,104.0 102.6,103.6 104.0,103.3 105.5,102.9 106.9,102.8 108.4,102.6 109.8,102.2 111.3,101.8 112.7,101.5 114.2,101.3 115.6,101.1 117.1,101.0 118.5,100.5 120.0,100.1 121.5,99.7 122.9,99.4 124.4,99.2 125.8,99.1 127.3,98.9 128.7,98.6 130.2,98.4 131.6,98.2 133.1,98.1 134.5,97.9 136.0,97.7 137.4,97.6 138.9,97.5 140.3,97.4 141.8,97.0 143.2,96.8 144.7,96.7 146.1,96.5 147.6,96.5 149.0,96.5 150.5,103.2 151.9,102.5 153.4,101.9 154.8,101.3 156.3,99.5 157.7,98.2 159.2,96.8 160.6,96.3 162.1,95.7 163.5,94.8 165.0,93.8 166.5,93.0 167.9,92.7 169.4,92.4 170.8,91.7 172.3,91.2 173.7,90.8 175.2,90.4 176.6,90.2 178.1,90.1 179.5,89.8 181.0,89.1 182.4,88.7 183.9,88.2 185.3,87.7 186.8,87.5 188.2,87.3 189.7,86.9 191.1,86.5 192.6,86.1 194.0,85.8 195.5,85.7 196.9,85.6 198.4,85.3 199.8,85.0 201.3,84.8 202.7,84.5 204.2,84.3 205.6,84.1 207.1,83.9 208.5,83.8 210.0,83.6 211.5,83.4 212.9,83.1 214.4,82.8 215.8,82.5 217.3,82.4 218.7,82.2 220.2,82.0 221.6,81.9 223.1,81.7 224.5,81.2 226.0,80.9 227.4,80.5 228.9,80.3 230.3,80.3 231.8,80.1 233.2,79.9 234.7,79.6 236.1,79.4 237.6,79.1 239.0,78.9 240.5,78.8 241.9,78.7 243.4,78.5 244.8,78.4 246.3,78.2 247.7,78.0 249.2,77.7 250.6,77.6 252.1,77.5 253.5,77.4 255.0,77.3 256.5,77.0 257.9,76.8 259.4,76.6 260.8,76.4 262.3,76.2 263.7,76.0 265.2,75.9 266.6,75.8 268.1,75.5 269.5,75.2 271.0,75.0 272.4,74.8 273.9,74.4 275.3,74.3 276.8,74.2 278.2,74.1 279.7,73.9 281.1,73.7 282.6,73.5 284.0,73.4 285.5,73.2 286.9,73.1 288.4,72.9 289.8,72.8 291.3,72.7 292.7,72.5 294.2,72.3 295.6,72.1 297.1,71.9 298.5,71.8 300.0,71.7 301.5,71.5 302.9,71.4 304.4,71.3 305.8,71.1 307.3,70.8 308.7,70.5 310.2,70.3 311.6,70.2 313.1,70.1 314.5,70.0 316.0,69.8 317.4,69.6 318.9,69.4 320.3,69.3 321.8,69.1 323.2,69.0 324.7,68.8 326.1,68.7 327.6,68.6 329.0,68.3 330.5,68.1 331.9,67.9 333.4,67.7 334.8,67.6 336.3,67.6 337.7,67.5 339.2,67.3 340.6,67.2 342.1,67.0 343.5,66.8 345.0,66.7 346.5,66.6 347.9,66.4 349.4,66.3 350.8,66.2 352.3,65.9 353.7,65.7 355.2,65.6 356.6,65.4 358.1,65.3 359.5,65.2 361.0,65.1 362.4,65.0 363.9,64.9 365.3,64.7 366.8,64.5 368.2,64.4 369.7,64.2 371.1,64.1 372.6,64.0 374.0,63.8 375.5,63.6 376.9,63.5 378.4,63.4 379.8,63.3 381.3,63.1 382.7,62.9 384.2,62.8 385.6,62.7 387.1,62.6 388.5,62.5 390.0,62.4 391.5,62.2 392.9,62.1 394.4,62.1 395.8,61.9 397.3,61.6 398.7,61.4 400.2,65.8 401.6,64.9 403.1,63.3 404.5,62.6 406.0,61.9 407.4,60.9 408.9,60.4 410.3,60.0 411.8,59.4 413.2,58.5 414.7,57.7 416.1,57.5 417.6,57.2 419.0,56.9 420.5,56.4 421.9,55.9 423.4,55.4 424.8,55.1 426.3,54.6 427.7,54.4 429.2,54.1 430.6,53.8 432.1,53.6 433.5,53.4 435.0,52.9 436.5,52.5 437.9,52.1 439.4,51.5 440.8,51.1 442.3,50.9 443.7,50.8 445.2,50.5 446.6,50.1 448.1,49.8 449.5,49.5 451.0,48.6 452.4,47.9 453.9,47.6 455.3,47.4 456.8,47.1 458.2,46.6 459.7,46.2 461.1,45.9 462.6,45.6 464.0,45.3 465.5,45.0 466.9,44.7 468.4,44.3 469.8,44.1 471.3,43.9 472.7,43.7 474.2,43.3 475.6,43.0 477.1,42.8 478.5,42.7 480.0,42.5 481.5,42.2 482.9,42.1 484.4,41.9 485.8,41.7 487.3,41.5 488.7,41.3 490.2,41.0 491.6,40.9 493.1,40.5 494.5,40.1 496.0,39.8 497.4,39.7 498.9,39.5 500.3,39.3 501.8,39.2 503.2,39.0 504.7,38.8 506.1,38.7 507.6,38.5 509.0,38.3 510.5,38.2 511.9,37.9 513.4,37.8 514.8,37.6 516.3,37.4 517.7,37.0 519.2,36.7 520.6,36.5 522.1,36.3 523.5,36.0 525.0,35.8 526.5,35.6 527.9,35.3 529.4,35.1 530.8,35.0 532.3,34.9 533.7,34.7 535.2,34.4 536.6,34.2 538.1,34.1 539.5,33.9 541.0,33.6 542.4,33.4 543.9,33.1 545.3,33.0 546.8,32.7 548.2,32.4 549.7,32.2 551.1,32.1 552.6,31.9 554.0,31.8 555.5,31.6 556.9,31.4 558.4,31.2 559.8,31.0 561.3,30.9 562.7,30.7 564.2,30.5 565.6,30.4 567.1,30.2 568.5,30.1 570.0,30.0" />
  
  <!-- Punto finale luminoso -->
  <circle cx="570.0" cy="30.0" r="4" fill="#ffffff" stroke="#0366d6" stroke-width="2.5" />
</svg>