<svg width="600" height="150" viewBox="0 0 600 150" xmlns="http://www.w3.org/2000/svg">
  <defs>
    <filter id="shadow2" x="-2%" y="-2%" width="104%" height="108%">
      <feDropShadow dx="0" dy="2" stdDeviation="3" flood-opacity="0.1" />
    </filter>
    <linearGradient id="fillGrad" x1="0" y1="0" x2="0" y2="1">
      <stop offset="0%" stop-color="#0366d6" stop-opacity="0.3"/>
      <stop offset="100%" stop-color="#0366d6" stop-opacity="0.02"/>
    </linearGradient>
  </defs>
  <rect width="600" height="150" rx="12" fill="#ffffff" filter="url(#shadow2)" stroke="#e1e4e8" stroke-width="1"/>
  <text x="20" y="24" fill="#2b3137" font-family="-apple-system,BlinkMacSystemFont,'Segoe UI',Helvetica,Arial,sans-serif" font-size="14" font-weight="600">📈 Download Growth (Actual: 73.1k)</text>
  
  <!-- Area sotto la linea -->
  <polygon fill="url(#fillGrad)" points="30.0,120.0,120 30.0,120.0 35.5,118.4 40.9,116.6 46.4,115.1 51.8,114.6 57.3,113.8 62.7,111.9 68.2,110.7 73.6,109.8 79.1,107.9 84.5,106.9 90.0,105.9 95.5,105.4 100.9,104.5 106.4,103.2 111.8,101.8 117.3,100.7 122.7,100.0 128.2,99.5 133.6,98.6 139.1,97.6 144.5,96.7 150.0,96.2 155.5,95.4 160.9,92.3 166.4,91.4 171.8,90.2 177.3,89.0 182.7,87.9 188.2,86.9 193.6,86.2 199.1,85.7 204.5,84.8 210.0,83.3 215.5,82.1 220.9,81.2 226.4,80.2 231.8,79.9 237.3,79.6 242.7,79.1 248.2,78.1 253.6,77.5 259.1,77.1 264.5,76.0 270.0,74.3 275.5,73.9 280.9,73.6 286.4,73.0 291.8,71.7 297.3,70.8 302.7,69.4 308.2,68.5 313.6,67.3 319.1,67.0 324.5,66.3 330.0,65.1 335.5,63.8 340.9,62.9 346.4,62.5 351.8,61.8 357.3,61.3 362.7,59.9 368.2,58.6 373.6,57.5 379.1,56.3 384.5,55.7 390.0,55.4 395.5,54.9 400.9,54.0 406.4,53.4 411.8,52.8 417.3,52.4 422.7,51.9 428.2,51.3 433.6,50.8 439.1,50.5 444.5,50.2 450.0,49.0 455.5,48.3 460.9,48.0 466.4,47.6 471.8,47.4 477.3,47.4 482.7,68.1 488.2,66.1 493.6,64.3 499.1,62.3 504.5,56.7 510.0,52.7 515.5,48.5 520.9,46.9 526.4,45.1 531.8,42.2 537.3,39.0 542.7,36.7 548.2,35.8 553.6,35.0 559.1,32.7 564.5,31.1 570.0,30.0 570.0,30.0,120" />
  
  <!-- Linea principale -->
  <polyline fill="none" stroke="#0366d6" stroke-width="2.5" stroke-linecap="round" stroke-linejoin="round" points="30.0,120.0 35.5,118.4 40.9,116.6 46.4,115.1 51.8,114.6 57.3,113.8 62.7,111.9 68.2,110.7 73.6,109.8 79.1,107.9 84.5,106.9 90.0,105.9 95.5,105.4 100.9,104.5 106.4,103.2 111.8,101.8 117.3,100.7 122.7,100.0 128.2,99.5 133.6,98.6 139.1,97.6 144.5,96.7 150.0,96.2 155.5,95.4 160.9,92.3 166.4,91.4 171.8,90.2 177.3,89.0 182.7,87.9 188.2,86.9 193.6,86.2 199.1,85.7 204.5,84.8 210.0,83.3 215.5,82.1 220.9,81.2 226.4,80.2 231.8,79.9 237.3,79.6 242.7,79.1 248.2,78.1 253.6,77.5 259.1,77.1 264.5,76.0 270.0,74.3 275.5,73.9 280.9,73.6 286.4,73.0 291.8,71.7 297.3,70.8 302.7,69.4 308.2,68.5 313.6,67.3 319.1,67.0 324.5,66.3 330.0,65.1 335.5,63.8 340.9,62.9 346.4,62.5 351.8,61.8 357.3,61.3 362.7,59.9 368.2,58.6 373.6,57.5 379.1,56.3 384.5,55.7 390.0,55.4 395.5,54.9 400.9,54.0 406.4,53.4 411.8,52.8 417.3,52.4 422.7,51.9 428.2,51.3 433.6,50.8 439.1,50.5 444.5,50.2 450.0,49.0 455.5,48.3 460.9,48.0 466.4,47.6 471.8,47.4 477.3,47.4 482.7,68.1 488.2,66.1 493.6,64.3 499.1,62.3 504.5,56.7 510.0,52.7 515.5,48.5 520.9,46.9 526.4,45.1 531.8,42.2 537.3,39.0 542.7,36.7 548.2,35.8 553.6,35.0 559.1,32.7 564.5,31.1 570.0,30.0" />
  
  <!-- Punto finale luminoso -->
  <circle cx="570.0" cy="30.0" r="4" fill="#ffffff" stroke="#0366d6" stroke-width="2.5" />
</svg>