<svg width="600" height="150" viewBox="0 0 600 150" xmlns="http://www.w3.org/2000/svg">
  <defs>
    <filter id="shadow2" x="-2%" y="-2%" width="104%" height="108%">
      <feDropShadow dx="0" dy="2" stdDeviation="3" flood-opacity="0.1" />
    </filter>
    <linearGradient id="fillGrad" x1="0" y1="0" x2="0" y2="1">
      <stop offset="0%" stop-color="#0366d6" stop-opacity="0.3"/>
      <stop offset="100%" stop-color="#0366d6" stop-opacity="0.02"/>
    </linearGradient>
  </defs>
  <rect width="600" height="150" rx="12" fill="#ffffff" filter="url(#shadow2)" stroke="#e1e4e8" stroke-width="1"/>
  <text x="20" y="24" fill="#2b3137" font-family="-apple-system,BlinkMacSystemFont,'Segoe UI',Helvetica,Arial,sans-serif" font-size="14" font-weight="600">📈 Download Growth (Actual: 83.5k)</text>
  
  <!-- Area sotto la linea -->
  <polygon fill="url(#fillGrad)" points="30.0,120.0,120 30.0,120.0 31.7,119.4 33.4,118.7 35.2,118.2 36.9,118.0 38.6,117.7 40.3,117.0 42.0,116.5 43.8,116.2 45.5,115.5 47.2,115.1 48.9,114.8 50.6,114.6 52.4,114.2 54.1,113.7 55.8,113.2 57.5,112.8 59.2,112.5 61.0,112.4 62.7,112.0 64.4,111.6 66.1,111.3 67.8,111.1 69.6,110.8 71.3,109.7 73.0,109.3 74.7,108.9 76.4,108.4 78.2,108.0 79.9,107.7 81.6,107.4 83.3,107.2 85.0,106.9 86.8,106.4 88.5,105.9 90.2,105.6 91.9,105.2 93.6,105.1 95.4,105.0 97.1,104.8 98.8,104.4 100.5,104.2 102.2,104.0 103.9,103.6 105.7,103.0 107.4,102.8 109.1,102.7 110.8,102.5 112.5,102.0 114.3,101.7 116.0,101.2 117.7,100.8 119.4,100.4 121.1,100.3 122.9,100.0 124.6,99.5 126.3,99.1 128.0,98.7 129.7,98.6 131.5,98.3 133.2,98.1 134.9,97.6 136.6,97.1 138.3,96.7 140.1,96.3 141.8,96.1 143.5,95.9 145.2,95.8 146.9,95.4 148.7,95.2 150.4,95.0 152.1,94.8 153.8,94.7 155.5,94.4 157.3,94.2 159.0,94.1 160.7,94.0 162.4,93.6 164.1,93.3 165.9,93.2 167.6,93.0 169.3,93.0 171.0,93.0 172.7,100.7 174.5,99.9 176.2,99.2 177.9,98.5 179.6,96.4 181.3,94.9 183.1,93.4 184.8,92.8 186.5,92.1 188.2,91.0 189.9,89.9 191.7,89.0 193.4,88.7 195.1,88.3 196.8,87.5 198.5,86.9 200.3,86.5 202.0,86.0 203.7,85.8 205.4,85.7 207.1,85.3 208.9,84.5 210.6,84.0 212.3,83.5 214.0,82.9 215.7,82.6 217.5,82.4 219.2,81.9 220.9,81.5 222.6,81.1 224.3,80.7 226.1,80.6 227.8,80.4 229.5,80.2 231.2,79.8 232.9,79.5 234.6,79.2 236.4,79.0 238.1,78.8 239.8,78.6 241.5,78.4 243.2,78.2 245.0,78.0 246.7,77.6 248.4,77.3 250.1,77.0 251.8,76.8 253.6,76.5 255.3,76.4 257.0,76.2 258.7,76.0 260.4,75.5 262.2,75.1 263.9,74.6 265.6,74.4 267.3,74.4 269.0,74.2 270.8,73.9 272.5,73.6 274.2,73.4 275.9,73.0 277.6,72.8 279.4,72.7 281.1,72.5 282.8,72.4 284.5,72.2 286.2,72.0 288.0,71.8 289.7,71.4 291.4,71.3 293.1,71.2 294.8,71.0 296.6,70.9 298.3,70.6 300.0,70.4 301.7,70.1 303.4,69.9 305.2,69.6 306.9,69.5 308.6,69.4 310.3,69.2 312.0,68.8 313.8,68.5 315.5,68.3 317.2,68.0 318.9,67.6 320.6,67.5 322.4,67.4 324.1,67.3 325.8,67.0 327.5,66.9 329.2,66.6 331.0,66.5 332.7,66.3 334.4,66.1 336.1,65.9 337.8,65.8 339.6,65.7 341.3,65.5 343.0,65.2 344.7,65.0 346.4,64.8 348.2,64.6 349.9,64.5 351.6,64.3 353.3,64.2 355.0,64.0 356.8,63.9 358.5,63.5 360.2,63.2 361.9,62.9 363.6,62.7 365.4,62.7 367.1,62.6 368.8,62.4 370.5,62.0 372.2,61.9 373.9,61.8 375.7,61.6 377.4,61.4 379.1,61.2 380.8,61.0 382.5,60.9 384.3,60.6 386.0,60.4 387.7,60.2 389.4,59.9 391.1,59.8 392.9,59.8 394.6,59.7 396.3,59.5 398.0,59.3 399.7,59.1 401.5,58.9 403.2,58.7 404.9,58.6 406.6,58.5 408.3,58.3 410.1,58.2 411.8,57.9 413.5,57.6 415.2,57.5 416.9,57.3 418.7,57.1 420.4,57.0 422.1,56.9 423.8,56.8 425.5,56.7 427.3,56.5 429.0,56.2 430.7,56.1 432.4,55.9 434.1,55.8 435.9,55.6 437.6,55.4 439.3,55.2 441.0,55.1 442.7,55.0 444.5,54.8 446.2,54.6 447.9,54.4 449.6,54.2 451.3,54.2 453.1,54.1 454.8,53.9 456.5,53.8 458.2,53.6 459.9,53.5 461.7,53.4 463.4,53.3 465.1,52.9 466.8,52.7 468.5,57.7 470.3,56.7 472.0,54.8 473.7,54.1 475.4,53.2 477.1,52.1 478.9,51.5 480.6,51.1 482.3,50.4 484.0,49.3 485.7,48.5 487.5,48.2 489.2,47.8 490.9,47.5 492.6,46.9 494.3,46.4 496.1,45.8 497.8,45.5 499.5,44.9 501.2,44.6 502.9,44.2 504.6,44.0 506.4,43.7 508.1,43.4 509.8,42.9 511.5,42.5 513.2,42.0 515.0,41.3 516.7,40.9 518.4,40.7 520.1,40.5 521.8,40.2 523.6,39.7 525.3,39.3 527.0,39.0 528.7,38.0 530.4,37.2 532.2,36.8 533.9,36.6 535.6,36.3 537.3,35.7 539.0,35.3 540.8,34.9 542.5,34.6 544.2,34.2 545.9,33.8 547.6,33.5 549.4,33.0 551.1,32.8 552.8,32.6 554.5,32.3 556.2,31.9 558.0,31.6 559.7,31.3 561.4,31.2 563.1,31.0 564.8,30.6 566.6,30.5 568.3,30.2 570.0,30.0 570.0,30.0,120" />
  
  <!-- Linea principale -->
  <polyline fill="none" stroke="#0366d6" stroke-width="2.5" stroke-linecap="round" stroke-linejoin="round" points="30.0,120.0 31.7,119.4 33.4,118.7 35.2,118.2 36.9,118.0 38.6,117.7 40.3,117.0 42.0,116.5 43.8,116.2 45.5,115.5 47.2,115.1 48.9,114.8 50.6,114.6 52.4,114.2 54.1,113.7 55.8,113.2 57.5,112.8 59.2,112.5 61.0,112.4 62.7,112.0 64.4,111.6 66.1,111.3 67.8,111.1 69.6,110.8 71.3,109.7 73.0,109.3 74.7,108.9 76.4,108.4 78.2,108.0 79.9,107.7 81.6,107.4 83.3,107.2 85.0,106.9 86.8,106.4 88.5,105.9 90.2,105.6 91.9,105.2 93.6,105.1 95.4,105.0 97.1,104.8 98.8,104.4 100.5,104.2 102.2,104.0 103.9,103.6 105.7,103.0 107.4,102.8 109.1,102.7 110.8,102.5 112.5,102.0 114.3,101.7 116.0,101.2 117.7,100.8 119.4,100.4 121.1,100.3 122.9,100.0 124.6,99.5 126.3,99.1 128.0,98.7 129.7,98.6 131.5,98.3 133.2,98.1 134.9,97.6 136.6,97.1 138.3,96.7 140.1,96.3 141.8,96.1 143.5,95.9 145.2,95.8 146.9,95.4 148.7,95.2 150.4,95.0 152.1,94.8 153.8,94.7 155.5,94.4 157.3,94.2 159.0,94.1 160.7,94.0 162.4,93.6 164.1,93.3 165.9,93.2 167.6,93.0 169.3,93.0 171.0,93.0 172.7,100.7 174.5,99.9 176.2,99.2 177.9,98.5 179.6,96.4 181.3,94.9 183.1,93.4 184.8,92.8 186.5,92.1 188.2,91.0 189.9,89.9 191.7,89.0 193.4,88.7 195.1,88.3 196.8,87.5 198.5,86.9 200.3,86.5 202.0,86.0 203.7,85.8 205.4,85.7 207.1,85.3 208.9,84.5 210.6,84.0 212.3,83.5 214.0,82.9 215.7,82.6 217.5,82.4 219.2,81.9 220.9,81.5 222.6,81.1 224.3,80.7 226.1,80.6 227.8,80.4 229.5,80.2 231.2,79.8 232.9,79.5 234.6,79.2 236.4,79.0 238.1,78.8 239.8,78.6 241.5,78.4 243.2,78.2 245.0,78.0 246.7,77.6 248.4,77.3 250.1,77.0 251.8,76.8 253.6,76.5 255.3,76.4 257.0,76.2 258.7,76.0 260.4,75.5 262.2,75.1 263.9,74.6 265.6,74.4 267.3,74.4 269.0,74.2 270.8,73.9 272.5,73.6 274.2,73.4 275.9,73.0 277.6,72.8 279.4,72.7 281.1,72.5 282.8,72.4 284.5,72.2 286.2,72.0 288.0,71.8 289.7,71.4 291.4,71.3 293.1,71.2 294.8,71.0 296.6,70.9 298.3,70.6 300.0,70.4 301.7,70.1 303.4,69.9 305.2,69.6 306.9,69.5 308.6,69.4 310.3,69.2 312.0,68.8 313.8,68.5 315.5,68.3 317.2,68.0 318.9,67.6 320.6,67.5 322.4,67.4 324.1,67.3 325.8,67.0 327.5,66.9 329.2,66.6 331.0,66.5 332.7,66.3 334.4,66.1 336.1,65.9 337.8,65.8 339.6,65.7 341.3,65.5 343.0,65.2 344.7,65.0 346.4,64.8 348.2,64.6 349.9,64.5 351.6,64.3 353.3,64.2 355.0,64.0 356.8,63.9 358.5,63.5 360.2,63.2 361.9,62.9 363.6,62.7 365.4,62.7 367.1,62.6 368.8,62.4 370.5,62.0 372.2,61.9 373.9,61.8 375.7,61.6 377.4,61.4 379.1,61.2 380.8,61.0 382.5,60.9 384.3,60.6 386.0,60.4 387.7,60.2 389.4,59.9 391.1,59.8 392.9,59.8 394.6,59.7 396.3,59.5 398.0,59.3 399.7,59.1 401.5,58.9 403.2,58.7 404.9,58.6 406.6,58.5 408.3,58.3 410.1,58.2 411.8,57.9 413.5,57.6 415.2,57.5 416.9,57.3 418.7,57.1 420.4,57.0 422.1,56.9 423.8,56.8 425.5,56.7 427.3,56.5 429.0,56.2 430.7,56.1 432.4,55.9 434.1,55.8 435.9,55.6 437.6,55.4 439.3,55.2 441.0,55.1 442.7,55.0 444.5,54.8 446.2,54.6 447.9,54.4 449.6,54.2 451.3,54.2 453.1,54.1 454.8,53.9 456.5,53.8 458.2,53.6 459.9,53.5 461.7,53.4 463.4,53.3 465.1,52.9 466.8,52.7 468.5,57.7 470.3,56.7 472.0,54.8 473.7,54.1 475.4,53.2 477.1,52.1 478.9,51.5 480.6,51.1 482.3,50.4 484.0,49.3 485.7,48.5 487.5,48.2 489.2,47.8 490.9,47.5 492.6,46.9 494.3,46.4 496.1,45.8 497.8,45.5 499.5,44.9 501.2,44.6 502.9,44.2 504.6,44.0 506.4,43.7 508.1,43.4 509.8,42.9 511.5,42.5 513.2,42.0 515.0,41.3 516.7,40.9 518.4,40.7 520.1,40.5 521.8,40.2 523.6,39.7 525.3,39.3 527.0,39.0 528.7,38.0 530.4,37.2 532.2,36.8 533.9,36.6 535.6,36.3 537.3,35.7 539.0,35.3 540.8,34.9 542.5,34.6 544.2,34.2 545.9,33.8 547.6,33.5 549.4,33.0 551.1,32.8 552.8,32.6 554.5,32.3 556.2,31.9 558.0,31.6 559.7,31.3 561.4,31.2 563.1,31.0 564.8,30.6 566.6,30.5 568.3,30.2 570.0,30.0" />
  
  <!-- Punto finale luminoso -->
  <circle cx="570.0" cy="30.0" r="4" fill="#ffffff" stroke="#0366d6" stroke-width="2.5" />
</svg>