<svg width="600" height="150" viewBox="0 0 600 150" xmlns="http://www.w3.org/2000/svg">
  <defs>
    <filter id="shadow2" x="-2%" y="-2%" width="104%" height="108%">
      <feDropShadow dx="0" dy="2" stdDeviation="3" flood-opacity="0.1" />
    </filter>
    <linearGradient id="fillGrad" x1="0" y1="0" x2="0" y2="1">
      <stop offset="0%" stop-color="#0366d6" stop-opacity="0.3"/>
      <stop offset="100%" stop-color="#0366d6" stop-opacity="0.02"/>
    </linearGradient>
  </defs>
  <rect width="600" height="150" rx="12" fill="#ffffff" filter="url(#shadow2)" stroke="#e1e4e8" stroke-width="1"/>
  <text x="20" y="24" fill="#2b3137" font-family="-apple-system,BlinkMacSystemFont,'Segoe UI',Helvetica,Arial,sans-serif" font-size="14" font-weight="600">📈 Download Growth (Actual: 73.2k)</text>
  
  <!-- Area sotto la linea -->
  <polygon fill="url(#fillGrad)" points="30.0,120.0,120 30.0,120.0 35.4,118.4 40.8,116.6 46.2,115.1 51.6,114.7 57.0,113.9 62.4,112.1 67.8,110.8 73.2,110.0 78.6,108.1 84.0,107.1 89.4,106.1 94.8,105.6 100.2,104.7 105.6,103.4 111.0,102.0 116.4,101.0 121.8,100.3 127.2,99.8 132.6,98.9 138.0,97.9 143.4,97.0 148.8,96.6 154.2,95.7 159.6,92.7 165.0,91.8 170.4,90.6 175.8,89.4 181.2,88.4 186.6,87.4 192.0,86.7 197.4,86.2 202.8,85.4 208.2,83.9 213.6,82.6 219.0,81.8 224.4,80.7 229.8,80.5 235.2,80.2 240.6,79.7 246.0,78.7 251.4,78.1 256.8,77.7 262.2,76.6 267.6,75.0 273.0,74.6 278.4,74.3 283.8,73.7 289.2,72.4 294.6,71.5 300.0,70.2 305.4,69.2 310.8,68.0 316.2,67.8 321.6,67.1 327.0,65.9 332.4,64.6 337.8,63.7 343.2,63.3 348.6,62.7 354.0,62.1 359.4,60.8 364.8,59.5 370.2,58.4 375.6,57.3 381.0,56.7 386.4,56.3 391.8,55.9 397.2,54.9 402.6,54.3 408.0,53.8 413.4,53.4 418.8,52.9 424.2,52.3 429.6,51.8 435.0,51.6 440.4,51.2 445.8,50.0 451.2,49.3 456.6,49.1 462.0,48.7 467.4,48.4 472.8,48.4 478.2,68.9 483.6,66.9 489.0,65.1 494.4,63.2 499.8,57.6 505.2,53.7 510.6,49.5 516.0,48.0 521.4,46.2 526.8,43.3 532.2,40.2 537.6,37.9 543.0,37.1 548.4,36.2 553.8,34.0 559.2,32.4 564.6,31.3 570.0,30.0 570.0,30.0,120" />
  
  <!-- Linea principale -->
  <polyline fill="none" stroke="#0366d6" stroke-width="2.5" stroke-linecap="round" stroke-linejoin="round" points="30.0,120.0 35.4,118.4 40.8,116.6 46.2,115.1 51.6,114.7 57.0,113.9 62.4,112.1 67.8,110.8 73.2,110.0 78.6,108.1 84.0,107.1 89.4,106.1 94.8,105.6 100.2,104.7 105.6,103.4 111.0,102.0 116.4,101.0 121.8,100.3 127.2,99.8 132.6,98.9 138.0,97.9 143.4,97.0 148.8,96.6 154.2,95.7 159.6,92.7 165.0,91.8 170.4,90.6 175.8,89.4 181.2,88.4 186.6,87.4 192.0,86.7 197.4,86.2 202.8,85.4 208.2,83.9 213.6,82.6 219.0,81.8 224.4,80.7 229.8,80.5 235.2,80.2 240.6,79.7 246.0,78.7 251.4,78.1 256.8,77.7 262.2,76.6 267.6,75.0 273.0,74.6 278.4,74.3 283.8,73.7 289.2,72.4 294.6,71.5 300.0,70.2 305.4,69.2 310.8,68.0 316.2,67.8 321.6,67.1 327.0,65.9 332.4,64.6 337.8,63.7 343.2,63.3 348.6,62.7 354.0,62.1 359.4,60.8 364.8,59.5 370.2,58.4 375.6,57.3 381.0,56.7 386.4,56.3 391.8,55.9 397.2,54.9 402.6,54.3 408.0,53.8 413.4,53.4 418.8,52.9 424.2,52.3 429.6,51.8 435.0,51.6 440.4,51.2 445.8,50.0 451.2,49.3 456.6,49.1 462.0,48.7 467.4,48.4 472.8,48.4 478.2,68.9 483.6,66.9 489.0,65.1 494.4,63.2 499.8,57.6 505.2,53.7 510.6,49.5 516.0,48.0 521.4,46.2 526.8,43.3 532.2,40.2 537.6,37.9 543.0,37.1 548.4,36.2 553.8,34.0 559.2,32.4 564.6,31.3 570.0,30.0" />
  
  <!-- Punto finale luminoso -->
  <circle cx="570.0" cy="30.0" r="4" fill="#ffffff" stroke="#0366d6" stroke-width="2.5" />
</svg>