<svg width="600" height="150" viewBox="0 0 600 150" xmlns="http://www.w3.org/2000/svg">
  <defs>
    <filter id="shadow2" x="-2%" y="-2%" width="104%" height="108%">
      <feDropShadow dx="0" dy="2" stdDeviation="3" flood-opacity="0.1" />
    </filter>
    <linearGradient id="fillGrad" x1="0" y1="0" x2="0" y2="1">
      <stop offset="0%" stop-color="#0366d6" stop-opacity="0.3"/>
      <stop offset="100%" stop-color="#0366d6" stop-opacity="0.02"/>
    </linearGradient>
  </defs>
  <rect width="600" height="150" rx="12" fill="#ffffff" filter="url(#shadow2)" stroke="#e1e4e8" stroke-width="1"/>
  <text x="20" y="24" fill="#2b3137" font-family="-apple-system,BlinkMacSystemFont,'Segoe UI',Helvetica,Arial,sans-serif" font-size="14" font-weight="600">📈 Download Growth (Actual: 79.7k)</text>
  
  <!-- Area sotto la linea -->
  <polygon fill="url(#fillGrad)" points="30.0,120.0,120 30.0,120.0 32.1,119.2 34.1,118.4 36.2,117.6 38.2,117.4 40.3,117.0 42.3,116.1 44.4,115.5 46.4,115.1 48.5,114.2 50.5,113.7 52.6,113.2 54.6,113.0 56.7,112.5 58.7,111.9 60.8,111.2 62.9,110.7 64.9,110.4 67.0,110.1 69.0,109.7 71.1,109.2 73.1,108.8 75.2,108.6 77.2,108.1 79.3,106.7 81.3,106.2 83.4,105.6 85.4,105.1 87.5,104.5 89.5,104.1 91.6,103.7 93.7,103.5 95.7,103.1 97.8,102.4 99.8,101.7 101.9,101.3 103.9,100.8 106.0,100.7 108.0,100.6 110.1,100.3 112.1,99.8 114.2,99.5 116.2,99.3 118.3,98.8 120.3,98.0 122.4,97.8 124.4,97.7 126.5,97.4 128.6,96.7 130.6,96.3 132.7,95.7 134.7,95.2 136.8,94.6 138.8,94.5 140.9,94.1 142.9,93.5 145.0,92.9 147.0,92.5 149.1,92.3 151.1,92.0 153.2,91.7 155.2,91.1 157.3,90.4 159.4,89.9 161.4,89.3 163.5,89.1 165.5,88.9 167.6,88.7 169.6,88.2 171.7,87.9 173.7,87.7 175.8,87.4 177.8,87.2 179.9,86.9 181.9,86.7 184.0,86.6 186.0,86.4 188.1,85.8 190.2,85.5 192.2,85.4 194.3,85.1 196.3,85.0 198.4,85.0 200.4,95.0 202.5,94.0 204.5,93.2 206.6,92.2 208.6,89.5 210.7,87.6 212.7,85.6 214.8,84.8 216.8,83.9 218.9,82.5 221.0,81.0 223.0,79.9 225.1,79.5 227.1,79.1 229.2,78.0 231.2,77.2 233.3,76.7 235.3,76.0 237.4,75.8 239.4,75.7 241.5,75.1 243.5,74.1 245.6,73.5 247.6,72.8 249.7,72.0 251.7,71.7 253.8,71.4 255.9,70.8 257.9,70.2 260.0,69.6 262.0,69.2 264.1,69.0 266.1,68.9 268.2,68.5 270.2,68.0 272.3,67.7 274.3,67.3 276.4,67.0 278.4,66.7 280.5,66.4 282.5,66.2 284.6,66.0 286.7,65.7 288.7,65.2 290.8,64.8 292.8,64.3 294.9,64.1 296.9,63.8 299.0,63.6 301.0,63.4 303.1,63.1 305.1,62.4 307.2,61.9 309.2,61.3 311.3,61.1 313.3,61.0 315.4,60.7 317.5,60.4 319.5,60.0 321.6,59.7 323.6,59.3 325.7,59.0 327.7,58.8 329.8,58.6 331.8,58.4 333.9,58.2 335.9,57.9 338.0,57.6 340.0,57.2 342.1,57.0 344.1,56.9 346.2,56.7 348.3,56.5 350.3,56.2 352.4,55.8 354.4,55.5 356.5,55.2 358.5,54.9 360.6,54.7 362.6,54.5 364.7,54.3 366.7,53.8 368.8,53.4 370.8,53.1 372.9,52.8 374.9,52.3 377.0,52.1 379.0,52.0 381.1,51.8 383.2,51.5 385.2,51.3 387.3,51.0 389.3,50.8 391.4,50.5 393.4,50.3 395.5,50.1 397.5,49.9 399.6,49.8 401.6,49.5 403.7,49.1 405.7,48.9 407.8,48.6 409.8,48.4 411.9,48.2 414.0,48.0 416.0,47.8 418.1,47.6 420.1,47.4 422.2,47.0 424.2,46.5 426.3,46.2 428.3,46.0 430.4,45.9 432.4,45.8 434.5,45.5 436.5,45.1 438.6,44.9 440.6,44.7 442.7,44.4 444.8,44.2 446.8,43.9 448.9,43.8 450.9,43.6 453.0,43.2 455.0,43.0 457.1,42.6 459.1,42.3 461.2,42.2 463.2,42.1 465.3,42.0 467.3,41.8 469.4,41.5 471.4,41.3 473.5,41.0 475.6,40.8 477.6,40.6 479.7,40.4 481.7,40.2 483.8,40.0 485.8,39.7 487.9,39.4 489.9,39.1 492.0,38.9 494.0,38.7 496.1,38.6 498.1,38.4 500.2,38.3 502.2,38.1 504.3,37.9 506.3,37.6 508.4,37.3 510.5,37.1 512.5,37.0 514.6,36.8 516.6,36.5 518.7,36.3 520.7,36.1 522.8,35.9 524.8,35.7 526.9,35.4 528.9,35.2 531.0,35.0 533.0,34.9 535.1,34.7 537.1,34.5 539.2,34.4 541.3,34.2 543.3,34.0 545.4,33.9 547.4,33.7 549.5,33.3 551.5,32.9 553.6,39.5 555.6,38.2 557.7,35.7 559.7,34.8 561.8,33.6 563.8,32.2 565.9,31.5 567.9,30.9 570.0,30.0 570.0,30.0,120" />
  
  <!-- Linea principale -->
  <polyline fill="none" stroke="#0366d6" stroke-width="2.5" stroke-linecap="round" stroke-linejoin="round" points="30.0,120.0 32.1,119.2 34.1,118.4 36.2,117.6 38.2,117.4 40.3,117.0 42.3,116.1 44.4,115.5 46.4,115.1 48.5,114.2 50.5,113.7 52.6,113.2 54.6,113.0 56.7,112.5 58.7,111.9 60.8,111.2 62.9,110.7 64.9,110.4 67.0,110.1 69.0,109.7 71.1,109.2 73.1,108.8 75.2,108.6 77.2,108.1 79.3,106.7 81.3,106.2 83.4,105.6 85.4,105.1 87.5,104.5 89.5,104.1 91.6,103.7 93.7,103.5 95.7,103.1 97.8,102.4 99.8,101.7 101.9,101.3 103.9,100.8 106.0,100.7 108.0,100.6 110.1,100.3 112.1,99.8 114.2,99.5 116.2,99.3 118.3,98.8 120.3,98.0 122.4,97.8 124.4,97.7 126.5,97.4 128.6,96.7 130.6,96.3 132.7,95.7 134.7,95.2 136.8,94.6 138.8,94.5 140.9,94.1 142.9,93.5 145.0,92.9 147.0,92.5 149.1,92.3 151.1,92.0 153.2,91.7 155.2,91.1 157.3,90.4 159.4,89.9 161.4,89.3 163.5,89.1 165.5,88.9 167.6,88.7 169.6,88.2 171.7,87.9 173.7,87.7 175.8,87.4 177.8,87.2 179.9,86.9 181.9,86.7 184.0,86.6 186.0,86.4 188.1,85.8 190.2,85.5 192.2,85.4 194.3,85.1 196.3,85.0 198.4,85.0 200.4,95.0 202.5,94.0 204.5,93.2 206.6,92.2 208.6,89.5 210.7,87.6 212.7,85.6 214.8,84.8 216.8,83.9 218.9,82.5 221.0,81.0 223.0,79.9 225.1,79.5 227.1,79.1 229.2,78.0 231.2,77.2 233.3,76.7 235.3,76.0 237.4,75.8 239.4,75.7 241.5,75.1 243.5,74.1 245.6,73.5 247.6,72.8 249.7,72.0 251.7,71.7 253.8,71.4 255.9,70.8 257.9,70.2 260.0,69.6 262.0,69.2 264.1,69.0 266.1,68.9 268.2,68.5 270.2,68.0 272.3,67.7 274.3,67.3 276.4,67.0 278.4,66.7 280.5,66.4 282.5,66.2 284.6,66.0 286.7,65.7 288.7,65.2 290.8,64.8 292.8,64.3 294.9,64.1 296.9,63.8 299.0,63.6 301.0,63.4 303.1,63.1 305.1,62.4 307.2,61.9 309.2,61.3 311.3,61.1 313.3,61.0 315.4,60.7 317.5,60.4 319.5,60.0 321.6,59.7 323.6,59.3 325.7,59.0 327.7,58.8 329.8,58.6 331.8,58.4 333.9,58.2 335.9,57.9 338.0,57.6 340.0,57.2 342.1,57.0 344.1,56.9 346.2,56.7 348.3,56.5 350.3,56.2 352.4,55.8 354.4,55.5 356.5,55.2 358.5,54.9 360.6,54.7 362.6,54.5 364.7,54.3 366.7,53.8 368.8,53.4 370.8,53.1 372.9,52.8 374.9,52.3 377.0,52.1 379.0,52.0 381.1,51.8 383.2,51.5 385.2,51.3 387.3,51.0 389.3,50.8 391.4,50.5 393.4,50.3 395.5,50.1 397.5,49.9 399.6,49.8 401.6,49.5 403.7,49.1 405.7,48.9 407.8,48.6 409.8,48.4 411.9,48.2 414.0,48.0 416.0,47.8 418.1,47.6 420.1,47.4 422.2,47.0 424.2,46.5 426.3,46.2 428.3,46.0 430.4,45.9 432.4,45.8 434.5,45.5 436.5,45.1 438.6,44.9 440.6,44.7 442.7,44.4 444.8,44.2 446.8,43.9 448.9,43.8 450.9,43.6 453.0,43.2 455.0,43.0 457.1,42.6 459.1,42.3 461.2,42.2 463.2,42.1 465.3,42.0 467.3,41.8 469.4,41.5 471.4,41.3 473.5,41.0 475.6,40.8 477.6,40.6 479.7,40.4 481.7,40.2 483.8,40.0 485.8,39.7 487.9,39.4 489.9,39.1 492.0,38.9 494.0,38.7 496.1,38.6 498.1,38.4 500.2,38.3 502.2,38.1 504.3,37.9 506.3,37.6 508.4,37.3 510.5,37.1 512.5,37.0 514.6,36.8 516.6,36.5 518.7,36.3 520.7,36.1 522.8,35.9 524.8,35.7 526.9,35.4 528.9,35.2 531.0,35.0 533.0,34.9 535.1,34.7 537.1,34.5 539.2,34.4 541.3,34.2 543.3,34.0 545.4,33.9 547.4,33.7 549.5,33.3 551.5,32.9 553.6,39.5 555.6,38.2 557.7,35.7 559.7,34.8 561.8,33.6 563.8,32.2 565.9,31.5 567.9,30.9 570.0,30.0" />
  
  <!-- Punto finale luminoso -->
  <circle cx="570.0" cy="30.0" r="4" fill="#ffffff" stroke="#0366d6" stroke-width="2.5" />
</svg>