<svg width="600" height="150" viewBox="0 0 600 150" xmlns="http://www.w3.org/2000/svg">
  <defs>
    <filter id="shadow2" x="-2%" y="-2%" width="104%" height="108%">
      <feDropShadow dx="0" dy="2" stdDeviation="3" flood-opacity="0.1" />
    </filter>
    <linearGradient id="fillGrad" x1="0" y1="0" x2="0" y2="1">
      <stop offset="0%" stop-color="#0366d6" stop-opacity="0.3"/>
      <stop offset="100%" stop-color="#0366d6" stop-opacity="0.02"/>
    </linearGradient>
  </defs>
  <rect width="600" height="150" rx="12" fill="#ffffff" filter="url(#shadow2)" stroke="#e1e4e8" stroke-width="1"/>
  <text x="20" y="24" fill="#2b3137" font-family="-apple-system,BlinkMacSystemFont,'Segoe UI',Helvetica,Arial,sans-serif" font-size="14" font-weight="600">📈 Download Growth (Actual: 75.2k)</text>
  
  <!-- Area sotto la linea -->
  <polygon fill="url(#fillGrad)" points="30.0,120.0,120 30.0,120.0 34.0,118.8 38.0,117.5 42.0,116.3 46.0,116.0 50.0,115.4 54.0,114.0 58.0,113.0 62.0,112.4 66.0,111.0 70.0,110.2 74.0,109.5 78.0,109.1 82.0,108.4 86.0,107.5 90.0,106.4 94.0,105.6 98.0,105.1 102.0,104.7 106.0,104.0 110.0,103.3 114.0,102.6 118.0,102.3 122.0,101.6 126.0,99.3 130.0,98.6 134.0,97.7 138.0,96.8 142.0,96.1 146.0,95.3 150.0,94.8 154.0,94.4 158.0,93.8 162.0,92.7 166.0,91.7 170.0,91.1 174.0,90.3 178.0,90.1 182.0,89.9 186.0,89.5 190.0,88.7 194.0,88.3 198.0,88.0 202.0,87.2 206.0,85.9 210.0,85.6 214.0,85.4 218.0,84.9 222.0,83.9 226.0,83.3 230.0,82.3 234.0,81.6 238.0,80.7 242.0,80.5 246.0,79.9 250.0,79.0 254.0,78.1 258.0,77.4 262.0,77.1 266.0,76.6 270.0,76.2 274.0,75.2 278.0,74.2 282.0,73.4 286.0,72.5 290.0,72.1 294.0,71.8 298.0,71.4 302.0,70.7 306.0,70.3 310.0,69.9 314.0,69.5 318.0,69.2 322.0,68.7 326.0,68.4 330.0,68.2 334.0,68.0 338.0,67.0 342.0,66.5 346.0,66.3 350.0,66.0 354.0,65.8 358.0,65.8 362.0,81.3 366.0,79.8 370.0,78.4 374.0,77.0 378.0,72.8 382.0,69.8 386.0,66.6 390.0,65.5 394.0,64.1 398.0,62.0 402.0,59.6 406.0,57.9 410.0,57.2 414.0,56.6 418.0,54.9 422.0,53.7 426.0,52.9 430.0,51.9 434.0,51.5 438.0,51.3 442.0,50.4 446.0,48.9 450.0,47.9 454.0,46.9 458.0,45.7 462.0,45.1 466.0,44.7 470.0,43.7 474.0,42.8 478.0,42.0 482.0,41.3 486.0,41.0 490.0,40.8 494.0,40.2 498.0,39.5 502.0,38.9 506.0,38.4 510.0,37.9 514.0,37.5 518.0,37.0 522.0,36.6 526.0,36.3 530.0,35.9 534.0,35.1 538.0,34.5 542.0,33.8 546.0,33.4 550.0,32.9 554.0,32.6 558.0,32.2 562.0,31.9 566.0,30.7 570.0,30.0 570.0,30.0,120" />
  
  <!-- Linea principale -->
  <polyline fill="none" stroke="#0366d6" stroke-width="2.5" stroke-linecap="round" stroke-linejoin="round" points="30.0,120.0 34.0,118.8 38.0,117.5 42.0,116.3 46.0,116.0 50.0,115.4 54.0,114.0 58.0,113.0 62.0,112.4 66.0,111.0 70.0,110.2 74.0,109.5 78.0,109.1 82.0,108.4 86.0,107.5 90.0,106.4 94.0,105.6 98.0,105.1 102.0,104.7 106.0,104.0 110.0,103.3 114.0,102.6 118.0,102.3 122.0,101.6 126.0,99.3 130.0,98.6 134.0,97.7 138.0,96.8 142.0,96.1 146.0,95.3 150.0,94.8 154.0,94.4 158.0,93.8 162.0,92.7 166.0,91.7 170.0,91.1 174.0,90.3 178.0,90.1 182.0,89.9 186.0,89.5 190.0,88.7 194.0,88.3 198.0,88.0 202.0,87.2 206.0,85.9 210.0,85.6 214.0,85.4 218.0,84.9 222.0,83.9 226.0,83.3 230.0,82.3 234.0,81.6 238.0,80.7 242.0,80.5 246.0,79.9 250.0,79.0 254.0,78.1 258.0,77.4 262.0,77.1 266.0,76.6 270.0,76.2 274.0,75.2 278.0,74.2 282.0,73.4 286.0,72.5 290.0,72.1 294.0,71.8 298.0,71.4 302.0,70.7 306.0,70.3 310.0,69.9 314.0,69.5 318.0,69.2 322.0,68.7 326.0,68.4 330.0,68.2 334.0,68.0 338.0,67.0 342.0,66.5 346.0,66.3 350.0,66.0 354.0,65.8 358.0,65.8 362.0,81.3 366.0,79.8 370.0,78.4 374.0,77.0 378.0,72.8 382.0,69.8 386.0,66.6 390.0,65.5 394.0,64.1 398.0,62.0 402.0,59.6 406.0,57.9 410.0,57.2 414.0,56.6 418.0,54.9 422.0,53.7 426.0,52.9 430.0,51.9 434.0,51.5 438.0,51.3 442.0,50.4 446.0,48.9 450.0,47.9 454.0,46.9 458.0,45.7 462.0,45.1 466.0,44.7 470.0,43.7 474.0,42.8 478.0,42.0 482.0,41.3 486.0,41.0 490.0,40.8 494.0,40.2 498.0,39.5 502.0,38.9 506.0,38.4 510.0,37.9 514.0,37.5 518.0,37.0 522.0,36.6 526.0,36.3 530.0,35.9 534.0,35.1 538.0,34.5 542.0,33.8 546.0,33.4 550.0,32.9 554.0,32.6 558.0,32.2 562.0,31.9 566.0,30.7 570.0,30.0" />
  
  <!-- Punto finale luminoso -->
  <circle cx="570.0" cy="30.0" r="4" fill="#ffffff" stroke="#0366d6" stroke-width="2.5" />
</svg>