<svg width="600" height="150" viewBox="0 0 600 150" xmlns="http://www.w3.org/2000/svg">
  <defs>
    <filter id="shadow2" x="-2%" y="-2%" width="104%" height="108%">
      <feDropShadow dx="0" dy="2" stdDeviation="3" flood-opacity="0.1" />
    </filter>
    <linearGradient id="fillGrad" x1="0" y1="0" x2="0" y2="1">
      <stop offset="0%" stop-color="#0366d6" stop-opacity="0.3"/>
      <stop offset="100%" stop-color="#0366d6" stop-opacity="0.02"/>
    </linearGradient>
  </defs>
  <rect width="600" height="150" rx="12" fill="#ffffff" filter="url(#shadow2)" stroke="#e1e4e8" stroke-width="1"/>
  <text x="20" y="24" fill="#2b3137" font-family="-apple-system,BlinkMacSystemFont,'Segoe UI',Helvetica,Arial,sans-serif" font-size="14" font-weight="600">📈 Download Growth (Actual: 77.9k)</text>
  
  <!-- Area sotto la linea -->
  <polygon fill="url(#fillGrad)" points="30.0,120.0,120 30.0,120.0 32.6,119.1 35.2,118.1 37.8,117.2 40.4,117.0 43.0,116.5 45.6,115.5 48.2,114.8 50.8,114.3 53.4,113.2 56.0,112.7 58.6,112.1 61.2,111.8 63.8,111.3 66.3,110.6 68.9,109.8 71.5,109.2 74.1,108.8 76.7,108.5 79.3,108.0 81.9,107.4 84.5,106.9 87.1,106.7 89.7,106.2 92.3,104.5 94.9,104.0 97.5,103.3 100.1,102.6 102.7,102.0 105.3,101.5 107.9,101.1 110.5,100.8 113.1,100.3 115.7,99.5 118.3,98.8 120.9,98.3 123.5,97.7 126.1,97.5 128.7,97.4 131.2,97.1 133.8,96.5 136.4,96.2 139.0,96.0 141.6,95.3 144.2,94.4 146.8,94.2 149.4,94.0 152.0,93.7 154.6,92.9 157.2,92.4 159.8,91.7 162.4,91.1 165.0,90.5 167.6,90.3 170.2,89.9 172.8,89.2 175.4,88.5 178.0,88.0 180.6,87.8 183.2,87.4 185.8,87.1 188.4,86.3 191.0,85.6 193.6,85.0 196.2,84.3 198.8,84.0 201.3,83.8 203.9,83.5 206.5,83.0 209.1,82.7 211.7,82.4 214.3,82.1 216.9,81.9 219.5,81.5 222.1,81.3 224.7,81.1 227.3,80.9 229.9,80.2 232.5,79.8 235.1,79.7 237.7,79.5 240.3,79.3 242.9,79.3 245.5,90.9 248.1,89.8 250.7,88.8 253.3,87.7 255.9,84.5 258.5,82.3 261.1,79.9 263.7,79.1 266.2,78.1 268.8,76.4 271.4,74.7 274.0,73.4 276.6,72.9 279.2,72.4 281.8,71.1 284.4,70.2 287.0,69.6 289.6,68.8 292.2,68.5 294.8,68.4 297.4,67.7 300.0,66.6 302.6,65.9 305.2,65.1 307.8,64.2 310.4,63.8 313.0,63.5 315.6,62.7 318.2,62.1 320.8,61.4 323.4,60.9 326.0,60.7 328.6,60.5 331.2,60.1 333.8,59.5 336.3,59.1 338.9,58.7 341.5,58.4 344.1,58.0 346.7,57.7 349.3,57.4 351.9,57.1 354.5,56.8 357.1,56.2 359.7,55.8 362.3,55.3 364.9,55.0 367.5,54.6 370.1,54.4 372.7,54.1 375.3,53.8 377.9,53.0 380.5,52.4 383.1,51.7 385.7,51.5 388.3,51.4 390.9,51.1 393.5,50.7 396.1,50.3 398.7,49.9 401.2,49.3 403.8,49.0 406.4,48.8 409.0,48.6 411.6,48.3 414.2,48.1 416.8,47.8 419.4,47.5 422.0,47.0 424.6,46.7 427.2,46.6 429.8,46.3 432.4,46.2 435.0,45.7 437.6,45.4 440.2,45.0 442.8,44.6 445.4,44.2 448.0,44.0 450.6,43.8 453.2,43.6 455.8,43.0 458.4,42.6 461.0,42.2 463.6,41.8 466.2,41.2 468.8,41.0 471.3,40.8 473.9,40.7 476.5,40.3 479.1,40.1 481.7,39.7 484.3,39.5 486.9,39.2 489.5,38.9 492.1,38.6 494.7,38.4 497.3,38.3 499.9,38.0 502.5,37.5 505.1,37.3 507.7,36.9 510.3,36.7 512.9,36.5 515.5,36.2 518.1,36.0 520.7,35.8 523.3,35.5 525.9,35.0 528.5,34.5 531.1,34.2 533.7,33.9 536.2,33.8 538.8,33.6 541.4,33.3 544.0,32.8 546.6,32.6 549.2,32.4 551.8,32.1 554.4,31.8 557.0,31.5 559.6,31.3 562.2,31.1 564.8,30.7 567.4,30.4 570.0,30.0 570.0,30.0,120" />
  
  <!-- Linea principale -->
  <polyline fill="none" stroke="#0366d6" stroke-width="2.5" stroke-linecap="round" stroke-linejoin="round" points="30.0,120.0 32.6,119.1 35.2,118.1 37.8,117.2 40.4,117.0 43.0,116.5 45.6,115.5 48.2,114.8 50.8,114.3 53.4,113.2 56.0,112.7 58.6,112.1 61.2,111.8 63.8,111.3 66.3,110.6 68.9,109.8 71.5,109.2 74.1,108.8 76.7,108.5 79.3,108.0 81.9,107.4 84.5,106.9 87.1,106.7 89.7,106.2 92.3,104.5 94.9,104.0 97.5,103.3 100.1,102.6 102.7,102.0 105.3,101.5 107.9,101.1 110.5,100.8 113.1,100.3 115.7,99.5 118.3,98.8 120.9,98.3 123.5,97.7 126.1,97.5 128.7,97.4 131.2,97.1 133.8,96.5 136.4,96.2 139.0,96.0 141.6,95.3 144.2,94.4 146.8,94.2 149.4,94.0 152.0,93.7 154.6,92.9 157.2,92.4 159.8,91.7 162.4,91.1 165.0,90.5 167.6,90.3 170.2,89.9 172.8,89.2 175.4,88.5 178.0,88.0 180.6,87.8 183.2,87.4 185.8,87.1 188.4,86.3 191.0,85.6 193.6,85.0 196.2,84.3 198.8,84.0 201.3,83.8 203.9,83.5 206.5,83.0 209.1,82.7 211.7,82.4 214.3,82.1 216.9,81.9 219.5,81.5 222.1,81.3 224.7,81.1 227.3,80.9 229.9,80.2 232.5,79.8 235.1,79.7 237.7,79.5 240.3,79.3 242.9,79.3 245.5,90.9 248.1,89.8 250.7,88.8 253.3,87.7 255.9,84.5 258.5,82.3 261.1,79.9 263.7,79.1 266.2,78.1 268.8,76.4 271.4,74.7 274.0,73.4 276.6,72.9 279.2,72.4 281.8,71.1 284.4,70.2 287.0,69.6 289.6,68.8 292.2,68.5 294.8,68.4 297.4,67.7 300.0,66.6 302.6,65.9 305.2,65.1 307.8,64.2 310.4,63.8 313.0,63.5 315.6,62.7 318.2,62.1 320.8,61.4 323.4,60.9 326.0,60.7 328.6,60.5 331.2,60.1 333.8,59.5 336.3,59.1 338.9,58.7 341.5,58.4 344.1,58.0 346.7,57.7 349.3,57.4 351.9,57.1 354.5,56.8 357.1,56.2 359.7,55.8 362.3,55.3 364.9,55.0 367.5,54.6 370.1,54.4 372.7,54.1 375.3,53.8 377.9,53.0 380.5,52.4 383.1,51.7 385.7,51.5 388.3,51.4 390.9,51.1 393.5,50.7 396.1,50.3 398.7,49.9 401.2,49.3 403.8,49.0 406.4,48.8 409.0,48.6 411.6,48.3 414.2,48.1 416.8,47.8 419.4,47.5 422.0,47.0 424.6,46.7 427.2,46.6 429.8,46.3 432.4,46.2 435.0,45.7 437.6,45.4 440.2,45.0 442.8,44.6 445.4,44.2 448.0,44.0 450.6,43.8 453.2,43.6 455.8,43.0 458.4,42.6 461.0,42.2 463.6,41.8 466.2,41.2 468.8,41.0 471.3,40.8 473.9,40.7 476.5,40.3 479.1,40.1 481.7,39.7 484.3,39.5 486.9,39.2 489.5,38.9 492.1,38.6 494.7,38.4 497.3,38.3 499.9,38.0 502.5,37.5 505.1,37.3 507.7,36.9 510.3,36.7 512.9,36.5 515.5,36.2 518.1,36.0 520.7,35.8 523.3,35.5 525.9,35.0 528.5,34.5 531.1,34.2 533.7,33.9 536.2,33.8 538.8,33.6 541.4,33.3 544.0,32.8 546.6,32.6 549.2,32.4 551.8,32.1 554.4,31.8 557.0,31.5 559.6,31.3 562.2,31.1 564.8,30.7 567.4,30.4 570.0,30.0" />
  
  <!-- Punto finale luminoso -->
  <circle cx="570.0" cy="30.0" r="4" fill="#ffffff" stroke="#0366d6" stroke-width="2.5" />
</svg>