<svg width="600" height="150" viewBox="0 0 600 150" xmlns="http://www.w3.org/2000/svg">
  <defs>
    <filter id="shadow2" x="-2%" y="-2%" width="104%" height="108%">
      <feDropShadow dx="0" dy="2" stdDeviation="3" flood-opacity="0.1" />
    </filter>
    <linearGradient id="fillGrad" x1="0" y1="0" x2="0" y2="1">
      <stop offset="0%" stop-color="#0366d6" stop-opacity="0.3"/>
      <stop offset="100%" stop-color="#0366d6" stop-opacity="0.02"/>
    </linearGradient>
  </defs>
  <rect width="600" height="150" rx="12" fill="#ffffff" filter="url(#shadow2)" stroke="#e1e4e8" stroke-width="1"/>
  <text x="20" y="24" fill="#2b3137" font-family="-apple-system,BlinkMacSystemFont,'Segoe UI',Helvetica,Arial,sans-serif" font-size="14" font-weight="600">📈 Download Growth (Actual: 78.3k)</text>
  
  <!-- Area sotto la linea -->
  <polygon fill="url(#fillGrad)" points="30.0,120.0,120 30.0,120.0 32.4,119.1 34.9,118.2 37.3,117.3 39.7,117.1 42.2,116.7 44.6,115.7 47.0,115.0 49.5,114.5 51.9,113.5 54.3,112.9 56.8,112.4 59.2,112.1 61.6,111.6 64.1,110.9 66.5,110.2 68.9,109.6 71.4,109.2 73.8,108.9 76.2,108.5 78.6,107.9 81.1,107.4 83.5,107.2 85.9,106.7 88.4,105.0 90.8,104.6 93.2,103.9 95.7,103.2 98.1,102.7 100.5,102.1 103.0,101.8 105.4,101.5 107.8,101.0 110.3,100.2 112.7,99.5 115.1,99.1 117.6,98.5 120.0,98.3 122.4,98.2 124.9,97.9 127.3,97.4 129.7,97.1 132.2,96.8 134.6,96.2 137.0,95.3 139.5,95.1 141.9,95.0 144.3,94.6 146.8,93.9 149.2,93.4 151.6,92.7 154.1,92.2 156.5,91.5 158.9,91.4 161.4,91.0 163.8,90.4 166.2,89.7 168.6,89.2 171.1,88.9 173.5,88.6 175.9,88.3 178.4,87.6 180.8,86.9 183.2,86.3 185.7,85.6 188.1,85.3 190.5,85.1 193.0,84.9 195.4,84.4 197.8,84.0 200.3,83.7 202.7,83.5 205.1,83.3 207.6,82.9 210.0,82.7 212.4,82.5 214.9,82.3 217.3,81.7 219.7,81.3 222.2,81.2 224.6,80.9 227.0,80.8 229.5,80.8 231.9,92.0 234.3,90.9 236.8,89.9 239.2,88.9 241.6,85.8 244.1,83.7 246.5,81.4 248.9,80.6 251.4,79.6 253.8,78.0 256.2,76.3 258.6,75.1 261.1,74.6 263.5,74.1 265.9,72.9 268.4,72.0 270.8,71.4 273.2,70.7 275.7,70.4 278.1,70.3 280.5,69.6 283.0,68.6 285.4,67.8 287.8,67.1 290.3,66.2 292.7,65.8 295.1,65.5 297.6,64.8 300.0,64.2 302.4,63.6 304.9,63.1 307.3,62.8 309.7,62.7 312.2,62.3 314.6,61.7 317.0,61.3 319.5,60.9 321.9,60.6 324.3,60.3 326.8,60.0 329.2,59.7 331.6,59.4 334.1,59.1 336.5,58.6 338.9,58.1 341.4,57.6 343.8,57.3 346.2,57.0 348.6,56.8 351.1,56.5 353.5,56.2 355.9,55.4 358.4,54.9 360.8,54.2 363.2,54.0 365.7,53.9 368.1,53.6 370.5,53.2 373.0,52.8 375.4,52.4 377.8,51.9 380.3,51.6 382.7,51.4 385.1,51.2 387.6,50.9 390.0,50.7 392.4,50.4 394.9,50.1 397.3,49.6 399.7,49.4 402.2,49.2 404.6,49.0 407.0,48.9 409.5,48.4 411.9,48.1 414.3,47.7 416.8,47.4 419.2,47.0 421.6,46.8 424.1,46.6 426.5,46.3 428.9,45.8 431.4,45.4 433.8,45.0 436.2,44.7 438.6,44.1 441.1,43.9 443.5,43.7 445.9,43.6 448.4,43.3 450.8,43.0 453.2,42.6 455.7,42.4 458.1,42.1 460.5,41.9 463.0,41.6 465.4,41.4 467.8,41.3 470.3,41.0 472.7,40.5 475.1,40.3 477.6,39.9 480.0,39.8 482.4,39.6 484.9,39.3 487.3,39.1 489.7,38.9 492.2,38.6 494.6,38.1 497.0,37.6 499.5,37.3 501.9,37.0 504.3,36.9 506.8,36.8 509.2,36.5 511.6,36.0 514.1,35.8 516.5,35.6 518.9,35.3 521.4,35.0 523.8,34.7 526.2,34.5 528.6,34.4 531.1,34.0 533.5,33.7 535.9,33.3 538.4,32.9 540.8,32.8 543.2,32.7 545.7,32.6 548.1,32.3 550.5,32.1 553.0,31.8 555.4,31.5 557.8,31.2 560.3,31.0 562.7,30.8 565.1,30.6 567.6,30.4 570.0,30.0 570.0,30.0,120" />
  
  <!-- Linea principale -->
  <polyline fill="none" stroke="#0366d6" stroke-width="2.5" stroke-linecap="round" stroke-linejoin="round" points="30.0,120.0 32.4,119.1 34.9,118.2 37.3,117.3 39.7,117.1 42.2,116.7 44.6,115.7 47.0,115.0 49.5,114.5 51.9,113.5 54.3,112.9 56.8,112.4 59.2,112.1 61.6,111.6 64.1,110.9 66.5,110.2 68.9,109.6 71.4,109.2 73.8,108.9 76.2,108.5 78.6,107.9 81.1,107.4 83.5,107.2 85.9,106.7 88.4,105.0 90.8,104.6 93.2,103.9 95.7,103.2 98.1,102.7 100.5,102.1 103.0,101.8 105.4,101.5 107.8,101.0 110.3,100.2 112.7,99.5 115.1,99.1 117.6,98.5 120.0,98.3 122.4,98.2 124.9,97.9 127.3,97.4 129.7,97.1 132.2,96.8 134.6,96.2 137.0,95.3 139.5,95.1 141.9,95.0 144.3,94.6 146.8,93.9 149.2,93.4 151.6,92.7 154.1,92.2 156.5,91.5 158.9,91.4 161.4,91.0 163.8,90.4 166.2,89.7 168.6,89.2 171.1,88.9 173.5,88.6 175.9,88.3 178.4,87.6 180.8,86.9 183.2,86.3 185.7,85.6 188.1,85.3 190.5,85.1 193.0,84.9 195.4,84.4 197.8,84.0 200.3,83.7 202.7,83.5 205.1,83.3 207.6,82.9 210.0,82.7 212.4,82.5 214.9,82.3 217.3,81.7 219.7,81.3 222.2,81.2 224.6,80.9 227.0,80.8 229.5,80.8 231.9,92.0 234.3,90.9 236.8,89.9 239.2,88.9 241.6,85.8 244.1,83.7 246.5,81.4 248.9,80.6 251.4,79.6 253.8,78.0 256.2,76.3 258.6,75.1 261.1,74.6 263.5,74.1 265.9,72.9 268.4,72.0 270.8,71.4 273.2,70.7 275.7,70.4 278.1,70.3 280.5,69.6 283.0,68.6 285.4,67.8 287.8,67.1 290.3,66.2 292.7,65.8 295.1,65.5 297.6,64.8 300.0,64.2 302.4,63.6 304.9,63.1 307.3,62.8 309.7,62.7 312.2,62.3 314.6,61.7 317.0,61.3 319.5,60.9 321.9,60.6 324.3,60.3 326.8,60.0 329.2,59.7 331.6,59.4 334.1,59.1 336.5,58.6 338.9,58.1 341.4,57.6 343.8,57.3 346.2,57.0 348.6,56.8 351.1,56.5 353.5,56.2 355.9,55.4 358.4,54.9 360.8,54.2 363.2,54.0 365.7,53.9 368.1,53.6 370.5,53.2 373.0,52.8 375.4,52.4 377.8,51.9 380.3,51.6 382.7,51.4 385.1,51.2 387.6,50.9 390.0,50.7 392.4,50.4 394.9,50.1 397.3,49.6 399.7,49.4 402.2,49.2 404.6,49.0 407.0,48.9 409.5,48.4 411.9,48.1 414.3,47.7 416.8,47.4 419.2,47.0 421.6,46.8 424.1,46.6 426.5,46.3 428.9,45.8 431.4,45.4 433.8,45.0 436.2,44.7 438.6,44.1 441.1,43.9 443.5,43.7 445.9,43.6 448.4,43.3 450.8,43.0 453.2,42.6 455.7,42.4 458.1,42.1 460.5,41.9 463.0,41.6 465.4,41.4 467.8,41.3 470.3,41.0 472.7,40.5 475.1,40.3 477.6,39.9 480.0,39.8 482.4,39.6 484.9,39.3 487.3,39.1 489.7,38.9 492.2,38.6 494.6,38.1 497.0,37.6 499.5,37.3 501.9,37.0 504.3,36.9 506.8,36.8 509.2,36.5 511.6,36.0 514.1,35.8 516.5,35.6 518.9,35.3 521.4,35.0 523.8,34.7 526.2,34.5 528.6,34.4 531.1,34.0 533.5,33.7 535.9,33.3 538.4,32.9 540.8,32.8 543.2,32.7 545.7,32.6 548.1,32.3 550.5,32.1 553.0,31.8 555.4,31.5 557.8,31.2 560.3,31.0 562.7,30.8 565.1,30.6 567.6,30.4 570.0,30.0" />
  
  <!-- Punto finale luminoso -->
  <circle cx="570.0" cy="30.0" r="4" fill="#ffffff" stroke="#0366d6" stroke-width="2.5" />
</svg>