<svg width="600" height="150" viewBox="0 0 600 150" xmlns="http://www.w3.org/2000/svg">
  <defs>
    <filter id="shadow2" x="-2%" y="-2%" width="104%" height="108%">
      <feDropShadow dx="0" dy="2" stdDeviation="3" flood-opacity="0.1" />
    </filter>
    <linearGradient id="fillGrad" x1="0" y1="0" x2="0" y2="1">
      <stop offset="0%" stop-color="#0366d6" stop-opacity="0.3"/>
      <stop offset="100%" stop-color="#0366d6" stop-opacity="0.02"/>
    </linearGradient>
  </defs>
  <rect width="600" height="150" rx="12" fill="#ffffff" filter="url(#shadow2)" stroke="#e1e4e8" stroke-width="1"/>
  <text x="20" y="24" fill="#2b3137" font-family="-apple-system,BlinkMacSystemFont,'Segoe UI',Helvetica,Arial,sans-serif" font-size="14" font-weight="600">📈 Download Growth (Actual: 85.6k)</text>
  
  <!-- Area sotto la linea -->
  <polygon fill="url(#fillGrad)" points="30.0,120.0,120 30.0,120.0 31.5,119.5 33.0,118.9 34.5,118.4 36.0,118.2 37.5,118.0 39.0,117.3 40.5,116.9 42.0,116.6 43.5,116.0 45.0,115.7 46.5,115.4 48.0,115.2 49.4,114.9 50.9,114.4 52.4,114.0 53.9,113.6 55.4,113.4 56.9,113.2 58.4,112.9 59.9,112.6 61.4,112.3 62.9,112.1 64.4,111.9 65.9,110.8 67.4,110.5 68.9,110.1 70.4,109.7 71.9,109.4 73.4,109.0 74.9,108.8 76.4,108.7 77.9,108.4 79.4,107.9 80.9,107.5 82.4,107.2 83.9,106.8 85.3,106.7 86.8,106.6 88.3,106.5 89.8,106.1 91.3,106.0 92.8,105.8 94.3,105.4 95.8,104.9 97.3,104.8 98.8,104.7 100.3,104.4 101.8,104.0 103.3,103.7 104.8,103.3 106.3,103.0 107.8,102.6 109.3,102.5 110.8,102.2 112.3,101.8 113.8,101.4 115.3,101.1 116.8,101.0 118.3,100.8 119.8,100.6 121.2,100.1 122.7,99.7 124.2,99.3 125.7,98.9 127.2,98.8 128.7,98.6 130.2,98.5 131.7,98.2 133.2,98.0 134.7,97.8 136.2,97.6 137.7,97.5 139.2,97.3 140.7,97.1 142.2,97.0 143.7,96.9 145.2,96.5 146.7,96.3 148.2,96.2 149.7,96.1 151.2,96.0 152.7,96.0 154.2,102.8 155.7,102.2 157.1,101.6 158.6,100.9 160.1,99.1 161.6,97.7 163.1,96.3 164.6,95.8 166.1,95.2 167.6,94.3 169.1,93.2 170.6,92.5 172.1,92.2 173.6,91.9 175.1,91.1 176.6,90.6 178.1,90.2 179.6,89.8 181.1,89.6 182.6,89.5 184.1,89.1 185.6,88.5 187.1,88.0 188.6,87.6 190.1,87.1 191.6,86.8 193.0,86.6 194.5,86.2 196.0,85.8 197.5,85.4 199.0,85.1 200.5,85.0 202.0,84.9 203.5,84.6 205.0,84.3 206.5,84.0 208.0,83.8 209.5,83.6 211.0,83.4 212.5,83.2 214.0,83.0 215.5,82.9 217.0,82.7 218.5,82.3 220.0,82.1 221.5,81.8 223.0,81.6 224.5,81.4 226.0,81.3 227.5,81.1 228.9,80.9 230.4,80.4 231.9,80.1 233.4,79.7 234.9,79.5 236.4,79.5 237.9,79.3 239.4,79.1 240.9,78.8 242.4,78.6 243.9,78.3 245.4,78.1 246.9,78.0 248.4,77.8 249.9,77.7 251.4,77.5 252.9,77.3 254.4,77.2 255.9,76.9 257.4,76.7 258.9,76.6 260.4,76.5 261.9,76.4 263.4,76.1 264.8,75.9 266.3,75.7 267.8,75.5 269.3,75.3 270.8,75.1 272.3,75.0 273.8,74.9 275.3,74.6 276.8,74.3 278.3,74.1 279.8,73.8 281.3,73.5 282.8,73.4 284.3,73.3 285.8,73.2 287.3,73.0 288.8,72.8 290.3,72.6 291.8,72.4 293.3,72.3 294.8,72.1 296.3,72.0 297.8,71.8 299.3,71.7 300.7,71.6 302.2,71.3 303.7,71.2 305.2,70.9 306.7,70.8 308.2,70.7 309.7,70.5 311.2,70.4 312.7,70.3 314.2,70.1 315.7,69.8 317.2,69.5 318.7,69.3 320.2,69.1 321.7,69.1 323.2,69.0 324.7,68.8 326.2,68.5 327.7,68.4 329.2,68.3 330.7,68.1 332.2,67.9 333.7,67.7 335.2,67.6 336.6,67.5 338.1,67.3 339.6,67.1 341.1,66.9 342.6,66.6 344.1,66.6 345.6,66.5 347.1,66.4 348.6,66.3 350.1,66.1 351.6,65.9 353.1,65.8 354.6,65.6 356.1,65.5 357.6,65.3 359.1,65.2 360.6,65.1 362.1,64.8 363.6,64.6 365.1,64.4 366.6,64.3 368.1,64.2 369.6,64.1 371.1,64.0 372.5,63.9 374.0,63.8 375.5,63.6 377.0,63.4 378.5,63.2 380.0,63.1 381.5,63.0 383.0,62.8 384.5,62.7 386.0,62.5 387.5,62.4 389.0,62.2 390.5,62.1 392.0,61.9 393.5,61.8 395.0,61.6 396.5,61.5 398.0,61.4 399.5,61.3 401.0,61.2 402.5,61.0 404.0,60.9 405.5,60.9 407.0,60.7 408.4,60.4 409.9,60.2 411.4,64.7 412.9,63.8 414.4,62.1 415.9,61.5 417.4,60.7 418.9,59.7 420.4,59.2 421.9,58.8 423.4,58.2 424.9,57.2 426.4,56.5 427.9,56.2 429.4,55.9 430.9,55.6 432.4,55.1 433.9,54.6 435.4,54.1 436.9,53.8 438.4,53.3 439.9,53.1 441.4,52.7 442.9,52.5 444.3,52.2 445.8,52.0 447.3,51.5 448.8,51.2 450.3,50.7 451.8,50.1 453.3,49.7 454.8,49.5 456.3,49.4 457.8,49.1 459.3,48.7 460.8,48.4 462.3,48.1 463.8,47.2 465.3,46.4 466.8,46.1 468.3,45.9 469.8,45.6 471.3,45.1 472.8,44.7 474.3,44.4 475.8,44.1 477.3,43.8 478.8,43.5 480.2,43.2 481.7,42.8 483.2,42.5 484.7,42.3 486.2,42.2 487.7,41.7 489.2,41.5 490.7,41.2 492.2,41.1 493.7,40.9 495.2,40.6 496.7,40.5 498.2,40.3 499.7,40.1 501.2,39.9 502.7,39.7 504.2,39.4 505.7,39.2 507.2,38.9 508.7,38.5 510.2,38.2 511.7,38.1 513.2,37.9 514.7,37.7 516.1,37.5 517.6,37.3 519.1,37.1 520.6,37.0 522.1,36.9 523.6,36.7 525.1,36.6 526.6,36.2 528.1,36.1 529.6,35.9 531.1,35.7 532.6,35.3 534.1,35.0 535.6,34.8 537.1,34.6 538.6,34.3 540.1,34.1 541.6,33.8 543.1,33.6 544.6,33.4 546.1,33.3 547.6,33.1 549.1,32.9 550.6,32.6 552.0,32.5 553.5,32.4 555.0,32.1 556.5,31.8 558.0,31.7 559.5,31.4 561.0,31.2 562.5,30.9 564.0,30.6 565.5,30.5 567.0,30.3 568.5,30.1 570.0,30.0 570.0,30.0,120" />
  
  <!-- Linea principale -->
  <polyline fill="none" stroke="#0366d6" stroke-width="2.5" stroke-linecap="round" stroke-linejoin="round" points="30.0,120.0 31.5,119.5 33.0,118.9 34.5,118.4 36.0,118.2 37.5,118.0 39.0,117.3 40.5,116.9 42.0,116.6 43.5,116.0 45.0,115.7 46.5,115.4 48.0,115.2 49.4,114.9 50.9,114.4 52.4,114.0 53.9,113.6 55.4,113.4 56.9,113.2 58.4,112.9 59.9,112.6 61.4,112.3 62.9,112.1 64.4,111.9 65.9,110.8 67.4,110.5 68.9,110.1 70.4,109.7 71.9,109.4 73.4,109.0 74.9,108.8 76.4,108.7 77.9,108.4 79.4,107.9 80.9,107.5 82.4,107.2 83.9,106.8 85.3,106.7 86.8,106.6 88.3,106.5 89.8,106.1 91.3,106.0 92.8,105.8 94.3,105.4 95.8,104.9 97.3,104.8 98.8,104.7 100.3,104.4 101.8,104.0 103.3,103.7 104.8,103.3 106.3,103.0 107.8,102.6 109.3,102.5 110.8,102.2 112.3,101.8 113.8,101.4 115.3,101.1 116.8,101.0 118.3,100.8 119.8,100.6 121.2,100.1 122.7,99.7 124.2,99.3 125.7,98.9 127.2,98.8 128.7,98.6 130.2,98.5 131.7,98.2 133.2,98.0 134.7,97.8 136.2,97.6 137.7,97.5 139.2,97.3 140.7,97.1 142.2,97.0 143.7,96.9 145.2,96.5 146.7,96.3 148.2,96.2 149.7,96.1 151.2,96.0 152.7,96.0 154.2,102.8 155.7,102.2 157.1,101.6 158.6,100.9 160.1,99.1 161.6,97.7 163.1,96.3 164.6,95.8 166.1,95.2 167.6,94.3 169.1,93.2 170.6,92.5 172.1,92.2 173.6,91.9 175.1,91.1 176.6,90.6 178.1,90.2 179.6,89.8 181.1,89.6 182.6,89.5 184.1,89.1 185.6,88.5 187.1,88.0 188.6,87.6 190.1,87.1 191.6,86.8 193.0,86.6 194.5,86.2 196.0,85.8 197.5,85.4 199.0,85.1 200.5,85.0 202.0,84.9 203.5,84.6 205.0,84.3 206.5,84.0 208.0,83.8 209.5,83.6 211.0,83.4 212.5,83.2 214.0,83.0 215.5,82.9 217.0,82.7 218.5,82.3 220.0,82.1 221.5,81.8 223.0,81.6 224.5,81.4 226.0,81.3 227.5,81.1 228.9,80.9 230.4,80.4 231.9,80.1 233.4,79.7 234.9,79.5 236.4,79.5 237.9,79.3 239.4,79.1 240.9,78.8 242.4,78.6 243.9,78.3 245.4,78.1 246.9,78.0 248.4,77.8 249.9,77.7 251.4,77.5 252.9,77.3 254.4,77.2 255.9,76.9 257.4,76.7 258.9,76.6 260.4,76.5 261.9,76.4 263.4,76.1 264.8,75.9 266.3,75.7 267.8,75.5 269.3,75.3 270.8,75.1 272.3,75.0 273.8,74.9 275.3,74.6 276.8,74.3 278.3,74.1 279.8,73.8 281.3,73.5 282.8,73.4 284.3,73.3 285.8,73.2 287.3,73.0 288.8,72.8 290.3,72.6 291.8,72.4 293.3,72.3 294.8,72.1 296.3,72.0 297.8,71.8 299.3,71.7 300.7,71.6 302.2,71.3 303.7,71.2 305.2,70.9 306.7,70.8 308.2,70.7 309.7,70.5 311.2,70.4 312.7,70.3 314.2,70.1 315.7,69.8 317.2,69.5 318.7,69.3 320.2,69.1 321.7,69.1 323.2,69.0 324.7,68.8 326.2,68.5 327.7,68.4 329.2,68.3 330.7,68.1 332.2,67.9 333.7,67.7 335.2,67.6 336.6,67.5 338.1,67.3 339.6,67.1 341.1,66.9 342.6,66.6 344.1,66.6 345.6,66.5 347.1,66.4 348.6,66.3 350.1,66.1 351.6,65.9 353.1,65.8 354.6,65.6 356.1,65.5 357.6,65.3 359.1,65.2 360.6,65.1 362.1,64.8 363.6,64.6 365.1,64.4 366.6,64.3 368.1,64.2 369.6,64.1 371.1,64.0 372.5,63.9 374.0,63.8 375.5,63.6 377.0,63.4 378.5,63.2 380.0,63.1 381.5,63.0 383.0,62.8 384.5,62.7 386.0,62.5 387.5,62.4 389.0,62.2 390.5,62.1 392.0,61.9 393.5,61.8 395.0,61.6 396.5,61.5 398.0,61.4 399.5,61.3 401.0,61.2 402.5,61.0 404.0,60.9 405.5,60.9 407.0,60.7 408.4,60.4 409.9,60.2 411.4,64.7 412.9,63.8 414.4,62.1 415.9,61.5 417.4,60.7 418.9,59.7 420.4,59.2 421.9,58.8 423.4,58.2 424.9,57.2 426.4,56.5 427.9,56.2 429.4,55.9 430.9,55.6 432.4,55.1 433.9,54.6 435.4,54.1 436.9,53.8 438.4,53.3 439.9,53.1 441.4,52.7 442.9,52.5 444.3,52.2 445.8,52.0 447.3,51.5 448.8,51.2 450.3,50.7 451.8,50.1 453.3,49.7 454.8,49.5 456.3,49.4 457.8,49.1 459.3,48.7 460.8,48.4 462.3,48.1 463.8,47.2 465.3,46.4 466.8,46.1 468.3,45.9 469.8,45.6 471.3,45.1 472.8,44.7 474.3,44.4 475.8,44.1 477.3,43.8 478.8,43.5 480.2,43.2 481.7,42.8 483.2,42.5 484.7,42.3 486.2,42.2 487.7,41.7 489.2,41.5 490.7,41.2 492.2,41.1 493.7,40.9 495.2,40.6 496.7,40.5 498.2,40.3 499.7,40.1 501.2,39.9 502.7,39.7 504.2,39.4 505.7,39.2 507.2,38.9 508.7,38.5 510.2,38.2 511.7,38.1 513.2,37.9 514.7,37.7 516.1,37.5 517.6,37.3 519.1,37.1 520.6,37.0 522.1,36.9 523.6,36.7 525.1,36.6 526.6,36.2 528.1,36.1 529.6,35.9 531.1,35.7 532.6,35.3 534.1,35.0 535.6,34.8 537.1,34.6 538.6,34.3 540.1,34.1 541.6,33.8 543.1,33.6 544.6,33.4 546.1,33.3 547.6,33.1 549.1,32.9 550.6,32.6 552.0,32.5 553.5,32.4 555.0,32.1 556.5,31.8 558.0,31.7 559.5,31.4 561.0,31.2 562.5,30.9 564.0,30.6 565.5,30.5 567.0,30.3 568.5,30.1 570.0,30.0" />
  
  <!-- Punto finale luminoso -->
  <circle cx="570.0" cy="30.0" r="4" fill="#ffffff" stroke="#0366d6" stroke-width="2.5" />
</svg>