<svg width="600" height="150" viewBox="0 0 600 150" xmlns="http://www.w3.org/2000/svg">
  <defs>
    <filter id="shadow2" x="-2%" y="-2%" width="104%" height="108%">
      <feDropShadow dx="0" dy="2" stdDeviation="3" flood-opacity="0.1" />
    </filter>
    <linearGradient id="fillGrad" x1="0" y1="0" x2="0" y2="1">
      <stop offset="0%" stop-color="#0366d6" stop-opacity="0.3"/>
      <stop offset="100%" stop-color="#0366d6" stop-opacity="0.02"/>
    </linearGradient>
  </defs>
  <rect width="600" height="150" rx="12" fill="#ffffff" filter="url(#shadow2)" stroke="#e1e4e8" stroke-width="1"/>
  <text x="20" y="24" fill="#2b3137" font-family="-apple-system,BlinkMacSystemFont,'Segoe UI',Helvetica,Arial,sans-serif" font-size="14" font-weight="600">📈 Download Growth (Actual: 79.3k)</text>
  
  <!-- Area sotto la linea -->
  <polygon fill="url(#fillGrad)" points="30.0,120.0,120 30.0,120.0 32.1,119.2 34.2,118.3 36.3,117.5 38.4,117.3 40.5,116.9 42.7,116.0 44.8,115.4 46.9,114.9 49.0,114.0 51.1,113.5 53.2,113.0 55.3,112.7 57.4,112.3 59.5,111.6 61.6,110.9 63.8,110.4 65.9,110.0 68.0,109.8 70.1,109.3 72.2,108.8 74.3,108.4 76.4,108.2 78.5,107.7 80.6,106.2 82.7,105.8 84.8,105.2 87.0,104.6 89.1,104.0 91.2,103.5 93.3,103.2 95.4,102.9 97.5,102.5 99.6,101.8 101.7,101.1 103.8,100.7 105.9,100.2 108.0,100.0 110.2,99.9 112.3,99.6 114.4,99.1 116.5,98.9 118.6,98.6 120.7,98.1 122.8,97.3 124.9,97.1 127.0,96.9 129.1,96.6 131.2,95.9 133.4,95.5 135.5,94.8 137.6,94.4 139.7,93.8 141.8,93.6 143.9,93.3 146.0,92.7 148.1,92.0 150.2,91.6 152.3,91.4 154.5,91.1 156.6,90.8 158.7,90.1 160.8,89.5 162.9,88.9 165.0,88.3 167.1,88.0 169.2,87.9 171.3,87.6 173.4,87.1 175.5,86.8 177.7,86.6 179.8,86.3 181.9,86.1 184.0,85.8 186.1,85.6 188.2,85.4 190.3,85.3 192.4,84.7 194.5,84.3 196.6,84.2 198.8,84.0 200.9,83.9 203.0,83.9 205.1,94.2 207.2,93.2 209.3,92.3 211.4,91.3 213.5,88.5 215.6,86.5 217.7,84.4 219.8,83.6 222.0,82.7 224.1,81.3 226.2,79.7 228.3,78.5 230.4,78.1 232.5,77.7 234.6,76.6 236.7,75.7 238.8,75.2 240.9,74.5 243.0,74.3 245.2,74.2 247.3,73.6 249.4,72.6 251.5,71.9 253.6,71.2 255.7,70.4 257.8,70.1 259.9,69.8 262.0,69.1 264.1,68.5 266.2,67.9 268.4,67.5 270.5,67.3 272.6,67.1 274.7,66.8 276.8,66.3 278.9,65.9 281.0,65.5 283.1,65.2 285.2,64.9 287.3,64.6 289.5,64.4 291.6,64.1 293.7,63.9 295.8,63.3 297.9,62.9 300.0,62.5 302.1,62.2 304.2,61.9 306.3,61.7 308.4,61.5 310.5,61.2 312.7,60.5 314.8,60.0 316.9,59.3 319.0,59.1 321.1,59.0 323.2,58.7 325.3,58.4 327.4,58.0 329.5,57.7 331.6,57.2 333.8,56.9 335.9,56.8 338.0,56.5 340.1,56.3 342.2,56.1 344.3,55.8 346.4,55.5 348.5,55.1 350.6,54.9 352.7,54.7 354.8,54.5 357.0,54.4 359.1,54.0 361.2,53.7 363.3,53.3 365.4,53.0 367.5,52.7 369.6,52.5 371.7,52.3 373.8,52.1 375.9,51.6 378.0,51.2 380.2,50.9 382.3,50.5 384.4,50.0 386.5,49.8 388.6,49.7 390.7,49.5 392.8,49.2 394.9,49.0 397.0,48.7 399.1,48.4 401.2,48.2 403.4,48.0 405.5,47.7 407.6,47.5 409.7,47.4 411.8,47.1 413.9,46.7 416.0,46.5 418.1,46.2 420.2,46.0 422.3,45.8 424.5,45.6 426.6,45.4 428.7,45.2 430.8,45.0 432.9,44.5 435.0,44.0 437.1,43.7 439.2,43.5 441.3,43.4 443.4,43.3 445.5,43.0 447.7,42.5 449.8,42.4 451.9,42.2 454.0,41.9 456.1,41.7 458.2,41.4 460.3,41.2 462.4,41.0 464.5,40.7 466.6,40.4 468.8,40.0 470.9,39.7 473.0,39.6 475.1,39.5 477.2,39.4 479.3,39.1 481.4,38.9 483.5,38.6 485.6,38.4 487.7,38.1 489.8,37.9 492.0,37.8 494.1,37.5 496.2,37.3 498.3,37.0 500.4,36.7 502.5,36.4 504.6,36.1 506.7,36.0 508.8,35.8 510.9,35.7 513.0,35.5 515.2,35.4 517.3,35.1 519.4,34.8 521.5,34.6 523.6,34.3 525.7,34.2 527.8,34.0 529.9,33.7 532.0,33.5 534.1,33.3 536.2,33.1 538.4,32.9 540.5,32.6 542.6,32.4 544.7,32.1 546.8,32.0 548.9,31.9 551.0,31.7 553.1,31.5 555.2,31.3 557.3,31.1 559.5,31.0 561.6,30.8 563.7,30.3 565.8,30.0 567.9,36.8 570.0,35.4 570.0,35.4,120" />
  
  <!-- Linea principale -->
  <polyline fill="none" stroke="#0366d6" stroke-width="2.5" stroke-linecap="round" stroke-linejoin="round" points="30.0,120.0 32.1,119.2 34.2,118.3 36.3,117.5 38.4,117.3 40.5,116.9 42.7,116.0 44.8,115.4 46.9,114.9 49.0,114.0 51.1,113.5 53.2,113.0 55.3,112.7 57.4,112.3 59.5,111.6 61.6,110.9 63.8,110.4 65.9,110.0 68.0,109.8 70.1,109.3 72.2,108.8 74.3,108.4 76.4,108.2 78.5,107.7 80.6,106.2 82.7,105.8 84.8,105.2 87.0,104.6 89.1,104.0 91.2,103.5 93.3,103.2 95.4,102.9 97.5,102.5 99.6,101.8 101.7,101.1 103.8,100.7 105.9,100.2 108.0,100.0 110.2,99.9 112.3,99.6 114.4,99.1 116.5,98.9 118.6,98.6 120.7,98.1 122.8,97.3 124.9,97.1 127.0,96.9 129.1,96.6 131.2,95.9 133.4,95.5 135.5,94.8 137.6,94.4 139.7,93.8 141.8,93.6 143.9,93.3 146.0,92.7 148.1,92.0 150.2,91.6 152.3,91.4 154.5,91.1 156.6,90.8 158.7,90.1 160.8,89.5 162.9,88.9 165.0,88.3 167.1,88.0 169.2,87.9 171.3,87.6 173.4,87.1 175.5,86.8 177.7,86.6 179.8,86.3 181.9,86.1 184.0,85.8 186.1,85.6 188.2,85.4 190.3,85.3 192.4,84.7 194.5,84.3 196.6,84.2 198.8,84.0 200.9,83.9 203.0,83.9 205.1,94.2 207.2,93.2 209.3,92.3 211.4,91.3 213.5,88.5 215.6,86.5 217.7,84.4 219.8,83.6 222.0,82.7 224.1,81.3 226.2,79.7 228.3,78.5 230.4,78.1 232.5,77.7 234.6,76.6 236.7,75.7 238.8,75.2 240.9,74.5 243.0,74.3 245.2,74.2 247.3,73.6 249.4,72.6 251.5,71.9 253.6,71.2 255.7,70.4 257.8,70.1 259.9,69.8 262.0,69.1 264.1,68.5 266.2,67.9 268.4,67.5 270.5,67.3 272.6,67.1 274.7,66.8 276.8,66.3 278.9,65.9 281.0,65.5 283.1,65.2 285.2,64.9 287.3,64.6 289.5,64.4 291.6,64.1 293.7,63.9 295.8,63.3 297.9,62.9 300.0,62.5 302.1,62.2 304.2,61.9 306.3,61.7 308.4,61.5 310.5,61.2 312.7,60.5 314.8,60.0 316.9,59.3 319.0,59.1 321.1,59.0 323.2,58.7 325.3,58.4 327.4,58.0 329.5,57.7 331.6,57.2 333.8,56.9 335.9,56.8 338.0,56.5 340.1,56.3 342.2,56.1 344.3,55.8 346.4,55.5 348.5,55.1 350.6,54.9 352.7,54.7 354.8,54.5 357.0,54.4 359.1,54.0 361.2,53.7 363.3,53.3 365.4,53.0 367.5,52.7 369.6,52.5 371.7,52.3 373.8,52.1 375.9,51.6 378.0,51.2 380.2,50.9 382.3,50.5 384.4,50.0 386.5,49.8 388.6,49.7 390.7,49.5 392.8,49.2 394.9,49.0 397.0,48.7 399.1,48.4 401.2,48.2 403.4,48.0 405.5,47.7 407.6,47.5 409.7,47.4 411.8,47.1 413.9,46.7 416.0,46.5 418.1,46.2 420.2,46.0 422.3,45.8 424.5,45.6 426.6,45.4 428.7,45.2 430.8,45.0 432.9,44.5 435.0,44.0 437.1,43.7 439.2,43.5 441.3,43.4 443.4,43.3 445.5,43.0 447.7,42.5 449.8,42.4 451.9,42.2 454.0,41.9 456.1,41.7 458.2,41.4 460.3,41.2 462.4,41.0 464.5,40.7 466.6,40.4 468.8,40.0 470.9,39.7 473.0,39.6 475.1,39.5 477.2,39.4 479.3,39.1 481.4,38.9 483.5,38.6 485.6,38.4 487.7,38.1 489.8,37.9 492.0,37.8 494.1,37.5 496.2,37.3 498.3,37.0 500.4,36.7 502.5,36.4 504.6,36.1 506.7,36.0 508.8,35.8 510.9,35.7 513.0,35.5 515.2,35.4 517.3,35.1 519.4,34.8 521.5,34.6 523.6,34.3 525.7,34.2 527.8,34.0 529.9,33.7 532.0,33.5 534.1,33.3 536.2,33.1 538.4,32.9 540.5,32.6 542.6,32.4 544.7,32.1 546.8,32.0 548.9,31.9 551.0,31.7 553.1,31.5 555.2,31.3 557.3,31.1 559.5,31.0 561.6,30.8 563.7,30.3 565.8,30.0 567.9,36.8 570.0,35.4" />
  
  <!-- Punto finale luminoso -->
  <circle cx="570.0" cy="35.4" r="4" fill="#ffffff" stroke="#0366d6" stroke-width="2.5" />
</svg>