<svg width="600" height="150" viewBox="0 0 600 150" xmlns="http://www.w3.org/2000/svg">
  <defs>
    <filter id="shadow2" x="-2%" y="-2%" width="104%" height="108%">
      <feDropShadow dx="0" dy="2" stdDeviation="3" flood-opacity="0.1" />
    </filter>
    <linearGradient id="fillGrad" x1="0" y1="0" x2="0" y2="1">
      <stop offset="0%" stop-color="#0366d6" stop-opacity="0.3"/>
      <stop offset="100%" stop-color="#0366d6" stop-opacity="0.02"/>
    </linearGradient>
  </defs>
  <rect width="600" height="150" rx="12" fill="#ffffff" filter="url(#shadow2)" stroke="#e1e4e8" stroke-width="1"/>
  <text x="20" y="24" fill="#2b3137" font-family="-apple-system,BlinkMacSystemFont,'Segoe UI',Helvetica,Arial,sans-serif" font-size="14" font-weight="600">📈 Download Growth (Actual: 71.5k)</text>
  
  <!-- Area sotto la linea -->
  <polygon fill="url(#fillGrad)" points="30.0,120.0,120 30.0,120.0 37.6,117.8 45.2,115.5 52.8,113.4 60.4,112.9 68.0,111.8 75.6,109.3 83.2,107.6 90.8,106.5 98.5,103.9 106.1,102.6 113.7,101.3 121.3,100.5 128.9,99.4 136.5,97.6 144.1,95.8 151.7,94.3 159.3,93.4 166.9,92.7 174.5,91.5 182.1,90.1 189.7,88.9 197.3,88.4 204.9,87.2 212.5,83.1 220.1,81.9 227.7,80.3 235.4,78.7 243.0,77.3 250.6,75.9 258.2,75.0 265.8,74.4 273.4,73.2 281.0,71.2 288.6,69.5 296.2,68.4 303.8,67.0 311.4,66.6 319.0,66.3 326.6,65.6 334.2,64.2 341.8,63.5 349.4,62.9 357.0,61.4 364.6,59.2 372.3,58.7 379.9,58.3 387.5,57.4 395.1,55.7 402.7,54.5 410.3,52.7 417.9,51.4 425.5,49.8 433.1,49.5 440.7,48.5 448.3,46.9 455.9,45.2 463.5,44.0 471.1,43.4 478.7,42.6 486.3,41.9 493.9,40.0 501.5,38.3 509.2,36.8 516.8,35.3 524.4,34.5 532.0,34.0 539.6,33.4 547.2,32.1 554.8,31.3 562.4,30.6 570.0,30.0 570.0,30.0,120" />
  
  <!-- Linea principale -->
  <polyline fill="none" stroke="#0366d6" stroke-width="2.5" stroke-linecap="round" stroke-linejoin="round" points="30.0,120.0 37.6,117.8 45.2,115.5 52.8,113.4 60.4,112.9 68.0,111.8 75.6,109.3 83.2,107.6 90.8,106.5 98.5,103.9 106.1,102.6 113.7,101.3 121.3,100.5 128.9,99.4 136.5,97.6 144.1,95.8 151.7,94.3 159.3,93.4 166.9,92.7 174.5,91.5 182.1,90.1 189.7,88.9 197.3,88.4 204.9,87.2 212.5,83.1 220.1,81.9 227.7,80.3 235.4,78.7 243.0,77.3 250.6,75.9 258.2,75.0 265.8,74.4 273.4,73.2 281.0,71.2 288.6,69.5 296.2,68.4 303.8,67.0 311.4,66.6 319.0,66.3 326.6,65.6 334.2,64.2 341.8,63.5 349.4,62.9 357.0,61.4 364.6,59.2 372.3,58.7 379.9,58.3 387.5,57.4 395.1,55.7 402.7,54.5 410.3,52.7 417.9,51.4 425.5,49.8 433.1,49.5 440.7,48.5 448.3,46.9 455.9,45.2 463.5,44.0 471.1,43.4 478.7,42.6 486.3,41.9 493.9,40.0 501.5,38.3 509.2,36.8 516.8,35.3 524.4,34.5 532.0,34.0 539.6,33.4 547.2,32.1 554.8,31.3 562.4,30.6 570.0,30.0" />
  
  <!-- Punto finale luminoso -->
  <circle cx="570.0" cy="30.0" r="4" fill="#ffffff" stroke="#0366d6" stroke-width="2.5" />
</svg>