<svg width="600" height="150" viewBox="0 0 600 150" xmlns="http://www.w3.org/2000/svg">
  <defs>
    <filter id="shadow2" x="-2%" y="-2%" width="104%" height="108%">
      <feDropShadow dx="0" dy="2" stdDeviation="3" flood-opacity="0.1" />
    </filter>
    <linearGradient id="fillGrad" x1="0" y1="0" x2="0" y2="1">
      <stop offset="0%" stop-color="#0366d6" stop-opacity="0.3"/>
      <stop offset="100%" stop-color="#0366d6" stop-opacity="0.02"/>
    </linearGradient>
  </defs>
  <rect width="600" height="150" rx="12" fill="#ffffff" filter="url(#shadow2)" stroke="#e1e4e8" stroke-width="1"/>
  <text x="20" y="24" fill="#2b3137" font-family="-apple-system,BlinkMacSystemFont,'Segoe UI',Helvetica,Arial,sans-serif" font-size="14" font-weight="600">📈 Download Growth (Actual: 71.0k)</text>
  
  <!-- Area sotto la linea -->
  <polygon fill="url(#fillGrad)" points="30.0,120.0,120 30.0,120.0 38.9,117.6 47.7,114.9 56.6,112.6 65.4,112.0 74.3,110.8 83.1,107.9 92.0,106.0 100.8,104.8 109.7,101.9 118.5,100.4 127.4,98.9 136.2,98.1 145.1,96.8 153.9,94.8 162.8,92.7 171.6,91.1 180.5,90.0 189.3,89.3 198.2,88.0 207.0,86.4 215.9,85.1 224.8,84.4 233.6,83.1 242.5,78.5 251.3,77.1 260.2,75.3 269.0,73.5 277.9,71.9 286.7,70.4 295.6,69.4 304.4,68.6 313.3,67.4 322.1,65.1 331.0,63.2 339.8,61.9 348.7,60.3 357.5,59.9 366.4,59.5 375.2,58.7 384.1,57.3 393.0,56.4 401.8,55.8 410.7,54.1 419.5,51.6 428.4,51.0 437.2,50.6 446.1,49.6 454.9,47.6 463.8,46.3 472.6,44.3 481.5,42.8 490.3,41.0 499.2,40.6 508.0,39.6 516.9,37.7 525.7,35.9 534.6,34.5 543.4,33.8 552.3,32.9 561.1,32.1 570.0,30.0 570.0,30.0,120" />
  
  <!-- Linea principale -->
  <polyline fill="none" stroke="#0366d6" stroke-width="2.5" stroke-linecap="round" stroke-linejoin="round" points="30.0,120.0 38.9,117.6 47.7,114.9 56.6,112.6 65.4,112.0 74.3,110.8 83.1,107.9 92.0,106.0 100.8,104.8 109.7,101.9 118.5,100.4 127.4,98.9 136.2,98.1 145.1,96.8 153.9,94.8 162.8,92.7 171.6,91.1 180.5,90.0 189.3,89.3 198.2,88.0 207.0,86.4 215.9,85.1 224.8,84.4 233.6,83.1 242.5,78.5 251.3,77.1 260.2,75.3 269.0,73.5 277.9,71.9 286.7,70.4 295.6,69.4 304.4,68.6 313.3,67.4 322.1,65.1 331.0,63.2 339.8,61.9 348.7,60.3 357.5,59.9 366.4,59.5 375.2,58.7 384.1,57.3 393.0,56.4 401.8,55.8 410.7,54.1 419.5,51.6 428.4,51.0 437.2,50.6 446.1,49.6 454.9,47.6 463.8,46.3 472.6,44.3 481.5,42.8 490.3,41.0 499.2,40.6 508.0,39.6 516.9,37.7 525.7,35.9 534.6,34.5 543.4,33.8 552.3,32.9 561.1,32.1 570.0,30.0" />
  
  <!-- Punto finale luminoso -->
  <circle cx="570.0" cy="30.0" r="4" fill="#ffffff" stroke="#0366d6" stroke-width="2.5" />
</svg>