<svg width="600" height="150" viewBox="0 0 600 150" xmlns="http://www.w3.org/2000/svg">
  <defs>
    <filter id="shadow2" x="-2%" y="-2%" width="104%" height="108%">
      <feDropShadow dx="0" dy="2" stdDeviation="3" flood-opacity="0.1" />
    </filter>
    <linearGradient id="fillGrad" x1="0" y1="0" x2="0" y2="1">
      <stop offset="0%" stop-color="#0366d6" stop-opacity="0.3"/>
      <stop offset="100%" stop-color="#0366d6" stop-opacity="0.02"/>
    </linearGradient>
  </defs>
  <rect width="600" height="150" rx="12" fill="#ffffff" filter="url(#shadow2)" stroke="#e1e4e8" stroke-width="1"/>
  <text x="20" y="24" fill="#2b3137" font-family="-apple-system,BlinkMacSystemFont,'Segoe UI',Helvetica,Arial,sans-serif" font-size="14" font-weight="600">📈 Download Growth (Actual: 78.7k)</text>
  
  <!-- Area sotto la linea -->
  <polygon fill="url(#fillGrad)" points="30.0,120.0,120 30.0,120.0 32.3,119.1 34.6,118.2 37.0,117.4 39.3,117.2 41.6,116.8 43.9,115.8 46.2,115.1 48.5,114.7 50.9,113.7 53.2,113.1 55.5,112.6 57.8,112.3 60.1,111.9 62.4,111.2 64.8,110.5 67.1,109.9 69.4,109.5 71.7,109.2 74.0,108.8 76.4,108.2 78.7,107.8 81.0,107.5 83.3,107.1 85.6,105.5 87.9,105.0 90.3,104.4 92.6,103.7 94.9,103.2 97.2,102.6 99.5,102.3 101.8,102.0 104.2,101.6 106.5,100.8 108.8,100.1 111.1,99.7 113.4,99.1 115.8,99.0 118.1,98.8 120.4,98.6 122.7,98.0 125.0,97.7 127.3,97.5 129.7,96.9 132.0,96.1 134.3,95.8 136.6,95.7 138.9,95.3 141.2,94.7 143.6,94.2 145.9,93.5 148.2,93.0 150.5,92.3 152.8,92.2 155.2,91.8 157.5,91.2 159.8,90.5 162.1,90.1 164.4,89.8 166.7,89.5 169.1,89.2 171.4,88.5 173.7,87.8 176.0,87.2 178.3,86.6 180.6,86.3 183.0,86.1 185.3,85.9 187.6,85.4 189.9,85.1 192.2,84.8 194.5,84.5 196.9,84.3 199.2,84.0 201.5,83.7 203.8,83.6 206.1,83.4 208.5,82.8 210.8,82.4 213.1,82.3 215.4,82.1 217.7,81.9 220.0,81.9 222.4,92.8 224.7,91.7 227.0,90.8 229.3,89.8 231.6,86.8 233.9,84.7 236.3,82.5 238.6,81.7 240.9,80.7 243.2,79.2 245.5,77.6 247.9,76.3 250.2,75.9 252.5,75.4 254.8,74.2 257.1,73.4 259.4,72.8 261.8,72.1 264.1,71.8 266.4,71.7 268.7,71.1 271.0,70.1 273.3,69.3 275.7,68.6 278.0,67.8 280.3,67.4 282.6,67.1 284.9,66.4 287.3,65.8 289.6,65.2 291.9,64.7 294.2,64.5 296.5,64.3 298.8,63.9 301.2,63.4 303.5,63.0 305.8,62.6 308.1,62.3 310.4,62.0 312.7,61.7 315.1,61.4 317.4,61.2 319.7,60.9 322.0,60.3 324.3,59.9 326.7,59.4 329.0,59.1 331.3,58.8 333.6,58.6 335.9,58.3 338.2,58.1 340.6,57.3 342.9,56.8 345.2,56.1 347.5,55.8 349.8,55.8 352.1,55.5 354.5,55.1 356.8,54.7 359.1,54.3 361.4,53.9 363.7,53.5 366.1,53.4 368.4,53.1 370.7,52.9 373.0,52.7 375.3,52.4 377.6,52.1 380.0,51.6 382.3,51.4 384.6,51.3 386.9,51.0 389.2,50.9 391.5,50.5 393.9,50.2 396.2,49.8 398.5,49.4 400.8,49.1 403.1,48.8 405.5,48.7 407.8,48.5 410.1,48.0 412.4,47.5 414.7,47.2 417.0,46.8 419.4,46.2 421.7,46.1 424.0,45.9 426.3,45.8 428.6,45.4 430.9,45.2 433.3,44.9 435.6,44.6 437.9,44.3 440.2,44.1 442.5,43.8 444.8,43.6 447.2,43.5 449.5,43.2 451.8,42.8 454.1,42.6 456.4,42.2 458.8,42.1 461.1,41.9 463.4,41.6 465.7,41.4 468.0,41.2 470.3,41.0 472.7,40.5 475.0,40.0 477.3,39.7 479.6,39.4 481.9,39.3 484.2,39.2 486.6,38.9 488.9,38.4 491.2,38.2 493.5,38.0 495.8,37.7 498.2,37.5 500.5,37.2 502.8,37.0 505.1,36.8 507.4,36.4 509.7,36.1 512.1,35.8 514.4,35.4 516.7,35.3 519.0,35.2 521.3,35.1 523.6,34.8 526.0,34.6 528.3,34.3 530.6,34.0 532.9,33.7 535.2,33.6 537.6,33.4 539.9,33.1 542.2,32.9 544.5,32.6 546.8,32.2 549.1,31.9 551.5,31.7 553.8,31.5 556.1,31.3 558.4,31.2 560.7,31.0 563.0,30.9 565.4,30.6 567.7,30.2 570.0,30.0 570.0,30.0,120" />
  
  <!-- Linea principale -->
  <polyline fill="none" stroke="#0366d6" stroke-width="2.5" stroke-linecap="round" stroke-linejoin="round" points="30.0,120.0 32.3,119.1 34.6,118.2 37.0,117.4 39.3,117.2 41.6,116.8 43.9,115.8 46.2,115.1 48.5,114.7 50.9,113.7 53.2,113.1 55.5,112.6 57.8,112.3 60.1,111.9 62.4,111.2 64.8,110.5 67.1,109.9 69.4,109.5 71.7,109.2 74.0,108.8 76.4,108.2 78.7,107.8 81.0,107.5 83.3,107.1 85.6,105.5 87.9,105.0 90.3,104.4 92.6,103.7 94.9,103.2 97.2,102.6 99.5,102.3 101.8,102.0 104.2,101.6 106.5,100.8 108.8,100.1 111.1,99.7 113.4,99.1 115.8,99.0 118.1,98.8 120.4,98.6 122.7,98.0 125.0,97.7 127.3,97.5 129.7,96.9 132.0,96.1 134.3,95.8 136.6,95.7 138.9,95.3 141.2,94.7 143.6,94.2 145.9,93.5 148.2,93.0 150.5,92.3 152.8,92.2 155.2,91.8 157.5,91.2 159.8,90.5 162.1,90.1 164.4,89.8 166.7,89.5 169.1,89.2 171.4,88.5 173.7,87.8 176.0,87.2 178.3,86.6 180.6,86.3 183.0,86.1 185.3,85.9 187.6,85.4 189.9,85.1 192.2,84.8 194.5,84.5 196.9,84.3 199.2,84.0 201.5,83.7 203.8,83.6 206.1,83.4 208.5,82.8 210.8,82.4 213.1,82.3 215.4,82.1 217.7,81.9 220.0,81.9 222.4,92.8 224.7,91.7 227.0,90.8 229.3,89.8 231.6,86.8 233.9,84.7 236.3,82.5 238.6,81.7 240.9,80.7 243.2,79.2 245.5,77.6 247.9,76.3 250.2,75.9 252.5,75.4 254.8,74.2 257.1,73.4 259.4,72.8 261.8,72.1 264.1,71.8 266.4,71.7 268.7,71.1 271.0,70.1 273.3,69.3 275.7,68.6 278.0,67.8 280.3,67.4 282.6,67.1 284.9,66.4 287.3,65.8 289.6,65.2 291.9,64.7 294.2,64.5 296.5,64.3 298.8,63.9 301.2,63.4 303.5,63.0 305.8,62.6 308.1,62.3 310.4,62.0 312.7,61.7 315.1,61.4 317.4,61.2 319.7,60.9 322.0,60.3 324.3,59.9 326.7,59.4 329.0,59.1 331.3,58.8 333.6,58.6 335.9,58.3 338.2,58.1 340.6,57.3 342.9,56.8 345.2,56.1 347.5,55.8 349.8,55.8 352.1,55.5 354.5,55.1 356.8,54.7 359.1,54.3 361.4,53.9 363.7,53.5 366.1,53.4 368.4,53.1 370.7,52.9 373.0,52.7 375.3,52.4 377.6,52.1 380.0,51.6 382.3,51.4 384.6,51.3 386.9,51.0 389.2,50.9 391.5,50.5 393.9,50.2 396.2,49.8 398.5,49.4 400.8,49.1 403.1,48.8 405.5,48.7 407.8,48.5 410.1,48.0 412.4,47.5 414.7,47.2 417.0,46.8 419.4,46.2 421.7,46.1 424.0,45.9 426.3,45.8 428.6,45.4 430.9,45.2 433.3,44.9 435.6,44.6 437.9,44.3 440.2,44.1 442.5,43.8 444.8,43.6 447.2,43.5 449.5,43.2 451.8,42.8 454.1,42.6 456.4,42.2 458.8,42.1 461.1,41.9 463.4,41.6 465.7,41.4 468.0,41.2 470.3,41.0 472.7,40.5 475.0,40.0 477.3,39.7 479.6,39.4 481.9,39.3 484.2,39.2 486.6,38.9 488.9,38.4 491.2,38.2 493.5,38.0 495.8,37.7 498.2,37.5 500.5,37.2 502.8,37.0 505.1,36.8 507.4,36.4 509.7,36.1 512.1,35.8 514.4,35.4 516.7,35.3 519.0,35.2 521.3,35.1 523.6,34.8 526.0,34.6 528.3,34.3 530.6,34.0 532.9,33.7 535.2,33.6 537.6,33.4 539.9,33.1 542.2,32.9 544.5,32.6 546.8,32.2 549.1,31.9 551.5,31.7 553.8,31.5 556.1,31.3 558.4,31.2 560.7,31.0 563.0,30.9 565.4,30.6 567.7,30.2 570.0,30.0" />
  
  <!-- Punto finale luminoso -->
  <circle cx="570.0" cy="30.0" r="4" fill="#ffffff" stroke="#0366d6" stroke-width="2.5" />
</svg>