<svg width="600" height="150" viewBox="0 0 600 150" xmlns="http://www.w3.org/2000/svg">
  <defs>
    <filter id="shadow2" x="-2%" y="-2%" width="104%" height="108%">
      <feDropShadow dx="0" dy="2" stdDeviation="3" flood-opacity="0.1" />
    </filter>
    <linearGradient id="fillGrad" x1="0" y1="0" x2="0" y2="1">
      <stop offset="0%" stop-color="#0366d6" stop-opacity="0.3"/>
      <stop offset="100%" stop-color="#0366d6" stop-opacity="0.02"/>
    </linearGradient>
  </defs>
  <rect width="600" height="150" rx="12" fill="#ffffff" filter="url(#shadow2)" stroke="#e1e4e8" stroke-width="1"/>
  <text x="20" y="24" fill="#2b3137" font-family="-apple-system,BlinkMacSystemFont,'Segoe UI',Helvetica,Arial,sans-serif" font-size="14" font-weight="600">📈 Download Growth (Actual: 76.9k)</text>
  
  <!-- Area sotto la linea -->
  <polygon fill="url(#fillGrad)" points="30.0,120.0,120 30.0,120.0 33.0,119.0 36.0,117.9 39.0,117.0 42.0,116.7 45.0,116.2 48.0,115.0 51.0,114.3 54.0,113.7 57.0,112.5 60.0,111.9 63.0,111.3 66.0,111.0 69.0,110.4 72.0,109.6 75.0,108.8 78.0,108.1 81.0,107.7 84.0,107.3 87.0,106.8 90.0,106.2 93.0,105.6 96.0,105.3 99.0,104.8 102.0,102.9 105.0,102.3 108.0,101.6 111.0,100.9 114.0,100.2 117.0,99.6 120.0,99.2 123.0,98.8 126.0,98.3 129.0,97.4 132.0,96.6 135.0,96.1 138.0,95.4 141.0,95.2 144.0,95.1 147.0,94.8 150.0,94.2 153.0,93.8 156.0,93.5 159.0,92.8 162.0,91.8 165.0,91.6 168.0,91.4 171.0,91.0 174.0,90.2 177.0,89.6 180.0,88.8 183.0,88.2 186.0,87.5 189.0,87.3 192.0,86.9 195.0,86.1 198.0,85.3 201.0,84.8 204.0,84.5 207.0,84.1 210.0,83.8 213.0,82.9 216.0,82.1 219.0,81.4 222.0,80.7 225.0,80.4 228.0,80.2 231.0,79.8 234.0,79.3 237.0,78.9 240.0,78.6 243.0,78.3 246.0,78.0 249.0,77.6 252.0,77.3 255.0,77.2 258.0,77.0 261.0,76.2 264.0,75.8 267.0,75.6 270.0,75.3 273.0,75.2 276.0,75.2 279.0,88.0 282.0,86.7 285.0,85.6 288.0,84.4 291.0,80.9 294.0,78.5 297.0,75.9 300.0,74.9 303.0,73.8 306.0,72.0 309.0,70.1 312.0,68.6 315.0,68.1 318.0,67.6 321.0,66.2 324.0,65.1 327.0,64.5 330.0,63.7 333.0,63.3 336.0,63.2 339.0,62.4 342.0,61.2 345.0,60.4 348.0,59.5 351.0,58.6 354.0,58.1 357.0,57.8 360.0,56.9 363.0,56.2 366.0,55.5 369.0,54.9 372.0,54.7 375.0,54.5 378.0,54.0 381.0,53.4 384.0,52.9 387.0,52.5 390.0,52.1 393.0,51.7 396.0,51.4 399.0,51.0 402.0,50.8 405.0,50.4 408.0,49.8 411.0,49.3 414.0,48.7 417.0,48.4 420.0,48.0 423.0,47.7 426.0,47.4 429.0,47.1 432.0,46.2 435.0,45.6 438.0,44.8 441.0,44.5 444.0,44.4 447.0,44.1 450.0,43.7 453.0,43.2 456.0,42.7 459.0,42.2 462.0,41.8 465.0,41.6 468.0,41.3 471.0,41.1 474.0,40.8 477.0,40.4 480.0,40.1 483.0,39.6 486.0,39.3 489.0,39.1 492.0,38.8 495.0,38.7 498.0,38.2 501.0,37.8 504.0,37.4 507.0,37.0 510.0,36.6 513.0,36.3 516.0,36.1 519.0,35.8 522.0,35.2 525.0,34.7 528.0,34.3 531.0,33.9 534.0,33.2 537.0,33.0 540.0,32.8 543.0,32.6 546.0,32.3 549.0,32.0 552.0,31.6 555.0,31.3 558.0,31.0 561.0,30.7 564.0,30.4 567.0,30.2 570.0,30.0 570.0,30.0,120" />
  
  <!-- Linea principale -->
  <polyline fill="none" stroke="#0366d6" stroke-width="2.5" stroke-linecap="round" stroke-linejoin="round" points="30.0,120.0 33.0,119.0 36.0,117.9 39.0,117.0 42.0,116.7 45.0,116.2 48.0,115.0 51.0,114.3 54.0,113.7 57.0,112.5 60.0,111.9 63.0,111.3 66.0,111.0 69.0,110.4 72.0,109.6 75.0,108.8 78.0,108.1 81.0,107.7 84.0,107.3 87.0,106.8 90.0,106.2 93.0,105.6 96.0,105.3 99.0,104.8 102.0,102.9 105.0,102.3 108.0,101.6 111.0,100.9 114.0,100.2 117.0,99.6 120.0,99.2 123.0,98.8 126.0,98.3 129.0,97.4 132.0,96.6 135.0,96.1 138.0,95.4 141.0,95.2 144.0,95.1 147.0,94.8 150.0,94.2 153.0,93.8 156.0,93.5 159.0,92.8 162.0,91.8 165.0,91.6 168.0,91.4 171.0,91.0 174.0,90.2 177.0,89.6 180.0,88.8 183.0,88.2 186.0,87.5 189.0,87.3 192.0,86.9 195.0,86.1 198.0,85.3 201.0,84.8 204.0,84.5 207.0,84.1 210.0,83.8 213.0,82.9 216.0,82.1 219.0,81.4 222.0,80.7 225.0,80.4 228.0,80.2 231.0,79.8 234.0,79.3 237.0,78.9 240.0,78.6 243.0,78.3 246.0,78.0 249.0,77.6 252.0,77.3 255.0,77.2 258.0,77.0 261.0,76.2 264.0,75.8 267.0,75.6 270.0,75.3 273.0,75.2 276.0,75.2 279.0,88.0 282.0,86.7 285.0,85.6 288.0,84.4 291.0,80.9 294.0,78.5 297.0,75.9 300.0,74.9 303.0,73.8 306.0,72.0 309.0,70.1 312.0,68.6 315.0,68.1 318.0,67.6 321.0,66.2 324.0,65.1 327.0,64.5 330.0,63.7 333.0,63.3 336.0,63.2 339.0,62.4 342.0,61.2 345.0,60.4 348.0,59.5 351.0,58.6 354.0,58.1 357.0,57.8 360.0,56.9 363.0,56.2 366.0,55.5 369.0,54.9 372.0,54.7 375.0,54.5 378.0,54.0 381.0,53.4 384.0,52.9 387.0,52.5 390.0,52.1 393.0,51.7 396.0,51.4 399.0,51.0 402.0,50.8 405.0,50.4 408.0,49.8 411.0,49.3 414.0,48.7 417.0,48.4 420.0,48.0 423.0,47.7 426.0,47.4 429.0,47.1 432.0,46.2 435.0,45.6 438.0,44.8 441.0,44.5 444.0,44.4 447.0,44.1 450.0,43.7 453.0,43.2 456.0,42.7 459.0,42.2 462.0,41.8 465.0,41.6 468.0,41.3 471.0,41.1 474.0,40.8 477.0,40.4 480.0,40.1 483.0,39.6 486.0,39.3 489.0,39.1 492.0,38.8 495.0,38.7 498.0,38.2 501.0,37.8 504.0,37.4 507.0,37.0 510.0,36.6 513.0,36.3 516.0,36.1 519.0,35.8 522.0,35.2 525.0,34.7 528.0,34.3 531.0,33.9 534.0,33.2 537.0,33.0 540.0,32.8 543.0,32.6 546.0,32.3 549.0,32.0 552.0,31.6 555.0,31.3 558.0,31.0 561.0,30.7 564.0,30.4 567.0,30.2 570.0,30.0" />
  
  <!-- Punto finale luminoso -->
  <circle cx="570.0" cy="30.0" r="4" fill="#ffffff" stroke="#0366d6" stroke-width="2.5" />
</svg>