<svg width="600" height="150" viewBox="0 0 600 150" xmlns="http://www.w3.org/2000/svg">
  <defs>
    <filter id="shadow2" x="-2%" y="-2%" width="104%" height="108%">
      <feDropShadow dx="0" dy="2" stdDeviation="3" flood-opacity="0.1" />
    </filter>
    <linearGradient id="fillGrad" x1="0" y1="0" x2="0" y2="1">
      <stop offset="0%" stop-color="#0366d6" stop-opacity="0.3"/>
      <stop offset="100%" stop-color="#0366d6" stop-opacity="0.02"/>
    </linearGradient>
  </defs>
  <rect width="600" height="150" rx="12" fill="#ffffff" filter="url(#shadow2)" stroke="#e1e4e8" stroke-width="1"/>
  <text x="20" y="24" fill="#2b3137" font-family="-apple-system,BlinkMacSystemFont,'Segoe UI',Helvetica,Arial,sans-serif" font-size="14" font-weight="600">📈 Download Growth (Actual: 74.9k)</text>
  
  <!-- Area sotto la linea -->
  <polygon fill="url(#fillGrad)" points="30.0,120.0,120 30.0,120.0 34.2,118.7 38.3,117.4 42.5,116.2 46.6,115.9 50.8,115.2 54.9,113.8 59.1,112.8 63.2,112.2 67.4,110.7 71.5,109.9 75.7,109.2 79.8,108.7 84.0,108.0 88.2,107.0 92.3,106.0 96.5,105.1 100.6,104.6 104.8,104.2 108.9,103.5 113.1,102.7 117.2,102.0 121.4,101.7 125.5,101.0 129.7,98.6 133.8,97.9 138.0,97.0 142.2,96.1 146.3,95.3 150.5,94.5 154.6,94.0 158.8,93.6 162.9,92.9 167.1,91.7 171.2,90.8 175.4,90.1 179.5,89.3 183.7,89.1 187.8,88.9 192.0,88.5 196.2,87.7 200.3,87.3 204.5,86.9 208.6,86.1 212.8,84.8 216.9,84.5 221.1,84.3 225.2,83.7 229.4,82.7 233.5,82.1 237.7,81.0 241.8,80.3 246.0,79.3 250.2,79.2 254.3,78.6 258.5,77.7 262.6,76.7 266.8,76.0 270.9,75.6 275.1,75.2 279.2,74.7 283.4,73.7 287.5,72.7 291.7,71.8 295.8,70.9 300.0,70.5 304.2,70.2 308.3,69.8 312.5,69.1 316.6,68.6 320.8,68.2 324.9,67.9 329.1,67.5 333.2,67.0 337.4,66.7 341.5,66.5 345.7,66.2 349.8,65.3 354.0,64.7 358.2,64.5 362.3,64.2 366.5,64.0 370.6,64.0 374.8,80.0 378.9,78.4 383.1,77.0 387.2,75.5 391.4,71.2 395.5,68.1 399.7,64.9 403.8,63.7 408.0,62.3 412.2,60.0 416.3,57.6 420.5,55.8 424.6,55.1 428.8,54.5 432.9,52.7 437.1,51.4 441.2,50.6 445.4,49.6 449.5,49.2 453.7,49.0 457.8,48.1 462.0,46.6 466.2,45.5 470.3,44.4 474.5,43.2 478.6,42.7 482.8,42.2 486.9,41.2 491.1,40.3 495.2,39.4 499.4,38.7 503.5,38.3 507.7,38.1 511.8,37.6 516.0,36.8 520.2,36.2 524.3,35.6 528.5,35.2 532.6,34.7 536.8,34.3 540.9,33.8 545.1,33.5 549.2,33.1 553.4,32.2 557.5,31.6 561.7,30.9 565.8,30.5 570.0,30.0 570.0,30.0,120" />
  
  <!-- Linea principale -->
  <polyline fill="none" stroke="#0366d6" stroke-width="2.5" stroke-linecap="round" stroke-linejoin="round" points="30.0,120.0 34.2,118.7 38.3,117.4 42.5,116.2 46.6,115.9 50.8,115.2 54.9,113.8 59.1,112.8 63.2,112.2 67.4,110.7 71.5,109.9 75.7,109.2 79.8,108.7 84.0,108.0 88.2,107.0 92.3,106.0 96.5,105.1 100.6,104.6 104.8,104.2 108.9,103.5 113.1,102.7 117.2,102.0 121.4,101.7 125.5,101.0 129.7,98.6 133.8,97.9 138.0,97.0 142.2,96.1 146.3,95.3 150.5,94.5 154.6,94.0 158.8,93.6 162.9,92.9 167.1,91.7 171.2,90.8 175.4,90.1 179.5,89.3 183.7,89.1 187.8,88.9 192.0,88.5 196.2,87.7 200.3,87.3 204.5,86.9 208.6,86.1 212.8,84.8 216.9,84.5 221.1,84.3 225.2,83.7 229.4,82.7 233.5,82.1 237.7,81.0 241.8,80.3 246.0,79.3 250.2,79.2 254.3,78.6 258.5,77.7 262.6,76.7 266.8,76.0 270.9,75.6 275.1,75.2 279.2,74.7 283.4,73.7 287.5,72.7 291.7,71.8 295.8,70.9 300.0,70.5 304.2,70.2 308.3,69.8 312.5,69.1 316.6,68.6 320.8,68.2 324.9,67.9 329.1,67.5 333.2,67.0 337.4,66.7 341.5,66.5 345.7,66.2 349.8,65.3 354.0,64.7 358.2,64.5 362.3,64.2 366.5,64.0 370.6,64.0 374.8,80.0 378.9,78.4 383.1,77.0 387.2,75.5 391.4,71.2 395.5,68.1 399.7,64.9 403.8,63.7 408.0,62.3 412.2,60.0 416.3,57.6 420.5,55.8 424.6,55.1 428.8,54.5 432.9,52.7 437.1,51.4 441.2,50.6 445.4,49.6 449.5,49.2 453.7,49.0 457.8,48.1 462.0,46.6 466.2,45.5 470.3,44.4 474.5,43.2 478.6,42.7 482.8,42.2 486.9,41.2 491.1,40.3 495.2,39.4 499.4,38.7 503.5,38.3 507.7,38.1 511.8,37.6 516.0,36.8 520.2,36.2 524.3,35.6 528.5,35.2 532.6,34.7 536.8,34.3 540.9,33.8 545.1,33.5 549.2,33.1 553.4,32.2 557.5,31.6 561.7,30.9 565.8,30.5 570.0,30.0" />
  
  <!-- Punto finale luminoso -->
  <circle cx="570.0" cy="30.0" r="4" fill="#ffffff" stroke="#0366d6" stroke-width="2.5" />
</svg>