<svg width="600" height="150" viewBox="0 0 600 150" xmlns="http://www.w3.org/2000/svg">
  <defs>
    <filter id="shadow2" x="-2%" y="-2%" width="104%" height="108%">
      <feDropShadow dx="0" dy="2" stdDeviation="3" flood-opacity="0.1" />
    </filter>
    <linearGradient id="fillGrad" x1="0" y1="0" x2="0" y2="1">
      <stop offset="0%" stop-color="#0366d6" stop-opacity="0.3"/>
      <stop offset="100%" stop-color="#0366d6" stop-opacity="0.02"/>
    </linearGradient>
  </defs>
  <rect width="600" height="150" rx="12" fill="#ffffff" filter="url(#shadow2)" stroke="#e1e4e8" stroke-width="1"/>
  <text x="20" y="24" fill="#2b3137" font-family="-apple-system,BlinkMacSystemFont,'Segoe UI',Helvetica,Arial,sans-serif" font-size="14" font-weight="600">📈 Download Growth (Actual: 76.8k)</text>
  
  <!-- Area sotto la linea -->
  <polygon fill="url(#fillGrad)" points="30.0,120.0,120 30.0,120.0 33.1,119.0 36.2,117.9 39.3,116.9 42.3,116.7 45.4,116.1 48.5,115.0 51.6,114.2 54.7,113.6 57.8,112.4 60.9,111.8 63.9,111.2 67.0,110.8 70.1,110.3 73.2,109.5 76.3,108.6 79.4,107.9 82.5,107.5 85.5,107.2 88.6,106.6 91.7,106.0 94.8,105.4 97.9,105.1 101.0,104.6 104.1,102.7 107.1,102.1 110.2,101.3 113.3,100.6 116.4,99.9 119.5,99.3 122.6,98.9 125.7,98.5 128.7,98.0 131.8,97.1 134.9,96.3 138.0,95.7 141.1,95.1 144.2,94.9 147.3,94.7 150.3,94.4 153.4,93.8 156.5,93.4 159.6,93.1 162.7,92.4 165.8,91.4 168.9,91.2 171.9,91.0 175.0,90.6 178.1,89.7 181.2,89.2 184.3,88.3 187.4,87.7 190.5,87.0 193.5,86.8 196.6,86.4 199.7,85.6 202.8,84.8 205.9,84.2 209.0,84.0 212.1,83.6 215.1,83.2 218.2,82.4 221.3,81.6 224.4,80.9 227.5,80.2 230.6,79.8 233.7,79.6 236.7,79.3 239.8,78.7 242.9,78.3 246.0,77.9 249.1,77.7 252.2,77.4 255.3,77.0 258.3,76.7 261.4,76.5 264.5,76.3 267.6,75.5 270.7,75.1 273.8,75.0 276.9,74.7 279.9,74.5 283.0,74.5 286.1,87.5 289.2,86.3 292.3,85.1 295.4,83.9 298.5,80.4 301.5,77.9 304.6,75.2 307.7,74.2 310.8,73.1 313.9,71.3 317.0,69.3 320.1,67.9 323.1,67.3 326.2,66.8 329.3,65.4 332.4,64.3 335.5,63.7 338.6,62.8 341.7,62.5 344.7,62.3 347.8,61.6 350.9,60.4 354.0,59.5 357.1,58.6 360.2,57.7 363.3,57.2 366.3,56.8 369.4,56.0 372.5,55.3 375.6,54.5 378.7,54.0 381.8,53.7 384.9,53.5 387.9,53.1 391.0,52.4 394.1,52.0 397.2,51.5 400.3,51.1 403.4,50.7 406.5,50.4 409.5,50.0 412.6,49.7 415.7,49.4 418.8,48.7 421.9,48.2 425.0,47.6 428.1,47.3 431.1,46.9 434.2,46.7 437.3,46.4 440.4,46.1 443.5,45.1 446.6,44.5 449.7,43.7 452.7,43.4 455.8,43.3 458.9,42.9 462.0,42.5 465.1,42.0 468.2,41.6 471.3,41.0 474.3,40.6 477.4,40.5 480.5,40.2 483.6,39.9 486.7,39.6 489.8,39.3 492.9,38.9 495.9,38.4 499.0,38.1 502.1,37.9 505.2,37.7 508.3,37.5 511.4,37.0 514.5,36.6 517.5,36.1 520.6,35.8 523.7,35.3 526.8,35.0 529.9,34.9 533.0,34.6 536.1,34.0 539.1,33.4 542.2,33.1 545.3,32.6 548.4,31.9 551.5,31.8 554.6,31.5 557.7,31.3 560.7,31.0 563.8,30.7 566.9,30.3 570.0,30.0 570.0,30.0,120" />
  
  <!-- Linea principale -->
  <polyline fill="none" stroke="#0366d6" stroke-width="2.5" stroke-linecap="round" stroke-linejoin="round" points="30.0,120.0 33.1,119.0 36.2,117.9 39.3,116.9 42.3,116.7 45.4,116.1 48.5,115.0 51.6,114.2 54.7,113.6 57.8,112.4 60.9,111.8 63.9,111.2 67.0,110.8 70.1,110.3 73.2,109.5 76.3,108.6 79.4,107.9 82.5,107.5 85.5,107.2 88.6,106.6 91.7,106.0 94.8,105.4 97.9,105.1 101.0,104.6 104.1,102.7 107.1,102.1 110.2,101.3 113.3,100.6 116.4,99.9 119.5,99.3 122.6,98.9 125.7,98.5 128.7,98.0 131.8,97.1 134.9,96.3 138.0,95.7 141.1,95.1 144.2,94.9 147.3,94.7 150.3,94.4 153.4,93.8 156.5,93.4 159.6,93.1 162.7,92.4 165.8,91.4 168.9,91.2 171.9,91.0 175.0,90.6 178.1,89.7 181.2,89.2 184.3,88.3 187.4,87.7 190.5,87.0 193.5,86.8 196.6,86.4 199.7,85.6 202.8,84.8 205.9,84.2 209.0,84.0 212.1,83.6 215.1,83.2 218.2,82.4 221.3,81.6 224.4,80.9 227.5,80.2 230.6,79.8 233.7,79.6 236.7,79.3 239.8,78.7 242.9,78.3 246.0,77.9 249.1,77.7 252.2,77.4 255.3,77.0 258.3,76.7 261.4,76.5 264.5,76.3 267.6,75.5 270.7,75.1 273.8,75.0 276.9,74.7 279.9,74.5 283.0,74.5 286.1,87.5 289.2,86.3 292.3,85.1 295.4,83.9 298.5,80.4 301.5,77.9 304.6,75.2 307.7,74.2 310.8,73.1 313.9,71.3 317.0,69.3 320.1,67.9 323.1,67.3 326.2,66.8 329.3,65.4 332.4,64.3 335.5,63.7 338.6,62.8 341.7,62.5 344.7,62.3 347.8,61.6 350.9,60.4 354.0,59.5 357.1,58.6 360.2,57.7 363.3,57.2 366.3,56.8 369.4,56.0 372.5,55.3 375.6,54.5 378.7,54.0 381.8,53.7 384.9,53.5 387.9,53.1 391.0,52.4 394.1,52.0 397.2,51.5 400.3,51.1 403.4,50.7 406.5,50.4 409.5,50.0 412.6,49.7 415.7,49.4 418.8,48.7 421.9,48.2 425.0,47.6 428.1,47.3 431.1,46.9 434.2,46.7 437.3,46.4 440.4,46.1 443.5,45.1 446.6,44.5 449.7,43.7 452.7,43.4 455.8,43.3 458.9,42.9 462.0,42.5 465.1,42.0 468.2,41.6 471.3,41.0 474.3,40.6 477.4,40.5 480.5,40.2 483.6,39.9 486.7,39.6 489.8,39.3 492.9,38.9 495.9,38.4 499.0,38.1 502.1,37.9 505.2,37.7 508.3,37.5 511.4,37.0 514.5,36.6 517.5,36.1 520.6,35.8 523.7,35.3 526.8,35.0 529.9,34.9 533.0,34.6 536.1,34.0 539.1,33.4 542.2,33.1 545.3,32.6 548.4,31.9 551.5,31.8 554.6,31.5 557.7,31.3 560.7,31.0 563.8,30.7 566.9,30.3 570.0,30.0" />
  
  <!-- Punto finale luminoso -->
  <circle cx="570.0" cy="30.0" r="4" fill="#ffffff" stroke="#0366d6" stroke-width="2.5" />
</svg>