<svg width="600" height="150" viewBox="0 0 600 150" xmlns="http://www.w3.org/2000/svg">
  <defs>
    <filter id="shadow2" x="-2%" y="-2%" width="104%" height="108%">
      <feDropShadow dx="0" dy="2" stdDeviation="3" flood-opacity="0.1" />
    </filter>
    <linearGradient id="fillGrad" x1="0" y1="0" x2="0" y2="1">
      <stop offset="0%" stop-color="#0366d6" stop-opacity="0.3"/>
      <stop offset="100%" stop-color="#0366d6" stop-opacity="0.02"/>
    </linearGradient>
  </defs>
  <rect width="600" height="150" rx="12" fill="#ffffff" filter="url(#shadow2)" stroke="#e1e4e8" stroke-width="1"/>
  <text x="20" y="24" fill="#2b3137" font-family="-apple-system,BlinkMacSystemFont,'Segoe UI',Helvetica,Arial,sans-serif" font-size="14" font-weight="600">📈 Download Growth (Actual: 85.7k)</text>
  
  <!-- Area sotto la linea -->
  <polygon fill="url(#fillGrad)" points="30.0,120.0,120 30.0,120.0 31.5,119.5 33.0,118.9 34.4,118.4 35.9,118.2 37.4,118.0 38.9,117.4 40.4,116.9 41.8,116.7 43.3,116.0 44.8,115.7 46.3,115.4 47.8,115.2 49.2,114.9 50.7,114.5 52.2,114.0 53.7,113.7 55.2,113.4 56.6,113.3 58.1,113.0 59.6,112.6 61.1,112.3 62.5,112.2 64.0,111.9 65.5,110.9 67.0,110.6 68.5,110.2 69.9,109.8 71.4,109.5 72.9,109.1 74.4,108.9 75.9,108.8 77.3,108.5 78.8,108.0 80.3,107.6 81.8,107.3 83.3,106.9 84.7,106.8 86.2,106.8 87.7,106.6 89.2,106.3 90.7,106.1 92.1,105.9 93.6,105.6 95.1,105.0 96.6,104.9 98.1,104.8 99.5,104.6 101.0,104.2 102.5,103.9 104.0,103.4 105.5,103.1 106.9,102.7 108.4,102.6 109.9,102.4 111.4,102.0 112.8,101.6 114.3,101.3 115.8,101.1 117.3,100.9 118.8,100.7 120.2,100.3 121.7,99.9 123.2,99.5 124.7,99.1 126.2,98.9 127.6,98.8 129.1,98.7 130.6,98.4 132.1,98.1 133.6,98.0 135.0,97.8 136.5,97.7 138.0,97.5 139.5,97.3 141.0,97.2 142.4,97.1 143.9,96.7 145.4,96.5 146.9,96.4 148.4,96.3 149.8,96.2 151.3,96.2 152.8,103.0 154.3,102.3 155.8,101.7 157.2,101.1 158.7,99.2 160.2,97.9 161.7,96.5 163.2,96.0 164.6,95.4 166.1,94.5 167.6,93.5 169.1,92.7 170.5,92.4 172.0,92.1 173.5,91.4 175.0,90.8 176.5,90.5 177.9,90.1 179.4,89.9 180.9,89.8 182.4,89.4 183.9,88.8 185.3,88.3 186.8,87.9 188.3,87.3 189.8,87.1 191.3,86.9 192.7,86.5 194.2,86.1 195.7,85.7 197.2,85.4 198.7,85.3 200.1,85.2 201.6,84.9 203.1,84.6 204.6,84.4 206.1,84.1 207.5,83.9 209.0,83.7 210.5,83.5 212.0,83.3 213.5,83.2 214.9,83.0 216.4,82.7 217.9,82.4 219.4,82.1 220.8,81.9 222.3,81.7 223.8,81.6 225.3,81.4 226.8,81.3 228.2,80.8 229.7,80.4 231.2,80.0 232.7,79.9 234.2,79.8 235.6,79.6 237.1,79.4 238.6,79.2 240.1,78.9 241.6,78.6 243.0,78.4 244.5,78.3 246.0,78.2 247.5,78.0 249.0,77.9 250.4,77.7 251.9,77.5 253.4,77.2 254.9,77.1 256.4,77.0 257.8,76.9 259.3,76.8 260.8,76.5 262.3,76.3 263.8,76.1 265.2,75.9 266.7,75.7 268.2,75.5 269.7,75.4 271.2,75.3 272.6,74.9 274.1,74.7 275.6,74.5 277.1,74.2 278.5,73.9 280.0,73.8 281.5,73.7 283.0,73.6 284.5,73.4 285.9,73.2 287.4,73.0 288.9,72.9 290.4,72.7 291.9,72.5 293.3,72.4 294.8,72.2 296.3,72.2 297.8,72.0 299.3,71.7 300.7,71.6 302.2,71.4 303.7,71.3 305.2,71.1 306.7,71.0 308.1,70.9 309.6,70.7 311.1,70.6 312.6,70.3 314.1,69.9 315.5,69.7 317.0,69.6 318.5,69.5 320.0,69.4 321.5,69.2 322.9,69.0 324.4,68.8 325.9,68.7 327.4,68.5 328.8,68.4 330.3,68.2 331.8,68.1 333.3,68.0 334.8,67.7 336.2,67.5 337.7,67.3 339.2,67.1 340.7,67.0 342.2,67.0 343.6,66.9 345.1,66.7 346.6,66.6 348.1,66.4 349.6,66.2 351.0,66.0 352.5,65.9 354.0,65.8 355.5,65.7 357.0,65.5 358.4,65.3 359.9,65.1 361.4,64.9 362.9,64.8 364.4,64.6 365.8,64.5 367.3,64.4 368.8,64.3 370.3,64.2 371.8,64.1 373.2,63.9 374.7,63.7 376.2,63.6 377.7,63.5 379.2,63.3 380.6,63.2 382.1,63.0 383.6,62.9 385.1,62.7 386.5,62.6 388.0,62.4 389.5,62.3 391.0,62.1 392.5,62.0 393.9,61.9 395.4,61.8 396.9,61.7 398.4,61.6 399.9,61.4 401.3,61.4 402.8,61.2 404.3,60.9 405.8,60.7 407.3,65.2 408.7,64.3 410.2,62.6 411.7,62.0 413.2,61.2 414.7,60.2 416.1,59.7 417.6,59.3 419.1,58.7 420.6,57.7 422.1,57.0 423.5,56.8 425.0,56.4 426.5,56.1 428.0,55.6 429.5,55.2 430.9,54.6 432.4,54.4 433.9,53.9 435.4,53.6 436.8,53.3 438.3,53.1 439.8,52.8 441.3,52.6 442.8,52.1 444.2,51.8 445.7,51.3 447.2,50.7 448.7,50.3 450.2,50.1 451.6,50.0 453.1,49.7 454.6,49.3 456.1,49.0 457.6,48.7 459.0,47.8 460.5,47.1 462.0,46.7 463.5,46.6 465.0,46.3 466.4,45.8 467.9,45.4 469.4,45.1 470.9,44.8 472.4,44.4 473.8,44.1 475.3,43.8 476.8,43.4 478.3,43.2 479.8,43.0 481.2,42.8 482.7,42.4 484.2,42.1 485.7,41.9 487.2,41.8 488.6,41.6 490.1,41.3 491.6,41.2 493.1,40.9 494.5,40.8 496.0,40.6 497.5,40.4 499.0,40.1 500.5,39.9 501.9,39.6 503.4,39.2 504.9,38.9 506.4,38.8 507.9,38.6 509.3,38.4 510.8,38.2 512.3,38.0 513.8,37.9 515.3,37.8 516.7,37.6 518.2,37.4 519.7,37.3 521.2,37.0 522.7,36.8 524.1,36.6 525.6,36.4 527.1,36.1 528.6,35.7 530.1,35.5 531.5,35.3 533.0,35.1 534.5,34.8 536.0,34.6 537.5,34.3 538.9,34.1 540.4,34.0 541.9,33.9 543.4,33.7 544.8,33.4 546.3,33.2 547.8,33.1 549.3,32.9 550.8,32.6 552.2,32.4 553.7,32.1 555.2,32.0 556.7,31.7 558.2,31.4 559.6,31.2 561.1,31.1 562.6,30.9 564.1,30.8 565.6,30.6 567.0,30.4 568.5,30.1 570.0,30.0 570.0,30.0,120" />
  
  <!-- Linea principale -->
  <polyline fill="none" stroke="#0366d6" stroke-width="2.5" stroke-linecap="round" stroke-linejoin="round" points="30.0,120.0 31.5,119.5 33.0,118.9 34.4,118.4 35.9,118.2 37.4,118.0 38.9,117.4 40.4,116.9 41.8,116.7 43.3,116.0 44.8,115.7 46.3,115.4 47.8,115.2 49.2,114.9 50.7,114.5 52.2,114.0 53.7,113.7 55.2,113.4 56.6,113.3 58.1,113.0 59.6,112.6 61.1,112.3 62.5,112.2 64.0,111.9 65.5,110.9 67.0,110.6 68.5,110.2 69.9,109.8 71.4,109.5 72.9,109.1 74.4,108.9 75.9,108.8 77.3,108.5 78.8,108.0 80.3,107.6 81.8,107.3 83.3,106.9 84.7,106.8 86.2,106.8 87.7,106.6 89.2,106.3 90.7,106.1 92.1,105.9 93.6,105.6 95.1,105.0 96.6,104.9 98.1,104.8 99.5,104.6 101.0,104.2 102.5,103.9 104.0,103.4 105.5,103.1 106.9,102.7 108.4,102.6 109.9,102.4 111.4,102.0 112.8,101.6 114.3,101.3 115.8,101.1 117.3,100.9 118.8,100.7 120.2,100.3 121.7,99.9 123.2,99.5 124.7,99.1 126.2,98.9 127.6,98.8 129.1,98.7 130.6,98.4 132.1,98.1 133.6,98.0 135.0,97.8 136.5,97.7 138.0,97.5 139.5,97.3 141.0,97.2 142.4,97.1 143.9,96.7 145.4,96.5 146.9,96.4 148.4,96.3 149.8,96.2 151.3,96.2 152.8,103.0 154.3,102.3 155.8,101.7 157.2,101.1 158.7,99.2 160.2,97.9 161.7,96.5 163.2,96.0 164.6,95.4 166.1,94.5 167.6,93.5 169.1,92.7 170.5,92.4 172.0,92.1 173.5,91.4 175.0,90.8 176.5,90.5 177.9,90.1 179.4,89.9 180.9,89.8 182.4,89.4 183.9,88.8 185.3,88.3 186.8,87.9 188.3,87.3 189.8,87.1 191.3,86.9 192.7,86.5 194.2,86.1 195.7,85.7 197.2,85.4 198.7,85.3 200.1,85.2 201.6,84.9 203.1,84.6 204.6,84.4 206.1,84.1 207.5,83.9 209.0,83.7 210.5,83.5 212.0,83.3 213.5,83.2 214.9,83.0 216.4,82.7 217.9,82.4 219.4,82.1 220.8,81.9 222.3,81.7 223.8,81.6 225.3,81.4 226.8,81.3 228.2,80.8 229.7,80.4 231.2,80.0 232.7,79.9 234.2,79.8 235.6,79.6 237.1,79.4 238.6,79.2 240.1,78.9 241.6,78.6 243.0,78.4 244.5,78.3 246.0,78.2 247.5,78.0 249.0,77.9 250.4,77.7 251.9,77.5 253.4,77.2 254.9,77.1 256.4,77.0 257.8,76.9 259.3,76.8 260.8,76.5 262.3,76.3 263.8,76.1 265.2,75.9 266.7,75.7 268.2,75.5 269.7,75.4 271.2,75.3 272.6,74.9 274.1,74.7 275.6,74.5 277.1,74.2 278.5,73.9 280.0,73.8 281.5,73.7 283.0,73.6 284.5,73.4 285.9,73.2 287.4,73.0 288.9,72.9 290.4,72.7 291.9,72.5 293.3,72.4 294.8,72.2 296.3,72.2 297.8,72.0 299.3,71.7 300.7,71.6 302.2,71.4 303.7,71.3 305.2,71.1 306.7,71.0 308.1,70.9 309.6,70.7 311.1,70.6 312.6,70.3 314.1,69.9 315.5,69.7 317.0,69.6 318.5,69.5 320.0,69.4 321.5,69.2 322.9,69.0 324.4,68.8 325.9,68.7 327.4,68.5 328.8,68.4 330.3,68.2 331.8,68.1 333.3,68.0 334.8,67.7 336.2,67.5 337.7,67.3 339.2,67.1 340.7,67.0 342.2,67.0 343.6,66.9 345.1,66.7 346.6,66.6 348.1,66.4 349.6,66.2 351.0,66.0 352.5,65.9 354.0,65.8 355.5,65.7 357.0,65.5 358.4,65.3 359.9,65.1 361.4,64.9 362.9,64.8 364.4,64.6 365.8,64.5 367.3,64.4 368.8,64.3 370.3,64.2 371.8,64.1 373.2,63.9 374.7,63.7 376.2,63.6 377.7,63.5 379.2,63.3 380.6,63.2 382.1,63.0 383.6,62.9 385.1,62.7 386.5,62.6 388.0,62.4 389.5,62.3 391.0,62.1 392.5,62.0 393.9,61.9 395.4,61.8 396.9,61.7 398.4,61.6 399.9,61.4 401.3,61.4 402.8,61.2 404.3,60.9 405.8,60.7 407.3,65.2 408.7,64.3 410.2,62.6 411.7,62.0 413.2,61.2 414.7,60.2 416.1,59.7 417.6,59.3 419.1,58.7 420.6,57.7 422.1,57.0 423.5,56.8 425.0,56.4 426.5,56.1 428.0,55.6 429.5,55.2 430.9,54.6 432.4,54.4 433.9,53.9 435.4,53.6 436.8,53.3 438.3,53.1 439.8,52.8 441.3,52.6 442.8,52.1 444.2,51.8 445.7,51.3 447.2,50.7 448.7,50.3 450.2,50.1 451.6,50.0 453.1,49.7 454.6,49.3 456.1,49.0 457.6,48.7 459.0,47.8 460.5,47.1 462.0,46.7 463.5,46.6 465.0,46.3 466.4,45.8 467.9,45.4 469.4,45.1 470.9,44.8 472.4,44.4 473.8,44.1 475.3,43.8 476.8,43.4 478.3,43.2 479.8,43.0 481.2,42.8 482.7,42.4 484.2,42.1 485.7,41.9 487.2,41.8 488.6,41.6 490.1,41.3 491.6,41.2 493.1,40.9 494.5,40.8 496.0,40.6 497.5,40.4 499.0,40.1 500.5,39.9 501.9,39.6 503.4,39.2 504.9,38.9 506.4,38.8 507.9,38.6 509.3,38.4 510.8,38.2 512.3,38.0 513.8,37.9 515.3,37.8 516.7,37.6 518.2,37.4 519.7,37.3 521.2,37.0 522.7,36.8 524.1,36.6 525.6,36.4 527.1,36.1 528.6,35.7 530.1,35.5 531.5,35.3 533.0,35.1 534.5,34.8 536.0,34.6 537.5,34.3 538.9,34.1 540.4,34.0 541.9,33.9 543.4,33.7 544.8,33.4 546.3,33.2 547.8,33.1 549.3,32.9 550.8,32.6 552.2,32.4 553.7,32.1 555.2,32.0 556.7,31.7 558.2,31.4 559.6,31.2 561.1,31.1 562.6,30.9 564.1,30.8 565.6,30.6 567.0,30.4 568.5,30.1 570.0,30.0" />
  
  <!-- Punto finale luminoso -->
  <circle cx="570.0" cy="30.0" r="4" fill="#ffffff" stroke="#0366d6" stroke-width="2.5" />
</svg>