<svg width="600" height="150" viewBox="0 0 600 150" xmlns="http://www.w3.org/2000/svg">
  <defs>
    <filter id="shadow2" x="-2%" y="-2%" width="104%" height="108%">
      <feDropShadow dx="0" dy="2" stdDeviation="3" flood-opacity="0.1" />
    </filter>
    <linearGradient id="fillGrad" x1="0" y1="0" x2="0" y2="1">
      <stop offset="0%" stop-color="#0366d6" stop-opacity="0.3"/>
      <stop offset="100%" stop-color="#0366d6" stop-opacity="0.02"/>
    </linearGradient>
  </defs>
  <rect width="600" height="150" rx="12" fill="#ffffff" filter="url(#shadow2)" stroke="#e1e4e8" stroke-width="1"/>
  <text x="20" y="24" fill="#2b3137" font-family="-apple-system,BlinkMacSystemFont,'Segoe UI',Helvetica,Arial,sans-serif" font-size="14" font-weight="600">📈 Download Growth (Actual: 87.5k)</text>
  
  <!-- Area sotto la linea -->
  <polygon fill="url(#fillGrad)" points="30.0,120.0,120 30.0,120.0 31.3,119.5 32.6,119.0 33.9,118.5 35.3,118.4 36.6,118.2 37.9,117.6 39.2,117.2 40.5,117.0 41.8,116.4 43.1,116.1 44.5,115.8 45.8,115.6 47.1,115.3 48.4,115.0 49.7,114.5 51.0,114.2 52.3,114.0 53.6,113.8 55.0,113.6 56.3,113.3 57.6,113.0 58.9,112.9 60.2,112.6 61.5,111.7 62.8,111.4 64.2,111.1 65.5,110.7 66.8,110.4 68.1,110.1 69.4,109.9 70.7,109.7 72.0,109.5 73.4,109.0 74.7,108.6 76.0,108.4 77.3,108.1 78.6,108.0 79.9,107.9 81.2,107.7 82.6,107.4 83.9,107.3 85.2,107.1 86.5,106.8 87.8,106.3 89.1,106.2 90.4,106.1 91.8,105.9 93.1,105.5 94.4,105.2 95.7,104.8 97.0,104.5 98.3,104.2 99.6,104.1 100.9,103.9 102.3,103.5 103.6,103.1 104.9,102.9 106.2,102.7 107.5,102.6 108.8,102.4 110.1,102.0 111.5,101.6 112.8,101.2 114.1,100.9 115.4,100.7 116.7,100.6 118.0,100.5 119.3,100.2 120.7,100.0 122.0,99.9 123.3,99.7 124.6,99.6 125.9,99.4 127.2,99.3 128.5,99.2 129.9,99.1 131.2,98.7 132.5,98.5 133.8,98.4 135.1,98.3 136.4,98.2 137.7,98.2 139.1,104.4 140.4,103.8 141.7,103.3 143.0,102.7 144.3,101.0 145.6,99.8 146.9,98.5 148.2,98.1 149.6,97.5 150.9,96.7 152.2,95.7 153.5,95.0 154.8,94.8 156.1,94.5 157.4,93.8 158.8,93.3 160.1,93.0 161.4,92.6 162.7,92.4 164.0,92.4 165.3,92.0 166.6,91.4 168.0,91.0 169.3,90.6 170.6,90.1 171.9,89.9 173.2,89.7 174.5,89.3 175.8,89.0 177.2,88.6 178.5,88.4 179.8,88.2 181.1,88.1 182.4,87.9 183.7,87.6 185.0,87.4 186.4,87.2 187.7,87.0 189.0,86.8 190.3,86.6 191.6,86.5 192.9,86.3 194.2,86.2 195.5,85.9 196.9,85.6 198.2,85.3 199.5,85.2 200.8,85.0 202.1,84.9 203.4,84.7 204.7,84.6 206.1,84.1 207.4,83.8 208.7,83.4 210.0,83.3 211.3,83.3 212.6,83.1 213.9,82.9 215.3,82.7 216.6,82.4 217.9,82.2 219.2,82.0 220.5,81.9 221.8,81.7 223.1,81.6 224.5,81.5 225.8,81.3 227.1,81.2 228.4,80.9 229.7,80.8 231.0,80.7 232.3,80.5 233.6,80.5 235.0,80.2 236.3,80.0 237.6,79.8 238.9,79.6 240.2,79.4 241.5,79.3 242.8,79.2 244.2,79.1 245.5,78.8 246.8,78.5 248.1,78.3 249.4,78.1 250.7,77.8 252.0,77.7 253.4,77.6 254.7,77.5 256.0,77.3 257.3,77.2 258.6,77.0 259.9,76.9 261.2,76.7 262.6,76.6 263.9,76.4 265.2,76.3 266.5,76.2 267.8,76.1 269.1,75.8 270.4,75.7 271.8,75.5 273.1,75.4 274.4,75.3 275.7,75.1 277.0,75.0 278.3,74.9 279.6,74.8 280.9,74.5 282.3,74.2 283.6,74.0 284.9,73.9 286.2,73.8 287.5,73.8 288.8,73.6 290.1,73.3 291.5,73.2 292.8,73.1 294.1,72.9 295.4,72.8 296.7,72.6 298.0,72.5 299.3,72.4 300.7,72.2 302.0,72.0 303.3,71.8 304.6,71.6 305.9,71.5 307.2,71.5 308.5,71.4 309.9,71.3 311.2,71.1 312.5,71.0 313.8,70.8 315.1,70.6 316.4,70.5 317.7,70.4 319.1,70.3 320.4,70.2 321.7,70.0 323.0,69.8 324.3,69.6 325.6,69.5 326.9,69.4 328.2,69.3 329.6,69.2 330.9,69.1 332.2,69.0 333.5,68.9 334.8,68.6 336.1,68.5 337.4,68.4 338.8,68.3 340.1,68.1 341.4,68.0 342.7,67.8 344.0,67.7 345.3,67.6 346.6,67.5 348.0,67.3 349.3,67.2 350.6,67.0 351.9,67.0 353.2,66.9 354.5,66.8 355.8,66.7 357.2,66.5 358.5,66.4 359.8,66.4 361.1,66.3 362.4,66.0 363.7,65.8 365.0,69.8 366.4,69.0 367.7,67.5 369.0,66.9 370.3,66.2 371.6,65.3 372.9,64.8 374.2,64.5 375.5,63.9 376.9,63.1 378.2,62.4 379.5,62.2 380.8,61.9 382.1,61.6 383.4,61.1 384.7,60.7 386.1,60.2 387.4,60.0 388.7,59.5 390.0,59.3 391.3,59.0 392.6,58.8 393.9,58.5 395.3,58.3 396.6,57.9 397.9,57.6 399.2,57.2 400.5,56.6 401.8,56.3 403.1,56.1 404.5,55.9 405.8,55.7 407.1,55.4 408.4,55.0 409.7,54.8 411.0,53.9 412.3,53.3 413.6,53.0 415.0,52.8 416.3,52.5 417.6,52.1 418.9,51.7 420.2,51.5 421.5,51.2 422.8,50.9 424.2,50.6 425.5,50.3 426.8,50.0 428.1,49.7 429.4,49.6 430.7,49.4 432.0,49.0 433.4,48.8 434.7,48.6 436.0,48.4 437.3,48.3 438.6,48.0 439.9,47.9 441.2,47.7 442.6,47.5 443.9,47.4 445.2,47.2 446.5,46.9 447.8,46.8 449.1,46.4 450.4,46.1 451.8,45.8 453.1,45.7 454.4,45.5 455.7,45.4 457.0,45.2 458.3,45.0 459.6,44.9 460.9,44.8 462.3,44.6 463.6,44.4 464.9,44.3 466.2,44.0 467.5,43.9 468.8,43.8 470.1,43.5 471.5,43.2 472.8,42.9 474.1,42.7 475.4,42.5 476.7,42.3 478.0,42.1 479.3,41.9 480.7,41.6 482.0,41.4 483.3,41.4 484.6,41.2 485.9,41.0 487.2,40.8 488.5,40.6 489.9,40.5 491.2,40.3 492.5,40.1 493.8,39.9 495.1,39.6 496.4,39.5 497.7,39.2 499.1,39.0 500.4,38.8 501.7,38.7 503.0,38.5 504.3,38.4 505.6,38.2 506.9,38.0 508.2,37.8 509.6,37.7 510.9,37.5 512.2,37.4 513.5,37.2 514.8,37.1 516.1,36.9 517.4,36.8 518.8,36.7 520.1,36.5 521.4,36.4 522.7,36.2 524.0,36.1 525.3,35.9 526.6,35.8 528.0,35.6 529.3,35.4 530.6,35.3 531.9,35.1 533.2,35.0 534.5,34.8 535.8,34.6 537.2,34.3 538.5,34.2 539.8,34.1 541.1,34.1 542.4,33.9 543.7,33.7 545.0,33.5 546.4,33.2 547.7,33.1 549.0,32.9 550.3,32.8 551.6,32.7 552.9,32.5 554.2,32.3 555.5,32.1 556.9,31.9 558.2,31.8 559.5,31.6 560.8,31.4 562.1,31.2 563.4,30.9 564.7,30.8 566.1,30.6 567.4,30.4 568.7,30.2 570.0,30.0 570.0,30.0,120" />
  
  <!-- Linea principale -->
  <polyline fill="none" stroke="#0366d6" stroke-width="2.5" stroke-linecap="round" stroke-linejoin="round" points="30.0,120.0 31.3,119.5 32.6,119.0 33.9,118.5 35.3,118.4 36.6,118.2 37.9,117.6 39.2,117.2 40.5,117.0 41.8,116.4 43.1,116.1 44.5,115.8 45.8,115.6 47.1,115.3 48.4,115.0 49.7,114.5 51.0,114.2 52.3,114.0 53.6,113.8 55.0,113.6 56.3,113.3 57.6,113.0 58.9,112.9 60.2,112.6 61.5,111.7 62.8,111.4 64.2,111.1 65.5,110.7 66.8,110.4 68.1,110.1 69.4,109.9 70.7,109.7 72.0,109.5 73.4,109.0 74.7,108.6 76.0,108.4 77.3,108.1 78.6,108.0 79.9,107.9 81.2,107.7 82.6,107.4 83.9,107.3 85.2,107.1 86.5,106.8 87.8,106.3 89.1,106.2 90.4,106.1 91.8,105.9 93.1,105.5 94.4,105.2 95.7,104.8 97.0,104.5 98.3,104.2 99.6,104.1 100.9,103.9 102.3,103.5 103.6,103.1 104.9,102.9 106.2,102.7 107.5,102.6 108.8,102.4 110.1,102.0 111.5,101.6 112.8,101.2 114.1,100.9 115.4,100.7 116.7,100.6 118.0,100.5 119.3,100.2 120.7,100.0 122.0,99.9 123.3,99.7 124.6,99.6 125.9,99.4 127.2,99.3 128.5,99.2 129.9,99.1 131.2,98.7 132.5,98.5 133.8,98.4 135.1,98.3 136.4,98.2 137.7,98.2 139.1,104.4 140.4,103.8 141.7,103.3 143.0,102.7 144.3,101.0 145.6,99.8 146.9,98.5 148.2,98.1 149.6,97.5 150.9,96.7 152.2,95.7 153.5,95.0 154.8,94.8 156.1,94.5 157.4,93.8 158.8,93.3 160.1,93.0 161.4,92.6 162.7,92.4 164.0,92.4 165.3,92.0 166.6,91.4 168.0,91.0 169.3,90.6 170.6,90.1 171.9,89.9 173.2,89.7 174.5,89.3 175.8,89.0 177.2,88.6 178.5,88.4 179.8,88.2 181.1,88.1 182.4,87.9 183.7,87.6 185.0,87.4 186.4,87.2 187.7,87.0 189.0,86.8 190.3,86.6 191.6,86.5 192.9,86.3 194.2,86.2 195.5,85.9 196.9,85.6 198.2,85.3 199.5,85.2 200.8,85.0 202.1,84.9 203.4,84.7 204.7,84.6 206.1,84.1 207.4,83.8 208.7,83.4 210.0,83.3 211.3,83.3 212.6,83.1 213.9,82.9 215.3,82.7 216.6,82.4 217.9,82.2 219.2,82.0 220.5,81.9 221.8,81.7 223.1,81.6 224.5,81.5 225.8,81.3 227.1,81.2 228.4,80.9 229.7,80.8 231.0,80.7 232.3,80.5 233.6,80.5 235.0,80.2 236.3,80.0 237.6,79.8 238.9,79.6 240.2,79.4 241.5,79.3 242.8,79.2 244.2,79.1 245.5,78.8 246.8,78.5 248.1,78.3 249.4,78.1 250.7,77.8 252.0,77.7 253.4,77.6 254.7,77.5 256.0,77.3 257.3,77.2 258.6,77.0 259.9,76.9 261.2,76.7 262.6,76.6 263.9,76.4 265.2,76.3 266.5,76.2 267.8,76.1 269.1,75.8 270.4,75.7 271.8,75.5 273.1,75.4 274.4,75.3 275.7,75.1 277.0,75.0 278.3,74.9 279.6,74.8 280.9,74.5 282.3,74.2 283.6,74.0 284.9,73.9 286.2,73.8 287.5,73.8 288.8,73.6 290.1,73.3 291.5,73.2 292.8,73.1 294.1,72.9 295.4,72.8 296.7,72.6 298.0,72.5 299.3,72.4 300.7,72.2 302.0,72.0 303.3,71.8 304.6,71.6 305.9,71.5 307.2,71.5 308.5,71.4 309.9,71.3 311.2,71.1 312.5,71.0 313.8,70.8 315.1,70.6 316.4,70.5 317.7,70.4 319.1,70.3 320.4,70.2 321.7,70.0 323.0,69.8 324.3,69.6 325.6,69.5 326.9,69.4 328.2,69.3 329.6,69.2 330.9,69.1 332.2,69.0 333.5,68.9 334.8,68.6 336.1,68.5 337.4,68.4 338.8,68.3 340.1,68.1 341.4,68.0 342.7,67.8 344.0,67.7 345.3,67.6 346.6,67.5 348.0,67.3 349.3,67.2 350.6,67.0 351.9,67.0 353.2,66.9 354.5,66.8 355.8,66.7 357.2,66.5 358.5,66.4 359.8,66.4 361.1,66.3 362.4,66.0 363.7,65.8 365.0,69.8 366.4,69.0 367.7,67.5 369.0,66.9 370.3,66.2 371.6,65.3 372.9,64.8 374.2,64.5 375.5,63.9 376.9,63.1 378.2,62.4 379.5,62.2 380.8,61.9 382.1,61.6 383.4,61.1 384.7,60.7 386.1,60.2 387.4,60.0 388.7,59.5 390.0,59.3 391.3,59.0 392.6,58.8 393.9,58.5 395.3,58.3 396.6,57.9 397.9,57.6 399.2,57.2 400.5,56.6 401.8,56.3 403.1,56.1 404.5,55.9 405.8,55.7 407.1,55.4 408.4,55.0 409.7,54.8 411.0,53.9 412.3,53.3 413.6,53.0 415.0,52.8 416.3,52.5 417.6,52.1 418.9,51.7 420.2,51.5 421.5,51.2 422.8,50.9 424.2,50.6 425.5,50.3 426.8,50.0 428.1,49.7 429.4,49.6 430.7,49.4 432.0,49.0 433.4,48.8 434.7,48.6 436.0,48.4 437.3,48.3 438.6,48.0 439.9,47.9 441.2,47.7 442.6,47.5 443.9,47.4 445.2,47.2 446.5,46.9 447.8,46.8 449.1,46.4 450.4,46.1 451.8,45.8 453.1,45.7 454.4,45.5 455.7,45.4 457.0,45.2 458.3,45.0 459.6,44.9 460.9,44.8 462.3,44.6 463.6,44.4 464.9,44.3 466.2,44.0 467.5,43.9 468.8,43.8 470.1,43.5 471.5,43.2 472.8,42.9 474.1,42.7 475.4,42.5 476.7,42.3 478.0,42.1 479.3,41.9 480.7,41.6 482.0,41.4 483.3,41.4 484.6,41.2 485.9,41.0 487.2,40.8 488.5,40.6 489.9,40.5 491.2,40.3 492.5,40.1 493.8,39.9 495.1,39.6 496.4,39.5 497.7,39.2 499.1,39.0 500.4,38.8 501.7,38.7 503.0,38.5 504.3,38.4 505.6,38.2 506.9,38.0 508.2,37.8 509.6,37.7 510.9,37.5 512.2,37.4 513.5,37.2 514.8,37.1 516.1,36.9 517.4,36.8 518.8,36.7 520.1,36.5 521.4,36.4 522.7,36.2 524.0,36.1 525.3,35.9 526.6,35.8 528.0,35.6 529.3,35.4 530.6,35.3 531.9,35.1 533.2,35.0 534.5,34.8 535.8,34.6 537.2,34.3 538.5,34.2 539.8,34.1 541.1,34.1 542.4,33.9 543.7,33.7 545.0,33.5 546.4,33.2 547.7,33.1 549.0,32.9 550.3,32.8 551.6,32.7 552.9,32.5 554.2,32.3 555.5,32.1 556.9,31.9 558.2,31.8 559.5,31.6 560.8,31.4 562.1,31.2 563.4,30.9 564.7,30.8 566.1,30.6 567.4,30.4 568.7,30.2 570.0,30.0" />
  
  <!-- Punto finale luminoso -->
  <circle cx="570.0" cy="30.0" r="4" fill="#ffffff" stroke="#0366d6" stroke-width="2.5" />
</svg>