<svg width="600" height="150" viewBox="0 0 600 150" xmlns="http://www.w3.org/2000/svg">
  <defs>
    <filter id="shadow2" x="-2%" y="-2%" width="104%" height="108%">
      <feDropShadow dx="0" dy="2" stdDeviation="3" flood-opacity="0.1" />
    </filter>
    <linearGradient id="fillGrad" x1="0" y1="0" x2="0" y2="1">
      <stop offset="0%" stop-color="#0366d6" stop-opacity="0.3"/>
      <stop offset="100%" stop-color="#0366d6" stop-opacity="0.02"/>
    </linearGradient>
  </defs>
  <rect width="600" height="150" rx="12" fill="#ffffff" filter="url(#shadow2)" stroke="#e1e4e8" stroke-width="1"/>
  <text x="20" y="24" fill="#2b3137" font-family="-apple-system,BlinkMacSystemFont,'Segoe UI',Helvetica,Arial,sans-serif" font-size="14" font-weight="600">📈 Download Growth (Actual: 77.4k)</text>
  
  <!-- Area sotto la linea -->
  <polygon fill="url(#fillGrad)" points="30.0,120.0,120 30.0,120.0 32.8,119.0 35.6,118.0 38.4,117.1 41.1,116.9 43.9,116.4 46.7,115.3 49.5,114.5 52.3,114.1 55.1,112.9 57.8,112.3 60.6,111.8 63.4,111.4 66.2,110.9 69.0,110.2 71.8,109.3 74.5,108.7 77.3,108.3 80.1,108.0 82.9,107.5 85.7,106.9 88.5,106.3 91.2,106.1 94.0,105.6 96.8,103.8 99.6,103.2 102.4,102.5 105.2,101.8 107.9,101.2 110.7,100.6 113.5,100.2 116.3,99.9 119.1,99.4 121.9,98.5 124.6,97.8 127.4,97.3 130.2,96.7 133.0,96.5 135.8,96.4 138.6,96.1 141.3,95.5 144.1,95.1 146.9,94.9 149.7,94.2 152.5,93.3 155.3,93.0 158.0,92.9 160.8,92.5 163.6,91.7 166.4,91.2 169.2,90.4 172.0,89.8 174.7,89.1 177.5,89.0 180.3,88.6 183.1,87.8 185.9,87.1 188.7,86.6 191.4,86.3 194.2,86.0 197.0,85.6 199.8,84.8 202.6,84.1 205.4,83.4 208.1,82.7 210.9,82.4 213.7,82.2 216.5,81.9 219.3,81.4 222.1,81.0 224.8,80.7 227.6,80.4 230.4,80.2 233.2,79.8 236.0,79.5 238.8,79.4 241.5,79.2 244.3,78.4 247.1,78.0 249.9,77.9 252.7,77.6 255.5,77.5 258.2,77.5 261.0,89.6 263.8,88.4 266.6,87.4 269.4,86.2 272.2,82.9 274.9,80.6 277.7,78.1 280.5,77.2 283.3,76.2 286.1,74.5 288.9,72.6 291.6,71.3 294.4,70.7 297.2,70.2 300.0,68.9 302.8,68.0 305.6,67.3 308.4,66.5 311.1,66.2 313.9,66.1 316.7,65.4 319.5,64.2 322.3,63.4 325.1,62.6 327.8,61.7 330.6,61.3 333.4,60.9 336.2,60.2 339.0,59.5 341.8,58.8 344.5,58.2 347.3,58.0 350.1,57.8 352.9,57.4 355.7,56.8 358.5,56.4 361.2,55.9 364.0,55.6 366.8,55.2 369.6,54.9 372.4,54.6 375.2,54.3 377.9,54.0 380.7,53.4 383.5,52.9 386.3,52.3 389.1,52.0 391.9,51.7 394.6,51.4 397.4,51.2 400.2,50.9 403.0,50.0 405.8,49.4 408.6,48.7 411.3,48.4 414.1,48.3 416.9,48.0 419.7,47.6 422.5,47.1 425.3,46.7 428.0,46.2 430.8,45.8 433.6,45.6 436.4,45.3 439.2,45.1 442.0,44.9 444.7,44.5 447.5,44.2 450.3,43.7 453.1,43.4 455.9,43.3 458.7,43.0 461.4,42.8 464.2,42.4 467.0,42.0 469.8,41.6 472.6,41.2 475.4,40.8 478.1,40.6 480.9,40.4 483.7,40.1 486.5,39.6 489.3,39.1 492.1,38.7 494.8,38.3 497.6,37.6 500.4,37.5 503.2,37.3 506.0,37.1 508.8,36.8 511.5,36.5 514.3,36.1 517.1,35.8 519.9,35.5 522.7,35.3 525.5,35.0 528.2,34.8 531.0,34.6 533.8,34.3 536.6,33.8 539.4,33.6 542.2,33.2 544.9,33.0 547.7,32.8 550.5,32.5 553.3,32.3 556.1,32.0 558.9,31.7 561.6,31.2 564.4,30.6 567.2,30.3 570.0,30.0 570.0,30.0,120" />
  
  <!-- Linea principale -->
  <polyline fill="none" stroke="#0366d6" stroke-width="2.5" stroke-linecap="round" stroke-linejoin="round" points="30.0,120.0 32.8,119.0 35.6,118.0 38.4,117.1 41.1,116.9 43.9,116.4 46.7,115.3 49.5,114.5 52.3,114.1 55.1,112.9 57.8,112.3 60.6,111.8 63.4,111.4 66.2,110.9 69.0,110.2 71.8,109.3 74.5,108.7 77.3,108.3 80.1,108.0 82.9,107.5 85.7,106.9 88.5,106.3 91.2,106.1 94.0,105.6 96.8,103.8 99.6,103.2 102.4,102.5 105.2,101.8 107.9,101.2 110.7,100.6 113.5,100.2 116.3,99.9 119.1,99.4 121.9,98.5 124.6,97.8 127.4,97.3 130.2,96.7 133.0,96.5 135.8,96.4 138.6,96.1 141.3,95.5 144.1,95.1 146.9,94.9 149.7,94.2 152.5,93.3 155.3,93.0 158.0,92.9 160.8,92.5 163.6,91.7 166.4,91.2 169.2,90.4 172.0,89.8 174.7,89.1 177.5,89.0 180.3,88.6 183.1,87.8 185.9,87.1 188.7,86.6 191.4,86.3 194.2,86.0 197.0,85.6 199.8,84.8 202.6,84.1 205.4,83.4 208.1,82.7 210.9,82.4 213.7,82.2 216.5,81.9 219.3,81.4 222.1,81.0 224.8,80.7 227.6,80.4 230.4,80.2 233.2,79.8 236.0,79.5 238.8,79.4 241.5,79.2 244.3,78.4 247.1,78.0 249.9,77.9 252.7,77.6 255.5,77.5 258.2,77.5 261.0,89.6 263.8,88.4 266.6,87.4 269.4,86.2 272.2,82.9 274.9,80.6 277.7,78.1 280.5,77.2 283.3,76.2 286.1,74.5 288.9,72.6 291.6,71.3 294.4,70.7 297.2,70.2 300.0,68.9 302.8,68.0 305.6,67.3 308.4,66.5 311.1,66.2 313.9,66.1 316.7,65.4 319.5,64.2 322.3,63.4 325.1,62.6 327.8,61.7 330.6,61.3 333.4,60.9 336.2,60.2 339.0,59.5 341.8,58.8 344.5,58.2 347.3,58.0 350.1,57.8 352.9,57.4 355.7,56.8 358.5,56.4 361.2,55.9 364.0,55.6 366.8,55.2 369.6,54.9 372.4,54.6 375.2,54.3 377.9,54.0 380.7,53.4 383.5,52.9 386.3,52.3 389.1,52.0 391.9,51.7 394.6,51.4 397.4,51.2 400.2,50.9 403.0,50.0 405.8,49.4 408.6,48.7 411.3,48.4 414.1,48.3 416.9,48.0 419.7,47.6 422.5,47.1 425.3,46.7 428.0,46.2 430.8,45.8 433.6,45.6 436.4,45.3 439.2,45.1 442.0,44.9 444.7,44.5 447.5,44.2 450.3,43.7 453.1,43.4 455.9,43.3 458.7,43.0 461.4,42.8 464.2,42.4 467.0,42.0 469.8,41.6 472.6,41.2 475.4,40.8 478.1,40.6 480.9,40.4 483.7,40.1 486.5,39.6 489.3,39.1 492.1,38.7 494.8,38.3 497.6,37.6 500.4,37.5 503.2,37.3 506.0,37.1 508.8,36.8 511.5,36.5 514.3,36.1 517.1,35.8 519.9,35.5 522.7,35.3 525.5,35.0 528.2,34.8 531.0,34.6 533.8,34.3 536.6,33.8 539.4,33.6 542.2,33.2 544.9,33.0 547.7,32.8 550.5,32.5 553.3,32.3 556.1,32.0 558.9,31.7 561.6,31.2 564.4,30.6 567.2,30.3 570.0,30.0" />
  
  <!-- Punto finale luminoso -->
  <circle cx="570.0" cy="30.0" r="4" fill="#ffffff" stroke="#0366d6" stroke-width="2.5" />
</svg>