<svg width="600" height="150" viewBox="0 0 600 150" xmlns="http://www.w3.org/2000/svg">
  <defs>
    <filter id="shadow2" x="-2%" y="-2%" width="104%" height="108%">
      <feDropShadow dx="0" dy="2" stdDeviation="3" flood-opacity="0.1" />
    </filter>
    <linearGradient id="fillGrad" x1="0" y1="0" x2="0" y2="1">
      <stop offset="0%" stop-color="#0366d6" stop-opacity="0.3"/>
      <stop offset="100%" stop-color="#0366d6" stop-opacity="0.02"/>
    </linearGradient>
  </defs>
  <rect width="600" height="150" rx="12" fill="#ffffff" filter="url(#shadow2)" stroke="#e1e4e8" stroke-width="1"/>
  <text x="20" y="24" fill="#2b3137" font-family="-apple-system,BlinkMacSystemFont,'Segoe UI',Helvetica,Arial,sans-serif" font-size="14" font-weight="600">📈 Download Growth (Actual: 80.3k)</text>
  
  <!-- Area sotto la linea -->
  <polygon fill="url(#fillGrad)" points="30.0,120.0,120 30.0,120.0 32.0,119.2 34.0,118.4 36.0,117.7 38.1,117.5 40.1,117.2 42.1,116.3 44.1,115.7 46.1,115.3 48.1,114.4 50.1,114.0 52.2,113.5 54.2,113.2 56.2,112.8 58.2,112.2 60.2,111.6 62.2,111.1 64.3,110.7 66.3,110.5 68.3,110.1 70.3,109.6 72.3,109.2 74.3,109.0 76.3,108.6 78.4,107.2 80.4,106.8 82.4,106.2 84.4,105.7 86.4,105.2 88.4,104.7 90.4,104.4 92.5,104.2 94.5,103.8 96.5,103.1 98.5,102.5 100.5,102.1 102.5,101.6 104.6,101.5 106.6,101.3 108.6,101.1 110.6,100.6 112.6,100.4 114.6,100.2 116.6,99.7 118.7,98.9 120.7,98.7 122.7,98.6 124.7,98.3 126.7,97.7 128.7,97.3 130.7,96.6 132.8,96.2 134.8,95.6 136.8,95.5 138.8,95.2 140.8,94.6 142.8,94.0 144.9,93.6 146.9,93.4 148.9,93.1 150.9,92.9 152.9,92.2 154.9,91.6 156.9,91.1 159.0,90.6 161.0,90.3 163.0,90.2 165.0,89.9 167.0,89.5 169.0,89.2 171.0,89.0 173.1,88.7 175.1,88.6 177.1,88.2 179.1,88.0 181.1,87.9 183.1,87.8 185.1,87.2 187.2,86.9 189.2,86.8 191.2,86.6 193.2,86.4 195.2,86.4 197.2,96.0 199.3,95.1 201.3,94.2 203.3,93.4 205.3,90.7 207.3,88.9 209.3,86.9 211.3,86.2 213.4,85.4 215.4,84.1 217.4,82.6 219.4,81.5 221.4,81.1 223.4,80.7 225.4,79.7 227.5,78.9 229.5,78.4 231.5,77.8 233.5,77.5 235.5,77.4 237.5,76.9 239.6,76.0 241.6,75.3 243.6,74.7 245.6,74.0 247.6,73.6 249.6,73.4 251.6,72.8 253.7,72.2 255.7,71.7 257.7,71.2 259.7,71.1 261.7,70.9 263.7,70.6 265.7,70.1 267.8,69.8 269.8,69.4 271.8,69.1 273.8,68.9 275.8,68.6 277.8,68.3 279.9,68.1 281.9,67.9 283.9,67.4 285.9,67.0 287.9,66.6 289.9,66.3 291.9,66.0 294.0,65.9 296.0,65.6 298.0,65.4 300.0,64.7 302.0,64.3 304.0,63.7 306.0,63.4 308.1,63.4 310.1,63.1 312.1,62.8 314.1,62.5 316.1,62.1 318.1,61.7 320.1,61.4 322.2,61.3 324.2,61.1 326.2,60.9 328.2,60.7 330.2,60.4 332.2,60.2 334.3,59.7 336.3,59.5 338.3,59.4 340.3,59.2 342.3,59.1 344.3,58.7 346.3,58.4 348.4,58.1 350.4,57.8 352.4,57.5 354.4,57.3 356.4,57.1 358.4,56.9 360.4,56.5 362.5,56.1 364.5,55.8 366.5,55.5 368.5,55.0 370.5,54.9 372.5,54.7 374.6,54.6 376.6,54.3 378.6,54.1 380.6,53.8 382.6,53.6 384.6,53.3 386.6,53.1 388.7,52.9 390.7,52.7 392.7,52.6 394.7,52.3 396.7,51.9 398.7,51.8 400.7,51.5 402.8,51.3 404.8,51.1 406.8,50.9 408.8,50.7 410.8,50.6 412.8,50.3 414.9,49.9 416.9,49.5 418.9,49.2 420.9,48.9 422.9,48.9 424.9,48.7 426.9,48.5 429.0,48.1 431.0,47.9 433.0,47.8 435.0,47.5 437.0,47.3 439.0,47.0 441.0,46.8 443.1,46.7 445.1,46.3 447.1,46.1 449.1,45.7 451.1,45.5 453.1,45.3 455.1,45.2 457.2,45.1 459.2,44.9 461.2,44.7 463.2,44.5 465.2,44.2 467.2,44.0 469.3,43.8 471.3,43.6 473.3,43.4 475.3,43.2 477.3,42.9 479.3,42.6 481.3,42.4 483.4,42.1 485.4,42.0 487.4,41.8 489.4,41.7 491.4,41.6 493.4,41.4 495.4,41.2 497.5,40.9 499.5,40.7 501.5,40.4 503.5,40.3 505.5,40.1 507.5,39.9 509.6,39.6 511.6,39.5 513.6,39.3 515.6,39.1 517.6,38.8 519.6,38.6 521.6,38.4 523.7,38.3 525.7,38.2 527.7,38.0 529.7,37.8 531.7,37.6 533.7,37.5 535.7,37.4 537.8,37.2 539.8,36.7 541.8,36.4 543.8,42.7 545.8,41.5 547.8,39.1 549.9,38.2 551.9,37.1 553.9,35.8 555.9,35.0 557.9,34.5 559.9,33.6 561.9,32.3 564.0,31.2 566.0,30.9 568.0,30.4 570.0,30.0 570.0,30.0,120" />
  
  <!-- Linea principale -->
  <polyline fill="none" stroke="#0366d6" stroke-width="2.5" stroke-linecap="round" stroke-linejoin="round" points="30.0,120.0 32.0,119.2 34.0,118.4 36.0,117.7 38.1,117.5 40.1,117.2 42.1,116.3 44.1,115.7 46.1,115.3 48.1,114.4 50.1,114.0 52.2,113.5 54.2,113.2 56.2,112.8 58.2,112.2 60.2,111.6 62.2,111.1 64.3,110.7 66.3,110.5 68.3,110.1 70.3,109.6 72.3,109.2 74.3,109.0 76.3,108.6 78.4,107.2 80.4,106.8 82.4,106.2 84.4,105.7 86.4,105.2 88.4,104.7 90.4,104.4 92.5,104.2 94.5,103.8 96.5,103.1 98.5,102.5 100.5,102.1 102.5,101.6 104.6,101.5 106.6,101.3 108.6,101.1 110.6,100.6 112.6,100.4 114.6,100.2 116.6,99.7 118.7,98.9 120.7,98.7 122.7,98.6 124.7,98.3 126.7,97.7 128.7,97.3 130.7,96.6 132.8,96.2 134.8,95.6 136.8,95.5 138.8,95.2 140.8,94.6 142.8,94.0 144.9,93.6 146.9,93.4 148.9,93.1 150.9,92.9 152.9,92.2 154.9,91.6 156.9,91.1 159.0,90.6 161.0,90.3 163.0,90.2 165.0,89.9 167.0,89.5 169.0,89.2 171.0,89.0 173.1,88.7 175.1,88.6 177.1,88.2 179.1,88.0 181.1,87.9 183.1,87.8 185.1,87.2 187.2,86.9 189.2,86.8 191.2,86.6 193.2,86.4 195.2,86.4 197.2,96.0 199.3,95.1 201.3,94.2 203.3,93.4 205.3,90.7 207.3,88.9 209.3,86.9 211.3,86.2 213.4,85.4 215.4,84.1 217.4,82.6 219.4,81.5 221.4,81.1 223.4,80.7 225.4,79.7 227.5,78.9 229.5,78.4 231.5,77.8 233.5,77.5 235.5,77.4 237.5,76.9 239.6,76.0 241.6,75.3 243.6,74.7 245.6,74.0 247.6,73.6 249.6,73.4 251.6,72.8 253.7,72.2 255.7,71.7 257.7,71.2 259.7,71.1 261.7,70.9 263.7,70.6 265.7,70.1 267.8,69.8 269.8,69.4 271.8,69.1 273.8,68.9 275.8,68.6 277.8,68.3 279.9,68.1 281.9,67.9 283.9,67.4 285.9,67.0 287.9,66.6 289.9,66.3 291.9,66.0 294.0,65.9 296.0,65.6 298.0,65.4 300.0,64.7 302.0,64.3 304.0,63.7 306.0,63.4 308.1,63.4 310.1,63.1 312.1,62.8 314.1,62.5 316.1,62.1 318.1,61.7 320.1,61.4 322.2,61.3 324.2,61.1 326.2,60.9 328.2,60.7 330.2,60.4 332.2,60.2 334.3,59.7 336.3,59.5 338.3,59.4 340.3,59.2 342.3,59.1 344.3,58.7 346.3,58.4 348.4,58.1 350.4,57.8 352.4,57.5 354.4,57.3 356.4,57.1 358.4,56.9 360.4,56.5 362.5,56.1 364.5,55.8 366.5,55.5 368.5,55.0 370.5,54.9 372.5,54.7 374.6,54.6 376.6,54.3 378.6,54.1 380.6,53.8 382.6,53.6 384.6,53.3 386.6,53.1 388.7,52.9 390.7,52.7 392.7,52.6 394.7,52.3 396.7,51.9 398.7,51.8 400.7,51.5 402.8,51.3 404.8,51.1 406.8,50.9 408.8,50.7 410.8,50.6 412.8,50.3 414.9,49.9 416.9,49.5 418.9,49.2 420.9,48.9 422.9,48.9 424.9,48.7 426.9,48.5 429.0,48.1 431.0,47.9 433.0,47.8 435.0,47.5 437.0,47.3 439.0,47.0 441.0,46.8 443.1,46.7 445.1,46.3 447.1,46.1 449.1,45.7 451.1,45.5 453.1,45.3 455.1,45.2 457.2,45.1 459.2,44.9 461.2,44.7 463.2,44.5 465.2,44.2 467.2,44.0 469.3,43.8 471.3,43.6 473.3,43.4 475.3,43.2 477.3,42.9 479.3,42.6 481.3,42.4 483.4,42.1 485.4,42.0 487.4,41.8 489.4,41.7 491.4,41.6 493.4,41.4 495.4,41.2 497.5,40.9 499.5,40.7 501.5,40.4 503.5,40.3 505.5,40.1 507.5,39.9 509.6,39.6 511.6,39.5 513.6,39.3 515.6,39.1 517.6,38.8 519.6,38.6 521.6,38.4 523.7,38.3 525.7,38.2 527.7,38.0 529.7,37.8 531.7,37.6 533.7,37.5 535.7,37.4 537.8,37.2 539.8,36.7 541.8,36.4 543.8,42.7 545.8,41.5 547.8,39.1 549.9,38.2 551.9,37.1 553.9,35.8 555.9,35.0 557.9,34.5 559.9,33.6 561.9,32.3 564.0,31.2 566.0,30.9 568.0,30.4 570.0,30.0" />
  
  <!-- Punto finale luminoso -->
  <circle cx="570.0" cy="30.0" r="4" fill="#ffffff" stroke="#0366d6" stroke-width="2.5" />
</svg>