<svg width="600" height="150" viewBox="0 0 600 150" xmlns="http://www.w3.org/2000/svg">
  <defs>
    <filter id="shadow2" x="-2%" y="-2%" width="104%" height="108%">
      <feDropShadow dx="0" dy="2" stdDeviation="3" flood-opacity="0.1" />
    </filter>
    <linearGradient id="fillGrad" x1="0" y1="0" x2="0" y2="1">
      <stop offset="0%" stop-color="#0366d6" stop-opacity="0.3"/>
      <stop offset="100%" stop-color="#0366d6" stop-opacity="0.02"/>
    </linearGradient>
  </defs>
  <rect width="600" height="150" rx="12" fill="#ffffff" filter="url(#shadow2)" stroke="#e1e4e8" stroke-width="1"/>
  <text x="20" y="24" fill="#2b3137" font-family="-apple-system,BlinkMacSystemFont,'Segoe UI',Helvetica,Arial,sans-serif" font-size="14" font-weight="600">📈 Download Growth (Actual: 85.5k)</text>
  
  <!-- Area sotto la linea -->
  <polygon fill="url(#fillGrad)" points="30.0,120.0,120 30.0,120.0 31.5,119.5 33.0,118.9 34.5,118.4 36.1,118.2 37.6,117.9 39.1,117.3 40.6,116.9 42.1,116.6 43.6,116.0 45.1,115.6 46.6,115.3 48.2,115.1 49.7,114.8 51.2,114.4 52.7,113.9 54.2,113.6 55.7,113.3 57.2,113.2 58.7,112.9 60.3,112.5 61.8,112.2 63.3,112.1 64.8,111.8 66.3,110.8 67.8,110.5 69.3,110.1 70.8,109.7 72.4,109.3 73.9,109.0 75.4,108.7 76.9,108.6 78.4,108.3 79.9,107.8 81.4,107.4 82.9,107.1 84.5,106.7 86.0,106.6 87.5,106.5 89.0,106.4 90.5,106.0 92.0,105.8 93.5,105.7 95.0,105.3 96.6,104.8 98.1,104.7 99.6,104.6 101.1,104.3 102.6,103.9 104.1,103.6 105.6,103.2 107.1,102.8 108.7,102.4 110.2,102.3 111.7,102.1 113.2,101.7 114.7,101.3 116.2,101.0 117.7,100.8 119.2,100.6 120.8,100.4 122.3,100.0 123.8,99.6 125.3,99.2 126.8,98.8 128.3,98.6 129.8,98.5 131.3,98.3 132.9,98.0 134.4,97.8 135.9,97.6 137.4,97.5 138.9,97.3 140.4,97.1 141.9,97.0 143.4,96.9 145.0,96.8 146.5,96.3 148.0,96.1 149.5,96.0 151.0,95.9 152.5,95.8 154.0,95.8 155.5,102.7 157.1,102.0 158.6,101.4 160.1,100.8 161.6,98.9 163.1,97.6 164.6,96.2 166.1,95.7 167.6,95.1 169.2,94.1 170.7,93.0 172.2,92.3 173.7,92.0 175.2,91.7 176.7,90.9 178.2,90.4 179.7,90.0 181.3,89.6 182.8,89.4 184.3,89.3 185.8,88.9 187.3,88.3 188.8,87.8 190.3,87.3 191.8,86.8 193.4,86.6 194.9,86.4 196.4,85.9 197.9,85.5 199.4,85.2 200.9,84.9 202.4,84.7 203.9,84.6 205.5,84.4 207.0,84.0 208.5,83.8 210.0,83.5 211.5,83.3 213.0,83.1 214.5,82.9 216.1,82.8 217.6,82.6 219.1,82.4 220.6,82.1 222.1,81.8 223.6,81.5 225.1,81.3 226.6,81.1 228.2,81.0 229.7,80.8 231.2,80.6 232.7,80.2 234.2,79.8 235.7,79.4 237.2,79.2 238.7,79.2 240.3,79.0 241.8,78.8 243.3,78.5 244.8,78.3 246.3,78.0 247.8,77.8 249.3,77.7 250.8,77.5 252.4,77.4 253.9,77.2 255.4,77.0 256.9,76.9 258.4,76.6 259.9,76.4 261.4,76.3 262.9,76.2 264.5,76.1 266.0,75.8 267.5,75.6 269.0,75.4 270.5,75.2 272.0,74.9 273.5,74.8 275.0,74.7 276.6,74.5 278.1,74.2 279.6,73.9 281.1,73.7 282.6,73.5 284.1,73.1 285.6,73.0 287.1,72.9 288.7,72.8 290.2,72.6 291.7,72.5 293.2,72.3 294.7,72.1 296.2,71.9 297.7,71.8 299.2,71.6 300.8,71.5 302.3,71.4 303.8,71.2 305.3,70.9 306.8,70.8 308.3,70.6 309.8,70.5 311.3,70.3 312.9,70.2 314.4,70.1 315.9,69.9 317.4,69.8 318.9,69.5 320.4,69.1 321.9,68.9 323.4,68.8 325.0,68.7 326.5,68.6 328.0,68.4 329.5,68.2 331.0,68.0 332.5,67.9 334.0,67.7 335.5,67.6 337.1,67.4 338.6,67.3 340.1,67.1 341.6,66.9 343.1,66.7 344.6,66.5 346.1,66.3 347.6,66.2 349.2,66.1 350.7,66.0 352.2,65.9 353.7,65.7 355.2,65.5 356.7,65.4 358.2,65.2 359.7,65.1 361.3,65.0 362.8,64.8 364.3,64.7 365.8,64.5 367.3,64.2 368.8,64.0 370.3,63.9 371.8,63.8 373.4,63.7 374.9,63.6 376.4,63.5 377.9,63.4 379.4,63.2 380.9,63.0 382.4,62.8 383.9,62.7 385.5,62.6 387.0,62.4 388.5,62.3 390.0,62.1 391.5,62.0 393.0,61.8 394.5,61.7 396.1,61.5 397.6,61.3 399.1,61.2 400.6,61.1 402.1,61.0 403.6,60.9 405.1,60.8 406.6,60.6 408.2,60.5 409.7,60.5 411.2,60.3 412.7,60.0 414.2,59.8 415.7,64.3 417.2,63.4 418.7,61.7 420.3,61.0 421.8,60.3 423.3,59.3 424.8,58.7 426.3,58.4 427.8,57.7 429.3,56.8 430.8,56.0 432.4,55.8 433.9,55.4 435.4,55.1 436.9,54.6 438.4,54.1 439.9,53.6 441.4,53.3 442.9,52.8 444.5,52.6 446.0,52.2 447.5,52.0 449.0,51.7 450.5,51.5 452.0,51.0 453.5,50.7 455.0,50.2 456.6,49.6 458.1,49.2 459.6,49.0 461.1,48.9 462.6,48.6 464.1,48.2 465.6,47.8 467.1,47.5 468.7,46.6 470.2,45.9 471.7,45.6 473.2,45.4 474.7,45.1 476.2,44.6 477.7,44.2 479.2,43.9 480.8,43.6 482.3,43.2 483.8,42.9 485.3,42.6 486.8,42.2 488.3,42.0 489.8,41.8 491.3,41.6 492.9,41.2 494.4,40.9 495.9,40.7 497.4,40.5 498.9,40.3 500.4,40.1 501.9,39.9 503.4,39.7 505.0,39.5 506.5,39.3 508.0,39.2 509.5,38.9 511.0,38.7 512.5,38.3 514.0,37.9 515.5,37.6 517.1,37.5 518.6,37.3 520.1,37.1 521.6,36.9 523.1,36.7 524.6,36.6 526.1,36.4 527.6,36.3 529.2,36.1 530.7,36.0 532.2,35.6 533.7,35.5 535.2,35.3 536.7,35.1 538.2,34.7 539.7,34.3 541.3,34.1 542.8,33.9 544.3,33.7 545.8,33.4 547.3,33.2 548.8,33.0 550.3,32.8 551.8,32.7 553.4,32.5 554.9,32.3 556.4,32.0 557.9,31.8 559.4,31.7 560.9,31.5 562.4,31.2 563.9,31.0 565.5,30.7 567.0,30.6 568.5,30.3 570.0,30.0 570.0,30.0,120" />
  
  <!-- Linea principale -->
  <polyline fill="none" stroke="#0366d6" stroke-width="2.5" stroke-linecap="round" stroke-linejoin="round" points="30.0,120.0 31.5,119.5 33.0,118.9 34.5,118.4 36.1,118.2 37.6,117.9 39.1,117.3 40.6,116.9 42.1,116.6 43.6,116.0 45.1,115.6 46.6,115.3 48.2,115.1 49.7,114.8 51.2,114.4 52.7,113.9 54.2,113.6 55.7,113.3 57.2,113.2 58.7,112.9 60.3,112.5 61.8,112.2 63.3,112.1 64.8,111.8 66.3,110.8 67.8,110.5 69.3,110.1 70.8,109.7 72.4,109.3 73.9,109.0 75.4,108.7 76.9,108.6 78.4,108.3 79.9,107.8 81.4,107.4 82.9,107.1 84.5,106.7 86.0,106.6 87.5,106.5 89.0,106.4 90.5,106.0 92.0,105.8 93.5,105.7 95.0,105.3 96.6,104.8 98.1,104.7 99.6,104.6 101.1,104.3 102.6,103.9 104.1,103.6 105.6,103.2 107.1,102.8 108.7,102.4 110.2,102.3 111.7,102.1 113.2,101.7 114.7,101.3 116.2,101.0 117.7,100.8 119.2,100.6 120.8,100.4 122.3,100.0 123.8,99.6 125.3,99.2 126.8,98.8 128.3,98.6 129.8,98.5 131.3,98.3 132.9,98.0 134.4,97.8 135.9,97.6 137.4,97.5 138.9,97.3 140.4,97.1 141.9,97.0 143.4,96.9 145.0,96.8 146.5,96.3 148.0,96.1 149.5,96.0 151.0,95.9 152.5,95.8 154.0,95.8 155.5,102.7 157.1,102.0 158.6,101.4 160.1,100.8 161.6,98.9 163.1,97.6 164.6,96.2 166.1,95.7 167.6,95.1 169.2,94.1 170.7,93.0 172.2,92.3 173.7,92.0 175.2,91.7 176.7,90.9 178.2,90.4 179.7,90.0 181.3,89.6 182.8,89.4 184.3,89.3 185.8,88.9 187.3,88.3 188.8,87.8 190.3,87.3 191.8,86.8 193.4,86.6 194.9,86.4 196.4,85.9 197.9,85.5 199.4,85.2 200.9,84.9 202.4,84.7 203.9,84.6 205.5,84.4 207.0,84.0 208.5,83.8 210.0,83.5 211.5,83.3 213.0,83.1 214.5,82.9 216.1,82.8 217.6,82.6 219.1,82.4 220.6,82.1 222.1,81.8 223.6,81.5 225.1,81.3 226.6,81.1 228.2,81.0 229.7,80.8 231.2,80.6 232.7,80.2 234.2,79.8 235.7,79.4 237.2,79.2 238.7,79.2 240.3,79.0 241.8,78.8 243.3,78.5 244.8,78.3 246.3,78.0 247.8,77.8 249.3,77.7 250.8,77.5 252.4,77.4 253.9,77.2 255.4,77.0 256.9,76.9 258.4,76.6 259.9,76.4 261.4,76.3 262.9,76.2 264.5,76.1 266.0,75.8 267.5,75.6 269.0,75.4 270.5,75.2 272.0,74.9 273.5,74.8 275.0,74.7 276.6,74.5 278.1,74.2 279.6,73.9 281.1,73.7 282.6,73.5 284.1,73.1 285.6,73.0 287.1,72.9 288.7,72.8 290.2,72.6 291.7,72.5 293.2,72.3 294.7,72.1 296.2,71.9 297.7,71.8 299.2,71.6 300.8,71.5 302.3,71.4 303.8,71.2 305.3,70.9 306.8,70.8 308.3,70.6 309.8,70.5 311.3,70.3 312.9,70.2 314.4,70.1 315.9,69.9 317.4,69.8 318.9,69.5 320.4,69.1 321.9,68.9 323.4,68.8 325.0,68.7 326.5,68.6 328.0,68.4 329.5,68.2 331.0,68.0 332.5,67.9 334.0,67.7 335.5,67.6 337.1,67.4 338.6,67.3 340.1,67.1 341.6,66.9 343.1,66.7 344.6,66.5 346.1,66.3 347.6,66.2 349.2,66.1 350.7,66.0 352.2,65.9 353.7,65.7 355.2,65.5 356.7,65.4 358.2,65.2 359.7,65.1 361.3,65.0 362.8,64.8 364.3,64.7 365.8,64.5 367.3,64.2 368.8,64.0 370.3,63.9 371.8,63.8 373.4,63.7 374.9,63.6 376.4,63.5 377.9,63.4 379.4,63.2 380.9,63.0 382.4,62.8 383.9,62.7 385.5,62.6 387.0,62.4 388.5,62.3 390.0,62.1 391.5,62.0 393.0,61.8 394.5,61.7 396.1,61.5 397.6,61.3 399.1,61.2 400.6,61.1 402.1,61.0 403.6,60.9 405.1,60.8 406.6,60.6 408.2,60.5 409.7,60.5 411.2,60.3 412.7,60.0 414.2,59.8 415.7,64.3 417.2,63.4 418.7,61.7 420.3,61.0 421.8,60.3 423.3,59.3 424.8,58.7 426.3,58.4 427.8,57.7 429.3,56.8 430.8,56.0 432.4,55.8 433.9,55.4 435.4,55.1 436.9,54.6 438.4,54.1 439.9,53.6 441.4,53.3 442.9,52.8 444.5,52.6 446.0,52.2 447.5,52.0 449.0,51.7 450.5,51.5 452.0,51.0 453.5,50.7 455.0,50.2 456.6,49.6 458.1,49.2 459.6,49.0 461.1,48.9 462.6,48.6 464.1,48.2 465.6,47.8 467.1,47.5 468.7,46.6 470.2,45.9 471.7,45.6 473.2,45.4 474.7,45.1 476.2,44.6 477.7,44.2 479.2,43.9 480.8,43.6 482.3,43.2 483.8,42.9 485.3,42.6 486.8,42.2 488.3,42.0 489.8,41.8 491.3,41.6 492.9,41.2 494.4,40.9 495.9,40.7 497.4,40.5 498.9,40.3 500.4,40.1 501.9,39.9 503.4,39.7 505.0,39.5 506.5,39.3 508.0,39.2 509.5,38.9 511.0,38.7 512.5,38.3 514.0,37.9 515.5,37.6 517.1,37.5 518.6,37.3 520.1,37.1 521.6,36.9 523.1,36.7 524.6,36.6 526.1,36.4 527.6,36.3 529.2,36.1 530.7,36.0 532.2,35.6 533.7,35.5 535.2,35.3 536.7,35.1 538.2,34.7 539.7,34.3 541.3,34.1 542.8,33.9 544.3,33.7 545.8,33.4 547.3,33.2 548.8,33.0 550.3,32.8 551.8,32.7 553.4,32.5 554.9,32.3 556.4,32.0 557.9,31.8 559.4,31.7 560.9,31.5 562.4,31.2 563.9,31.0 565.5,30.7 567.0,30.6 568.5,30.3 570.0,30.0" />
  
  <!-- Punto finale luminoso -->
  <circle cx="570.0" cy="30.0" r="4" fill="#ffffff" stroke="#0366d6" stroke-width="2.5" />
</svg>