<svg width="600" height="150" viewBox="0 0 600 150" xmlns="http://www.w3.org/2000/svg">
  <defs>
    <filter id="shadow2" x="-2%" y="-2%" width="104%" height="108%">
      <feDropShadow dx="0" dy="2" stdDeviation="3" flood-opacity="0.1" />
    </filter>
    <linearGradient id="fillGrad" x1="0" y1="0" x2="0" y2="1">
      <stop offset="0%" stop-color="#0366d6" stop-opacity="0.3"/>
      <stop offset="100%" stop-color="#0366d6" stop-opacity="0.02"/>
    </linearGradient>
  </defs>
  <rect width="600" height="150" rx="12" fill="#ffffff" filter="url(#shadow2)" stroke="#e1e4e8" stroke-width="1"/>
  <text x="20" y="24" fill="#2b3137" font-family="-apple-system,BlinkMacSystemFont,'Segoe UI',Helvetica,Arial,sans-serif" font-size="14" font-weight="600">📈 Download Growth (Actual: 87.7k)</text>
  
  <!-- Area sotto la linea -->
  <polygon fill="url(#fillGrad)" points="30.0,120.0,120 30.0,120.0 31.3,119.5 32.6,119.0 33.9,118.5 35.2,118.4 36.5,118.2 37.8,117.6 39.1,117.2 40.4,117.0 41.7,116.4 43.0,116.1 44.3,115.8 45.6,115.7 46.9,115.4 48.2,115.0 49.5,114.6 50.8,114.3 52.1,114.0 53.4,113.9 54.7,113.6 56.0,113.3 57.3,113.1 58.6,112.9 59.9,112.7 61.2,111.8 62.5,111.5 63.8,111.1 65.0,110.8 66.3,110.5 67.6,110.2 68.9,110.0 70.2,109.8 71.5,109.5 72.8,109.1 74.1,108.7 75.4,108.5 76.7,108.2 78.0,108.1 79.3,108.0 80.6,107.8 81.9,107.5 83.2,107.4 84.5,107.2 85.8,106.9 87.1,106.4 88.4,106.3 89.7,106.2 91.0,106.0 92.3,105.6 93.6,105.4 94.9,105.0 96.2,104.7 97.5,104.3 98.8,104.2 100.1,104.0 101.4,103.7 102.7,103.3 104.0,103.0 105.3,102.9 106.6,102.7 107.9,102.5 109.2,102.1 110.5,101.8 111.8,101.4 113.1,101.1 114.4,100.9 115.7,100.8 117.0,100.7 118.3,100.4 119.6,100.2 120.9,100.0 122.2,99.9 123.5,99.8 124.8,99.6 126.1,99.4 127.4,99.4 128.7,99.3 130.0,98.9 131.2,98.7 132.5,98.6 133.8,98.5 135.1,98.4 136.4,98.4 137.7,104.6 139.0,104.0 140.3,103.4 141.6,102.9 142.9,101.2 144.2,100.0 145.5,98.7 146.8,98.3 148.1,97.7 149.4,96.9 150.7,95.9 152.0,95.2 153.3,95.0 154.6,94.7 155.9,94.1 157.2,93.6 158.5,93.2 159.8,92.8 161.1,92.7 162.4,92.6 163.7,92.3 165.0,91.7 166.3,91.3 167.6,90.9 168.9,90.4 170.2,90.2 171.5,90.0 172.8,89.6 174.1,89.2 175.4,88.9 176.7,88.6 178.0,88.5 179.3,88.4 180.6,88.2 181.9,87.9 183.2,87.7 184.5,87.5 185.8,87.3 187.1,87.1 188.4,86.9 189.7,86.8 191.0,86.6 192.3,86.5 193.6,86.2 194.9,85.9 196.2,85.6 197.5,85.5 198.8,85.3 200.0,85.2 201.3,85.0 202.6,84.9 203.9,84.4 205.2,84.1 206.5,83.8 207.8,83.6 209.1,83.6 210.4,83.4 211.7,83.2 213.0,83.0 214.3,82.8 215.6,82.5 216.9,82.3 218.2,82.2 219.5,82.1 220.8,82.0 222.1,81.8 223.4,81.7 224.7,81.5 226.0,81.2 227.3,81.1 228.6,81.0 229.9,80.9 231.2,80.8 232.5,80.6 233.8,80.4 235.1,80.2 236.4,80.0 237.7,79.8 239.0,79.7 240.3,79.6 241.6,79.4 242.9,79.1 244.2,78.9 245.5,78.7 246.8,78.5 248.1,78.2 249.4,78.1 250.7,78.0 252.0,77.9 253.3,77.7 254.6,77.6 255.9,77.4 257.2,77.3 258.5,77.1 259.8,77.0 261.1,76.8 262.4,76.7 263.7,76.6 265.0,76.5 266.2,76.2 267.5,76.1 268.8,75.9 270.1,75.8 271.4,75.7 272.7,75.5 274.0,75.4 275.3,75.3 276.6,75.2 277.9,74.9 279.2,74.6 280.5,74.4 281.8,74.3 283.1,74.2 284.4,74.2 285.7,74.0 287.0,73.7 288.3,73.6 289.6,73.5 290.9,73.3 292.2,73.2 293.5,73.0 294.8,72.9 296.1,72.8 297.4,72.6 298.7,72.4 300.0,72.2 301.3,72.0 302.6,72.0 303.9,71.9 305.2,71.8 306.5,71.7 307.8,71.6 309.1,71.4 310.4,71.2 311.7,71.1 313.0,71.0 314.3,70.9 315.6,70.7 316.9,70.6 318.2,70.4 319.5,70.2 320.8,70.1 322.1,69.9 323.4,69.8 324.7,69.7 326.0,69.6 327.3,69.5 328.6,69.4 329.9,69.3 331.2,69.1 332.5,69.0 333.8,68.8 335.0,68.7 336.3,68.6 337.6,68.5 338.9,68.3 340.2,68.2 341.5,68.1 342.8,68.0 344.1,67.8 345.4,67.7 346.7,67.5 348.0,67.4 349.3,67.4 350.6,67.2 351.9,67.1 353.2,67.0 354.5,66.9 355.8,66.9 357.1,66.7 358.4,66.4 359.7,66.2 361.0,70.3 362.3,69.5 363.6,68.0 364.9,67.4 366.2,66.7 367.5,65.8 368.8,65.3 370.1,65.0 371.4,64.4 372.7,63.6 374.0,62.9 375.3,62.7 376.6,62.4 377.9,62.1 379.2,61.6 380.5,61.2 381.8,60.7 383.1,60.5 384.4,60.0 385.7,59.8 387.0,59.5 388.3,59.3 389.6,59.1 390.9,58.9 392.2,58.4 393.5,58.1 394.8,57.7 396.1,57.2 397.4,56.8 398.7,56.7 400.0,56.5 401.2,56.3 402.5,55.9 403.8,55.6 405.1,55.3 406.4,54.5 407.7,53.9 409.0,53.6 410.3,53.4 411.6,53.1 412.9,52.7 414.2,52.3 415.5,52.1 416.8,51.8 418.1,51.5 419.4,51.2 420.7,50.9 422.0,50.6 423.3,50.3 424.6,50.2 425.9,50.0 427.2,49.7 428.5,49.4 429.8,49.2 431.1,49.1 432.4,48.9 433.7,48.7 435.0,48.5 436.3,48.3 437.6,48.1 438.9,48.0 440.2,47.8 441.5,47.6 442.8,47.4 444.1,47.1 445.4,46.7 446.7,46.5 448.0,46.3 449.3,46.2 450.6,46.0 451.9,45.8 453.2,45.7 454.5,45.5 455.8,45.4 457.1,45.3 458.4,45.1 459.7,45.0 461.0,44.7 462.3,44.6 463.6,44.4 464.9,44.2 466.2,43.9 467.5,43.6 468.8,43.4 470.0,43.2 471.3,43.0 472.6,42.8 473.9,42.6 475.2,42.3 476.5,42.1 477.8,42.1 479.1,41.9 480.4,41.7 481.7,41.5 483.0,41.3 484.3,41.2 485.6,41.0 486.9,40.8 488.2,40.6 489.5,40.3 490.8,40.2 492.1,39.9 493.4,39.7 494.7,39.5 496.0,39.4 497.3,39.2 498.6,39.1 499.9,38.9 501.2,38.7 502.5,38.5 503.8,38.4 505.1,38.3 506.4,38.1 507.7,37.9 509.0,37.8 510.3,37.7 511.6,37.5 512.9,37.5 514.2,37.3 515.5,37.1 516.8,37.0 518.1,36.8 519.4,36.7 520.7,36.5 522.0,36.3 523.3,36.1 524.6,36.0 525.9,35.9 527.2,35.8 528.5,35.5 529.8,35.3 531.1,35.1 532.4,35.0 533.7,34.9 535.0,34.8 536.2,34.6 537.5,34.5 538.8,34.3 540.1,34.0 541.4,33.9 542.7,33.7 544.0,33.6 545.3,33.5 546.6,33.3 547.9,33.1 549.2,32.9 550.5,32.7 551.8,32.6 553.1,32.3 554.4,32.1 555.7,32.0 557.0,31.7 558.3,31.6 559.6,31.4 560.9,31.2 562.2,31.0 563.5,30.8 564.8,30.7 566.1,30.5 567.4,30.3 568.7,30.2 570.0,30.0 570.0,30.0,120" />
  
  <!-- Linea principale -->
  <polyline fill="none" stroke="#0366d6" stroke-width="2.5" stroke-linecap="round" stroke-linejoin="round" points="30.0,120.0 31.3,119.5 32.6,119.0 33.9,118.5 35.2,118.4 36.5,118.2 37.8,117.6 39.1,117.2 40.4,117.0 41.7,116.4 43.0,116.1 44.3,115.8 45.6,115.7 46.9,115.4 48.2,115.0 49.5,114.6 50.8,114.3 52.1,114.0 53.4,113.9 54.7,113.6 56.0,113.3 57.3,113.1 58.6,112.9 59.9,112.7 61.2,111.8 62.5,111.5 63.8,111.1 65.0,110.8 66.3,110.5 67.6,110.2 68.9,110.0 70.2,109.8 71.5,109.5 72.8,109.1 74.1,108.7 75.4,108.5 76.7,108.2 78.0,108.1 79.3,108.0 80.6,107.8 81.9,107.5 83.2,107.4 84.5,107.2 85.8,106.9 87.1,106.4 88.4,106.3 89.7,106.2 91.0,106.0 92.3,105.6 93.6,105.4 94.9,105.0 96.2,104.7 97.5,104.3 98.8,104.2 100.1,104.0 101.4,103.7 102.7,103.3 104.0,103.0 105.3,102.9 106.6,102.7 107.9,102.5 109.2,102.1 110.5,101.8 111.8,101.4 113.1,101.1 114.4,100.9 115.7,100.8 117.0,100.7 118.3,100.4 119.6,100.2 120.9,100.0 122.2,99.9 123.5,99.8 124.8,99.6 126.1,99.4 127.4,99.4 128.7,99.3 130.0,98.9 131.2,98.7 132.5,98.6 133.8,98.5 135.1,98.4 136.4,98.4 137.7,104.6 139.0,104.0 140.3,103.4 141.6,102.9 142.9,101.2 144.2,100.0 145.5,98.7 146.8,98.3 148.1,97.7 149.4,96.9 150.7,95.9 152.0,95.2 153.3,95.0 154.6,94.7 155.9,94.1 157.2,93.6 158.5,93.2 159.8,92.8 161.1,92.7 162.4,92.6 163.7,92.3 165.0,91.7 166.3,91.3 167.6,90.9 168.9,90.4 170.2,90.2 171.5,90.0 172.8,89.6 174.1,89.2 175.4,88.9 176.7,88.6 178.0,88.5 179.3,88.4 180.6,88.2 181.9,87.9 183.2,87.7 184.5,87.5 185.8,87.3 187.1,87.1 188.4,86.9 189.7,86.8 191.0,86.6 192.3,86.5 193.6,86.2 194.9,85.9 196.2,85.6 197.5,85.5 198.8,85.3 200.0,85.2 201.3,85.0 202.6,84.9 203.9,84.4 205.2,84.1 206.5,83.8 207.8,83.6 209.1,83.6 210.4,83.4 211.7,83.2 213.0,83.0 214.3,82.8 215.6,82.5 216.9,82.3 218.2,82.2 219.5,82.1 220.8,82.0 222.1,81.8 223.4,81.7 224.7,81.5 226.0,81.2 227.3,81.1 228.6,81.0 229.9,80.9 231.2,80.8 232.5,80.6 233.8,80.4 235.1,80.2 236.4,80.0 237.7,79.8 239.0,79.7 240.3,79.6 241.6,79.4 242.9,79.1 244.2,78.9 245.5,78.7 246.8,78.5 248.1,78.2 249.4,78.1 250.7,78.0 252.0,77.9 253.3,77.7 254.6,77.6 255.9,77.4 257.2,77.3 258.5,77.1 259.8,77.0 261.1,76.8 262.4,76.7 263.7,76.6 265.0,76.5 266.2,76.2 267.5,76.1 268.8,75.9 270.1,75.8 271.4,75.7 272.7,75.5 274.0,75.4 275.3,75.3 276.6,75.2 277.9,74.9 279.2,74.6 280.5,74.4 281.8,74.3 283.1,74.2 284.4,74.2 285.7,74.0 287.0,73.7 288.3,73.6 289.6,73.5 290.9,73.3 292.2,73.2 293.5,73.0 294.8,72.9 296.1,72.8 297.4,72.6 298.7,72.4 300.0,72.2 301.3,72.0 302.6,72.0 303.9,71.9 305.2,71.8 306.5,71.7 307.8,71.6 309.1,71.4 310.4,71.2 311.7,71.1 313.0,71.0 314.3,70.9 315.6,70.7 316.9,70.6 318.2,70.4 319.5,70.2 320.8,70.1 322.1,69.9 323.4,69.8 324.7,69.7 326.0,69.6 327.3,69.5 328.6,69.4 329.9,69.3 331.2,69.1 332.5,69.0 333.8,68.8 335.0,68.7 336.3,68.6 337.6,68.5 338.9,68.3 340.2,68.2 341.5,68.1 342.8,68.0 344.1,67.8 345.4,67.7 346.7,67.5 348.0,67.4 349.3,67.4 350.6,67.2 351.9,67.1 353.2,67.0 354.5,66.9 355.8,66.9 357.1,66.7 358.4,66.4 359.7,66.2 361.0,70.3 362.3,69.5 363.6,68.0 364.9,67.4 366.2,66.7 367.5,65.8 368.8,65.3 370.1,65.0 371.4,64.4 372.7,63.6 374.0,62.9 375.3,62.7 376.6,62.4 377.9,62.1 379.2,61.6 380.5,61.2 381.8,60.7 383.1,60.5 384.4,60.0 385.7,59.8 387.0,59.5 388.3,59.3 389.6,59.1 390.9,58.9 392.2,58.4 393.5,58.1 394.8,57.7 396.1,57.2 397.4,56.8 398.7,56.7 400.0,56.5 401.2,56.3 402.5,55.9 403.8,55.6 405.1,55.3 406.4,54.5 407.7,53.9 409.0,53.6 410.3,53.4 411.6,53.1 412.9,52.7 414.2,52.3 415.5,52.1 416.8,51.8 418.1,51.5 419.4,51.2 420.7,50.9 422.0,50.6 423.3,50.3 424.6,50.2 425.9,50.0 427.2,49.7 428.5,49.4 429.8,49.2 431.1,49.1 432.4,48.9 433.7,48.7 435.0,48.5 436.3,48.3 437.6,48.1 438.9,48.0 440.2,47.8 441.5,47.6 442.8,47.4 444.1,47.1 445.4,46.7 446.7,46.5 448.0,46.3 449.3,46.2 450.6,46.0 451.9,45.8 453.2,45.7 454.5,45.5 455.8,45.4 457.1,45.3 458.4,45.1 459.7,45.0 461.0,44.7 462.3,44.6 463.6,44.4 464.9,44.2 466.2,43.9 467.5,43.6 468.8,43.4 470.0,43.2 471.3,43.0 472.6,42.8 473.9,42.6 475.2,42.3 476.5,42.1 477.8,42.1 479.1,41.9 480.4,41.7 481.7,41.5 483.0,41.3 484.3,41.2 485.6,41.0 486.9,40.8 488.2,40.6 489.5,40.3 490.8,40.2 492.1,39.9 493.4,39.7 494.7,39.5 496.0,39.4 497.3,39.2 498.6,39.1 499.9,38.9 501.2,38.7 502.5,38.5 503.8,38.4 505.1,38.3 506.4,38.1 507.7,37.9 509.0,37.8 510.3,37.7 511.6,37.5 512.9,37.5 514.2,37.3 515.5,37.1 516.8,37.0 518.1,36.8 519.4,36.7 520.7,36.5 522.0,36.3 523.3,36.1 524.6,36.0 525.9,35.9 527.2,35.8 528.5,35.5 529.8,35.3 531.1,35.1 532.4,35.0 533.7,34.9 535.0,34.8 536.2,34.6 537.5,34.5 538.8,34.3 540.1,34.0 541.4,33.9 542.7,33.7 544.0,33.6 545.3,33.5 546.6,33.3 547.9,33.1 549.2,32.9 550.5,32.7 551.8,32.6 553.1,32.3 554.4,32.1 555.7,32.0 557.0,31.7 558.3,31.6 559.6,31.4 560.9,31.2 562.2,31.0 563.5,30.8 564.8,30.7 566.1,30.5 567.4,30.3 568.7,30.2 570.0,30.0" />
  
  <!-- Punto finale luminoso -->
  <circle cx="570.0" cy="30.0" r="4" fill="#ffffff" stroke="#0366d6" stroke-width="2.5" />
</svg>