<svg width="600" height="150" viewBox="0 0 600 150" xmlns="http://www.w3.org/2000/svg">
  <defs>
    <filter id="shadow2" x="-2%" y="-2%" width="104%" height="108%">
      <feDropShadow dx="0" dy="2" stdDeviation="3" flood-opacity="0.1" />
    </filter>
    <linearGradient id="fillGrad" x1="0" y1="0" x2="0" y2="1">
      <stop offset="0%" stop-color="#0366d6" stop-opacity="0.3"/>
      <stop offset="100%" stop-color="#0366d6" stop-opacity="0.02"/>
    </linearGradient>
  </defs>
  <rect width="600" height="150" rx="12" fill="#ffffff" filter="url(#shadow2)" stroke="#e1e4e8" stroke-width="1"/>
  <text x="20" y="24" fill="#2b3137" font-family="-apple-system,BlinkMacSystemFont,'Segoe UI',Helvetica,Arial,sans-serif" font-size="14" font-weight="600">📈 Download Growth (Actual: 84.2k)</text>
  
  <!-- Area sotto la linea -->
  <polygon fill="url(#fillGrad)" points="30.0,120.0,120 30.0,120.0 31.6,119.4 33.3,118.8 34.9,118.2 36.5,118.1 38.2,117.8 39.8,117.1 41.4,116.7 43.1,116.4 44.7,115.7 46.3,115.3 47.9,115.0 49.6,114.8 51.2,114.5 52.8,114.0 54.5,113.5 56.1,113.1 57.7,112.9 59.4,112.7 61.0,112.4 62.6,112.0 64.3,111.7 65.9,111.5 67.5,111.2 69.2,110.1 70.8,109.8 72.4,109.4 74.0,108.9 75.7,108.5 77.3,108.2 78.9,107.9 80.6,107.8 82.2,107.5 83.8,106.9 85.5,106.5 87.1,106.2 88.7,105.8 90.4,105.7 92.0,105.6 93.6,105.4 95.3,105.1 96.9,104.8 98.5,104.7 100.2,104.3 101.8,103.7 103.4,103.6 105.0,103.5 106.7,103.2 108.3,102.8 109.9,102.4 111.6,102.0 113.2,101.6 114.8,101.2 116.5,101.1 118.1,100.8 119.7,100.4 121.4,100.0 123.0,99.6 124.6,99.5 126.3,99.3 127.9,99.1 129.5,98.6 131.1,98.1 132.8,97.7 134.4,97.3 136.0,97.1 137.7,97.0 139.3,96.8 140.9,96.5 142.6,96.2 144.2,96.0 145.8,95.9 147.5,95.7 149.1,95.5 150.7,95.3 152.4,95.2 154.0,95.1 155.6,94.7 157.3,94.4 158.9,94.3 160.5,94.2 162.1,94.1 163.8,94.1 165.4,101.5 167.0,100.8 168.7,100.1 170.3,99.4 171.9,97.4 173.6,96.0 175.2,94.5 176.8,93.9 178.5,93.3 180.1,92.3 181.7,91.1 183.4,90.3 185.0,90.0 186.6,89.7 188.2,88.9 189.9,88.3 191.5,87.9 193.1,87.4 194.8,87.2 196.4,87.1 198.0,86.7 199.7,86.0 201.3,85.5 202.9,85.0 204.6,84.5 206.2,84.2 207.8,84.0 209.5,83.5 211.1,83.1 212.7,82.7 214.4,82.4 216.0,82.2 217.6,82.1 219.2,81.9 220.9,81.5 222.5,81.2 224.1,81.0 225.8,80.7 227.4,80.5 229.0,80.3 230.7,80.1 232.3,80.0 233.9,79.8 235.6,79.4 237.2,79.1 238.8,78.8 240.5,78.6 242.1,78.4 243.7,78.2 245.3,78.0 247.0,77.9 248.6,77.3 250.2,77.0 251.9,76.5 253.5,76.3 255.1,76.3 256.8,76.1 258.4,75.9 260.0,75.6 261.7,75.3 263.3,75.0 264.9,74.8 266.6,74.7 268.2,74.5 269.8,74.4 271.5,74.2 273.1,74.0 274.7,73.8 276.3,73.5 278.0,73.3 279.6,73.2 281.2,73.1 282.9,73.0 284.5,72.7 286.1,72.5 287.8,72.2 289.4,72.0 291.0,71.8 292.7,71.6 294.3,71.5 295.9,71.3 297.6,71.0 299.2,70.7 300.8,70.5 302.4,70.2 304.1,69.8 305.7,69.7 307.3,69.6 309.0,69.5 310.6,69.3 312.2,69.1 313.9,68.9 315.5,68.7 317.1,68.5 318.8,68.4 320.4,68.2 322.0,68.0 323.7,68.0 325.3,67.8 326.9,67.5 328.5,67.3 330.2,67.1 331.8,67.0 333.4,66.8 335.1,66.7 336.7,66.5 338.3,66.4 340.0,66.2 341.6,65.9 343.2,65.5 344.9,65.3 346.5,65.1 348.1,65.1 349.8,65.0 351.4,64.8 353.0,64.5 354.7,64.3 356.3,64.2 357.9,64.0 359.5,63.8 361.2,63.6 362.8,63.5 364.4,63.4 366.1,63.1 367.7,62.9 369.3,62.7 371.0,62.5 372.6,62.4 374.2,62.3 375.9,62.2 377.5,62.0 379.1,61.9 380.8,61.7 382.4,61.5 384.0,61.3 385.6,61.2 387.3,61.1 388.9,60.9 390.5,60.8 392.2,60.5 393.8,60.3 395.4,60.1 397.1,59.9 398.7,59.8 400.3,59.7 402.0,59.6 403.6,59.5 405.2,59.3 406.9,59.2 408.5,58.9 410.1,58.8 411.8,58.6 413.4,58.5 415.0,58.3 416.6,58.2 418.3,58.0 419.9,57.8 421.5,57.7 423.2,57.6 424.8,57.4 426.4,57.2 428.1,57.0 429.7,56.9 431.3,56.8 433.0,56.7 434.6,56.6 436.2,56.4 437.9,56.3 439.5,56.2 441.1,56.1 442.7,55.7 444.4,55.5 446.0,60.3 447.6,59.4 449.3,57.6 450.9,56.9 452.5,56.0 454.2,55.0 455.8,54.4 457.4,54.0 459.1,53.3 460.7,52.3 462.3,51.5 464.0,51.2 465.6,50.8 467.2,50.5 468.9,50.0 470.5,49.5 472.1,48.9 473.7,48.6 475.4,48.1 477.0,47.8 478.6,47.4 480.3,47.2 481.9,46.9 483.5,46.7 485.2,46.1 486.8,45.8 488.4,45.3 490.1,44.6 491.7,44.2 493.3,44.0 495.0,43.8 496.6,43.6 498.2,43.1 499.8,42.7 501.5,42.4 503.1,41.4 504.7,40.7 506.4,40.3 508.0,40.1 509.6,39.8 511.3,39.3 512.9,38.8 514.5,38.5 516.2,38.2 517.8,37.8 519.4,37.5 521.1,37.1 522.7,36.7 524.3,36.4 526.0,36.2 527.6,36.0 529.2,35.6 530.8,35.3 532.5,35.0 534.1,34.9 535.7,34.7 537.4,34.4 539.0,34.2 540.6,34.0 542.3,33.8 543.9,33.6 545.5,33.4 547.2,33.1 548.8,32.9 550.4,32.5 552.1,32.1 553.7,31.8 555.3,31.6 556.9,31.4 558.6,31.2 560.2,31.0 561.8,30.8 563.5,30.6 565.1,30.5 566.7,30.4 568.4,30.1 570.0,30.0 570.0,30.0,120" />
  
  <!-- Linea principale -->
  <polyline fill="none" stroke="#0366d6" stroke-width="2.5" stroke-linecap="round" stroke-linejoin="round" points="30.0,120.0 31.6,119.4 33.3,118.8 34.9,118.2 36.5,118.1 38.2,117.8 39.8,117.1 41.4,116.7 43.1,116.4 44.7,115.7 46.3,115.3 47.9,115.0 49.6,114.8 51.2,114.5 52.8,114.0 54.5,113.5 56.1,113.1 57.7,112.9 59.4,112.7 61.0,112.4 62.6,112.0 64.3,111.7 65.9,111.5 67.5,111.2 69.2,110.1 70.8,109.8 72.4,109.4 74.0,108.9 75.7,108.5 77.3,108.2 78.9,107.9 80.6,107.8 82.2,107.5 83.8,106.9 85.5,106.5 87.1,106.2 88.7,105.8 90.4,105.7 92.0,105.6 93.6,105.4 95.3,105.1 96.9,104.8 98.5,104.7 100.2,104.3 101.8,103.7 103.4,103.6 105.0,103.5 106.7,103.2 108.3,102.8 109.9,102.4 111.6,102.0 113.2,101.6 114.8,101.2 116.5,101.1 118.1,100.8 119.7,100.4 121.4,100.0 123.0,99.6 124.6,99.5 126.3,99.3 127.9,99.1 129.5,98.6 131.1,98.1 132.8,97.7 134.4,97.3 136.0,97.1 137.7,97.0 139.3,96.8 140.9,96.5 142.6,96.2 144.2,96.0 145.8,95.9 147.5,95.7 149.1,95.5 150.7,95.3 152.4,95.2 154.0,95.1 155.6,94.7 157.3,94.4 158.9,94.3 160.5,94.2 162.1,94.1 163.8,94.1 165.4,101.5 167.0,100.8 168.7,100.1 170.3,99.4 171.9,97.4 173.6,96.0 175.2,94.5 176.8,93.9 178.5,93.3 180.1,92.3 181.7,91.1 183.4,90.3 185.0,90.0 186.6,89.7 188.2,88.9 189.9,88.3 191.5,87.9 193.1,87.4 194.8,87.2 196.4,87.1 198.0,86.7 199.7,86.0 201.3,85.5 202.9,85.0 204.6,84.5 206.2,84.2 207.8,84.0 209.5,83.5 211.1,83.1 212.7,82.7 214.4,82.4 216.0,82.2 217.6,82.1 219.2,81.9 220.9,81.5 222.5,81.2 224.1,81.0 225.8,80.7 227.4,80.5 229.0,80.3 230.7,80.1 232.3,80.0 233.9,79.8 235.6,79.4 237.2,79.1 238.8,78.8 240.5,78.6 242.1,78.4 243.7,78.2 245.3,78.0 247.0,77.9 248.6,77.3 250.2,77.0 251.9,76.5 253.5,76.3 255.1,76.3 256.8,76.1 258.4,75.9 260.0,75.6 261.7,75.3 263.3,75.0 264.9,74.8 266.6,74.7 268.2,74.5 269.8,74.4 271.5,74.2 273.1,74.0 274.7,73.8 276.3,73.5 278.0,73.3 279.6,73.2 281.2,73.1 282.9,73.0 284.5,72.7 286.1,72.5 287.8,72.2 289.4,72.0 291.0,71.8 292.7,71.6 294.3,71.5 295.9,71.3 297.6,71.0 299.2,70.7 300.8,70.5 302.4,70.2 304.1,69.8 305.7,69.7 307.3,69.6 309.0,69.5 310.6,69.3 312.2,69.1 313.9,68.9 315.5,68.7 317.1,68.5 318.8,68.4 320.4,68.2 322.0,68.0 323.7,68.0 325.3,67.8 326.9,67.5 328.5,67.3 330.2,67.1 331.8,67.0 333.4,66.8 335.1,66.7 336.7,66.5 338.3,66.4 340.0,66.2 341.6,65.9 343.2,65.5 344.9,65.3 346.5,65.1 348.1,65.1 349.8,65.0 351.4,64.8 353.0,64.5 354.7,64.3 356.3,64.2 357.9,64.0 359.5,63.8 361.2,63.6 362.8,63.5 364.4,63.4 366.1,63.1 367.7,62.9 369.3,62.7 371.0,62.5 372.6,62.4 374.2,62.3 375.9,62.2 377.5,62.0 379.1,61.9 380.8,61.7 382.4,61.5 384.0,61.3 385.6,61.2 387.3,61.1 388.9,60.9 390.5,60.8 392.2,60.5 393.8,60.3 395.4,60.1 397.1,59.9 398.7,59.8 400.3,59.7 402.0,59.6 403.6,59.5 405.2,59.3 406.9,59.2 408.5,58.9 410.1,58.8 411.8,58.6 413.4,58.5 415.0,58.3 416.6,58.2 418.3,58.0 419.9,57.8 421.5,57.7 423.2,57.6 424.8,57.4 426.4,57.2 428.1,57.0 429.7,56.9 431.3,56.8 433.0,56.7 434.6,56.6 436.2,56.4 437.9,56.3 439.5,56.2 441.1,56.1 442.7,55.7 444.4,55.5 446.0,60.3 447.6,59.4 449.3,57.6 450.9,56.9 452.5,56.0 454.2,55.0 455.8,54.4 457.4,54.0 459.1,53.3 460.7,52.3 462.3,51.5 464.0,51.2 465.6,50.8 467.2,50.5 468.9,50.0 470.5,49.5 472.1,48.9 473.7,48.6 475.4,48.1 477.0,47.8 478.6,47.4 480.3,47.2 481.9,46.9 483.5,46.7 485.2,46.1 486.8,45.8 488.4,45.3 490.1,44.6 491.7,44.2 493.3,44.0 495.0,43.8 496.6,43.6 498.2,43.1 499.8,42.7 501.5,42.4 503.1,41.4 504.7,40.7 506.4,40.3 508.0,40.1 509.6,39.8 511.3,39.3 512.9,38.8 514.5,38.5 516.2,38.2 517.8,37.8 519.4,37.5 521.1,37.1 522.7,36.7 524.3,36.4 526.0,36.2 527.6,36.0 529.2,35.6 530.8,35.3 532.5,35.0 534.1,34.9 535.7,34.7 537.4,34.4 539.0,34.2 540.6,34.0 542.3,33.8 543.9,33.6 545.5,33.4 547.2,33.1 548.8,32.9 550.4,32.5 552.1,32.1 553.7,31.8 555.3,31.6 556.9,31.4 558.6,31.2 560.2,31.0 561.8,30.8 563.5,30.6 565.1,30.5 566.7,30.4 568.4,30.1 570.0,30.0" />
  
  <!-- Punto finale luminoso -->
  <circle cx="570.0" cy="30.0" r="4" fill="#ffffff" stroke="#0366d6" stroke-width="2.5" />
</svg>