<svg width="600" height="150" viewBox="0 0 600 150" xmlns="http://www.w3.org/2000/svg">
  <defs>
    <filter id="shadow2" x="-2%" y="-2%" width="104%" height="108%">
      <feDropShadow dx="0" dy="2" stdDeviation="3" flood-opacity="0.1" />
    </filter>
    <linearGradient id="fillGrad" x1="0" y1="0" x2="0" y2="1">
      <stop offset="0%" stop-color="#0366d6" stop-opacity="0.3"/>
      <stop offset="100%" stop-color="#0366d6" stop-opacity="0.02"/>
    </linearGradient>
  </defs>
  <rect width="600" height="150" rx="12" fill="#ffffff" filter="url(#shadow2)" stroke="#e1e4e8" stroke-width="1"/>
  <text x="20" y="24" fill="#2b3137" font-family="-apple-system,BlinkMacSystemFont,'Segoe UI',Helvetica,Arial,sans-serif" font-size="14" font-weight="600">📈 Download Growth (Actual: 87.3k)</text>
  
  <!-- Area sotto la linea -->
  <polygon fill="url(#fillGrad)" points="30.0,120.0,120 30.0,120.0 31.3,119.5 32.7,119.0 34.0,118.5 35.3,118.4 36.7,118.1 38.0,117.6 39.3,117.2 40.6,116.9 42.0,116.3 43.3,116.0 44.6,115.7 46.0,115.6 47.3,115.3 48.6,114.9 50.0,114.5 51.3,114.2 52.6,113.9 53.9,113.8 55.3,113.5 56.6,113.2 57.9,112.9 59.3,112.8 60.6,112.5 61.9,111.6 63.3,111.3 64.6,111.0 65.9,110.6 67.2,110.3 68.6,110.0 69.9,109.8 71.2,109.6 72.6,109.3 73.9,108.9 75.2,108.5 76.6,108.2 77.9,107.9 79.2,107.8 80.5,107.8 81.9,107.6 83.2,107.3 84.5,107.1 85.9,107.0 87.2,106.7 88.5,106.2 89.9,106.0 91.2,105.9 92.5,105.7 93.8,105.3 95.2,105.1 96.5,104.7 97.8,104.4 99.2,104.0 100.5,103.9 101.8,103.7 103.2,103.3 104.5,103.0 105.8,102.7 107.1,102.6 108.5,102.4 109.8,102.2 111.1,101.8 112.5,101.4 113.8,101.0 115.1,100.7 116.5,100.5 117.8,100.4 119.1,100.3 120.4,100.0 121.8,99.8 123.1,99.6 124.4,99.5 125.8,99.4 127.1,99.2 128.4,99.0 129.8,99.0 131.1,98.9 132.4,98.5 133.7,98.3 135.1,98.2 136.4,98.1 137.7,98.0 139.1,98.0 140.4,104.3 141.7,103.7 143.1,103.1 144.4,102.5 145.7,100.8 147.0,99.6 148.4,98.3 149.7,97.8 151.0,97.3 152.4,96.4 153.7,95.5 155.0,94.8 156.4,94.5 157.7,94.2 159.0,93.5 160.3,93.0 161.7,92.7 163.0,92.3 164.3,92.2 165.7,92.1 167.0,91.7 168.3,91.1 169.7,90.7 171.0,90.3 172.3,89.8 173.6,89.6 175.0,89.4 176.3,89.0 177.6,88.7 179.0,88.3 180.3,88.0 181.6,87.9 183.0,87.8 184.3,87.6 185.6,87.3 186.9,87.1 188.3,86.8 189.6,86.6 190.9,86.5 192.3,86.3 193.6,86.1 194.9,86.0 196.3,85.8 197.6,85.5 198.9,85.2 200.2,85.0 201.6,84.8 202.9,84.6 204.2,84.5 205.6,84.3 206.9,84.2 208.2,83.7 209.6,83.4 210.9,83.1 212.2,82.9 213.5,82.9 214.9,82.7 216.2,82.5 217.5,82.3 218.9,82.0 220.2,81.8 221.5,81.6 222.9,81.5 224.2,81.3 225.5,81.2 226.8,81.1 228.2,80.9 229.5,80.8 230.8,80.5 232.2,80.3 233.5,80.3 234.8,80.1 236.2,80.0 237.5,79.8 238.8,79.6 240.1,79.4 241.5,79.2 242.8,79.0 244.1,78.9 245.5,78.8 246.8,78.6 248.1,78.4 249.5,78.1 250.8,77.9 252.1,77.7 253.4,77.4 254.8,77.3 256.1,77.2 257.4,77.1 258.8,76.9 260.1,76.7 261.4,76.6 262.8,76.4 264.1,76.3 265.4,76.1 266.7,76.0 268.1,75.9 269.4,75.8 270.7,75.6 272.1,75.4 273.4,75.2 274.7,75.0 276.1,74.9 277.4,74.8 278.7,74.7 280.0,74.6 281.4,74.5 282.7,74.3 284.0,74.0 285.4,73.7 286.7,73.6 288.0,73.4 289.4,73.3 290.7,73.3 292.0,73.1 293.3,72.8 294.7,72.7 296.0,72.6 297.3,72.4 298.7,72.3 300.0,72.1 301.3,72.0 302.7,71.9 304.0,71.7 305.3,71.5 306.7,71.3 308.0,71.1 309.3,71.0 310.6,71.0 312.0,70.9 313.3,70.8 314.6,70.6 316.0,70.5 317.3,70.3 318.6,70.1 320.0,70.0 321.3,69.9 322.6,69.8 323.9,69.7 325.3,69.5 326.6,69.2 327.9,69.1 329.3,68.9 330.6,68.8 331.9,68.7 333.3,68.6 334.6,68.6 335.9,68.5 337.2,68.3 338.6,68.1 339.9,68.0 341.2,67.8 342.6,67.7 343.9,67.6 345.2,67.5 346.6,67.3 347.9,67.2 349.2,67.1 350.5,66.9 351.9,66.8 353.2,66.6 354.5,66.5 355.9,66.4 357.2,66.3 358.5,66.2 359.9,66.1 361.2,66.0 362.5,65.9 363.8,65.8 365.2,65.7 366.5,65.4 367.8,65.2 369.2,69.3 370.5,68.5 371.8,66.9 373.2,66.4 374.5,65.6 375.8,64.7 377.1,64.3 378.5,63.9 379.8,63.3 381.1,62.5 382.5,61.8 383.8,61.6 385.1,61.2 386.5,61.0 387.8,60.5 389.1,60.1 390.4,59.6 391.8,59.3 393.1,58.9 394.4,58.6 395.8,58.3 397.1,58.1 398.4,57.9 399.8,57.7 401.1,57.2 402.4,56.9 403.7,56.5 405.1,56.0 406.4,55.6 407.7,55.4 409.1,55.3 410.4,55.0 411.7,54.7 413.1,54.4 414.4,54.1 415.7,53.2 417.0,52.6 418.4,52.3 419.7,52.1 421.0,51.8 422.4,51.4 423.7,51.0 425.0,50.7 426.4,50.5 427.7,50.2 429.0,49.9 430.3,49.6 431.7,49.2 433.0,49.0 434.3,48.8 435.7,48.7 437.0,48.3 438.3,48.0 439.7,47.8 441.0,47.7 442.3,47.5 443.6,47.3 445.0,47.1 446.3,46.9 447.6,46.7 449.0,46.6 450.3,46.4 451.6,46.2 453.0,46.0 454.3,45.7 455.6,45.3 456.9,45.1 458.3,44.9 459.6,44.7 460.9,44.6 462.3,44.4 463.6,44.2 464.9,44.1 466.3,44.0 467.6,43.8 468.9,43.6 470.2,43.5 471.6,43.2 472.9,43.1 474.2,43.0 475.6,42.7 476.9,42.4 478.2,42.1 479.6,41.9 480.9,41.7 482.2,41.5 483.5,41.2 484.9,41.0 486.2,40.8 487.5,40.6 488.9,40.5 490.2,40.4 491.5,40.2 492.9,39.9 494.2,39.8 495.5,39.7 496.8,39.5 498.2,39.2 499.5,39.1 500.8,38.8 502.2,38.6 503.5,38.3 504.8,38.1 506.2,37.9 507.5,37.8 508.8,37.7 510.1,37.5 511.5,37.3 512.8,37.1 514.1,36.9 515.5,36.8 516.8,36.7 518.1,36.5 519.5,36.3 520.8,36.2 522.1,36.1 523.4,35.9 524.8,35.8 526.1,35.7 527.4,35.5 528.8,35.3 530.1,35.2 531.4,35.1 532.8,34.9 534.1,34.7 535.4,34.5 536.7,34.4 538.1,34.2 539.4,34.1 540.7,33.9 542.1,33.7 543.4,33.4 544.7,33.3 546.1,33.2 547.4,33.2 548.7,33.0 550.0,32.8 551.4,32.6 552.7,32.3 554.0,32.2 555.4,32.0 556.7,31.9 558.0,31.8 559.4,31.6 560.7,31.4 562.0,31.2 563.3,31.0 564.7,30.9 566.0,30.6 567.3,30.4 568.7,30.3 570.0,30.0 570.0,30.0,120" />
  
  <!-- Linea principale -->
  <polyline fill="none" stroke="#0366d6" stroke-width="2.5" stroke-linecap="round" stroke-linejoin="round" points="30.0,120.0 31.3,119.5 32.7,119.0 34.0,118.5 35.3,118.4 36.7,118.1 38.0,117.6 39.3,117.2 40.6,116.9 42.0,116.3 43.3,116.0 44.6,115.7 46.0,115.6 47.3,115.3 48.6,114.9 50.0,114.5 51.3,114.2 52.6,113.9 53.9,113.8 55.3,113.5 56.6,113.2 57.9,112.9 59.3,112.8 60.6,112.5 61.9,111.6 63.3,111.3 64.6,111.0 65.9,110.6 67.2,110.3 68.6,110.0 69.9,109.8 71.2,109.6 72.6,109.3 73.9,108.9 75.2,108.5 76.6,108.2 77.9,107.9 79.2,107.8 80.5,107.8 81.9,107.6 83.2,107.3 84.5,107.1 85.9,107.0 87.2,106.7 88.5,106.2 89.9,106.0 91.2,105.9 92.5,105.7 93.8,105.3 95.2,105.1 96.5,104.7 97.8,104.4 99.2,104.0 100.5,103.9 101.8,103.7 103.2,103.3 104.5,103.0 105.8,102.7 107.1,102.6 108.5,102.4 109.8,102.2 111.1,101.8 112.5,101.4 113.8,101.0 115.1,100.7 116.5,100.5 117.8,100.4 119.1,100.3 120.4,100.0 121.8,99.8 123.1,99.6 124.4,99.5 125.8,99.4 127.1,99.2 128.4,99.0 129.8,99.0 131.1,98.9 132.4,98.5 133.7,98.3 135.1,98.2 136.4,98.1 137.7,98.0 139.1,98.0 140.4,104.3 141.7,103.7 143.1,103.1 144.4,102.5 145.7,100.8 147.0,99.6 148.4,98.3 149.7,97.8 151.0,97.3 152.4,96.4 153.7,95.5 155.0,94.8 156.4,94.5 157.7,94.2 159.0,93.5 160.3,93.0 161.7,92.7 163.0,92.3 164.3,92.2 165.7,92.1 167.0,91.7 168.3,91.1 169.7,90.7 171.0,90.3 172.3,89.8 173.6,89.6 175.0,89.4 176.3,89.0 177.6,88.7 179.0,88.3 180.3,88.0 181.6,87.9 183.0,87.8 184.3,87.6 185.6,87.3 186.9,87.1 188.3,86.8 189.6,86.6 190.9,86.5 192.3,86.3 193.6,86.1 194.9,86.0 196.3,85.8 197.6,85.5 198.9,85.2 200.2,85.0 201.6,84.8 202.9,84.6 204.2,84.5 205.6,84.3 206.9,84.2 208.2,83.7 209.6,83.4 210.9,83.1 212.2,82.9 213.5,82.9 214.9,82.7 216.2,82.5 217.5,82.3 218.9,82.0 220.2,81.8 221.5,81.6 222.9,81.5 224.2,81.3 225.5,81.2 226.8,81.1 228.2,80.9 229.5,80.8 230.8,80.5 232.2,80.3 233.5,80.3 234.8,80.1 236.2,80.0 237.5,79.8 238.8,79.6 240.1,79.4 241.5,79.2 242.8,79.0 244.1,78.9 245.5,78.8 246.8,78.6 248.1,78.4 249.5,78.1 250.8,77.9 252.1,77.7 253.4,77.4 254.8,77.3 256.1,77.2 257.4,77.1 258.8,76.9 260.1,76.7 261.4,76.6 262.8,76.4 264.1,76.3 265.4,76.1 266.7,76.0 268.1,75.9 269.4,75.8 270.7,75.6 272.1,75.4 273.4,75.2 274.7,75.0 276.1,74.9 277.4,74.8 278.7,74.7 280.0,74.6 281.4,74.5 282.7,74.3 284.0,74.0 285.4,73.7 286.7,73.6 288.0,73.4 289.4,73.3 290.7,73.3 292.0,73.1 293.3,72.8 294.7,72.7 296.0,72.6 297.3,72.4 298.7,72.3 300.0,72.1 301.3,72.0 302.7,71.9 304.0,71.7 305.3,71.5 306.7,71.3 308.0,71.1 309.3,71.0 310.6,71.0 312.0,70.9 313.3,70.8 314.6,70.6 316.0,70.5 317.3,70.3 318.6,70.1 320.0,70.0 321.3,69.9 322.6,69.8 323.9,69.7 325.3,69.5 326.6,69.2 327.9,69.1 329.3,68.9 330.6,68.8 331.9,68.7 333.3,68.6 334.6,68.6 335.9,68.5 337.2,68.3 338.6,68.1 339.9,68.0 341.2,67.8 342.6,67.7 343.9,67.6 345.2,67.5 346.6,67.3 347.9,67.2 349.2,67.1 350.5,66.9 351.9,66.8 353.2,66.6 354.5,66.5 355.9,66.4 357.2,66.3 358.5,66.2 359.9,66.1 361.2,66.0 362.5,65.9 363.8,65.8 365.2,65.7 366.5,65.4 367.8,65.2 369.2,69.3 370.5,68.5 371.8,66.9 373.2,66.4 374.5,65.6 375.8,64.7 377.1,64.3 378.5,63.9 379.8,63.3 381.1,62.5 382.5,61.8 383.8,61.6 385.1,61.2 386.5,61.0 387.8,60.5 389.1,60.1 390.4,59.6 391.8,59.3 393.1,58.9 394.4,58.6 395.8,58.3 397.1,58.1 398.4,57.9 399.8,57.7 401.1,57.2 402.4,56.9 403.7,56.5 405.1,56.0 406.4,55.6 407.7,55.4 409.1,55.3 410.4,55.0 411.7,54.7 413.1,54.4 414.4,54.1 415.7,53.2 417.0,52.6 418.4,52.3 419.7,52.1 421.0,51.8 422.4,51.4 423.7,51.0 425.0,50.7 426.4,50.5 427.7,50.2 429.0,49.9 430.3,49.6 431.7,49.2 433.0,49.0 434.3,48.8 435.7,48.7 437.0,48.3 438.3,48.0 439.7,47.8 441.0,47.7 442.3,47.5 443.6,47.3 445.0,47.1 446.3,46.9 447.6,46.7 449.0,46.6 450.3,46.4 451.6,46.2 453.0,46.0 454.3,45.7 455.6,45.3 456.9,45.1 458.3,44.9 459.6,44.7 460.9,44.6 462.3,44.4 463.6,44.2 464.9,44.1 466.3,44.0 467.6,43.8 468.9,43.6 470.2,43.5 471.6,43.2 472.9,43.1 474.2,43.0 475.6,42.7 476.9,42.4 478.2,42.1 479.6,41.9 480.9,41.7 482.2,41.5 483.5,41.2 484.9,41.0 486.2,40.8 487.5,40.6 488.9,40.5 490.2,40.4 491.5,40.2 492.9,39.9 494.2,39.8 495.5,39.7 496.8,39.5 498.2,39.2 499.5,39.1 500.8,38.8 502.2,38.6 503.5,38.3 504.8,38.1 506.2,37.9 507.5,37.8 508.8,37.7 510.1,37.5 511.5,37.3 512.8,37.1 514.1,36.9 515.5,36.8 516.8,36.7 518.1,36.5 519.5,36.3 520.8,36.2 522.1,36.1 523.4,35.9 524.8,35.8 526.1,35.7 527.4,35.5 528.8,35.3 530.1,35.2 531.4,35.1 532.8,34.9 534.1,34.7 535.4,34.5 536.7,34.4 538.1,34.2 539.4,34.1 540.7,33.9 542.1,33.7 543.4,33.4 544.7,33.3 546.1,33.2 547.4,33.2 548.7,33.0 550.0,32.8 551.4,32.6 552.7,32.3 554.0,32.2 555.4,32.0 556.7,31.9 558.0,31.8 559.4,31.6 560.7,31.4 562.0,31.2 563.3,31.0 564.7,30.9 566.0,30.6 567.3,30.4 568.7,30.3 570.0,30.0" />
  
  <!-- Punto finale luminoso -->
  <circle cx="570.0" cy="30.0" r="4" fill="#ffffff" stroke="#0366d6" stroke-width="2.5" />
</svg>