<svg width="600" height="150" viewBox="0 0 600 150" xmlns="http://www.w3.org/2000/svg">
  <defs>
    <filter id="shadow2" x="-2%" y="-2%" width="104%" height="108%">
      <feDropShadow dx="0" dy="2" stdDeviation="3" flood-opacity="0.1" />
    </filter>
    <linearGradient id="fillGrad" x1="0" y1="0" x2="0" y2="1">
      <stop offset="0%" stop-color="#0366d6" stop-opacity="0.3"/>
      <stop offset="100%" stop-color="#0366d6" stop-opacity="0.02"/>
    </linearGradient>
  </defs>
  <rect width="600" height="150" rx="12" fill="#ffffff" filter="url(#shadow2)" stroke="#e1e4e8" stroke-width="1"/>
  <text x="20" y="24" fill="#2b3137" font-family="-apple-system,BlinkMacSystemFont,'Segoe UI',Helvetica,Arial,sans-serif" font-size="14" font-weight="600">📈 Download Growth (Actual: 78.0k)</text>
  
  <!-- Area sotto la linea -->
  <polygon fill="url(#fillGrad)" points="30.0,120.0,120 30.0,120.0 32.6,119.1 35.1,118.1 37.7,117.3 40.2,117.0 42.8,116.6 45.4,115.5 47.9,114.8 50.5,114.3 53.0,113.3 55.6,112.7 58.2,112.2 60.7,111.9 63.3,111.4 65.8,110.6 68.4,109.9 70.9,109.3 73.5,108.9 76.1,108.6 78.6,108.1 81.2,107.5 83.7,107.0 86.3,106.8 88.9,106.3 91.4,104.6 94.0,104.1 96.5,103.4 99.1,102.7 101.7,102.1 104.2,101.6 106.8,101.2 109.3,100.9 111.9,100.4 114.5,99.6 117.0,98.9 119.6,98.4 122.1,97.8 124.7,97.7 127.3,97.5 129.8,97.2 132.4,96.7 134.9,96.4 137.5,96.1 140.0,95.5 142.6,94.6 145.2,94.4 147.7,94.2 150.3,93.8 152.8,93.1 155.4,92.6 158.0,91.9 160.5,91.3 163.1,90.7 165.6,90.5 168.2,90.1 170.8,89.4 173.3,88.7 175.9,88.2 178.4,88.0 181.0,87.6 183.6,87.3 186.1,86.6 188.7,85.9 191.2,85.2 193.8,84.6 196.4,84.3 198.9,84.1 201.5,83.8 204.0,83.3 206.6,82.9 209.1,82.6 211.7,82.4 214.3,82.1 216.8,81.8 219.4,81.5 221.9,81.4 224.5,81.2 227.1,80.5 229.6,80.1 232.2,80.0 234.7,79.7 237.3,79.6 239.9,79.6 242.4,91.1 245.0,90.0 247.5,89.0 250.1,87.9 252.7,84.8 255.2,82.6 257.8,80.2 260.3,79.3 262.9,78.3 265.5,76.7 268.0,75.0 270.6,73.7 273.1,73.2 275.7,72.7 278.2,71.5 280.8,70.5 283.4,69.9 285.9,69.2 288.5,68.9 291.0,68.8 293.6,68.1 296.2,67.0 298.7,66.2 301.3,65.5 303.8,64.6 306.4,64.2 309.0,63.9 311.5,63.1 314.1,62.5 316.6,61.8 319.2,61.3 321.8,61.1 324.3,60.9 326.9,60.5 329.4,60.0 332.0,59.5 334.5,59.1 337.1,58.8 339.7,58.4 342.2,58.1 344.8,57.8 347.3,57.6 349.9,57.3 352.5,56.7 355.0,56.2 357.6,55.7 360.1,55.4 362.7,55.1 365.3,54.8 367.8,54.6 370.4,54.3 372.9,53.5 375.5,52.9 378.1,52.2 380.6,51.9 383.2,51.9 385.7,51.5 388.3,51.2 390.9,50.7 393.4,50.3 396.0,49.8 398.5,49.5 401.1,49.3 403.6,49.0 406.2,48.8 408.8,48.6 411.3,48.2 413.9,48.0 416.4,47.5 419.0,47.2 421.6,47.1 424.1,46.8 426.7,46.7 429.2,46.2 431.8,45.9 434.4,45.5 436.9,45.1 439.5,44.8 442.0,44.5 444.6,44.3 447.2,44.1 449.7,43.6 452.3,43.1 454.8,42.7 457.4,42.4 460.0,41.7 462.5,41.6 465.1,41.4 467.6,41.2 470.2,40.9 472.7,40.6 475.3,40.3 477.9,40.0 480.4,39.7 483.0,39.5 485.5,39.2 488.1,39.0 490.7,38.8 493.2,38.5 495.8,38.1 498.3,37.9 500.9,37.5 503.5,37.3 506.0,37.1 508.6,36.8 511.1,36.6 513.7,36.4 516.3,36.1 518.8,35.6 521.4,35.1 523.9,34.7 526.5,34.5 529.1,34.4 531.6,34.2 534.2,33.9 536.7,33.4 539.3,33.2 541.8,33.0 544.4,32.7 547.0,32.4 549.5,32.1 552.1,31.9 554.6,31.7 557.2,31.3 559.8,31.0 562.3,30.6 564.9,30.3 567.4,30.1 570.0,30.0 570.0,30.0,120" />
  
  <!-- Linea principale -->
  <polyline fill="none" stroke="#0366d6" stroke-width="2.5" stroke-linecap="round" stroke-linejoin="round" points="30.0,120.0 32.6,119.1 35.1,118.1 37.7,117.3 40.2,117.0 42.8,116.6 45.4,115.5 47.9,114.8 50.5,114.3 53.0,113.3 55.6,112.7 58.2,112.2 60.7,111.9 63.3,111.4 65.8,110.6 68.4,109.9 70.9,109.3 73.5,108.9 76.1,108.6 78.6,108.1 81.2,107.5 83.7,107.0 86.3,106.8 88.9,106.3 91.4,104.6 94.0,104.1 96.5,103.4 99.1,102.7 101.7,102.1 104.2,101.6 106.8,101.2 109.3,100.9 111.9,100.4 114.5,99.6 117.0,98.9 119.6,98.4 122.1,97.8 124.7,97.7 127.3,97.5 129.8,97.2 132.4,96.7 134.9,96.4 137.5,96.1 140.0,95.5 142.6,94.6 145.2,94.4 147.7,94.2 150.3,93.8 152.8,93.1 155.4,92.6 158.0,91.9 160.5,91.3 163.1,90.7 165.6,90.5 168.2,90.1 170.8,89.4 173.3,88.7 175.9,88.2 178.4,88.0 181.0,87.6 183.6,87.3 186.1,86.6 188.7,85.9 191.2,85.2 193.8,84.6 196.4,84.3 198.9,84.1 201.5,83.8 204.0,83.3 206.6,82.9 209.1,82.6 211.7,82.4 214.3,82.1 216.8,81.8 219.4,81.5 221.9,81.4 224.5,81.2 227.1,80.5 229.6,80.1 232.2,80.0 234.7,79.7 237.3,79.6 239.9,79.6 242.4,91.1 245.0,90.0 247.5,89.0 250.1,87.9 252.7,84.8 255.2,82.6 257.8,80.2 260.3,79.3 262.9,78.3 265.5,76.7 268.0,75.0 270.6,73.7 273.1,73.2 275.7,72.7 278.2,71.5 280.8,70.5 283.4,69.9 285.9,69.2 288.5,68.9 291.0,68.8 293.6,68.1 296.2,67.0 298.7,66.2 301.3,65.5 303.8,64.6 306.4,64.2 309.0,63.9 311.5,63.1 314.1,62.5 316.6,61.8 319.2,61.3 321.8,61.1 324.3,60.9 326.9,60.5 329.4,60.0 332.0,59.5 334.5,59.1 337.1,58.8 339.7,58.4 342.2,58.1 344.8,57.8 347.3,57.6 349.9,57.3 352.5,56.7 355.0,56.2 357.6,55.7 360.1,55.4 362.7,55.1 365.3,54.8 367.8,54.6 370.4,54.3 372.9,53.5 375.5,52.9 378.1,52.2 380.6,51.9 383.2,51.9 385.7,51.5 388.3,51.2 390.9,50.7 393.4,50.3 396.0,49.8 398.5,49.5 401.1,49.3 403.6,49.0 406.2,48.8 408.8,48.6 411.3,48.2 413.9,48.0 416.4,47.5 419.0,47.2 421.6,47.1 424.1,46.8 426.7,46.7 429.2,46.2 431.8,45.9 434.4,45.5 436.9,45.1 439.5,44.8 442.0,44.5 444.6,44.3 447.2,44.1 449.7,43.6 452.3,43.1 454.8,42.7 457.4,42.4 460.0,41.7 462.5,41.6 465.1,41.4 467.6,41.2 470.2,40.9 472.7,40.6 475.3,40.3 477.9,40.0 480.4,39.7 483.0,39.5 485.5,39.2 488.1,39.0 490.7,38.8 493.2,38.5 495.8,38.1 498.3,37.9 500.9,37.5 503.5,37.3 506.0,37.1 508.6,36.8 511.1,36.6 513.7,36.4 516.3,36.1 518.8,35.6 521.4,35.1 523.9,34.7 526.5,34.5 529.1,34.4 531.6,34.2 534.2,33.9 536.7,33.4 539.3,33.2 541.8,33.0 544.4,32.7 547.0,32.4 549.5,32.1 552.1,31.9 554.6,31.7 557.2,31.3 559.8,31.0 562.3,30.6 564.9,30.3 567.4,30.1 570.0,30.0" />
  
  <!-- Punto finale luminoso -->
  <circle cx="570.0" cy="30.0" r="4" fill="#ffffff" stroke="#0366d6" stroke-width="2.5" />
</svg>